G04 Layer_Physical_Order=4*
G04 Layer_Color=16711680*
%FSLAX25Y25*%
%MOIN*%
%TF.FileFunction,Copper,L4,Bot,Signal*%
%TF.Part,Single*%
G01*
G75*
%TA.AperFunction,SMDPad*%
%ADD10R,0.02559X0.02362*%
%TA.AperFunction,SMDPad*%
%ADD11R,0.03937X0.03268*%
%TA.AperFunction,SMDPad*%
%ADD12R,0.02362X0.02559*%
%ADD26C,0.00800*%
%ADD28C,0.01000*%
%TA.AperFunction,ViaPad*%
%ADD31R,0.03937X0.03937*%
%TA.AperFunction,ViaPad*%
%ADD32C,0.03937*%
%TA.AperFunction,ViaPad*%
%ADD33R,0.03937X0.03937*%
%TA.AperFunction,ViaPad*%
%ADD34R,0.00394X0.00394*%
%TA.AperFunction,ViaPad*%
%ADD35O,0.05906X0.04724*%
%TA.AperFunction,ViaPad*%
%ADD36C,0.01800*%
%TA.AperFunction,SMDPad*%
%ADD62O,0.01181X0.05315*%
%TA.AperFunction,SMDPad*%
%ADD63R,0.03543X0.05512*%
%TA.AperFunction,SMDPad*%
%ADD64R,0.03150X0.00984*%
%TA.AperFunction,SMDPad*%
%ADD65R,0.01575X0.03543*%
%TA.AperFunction,SMDPad*%
%ADD66R,0.05512X0.04528*%
%TA.AperFunction,SMDPad*%
%ADD67R,0.01181X0.03425*%
%ADD68C,0.02000*%
G36*
X383784Y290000D02*
X383877Y289532D01*
X384142Y289135D01*
X384539Y288870D01*
X385000Y288778D01*
X385007Y288776D01*
X450907D01*
X451342Y288277D01*
X451186Y284305D01*
X450667Y279917D01*
X449805Y275584D01*
X448605Y271331D01*
X447076Y267185D01*
X445226Y263173D01*
X443067Y259317D01*
X440612Y255644D01*
X437877Y252174D01*
X434877Y248929D01*
X431633Y245930D01*
X428163Y243194D01*
X424489Y240739D01*
X420634Y238580D01*
X416621Y236730D01*
X412475Y235201D01*
X408223Y234002D01*
X403889Y233140D01*
X399501Y232620D01*
X395086Y232447D01*
X390671Y232620D01*
X386283Y233140D01*
X381949Y234002D01*
X377696Y235201D01*
X373551Y236730D01*
X371000Y237906D01*
X369538Y238580D01*
X365683Y240739D01*
X362009Y243194D01*
X358539Y245930D01*
X355294Y248929D01*
X352295Y252174D01*
X349560Y255644D01*
X347105Y259317D01*
X344946Y263173D01*
X343096Y267185D01*
X341566Y271331D01*
X340367Y275584D01*
X339505Y279917D01*
X338986Y284305D01*
X338812Y288720D01*
X338822Y288958D01*
X338830Y288999D01*
Y297276D01*
X383784D01*
Y290000D01*
D02*
G37*
%LPC*%
G36*
X400734Y245808D02*
X399744D01*
Y243695D01*
X400734D01*
Y245808D01*
D02*
G37*
G36*
X402925D02*
X401934D01*
Y243695D01*
X402925D01*
Y245808D01*
D02*
G37*
G36*
X379080D02*
X378090D01*
Y243695D01*
X379080D01*
Y245808D01*
D02*
G37*
G36*
X381271D02*
X380280D01*
Y243695D01*
X381271D01*
Y245808D01*
D02*
G37*
G36*
X375743Y248418D02*
X375009Y248272D01*
X374387Y247856D01*
X373972Y247234D01*
X373826Y246500D01*
X373972Y245766D01*
X374387Y245144D01*
X375009Y244728D01*
X375743Y244582D01*
X376477Y244728D01*
X377100Y245144D01*
X377515Y245766D01*
X377661Y246500D01*
X377515Y247234D01*
X377100Y247856D01*
X376477Y248272D01*
X375743Y248418D01*
D02*
G37*
G36*
X381271Y249306D02*
X380280D01*
Y247193D01*
X381271D01*
Y249306D01*
D02*
G37*
G36*
X400734D02*
X399744D01*
Y247193D01*
X400734D01*
Y249306D01*
D02*
G37*
G36*
X402925D02*
X401934D01*
Y247193D01*
X402925D01*
Y249306D01*
D02*
G37*
G36*
X379080D02*
X378090D01*
Y247193D01*
X379080D01*
Y249306D01*
D02*
G37*
G36*
X402945Y252567D02*
X399000D01*
Y252317D01*
X399744Y251574D01*
Y250506D01*
X402925D01*
Y252552D01*
X402945Y252567D01*
D02*
G37*
G36*
X389523Y254608D02*
X388899Y254484D01*
X388370Y254130D01*
X388016Y253601D01*
X387892Y252977D01*
X387923Y252819D01*
X387513Y252319D01*
X384486D01*
X384341Y252567D01*
X378070D01*
X378090Y252552D01*
Y250506D01*
X381271D01*
Y251574D01*
X381649D01*
X382180Y251644D01*
X382361Y251163D01*
X382347Y251153D01*
X381993Y250624D01*
X381869Y250000D01*
X381993Y249376D01*
X382347Y248847D01*
X382876Y248493D01*
X383500Y248369D01*
X383796Y248428D01*
X384013Y248335D01*
X384296Y248052D01*
Y247493D01*
X384363D01*
Y245508D01*
X384296D01*
Y244804D01*
X384294Y244796D01*
X384296Y244787D01*
Y240872D01*
X383830Y240599D01*
X383344Y240972D01*
X382526Y241311D01*
X381649Y241426D01*
X381271D01*
Y242495D01*
X378090D01*
Y240472D01*
X384457Y240443D01*
X384878Y240000D01*
Y239224D01*
X384876Y239204D01*
X384870Y239174D01*
X384868Y239168D01*
X384846Y239154D01*
X384493Y238624D01*
X384369Y238000D01*
X384493Y237376D01*
X384846Y236846D01*
X385230Y236590D01*
D01*
D01*
X385376Y236493D01*
X386000Y236369D01*
X386624Y236493D01*
X387154Y236846D01*
X387366Y237165D01*
X387757Y237313D01*
X387983Y237256D01*
X388376Y236993D01*
X389000Y236869D01*
X389624Y236993D01*
X390154Y237347D01*
X390489Y237848D01*
D01*
X390702Y237876D01*
X390798D01*
X391011Y237848D01*
X391347Y237347D01*
X391876Y236993D01*
X392500Y236869D01*
X393124Y236993D01*
X393653Y237347D01*
X394007Y237876D01*
X394112Y238402D01*
X394411Y238601D01*
X394607Y238672D01*
X394876Y238493D01*
X395500Y238369D01*
X396124Y238493D01*
X396654Y238846D01*
X397007Y239376D01*
X397131Y240000D01*
X397109Y240113D01*
X397426Y240500D01*
X402925D01*
Y242495D01*
X399744D01*
Y241426D01*
X399366D01*
X398488Y241311D01*
X397670Y240972D01*
X397444Y240798D01*
X396800Y240934D01*
X396719Y241056D01*
Y241386D01*
X396721Y241394D01*
X396719Y241403D01*
Y245508D01*
X395250D01*
X394986Y246008D01*
X395092Y246540D01*
X395001Y246993D01*
X395303Y247493D01*
X396719D01*
Y251598D01*
D01*
X396721Y251607D01*
X396719Y251615D01*
Y251623D01*
X396935Y251947D01*
X396954Y252042D01*
X397059Y252572D01*
X396935Y253196D01*
X396719Y253520D01*
X396582Y253725D01*
X396053Y254079D01*
X395574Y254174D01*
X395428Y254203D01*
X394804Y254079D01*
X394275Y253725D01*
X393921Y253196D01*
X393797Y252572D01*
X393589Y252319D01*
X391533D01*
X391123Y252819D01*
X391155Y252977D01*
X391030Y253601D01*
X390677Y254130D01*
X390147Y254484D01*
X389523Y254608D01*
D02*
G37*
G36*
X404673Y240458D02*
X404049Y240334D01*
X403549Y240000D01*
D01*
X403520Y239980D01*
X403166Y239451D01*
X403042Y238827D01*
X403166Y238203D01*
X403520Y237673D01*
X404049Y237320D01*
X404673Y237195D01*
X405298Y237320D01*
X405827Y237673D01*
X406180Y238203D01*
X406305Y238827D01*
X406180Y239451D01*
X405827Y239980D01*
X405797Y240000D01*
X405298Y240334D01*
X404673Y240458D01*
D02*
G37*
G36*
X380621Y296622D02*
X380621Y296621D01*
X359498D01*
X359498Y296622D01*
X359069Y296536D01*
X358705Y296293D01*
X358705Y296293D01*
X357038Y294626D01*
X356653Y294327D01*
X356124Y294680D01*
X355500Y294805D01*
X354876Y294680D01*
X354346Y294327D01*
X353993Y293797D01*
X353869Y293173D01*
X353993Y292549D01*
X354346Y292020D01*
X354876Y291666D01*
X355500Y291542D01*
X356124Y291666D01*
X356653Y292020D01*
X356668Y292041D01*
X356674Y292043D01*
X356703Y292049D01*
X356724Y292052D01*
X357172D01*
X357172Y292052D01*
X357601Y292137D01*
X357965Y292380D01*
X358040Y292456D01*
X358632Y292340D01*
X358846Y292020D01*
X359376Y291666D01*
X360000Y291542D01*
X360624Y291666D01*
X361154Y292020D01*
X361228Y292132D01*
X361256Y292137D01*
X361620Y292380D01*
X362118Y292879D01*
X379065D01*
Y291613D01*
X372875D01*
Y289154D01*
X372375Y289002D01*
X372226Y289226D01*
X371663Y289601D01*
X371141Y289705D01*
X371132Y289749D01*
X371125Y289814D01*
Y291613D01*
X364213D01*
X364213Y291613D01*
Y291613D01*
X363713Y291371D01*
X363624Y291431D01*
X363000Y291555D01*
X362376Y291431D01*
X361846Y291077D01*
X361832Y291056D01*
X361826Y291054D01*
X361796Y291048D01*
X361776Y291045D01*
X351523D01*
X351507Y291124D01*
X351153Y291653D01*
X350719Y291944D01*
X351007Y292376D01*
X351131Y293000D01*
X351007Y293624D01*
X350654Y294153D01*
X350124Y294507D01*
X349554Y294620D01*
Y294980D01*
X342446D01*
Y291020D01*
X342446Y291020D01*
X342387Y290545D01*
X342378Y290500D01*
X342378Y290500D01*
Y285224D01*
X342376Y285204D01*
X342370Y285174D01*
X342368Y285168D01*
X342347Y285154D01*
X341993Y284624D01*
X341869Y284000D01*
X341993Y283376D01*
X342347Y282846D01*
X342352Y282842D01*
X342201Y282343D01*
X341653D01*
Y280171D01*
X344204D01*
Y280371D01*
X344213Y280295D01*
X344237Y280227D01*
X344275Y280171D01*
X345228D01*
Y282343D01*
X345228D01*
X345133Y282842D01*
X345159Y282878D01*
X347035D01*
X347371Y282542D01*
X347278Y282043D01*
X347072D01*
Y281339D01*
X347070Y281330D01*
X347072Y281322D01*
Y277820D01*
X347070Y277811D01*
X347072Y277803D01*
Y277158D01*
X346916Y277002D01*
X346508Y276780D01*
X345720D01*
X345228Y276799D01*
X345228Y277279D01*
Y278971D01*
X344275D01*
X344237Y278915D01*
X344213Y278847D01*
X344204Y278771D01*
Y278971D01*
X341653D01*
Y276799D01*
X341654D01*
X342146Y276780D01*
X342146Y276299D01*
Y275100D01*
X344327D01*
Y273900D01*
X342146D01*
Y272220D01*
X343502D01*
X343913Y271720D01*
X343869Y271500D01*
X343993Y270876D01*
X344346Y270346D01*
X344876Y269993D01*
X345500Y269869D01*
X346124Y269993D01*
X346654Y270346D01*
X346668Y270368D01*
X346674Y270370D01*
X346704Y270376D01*
X346724Y270378D01*
X351035D01*
X352315Y269099D01*
Y268082D01*
X348209D01*
Y264123D01*
X348667D01*
X348935Y263623D01*
X348820Y263451D01*
X348695Y262827D01*
X348820Y262203D01*
X349173Y261673D01*
X349703Y261320D01*
X349891Y261282D01*
X350328Y261183D01*
X350378Y260714D01*
Y257500D01*
X350378Y257500D01*
X350464Y257071D01*
X350707Y256707D01*
X352207Y255207D01*
X352571Y254964D01*
X352795Y254919D01*
X352802Y254913D01*
X352847Y254847D01*
X353376Y254493D01*
X354000Y254369D01*
X354378Y254444D01*
X354878Y254107D01*
Y252015D01*
X354878Y252015D01*
X354964Y251585D01*
X355207Y251221D01*
X359721Y246707D01*
X359721Y246707D01*
X360085Y246464D01*
X360515Y246378D01*
X360515Y246378D01*
X363535D01*
X364378Y245535D01*
Y245000D01*
X364378Y245000D01*
X364464Y244571D01*
X364707Y244207D01*
X367207Y241707D01*
X367207Y241707D01*
X367571Y241464D01*
X368000Y241378D01*
X370776D01*
X370796Y241376D01*
X370826Y241370D01*
X370832Y241368D01*
X370847Y241347D01*
X371376Y240993D01*
X372000Y240869D01*
X372624Y240993D01*
X373153Y241347D01*
X373507Y241876D01*
X373631Y242500D01*
X373507Y243124D01*
X373153Y243653D01*
X372624Y244007D01*
X372000Y244131D01*
X371376Y244007D01*
X370847Y243653D01*
X370832Y243632D01*
X370826Y243631D01*
X370796Y243624D01*
X370776Y243621D01*
X370105D01*
X369837Y244122D01*
X370007Y244376D01*
X370131Y245000D01*
X370007Y245624D01*
X369654Y246153D01*
X369124Y246507D01*
X368629Y246606D01*
Y247965D01*
X368640Y248026D01*
X368667Y248115D01*
X368710Y248217D01*
X368772Y248334D01*
X368852Y248464D01*
X368948Y248597D01*
X369226Y248922D01*
X369356Y249055D01*
X369410Y249097D01*
X369838Y249654D01*
X370107Y250303D01*
X370199Y251000D01*
X370107Y251697D01*
X369838Y252346D01*
X369410Y252903D01*
X369025Y253199D01*
X368988Y253299D01*
Y253701D01*
X369025Y253801D01*
X369410Y254097D01*
X369838Y254654D01*
X370107Y255303D01*
X370199Y256000D01*
X370107Y256697D01*
X369838Y257346D01*
X369650Y257591D01*
X369853Y258147D01*
X370073Y258195D01*
X370376Y257993D01*
X371000Y257869D01*
X371624Y257993D01*
X372153Y258347D01*
X372507Y258876D01*
X372631Y259500D01*
X372507Y260124D01*
X372153Y260653D01*
X371624Y261007D01*
X371065Y261118D01*
X370902Y261209D01*
X370868Y261255D01*
X370874Y261520D01*
X371348Y261899D01*
X371500Y261869D01*
X372124Y261993D01*
X372654Y262347D01*
X373007Y262876D01*
X373044Y263064D01*
X373583Y263209D01*
X375586Y261207D01*
X375586Y261207D01*
X375950Y260964D01*
X376379Y260878D01*
X385535D01*
X385707Y260707D01*
X385707Y260707D01*
X386071Y260464D01*
X386500Y260378D01*
X386500Y260379D01*
X390000D01*
X390000Y260378D01*
X390429Y260464D01*
X390793Y260707D01*
X390898Y260812D01*
X391376Y260493D01*
X392000Y260369D01*
X392624Y260493D01*
X393154Y260846D01*
X393507Y261376D01*
X393631Y262000D01*
X393507Y262624D01*
X393342Y262871D01*
X393284Y263017D01*
X393192Y263250D01*
X393342Y263629D01*
X393507Y263876D01*
X393508Y263878D01*
X400042D01*
X400378Y263550D01*
X400438Y263250D01*
X400464Y263121D01*
X400707Y262757D01*
X403757Y259707D01*
X403757Y259707D01*
X404121Y259464D01*
X404550Y259378D01*
X404550Y259379D01*
X411339D01*
Y254331D01*
X411841D01*
X411993Y254084D01*
X412042Y253913D01*
X412045Y253832D01*
X411608Y253397D01*
X411281Y253100D01*
X411245Y253071D01*
X411071Y253036D01*
X410707Y252793D01*
X410707Y252793D01*
X409707Y251793D01*
X409622Y251665D01*
X409122Y251817D01*
Y252672D01*
X409122Y252672D01*
X409036Y253101D01*
X408793Y253465D01*
X408793Y253465D01*
X408151Y254107D01*
X405038Y257220D01*
X403258Y259000D01*
X403251Y259007D01*
X403037Y259220D01*
X402674Y259463D01*
X402244Y259549D01*
X402244Y259549D01*
X379034D01*
X379034Y259549D01*
X378604Y259463D01*
X378240Y259220D01*
X378240Y259220D01*
X374682Y255662D01*
X374656Y255638D01*
X374629Y255616D01*
X374550Y255559D01*
X374534Y255550D01*
X374518Y255541D01*
X374513Y255539D01*
X374488Y255530D01*
X374487Y255529D01*
X374376Y255507D01*
X373847Y255153D01*
X373493Y254624D01*
X373369Y254000D01*
X373493Y253376D01*
X373847Y252847D01*
X374376Y252493D01*
X375000Y252369D01*
X375624Y252493D01*
X376153Y252847D01*
X376301Y253067D01*
X376507Y253376D01*
X376631Y254000D01*
X376558Y254366D01*
X379498Y257306D01*
X401780D01*
X405566Y253519D01*
D01*
X406879Y252207D01*
Y248290D01*
X406379Y248022D01*
X406005Y248272D01*
X405271Y248418D01*
X404537Y248272D01*
X403915Y247856D01*
X403499Y247234D01*
X403353Y246500D01*
X403499Y245766D01*
X403915Y245144D01*
X404537Y244728D01*
X405271Y244582D01*
X406005Y244728D01*
X406093Y244787D01*
X406328Y244944D01*
D01*
X406469Y244886D01*
X406493Y244876D01*
X406847Y244346D01*
X407376Y243993D01*
X408000Y243869D01*
X408624Y243993D01*
X408879Y244163D01*
X409150Y244074D01*
X409397Y243908D01*
X409464Y243571D01*
X409707Y243207D01*
X409946Y242968D01*
Y239020D01*
X417054D01*
Y242980D01*
X412887D01*
X412863Y243102D01*
X412620Y243466D01*
X411996Y244090D01*
X412008Y244162D01*
X412475Y244390D01*
X412554Y244389D01*
X413232Y244108D01*
X413407Y244085D01*
Y247000D01*
X414607D01*
Y244085D01*
X414782Y244108D01*
X415504Y244407D01*
X416124Y244883D01*
X416381Y245217D01*
X417004Y245227D01*
X417104Y245097D01*
X417661Y244669D01*
X418311Y244400D01*
X419007Y244308D01*
X419704Y244400D01*
X420353Y244669D01*
X420910Y245097D01*
X421338Y245654D01*
X421607Y246303D01*
X421699Y247000D01*
X421607Y247697D01*
X421338Y248346D01*
X420910Y248903D01*
X420525Y249199D01*
X420488Y249299D01*
Y249701D01*
X420525Y249801D01*
X420910Y250097D01*
X421338Y250654D01*
X421607Y251303D01*
X421699Y252000D01*
X421607Y252697D01*
X421338Y253346D01*
X420910Y253903D01*
X420525Y254199D01*
X420488Y254299D01*
Y254701D01*
D01*
X420525Y254801D01*
X420910Y255097D01*
X421338Y255654D01*
X421607Y256303D01*
X421699Y257000D01*
X421607Y257697D01*
X421338Y258346D01*
X420910Y258903D01*
X420353Y259331D01*
X419923Y259509D01*
X419780Y260023D01*
X419791Y260083D01*
X420417Y260709D01*
X420959Y260545D01*
X420993Y260376D01*
X421347Y259846D01*
X421876Y259493D01*
X422500Y259369D01*
X423124Y259493D01*
X423654Y259846D01*
X423668Y259868D01*
X423674Y259870D01*
X423703Y259876D01*
X423724Y259878D01*
X426199D01*
X426609Y259378D01*
X426561Y259143D01*
X426410Y259054D01*
X426063Y259123D01*
X425559Y259023D01*
X425133Y258737D01*
X424847Y258311D01*
X424747Y257807D01*
Y253673D01*
X424847Y253170D01*
X424898Y253093D01*
X424899Y253093D01*
X424901Y253084D01*
X424910Y253045D01*
X424917Y253004D01*
X424939Y252697D01*
X424941Y252661D01*
Y252482D01*
X424791Y252256D01*
X424705Y251827D01*
X424382Y251480D01*
X423946D01*
Y247520D01*
X424940D01*
X425034Y247380D01*
X425398Y247137D01*
X425827Y247052D01*
X426256Y247137D01*
X426492Y247295D01*
X426992Y247220D01*
Y247220D01*
X426992Y247220D01*
X428573D01*
Y249500D01*
Y251780D01*
X427864D01*
X427634Y252148D01*
X427815Y252400D01*
X428031Y252357D01*
X428535Y252457D01*
X428621Y252515D01*
X429016Y252715D01*
X429411Y252515D01*
X429496Y252457D01*
X430000Y252357D01*
X430504Y252457D01*
X430589Y252515D01*
X430984Y252715D01*
X431281Y252565D01*
X431390Y252210D01*
X431393Y252100D01*
X431367Y251968D01*
X431194Y251780D01*
X429773D01*
Y249500D01*
Y248233D01*
X430300D01*
X430224Y248224D01*
X430156Y248200D01*
X430096Y248161D01*
X430044Y248105D01*
X430000Y248032D01*
X429964Y247944D01*
X429936Y247840D01*
X429916Y247721D01*
X429904Y247585D01*
X429900Y247432D01*
X429773D01*
Y247346D01*
X429900D01*
X429902Y247253D01*
X429905Y247220D01*
X431354D01*
Y249683D01*
X431847Y249847D01*
X432376Y249493D01*
X433000Y249369D01*
X433624Y249493D01*
X434154Y249847D01*
X434507Y250376D01*
X434631Y251000D01*
X434507Y251624D01*
X434309Y251922D01*
X434321Y251973D01*
X434436Y252437D01*
X434486Y252488D01*
X434867Y252743D01*
X435153Y253170D01*
X435253Y253673D01*
Y257807D01*
X435153Y258311D01*
X434867Y258737D01*
X434441Y259023D01*
X434040Y259102D01*
X434007Y259165D01*
X433884Y259399D01*
X433843Y259613D01*
X435834Y261603D01*
X437445D01*
X437502Y261598D01*
X437521Y261595D01*
Y260946D01*
X438269D01*
X438271Y260933D01*
X438276Y260874D01*
Y260007D01*
X437401Y259132D01*
X437369Y259105D01*
X436876Y259007D01*
X436346Y258653D01*
X435993Y258124D01*
X435869Y257500D01*
X435993Y256876D01*
X436346Y256347D01*
X436876Y255993D01*
X437500Y255869D01*
X438124Y255993D01*
X438654Y256347D01*
X439007Y256876D01*
X439105Y257368D01*
X439147Y257417D01*
X440365Y258635D01*
X440630Y259032D01*
X440724Y259500D01*
Y260874D01*
X440729Y260933D01*
X440731Y260946D01*
X441479D01*
Y263992D01*
X441780D01*
Y265795D01*
X442279Y265947D01*
X442346Y265846D01*
X442876Y265493D01*
X443500Y265369D01*
X444124Y265493D01*
X444654Y265846D01*
X445007Y266376D01*
X445131Y267000D01*
X445126Y267025D01*
X445130Y267031D01*
X445146Y267056D01*
X445159Y267073D01*
X446293Y268207D01*
X446293Y268207D01*
X446536Y268571D01*
X446622Y269000D01*
X446622Y269000D01*
Y274000D01*
X446536Y274429D01*
X446293Y274793D01*
X446293Y274793D01*
X445293Y275793D01*
X444929Y276036D01*
X444500Y276122D01*
X444500Y276121D01*
X441479D01*
Y277054D01*
X439348D01*
X439141Y277554D01*
X439927Y278341D01*
X439944Y278354D01*
X439969Y278370D01*
X439975Y278374D01*
X440000Y278369D01*
X440624Y278493D01*
X441153Y278847D01*
X441507Y279376D01*
X441631Y280000D01*
X441507Y280624D01*
X441153Y281153D01*
X440624Y281507D01*
X440000Y281631D01*
X439376Y281507D01*
X438846Y281153D01*
X438493Y280624D01*
X438369Y280000D01*
X438374Y279975D01*
X438370Y279969D01*
X438354Y279944D01*
X438341Y279927D01*
X437535Y279121D01*
X427465D01*
X424670Y281916D01*
X424861Y282379D01*
X443035D01*
X445341Y280072D01*
X445354Y280056D01*
X445370Y280031D01*
X445374Y280025D01*
X445369Y280000D01*
X445493Y279376D01*
X445847Y278847D01*
X446376Y278493D01*
X447000Y278369D01*
X447624Y278493D01*
X448153Y278847D01*
X448507Y279376D01*
X448631Y280000D01*
X448507Y280624D01*
X448153Y281153D01*
X447624Y281507D01*
X447000Y281631D01*
X446975Y281626D01*
X446969Y281630D01*
X446944Y281646D01*
X446927Y281659D01*
X444293Y284293D01*
X443929Y284536D01*
X443500Y284622D01*
X443500Y284622D01*
X418562D01*
X418523Y284695D01*
X418348Y285122D01*
X418458Y285673D01*
X418334Y286297D01*
X417980Y286827D01*
X417451Y287180D01*
X416827Y287305D01*
X416202Y287180D01*
X415673Y286827D01*
X415320Y286297D01*
X415195Y285673D01*
X415305Y285122D01*
X415131Y284695D01*
X415091Y284622D01*
X408586D01*
X407914Y285293D01*
X407550Y285536D01*
X407121Y285622D01*
X407121Y285622D01*
X400438D01*
X400121Y286008D01*
X400131Y286059D01*
X400007Y286683D01*
X399654Y287213D01*
X399124Y287566D01*
X398500Y287690D01*
X397876Y287566D01*
X397346Y287213D01*
X396993Y286683D01*
X396869Y286059D01*
X396879Y286008D01*
X396562Y285622D01*
X388000D01*
X388000Y285622D01*
X387571Y285536D01*
X387207Y285293D01*
X386035Y284121D01*
X385136D01*
X384500Y284758D01*
X382808Y286450D01*
Y294435D01*
X382808Y294435D01*
X382723Y294864D01*
X382480Y295228D01*
X382480Y295228D01*
X381414Y296293D01*
X381050Y296536D01*
X380621Y296622D01*
D02*
G37*
%LPD*%
G36*
X428400Y261000D02*
X427600Y259800D01*
X427592Y259952D01*
X427568Y260088D01*
X427528Y260208D01*
X427472Y260312D01*
X427400Y260400D01*
X427312Y260472D01*
X427208Y260528D01*
X427088Y260568D01*
X426952Y260592D01*
X426800Y260600D01*
Y261400D01*
X426952Y261404D01*
X427088Y261417D01*
X427208Y261439D01*
X427312Y261469D01*
X427400Y261507D01*
X427472Y261554D01*
X427528Y261610D01*
X427568Y261674D01*
X427592Y261747D01*
X427600Y261828D01*
X428400Y261000D01*
D02*
G37*
G36*
X423190Y261586D02*
X423243Y261547D01*
X423301Y261513D01*
X423363Y261483D01*
X423431Y261457D01*
X423504Y261437D01*
X423582Y261421D01*
X423665Y261409D01*
X423753Y261402D01*
X423846Y261400D01*
Y260600D01*
X423753Y260598D01*
X423665Y260591D01*
X423582Y260579D01*
X423504Y260563D01*
X423431Y260542D01*
X423363Y260517D01*
X423301Y260487D01*
X423243Y260453D01*
X423190Y260414D01*
X423143Y260370D01*
Y261630D01*
X423190Y261586D01*
D02*
G37*
G36*
X353357Y255370D02*
X353313Y255414D01*
X353230Y255487D01*
X353192Y255517D01*
X353155Y255542D01*
X353120Y255563D01*
X353087Y255579D01*
X353057Y255591D01*
X353027Y255598D01*
X353000Y255600D01*
Y256400D01*
X353027Y256402D01*
X353057Y256409D01*
X353087Y256421D01*
X353120Y256437D01*
X353155Y256457D01*
X353192Y256483D01*
X353230Y256513D01*
X353313Y256586D01*
X353357Y256630D01*
Y255370D01*
D02*
G37*
G36*
X355881Y267464D02*
X356311Y267378D01*
X362535D01*
X362878Y267035D01*
Y260672D01*
X362878Y260672D01*
X362964Y260242D01*
X363207Y259878D01*
X364378Y258707D01*
X364378Y258707D01*
X364742Y258464D01*
X365172Y258379D01*
X365402D01*
X365567Y257991D01*
X365585Y257878D01*
X365308Y257518D01*
X365208Y257481D01*
X364806D01*
X364706Y257518D01*
X364410Y257903D01*
X363853Y258331D01*
X363204Y258600D01*
X362507Y258692D01*
X362433Y258682D01*
X362059Y259137D01*
X362131Y259500D01*
X362007Y260124D01*
X361653Y260653D01*
X361124Y261007D01*
X360500Y261131D01*
X359876Y261007D01*
X359347Y260653D01*
X358993Y260124D01*
X358869Y259500D01*
X358874Y259475D01*
X358870Y259469D01*
X358854Y259444D01*
X358841Y259427D01*
X357622Y258208D01*
X357121Y258415D01*
Y262276D01*
X357124Y262297D01*
X357131Y262326D01*
X357132Y262332D01*
X357154Y262347D01*
X357507Y262876D01*
X357631Y263500D01*
X357507Y264124D01*
X357154Y264653D01*
X356624Y265007D01*
X356000Y265131D01*
X355818Y265095D01*
X355318Y265506D01*
Y267239D01*
X355818Y267506D01*
X355881Y267464D01*
D02*
G37*
G36*
X430586Y259810D02*
X430547Y259757D01*
X430513Y259699D01*
X430483Y259636D01*
X430457Y259569D01*
X430437Y259496D01*
X430421Y259418D01*
X430409Y259335D01*
X430402Y259247D01*
X430400Y259154D01*
X429600D01*
X429598Y259247D01*
X429591Y259335D01*
X429579Y259418D01*
X429563Y259496D01*
X429542Y259569D01*
X429517Y259636D01*
X429487Y259699D01*
X429453Y259757D01*
X429414Y259810D01*
X429370Y259857D01*
X430630D01*
X430586Y259810D01*
D02*
G37*
G36*
X430402Y258884D02*
X430436Y258392D01*
X430452Y258297D01*
X430471Y258214D01*
X430493Y258142D01*
X430517Y258082D01*
X430545Y258033D01*
X429455D01*
X429483Y258082D01*
X429507Y258142D01*
X429529Y258214D01*
X429548Y258297D01*
X429564Y258392D01*
X429587Y258615D01*
X429599Y258884D01*
X429600Y259036D01*
X430400D01*
X430402Y258884D01*
D02*
G37*
G36*
X432514Y258033D02*
X431424D01*
X431432Y258056D01*
X431440Y258097D01*
X431447Y258157D01*
X431461Y258449D01*
X431468Y259100D01*
X432469D01*
X432514Y258033D01*
D02*
G37*
G36*
X360491Y258600D02*
X360426Y258597D01*
X360362Y258588D01*
X360296Y258571D01*
X360231Y258548D01*
X360165Y258518D01*
X360099Y258481D01*
X360032Y258437D01*
X359965Y258387D01*
X359898Y258329D01*
X359831Y258265D01*
X359265Y258831D01*
X359329Y258898D01*
X359387Y258965D01*
X359437Y259032D01*
X359481Y259099D01*
X359518Y259165D01*
X359548Y259231D01*
X359571Y259296D01*
X359588Y259362D01*
X359597Y259426D01*
X359600Y259491D01*
X360491Y258600D01*
D02*
G37*
G36*
X370357Y258870D02*
X370310Y258914D01*
X370257Y258953D01*
X370199Y258987D01*
X370136Y259017D01*
X370069Y259043D01*
X369996Y259063D01*
X369918Y259079D01*
X369835Y259091D01*
X369747Y259098D01*
X369654Y259100D01*
Y259900D01*
X369747Y259902D01*
X369835Y259909D01*
X369918Y259921D01*
X369996Y259937D01*
X370069Y259958D01*
X370136Y259983D01*
X370199Y260013D01*
X370257Y260047D01*
X370310Y260086D01*
X370357Y260130D01*
Y258870D01*
D02*
G37*
G36*
X438764Y258057D02*
X438695Y257986D01*
X438530Y257794D01*
X438490Y257737D01*
X438457Y257684D01*
X438432Y257635D01*
X438414Y257589D01*
X438403Y257547D01*
X438400Y257509D01*
X437509Y258400D01*
X437547Y258403D01*
X437589Y258414D01*
X437635Y258432D01*
X437684Y258457D01*
X437737Y258490D01*
X437794Y258530D01*
X437918Y258633D01*
X437986Y258695D01*
X438057Y258765D01*
X438764Y258057D01*
D02*
G37*
G36*
X428433Y258884D02*
X428468Y258392D01*
X428484Y258297D01*
X428503Y258214D01*
X428524Y258142D01*
X428549Y258082D01*
X428577Y258033D01*
X427487D01*
X427514Y258082D01*
X427539Y258142D01*
X427561Y258214D01*
X427579Y258297D01*
X427595Y258392D01*
X427618Y258615D01*
X427630Y258884D01*
X427632Y259036D01*
X428432D01*
X428433Y258884D01*
D02*
G37*
G36*
X354224Y264839D02*
X354156Y264815D01*
X354096Y264774D01*
X354044Y264717D01*
X354000Y264644D01*
X353964Y264555D01*
X353936Y264449D01*
X353916Y264328D01*
X353904Y264190D01*
X353900Y264035D01*
X353100D01*
X353096Y264190D01*
X353084Y264328D01*
X353064Y264449D01*
X353036Y264555D01*
X353000Y264644D01*
X352956Y264717D01*
X352904Y264774D01*
X352844Y264815D01*
X352776Y264839D01*
X352700Y264847D01*
X354300D01*
X354224Y264839D01*
D02*
G37*
G36*
X372735Y264169D02*
X372671Y264102D01*
X372613Y264035D01*
X372563Y263968D01*
X372519Y263901D01*
X372482Y263835D01*
X372452Y263769D01*
X372429Y263704D01*
X372412Y263638D01*
X372403Y263574D01*
X372400Y263509D01*
X371509Y264400D01*
X371574Y264403D01*
X371638Y264412D01*
X371704Y264429D01*
X371769Y264452D01*
X371835Y264482D01*
X371901Y264519D01*
X371968Y264563D01*
X372035Y264613D01*
X372102Y264671D01*
X372169Y264735D01*
X372735Y264169D01*
D02*
G37*
G36*
X351051Y264839D02*
X350983Y264815D01*
X350923Y264774D01*
X350871Y264717D01*
X350827Y264644D01*
X350791Y264555D01*
X350763Y264449D01*
X350743Y264328D01*
X350731Y264190D01*
X350729Y264103D01*
X350729Y264080D01*
X350736Y263992D01*
X350747Y263909D01*
X350764Y263831D01*
X350784Y263758D01*
X350810Y263690D01*
X350839Y263628D01*
X350874Y263570D01*
X350913Y263517D01*
X350957Y263470D01*
X349697D01*
X349741Y263517D01*
X349780Y263570D01*
X349814Y263628D01*
X349844Y263690D01*
X349869Y263758D01*
X349890Y263831D01*
X349906Y263909D01*
X349918Y263992D01*
X349924Y264080D01*
X349925Y264103D01*
X349923Y264190D01*
X349911Y264328D01*
X349891Y264449D01*
X349863Y264555D01*
X349827Y264644D01*
X349783Y264717D01*
X349731Y264774D01*
X349671Y264815D01*
X349603Y264839D01*
X349527Y264847D01*
X351127D01*
X351051Y264839D01*
D02*
G37*
G36*
X393434Y264600D02*
X393339Y264597D01*
X393252Y264589D01*
X393175Y264576D01*
X393107Y264557D01*
X393047Y264533D01*
X392997Y264504D01*
X392955Y264469D01*
X392922Y264429D01*
X392899Y264384D01*
X392884Y264333D01*
X392245Y265366D01*
X393288Y265400D01*
X393434Y264600D01*
D02*
G37*
G36*
X372403Y266926D02*
X372412Y266862D01*
X372429Y266796D01*
X372452Y266731D01*
X372482Y266665D01*
X372519Y266599D01*
X372563Y266532D01*
X372613Y266465D01*
X372671Y266398D01*
X372735Y266331D01*
X372169Y265765D01*
X372102Y265829D01*
X372035Y265887D01*
X371968Y265937D01*
X371901Y265981D01*
X371835Y266018D01*
X371769Y266048D01*
X371704Y266071D01*
X371638Y266088D01*
X371574Y266097D01*
X371509Y266100D01*
X372400Y266991D01*
X372403Y266926D01*
D02*
G37*
G36*
X417492Y266577D02*
X417539Y266539D01*
X417589Y266506D01*
X417640Y266477D01*
X417694Y266453D01*
X417749Y266434D01*
X417807Y266418D01*
X417866Y266408D01*
X417928Y266402D01*
X417991Y266400D01*
X417100Y265509D01*
X417098Y265572D01*
X417092Y265634D01*
X417082Y265693D01*
X417066Y265751D01*
X417047Y265806D01*
X417023Y265860D01*
X416994Y265911D01*
X416961Y265961D01*
X416923Y266008D01*
X416881Y266054D01*
X417446Y266619D01*
X417492Y266577D01*
D02*
G37*
G36*
X437010Y266575D02*
X437210Y266453D01*
X437220Y266447D01*
Y264050D01*
X435327D01*
X434859Y263957D01*
X434462Y263692D01*
X431964Y261194D01*
X431379Y261316D01*
X431153Y261653D01*
X430624Y262007D01*
X430497Y262032D01*
X430464Y262143D01*
X430333Y262575D01*
X433136Y265378D01*
X435000D01*
X435000Y265378D01*
X435429Y265464D01*
X435793Y265707D01*
X436721Y266634D01*
X437010Y266575D01*
D02*
G37*
G36*
X438233Y261827D02*
X438223Y261922D01*
X438193Y262007D01*
X438142Y262082D01*
X438072Y262147D01*
X437983Y262202D01*
X437873Y262247D01*
X437743Y262282D01*
X437593Y262307D01*
X437423Y262322D01*
X437232Y262327D01*
Y263327D01*
X437423Y263332D01*
X437593Y263347D01*
X437743Y263372D01*
X437873Y263407D01*
X437983Y263452D01*
X438072Y263507D01*
X438142Y263572D01*
X438193Y263647D01*
X438223Y263732D01*
X438233Y263827D01*
Y261827D01*
D02*
G37*
G36*
X391357Y261370D02*
X391310Y261414D01*
X391257Y261453D01*
X391199Y261487D01*
X391137Y261517D01*
X391069Y261543D01*
X390996Y261563D01*
X390918Y261579D01*
X390835Y261591D01*
X390747Y261598D01*
X390654Y261600D01*
Y262400D01*
X390747Y262402D01*
X390835Y262409D01*
X390918Y262421D01*
X390996Y262437D01*
X391069Y262457D01*
X391137Y262483D01*
X391199Y262513D01*
X391257Y262547D01*
X391310Y262586D01*
X391357Y262630D01*
Y261370D01*
D02*
G37*
G36*
X440405Y261660D02*
X440320Y261629D01*
X440245Y261579D01*
X440180Y261508D01*
X440125Y261417D01*
X440080Y261305D01*
X440045Y261174D01*
X440020Y261022D01*
X440005Y260850D01*
X440000Y260658D01*
X439000D01*
X438995Y260850D01*
X438980Y261022D01*
X438955Y261174D01*
X438920Y261305D01*
X438875Y261417D01*
X438820Y261508D01*
X438755Y261579D01*
X438680Y261629D01*
X438595Y261660D01*
X438500Y261670D01*
X440500D01*
X440405Y261660D01*
D02*
G37*
G36*
X366402Y262753D02*
X366409Y262665D01*
X366421Y262582D01*
X366437Y262504D01*
X366458Y262431D01*
X366483Y262364D01*
X366513Y262301D01*
X366547Y262243D01*
X366586Y262190D01*
X366630Y262143D01*
X365370D01*
X365414Y262190D01*
X365453Y262243D01*
X365487Y262301D01*
X365517Y262364D01*
X365543Y262431D01*
X365563Y262504D01*
X365579Y262582D01*
X365591Y262665D01*
X365598Y262753D01*
X365600Y262846D01*
X366400D01*
X366402Y262753D01*
D02*
G37*
G36*
X387857Y262870D02*
X387810Y262914D01*
X387757Y262953D01*
X387699Y262987D01*
X387636Y263017D01*
X387569Y263042D01*
X387496Y263063D01*
X387418Y263079D01*
X387335Y263091D01*
X387247Y263098D01*
X387154Y263100D01*
Y263900D01*
X387247Y263902D01*
X387335Y263909D01*
X387418Y263921D01*
X387496Y263937D01*
X387569Y263958D01*
X387636Y263983D01*
X387699Y264013D01*
X387757Y264047D01*
X387810Y264086D01*
X387857Y264130D01*
Y262870D01*
D02*
G37*
G36*
X356586Y262810D02*
X356547Y262757D01*
X356513Y262699D01*
X356483Y262636D01*
X356457Y262569D01*
X356437Y262496D01*
X356421Y262418D01*
X356409Y262335D01*
X356402Y262247D01*
X356400Y262154D01*
X355600D01*
X355598Y262247D01*
X355591Y262335D01*
X355579Y262418D01*
X355563Y262496D01*
X355542Y262569D01*
X355517Y262636D01*
X355487Y262699D01*
X355453Y262757D01*
X355414Y262810D01*
X355370Y262857D01*
X356630D01*
X356586Y262810D01*
D02*
G37*
G36*
X369402Y262753D02*
X369409Y262665D01*
X369421Y262582D01*
X369437Y262504D01*
X369458Y262431D01*
X369483Y262364D01*
X369513Y262301D01*
X369547Y262243D01*
X369586Y262190D01*
X369630Y262143D01*
X368370D01*
X368414Y262190D01*
X368453Y262243D01*
X368487Y262301D01*
X368517Y262364D01*
X368543Y262431D01*
X368563Y262504D01*
X368579Y262582D01*
X368591Y262665D01*
X368598Y262753D01*
X368600Y262846D01*
X369400D01*
X369402Y262753D01*
D02*
G37*
G36*
X376098Y254926D02*
X376034Y254858D01*
X375978Y254790D01*
X375932Y254724D01*
X375894Y254659D01*
X375865Y254594D01*
X375845Y254531D01*
X375834Y254468D01*
X375831Y254407D01*
X375838Y254346D01*
X375853Y254287D01*
X374730Y254859D01*
X374781Y254877D01*
X374833Y254900D01*
X374887Y254929D01*
X374943Y254963D01*
X375061Y255047D01*
X375123Y255098D01*
X375320Y255280D01*
X376098Y254926D01*
D02*
G37*
G36*
X412231Y242594D02*
X412243Y242523D01*
X412263Y242460D01*
X412291Y242406D01*
X412327Y242360D01*
X412371Y242322D01*
X412423Y242293D01*
X412483Y242272D01*
X412551Y242260D01*
X412627Y242255D01*
X411027D01*
X411103Y242260D01*
X411171Y242272D01*
X411231Y242293D01*
X411283Y242322D01*
X411327Y242360D01*
X411363Y242406D01*
X411391Y242460D01*
X411411Y242523D01*
X411423Y242594D01*
X411427Y242673D01*
X412227D01*
X412231Y242594D01*
D02*
G37*
G36*
X371357Y241870D02*
X371310Y241914D01*
X371257Y241953D01*
X371199Y241987D01*
X371136Y242017D01*
X371069Y242042D01*
X370996Y242063D01*
X370918Y242079D01*
X370835Y242091D01*
X370747Y242098D01*
X370654Y242100D01*
Y242900D01*
X370747Y242902D01*
X370835Y242909D01*
X370918Y242921D01*
X370996Y242937D01*
X371069Y242957D01*
X371136Y242983D01*
X371199Y243013D01*
X371257Y243047D01*
X371310Y243086D01*
X371357Y243130D01*
Y241870D01*
D02*
G37*
G36*
X390068Y241390D02*
X390037Y241378D01*
X390011Y241357D01*
X389987Y241328D01*
X389968Y241290D01*
X389952Y241244D01*
X389939Y241190D01*
X389930Y241127D01*
X389925Y241056D01*
X389923Y240977D01*
X389123D01*
X389121Y241056D01*
X389116Y241127D01*
X389107Y241190D01*
X389095Y241244D01*
X389079Y241290D01*
X389059Y241328D01*
X389036Y241357D01*
X389009Y241378D01*
X388979Y241390D01*
X388945Y241394D01*
X390102D01*
X390068Y241390D01*
D02*
G37*
G36*
X367898Y246171D02*
X367966Y246113D01*
X368032Y246063D01*
X368099Y246019D01*
X368165Y245982D01*
X368231Y245952D01*
X368296Y245929D01*
X368361Y245912D01*
X368426Y245903D01*
X368491Y245900D01*
X367600Y245009D01*
X367597Y245074D01*
X367588Y245139D01*
X367571Y245204D01*
X367548Y245269D01*
X367518Y245335D01*
X367481Y245401D01*
X367437Y245468D01*
X367387Y245534D01*
X367329Y245602D01*
X367265Y245669D01*
X367831Y246235D01*
X367898Y246171D01*
D02*
G37*
G36*
X389925Y245444D02*
X389952Y245084D01*
X389968Y244996D01*
X389987Y244924D01*
X390011Y244868D01*
X390037Y244828D01*
X390068Y244804D01*
X390102Y244796D01*
X388945D01*
X388979Y244804D01*
X389009Y244828D01*
X389036Y244868D01*
X389059Y244924D01*
X389079Y244996D01*
X389095Y245084D01*
X389107Y245188D01*
X389121Y245444D01*
X389123Y245596D01*
X389923D01*
X389925Y245444D01*
D02*
G37*
G36*
X386087Y245606D02*
X386137Y244836D01*
X386150Y244806D01*
X386165Y244796D01*
X385008D01*
X385023Y244806D01*
X385036Y244836D01*
X385048Y244886D01*
X385058Y244956D01*
X385074Y245156D01*
X385086Y245796D01*
X386086D01*
X386087Y245606D01*
D02*
G37*
G36*
X386402Y239253D02*
X386409Y239165D01*
X386421Y239082D01*
X386437Y239004D01*
X386457Y238931D01*
X386483Y238863D01*
X386513Y238801D01*
X386547Y238743D01*
X386586Y238690D01*
X386630Y238643D01*
X385370D01*
X385414Y238690D01*
X385453Y238743D01*
X385487Y238801D01*
X385517Y238863D01*
X385542Y238931D01*
X385563Y239004D01*
X385579Y239082D01*
X385591Y239165D01*
X385598Y239253D01*
X385600Y239346D01*
X386400D01*
X386402Y239253D01*
D02*
G37*
G36*
X391898Y239671D02*
X391966Y239613D01*
X392032Y239563D01*
X392099Y239519D01*
X392165Y239482D01*
X392231Y239452D01*
X392296Y239429D01*
X392361Y239412D01*
X392426Y239403D01*
X392491Y239400D01*
X391600Y238509D01*
X391597Y238574D01*
X391588Y238638D01*
X391571Y238704D01*
X391548Y238769D01*
X391518Y238835D01*
X391481Y238901D01*
X391437Y238968D01*
X391387Y239035D01*
X391329Y239102D01*
X391265Y239169D01*
X391831Y239735D01*
X391898Y239671D01*
D02*
G37*
G36*
X390235Y239169D02*
X390171Y239102D01*
X390113Y239035D01*
X390063Y238968D01*
X390019Y238901D01*
X389982Y238835D01*
X389952Y238769D01*
X389929Y238704D01*
X389912Y238638D01*
X389903Y238574D01*
X389900Y238509D01*
X389009Y239400D01*
X389074Y239403D01*
X389139Y239412D01*
X389204Y239429D01*
X389269Y239452D01*
X389335Y239482D01*
X389401Y239519D01*
X389468Y239563D01*
X389534Y239613D01*
X389602Y239671D01*
X389669Y239735D01*
X390235Y239169D01*
D02*
G37*
G36*
X388099Y241390D02*
X388069Y241376D01*
X388042Y241352D01*
X388018Y241320D01*
X387999Y241278D01*
X387983Y241226D01*
X387970Y241166D01*
X387961Y241096D01*
X387956Y241016D01*
X387954Y240928D01*
X387154D01*
X387152Y241016D01*
X387138Y241166D01*
X387126Y241226D01*
X387110Y241278D01*
X387090Y241320D01*
X387067Y241352D01*
X387040Y241376D01*
X387010Y241390D01*
X386976Y241394D01*
X388133D01*
X388099Y241390D01*
D02*
G37*
G36*
X392036Y241386D02*
X392005Y241362D01*
X391979Y241322D01*
X391955Y241266D01*
X391936Y241194D01*
X391920Y241106D01*
X391907Y241002D01*
X391893Y240746D01*
X391891Y240594D01*
X391091D01*
X391089Y240746D01*
X391063Y241106D01*
X391047Y241194D01*
X391027Y241266D01*
X391004Y241322D01*
X390977Y241362D01*
X390947Y241386D01*
X390913Y241394D01*
X392070D01*
X392036Y241386D01*
D02*
G37*
G36*
X395992Y241384D02*
X395978Y241354D01*
X395967Y241304D01*
X395956Y241234D01*
X395942Y241052D01*
X395952Y240981D01*
X395965Y240913D01*
X395982Y240853D01*
X396001Y240801D01*
X396023Y240756D01*
X396048Y240720D01*
X396077Y240691D01*
X395934Y240680D01*
X395928Y240394D01*
X394928D01*
X394927Y240584D01*
X394927Y240599D01*
X394821Y240590D01*
X394841Y240619D01*
X394859Y240656D01*
X394876Y240700D01*
X394889Y240753D01*
X394901Y240813D01*
X394909Y240869D01*
X394878Y241354D01*
X394865Y241384D01*
X394850Y241394D01*
X396007D01*
X395992Y241384D01*
D02*
G37*
G36*
X408402Y246753D02*
X408409Y246665D01*
X408421Y246582D01*
X408437Y246504D01*
X408458Y246431D01*
X408483Y246363D01*
X408513Y246301D01*
X408547Y246243D01*
X408586Y246190D01*
X408630Y246143D01*
X407370D01*
X407414Y246190D01*
X407453Y246243D01*
X407487Y246301D01*
X407517Y246363D01*
X407543Y246431D01*
X407563Y246504D01*
X407579Y246582D01*
X407591Y246665D01*
X407598Y246753D01*
X407600Y246846D01*
X408400D01*
X408402Y246753D01*
D02*
G37*
G36*
X395929Y252388D02*
X395960Y251929D01*
X396058D01*
X396034Y251900D01*
X396011Y251863D01*
X395992Y251817D01*
X395975Y251765D01*
X395971Y251750D01*
X395978Y251645D01*
X395992Y251616D01*
X396007Y251607D01*
X395946D01*
X395933Y251475D01*
X395930Y251383D01*
X395928Y251284D01*
X394928D01*
X394927Y251383D01*
X394910Y251607D01*
X394850D01*
X394865Y251616D01*
X394878Y251645D01*
X394890Y251694D01*
X394893Y251715D01*
X394881Y251765D01*
X394865Y251817D01*
X394845Y251863D01*
X394823Y251900D01*
X394798Y251929D01*
X394914D01*
X394916Y251954D01*
X394927Y252388D01*
X394928Y252572D01*
X395928D01*
X395929Y252388D01*
D02*
G37*
G36*
X426231Y251413D02*
X426243Y251275D01*
X426263Y251153D01*
X426291Y251048D01*
X426327Y250958D01*
X426371Y250885D01*
X426423Y250829D01*
X426483Y250788D01*
X426551Y250764D01*
X426627Y250756D01*
X425027D01*
X425103Y250764D01*
X425171Y250788D01*
X425231Y250829D01*
X425283Y250885D01*
X425327Y250958D01*
X425363Y251048D01*
X425391Y251153D01*
X425411Y251275D01*
X425423Y251413D01*
X425427Y251568D01*
X426227D01*
X426231Y251413D01*
D02*
G37*
G36*
X412601Y250622D02*
X412418Y250808D01*
X411590Y251561D01*
X411537Y251590D01*
X411500Y251600D01*
Y252400D01*
X411537Y252410D01*
X411590Y252439D01*
X411659Y252488D01*
X411745Y252556D01*
X412100Y252879D01*
X412601Y253378D01*
Y250622D01*
D02*
G37*
G36*
X358402Y254753D02*
X358409Y254665D01*
X358421Y254582D01*
X358437Y254504D01*
X358457Y254431D01*
X358483Y254363D01*
X358513Y254301D01*
X358547Y254243D01*
X358586Y254190D01*
X358630Y254143D01*
X357370D01*
X357414Y254190D01*
X357453Y254243D01*
X357487Y254301D01*
X357517Y254363D01*
X357542Y254431D01*
X357563Y254504D01*
X357579Y254582D01*
X357591Y254665D01*
X357598Y254753D01*
X357600Y254846D01*
X358400D01*
X358402Y254753D01*
D02*
G37*
G36*
X426580Y253398D02*
X426556Y253338D01*
X426534Y253266D01*
X426515Y253183D01*
X426499Y253088D01*
X426476Y252865D01*
X426464Y252596D01*
X426463Y252445D01*
X425663D01*
X425662Y252596D01*
X425627Y253088D01*
X425611Y253183D01*
X425592Y253266D01*
X425570Y253338D01*
X425546Y253398D01*
X425518Y253448D01*
X426608D01*
X426580Y253398D01*
D02*
G37*
G36*
X389924Y252334D02*
X390153D01*
X390109Y252287D01*
X390070Y252234D01*
X390036Y252176D01*
X390006Y252113D01*
X389981Y252045D01*
X389960Y251973D01*
X389950Y251923D01*
X389952Y251895D01*
X389968Y251807D01*
X389987Y251735D01*
X390011Y251679D01*
X390037Y251639D01*
X390068Y251615D01*
X390102Y251607D01*
X388945D01*
X388979Y251615D01*
X389009Y251639D01*
X389036Y251679D01*
X389059Y251735D01*
X389079Y251807D01*
X389095Y251895D01*
X389097Y251919D01*
X389086Y251973D01*
X389066Y252045D01*
X389040Y252113D01*
X389011Y252176D01*
X388976Y252234D01*
X388937Y252287D01*
X388893Y252334D01*
X389122D01*
X389123Y252407D01*
X389923D01*
X389924Y252334D01*
D02*
G37*
G36*
X392036Y248197D02*
X392005Y248173D01*
X391979Y248133D01*
X391955Y248077D01*
X391936Y248005D01*
X391920Y247917D01*
X391907Y247813D01*
X391893Y247557D01*
X391891Y247405D01*
X391091D01*
X391089Y247557D01*
X391063Y247917D01*
X391047Y248005D01*
X391027Y248077D01*
X391004Y248133D01*
X390977Y248173D01*
X390947Y248197D01*
X390913Y248205D01*
X392070D01*
X392036Y248197D01*
D02*
G37*
G36*
X386150Y248195D02*
X386137Y248165D01*
X386125Y248115D01*
X386115Y248045D01*
X386099Y247845D01*
X386086Y247205D01*
X385086D01*
X385085Y247395D01*
X385036Y248165D01*
X385023Y248195D01*
X385008Y248205D01*
X386165D01*
X386150Y248195D01*
D02*
G37*
G36*
X394005Y248197D02*
X393974Y248173D01*
X393948Y248133D01*
X393924Y248077D01*
X393905Y248005D01*
X393889Y247917D01*
X393876Y247813D01*
X393870Y247701D01*
X393881Y247622D01*
X393897Y247544D01*
X393918Y247471D01*
X393943Y247403D01*
X393973Y247340D01*
X394007Y247283D01*
X394046Y247230D01*
X394090Y247182D01*
X392830D01*
X392874Y247230D01*
X392913Y247283D01*
X392948Y247340D01*
X392977Y247403D01*
X393003Y247471D01*
X393023Y247544D01*
X393039Y247622D01*
X393049Y247688D01*
X393032Y247917D01*
X393016Y248005D01*
X392996Y248077D01*
X392973Y248133D01*
X392946Y248173D01*
X392916Y248197D01*
X392882Y248205D01*
X394039D01*
X394005Y248197D01*
D02*
G37*
G36*
X385020Y248906D02*
X385010Y249001D01*
X384979Y249086D01*
X384929Y249161D01*
X384858Y249226D01*
X384767Y249281D01*
X384655Y249326D01*
X384524Y249361D01*
X384372Y249386D01*
X384367Y249387D01*
X384294Y249381D01*
X384234Y249370D01*
X384182Y249357D01*
X384138Y249342D01*
X384102Y249325D01*
X384073Y249306D01*
X384084Y249404D01*
X384008Y249406D01*
Y250406D01*
X384189Y250411D01*
X384205Y250559D01*
X384233Y250530D01*
X384269Y250504D01*
X384314Y250481D01*
X384366Y250461D01*
X384425Y250444D01*
X384451Y250439D01*
X384524Y250451D01*
X384655Y250486D01*
X384767Y250531D01*
X384858Y250586D01*
X384929Y250651D01*
X384979Y250726D01*
X385010Y250811D01*
X385020Y250906D01*
Y248906D01*
D02*
G37*
G36*
X426551Y248232D02*
X426327Y248218D01*
X426291Y248211D01*
X426263Y248203D01*
X426243Y248195D01*
X426231Y248184D01*
X426227Y248173D01*
X425427D01*
X425423Y248184D01*
X425411Y248195D01*
X425391Y248203D01*
X425363Y248211D01*
X425327Y248218D01*
X425283Y248223D01*
X425171Y248230D01*
X425027Y248233D01*
X426627D01*
X426551Y248232D01*
D02*
G37*
G36*
X368699Y249405D02*
X368386Y249038D01*
X368259Y248862D01*
X368152Y248689D01*
X368064Y248521D01*
X367995Y248357D01*
X367946Y248198D01*
X367917Y248042D01*
X367907Y247891D01*
X367107D01*
X367097Y248042D01*
X367068Y248198D01*
X367019Y248357D01*
X366951Y248521D01*
X366863Y248689D01*
X366755Y248862D01*
X366628Y249038D01*
X366481Y249219D01*
X366129Y249594D01*
X368885D01*
X368699Y249405D01*
D02*
G37*
G36*
X349325Y280295D02*
X349332Y280227D01*
X349345Y280167D01*
X349362Y280115D01*
X349385Y280071D01*
X349412Y280035D01*
X349444Y280007D01*
X349481Y279987D01*
X349524Y279975D01*
X349571Y279971D01*
Y279171D01*
X349524Y279167D01*
X349481Y279155D01*
X349444Y279135D01*
X349412Y279107D01*
X349385Y279071D01*
X349362Y279027D01*
X349345Y278975D01*
X349332Y278915D01*
X349325Y278847D01*
X349323Y278771D01*
Y280371D01*
X349325Y280295D01*
D02*
G37*
G36*
X415240Y280424D02*
X415264Y280415D01*
X415304Y280408D01*
X415360Y280402D01*
X415624Y280389D01*
X416032Y280384D01*
Y279584D01*
X415880Y279583D01*
X415432Y279556D01*
X415360Y279544D01*
X415304Y279530D01*
X415264Y279513D01*
X415240Y279494D01*
X415232Y279473D01*
Y280433D01*
X415240Y280424D01*
D02*
G37*
G36*
X415857Y278359D02*
X415880Y278357D01*
X416032Y278356D01*
Y277556D01*
X415880Y277556D01*
X415857Y277554D01*
Y277326D01*
X415810Y277370D01*
X415757Y277409D01*
X415699Y277444D01*
X415636Y277473D01*
X415569Y277499D01*
X415496Y277519D01*
X415455Y277528D01*
X415240Y277514D01*
X415232Y277504D01*
Y277554D01*
X415154Y277556D01*
Y278356D01*
X415232Y278358D01*
Y278464D01*
X415240Y278444D01*
X415264Y278426D01*
X415304Y278409D01*
X415360Y278395D01*
X415432Y278383D01*
X415443Y278382D01*
X415496Y278393D01*
X415569Y278414D01*
X415636Y278439D01*
X415699Y278469D01*
X415757Y278503D01*
X415810Y278543D01*
X415857Y278586D01*
Y278359D01*
D02*
G37*
G36*
X439991Y279100D02*
X439926Y279097D01*
X439861Y279088D01*
X439796Y279071D01*
X439731Y279048D01*
X439665Y279018D01*
X439599Y278981D01*
X439532Y278937D01*
X439466Y278887D01*
X439398Y278829D01*
X439331Y278765D01*
X438765Y279331D01*
X438829Y279398D01*
X438887Y279466D01*
X438937Y279532D01*
X438981Y279599D01*
X439018Y279665D01*
X439048Y279731D01*
X439071Y279796D01*
X439088Y279861D01*
X439097Y279926D01*
X439100Y279991D01*
X439991Y279100D01*
D02*
G37*
G36*
X379073Y283810D02*
X379101Y283640D01*
X379148Y283490D01*
X379214Y283360D01*
X379298Y283250D01*
X379401Y283160D01*
X379523Y283090D01*
X379663Y283040D01*
X379822Y283010D01*
X380000Y283000D01*
Y281000D01*
X379824Y280991D01*
X379667Y280964D01*
X379528Y280919D01*
X379408Y280856D01*
X379306Y280775D01*
X379223Y280676D01*
X379158Y280558D01*
X379112Y280423D01*
X379084Y280270D01*
X379075Y280099D01*
X379063Y284000D01*
X379073Y283810D01*
D02*
G37*
G36*
X358231Y281413D02*
X358243Y281275D01*
X358263Y281153D01*
X358291Y281048D01*
X358327Y280959D01*
X358371Y280885D01*
X358423Y280829D01*
X358483Y280788D01*
X358551Y280764D01*
X358627Y280755D01*
X357027D01*
X357103Y280764D01*
X357171Y280788D01*
X357231Y280829D01*
X357283Y280885D01*
X357327Y280959D01*
X357363Y281048D01*
X357391Y281153D01*
X357411Y281275D01*
X357423Y281413D01*
X357427Y281568D01*
X358227D01*
X358231Y281413D01*
D02*
G37*
G36*
X351357Y279870D02*
X351310Y279914D01*
X351257Y279953D01*
X351199Y279987D01*
X351136Y280017D01*
X351069Y280043D01*
X350996Y280063D01*
X350918Y280079D01*
X350835Y280091D01*
X350747Y280098D01*
X350654Y280100D01*
Y280900D01*
X350747Y280902D01*
X350835Y280909D01*
X350918Y280921D01*
X350996Y280937D01*
X351069Y280958D01*
X351136Y280983D01*
X351199Y281013D01*
X351257Y281047D01*
X351310Y281086D01*
X351357Y281130D01*
Y279870D01*
D02*
G37*
G36*
X446398Y281171D02*
X446465Y281113D01*
X446532Y281063D01*
X446599Y281019D01*
X446665Y280982D01*
X446731Y280952D01*
X446796Y280929D01*
X446862Y280912D01*
X446926Y280903D01*
X446991Y280900D01*
X446100Y280009D01*
X446097Y280074D01*
X446088Y280138D01*
X446071Y280204D01*
X446048Y280269D01*
X446018Y280335D01*
X445981Y280401D01*
X445937Y280468D01*
X445887Y280535D01*
X445829Y280602D01*
X445765Y280669D01*
X446331Y281235D01*
X446398Y281171D01*
D02*
G37*
G36*
X419586Y277310D02*
X419547Y277257D01*
X419513Y277199D01*
X419483Y277136D01*
X419457Y277069D01*
X419437Y276996D01*
X419421Y276918D01*
X419409Y276835D01*
X419402Y276747D01*
X419400Y276654D01*
X418600D01*
X418598Y276747D01*
X418591Y276835D01*
X418579Y276918D01*
X418563Y276996D01*
X418542Y277069D01*
X418517Y277136D01*
X418487Y277199D01*
X418453Y277257D01*
X418414Y277310D01*
X418370Y277357D01*
X419630D01*
X419586Y277310D01*
D02*
G37*
G36*
X344145Y277804D02*
X344081Y277781D01*
X344025Y277744D01*
X343976Y277691D01*
X343935Y277623D01*
X343901Y277540D01*
X343875Y277443D01*
X343856Y277330D01*
X343845Y277202D01*
X343841Y277059D01*
X343041D01*
X343037Y277202D01*
X343026Y277330D01*
X343007Y277443D01*
X342981Y277540D01*
X342947Y277623D01*
X342906Y277691D01*
X342857Y277744D01*
X342801Y277781D01*
X342737Y277804D01*
X342666Y277811D01*
X344216D01*
X344145Y277804D01*
D02*
G37*
G36*
X417086Y277266D02*
X417047Y277213D01*
X417013Y277156D01*
X416983Y277093D01*
X416958Y277025D01*
X416937Y276952D01*
X416921Y276874D01*
X416909Y276791D01*
X416902Y276703D01*
X416900Y276610D01*
X416100D01*
X416098Y276703D01*
X416091Y276791D01*
X416079Y276874D01*
X416063Y276952D01*
X416043Y277025D01*
X416017Y277093D01*
X415987Y277156D01*
X415953Y277213D01*
X415914Y277266D01*
X415870Y277314D01*
X417130D01*
X417086Y277266D01*
D02*
G37*
G36*
X426207Y277207D02*
X426207Y277207D01*
X426384Y277088D01*
X426189Y276618D01*
X426063Y276643D01*
X425559Y276542D01*
X425169Y276282D01*
X424848Y276153D01*
X424653D01*
X424124Y276507D01*
X423500Y276631D01*
X422876Y276507D01*
X422346Y276153D01*
X421993Y275624D01*
X421869Y275000D01*
X421993Y274376D01*
X422346Y273847D01*
X422368Y273832D01*
X422369Y273826D01*
X422376Y273797D01*
X422378Y273776D01*
Y271104D01*
X419647D01*
X419456Y271566D01*
X419793Y271903D01*
X420036Y272267D01*
X420122Y272696D01*
X420122Y272696D01*
Y276776D01*
D01*
X420124Y276797D01*
X420130Y276826D01*
X420132Y276832D01*
X420154Y276847D01*
X420507Y277376D01*
X420631Y278000D01*
X420507Y278624D01*
X420154Y279153D01*
X419624Y279507D01*
X419594Y279513D01*
X419435Y279651D01*
X418708Y280379D01*
X418915Y280878D01*
X422535D01*
X426207Y277207D01*
D02*
G37*
G36*
X361897Y278224D02*
X361829Y278201D01*
X361769Y278161D01*
X361717Y278104D01*
X361673Y278032D01*
X361637Y277944D01*
X361609Y277840D01*
X361589Y277720D01*
X361577Y277585D01*
X361573Y277432D01*
X360773D01*
X360769Y277585D01*
X360757Y277720D01*
X360737Y277840D01*
X360709Y277944D01*
X360673Y278032D01*
X360629Y278104D01*
X360577Y278161D01*
X360517Y278201D01*
X360449Y278224D01*
X360373Y278233D01*
X361973D01*
X361897Y278224D01*
D02*
G37*
G36*
X418872Y279195D02*
X419168Y278938D01*
X419217Y278903D01*
X419306Y278850D01*
X419345Y278831D01*
X418176Y278362D01*
X418195Y278418D01*
X418206Y278475D01*
X418206Y278534D01*
X418198Y278594D01*
X418180Y278655D01*
X418153Y278718D01*
X418116Y278783D01*
X418070Y278849D01*
X418014Y278916D01*
X417950Y278984D01*
X418803Y279263D01*
X418872Y279195D01*
D02*
G37*
G36*
X349263Y277804D02*
X349199Y277781D01*
X349143Y277744D01*
X349094Y277691D01*
X349053Y277623D01*
X349019Y277540D01*
X348993Y277443D01*
X348974Y277330D01*
X348963Y277202D01*
X348959Y277059D01*
X348159D01*
X348155Y277202D01*
X348144Y277330D01*
X348125Y277443D01*
X348099Y277540D01*
X348065Y277623D01*
X348024Y277691D01*
X347975Y277744D01*
X347919Y277781D01*
X347855Y277804D01*
X347784Y277811D01*
X349335D01*
X349263Y277804D01*
D02*
G37*
G36*
X358551Y278224D02*
X358483Y278201D01*
X358423Y278161D01*
X358371Y278104D01*
X358327Y278032D01*
X358291Y277944D01*
X358263Y277840D01*
X358243Y277720D01*
X358231Y277585D01*
X358227Y277432D01*
X357427D01*
X357423Y277585D01*
X357411Y277720D01*
X357391Y277840D01*
X357363Y277944D01*
X357327Y278032D01*
X357283Y278104D01*
X357231Y278161D01*
X357171Y278201D01*
X357103Y278224D01*
X357027Y278233D01*
X358627D01*
X358551Y278224D01*
D02*
G37*
G36*
X362357Y289294D02*
X362310Y289337D01*
X362257Y289376D01*
X362199Y289411D01*
X362137Y289441D01*
X362069Y289466D01*
X361996Y289487D01*
X361918Y289503D01*
X361835Y289514D01*
X361747Y289521D01*
X361654Y289524D01*
Y290324D01*
X361747Y290326D01*
X361835Y290333D01*
X361918Y290344D01*
X361996Y290360D01*
X362069Y290381D01*
X362137Y290406D01*
X362199Y290436D01*
X362257Y290471D01*
X362310Y290510D01*
X362357Y290554D01*
Y289294D01*
D02*
G37*
G36*
X350906Y290525D02*
X350924Y290483D01*
X350953Y290445D01*
X350991Y290413D01*
X351039Y290386D01*
X351096Y290363D01*
X351163Y290346D01*
X351240Y290334D01*
X351326Y290326D01*
X351423Y290324D01*
X351231Y289524D01*
X350187Y289620D01*
X350897Y290572D01*
X350906Y290525D01*
D02*
G37*
G36*
X370408Y289810D02*
X370426Y289640D01*
X370457Y289490D01*
X370499Y289360D01*
X370553Y289250D01*
X370618Y289160D01*
X370696Y289090D01*
X370785Y289040D01*
X370887Y289010D01*
X371000Y289000D01*
Y287000D01*
X370888Y286994D01*
X370789Y286976D01*
X370701Y286946D01*
X370624Y286904D01*
X370560Y286849D01*
X370507Y286783D01*
X370466Y286705D01*
X370437Y286615D01*
X370419Y286512D01*
X370413Y286398D01*
X370401Y290000D01*
X370408Y289810D01*
D02*
G37*
G36*
X346772Y289153D02*
X346796Y289085D01*
X346836Y289025D01*
X346893Y288973D01*
X346966Y288929D01*
X347056Y288893D01*
X347161Y288865D01*
X347283Y288845D01*
X347421Y288833D01*
X347575Y288829D01*
Y288029D01*
X347421Y288025D01*
X347283Y288013D01*
X347161Y287993D01*
X347056Y287965D01*
X346966Y287929D01*
X346893Y287885D01*
X346836Y287833D01*
X346796Y287773D01*
X346772Y287705D01*
X346763Y287629D01*
Y289229D01*
X346772Y289153D01*
D02*
G37*
G36*
X356190Y293759D02*
X356243Y293720D01*
X356301Y293686D01*
X356364Y293656D01*
X356431Y293631D01*
X356504Y293610D01*
X356582Y293594D01*
X356665Y293582D01*
X356753Y293576D01*
X356846Y293573D01*
Y292773D01*
X356753Y292771D01*
X356665Y292764D01*
X356582Y292753D01*
X356504Y292736D01*
X356431Y292716D01*
X356364Y292690D01*
X356301Y292660D01*
X356243Y292626D01*
X356190Y292587D01*
X356143Y292543D01*
Y293803D01*
X356190Y293759D01*
D02*
G37*
G36*
X361562Y293343D02*
X360751Y292677D01*
X360591Y293852D01*
X360630Y293824D01*
X360673Y293808D01*
X360718Y293801D01*
X360768Y293805D01*
X360820Y293819D01*
X360876Y293844D01*
X360936Y293880D01*
X360999Y293925D01*
X361065Y293981D01*
X361135Y294047D01*
X361562Y293343D01*
D02*
G37*
G36*
X345051Y291728D02*
X344983Y291716D01*
X344923Y291696D01*
X344871Y291668D01*
X344827Y291631D01*
X344791Y291586D01*
X344763Y291534D01*
X344743Y291473D01*
X344731Y291404D01*
X344727Y291327D01*
X343927D01*
X343923Y291404D01*
X343911Y291473D01*
X343891Y291534D01*
X343863Y291586D01*
X343827Y291631D01*
X343783Y291668D01*
X343731Y291696D01*
X343671Y291716D01*
X343603Y291728D01*
X343527Y291733D01*
X345127D01*
X345051Y291728D01*
D02*
G37*
G36*
X348837Y293724D02*
X348857Y293656D01*
X348891Y293596D01*
X348938Y293544D01*
X348998Y293500D01*
X349071Y293464D01*
X349159Y293436D01*
X349259Y293416D01*
X349373Y293404D01*
X349500Y293400D01*
Y292600D01*
X349373Y292596D01*
X349259Y292584D01*
X349159Y292564D01*
X349071Y292536D01*
X348998Y292500D01*
X348938Y292456D01*
X348891Y292404D01*
X348857Y292344D01*
X348837Y292276D01*
X348830Y292200D01*
Y292395D01*
X348810Y292414D01*
X348757Y292453D01*
X348699Y292487D01*
X348637Y292517D01*
X348569Y292543D01*
X348496Y292563D01*
X348418Y292579D01*
X348335Y292591D01*
X348247Y292598D01*
X348154Y292600D01*
X348154Y293400D01*
X348247Y293402D01*
X348335Y293409D01*
X348418Y293421D01*
X348496Y293437D01*
X348569Y293458D01*
X348637Y293483D01*
X348699Y293513D01*
X348757Y293547D01*
X348810Y293586D01*
X348830Y293605D01*
Y293800D01*
X348837Y293724D01*
D02*
G37*
G36*
X406707Y281207D02*
X406707Y281207D01*
X407071Y280964D01*
X407500Y280878D01*
X411395D01*
Y276792D01*
X415224D01*
X415232Y276790D01*
X415378Y276329D01*
Y275239D01*
X411395D01*
Y273094D01*
X410911Y272816D01*
X410624Y273007D01*
X410000Y273131D01*
X409376Y273007D01*
X408982Y272744D01*
D01*
X408847Y272654D01*
X408493Y272124D01*
X408381Y271560D01*
X408272Y271104D01*
X408272D01*
X408272Y270637D01*
Y270500D01*
Y270500D01*
D01*
Y268847D01*
D01*
Y268771D01*
D01*
Y266437D01*
X410646D01*
X410955Y265937D01*
X410869Y265500D01*
X410993Y264876D01*
X411346Y264347D01*
X411876Y263993D01*
X412500Y263869D01*
X413124Y263993D01*
X413654Y264347D01*
X414007Y264876D01*
X414040Y265043D01*
X414055Y265070D01*
X414063Y265098D01*
X414066Y265104D01*
X414068Y265109D01*
X414108Y265176D01*
X414118Y265190D01*
X414193Y265279D01*
X414802Y265888D01*
X414802Y265888D01*
X415045Y266252D01*
X415131Y266681D01*
X415131Y266681D01*
Y269716D01*
D01*
X415143Y269729D01*
D01*
X415160Y269746D01*
X415175Y269760D01*
D01*
X415270Y269855D01*
X415276Y269862D01*
D01*
X415312Y269897D01*
X415372Y269958D01*
D01*
X415389Y269974D01*
X415392Y269977D01*
D01*
X415407Y269993D01*
X415441Y270027D01*
D01*
X415494Y270079D01*
X415494D01*
D01*
X415501Y270087D01*
X415517Y270103D01*
D01*
X415517Y270103D01*
X415575Y270161D01*
D01*
X415580Y270165D01*
D01*
D01*
X416042Y269974D01*
Y266336D01*
X416042Y266336D01*
X416127Y265907D01*
X416370Y265543D01*
X416376Y265538D01*
X416369Y265500D01*
X416493Y264876D01*
X416847Y264347D01*
X417376Y263993D01*
X417590Y263950D01*
X417742Y263487D01*
X417439Y263122D01*
X406469D01*
X406317Y263621D01*
X406653Y263846D01*
X407007Y264376D01*
X407131Y265000D01*
X407007Y265624D01*
X406653Y266154D01*
X406124Y266507D01*
X405500Y266631D01*
X404876Y266507D01*
X404470Y266236D01*
X403983Y266277D01*
X403856Y266320D01*
X403793Y266414D01*
X403793Y266414D01*
X402914Y267293D01*
X402551Y267536D01*
X402121Y267622D01*
X402121Y267621D01*
X393508D01*
X393507Y267624D01*
X393154Y268154D01*
X393128Y268171D01*
X392817Y268378D01*
X392969Y268879D01*
X401276D01*
X401297Y268876D01*
X401326Y268869D01*
X401332Y268868D01*
X401346Y268847D01*
X401876Y268493D01*
X402500Y268369D01*
X403124Y268493D01*
X403653Y268847D01*
X404007Y269376D01*
X404131Y270000D01*
X404032Y270500D01*
X404026Y270528D01*
X404007Y270624D01*
X403653Y271153D01*
X403124Y271507D01*
X402500Y271631D01*
X401876Y271507D01*
X401346Y271153D01*
X401332Y271132D01*
X401326Y271130D01*
X401297Y271124D01*
X401276Y271122D01*
X398296D01*
X397814Y271166D01*
D01*
Y271767D01*
X398314Y272034D01*
X398376Y271993D01*
X399000Y271869D01*
X399624Y271993D01*
X400153Y272346D01*
X400293Y272555D01*
X400507Y272876D01*
X400631Y273500D01*
X400507Y274124D01*
X400153Y274654D01*
X399624Y275007D01*
X399256Y275080D01*
D01*
X399000Y275131D01*
X398376Y275007D01*
X398314Y274966D01*
X397814Y275233D01*
Y275834D01*
X392621D01*
Y276500D01*
X392622Y276500D01*
X392536Y276929D01*
X392293Y277293D01*
X392293Y277293D01*
X390293Y279293D01*
X389929Y279536D01*
X389500Y279622D01*
X389500Y279622D01*
X380381D01*
X380315Y279663D01*
X380063Y280122D01*
X380100Y280196D01*
X380229Y280312D01*
X380663Y280399D01*
X381226Y280774D01*
X381601Y281337D01*
X381654Y281603D01*
X382197Y281767D01*
X383257Y280707D01*
X383257Y280707D01*
X383621Y280464D01*
X384050Y280378D01*
X384050Y280379D01*
X387500D01*
X387500Y280378D01*
X387929Y280464D01*
X388293Y280707D01*
X389465Y281878D01*
X392607D01*
X392944Y281378D01*
X392869Y281000D01*
X392993Y280376D01*
X393347Y279847D01*
X393876Y279493D01*
X394500Y279369D01*
X395124Y279493D01*
X395654Y279847D01*
X396007Y280376D01*
X396131Y281000D01*
X396114Y281086D01*
X396074Y281287D01*
D01*
D01*
X396524Y281588D01*
X396621Y281523D01*
X397050Y281437D01*
X397050Y281437D01*
X399950D01*
X399950Y281437D01*
X400379Y281523D01*
X400743Y281766D01*
X400855Y281878D01*
X406035D01*
X406707Y281207D01*
D02*
G37*
G36*
X356086Y282810D02*
X356047Y282757D01*
X356013Y282699D01*
X355983Y282636D01*
X355958Y282569D01*
X355937Y282496D01*
X355921Y282418D01*
X355909Y282335D01*
X355902Y282247D01*
X355900Y282154D01*
X355100D01*
X355098Y282247D01*
X355091Y282335D01*
X355079Y282418D01*
X355063Y282496D01*
X355043Y282569D01*
X355017Y282636D01*
X354987Y282699D01*
X354953Y282757D01*
X354914Y282810D01*
X354870Y282857D01*
X356130D01*
X356086Y282810D01*
D02*
G37*
G36*
X361577Y281413D02*
X361589Y281275D01*
X361609Y281153D01*
X361637Y281048D01*
X361673Y280959D01*
X361717Y280885D01*
X361769Y280829D01*
X361829Y280788D01*
X361897Y280764D01*
X361973Y280755D01*
X360373D01*
X360449Y280764D01*
X360517Y280788D01*
X360577Y280829D01*
X360629Y280885D01*
X360673Y280959D01*
X360709Y281048D01*
X360737Y281153D01*
X360757Y281275D01*
X360769Y281413D01*
X360773Y281568D01*
X361573D01*
X361577Y281413D01*
D02*
G37*
G36*
X348963Y281979D02*
X348974Y281842D01*
X348993Y281722D01*
X349019Y281618D01*
X349053Y281530D01*
X349094Y281458D01*
X349143Y281402D01*
X349199Y281363D01*
X349263Y281339D01*
X349335Y281330D01*
X347784D01*
X347855Y281339D01*
X347919Y281363D01*
X347975Y281402D01*
X348024Y281458D01*
X348065Y281530D01*
X348099Y281618D01*
X348125Y281722D01*
X348144Y281842D01*
X348155Y281979D01*
X348159Y282131D01*
X348959D01*
X348963Y281979D01*
D02*
G37*
G36*
X354690Y286586D02*
X354743Y286547D01*
X354801Y286513D01*
X354864Y286483D01*
X354931Y286457D01*
X355004Y286437D01*
X355082Y286421D01*
X355165Y286409D01*
X355253Y286402D01*
X355346Y286400D01*
Y285600D01*
X355253Y285598D01*
X355165Y285591D01*
X355082Y285579D01*
X355004Y285563D01*
X354931Y285542D01*
X354864Y285517D01*
X354801Y285487D01*
X354743Y285453D01*
X354690Y285414D01*
X354643Y285370D01*
Y286630D01*
X354690Y286586D01*
D02*
G37*
G36*
X363443Y286453D02*
X363404Y286401D01*
X363369Y286343D01*
X363339Y286280D01*
X363314Y286212D01*
X363293Y286139D01*
X363277Y286062D01*
X363265Y285979D01*
X363259Y285891D01*
X363256Y285798D01*
X362456D01*
X362454Y285891D01*
X362447Y285979D01*
X362436Y286062D01*
X362420Y286139D01*
X362399Y286212D01*
X362373Y286280D01*
X362344Y286343D01*
X362309Y286401D01*
X362270Y286453D01*
X362226Y286501D01*
X363486D01*
X363443Y286453D01*
D02*
G37*
G36*
X344190Y284586D02*
X344243Y284547D01*
X344301Y284513D01*
X344363Y284483D01*
X344431Y284457D01*
X344504Y284437D01*
X344582Y284421D01*
X344665Y284409D01*
X344753Y284402D01*
X344846Y284400D01*
Y283600D01*
X344753Y283598D01*
X344665Y283591D01*
X344582Y283579D01*
X344504Y283563D01*
X344431Y283542D01*
X344363Y283517D01*
X344301Y283487D01*
X344243Y283453D01*
X344190Y283414D01*
X344143Y283370D01*
Y284630D01*
X344190Y284586D01*
D02*
G37*
G36*
X343902Y285253D02*
X343909Y285165D01*
X343921Y285082D01*
X343937Y285004D01*
X343957Y284931D01*
X343983Y284863D01*
X344013Y284801D01*
X344047Y284743D01*
X344086Y284690D01*
X344130Y284643D01*
X342870D01*
X342914Y284690D01*
X342953Y284743D01*
X342987Y284801D01*
X343017Y284863D01*
X343042Y284931D01*
X343063Y285004D01*
X343079Y285082D01*
X343091Y285165D01*
X343098Y285253D01*
X343100Y285346D01*
X343900D01*
X343902Y285253D01*
D02*
G37*
G36*
X364761Y271551D02*
X364778Y271483D01*
X364807Y271423D01*
X364847Y271371D01*
X364898Y271327D01*
X364961Y271291D01*
X365035Y271263D01*
X365121Y271243D01*
X365218Y271231D01*
X365327Y271227D01*
Y270427D01*
X365218Y270423D01*
X365121Y270411D01*
X365035Y270391D01*
X364961Y270363D01*
X364898Y270327D01*
X364847Y270283D01*
X364807Y270231D01*
X364778Y270171D01*
X364761Y270103D01*
X364756Y270027D01*
Y271627D01*
X364761Y271551D01*
D02*
G37*
G36*
X359276Y271551D02*
X359299Y271483D01*
X359339Y271423D01*
X359396Y271371D01*
X359468Y271327D01*
X359556Y271291D01*
X359660Y271263D01*
X359780Y271243D01*
X359915Y271231D01*
X360068Y271227D01*
Y270427D01*
X359915Y270423D01*
X359780Y270411D01*
X359660Y270391D01*
X359556Y270363D01*
X359468Y270327D01*
X359396Y270283D01*
X359339Y270231D01*
X359299Y270171D01*
X359276Y270103D01*
X359267Y270027D01*
Y271627D01*
X359276Y271551D01*
D02*
G37*
G36*
X401857Y269370D02*
X401810Y269414D01*
X401757Y269453D01*
X401699Y269487D01*
X401637Y269517D01*
X401569Y269543D01*
X401496Y269563D01*
X401418Y269579D01*
X401335Y269591D01*
X401247Y269598D01*
X401154Y269600D01*
Y270400D01*
X401247Y270402D01*
X401335Y270409D01*
X401418Y270421D01*
X401496Y270437D01*
X401569Y270458D01*
X401637Y270483D01*
X401699Y270513D01*
X401757Y270547D01*
X401810Y270586D01*
X401857Y270630D01*
Y269370D01*
D02*
G37*
G36*
X434537Y269562D02*
X434878Y269354D01*
Y267965D01*
X434535Y267621D01*
X432672D01*
X432242Y267536D01*
X431879Y267293D01*
X431879Y267293D01*
X429419Y264833D01*
X428919Y265040D01*
Y269401D01*
D01*
X429153Y269570D01*
X429284Y269665D01*
D01*
D01*
X429379Y269695D01*
X429400Y269690D01*
Y273260D01*
X430600D01*
Y270975D01*
X430613Y270953D01*
X430630Y270889D01*
X430645Y270796D01*
X430657Y270672D01*
X430666Y270419D01*
X430678Y270422D01*
X430681Y270328D01*
X430689Y270241D01*
X430703Y270161D01*
X430722Y270087D01*
X430747Y270019D01*
X430777Y269958D01*
X430812Y269903D01*
X430853Y269855D01*
X430856Y269852D01*
X431147Y270046D01*
X431312Y270079D01*
X431465Y269977D01*
X431968Y269877D01*
X432472Y269977D01*
X432625Y270079D01*
X432790Y270046D01*
X433316Y269695D01*
X433337Y269690D01*
Y273260D01*
X434537D01*
Y269562D01*
D02*
G37*
G36*
X428445Y270768D02*
X428442Y270749D01*
X428440Y270719D01*
X428433Y270490D01*
X428432Y270202D01*
X427632D01*
X427614Y270776D01*
X428449D01*
X428445Y270768D01*
D02*
G37*
G36*
X410903Y271453D02*
X410914Y271411D01*
X410932Y271365D01*
X410957Y271316D01*
X410990Y271263D01*
X411030Y271206D01*
X411133Y271082D01*
X411195Y271014D01*
X411265Y270943D01*
X410881Y270559D01*
X411441D01*
X411446Y270528D01*
X411461Y270499D01*
X411486Y270474D01*
X411521Y270452D01*
X411566Y270434D01*
X411621Y270419D01*
X411686Y270407D01*
X411761Y270399D01*
X411941Y270392D01*
X410714D01*
X410557Y270235D01*
X410486Y270305D01*
X410384Y270392D01*
X409941D01*
X410036Y270394D01*
X410196Y270407D01*
X410261Y270419D01*
X410316Y270434D01*
X410329Y270440D01*
X410294Y270470D01*
X410237Y270510D01*
X410184Y270543D01*
X410135Y270568D01*
X410089Y270586D01*
X410047Y270597D01*
X410009Y270600D01*
X410900Y271491D01*
X410903Y271453D01*
D02*
G37*
G36*
X362232Y270027D02*
X362225Y270103D01*
X362200Y270171D01*
X362160Y270231D01*
X362105Y270283D01*
X362033Y270327D01*
X361945Y270363D01*
X361841Y270391D01*
X361720Y270411D01*
X361584Y270423D01*
X361433Y270427D01*
Y271227D01*
X361584Y271231D01*
X361720Y271243D01*
X361841Y271263D01*
X361945Y271291D01*
X362033Y271327D01*
X362105Y271371D01*
X362160Y271423D01*
X362200Y271483D01*
X362225Y271551D01*
X362232Y271627D01*
Y270027D01*
D02*
G37*
G36*
X426477Y270768D02*
X426474Y270749D01*
X426471Y270719D01*
X426465Y270490D01*
X426463Y270202D01*
X425663D01*
X425646Y270776D01*
X426480D01*
X426477Y270768D01*
D02*
G37*
G36*
X444735Y267669D02*
X444671Y267602D01*
X444613Y267534D01*
X444563Y267468D01*
X444519Y267401D01*
X444482Y267335D01*
X444452Y267269D01*
X444429Y267204D01*
X444412Y267139D01*
X444403Y267074D01*
X444400Y267009D01*
X443509Y267900D01*
X443574Y267903D01*
X443639Y267912D01*
X443704Y267929D01*
X443769Y267952D01*
X443835Y267982D01*
X443901Y268019D01*
X443968Y268063D01*
X444034Y268113D01*
X444102Y268171D01*
X444169Y268235D01*
X444735Y267669D01*
D02*
G37*
G36*
X353841Y268018D02*
X353853Y267882D01*
X353873Y267762D01*
X353901Y267658D01*
X353937Y267570D01*
X353981Y267498D01*
X354033Y267442D01*
X354093Y267402D01*
X354161Y267378D01*
X354204Y267374D01*
X354300Y267370D01*
X352637D01*
X352713Y267378D01*
X352781Y267402D01*
X352841Y267442D01*
X352893Y267498D01*
X352937Y267570D01*
X352973Y267658D01*
X353001Y267762D01*
X353021Y267882D01*
X353033Y268018D01*
X353037Y268170D01*
X353837D01*
X353841Y268018D01*
D02*
G37*
G36*
X392899Y267116D02*
X392922Y267071D01*
X392955Y267031D01*
X392997Y266996D01*
X393047Y266967D01*
X393107Y266943D01*
X393175Y266924D01*
X393252Y266911D01*
X393339Y266903D01*
X393434Y266900D01*
X393288Y266100D01*
X392245Y266134D01*
X392884Y267167D01*
X392899Y267116D01*
D02*
G37*
G36*
X413782Y265888D02*
X413716Y265821D01*
X413553Y265627D01*
X413509Y265565D01*
X413438Y265445D01*
X413410Y265388D01*
X413388Y265331D01*
X413372Y265277D01*
X412741Y266367D01*
X412802Y266355D01*
X412864Y266351D01*
X412927Y266355D01*
X412991Y266368D01*
X413055Y266390D01*
X413120Y266420D01*
X413186Y266458D01*
X413253Y266506D01*
X413320Y266561D01*
X413388Y266626D01*
X413782Y265888D01*
D02*
G37*
G36*
X442376Y270493D02*
X443000Y270369D01*
X443624Y270493D01*
X443878Y270663D01*
X444378Y270395D01*
Y269465D01*
X443573Y268659D01*
X443556Y268646D01*
X443531Y268630D01*
X443525Y268626D01*
D01*
X443500Y268631D01*
X442876Y268507D01*
X442346Y268154D01*
X442279Y268053D01*
X441780Y268205D01*
Y268354D01*
X440100D01*
Y267388D01*
X440156Y267357D01*
X440224Y267337D01*
X440300Y267330D01*
X440105D01*
X440100Y267325D01*
Y266173D01*
X438900D01*
Y267325D01*
X438895Y267330D01*
X438700D01*
X438776Y267337D01*
X438844Y267357D01*
X438900Y267388D01*
Y268354D01*
X437220D01*
X437122Y268813D01*
Y269702D01*
X437521Y269946D01*
X441479D01*
Y270536D01*
X441541Y270588D01*
X441980Y270758D01*
X442376Y270493D01*
D02*
G37*
G36*
X385751Y269106D02*
X384717Y268927D01*
X384457Y269727D01*
X384554Y269729D01*
X384718Y269746D01*
X384784Y269760D01*
X384839Y269779D01*
X384884Y269803D01*
X384918Y269830D01*
X384941Y269862D01*
X384954Y269897D01*
X384957Y269937D01*
X385751Y269106D01*
D02*
G37*
G36*
X422185Y269495D02*
X422209Y269426D01*
X422250Y269367D01*
X422306Y269315D01*
X422380Y269270D01*
X422469Y269234D01*
X422575Y269207D01*
X422696Y269186D01*
X422834Y269175D01*
X422989Y269170D01*
Y268371D01*
X422834Y268367D01*
X422696Y268355D01*
X422575Y268335D01*
X422469Y268306D01*
X422380Y268270D01*
X422306Y268227D01*
X422250Y268175D01*
X422209Y268114D01*
X422185Y268046D01*
X422177Y267970D01*
Y269570D01*
X422185Y269495D01*
D02*
G37*
G36*
X387993Y269376D02*
X388347Y268847D01*
X388876Y268493D01*
X389500Y268369D01*
X390124Y268493D01*
X390653Y268847D01*
X390937Y269270D01*
X391488Y269426D01*
X391707Y269207D01*
X391707Y269207D01*
X391850Y269111D01*
X391744Y268581D01*
X391376Y268507D01*
X390846Y268154D01*
X390493Y267624D01*
X390369Y267000D01*
X390493Y266376D01*
X390658Y266129D01*
X390808Y265750D01*
X390658Y265371D01*
X390493Y265124D01*
X390369Y264500D01*
X390373Y264476D01*
X389902Y264281D01*
X389653Y264653D01*
X389124Y265007D01*
X388500Y265131D01*
X387876Y265007D01*
X387347Y264653D01*
X387332Y264632D01*
X387326Y264631D01*
X387297Y264624D01*
X387276Y264621D01*
X377465D01*
X375293Y266793D01*
X374929Y267036D01*
X374500Y267122D01*
X374500Y267122D01*
X373107D01*
X373007Y267624D01*
X372837Y267879D01*
X373105Y268378D01*
X379111D01*
X379242Y268291D01*
X379672Y268205D01*
X379672Y268205D01*
X385854D01*
X386283Y268291D01*
X386647Y268534D01*
X386734Y268664D01*
X387008Y268847D01*
X387362Y269376D01*
X387422Y269681D01*
X387932D01*
X387993Y269376D01*
D02*
G37*
G36*
X376357Y274370D02*
X376310Y274414D01*
X376257Y274453D01*
X376199Y274487D01*
X376136Y274517D01*
X376069Y274542D01*
X375996Y274563D01*
X375918Y274579D01*
X375835Y274591D01*
X375747Y274598D01*
X375654Y274600D01*
Y275400D01*
X375747Y275402D01*
X375835Y275409D01*
X375918Y275421D01*
X375996Y275437D01*
X376069Y275458D01*
X376136Y275483D01*
X376199Y275513D01*
X376257Y275547D01*
X376310Y275586D01*
X376357Y275630D01*
Y274370D01*
D02*
G37*
G36*
X358404Y275873D02*
X358416Y275759D01*
X358436Y275658D01*
X358464Y275571D01*
X358500Y275498D01*
X358544Y275437D01*
X358596Y275391D01*
X358656Y275357D01*
X358724Y275337D01*
X358800Y275330D01*
X357200D01*
X357276Y275337D01*
X357344Y275357D01*
X357404Y275391D01*
X357456Y275437D01*
X357500Y275498D01*
X357536Y275571D01*
X357564Y275658D01*
X357584Y275759D01*
X357596Y275873D01*
X357600Y276000D01*
X358400D01*
X358404Y275873D01*
D02*
G37*
G36*
X424086Y274310D02*
X424047Y274257D01*
X424013Y274199D01*
X423983Y274136D01*
X423957Y274069D01*
X423937Y273996D01*
X423921Y273918D01*
X423909Y273835D01*
X423902Y273747D01*
X423900Y273654D01*
X423100D01*
X423098Y273747D01*
X423091Y273835D01*
X423079Y273918D01*
X423063Y273996D01*
X423042Y274069D01*
X423017Y274136D01*
X422987Y274199D01*
X422953Y274257D01*
X422914Y274310D01*
X422870Y274357D01*
X424130D01*
X424086Y274310D01*
D02*
G37*
G36*
X440775Y275724D02*
X440800Y275656D01*
X440839Y275596D01*
X440896Y275544D01*
X440968Y275500D01*
X441055Y275464D01*
X441159Y275436D01*
X441280Y275416D01*
X441416Y275404D01*
X441568Y275400D01*
Y274600D01*
X441416Y274596D01*
X441280Y274584D01*
X441159Y274564D01*
X441055Y274536D01*
X440968Y274500D01*
X440896Y274456D01*
X440839Y274404D01*
X440800Y274344D01*
X440775Y274276D01*
X440767Y274200D01*
Y275800D01*
X440775Y275724D01*
D02*
G37*
G36*
X348077Y276094D02*
X348089Y276023D01*
X348109Y275960D01*
X348137Y275906D01*
X348173Y275860D01*
X348217Y275822D01*
X348269Y275793D01*
X348329Y275772D01*
X348397Y275760D01*
X348473Y275756D01*
X346873D01*
X346949Y275760D01*
X347017Y275772D01*
X347077Y275793D01*
X347129Y275822D01*
X347173Y275860D01*
X347209Y275906D01*
X347237Y275960D01*
X347257Y276023D01*
X347269Y276094D01*
X347273Y276173D01*
X348073D01*
X348077Y276094D01*
D02*
G37*
G36*
X349955Y287302D02*
X352344D01*
X352612Y286802D01*
X352493Y286624D01*
X352369Y286000D01*
X352493Y285376D01*
X352847Y284846D01*
X353376Y284493D01*
X353607Y284447D01*
X353975Y284139D01*
X353950Y283908D01*
X353869Y283500D01*
X353993Y282876D01*
X354346Y282347D01*
X354368Y282332D01*
X354369Y282326D01*
X354376Y282296D01*
X354379Y282276D01*
Y270915D01*
X353878Y270708D01*
X352293Y272293D01*
X351929Y272536D01*
X351500Y272622D01*
X351500Y272621D01*
X349554D01*
Y276480D01*
X349554Y276480D01*
X349584Y276613D01*
X349595Y276630D01*
X349612Y276716D01*
X349757Y276800D01*
X350157Y276893D01*
X350575Y276614D01*
X351199Y276490D01*
X351824Y276614D01*
X352353Y276968D01*
X352707Y277497D01*
X352831Y278121D01*
X352707Y278745D01*
X352680Y278785D01*
X352624Y278993D01*
X353153Y279346D01*
X353507Y279876D01*
X353631Y280500D01*
X353507Y281124D01*
X353153Y281653D01*
X352789Y281897D01*
X352586Y282241D01*
X352539Y282534D01*
X352631Y283000D01*
X352507Y283624D01*
X352153Y284154D01*
X351624Y284507D01*
X351000Y284631D01*
X350376Y284507D01*
X349847Y284154D01*
X349757Y284019D01*
X349726Y283997D01*
X349120Y283966D01*
X348293Y284793D01*
X347929Y285036D01*
X347500Y285122D01*
X347500Y285121D01*
X344724D01*
X344704Y285124D01*
X344674Y285131D01*
X344668Y285132D01*
X344654Y285154D01*
X344632Y285168D01*
X344631Y285174D01*
X344624Y285204D01*
X344621Y285224D01*
Y285958D01*
X347487D01*
Y287308D01*
X349927D01*
X349955Y287302D01*
D02*
G37*
G36*
X438244Y274200D02*
X438236Y274276D01*
X438212Y274344D01*
X438171Y274404D01*
X438115Y274456D01*
X438041Y274500D01*
X437952Y274536D01*
X437847Y274564D01*
X437725Y274584D01*
X437658Y274590D01*
X437582Y274579D01*
X437504Y274563D01*
X437431Y274542D01*
X437363Y274517D01*
X437301Y274487D01*
X437243Y274453D01*
X437190Y274414D01*
X437143Y274370D01*
Y275630D01*
X437190Y275586D01*
X437243Y275547D01*
X437301Y275513D01*
X437363Y275483D01*
X437431Y275458D01*
X437504Y275437D01*
X437582Y275421D01*
X437658Y275410D01*
X437725Y275416D01*
X437847Y275436D01*
X437952Y275464D01*
X438041Y275500D01*
X438115Y275544D01*
X438171Y275596D01*
X438212Y275656D01*
X438236Y275724D01*
X438244Y275800D01*
Y274200D01*
D02*
G37*
G36*
X344731Y276094D02*
X344743Y276023D01*
X344763Y275960D01*
X344791Y275906D01*
X344827Y275860D01*
X344871Y275822D01*
X344923Y275793D01*
X344983Y275772D01*
X345051Y275760D01*
X345127Y275756D01*
X343527D01*
X343603Y275760D01*
X343671Y275772D01*
X343731Y275793D01*
X343783Y275822D01*
X343827Y275860D01*
X343863Y275906D01*
X343891Y275960D01*
X343911Y276023D01*
X343923Y276094D01*
X343927Y276173D01*
X344727D01*
X344731Y276094D01*
D02*
G37*
G36*
X438244Y271027D02*
X438236Y271103D01*
X438212Y271171D01*
X438171Y271231D01*
X438115Y271283D01*
X438041Y271327D01*
X437952Y271363D01*
X437847Y271391D01*
X437725Y271411D01*
X437587Y271423D01*
X437432Y271427D01*
Y272227D01*
X437587Y272231D01*
X437725Y272243D01*
X437847Y272263D01*
X437952Y272291D01*
X438041Y272327D01*
X438115Y272371D01*
X438171Y272423D01*
X438212Y272483D01*
X438236Y272551D01*
X438244Y272627D01*
Y271027D01*
D02*
G37*
G36*
X383186Y271166D02*
X383772D01*
X384055Y270666D01*
X383925Y270448D01*
X380059D01*
X379928Y270536D01*
X379498Y270622D01*
X379498Y270621D01*
X370500D01*
X370500Y270622D01*
X370071Y270536D01*
X369707Y270293D01*
X368207Y268793D01*
X367964Y268429D01*
X367878Y268000D01*
X367879Y268000D01*
Y262872D01*
X367541Y262702D01*
X367324Y262736D01*
X367122Y262956D01*
Y268535D01*
X370465Y271879D01*
X378500D01*
X378500Y271878D01*
X378929Y271964D01*
X379291Y272205D01*
X383186D01*
Y271166D01*
D02*
G37*
G36*
X389902Y271253D02*
X389909Y271165D01*
X389921Y271082D01*
X389937Y271004D01*
X389957Y270931D01*
X389983Y270864D01*
X390013Y270801D01*
X390047Y270743D01*
X390086Y270690D01*
X390130Y270643D01*
X388870D01*
X388914Y270690D01*
X388953Y270743D01*
X388987Y270801D01*
X389017Y270864D01*
X389042Y270931D01*
X389063Y271004D01*
X389079Y271082D01*
X389091Y271165D01*
X389098Y271253D01*
X389100Y271346D01*
X389900D01*
X389902Y271253D01*
D02*
G37*
G36*
X346190Y272086D02*
X346243Y272047D01*
X346301Y272013D01*
X346363Y271983D01*
X346431Y271957D01*
X346504Y271937D01*
X346582Y271921D01*
X346665Y271909D01*
X346753Y271902D01*
X346846Y271900D01*
Y271100D01*
X346753Y271098D01*
X346665Y271091D01*
X346582Y271079D01*
X346504Y271063D01*
X346431Y271042D01*
X346363Y271017D01*
X346301Y270987D01*
X346243Y270953D01*
X346190Y270914D01*
X346143Y270870D01*
Y272130D01*
X346190Y272086D01*
D02*
G37*
G36*
X397098Y274224D02*
X397123Y274156D01*
X397163Y274096D01*
X397220Y274044D01*
X397293Y274000D01*
X397382Y273964D01*
X397488Y273936D01*
X397610Y273916D01*
X397748Y273904D01*
X397763Y273904D01*
X397835Y273909D01*
X397918Y273921D01*
X397996Y273937D01*
X398069Y273957D01*
X398136Y273983D01*
X398199Y274013D01*
X398257Y274047D01*
X398310Y274086D01*
X398357Y274130D01*
Y272870D01*
X398310Y272914D01*
X398257Y272953D01*
X398199Y272987D01*
X398136Y273017D01*
X398069Y273042D01*
X397996Y273063D01*
X397918Y273079D01*
X397835Y273091D01*
X397763Y273096D01*
X397748Y273096D01*
X397610Y273084D01*
X397488Y273064D01*
X397382Y273036D01*
X397293Y273000D01*
X397220Y272956D01*
X397163Y272904D01*
X397123Y272844D01*
X397098Y272776D01*
X397090Y272700D01*
Y274300D01*
X397098Y274224D01*
D02*
G37*
G36*
X414069Y273737D02*
X414071Y273644D01*
X414076Y273579D01*
X414469D01*
X414393Y273571D01*
X414325Y273547D01*
X414265Y273506D01*
X414213Y273449D01*
X414169Y273376D01*
X414133Y273287D01*
X414127Y273262D01*
X414131Y273247D01*
X414153Y273181D01*
X414178Y273120D01*
X414207Y273064D01*
X414240Y273013D01*
X414084Y273043D01*
X414073Y272921D01*
X414069Y272767D01*
X413269D01*
X413265Y272921D01*
X413253Y273059D01*
X413233Y273181D01*
X413227Y273207D01*
X413002Y273250D01*
X413053Y273288D01*
X413098Y273333D01*
X413138Y273384D01*
X413152Y273405D01*
X413125Y273449D01*
X413073Y273506D01*
X413013Y273547D01*
X412945Y273571D01*
X412869Y273579D01*
X413228D01*
X413245Y273648D01*
X413259Y273729D01*
X413267Y273816D01*
X413269Y273910D01*
X414069Y273737D01*
D02*
G37*
G36*
X360052Y277327D02*
X360117Y277000D01*
X360131Y276929D01*
X360137Y276898D01*
X360380Y276534D01*
X360707Y276207D01*
X360707Y276207D01*
X361071Y275964D01*
X361221Y275934D01*
X361500Y275878D01*
X361500Y275879D01*
X368085D01*
X368292Y275378D01*
X365870Y272956D01*
X365479Y272708D01*
Y272708D01*
X365479Y272708D01*
X361521D01*
Y271948D01*
X359980D01*
Y276054D01*
X359111D01*
X359036Y276429D01*
X358948Y276561D01*
Y277120D01*
Y277520D01*
X359626D01*
X360052Y277327D01*
D02*
G37*
G36*
X383910Y272527D02*
X383902Y272603D01*
X383877Y272671D01*
X383837Y272731D01*
X383780Y272783D01*
X383707Y272827D01*
X383617Y272863D01*
X383512Y272891D01*
X383390Y272911D01*
X383252Y272923D01*
X383098Y272927D01*
Y273727D01*
X383252Y273731D01*
X383390Y273743D01*
X383512Y273763D01*
X383617Y273791D01*
X383707Y273827D01*
X383780Y273871D01*
X383837Y273923D01*
X383877Y273983D01*
X383902Y274051D01*
X383910Y274127D01*
Y272527D01*
D02*
G37*
D10*
X439500Y271827D02*
D03*
Y275173D02*
D03*
X439500Y262827D02*
D03*
Y266173D02*
D03*
X358000Y274173D02*
D03*
Y270827D02*
D03*
X363500Y270827D02*
D03*
Y274173D02*
D03*
D11*
X385854Y273500D02*
D03*
X395146D02*
D03*
X420232Y268771D02*
D03*
X410941D02*
D03*
D12*
X429173Y249500D02*
D03*
X425827D02*
D03*
X361173Y279500D02*
D03*
X357827D02*
D03*
X347673Y293000D02*
D03*
X344327D02*
D03*
X347673Y274500D02*
D03*
X344327D02*
D03*
X350090Y266103D02*
D03*
X353437D02*
D03*
X415173Y241000D02*
D03*
X411827D02*
D03*
D26*
X353500Y263172D02*
Y267500D01*
X353437Y266103D02*
Y269563D01*
X351500Y271500D02*
X353437Y269563D01*
X345500Y271500D02*
X351500D01*
X414009Y270181D02*
X415500Y271672D01*
X414009Y266681D02*
Y270181D01*
X415500Y271672D02*
Y272255D01*
X412500Y265172D02*
X414009Y266681D01*
X412500Y265172D02*
Y265500D01*
X422500Y261000D02*
X428000D01*
Y261828D02*
X432672Y266500D01*
X435000D01*
X428000Y259640D02*
Y261828D01*
X428031Y255740D02*
Y259469D01*
X435000Y266500D02*
X436000Y267500D01*
Y270500D01*
X430278Y269222D02*
Y272982D01*
Y269222D02*
X430500Y269000D01*
X430000Y273260D02*
X430278Y272982D01*
X436000Y270500D02*
X437327Y271827D01*
X439500D01*
X427797Y264676D02*
Y269968D01*
X426297Y265297D02*
Y269968D01*
X426000Y265000D02*
X426297Y265297D01*
X426063Y270202D02*
X426297Y269968D01*
X428031Y270202D02*
Y273260D01*
X427797Y269968D02*
X428031Y270202D01*
X426063D02*
Y273260D01*
X444500Y275000D02*
X445500Y274000D01*
Y269000D02*
Y274000D01*
X443500Y267000D02*
X445500Y269000D01*
X436500Y275000D02*
X444500D01*
X438000Y278000D02*
X440000Y280000D01*
X427000Y278000D02*
X438000D01*
X423000Y282000D02*
X427000Y278000D01*
X407500Y282000D02*
X423000D01*
X425827Y248173D02*
Y249500D01*
X429500Y246000D02*
Y249173D01*
X429173Y249500D02*
X429500Y249173D01*
X390500Y262000D02*
X392500D01*
X390000Y261500D02*
X390500Y262000D01*
X386500Y261500D02*
X390000D01*
X391491Y246991D02*
Y249906D01*
X391000Y246500D02*
X391491Y246991D01*
X390000Y246500D02*
X391000D01*
X389523Y246023D02*
X390000Y246500D01*
X389523Y243095D02*
Y246023D01*
Y249906D02*
Y252977D01*
X387554Y240928D02*
Y243095D01*
X386627Y240000D02*
X387554Y240928D01*
X386000Y240000D02*
X386627D01*
X386000Y238000D02*
Y240000D01*
X393460Y246540D02*
Y249906D01*
X401334Y243095D02*
Y246500D01*
Y249906D01*
X389000Y238500D02*
X389991Y239491D01*
X391491Y239509D02*
Y243095D01*
Y239509D02*
X392500Y238500D01*
X371500Y263500D02*
X372500Y264500D01*
X371500Y267000D02*
X372500Y266000D01*
X374500D01*
X377000Y263500D01*
X388500D01*
X372500Y264500D02*
X373879D01*
X376379Y262000D01*
X426063Y252063D02*
Y255740D01*
X425827Y249500D02*
Y251827D01*
X426063Y252063D01*
X433937Y269565D02*
Y273260D01*
X379034Y258427D02*
X402244D01*
X375000Y254000D02*
Y254394D01*
X379034Y258427D01*
X392500Y266500D02*
X402121D01*
X392000Y267000D02*
X392500Y266500D01*
X392000Y264500D02*
X392500Y265000D01*
X401500D01*
X426621Y263500D02*
X427797Y264676D01*
X430000Y255740D02*
Y260500D01*
X439500Y266173D02*
Y268000D01*
X421000Y265000D02*
X426000D01*
X421621Y263500D02*
X426621D01*
X376379Y262000D02*
X386000D01*
X386500Y261500D01*
X367507Y245993D02*
Y251000D01*
Y245993D02*
X368500Y245000D01*
X358000Y253500D02*
Y257000D01*
X360500Y259500D01*
X353000Y256000D02*
X354000D01*
X351500Y257500D02*
X353000Y256000D01*
X351500Y257500D02*
Y261172D01*
X353500Y263172D01*
X385681Y273327D02*
X385854Y273500D01*
X369000Y261500D02*
Y268000D01*
X370500Y269500D01*
X358000Y270827D02*
X363500D01*
X363500Y270827D01*
X365327D01*
X358000Y274173D02*
X358050Y274223D01*
X365327Y270827D02*
X369500Y275000D01*
X378827Y273327D02*
X385681D01*
X378500Y273000D02*
X378827Y273327D01*
X384050Y281500D02*
X387500D01*
X384672Y283000D02*
X386500D01*
X363500Y279944D02*
X364944Y278500D01*
X348559Y279571D02*
Y282941D01*
X347500Y284000D02*
X348559Y282941D01*
X343500Y284000D02*
X347500D01*
X350000Y290500D02*
X350576Y289924D01*
X363500Y279944D02*
Y283000D01*
X362856Y283644D02*
X363500Y283000D01*
X362856Y283644D02*
Y287144D01*
X357827Y279500D02*
Y284002D01*
Y276173D02*
Y279500D01*
X358000Y274173D02*
Y276000D01*
X357827Y276173D02*
X358000Y276000D01*
X361173Y277327D02*
Y279500D01*
Y277327D02*
X361500Y277000D01*
X361173Y279500D02*
Y282327D01*
X360500Y283000D02*
X361173Y282327D01*
X360500Y283000D02*
Y285500D01*
X347673Y293000D02*
X349500D01*
X344327Y291327D02*
Y293000D01*
X343500Y290500D02*
X344327Y291327D01*
X343500Y284000D02*
Y290500D01*
X344327Y274500D02*
Y276173D01*
X343441Y277059D02*
Y279571D01*
Y277059D02*
X344327Y276173D01*
X347673Y274500D02*
Y276173D01*
X348559Y277059D01*
Y279571D01*
X346000Y280000D02*
Y282000D01*
X345571Y279571D02*
X346000Y280000D01*
X343441Y279571D02*
X345571D01*
X356000Y252015D02*
Y263500D01*
X350327Y262827D02*
Y265866D01*
X350090Y266103D02*
X350327Y265866D01*
X408000Y245500D02*
Y252672D01*
X402244Y258427D02*
X408000Y252672D01*
X411827Y241000D02*
Y242673D01*
X410500Y244000D02*
X411827Y242673D01*
X410500Y244000D02*
Y251000D01*
X411500Y252000D01*
X414007D01*
X355828Y286000D02*
X357827Y284002D01*
X354000Y286000D02*
X355828D01*
X387500Y281500D02*
X389000Y283000D01*
X386500D02*
X388000Y284500D01*
X370500Y269500D02*
X379498D01*
X379672Y269327D01*
X385854D01*
Y270000D01*
X356311Y268500D02*
X363000D01*
X365172Y259500D02*
X371000D01*
X366000Y261500D02*
Y269000D01*
X370000Y273000D01*
X361653Y294000D02*
X380000D01*
X380621Y295500D02*
X381687Y294435D01*
Y285985D02*
X384672Y283000D01*
X381687Y285985D02*
Y294435D01*
X380000Y294000D02*
X380187Y293813D01*
Y285364D02*
X384050Y281500D01*
X380187Y285364D02*
Y293813D01*
X389523Y240977D02*
Y243095D01*
Y240977D02*
X389963Y240537D01*
Y240318D02*
Y240537D01*
Y240318D02*
X389989Y240291D01*
Y240141D02*
Y240291D01*
Y240141D02*
X389991Y240139D01*
Y239491D02*
Y240139D01*
X400391Y283000D02*
X406500D01*
X391500Y271000D02*
X392500Y270000D01*
X402500D01*
X389500D02*
Y276000D01*
X388500Y277000D02*
X389500Y276000D01*
Y278500D02*
X391500Y276500D01*
Y271000D02*
Y276500D01*
X395146Y273500D02*
X399000D01*
X420232Y268771D02*
X423271D01*
X423500Y269000D01*
Y275000D01*
X370000Y273000D02*
X378500D01*
X364944Y278500D02*
X389500D01*
X361500Y277000D02*
X388500D01*
X369500Y275000D02*
X377000D01*
X389000Y283000D02*
X396609D01*
X406500D02*
X407500Y282000D01*
X407121Y284500D02*
X408121Y283500D01*
X443500D01*
X447000Y280000D01*
X402331Y277984D02*
X407016D01*
X402331Y276016D02*
X407016D01*
X402331Y274047D02*
X407953D01*
X408984Y276016D02*
X413669D01*
X397672Y284059D02*
X399328D01*
X396609Y283000D02*
X397050Y282559D01*
X399950D01*
X400391Y283000D01*
X399328Y284059D02*
X399769Y284500D01*
X397231D02*
X397672Y284059D01*
X388000Y284500D02*
X397231D01*
X399769D02*
X407121D01*
X413669Y279953D02*
X413701Y279984D01*
X417516D01*
X417164Y270860D02*
X419000Y272696D01*
Y278500D01*
X417516Y279984D02*
X419000Y278500D01*
X402121Y266500D02*
X403000Y265621D01*
Y264172D02*
Y265621D01*
X401500Y263550D02*
Y265000D01*
X413669Y277984D02*
X413697Y277956D01*
X416500D01*
Y273255D02*
Y277984D01*
X415500Y272255D02*
X416500Y273255D01*
X401500Y263550D02*
X404550Y260500D01*
X418621D02*
X421621Y263500D01*
X404550Y260500D02*
X418621D01*
X418000Y262000D02*
X421000Y265000D01*
X403000Y264172D02*
X405172Y262000D01*
X418000D01*
X413669Y272169D02*
Y274047D01*
X417164Y266336D02*
Y270860D01*
Y266336D02*
X418000Y265500D01*
X356000Y252015D02*
X360515Y247500D01*
X364000D01*
X365500Y246000D01*
Y245000D02*
Y246000D01*
Y245000D02*
X368000Y242500D01*
X372000D01*
X360827Y293173D02*
X361653Y294000D01*
X360000Y293173D02*
X360827D01*
X355500D02*
X357172D01*
X359498Y295500D01*
X380621D01*
X350576Y289924D02*
X363000D01*
X346000Y288429D02*
X349950D01*
X349955Y288424D01*
X357576D01*
X360500Y285500D01*
X348559Y279571D02*
X349571D01*
X350500Y280500D01*
X352000D01*
X364000Y260672D02*
X365172Y259500D01*
X364000Y260672D02*
Y267500D01*
X363000Y268500D02*
X364000Y267500D01*
X355500Y269310D02*
X356311Y268500D01*
X355500Y269310D02*
Y283500D01*
D28*
X435327Y262827D02*
X439500D01*
X431968Y259469D02*
X435327Y262827D01*
X431968Y255740D02*
Y259469D01*
X395428Y240072D02*
Y243095D01*
X385586D02*
Y249906D01*
X379680Y243095D02*
Y246500D01*
Y249906D01*
X395428D02*
Y252572D01*
X437500Y257500D02*
X439500Y259500D01*
Y261500D02*
Y262827D01*
Y259500D02*
Y262827D01*
X410941Y268771D02*
Y270559D01*
X410000Y271500D02*
X410941Y270559D01*
X383594Y249906D02*
X385586D01*
D31*
X414007Y257000D02*
D03*
D32*
X419007D02*
D03*
X414007Y252000D02*
D03*
X419007D02*
D03*
X414007Y247000D02*
D03*
X419007D02*
D03*
X362507Y256000D02*
D03*
X367507Y251000D02*
D03*
Y256000D02*
D03*
D33*
X362507Y251000D02*
D03*
D34*
X405271Y246500D02*
D03*
X375743D02*
D03*
D35*
X381058Y238035D02*
D03*
X399956D02*
D03*
X381058Y254965D02*
D03*
X399956D02*
D03*
D36*
X345500Y271500D02*
D03*
X413500Y272500D02*
D03*
X433500Y264500D02*
D03*
X430500Y269000D02*
D03*
X443000Y272000D02*
D03*
X436500Y275000D02*
D03*
X429500Y246000D02*
D03*
X418500Y243000D02*
D03*
X394500Y281000D02*
D03*
X392000Y262000D02*
D03*
X395500Y240000D02*
D03*
X389523Y252977D02*
D03*
X389000Y238500D02*
D03*
X392500D02*
D03*
X401334Y246500D02*
D03*
X379680Y246500D02*
D03*
X386000Y238000D02*
D03*
X393460Y246540D02*
D03*
X395428Y252572D02*
D03*
X404673Y238827D02*
D03*
X375000Y258000D02*
D03*
X353673Y259173D02*
D03*
X350327Y262827D02*
D03*
X369000Y261500D02*
D03*
X372000Y242500D02*
D03*
X375000Y254000D02*
D03*
X354000Y256000D02*
D03*
X371500Y267000D02*
D03*
Y263500D02*
D03*
X388500D02*
D03*
X404827Y242173D02*
D03*
X439500Y268000D02*
D03*
X405500Y258000D02*
D03*
X392000Y267000D02*
D03*
Y264500D02*
D03*
X430000Y260500D02*
D03*
X422500Y261000D02*
D03*
X385854Y270000D02*
D03*
X437500Y257500D02*
D03*
X443500Y267000D02*
D03*
X366000Y261500D02*
D03*
X368500Y245000D02*
D03*
X360500Y259500D02*
D03*
X358000Y253500D02*
D03*
X371000Y259500D02*
D03*
X365000Y274000D02*
D03*
X380500Y271327D02*
D03*
X385500Y285000D02*
D03*
X355500Y293173D02*
D03*
X380000Y282000D02*
D03*
X363000Y274000D02*
D03*
X361000D02*
D03*
X389500Y270000D02*
D03*
X362856Y287144D02*
D03*
X346000Y282000D02*
D03*
X343500Y284000D02*
D03*
X349500Y293000D02*
D03*
X350000Y290500D02*
D03*
X341500Y293000D02*
D03*
X356000Y263500D02*
D03*
X415173Y241000D02*
D03*
X408000Y245500D02*
D03*
X354000Y286000D02*
D03*
X410000Y271500D02*
D03*
X423500Y275000D02*
D03*
X433000Y251000D02*
D03*
X398500Y286059D02*
D03*
X409000Y285673D02*
D03*
X416827D02*
D03*
X433000Y280000D02*
D03*
X447000D02*
D03*
X440000D02*
D03*
X377000Y267000D02*
D03*
X351500Y286000D02*
D03*
X351000Y283000D02*
D03*
X383500Y250000D02*
D03*
X402500Y270000D02*
D03*
X399000Y273500D02*
D03*
X377000Y275000D02*
D03*
X399000Y280500D02*
D03*
X419000Y278000D02*
D03*
X422000Y279000D02*
D03*
X405500Y265000D02*
D03*
X412500Y265500D02*
D03*
X416500Y277956D02*
D03*
X418000Y265500D02*
D03*
X407000Y271500D02*
D03*
X360000Y293173D02*
D03*
X371000Y288000D02*
D03*
X363000Y289924D02*
D03*
X352000Y280500D02*
D03*
X351199Y278121D02*
D03*
X355500Y283500D02*
D03*
X356389Y266447D02*
D03*
D62*
X433937Y255740D02*
D03*
X431968D02*
D03*
X430000D02*
D03*
X428031D02*
D03*
X426063D02*
D03*
X433937Y273260D02*
D03*
X431968D02*
D03*
X430000D02*
D03*
X428031D02*
D03*
X426063D02*
D03*
D63*
X408000Y277000D02*
D03*
D64*
X413669Y279953D02*
D03*
Y277984D02*
D03*
Y276016D02*
D03*
Y274047D02*
D03*
X402331Y279953D02*
D03*
Y277984D02*
D03*
Y276016D02*
D03*
Y274047D02*
D03*
D65*
X346000Y288429D02*
D03*
X343441Y279571D02*
D03*
X348559D02*
D03*
D66*
X376331Y282350D02*
D03*
X367669Y288650D02*
D03*
Y282350D02*
D03*
X376331Y288650D02*
D03*
D67*
X379680Y243095D02*
D03*
Y249906D02*
D03*
X385586Y243095D02*
D03*
X387554D02*
D03*
X389523D02*
D03*
X391491D02*
D03*
X393460D02*
D03*
X395428D02*
D03*
X401334D02*
D03*
X385586Y249906D02*
D03*
X387554D02*
D03*
X389523D02*
D03*
X391491D02*
D03*
X393460D02*
D03*
X395428D02*
D03*
X401334D02*
D03*
D68*
X378341Y282000D02*
X380000D01*
X377990Y282350D02*
X378341Y282000D01*
X367819Y288500D02*
X368319Y288000D01*
X371000D01*
%TF.MD5,1FCA7CE5ADC68DA92BBD3DAB2EF9CD22*%
M02*
