G04 Layer_Color=128*
%FSLAX25Y25*%
%MOIN*%
%TF.FileFunction,Paste,Bot*%
%TF.Part,Single*%
G01*
G75*
%TA.AperFunction,SMDPad*%
%ADD10R,0.02559X0.02362*%
%TA.AperFunction,SMDPad*%
%ADD11R,0.03937X0.03268*%
%TA.AperFunction,SMDPad*%
%ADD12R,0.02362X0.02559*%
%TA.AperFunction,SMDPad*%
%ADD62O,0.01181X0.05315*%
%TA.AperFunction,SMDPad*%
%ADD63R,0.03543X0.05512*%
%TA.AperFunction,SMDPad*%
%ADD64R,0.03150X0.00984*%
%TA.AperFunction,SMDPad*%
%ADD65R,0.01575X0.03543*%
%TA.AperFunction,SMDPad*%
%ADD66R,0.05512X0.04528*%
G36*
X392082Y241382D02*
X390901D01*
Y244807D01*
X392082D01*
Y241382D01*
D02*
G37*
G36*
X390113D02*
X388932D01*
Y244807D01*
X390113D01*
Y241382D01*
D02*
G37*
G36*
X394051D02*
X392869D01*
Y244807D01*
X394051D01*
Y241382D01*
D02*
G37*
G36*
X401925D02*
X400743D01*
Y244807D01*
X401925D01*
Y241382D01*
D02*
G37*
G36*
X396019D02*
X394838D01*
Y244807D01*
X396019D01*
Y241382D01*
D02*
G37*
G36*
X400665Y240394D02*
X400782Y240386D01*
X400899Y240371D01*
X401015Y240350D01*
X401130Y240324D01*
X401243Y240292D01*
X401355Y240255D01*
X401464Y240212D01*
X401572Y240163D01*
X401677Y240109D01*
X401779Y240051D01*
X401877Y239987D01*
X401973Y239918D01*
X402065Y239845D01*
X402153Y239767D01*
X402238Y239684D01*
X402318Y239598D01*
X402394Y239508D01*
X402465Y239414D01*
X402531Y239317D01*
X402593Y239216D01*
X402649Y239113D01*
X402700Y239006D01*
X402746Y238898D01*
X402786Y238787D01*
X402821Y238675D01*
X402850Y238561D01*
X402873Y238445D01*
X402891Y238329D01*
X402902Y238211D01*
X402908Y238094D01*
Y237976D01*
X402902Y237859D01*
X402891Y237741D01*
X402873Y237625D01*
X402850Y237509D01*
X402821Y237395D01*
X402786Y237283D01*
X402746Y237172D01*
X402700Y237064D01*
X402649Y236957D01*
X402593Y236854D01*
X402531Y236753D01*
X402465Y236656D01*
X402394Y236562D01*
X402318Y236472D01*
X402238Y236386D01*
X402153Y236303D01*
X402065Y236225D01*
X401973Y236152D01*
X401877Y236083D01*
X401779Y236019D01*
X401677Y235961D01*
X401572Y235907D01*
X401464Y235858D01*
X401355Y235815D01*
X401243Y235778D01*
X401130Y235746D01*
X401015Y235720D01*
X400899Y235699D01*
X400782Y235684D01*
X400665Y235676D01*
X400547Y235673D01*
X399366D01*
X399248Y235676D01*
X399131Y235684D01*
X399014Y235699D01*
X398898Y235720D01*
X398783Y235746D01*
X398669Y235778D01*
X398558Y235815D01*
X398448Y235858D01*
X398341Y235907D01*
X398236Y235961D01*
X398134Y236019D01*
X398035Y236083D01*
X397939Y236152D01*
X397847Y236225D01*
X397759Y236303D01*
X397675Y236386D01*
X397595Y236472D01*
X397519Y236562D01*
X397448Y236656D01*
X397381Y236753D01*
X397320Y236854D01*
X397264Y236957D01*
X397213Y237064D01*
X397167Y237172D01*
X397127Y237283D01*
X397092Y237395D01*
X397063Y237509D01*
X397039Y237625D01*
X397022Y237741D01*
X397010Y237859D01*
X397004Y237976D01*
Y238094D01*
X397010Y238211D01*
X397022Y238329D01*
X397039Y238445D01*
X397063Y238561D01*
X397092Y238675D01*
X397127Y238787D01*
X397167Y238898D01*
X397213Y239006D01*
X397264Y239113D01*
X397320Y239216D01*
X397381Y239317D01*
X397448Y239414D01*
X397519Y239508D01*
X397595Y239598D01*
X397675Y239684D01*
X397759Y239767D01*
X397847Y239845D01*
X397939Y239918D01*
X398035Y239987D01*
X398134Y240051D01*
X398236Y240109D01*
X398341Y240163D01*
X398448Y240212D01*
X398558Y240255D01*
X398669Y240292D01*
X398783Y240324D01*
X398898Y240350D01*
X399014Y240371D01*
X399131Y240386D01*
X399248Y240394D01*
X399366Y240397D01*
X400547D01*
X400665Y240394D01*
D02*
G37*
G36*
X381767D02*
X381884Y240386D01*
X382001Y240371D01*
X382117Y240350D01*
X382232Y240324D01*
X382345Y240292D01*
X382457Y240255D01*
X382566Y240212D01*
X382674Y240163D01*
X382779Y240109D01*
X382880Y240051D01*
X382979Y239987D01*
X383075Y239918D01*
X383167Y239845D01*
X383256Y239767D01*
X383340Y239684D01*
X383420Y239598D01*
X383496Y239508D01*
X383567Y239414D01*
X383633Y239317D01*
X383695Y239216D01*
X383751Y239113D01*
X383802Y239006D01*
X383848Y238898D01*
X383888Y238787D01*
X383923Y238675D01*
X383952Y238561D01*
X383975Y238445D01*
X383993Y238329D01*
X384004Y238211D01*
X384010Y238094D01*
Y237976D01*
X384004Y237859D01*
X383993Y237741D01*
X383975Y237625D01*
X383952Y237509D01*
X383923Y237395D01*
X383888Y237283D01*
X383848Y237172D01*
X383802Y237064D01*
X383751Y236957D01*
X383695Y236854D01*
X383633Y236753D01*
X383567Y236656D01*
X383496Y236562D01*
X383420Y236472D01*
X383340Y236386D01*
X383256Y236303D01*
X383167Y236225D01*
X383075Y236152D01*
X382979Y236083D01*
X382880Y236019D01*
X382779Y235961D01*
X382674Y235907D01*
X382566Y235858D01*
X382457Y235815D01*
X382345Y235778D01*
X382232Y235746D01*
X382117Y235720D01*
X382001Y235699D01*
X381884Y235684D01*
X381767Y235676D01*
X381649Y235673D01*
X380468D01*
X380350Y235676D01*
X380233Y235684D01*
X380116Y235699D01*
X380000Y235720D01*
X379885Y235746D01*
X379771Y235778D01*
X379660Y235815D01*
X379550Y235858D01*
X379443Y235907D01*
X379338Y235961D01*
X379236Y236019D01*
X379137Y236083D01*
X379041Y236152D01*
X378949Y236225D01*
X378861Y236303D01*
X378777Y236386D01*
X378697Y236472D01*
X378621Y236562D01*
X378550Y236656D01*
X378483Y236753D01*
X378422Y236854D01*
X378366Y236957D01*
X378314Y237064D01*
X378269Y237172D01*
X378228Y237283D01*
X378194Y237395D01*
X378165Y237509D01*
X378141Y237625D01*
X378124Y237741D01*
X378112Y237859D01*
X378106Y237976D01*
Y238094D01*
X378112Y238211D01*
X378124Y238329D01*
X378141Y238445D01*
X378165Y238561D01*
X378194Y238675D01*
X378228Y238787D01*
X378269Y238898D01*
X378314Y239006D01*
X378366Y239113D01*
X378422Y239216D01*
X378483Y239317D01*
X378550Y239414D01*
X378621Y239508D01*
X378697Y239598D01*
X378777Y239684D01*
X378861Y239767D01*
X378949Y239845D01*
X379041Y239918D01*
X379137Y239987D01*
X379236Y240051D01*
X379338Y240109D01*
X379443Y240163D01*
X379550Y240212D01*
X379660Y240255D01*
X379771Y240292D01*
X379885Y240324D01*
X380000Y240350D01*
X380116Y240371D01*
X380233Y240386D01*
X380350Y240394D01*
X380468Y240397D01*
X381649D01*
X381767Y240394D01*
D02*
G37*
G36*
X380271Y241382D02*
X379090D01*
Y244807D01*
X380271D01*
Y241382D01*
D02*
G37*
G36*
X388145D02*
X386964D01*
Y244807D01*
X388145D01*
Y241382D01*
D02*
G37*
G36*
X386176D02*
X384995D01*
Y244807D01*
X386176D01*
Y241382D01*
D02*
G37*
G36*
X396019Y248193D02*
X394838D01*
Y251618D01*
X396019D01*
Y248193D01*
D02*
G37*
G36*
X394051D02*
X392869D01*
Y251618D01*
X394051D01*
Y248193D01*
D02*
G37*
G36*
X401925D02*
X400743D01*
Y251618D01*
X401925D01*
Y248193D01*
D02*
G37*
G36*
X400665Y257324D02*
X400782Y257315D01*
X400899Y257301D01*
X401015Y257280D01*
X401130Y257254D01*
X401243Y257222D01*
X401355Y257185D01*
X401464Y257142D01*
X401572Y257093D01*
X401677Y257039D01*
X401779Y256981D01*
X401877Y256917D01*
X401973Y256848D01*
X402065Y256775D01*
X402153Y256697D01*
X402238Y256614D01*
X402318Y256528D01*
X402394Y256438D01*
X402465Y256344D01*
X402531Y256247D01*
X402593Y256146D01*
X402649Y256043D01*
X402700Y255937D01*
X402746Y255828D01*
X402786Y255717D01*
X402821Y255605D01*
X402850Y255491D01*
X402873Y255375D01*
X402891Y255259D01*
X402902Y255141D01*
X402908Y255024D01*
Y254906D01*
X402902Y254788D01*
X402891Y254671D01*
X402873Y254555D01*
X402850Y254439D01*
X402821Y254325D01*
X402786Y254213D01*
X402746Y254102D01*
X402700Y253994D01*
X402649Y253887D01*
X402593Y253784D01*
X402531Y253683D01*
X402465Y253586D01*
X402394Y253492D01*
X402318Y253402D01*
X402238Y253316D01*
X402153Y253233D01*
X402065Y253155D01*
X401973Y253082D01*
X401877Y253013D01*
X401779Y252949D01*
X401677Y252890D01*
X401572Y252837D01*
X401464Y252788D01*
X401355Y252745D01*
X401243Y252708D01*
X401130Y252676D01*
X401015Y252650D01*
X400899Y252629D01*
X400782Y252614D01*
X400665Y252606D01*
X400547Y252603D01*
X399366D01*
X399248Y252606D01*
X399131Y252614D01*
X399014Y252629D01*
X398898Y252650D01*
X398783Y252676D01*
X398669Y252708D01*
X398558Y252745D01*
X398448Y252788D01*
X398341Y252837D01*
X398236Y252890D01*
X398134Y252949D01*
X398035Y253013D01*
X397939Y253082D01*
X397847Y253155D01*
X397759Y253233D01*
X397675Y253316D01*
X397595Y253402D01*
X397519Y253492D01*
X397448Y253586D01*
X397381Y253683D01*
X397320Y253784D01*
X397264Y253887D01*
X397213Y253994D01*
X397167Y254102D01*
X397127Y254213D01*
X397092Y254325D01*
X397063Y254439D01*
X397039Y254555D01*
X397022Y254671D01*
X397010Y254788D01*
X397004Y254906D01*
Y255024D01*
X397010Y255141D01*
X397022Y255259D01*
X397039Y255375D01*
X397063Y255491D01*
X397092Y255605D01*
X397127Y255717D01*
X397167Y255828D01*
X397213Y255937D01*
X397264Y256043D01*
X397320Y256146D01*
X397381Y256247D01*
X397448Y256344D01*
X397519Y256438D01*
X397595Y256528D01*
X397675Y256614D01*
X397759Y256697D01*
X397847Y256775D01*
X397939Y256848D01*
X398035Y256917D01*
X398134Y256981D01*
X398236Y257039D01*
X398341Y257093D01*
X398448Y257142D01*
X398558Y257185D01*
X398669Y257222D01*
X398783Y257254D01*
X398898Y257280D01*
X399014Y257301D01*
X399131Y257315D01*
X399248Y257324D01*
X399366Y257327D01*
X400547D01*
X400665Y257324D01*
D02*
G37*
G36*
X381767D02*
X381884Y257315D01*
X382001Y257301D01*
X382117Y257280D01*
X382232Y257254D01*
X382345Y257222D01*
X382457Y257185D01*
X382566Y257142D01*
X382674Y257093D01*
X382779Y257039D01*
X382880Y256981D01*
X382979Y256917D01*
X383075Y256848D01*
X383167Y256775D01*
X383256Y256697D01*
X383340Y256614D01*
X383420Y256528D01*
X383496Y256438D01*
X383567Y256344D01*
X383633Y256247D01*
X383695Y256146D01*
X383751Y256043D01*
X383802Y255937D01*
X383848Y255828D01*
X383888Y255717D01*
X383923Y255605D01*
X383952Y255491D01*
X383975Y255375D01*
X383993Y255259D01*
X384004Y255141D01*
X384010Y255024D01*
Y254906D01*
X384004Y254788D01*
X383993Y254671D01*
X383975Y254555D01*
X383952Y254439D01*
X383923Y254325D01*
X383888Y254213D01*
X383848Y254102D01*
X383802Y253994D01*
X383751Y253887D01*
X383695Y253784D01*
X383633Y253683D01*
X383567Y253586D01*
X383496Y253492D01*
X383420Y253402D01*
X383340Y253316D01*
X383256Y253233D01*
X383167Y253155D01*
X383075Y253082D01*
X382979Y253013D01*
X382880Y252949D01*
X382779Y252890D01*
X382674Y252837D01*
X382566Y252788D01*
X382457Y252745D01*
X382345Y252708D01*
X382232Y252676D01*
X382117Y252650D01*
X382001Y252629D01*
X381884Y252614D01*
X381767Y252606D01*
X381649Y252603D01*
X380468D01*
X380350Y252606D01*
X380233Y252614D01*
X380116Y252629D01*
X380000Y252650D01*
X379885Y252676D01*
X379771Y252708D01*
X379660Y252745D01*
X379550Y252788D01*
X379443Y252837D01*
X379338Y252890D01*
X379236Y252949D01*
X379137Y253013D01*
X379041Y253082D01*
X378949Y253155D01*
X378861Y253233D01*
X378777Y253316D01*
X378697Y253402D01*
X378621Y253492D01*
X378550Y253586D01*
X378483Y253683D01*
X378422Y253784D01*
X378366Y253887D01*
X378314Y253994D01*
X378269Y254102D01*
X378228Y254213D01*
X378194Y254325D01*
X378165Y254439D01*
X378141Y254555D01*
X378124Y254671D01*
X378112Y254788D01*
X378106Y254906D01*
Y255024D01*
X378112Y255141D01*
X378124Y255259D01*
X378141Y255375D01*
X378165Y255491D01*
X378194Y255605D01*
X378228Y255717D01*
X378269Y255828D01*
X378314Y255937D01*
X378366Y256043D01*
X378422Y256146D01*
X378483Y256247D01*
X378550Y256344D01*
X378621Y256438D01*
X378697Y256528D01*
X378777Y256614D01*
X378861Y256697D01*
X378949Y256775D01*
X379041Y256848D01*
X379137Y256917D01*
X379236Y256981D01*
X379338Y257039D01*
X379443Y257093D01*
X379550Y257142D01*
X379660Y257185D01*
X379771Y257222D01*
X379885Y257254D01*
X380000Y257280D01*
X380116Y257301D01*
X380233Y257315D01*
X380350Y257324D01*
X380468Y257327D01*
X381649D01*
X381767Y257324D01*
D02*
G37*
G36*
X386176Y248193D02*
X384995D01*
Y251618D01*
X386176D01*
Y248193D01*
D02*
G37*
G36*
X380271D02*
X379090D01*
Y251618D01*
X380271D01*
Y248193D01*
D02*
G37*
G36*
X388145D02*
X386964D01*
Y251618D01*
X388145D01*
Y248193D01*
D02*
G37*
G36*
X392082D02*
X390901D01*
Y251618D01*
X392082D01*
Y248193D01*
D02*
G37*
G36*
X390113D02*
X388932D01*
Y251618D01*
X390113D01*
Y248193D01*
D02*
G37*
D10*
X439500Y271827D02*
D03*
Y275173D02*
D03*
X439500Y262827D02*
D03*
Y266173D02*
D03*
X358000Y274173D02*
D03*
Y270827D02*
D03*
X363500Y270827D02*
D03*
Y274173D02*
D03*
D11*
X385854Y273500D02*
D03*
X395146D02*
D03*
X420232Y268771D02*
D03*
X410941D02*
D03*
D12*
X429173Y249500D02*
D03*
X425827D02*
D03*
X361173Y279500D02*
D03*
X357827D02*
D03*
X347673Y293000D02*
D03*
X344327D02*
D03*
X347673Y274500D02*
D03*
X344327D02*
D03*
X350090Y266103D02*
D03*
X353437D02*
D03*
X415173Y241000D02*
D03*
X411827D02*
D03*
D62*
X433937Y255740D02*
D03*
X431968D02*
D03*
X430000D02*
D03*
X428031D02*
D03*
X426063D02*
D03*
X433937Y273260D02*
D03*
X431968D02*
D03*
X430000D02*
D03*
X428031D02*
D03*
X426063D02*
D03*
D63*
X408000Y277000D02*
D03*
D64*
X413669Y279953D02*
D03*
Y277984D02*
D03*
Y276016D02*
D03*
Y274047D02*
D03*
X402331Y279953D02*
D03*
Y277984D02*
D03*
Y276016D02*
D03*
Y274047D02*
D03*
D65*
X346000Y288429D02*
D03*
X343441Y279571D02*
D03*
X348559D02*
D03*
D66*
X376331Y282350D02*
D03*
X367669Y288650D02*
D03*
Y282350D02*
D03*
X376331Y288650D02*
D03*
%TF.MD5,31A4734C1B5D188AC57ADD9E6215B0E1*%
M02*
