G04 Layer_Color=8388736*
%FSLAX25Y25*%
%MOIN*%
%TF.FileFunction,Soldermask,Top*%
%TF.Part,Single*%
G01*
G75*
%TA.AperFunction,SMDPad*%
%ADD63R,0.02959X0.02762*%
%TA.AperFunction,SMDPad*%
%ADD64O,0.01024X0.04173*%
%TA.AperFunction,SMDPad*%
%ADD65O,0.04173X0.01024*%
%TA.AperFunction,SMDPad*%
%ADD66R,0.10669X0.10669*%
%TA.AperFunction,SMDPad*%
%ADD67R,0.04461X0.04658*%
%TA.AperFunction,SMDPad*%
%ADD68R,0.03359X0.05328*%
%TA.AperFunction,SMDPad*%
%ADD69O,0.06115X0.01981*%
%TA.AperFunction,SMDPad*%
%ADD70R,0.02762X0.02959*%
%TA.AperFunction,SMDPad*%
%ADD71R,0.04737X0.04068*%
%TA.AperFunction,SMDPad*%
%ADD72R,0.04068X0.04737*%
%TA.AperFunction,SMDPad*%
%ADD73R,0.02375X0.04147*%
%TA.AperFunction,ConnectorPad*%
%ADD74R,0.04331X0.04331*%
%TA.AperFunction,SMDPad*%
%ADD75R,0.04147X0.02375*%
%TA.AperFunction,ConnectorPad*%
%ADD76R,0.06299X0.06299*%
%TA.AperFunction,ConnectorPad*%
%ADD77R,0.03347X0.03347*%
%TA.AperFunction,ViaPad*%
%ADD78R,0.00787X0.00787*%
%TA.AperFunction,ViaPad*%
%ADD79O,0.06306X0.05124*%
%TA.AperFunction,ViaPad*%
%ADD80R,0.04737X0.04737*%
%TA.AperFunction,ViaPad*%
%ADD81C,0.04737*%
%TA.AperFunction,ViaPad*%
%ADD82R,0.04737X0.04737*%
G36*
X378260Y296210D02*
X378285Y296200D01*
X378290Y296195D01*
X378300Y296185D01*
X378315Y296170D01*
X378330Y296145D01*
X378335Y296140D01*
X378340Y296125D01*
X378350Y296100D01*
X378355Y296070D01*
Y296060D01*
X378360Y296040D01*
X378365Y296010D01*
Y295975D01*
Y295970D01*
Y295960D01*
Y295945D01*
Y295930D01*
X378360Y295880D01*
X378350Y295820D01*
Y295815D01*
Y295805D01*
X378345Y295790D01*
Y295775D01*
X378335Y295725D01*
X378325Y295680D01*
Y295670D01*
X378320Y295640D01*
X378310Y295595D01*
X378300Y295530D01*
Y295525D01*
X378295Y295515D01*
Y295495D01*
X378290Y295470D01*
X378285Y295440D01*
X378275Y295400D01*
X378260Y295315D01*
Y295310D01*
X378255Y295295D01*
Y295270D01*
X378245Y295235D01*
X378240Y295200D01*
X378235Y295155D01*
X378215Y295050D01*
Y295045D01*
X378210Y295025D01*
Y294995D01*
X378200Y294960D01*
X378195Y294915D01*
X378190Y294865D01*
X378170Y294755D01*
Y294750D01*
X378165Y294730D01*
X378160Y294700D01*
X378155Y294665D01*
X378145Y294620D01*
X378140Y294570D01*
X378120Y294465D01*
Y294460D01*
X378115Y294440D01*
X378110Y294415D01*
X378105Y294380D01*
X378100Y294340D01*
X378090Y294295D01*
X378075Y294200D01*
Y294195D01*
X378070Y294180D01*
Y294155D01*
X378065Y294125D01*
X378050Y294055D01*
X378035Y293975D01*
Y293970D01*
Y293960D01*
X378030Y293940D01*
X378025Y293920D01*
X378020Y293870D01*
X378010Y293825D01*
Y293820D01*
X378005Y293805D01*
X378000Y293785D01*
X377990Y293755D01*
Y293750D01*
X377980Y293730D01*
X377970Y293700D01*
X377955Y293670D01*
X377950Y293665D01*
X377940Y293645D01*
X377920Y293620D01*
X377895Y293595D01*
X377890Y293590D01*
X377870Y293580D01*
X377840Y293570D01*
X377805Y293565D01*
X377800D01*
X377785Y293570D01*
X377770Y293575D01*
X377750Y293585D01*
X377745Y293590D01*
X377735Y293600D01*
X377720Y293615D01*
X377700Y293635D01*
X377695Y293640D01*
X377690Y293655D01*
X377680Y293675D01*
X377670Y293695D01*
Y293700D01*
X377665Y293715D01*
X377660Y293735D01*
X377655Y293760D01*
X378035Y295555D01*
Y295560D01*
X378040Y295570D01*
Y295600D01*
Y295605D01*
X378045Y295615D01*
Y295640D01*
Y295645D01*
Y295650D01*
X378040Y295675D01*
Y295680D01*
Y295685D01*
X378035Y295705D01*
Y295710D01*
X378030Y295715D01*
X378025Y295735D01*
X378020Y295730D01*
X378010Y295725D01*
X377995Y295710D01*
X377970Y295695D01*
X377915Y295640D01*
X377845Y295575D01*
X377840Y295570D01*
X377830Y295560D01*
X377810Y295540D01*
X377790Y295515D01*
X377760Y295480D01*
X377730Y295445D01*
X377660Y295360D01*
X377655Y295355D01*
X377645Y295340D01*
X377625Y295315D01*
X377600Y295285D01*
X377570Y295250D01*
X377540Y295210D01*
X377470Y295115D01*
X377465Y295110D01*
X377455Y295095D01*
X377435Y295065D01*
X377410Y295035D01*
X377385Y294995D01*
X377350Y294950D01*
X377285Y294850D01*
X377280Y294845D01*
X377275Y294830D01*
X377260Y294810D01*
X377245Y294785D01*
X377220Y294750D01*
X377195Y294715D01*
X377140Y294630D01*
X377135Y294625D01*
X377125Y294610D01*
X377110Y294590D01*
X377095Y294560D01*
X377070Y294525D01*
X377045Y294485D01*
X376985Y294400D01*
X376980Y294395D01*
X376970Y294380D01*
X376955Y294360D01*
X376940Y294330D01*
X376915Y294295D01*
X376890Y294255D01*
X376835Y294170D01*
X376830Y294165D01*
X376825Y294150D01*
X376810Y294130D01*
X376790Y294100D01*
X376745Y294030D01*
X376700Y293950D01*
X376695Y293940D01*
X376680Y293915D01*
X376660Y293875D01*
X376640Y293820D01*
Y293815D01*
X376635Y293805D01*
X376630Y293790D01*
X376620Y293770D01*
X376600Y293720D01*
X376570Y293660D01*
Y293655D01*
X376565Y293650D01*
X376545Y293615D01*
X376520Y293575D01*
X376490Y293530D01*
X376485Y293520D01*
X376465Y293505D01*
X376435Y293490D01*
X376395Y293480D01*
X376370D01*
X376350Y293485D01*
X376325Y293495D01*
X376320D01*
X376310Y293505D01*
X376280Y293525D01*
Y293530D01*
X376270Y293540D01*
X376255Y293570D01*
Y293575D01*
Y293590D01*
X376250Y293610D01*
Y293635D01*
Y293640D01*
Y293660D01*
Y293685D01*
X376255Y293715D01*
Y293725D01*
X376260Y293745D01*
X376270Y293770D01*
X376275Y293800D01*
Y293805D01*
X376280Y293830D01*
X376290Y293860D01*
X376300Y293900D01*
X376310Y293945D01*
X376325Y294000D01*
X376355Y294115D01*
Y294120D01*
X376365Y294145D01*
X376370Y294175D01*
X376385Y294215D01*
X376395Y294265D01*
X376410Y294320D01*
X376440Y294440D01*
Y294450D01*
X376450Y294470D01*
X376455Y294500D01*
X376470Y294545D01*
X376480Y294595D01*
X376495Y294655D01*
X376530Y294780D01*
Y294790D01*
X376540Y294810D01*
X376550Y294850D01*
X376560Y294895D01*
X376575Y294950D01*
X376595Y295015D01*
X376610Y295085D01*
X376630Y295160D01*
Y295165D01*
X376635Y295170D01*
X376640Y295195D01*
X376650Y295235D01*
X376660Y295285D01*
Y295290D01*
X376665Y295295D01*
X376670Y295330D01*
X376680Y295375D01*
X376690Y295425D01*
Y295430D01*
X376695Y295440D01*
Y295450D01*
X376700Y295470D01*
X376705Y295515D01*
X376715Y295565D01*
Y295570D01*
Y295575D01*
X376720Y295605D01*
X376725Y295645D01*
Y295685D01*
Y295695D01*
Y295715D01*
X376720Y295740D01*
X376715Y295760D01*
Y295765D01*
X376710Y295775D01*
X376705Y295785D01*
X376690Y295790D01*
X376665D01*
X376645Y295785D01*
X376600Y295770D01*
X376545Y295740D01*
X376540D01*
X376530Y295730D01*
X376515Y295720D01*
X376500Y295705D01*
X376450Y295660D01*
X376395Y295605D01*
X376390Y295600D01*
X376380Y295590D01*
X376365Y295575D01*
X376350Y295550D01*
X376300Y295495D01*
X376245Y295420D01*
X376240Y295415D01*
X376230Y295400D01*
X376220Y295380D01*
X376200Y295355D01*
X376175Y295320D01*
X376150Y295285D01*
X376100Y295205D01*
X376095Y295200D01*
X376090Y295185D01*
X376075Y295165D01*
X376060Y295135D01*
X376040Y295105D01*
X376020Y295065D01*
X375975Y294985D01*
Y294980D01*
X375965Y294965D01*
X375955Y294945D01*
X375940Y294920D01*
X375910Y294855D01*
X375875Y294785D01*
Y294780D01*
X375870Y294775D01*
X375865Y294760D01*
X375850Y294735D01*
X375845Y294730D01*
X375840Y294715D01*
X375825Y294685D01*
X375805Y294645D01*
X375800Y294635D01*
X375785Y294605D01*
X375765Y294560D01*
X375735Y294500D01*
Y294495D01*
X375730Y294485D01*
X375720Y294465D01*
X375710Y294440D01*
X375695Y294405D01*
X375680Y294365D01*
X375660Y294325D01*
X375640Y294275D01*
Y294270D01*
X375630Y294250D01*
X375620Y294220D01*
X375605Y294185D01*
X375585Y294135D01*
X375560Y294080D01*
X375535Y294020D01*
X375510Y293950D01*
X375505Y293940D01*
X375500Y293915D01*
X375485Y293875D01*
X375465Y293825D01*
X375440Y293760D01*
X375415Y293680D01*
X375385Y293595D01*
X375350Y293505D01*
X375345Y293500D01*
X375335Y293485D01*
X375315Y293465D01*
X375290Y293445D01*
X375285Y293440D01*
X375265Y293430D01*
X375235Y293420D01*
X375205Y293415D01*
X375190D01*
X375175Y293420D01*
X375150D01*
X375105Y293435D01*
X375065Y293465D01*
X375060Y293475D01*
X375045Y293495D01*
X375030Y293535D01*
X375025Y293585D01*
Y293590D01*
Y293610D01*
Y293630D01*
X375030Y293660D01*
Y293665D01*
X375035Y293685D01*
X375045Y293710D01*
X375055Y293750D01*
X375070Y293795D01*
X375085Y293845D01*
X375105Y293905D01*
X375125Y293965D01*
X375130Y293975D01*
X375135Y293995D01*
X375150Y294030D01*
X375170Y294075D01*
X375190Y294125D01*
X375215Y294185D01*
X375270Y294315D01*
X375275Y294325D01*
X375285Y294345D01*
X375300Y294385D01*
X375320Y294430D01*
X375350Y294490D01*
X375380Y294550D01*
X375445Y294690D01*
X375450Y294700D01*
X375460Y294725D01*
X375480Y294760D01*
X375510Y294810D01*
X375540Y294865D01*
X375575Y294925D01*
X375650Y295060D01*
X375655Y295070D01*
X375670Y295090D01*
X375690Y295125D01*
X375715Y295170D01*
X375750Y295220D01*
X375785Y295275D01*
X375865Y295395D01*
X375870Y295400D01*
X375885Y295420D01*
X375905Y295450D01*
X375935Y295490D01*
X375965Y295535D01*
X376005Y295585D01*
X376085Y295680D01*
X376090Y295685D01*
X376105Y295705D01*
X376130Y295730D01*
X376160Y295765D01*
Y295770D01*
X376170Y295775D01*
X376190Y295800D01*
X376220Y295835D01*
X376260Y295875D01*
X376265Y295880D01*
X376270Y295885D01*
X376300Y295910D01*
X376335Y295945D01*
X376380Y295980D01*
X376385Y295985D01*
X376390Y295990D01*
X376420Y296015D01*
X376460Y296045D01*
X376510Y296075D01*
X376515D01*
X376520Y296085D01*
X376550Y296100D01*
X376590Y296125D01*
X376635Y296145D01*
X376640D01*
X376645Y296150D01*
X376670Y296160D01*
X376705Y296170D01*
X376745Y296175D01*
X376755D01*
X376785Y296170D01*
X376825Y296165D01*
X376870Y296150D01*
X376875D01*
X376880Y296145D01*
X376905Y296130D01*
X376940Y296110D01*
X376970Y296080D01*
X376975Y296075D01*
X376995Y296050D01*
X377010Y296020D01*
X377030Y295975D01*
Y295970D01*
X377035Y295965D01*
X377045Y295935D01*
X377050Y295895D01*
X377055Y295845D01*
Y295840D01*
Y295825D01*
Y295805D01*
X377050Y295780D01*
Y295775D01*
X377045Y295760D01*
Y295740D01*
X377040Y295720D01*
X376840Y294705D01*
X376845Y294715D01*
X376860Y294735D01*
X376880Y294770D01*
X376915Y294815D01*
Y294820D01*
X376925Y294830D01*
X376935Y294845D01*
X376950Y294865D01*
X376985Y294915D01*
X377025Y294975D01*
X377030Y294980D01*
X377035Y294990D01*
X377050Y295010D01*
X377065Y295030D01*
X377105Y295090D01*
X377150Y295160D01*
X377155Y295165D01*
X377160Y295175D01*
X377175Y295195D01*
X377195Y295220D01*
X377235Y295280D01*
X377285Y295345D01*
X377290Y295350D01*
X377295Y295360D01*
X377310Y295375D01*
X377325Y295400D01*
X377365Y295450D01*
X377405Y295505D01*
X377410Y295510D01*
X377415Y295520D01*
X377435Y295550D01*
X377465Y295585D01*
X377495Y295625D01*
X377525Y295670D01*
X377530Y295675D01*
X377550Y295695D01*
X377575Y295725D01*
X377605Y295765D01*
Y295770D01*
X377615Y295775D01*
X377635Y295805D01*
X377670Y295840D01*
X377710Y295885D01*
X377715Y295890D01*
X377720Y295895D01*
X377750Y295925D01*
X377785Y295965D01*
X377830Y296010D01*
X377835Y296015D01*
X377840Y296020D01*
X377870Y296045D01*
X377910Y296080D01*
X377960Y296115D01*
X377965D01*
X377970Y296125D01*
X378000Y296140D01*
X378040Y296165D01*
X378090Y296190D01*
X378095D01*
X378100Y296195D01*
X378130Y296205D01*
X378170Y296215D01*
X378215Y296220D01*
X378240D01*
X378260Y296210D01*
D02*
G37*
G36*
X383245D02*
X383270Y296200D01*
X383295Y296175D01*
X383300Y296170D01*
X383315Y296150D01*
X383335Y296120D01*
X383350Y296085D01*
X383355Y296075D01*
X383365Y296055D01*
X383375Y296020D01*
X383385Y295975D01*
Y295970D01*
Y295965D01*
X383390Y295940D01*
X383395Y295905D01*
Y295865D01*
Y295860D01*
Y295850D01*
Y295830D01*
Y295805D01*
X383385Y295745D01*
X383375Y295670D01*
Y295665D01*
X383370Y295650D01*
Y295630D01*
X383365Y295605D01*
X383350Y295540D01*
X383335Y295470D01*
Y295460D01*
X383325Y295435D01*
X383315Y295395D01*
X383300Y295340D01*
X383280Y295275D01*
X383255Y295205D01*
X383205Y295050D01*
X383200Y295040D01*
X383195Y295015D01*
X383175Y294975D01*
X383155Y294920D01*
X383130Y294855D01*
X383100Y294785D01*
X383030Y294635D01*
X383025Y294625D01*
X383010Y294600D01*
X382990Y294560D01*
X382965Y294510D01*
X382930Y294450D01*
X382890Y294385D01*
X382795Y294245D01*
X382790Y294235D01*
X382770Y294215D01*
X382745Y294175D01*
X382705Y294130D01*
X382660Y294075D01*
X382605Y294015D01*
X382550Y293955D01*
X382485Y293890D01*
X382480Y293885D01*
X382470Y293875D01*
X382450Y293860D01*
X382425Y293840D01*
X382365Y293785D01*
X382290Y293725D01*
X382285Y293720D01*
X382275Y293710D01*
X382255Y293700D01*
X382225Y293680D01*
X382195Y293660D01*
X382160Y293635D01*
X382080Y293585D01*
X382075Y293580D01*
X382060Y293575D01*
X382040Y293565D01*
X382010Y293550D01*
X381975Y293530D01*
X381935Y293515D01*
X381850Y293485D01*
X381845D01*
X381830Y293480D01*
X381810Y293475D01*
X381780Y293470D01*
X381745Y293460D01*
X381705Y293455D01*
X381625Y293450D01*
X381595D01*
X381565Y293455D01*
X381525D01*
X381480Y293460D01*
X381430Y293470D01*
X381335Y293495D01*
X381330D01*
X381315Y293505D01*
X381295Y293510D01*
X381265Y293525D01*
X381200Y293565D01*
X381130Y293620D01*
X381125Y293625D01*
X381115Y293635D01*
X381105Y293655D01*
X381085Y293675D01*
X381065Y293705D01*
X381045Y293740D01*
X381010Y293820D01*
Y293825D01*
X381005Y293840D01*
X381000Y293865D01*
X380990Y293895D01*
X380985Y293930D01*
X380975Y293975D01*
X380970Y294070D01*
Y294075D01*
Y294080D01*
Y294095D01*
Y294115D01*
X380975Y294160D01*
X380980Y294215D01*
Y294220D01*
X380985Y294230D01*
Y294245D01*
X380990Y294265D01*
X381000Y294315D01*
X381010Y294370D01*
Y294380D01*
X381015Y294400D01*
X381025Y294435D01*
X381035Y294480D01*
X381050Y294530D01*
X381065Y294585D01*
X381095Y294700D01*
Y294705D01*
X381105Y294725D01*
X381110Y294755D01*
X381125Y294790D01*
X381135Y294830D01*
X381150Y294875D01*
X381185Y294970D01*
Y294975D01*
X381195Y294990D01*
X381205Y295015D01*
X381215Y295045D01*
X381230Y295080D01*
X381245Y295120D01*
X381275Y295205D01*
Y295210D01*
X381280Y295225D01*
X381290Y295250D01*
X381300Y295280D01*
X381310Y295315D01*
X381320Y295355D01*
X381345Y295445D01*
X381370Y295530D01*
Y295535D01*
X381375Y295555D01*
Y295580D01*
X381380Y295610D01*
Y295620D01*
X381385Y295640D01*
Y295675D01*
X381390Y295715D01*
Y295720D01*
Y295725D01*
X381395Y295750D01*
X381405Y295785D01*
X381410Y295820D01*
Y295825D01*
Y295830D01*
X381420Y295855D01*
X381425Y295885D01*
X381440Y295915D01*
X381445Y295925D01*
X381455Y295940D01*
X381470Y295965D01*
X381495Y295985D01*
X381500Y295990D01*
X381520Y296000D01*
X381545Y296005D01*
X381580Y296010D01*
X381615D01*
X381645Y296000D01*
X381675Y295990D01*
X381680Y295985D01*
X381700Y295975D01*
X381715Y295960D01*
X381735Y295935D01*
X381740Y295930D01*
X381750Y295915D01*
X381760Y295890D01*
X381770Y295860D01*
X381775Y295855D01*
X381780Y295835D01*
X381785Y295805D01*
Y295775D01*
Y295770D01*
Y295750D01*
Y295725D01*
X381780Y295695D01*
Y295690D01*
X381775Y295675D01*
X381770Y295650D01*
X381765Y295625D01*
Y295620D01*
X381760Y295610D01*
X381755Y295595D01*
X381750Y295570D01*
X381740Y295545D01*
X381730Y295510D01*
X381700Y295435D01*
Y295430D01*
X381690Y295415D01*
X381685Y295395D01*
X381670Y295365D01*
X381655Y295330D01*
X381640Y295290D01*
X381600Y295195D01*
Y295190D01*
X381590Y295170D01*
X381580Y295145D01*
X381565Y295110D01*
X381550Y295070D01*
X381530Y295020D01*
X381485Y294910D01*
Y294905D01*
X381475Y294885D01*
X381465Y294850D01*
X381455Y294810D01*
X381440Y294765D01*
X381420Y294710D01*
X381390Y294585D01*
Y294580D01*
X381385Y294570D01*
X381380Y294550D01*
X381375Y294525D01*
X381365Y294490D01*
X381355Y294455D01*
X381340Y294375D01*
Y294370D01*
Y294355D01*
X381335Y294335D01*
Y294305D01*
X381330Y294240D01*
X381325Y294165D01*
Y294160D01*
Y294150D01*
Y294140D01*
Y294120D01*
X381330Y294075D01*
X381335Y294025D01*
Y294020D01*
X381340Y294015D01*
X381345Y293985D01*
X381360Y293950D01*
X381380Y293910D01*
X381385Y293900D01*
X381405Y293880D01*
X381435Y293855D01*
X381470Y293830D01*
X381475D01*
X381480Y293825D01*
X381510Y293815D01*
X381550Y293805D01*
X381610Y293800D01*
X381650D01*
X381695Y293805D01*
X381745Y293810D01*
X381750D01*
X381760Y293815D01*
X381775D01*
X381795Y293825D01*
X381845Y293840D01*
X381915Y293865D01*
X381920Y293870D01*
X381940Y293875D01*
X381965Y293890D01*
X382000Y293910D01*
X382040Y293935D01*
X382085Y293960D01*
X382180Y294030D01*
X382185Y294035D01*
X382200Y294050D01*
X382225Y294070D01*
X382260Y294095D01*
X382295Y294130D01*
X382335Y294170D01*
X382415Y294260D01*
X382420Y294265D01*
X382435Y294285D01*
X382455Y294310D01*
X382480Y294345D01*
X382510Y294385D01*
X382545Y294430D01*
X382615Y294535D01*
X382620Y294540D01*
X382630Y294560D01*
X382650Y294590D01*
X382670Y294630D01*
X382700Y294675D01*
X382725Y294730D01*
X382785Y294845D01*
X382790Y294850D01*
X382800Y294875D01*
X382810Y294905D01*
X382830Y294945D01*
X382850Y294995D01*
X382870Y295050D01*
X382915Y295170D01*
X382920Y295180D01*
X382925Y295200D01*
X382935Y295230D01*
X382950Y295275D01*
X382965Y295320D01*
X382980Y295375D01*
X383010Y295495D01*
Y295500D01*
X383015Y295505D01*
X383020Y295535D01*
X383030Y295575D01*
X383035Y295620D01*
Y295625D01*
Y295630D01*
X383040Y295660D01*
X383045Y295695D01*
X383050Y295740D01*
Y295745D01*
Y295750D01*
X383055Y295780D01*
Y295820D01*
Y295870D01*
Y295875D01*
Y295885D01*
Y295900D01*
X383060Y295920D01*
X383065Y295970D01*
X383070Y296035D01*
Y296040D01*
Y296050D01*
X383075Y296080D01*
X383090Y296120D01*
X383110Y296160D01*
Y296165D01*
X383115Y296170D01*
X383135Y296190D01*
X383170Y296205D01*
X383195Y296215D01*
X383230D01*
X383245Y296210D01*
D02*
G37*
G36*
X375115Y296250D02*
X375185D01*
X375225Y296245D01*
X375235D01*
X375260Y296240D01*
X375295Y296235D01*
X375335Y296230D01*
X375345D01*
X375370Y296225D01*
X375400Y296220D01*
X375430Y296215D01*
X375435Y296210D01*
X375455Y296205D01*
X375475Y296185D01*
X375500Y296160D01*
X375505Y296155D01*
X375515Y296135D01*
X375525Y296105D01*
X375530Y296075D01*
Y296070D01*
Y296055D01*
Y296030D01*
X375525Y296005D01*
Y296000D01*
X375520Y295985D01*
X375515Y295965D01*
X375500Y295945D01*
X375495Y295940D01*
X375490Y295930D01*
X375460Y295905D01*
X375455D01*
X375445Y295900D01*
X375420Y295895D01*
X375395Y295890D01*
X375370D01*
X375350Y295895D01*
X375305Y295900D01*
X375245Y295905D01*
X375230D01*
X375215Y295910D01*
X375190D01*
X375140Y295915D01*
X374915D01*
X374860Y295910D01*
X374735Y295905D01*
X374705D01*
X374670Y295900D01*
X374630D01*
X374575Y295890D01*
X374515Y295885D01*
X374385Y295860D01*
X374380Y295855D01*
X374370Y295840D01*
Y295835D01*
Y295830D01*
Y295800D01*
Y295795D01*
Y295785D01*
Y295765D01*
X374365Y295745D01*
X374360Y295690D01*
X374350Y295630D01*
Y295625D01*
Y295615D01*
X374345Y295600D01*
Y295585D01*
X374335Y295535D01*
X374320Y295480D01*
Y295475D01*
X374315Y295465D01*
Y295450D01*
X374310Y295430D01*
X374295Y295380D01*
X374275Y295320D01*
Y295315D01*
X374270Y295305D01*
X374265Y295285D01*
X374260Y295260D01*
X374250Y295230D01*
X374235Y295195D01*
X374210Y295110D01*
Y295105D01*
X374205Y295090D01*
X374195Y295065D01*
X374185Y295030D01*
X374175Y294985D01*
X374160Y294935D01*
X374145Y294880D01*
X374125Y294820D01*
Y294815D01*
X374115Y294790D01*
X374110Y294755D01*
X374095Y294710D01*
X374080Y294650D01*
X374060Y294580D01*
X374040Y294500D01*
X374020Y294415D01*
X373935Y294065D01*
Y294060D01*
X373930Y294045D01*
X373925Y294020D01*
X373920Y293990D01*
X373900Y293920D01*
X373885Y293840D01*
Y293835D01*
Y293825D01*
X373880Y293805D01*
X373875Y293780D01*
X373865Y293720D01*
X373855Y293650D01*
Y293645D01*
X373845Y293630D01*
X373830Y293610D01*
X373800Y293590D01*
X373790Y293585D01*
X373770Y293580D01*
X373735Y293570D01*
X373690Y293565D01*
X373685D01*
X373665Y293570D01*
X373645Y293575D01*
X373620Y293585D01*
X373615Y293590D01*
X373605Y293600D01*
X373585Y293620D01*
X373570Y293640D01*
X373565Y293645D01*
X373560Y293660D01*
X373550Y293685D01*
X373540Y293710D01*
Y293715D01*
Y293735D01*
Y293760D01*
X373545Y293790D01*
Y293795D01*
X373550Y293805D01*
Y293820D01*
X373555Y293840D01*
X373565Y293870D01*
X373570Y293900D01*
X373590Y293980D01*
X373615Y294070D01*
X373640Y294170D01*
X373670Y294280D01*
X373700Y294395D01*
Y294400D01*
X373705Y294410D01*
X373710Y294425D01*
X373715Y294450D01*
X373720Y294475D01*
X373730Y294510D01*
X373755Y294590D01*
X373780Y294680D01*
X373810Y294785D01*
X373840Y294895D01*
X373870Y295010D01*
Y295015D01*
X373875Y295030D01*
X373880Y295055D01*
X373890Y295085D01*
X373905Y295160D01*
X373925Y295235D01*
Y295240D01*
X373930Y295255D01*
X373935Y295275D01*
X373940Y295300D01*
X373955Y295360D01*
X373970Y295420D01*
Y295425D01*
X373975Y295435D01*
Y295450D01*
X373980Y295470D01*
X373990Y295520D01*
X374000Y295575D01*
Y295580D01*
Y295585D01*
X374005Y295615D01*
X374010Y295655D01*
Y295700D01*
Y295705D01*
Y295710D01*
Y295725D01*
Y295730D01*
Y295735D01*
Y295760D01*
X373990D01*
X373965Y295750D01*
X373925Y295740D01*
X373920D01*
X373915Y295735D01*
X373885Y295725D01*
X373840Y295710D01*
X373780Y295685D01*
X373775D01*
X373765Y295680D01*
X373750Y295675D01*
X373725Y295665D01*
X373670Y295645D01*
X373600Y295615D01*
X373595D01*
X373585Y295610D01*
X373565Y295600D01*
X373545Y295590D01*
X373490Y295560D01*
X373425Y295530D01*
X373420D01*
X373415Y295525D01*
X373390Y295510D01*
X373355Y295495D01*
X373320Y295475D01*
X373315Y295470D01*
X373295Y295465D01*
X373270Y295450D01*
X373245Y295440D01*
X373240D01*
X373225Y295435D01*
X373190Y295425D01*
X373175D01*
X373140Y295420D01*
X373130D01*
X373105Y295425D01*
X373075Y295440D01*
X373040Y295465D01*
X373035Y295475D01*
X373020Y295495D01*
X373005Y295535D01*
X373000Y295580D01*
Y295585D01*
Y295605D01*
Y295625D01*
X373005Y295650D01*
Y295655D01*
X373010Y295670D01*
X373030Y295700D01*
X373035Y295705D01*
X373045Y295715D01*
X373060Y295730D01*
X373080Y295745D01*
X373085Y295750D01*
X373100Y295760D01*
X373120Y295775D01*
X373150Y295790D01*
X373155Y295795D01*
X373170Y295800D01*
X373195Y295815D01*
X373230Y295830D01*
X373270Y295850D01*
X373320Y295870D01*
X373375Y295895D01*
X373440Y295925D01*
X373505Y295950D01*
X373580Y295980D01*
X373735Y296040D01*
X373905Y296095D01*
X374080Y296140D01*
X374085D01*
X374100Y296145D01*
X374125Y296150D01*
X374160Y296160D01*
X374205Y296165D01*
X374255Y296175D01*
X374315Y296185D01*
X374375Y296200D01*
X374445Y296210D01*
X374520Y296220D01*
X374680Y296235D01*
X374855Y296250D01*
X375030Y296255D01*
X375080D01*
X375115Y296250D01*
D02*
G37*
G36*
X380240Y296060D02*
X380285Y296050D01*
X380335Y296030D01*
X380340D01*
X380345Y296025D01*
X380375Y296010D01*
X380415Y295980D01*
X380455Y295945D01*
X380460D01*
X380465Y295935D01*
X380485Y295910D01*
X380515Y295875D01*
X380540Y295825D01*
Y295820D01*
X380545Y295815D01*
X380550Y295800D01*
X380555Y295780D01*
X380565Y295730D01*
X380570Y295675D01*
Y295665D01*
Y295640D01*
X380565Y295610D01*
X380560Y295585D01*
Y295580D01*
X380555Y295570D01*
X380540Y295535D01*
X380535Y295525D01*
X380510Y295515D01*
X380435D01*
X380415Y295520D01*
X380395Y295530D01*
X380390Y295535D01*
X380385Y295540D01*
X380360Y295570D01*
Y295575D01*
X380355Y295585D01*
X380350Y295605D01*
X380340Y295625D01*
Y295630D01*
X380335Y295645D01*
X380325Y295680D01*
Y295685D01*
X380320Y295695D01*
X380295Y295720D01*
X380290Y295725D01*
X380285Y295730D01*
X380270Y295735D01*
X380255Y295740D01*
X380225D01*
X380205Y295735D01*
X380155Y295725D01*
X380095Y295705D01*
X380090D01*
X380080Y295700D01*
X380065Y295695D01*
X380045Y295685D01*
X379990Y295655D01*
X379925Y295620D01*
X379920D01*
X379910Y295610D01*
X379890Y295600D01*
X379870Y295585D01*
X379810Y295545D01*
X379745Y295495D01*
X379740Y295490D01*
X379730Y295485D01*
X379715Y295470D01*
X379695Y295450D01*
X379640Y295405D01*
X379580Y295350D01*
X379575Y295345D01*
X379565Y295340D01*
X379550Y295325D01*
X379530Y295305D01*
X379485Y295260D01*
X379430Y295210D01*
X379425Y295205D01*
X379420Y295200D01*
X379390Y295170D01*
X379355Y295125D01*
X379315Y295080D01*
X379310Y295075D01*
X379305Y295065D01*
X379290Y295045D01*
X379270Y295025D01*
X379225Y294965D01*
X379180Y294895D01*
X379175Y294890D01*
X379170Y294880D01*
X379160Y294860D01*
X379145Y294835D01*
X379110Y294775D01*
X379075Y294700D01*
Y294695D01*
X379070Y294685D01*
X379060Y294665D01*
X379050Y294635D01*
X379030Y294570D01*
X379010Y294495D01*
Y294490D01*
X379005Y294475D01*
X379000Y294455D01*
Y294430D01*
X378995Y294395D01*
X378990Y294360D01*
X378985Y294280D01*
Y294275D01*
Y294265D01*
Y294250D01*
X378990Y294225D01*
X378995Y294175D01*
X379010Y294125D01*
Y294120D01*
X379015Y294115D01*
X379025Y294085D01*
X379045Y294050D01*
X379065Y294010D01*
X379070Y294000D01*
X379090Y293980D01*
X379115Y293955D01*
X379150Y293935D01*
X379160Y293930D01*
X379185Y293925D01*
X379225Y293920D01*
X379275Y293915D01*
X379330D01*
X379370Y293920D01*
X379415D01*
X379460Y293930D01*
X379560Y293945D01*
X379565D01*
X379580Y293950D01*
X379610Y293955D01*
X379640Y293965D01*
X379680Y293975D01*
X379720Y293990D01*
X379810Y294020D01*
X379815D01*
X379830Y294030D01*
X379855Y294040D01*
X379885Y294055D01*
X379920Y294070D01*
X379960Y294090D01*
X380045Y294135D01*
X380050Y294140D01*
X380065Y294145D01*
X380090Y294160D01*
X380120Y294180D01*
X380155Y294205D01*
X380195Y294230D01*
X380280Y294285D01*
X380345D01*
X380360Y294280D01*
X380375Y294270D01*
X380380D01*
X380390Y294265D01*
X380420Y294240D01*
X380425Y294235D01*
X380430Y294225D01*
X380440Y294210D01*
X380450Y294190D01*
Y294185D01*
X380455Y294175D01*
X380460Y294140D01*
Y294135D01*
Y294130D01*
X380455Y294105D01*
X380440Y294065D01*
X380415Y294020D01*
Y294015D01*
X380405Y294010D01*
X380385Y293985D01*
X380345Y293945D01*
X380295Y293905D01*
X380290D01*
X380280Y293895D01*
X380265Y293885D01*
X380245Y293875D01*
X380190Y293840D01*
X380125Y293805D01*
X380120D01*
X380110Y293800D01*
X380090Y293790D01*
X380070Y293780D01*
X380010Y293750D01*
X379945Y293720D01*
X379940D01*
X379930Y293715D01*
X379910Y293710D01*
X379890Y293700D01*
X379835Y293680D01*
X379775Y293660D01*
X379770D01*
X379765Y293655D01*
X379730Y293645D01*
X379690Y293635D01*
X379650Y293625D01*
X379645D01*
X379625Y293620D01*
X379600Y293615D01*
X379570Y293610D01*
X379565D01*
X379545Y293605D01*
X379520Y293600D01*
X379485Y293590D01*
X379475D01*
X379450Y293585D01*
X379415D01*
X379365Y293580D01*
X379315D01*
X379290Y293575D01*
X379175D01*
X379145Y293580D01*
X379105Y293585D01*
X379065Y293595D01*
X379055Y293600D01*
X379030Y293610D01*
X379000Y293625D01*
X378965Y293645D01*
X378960Y293650D01*
X378940Y293665D01*
X378920Y293685D01*
X378895Y293705D01*
X378890Y293710D01*
X378880Y293725D01*
X378845Y293760D01*
X378840Y293765D01*
X378830Y293780D01*
X378810Y293805D01*
X378785Y293840D01*
X378760Y293875D01*
X378735Y293915D01*
X378710Y293960D01*
X378690Y294005D01*
Y294010D01*
X378680Y294025D01*
X378675Y294050D01*
X378665Y294085D01*
X378655Y294125D01*
X378650Y294170D01*
X378640Y294270D01*
Y294275D01*
Y294290D01*
Y294310D01*
X378645Y294340D01*
Y294375D01*
X378650Y294420D01*
X378665Y294510D01*
Y294515D01*
X378670Y294535D01*
X378680Y294560D01*
X378690Y294595D01*
X378700Y294635D01*
X378715Y294675D01*
X378755Y294770D01*
X378760Y294780D01*
X378770Y294800D01*
X378790Y294835D01*
X378815Y294880D01*
X378840Y294930D01*
X378875Y294985D01*
X378950Y295105D01*
X378955Y295115D01*
X378970Y295135D01*
X378990Y295165D01*
X379020Y295205D01*
X379050Y295250D01*
X379090Y295300D01*
X379170Y295405D01*
X379175Y295410D01*
X379190Y295430D01*
X379210Y295455D01*
X379240Y295490D01*
X379275Y295525D01*
X379315Y295570D01*
X379395Y295650D01*
X379400Y295655D01*
X379415Y295670D01*
X379435Y295690D01*
X379465Y295715D01*
X379535Y295770D01*
X379610Y295820D01*
Y295815D01*
X379615D01*
X379620Y295820D01*
X379650Y295840D01*
X379695Y295870D01*
X379745Y295900D01*
X379750D01*
X379755Y295910D01*
X379770Y295915D01*
X379790Y295925D01*
X379835Y295955D01*
X379890Y295980D01*
X379895D01*
X379905Y295985D01*
X379920Y295995D01*
X379935Y296000D01*
X379985Y296020D01*
X380040Y296040D01*
X380045D01*
X380055Y296045D01*
X380070Y296050D01*
X380085Y296055D01*
X380135Y296060D01*
X380190Y296065D01*
X380220D01*
X380240Y296060D01*
D02*
G37*
D63*
X397000Y246673D02*
D03*
Y243327D02*
D03*
X382500Y243327D02*
D03*
Y246673D02*
D03*
X407000Y238827D02*
D03*
Y242173D02*
D03*
X405500Y264673D02*
D03*
Y261327D02*
D03*
X375000Y260327D02*
D03*
Y263673D02*
D03*
X350500Y266827D02*
D03*
Y270173D02*
D03*
X380500Y271327D02*
D03*
Y274673D02*
D03*
X412500Y269173D02*
D03*
Y265827D02*
D03*
X418000Y269173D02*
D03*
Y265827D02*
D03*
X407000Y253673D02*
D03*
Y250327D02*
D03*
X383500Y281827D02*
D03*
Y285173D02*
D03*
X378000Y281827D02*
D03*
Y285173D02*
D03*
X353500Y293173D02*
D03*
Y289827D02*
D03*
X359000Y293173D02*
D03*
Y289827D02*
D03*
X389000Y281827D02*
D03*
Y285173D02*
D03*
X409000Y282327D02*
D03*
Y285673D02*
D03*
X420000Y285673D02*
D03*
Y282327D02*
D03*
X414500Y282327D02*
D03*
Y285673D02*
D03*
D64*
X358488Y267035D02*
D03*
X360063D02*
D03*
X361638D02*
D03*
X363213D02*
D03*
X364787D02*
D03*
X366362D02*
D03*
X367937D02*
D03*
X369512D02*
D03*
Y283965D02*
D03*
X367937D02*
D03*
X366362D02*
D03*
X364787D02*
D03*
X363213D02*
D03*
X361638D02*
D03*
X360063D02*
D03*
X358488D02*
D03*
D65*
X372465Y269988D02*
D03*
Y271563D02*
D03*
Y273138D02*
D03*
Y274713D02*
D03*
Y276287D02*
D03*
Y277862D02*
D03*
Y279437D02*
D03*
Y281012D02*
D03*
X355535D02*
D03*
Y279437D02*
D03*
Y277862D02*
D03*
Y276287D02*
D03*
Y274713D02*
D03*
Y273138D02*
D03*
Y271563D02*
D03*
Y269988D02*
D03*
D66*
X364000Y275500D02*
D03*
D67*
X426968Y270000D02*
D03*
X433032D02*
D03*
D68*
X430000Y251693D02*
D03*
X426260Y263307D02*
D03*
X433740D02*
D03*
D69*
X399260Y259563D02*
D03*
Y261531D02*
D03*
Y263500D02*
D03*
Y265469D02*
D03*
Y267437D02*
D03*
X381740Y259563D02*
D03*
Y261531D02*
D03*
Y263500D02*
D03*
Y265469D02*
D03*
Y267437D02*
D03*
D70*
X353673Y261000D02*
D03*
X350327D02*
D03*
X374827Y290500D02*
D03*
X378173D02*
D03*
X343827Y293000D02*
D03*
X347173D02*
D03*
D71*
X395146Y273500D02*
D03*
X385854D02*
D03*
D72*
X439500Y271646D02*
D03*
Y262354D02*
D03*
D73*
X343441Y279571D02*
D03*
X346000D02*
D03*
X348559D02*
D03*
Y288429D02*
D03*
X346000D02*
D03*
X343441D02*
D03*
D74*
X350500Y274500D02*
D03*
X345500D02*
D03*
D75*
X403429Y280941D02*
D03*
Y283500D02*
D03*
Y286059D02*
D03*
X394571D02*
D03*
Y280941D02*
D03*
D76*
X426000Y284000D02*
D03*
X433000D02*
D03*
X447000D02*
D03*
X440000D02*
D03*
D77*
X369000Y293000D02*
D03*
X365000D02*
D03*
D78*
X405271Y246500D02*
D03*
X375743D02*
D03*
D79*
X381058Y238035D02*
D03*
X399956D02*
D03*
X381058Y254965D02*
D03*
X399956D02*
D03*
D80*
X362507Y251000D02*
D03*
D81*
Y256000D02*
D03*
X367507Y251000D02*
D03*
Y256000D02*
D03*
X419007Y257000D02*
D03*
X414007Y252000D02*
D03*
X419007D02*
D03*
X414007Y247000D02*
D03*
X419007D02*
D03*
D82*
X414007Y257000D02*
D03*
%TF.MD5,643479AD4DCFB9CD01AF981A2B40F316*%
M02*
