G04 Layer_Physical_Order=3*
G04 Layer_Color=128*
%FSLAX25Y25*%
%MOIN*%
%TF.FileFunction,Copper,L3,Inr,Plane*%
%TF.Part,Single*%
G01*
G75*
%ADD28C,0.01000*%
%ADD37C,0.04000*%
%TA.AperFunction,ViaPad*%
%ADD40C,0.05362*%
%TA.AperFunction,ViaPad*%
%ADD41C,0.04000*%
%ADD42R,0.01000X0.01000*%
%ADD43R,0.02000X0.03000*%
%ADD44R,0.02000X0.02000*%
%ADD45R,0.01500X0.03000*%
%ADD46R,0.02500X0.04225*%
%ADD47R,0.05500X0.03500*%
%ADD48R,0.14000X0.04500*%
%ADD49R,0.01500X0.00500*%
%ADD50R,0.01500X0.00353*%
%ADD51R,0.01853X0.00647*%
%ADD52R,0.03000X0.01000*%
%ADD53R,0.11706X0.02794*%
%ADD54R,0.04000X0.10794*%
%ADD55R,0.00500X0.01500*%
%ADD56R,0.01010X0.02500*%
%ADD57R,0.02000X0.06500*%
%ADD58R,0.04361X0.02861*%
%ADD59R,0.11000X0.05500*%
%ADD60R,0.03000X0.01139*%
%TA.AperFunction,ViaPad*%
%ADD61O,0.06937X0.05400*%
D28*
X440000Y271000D02*
Y272500D01*
X439500Y273000D02*
X440000Y272500D01*
X431500Y273000D02*
X439500D01*
X448500D02*
X450000Y274500D01*
X441500Y269500D02*
X448000D01*
X440000Y271000D02*
X441500Y269500D01*
X430000Y247467D02*
Y271500D01*
X377000Y235500D02*
Y249500D01*
X379000Y251500D01*
X391500D01*
X394500Y254500D01*
X408500D01*
X411000Y233000D02*
Y252000D01*
X430000Y271500D02*
X431500Y273000D01*
X349000Y282500D02*
Y285000D01*
Y282500D02*
X352000Y279500D01*
X372500D01*
X376500Y283500D01*
X380500D01*
X382500Y281500D01*
X385500D01*
X374500Y287000D02*
X382500D01*
X370500Y283000D02*
X374500Y287000D01*
X354500Y283000D02*
X370500D01*
X351500Y286000D02*
X354500Y283000D01*
X350000Y286000D02*
X351500D01*
X349000Y285000D02*
X350000Y286000D01*
X430000Y247467D02*
X432189Y245278D01*
X411510Y243206D02*
X422706D01*
X425000Y245500D01*
Y256000D01*
X425500Y256500D01*
Y271000D01*
X424000Y272500D02*
X425500Y271000D01*
X421500Y272500D02*
X424000D01*
X420500Y273500D02*
X421500Y272500D01*
X420500Y273500D02*
Y276500D01*
X421500Y277500D01*
X425500D01*
X430500Y272500D01*
X431000D01*
X412500Y253500D02*
Y261000D01*
Y268000D01*
X407500Y273500D02*
X410500D01*
X407500Y271500D02*
Y273500D01*
Y268500D02*
Y271500D01*
Y268500D02*
X409500Y266500D01*
Y255500D02*
Y266500D01*
X408500Y254500D02*
X409500Y255500D01*
X400490Y284000D02*
Y288500D01*
X392000Y284000D02*
X400490D01*
X389500Y281500D02*
X392000Y284000D01*
X385500Y281500D02*
X389500D01*
X382500Y287000D02*
Y290500D01*
X383500D01*
X400490Y288500D02*
X402000D01*
X410500Y273500D02*
X411500Y272500D01*
Y269000D02*
Y272500D01*
Y269000D02*
X412500Y268000D01*
X411000Y252000D02*
X412500Y253500D01*
X349000Y279500D02*
X350500Y281000D01*
X349000Y277500D02*
Y279500D01*
Y277500D02*
X350500Y276000D01*
X355000D01*
X356500Y274500D01*
Y269000D02*
Y274500D01*
Y269000D02*
X361500Y264000D01*
Y260500D02*
Y264000D01*
Y260500D02*
X364000Y258000D01*
X365000Y257000D01*
Y254500D02*
Y257000D01*
Y254500D02*
X366000Y253500D01*
X370000D01*
Y259000D01*
X367500Y261500D02*
X370000Y259000D01*
X364500Y261500D02*
X367500D01*
X364500D02*
Y265000D01*
X359000Y270500D02*
X364500Y265000D01*
X359000Y270500D02*
Y276000D01*
X357500Y277500D02*
X359000Y276000D01*
X357500Y277500D02*
Y279500D01*
D37*
X337606Y288999D02*
G03*
X452566Y288720I57480J-279D01*
G01*
X337606Y288999D02*
Y298500D01*
X385007D01*
Y290000D02*
Y298500D01*
Y290000D02*
X452566D01*
Y288720D02*
Y290000D01*
D40*
X414007Y257000D02*
D03*
X419007D02*
D03*
X414007Y252000D02*
D03*
Y247000D02*
D03*
X419007D02*
D03*
X362507Y251000D02*
D03*
Y256000D02*
D03*
X367507Y251000D02*
D03*
X405271Y246500D02*
D03*
X375743D02*
D03*
D41*
X345500Y271500D02*
D03*
X433500Y264500D02*
D03*
X430500Y269000D02*
D03*
X436500Y275000D02*
D03*
X429500Y246000D02*
D03*
X418500Y243000D02*
D03*
X392000Y262000D02*
D03*
X389523Y252977D02*
D03*
X389000Y238500D02*
D03*
X392500D02*
D03*
X401334Y246500D02*
D03*
X379680Y246500D02*
D03*
X386000Y238000D02*
D03*
X393460Y246540D02*
D03*
X375000Y258000D02*
D03*
X350327Y262827D02*
D03*
X369000Y261500D02*
D03*
X372000Y242500D02*
D03*
X375000Y254000D02*
D03*
X354000Y256000D02*
D03*
X371500Y267000D02*
D03*
Y263500D02*
D03*
X388500D02*
D03*
X404827Y242173D02*
D03*
X439500Y268000D02*
D03*
X405500Y258000D02*
D03*
X392000Y267000D02*
D03*
Y264500D02*
D03*
X430000Y260500D02*
D03*
X422500Y261000D02*
D03*
X385854Y270000D02*
D03*
X443500Y267000D02*
D03*
X366000Y261500D02*
D03*
X368500Y245000D02*
D03*
X360500Y259500D02*
D03*
X358000Y253500D02*
D03*
X371000Y259500D02*
D03*
X365000Y274000D02*
D03*
X385500Y285000D02*
D03*
X355500Y293173D02*
D03*
X380000Y282000D02*
D03*
X363000Y274000D02*
D03*
X361000D02*
D03*
X389500Y270000D02*
D03*
X362856Y287144D02*
D03*
X346000Y282000D02*
D03*
X343500Y284000D02*
D03*
X350000Y290500D02*
D03*
X341500Y293000D02*
D03*
X356000Y263500D02*
D03*
X408000Y245500D02*
D03*
X409000Y285673D02*
D03*
X433000Y280000D02*
D03*
X447000D02*
D03*
X440000D02*
D03*
X377000Y267000D02*
D03*
X351500Y286000D02*
D03*
X402500Y270000D02*
D03*
X399000Y273500D02*
D03*
X377000Y275000D02*
D03*
X399000Y280500D02*
D03*
X419000Y278000D02*
D03*
X422000Y279000D02*
D03*
X412500Y265500D02*
D03*
X416500Y277956D02*
D03*
X418000Y265500D02*
D03*
X407000Y271500D02*
D03*
X360000Y293173D02*
D03*
X371000Y288000D02*
D03*
X363000Y289924D02*
D03*
X352000Y280500D02*
D03*
X355500Y283500D02*
D03*
X356389Y266447D02*
D03*
D42*
X361779Y259500D02*
D03*
D43*
X364000Y256000D02*
D03*
D44*
X363000Y257000D02*
D03*
X364000Y253500D02*
D03*
D45*
X362750Y257500D02*
D03*
D46*
X360750Y257888D02*
D03*
D47*
X362250Y255250D02*
D03*
D48*
X418000Y247750D02*
D03*
D49*
X422250Y243750D02*
D03*
D50*
X422750Y244177D02*
D03*
D51*
X422927Y244676D02*
D03*
D52*
X423500Y245500D02*
D03*
D53*
X416853Y244603D02*
D03*
D54*
X414500Y248603D02*
D03*
D55*
X411750Y251750D02*
D03*
D56*
X412505Y252250D02*
D03*
D57*
X412000Y248750D02*
D03*
D58*
X384320Y289430D02*
D03*
D59*
X365000Y250750D02*
D03*
D60*
X364500Y253560D02*
D03*
D61*
X381058Y238035D02*
D03*
X399956Y238035D02*
D03*
X381058Y254965D02*
D03*
X399956D02*
D03*
%TF.MD5,15C883EDB90241C93FDC1DA6D00D2862*%
M02*
