G04 Layer_Color=2752767*
%FSLAX25Y25*%
%MOIN*%
%TF.FileFunction,Drawing*%
%TF.Part,Single*%
G01*
G75*
%ADD108C,0.00500*%
%ADD109C,0.00667*%
D108*
X412007Y255000D02*
Y259000D01*
X416007D01*
Y255000D01*
X412007D01*
X417007D02*
Y259000D01*
X421007D01*
Y255000D01*
X417007D01*
X412007Y250000D02*
Y254000D01*
X416007D01*
Y250000D01*
X412007D01*
X417007D02*
Y254000D01*
X421007D01*
Y250000D01*
X417007D01*
X412007Y245000D02*
Y249000D01*
X416007D01*
Y245000D01*
X412007D01*
X417007D02*
Y249000D01*
X421007D01*
Y245000D01*
X417007D01*
X360507Y249000D02*
Y253000D01*
X364507D01*
Y249000D01*
X360507D01*
Y254000D02*
Y258000D01*
X364507D01*
Y254000D01*
X360507D01*
X365507Y249000D02*
Y253000D01*
X369507D01*
Y249000D01*
X365507D01*
Y254000D02*
Y258000D01*
X369507D01*
Y254000D01*
X365507D01*
X403271Y244500D02*
Y248500D01*
X407271D01*
Y244500D01*
X403271D01*
X373743D02*
Y248500D01*
X377743D01*
Y244500D01*
X373743D01*
X345500Y269500D02*
X343500Y273500D01*
X347500D01*
X345500Y269500D01*
X413500Y270500D02*
X411500Y274500D01*
X415500D01*
X413500Y270500D01*
X433500Y262500D02*
X431500Y266500D01*
X435500D01*
X433500Y262500D01*
X430500Y267000D02*
X428500Y271000D01*
X432500D01*
X430500Y267000D01*
X443000Y270000D02*
X441000Y274000D01*
X445000D01*
X443000Y270000D01*
X436500Y273000D02*
X434500Y277000D01*
X438500D01*
X436500Y273000D01*
X429500Y244000D02*
X427500Y248000D01*
X431500D01*
X429500Y244000D01*
X418500Y241000D02*
X416500Y245000D01*
X420500D01*
X418500Y241000D01*
X394500Y279000D02*
X392500Y283000D01*
X396500D01*
X394500Y279000D01*
X392000Y260000D02*
X390000Y264000D01*
X394000D01*
X392000Y260000D01*
X395500Y238000D02*
X393500Y242000D01*
X397500D01*
X395500Y238000D01*
X389523Y250977D02*
X387523Y254977D01*
X391523D01*
X389523Y250977D01*
X389000Y236500D02*
X387000Y240500D01*
X391000D01*
X389000Y236500D01*
X392500D02*
X390500Y240500D01*
X394500D01*
X392500Y236500D01*
X401334Y244500D02*
X399334Y248500D01*
X403334D01*
X401334Y244500D01*
X379680Y244500D02*
X377680Y248500D01*
X381680D01*
X379680Y244500D01*
X386000Y236000D02*
X384000Y240000D01*
X388000D01*
X386000Y236000D01*
X393460Y244540D02*
X391460Y248540D01*
X395460D01*
X393460Y244540D01*
X395428Y250572D02*
X393428Y254572D01*
X397428D01*
X395428Y250572D01*
X404673Y236827D02*
X402673Y240827D01*
X406673D01*
X404673Y236827D01*
X375000Y256000D02*
X373000Y260000D01*
X377000D01*
X375000Y256000D01*
X353673Y257173D02*
X351673Y261173D01*
X355673D01*
X353673Y257173D01*
X350327Y260827D02*
X348327Y264827D01*
X352327D01*
X350327Y260827D01*
X369000Y259500D02*
X367000Y263500D01*
X371000D01*
X369000Y259500D01*
X372000Y240500D02*
X370000Y244500D01*
X374000D01*
X372000Y240500D01*
X375000Y252000D02*
X373000Y256000D01*
X377000D01*
X375000Y252000D01*
X354000Y254000D02*
X352000Y258000D01*
X356000D01*
X354000Y254000D01*
X371500Y265000D02*
X369500Y269000D01*
X373500D01*
X371500Y265000D01*
Y261500D02*
X369500Y265500D01*
X373500D01*
X371500Y261500D01*
X388500D02*
X386500Y265500D01*
X390500D01*
X388500Y261500D01*
X404827Y240173D02*
X402827Y244173D01*
X406827D01*
X404827Y240173D01*
X439500Y266000D02*
X437500Y270000D01*
X441500D01*
X439500Y266000D01*
X405500Y256000D02*
X403500Y260000D01*
X407500D01*
X405500Y256000D01*
X392000Y265000D02*
X390000Y269000D01*
X394000D01*
X392000Y265000D01*
Y262500D02*
X390000Y266500D01*
X394000D01*
X392000Y262500D01*
X430000Y258500D02*
X428000Y262500D01*
X432000D01*
X430000Y258500D01*
X422500Y259000D02*
X420500Y263000D01*
X424500D01*
X422500Y259000D01*
X385854Y268000D02*
X383854Y272000D01*
X387854D01*
X385854Y268000D01*
X437500Y255500D02*
X435500Y259500D01*
X439500D01*
X437500Y255500D01*
X443500Y265000D02*
X441500Y269000D01*
X445500D01*
X443500Y265000D01*
X366000Y259500D02*
X364000Y263500D01*
X368000D01*
X366000Y259500D01*
X368500Y243000D02*
X366500Y247000D01*
X370500D01*
X368500Y243000D01*
X360500Y257500D02*
X358500Y261500D01*
X362500D01*
X360500Y257500D01*
X358000Y251500D02*
X356000Y255500D01*
X360000D01*
X358000Y251500D01*
X371000Y257500D02*
X369000Y261500D01*
X373000D01*
X371000Y257500D01*
X365000Y272000D02*
X363000Y276000D01*
X367000D01*
X365000Y272000D01*
X380500Y269327D02*
X378500Y273327D01*
X382500D01*
X380500Y269327D01*
X385500Y283000D02*
X383500Y287000D01*
X387500D01*
X385500Y283000D01*
X355500Y291173D02*
X353500Y295173D01*
X357500D01*
X355500Y291173D01*
X380000Y280000D02*
X378000Y284000D01*
X382000D01*
X380000Y280000D01*
X363000Y272000D02*
X361000Y276000D01*
X365000D01*
X363000Y272000D01*
X361000D02*
X359000Y276000D01*
X363000D01*
X361000Y272000D01*
X389500Y268000D02*
X387500Y272000D01*
X391500D01*
X389500Y268000D01*
X362856Y285144D02*
X360856Y289144D01*
X364856D01*
X362856Y285144D01*
X346000Y280000D02*
X344000Y284000D01*
X348000D01*
X346000Y280000D01*
X343500Y282000D02*
X341500Y286000D01*
X345500D01*
X343500Y282000D01*
X349500Y291000D02*
X347500Y295000D01*
X351500D01*
X349500Y291000D01*
X350000Y288500D02*
X348000Y292500D01*
X352000D01*
X350000Y288500D01*
X341500Y291000D02*
X339500Y295000D01*
X343500D01*
X341500Y291000D01*
X356000Y261500D02*
X354000Y265500D01*
X358000D01*
X356000Y261500D01*
X415173Y239000D02*
X413173Y243000D01*
X417173D01*
X415173Y239000D01*
X408000Y243500D02*
X406000Y247500D01*
X410000D01*
X408000Y243500D01*
X354000Y284000D02*
X352000Y288000D01*
X356000D01*
X354000Y284000D01*
X410000Y269500D02*
X408000Y273500D01*
X412000D01*
X410000Y269500D01*
X423500Y273000D02*
X421500Y277000D01*
X425500D01*
X423500Y273000D01*
X433000Y249000D02*
X431000Y253000D01*
X435000D01*
X433000Y249000D01*
X398500Y284059D02*
X396500Y288059D01*
X400500D01*
X398500Y284059D01*
X409000Y283673D02*
X407000Y287673D01*
X411000D01*
X409000Y283673D01*
X416827D02*
X414827Y287673D01*
X418827D01*
X416827Y283673D01*
X433000Y278000D02*
X431000Y282000D01*
X435000D01*
X433000Y278000D01*
X447000D02*
X445000Y282000D01*
X449000D01*
X447000Y278000D01*
X440000D02*
X438000Y282000D01*
X442000D01*
X440000Y278000D01*
X377000Y265000D02*
X375000Y269000D01*
X379000D01*
X377000Y265000D01*
X351500Y284000D02*
X349500Y288000D01*
X353500D01*
X351500Y284000D01*
X351000Y281000D02*
X349000Y285000D01*
X353000D01*
X351000Y281000D01*
X383500Y248000D02*
X381500Y252000D01*
X385500D01*
X383500Y248000D01*
X402500Y268000D02*
X400500Y272000D01*
X404500D01*
X402500Y268000D01*
X399000Y271500D02*
X397000Y275500D01*
X401000D01*
X399000Y271500D01*
X377000Y273000D02*
X375000Y277000D01*
X379000D01*
X377000Y273000D01*
X399000Y278500D02*
X397000Y282500D01*
X401000D01*
X399000Y278500D01*
X419000Y276000D02*
X417000Y280000D01*
X421000D01*
X419000Y276000D01*
X422000Y277000D02*
X420000Y281000D01*
X424000D01*
X422000Y277000D01*
X405500Y263000D02*
X403500Y267000D01*
X407500D01*
X405500Y263000D01*
X412500Y263500D02*
X410500Y267500D01*
X414500D01*
X412500Y263500D01*
X416500Y275956D02*
X414500Y279956D01*
X418500D01*
X416500Y275956D01*
X418000Y263500D02*
X416000Y267500D01*
X420000D01*
X418000Y263500D01*
X407000Y269500D02*
X405000Y273500D01*
X409000D01*
X407000Y269500D01*
X360000Y291173D02*
X358000Y295173D01*
X362000D01*
X360000Y291173D01*
X371000Y286000D02*
X369000Y290000D01*
X373000D01*
X371000Y286000D01*
X363000Y287924D02*
X361000Y291924D01*
X365000D01*
X363000Y287924D01*
X352000Y278500D02*
X350000Y282500D01*
X354000D01*
X352000Y278500D01*
X351199Y276121D02*
X349199Y280121D01*
X353199D01*
X351199Y276121D01*
X355500Y281500D02*
X353500Y285500D01*
X357500D01*
X355500Y281500D01*
X356389Y264447D02*
X354389Y268447D01*
X358389D01*
X356389Y264447D01*
D109*
X383058Y238035D02*
G03*
X383058Y238035I-2000J0D01*
G01*
X401956Y238035D02*
G03*
X401956Y238035I-2000J0D01*
G01*
X383058Y254965D02*
G03*
X383058Y254965I-2000J0D01*
G01*
X401956D02*
G03*
X401956Y254965I-2000J0D01*
G01*
%TF.MD5,7043F3DC5DAAA6C18E4A31C00BA95128*%
M02*
