G04 Layer_Color=255*
%FSLAX25Y25*%
%MOIN*%
%TF.FileFunction,Pads,Top*%
%TF.Part,Single*%
G01*
G75*
%TA.AperFunction,SMDPad*%
%ADD10R,0.02559X0.02362*%
%TA.AperFunction,SMDPad*%
%ADD11R,0.03937X0.03268*%
%TA.AperFunction,SMDPad*%
%ADD12R,0.02362X0.02559*%
%TA.AperFunction,ConnectorPad*%
%ADD13R,0.03937X0.03937*%
%TA.AperFunction,ConnectorPad*%
%ADD14R,0.05906X0.05906*%
%TA.AperFunction,ConnectorPad*%
%ADD15R,0.02953X0.02953*%
%TA.AperFunction,ConnectorPad*%
G04:AMPARAMS|DCode=16|XSize=29.53mil|YSize=29.53mil|CornerRadius=0mil|HoleSize=0mil|Usage=FLASHONLY|Rotation=0.000|XOffset=0mil|YOffset=0mil|HoleType=Round|Shape=Octagon|*
%AMOCTAGOND16*
4,1,8,0.01476,-0.00738,0.01476,0.00738,0.00738,0.01476,-0.00738,0.01476,-0.01476,0.00738,-0.01476,-0.00738,-0.00738,-0.01476,0.00738,-0.01476,0.01476,-0.00738,0.0*
%
%ADD16OCTAGOND16*%

%TA.AperFunction,SMDPad*%
%ADD17R,0.03347X0.01575*%
%TA.AperFunction,SMDPad*%
%ADD18R,0.01575X0.03347*%
%TA.AperFunction,SMDPad*%
%ADD19R,0.03268X0.03937*%
%TA.AperFunction,SMDPad*%
%ADD20O,0.05315X0.01181*%
%TA.AperFunction,SMDPad*%
%ADD21R,0.02559X0.04528*%
%TA.AperFunction,SMDPad*%
%ADD22R,0.03661X0.03858*%
%TA.AperFunction,SMDPad*%
%ADD23O,0.00787X0.03937*%
%TA.AperFunction,SMDPad*%
%ADD24O,0.03937X0.00787*%
%TA.AperFunction,SMDPad*%
%ADD25R,0.10433X0.10433*%
%TA.AperFunction,ViaPad*%
%ADD31R,0.03937X0.03937*%
%TA.AperFunction,ViaPad*%
%ADD32C,0.03937*%
%TA.AperFunction,ViaPad*%
%ADD33R,0.03937X0.03937*%
%TA.AperFunction,ViaPad*%
%ADD34R,0.00394X0.00394*%
%TA.AperFunction,ViaPad*%
%ADD35O,0.05906X0.04724*%
D10*
X397000Y246673D02*
D03*
Y243327D02*
D03*
X382500Y243327D02*
D03*
Y246673D02*
D03*
X407000Y238827D02*
D03*
Y242173D02*
D03*
X405500Y264673D02*
D03*
Y261327D02*
D03*
X375000Y260327D02*
D03*
Y263673D02*
D03*
X350500Y266327D02*
D03*
Y269673D02*
D03*
X380500Y271327D02*
D03*
Y274673D02*
D03*
X412500Y269173D02*
D03*
Y265827D02*
D03*
X418000Y269173D02*
D03*
Y265827D02*
D03*
X407000Y253673D02*
D03*
Y250327D02*
D03*
X383500Y281827D02*
D03*
Y285173D02*
D03*
X378000Y281827D02*
D03*
Y285173D02*
D03*
X353500Y293173D02*
D03*
Y289827D02*
D03*
X359000Y293173D02*
D03*
Y289827D02*
D03*
X409000Y282327D02*
D03*
Y285673D02*
D03*
X414500Y282327D02*
D03*
Y285673D02*
D03*
X420000Y285673D02*
D03*
Y282327D02*
D03*
X389000Y281827D02*
D03*
Y285173D02*
D03*
D11*
X395146Y273500D02*
D03*
X385854D02*
D03*
D12*
X374827Y290500D02*
D03*
X378173D02*
D03*
X343827Y293000D02*
D03*
X347173D02*
D03*
X353673Y261000D02*
D03*
X350327D02*
D03*
D13*
X350500Y274500D02*
D03*
X345500D02*
D03*
D14*
X426000Y284000D02*
D03*
X433000D02*
D03*
X447000D02*
D03*
X440000D02*
D03*
D15*
X369000Y293000D02*
D03*
D16*
X365000D02*
D03*
D17*
X403429Y280941D02*
D03*
Y283500D02*
D03*
Y286059D02*
D03*
X394571D02*
D03*
Y280941D02*
D03*
D18*
X343441Y279571D02*
D03*
X346000D02*
D03*
X348559D02*
D03*
Y288429D02*
D03*
X346000D02*
D03*
X343441D02*
D03*
D19*
X439500Y271646D02*
D03*
Y262354D02*
D03*
D20*
X399260Y259563D02*
D03*
Y261531D02*
D03*
Y263500D02*
D03*
Y265469D02*
D03*
Y267437D02*
D03*
X381740Y259563D02*
D03*
Y261531D02*
D03*
Y263500D02*
D03*
Y265469D02*
D03*
Y267437D02*
D03*
D21*
X430000Y251693D02*
D03*
X426260Y263307D02*
D03*
X433740D02*
D03*
D22*
X426968Y270000D02*
D03*
X433032D02*
D03*
D23*
X358488Y267035D02*
D03*
X360063D02*
D03*
X361638D02*
D03*
X363213D02*
D03*
X364787D02*
D03*
X366362D02*
D03*
X367937D02*
D03*
X369512D02*
D03*
Y283965D02*
D03*
X367937D02*
D03*
X366362D02*
D03*
X364787D02*
D03*
X363213D02*
D03*
X361638D02*
D03*
X360063D02*
D03*
X358488D02*
D03*
D24*
X372465Y269988D02*
D03*
Y271563D02*
D03*
Y273138D02*
D03*
Y274713D02*
D03*
Y276287D02*
D03*
Y277862D02*
D03*
Y279437D02*
D03*
Y281012D02*
D03*
X355535D02*
D03*
Y279437D02*
D03*
Y277862D02*
D03*
Y276287D02*
D03*
Y274713D02*
D03*
Y273138D02*
D03*
Y271563D02*
D03*
Y269988D02*
D03*
D25*
X364000Y275500D02*
D03*
D31*
X414007Y257000D02*
D03*
D32*
X419007D02*
D03*
X414007Y252000D02*
D03*
X419007D02*
D03*
X414007Y247000D02*
D03*
X419007D02*
D03*
X362507Y256000D02*
D03*
X367507Y251000D02*
D03*
Y256000D02*
D03*
D33*
X362507Y251000D02*
D03*
D34*
X405271Y246500D02*
D03*
X375743D02*
D03*
D35*
X381058Y238035D02*
D03*
X399956D02*
D03*
X381058Y254965D02*
D03*
X399956D02*
D03*
%TF.MD5,C1F596E3BFEDCE4F03FD0ADD7A592034*%
M02*
