G04 Layer_Physical_Order=1*
G04 Layer_Color=255*
%FSLAX25Y25*%
%MOIN*%
%TF.FileFunction,Copper,L1,Top,Signal*%
%TF.Part,Single*%
G01*
G75*
%TA.AperFunction,SMDPad*%
%ADD10R,0.02559X0.02362*%
%TA.AperFunction,SMDPad*%
%ADD11R,0.03937X0.03268*%
%TA.AperFunction,SMDPad*%
%ADD12R,0.02362X0.02559*%
%TA.AperFunction,ConnectorPad*%
%ADD13R,0.03937X0.03937*%
%TA.AperFunction,ConnectorPad*%
%ADD14R,0.05906X0.05906*%
%TA.AperFunction,ConnectorPad*%
%ADD15R,0.02953X0.02953*%
%TA.AperFunction,ConnectorPad*%
G04:AMPARAMS|DCode=16|XSize=29.53mil|YSize=29.53mil|CornerRadius=0mil|HoleSize=0mil|Usage=FLASHONLY|Rotation=0.000|XOffset=0mil|YOffset=0mil|HoleType=Round|Shape=Octagon|*
%AMOCTAGOND16*
4,1,8,0.01476,-0.00738,0.01476,0.00738,0.00738,0.01476,-0.00738,0.01476,-0.01476,0.00738,-0.01476,-0.00738,-0.00738,-0.01476,0.00738,-0.01476,0.01476,-0.00738,0.0*
%
%ADD16OCTAGOND16*%

%TA.AperFunction,SMDPad*%
%ADD17R,0.03347X0.01575*%
%TA.AperFunction,SMDPad*%
%ADD18R,0.01575X0.03347*%
%TA.AperFunction,SMDPad*%
%ADD19R,0.03268X0.03937*%
%TA.AperFunction,SMDPad*%
%ADD20O,0.05315X0.01181*%
%TA.AperFunction,SMDPad*%
%ADD21R,0.02559X0.04528*%
%TA.AperFunction,SMDPad*%
%ADD22R,0.03661X0.03858*%
%TA.AperFunction,SMDPad*%
%ADD23O,0.00787X0.03937*%
%TA.AperFunction,SMDPad*%
%ADD24O,0.03937X0.00787*%
%TA.AperFunction,SMDPad*%
%ADD25R,0.10433X0.10433*%
%ADD26C,0.00800*%
%ADD27C,0.01500*%
%ADD28C,0.01000*%
%ADD29C,0.01800*%
%ADD30C,0.00700*%
%TA.AperFunction,ViaPad*%
%ADD31R,0.03937X0.03937*%
%TA.AperFunction,ViaPad*%
%ADD32C,0.03937*%
%TA.AperFunction,ViaPad*%
%ADD33R,0.03937X0.03937*%
%TA.AperFunction,ViaPad*%
%ADD34R,0.00394X0.00394*%
%TA.AperFunction,ViaPad*%
%ADD35O,0.05906X0.04724*%
%TA.AperFunction,ViaPad*%
%ADD36C,0.01800*%
G36*
X447402Y281253D02*
X447409Y281165D01*
X447421Y281082D01*
X447425Y281059D01*
X447800D01*
X447724Y281051D01*
X447656Y281027D01*
X447596Y280987D01*
X447544Y280931D01*
X447500Y280859D01*
X447493Y280842D01*
X447513Y280801D01*
X447547Y280743D01*
X447586Y280690D01*
X447630Y280643D01*
X447432D01*
X447416Y280547D01*
X447404Y280411D01*
X447400Y280259D01*
X446600D01*
X446596Y280411D01*
X446584Y280547D01*
X446568Y280643D01*
X446370D01*
X446414Y280690D01*
X446453Y280743D01*
X446487Y280801D01*
X446507Y280842D01*
X446500Y280859D01*
X446456Y280931D01*
X446404Y280987D01*
X446344Y281027D01*
X446276Y281051D01*
X446200Y281059D01*
X446575D01*
X446579Y281082D01*
X446591Y281165D01*
X446598Y281253D01*
X446600Y281346D01*
X447400D01*
X447402Y281253D01*
D02*
G37*
G36*
X440402D02*
X440409Y281165D01*
X440421Y281082D01*
X440425Y281059D01*
X440800D01*
X440724Y281051D01*
X440656Y281027D01*
X440596Y280987D01*
X440544Y280931D01*
X440500Y280859D01*
X440493Y280842D01*
X440513Y280801D01*
X440547Y280743D01*
X440586Y280690D01*
X440630Y280643D01*
X440432D01*
X440416Y280547D01*
X440404Y280411D01*
X440400Y280259D01*
X439600D01*
X439596Y280411D01*
X439584Y280547D01*
X439568Y280643D01*
X439370D01*
X439414Y280690D01*
X439453Y280743D01*
X439487Y280801D01*
X439507Y280842D01*
X439500Y280859D01*
X439456Y280931D01*
X439404Y280987D01*
X439344Y281027D01*
X439276Y281051D01*
X439200Y281059D01*
X439575D01*
X439579Y281082D01*
X439591Y281165D01*
X439598Y281253D01*
X439600Y281346D01*
X440400D01*
X440402Y281253D01*
D02*
G37*
G36*
X383784Y290000D02*
X383877Y289532D01*
X384142Y289135D01*
X384539Y288870D01*
X385007Y288776D01*
X450907D01*
X451342Y288277D01*
X451194Y284516D01*
X451153Y284468D01*
X450653Y284652D01*
Y287653D01*
X436953D01*
Y287953D01*
X433600D01*
Y284000D01*
Y281059D01*
X433800D01*
X433724Y281051D01*
X433656Y281027D01*
X433600Y280990D01*
Y280675D01*
X433630Y280643D01*
X433600D01*
Y280047D01*
X436953D01*
Y280347D01*
X438084D01*
X438369Y280000D01*
X438493Y279376D01*
X438846Y278847D01*
X439376Y278493D01*
X440000Y278369D01*
X440624Y278493D01*
X441153Y278847D01*
X441507Y279376D01*
X441631Y280000D01*
X441916Y280347D01*
X445084D01*
X445369Y280000D01*
X445493Y279376D01*
X445847Y278847D01*
X446376Y278493D01*
X447000Y278369D01*
X447624Y278493D01*
X448153Y278847D01*
X448507Y279376D01*
X448631Y280000D01*
X448916Y280347D01*
X450214D01*
X450602Y279979D01*
X450653Y279847D01*
X449805Y275584D01*
X448605Y271331D01*
X447076Y267185D01*
X445226Y263173D01*
X443067Y259317D01*
X440612Y255644D01*
X437877Y252174D01*
X434877Y248929D01*
X431633Y245930D01*
X428163Y243194D01*
X424489Y240739D01*
X420634Y238580D01*
X416621Y236730D01*
X412475Y235201D01*
X408223Y234002D01*
X403889Y233140D01*
X399501Y232620D01*
X395086Y232447D01*
X390671Y232620D01*
X386283Y233140D01*
X381949Y234002D01*
X377696Y235201D01*
X376515Y235637D01*
X374777Y236278D01*
D01*
X373551Y236730D01*
X369538Y238580D01*
X369500Y238602D01*
X365683Y240739D01*
X362009Y243194D01*
X358539Y245930D01*
X355294Y248929D01*
X352295Y252174D01*
X349560Y255644D01*
X347105Y259317D01*
X344946Y263173D01*
X343096Y267185D01*
X341566Y271331D01*
X340367Y275584D01*
X339505Y279917D01*
X338986Y284305D01*
X338812Y288720D01*
X338822Y288958D01*
X338830Y288999D01*
Y297276D01*
X383784D01*
Y290000D01*
D02*
G37*
%LPC*%
G36*
X385780Y287354D02*
X384100D01*
Y285773D01*
X384755D01*
Y285800D01*
X384758Y285773D01*
X385780D01*
Y287354D01*
D02*
G37*
G36*
X436020Y266571D02*
X431461D01*
Y266500D01*
Y263907D01*
X433753D01*
X434302Y264091D01*
X434277Y264041D01*
X434224Y263916D01*
X434221Y263907D01*
X436020D01*
Y266500D01*
Y266571D01*
D02*
G37*
G36*
X382900Y287354D02*
X381221D01*
Y285773D01*
X382900D01*
Y287354D01*
D02*
G37*
G36*
X388400D02*
X386720D01*
Y285773D01*
X387663D01*
X387701Y285829D01*
X387724Y285897D01*
X387733Y285973D01*
Y285773D01*
X388400D01*
Y287354D01*
D02*
G37*
G36*
X402829Y287846D02*
X400756D01*
Y286659D01*
X402829D01*
Y287846D01*
D02*
G37*
G36*
X406102D02*
X404029D01*
Y286659D01*
X405090D01*
Y286835D01*
X405098Y286763D01*
X405122Y286699D01*
X405151Y286659D01*
X406102D01*
Y287846D01*
D02*
G37*
G36*
X391280Y287354D02*
X389600D01*
Y285773D01*
X391280D01*
Y287354D01*
D02*
G37*
G36*
X411279Y287854D02*
X409600D01*
Y286273D01*
X411279D01*
Y287854D01*
D02*
G37*
G36*
X377279Y259727D02*
X376326D01*
X376288Y259671D01*
X376264Y259603D01*
X376255Y259527D01*
Y259727D01*
X375600D01*
Y259170D01*
X375800D01*
X375724Y259161D01*
X375656Y259137D01*
X375600Y259099D01*
Y258675D01*
X375630Y258643D01*
X375600D01*
Y258146D01*
X377279D01*
Y259727D01*
D02*
G37*
G36*
X437500Y259131D02*
X436876Y259007D01*
X436346Y258653D01*
X435993Y258124D01*
X435869Y257500D01*
X435993Y256876D01*
X436346Y256347D01*
X436876Y255993D01*
X437500Y255869D01*
X438124Y255993D01*
X438654Y256347D01*
X439007Y256876D01*
X439131Y257500D01*
X439007Y258124D01*
X438654Y258653D01*
X438124Y259007D01*
X437500Y259131D01*
D02*
G37*
G36*
X436020Y262707D02*
X434340D01*
Y260043D01*
X436020D01*
Y262707D01*
D02*
G37*
G36*
X404900Y260727D02*
X404245D01*
Y260527D01*
X404239Y260603D01*
X404222Y260671D01*
X404195Y260727D01*
X403221D01*
Y259146D01*
X404900D01*
Y260099D01*
X404844Y260137D01*
X404776Y260162D01*
X404700Y260170D01*
X404900D01*
Y260727D01*
D02*
G37*
G36*
X403859Y254365D02*
X400556D01*
Y251575D01*
X401425Y251689D01*
X402242Y252028D01*
X402945Y252567D01*
X403484Y253269D01*
X403822Y254087D01*
X403859Y254365D01*
D02*
G37*
G36*
X380458D02*
X377155D01*
X377192Y254087D01*
X377531Y253269D01*
X378070Y252567D01*
X378772Y252028D01*
X379590Y251689D01*
X380458Y251575D01*
Y254365D01*
D02*
G37*
G36*
X399356D02*
X395778D01*
X395574Y254174D01*
X395428Y254203D01*
X394804Y254079D01*
X394275Y253725D01*
X393921Y253196D01*
X393797Y252572D01*
X393921Y251947D01*
X394275Y251418D01*
X394804Y251065D01*
X395428Y250940D01*
X396053Y251065D01*
X396582Y251418D01*
X396935Y251947D01*
X396954Y252042D01*
X397422Y252218D01*
X397670Y252028D01*
X398488Y251689D01*
X399356Y251575D01*
Y254365D01*
D02*
G37*
G36*
X423500Y276631D02*
X422876Y276507D01*
X422346Y276153D01*
X421993Y275624D01*
X421869Y275000D01*
X421993Y274376D01*
X422346Y273847D01*
X422876Y273493D01*
X423500Y273369D01*
X424124Y273493D01*
X424653Y273847D01*
X425007Y274376D01*
X425131Y275000D01*
X425007Y275624D01*
X424653Y276153D01*
X424124Y276507D01*
X423500Y276631D01*
D02*
G37*
G36*
X384961Y254365D02*
X381658D01*
Y251575D01*
X382180Y251644D01*
X382361Y251163D01*
X382347Y251153D01*
X381993Y250624D01*
X381869Y250000D01*
X381993Y249376D01*
X382047Y249295D01*
X381811Y248854D01*
X380221D01*
Y247273D01*
X380921D01*
X380982Y247298D01*
X381072Y247353D01*
X381142Y247418D01*
X381192Y247493D01*
X381223Y247578D01*
X381233Y247673D01*
Y247273D01*
X384780D01*
Y248854D01*
X384780Y248854D01*
X384780D01*
X384951Y249291D01*
X385007Y249376D01*
X385131Y250000D01*
X385007Y250624D01*
X384653Y251153D01*
X384124Y251507D01*
X383585Y251614D01*
X383469Y251946D01*
X383453Y252112D01*
X384047Y252567D01*
X384586Y253269D01*
X384924Y254087D01*
X384961Y254365D01*
D02*
G37*
G36*
X443500Y268631D02*
X442876Y268507D01*
X442346Y268154D01*
X442332Y268132D01*
X442326Y268130D01*
X442297Y268124D01*
X442276Y268122D01*
X441500D01*
X441500Y268122D01*
X441071Y268036D01*
X440707Y267793D01*
X440707Y267793D01*
X438707Y265793D01*
X438464Y265429D01*
X438383Y265023D01*
X437166D01*
Y259686D01*
X441834D01*
Y265023D01*
X441834D01*
X441692Y265494D01*
X441914Y265795D01*
X442346Y265846D01*
X442876Y265493D01*
X443500Y265369D01*
X444124Y265493D01*
X444654Y265846D01*
X445007Y266376D01*
X445131Y267000D01*
X445007Y267624D01*
X444654Y268154D01*
X444124Y268507D01*
X443500Y268631D01*
D02*
G37*
G36*
X380354Y292779D02*
X378773D01*
Y291100D01*
X380354D01*
Y292779D01*
D02*
G37*
G36*
X432432Y272929D02*
X430201D01*
Y270600D01*
X432432D01*
Y272929D01*
D02*
G37*
G36*
X370932Y296698D02*
X370932Y296698D01*
X363806D01*
X363377Y296613D01*
X363013Y296369D01*
X363013Y296369D01*
X361631Y294987D01*
X361479Y294761D01*
X360980Y294913D01*
Y295054D01*
X357020D01*
Y294637D01*
X356992Y294613D01*
X356959Y294585D01*
X356521Y294416D01*
X356124Y294680D01*
X355500Y294805D01*
D01*
D01*
X355480Y294821D01*
D01*
Y295054D01*
X351520D01*
Y293607D01*
X351021Y293558D01*
D01*
D01*
X351007Y293624D01*
X350654Y294153D01*
X350124Y294507D01*
X349500Y294631D01*
X349441Y294620D01*
X349393Y294659D01*
X349054Y294937D01*
D01*
Y294980D01*
X346008D01*
Y295280D01*
X344427D01*
Y293000D01*
X343827D01*
Y292400D01*
X342670D01*
Y292200D01*
X342661Y292276D01*
X342637Y292344D01*
X342599Y292400D01*
X342175D01*
X342143Y292370D01*
Y292400D01*
X341646D01*
Y290721D01*
X341653D01*
Y289029D01*
X343441D01*
Y287829D01*
X341653D01*
Y285756D01*
X342348D01*
X342500Y285256D01*
X342347Y285154D01*
X341993Y284624D01*
X341869Y284000D01*
X341993Y283376D01*
X342347Y282846D01*
X342368Y282832D01*
X342370Y282826D01*
X342373Y282810D01*
X342376Y282797D01*
X342378Y282780D01*
X342378Y282776D01*
D01*
Y281944D01*
X341953D01*
Y277198D01*
X342531D01*
Y277186D01*
X342831Y277168D01*
Y271831D01*
X343597D01*
X343869Y271500D01*
X343993Y270876D01*
X344346Y270346D01*
X344876Y269993D01*
X345500Y269869D01*
X346124Y269993D01*
X346560Y269682D01*
X346521Y269489D01*
X346521Y269489D01*
Y264063D01*
X346521Y264063D01*
X346607Y263633D01*
X346850Y263269D01*
X348085Y262034D01*
X348085Y262034D01*
X348446Y261793D01*
Y259020D01*
X352072D01*
X352166Y258549D01*
X352520Y258020D01*
X352881Y257778D01*
X352935Y257269D01*
X352916Y257200D01*
X352847Y257154D01*
X352493Y256624D01*
X352369Y256000D01*
X352493Y255376D01*
X352847Y254847D01*
X353376Y254493D01*
X354000Y254369D01*
X354624Y254493D01*
X355153Y254847D01*
X355168Y254868D01*
X355174Y254870D01*
X355204Y254876D01*
X355224Y254878D01*
X356000D01*
X356000Y254878D01*
X356429Y254964D01*
X356554Y255047D01*
X356846Y254654D01*
X356493Y254124D01*
X356369Y253500D01*
X356493Y252876D01*
X356846Y252346D01*
X356868Y252332D01*
X356870Y252326D01*
X356876Y252296D01*
X356878Y252276D01*
Y250000D01*
X356878Y250000D01*
X356964Y249571D01*
X357207Y249207D01*
X362207Y244207D01*
X362207Y244207D01*
X362571Y243964D01*
X363000Y243878D01*
X363000Y243879D01*
X367276D01*
X367297Y243876D01*
X367326Y243869D01*
X367332Y243868D01*
X367347Y243847D01*
X367876Y243493D01*
X368500Y243369D01*
X369124Y243493D01*
X369654Y243847D01*
X370007Y244376D01*
X370131Y245000D01*
X370007Y245624D01*
X369654Y246153D01*
X369420Y246310D01*
X369571Y246810D01*
X369931D01*
X369932Y246810D01*
X370361Y246895D01*
X370725Y247138D01*
X371793Y248207D01*
X371793Y248207D01*
X371841Y248278D01*
X372341Y248127D01*
Y244471D01*
X372000Y244131D01*
X371376Y244007D01*
X370847Y243653D01*
X370493Y243124D01*
X370369Y242500D01*
X370493Y241876D01*
X370847Y241347D01*
X371376Y240993D01*
X372000Y240869D01*
X372624Y240993D01*
X373153Y241347D01*
X373507Y241876D01*
X373631Y242500D01*
X373626Y242525D01*
X373630Y242531D01*
X373646Y242556D01*
X373659Y242572D01*
X374255Y243169D01*
X374255Y243169D01*
X374499Y243533D01*
X374584Y243962D01*
Y244500D01*
X375084Y244713D01*
X375235Y244683D01*
X375743Y244582D01*
X376477Y244728D01*
X376532Y244764D01*
X376665Y244854D01*
X377100Y245144D01*
X377515Y245766D01*
X377661Y246500D01*
X377515Y247234D01*
X377100Y247856D01*
X376477Y248272D01*
X375743Y248418D01*
X375084Y248287D01*
X374584Y248500D01*
Y251998D01*
X374927Y252341D01*
X374944Y252354D01*
X374969Y252370D01*
X374975Y252374D01*
X375000Y252369D01*
X375624Y252493D01*
X376153Y252847D01*
X376507Y253376D01*
X376631Y254000D01*
X376507Y254624D01*
X376153Y255153D01*
X375624Y255507D01*
X375000Y255631D01*
X374376Y255507D01*
X373847Y255153D01*
X373493Y254624D01*
X373369Y254000D01*
X373374Y253975D01*
X373370Y253969D01*
X373354Y253944D01*
X373341Y253927D01*
X372669Y253255D01*
X372621Y253184D01*
X372122Y253336D01*
Y257954D01*
X372256Y258061D01*
X372721Y258146D01*
X372721Y258146D01*
X374400D01*
Y258643D01*
X374370D01*
X374400Y258675D01*
Y259099D01*
X374344Y259137D01*
X374276Y259161D01*
X374200Y259170D01*
X374400D01*
Y260327D01*
X375000D01*
Y260927D01*
X376255D01*
Y261127D01*
X376264Y261051D01*
X376288Y260983D01*
X376326Y260927D01*
X377279D01*
Y262508D01*
X376979D01*
Y265554D01*
X376122D01*
Y269500D01*
X376122Y269500D01*
X376081Y269705D01*
X376407Y270205D01*
X378520D01*
Y269446D01*
X382480D01*
Y272127D01*
X382686Y272232D01*
X383186Y271925D01*
Y271166D01*
X384108D01*
X384375Y270666D01*
X384347Y270624D01*
X384223Y270000D01*
X384347Y269376D01*
X384546Y269078D01*
X384545Y269073D01*
X384449Y268901D01*
X384216Y268671D01*
X383807Y268753D01*
X379673D01*
X379170Y268653D01*
X378743Y268367D01*
X378458Y267941D01*
X378357Y267437D01*
X378458Y266933D01*
X378515Y266848D01*
X378715Y266453D01*
X378515Y266058D01*
X378458Y265972D01*
X378357Y265469D01*
X378458Y264965D01*
X378743Y264538D01*
Y264430D01*
X378458Y264003D01*
X378357Y263500D01*
X378458Y262997D01*
X378743Y262570D01*
Y262462D01*
X378458Y262035D01*
X378357Y261531D01*
X378458Y261028D01*
X378559Y260875D01*
X378526Y260710D01*
X378175Y260184D01*
X378171Y260163D01*
X381740D01*
Y258963D01*
X378171D01*
X378175Y258942D01*
X378526Y258416D01*
X378596Y258370D01*
X378631Y258276D01*
X378597Y257768D01*
X378070Y257363D01*
X377531Y256661D01*
X377192Y255843D01*
X377155Y255565D01*
X384961D01*
X384924Y255843D01*
X384586Y256661D01*
X384047Y257363D01*
X383927Y257455D01*
X384051Y257990D01*
X384428Y258065D01*
X384954Y258416D01*
X385305Y258942D01*
X385382Y259325D01*
X385912Y259502D01*
X386902Y258512D01*
Y254988D01*
X386730Y254816D01*
X386487Y254452D01*
X386402Y254023D01*
X386402Y254023D01*
Y251977D01*
X386402Y251977D01*
X386487Y251548D01*
X386730Y251184D01*
X386902Y251012D01*
Y244977D01*
X386902Y244977D01*
X386987Y244548D01*
X387230Y244184D01*
X388878Y242535D01*
Y240107D01*
X388376Y240007D01*
X387846Y239653D01*
X387634Y239335D01*
X387602Y239323D01*
X387122Y239469D01*
Y242000D01*
X387036Y242429D01*
X386793Y242793D01*
X386793Y242793D01*
X385466Y244120D01*
X385102Y244363D01*
X384780Y244492D01*
X384780Y244898D01*
Y246073D01*
X381233D01*
Y245673D01*
X381223Y245768D01*
X381192Y245853D01*
X381142Y245928D01*
X381072Y245993D01*
X380982Y246048D01*
X380921Y246073D01*
X380505D01*
X380492Y246066D01*
X380458Y246037D01*
X380432Y246006D01*
X380419Y246073D01*
X380221D01*
Y244492D01*
X380221D01*
X380521Y244192D01*
Y243743D01*
Y243500D01*
D01*
Y241446D01*
X384479D01*
X384878Y241202D01*
Y239224D01*
X384876Y239204D01*
X384870Y239174D01*
X384868Y239168D01*
X384846Y239154D01*
X384493Y238624D01*
X384369Y238000D01*
X384493Y237376D01*
X384846Y236846D01*
X385230Y236590D01*
D01*
X385376Y236493D01*
X386000Y236369D01*
X386624Y236493D01*
X387154Y236846D01*
X387366Y237165D01*
X387757Y237313D01*
X387983Y237256D01*
X388376Y236993D01*
X389000Y236869D01*
X389624Y236993D01*
X390154Y237347D01*
X390489Y237848D01*
X390702Y237876D01*
X390798D01*
X391011Y237848D01*
X391347Y237347D01*
X391876Y236993D01*
X392500Y236869D01*
X393124Y236993D01*
X393653Y237347D01*
X394007Y237876D01*
X394112Y238402D01*
D01*
D01*
X394411Y238601D01*
X394607Y238672D01*
X394851Y238509D01*
X394876Y238493D01*
X395500Y238369D01*
X396124Y238493D01*
X396654Y238846D01*
X397007Y239376D01*
X397131Y240000D01*
X397007Y240624D01*
X396806Y240925D01*
X397074Y241425D01*
X399356D01*
Y241435D01*
X399279Y241502D01*
Y242727D01*
X398337D01*
X398300Y242671D01*
X398275Y242603D01*
X398268Y242527D01*
Y242727D01*
X394721D01*
Y241403D01*
X394346Y241154D01*
X393993Y240624D01*
X393888Y240098D01*
X393589Y239899D01*
X393393Y239827D01*
X393124Y240007D01*
X392621Y240107D01*
Y243621D01*
X392622Y243621D01*
X392536Y244051D01*
X392293Y244414D01*
X392293Y244414D01*
X390645Y246063D01*
Y251753D01*
X390648Y251773D01*
X390654Y251803D01*
X390655Y251809D01*
X390677Y251823D01*
X391030Y252352D01*
X391155Y252977D01*
X391030Y253601D01*
X390677Y254130D01*
X390655Y254145D01*
X390654Y254151D01*
X390648Y254180D01*
X390645Y254201D01*
Y258441D01*
X396249D01*
X396332Y258438D01*
X396512Y258419D01*
X396564Y258410D01*
X396603Y258401D01*
X396612Y258399D01*
X396613Y258398D01*
X396689Y258347D01*
X397193Y258247D01*
X397299D01*
X397468Y257747D01*
X396968Y257363D01*
X396429Y256661D01*
X396090Y255843D01*
X396053Y255565D01*
X403859D01*
X403822Y255843D01*
X403484Y256661D01*
X402945Y257363D01*
X402242Y257902D01*
X402132Y257948D01*
X402076Y258512D01*
X402257Y258633D01*
X402542Y259059D01*
X402643Y259563D01*
X402542Y260067D01*
X402257Y260493D01*
Y260601D01*
X402542Y261028D01*
X402643Y261531D01*
X402542Y262035D01*
X402485Y262121D01*
X402285Y262516D01*
X402485Y262911D01*
X402542Y262997D01*
X402643Y263500D01*
X402542Y264003D01*
X402441Y264156D01*
X402473Y264322D01*
X402825Y264848D01*
X402949Y265469D01*
X402939Y265518D01*
X403371Y265906D01*
X403520Y265859D01*
Y263508D01*
X403221D01*
Y261927D01*
X404195D01*
X404222Y261983D01*
X404239Y262051D01*
X404245Y262127D01*
Y261927D01*
X405500D01*
Y261327D01*
X406100D01*
Y260170D01*
X406300D01*
X406224Y260162D01*
X406156Y260137D01*
X406100Y260099D01*
Y259146D01*
X407430D01*
Y258465D01*
X406207Y257241D01*
X405964Y256877D01*
X405878Y256448D01*
X405878Y256448D01*
Y255554D01*
X405021D01*
Y252508D01*
X404720D01*
Y250927D01*
X405674D01*
X405712Y250983D01*
X405736Y251051D01*
X405745Y251127D01*
Y250927D01*
X409279D01*
Y250988D01*
X409400Y251050D01*
X409780Y251158D01*
X409946Y251047D01*
D01*
X410071Y250964D01*
X410500Y250878D01*
X410500Y250879D01*
X410972D01*
X411034Y250867D01*
X411122Y250840D01*
X411225Y250797D01*
X411341Y250736D01*
X411471Y250655D01*
X411605Y250559D01*
X411930Y250281D01*
X412063Y250151D01*
X412104Y250097D01*
X412234Y249997D01*
X412225Y249374D01*
X411890Y249117D01*
X411414Y248497D01*
X411115Y247775D01*
X411092Y247600D01*
X414007D01*
Y246400D01*
X411092D01*
X411115Y246225D01*
X411414Y245503D01*
X411707Y245122D01*
X411460Y244621D01*
X410465D01*
X409659Y245427D01*
X409646Y245444D01*
X409630Y245469D01*
X409626Y245475D01*
X409631Y245500D01*
X409507Y246124D01*
X409154Y246654D01*
X408624Y247007D01*
X408000Y247131D01*
X407376Y247007D01*
X406973Y247339D01*
X406768Y247646D01*
X407025Y248146D01*
X409279D01*
Y249727D01*
X405745D01*
Y249527D01*
X405736Y249603D01*
X405712Y249671D01*
X405674Y249727D01*
X404720D01*
Y248308D01*
X404537Y248272D01*
X403915Y247856D01*
X403499Y247234D01*
X403353Y246500D01*
X403499Y245766D01*
X403915Y245144D01*
X404491Y244759D01*
X404720Y244354D01*
Y242773D01*
X405470D01*
Y242803D01*
X405502Y242773D01*
X405663D01*
X405700Y242829D01*
X405724Y242897D01*
X405732Y242973D01*
Y243733D01*
X406000Y244000D01*
X407318Y244031D01*
X407376Y243993D01*
X408000Y243869D01*
X408025Y243874D01*
X408031Y243870D01*
X408056Y243854D01*
X408073Y243841D01*
X409207Y242707D01*
X409207Y242707D01*
X409571Y242464D01*
X410000Y242378D01*
X410000Y242378D01*
X413569D01*
X413836Y241879D01*
X413666Y241624D01*
X413542Y241000D01*
X413631Y240554D01*
X413326Y240054D01*
X409051D01*
X408992Y240059D01*
X408980Y240061D01*
Y240708D01*
X405732D01*
Y241373D01*
X405724Y241449D01*
X405700Y241517D01*
X405663Y241573D01*
X405502D01*
X405470Y241543D01*
Y241573D01*
X404720D01*
Y241500D01*
Y240497D01*
X404673Y240458D01*
X404500Y240424D01*
D01*
X404049Y240334D01*
X403520Y239980D01*
X403166Y239451D01*
X403042Y238827D01*
X403166Y238203D01*
X403520Y237673D01*
X404049Y237320D01*
X404500Y237230D01*
D01*
X404628Y237205D01*
X405021Y236946D01*
X405021Y236946D01*
X405021Y236946D01*
X408980D01*
Y237600D01*
X408992Y237602D01*
X409051Y237607D01*
X416000D01*
X416468Y237700D01*
X416865Y237965D01*
X418576Y239676D01*
X420400D01*
X420868Y239770D01*
X421265Y240035D01*
X426058Y244828D01*
X426323Y245225D01*
X426416Y245693D01*
Y250469D01*
X427949D01*
X428008Y250464D01*
X428020Y250462D01*
Y248729D01*
X431980D01*
Y249202D01*
X432479Y249472D01*
X433000Y249369D01*
X433624Y249493D01*
X434154Y249847D01*
X434507Y250376D01*
X434631Y251000D01*
X434507Y251624D01*
X434154Y252153D01*
X433624Y252507D01*
X433089Y252614D01*
X432775Y252823D01*
X432307Y252916D01*
X432051D01*
X431992Y252922D01*
X431980Y252924D01*
Y254657D01*
X428020D01*
Y252924D01*
X428008Y252922D01*
X427949Y252916D01*
X425193D01*
X424725Y252823D01*
X424328Y252558D01*
X424062Y252161D01*
X424042Y252058D01*
X423969Y251693D01*
Y246200D01*
X423560Y245791D01*
X419893Y242124D01*
X418070D01*
X417601Y242030D01*
X417204Y241765D01*
X417137Y241698D01*
X416551Y241818D01*
X416341Y242133D01*
X416326Y242161D01*
X416303Y242649D01*
X416340Y242746D01*
X416420Y242827D01*
X417655Y244061D01*
X417706Y244096D01*
X417787Y244139D01*
X417890Y244182D01*
X418016Y244221D01*
X418165Y244256D01*
X418327Y244282D01*
X418516Y244297D01*
D01*
X418754Y244316D01*
X418940Y244317D01*
X419007Y244308D01*
X419704Y244400D01*
X420353Y244669D01*
X420910Y245097D01*
X421338Y245654D01*
X421607Y246303D01*
X421699Y247000D01*
X421607Y247697D01*
X421338Y248346D01*
X420910Y248903D01*
X420525Y249199D01*
X420488Y249299D01*
Y249701D01*
D01*
X420525Y249801D01*
X420910Y250097D01*
X421338Y250654D01*
X421607Y251303D01*
X421699Y252000D01*
X421684Y252112D01*
X421675Y252182D01*
X421607Y252697D01*
X421338Y253346D01*
X420910Y253903D01*
X420525Y254199D01*
X420488Y254299D01*
Y254701D01*
X420525Y254801D01*
X420910Y255097D01*
X421338Y255654D01*
X421607Y256303D01*
X421665Y256748D01*
X422169Y257006D01*
X422179Y257006D01*
X422242Y256964D01*
X422672Y256878D01*
X422672Y256878D01*
X427500D01*
X427500Y256878D01*
X427929Y256964D01*
X428293Y257207D01*
X429927Y258841D01*
X429944Y258854D01*
X429969Y258870D01*
X429975Y258874D01*
X430000Y258869D01*
X430624Y258993D01*
X431153Y259347D01*
X431507Y259876D01*
X431540Y260043D01*
X433140D01*
Y262707D01*
X431461D01*
Y262025D01*
X430961Y261782D01*
X430624Y262007D01*
X430000Y262131D01*
X429376Y262007D01*
X428847Y261653D01*
X428739Y261493D01*
X428239Y261645D01*
Y266271D01*
X428239Y266271D01*
X428239D01*
X428051Y266771D01*
X428090Y266968D01*
Y267371D01*
X429499D01*
Y272629D01*
X428348D01*
X428215Y273129D01*
X428500Y273414D01*
D01*
X428965Y273879D01*
X435276D01*
X435296Y273876D01*
X435326Y273869D01*
X435332Y273868D01*
X435347Y273847D01*
X435876Y273493D01*
X436500Y273369D01*
X436666Y273402D01*
X437166Y272991D01*
Y268977D01*
X441834D01*
Y270433D01*
X441881Y270452D01*
X442001Y270484D01*
X442167Y270511D01*
X442283Y270522D01*
X442333D01*
X442376Y270493D01*
X443000Y270369D01*
X443624Y270493D01*
X444153Y270847D01*
X444507Y271376D01*
X444631Y272000D01*
X444507Y272624D01*
X444153Y273153D01*
X443624Y273507D01*
X443000Y273631D01*
X442376Y273507D01*
X442333Y273478D01*
X442283D01*
X442167Y273489D01*
X442001Y273516D01*
X441881Y273548D01*
X441834Y273567D01*
Y274314D01*
X438505D01*
X438094Y274814D01*
X438131Y275000D01*
X438007Y275624D01*
X437653Y276153D01*
X437124Y276507D01*
X436500Y276631D01*
X435876Y276507D01*
X435347Y276153D01*
X435332Y276132D01*
X435326Y276131D01*
X435296Y276124D01*
X435276Y276121D01*
X428500D01*
X428500Y276122D01*
X428071Y276036D01*
X427707Y275793D01*
X426207Y274293D01*
X425964Y273929D01*
X425878Y273500D01*
X425878Y273500D01*
Y272629D01*
X424438D01*
Y267371D01*
X425111D01*
X425345Y266871D01*
X425224Y266689D01*
X425140Y266271D01*
X424280D01*
Y262509D01*
X423780Y262287D01*
X423622Y262431D01*
Y270811D01*
X423622Y270811D01*
X423536Y271240D01*
X423293Y271604D01*
X423293Y271604D01*
X418999Y275898D01*
X419196Y276408D01*
X419624Y276493D01*
X420154Y276847D01*
X420507Y277376D01*
X420631Y278000D01*
X420507Y278624D01*
X420154Y279153D01*
X419624Y279507D01*
X419418Y279548D01*
X419376Y279569D01*
X419347Y279577D01*
X419341Y279579D01*
X419328Y279584D01*
X419317Y279590D01*
X419242Y279639D01*
X419218Y279657D01*
X419190Y279681D01*
X418887Y279984D01*
X419078Y280446D01*
X421980D01*
X421980Y280446D01*
X422347Y280347D01*
Y280347D01*
X422439Y280347D01*
X429047D01*
Y280047D01*
X432400D01*
Y280643D01*
X432370D01*
X432400Y280675D01*
Y280990D01*
X432344Y281027D01*
X432276Y281051D01*
X432200Y281059D01*
X432400D01*
Y284000D01*
Y287953D01*
X429047D01*
Y287653D01*
X422347D01*
X422347Y287653D01*
X422347Y287653D01*
X421888Y287554D01*
X418020D01*
Y287401D01*
X417521Y287134D01*
X417451Y287180D01*
X416872Y287296D01*
X416479Y287554D01*
X416479Y287554D01*
X416479Y287554D01*
X412521D01*
Y283448D01*
X411761D01*
X411279Y283492D01*
Y285073D01*
X409000D01*
Y285673D01*
X408400D01*
Y287854D01*
X406720D01*
Y285327D01*
X406220Y285031D01*
X406102Y285096D01*
Y285459D01*
X405151D01*
X405122Y285419D01*
X405098Y285355D01*
X405090Y285284D01*
Y285459D01*
X400756D01*
Y284272D01*
X401056D01*
Y279622D01*
X398636D01*
X398465Y279793D01*
X398101Y280036D01*
X397672Y280122D01*
X397672Y280121D01*
X396944D01*
Y282428D01*
X395242D01*
X395124Y282507D01*
X394500Y282631D01*
X393876Y282507D01*
X393758Y282428D01*
X392948D01*
X392945Y282429D01*
X392939Y282428D01*
X392918D01*
X392910Y282430D01*
X392901Y282428D01*
X392658D01*
X392466Y282620D01*
X392102Y282863D01*
X391673Y282948D01*
X391538Y283049D01*
X391280Y283241D01*
Y284573D01*
X387733D01*
Y284373D01*
X387724Y284449D01*
X387701Y284517D01*
X387663Y284573D01*
X386720D01*
Y282992D01*
X387020D01*
Y280121D01*
X385479D01*
Y282992D01*
X385780D01*
Y284573D01*
X385172D01*
X385120Y284564D01*
X385023Y284536D01*
X384942Y284500D01*
X384875Y284456D01*
X384857Y284439D01*
Y284370D01*
X384822Y284403D01*
X384785Y284344D01*
X384763Y284276D01*
X384755Y284200D01*
Y284454D01*
X384699Y284487D01*
X384636Y284517D01*
X384569Y284542D01*
X384496Y284563D01*
X384447Y284573D01*
X381221D01*
Y283710D01*
X380851Y283513D01*
X380720Y283443D01*
X380624Y283507D01*
X380000Y283631D01*
X379986Y283643D01*
X379979Y283648D01*
D01*
Y287054D01*
X376021D01*
X375996Y287213D01*
X375960Y287446D01*
X375948Y287524D01*
D01*
Y287739D01*
D01*
X375992Y288221D01*
X377573D01*
Y290500D01*
Y292779D01*
X375992D01*
Y292779D01*
X375910Y292698D01*
X375692Y292479D01*
X374466D01*
X372946D01*
D01*
D01*
X372698Y292877D01*
D01*
Y294932D01*
D01*
X372698Y294932D01*
X372613Y295361D01*
X372369Y295725D01*
X372369Y295725D01*
X371725Y296369D01*
X371361Y296613D01*
X370932Y296698D01*
D02*
G37*
G36*
X343227Y295280D02*
X341646D01*
Y293600D01*
X342143D01*
Y293630D01*
X342175Y293600D01*
X342599D01*
X342637Y293656D01*
X342661Y293724D01*
X342670Y293800D01*
Y293600D01*
X343227D01*
Y295280D01*
D02*
G37*
G36*
X435862Y269400D02*
X430201D01*
Y268357D01*
X431130D01*
X431086Y268310D01*
X431047Y268257D01*
X431013Y268199D01*
X430983Y268137D01*
X430958Y268069D01*
X430937Y267996D01*
X430921Y267918D01*
X430909Y267835D01*
X430902Y267747D01*
X430900Y267654D01*
X430201D01*
Y267071D01*
X435862D01*
Y269400D01*
D02*
G37*
G36*
X380354Y289900D02*
X378773D01*
Y288221D01*
X380354D01*
Y289900D01*
D02*
G37*
G36*
X398500Y287690D02*
X397876Y287566D01*
X397444Y287278D01*
X397094Y287393D01*
X397034Y287435D01*
X396944Y287522D01*
Y287546D01*
X396241D01*
X396232Y287548D01*
X396223Y287546D01*
X392198D01*
Y284572D01*
X396223D01*
X396232Y284570D01*
X396241Y284572D01*
X396944D01*
Y284597D01*
X397034Y284683D01*
X397094Y284725D01*
X397444Y284840D01*
X397876Y284552D01*
X398500Y284428D01*
X399124Y284552D01*
X399654Y284906D01*
X400007Y285435D01*
X400131Y286059D01*
X400007Y286683D01*
X399654Y287213D01*
X399124Y287566D01*
X398500Y287690D01*
D02*
G37*
G36*
X435862Y272929D02*
X433632D01*
Y270600D01*
X435862D01*
Y272929D01*
D02*
G37*
G36*
X398979Y248554D02*
X395021D01*
Y247974D01*
X394560Y247803D01*
X394520Y247803D01*
X394515Y247804D01*
X394483Y247811D01*
X394459Y247818D01*
X394443Y247824D01*
X394433Y247828D01*
X394431Y247830D01*
X394406Y247847D01*
X394345Y247873D01*
X394085Y248047D01*
X393460Y248171D01*
X392836Y248047D01*
X392307Y247693D01*
X391953Y247164D01*
X391829Y246540D01*
X391953Y245916D01*
X392307Y245386D01*
X392836Y245033D01*
X393460Y244908D01*
X394085Y245033D01*
X394220Y245124D01*
X394721Y244856D01*
Y243927D01*
X398268D01*
Y244127D01*
X398275Y244051D01*
X398300Y243983D01*
X398337Y243927D01*
X399279D01*
Y245508D01*
X398979D01*
Y248554D01*
D02*
G37*
%LPD*%
G36*
X392687Y262586D02*
X392772Y262513D01*
X392813Y262483D01*
X392853Y262457D01*
X392891Y262437D01*
X392928Y262421D01*
X392964Y262409D01*
X392998Y262402D01*
X393032Y262400D01*
Y261600D01*
X392998Y261598D01*
X392964Y261591D01*
X392928Y261579D01*
X392891Y261563D01*
X392853Y261543D01*
X392813Y261517D01*
X392772Y261487D01*
X392730Y261453D01*
X392643Y261370D01*
Y262630D01*
X392687Y262586D01*
D02*
G37*
G36*
X368312Y262636D02*
X368379Y262579D01*
X368446Y262530D01*
X368513Y262489D01*
X368579Y262454D01*
X368645Y262427D01*
X368711Y262408D01*
X368776Y262396D01*
X368841Y262392D01*
X368905Y262395D01*
X368103Y261423D01*
X368095Y261486D01*
X368080Y261549D01*
X368059Y261613D01*
X368032Y261678D01*
X367999Y261743D01*
X367959Y261808D01*
X367914Y261874D01*
X367862Y261940D01*
X367739Y262074D01*
X368244Y262700D01*
X368312Y262636D01*
D02*
G37*
G36*
X439904Y264867D02*
X439916Y264748D01*
X439936Y264642D01*
X439964Y264551D01*
X440000Y264474D01*
X440044Y264411D01*
X440096Y264362D01*
X440156Y264327D01*
X440224Y264306D01*
X440300Y264299D01*
X438700D01*
X438776Y264306D01*
X438844Y264327D01*
X438904Y264362D01*
X438956Y264411D01*
X439000Y264474D01*
X439036Y264551D01*
X439064Y264642D01*
X439084Y264748D01*
X439096Y264867D01*
X439100Y265000D01*
X439900D01*
X439904Y264867D01*
D02*
G37*
G36*
X366463Y262272D02*
X365282Y262043D01*
X365308Y262086D01*
X365325Y262132D01*
X365331Y262181D01*
X365326Y262233D01*
X365312Y262288D01*
X365287Y262346D01*
X365252Y262407D01*
X365206Y262471D01*
X365151Y262537D01*
X365085Y262607D01*
X365768Y263055D01*
X366463Y262272D01*
D02*
G37*
G36*
X422902Y262253D02*
X422909Y262165D01*
X422921Y262082D01*
X422937Y262004D01*
X422958Y261931D01*
X422983Y261863D01*
X423013Y261801D01*
X423047Y261743D01*
X423086Y261690D01*
X423130Y261643D01*
X421870D01*
X421914Y261690D01*
X421953Y261743D01*
X421987Y261801D01*
X422017Y261863D01*
X422043Y261931D01*
X422063Y262004D01*
X422079Y262082D01*
X422091Y262165D01*
X422098Y262253D01*
X422100Y262346D01*
X422900D01*
X422902Y262253D01*
D02*
G37*
G36*
X369897Y267759D02*
X369921Y267691D01*
X369962Y267631D01*
X370019Y267579D01*
X370092Y267535D01*
X370181Y267499D01*
X370287Y267471D01*
X370406Y267452D01*
X370437Y267455D01*
X370515Y267471D01*
X370589Y267490D01*
X370657Y267514D01*
X370721Y267543D01*
X370780Y267576D01*
X370834Y267613D01*
X370883Y267655D01*
X370833Y266396D01*
X370787Y266441D01*
X370736Y266482D01*
X370679Y266518D01*
X370617Y266549D01*
X370550Y266576D01*
X370478Y266597D01*
X370401Y266614D01*
X370387Y266616D01*
X370287Y266599D01*
X370181Y266571D01*
X370092Y266535D01*
X370019Y266491D01*
X369962Y266439D01*
X369921Y266379D01*
X369897Y266311D01*
X369889Y266235D01*
Y267835D01*
X369897Y267759D01*
D02*
G37*
G36*
X360902Y260753D02*
X360909Y260665D01*
X360921Y260582D01*
X360937Y260504D01*
X360958Y260431D01*
X360983Y260364D01*
X361013Y260301D01*
X361047Y260243D01*
X361086Y260190D01*
X361130Y260143D01*
X359870D01*
X359914Y260190D01*
X359953Y260243D01*
X359987Y260301D01*
X360017Y260364D01*
X360043Y260431D01*
X360063Y260504D01*
X360079Y260582D01*
X360091Y260665D01*
X360098Y260753D01*
X360100Y260846D01*
X360900D01*
X360902Y260753D01*
D02*
G37*
G36*
X396146Y276334D02*
X395887Y275834D01*
X392477D01*
Y271166D01*
X395842D01*
X395908Y271120D01*
X396100Y270959D01*
X396353Y270707D01*
X396353Y270707D01*
X396716Y270464D01*
X397146Y270378D01*
X397146Y270378D01*
X400558D01*
X400869Y270000D01*
X400993Y269376D01*
X401075Y269253D01*
X400808Y268753D01*
X397193D01*
X396689Y268653D01*
X396263Y268367D01*
X395977Y267941D01*
X395877Y267437D01*
X395977Y266933D01*
X396079Y266781D01*
X396046Y266615D01*
X395695Y266089D01*
X395691Y266069D01*
X399260D01*
Y264868D01*
X395463D01*
X395290Y264621D01*
X393965D01*
X393595Y264991D01*
X393538Y265058D01*
X393514Y265091D01*
X393507Y265124D01*
X393342Y265371D01*
X393192Y265750D01*
X393342Y266129D01*
X393507Y266376D01*
X393631Y267000D01*
X393507Y267624D01*
X393154Y268154D01*
X392624Y268507D01*
X392000Y268631D01*
X391376Y268507D01*
X390942Y268217D01*
X390689Y268269D01*
X390585Y268800D01*
X390585Y268801D01*
X390653Y268847D01*
X391007Y269376D01*
X391131Y270000D01*
X391007Y270624D01*
X390653Y271153D01*
X390124Y271507D01*
X389500Y271631D01*
X389023Y271536D01*
X388523Y271827D01*
Y275834D01*
X383611D01*
X383224Y276334D01*
X383236Y276378D01*
X396115D01*
X396146Y276334D01*
D02*
G37*
G36*
X396967Y260986D02*
X396918Y261014D01*
X396858Y261039D01*
X396786Y261061D01*
X396703Y261079D01*
X396608Y261095D01*
X396385Y261118D01*
X396116Y261130D01*
X395964Y261132D01*
Y261931D01*
X396116Y261933D01*
X396608Y261968D01*
X396703Y261984D01*
X396786Y262002D01*
X396858Y262024D01*
X396918Y262049D01*
X396967Y262076D01*
Y260986D01*
D02*
G37*
G36*
X384082Y262049D02*
X384142Y262024D01*
X384214Y262002D01*
X384297Y261984D01*
X384392Y261968D01*
X384615Y261945D01*
X384884Y261933D01*
X385036Y261931D01*
Y261132D01*
X384884Y261130D01*
X384392Y261095D01*
X384297Y261079D01*
X384214Y261061D01*
X384142Y261039D01*
X384082Y261014D01*
X384033Y260986D01*
Y262076D01*
X384082Y262049D01*
D02*
G37*
G36*
X442857Y266370D02*
X442810Y266414D01*
X442757Y266453D01*
X442699Y266487D01*
X442636Y266517D01*
X442569Y266543D01*
X442496Y266563D01*
X442418Y266579D01*
X442335Y266591D01*
X442247Y266598D01*
X442154Y266600D01*
Y267400D01*
X442247Y267402D01*
X442335Y267409D01*
X442418Y267421D01*
X442496Y267437D01*
X442569Y267458D01*
X442636Y267483D01*
X442699Y267513D01*
X442757Y267547D01*
X442810Y267586D01*
X442857Y267630D01*
Y266370D01*
D02*
G37*
G36*
X356690Y264086D02*
X356742Y264047D01*
X356799Y264013D01*
X356859Y263983D01*
X356925Y263958D01*
X356995Y263937D01*
X357070Y263921D01*
X357149Y263909D01*
X357233Y263902D01*
X357321Y263900D01*
Y263100D01*
X357233Y263098D01*
X357149Y263091D01*
X357070Y263079D01*
X356995Y263063D01*
X356925Y263042D01*
X356859Y263017D01*
X356799Y262987D01*
X356742Y262953D01*
X356690Y262914D01*
X356643Y262870D01*
Y264130D01*
X356690Y264086D01*
D02*
G37*
G36*
X401601Y265986D02*
X401661Y265961D01*
X401732Y265940D01*
X401813Y265921D01*
X401906Y265905D01*
X402123Y265882D01*
X402385Y265870D01*
X402531Y265868D01*
Y265069D01*
X402385Y265067D01*
X401906Y265032D01*
X401813Y265016D01*
X401732Y264998D01*
X401661Y264976D01*
X401601Y264951D01*
X401552Y264924D01*
Y266014D01*
X401601Y265986D01*
D02*
G37*
G36*
X426664Y266124D02*
X426676Y266003D01*
X426696Y265896D01*
X426724Y265804D01*
X426760Y265725D01*
X426804Y265661D01*
X426856Y265611D01*
X426916Y265575D01*
X426984Y265554D01*
X427060Y265547D01*
X425460D01*
X425536Y265554D01*
X425604Y265575D01*
X425664Y265611D01*
X425716Y265661D01*
X425760Y265725D01*
X425796Y265804D01*
X425824Y265896D01*
X425844Y266003D01*
X425856Y266124D01*
X425860Y266260D01*
X426660D01*
X426664Y266124D01*
D02*
G37*
G36*
X413130Y264857D02*
X413086Y264810D01*
X413047Y264757D01*
X413013Y264699D01*
X412999Y264670D01*
X413300D01*
X413224Y264662D01*
X413156Y264637D01*
X413096Y264597D01*
X413044Y264540D01*
X413000Y264467D01*
X412964Y264377D01*
X412936Y264272D01*
X412916Y264150D01*
X412904Y264012D01*
X412900Y263858D01*
X412100D01*
X412096Y264012D01*
X412084Y264150D01*
X412064Y264272D01*
X412036Y264377D01*
X412000Y264467D01*
X411956Y264540D01*
X411904Y264597D01*
X411844Y264637D01*
X411776Y264662D01*
X411700Y264670D01*
X412001D01*
X411987Y264699D01*
X411953Y264757D01*
X411914Y264810D01*
X411870Y264857D01*
X413130Y264857D01*
D02*
G37*
G36*
X375404Y265488D02*
X375416Y265350D01*
X375436Y265228D01*
X375464Y265123D01*
X375500Y265033D01*
X375544Y264960D01*
X375596Y264903D01*
X375656Y264863D01*
X375724Y264838D01*
X375800Y264830D01*
X374200D01*
X374276Y264838D01*
X374344Y264863D01*
X374404Y264903D01*
X374456Y264960D01*
X374500Y265033D01*
X374536Y265123D01*
X374564Y265228D01*
X374584Y265350D01*
X374596Y265488D01*
X374600Y265642D01*
X375400D01*
X375404Y265488D01*
D02*
G37*
G36*
X384073Y265992D02*
X384126Y265973D01*
X384191Y265956D01*
X384269Y265941D01*
X384464Y265918D01*
X384708Y265904D01*
X385003Y265900D01*
X385057Y265100D01*
X384910Y265098D01*
X384528Y265072D01*
X384421Y265056D01*
X384236Y265014D01*
X384158Y264987D01*
X384091Y264957D01*
X384033Y264924D01*
Y266014D01*
X384073Y265992D01*
D02*
G37*
G36*
X418630Y264857D02*
X418586Y264810D01*
X418547Y264757D01*
X418513Y264699D01*
X418499Y264670D01*
X418800D01*
X418724Y264662D01*
X418656Y264637D01*
X418596Y264597D01*
X418544Y264540D01*
X418500Y264467D01*
X418464Y264377D01*
X418436Y264272D01*
X418416Y264150D01*
X418404Y264012D01*
X418400Y263858D01*
X417600D01*
X417596Y264012D01*
X417584Y264150D01*
X417564Y264272D01*
X417536Y264377D01*
X417500Y264467D01*
X417456Y264540D01*
X417404Y264597D01*
X417344Y264637D01*
X417276Y264662D01*
X417200Y264670D01*
X417501D01*
X417487Y264699D01*
X417453Y264757D01*
X417414Y264810D01*
X417370Y264857D01*
X418630Y264857D01*
D02*
G37*
G36*
X392850Y264806D02*
X392874Y264763D01*
X392903Y264717D01*
X392978Y264615D01*
X393076Y264500D01*
X393263Y264303D01*
X392985Y263450D01*
X392916Y263514D01*
X392848Y263570D01*
X392783Y263616D01*
X392718Y263653D01*
X392655Y263680D01*
X392594Y263698D01*
X392534Y263706D01*
X392475Y263706D01*
X392418Y263695D01*
X392362Y263676D01*
X392831Y264845D01*
X392850Y264806D01*
D02*
G37*
G36*
X387857Y262870D02*
X387810Y262914D01*
X387757Y262953D01*
X387699Y262987D01*
X387636Y263017D01*
X387569Y263042D01*
X387496Y263063D01*
X387418Y263079D01*
X387335Y263091D01*
X387247Y263098D01*
X387154Y263100D01*
Y263900D01*
X387247Y263902D01*
X387335Y263909D01*
X387418Y263921D01*
X387496Y263937D01*
X387569Y263958D01*
X387636Y263983D01*
X387699Y264013D01*
X387757Y264047D01*
X387810Y264086D01*
X387857Y264130D01*
Y262870D01*
D02*
G37*
G36*
X391357Y266370D02*
X391310Y266414D01*
X391257Y266453D01*
X391199Y266487D01*
X391137Y266517D01*
X391069Y266543D01*
X390996Y266563D01*
X390918Y266579D01*
X390835Y266591D01*
X390747Y266598D01*
X390654Y266600D01*
Y267400D01*
X390747Y267402D01*
X390835Y267409D01*
X390918Y267421D01*
X390996Y267437D01*
X391069Y267458D01*
X391137Y267483D01*
X391199Y267513D01*
X391257Y267547D01*
X391310Y267586D01*
X391357Y267630D01*
Y266370D01*
D02*
G37*
G36*
X370857Y262870D02*
X370810Y262914D01*
X370757Y262953D01*
X370699Y262987D01*
X370637Y263017D01*
X370569Y263042D01*
X370496Y263063D01*
X370418Y263079D01*
X370335Y263091D01*
X370247Y263098D01*
X370154Y263100D01*
Y263900D01*
X370247Y263902D01*
X370335Y263909D01*
X370418Y263921D01*
X370496Y263937D01*
X370569Y263958D01*
X370637Y263983D01*
X370699Y264013D01*
X370757Y264047D01*
X370810Y264086D01*
X370857Y264130D01*
Y262870D01*
D02*
G37*
G36*
X396967Y262955D02*
X396918Y262983D01*
X396858Y263007D01*
X396786Y263029D01*
X396703Y263048D01*
X396608Y263064D01*
X396385Y263087D01*
X396116Y263099D01*
X395964Y263100D01*
Y263900D01*
X396116Y263901D01*
X396608Y263936D01*
X396703Y263952D01*
X396786Y263971D01*
X396858Y263993D01*
X396918Y264017D01*
X396967Y264045D01*
Y262955D01*
D02*
G37*
G36*
X384082Y264017D02*
X384142Y263993D01*
X384214Y263971D01*
X384297Y263952D01*
X384392Y263936D01*
X384615Y263913D01*
X384884Y263901D01*
X385036Y263900D01*
Y263100D01*
X384884Y263099D01*
X384392Y263064D01*
X384297Y263048D01*
X384214Y263029D01*
X384142Y263007D01*
X384082Y262983D01*
X384033Y262955D01*
Y264045D01*
X384082Y264017D01*
D02*
G37*
G36*
X405904Y266488D02*
X405916Y266350D01*
X405936Y266228D01*
X405964Y266123D01*
X406000Y266033D01*
X406044Y265960D01*
X406096Y265903D01*
X406156Y265863D01*
X406224Y265839D01*
X406300Y265830D01*
X405999D01*
X406013Y265801D01*
X406047Y265743D01*
X406086Y265690D01*
X406130Y265643D01*
X404870Y265643D01*
X404914Y265690D01*
X404953Y265743D01*
X404987Y265801D01*
X405001Y265830D01*
X404700D01*
X404776Y265839D01*
X404844Y265863D01*
X404904Y265903D01*
X404956Y265960D01*
X405000Y266033D01*
X405036Y266123D01*
X405064Y266228D01*
X405084Y266350D01*
X405096Y266488D01*
X405100Y266642D01*
X405900D01*
X405904Y266488D01*
D02*
G37*
G36*
X394054Y247223D02*
X394110Y247192D01*
X394170Y247164D01*
X394236Y247140D01*
X394305Y247119D01*
X394380Y247103D01*
X394459Y247090D01*
X394632Y247075D01*
X394725Y247073D01*
X394860Y246273D01*
X394766Y246271D01*
X394679Y246263D01*
X394597Y246250D01*
X394521Y246231D01*
X394451Y246208D01*
X394387Y246179D01*
X394329Y246145D01*
X394277Y246106D01*
X394230Y246062D01*
X394189Y246012D01*
X394002Y247258D01*
X394054Y247223D01*
D02*
G37*
G36*
X363231Y249038D02*
X363163Y249022D01*
X363103Y248994D01*
X363051Y248955D01*
X363007Y248906D01*
X362971Y248845D01*
X362943Y248774D01*
X362923Y248691D01*
X362911Y248597D01*
X362907Y248493D01*
X362107D01*
X362103Y248597D01*
X362091Y248691D01*
X362071Y248774D01*
X362043Y248845D01*
X362007Y248906D01*
X361963Y248955D01*
X361911Y248994D01*
X361851Y249022D01*
X361783Y249038D01*
X361707Y249043D01*
X363307D01*
X363231Y249038D01*
D02*
G37*
G36*
X418988Y245032D02*
X418722Y245029D01*
X418242Y244991D01*
X418027Y244956D01*
X417829Y244910D01*
X417648Y244854D01*
X417484Y244786D01*
X417336Y244708D01*
X417206Y244619D01*
X417092Y244519D01*
X416526Y245085D01*
X416626Y245198D01*
X416715Y245329D01*
X416793Y245476D01*
X416861Y245641D01*
X416918Y245822D01*
X416963Y246020D01*
X416998Y246235D01*
X417023Y246466D01*
X417039Y246980D01*
X418988Y245032D01*
D02*
G37*
G36*
X395744Y245873D02*
X395736Y245949D01*
X395712Y246017D01*
X395671Y246077D01*
X395615Y246129D01*
X395542Y246173D01*
X395452Y246209D01*
X395347Y246237D01*
X395225Y246257D01*
X395087Y246269D01*
X394933Y246273D01*
Y247073D01*
X395087Y247077D01*
X395225Y247089D01*
X395347Y247109D01*
X395452Y247137D01*
X395542Y247173D01*
X395615Y247217D01*
X395671Y247269D01*
X395712Y247329D01*
X395736Y247397D01*
X395744Y247473D01*
Y245873D01*
D02*
G37*
G36*
X431266Y252598D02*
X431296Y252513D01*
X431347Y252438D01*
X431418Y252373D01*
X431508Y252318D01*
X431620Y252273D01*
X431751Y252238D01*
X431903Y252213D01*
X432075Y252198D01*
X432268Y252193D01*
Y251653D01*
X432661Y252046D01*
X432691Y252018D01*
X432721Y251993D01*
X432753Y251971D01*
X432785Y251952D01*
X432817Y251936D01*
X432851Y251922D01*
X432885Y251912D01*
X432920Y251905D01*
X432955Y251901D01*
X432991Y251900D01*
X432100Y251009D01*
X432099Y251045D01*
X432095Y251080D01*
X432088Y251115D01*
X432078Y251149D01*
X432064Y251183D01*
X432062Y251187D01*
X431903Y251173D01*
X431751Y251148D01*
X431620Y251113D01*
X431508Y251068D01*
X431418Y251013D01*
X431347Y250948D01*
X431296Y250873D01*
X431266Y250788D01*
X431255Y250693D01*
Y252693D01*
X431266Y252598D01*
D02*
G37*
G36*
X390109Y252287D02*
X390070Y252234D01*
X390036Y252176D01*
X390006Y252113D01*
X389981Y252045D01*
X389960Y251973D01*
X389944Y251895D01*
X389932Y251812D01*
X389926Y251724D01*
X389923Y251631D01*
X389123D01*
X389121Y251724D01*
X389114Y251812D01*
X389103Y251895D01*
X389086Y251973D01*
X389066Y252045D01*
X389040Y252113D01*
X389011Y252176D01*
X388976Y252234D01*
X388937Y252287D01*
X388893Y252334D01*
X390153D01*
X390109Y252287D01*
D02*
G37*
G36*
X412601Y250622D02*
X412412Y250808D01*
X412046Y251121D01*
X411869Y251248D01*
X411696Y251356D01*
X411528Y251444D01*
X411365Y251512D01*
X411205Y251561D01*
X411050Y251590D01*
X410899Y251600D01*
Y252400D01*
X411050Y252410D01*
X411205Y252439D01*
X411365Y252488D01*
X411528Y252556D01*
X411696Y252644D01*
X411869Y252752D01*
X412046Y252879D01*
X412227Y253026D01*
X412601Y253378D01*
Y250622D01*
D02*
G37*
G36*
X428745Y250693D02*
X428734Y250788D01*
X428704Y250873D01*
X428653Y250948D01*
X428582Y251013D01*
X428491Y251068D01*
X428380Y251113D01*
X428249Y251148D01*
X428097Y251173D01*
X427925Y251188D01*
X427733Y251193D01*
Y252193D01*
X427925Y252198D01*
X428097Y252213D01*
X428249Y252238D01*
X428380Y252273D01*
X428491Y252318D01*
X428582Y252373D01*
X428653Y252438D01*
X428704Y252513D01*
X428734Y252598D01*
X428745Y252693D01*
Y250693D01*
D02*
G37*
G36*
X367857Y244370D02*
X367810Y244414D01*
X367757Y244453D01*
X367699Y244487D01*
X367636Y244517D01*
X367569Y244543D01*
X367496Y244563D01*
X367418Y244579D01*
X367335Y244591D01*
X367247Y244598D01*
X367154Y244600D01*
Y245400D01*
X367247Y245402D01*
X367335Y245409D01*
X367418Y245421D01*
X367496Y245437D01*
X367569Y245458D01*
X367636Y245483D01*
X367699Y245513D01*
X367757Y245547D01*
X367810Y245586D01*
X367857Y245630D01*
Y244370D01*
D02*
G37*
G36*
X391898Y239671D02*
X391966Y239613D01*
X392032Y239563D01*
X392099Y239519D01*
X392165Y239482D01*
X392231Y239452D01*
X392296Y239429D01*
X392361Y239412D01*
X392426Y239403D01*
X392491Y239400D01*
X391600Y238509D01*
X391597Y238574D01*
X391588Y238638D01*
X391571Y238704D01*
X391548Y238769D01*
X391518Y238835D01*
X391481Y238901D01*
X391437Y238968D01*
X391387Y239035D01*
X391329Y239102D01*
X391265Y239169D01*
X391831Y239735D01*
X391898Y239671D01*
D02*
G37*
G36*
X386402Y239253D02*
X386409Y239165D01*
X386421Y239082D01*
X386437Y239004D01*
X386457Y238931D01*
X386483Y238863D01*
X386513Y238801D01*
X386547Y238743D01*
X386586Y238690D01*
X386630Y238643D01*
X385370D01*
X385414Y238690D01*
X385453Y238743D01*
X385487Y238801D01*
X385517Y238863D01*
X385542Y238931D01*
X385563Y239004D01*
X385579Y239082D01*
X385591Y239165D01*
X385598Y239253D01*
X385600Y239346D01*
X386400D01*
X386402Y239253D01*
D02*
G37*
G36*
X408266Y239736D02*
X408296Y239651D01*
X408347Y239576D01*
X408418Y239510D01*
X408508Y239456D01*
X408620Y239410D01*
X408751Y239375D01*
X408903Y239351D01*
X409075Y239335D01*
X409268Y239331D01*
Y238331D01*
X409075Y238326D01*
X408903Y238311D01*
X408751Y238285D01*
X408620Y238250D01*
X408508Y238206D01*
X408418Y238151D01*
X408347Y238086D01*
X408296Y238011D01*
X408266Y237926D01*
X408255Y237830D01*
Y239830D01*
X408266Y239736D01*
D02*
G37*
G36*
X390235Y239169D02*
X390171Y239102D01*
X390113Y239035D01*
X390063Y238968D01*
X390019Y238901D01*
X389982Y238835D01*
X389952Y238769D01*
X389929Y238704D01*
X389912Y238638D01*
X389903Y238574D01*
X389900Y238509D01*
X389009Y239400D01*
X389074Y239403D01*
X389139Y239412D01*
X389204Y239429D01*
X389269Y239452D01*
X389335Y239482D01*
X389401Y239519D01*
X389468Y239563D01*
X389534Y239613D01*
X389602Y239671D01*
X389669Y239735D01*
X390235Y239169D01*
D02*
G37*
G36*
X383764Y244051D02*
X383788Y243983D01*
X383829Y243923D01*
X383886Y243871D01*
X383959Y243827D01*
X384048Y243791D01*
X384153Y243763D01*
X384275Y243743D01*
X384413Y243731D01*
X384567Y243727D01*
Y242927D01*
X384413Y242923D01*
X384275Y242911D01*
X384153Y242891D01*
X384048Y242863D01*
X383959Y242827D01*
X383886Y242783D01*
X383829Y242731D01*
X383788Y242671D01*
X383764Y242603D01*
X383755Y242527D01*
Y244127D01*
X383764Y244051D01*
D02*
G37*
G36*
X408903Y245426D02*
X408912Y245361D01*
X408929Y245296D01*
X408952Y245231D01*
X408982Y245165D01*
X409019Y245099D01*
X409063Y245032D01*
X409113Y244966D01*
X409171Y244898D01*
X409235Y244831D01*
X408669Y244265D01*
X408602Y244329D01*
X408534Y244387D01*
X408468Y244437D01*
X408401Y244481D01*
X408335Y244518D01*
X408269Y244548D01*
X408204Y244571D01*
X408139Y244588D01*
X408074Y244597D01*
X408009Y244600D01*
X408900Y245491D01*
X408903Y245426D01*
D02*
G37*
G36*
X405732Y239336D02*
X405770Y239332D01*
X405862Y239328D01*
X405962Y239327D01*
Y238327D01*
X405862Y238326D01*
X405732Y238316D01*
Y237827D01*
X405723Y237922D01*
X405692Y238007D01*
X405643Y238082D01*
X405573Y238147D01*
X405482Y238202D01*
X405382Y238243D01*
X405345Y238222D01*
X405316Y238197D01*
Y238262D01*
X405242Y238282D01*
X405092Y238307D01*
X404922Y238322D01*
X404733Y238327D01*
Y239327D01*
X404922Y239332D01*
X405092Y239347D01*
X405242Y239372D01*
X405316Y239392D01*
Y239457D01*
X405345Y239432D01*
X405382Y239410D01*
X405482Y239452D01*
X405573Y239507D01*
X405643Y239572D01*
X405692Y239647D01*
X405723Y239732D01*
X405732Y239827D01*
Y239336D01*
D02*
G37*
G36*
X373235Y243169D02*
X373171Y243102D01*
X373113Y243035D01*
X373063Y242968D01*
X373019Y242901D01*
X372982Y242835D01*
X372952Y242769D01*
X372929Y242704D01*
X372912Y242638D01*
X372903Y242574D01*
X372900Y242509D01*
X372009Y243400D01*
X372074Y243403D01*
X372139Y243412D01*
X372204Y243429D01*
X372269Y243452D01*
X372335Y243482D01*
X372401Y243519D01*
X372468Y243563D01*
X372534Y243613D01*
X372602Y243671D01*
X372669Y243735D01*
X373235Y243169D01*
D02*
G37*
G36*
X396967Y259018D02*
X396918Y259046D01*
X396858Y259070D01*
X396786Y259092D01*
X396703Y259111D01*
X396608Y259127D01*
X396385Y259150D01*
X396116Y259161D01*
X395964Y259163D01*
Y259963D01*
X396116Y259964D01*
X396608Y259999D01*
X396703Y260015D01*
X396786Y260034D01*
X396858Y260056D01*
X396918Y260080D01*
X396967Y260108D01*
Y259018D01*
D02*
G37*
G36*
X426860Y260043D02*
X427304D01*
X427495Y259581D01*
X427035Y259121D01*
X423469D01*
X423322Y259605D01*
X423333Y259632D01*
X423582Y259799D01*
X423980Y260043D01*
X425660D01*
Y263307D01*
X426860D01*
Y260043D01*
D02*
G37*
G36*
X414411Y259602D02*
X414423Y259464D01*
X414443Y259342D01*
X414471Y259237D01*
X414507Y259148D01*
X414551Y259074D01*
X414603Y259018D01*
X414663Y258977D01*
X414731Y258953D01*
X414807Y258945D01*
X413207D01*
X413283Y258953D01*
X413351Y258977D01*
X413411Y259018D01*
X413463Y259074D01*
X413507Y259148D01*
X413543Y259237D01*
X413571Y259342D01*
X413591Y259464D01*
X413603Y259602D01*
X413607Y259756D01*
X414407D01*
X414411Y259602D01*
D02*
G37*
G36*
X419564Y259077D02*
X419652Y259032D01*
X419759Y258960D01*
X419886Y258861D01*
X420199Y258584D01*
X420385Y258406D01*
X417629D01*
X417815Y258584D01*
X418255Y258960D01*
X418363Y259032D01*
X418451Y259077D01*
X418519Y259096D01*
X418568Y259088D01*
X418597Y259054D01*
X418607Y258993D01*
X419407D01*
X419417Y259054D01*
X419446Y259088D01*
X419495Y259096D01*
X419564Y259077D01*
D02*
G37*
G36*
X352000Y270576D02*
X352033Y270573D01*
Y269773D01*
X352000Y269771D01*
Y268208D01*
X348520D01*
Y264446D01*
X350071D01*
X350137Y264423D01*
X350234Y264364D01*
X350467Y264131D01*
X350533Y264006D01*
X350573Y263910D01*
X350603Y263809D01*
X350626Y263782D01*
X350639Y263749D01*
X350713Y263675D01*
X350780Y263594D01*
X350811Y263577D01*
X350836Y263552D01*
X350966Y263466D01*
X351162Y263173D01*
X351228Y262840D01*
X351255Y262775D01*
X351268Y262706D01*
X351307Y262648D01*
X351334Y262583D01*
X351384Y262533D01*
X351423Y262475D01*
X351482Y262436D01*
X351531Y262386D01*
X351596Y262359D01*
X351655Y262320D01*
X351724Y262306D01*
X351788Y262280D01*
X351792D01*
Y259734D01*
X349159D01*
Y261793D01*
X349146Y261862D01*
Y261932D01*
X349119Y261997D01*
X349105Y262066D01*
X349066Y262125D01*
X349039Y262190D01*
X348989Y262239D01*
X348950Y262298D01*
X348892Y262337D01*
X348842Y262386D01*
X348540Y262588D01*
X347404Y263724D01*
X347279Y263912D01*
X347235Y264133D01*
Y269419D01*
X347260Y269543D01*
Y269672D01*
X347264Y269800D01*
X347260Y269811D01*
Y269822D01*
X347210Y269940D01*
X347165Y270061D01*
X347157Y270069D01*
X347153Y270079D01*
X347062Y270170D01*
X346974Y270263D01*
X346719Y270445D01*
X347007Y270876D01*
X347131Y271500D01*
X352000D01*
Y270576D01*
D02*
G37*
G36*
X354076Y260426D02*
X354082Y260338D01*
X354094Y260255D01*
X354110Y260177D01*
X354131Y260105D01*
X354156Y260037D01*
X354186Y259974D01*
X354220Y259916D01*
X354259Y259864D01*
X354303Y259816D01*
X353043D01*
X353087Y259864D01*
X353126Y259916D01*
X353161Y259974D01*
X353190Y260037D01*
X353216Y260105D01*
X353236Y260177D01*
X353253Y260255D01*
X353264Y260338D01*
X353271Y260426D01*
X353273Y260520D01*
X354073D01*
X354076Y260426D01*
D02*
G37*
G36*
X354397Y259739D02*
X354329Y259722D01*
X354269Y259693D01*
X354217Y259653D01*
X354173Y259602D01*
X354137Y259539D01*
X354109Y259465D01*
X354089Y259379D01*
X354077Y259282D01*
X354073Y259173D01*
X353273D01*
X353269Y259282D01*
X353257Y259379D01*
X353237Y259465D01*
X353209Y259539D01*
X353173Y259602D01*
X353129Y259653D01*
X353077Y259693D01*
X353017Y259722D01*
X352949Y259739D01*
X352873Y259745D01*
X354473D01*
X354397Y259739D01*
D02*
G37*
G36*
X429991Y259600D02*
X429926Y259597D01*
X429861Y259588D01*
X429796Y259571D01*
X429731Y259548D01*
X429665Y259518D01*
X429599Y259481D01*
X429532Y259437D01*
X429465Y259387D01*
X429398Y259329D01*
X429331Y259265D01*
X428765Y259831D01*
X428829Y259898D01*
X428887Y259965D01*
X428937Y260032D01*
X428981Y260099D01*
X429018Y260165D01*
X429048Y260231D01*
X429071Y260296D01*
X429088Y260362D01*
X429097Y260426D01*
X429100Y260491D01*
X429991Y259600D01*
D02*
G37*
G36*
X371586Y258810D02*
X371547Y258757D01*
X371513Y258699D01*
X371483Y258636D01*
X371458Y258569D01*
X371437Y258496D01*
X371421Y258418D01*
X371409Y258335D01*
X371402Y258247D01*
X371400Y258154D01*
X370600D01*
X370598Y258247D01*
X370591Y258335D01*
X370579Y258418D01*
X370563Y258496D01*
X370543Y258569D01*
X370517Y258636D01*
X370487Y258699D01*
X370453Y258757D01*
X370414Y258810D01*
X370370Y258857D01*
X371630D01*
X371586Y258810D01*
D02*
G37*
G36*
X408273Y254397D02*
X408290Y254329D01*
X408318Y254269D01*
X408357Y254217D01*
X408407Y254173D01*
X408469Y254137D01*
X408542Y254109D01*
X408625Y254089D01*
X408720Y254077D01*
X408827Y254073D01*
Y253273D01*
X408720Y253269D01*
X408625Y253257D01*
X408542Y253237D01*
X408469Y253209D01*
X408407Y253173D01*
X408357Y253129D01*
X408318Y253077D01*
X408290Y253017D01*
X408273Y252949D01*
X408267Y252873D01*
Y254473D01*
X408273Y254397D01*
D02*
G37*
G36*
X409183Y272879D02*
X408847Y272654D01*
X408493Y272124D01*
X408369Y271500D01*
X408493Y270876D01*
X408847Y270346D01*
X409376Y269993D01*
X410000Y269869D01*
X410134Y269895D01*
X410521Y269578D01*
Y267292D01*
Y263946D01*
X411378D01*
Y261500D01*
X411378Y261500D01*
X411464Y261071D01*
X411707Y260707D01*
X412283Y260130D01*
X412092Y259668D01*
X411339D01*
Y254331D01*
X411841D01*
X412002Y254069D01*
X412036Y253958D01*
X412042Y253832D01*
X411757Y253564D01*
X411612Y253447D01*
X411471Y253345D01*
X411341Y253264D01*
X411225Y253203D01*
X411122Y253160D01*
X411034Y253133D01*
X410972Y253121D01*
X410965D01*
X409620Y254466D01*
X409256Y254709D01*
X408980Y254764D01*
Y255554D01*
X408292D01*
X408192Y256054D01*
X409345Y257207D01*
X409345Y257207D01*
X409588Y257571D01*
X409673Y258000D01*
X409673Y258000D01*
Y266623D01*
X409588Y267052D01*
X409345Y267416D01*
X409345Y267416D01*
X406198Y270563D01*
X405834Y270806D01*
X405405Y270892D01*
X405405Y270892D01*
X403829D01*
X403653Y271153D01*
X403333Y271368D01*
X403217Y271960D01*
X404636Y273378D01*
X409031D01*
X409183Y272879D01*
D02*
G37*
G36*
X358586Y252810D02*
X358547Y252757D01*
X358513Y252699D01*
X358483Y252637D01*
X358457Y252569D01*
X358437Y252496D01*
X358421Y252418D01*
X358409Y252335D01*
X358402Y252247D01*
X358400Y252154D01*
X357600D01*
X357598Y252247D01*
X357591Y252335D01*
X357579Y252418D01*
X357563Y252496D01*
X357542Y252569D01*
X357517Y252637D01*
X357487Y252699D01*
X357453Y252757D01*
X357414Y252810D01*
X357370Y252857D01*
X358630D01*
X358586Y252810D01*
D02*
G37*
G36*
X374991Y253100D02*
X374926Y253097D01*
X374862Y253088D01*
X374796Y253071D01*
X374731Y253048D01*
X374665Y253018D01*
X374599Y252981D01*
X374532Y252937D01*
X374465Y252887D01*
X374398Y252829D01*
X374331Y252765D01*
X373765Y253331D01*
X373829Y253398D01*
X373887Y253466D01*
X373937Y253532D01*
X373981Y253599D01*
X374018Y253665D01*
X374048Y253731D01*
X374071Y253796D01*
X374088Y253861D01*
X374097Y253926D01*
X374100Y253991D01*
X374991Y253100D01*
D02*
G37*
G36*
X354690Y256586D02*
X354743Y256547D01*
X354801Y256513D01*
X354864Y256483D01*
X354931Y256457D01*
X355004Y256437D01*
X355082Y256421D01*
X355165Y256409D01*
X355253Y256402D01*
X355346Y256400D01*
Y255600D01*
X355253Y255598D01*
X355165Y255591D01*
X355082Y255579D01*
X355004Y255563D01*
X354931Y255542D01*
X354864Y255517D01*
X354801Y255487D01*
X354743Y255453D01*
X354690Y255414D01*
X354643Y255370D01*
Y256630D01*
X354690Y256586D01*
D02*
G37*
G36*
X362917Y258958D02*
X362946Y258802D01*
X362995Y258643D01*
X363064Y258479D01*
X363152Y258311D01*
X363259Y258138D01*
X363386Y257962D01*
X363533Y257781D01*
X363885Y257406D01*
X361129D01*
X361315Y257595D01*
X361628Y257962D01*
X361755Y258138D01*
X361863Y258311D01*
X361951Y258479D01*
X362019Y258643D01*
X362068Y258802D01*
X362097Y258958D01*
X362107Y259108D01*
X362907D01*
X362917Y258958D01*
D02*
G37*
G36*
X389926Y254230D02*
X389932Y254142D01*
X389944Y254059D01*
X389960Y253981D01*
X389981Y253908D01*
X390006Y253840D01*
X390036Y253778D01*
X390070Y253720D01*
X390109Y253667D01*
X390153Y253620D01*
X388893D01*
X388937Y253667D01*
X388976Y253720D01*
X389011Y253778D01*
X389040Y253840D01*
X389066Y253908D01*
X389086Y253981D01*
X389103Y254059D01*
X389114Y254142D01*
X389121Y254230D01*
X389123Y254323D01*
X389923D01*
X389926Y254230D01*
D02*
G37*
G36*
X407404Y255488D02*
X407416Y255350D01*
X407436Y255228D01*
X407464Y255123D01*
X407500Y255033D01*
X407544Y254960D01*
X407596Y254903D01*
X407656Y254863D01*
X407724Y254838D01*
X407800Y254830D01*
X406200D01*
X406276Y254838D01*
X406344Y254863D01*
X406404Y254903D01*
X406456Y254960D01*
X406500Y255033D01*
X406536Y255123D01*
X406564Y255228D01*
X406584Y255350D01*
X406596Y255488D01*
X406600Y255642D01*
X407400D01*
X407404Y255488D01*
D02*
G37*
G36*
X384082Y267954D02*
X384142Y267930D01*
X384214Y267908D01*
X384297Y267889D01*
X384392Y267873D01*
X384615Y267850D01*
X384884Y267839D01*
X385036Y267837D01*
Y267037D01*
X384884Y267036D01*
X384392Y267001D01*
X384297Y266985D01*
X384214Y266966D01*
X384142Y266944D01*
X384082Y266920D01*
X384033Y266892D01*
Y267982D01*
X384082Y267954D01*
D02*
G37*
G36*
X407732Y286075D02*
X407747Y286075D01*
X407835Y286082D01*
X407918Y286094D01*
X407996Y286110D01*
X408069Y286131D01*
X408137Y286156D01*
X408199Y286186D01*
X408257Y286220D01*
X408310Y286260D01*
X408357Y286303D01*
Y285043D01*
X408310Y285087D01*
X408257Y285126D01*
X408199Y285160D01*
X408137Y285190D01*
X408069Y285216D01*
X407996Y285236D01*
X407918Y285252D01*
X407835Y285264D01*
X407747Y285271D01*
X407732Y285271D01*
Y284873D01*
X407725Y284949D01*
X407700Y285017D01*
X407660Y285077D01*
X407605Y285129D01*
X407533Y285173D01*
X407444Y285209D01*
X407340Y285237D01*
X407221Y285257D01*
X407085Y285269D01*
X406932Y285273D01*
Y286073D01*
X407085Y286077D01*
X407221Y286089D01*
X407340Y286109D01*
X407444Y286137D01*
X407533Y286173D01*
X407605Y286217D01*
X407660Y286269D01*
X407700Y286329D01*
X407725Y286397D01*
X407732Y286473D01*
Y286075D01*
D02*
G37*
G36*
X415764Y286397D02*
X415788Y286329D01*
X415829Y286269D01*
X415885Y286217D01*
X415958Y286173D01*
X415981Y286164D01*
X416026Y286186D01*
X416084Y286220D01*
X416136Y286260D01*
X416184Y286303D01*
Y286104D01*
X416275Y286089D01*
X416413Y286077D01*
X416568Y286073D01*
Y285273D01*
X416413Y285269D01*
X416275Y285257D01*
X416184Y285242D01*
Y285043D01*
X416136Y285087D01*
X416084Y285126D01*
X416026Y285160D01*
X415981Y285182D01*
X415958Y285173D01*
X415885Y285129D01*
X415829Y285077D01*
X415788Y285017D01*
X415764Y284949D01*
X415756Y284873D01*
Y285250D01*
X415745Y285252D01*
X415662Y285264D01*
X415574Y285271D01*
X415481Y285273D01*
Y286073D01*
X415574Y286075D01*
X415662Y286082D01*
X415745Y286094D01*
X415756Y286096D01*
Y286473D01*
X415764Y286397D01*
D02*
G37*
G36*
X376732Y284373D02*
X376725Y284449D01*
X376700Y284517D01*
X376660Y284577D01*
X376605Y284629D01*
X376533Y284673D01*
X376445Y284709D01*
X376341Y284737D01*
X376220Y284757D01*
X376084Y284769D01*
X375933Y284773D01*
Y285573D01*
X376084Y285577D01*
X376220Y285589D01*
X376341Y285609D01*
X376445Y285637D01*
X376533Y285673D01*
X376605Y285717D01*
X376660Y285769D01*
X376700Y285829D01*
X376725Y285897D01*
X376732Y285973D01*
Y284373D01*
D02*
G37*
G36*
X421273Y286397D02*
X421290Y286329D01*
X421318Y286269D01*
X421357Y286217D01*
X421407Y286173D01*
X421469Y286137D01*
X421542Y286109D01*
X421625Y286089D01*
X421721Y286077D01*
X421827Y286073D01*
Y285273D01*
X421721Y285269D01*
X421625Y285257D01*
X421542Y285237D01*
X421469Y285209D01*
X421407Y285173D01*
X421357Y285129D01*
X421318Y285077D01*
X421290Y285017D01*
X421273Y284949D01*
X421268Y284873D01*
Y286473D01*
X421273Y286397D01*
D02*
G37*
G36*
X365147Y285688D02*
X364428D01*
X364430Y285697D01*
X364431Y285717D01*
X364436Y285911D01*
X364437Y286287D01*
X365137D01*
X365147Y285688D01*
D02*
G37*
G36*
X366750Y286246D02*
X366722Y285688D01*
X366003D01*
X366012Y285708D01*
X366020Y285739D01*
X366027Y285782D01*
X366038Y285902D01*
X366048Y286167D01*
X366050Y286400D01*
X366750Y286246D01*
D02*
G37*
G36*
X396240Y286763D02*
X396264Y286699D01*
X396304Y286643D01*
X396360Y286594D01*
X396432Y286553D01*
X396520Y286519D01*
X396624Y286493D01*
X396744Y286474D01*
X396880Y286463D01*
X397032Y286459D01*
Y285659D01*
X396880Y285655D01*
X396744Y285644D01*
X396624Y285625D01*
X396520Y285599D01*
X396432Y285565D01*
X396360Y285524D01*
X396304Y285475D01*
X396264Y285419D01*
X396240Y285355D01*
X396232Y285284D01*
Y286835D01*
X396240Y286763D01*
D02*
G37*
G36*
X397857Y285429D02*
X397810Y285473D01*
X397757Y285512D01*
X397699Y285546D01*
X397637Y285576D01*
X397569Y285601D01*
X397496Y285622D01*
X397418Y285638D01*
X397335Y285650D01*
X397247Y285657D01*
X397154Y285659D01*
Y286459D01*
X397247Y286461D01*
X397335Y286468D01*
X397418Y286480D01*
X397496Y286496D01*
X397569Y286517D01*
X397637Y286542D01*
X397699Y286572D01*
X397757Y286606D01*
X397810Y286645D01*
X397857Y286689D01*
Y285429D01*
D02*
G37*
G36*
X354707Y287207D02*
X355207Y286707D01*
X355207Y286707D01*
X355571Y286464D01*
X356000Y286378D01*
X356000Y286379D01*
X357086D01*
X357367Y286098D01*
Y284486D01*
X356867Y284335D01*
X356653Y284653D01*
X356124Y285007D01*
X355500Y285131D01*
X354876Y285007D01*
X354416Y284700D01*
X354065Y284994D01*
X354031Y285013D01*
X354004Y285040D01*
X353910Y285079D01*
X353820Y285128D01*
X353782Y285132D01*
X353746Y285147D01*
X353654Y285165D01*
X353361Y285361D01*
X353165Y285654D01*
X353114Y285912D01*
X353131Y286000D01*
X353114Y286088D01*
X353165Y286346D01*
X353361Y286639D01*
X353680Y286852D01*
X353765Y286937D01*
X353854Y287017D01*
X353863Y287035D01*
X353877Y287049D01*
X353923Y287160D01*
X353975Y287268D01*
X353976Y287288D01*
X353984Y287306D01*
Y287426D01*
X353985Y287456D01*
X354464Y287571D01*
X354707Y287207D01*
D02*
G37*
G36*
X351352Y289129D02*
X351459Y289088D01*
X351520Y289036D01*
D01*
Y287946D01*
X353201D01*
X353219Y287899D01*
X353284Y287446D01*
X353020Y287269D01*
D01*
X352847Y287154D01*
X352493Y286624D01*
X352369Y286000D01*
X352493Y285376D01*
X352847Y284846D01*
X353376Y284493D01*
X353562Y284456D01*
D01*
X353607Y284447D01*
X353975Y284139D01*
X353975Y284139D01*
X353993Y284124D01*
X353950Y283908D01*
D01*
X353869Y283500D01*
X353993Y282876D01*
X354159Y282627D01*
X354025Y282288D01*
X353971Y282213D01*
X353900Y282115D01*
X353534Y282042D01*
X353261Y281859D01*
X352738Y281983D01*
X352586Y282241D01*
X352539Y282534D01*
X352631Y283000D01*
X352507Y283624D01*
X352153Y284154D01*
X351624Y284507D01*
X351000Y284631D01*
X350376Y284507D01*
X349847Y284154D01*
X349832Y284132D01*
X349826Y284131D01*
X349810Y284127D01*
X349797Y284124D01*
X349780Y284122D01*
X349776Y284121D01*
X349559D01*
X349130Y284036D01*
X348766Y283793D01*
X348766Y283793D01*
X347766Y282793D01*
X347523Y282429D01*
X347486Y282244D01*
X346600D01*
Y281357D01*
X346630D01*
X346600Y281325D01*
Y281290D01*
X346640Y281263D01*
X346704Y281240D01*
X346775Y281232D01*
X346600D01*
Y279571D01*
X345400D01*
Y281232D01*
X345225D01*
X345296Y281240D01*
X345360Y281263D01*
X345400Y281290D01*
Y281325D01*
X345370Y281357D01*
X345400D01*
Y282244D01*
X344621D01*
Y282776D01*
D01*
X344624Y282797D01*
X344631Y282826D01*
X344632Y282832D01*
X344654Y282846D01*
X345007Y283376D01*
X345131Y284000D01*
X345007Y284624D01*
X344654Y285154D01*
X344500Y285256D01*
X344652Y285756D01*
X345228D01*
Y286056D01*
X350046D01*
Y288878D01*
X350624Y288993D01*
X351021Y289258D01*
X351352Y289129D01*
D02*
G37*
G36*
X382232Y282231D02*
X382433Y282227D01*
Y281427D01*
X382232Y281425D01*
Y281027D01*
X382224Y281103D01*
X382201Y281171D01*
X382160Y281231D01*
X382104Y281283D01*
X382032Y281327D01*
X381944Y281363D01*
X381840Y281391D01*
X381773Y281402D01*
X380892Y281342D01*
X380740Y281311D01*
X380617Y281275D01*
X380525Y281235D01*
X380463Y281190D01*
Y282464D01*
X380525Y282419D01*
X380617Y282378D01*
X380723Y282348D01*
X380752Y282494D01*
X380790Y282444D01*
X380835Y282398D01*
X380885Y282358D01*
X380942Y282323D01*
X380998Y282297D01*
X381074Y282286D01*
X381528Y282248D01*
X381725Y282243D01*
X381840Y282263D01*
X381944Y282291D01*
X382032Y282327D01*
X382104Y282371D01*
X382160Y282423D01*
X382201Y282483D01*
X382224Y282551D01*
X382232Y282627D01*
Y282231D01*
D02*
G37*
G36*
X415764Y283051D02*
X415788Y282983D01*
X415829Y282923D01*
X415885Y282871D01*
X415958Y282827D01*
X416048Y282791D01*
X416153Y282763D01*
X416275Y282743D01*
X416413Y282731D01*
X416568Y282727D01*
Y281927D01*
X416413Y281923D01*
X416275Y281911D01*
X416153Y281891D01*
X416048Y281863D01*
X415958Y281827D01*
X415885Y281783D01*
X415829Y281731D01*
X415788Y281671D01*
X415764Y281603D01*
X415756Y281527D01*
Y283127D01*
X415764Y283051D01*
D02*
G37*
G36*
X418745Y281527D02*
X418736Y281603D01*
X418712Y281671D01*
X418671Y281731D01*
X418614Y281783D01*
X418541Y281827D01*
X418452Y281863D01*
X418347Y281891D01*
X418225Y281911D01*
X418087Y281923D01*
X417933Y281927D01*
Y282727D01*
X418087Y282731D01*
X418225Y282743D01*
X418347Y282763D01*
X418452Y282791D01*
X418541Y282827D01*
X418614Y282871D01*
X418671Y282923D01*
X418712Y282983D01*
X418736Y283051D01*
X418745Y283127D01*
Y281527D01*
D02*
G37*
G36*
X405098Y284204D02*
X405122Y284140D01*
X405162Y284084D01*
X405218Y284035D01*
X405290Y283994D01*
X405378Y283960D01*
X405482Y283934D01*
X405602Y283915D01*
X405738Y283904D01*
X405890Y283900D01*
Y283100D01*
X405738Y283096D01*
X405602Y283085D01*
X405482Y283066D01*
X405378Y283040D01*
X405290Y283006D01*
X405218Y282965D01*
X405162Y282916D01*
X405122Y282860D01*
X405098Y282796D01*
X405090Y282725D01*
Y284275D01*
X405098Y284204D01*
D02*
G37*
G36*
X423071Y283200D02*
X423070Y283276D01*
X423053Y283500D01*
X423046Y283536D01*
X423036Y283564D01*
X423026Y283584D01*
X423013Y283596D01*
X423000Y283600D01*
Y284400D01*
X423013Y284404D01*
X423026Y284416D01*
X423036Y284436D01*
X423046Y284464D01*
X423053Y284500D01*
X423060Y284544D01*
X423068Y284656D01*
X423071Y284800D01*
Y283200D01*
D02*
G37*
G36*
X350357Y282370D02*
X350310Y282414D01*
X350257Y282453D01*
X350199Y282487D01*
X350136Y282517D01*
X350069Y282542D01*
X349996Y282563D01*
X349918Y282579D01*
X349835Y282591D01*
X349747Y282598D01*
X349654Y282600D01*
Y283400D01*
X349747Y283402D01*
X349835Y283409D01*
X349918Y283421D01*
X349996Y283437D01*
X350069Y283457D01*
X350136Y283483D01*
X350199Y283513D01*
X350257Y283547D01*
X350310Y283586D01*
X350357Y283630D01*
Y282370D01*
D02*
G37*
G36*
X344086Y283310D02*
X344047Y283257D01*
X344013Y283199D01*
X343983Y283137D01*
X343957Y283069D01*
X343937Y282996D01*
X343921Y282918D01*
X343909Y282835D01*
X343902Y282747D01*
X343900Y282654D01*
X343100D01*
X343098Y282747D01*
X343091Y282835D01*
X343079Y282918D01*
X343063Y282996D01*
X343042Y283069D01*
X343017Y283137D01*
X342987Y283199D01*
X342953Y283257D01*
X342914Y283310D01*
X342870Y283357D01*
X344130D01*
X344086Y283310D01*
D02*
G37*
G36*
X368927Y291531D02*
X368828Y291516D01*
X368729Y291491D01*
X368630Y291456D01*
X368531Y291412D01*
X368432Y291357D01*
X368333Y291293D01*
X368234Y291219D01*
X368135Y291135D01*
X368036Y291041D01*
X367046D01*
X367536Y291536D01*
X369026D01*
X368927Y291531D01*
D02*
G37*
G36*
X344551Y291740D02*
X344483Y291728D01*
X344423Y291707D01*
X344371Y291678D01*
X344327Y291640D01*
X344291Y291594D01*
X344263Y291540D01*
X344243Y291477D01*
X344231Y291406D01*
X344227Y291327D01*
X343427D01*
X343423Y291406D01*
X343411Y291477D01*
X343391Y291540D01*
X343363Y291594D01*
X343327Y291640D01*
X343283Y291678D01*
X343231Y291707D01*
X343171Y291728D01*
X343103Y291740D01*
X343027Y291744D01*
X344627D01*
X344551Y291740D01*
D02*
G37*
G36*
X349900Y289834D02*
X349830Y289761D01*
X349991Y289600D01*
X349926Y289597D01*
X349862Y289588D01*
X349796Y289571D01*
X349731Y289548D01*
X349665Y289518D01*
X349599Y289481D01*
X349565Y289459D01*
X349516Y289400D01*
X349428Y289274D01*
X349360Y289156D01*
X349312Y289047D01*
X349285Y288948D01*
X349277Y288857D01*
X349290Y288776D01*
X349322Y288703D01*
X348459Y290078D01*
X348509Y290023D01*
X348573Y289993D01*
X348651Y289987D01*
X348743Y290007D01*
X348849Y290053D01*
X348969Y290123D01*
X349012Y290154D01*
X349018Y290165D01*
X349048Y290231D01*
X349071Y290296D01*
X349088Y290361D01*
X349097Y290426D01*
X349100Y290491D01*
X349252Y290339D01*
X349590Y290656D01*
X349900Y289834D01*
D02*
G37*
G36*
X365634Y291529D02*
X365574Y291508D01*
X365522Y291473D01*
X365476Y291424D01*
X365438Y291361D01*
X365406Y291284D01*
X365382Y291193D01*
X365364Y291088D01*
X365353Y290969D01*
X365350Y290836D01*
X364650D01*
X364647Y290969D01*
X364636Y291088D01*
X364618Y291193D01*
X364594Y291284D01*
X364563Y291361D01*
X364524Y291424D01*
X364478Y291473D01*
X364426Y291508D01*
X364367Y291529D01*
X364300Y291536D01*
X365700D01*
X365634Y291529D01*
D02*
G37*
G36*
X354775Y293897D02*
X354797Y293829D01*
X354829Y293777D01*
X354857Y293803D01*
Y293745D01*
X354885Y293717D01*
X354951Y293673D01*
X355031Y293637D01*
X355126Y293609D01*
X355236Y293589D01*
X355361Y293577D01*
X355500Y293573D01*
Y292773D01*
X355361Y292769D01*
X355236Y292757D01*
X355126Y292737D01*
X355031Y292709D01*
X354951Y292673D01*
X354885Y292629D01*
X354857Y292601D01*
Y292543D01*
X354829Y292569D01*
X354797Y292517D01*
X354775Y292449D01*
X354767Y292373D01*
Y292618D01*
X354757Y292626D01*
X354699Y292660D01*
X354637Y292690D01*
X354569Y292716D01*
X354496Y292736D01*
X354418Y292753D01*
X354335Y292764D01*
X354247Y292771D01*
X354154Y292773D01*
Y293573D01*
X354247Y293576D01*
X354335Y293582D01*
X354418Y293594D01*
X354496Y293610D01*
X354569Y293631D01*
X354637Y293656D01*
X354699Y293686D01*
X354757Y293720D01*
X354767Y293728D01*
Y293973D01*
X354775Y293897D01*
D02*
G37*
G36*
X359357Y292543D02*
X359313Y292587D01*
X359230Y292660D01*
X359192Y292690D01*
X359155Y292716D01*
X359120Y292736D01*
X359087Y292753D01*
X359056Y292764D01*
X359027Y292771D01*
X359000Y292773D01*
Y293573D01*
X359027Y293576D01*
X359056Y293582D01*
X359087Y293594D01*
X359120Y293610D01*
X359155Y293631D01*
X359192Y293656D01*
X359230Y293686D01*
X359313Y293759D01*
X359357Y293803D01*
Y292543D01*
D02*
G37*
G36*
X347897Y291744D02*
X347673Y291727D01*
X347637Y291719D01*
X347609Y291709D01*
X347589Y291699D01*
X347577Y291687D01*
X347573Y291673D01*
X346773D01*
X346769Y291687D01*
X346757Y291699D01*
X346737Y291709D01*
X346709Y291719D01*
X346673Y291727D01*
X346629Y291733D01*
X346517Y291742D01*
X346373Y291744D01*
X347973D01*
X347897Y291744D01*
D02*
G37*
G36*
X348338Y293724D02*
X348363Y293656D01*
X348403Y293596D01*
X348460Y293544D01*
X348533Y293500D01*
X348605Y293471D01*
X348637Y293483D01*
X348699Y293513D01*
X348757Y293547D01*
X348810Y293586D01*
X348857Y293630D01*
Y293415D01*
X348988Y293404D01*
X349142Y293400D01*
Y292600D01*
X348988Y292596D01*
X348857Y292585D01*
Y292370D01*
X348810Y292414D01*
X348757Y292453D01*
X348699Y292487D01*
X348637Y292517D01*
X348605Y292529D01*
X348533Y292500D01*
X348460Y292456D01*
X348403Y292404D01*
X348363Y292344D01*
X348338Y292276D01*
X348330Y292200D01*
Y292591D01*
X348247Y292598D01*
X348154Y292600D01*
Y293400D01*
X348247Y293402D01*
X348330Y293409D01*
Y293800D01*
X348338Y293724D01*
D02*
G37*
G36*
X346404Y290422D02*
X346415Y290353D01*
X346434Y290291D01*
X346460Y290238D01*
X346494Y290193D01*
X346535Y290156D01*
X346584Y290127D01*
X346640Y290107D01*
X346704Y290094D01*
X346775Y290090D01*
X345225D01*
X345296Y290094D01*
X345360Y290107D01*
X345416Y290127D01*
X345465Y290156D01*
X345506Y290193D01*
X345540Y290238D01*
X345566Y290291D01*
X345585Y290353D01*
X345596Y290422D01*
X345600Y290500D01*
X346400D01*
X346404Y290422D01*
D02*
G37*
G36*
X371850Y288306D02*
X371874Y288263D01*
X371903Y288217D01*
X371978Y288115D01*
X372076Y288000D01*
X372263Y287803D01*
X371985Y286950D01*
X371916Y287015D01*
X371849Y287070D01*
X371783Y287116D01*
X371718Y287153D01*
X371655Y287180D01*
X371594Y287198D01*
X371534Y287206D01*
X371475Y287206D01*
X371418Y287195D01*
X371362Y287176D01*
X371831Y288345D01*
X371850Y288306D01*
D02*
G37*
G36*
X370638Y287176D02*
X370582Y287195D01*
X370525Y287206D01*
X370466Y287206D01*
X370406Y287198D01*
X370345Y287180D01*
X370282Y287153D01*
X370217Y287116D01*
X370151Y287070D01*
X370084Y287015D01*
X370016Y286950D01*
X369737Y287803D01*
X369805Y287872D01*
X370062Y288168D01*
X370097Y288217D01*
X370150Y288306D01*
X370169Y288345D01*
X370638Y287176D01*
D02*
G37*
G36*
X363674Y286761D02*
X363661Y286715D01*
X363650Y286662D01*
X363632Y286538D01*
X363619Y286388D01*
X363613Y286116D01*
X362813Y285705D01*
X362810Y285799D01*
X362801Y285886D01*
X362787Y285965D01*
X362768Y286036D01*
X362742Y286100D01*
X362712Y286156D01*
X362675Y286205D01*
X362633Y286245D01*
X362585Y286279D01*
X362532Y286304D01*
X363689Y286802D01*
X363674Y286761D01*
D02*
G37*
G36*
X375227Y287000D02*
X374427Y286173D01*
X374419Y286254D01*
X374395Y286327D01*
X374355Y286391D01*
X374299Y286446D01*
X374227Y286493D01*
X374139Y286532D01*
X374035Y286562D01*
X373915Y286583D01*
X373779Y286596D01*
X373627Y286600D01*
Y287400D01*
X373779Y287408D01*
X373915Y287432D01*
X374035Y287472D01*
X374139Y287528D01*
X374227Y287600D01*
X374299Y287688D01*
X374355Y287792D01*
X374395Y287912D01*
X374419Y288048D01*
X374427Y288200D01*
X375227Y287000D01*
D02*
G37*
G36*
X354775Y290551D02*
X354797Y290483D01*
X354833Y290423D01*
X354885Y290371D01*
X354951Y290327D01*
X355031Y290291D01*
X355126Y290263D01*
X355236Y290243D01*
X355361Y290231D01*
X355500Y290227D01*
Y289427D01*
X355361Y289423D01*
X355236Y289411D01*
X355126Y289391D01*
X355031Y289363D01*
X354951Y289327D01*
X354885Y289283D01*
X354833Y289231D01*
X354797Y289171D01*
X354775Y289103D01*
X354767Y289027D01*
Y290627D01*
X354775Y290551D01*
D02*
G37*
G36*
X343845Y290738D02*
X343856Y290602D01*
X343875Y290482D01*
X343901Y290378D01*
X343935Y290290D01*
X343976Y290218D01*
X344025Y290162D01*
X344081Y290122D01*
X344145Y290098D01*
X344216Y290090D01*
X342666D01*
X342737Y290098D01*
X342801Y290122D01*
X342857Y290162D01*
X342906Y290218D01*
X342947Y290290D01*
X342981Y290378D01*
X343007Y290482D01*
X343026Y290602D01*
X343037Y290738D01*
X343041Y290890D01*
X343841D01*
X343845Y290738D01*
D02*
G37*
G36*
X359724Y288665D02*
X359656Y288650D01*
X359596Y288625D01*
X359544Y288590D01*
X359500Y288545D01*
X359464Y288490D01*
X359436Y288426D01*
X359416Y288351D01*
X359404Y288266D01*
X359400Y288172D01*
X358600D01*
X358596Y288266D01*
X358584Y288351D01*
X358564Y288426D01*
X358536Y288490D01*
X358500Y288545D01*
X358456Y288590D01*
X358404Y288625D01*
X358344Y288650D01*
X358276Y288665D01*
X358200Y288670D01*
X359800D01*
X359724Y288665D01*
D02*
G37*
G36*
X375551Y289236D02*
X375483Y289212D01*
X375423Y289171D01*
X375371Y289114D01*
X375327Y289041D01*
X375291Y288952D01*
X375263Y288847D01*
X375243Y288725D01*
X375231Y288587D01*
X375227Y288433D01*
X374427D01*
X374423Y288587D01*
X374411Y288725D01*
X374391Y288847D01*
X374363Y288952D01*
X374327Y289041D01*
X374283Y289114D01*
X374231Y289171D01*
X374171Y289212D01*
X374103Y289236D01*
X374027Y289245D01*
X375627D01*
X375551Y289236D01*
D02*
G37*
G36*
X413233Y281527D02*
X413225Y281603D01*
X413201Y281671D01*
X413161Y281731D01*
X413104Y281783D01*
X413032Y281827D01*
X412945Y281863D01*
X412841Y281891D01*
X412720Y281911D01*
X412584Y281923D01*
X412432Y281927D01*
Y282727D01*
X412584Y282731D01*
X412720Y282743D01*
X412841Y282763D01*
X412945Y282791D01*
X413032Y282827D01*
X413104Y282871D01*
X413161Y282923D01*
X413201Y282983D01*
X413225Y283051D01*
X413233Y283127D01*
Y281527D01*
D02*
G37*
G36*
X345902Y272753D02*
X345909Y272665D01*
X345921Y272582D01*
X345929Y272544D01*
X346300D01*
X346224Y272535D01*
X346156Y272512D01*
X346096Y272471D01*
X346044Y272415D01*
X346000Y272343D01*
X345996Y272335D01*
X346013Y272301D01*
X346047Y272243D01*
X346086Y272190D01*
X346130Y272143D01*
X345935D01*
X345916Y272031D01*
X345904Y271896D01*
X345900Y271743D01*
X345100D01*
X345096Y271896D01*
X345084Y272031D01*
X345065Y272143D01*
X344870D01*
X344914Y272190D01*
X344953Y272243D01*
X344987Y272301D01*
X345004Y272335D01*
X345000Y272343D01*
X344956Y272415D01*
X344904Y272471D01*
X344844Y272512D01*
X344776Y272535D01*
X344700Y272544D01*
X345071D01*
X345079Y272582D01*
X345091Y272665D01*
X345098Y272753D01*
X345100Y272846D01*
X345900D01*
X345902Y272753D01*
D02*
G37*
G36*
X427404Y272565D02*
X427416Y272429D01*
X427436Y272309D01*
X427464Y272205D01*
X427500Y272117D01*
X427544Y272045D01*
X427596Y271989D01*
X427656Y271949D01*
X427724Y271925D01*
X427800Y271917D01*
X426200D01*
X426276Y271925D01*
X426344Y271949D01*
X426404Y271989D01*
X426456Y272045D01*
X426500Y272117D01*
X426536Y272205D01*
X426564Y272309D01*
X426584Y272429D01*
X426596Y272565D01*
X426600Y272717D01*
X427400D01*
X427404Y272565D01*
D02*
G37*
G36*
X379233Y271729D02*
X379247Y271729D01*
X379335Y271736D01*
X379418Y271747D01*
X379496Y271764D01*
X379569Y271784D01*
X379637Y271810D01*
X379699Y271839D01*
X379757Y271874D01*
X379810Y271913D01*
X379857Y271957D01*
Y270697D01*
X379810Y270741D01*
X379757Y270780D01*
X379699Y270814D01*
X379637Y270844D01*
X379569Y270869D01*
X379496Y270890D01*
X379418Y270906D01*
X379335Y270918D01*
X379247Y270924D01*
X379233Y270925D01*
Y270527D01*
X379224Y270603D01*
X379201Y270671D01*
X379160Y270731D01*
X379104Y270783D01*
X379032Y270827D01*
X378944Y270863D01*
X378840Y270891D01*
X378720Y270911D01*
X378585Y270923D01*
X378432Y270927D01*
Y271727D01*
X378585Y271731D01*
X378720Y271743D01*
X378840Y271763D01*
X378944Y271791D01*
X379032Y271827D01*
X379104Y271871D01*
X379160Y271923D01*
X379201Y271983D01*
X379224Y272051D01*
X379233Y272127D01*
Y271729D01*
D02*
G37*
G36*
X397029Y272631D02*
X396989Y272577D01*
X396970Y272513D01*
X396972Y272439D01*
X396995Y272355D01*
X397039Y272261D01*
X397105Y272156D01*
X397192Y272042D01*
X397300Y271917D01*
X397428Y271783D01*
X396767Y271312D01*
X396617Y271457D01*
X396342Y271689D01*
X396216Y271775D01*
X396099Y271843D01*
X395990Y271891D01*
X395889Y271920D01*
X395796Y271929D01*
X395712Y271919D01*
X395636Y271890D01*
X397090Y272675D01*
X397029Y272631D01*
D02*
G37*
G36*
X399690Y274086D02*
X399743Y274047D01*
X399801Y274013D01*
X399864Y273983D01*
X399931Y273957D01*
X400004Y273937D01*
X400082Y273921D01*
X400165Y273909D01*
X400253Y273902D01*
X400346Y273900D01*
Y273100D01*
X400253Y273098D01*
X400165Y273091D01*
X400082Y273079D01*
X400004Y273063D01*
X399931Y273042D01*
X399864Y273017D01*
X399801Y272987D01*
X399743Y272953D01*
X399690Y272914D01*
X399643Y272870D01*
Y274130D01*
X399690Y274086D01*
D02*
G37*
G36*
X379233Y273504D02*
X379227Y273562D01*
X379210Y273602D01*
X379182Y273624D01*
X379142Y273627D01*
X379091Y273613D01*
X379029Y273581D01*
X378955Y273531D01*
X378870Y273463D01*
X378774Y273377D01*
X378667Y273273D01*
X378384Y274121D01*
X378545Y274288D01*
X378817Y274605D01*
X378927Y274755D01*
X379020Y274899D01*
X379097Y275038D01*
X379156Y275171D01*
X379199Y275298D01*
X379224Y275419D01*
X379233Y275535D01*
Y273504D01*
D02*
G37*
G36*
X369213Y273862D02*
X369236Y273794D01*
X369276Y273734D01*
X369333Y273682D01*
X369405Y273638D01*
X369493Y273602D01*
X369597Y273574D01*
X369717Y273554D01*
X369852Y273542D01*
X370005Y273538D01*
Y272738D01*
X369852Y272734D01*
X369717Y272722D01*
X369597Y272702D01*
X369493Y272674D01*
X369405Y272638D01*
X369333Y272594D01*
X369276Y272542D01*
X369236Y272482D01*
X369213Y272414D01*
X369204Y272338D01*
Y273938D01*
X369213Y273862D01*
D02*
G37*
G36*
X376098Y273590D02*
X376134Y273586D01*
X376231Y273571D01*
X376250Y273566D01*
X376267Y273561D01*
X376272Y273559D01*
X376285Y273553D01*
X376376Y273493D01*
X377000Y273369D01*
X377624Y273493D01*
X377720Y273557D01*
X378221Y273290D01*
Y272492D01*
X377739Y272448D01*
X376092D01*
X375866Y272599D01*
X375863Y272600D01*
X375460Y273138D01*
X375447Y273204D01*
X375764Y273591D01*
X376069D01*
X376098Y273590D01*
D02*
G37*
G36*
X415050Y273335D02*
X415050Y273335D01*
X416269D01*
X417787Y271816D01*
X417596Y271354D01*
X415721D01*
Y269773D01*
X416674D01*
X416712Y269829D01*
X416736Y269897D01*
X416745Y269973D01*
Y269773D01*
X418000D01*
Y268573D01*
X416745D01*
Y268373D01*
X416736Y268449D01*
X416712Y268517D01*
X416674Y268573D01*
X415721D01*
Y266992D01*
X416020D01*
Y263946D01*
X416878D01*
Y260085D01*
X416814Y259952D01*
X416435Y259668D01*
X415468D01*
X415129Y259993D01*
X415043Y260422D01*
X414800Y260786D01*
X414800Y260786D01*
X413622Y261965D01*
Y263946D01*
X414479D01*
Y266992D01*
X414780D01*
Y268573D01*
X413837D01*
X413799Y268517D01*
X413775Y268449D01*
X413767Y268373D01*
Y268573D01*
X412500D01*
Y269173D01*
X411900D01*
Y270330D01*
X411700D01*
X411776Y270339D01*
X411844Y270363D01*
X411900Y270401D01*
Y271354D01*
X411751D01*
X411631Y271500D01*
X411507Y272124D01*
X411154Y272654D01*
X410817Y272879D01*
X410969Y273378D01*
X414831D01*
X415050Y273335D01*
D02*
G37*
G36*
X356135Y268567D02*
X356911D01*
X357110Y268567D01*
X357149Y268500D01*
X357373D01*
Y268110D01*
Y267068D01*
X357367Y267035D01*
Y265131D01*
X356995Y264760D01*
X356624Y265007D01*
X356000Y265131D01*
X355376Y265007D01*
X354847Y264653D01*
X354493Y264124D01*
X354369Y263500D01*
X354395Y263366D01*
X354078Y262980D01*
X351928D01*
X351834Y263451D01*
X351480Y263980D01*
X351233Y264146D01*
X351384Y264646D01*
X352780D01*
Y265727D01*
X350500D01*
Y266227D01*
Y267427D01*
X352780D01*
Y268500D01*
X353279Y268767D01*
X353417Y268675D01*
X353961Y268567D01*
X354935D01*
Y269988D01*
X356135D01*
Y268567D01*
D02*
G37*
G36*
X401602Y267954D02*
X401662Y267930D01*
X401734Y267908D01*
X401817Y267889D01*
X401912Y267873D01*
X402135Y267850D01*
X402404Y267839D01*
X402555Y267837D01*
Y267037D01*
X402404Y267036D01*
X401912Y267001D01*
X401817Y266985D01*
X401734Y266966D01*
X401662Y266944D01*
X401602Y266920D01*
X401552Y266892D01*
Y267982D01*
X401602Y267954D01*
D02*
G37*
G36*
X427693Y268087D02*
X427625Y268062D01*
X427564Y268022D01*
X427513Y267965D01*
X427468Y267892D01*
X427432Y267803D01*
X427404Y267697D01*
X427385Y267575D01*
X427373Y267437D01*
X427368Y267283D01*
X426569D01*
X426565Y267437D01*
X426552Y267575D01*
X426533Y267697D01*
X426505Y267803D01*
X426469Y267892D01*
X426425Y267965D01*
X426372Y268022D01*
X426312Y268062D01*
X426244Y268087D01*
X426168Y268095D01*
X427769D01*
X427693Y268087D01*
D02*
G37*
G36*
X441125Y273358D02*
X441170Y273230D01*
X441246Y273117D01*
X441352Y273020D01*
X441488Y272937D01*
X441654Y272870D01*
X441851Y272817D01*
X442077Y272780D01*
X442335Y272758D01*
X442622Y272750D01*
Y271250D01*
X442335Y271242D01*
X442077Y271220D01*
X441851Y271182D01*
X441654Y271130D01*
X441488Y271062D01*
X441352Y270980D01*
X441246Y270883D01*
X441170Y270770D01*
X441125Y270642D01*
X441110Y270500D01*
Y273500D01*
X441125Y273358D01*
D02*
G37*
G36*
X386578Y271882D02*
X386510Y271858D01*
X386450Y271817D01*
X386398Y271760D01*
X386354Y271687D01*
X386318Y271598D01*
X386290Y271492D01*
X386270Y271371D01*
X386258Y271232D01*
X386258Y271232D01*
X386263Y271165D01*
X386275Y271082D01*
X386291Y271004D01*
X386312Y270931D01*
X386337Y270864D01*
X386367Y270801D01*
X386402Y270743D01*
X386441Y270690D01*
X386484Y270643D01*
X385224D01*
X385268Y270690D01*
X385307Y270743D01*
X385342Y270801D01*
X385371Y270864D01*
X385397Y270931D01*
X385418Y271004D01*
X385434Y271082D01*
X385445Y271165D01*
X385450Y271232D01*
X385450Y271232D01*
X385438Y271371D01*
X385418Y271492D01*
X385390Y271598D01*
X385354Y271687D01*
X385310Y271760D01*
X385258Y271817D01*
X385198Y271858D01*
X385130Y271882D01*
X385054Y271890D01*
X386654D01*
X386578Y271882D01*
D02*
G37*
G36*
X389491Y269100D02*
X389426Y269097D01*
X389362Y269088D01*
X389296Y269071D01*
X389231Y269048D01*
X389165Y269018D01*
X389099Y268981D01*
X389032Y268937D01*
X388966Y268887D01*
X388898Y268829D01*
X388831Y268765D01*
X388265Y269331D01*
X388329Y269398D01*
X388387Y269465D01*
X388437Y269532D01*
X388481Y269599D01*
X388518Y269665D01*
X388548Y269731D01*
X388571Y269796D01*
X388588Y269862D01*
X388597Y269926D01*
X388600Y269991D01*
X389491Y269100D01*
D02*
G37*
G36*
X403317Y270393D02*
X403358Y270346D01*
X403406Y270305D01*
X403460Y270269D01*
X403521Y270239D01*
X403588Y270214D01*
X403662Y270195D01*
X403743Y270181D01*
X403830Y270173D01*
X403924Y270170D01*
X403683Y269370D01*
X403589Y269369D01*
X403336Y269347D01*
X403261Y269334D01*
X403126Y269300D01*
X403066Y269278D01*
X403011Y269254D01*
X402960Y269227D01*
X403282Y270445D01*
X403317Y270393D01*
D02*
G37*
G36*
X352450Y275224D02*
X352467Y275156D01*
X352495Y275096D01*
X352533Y275044D01*
X352583Y275000D01*
X352644Y274964D01*
X352717Y274936D01*
X352800Y274916D01*
X352894Y274904D01*
X353000Y274900D01*
Y274100D01*
X352894Y274096D01*
X352800Y274084D01*
X352717Y274064D01*
X352644Y274036D01*
X352583Y274000D01*
X352533Y273956D01*
X352495Y273904D01*
X352467Y273844D01*
X352450Y273776D01*
X352445Y273700D01*
Y275300D01*
X352450Y275224D01*
D02*
G37*
G36*
X376732Y282281D02*
X376850Y282299D01*
X377001Y282331D01*
X377133Y282369D01*
X377248Y282413D01*
X377344Y282462D01*
X377422Y282517D01*
Y281136D01*
X377344Y281192D01*
X377248Y281241D01*
X377133Y281284D01*
X377001Y281322D01*
X376850Y281354D01*
X376732Y281372D01*
Y281027D01*
X376725Y281103D01*
X376700Y281171D01*
X376660Y281231D01*
X376605Y281283D01*
X376533Y281327D01*
X376445Y281363D01*
X376341Y281391D01*
X376220Y281411D01*
X376123Y281419D01*
X375827Y281427D01*
Y282227D01*
X376022Y282229D01*
X376082Y282231D01*
X376091Y282231D01*
X376220Y282243D01*
X376341Y282263D01*
X376445Y282291D01*
X376533Y282327D01*
X376605Y282371D01*
X376660Y282423D01*
X376700Y282483D01*
X376725Y282551D01*
X376732Y282627D01*
Y282281D01*
D02*
G37*
G36*
X343903Y281880D02*
X343929Y281624D01*
X343951Y281520D01*
X343979Y281432D01*
X344014Y281360D01*
X344055Y281304D01*
X344103Y281264D01*
X344156Y281240D01*
X344216Y281232D01*
X342700D01*
X342776Y281240D01*
X342844Y281264D01*
X342904Y281304D01*
X342956Y281360D01*
X343000Y281432D01*
X343036Y281520D01*
X343064Y281624D01*
X343084Y281744D01*
X343096Y281880D01*
X343100Y282032D01*
X343900D01*
X343903Y281880D01*
D02*
G37*
G36*
X379273Y282945D02*
X379290Y282899D01*
X379318Y282859D01*
X379357Y282824D01*
X379407Y282794D01*
X379469Y282770D01*
X379542Y282751D01*
X379625Y282737D01*
X379720Y282729D01*
X379827Y282727D01*
Y280927D01*
X379720Y280924D01*
X379625Y280916D01*
X379542Y280903D01*
X379469Y280884D01*
X379407Y280859D01*
X379357Y280830D01*
X379318Y280795D01*
X379290Y280754D01*
X379273Y280709D01*
X379268Y280658D01*
Y282996D01*
X379273Y282945D01*
D02*
G37*
G36*
X390264Y282551D02*
X390288Y282483D01*
X390329Y282423D01*
X390386Y282371D01*
X390458Y282327D01*
X390548Y282291D01*
X390653Y282263D01*
X390775Y282243D01*
X390913Y282231D01*
X391068Y282227D01*
Y281427D01*
X390913Y281423D01*
X390775Y281411D01*
X390653Y281391D01*
X390548Y281363D01*
X390458Y281327D01*
X390386Y281283D01*
X390329Y281231D01*
X390288Y281171D01*
X390264Y281103D01*
X390255Y281027D01*
Y282627D01*
X390264Y282551D01*
D02*
G37*
G36*
X407732Y281527D02*
X407727Y281603D01*
X407710Y281671D01*
X407682Y281731D01*
X407643Y281783D01*
X407593Y281827D01*
X407531Y281863D01*
X407458Y281891D01*
X407375Y281911D01*
X407279Y281923D01*
X407173Y281927D01*
Y282727D01*
X407279Y282731D01*
X407375Y282743D01*
X407458Y282763D01*
X407531Y282791D01*
X407593Y282827D01*
X407643Y282871D01*
X407682Y282923D01*
X407710Y282983D01*
X407727Y283051D01*
X407732Y283127D01*
Y281527D01*
D02*
G37*
G36*
X410264Y283051D02*
X410288Y282983D01*
X410329Y282923D01*
X410386Y282871D01*
X410459Y282827D01*
X410548Y282791D01*
X410653Y282763D01*
X410775Y282743D01*
X410913Y282731D01*
X411067Y282727D01*
Y281927D01*
X410913Y281923D01*
X410775Y281911D01*
X410653Y281891D01*
X410548Y281863D01*
X410459Y281827D01*
X410386Y281783D01*
X410329Y281731D01*
X410288Y281671D01*
X410264Y281603D01*
X410255Y281527D01*
Y283127D01*
X410264Y283051D01*
D02*
G37*
G36*
X348963Y281854D02*
X348974Y281724D01*
X348993Y281608D01*
X349019Y281508D01*
X349053Y281424D01*
X349094Y281355D01*
X349143Y281301D01*
X349199Y281263D01*
X349263Y281240D01*
X349335Y281232D01*
X347784D01*
X347855Y281240D01*
X347919Y281263D01*
X347975Y281301D01*
X348024Y281355D01*
X348065Y281424D01*
X348099Y281508D01*
X348125Y281608D01*
X348144Y281724D01*
X348155Y281854D01*
X348159Y282000D01*
X348959D01*
X348963Y281854D01*
D02*
G37*
G36*
X356113Y282834D02*
X356076Y282780D01*
X356043Y282721D01*
X356014Y282657D01*
X355990Y282589D01*
X355971Y282515D01*
X355955Y282437D01*
X355944Y282354D01*
X355938Y282265D01*
X355936Y282187D01*
X355939Y282047D01*
X355951Y281909D01*
X355971Y281787D01*
X355999Y281681D01*
X356035Y281592D01*
X356079Y281519D01*
X356131Y281462D01*
X356191Y281421D01*
X356259Y281397D01*
X356335Y281389D01*
X354735D01*
X354811Y281397D01*
X354879Y281421D01*
X354939Y281462D01*
X354991Y281519D01*
X355035Y281592D01*
X355071Y281681D01*
X355099Y281787D01*
X355119Y281909D01*
X355131Y282047D01*
X355135Y282169D01*
X355133Y282230D01*
X355126Y282318D01*
X355114Y282401D01*
X355097Y282478D01*
X355076Y282551D01*
X355049Y282617D01*
X355018Y282679D01*
X354982Y282736D01*
X354941Y282787D01*
X354896Y282833D01*
X356155Y282883D01*
X356113Y282834D01*
D02*
G37*
G36*
X415857Y277326D02*
X415810Y277370D01*
X415757Y277409D01*
X415699Y277444D01*
X415636Y277473D01*
X415569Y277499D01*
X415496Y277519D01*
X415418Y277536D01*
X415335Y277547D01*
X415247Y277554D01*
X415154Y277556D01*
Y278356D01*
X415247Y278359D01*
X415335Y278365D01*
X415418Y278377D01*
X415496Y278393D01*
X415569Y278414D01*
X415636Y278439D01*
X415699Y278469D01*
X415757Y278503D01*
X415810Y278543D01*
X415857Y278586D01*
Y277326D01*
D02*
G37*
G36*
X352029Y278487D02*
X352068Y278440D01*
X352114Y278398D01*
X352167Y278362D01*
X352227Y278331D01*
X352294Y278307D01*
X352367Y278287D01*
X352447Y278273D01*
X352534Y278265D01*
X352628Y278262D01*
X352353Y277462D01*
X352258Y277461D01*
X352005Y277442D01*
X351931Y277430D01*
X351797Y277399D01*
X351738Y277379D01*
X351683Y277357D01*
X351634Y277333D01*
X351996Y278540D01*
X352029Y278487D01*
D02*
G37*
G36*
X376592Y274198D02*
X376544Y274220D01*
X376491Y274239D01*
X376433Y274256D01*
X376370Y274271D01*
X376227Y274294D01*
X376148Y274302D01*
X375879Y274313D01*
X375567Y275113D01*
X375661Y275115D01*
X375748Y275124D01*
X375828Y275138D01*
X375901Y275157D01*
X375967Y275182D01*
X376025Y275213D01*
X376077Y275249D01*
X376122Y275291D01*
X376159Y275339D01*
X376190Y275392D01*
X376592Y274198D01*
D02*
G37*
G36*
X435857Y274370D02*
X435810Y274414D01*
X435757Y274453D01*
X435699Y274487D01*
X435637Y274517D01*
X435569Y274542D01*
X435496Y274563D01*
X435418Y274579D01*
X435335Y274591D01*
X435247Y274598D01*
X435154Y274600D01*
Y275400D01*
X435247Y275402D01*
X435335Y275409D01*
X435418Y275421D01*
X435496Y275437D01*
X435569Y275458D01*
X435637Y275483D01*
X435699Y275513D01*
X435757Y275547D01*
X435810Y275586D01*
X435857Y275630D01*
Y274370D01*
D02*
G37*
G36*
X418637Y279216D02*
X418769Y279102D01*
X418832Y279053D01*
X418957Y278973D01*
X419018Y278941D01*
X419077Y278915D01*
X419135Y278894D01*
X419193Y278879D01*
X418125Y278210D01*
X418136Y278272D01*
X418138Y278335D01*
X418132Y278399D01*
X418118Y278463D01*
X418095Y278528D01*
X418064Y278593D01*
X418025Y278660D01*
X417977Y278727D01*
X417921Y278794D01*
X417857Y278862D01*
X418570Y279280D01*
X418637Y279216D01*
D02*
G37*
G36*
X392910Y280166D02*
X392906Y280237D01*
X392896Y280301D01*
X392878Y280357D01*
X392853Y280406D01*
X392822Y280447D01*
X392783Y280481D01*
X392738Y280507D01*
X392685Y280526D01*
X392626Y280537D01*
X392559Y280541D01*
Y281341D01*
X392626Y281345D01*
X392685Y281356D01*
X392738Y281375D01*
X392783Y281401D01*
X392822Y281435D01*
X392853Y281476D01*
X392878Y281525D01*
X392896Y281581D01*
X392906Y281645D01*
X392910Y281716D01*
Y280166D01*
D02*
G37*
G36*
X393900Y280329D02*
X393850Y280369D01*
X393796Y280405D01*
X393736Y280437D01*
X393672Y280465D01*
X393603Y280488D01*
X393529Y280507D01*
X393451Y280522D01*
X393367Y280533D01*
X393279Y280539D01*
X393186Y280541D01*
X393127Y281341D01*
X393220Y281343D01*
X393308Y281351D01*
X393390Y281363D01*
X393468Y281380D01*
X393539Y281402D01*
X393606Y281429D01*
X393667Y281461D01*
X393722Y281498D01*
X393772Y281540D01*
X393817Y281587D01*
X393900Y280329D01*
D02*
G37*
G36*
X352903Y280426D02*
X352912Y280362D01*
X352929Y280296D01*
X352952Y280231D01*
X352982Y280165D01*
X353019Y280099D01*
X353063Y280032D01*
X353113Y279965D01*
X353171Y279898D01*
X353235Y279831D01*
X352669Y279265D01*
X352602Y279329D01*
X352535Y279387D01*
X352468Y279437D01*
X352401Y279481D01*
X352335Y279518D01*
X352269Y279548D01*
X352204Y279571D01*
X352138Y279588D01*
X352074Y279597D01*
X352009Y279600D01*
X352900Y280491D01*
X352903Y280426D01*
D02*
G37*
%LPC*%
G36*
X414780Y271354D02*
X413100D01*
Y270401D01*
X413156Y270363D01*
X413224Y270339D01*
X413300Y270330D01*
X413100D01*
Y269773D01*
X413767D01*
Y269973D01*
X413775Y269897D01*
X413799Y269829D01*
X413837Y269773D01*
X414780D01*
Y271354D01*
D02*
G37*
%LPD*%
D10*
X397000Y246673D02*
D03*
Y243327D02*
D03*
X382500Y243327D02*
D03*
Y246673D02*
D03*
X407000Y238827D02*
D03*
Y242173D02*
D03*
X405500Y264673D02*
D03*
Y261327D02*
D03*
X375000Y260327D02*
D03*
Y263673D02*
D03*
X350500Y266327D02*
D03*
Y269673D02*
D03*
X380500Y271327D02*
D03*
Y274673D02*
D03*
X412500Y269173D02*
D03*
Y265827D02*
D03*
X418000Y269173D02*
D03*
Y265827D02*
D03*
X407000Y253673D02*
D03*
Y250327D02*
D03*
X383500Y281827D02*
D03*
Y285173D02*
D03*
X378000Y281827D02*
D03*
Y285173D02*
D03*
X353500Y293173D02*
D03*
Y289827D02*
D03*
X359000Y293173D02*
D03*
Y289827D02*
D03*
X409000Y282327D02*
D03*
Y285673D02*
D03*
X414500Y282327D02*
D03*
Y285673D02*
D03*
X420000Y285673D02*
D03*
Y282327D02*
D03*
X389000Y281827D02*
D03*
Y285173D02*
D03*
D11*
X395146Y273500D02*
D03*
X385854D02*
D03*
D12*
X374827Y290500D02*
D03*
X378173D02*
D03*
X343827Y293000D02*
D03*
X347173D02*
D03*
X353673Y261000D02*
D03*
X350327D02*
D03*
D13*
X350500Y274500D02*
D03*
X345500D02*
D03*
D14*
X426000Y284000D02*
D03*
X433000D02*
D03*
X447000D02*
D03*
X440000D02*
D03*
D15*
X369000Y293000D02*
D03*
D16*
X365000D02*
D03*
D17*
X403429Y280941D02*
D03*
Y283500D02*
D03*
Y286059D02*
D03*
X394571D02*
D03*
Y280941D02*
D03*
D18*
X343441Y279571D02*
D03*
X346000D02*
D03*
X348559D02*
D03*
Y288429D02*
D03*
X346000D02*
D03*
X343441D02*
D03*
D19*
X439500Y271646D02*
D03*
Y262354D02*
D03*
D20*
X399260Y259563D02*
D03*
Y261531D02*
D03*
Y263500D02*
D03*
Y265469D02*
D03*
Y267437D02*
D03*
X381740Y259563D02*
D03*
Y261531D02*
D03*
Y263500D02*
D03*
Y265469D02*
D03*
Y267437D02*
D03*
D21*
X430000Y251693D02*
D03*
X426260Y263307D02*
D03*
X433740D02*
D03*
D22*
X426968Y270000D02*
D03*
X433032D02*
D03*
D23*
X358488Y267035D02*
D03*
X360063D02*
D03*
X361638D02*
D03*
X363213D02*
D03*
X364787D02*
D03*
X366362D02*
D03*
X367937D02*
D03*
X369512D02*
D03*
Y283965D02*
D03*
X367937D02*
D03*
X366362D02*
D03*
X364787D02*
D03*
X363213D02*
D03*
X361638D02*
D03*
X360063D02*
D03*
X358488D02*
D03*
D24*
X372465Y269988D02*
D03*
Y271563D02*
D03*
Y273138D02*
D03*
Y274713D02*
D03*
Y276287D02*
D03*
Y277862D02*
D03*
Y279437D02*
D03*
Y281012D02*
D03*
X355535D02*
D03*
Y279437D02*
D03*
Y277862D02*
D03*
Y276287D02*
D03*
Y274713D02*
D03*
Y273138D02*
D03*
Y271563D02*
D03*
Y269988D02*
D03*
D25*
X364000Y275500D02*
D03*
D26*
X363806Y295576D02*
X370932D01*
X371576Y294932D01*
X362424Y294194D02*
X363806Y295576D01*
X362424Y290576D02*
Y294194D01*
X353000Y274500D02*
X353213Y274713D01*
X350500Y274500D02*
X353000D01*
X353213Y274713D02*
X355535D01*
X345500Y271500D02*
Y274500D01*
X348879Y262827D02*
X350327D01*
X347643Y264063D02*
X348879Y262827D01*
X347643Y264063D02*
Y269489D01*
X348327Y270173D01*
X350500D01*
X412500Y271500D02*
X413500Y272500D01*
X403550Y276000D02*
X415628D01*
X401050Y273500D02*
X403550Y276000D01*
X415628D02*
X415672Y275956D01*
X415007Y274500D02*
X415050Y274456D01*
X404172Y274500D02*
X415007D01*
X401172Y271500D02*
X404172Y274500D01*
X415050Y274456D02*
X416733D01*
X433500Y263933D02*
Y264500D01*
Y263933D02*
X433933Y263500D01*
X430500Y267469D02*
Y269000D01*
X430000Y266968D02*
X430500Y267469D01*
X426968Y266968D02*
Y270000D01*
X428500Y275000D02*
X436500D01*
X427000Y273500D02*
X428500Y275000D01*
X379827Y281827D02*
X383500D01*
X415000Y277956D02*
X416500D01*
X414597Y277554D02*
X415000Y277956D01*
X402983Y277554D02*
X414597D01*
X414879Y279956D02*
X417328D01*
X413976Y279053D02*
X414879Y279956D01*
X402361Y279053D02*
X413976D01*
X402429Y277000D02*
X402983Y277554D01*
X419000Y278000D02*
Y278285D01*
X417328Y279956D02*
X419000Y278285D01*
X399000Y273500D02*
X401050D01*
X397550Y277000D02*
X402429D01*
X401808Y278500D02*
X402361Y279053D01*
X398172Y278500D02*
X401808D01*
X369924Y290424D02*
X370932D01*
X367937Y288437D02*
X369924Y290424D01*
X367937Y283965D02*
Y288437D01*
X393032Y262000D02*
X393500Y261531D01*
X392000Y262000D02*
X393032D01*
X382500Y243327D02*
X384673D01*
X386000Y238000D02*
Y242000D01*
X384673Y243327D02*
X386000Y242000D01*
X393594Y246673D02*
X397000D01*
Y243327D02*
X400827D01*
X401334Y243834D01*
Y246500D01*
X426260Y266260D02*
X426968Y266968D01*
X426260Y263307D02*
Y266260D01*
X378437Y259563D02*
X381740D01*
X390063D02*
X399260D01*
X389523Y259023D02*
X390063Y259563D01*
X389523Y252977D02*
Y259023D01*
X381740Y261531D02*
X385469D01*
X388023Y258977D01*
X389000Y238500D02*
X390000Y239500D01*
X391500D02*
X392500Y238500D01*
X388023Y244977D02*
X390000Y243000D01*
Y239500D02*
Y243000D01*
X389523Y245598D02*
X391500Y243621D01*
Y239500D02*
Y243621D01*
X389523Y245598D02*
Y252977D01*
X366362Y273138D02*
X372465D01*
X375673Y271327D02*
X380500D01*
X375500Y271500D02*
X375673Y271327D01*
X372465Y271563D02*
X375437D01*
X372465Y269988D02*
X374512D01*
X375000Y269500D01*
Y263673D02*
Y269500D01*
Y258000D02*
Y260327D01*
X350327Y261000D02*
Y262827D01*
X353423Y271563D02*
X355535D01*
X352033Y270173D02*
X353423Y271563D01*
X350500Y270173D02*
X352033D01*
X353673Y259173D02*
Y261000D01*
X368879Y261500D02*
X369000D01*
X377673Y260327D02*
X378437Y259563D01*
X375000Y260327D02*
X377673D01*
X369512Y267035D02*
X371465D01*
X381740Y263500D02*
X388500D01*
X404827Y242173D02*
X407000D01*
X410500Y252000D02*
X414007D01*
X393500Y261531D02*
X399260D01*
Y265469D02*
X402531D01*
X403673Y261327D02*
X405500D01*
X405500Y261327D01*
Y258000D02*
Y261327D01*
X381740Y265469D02*
Y265500D01*
X392500Y264500D02*
X393500Y263500D01*
X392000Y264500D02*
X392500D01*
X393500Y263500D02*
X399260D01*
X381740Y265500D02*
X387500D01*
X385854Y270000D02*
Y273500D01*
X419007Y257000D02*
Y258993D01*
X433740Y263307D02*
X433933Y263500D01*
X427000Y270031D02*
Y273500D01*
X439500Y262354D02*
Y265000D01*
X441500Y267000D01*
X443500D01*
X418000Y260000D02*
X419007Y258993D01*
X414007Y257000D02*
Y259993D01*
X412500Y261500D02*
X414007Y259993D01*
X418000Y260000D02*
Y265827D01*
X412500Y269173D02*
X418000D01*
X420500Y260172D02*
X422672Y258000D01*
X387523Y254023D02*
X387986Y254486D01*
Y254499D01*
X388002Y254515D01*
Y254586D01*
X388014Y254597D01*
Y254679D01*
X388021Y254686D01*
Y254776D01*
X388023Y254779D01*
Y258977D01*
X387523Y251977D02*
Y254023D01*
Y251977D02*
X387986Y251514D01*
Y251455D02*
Y251514D01*
Y251455D02*
X388002Y251439D01*
Y251368D02*
Y251439D01*
Y251368D02*
X388014Y251356D01*
Y251275D02*
Y251356D01*
Y251275D02*
X388021Y251268D01*
Y251177D02*
Y251268D01*
Y251177D02*
X388023Y251175D01*
Y244977D02*
Y251175D01*
X372000Y242500D02*
X373462Y243962D01*
Y252462D01*
X375000Y254000D01*
X366362Y264017D02*
Y267035D01*
X358488Y264667D02*
Y267035D01*
X360063Y263806D02*
Y267035D01*
X361638Y263259D02*
Y267035D01*
X362507Y256000D02*
Y262007D01*
X363213Y262713D01*
Y267035D01*
X366362Y264017D02*
X368879Y261500D01*
X369000Y263500D02*
X371500D01*
X367937Y264563D02*
X369000Y263500D01*
X367937Y264563D02*
Y267035D01*
X366000Y261500D02*
Y262257D01*
X364862Y263395D02*
X366000Y262257D01*
X364862Y263395D02*
Y266961D01*
X364787Y267035D02*
X364862Y266961D01*
X362507Y248493D02*
Y251000D01*
X363000Y245000D02*
X368500D01*
X358000Y250000D02*
X363000Y245000D01*
X358000Y250000D02*
Y253000D01*
X360500Y262121D02*
X361638Y263259D01*
X360500Y259500D02*
Y262121D01*
X362507Y248493D02*
X363069Y247932D01*
X369932D01*
X371000Y249000D01*
Y259500D01*
X355535Y281012D02*
Y283465D01*
X401827Y250327D02*
X407000D01*
X401334Y249834D02*
X401827Y250327D01*
X401334Y246500D02*
Y249834D01*
X375827Y281827D02*
X378000D01*
X372465Y281012D02*
X375012D01*
X375827Y281827D01*
X375827Y285173D02*
X378000D01*
X374827Y286173D02*
X375827Y285173D01*
X372500Y287000D02*
X374827D01*
Y286173D02*
Y287000D01*
Y290500D01*
X380173Y275500D02*
X380500D01*
X379502Y274673D02*
X380500D01*
X412500Y261500D02*
Y265827D01*
X383500Y285173D02*
X383673Y285000D01*
X385500D01*
X360063Y283965D02*
Y287109D01*
X359000Y288172D02*
Y289827D01*
Y288172D02*
X360063Y287109D01*
X358488Y283965D02*
Y286562D01*
X357550Y287500D02*
X358488Y286562D01*
X353500Y293173D02*
X355500D01*
X377828Y273000D02*
X379502Y274673D01*
X372465Y274713D02*
X376713D01*
X387500Y265500D02*
X389000Y267000D01*
X392000D01*
X381740Y267437D02*
X386937D01*
X389500Y270000D01*
X363213Y283965D02*
Y286787D01*
X362856Y287144D02*
X363213Y286787D01*
X346000Y288429D02*
Y290500D01*
X347173Y291673D01*
Y293000D01*
X343441Y288429D02*
Y290941D01*
X343827Y291327D02*
Y293000D01*
X343441Y290941D02*
X343827Y291327D01*
X346000Y279571D02*
Y282000D01*
X347173Y293000D02*
X347173Y293000D01*
X349500D01*
X343500Y279630D02*
Y284000D01*
X348559Y288429D02*
Y289059D01*
X350000Y290500D01*
X353500Y289827D02*
X355500D01*
X350327Y267000D02*
X350500Y266827D01*
X354000Y256000D02*
X356000D01*
X358000Y258000D01*
Y261743D01*
X360063Y263806D01*
X357321Y263500D02*
X358488Y264667D01*
X356000Y263500D02*
X357321D01*
X350327Y267000D02*
X350500D01*
X415507Y243500D02*
X419007Y247000D01*
X410000Y243500D02*
X415507D01*
X408000Y245500D02*
X410000Y243500D01*
X355500Y288000D02*
Y289827D01*
Y288000D02*
X356000Y287500D01*
X357550D01*
X418000Y265827D02*
X418000Y265827D01*
X394571Y286059D02*
X398500D01*
X389000Y281827D02*
X391673D01*
X392559Y280941D01*
X394571D01*
X385673Y285173D02*
X389000D01*
X403429Y283500D02*
X406000D01*
X407173Y282327D01*
X409000D01*
X406827Y285673D02*
X409000D01*
X403429Y286059D02*
X406441D01*
X406827Y285673D01*
X414500D02*
X416827D01*
X409000Y282327D02*
X414500D01*
X420000D01*
X341500Y293000D02*
X343827D01*
X341500Y293000D02*
X341500Y293000D01*
X420000Y285673D02*
X421827D01*
X422500Y284500D02*
X423000Y284000D01*
X422500Y284500D02*
Y285000D01*
X421827Y285673D02*
X422500Y285000D01*
X423000Y284000D02*
X426000D01*
X433000Y280000D02*
Y284000D01*
X440000Y280000D02*
Y284000D01*
X447000Y280000D02*
Y284000D01*
X405500Y264673D02*
Y267000D01*
X405063Y267437D02*
X405500Y267000D01*
X399260Y267437D02*
X405063D01*
X348559Y279571D02*
Y282000D01*
X349559Y283000D01*
X351000D01*
X420500Y260172D02*
Y270690D01*
X422672Y258000D02*
X427500D01*
X430000Y260500D01*
X402500Y270000D02*
X402730Y269770D01*
X376172Y273000D02*
X377828D01*
X372465Y273138D02*
X376034D01*
X376172Y273000D01*
X372465Y277862D02*
X374577D01*
X372465Y276287D02*
X375162D01*
X376713Y274713D02*
X377000Y275000D01*
X417341Y275969D02*
X422500Y270811D01*
Y261000D02*
Y270811D01*
X374577Y277862D02*
X375215Y278500D01*
X375162Y276287D02*
X376374Y277500D01*
X375215Y278500D02*
X375253D01*
X375753Y279000D01*
X397672D01*
X398172Y278500D01*
X376374Y277500D02*
X397050D01*
X397550Y277000D01*
X395146Y273500D02*
X397146Y271500D01*
X401172D01*
X402730Y269770D02*
X405405D01*
X405173Y265000D02*
X405500Y264673D01*
X405173Y265000D02*
X405500D01*
X403017Y261983D02*
X403673Y261327D01*
X403017Y261983D02*
Y264983D01*
X402531Y265469D02*
X403017Y264983D01*
X418000Y265500D02*
Y265827D01*
X412500Y269173D02*
Y271500D01*
X415672Y275956D02*
X417328D01*
X417341Y275969D01*
X416733Y274456D02*
X420500Y270690D01*
X405405Y269770D02*
X408552Y266623D01*
X407000Y253673D02*
Y256448D01*
X408552Y258000D01*
Y266623D01*
X407000Y253673D02*
X408827D01*
X410500Y252000D01*
X359000Y293173D02*
X360000D01*
X369512Y283965D02*
Y287012D01*
X371000Y288500D01*
X371500Y288000D02*
X372500Y287000D01*
X371000Y288000D02*
X371500D01*
X362424Y290576D02*
X363000Y290000D01*
Y289924D02*
Y290000D01*
X370932Y290424D02*
X371576Y291068D01*
Y294932D01*
X352000Y280500D02*
X353063Y279437D01*
X355535D01*
X351458Y277862D02*
X355535D01*
X351199Y278121D02*
X351458Y277862D01*
D27*
X439854Y272000D02*
X443000D01*
X439500Y271646D02*
X439854Y272000D01*
D28*
X420400Y240900D02*
X425193Y245693D01*
X418070Y240900D02*
X420400D01*
X425193Y245693D02*
Y251693D01*
X407004Y238830D02*
X416000D01*
X418070Y240900D01*
X407000Y238827D02*
X407004Y238830D01*
X379853Y246673D02*
X382500D01*
X379680Y246500D02*
X379853Y246673D01*
X425193Y251693D02*
X430000D01*
X404673Y238827D02*
X407000D01*
X430000Y251693D02*
X432307D01*
X433000Y251000D01*
D29*
X379827Y281827D02*
X380000Y282000D01*
X378000Y281827D02*
X379827D01*
D30*
X366362Y283965D02*
X366400Y284002D01*
X364787Y283965D02*
Y286287D01*
X365000Y286500D01*
X369000Y293000D02*
X369500D01*
X365000Y286500D02*
Y293000D01*
X366400Y284002D02*
Y286400D01*
X366487Y286487D01*
Y290049D01*
X366549D01*
X368500Y292000D01*
X369000Y293000D01*
D31*
X414007Y257000D02*
D03*
D32*
X419007D02*
D03*
X414007Y252000D02*
D03*
X419007D02*
D03*
X414007Y247000D02*
D03*
X419007D02*
D03*
X362507Y256000D02*
D03*
X367507Y251000D02*
D03*
Y256000D02*
D03*
D33*
X362507Y251000D02*
D03*
D34*
X405271Y246500D02*
D03*
X375743D02*
D03*
D35*
X381058Y238035D02*
D03*
X399956D02*
D03*
X381058Y254965D02*
D03*
X399956D02*
D03*
D36*
X345500Y271500D02*
D03*
X413500Y272500D02*
D03*
X433500Y264500D02*
D03*
X430500Y269000D02*
D03*
X443000Y272000D02*
D03*
X436500Y275000D02*
D03*
X429500Y246000D02*
D03*
X418500Y243000D02*
D03*
X394500Y281000D02*
D03*
X392000Y262000D02*
D03*
X395500Y240000D02*
D03*
X389523Y252977D02*
D03*
X389000Y238500D02*
D03*
X392500D02*
D03*
X401334Y246500D02*
D03*
X379680Y246500D02*
D03*
X386000Y238000D02*
D03*
X393460Y246540D02*
D03*
X395428Y252572D02*
D03*
X404673Y238827D02*
D03*
X375000Y258000D02*
D03*
X353673Y259173D02*
D03*
X350327Y262827D02*
D03*
X369000Y261500D02*
D03*
X372000Y242500D02*
D03*
X375000Y254000D02*
D03*
X354000Y256000D02*
D03*
X371500Y267000D02*
D03*
Y263500D02*
D03*
X388500D02*
D03*
X404827Y242173D02*
D03*
X439500Y268000D02*
D03*
X405500Y258000D02*
D03*
X392000Y267000D02*
D03*
Y264500D02*
D03*
X430000Y260500D02*
D03*
X422500Y261000D02*
D03*
X385854Y270000D02*
D03*
X437500Y257500D02*
D03*
X443500Y267000D02*
D03*
X366000Y261500D02*
D03*
X368500Y245000D02*
D03*
X360500Y259500D02*
D03*
X358000Y253500D02*
D03*
X371000Y259500D02*
D03*
X365000Y274000D02*
D03*
X380500Y271327D02*
D03*
X385500Y285000D02*
D03*
X355500Y293173D02*
D03*
X380000Y282000D02*
D03*
X363000Y274000D02*
D03*
X361000D02*
D03*
X389500Y270000D02*
D03*
X362856Y287144D02*
D03*
X346000Y282000D02*
D03*
X343500Y284000D02*
D03*
X349500Y293000D02*
D03*
X350000Y290500D02*
D03*
X341500Y293000D02*
D03*
X356000Y263500D02*
D03*
X415173Y241000D02*
D03*
X408000Y245500D02*
D03*
X354000Y286000D02*
D03*
X410000Y271500D02*
D03*
X423500Y275000D02*
D03*
X433000Y251000D02*
D03*
X398500Y286059D02*
D03*
X409000Y285673D02*
D03*
X416827D02*
D03*
X433000Y280000D02*
D03*
X447000D02*
D03*
X440000D02*
D03*
X377000Y267000D02*
D03*
X351500Y286000D02*
D03*
X351000Y283000D02*
D03*
X383500Y250000D02*
D03*
X402500Y270000D02*
D03*
X399000Y273500D02*
D03*
X377000Y275000D02*
D03*
X399000Y280500D02*
D03*
X419000Y278000D02*
D03*
X422000Y279000D02*
D03*
X405500Y265000D02*
D03*
X412500Y265500D02*
D03*
X416500Y277956D02*
D03*
X418000Y265500D02*
D03*
X407000Y271500D02*
D03*
X360000Y293173D02*
D03*
X371000Y288000D02*
D03*
X363000Y289924D02*
D03*
X352000Y280500D02*
D03*
X351199Y278121D02*
D03*
X355500Y283500D02*
D03*
X356389Y266447D02*
D03*
%TF.MD5,552F67B72D0EC4C7F467EFDC3C32A4B5*%
M02*
