G04 Layer_Color=255*
%FSLAX25Y25*%
%MOIN*%
%TF.FileFunction,Pads,Bot*%
%TF.Part,Single*%
G01*
G75*
%TA.AperFunction,SMDPad*%
%ADD10R,0.02559X0.02362*%
%TA.AperFunction,SMDPad*%
%ADD11R,0.03937X0.03268*%
%TA.AperFunction,SMDPad*%
%ADD12R,0.02362X0.02559*%
%TA.AperFunction,ViaPad*%
%ADD31R,0.03937X0.03937*%
%TA.AperFunction,ViaPad*%
%ADD32C,0.03937*%
%TA.AperFunction,ViaPad*%
%ADD33R,0.03937X0.03937*%
%TA.AperFunction,ViaPad*%
%ADD34R,0.00394X0.00394*%
%TA.AperFunction,ViaPad*%
%ADD35O,0.05906X0.04724*%
%TA.AperFunction,SMDPad*%
%ADD62O,0.01181X0.05315*%
%TA.AperFunction,SMDPad*%
%ADD63R,0.03543X0.05512*%
%TA.AperFunction,SMDPad*%
%ADD64R,0.03150X0.00984*%
%TA.AperFunction,SMDPad*%
%ADD65R,0.01575X0.03543*%
%TA.AperFunction,SMDPad*%
%ADD66R,0.05512X0.04528*%
%TA.AperFunction,SMDPad*%
%ADD67R,0.01181X0.03425*%
D10*
X439500Y271827D02*
D03*
Y275173D02*
D03*
X439500Y262827D02*
D03*
Y266173D02*
D03*
X358000Y274173D02*
D03*
Y270827D02*
D03*
X363500Y270827D02*
D03*
Y274173D02*
D03*
D11*
X385854Y273500D02*
D03*
X395146D02*
D03*
X420232Y268771D02*
D03*
X410941D02*
D03*
D12*
X429173Y249500D02*
D03*
X425827D02*
D03*
X361173Y279500D02*
D03*
X357827D02*
D03*
X347673Y293000D02*
D03*
X344327D02*
D03*
X347673Y274500D02*
D03*
X344327D02*
D03*
X350090Y266103D02*
D03*
X353437D02*
D03*
X415173Y241000D02*
D03*
X411827D02*
D03*
D31*
X414007Y257000D02*
D03*
D32*
X419007D02*
D03*
X414007Y252000D02*
D03*
X419007D02*
D03*
X414007Y247000D02*
D03*
X419007D02*
D03*
X362507Y256000D02*
D03*
X367507Y251000D02*
D03*
Y256000D02*
D03*
D33*
X362507Y251000D02*
D03*
D34*
X405271Y246500D02*
D03*
X375743D02*
D03*
D35*
X381058Y238035D02*
D03*
X399956D02*
D03*
X381058Y254965D02*
D03*
X399956D02*
D03*
D62*
X433937Y255740D02*
D03*
X431968D02*
D03*
X430000D02*
D03*
X428031D02*
D03*
X426063D02*
D03*
X433937Y273260D02*
D03*
X431968D02*
D03*
X430000D02*
D03*
X428031D02*
D03*
X426063D02*
D03*
D63*
X408000Y277000D02*
D03*
D64*
X413669Y279953D02*
D03*
Y277984D02*
D03*
Y276016D02*
D03*
Y274047D02*
D03*
X402331Y279953D02*
D03*
Y277984D02*
D03*
Y276016D02*
D03*
Y274047D02*
D03*
D65*
X346000Y288429D02*
D03*
X343441Y279571D02*
D03*
X348559D02*
D03*
D66*
X376331Y282350D02*
D03*
X367669Y288650D02*
D03*
Y282350D02*
D03*
X376331Y288650D02*
D03*
D67*
X379680Y243095D02*
D03*
Y249906D02*
D03*
X385586Y243095D02*
D03*
X387554D02*
D03*
X389523D02*
D03*
X391491D02*
D03*
X393460D02*
D03*
X395428D02*
D03*
X401334D02*
D03*
X385586Y249906D02*
D03*
X387554D02*
D03*
X389523D02*
D03*
X391491D02*
D03*
X393460D02*
D03*
X395428D02*
D03*
X401334D02*
D03*
%TF.MD5,3D57F9BE9FE83342BC366BD6E7A6668A*%
M02*
