G04 Layer_Color=16711935*
%FSLAX25Y25*%
%MOIN*%
%TF.FileFunction,Soldermask,Bot*%
%TF.Part,Single*%
G01*
G75*
%ADD75R,0.16500X0.17000*%
%TA.AperFunction,SMDPad*%
%ADD79R,0.04461X0.04658*%
%TA.AperFunction,ConnectorPad*%
%ADD80C,0.44882*%
%TA.AperFunction,ViaPad*%
%ADD81R,0.00787X0.00787*%
%TA.AperFunction,ViaPad*%
%ADD82O,0.07487X0.05124*%
%TA.AperFunction,ViaPad*%
%ADD83O,0.08274X0.05124*%
%ADD89C,0.05906*%
%ADD90C,0.10000*%
%ADD91R,0.10000X0.05500*%
%ADD92R,0.14000X0.10000*%
%ADD93R,0.07000X0.10000*%
%TA.AperFunction,SMDPad*%
%ADD94O,0.01142X0.04488*%
%TA.AperFunction,SMDPad*%
%ADD95O,0.04488X0.01142*%
%TA.AperFunction,SMDPad*%
%ADD96R,0.21417X0.21417*%
%TA.AperFunction,SMDPad*%
%ADD97R,0.02802X0.03510*%
%TA.AperFunction,SMDPad*%
%ADD98R,0.02802X0.03195*%
%TA.AperFunction,SMDPad*%
%ADD99R,0.16935X0.09849*%
%TA.AperFunction,SMDPad*%
%ADD100R,0.02795X0.03504*%
%TA.AperFunction,SMDPad*%
%ADD101R,0.04658X0.04461*%
%TA.AperFunction,SMDPad*%
%ADD102R,0.05249X0.07887*%
%TA.AperFunction,SMDPad*%
%ADD103R,0.02762X0.02959*%
%TA.AperFunction,SMDPad*%
%ADD104R,0.05367X0.06587*%
%TA.AperFunction,SMDPad*%
%ADD105R,0.02959X0.02762*%
%TA.AperFunction,SMDPad*%
%ADD106R,0.13398X0.10052*%
%TA.AperFunction,SMDPad*%
%ADD107R,0.05328X0.02572*%
%TA.AperFunction,SMDPad*%
%ADD108R,0.06587X0.05367*%
%TA.AperFunction,SMDPad*%
%ADD109R,0.05721X0.04737*%
%TA.AperFunction,SMDPad*%
%ADD110R,0.04737X0.05721*%
%TA.AperFunction,SMDPad*%
%ADD111R,0.05512X0.01575*%
%TA.AperFunction,SMDPad*%
%ADD112R,0.19501X0.13202*%
%TA.AperFunction,SMDPad*%
%ADD113R,0.04737X0.03162*%
%TA.AperFunction,SMDPad*%
%ADD114R,0.03162X0.04737*%
G36*
X375240Y254162D02*
X375277Y254151D01*
X375311Y254132D01*
X375341Y254108D01*
X375365Y254078D01*
X375384Y254044D01*
X375395Y254006D01*
X375399Y253968D01*
Y251646D01*
X384768D01*
X384806Y251642D01*
X384844Y251631D01*
X384878Y251613D01*
X384908Y251588D01*
X384932Y251558D01*
X384951Y251524D01*
X384962Y251487D01*
X384966Y251448D01*
Y246252D01*
X384962Y246213D01*
X384951Y246176D01*
X384932Y246142D01*
X384908Y246112D01*
X384878Y246087D01*
X384844Y246069D01*
X384806Y246058D01*
X384768Y246054D01*
X368232D01*
X368194Y246058D01*
X368157Y246069D01*
X368123Y246087D01*
X368093Y246112D01*
X368068Y246142D01*
X368050Y246176D01*
X368039Y246213D01*
X368035Y246252D01*
Y249637D01*
X368039Y249676D01*
X368050Y249713D01*
X368068Y249747D01*
X368093Y249777D01*
X368123Y249802D01*
X368157Y249820D01*
X368194Y249831D01*
X368232Y249835D01*
X372602D01*
Y253968D01*
X372605Y254006D01*
X372617Y254044D01*
X372635Y254078D01*
X372659Y254108D01*
X372689Y254132D01*
X372724Y254151D01*
X372761Y254162D01*
X372799Y254166D01*
X375201D01*
X375240Y254162D01*
D02*
G37*
G36*
Y282162D02*
X375277Y282151D01*
X375311Y282132D01*
X375341Y282108D01*
X375365Y282078D01*
X375384Y282044D01*
X375395Y282006D01*
X375399Y281968D01*
Y279646D01*
X384768D01*
X384806Y279643D01*
X384844Y279631D01*
X384878Y279613D01*
X384908Y279588D01*
X384932Y279558D01*
X384951Y279524D01*
X384962Y279487D01*
X384966Y279449D01*
Y274252D01*
X384962Y274213D01*
X384951Y274176D01*
X384932Y274142D01*
X384908Y274112D01*
X384878Y274087D01*
X384844Y274069D01*
X384806Y274058D01*
X384768Y274054D01*
X368232D01*
X368194Y274058D01*
X368157Y274069D01*
X368123Y274087D01*
X368093Y274112D01*
X368068Y274142D01*
X368050Y274176D01*
X368039Y274213D01*
X368035Y274252D01*
Y277637D01*
X368039Y277676D01*
X368050Y277713D01*
X368068Y277747D01*
X368093Y277777D01*
X368123Y277802D01*
X368157Y277820D01*
X368194Y277831D01*
X368232Y277835D01*
X372602D01*
Y281968D01*
X372605Y282006D01*
X372617Y282044D01*
X372635Y282078D01*
X372659Y282108D01*
X372689Y282132D01*
X372724Y282151D01*
X372761Y282162D01*
X372799Y282166D01*
X375201D01*
X375240Y282162D01*
D02*
G37*
D75*
X308750Y345000D02*
D03*
X374250Y355000D02*
D03*
D79*
X345031Y374000D02*
D03*
X338968D02*
D03*
X345031Y366500D02*
D03*
X338968D02*
D03*
X338968Y359000D02*
D03*
X345031D02*
D03*
D80*
X362201Y308701D02*
D03*
D81*
X293441Y320079D02*
D03*
Y297323D02*
D03*
D82*
X279071Y291693D02*
D03*
Y325709D02*
D03*
D83*
X295528D02*
D03*
Y291693D02*
D03*
D89*
X275209Y283561D02*
G03*
X275141Y333603I86991J25140D01*
G01*
D90*
X392500Y241000D02*
X403000D01*
X413500Y251500D01*
Y265500D01*
D91*
Y268250D02*
D03*
D92*
X395000Y268500D02*
D03*
D93*
X391000Y241000D02*
D03*
D94*
X322673Y274476D02*
D03*
X324642D02*
D03*
X326610D02*
D03*
X328579D02*
D03*
X330547D02*
D03*
X332516D02*
D03*
X334484D02*
D03*
X336453D02*
D03*
X338421D02*
D03*
X340390D02*
D03*
X342358D02*
D03*
X344327D02*
D03*
Y246524D02*
D03*
X342358D02*
D03*
X340390D02*
D03*
X338421D02*
D03*
X336453D02*
D03*
X334484D02*
D03*
X332516D02*
D03*
X330547D02*
D03*
X328579D02*
D03*
X326610D02*
D03*
X324642D02*
D03*
X322673D02*
D03*
D95*
X347476Y271327D02*
D03*
Y269358D02*
D03*
Y267390D02*
D03*
Y265421D02*
D03*
Y263453D02*
D03*
Y261484D02*
D03*
Y259516D02*
D03*
Y257547D02*
D03*
Y255579D02*
D03*
Y253610D02*
D03*
Y251642D02*
D03*
Y249673D02*
D03*
X319524D02*
D03*
Y251642D02*
D03*
Y253610D02*
D03*
Y255579D02*
D03*
Y257547D02*
D03*
Y259516D02*
D03*
Y261484D02*
D03*
Y263453D02*
D03*
Y265421D02*
D03*
Y267390D02*
D03*
Y269358D02*
D03*
Y271327D02*
D03*
D96*
X333500Y260500D02*
D03*
D97*
X378993Y280413D02*
D03*
X384295D02*
D03*
X378993Y252413D02*
D03*
X384295D02*
D03*
D98*
X368705Y280571D02*
D03*
Y259430D02*
D03*
X373990D02*
D03*
X378990D02*
D03*
X384295D02*
D03*
X368705Y252571D02*
D03*
Y231430D02*
D03*
X373990D02*
D03*
X378990D02*
D03*
X384295D02*
D03*
D99*
X376490Y268406D02*
D03*
Y240406D02*
D03*
D100*
X374000Y280413D02*
D03*
Y252413D02*
D03*
D101*
X360000Y266032D02*
D03*
Y259968D02*
D03*
Y243969D02*
D03*
Y250031D02*
D03*
X384000Y376031D02*
D03*
Y369969D02*
D03*
D102*
X360366Y231500D02*
D03*
X348634D02*
D03*
X321634Y292500D02*
D03*
X333366D02*
D03*
D103*
X342327Y240000D02*
D03*
X345673D02*
D03*
X351327D02*
D03*
X354673D02*
D03*
X337173Y240000D02*
D03*
X333827D02*
D03*
X308673Y259500D02*
D03*
X305327D02*
D03*
X308673Y254000D02*
D03*
X305327D02*
D03*
X308673Y265000D02*
D03*
X305327D02*
D03*
X308673Y248500D02*
D03*
X305327D02*
D03*
X344827Y279500D02*
D03*
X348173D02*
D03*
X395673Y383000D02*
D03*
X392327D02*
D03*
X386673D02*
D03*
X383327D02*
D03*
X318673Y360500D02*
D03*
X315327D02*
D03*
D104*
X333496Y232500D02*
D03*
X340504D02*
D03*
X313504Y293000D02*
D03*
X306496D02*
D03*
X313504Y283500D02*
D03*
X306496D02*
D03*
D105*
X355000Y277673D02*
D03*
Y274327D02*
D03*
X360500Y274327D02*
D03*
Y277673D02*
D03*
X326500Y236673D02*
D03*
Y233327D02*
D03*
X389500Y339673D02*
D03*
Y336327D02*
D03*
X309000Y368827D02*
D03*
Y372173D02*
D03*
X292000Y267682D02*
D03*
Y264336D02*
D03*
X411000Y374173D02*
D03*
Y370827D02*
D03*
X405000Y374173D02*
D03*
Y370827D02*
D03*
X377500Y372673D02*
D03*
Y369327D02*
D03*
X377500Y378327D02*
D03*
Y381673D02*
D03*
X314500Y372173D02*
D03*
Y368827D02*
D03*
D106*
X317000Y304394D02*
D03*
Y328606D02*
D03*
X407500Y337394D02*
D03*
Y361606D02*
D03*
D107*
X316260Y352500D02*
D03*
Y347500D02*
D03*
Y342500D02*
D03*
Y337500D02*
D03*
X293740Y352500D02*
D03*
Y347500D02*
D03*
Y342500D02*
D03*
Y337500D02*
D03*
X366740Y347500D02*
D03*
Y352500D02*
D03*
Y357500D02*
D03*
Y362500D02*
D03*
X389260Y347500D02*
D03*
Y352500D02*
D03*
Y357500D02*
D03*
Y362500D02*
D03*
D108*
X425500Y346004D02*
D03*
Y338996D02*
D03*
X326000Y351496D02*
D03*
Y358504D02*
D03*
D109*
X293693Y274000D02*
D03*
X305307D02*
D03*
D110*
X298500Y256193D02*
D03*
Y267807D02*
D03*
D111*
X298087Y295512D02*
D03*
Y296693D02*
D03*
Y298662D02*
D03*
X298087Y299843D02*
D03*
X298087Y301811D02*
D03*
Y303780D02*
D03*
Y305748D02*
D03*
Y307717D02*
D03*
Y309685D02*
D03*
Y311654D02*
D03*
Y315591D02*
D03*
X298086Y317559D02*
D03*
Y318741D02*
D03*
X298087Y320709D02*
D03*
Y321890D02*
D03*
Y313621D02*
D03*
D112*
X414000Y280346D02*
D03*
Y323654D02*
D03*
D113*
X399724Y376740D02*
D03*
Y373000D02*
D03*
Y369260D02*
D03*
X390276D02*
D03*
Y376740D02*
D03*
D114*
X321760Y365587D02*
D03*
X329240D02*
D03*
Y376413D02*
D03*
X325500D02*
D03*
X321760D02*
D03*
X369740Y369776D02*
D03*
X366000D02*
D03*
X362260D02*
D03*
Y379224D02*
D03*
X369740D02*
D03*
%TF.MD5,0C7A00C395625FFB4D327EF335257DF3*%
M02*
