G04 Layer_Physical_Order=2*
G04 Layer_Color=32768*
%FSLAX25Y25*%
%MOIN*%
%TF.FileFunction,Copper,L2,Inr,Plane*%
%TF.Part,Single*%
G01*
G75*
%ADD11C,0.01000*%
%ADD17C,0.04000*%
%ADD18R,0.07500X0.06500*%
%ADD19R,0.01500X0.02500*%
%ADD20R,0.03000X0.01000*%
%ADD21R,0.03500X0.02000*%
%ADD22R,0.03000X0.02000*%
%ADD23R,0.03279X0.01000*%
%ADD24R,0.02779X0.01000*%
%ADD25R,0.03000X0.02500*%
%ADD26R,0.04500X0.01000*%
%ADD27R,0.05000X0.06500*%
%ADD28R,0.43000X0.35500*%
%ADD29R,0.29500X0.08000*%
%ADD30R,0.01500X0.01000*%
%ADD31R,0.03500X0.35500*%
%TA.AperFunction,ConnectorPad*%
%ADD32C,0.33128*%
%TA.AperFunction,ViaPad*%
%ADD33C,0.06356*%
%TA.AperFunction,ViaPad*%
%ADD34C,0.04600*%
D11*
X357000Y228705D02*
Y254500D01*
Y228705D02*
X358215Y227490D01*
X367808D01*
X368149Y227149D01*
X367808Y227490D02*
X368990Y226308D01*
X357000Y241000D02*
X364500D01*
Y254000D01*
X366000Y255500D01*
X368500D01*
X368149Y227149D02*
X370000Y229000D01*
X374000Y233000D01*
Y236500D01*
X383000Y245500D01*
X386000D01*
Y254500D01*
X371500D02*
X386000D01*
X370500Y255500D02*
X371500Y254500D01*
X368500Y255500D02*
X370500D01*
X319500Y288500D02*
Y293000D01*
Y288500D02*
X325500Y282500D01*
X338779D01*
X340500Y280779D01*
Y277779D02*
Y280779D01*
Y277779D02*
X341279Y277000D01*
X345000D01*
X346000Y278000D01*
Y280500D01*
X341000Y285500D02*
X346000Y280500D01*
X327500Y285500D02*
X341000D01*
X323500Y289500D02*
X327500Y285500D01*
X323500Y289500D02*
Y293000D01*
X322500Y294000D02*
X323500Y293000D01*
X320500Y294000D02*
X322500D01*
X319500Y293000D02*
X320500Y294000D01*
X330000Y285500D02*
Y294500D01*
X331500Y296000D01*
X345000D01*
X353500Y287500D01*
X385000D01*
X386010Y286490D01*
Y275010D02*
Y286490D01*
X385000Y274000D02*
X386010Y275010D01*
X365500Y274000D02*
X385000D01*
X361500Y278000D02*
X365500Y274000D01*
X346000Y278000D02*
X361500D01*
X368990Y222269D02*
Y226308D01*
X367221Y220500D02*
X368990Y222269D01*
X353000Y220500D02*
X367221D01*
X349500Y224000D02*
X353000Y220500D01*
X345500Y224000D02*
X349500D01*
X343500Y226000D02*
X345500Y224000D01*
X343500Y226000D02*
Y276500D01*
X357000Y254500D02*
X365500Y263000D01*
X394000D01*
X400000Y269000D01*
Y303500D01*
X403000Y306500D01*
X437500D01*
X438500Y307500D01*
Y320500D01*
X384000D02*
X438500D01*
X353000Y216759D02*
Y220500D01*
Y219500D02*
Y220500D01*
D17*
X362201Y401221D02*
G03*
X269681Y308701I0J-92520D01*
G01*
X454720D02*
G03*
X362201Y401221I-92520J0D01*
G01*
Y216181D02*
G03*
X454720Y308701I0J92520D01*
G01*
X269681D02*
G03*
X362201Y216181I92520J0D01*
G01*
D18*
X360750Y244250D02*
D03*
D19*
X350750Y291750D02*
D03*
D20*
X351000Y291500D02*
D03*
D21*
X350250Y293000D02*
D03*
D22*
X348500Y294000D02*
D03*
D23*
X348360Y294500D02*
D03*
X354860Y288000D02*
D03*
D24*
X347111Y295500D02*
D03*
D25*
X349500Y294750D02*
D03*
D26*
X354750Y289000D02*
D03*
D27*
X353500Y292750D02*
D03*
D28*
X363500Y313750D02*
D03*
D29*
X370250Y292000D02*
D03*
D30*
X343250Y296000D02*
D03*
D31*
X340250Y313750D02*
D03*
D32*
X362201Y308701D02*
D03*
D33*
X293441Y320079D02*
D03*
Y297323D02*
D03*
D34*
X321500Y238500D02*
D03*
X317500Y241500D02*
D03*
X316000Y244000D02*
D03*
X319500Y236500D02*
D03*
X314500Y250500D02*
D03*
X313000Y253000D02*
D03*
X364500Y254000D02*
D03*
X368500Y255500D02*
D03*
X364500Y241000D02*
D03*
X359500Y228500D02*
D03*
X361500D02*
D03*
X363500D02*
D03*
X365500D02*
D03*
X360000Y243969D02*
D03*
X302500Y312500D02*
D03*
Y309500D02*
D03*
X294000Y304000D02*
D03*
X308673Y262673D02*
D03*
X347000Y274000D02*
D03*
X340390Y278610D02*
D03*
X299500Y299500D02*
D03*
X296500D02*
D03*
X299500Y318000D02*
D03*
X297000D02*
D03*
X290500Y313500D02*
D03*
Y311500D02*
D03*
X288500D02*
D03*
X290500Y299000D02*
D03*
X288500D02*
D03*
X290500Y301000D02*
D03*
X288500D02*
D03*
X290500Y303000D02*
D03*
X288500D02*
D03*
X290500Y305000D02*
D03*
X288500D02*
D03*
X297000Y347000D02*
D03*
X316500Y356500D02*
D03*
X298000Y279000D02*
D03*
X299500Y264500D02*
D03*
Y274500D02*
D03*
Y266500D02*
D03*
X301500Y272500D02*
D03*
X299500D02*
D03*
X297500Y266500D02*
D03*
Y264500D02*
D03*
X301500Y274500D02*
D03*
X310500Y273000D02*
D03*
X332500Y365500D02*
D03*
Y369500D02*
D03*
X349500Y381500D02*
D03*
X358500Y370000D02*
D03*
X343000Y354000D02*
D03*
X290500Y315500D02*
D03*
X288500Y313500D02*
D03*
X290500Y317500D02*
D03*
X288500Y315500D02*
D03*
X353500Y248500D02*
D03*
X288500Y317500D02*
D03*
X292000Y278000D02*
D03*
X321000Y246500D02*
D03*
X395500Y349500D02*
D03*
X397500D02*
D03*
Y347500D02*
D03*
X395500D02*
D03*
X290500Y309500D02*
D03*
X288500D02*
D03*
Y307500D02*
D03*
X290500D02*
D03*
X360000Y267500D02*
D03*
X292000Y264327D02*
D03*
X305000Y370000D02*
D03*
X352500Y366500D02*
D03*
X411000Y370827D02*
D03*
X385000Y379000D02*
D03*
X383000D02*
D03*
X389500Y383000D02*
D03*
X366224Y379224D02*
D03*
X320000Y357000D02*
D03*
X329500Y338500D02*
D03*
X308673Y257000D02*
D03*
X302500Y256500D02*
D03*
X313000Y256000D02*
D03*
X337000Y280000D02*
D03*
X330500Y278500D02*
D03*
X340000Y243000D02*
D03*
X354500Y355000D02*
D03*
X309000Y360000D02*
D03*
X320500Y280025D02*
D03*
X293500Y314000D02*
D03*
%TF.MD5,405511F684E2690588D3F504AF6C28E3*%
M02*
