G04 Layer_Color=2752767*
%FSLAX25Y25*%
%MOIN*%
%TF.FileFunction,Drawing*%
%TF.Part,Single*%
G01*
G75*
%ADD120C,0.00500*%
%ADD121C,0.00667*%
D120*
X360201Y306701D02*
Y310701D01*
X364201D01*
Y306701D01*
X360201D01*
X279071Y289693D02*
X277071Y293693D01*
X281071D01*
X279071Y289693D01*
Y323709D02*
X277071Y327709D01*
X281071D01*
X279071Y323709D01*
X295528Y323709D02*
X296528Y324709D01*
X297528D01*
X296528Y325709D01*
X297528Y326709D01*
X296528D01*
X295528Y327709D01*
X294528Y326709D01*
X293528D01*
X294528Y325709D01*
X293528Y324709D01*
X294528D01*
X295528Y323709D01*
X295528Y289693D02*
X296528Y290693D01*
X297528D01*
X296528Y291693D01*
X297528Y292693D01*
X296528D01*
X295528Y293693D01*
X294528Y292693D01*
X293528D01*
X294528Y291693D01*
X293528Y290693D01*
X294528D01*
X295528Y289693D01*
X306000Y314500D02*
X307000Y316500D01*
X306000Y318500D01*
X308000Y317500D01*
X310000Y318500D01*
X309000Y316500D01*
X310000Y314500D01*
X308000Y315500D01*
X306000Y314500D01*
X334000Y251000D02*
X335000Y253000D01*
X334000Y255000D01*
X336000Y254000D01*
X338000Y255000D01*
X337000Y253000D01*
X338000Y251000D01*
X336000Y252000D01*
X334000Y251000D01*
X336500D02*
X337500Y253000D01*
X336500Y255000D01*
X338500Y254000D01*
X340500Y255000D01*
X339500Y253000D01*
X340500Y251000D01*
X338500Y252000D01*
X336500Y251000D01*
X324000Y253500D02*
X325000Y255500D01*
X324000Y257500D01*
X326000Y256500D01*
X328000Y257500D01*
X327000Y255500D01*
X328000Y253500D01*
X326000Y254500D01*
X324000Y253500D01*
Y256000D02*
X325000Y258000D01*
X324000Y260000D01*
X326000Y259000D01*
X328000Y260000D01*
X327000Y258000D01*
X328000Y256000D01*
X326000Y257000D01*
X324000Y256000D01*
Y258500D02*
X325000Y260500D01*
X324000Y262500D01*
X326000Y261500D01*
X328000Y262500D01*
X327000Y260500D01*
X328000Y258500D01*
X326000Y259500D01*
X324000Y258500D01*
Y266000D02*
X325000Y268000D01*
X324000Y270000D01*
X326000Y269000D01*
X328000Y270000D01*
X327000Y268000D01*
X328000Y266000D01*
X326000Y267000D01*
X324000Y266000D01*
X326500D02*
X327500Y268000D01*
X326500Y270000D01*
X328500Y269000D01*
X330500Y270000D01*
X329500Y268000D01*
X330500Y266000D01*
X328500Y267000D01*
X326500Y266000D01*
X329000D02*
X330000Y268000D01*
X329000Y270000D01*
X331000Y269000D01*
X333000Y270000D01*
X332000Y268000D01*
X333000Y266000D01*
X331000Y267000D01*
X329000Y266000D01*
X331500D02*
X332500Y268000D01*
X331500Y270000D01*
X333500Y269000D01*
X335500Y270000D01*
X334500Y268000D01*
X335500Y266000D01*
X333500Y267000D01*
X331500Y266000D01*
X334000D02*
X335000Y268000D01*
X334000Y270000D01*
X336000Y269000D01*
X338000Y270000D01*
X337000Y268000D01*
X338000Y266000D01*
X336000Y267000D01*
X334000Y266000D01*
X336500D02*
X337500Y268000D01*
X336500Y270000D01*
X338500Y269000D01*
X340500Y270000D01*
X339500Y268000D01*
X340500Y266000D01*
X338500Y267000D01*
X336500Y266000D01*
X324000Y261000D02*
X325000Y263000D01*
X324000Y265000D01*
X326000Y264000D01*
X328000Y265000D01*
X327000Y263000D01*
X328000Y261000D01*
X326000Y262000D01*
X324000Y261000D01*
Y263500D02*
X325000Y265500D01*
X324000Y267500D01*
X326000Y266500D01*
X328000Y267500D01*
X327000Y265500D01*
X328000Y263500D01*
X326000Y264500D01*
X324000Y263500D01*
X319500Y236500D02*
X320500Y238500D01*
X319500Y240500D01*
X321500Y239500D01*
X323500Y240500D01*
X322500Y238500D01*
X323500Y236500D01*
X321500Y237500D01*
X319500Y236500D01*
X313000Y233000D02*
X314000Y235000D01*
X313000Y237000D01*
X315000Y236000D01*
X317000Y237000D01*
X316000Y235000D01*
X317000Y233000D01*
X315000Y234000D01*
X313000Y233000D01*
X316000Y231000D02*
X317000Y233000D01*
X316000Y235000D01*
X318000Y234000D01*
X320000Y235000D01*
X319000Y233000D01*
X320000Y231000D01*
X318000Y232000D01*
X316000Y231000D01*
X315500Y239500D02*
X316500Y241500D01*
X315500Y243500D01*
X317500Y242500D01*
X319500Y243500D01*
X318500Y241500D01*
X319500Y239500D01*
X317500Y240500D01*
X315500Y239500D01*
X309500Y235000D02*
X310500Y237000D01*
X309500Y239000D01*
X311500Y238000D01*
X313500Y239000D01*
X312500Y237000D01*
X313500Y235000D01*
X311500Y236000D01*
X309500Y235000D01*
X420000Y356000D02*
X421000Y358000D01*
X420000Y360000D01*
X422000Y359000D01*
X424000Y360000D01*
X423000Y358000D01*
X424000Y356000D01*
X422000Y357000D01*
X420000Y356000D01*
X314000Y242000D02*
X315000Y244000D01*
X314000Y246000D01*
X316000Y245000D01*
X318000Y246000D01*
X317000Y244000D01*
X318000Y242000D01*
X316000Y243000D01*
X314000Y242000D01*
X306500Y237000D02*
X307500Y239000D01*
X306500Y241000D01*
X308500Y240000D01*
X310500Y241000D01*
X309500Y239000D01*
X310500Y237000D01*
X308500Y238000D01*
X306500Y237000D01*
X317500Y234500D02*
X318500Y236500D01*
X317500Y238500D01*
X319500Y237500D01*
X321500Y238500D01*
X320500Y236500D01*
X321500Y234500D01*
X319500Y235500D01*
X317500Y234500D01*
X341000Y277500D02*
X342000Y279500D01*
X341000Y281500D01*
X343000Y280500D01*
X345000Y281500D01*
X344000Y279500D01*
X345000Y277500D01*
X343000Y278500D01*
X341000Y277500D01*
X312500Y248500D02*
X313500Y250500D01*
X312500Y252500D01*
X314500Y251500D01*
X316500Y252500D01*
X315500Y250500D01*
X316500Y248500D01*
X314500Y249500D01*
X312500Y248500D01*
X303000Y239500D02*
X304000Y241500D01*
X303000Y243500D01*
X305000Y242500D01*
X307000Y243500D01*
X306000Y241500D01*
X307000Y239500D01*
X305000Y240500D01*
X303000Y239500D01*
X311000Y251000D02*
X312000Y253000D01*
X311000Y255000D01*
X313000Y254000D01*
X315000Y255000D01*
X314000Y253000D01*
X315000Y251000D01*
X313000Y252000D01*
X311000Y251000D01*
X300500Y242000D02*
X301500Y244000D01*
X300500Y246000D01*
X302500Y245000D01*
X304500Y246000D01*
X303500Y244000D01*
X304500Y242000D01*
X302500Y243000D01*
X300500Y242000D01*
X368000Y220500D02*
X369000Y222500D01*
X368000Y224500D01*
X370000Y223500D01*
X372000Y224500D01*
X371000Y222500D01*
X372000Y220500D01*
X370000Y221500D01*
X368000Y220500D01*
Y222500D02*
X369000Y224500D01*
X368000Y226500D01*
X370000Y225500D01*
X372000Y226500D01*
X371000Y224500D01*
X372000Y222500D01*
X370000Y223500D01*
X368000Y222500D01*
X374000Y220500D02*
X375000Y222500D01*
X374000Y224500D01*
X376000Y223500D01*
X378000Y224500D01*
X377000Y222500D01*
X378000Y220500D01*
X376000Y221500D01*
X374000Y220500D01*
X382000Y229000D02*
X383000Y231000D01*
X382000Y233000D01*
X384000Y232000D01*
X386000Y233000D01*
X385000Y231000D01*
X386000Y229000D01*
X384000Y230000D01*
X382000Y229000D01*
X384000D02*
X385000Y231000D01*
X384000Y233000D01*
X386000Y232000D01*
X388000Y233000D01*
X387000Y231000D01*
X388000Y229000D01*
X386000Y230000D01*
X384000Y229000D01*
Y231000D02*
X385000Y233000D01*
X384000Y235000D01*
X386000Y234000D01*
X388000Y235000D01*
X387000Y233000D01*
X388000Y231000D01*
X386000Y232000D01*
X384000Y231000D01*
X382000D02*
X383000Y233000D01*
X382000Y235000D01*
X384000Y234000D01*
X386000Y235000D01*
X385000Y233000D01*
X386000Y231000D01*
X384000Y232000D01*
X382000Y231000D01*
X377000Y229000D02*
X378000Y231000D01*
X377000Y233000D01*
X379000Y232000D01*
X381000Y233000D01*
X380000Y231000D01*
X381000Y229000D01*
X379000Y230000D01*
X377000Y229000D01*
Y231000D02*
X378000Y233000D01*
X377000Y235000D01*
X379000Y234000D01*
X381000Y235000D01*
X380000Y233000D01*
X381000Y231000D01*
X379000Y232000D01*
X377000Y231000D01*
X376000Y220500D02*
X377000Y222500D01*
X376000Y224500D01*
X378000Y223500D01*
X380000Y224500D01*
X379000Y222500D01*
X380000Y220500D01*
X378000Y221500D01*
X376000Y220500D01*
X372000D02*
X373000Y222500D01*
X372000Y224500D01*
X374000Y223500D01*
X376000Y224500D01*
X375000Y222500D01*
X376000Y220500D01*
X374000Y221500D01*
X372000Y220500D01*
X368000Y218500D02*
X369000Y220500D01*
X368000Y222500D01*
X370000Y221500D01*
X372000Y222500D01*
X371000Y220500D01*
X372000Y218500D01*
X370000Y219500D01*
X368000Y218500D01*
X390500Y224000D02*
X391500Y226000D01*
X390500Y228000D01*
X392500Y227000D01*
X394500Y228000D01*
X393500Y226000D01*
X394500Y224000D01*
X392500Y225000D01*
X390500Y224000D01*
X365000Y218000D02*
X366000Y220000D01*
X365000Y222000D01*
X367000Y221000D01*
X369000Y222000D01*
X368000Y220000D01*
X369000Y218000D01*
X367000Y219000D01*
X365000Y218000D01*
X361500Y217500D02*
X362500Y219500D01*
X361500Y221500D01*
X363500Y220500D01*
X365500Y221500D01*
X364500Y219500D01*
X365500Y217500D01*
X363500Y218500D01*
X361500Y217500D01*
X358500D02*
X359500Y219500D01*
X358500Y221500D01*
X360500Y220500D01*
X362500Y221500D01*
X361500Y219500D01*
X362500Y217500D01*
X360500Y218500D01*
X358500Y217500D01*
X355500D02*
X356500Y219500D01*
X355500Y221500D01*
X357500Y220500D01*
X359500Y221500D01*
X358500Y219500D01*
X359500Y217500D01*
X357500Y218500D01*
X355500Y217500D01*
X351500Y218000D02*
X352500Y220000D01*
X351500Y222000D01*
X353500Y221000D01*
X355500Y222000D01*
X354500Y220000D01*
X355500Y218000D01*
X353500Y219000D01*
X351500Y218000D01*
X348000Y218500D02*
X349000Y220500D01*
X348000Y222500D01*
X350000Y221500D01*
X352000Y222500D01*
X351000Y220500D01*
X352000Y218500D01*
X350000Y219500D01*
X348000Y218500D01*
X344500Y219000D02*
X345500Y221000D01*
X344500Y223000D01*
X346500Y222000D01*
X348500Y223000D01*
X347500Y221000D01*
X348500Y219000D01*
X346500Y220000D01*
X344500Y219000D01*
X341000Y220000D02*
X342000Y222000D01*
X341000Y224000D01*
X343000Y223000D01*
X345000Y224000D01*
X344000Y222000D01*
X345000Y220000D01*
X343000Y221000D01*
X341000Y220000D01*
X398000Y248500D02*
X399000Y250500D01*
X398000Y252500D01*
X400000Y251500D01*
X402000Y252500D01*
X401000Y250500D01*
X402000Y248500D01*
X400000Y249500D01*
X398000Y248500D01*
X400000Y250500D02*
X401000Y252500D01*
X400000Y254500D01*
X402000Y253500D01*
X404000Y254500D01*
X403000Y252500D01*
X404000Y250500D01*
X402000Y251500D01*
X400000Y250500D01*
X398000D02*
X399000Y252500D01*
X398000Y254500D01*
X400000Y253500D01*
X402000Y254500D01*
X401000Y252500D01*
X402000Y250500D01*
X400000Y251500D01*
X398000Y250500D01*
Y252500D02*
X399000Y254500D01*
X398000Y256500D01*
X400000Y255500D01*
X402000Y256500D01*
X401000Y254500D01*
X402000Y252500D01*
X400000Y253500D01*
X398000Y252500D01*
X400000D02*
X401000Y254500D01*
X400000Y256500D01*
X402000Y255500D01*
X404000Y256500D01*
X403000Y254500D01*
X404000Y252500D01*
X402000Y253500D01*
X400000Y252500D01*
Y254500D02*
X401000Y256500D01*
X400000Y258500D01*
X402000Y257500D01*
X404000Y258500D01*
X403000Y256500D01*
X404000Y254500D01*
X402000Y255500D01*
X400000Y254500D01*
X398000D02*
X399000Y256500D01*
X398000Y258500D01*
X400000Y257500D01*
X402000Y258500D01*
X401000Y256500D01*
X402000Y254500D01*
X400000Y255500D01*
X398000Y254500D01*
X400000Y256500D02*
X401000Y258500D01*
X400000Y260500D01*
X402000Y259500D01*
X404000Y260500D01*
X403000Y258500D01*
X404000Y256500D01*
X402000Y257500D01*
X400000Y256500D01*
X398000D02*
X399000Y258500D01*
X398000Y260500D01*
X400000Y259500D01*
X402000Y260500D01*
X401000Y258500D01*
X402000Y256500D01*
X400000Y257500D01*
X398000Y256500D01*
X348500Y228500D02*
X349500Y230500D01*
X348500Y232500D01*
X350500Y231500D01*
X352500Y232500D01*
X351500Y230500D01*
X352500Y228500D01*
X350500Y229500D01*
X348500Y228500D01*
Y230500D02*
X349500Y232500D01*
X348500Y234500D01*
X350500Y233500D01*
X352500Y234500D01*
X351500Y232500D01*
X352500Y230500D01*
X350500Y231500D01*
X348500Y230500D01*
Y232500D02*
X349500Y234500D01*
X348500Y236500D01*
X350500Y235500D01*
X352500Y236500D01*
X351500Y234500D01*
X352500Y232500D01*
X350500Y233500D01*
X348500Y232500D01*
X346500D02*
X347500Y234500D01*
X346500Y236500D01*
X348500Y235500D01*
X350500Y236500D01*
X349500Y234500D01*
X350500Y232500D01*
X348500Y233500D01*
X346500Y232500D01*
X352500Y226500D02*
X353500Y228500D01*
X352500Y230500D01*
X354500Y229500D01*
X356500Y230500D01*
X355500Y228500D01*
X356500Y226500D01*
X354500Y227500D01*
X352500Y226500D01*
X348500D02*
X349500Y228500D01*
X348500Y230500D01*
X350500Y229500D01*
X352500Y230500D01*
X351500Y228500D01*
X352500Y226500D01*
X350500Y227500D01*
X348500Y226500D01*
X383500Y257000D02*
X384500Y259000D01*
X383500Y261000D01*
X385500Y260000D01*
X387500Y261000D01*
X386500Y259000D01*
X387500Y257000D01*
X385500Y258000D01*
X383500Y257000D01*
X381500D02*
X382500Y259000D01*
X381500Y261000D01*
X383500Y260000D01*
X385500Y261000D01*
X384500Y259000D01*
X385500Y257000D01*
X383500Y258000D01*
X381500Y257000D01*
X377500D02*
X378500Y259000D01*
X377500Y261000D01*
X379500Y260000D01*
X381500Y261000D01*
X380500Y259000D01*
X381500Y257000D01*
X379500Y258000D01*
X377500Y257000D01*
X371000D02*
X372000Y259000D01*
X371000Y261000D01*
X373000Y260000D01*
X375000Y261000D01*
X374000Y259000D01*
X375000Y257000D01*
X373000Y258000D01*
X371000Y257000D01*
X373000D02*
X374000Y259000D01*
X373000Y261000D01*
X375000Y260000D01*
X377000Y261000D01*
X376000Y259000D01*
X377000Y257000D01*
X375000Y258000D01*
X373000Y257000D01*
X370000Y280000D02*
X371000Y282000D01*
X370000Y284000D01*
X372000Y283000D01*
X374000Y284000D01*
X373000Y282000D01*
X374000Y280000D01*
X372000Y281000D01*
X370000Y280000D01*
Y278000D02*
X371000Y280000D01*
X370000Y282000D01*
X372000Y281000D01*
X374000Y282000D01*
X373000Y280000D01*
X374000Y278000D01*
X372000Y279000D01*
X370000Y278000D01*
X372000D02*
X373000Y280000D01*
X372000Y282000D01*
X374000Y281000D01*
X376000Y282000D01*
X375000Y280000D01*
X376000Y278000D01*
X374000Y279000D01*
X372000Y278000D01*
X372000Y279968D02*
X373000Y281968D01*
X372000Y283968D01*
X374000Y282968D01*
X376000Y283968D01*
X375000Y281968D01*
X376000Y279968D01*
X374000Y280968D01*
X372000Y279968D01*
X370000Y276000D02*
X371000Y278000D01*
X370000Y280000D01*
X372000Y279000D01*
X374000Y280000D01*
X373000Y278000D01*
X374000Y276000D01*
X372000Y277000D01*
X370000Y276000D01*
X372000D02*
X373000Y278000D01*
X372000Y280000D01*
X374000Y279000D01*
X376000Y280000D01*
X375000Y278000D01*
X376000Y276000D01*
X374000Y277000D01*
X372000Y276000D01*
X350500Y226500D02*
X351500Y228500D01*
X350500Y230500D01*
X352500Y229500D01*
X354500Y230500D01*
X353500Y228500D01*
X354500Y226500D01*
X352500Y227500D01*
X350500Y226500D01*
X344500Y232500D02*
X345500Y234500D01*
X344500Y236500D01*
X346500Y235500D01*
X348500Y236500D01*
X347500Y234500D01*
X348500Y232500D01*
X346500Y233500D01*
X344500Y232500D01*
X362500Y252000D02*
X363500Y254000D01*
X362500Y256000D01*
X364500Y255000D01*
X366500Y256000D01*
X365500Y254000D01*
X366500Y252000D01*
X364500Y253000D01*
X362500Y252000D01*
X366500Y253500D02*
X367500Y255500D01*
X366500Y257500D01*
X368500Y256500D01*
X370500Y257500D01*
X369500Y255500D01*
X370500Y253500D01*
X368500Y254500D01*
X366500Y253500D01*
X381500Y254500D02*
X382500Y256500D01*
X381500Y258500D01*
X383500Y257500D01*
X385500Y258500D01*
X384500Y256500D01*
X385500Y254500D01*
X383500Y255500D01*
X381500Y254500D01*
X383500D02*
X384500Y256500D01*
X383500Y258500D01*
X385500Y257500D01*
X387500Y258500D01*
X386500Y256500D01*
X387500Y254500D01*
X385500Y255500D01*
X383500Y254500D01*
X386000D02*
X387000Y256500D01*
X386000Y258500D01*
X388000Y257500D01*
X390000Y258500D01*
X389000Y256500D01*
X390000Y254500D01*
X388000Y255500D01*
X386000Y254500D01*
Y252500D02*
X387000Y254500D01*
X386000Y256500D01*
X388000Y255500D01*
X390000Y256500D01*
X389000Y254500D01*
X390000Y252500D01*
X388000Y253500D01*
X386000Y252500D01*
X388000Y254500D02*
X389000Y256500D01*
X388000Y258500D01*
X390000Y257500D01*
X392000Y258500D01*
X391000Y256500D01*
X392000Y254500D01*
X390000Y255500D01*
X388000Y254500D01*
X390000D02*
X391000Y256500D01*
X390000Y258500D01*
X392000Y257500D01*
X394000Y258500D01*
X393000Y256500D01*
X394000Y254500D01*
X392000Y255500D01*
X390000Y254500D01*
X392000D02*
X393000Y256500D01*
X392000Y258500D01*
X394000Y257500D01*
X396000Y258500D01*
X395000Y256500D01*
X396000Y254500D01*
X394000Y255500D01*
X392000Y254500D01*
X388000Y252500D02*
X389000Y254500D01*
X388000Y256500D01*
X390000Y255500D01*
X392000Y256500D01*
X391000Y254500D01*
X392000Y252500D01*
X390000Y253500D01*
X388000Y252500D01*
X390000D02*
X391000Y254500D01*
X390000Y256500D01*
X392000Y255500D01*
X394000Y256500D01*
X393000Y254500D01*
X394000Y252500D01*
X392000Y253500D01*
X390000Y252500D01*
X392000D02*
X393000Y254500D01*
X392000Y256500D01*
X394000Y255500D01*
X396000Y256500D01*
X395000Y254500D01*
X396000Y252500D01*
X394000Y253500D01*
X392000Y252500D01*
Y250500D02*
X393000Y252500D01*
X392000Y254500D01*
X394000Y253500D01*
X396000Y254500D01*
X395000Y252500D01*
X396000Y250500D01*
X394000Y251500D01*
X392000Y250500D01*
X390000D02*
X391000Y252500D01*
X390000Y254500D01*
X392000Y253500D01*
X394000Y254500D01*
X393000Y252500D01*
X394000Y250500D01*
X392000Y251500D01*
X390000Y250500D01*
X388000D02*
X389000Y252500D01*
X388000Y254500D01*
X390000Y253500D01*
X392000Y254500D01*
X391000Y252500D01*
X392000Y250500D01*
X390000Y251500D01*
X388000Y250500D01*
X386000D02*
X387000Y252500D01*
X386000Y254500D01*
X388000Y253500D01*
X390000Y254500D01*
X389000Y252500D01*
X390000Y250500D01*
X388000Y251500D01*
X386000Y250500D01*
Y248500D02*
X387000Y250500D01*
X386000Y252500D01*
X388000Y251500D01*
X390000Y252500D01*
X389000Y250500D01*
X390000Y248500D01*
X388000Y249500D01*
X386000Y248500D01*
X388000D02*
X389000Y250500D01*
X388000Y252500D01*
X390000Y251500D01*
X392000Y252500D01*
X391000Y250500D01*
X392000Y248500D01*
X390000Y249500D01*
X388000Y248500D01*
X390000D02*
X391000Y250500D01*
X390000Y252500D01*
X392000Y251500D01*
X394000Y252500D01*
X393000Y250500D01*
X394000Y248500D01*
X392000Y249500D01*
X390000Y248500D01*
X392000D02*
X393000Y250500D01*
X392000Y252500D01*
X394000Y251500D01*
X396000Y252500D01*
X395000Y250500D01*
X396000Y248500D01*
X394000Y249500D01*
X392000Y248500D01*
X394000D02*
X395000Y250500D01*
X394000Y252500D01*
X396000Y251500D01*
X398000Y252500D01*
X397000Y250500D01*
X398000Y248500D01*
X396000Y249500D01*
X394000Y248500D01*
Y250500D02*
X395000Y252500D01*
X394000Y254500D01*
X396000Y253500D01*
X398000Y254500D01*
X397000Y252500D01*
X398000Y250500D01*
X396000Y251500D01*
X394000Y250500D01*
Y252500D02*
X395000Y254500D01*
X394000Y256500D01*
X396000Y255500D01*
X398000Y256500D01*
X397000Y254500D01*
X398000Y252500D01*
X396000Y253500D01*
X394000Y252500D01*
Y254500D02*
X395000Y256500D01*
X394000Y258500D01*
X396000Y257500D01*
X398000Y258500D01*
X397000Y256500D01*
X398000Y254500D01*
X396000Y255500D01*
X394000Y254500D01*
X396000D02*
X397000Y256500D01*
X396000Y258500D01*
X398000Y257500D01*
X400000Y258500D01*
X399000Y256500D01*
X400000Y254500D01*
X398000Y255500D01*
X396000Y254500D01*
Y252500D02*
X397000Y254500D01*
X396000Y256500D01*
X398000Y255500D01*
X400000Y256500D01*
X399000Y254500D01*
X400000Y252500D01*
X398000Y253500D01*
X396000Y252500D01*
Y250500D02*
X397000Y252500D01*
X396000Y254500D01*
X398000Y253500D01*
X400000Y254500D01*
X399000Y252500D01*
X400000Y250500D01*
X398000Y251500D01*
X396000Y250500D01*
Y248500D02*
X397000Y250500D01*
X396000Y252500D01*
X398000Y251500D01*
X400000Y252500D01*
X399000Y250500D01*
X400000Y248500D01*
X398000Y249500D01*
X396000Y248500D01*
Y246500D02*
X397000Y248500D01*
X396000Y250500D01*
X398000Y249500D01*
X400000Y250500D01*
X399000Y248500D01*
X400000Y246500D01*
X398000Y247500D01*
X396000Y246500D01*
X394000D02*
X395000Y248500D01*
X394000Y250500D01*
X396000Y249500D01*
X398000Y250500D01*
X397000Y248500D01*
X398000Y246500D01*
X396000Y247500D01*
X394000Y246500D01*
X392000D02*
X393000Y248500D01*
X392000Y250500D01*
X394000Y249500D01*
X396000Y250500D01*
X395000Y248500D01*
X396000Y246500D01*
X394000Y247500D01*
X392000Y246500D01*
X390000D02*
X391000Y248500D01*
X390000Y250500D01*
X392000Y249500D01*
X394000Y250500D01*
X393000Y248500D01*
X394000Y246500D01*
X392000Y247500D01*
X390000Y246500D01*
X388000D02*
X389000Y248500D01*
X388000Y250500D01*
X390000Y249500D01*
X392000Y250500D01*
X391000Y248500D01*
X392000Y246500D01*
X390000Y247500D01*
X388000Y246500D01*
X386000D02*
X387000Y248500D01*
X386000Y250500D01*
X388000Y249500D01*
X390000Y250500D01*
X389000Y248500D01*
X390000Y246500D01*
X388000Y247500D01*
X386000Y246500D01*
X396000Y256500D02*
X397000Y258500D01*
X396000Y260500D01*
X398000Y259500D01*
X400000Y260500D01*
X399000Y258500D01*
X400000Y256500D01*
X398000Y257500D01*
X396000Y256500D01*
X394000D02*
X395000Y258500D01*
X394000Y260500D01*
X396000Y259500D01*
X398000Y260500D01*
X397000Y258500D01*
X398000Y256500D01*
X396000Y257500D01*
X394000Y256500D01*
X392000D02*
X393000Y258500D01*
X392000Y260500D01*
X394000Y259500D01*
X396000Y260500D01*
X395000Y258500D01*
X396000Y256500D01*
X394000Y257500D01*
X392000Y256500D01*
X390000D02*
X391000Y258500D01*
X390000Y260500D01*
X392000Y259500D01*
X394000Y260500D01*
X393000Y258500D01*
X394000Y256500D01*
X392000Y257500D01*
X390000Y256500D01*
X388000D02*
X389000Y258500D01*
X388000Y260500D01*
X390000Y259500D01*
X392000Y260500D01*
X391000Y258500D01*
X392000Y256500D01*
X390000Y257500D01*
X388000Y256500D01*
X386000D02*
X387000Y258500D01*
X386000Y260500D01*
X388000Y259500D01*
X390000Y260500D01*
X389000Y258500D01*
X390000Y256500D01*
X388000Y257500D01*
X386000Y256500D01*
X379500Y258500D02*
X380500Y260500D01*
X379500Y262500D01*
X381500Y261500D01*
X383500Y262500D01*
X382500Y260500D01*
X383500Y258500D01*
X381500Y259500D01*
X379500Y258500D01*
Y256500D02*
X380500Y258500D01*
X379500Y260500D01*
X381500Y259500D01*
X383500Y260500D01*
X382500Y258500D01*
X383500Y256500D01*
X381500Y257500D01*
X379500Y256500D01*
Y254500D02*
X380500Y256500D01*
X379500Y258500D01*
X381500Y257500D01*
X383500Y258500D01*
X382500Y256500D01*
X383500Y254500D01*
X381500Y255500D01*
X379500Y254500D01*
X382000Y246000D02*
X383000Y248000D01*
X382000Y250000D01*
X384000Y249000D01*
X386000Y250000D01*
X385000Y248000D01*
X386000Y246000D01*
X384000Y247000D01*
X382000Y246000D01*
Y248000D02*
X383000Y250000D01*
X382000Y252000D01*
X384000Y251000D01*
X386000Y252000D01*
X385000Y250000D01*
X386000Y248000D01*
X384000Y249000D01*
X382000Y248000D01*
X380000D02*
X381000Y250000D01*
X380000Y252000D01*
X382000Y251000D01*
X384000Y252000D01*
X383000Y250000D01*
X384000Y248000D01*
X382000Y249000D01*
X380000Y248000D01*
X378000D02*
X379000Y250000D01*
X378000Y252000D01*
X380000Y251000D01*
X382000Y252000D01*
X381000Y250000D01*
X382000Y248000D01*
X380000Y249000D01*
X378000Y248000D01*
X380000Y246000D02*
X381000Y248000D01*
X380000Y250000D01*
X382000Y249000D01*
X384000Y250000D01*
X383000Y248000D01*
X384000Y246000D01*
X382000Y247000D01*
X380000Y246000D01*
X378000D02*
X379000Y248000D01*
X378000Y250000D01*
X380000Y249000D01*
X382000Y250000D01*
X381000Y248000D01*
X382000Y246000D01*
X380000Y247000D01*
X378000Y246000D01*
X376000Y248000D02*
X377000Y250000D01*
X376000Y252000D01*
X378000Y251000D01*
X380000Y252000D01*
X379000Y250000D01*
X380000Y248000D01*
X378000Y249000D01*
X376000Y248000D01*
Y246000D02*
X377000Y248000D01*
X376000Y250000D01*
X378000Y249000D01*
X380000Y250000D01*
X379000Y248000D01*
X380000Y246000D01*
X378000Y247000D01*
X376000Y246000D01*
X374000D02*
X375000Y248000D01*
X374000Y250000D01*
X376000Y249000D01*
X378000Y250000D01*
X377000Y248000D01*
X378000Y246000D01*
X376000Y247000D01*
X374000Y246000D01*
Y248000D02*
X375000Y250000D01*
X374000Y252000D01*
X376000Y251000D01*
X378000Y252000D01*
X377000Y250000D01*
X378000Y248000D01*
X376000Y249000D01*
X374000Y248000D01*
X372000Y246000D02*
X373000Y248000D01*
X372000Y250000D01*
X374000Y249000D01*
X376000Y250000D01*
X375000Y248000D01*
X376000Y246000D01*
X374000Y247000D01*
X372000Y246000D01*
Y248000D02*
X373000Y250000D01*
X372000Y252000D01*
X374000Y251000D01*
X376000Y252000D01*
X375000Y250000D01*
X376000Y248000D01*
X374000Y249000D01*
X372000Y248000D01*
X370000Y246000D02*
X371000Y248000D01*
X370000Y250000D01*
X372000Y249000D01*
X374000Y250000D01*
X373000Y248000D01*
X374000Y246000D01*
X372000Y247000D01*
X370000Y246000D01*
X368000D02*
X369000Y248000D01*
X368000Y250000D01*
X370000Y249000D01*
X372000Y250000D01*
X371000Y248000D01*
X372000Y246000D01*
X370000Y247000D01*
X368000Y246000D01*
X372000Y226500D02*
X373000Y228500D01*
X372000Y230500D01*
X374000Y229500D01*
X376000Y230500D01*
X375000Y228500D01*
X376000Y226500D01*
X374000Y227500D01*
X372000Y226500D01*
X374000D02*
X375000Y228500D01*
X374000Y230500D01*
X376000Y229500D01*
X378000Y230500D01*
X377000Y228500D01*
X378000Y226500D01*
X376000Y227500D01*
X374000Y226500D01*
X376000D02*
X377000Y228500D01*
X376000Y230500D01*
X378000Y229500D01*
X380000Y230500D01*
X379000Y228500D01*
X380000Y226500D01*
X378000Y227500D01*
X376000Y226500D01*
X378000D02*
X379000Y228500D01*
X378000Y230500D01*
X380000Y229500D01*
X382000Y230500D01*
X381000Y228500D01*
X382000Y226500D01*
X380000Y227500D01*
X378000Y226500D01*
X380000D02*
X381000Y228500D01*
X380000Y230500D01*
X382000Y229500D01*
X384000Y230500D01*
X383000Y228500D01*
X384000Y226500D01*
X382000Y227500D01*
X380000Y226500D01*
X382000D02*
X383000Y228500D01*
X382000Y230500D01*
X384000Y229500D01*
X386000Y230500D01*
X385000Y228500D01*
X386000Y226500D01*
X384000Y227500D01*
X382000Y226500D01*
Y224500D02*
X383000Y226500D01*
X382000Y228500D01*
X384000Y227500D01*
X386000Y228500D01*
X385000Y226500D01*
X386000Y224500D01*
X384000Y225500D01*
X382000Y224500D01*
X380000D02*
X381000Y226500D01*
X380000Y228500D01*
X382000Y227500D01*
X384000Y228500D01*
X383000Y226500D01*
X384000Y224500D01*
X382000Y225500D01*
X380000Y224500D01*
X378000D02*
X379000Y226500D01*
X378000Y228500D01*
X380000Y227500D01*
X382000Y228500D01*
X381000Y226500D01*
X382000Y224500D01*
X380000Y225500D01*
X378000Y224500D01*
X376000D02*
X377000Y226500D01*
X376000Y228500D01*
X378000Y227500D01*
X380000Y228500D01*
X379000Y226500D01*
X380000Y224500D01*
X378000Y225500D01*
X376000Y224500D01*
X374000D02*
X375000Y226500D01*
X374000Y228500D01*
X376000Y227500D01*
X378000Y228500D01*
X377000Y226500D01*
X378000Y224500D01*
X376000Y225500D01*
X374000Y224500D01*
X372000D02*
X373000Y226500D01*
X372000Y228500D01*
X374000Y227500D01*
X376000Y228500D01*
X375000Y226500D01*
X376000Y224500D01*
X374000Y225500D01*
X372000Y224500D01*
Y222500D02*
X373000Y224500D01*
X372000Y226500D01*
X374000Y225500D01*
X376000Y226500D01*
X375000Y224500D01*
X376000Y222500D01*
X374000Y223500D01*
X372000Y222500D01*
X374000D02*
X375000Y224500D01*
X374000Y226500D01*
X376000Y225500D01*
X378000Y226500D01*
X377000Y224500D01*
X378000Y222500D01*
X376000Y223500D01*
X374000Y222500D01*
X376000D02*
X377000Y224500D01*
X376000Y226500D01*
X378000Y225500D01*
X380000Y226500D01*
X379000Y224500D01*
X380000Y222500D01*
X378000Y223500D01*
X376000Y222500D01*
X378000D02*
X379000Y224500D01*
X378000Y226500D01*
X380000Y225500D01*
X382000Y226500D01*
X381000Y224500D01*
X382000Y222500D01*
X380000Y223500D01*
X378000Y222500D01*
X380000D02*
X381000Y224500D01*
X380000Y226500D01*
X382000Y225500D01*
X384000Y226500D01*
X383000Y224500D01*
X384000Y222500D01*
X382000Y223500D01*
X380000Y222500D01*
X382000D02*
X383000Y224500D01*
X382000Y226500D01*
X384000Y225500D01*
X386000Y226500D01*
X385000Y224500D01*
X386000Y222500D01*
X384000Y223500D01*
X382000Y222500D01*
X384000Y224500D02*
X385000Y226500D01*
X384000Y228500D01*
X386000Y227500D01*
X388000Y228500D01*
X387000Y226500D01*
X388000Y224500D01*
X386000Y225500D01*
X384000Y224500D01*
Y226500D02*
X385000Y228500D01*
X384000Y230500D01*
X386000Y229500D01*
X388000Y230500D01*
X387000Y228500D01*
X388000Y226500D01*
X386000Y227500D01*
X384000Y226500D01*
X386000Y224500D02*
X387000Y226500D01*
X386000Y228500D01*
X388000Y227500D01*
X390000Y228500D01*
X389000Y226500D01*
X390000Y224500D01*
X388000Y225500D01*
X386000Y224500D01*
Y226500D02*
X387000Y228500D01*
X386000Y230500D01*
X388000Y229500D01*
X390000Y230500D01*
X389000Y228500D01*
X390000Y226500D01*
X388000Y227500D01*
X386000Y226500D01*
Y228500D02*
X387000Y230500D01*
X386000Y232500D01*
X388000Y231500D01*
X390000Y232500D01*
X389000Y230500D01*
X390000Y228500D01*
X388000Y229500D01*
X386000Y228500D01*
Y230500D02*
X387000Y232500D01*
X386000Y234500D01*
X388000Y233500D01*
X390000Y234500D01*
X389000Y232500D01*
X390000Y230500D01*
X388000Y231500D01*
X386000Y230500D01*
X379500Y229000D02*
X380500Y231000D01*
X379500Y233000D01*
X381500Y232000D01*
X383500Y233000D01*
X382500Y231000D01*
X383500Y229000D01*
X381500Y230000D01*
X379500Y229000D01*
Y231000D02*
X380500Y233000D01*
X379500Y235000D01*
X381500Y234000D01*
X383500Y235000D01*
X382500Y233000D01*
X383500Y231000D01*
X381500Y232000D01*
X379500Y231000D01*
X374500D02*
X375500Y233000D01*
X374500Y235000D01*
X376500Y234000D01*
X378500Y235000D01*
X377500Y233000D01*
X378500Y231000D01*
X376500Y232000D01*
X374500Y231000D01*
Y229000D02*
X375500Y231000D01*
X374500Y233000D01*
X376500Y232000D01*
X378500Y233000D01*
X377500Y231000D01*
X378500Y229000D01*
X376500Y230000D01*
X374500Y229000D01*
X388000Y230500D02*
X389000Y232500D01*
X388000Y234500D01*
X390000Y233500D01*
X392000Y234500D01*
X391000Y232500D01*
X392000Y230500D01*
X390000Y231500D01*
X388000Y230500D01*
Y228500D02*
X389000Y230500D01*
X388000Y232500D01*
X390000Y231500D01*
X392000Y232500D01*
X391000Y230500D01*
X392000Y228500D01*
X390000Y229500D01*
X388000Y228500D01*
Y226500D02*
X389000Y228500D01*
X388000Y230500D01*
X390000Y229500D01*
X392000Y230500D01*
X391000Y228500D01*
X392000Y226500D01*
X390000Y227500D01*
X388000Y226500D01*
Y224500D02*
X389000Y226500D01*
X388000Y228500D01*
X390000Y227500D01*
X392000Y228500D01*
X391000Y226500D01*
X392000Y224500D01*
X390000Y225500D01*
X388000Y224500D01*
X384000Y222500D02*
X385000Y224500D01*
X384000Y226500D01*
X386000Y225500D01*
X388000Y226500D01*
X387000Y224500D01*
X388000Y222500D01*
X386000Y223500D01*
X384000Y222500D01*
X362500Y239000D02*
X363500Y241000D01*
X362500Y243000D01*
X364500Y242000D01*
X366500Y243000D01*
X365500Y241000D01*
X366500Y239000D01*
X364500Y240000D01*
X362500Y239000D01*
X359500Y232500D02*
X360500Y234500D01*
X359500Y236500D01*
X361500Y235500D01*
X363500Y236500D01*
X362500Y234500D01*
X363500Y232500D01*
X361500Y233500D01*
X359500Y232500D01*
X357500D02*
X358500Y234500D01*
X357500Y236500D01*
X359500Y235500D01*
X361500Y236500D01*
X360500Y234500D01*
X361500Y232500D01*
X359500Y233500D01*
X357500Y232500D01*
Y230500D02*
X358500Y232500D01*
X357500Y234500D01*
X359500Y233500D01*
X361500Y234500D01*
X360500Y232500D01*
X361500Y230500D01*
X359500Y231500D01*
X357500Y230500D01*
X359500D02*
X360500Y232500D01*
X359500Y234500D01*
X361500Y233500D01*
X363500Y234500D01*
X362500Y232500D01*
X363500Y230500D01*
X361500Y231500D01*
X359500Y230500D01*
Y228500D02*
X360500Y230500D01*
X359500Y232500D01*
X361500Y231500D01*
X363500Y232500D01*
X362500Y230500D01*
X363500Y228500D01*
X361500Y229500D01*
X359500Y228500D01*
X357500D02*
X358500Y230500D01*
X357500Y232500D01*
X359500Y231500D01*
X361500Y232500D01*
X360500Y230500D01*
X361500Y228500D01*
X359500Y229500D01*
X357500Y228500D01*
Y226500D02*
X358500Y228500D01*
X357500Y230500D01*
X359500Y229500D01*
X361500Y230500D01*
X360500Y228500D01*
X361500Y226500D01*
X359500Y227500D01*
X357500Y226500D01*
X359500D02*
X360500Y228500D01*
X359500Y230500D01*
X361500Y229500D01*
X363500Y230500D01*
X362500Y228500D01*
X363500Y226500D01*
X361500Y227500D01*
X359500Y226500D01*
X361500Y228500D02*
X362500Y230500D01*
X361500Y232500D01*
X363500Y231500D01*
X365500Y232500D01*
X364500Y230500D01*
X365500Y228500D01*
X363500Y229500D01*
X361500Y228500D01*
Y226500D02*
X362500Y228500D01*
X361500Y230500D01*
X363500Y229500D01*
X365500Y230500D01*
X364500Y228500D01*
X365500Y226500D01*
X363500Y227500D01*
X361500Y226500D01*
X363500D02*
X364500Y228500D01*
X363500Y230500D01*
X365500Y229500D01*
X367500Y230500D01*
X366500Y228500D01*
X367500Y226500D01*
X365500Y227500D01*
X363500Y226500D01*
X359500Y234500D02*
X360500Y236500D01*
X359500Y238500D01*
X361500Y237500D01*
X363500Y238500D01*
X362500Y236500D01*
X363500Y234500D01*
X361500Y235500D01*
X359500Y234500D01*
X357500Y236500D02*
X358500Y238500D01*
X357500Y240500D01*
X359500Y239500D01*
X361500Y240500D01*
X360500Y238500D01*
X361500Y236500D01*
X359500Y237500D01*
X357500Y236500D01*
Y234500D02*
X358500Y236500D01*
X357500Y238500D01*
X359500Y237500D01*
X361500Y238500D01*
X360500Y236500D01*
X361500Y234500D01*
X359500Y235500D01*
X357500Y234500D01*
X359500Y236500D02*
X360500Y238500D01*
X359500Y240500D01*
X361500Y239500D01*
X363500Y240500D01*
X362500Y238500D01*
X363500Y236500D01*
X361500Y237500D01*
X359500Y236500D01*
X344500Y224000D02*
X345500Y226000D01*
X344500Y228000D01*
X346500Y227000D01*
X348500Y228000D01*
X347500Y226000D01*
X348500Y224000D01*
X346500Y225000D01*
X344500Y224000D01*
X346500D02*
X347500Y226000D01*
X346500Y228000D01*
X348500Y227000D01*
X350500Y228000D01*
X349500Y226000D01*
X350500Y224000D01*
X348500Y225000D01*
X346500Y224000D01*
X348500D02*
X349500Y226000D01*
X348500Y228000D01*
X350500Y227000D01*
X352500Y228000D01*
X351500Y226000D01*
X352500Y224000D01*
X350500Y225000D01*
X348500Y224000D01*
X344500Y226500D02*
X345500Y228500D01*
X344500Y230500D01*
X346500Y229500D01*
X348500Y230500D01*
X347500Y228500D01*
X348500Y226500D01*
X346500Y227500D01*
X344500Y226500D01*
X346500D02*
X347500Y228500D01*
X346500Y230500D01*
X348500Y229500D01*
X350500Y230500D01*
X349500Y228500D01*
X350500Y226500D01*
X348500Y227500D01*
X346500Y226500D01*
Y228500D02*
X347500Y230500D01*
X346500Y232500D01*
X348500Y231500D01*
X350500Y232500D01*
X349500Y230500D01*
X350500Y228500D01*
X348500Y229500D01*
X346500Y228500D01*
X344500D02*
X345500Y230500D01*
X344500Y232500D01*
X346500Y231500D01*
X348500Y232500D01*
X347500Y230500D01*
X348500Y228500D01*
X346500Y229500D01*
X344500Y228500D01*
X346500Y230500D02*
X347500Y232500D01*
X346500Y234500D01*
X348500Y233500D01*
X350500Y234500D01*
X349500Y232500D01*
X350500Y230500D01*
X348500Y231500D01*
X346500Y230500D01*
X350500Y224000D02*
X351500Y226000D01*
X350500Y228000D01*
X352500Y227000D01*
X354500Y228000D01*
X353500Y226000D01*
X354500Y224000D01*
X352500Y225000D01*
X350500Y224000D01*
X353500Y222000D02*
X354500Y224000D01*
X353500Y226000D01*
X355500Y225000D01*
X357500Y226000D01*
X356500Y224000D01*
X357500Y222000D01*
X355500Y223000D01*
X353500Y222000D01*
X352500Y224000D02*
X353500Y226000D01*
X352500Y228000D01*
X354500Y227000D01*
X356500Y228000D01*
X355500Y226000D01*
X356500Y224000D01*
X354500Y225000D01*
X352500Y224000D01*
X354500D02*
X355500Y226000D01*
X354500Y228000D01*
X356500Y227000D01*
X358500Y228000D01*
X357500Y226000D01*
X358500Y224000D01*
X356500Y225000D01*
X354500Y224000D01*
X357000Y223500D02*
X358000Y225500D01*
X357000Y227500D01*
X359000Y226500D01*
X361000Y227500D01*
X360000Y225500D01*
X361000Y223500D01*
X359000Y224500D01*
X357000Y223500D01*
X360000D02*
X361000Y225500D01*
X360000Y227500D01*
X362000Y226500D01*
X364000Y227500D01*
X363000Y225500D01*
X364000Y223500D01*
X362000Y224500D01*
X360000Y223500D01*
X361500Y222000D02*
X362500Y224000D01*
X361500Y226000D01*
X363500Y225000D01*
X365500Y226000D01*
X364500Y224000D01*
X365500Y222000D01*
X363500Y223000D01*
X361500Y222000D01*
X363000Y223500D02*
X364000Y225500D01*
X363000Y227500D01*
X365000Y226500D01*
X367000Y227500D01*
X366000Y225500D01*
X367000Y223500D01*
X365000Y224500D01*
X363000Y223500D01*
X377500Y254500D02*
X378500Y256500D01*
X377500Y258500D01*
X379500Y257500D01*
X381500Y258500D01*
X380500Y256500D01*
X381500Y254500D01*
X379500Y255500D01*
X377500Y254500D01*
X375000D02*
X376000Y256500D01*
X375000Y258500D01*
X377000Y257500D01*
X379000Y258500D01*
X378000Y256500D01*
X379000Y254500D01*
X377000Y255500D01*
X375000Y254500D01*
X373000D02*
X374000Y256500D01*
X373000Y258500D01*
X375000Y257500D01*
X377000Y258500D01*
X376000Y256500D01*
X377000Y254500D01*
X375000Y255500D01*
X373000Y254500D01*
X371000D02*
X372000Y256500D01*
X371000Y258500D01*
X373000Y257500D01*
X375000Y258500D01*
X374000Y256500D01*
X375000Y254500D01*
X373000Y255500D01*
X371000Y254500D01*
X375000Y257000D02*
X376000Y259000D01*
X375000Y261000D01*
X377000Y260000D01*
X379000Y261000D01*
X378000Y259000D01*
X379000Y257000D01*
X377000Y258000D01*
X375000Y257000D01*
X355500Y222000D02*
X356500Y224000D01*
X355500Y226000D01*
X357500Y225000D01*
X359500Y226000D01*
X358500Y224000D01*
X359500Y222000D01*
X357500Y223000D01*
X355500Y222000D01*
X358500D02*
X359500Y224000D01*
X358500Y226000D01*
X360500Y225000D01*
X362500Y226000D01*
X361500Y224000D01*
X362500Y222000D01*
X360500Y223000D01*
X358500Y222000D01*
X364500D02*
X365500Y224000D01*
X364500Y226000D01*
X366500Y225000D01*
X368500Y226000D01*
X367500Y224000D01*
X368500Y222000D01*
X366500Y223000D01*
X364500Y222000D01*
X424500Y316500D02*
X425500Y318500D01*
X424500Y320500D01*
X426500Y319500D01*
X428500Y320500D01*
X427500Y318500D01*
X428500Y316500D01*
X426500Y317500D01*
X424500Y316500D01*
X426500D02*
X427500Y318500D01*
X426500Y320500D01*
X428500Y319500D01*
X430500Y320500D01*
X429500Y318500D01*
X430500Y316500D01*
X428500Y317500D01*
X426500Y316500D01*
X428500D02*
X429500Y318500D01*
X428500Y320500D01*
X430500Y319500D01*
X432500Y320500D01*
X431500Y318500D01*
X432500Y316500D01*
X430500Y317500D01*
X428500Y316500D01*
X430500D02*
X431500Y318500D01*
X430500Y320500D01*
X432500Y319500D01*
X434500Y320500D01*
X433500Y318500D01*
X434500Y316500D01*
X432500Y317500D01*
X430500Y316500D01*
X432500D02*
X433500Y318500D01*
X432500Y320500D01*
X434500Y319500D01*
X436500Y320500D01*
X435500Y318500D01*
X436500Y316500D01*
X434500Y317500D01*
X432500Y316500D01*
X434500D02*
X435500Y318500D01*
X434500Y320500D01*
X436500Y319500D01*
X438500Y320500D01*
X437500Y318500D01*
X438500Y316500D01*
X436500Y317500D01*
X434500Y316500D01*
Y314500D02*
X435500Y316500D01*
X434500Y318500D01*
X436500Y317500D01*
X438500Y318500D01*
X437500Y316500D01*
X438500Y314500D01*
X436500Y315500D01*
X434500Y314500D01*
X432500D02*
X433500Y316500D01*
X432500Y318500D01*
X434500Y317500D01*
X436500Y318500D01*
X435500Y316500D01*
X436500Y314500D01*
X434500Y315500D01*
X432500Y314500D01*
Y312500D02*
X433500Y314500D01*
X432500Y316500D01*
X434500Y315500D01*
X436500Y316500D01*
X435500Y314500D01*
X436500Y312500D01*
X434500Y313500D01*
X432500Y312500D01*
X434500D02*
X435500Y314500D01*
X434500Y316500D01*
X436500Y315500D01*
X438500Y316500D01*
X437500Y314500D01*
X438500Y312500D01*
X436500Y313500D01*
X434500Y312500D01*
X430500Y314500D02*
X431500Y316500D01*
X430500Y318500D01*
X432500Y317500D01*
X434500Y318500D01*
X433500Y316500D01*
X434500Y314500D01*
X432500Y315500D01*
X430500Y314500D01*
X428500D02*
X429500Y316500D01*
X428500Y318500D01*
X430500Y317500D01*
X432500Y318500D01*
X431500Y316500D01*
X432500Y314500D01*
X430500Y315500D01*
X428500Y314500D01*
X426500D02*
X427500Y316500D01*
X426500Y318500D01*
X428500Y317500D01*
X430500Y318500D01*
X429500Y316500D01*
X430500Y314500D01*
X428500Y315500D01*
X426500Y314500D01*
X424500D02*
X425500Y316500D01*
X424500Y318500D01*
X426500Y317500D01*
X428500Y318500D01*
X427500Y316500D01*
X428500Y314500D01*
X426500Y315500D01*
X424500Y314500D01*
Y312500D02*
X425500Y314500D01*
X424500Y316500D01*
X426500Y315500D01*
X428500Y316500D01*
X427500Y314500D01*
X428500Y312500D01*
X426500Y313500D01*
X424500Y312500D01*
X426500D02*
X427500Y314500D01*
X426500Y316500D01*
X428500Y315500D01*
X430500Y316500D01*
X429500Y314500D01*
X430500Y312500D01*
X428500Y313500D01*
X426500Y312500D01*
X428500D02*
X429500Y314500D01*
X428500Y316500D01*
X430500Y315500D01*
X432500Y316500D01*
X431500Y314500D01*
X432500Y312500D01*
X430500Y313500D01*
X428500Y312500D01*
X430500D02*
X431500Y314500D01*
X430500Y316500D01*
X432500Y315500D01*
X434500Y316500D01*
X433500Y314500D01*
X434500Y312500D01*
X432500Y313500D01*
X430500Y312500D01*
X424500Y310500D02*
X425500Y312500D01*
X424500Y314500D01*
X426500Y313500D01*
X428500Y314500D01*
X427500Y312500D01*
X428500Y310500D01*
X426500Y311500D01*
X424500Y310500D01*
X426500D02*
X427500Y312500D01*
X426500Y314500D01*
X428500Y313500D01*
X430500Y314500D01*
X429500Y312500D01*
X430500Y310500D01*
X428500Y311500D01*
X426500Y310500D01*
X428500D02*
X429500Y312500D01*
X428500Y314500D01*
X430500Y313500D01*
X432500Y314500D01*
X431500Y312500D01*
X432500Y310500D01*
X430500Y311500D01*
X428500Y310500D01*
X430500D02*
X431500Y312500D01*
X430500Y314500D01*
X432500Y313500D01*
X434500Y314500D01*
X433500Y312500D01*
X434500Y310500D01*
X432500Y311500D01*
X430500Y310500D01*
X432500D02*
X433500Y312500D01*
X432500Y314500D01*
X434500Y313500D01*
X436500Y314500D01*
X435500Y312500D01*
X436500Y310500D01*
X434500Y311500D01*
X432500Y310500D01*
X434500D02*
X435500Y312500D01*
X434500Y314500D01*
X436500Y313500D01*
X438500Y314500D01*
X437500Y312500D01*
X438500Y310500D01*
X436500Y311500D01*
X434500Y310500D01*
Y308500D02*
X435500Y310500D01*
X434500Y312500D01*
X436500Y311500D01*
X438500Y312500D01*
X437500Y310500D01*
X438500Y308500D01*
X436500Y309500D01*
X434500Y308500D01*
X432500D02*
X433500Y310500D01*
X432500Y312500D01*
X434500Y311500D01*
X436500Y312500D01*
X435500Y310500D01*
X436500Y308500D01*
X434500Y309500D01*
X432500Y308500D01*
X430500D02*
X431500Y310500D01*
X430500Y312500D01*
X432500Y311500D01*
X434500Y312500D01*
X433500Y310500D01*
X434500Y308500D01*
X432500Y309500D01*
X430500Y308500D01*
X428500D02*
X429500Y310500D01*
X428500Y312500D01*
X430500Y311500D01*
X432500Y312500D01*
X431500Y310500D01*
X432500Y308500D01*
X430500Y309500D01*
X428500Y308500D01*
X426500D02*
X427500Y310500D01*
X426500Y312500D01*
X428500Y311500D01*
X430500Y312500D01*
X429500Y310500D01*
X430500Y308500D01*
X428500Y309500D01*
X426500Y308500D01*
X424500D02*
X425500Y310500D01*
X424500Y312500D01*
X426500Y311500D01*
X428500Y312500D01*
X427500Y310500D01*
X428500Y308500D01*
X426500Y309500D01*
X424500Y308500D01*
Y306500D02*
X425500Y308500D01*
X424500Y310500D01*
X426500Y309500D01*
X428500Y310500D01*
X427500Y308500D01*
X428500Y306500D01*
X426500Y307500D01*
X424500Y306500D01*
X426500D02*
X427500Y308500D01*
X426500Y310500D01*
X428500Y309500D01*
X430500Y310500D01*
X429500Y308500D01*
X430500Y306500D01*
X428500Y307500D01*
X426500Y306500D01*
X428500D02*
X429500Y308500D01*
X428500Y310500D01*
X430500Y309500D01*
X432500Y310500D01*
X431500Y308500D01*
X432500Y306500D01*
X430500Y307500D01*
X428500Y306500D01*
X430500D02*
X431500Y308500D01*
X430500Y310500D01*
X432500Y309500D01*
X434500Y310500D01*
X433500Y308500D01*
X434500Y306500D01*
X432500Y307500D01*
X430500Y306500D01*
X432500D02*
X433500Y308500D01*
X432500Y310500D01*
X434500Y309500D01*
X436500Y310500D01*
X435500Y308500D01*
X436500Y306500D01*
X434500Y307500D01*
X432500Y306500D01*
X434500D02*
X435500Y308500D01*
X434500Y310500D01*
X436500Y309500D01*
X438500Y310500D01*
X437500Y308500D01*
X438500Y306500D01*
X436500Y307500D01*
X434500Y306500D01*
X358000Y241968D02*
X359000Y243969D01*
X358000Y245969D01*
X360000Y244969D01*
X362000Y245969D01*
X361000Y243969D01*
X362000Y241968D01*
X360000Y242969D01*
X358000Y241968D01*
X338000Y291500D02*
X339000Y293500D01*
X338000Y295500D01*
X340000Y294500D01*
X342000Y295500D01*
X341000Y293500D01*
X342000Y291500D01*
X340000Y292500D01*
X338000Y291500D01*
X336000D02*
X337000Y293500D01*
X336000Y295500D01*
X338000Y294500D01*
X340000Y295500D01*
X339000Y293500D01*
X340000Y291500D01*
X338000Y292500D01*
X336000Y291500D01*
X338000Y289500D02*
X339000Y291500D01*
X338000Y293500D01*
X340000Y292500D01*
X342000Y293500D01*
X341000Y291500D01*
X342000Y289500D01*
X340000Y290500D01*
X338000Y289500D01*
Y287500D02*
X339000Y289500D01*
X338000Y291500D01*
X340000Y290500D01*
X342000Y291500D01*
X341000Y289500D01*
X342000Y287500D01*
X340000Y288500D01*
X338000Y287500D01*
Y285500D02*
X339000Y287500D01*
X338000Y289500D01*
X340000Y288500D01*
X342000Y289500D01*
X341000Y287500D01*
X342000Y285500D01*
X340000Y286500D01*
X338000Y285500D01*
X336000Y289500D02*
X337000Y291500D01*
X336000Y293500D01*
X338000Y292500D01*
X340000Y293500D01*
X339000Y291500D01*
X340000Y289500D01*
X338000Y290500D01*
X336000Y289500D01*
Y287500D02*
X337000Y289500D01*
X336000Y291500D01*
X338000Y290500D01*
X340000Y291500D01*
X339000Y289500D01*
X340000Y287500D01*
X338000Y288500D01*
X336000Y287500D01*
X334000D02*
X335000Y289500D01*
X334000Y291500D01*
X336000Y290500D01*
X338000Y291500D01*
X337000Y289500D01*
X338000Y287500D01*
X336000Y288500D01*
X334000Y287500D01*
Y289500D02*
X335000Y291500D01*
X334000Y293500D01*
X336000Y292500D01*
X338000Y293500D01*
X337000Y291500D01*
X338000Y289500D01*
X336000Y290500D01*
X334000Y289500D01*
Y291500D02*
X335000Y293500D01*
X334000Y295500D01*
X336000Y294500D01*
X338000Y295500D01*
X337000Y293500D01*
X338000Y291500D01*
X336000Y292500D01*
X334000Y291500D01*
X332000Y287500D02*
X333000Y289500D01*
X332000Y291500D01*
X334000Y290500D01*
X336000Y291500D01*
X335000Y289500D01*
X336000Y287500D01*
X334000Y288500D01*
X332000Y287500D01*
X330000D02*
X331000Y289500D01*
X330000Y291500D01*
X332000Y290500D01*
X334000Y291500D01*
X333000Y289500D01*
X334000Y287500D01*
X332000Y288500D01*
X330000Y287500D01*
X340000Y285500D02*
X341000Y287500D01*
X340000Y289500D01*
X342000Y288500D01*
X344000Y289500D01*
X343000Y287500D01*
X344000Y285500D01*
X342000Y286500D01*
X340000Y285500D01*
Y287500D02*
X341000Y289500D01*
X340000Y291500D01*
X342000Y290500D01*
X344000Y291500D01*
X343000Y289500D01*
X344000Y287500D01*
X342000Y288500D01*
X340000Y287500D01*
Y289500D02*
X341000Y291500D01*
X340000Y293500D01*
X342000Y292500D01*
X344000Y293500D01*
X343000Y291500D01*
X344000Y289500D01*
X342000Y290500D01*
X340000Y289500D01*
X342000Y287500D02*
X343000Y289500D01*
X342000Y291500D01*
X344000Y290500D01*
X346000Y291500D01*
X345000Y289500D01*
X346000Y287500D01*
X344000Y288500D01*
X342000Y287500D01*
Y285500D02*
X343000Y287500D01*
X342000Y289500D01*
X344000Y288500D01*
X346000Y289500D01*
X345000Y287500D01*
X346000Y285500D01*
X344000Y286500D01*
X342000Y285500D01*
X374000Y276000D02*
X375000Y278000D01*
X374000Y280000D01*
X376000Y279000D01*
X378000Y280000D01*
X377000Y278000D01*
X378000Y276000D01*
X376000Y277000D01*
X374000Y276000D01*
X376000D02*
X377000Y278000D01*
X376000Y280000D01*
X378000Y279000D01*
X380000Y280000D01*
X379000Y278000D01*
X380000Y276000D01*
X378000Y277000D01*
X376000Y276000D01*
X378000D02*
X379000Y278000D01*
X378000Y280000D01*
X380000Y279000D01*
X382000Y280000D01*
X381000Y278000D01*
X382000Y276000D01*
X380000Y277000D01*
X378000Y276000D01*
X380000D02*
X381000Y278000D01*
X380000Y280000D01*
X382000Y279000D01*
X384000Y280000D01*
X383000Y278000D01*
X384000Y276000D01*
X382000Y277000D01*
X380000Y276000D01*
X382000D02*
X383000Y278000D01*
X382000Y280000D01*
X384000Y279000D01*
X386000Y280000D01*
X385000Y278000D01*
X386000Y276000D01*
X384000Y277000D01*
X382000Y276000D01*
Y274000D02*
X383000Y276000D01*
X382000Y278000D01*
X384000Y277000D01*
X386000Y278000D01*
X385000Y276000D01*
X386000Y274000D01*
X384000Y275000D01*
X382000Y274000D01*
X380000D02*
X381000Y276000D01*
X380000Y278000D01*
X382000Y277000D01*
X384000Y278000D01*
X383000Y276000D01*
X384000Y274000D01*
X382000Y275000D01*
X380000Y274000D01*
X378000D02*
X379000Y276000D01*
X378000Y278000D01*
X380000Y277000D01*
X382000Y278000D01*
X381000Y276000D01*
X382000Y274000D01*
X380000Y275000D01*
X378000Y274000D01*
X376000D02*
X377000Y276000D01*
X376000Y278000D01*
X378000Y277000D01*
X380000Y278000D01*
X379000Y276000D01*
X380000Y274000D01*
X378000Y275000D01*
X376000Y274000D01*
X374000D02*
X375000Y276000D01*
X374000Y278000D01*
X376000Y277000D01*
X378000Y278000D01*
X377000Y276000D01*
X378000Y274000D01*
X376000Y275000D01*
X374000Y274000D01*
X372000D02*
X373000Y276000D01*
X372000Y278000D01*
X374000Y277000D01*
X376000Y278000D01*
X375000Y276000D01*
X376000Y274000D01*
X374000Y275000D01*
X372000Y274000D01*
X370000D02*
X371000Y276000D01*
X370000Y278000D01*
X372000Y277000D01*
X374000Y278000D01*
X373000Y276000D01*
X374000Y274000D01*
X372000Y275000D01*
X370000Y274000D01*
X368000D02*
X369000Y276000D01*
X368000Y278000D01*
X370000Y277000D01*
X372000Y278000D01*
X371000Y276000D01*
X372000Y274000D01*
X370000Y275000D01*
X368000Y274000D01*
X300500Y310500D02*
X301500Y312500D01*
X300500Y314500D01*
X302500Y313500D01*
X304500Y314500D01*
X303500Y312500D01*
X304500Y310500D01*
X302500Y311500D01*
X300500Y310500D01*
Y307500D02*
X301500Y309500D01*
X300500Y311500D01*
X302500Y310500D01*
X304500Y311500D01*
X303500Y309500D01*
X304500Y307500D01*
X302500Y308500D01*
X300500Y307500D01*
X292000Y302000D02*
X293000Y304000D01*
X292000Y306000D01*
X294000Y305000D01*
X296000Y306000D01*
X295000Y304000D01*
X296000Y302000D01*
X294000Y303000D01*
X292000Y302000D01*
X306673Y260673D02*
X307673Y262673D01*
X306673Y264673D01*
X308673Y263673D01*
X310673Y264673D01*
X309673Y262673D01*
X310673Y260673D01*
X308673Y261673D01*
X306673Y260673D01*
X344500Y230500D02*
X345500Y232500D01*
X344500Y234500D01*
X346500Y233500D01*
X348500Y234500D01*
X347500Y232500D01*
X348500Y230500D01*
X346500Y231500D01*
X344500Y230500D01*
X319500Y289000D02*
X320500Y291000D01*
X319500Y293000D01*
X321500Y292000D01*
X323500Y293000D01*
X322500Y291000D01*
X323500Y289000D01*
X321500Y290000D01*
X319500Y289000D01*
X331500Y258500D02*
X332500Y260500D01*
X331500Y262500D01*
X333500Y261500D01*
X335500Y262500D01*
X334500Y260500D01*
X335500Y258500D01*
X333500Y259500D01*
X331500Y258500D01*
X329000D02*
X330000Y260500D01*
X329000Y262500D01*
X331000Y261500D01*
X333000Y262500D01*
X332000Y260500D01*
X333000Y258500D01*
X331000Y259500D01*
X329000Y258500D01*
X334000D02*
X335000Y260500D01*
X334000Y262500D01*
X336000Y261500D01*
X338000Y262500D01*
X337000Y260500D01*
X338000Y258500D01*
X336000Y259500D01*
X334000Y258500D01*
Y261000D02*
X335000Y263000D01*
X334000Y265000D01*
X336000Y264000D01*
X338000Y265000D01*
X337000Y263000D01*
X338000Y261000D01*
X336000Y262000D01*
X334000Y261000D01*
X329000D02*
X330000Y263000D01*
X329000Y265000D01*
X331000Y264000D01*
X333000Y265000D01*
X332000Y263000D01*
X333000Y261000D01*
X331000Y262000D01*
X329000Y261000D01*
X331500D02*
X332500Y263000D01*
X331500Y265000D01*
X333500Y264000D01*
X335500Y265000D01*
X334500Y263000D01*
X335500Y261000D01*
X333500Y262000D01*
X331500Y261000D01*
X329000Y256000D02*
X330000Y258000D01*
X329000Y260000D01*
X331000Y259000D01*
X333000Y260000D01*
X332000Y258000D01*
X333000Y256000D01*
X331000Y257000D01*
X329000Y256000D01*
X331500D02*
X332500Y258000D01*
X331500Y260000D01*
X333500Y259000D01*
X335500Y260000D01*
X334500Y258000D01*
X335500Y256000D01*
X333500Y257000D01*
X331500Y256000D01*
X334000D02*
X335000Y258000D01*
X334000Y260000D01*
X336000Y259000D01*
X338000Y260000D01*
X337000Y258000D01*
X338000Y256000D01*
X336000Y257000D01*
X334000Y256000D01*
Y263500D02*
X335000Y265500D01*
X334000Y267500D01*
X336000Y266500D01*
X338000Y267500D01*
X337000Y265500D01*
X338000Y263500D01*
X336000Y264500D01*
X334000Y263500D01*
X331500D02*
X332500Y265500D01*
X331500Y267500D01*
X333500Y266500D01*
X335500Y267500D01*
X334500Y265500D01*
X335500Y263500D01*
X333500Y264500D01*
X331500Y263500D01*
X329000D02*
X330000Y265500D01*
X329000Y267500D01*
X331000Y266500D01*
X333000Y267500D01*
X332000Y265500D01*
X333000Y263500D01*
X331000Y264500D01*
X329000Y263500D01*
X326500D02*
X327500Y265500D01*
X326500Y267500D01*
X328500Y266500D01*
X330500Y267500D01*
X329500Y265500D01*
X330500Y263500D01*
X328500Y264500D01*
X326500Y263500D01*
Y261000D02*
X327500Y263000D01*
X326500Y265000D01*
X328500Y264000D01*
X330500Y265000D01*
X329500Y263000D01*
X330500Y261000D01*
X328500Y262000D01*
X326500Y261000D01*
X336500D02*
X337500Y263000D01*
X336500Y265000D01*
X338500Y264000D01*
X340500Y265000D01*
X339500Y263000D01*
X340500Y261000D01*
X338500Y262000D01*
X336500Y261000D01*
Y263500D02*
X337500Y265500D01*
X336500Y267500D01*
X338500Y266500D01*
X340500Y267500D01*
X339500Y265500D01*
X340500Y263500D01*
X338500Y264500D01*
X336500Y263500D01*
Y258500D02*
X337500Y260500D01*
X336500Y262500D01*
X338500Y261500D01*
X340500Y262500D01*
X339500Y260500D01*
X340500Y258500D01*
X338500Y259500D01*
X336500Y258500D01*
Y256000D02*
X337500Y258000D01*
X336500Y260000D01*
X338500Y259000D01*
X340500Y260000D01*
X339500Y258000D01*
X340500Y256000D01*
X338500Y257000D01*
X336500Y256000D01*
X326500D02*
X327500Y258000D01*
X326500Y260000D01*
X328500Y259000D01*
X330500Y260000D01*
X329500Y258000D01*
X330500Y256000D01*
X328500Y257000D01*
X326500Y256000D01*
Y258500D02*
X327500Y260500D01*
X326500Y262500D01*
X328500Y261500D01*
X330500Y262500D01*
X329500Y260500D01*
X330500Y258500D01*
X328500Y259500D01*
X326500Y258500D01*
Y253500D02*
X327500Y255500D01*
X326500Y257500D01*
X328500Y256500D01*
X330500Y257500D01*
X329500Y255500D01*
X330500Y253500D01*
X328500Y254500D01*
X326500Y253500D01*
X329000D02*
X330000Y255500D01*
X329000Y257500D01*
X331000Y256500D01*
X333000Y257500D01*
X332000Y255500D01*
X333000Y253500D01*
X331000Y254500D01*
X329000Y253500D01*
X331500D02*
X332500Y255500D01*
X331500Y257500D01*
X333500Y256500D01*
X335500Y257500D01*
X334500Y255500D01*
X335500Y253500D01*
X333500Y254500D01*
X331500Y253500D01*
X334000D02*
X335000Y255500D01*
X334000Y257500D01*
X336000Y256500D01*
X338000Y257500D01*
X337000Y255500D01*
X338000Y253500D01*
X336000Y254500D01*
X334000Y253500D01*
X336500D02*
X337500Y255500D01*
X336500Y257500D01*
X338500Y256500D01*
X340500Y257500D01*
X339500Y255500D01*
X340500Y253500D01*
X338500Y254500D01*
X336500Y253500D01*
X345000Y272000D02*
X346000Y274000D01*
X345000Y276000D01*
X347000Y275000D01*
X349000Y276000D01*
X348000Y274000D01*
X349000Y272000D01*
X347000Y273000D01*
X345000Y272000D01*
X338390Y276610D02*
X339390Y278610D01*
X338390Y280610D01*
X340390Y279610D01*
X342390Y280610D01*
X341390Y278610D01*
X342390Y276610D01*
X340390Y277610D01*
X338390Y276610D01*
X300000Y324500D02*
X301000Y326500D01*
X300000Y328500D01*
X302000Y327500D01*
X304000Y328500D01*
X303000Y326500D01*
X304000Y324500D01*
X302000Y325500D01*
X300000Y324500D01*
X302000D02*
X303000Y326500D01*
X302000Y328500D01*
X304000Y327500D01*
X306000Y328500D01*
X305000Y326500D01*
X306000Y324500D01*
X304000Y325500D01*
X302000Y324500D01*
X304000D02*
X305000Y326500D01*
X304000Y328500D01*
X306000Y327500D01*
X308000Y328500D01*
X307000Y326500D01*
X308000Y324500D01*
X306000Y325500D01*
X304000Y324500D01*
Y322500D02*
X305000Y324500D01*
X304000Y326500D01*
X306000Y325500D01*
X308000Y326500D01*
X307000Y324500D01*
X308000Y322500D01*
X306000Y323500D01*
X304000Y322500D01*
X302000D02*
X303000Y324500D01*
X302000Y326500D01*
X304000Y325500D01*
X306000Y326500D01*
X305000Y324500D01*
X306000Y322500D01*
X304000Y323500D01*
X302000Y322500D01*
X300000D02*
X301000Y324500D01*
X300000Y326500D01*
X302000Y325500D01*
X304000Y326500D01*
X303000Y324500D01*
X304000Y322500D01*
X302000Y323500D01*
X300000Y322500D01*
X302000Y320500D02*
X303000Y322500D01*
X302000Y324500D01*
X304000Y323500D01*
X306000Y324500D01*
X305000Y322500D01*
X306000Y320500D01*
X304000Y321500D01*
X302000Y320500D01*
X304000D02*
X305000Y322500D01*
X304000Y324500D01*
X306000Y323500D01*
X308000Y324500D01*
X307000Y322500D01*
X308000Y320500D01*
X306000Y321500D01*
X304000Y320500D01*
X306000Y322500D02*
X307000Y324500D01*
X306000Y326500D01*
X308000Y325500D01*
X310000Y326500D01*
X309000Y324500D01*
X310000Y322500D01*
X308000Y323500D01*
X306000Y322500D01*
Y324500D02*
X307000Y326500D01*
X306000Y328500D01*
X308000Y327500D01*
X310000Y328500D01*
X309000Y326500D01*
X310000Y324500D01*
X308000Y325500D01*
X306000Y324500D01*
Y326500D02*
X307000Y328500D01*
X306000Y330500D01*
X308000Y329500D01*
X310000Y330500D01*
X309000Y328500D01*
X310000Y326500D01*
X308000Y327500D01*
X306000Y326500D01*
X304000D02*
X305000Y328500D01*
X304000Y330500D01*
X306000Y329500D01*
X308000Y330500D01*
X307000Y328500D01*
X308000Y326500D01*
X306000Y327500D01*
X304000Y326500D01*
X302000D02*
X303000Y328500D01*
X302000Y330500D01*
X304000Y329500D01*
X306000Y330500D01*
X305000Y328500D01*
X306000Y326500D01*
X304000Y327500D01*
X302000Y326500D01*
X300000D02*
X301000Y328500D01*
X300000Y330500D01*
X302000Y329500D01*
X304000Y330500D01*
X303000Y328500D01*
X304000Y326500D01*
X302000Y327500D01*
X300000Y326500D01*
X306000Y320500D02*
X307000Y322500D01*
X306000Y324500D01*
X308000Y323500D01*
X310000Y324500D01*
X309000Y322500D01*
X310000Y320500D01*
X308000Y321500D01*
X306000Y320500D01*
X302000Y318500D02*
X303000Y320500D01*
X302000Y322500D01*
X304000Y321500D01*
X306000Y322500D01*
X305000Y320500D01*
X306000Y318500D01*
X304000Y319500D01*
X302000Y318500D01*
X304000D02*
X305000Y320500D01*
X304000Y322500D01*
X306000Y321500D01*
X308000Y322500D01*
X307000Y320500D01*
X308000Y318500D01*
X306000Y319500D01*
X304000Y318500D01*
X306000D02*
X307000Y320500D01*
X306000Y322500D01*
X308000Y321500D01*
X310000Y322500D01*
X309000Y320500D01*
X310000Y318500D01*
X308000Y319500D01*
X306000Y318500D01*
X308000Y322500D02*
X309000Y324500D01*
X308000Y326500D01*
X310000Y325500D01*
X312000Y326500D01*
X311000Y324500D01*
X312000Y322500D01*
X310000Y323500D01*
X308000Y322500D01*
Y324500D02*
X309000Y326500D01*
X308000Y328500D01*
X310000Y327500D01*
X312000Y328500D01*
X311000Y326500D01*
X312000Y324500D01*
X310000Y325500D01*
X308000Y324500D01*
Y326500D02*
X309000Y328500D01*
X308000Y330500D01*
X310000Y329500D01*
X312000Y330500D01*
X311000Y328500D01*
X312000Y326500D01*
X310000Y327500D01*
X308000Y326500D01*
X306000Y316500D02*
X307000Y318500D01*
X306000Y320500D01*
X308000Y319500D01*
X310000Y320500D01*
X309000Y318500D01*
X310000Y316500D01*
X308000Y317500D01*
X306000Y316500D01*
X304000D02*
X305000Y318500D01*
X304000Y320500D01*
X306000Y319500D01*
X308000Y320500D01*
X307000Y318500D01*
X308000Y316500D01*
X306000Y317500D01*
X304000Y316500D01*
X291000Y286000D02*
X292000Y288000D01*
X291000Y290000D01*
X293000Y289000D01*
X295000Y290000D01*
X294000Y288000D01*
X295000Y286000D01*
X293000Y287000D01*
X291000Y286000D01*
X293000D02*
X294000Y288000D01*
X293000Y290000D01*
X295000Y289000D01*
X297000Y290000D01*
X296000Y288000D01*
X297000Y286000D01*
X295000Y287000D01*
X293000Y286000D01*
X295000D02*
X296000Y288000D01*
X295000Y290000D01*
X297000Y289000D01*
X299000Y290000D01*
X298000Y288000D01*
X299000Y286000D01*
X297000Y287000D01*
X295000Y286000D01*
X297000D02*
X298000Y288000D01*
X297000Y290000D01*
X299000Y289000D01*
X301000Y290000D01*
X300000Y288000D01*
X301000Y286000D01*
X299000Y287000D01*
X297000Y286000D01*
Y284000D02*
X298000Y286000D01*
X297000Y288000D01*
X299000Y287000D01*
X301000Y288000D01*
X300000Y286000D01*
X301000Y284000D01*
X299000Y285000D01*
X297000Y284000D01*
X295000D02*
X296000Y286000D01*
X295000Y288000D01*
X297000Y287000D01*
X299000Y288000D01*
X298000Y286000D01*
X299000Y284000D01*
X297000Y285000D01*
X295000Y284000D01*
X293000D02*
X294000Y286000D01*
X293000Y288000D01*
X295000Y287000D01*
X297000Y288000D01*
X296000Y286000D01*
X297000Y284000D01*
X295000Y285000D01*
X293000Y284000D01*
X291000D02*
X292000Y286000D01*
X291000Y288000D01*
X293000Y287000D01*
X295000Y288000D01*
X294000Y286000D01*
X295000Y284000D01*
X293000Y285000D01*
X291000Y284000D01*
Y282000D02*
X292000Y284000D01*
X291000Y286000D01*
X293000Y285000D01*
X295000Y286000D01*
X294000Y284000D01*
X295000Y282000D01*
X293000Y283000D01*
X291000Y282000D01*
X293000D02*
X294000Y284000D01*
X293000Y286000D01*
X295000Y285000D01*
X297000Y286000D01*
X296000Y284000D01*
X297000Y282000D01*
X295000Y283000D01*
X293000Y282000D01*
X295000D02*
X296000Y284000D01*
X295000Y286000D01*
X297000Y285000D01*
X299000Y286000D01*
X298000Y284000D01*
X299000Y282000D01*
X297000Y283000D01*
X295000Y282000D01*
X297000D02*
X298000Y284000D01*
X297000Y286000D01*
X299000Y285000D01*
X301000Y286000D01*
X300000Y284000D01*
X301000Y282000D01*
X299000Y283000D01*
X297000Y282000D01*
X300000Y320500D02*
X301000Y322500D01*
X300000Y324500D01*
X302000Y323500D01*
X304000Y324500D01*
X303000Y322500D01*
X304000Y320500D01*
X302000Y321500D01*
X300000Y320500D01*
X302000Y316500D02*
X303000Y318500D01*
X302000Y320500D01*
X304000Y319500D01*
X306000Y320500D01*
X305000Y318500D01*
X306000Y316500D01*
X304000Y317500D01*
X302000Y316500D01*
X297500Y297500D02*
X298500Y299500D01*
X297500Y301500D01*
X299500Y300500D01*
X301500Y301500D01*
X300500Y299500D01*
X301500Y297500D01*
X299500Y298500D01*
X297500Y297500D01*
X294500D02*
X295500Y299500D01*
X294500Y301500D01*
X296500Y300500D01*
X298500Y301500D01*
X297500Y299500D01*
X298500Y297500D01*
X296500Y298500D01*
X294500Y297500D01*
X297500Y316000D02*
X298500Y318000D01*
X297500Y320000D01*
X299500Y319000D01*
X301500Y320000D01*
X300500Y318000D01*
X301500Y316000D01*
X299500Y317000D01*
X297500Y316000D01*
X295000D02*
X296000Y318000D01*
X295000Y320000D01*
X297000Y319000D01*
X299000Y320000D01*
X298000Y318000D01*
X299000Y316000D01*
X297000Y317000D01*
X295000Y316000D01*
X288500Y311500D02*
X289500Y313500D01*
X288500Y315500D01*
X290500Y314500D01*
X292500Y315500D01*
X291500Y313500D01*
X292500Y311500D01*
X290500Y312500D01*
X288500Y311500D01*
Y309500D02*
X289500Y311500D01*
X288500Y313500D01*
X290500Y312500D01*
X292500Y313500D01*
X291500Y311500D01*
X292500Y309500D01*
X290500Y310500D01*
X288500Y309500D01*
X286500D02*
X287500Y311500D01*
X286500Y313500D01*
X288500Y312500D01*
X290500Y313500D01*
X289500Y311500D01*
X290500Y309500D01*
X288500Y310500D01*
X286500Y309500D01*
X288500Y297000D02*
X289500Y299000D01*
X288500Y301000D01*
X290500Y300000D01*
X292500Y301000D01*
X291500Y299000D01*
X292500Y297000D01*
X290500Y298000D01*
X288500Y297000D01*
X286500D02*
X287500Y299000D01*
X286500Y301000D01*
X288500Y300000D01*
X290500Y301000D01*
X289500Y299000D01*
X290500Y297000D01*
X288500Y298000D01*
X286500Y297000D01*
X288500Y299000D02*
X289500Y301000D01*
X288500Y303000D01*
X290500Y302000D01*
X292500Y303000D01*
X291500Y301000D01*
X292500Y299000D01*
X290500Y300000D01*
X288500Y299000D01*
X286500D02*
X287500Y301000D01*
X286500Y303000D01*
X288500Y302000D01*
X290500Y303000D01*
X289500Y301000D01*
X290500Y299000D01*
X288500Y300000D01*
X286500Y299000D01*
X288500Y301000D02*
X289500Y303000D01*
X288500Y305000D01*
X290500Y304000D01*
X292500Y305000D01*
X291500Y303000D01*
X292500Y301000D01*
X290500Y302000D01*
X288500Y301000D01*
X286500D02*
X287500Y303000D01*
X286500Y305000D01*
X288500Y304000D01*
X290500Y305000D01*
X289500Y303000D01*
X290500Y301000D01*
X288500Y302000D01*
X286500Y301000D01*
X288500Y303000D02*
X289500Y305000D01*
X288500Y307000D01*
X290500Y306000D01*
X292500Y307000D01*
X291500Y305000D01*
X292500Y303000D01*
X290500Y304000D01*
X288500Y303000D01*
X286500D02*
X287500Y305000D01*
X286500Y307000D01*
X288500Y306000D01*
X290500Y307000D01*
X289500Y305000D01*
X290500Y303000D01*
X288500Y304000D01*
X286500Y303000D01*
X295000Y345000D02*
X296000Y347000D01*
X295000Y349000D01*
X297000Y348000D01*
X299000Y349000D01*
X298000Y347000D01*
X299000Y345000D01*
X297000Y346000D01*
X295000Y345000D01*
X297000Y280000D02*
X298000Y282000D01*
X297000Y284000D01*
X299000Y283000D01*
X301000Y284000D01*
X300000Y282000D01*
X301000Y280000D01*
X299000Y281000D01*
X297000Y280000D01*
X295000D02*
X296000Y282000D01*
X295000Y284000D01*
X297000Y283000D01*
X299000Y284000D01*
X298000Y282000D01*
X299000Y280000D01*
X297000Y281000D01*
X295000Y280000D01*
X293000D02*
X294000Y282000D01*
X293000Y284000D01*
X295000Y283000D01*
X297000Y284000D01*
X296000Y282000D01*
X297000Y280000D01*
X295000Y281000D01*
X293000Y280000D01*
X314500Y354500D02*
X315500Y356500D01*
X314500Y358500D01*
X316500Y357500D01*
X318500Y358500D01*
X317500Y356500D01*
X318500Y354500D01*
X316500Y355500D01*
X314500Y354500D01*
X331500Y227000D02*
X332500Y229000D01*
X331500Y231000D01*
X333500Y230000D01*
X335500Y231000D01*
X334500Y229000D01*
X335500Y227000D01*
X333500Y228000D01*
X331500Y227000D01*
Y224500D02*
X332500Y226500D01*
X331500Y228500D01*
X333500Y227500D01*
X335500Y228500D01*
X334500Y226500D01*
X335500Y224500D01*
X333500Y225500D01*
X331500Y224500D01*
X334000D02*
X335000Y226500D01*
X334000Y228500D01*
X336000Y227500D01*
X338000Y228500D01*
X337000Y226500D01*
X338000Y224500D01*
X336000Y225500D01*
X334000Y224500D01*
X336500D02*
X337500Y226500D01*
X336500Y228500D01*
X338500Y227500D01*
X340500Y228500D01*
X339500Y226500D01*
X340500Y224500D01*
X338500Y225500D01*
X336500Y224500D01*
X339000D02*
X340000Y226500D01*
X339000Y228500D01*
X341000Y227500D01*
X343000Y228500D01*
X342000Y226500D01*
X343000Y224500D01*
X341000Y225500D01*
X339000Y224500D01*
Y222500D02*
X340000Y224500D01*
X339000Y226500D01*
X341000Y225500D01*
X343000Y226500D01*
X342000Y224500D01*
X343000Y222500D01*
X341000Y223500D01*
X339000Y222500D01*
X336500D02*
X337500Y224500D01*
X336500Y226500D01*
X338500Y225500D01*
X340500Y226500D01*
X339500Y224500D01*
X340500Y222500D01*
X338500Y223500D01*
X336500Y222500D01*
X334000D02*
X335000Y224500D01*
X334000Y226500D01*
X336000Y225500D01*
X338000Y226500D01*
X337000Y224500D01*
X338000Y222500D01*
X336000Y223500D01*
X334000Y222500D01*
X331500D02*
X332500Y224500D01*
X331500Y226500D01*
X333500Y225500D01*
X335500Y226500D01*
X334500Y224500D01*
X335500Y222500D01*
X333500Y223500D01*
X331500Y222500D01*
X296000Y277000D02*
X297000Y279000D01*
X296000Y281000D01*
X298000Y280000D01*
X300000Y281000D01*
X299000Y279000D01*
X300000Y277000D01*
X298000Y278000D01*
X296000Y277000D01*
X297500Y262500D02*
X298500Y264500D01*
X297500Y266500D01*
X299500Y265500D01*
X301500Y266500D01*
X300500Y264500D01*
X301500Y262500D01*
X299500Y263500D01*
X297500Y262500D01*
Y272500D02*
X298500Y274500D01*
X297500Y276500D01*
X299500Y275500D01*
X301500Y276500D01*
X300500Y274500D01*
X301500Y272500D01*
X299500Y273500D01*
X297500Y272500D01*
Y264500D02*
X298500Y266500D01*
X297500Y268500D01*
X299500Y267500D01*
X301500Y268500D01*
X300500Y266500D01*
X301500Y264500D01*
X299500Y265500D01*
X297500Y264500D01*
X299500Y270500D02*
X300500Y272500D01*
X299500Y274500D01*
X301500Y273500D01*
X303500Y274500D01*
X302500Y272500D01*
X303500Y270500D01*
X301500Y271500D01*
X299500Y270500D01*
X297500D02*
X298500Y272500D01*
X297500Y274500D01*
X299500Y273500D01*
X301500Y274500D01*
X300500Y272500D01*
X301500Y270500D01*
X299500Y271500D01*
X297500Y270500D01*
X295500Y264500D02*
X296500Y266500D01*
X295500Y268500D01*
X297500Y267500D01*
X299500Y268500D01*
X298500Y266500D01*
X299500Y264500D01*
X297500Y265500D01*
X295500Y264500D01*
Y262500D02*
X296500Y264500D01*
X295500Y266500D01*
X297500Y265500D01*
X299500Y266500D01*
X298500Y264500D01*
X299500Y262500D01*
X297500Y263500D01*
X295500Y262500D01*
X299500Y272500D02*
X300500Y274500D01*
X299500Y276500D01*
X301500Y275500D01*
X303500Y276500D01*
X302500Y274500D01*
X303500Y272500D01*
X301500Y273500D01*
X299500Y272500D01*
X308500Y271000D02*
X309500Y273000D01*
X308500Y275000D01*
X310500Y274000D01*
X312500Y275000D01*
X311500Y273000D01*
X312500Y271000D01*
X310500Y272000D01*
X308500Y271000D01*
X378000Y278000D02*
X379000Y280000D01*
X378000Y282000D01*
X380000Y281000D01*
X382000Y282000D01*
X381000Y280000D01*
X382000Y278000D01*
X380000Y279000D01*
X378000Y278000D01*
X376000Y280000D02*
X377000Y282000D01*
X376000Y284000D01*
X378000Y283000D01*
X380000Y284000D01*
X379000Y282000D01*
X380000Y280000D01*
X378000Y281000D01*
X376000Y280000D01*
X305000Y306500D02*
X306000Y308500D01*
X305000Y310500D01*
X307000Y309500D01*
X309000Y310500D01*
X308000Y308500D01*
X309000Y306500D01*
X307000Y307500D01*
X305000Y306500D01*
X330500Y363500D02*
X331500Y365500D01*
X330500Y367500D01*
X332500Y366500D01*
X334500Y367500D01*
X333500Y365500D01*
X334500Y363500D01*
X332500Y364500D01*
X330500Y363500D01*
Y367500D02*
X331500Y369500D01*
X330500Y371500D01*
X332500Y370500D01*
X334500Y371500D01*
X333500Y369500D01*
X334500Y367500D01*
X332500Y368500D01*
X330500Y367500D01*
X347500Y379500D02*
X348500Y381500D01*
X347500Y383500D01*
X349500Y382500D01*
X351500Y383500D01*
X350500Y381500D01*
X351500Y379500D01*
X349500Y380500D01*
X347500Y379500D01*
X356500Y368000D02*
X357500Y370000D01*
X356500Y372000D01*
X358500Y371000D01*
X360500Y372000D01*
X359500Y370000D01*
X360500Y368000D01*
X358500Y369000D01*
X356500Y368000D01*
X341000Y352000D02*
X342000Y354000D01*
X341000Y356000D01*
X343000Y355000D01*
X345000Y356000D01*
X344000Y354000D01*
X345000Y352000D01*
X343000Y353000D01*
X341000Y352000D01*
X288500Y313500D02*
X289500Y315500D01*
X288500Y317500D01*
X290500Y316500D01*
X292500Y317500D01*
X291500Y315500D01*
X292500Y313500D01*
X290500Y314500D01*
X288500Y313500D01*
X286500Y311500D02*
X287500Y313500D01*
X286500Y315500D01*
X288500Y314500D01*
X290500Y315500D01*
X289500Y313500D01*
X290500Y311500D01*
X288500Y312500D01*
X286500Y311500D01*
X288500Y315500D02*
X289500Y317500D01*
X288500Y319500D01*
X290500Y318500D01*
X292500Y319500D01*
X291500Y317500D01*
X292500Y315500D01*
X290500Y316500D01*
X288500Y315500D01*
X286500Y313500D02*
X287500Y315500D01*
X286500Y317500D01*
X288500Y316500D01*
X290500Y317500D01*
X289500Y315500D01*
X290500Y313500D01*
X288500Y314500D01*
X286500Y313500D01*
X351500Y246500D02*
X352500Y248500D01*
X351500Y250500D01*
X353500Y249500D01*
X355500Y250500D01*
X354500Y248500D01*
X355500Y246500D01*
X353500Y247500D01*
X351500Y246500D01*
X286500Y315500D02*
X287500Y317500D01*
X286500Y319500D01*
X288500Y318500D01*
X290500Y319500D01*
X289500Y317500D01*
X290500Y315500D01*
X288500Y316500D01*
X286500Y315500D01*
X301500Y284000D02*
X302500Y286000D01*
X301500Y288000D01*
X303500Y287000D01*
X305500Y288000D01*
X304500Y286000D01*
X305500Y284000D01*
X303500Y285000D01*
X301500Y284000D01*
X353500Y349000D02*
X354500Y351000D01*
X353500Y353000D01*
X355500Y352000D01*
X357500Y353000D01*
X356500Y351000D01*
X357500Y349000D01*
X355500Y350000D01*
X353500Y349000D01*
X372000Y250413D02*
X373000Y252413D01*
X372000Y254413D01*
X374000Y253413D01*
X376000Y254413D01*
X375000Y252413D01*
X376000Y250413D01*
X374000Y251413D01*
X372000Y250413D01*
X374000Y250500D02*
X375000Y252500D01*
X374000Y254500D01*
X376000Y253500D01*
X378000Y254500D01*
X377000Y252500D01*
X378000Y250500D01*
X376000Y251500D01*
X374000Y250500D01*
X376000D02*
X377000Y252500D01*
X376000Y254500D01*
X378000Y253500D01*
X380000Y254500D01*
X379000Y252500D01*
X380000Y250500D01*
X378000Y251500D01*
X376000Y250500D01*
X378000D02*
X379000Y252500D01*
X378000Y254500D01*
X380000Y253500D01*
X382000Y254500D01*
X381000Y252500D01*
X382000Y250500D01*
X380000Y251500D01*
X378000Y250500D01*
X380000D02*
X381000Y252500D01*
X380000Y254500D01*
X382000Y253500D01*
X384000Y254500D01*
X383000Y252500D01*
X384000Y250500D01*
X382000Y251500D01*
X380000Y250500D01*
X382000D02*
X383000Y252500D01*
X382000Y254500D01*
X384000Y253500D01*
X386000Y254500D01*
X385000Y252500D01*
X386000Y250500D01*
X384000Y251500D01*
X382000Y250500D01*
X315000Y271500D02*
X316000Y273500D01*
X315000Y275500D01*
X317000Y274500D01*
X319000Y275500D01*
X318000Y273500D01*
X319000Y271500D01*
X317000Y272500D01*
X315000Y271500D01*
X290000Y276000D02*
X291000Y278000D01*
X290000Y280000D01*
X292000Y279000D01*
X294000Y280000D01*
X293000Y278000D01*
X294000Y276000D01*
X292000Y277000D01*
X290000Y276000D01*
X319000Y244500D02*
X320000Y246500D01*
X319000Y248500D01*
X321000Y247500D01*
X323000Y248500D01*
X322000Y246500D01*
X323000Y244500D01*
X321000Y245500D01*
X319000Y244500D01*
X370000Y222500D02*
X371000Y224500D01*
X370000Y226500D01*
X372000Y225500D01*
X374000Y226500D01*
X373000Y224500D01*
X374000Y222500D01*
X372000Y223500D01*
X370000Y222500D01*
Y220500D02*
X371000Y222500D01*
X370000Y224500D01*
X372000Y223500D01*
X374000Y224500D01*
X373000Y222500D01*
X374000Y220500D01*
X372000Y221500D01*
X370000Y220500D01*
X386000Y222500D02*
X387000Y224500D01*
X386000Y226500D01*
X388000Y225500D01*
X390000Y226500D01*
X389000Y224500D01*
X390000Y222500D01*
X388000Y223500D01*
X386000Y222500D01*
X388000D02*
X389000Y224500D01*
X388000Y226500D01*
X390000Y225500D01*
X392000Y226500D01*
X391000Y224500D01*
X392000Y222500D01*
X390000Y223500D01*
X388000Y222500D01*
X422000Y348000D02*
X423000Y350000D01*
X422000Y352000D01*
X424000Y351000D01*
X426000Y352000D01*
X425000Y350000D01*
X426000Y348000D01*
X424000Y349000D01*
X422000Y348000D01*
X424000D02*
X425000Y350000D01*
X424000Y352000D01*
X426000Y351000D01*
X428000Y352000D01*
X427000Y350000D01*
X428000Y348000D01*
X426000Y349000D01*
X424000Y348000D01*
X426000D02*
X427000Y350000D01*
X426000Y352000D01*
X428000Y351000D01*
X430000Y352000D01*
X429000Y350000D01*
X430000Y348000D01*
X428000Y349000D01*
X426000Y348000D01*
Y350000D02*
X427000Y352000D01*
X426000Y354000D01*
X428000Y353000D01*
X430000Y354000D01*
X429000Y352000D01*
X430000Y350000D01*
X428000Y351000D01*
X426000Y350000D01*
X424000D02*
X425000Y352000D01*
X424000Y354000D01*
X426000Y353000D01*
X428000Y354000D01*
X427000Y352000D01*
X428000Y350000D01*
X426000Y351000D01*
X424000Y350000D01*
X422000D02*
X423000Y352000D01*
X422000Y354000D01*
X424000Y353000D01*
X426000Y354000D01*
X425000Y352000D01*
X426000Y350000D01*
X424000Y351000D01*
X422000Y350000D01*
Y352000D02*
X423000Y354000D01*
X422000Y356000D01*
X424000Y355000D01*
X426000Y356000D01*
X425000Y354000D01*
X426000Y352000D01*
X424000Y353000D01*
X422000Y352000D01*
X424000D02*
X425000Y354000D01*
X424000Y356000D01*
X426000Y355000D01*
X428000Y356000D01*
X427000Y354000D01*
X428000Y352000D01*
X426000Y353000D01*
X424000Y352000D01*
X426000D02*
X427000Y354000D01*
X426000Y356000D01*
X428000Y355000D01*
X430000Y356000D01*
X429000Y354000D01*
X430000Y352000D01*
X428000Y353000D01*
X426000Y352000D01*
Y354000D02*
X427000Y356000D01*
X426000Y358000D01*
X428000Y357000D01*
X430000Y358000D01*
X429000Y356000D01*
X430000Y354000D01*
X428000Y355000D01*
X426000Y354000D01*
X424000D02*
X425000Y356000D01*
X424000Y358000D01*
X426000Y357000D01*
X428000Y358000D01*
X427000Y356000D01*
X428000Y354000D01*
X426000Y355000D01*
X424000Y354000D01*
X422000D02*
X423000Y356000D01*
X422000Y358000D01*
X424000Y357000D01*
X426000Y358000D01*
X425000Y356000D01*
X426000Y354000D01*
X424000Y355000D01*
X422000Y354000D01*
X420000D02*
X421000Y356000D01*
X420000Y358000D01*
X422000Y357000D01*
X424000Y358000D01*
X423000Y356000D01*
X424000Y354000D01*
X422000Y355000D01*
X420000Y354000D01*
X428000D02*
X429000Y356000D01*
X428000Y358000D01*
X430000Y357000D01*
X432000Y358000D01*
X431000Y356000D01*
X432000Y354000D01*
X430000Y355000D01*
X428000Y354000D01*
Y352000D02*
X429000Y354000D01*
X428000Y356000D01*
X430000Y355000D01*
X432000Y356000D01*
X431000Y354000D01*
X432000Y352000D01*
X430000Y353000D01*
X428000Y352000D01*
Y350000D02*
X429000Y352000D01*
X428000Y354000D01*
X430000Y353000D01*
X432000Y354000D01*
X431000Y352000D01*
X432000Y350000D01*
X430000Y351000D01*
X428000Y350000D01*
Y348000D02*
X429000Y350000D01*
X428000Y352000D01*
X430000Y351000D01*
X432000Y352000D01*
X431000Y350000D01*
X432000Y348000D01*
X430000Y349000D01*
X428000Y348000D01*
X430000D02*
X431000Y350000D01*
X430000Y352000D01*
X432000Y351000D01*
X434000Y352000D01*
X433000Y350000D01*
X434000Y348000D01*
X432000Y349000D01*
X430000Y348000D01*
Y350000D02*
X431000Y352000D01*
X430000Y354000D01*
X432000Y353000D01*
X434000Y354000D01*
X433000Y352000D01*
X434000Y350000D01*
X432000Y351000D01*
X430000Y350000D01*
Y352000D02*
X431000Y354000D01*
X430000Y356000D01*
X432000Y355000D01*
X434000Y356000D01*
X433000Y354000D01*
X434000Y352000D01*
X432000Y353000D01*
X430000Y352000D01*
Y354000D02*
X431000Y356000D01*
X430000Y358000D01*
X432000Y357000D01*
X434000Y358000D01*
X433000Y356000D01*
X434000Y354000D01*
X432000Y355000D01*
X430000Y354000D01*
X428000Y356000D02*
X429000Y358000D01*
X428000Y360000D01*
X430000Y359000D01*
X432000Y360000D01*
X431000Y358000D01*
X432000Y356000D01*
X430000Y357000D01*
X428000Y356000D01*
X426000D02*
X427000Y358000D01*
X426000Y360000D01*
X428000Y359000D01*
X430000Y360000D01*
X429000Y358000D01*
X430000Y356000D01*
X428000Y357000D01*
X426000Y356000D01*
X424000D02*
X425000Y358000D01*
X424000Y360000D01*
X426000Y359000D01*
X428000Y360000D01*
X427000Y358000D01*
X428000Y356000D01*
X426000Y357000D01*
X424000Y356000D01*
X422000D02*
X423000Y358000D01*
X422000Y360000D01*
X424000Y359000D01*
X426000Y360000D01*
X425000Y358000D01*
X426000Y356000D01*
X424000Y357000D01*
X422000Y356000D01*
X309500Y361000D02*
X310500Y363000D01*
X309500Y365000D01*
X311500Y364000D01*
X313500Y365000D01*
X312500Y363000D01*
X313500Y361000D01*
X311500Y362000D01*
X309500Y361000D01*
X393500Y347500D02*
X394500Y349500D01*
X393500Y351500D01*
X395500Y350500D01*
X397500Y351500D01*
X396500Y349500D01*
X397500Y347500D01*
X395500Y348500D01*
X393500Y347500D01*
X395500D02*
X396500Y349500D01*
X395500Y351500D01*
X397500Y350500D01*
X399500Y351500D01*
X398500Y349500D01*
X399500Y347500D01*
X397500Y348500D01*
X395500Y347500D01*
Y345500D02*
X396500Y347500D01*
X395500Y349500D01*
X397500Y348500D01*
X399500Y349500D01*
X398500Y347500D01*
X399500Y345500D01*
X397500Y346500D01*
X395500Y345500D01*
X393500D02*
X394500Y347500D01*
X393500Y349500D01*
X395500Y348500D01*
X397500Y349500D01*
X396500Y347500D01*
X397500Y345500D01*
X395500Y346500D01*
X393500Y345500D01*
X288500Y307500D02*
X289500Y309500D01*
X288500Y311500D01*
X290500Y310500D01*
X292500Y311500D01*
X291500Y309500D01*
X292500Y307500D01*
X290500Y308500D01*
X288500Y307500D01*
X286500D02*
X287500Y309500D01*
X286500Y311500D01*
X288500Y310500D01*
X290500Y311500D01*
X289500Y309500D01*
X290500Y307500D01*
X288500Y308500D01*
X286500Y307500D01*
Y305500D02*
X287500Y307500D01*
X286500Y309500D01*
X288500Y308500D01*
X290500Y309500D01*
X289500Y307500D01*
X290500Y305500D01*
X288500Y306500D01*
X286500Y305500D01*
X288500D02*
X289500Y307500D01*
X288500Y309500D01*
X290500Y308500D01*
X292500Y309500D01*
X291500Y307500D01*
X292500Y305500D01*
X290500Y306500D01*
X288500Y305500D01*
X310000Y326500D02*
X311000Y328500D01*
X310000Y330500D01*
X312000Y329500D01*
X314000Y330500D01*
X313000Y328500D01*
X314000Y326500D01*
X312000Y327500D01*
X310000Y326500D01*
Y324500D02*
X311000Y326500D01*
X310000Y328500D01*
X312000Y327500D01*
X314000Y328500D01*
X313000Y326500D01*
X314000Y324500D01*
X312000Y325500D01*
X310000Y324500D01*
Y322500D02*
X311000Y324500D01*
X310000Y326500D01*
X312000Y325500D01*
X314000Y326500D01*
X313000Y324500D01*
X314000Y322500D01*
X312000Y323500D01*
X310000Y322500D01*
X330000Y285500D02*
X331000Y287500D01*
X330000Y289500D01*
X332000Y288500D01*
X334000Y289500D01*
X333000Y287500D01*
X334000Y285500D01*
X332000Y286500D01*
X330000Y285500D01*
X332000D02*
X333000Y287500D01*
X332000Y289500D01*
X334000Y288500D01*
X336000Y289500D01*
X335000Y287500D01*
X336000Y285500D01*
X334000Y286500D01*
X332000Y285500D01*
X334000D02*
X335000Y287500D01*
X334000Y289500D01*
X336000Y288500D01*
X338000Y289500D01*
X337000Y287500D01*
X338000Y285500D01*
X336000Y286500D01*
X334000Y285500D01*
X336000D02*
X337000Y287500D01*
X336000Y289500D01*
X338000Y288500D01*
X340000Y289500D01*
X339000Y287500D01*
X340000Y285500D01*
X338000Y286500D01*
X336000Y285500D01*
X275500Y318000D02*
X276500Y320000D01*
X275500Y322000D01*
X277500Y321000D01*
X279500Y322000D01*
X278500Y320000D01*
X279500Y318000D01*
X277500Y319000D01*
X275500Y318000D01*
X273500D02*
X274500Y320000D01*
X273500Y322000D01*
X275500Y321000D01*
X277500Y322000D01*
X276500Y320000D01*
X277500Y318000D01*
X275500Y319000D01*
X273500Y318000D01*
Y316000D02*
X274500Y318000D01*
X273500Y320000D01*
X275500Y319000D01*
X277500Y320000D01*
X276500Y318000D01*
X277500Y316000D01*
X275500Y317000D01*
X273500Y316000D01*
X275500D02*
X276500Y318000D01*
X275500Y320000D01*
X277500Y319000D01*
X279500Y320000D01*
X278500Y318000D01*
X279500Y316000D01*
X277500Y317000D01*
X275500Y316000D01*
Y314000D02*
X276500Y316000D01*
X275500Y318000D01*
X277500Y317000D01*
X279500Y318000D01*
X278500Y316000D01*
X279500Y314000D01*
X277500Y315000D01*
X275500Y314000D01*
X273500D02*
X274500Y316000D01*
X273500Y318000D01*
X275500Y317000D01*
X277500Y318000D01*
X276500Y316000D01*
X277500Y314000D01*
X275500Y315000D01*
X273500Y314000D01*
Y312000D02*
X274500Y314000D01*
X273500Y316000D01*
X275500Y315000D01*
X277500Y316000D01*
X276500Y314000D01*
X277500Y312000D01*
X275500Y313000D01*
X273500Y312000D01*
X275500D02*
X276500Y314000D01*
X275500Y316000D01*
X277500Y315000D01*
X279500Y316000D01*
X278500Y314000D01*
X279500Y312000D01*
X277500Y313000D01*
X275500Y312000D01*
Y310000D02*
X276500Y312000D01*
X275500Y314000D01*
X277500Y313000D01*
X279500Y314000D01*
X278500Y312000D01*
X279500Y310000D01*
X277500Y311000D01*
X275500Y310000D01*
X273500D02*
X274500Y312000D01*
X273500Y314000D01*
X275500Y313000D01*
X277500Y314000D01*
X276500Y312000D01*
X277500Y310000D01*
X275500Y311000D01*
X273500Y310000D01*
Y308000D02*
X274500Y310000D01*
X273500Y312000D01*
X275500Y311000D01*
X277500Y312000D01*
X276500Y310000D01*
X277500Y308000D01*
X275500Y309000D01*
X273500Y308000D01*
X275500D02*
X276500Y310000D01*
X275500Y312000D01*
X277500Y311000D01*
X279500Y312000D01*
X278500Y310000D01*
X279500Y308000D01*
X277500Y309000D01*
X275500Y308000D01*
Y306000D02*
X276500Y308000D01*
X275500Y310000D01*
X277500Y309000D01*
X279500Y310000D01*
X278500Y308000D01*
X279500Y306000D01*
X277500Y307000D01*
X275500Y306000D01*
X273500D02*
X274500Y308000D01*
X273500Y310000D01*
X275500Y309000D01*
X277500Y310000D01*
X276500Y308000D01*
X277500Y306000D01*
X275500Y307000D01*
X273500Y306000D01*
Y304000D02*
X274500Y306000D01*
X273500Y308000D01*
X275500Y307000D01*
X277500Y308000D01*
X276500Y306000D01*
X277500Y304000D01*
X275500Y305000D01*
X273500Y304000D01*
X275500D02*
X276500Y306000D01*
X275500Y308000D01*
X277500Y307000D01*
X279500Y308000D01*
X278500Y306000D01*
X279500Y304000D01*
X277500Y305000D01*
X275500Y304000D01*
X273500Y302000D02*
X274500Y304000D01*
X273500Y306000D01*
X275500Y305000D01*
X277500Y306000D01*
X276500Y304000D01*
X277500Y302000D01*
X275500Y303000D01*
X273500Y302000D01*
Y300000D02*
X274500Y302000D01*
X273500Y304000D01*
X275500Y303000D01*
X277500Y304000D01*
X276500Y302000D01*
X277500Y300000D01*
X275500Y301000D01*
X273500Y300000D01*
Y298000D02*
X274500Y300000D01*
X273500Y302000D01*
X275500Y301000D01*
X277500Y302000D01*
X276500Y300000D01*
X277500Y298000D01*
X275500Y299000D01*
X273500Y298000D01*
Y296000D02*
X274500Y298000D01*
X273500Y300000D01*
X275500Y299000D01*
X277500Y300000D01*
X276500Y298000D01*
X277500Y296000D01*
X275500Y297000D01*
X273500Y296000D01*
X275500D02*
X276500Y298000D01*
X275500Y300000D01*
X277500Y299000D01*
X279500Y300000D01*
X278500Y298000D01*
X279500Y296000D01*
X277500Y297000D01*
X275500Y296000D01*
Y298000D02*
X276500Y300000D01*
X275500Y302000D01*
X277500Y301000D01*
X279500Y302000D01*
X278500Y300000D01*
X279500Y298000D01*
X277500Y299000D01*
X275500Y298000D01*
Y300000D02*
X276500Y302000D01*
X275500Y304000D01*
X277500Y303000D01*
X279500Y304000D01*
X278500Y302000D01*
X279500Y300000D01*
X277500Y301000D01*
X275500Y300000D01*
Y302000D02*
X276500Y304000D01*
X275500Y306000D01*
X277500Y305000D01*
X279500Y306000D01*
X278500Y304000D01*
X279500Y302000D01*
X277500Y303000D01*
X275500Y302000D01*
X272500Y327500D02*
X273500Y329500D01*
X272500Y331500D01*
X274500Y330500D01*
X276500Y331500D01*
X275500Y329500D01*
X276500Y327500D01*
X274500Y328500D01*
X272500Y327500D01*
X273500Y331500D02*
X274500Y333500D01*
X273500Y335500D01*
X275500Y334500D01*
X277500Y335500D01*
X276500Y333500D01*
X277500Y331500D01*
X275500Y332500D01*
X273500Y331500D01*
X275500Y336000D02*
X276500Y338000D01*
X275500Y340000D01*
X277500Y339000D01*
X279500Y340000D01*
X278500Y338000D01*
X279500Y336000D01*
X277500Y337000D01*
X275500Y336000D01*
X277000Y340000D02*
X278000Y342000D01*
X277000Y344000D01*
X279000Y343000D01*
X281000Y344000D01*
X280000Y342000D01*
X281000Y340000D01*
X279000Y341000D01*
X277000Y340000D01*
X279000Y344500D02*
X280000Y346500D01*
X279000Y348500D01*
X281000Y347500D01*
X283000Y348500D01*
X282000Y346500D01*
X283000Y344500D01*
X281000Y345500D01*
X279000Y344500D01*
X280500Y348500D02*
X281500Y350500D01*
X280500Y352500D01*
X282500Y351500D01*
X284500Y352500D01*
X283500Y350500D01*
X284500Y348500D01*
X282500Y349500D01*
X280500Y348500D01*
X283000Y352500D02*
X284000Y354500D01*
X283000Y356500D01*
X285000Y355500D01*
X287000Y356500D01*
X286000Y354500D01*
X287000Y352500D01*
X285000Y353500D01*
X283000Y352500D01*
X285000Y356000D02*
X286000Y358000D01*
X285000Y360000D01*
X287000Y359000D01*
X289000Y360000D01*
X288000Y358000D01*
X289000Y356000D01*
X287000Y357000D01*
X285000Y356000D01*
X290000Y362000D02*
X291000Y364000D01*
X290000Y366000D01*
X292000Y365000D01*
X294000Y366000D01*
X293000Y364000D01*
X294000Y362000D01*
X292000Y363000D01*
X290000Y362000D01*
X293000Y365000D02*
X294000Y367000D01*
X293000Y369000D01*
X295000Y368000D01*
X297000Y369000D01*
X296000Y367000D01*
X297000Y365000D01*
X295000Y366000D01*
X293000Y365000D01*
X296000Y368000D02*
X297000Y370000D01*
X296000Y372000D01*
X298000Y371000D01*
X300000Y372000D01*
X299000Y370000D01*
X300000Y368000D01*
X298000Y369000D01*
X296000Y368000D01*
X299000Y371500D02*
X300000Y373500D01*
X299000Y375500D01*
X301000Y374500D01*
X303000Y375500D01*
X302000Y373500D01*
X303000Y371500D01*
X301000Y372500D01*
X299000Y371500D01*
X302500Y374500D02*
X303500Y376500D01*
X302500Y378500D01*
X304500Y377500D01*
X306500Y378500D01*
X305500Y376500D01*
X306500Y374500D01*
X304500Y375500D01*
X302500Y374500D01*
X306000Y377500D02*
X307000Y379500D01*
X306000Y381500D01*
X308000Y380500D01*
X310000Y381500D01*
X309000Y379500D01*
X310000Y377500D01*
X308000Y378500D01*
X306000Y377500D01*
X310000Y380000D02*
X311000Y382000D01*
X310000Y384000D01*
X312000Y383000D01*
X314000Y384000D01*
X313000Y382000D01*
X314000Y380000D01*
X312000Y381000D01*
X310000Y380000D01*
X314500Y382500D02*
X315500Y384500D01*
X314500Y386500D01*
X316500Y385500D01*
X318500Y386500D01*
X317500Y384500D01*
X318500Y382500D01*
X316500Y383500D01*
X314500Y382500D01*
X318500Y384500D02*
X319500Y386500D01*
X318500Y388500D01*
X320500Y387500D01*
X322500Y388500D01*
X321500Y386500D01*
X322500Y384500D01*
X320500Y385500D01*
X318500Y384500D01*
X322500Y386500D02*
X323500Y388500D01*
X322500Y390500D01*
X324500Y389500D01*
X326500Y390500D01*
X325500Y388500D01*
X326500Y386500D01*
X324500Y387500D01*
X322500Y386500D01*
X326500Y388000D02*
X327500Y390000D01*
X326500Y392000D01*
X328500Y391000D01*
X330500Y392000D01*
X329500Y390000D01*
X330500Y388000D01*
X328500Y389000D01*
X326500Y388000D01*
X331000Y390000D02*
X332000Y392000D01*
X331000Y394000D01*
X333000Y393000D01*
X335000Y394000D01*
X334000Y392000D01*
X335000Y390000D01*
X333000Y391000D01*
X331000Y390000D01*
X335500Y391500D02*
X336500Y393500D01*
X335500Y395500D01*
X337500Y394500D01*
X339500Y395500D01*
X338500Y393500D01*
X339500Y391500D01*
X337500Y392500D01*
X335500Y391500D01*
X340500Y392500D02*
X341500Y394500D01*
X340500Y396500D01*
X342500Y395500D01*
X344500Y396500D01*
X343500Y394500D01*
X344500Y392500D01*
X342500Y393500D01*
X340500Y392500D01*
X345000Y393500D02*
X346000Y395500D01*
X345000Y397500D01*
X347000Y396500D01*
X349000Y397500D01*
X348000Y395500D01*
X349000Y393500D01*
X347000Y394500D01*
X345000Y393500D01*
X349500Y394000D02*
X350500Y396000D01*
X349500Y398000D01*
X351500Y397000D01*
X353500Y398000D01*
X352500Y396000D01*
X353500Y394000D01*
X351500Y395000D01*
X349500Y394000D01*
X354500Y394500D02*
X355500Y396500D01*
X354500Y398500D01*
X356500Y397500D01*
X358500Y398500D01*
X357500Y396500D01*
X358500Y394500D01*
X356500Y395500D01*
X354500Y394500D01*
X359500D02*
X360500Y396500D01*
X359500Y398500D01*
X361500Y397500D01*
X363500Y398500D01*
X362500Y396500D01*
X363500Y394500D01*
X361500Y395500D01*
X359500Y394500D01*
X364500D02*
X365500Y396500D01*
X364500Y398500D01*
X366500Y397500D01*
X368500Y398500D01*
X367500Y396500D01*
X368500Y394500D01*
X366500Y395500D01*
X364500Y394500D01*
X370000Y394000D02*
X371000Y396000D01*
X370000Y398000D01*
X372000Y397000D01*
X374000Y398000D01*
X373000Y396000D01*
X374000Y394000D01*
X372000Y395000D01*
X370000Y394000D01*
X375000Y393500D02*
X376000Y395500D01*
X375000Y397500D01*
X377000Y396500D01*
X379000Y397500D01*
X378000Y395500D01*
X379000Y393500D01*
X377000Y394500D01*
X375000Y393500D01*
X380000Y392500D02*
X381000Y394500D01*
X380000Y396500D01*
X382000Y395500D01*
X384000Y396500D01*
X383000Y394500D01*
X384000Y392500D01*
X382000Y393500D01*
X380000Y392500D01*
X385000Y391000D02*
X386000Y393000D01*
X385000Y395000D01*
X387000Y394000D01*
X389000Y395000D01*
X388000Y393000D01*
X389000Y391000D01*
X387000Y392000D01*
X385000Y391000D01*
X390500Y389000D02*
X391500Y391000D01*
X390500Y393000D01*
X392500Y392000D01*
X394500Y393000D01*
X393500Y391000D01*
X394500Y389000D01*
X392500Y390000D01*
X390500Y389000D01*
X395000Y387500D02*
X396000Y389500D01*
X395000Y391500D01*
X397000Y390500D01*
X399000Y391500D01*
X398000Y389500D01*
X399000Y387500D01*
X397000Y388500D01*
X395000Y387500D01*
X399500Y385500D02*
X400500Y387500D01*
X399500Y389500D01*
X401500Y388500D01*
X403500Y389500D01*
X402500Y387500D01*
X403500Y385500D01*
X401500Y386500D01*
X399500Y385500D01*
X403500Y383500D02*
X404500Y385500D01*
X403500Y387500D01*
X405500Y386500D01*
X407500Y387500D01*
X406500Y385500D01*
X407500Y383500D01*
X405500Y384500D01*
X403500Y383500D01*
X407000Y381000D02*
X408000Y383000D01*
X407000Y385000D01*
X409000Y384000D01*
X411000Y385000D01*
X410000Y383000D01*
X411000Y381000D01*
X409000Y382000D01*
X407000Y381000D01*
X410500Y379000D02*
X411500Y381000D01*
X410500Y383000D01*
X412500Y382000D01*
X414500Y383000D01*
X413500Y381000D01*
X414500Y379000D01*
X412500Y380000D01*
X410500Y379000D01*
X413500Y376500D02*
X414500Y378500D01*
X413500Y380500D01*
X415500Y379500D01*
X417500Y380500D01*
X416500Y378500D01*
X417500Y376500D01*
X415500Y377500D01*
X413500Y376500D01*
X417000Y374000D02*
X418000Y376000D01*
X417000Y378000D01*
X419000Y377000D01*
X421000Y378000D01*
X420000Y376000D01*
X421000Y374000D01*
X419000Y375000D01*
X417000Y374000D01*
X420500Y371000D02*
X421500Y373000D01*
X420500Y375000D01*
X422500Y374000D01*
X424500Y375000D01*
X423500Y373000D01*
X424500Y371000D01*
X422500Y372000D01*
X420500Y371000D01*
X424000Y367500D02*
X425000Y369500D01*
X424000Y371500D01*
X426000Y370500D01*
X428000Y371500D01*
X427000Y369500D01*
X428000Y367500D01*
X426000Y368500D01*
X424000Y367500D01*
X427500Y363500D02*
X428500Y365500D01*
X427500Y367500D01*
X429500Y366500D01*
X431500Y367500D01*
X430500Y365500D01*
X431500Y363500D01*
X429500Y364500D01*
X427500Y363500D01*
X274000Y285000D02*
X275000Y287000D01*
X274000Y289000D01*
X276000Y288000D01*
X278000Y289000D01*
X277000Y287000D01*
X278000Y285000D01*
X276000Y286000D01*
X274000Y285000D01*
X275000Y281500D02*
X276000Y283500D01*
X275000Y285500D01*
X277000Y284500D01*
X279000Y285500D01*
X278000Y283500D01*
X279000Y281500D01*
X277000Y282500D01*
X275000Y281500D01*
X276500Y277500D02*
X277500Y279500D01*
X276500Y281500D01*
X278500Y280500D01*
X280500Y281500D01*
X279500Y279500D01*
X280500Y277500D01*
X278500Y278500D01*
X276500Y277500D01*
X278000Y274000D02*
X279000Y276000D01*
X278000Y278000D01*
X280000Y277000D01*
X282000Y278000D01*
X281000Y276000D01*
X282000Y274000D01*
X280000Y275000D01*
X278000Y274000D01*
X279500Y271000D02*
X280500Y273000D01*
X279500Y275000D01*
X281500Y274000D01*
X283500Y275000D01*
X282500Y273000D01*
X283500Y271000D01*
X281500Y272000D01*
X279500Y271000D01*
X281500Y268000D02*
X282500Y270000D01*
X281500Y272000D01*
X283500Y271000D01*
X285500Y272000D01*
X284500Y270000D01*
X285500Y268000D01*
X283500Y269000D01*
X281500Y268000D01*
X283000Y265000D02*
X284000Y267000D01*
X283000Y269000D01*
X285000Y268000D01*
X287000Y269000D01*
X286000Y267000D01*
X287000Y265000D01*
X285000Y266000D01*
X283000Y265000D01*
X284500Y261500D02*
X285500Y263500D01*
X284500Y265500D01*
X286500Y264500D01*
X288500Y265500D01*
X287500Y263500D01*
X288500Y261500D01*
X286500Y262500D01*
X284500Y261500D01*
X286500Y258500D02*
X287500Y260500D01*
X286500Y262500D01*
X288500Y261500D01*
X290500Y262500D01*
X289500Y260500D01*
X290500Y258500D01*
X288500Y259500D01*
X286500Y258500D01*
X289500Y254000D02*
X290500Y256000D01*
X289500Y258000D01*
X291500Y257000D01*
X293500Y258000D01*
X292500Y256000D01*
X293500Y254000D01*
X291500Y255000D01*
X289500Y254000D01*
X324000Y227000D02*
X325000Y229000D01*
X324000Y231000D01*
X326000Y230000D01*
X328000Y231000D01*
X327000Y229000D01*
X328000Y227000D01*
X326000Y228000D01*
X324000Y227000D01*
X431000Y359000D02*
X432000Y361000D01*
X431000Y363000D01*
X433000Y362000D01*
X435000Y363000D01*
X434000Y361000D01*
X435000Y359000D01*
X433000Y360000D01*
X431000Y359000D01*
X434000Y355000D02*
X435000Y357000D01*
X434000Y359000D01*
X436000Y358000D01*
X438000Y359000D01*
X437000Y357000D01*
X438000Y355000D01*
X436000Y356000D01*
X434000Y355000D01*
X436500Y351000D02*
X437500Y353000D01*
X436500Y355000D01*
X438500Y354000D01*
X440500Y355000D01*
X439500Y353000D01*
X440500Y351000D01*
X438500Y352000D01*
X436500Y351000D01*
X438500Y347500D02*
X439500Y349500D01*
X438500Y351500D01*
X440500Y350500D01*
X442500Y351500D01*
X441500Y349500D01*
X442500Y347500D01*
X440500Y348500D01*
X438500Y347500D01*
X440500Y343500D02*
X441500Y345500D01*
X440500Y347500D01*
X442500Y346500D01*
X444500Y347500D01*
X443500Y345500D01*
X444500Y343500D01*
X442500Y344500D01*
X440500Y343500D01*
X442500Y339000D02*
X443500Y341000D01*
X442500Y343000D01*
X444500Y342000D01*
X446500Y343000D01*
X445500Y341000D01*
X446500Y339000D01*
X444500Y340000D01*
X442500Y339000D01*
X444000Y333500D02*
X445000Y335500D01*
X444000Y337500D01*
X446000Y336500D01*
X448000Y337500D01*
X447000Y335500D01*
X448000Y333500D01*
X446000Y334500D01*
X444000Y333500D01*
X445500Y329500D02*
X446500Y331500D01*
X445500Y333500D01*
X447500Y332500D01*
X449500Y333500D01*
X448500Y331500D01*
X449500Y329500D01*
X447500Y330500D01*
X445500Y329500D01*
X446500Y325500D02*
X447500Y327500D01*
X446500Y329500D01*
X448500Y328500D01*
X450500Y329500D01*
X449500Y327500D01*
X450500Y325500D01*
X448500Y326500D01*
X446500Y325500D01*
X447500Y321500D02*
X448500Y323500D01*
X447500Y325500D01*
X449500Y324500D01*
X451500Y325500D01*
X450500Y323500D01*
X451500Y321500D01*
X449500Y322500D01*
X447500Y321500D01*
X448000Y313000D02*
X449000Y315000D01*
X448000Y317000D01*
X450000Y316000D01*
X452000Y317000D01*
X451000Y315000D01*
X452000Y313000D01*
X450000Y314000D01*
X448000Y313000D01*
X447500Y299000D02*
X448500Y301000D01*
X447500Y303000D01*
X449500Y302000D01*
X451500Y303000D01*
X450500Y301000D01*
X451500Y299000D01*
X449500Y300000D01*
X447500Y299000D01*
X447000Y294500D02*
X448000Y296500D01*
X447000Y298500D01*
X449000Y297500D01*
X451000Y298500D01*
X450000Y296500D01*
X451000Y294500D01*
X449000Y295500D01*
X447000Y294500D01*
X446500Y290500D02*
X447500Y292500D01*
X446500Y294500D01*
X448500Y293500D01*
X450500Y294500D01*
X449500Y292500D01*
X450500Y290500D01*
X448500Y291500D01*
X446500Y290500D01*
X445500Y286500D02*
X446500Y288500D01*
X445500Y290500D01*
X447500Y289500D01*
X449500Y290500D01*
X448500Y288500D01*
X449500Y286500D01*
X447500Y287500D01*
X445500Y286500D01*
X444500Y282000D02*
X445500Y284000D01*
X444500Y286000D01*
X446500Y285000D01*
X448500Y286000D01*
X447500Y284000D01*
X448500Y282000D01*
X446500Y283000D01*
X444500Y282000D01*
X443000Y278000D02*
X444000Y280000D01*
X443000Y282000D01*
X445000Y281000D01*
X447000Y282000D01*
X446000Y280000D01*
X447000Y278000D01*
X445000Y279000D01*
X443000Y278000D01*
X358000Y265500D02*
X359000Y267500D01*
X358000Y269500D01*
X360000Y268500D01*
X362000Y269500D01*
X361000Y267500D01*
X362000Y265500D01*
X360000Y266500D01*
X358000Y265500D01*
X370000Y250500D02*
X371000Y252500D01*
X370000Y254500D01*
X372000Y253500D01*
X374000Y254500D01*
X373000Y252500D01*
X374000Y250500D01*
X372000Y251500D01*
X370000Y250500D01*
Y248000D02*
X371000Y250000D01*
X370000Y252000D01*
X372000Y251000D01*
X374000Y252000D01*
X373000Y250000D01*
X374000Y248000D01*
X372000Y249000D01*
X370000Y248000D01*
X400000Y364000D02*
X401000Y366000D01*
X400000Y368000D01*
X402000Y367000D01*
X404000Y368000D01*
X403000Y366000D01*
X404000Y364000D01*
X402000Y365000D01*
X400000Y364000D01*
X402000D02*
X403000Y366000D01*
X402000Y368000D01*
X404000Y367000D01*
X406000Y368000D01*
X405000Y366000D01*
X406000Y364000D01*
X404000Y365000D01*
X402000Y364000D01*
X404000D02*
X405000Y366000D01*
X404000Y368000D01*
X406000Y367000D01*
X408000Y368000D01*
X407000Y366000D01*
X408000Y364000D01*
X406000Y365000D01*
X404000Y364000D01*
X406000D02*
X407000Y366000D01*
X406000Y368000D01*
X408000Y367000D01*
X410000Y368000D01*
X409000Y366000D01*
X410000Y364000D01*
X408000Y365000D01*
X406000Y364000D01*
X408000D02*
X409000Y366000D01*
X408000Y368000D01*
X410000Y367000D01*
X412000Y368000D01*
X411000Y366000D01*
X412000Y364000D01*
X410000Y365000D01*
X408000Y364000D01*
X410000D02*
X411000Y366000D01*
X410000Y368000D01*
X412000Y367000D01*
X414000Y368000D01*
X413000Y366000D01*
X414000Y364000D01*
X412000Y365000D01*
X410000Y364000D01*
Y362000D02*
X411000Y364000D01*
X410000Y366000D01*
X412000Y365000D01*
X414000Y366000D01*
X413000Y364000D01*
X414000Y362000D01*
X412000Y363000D01*
X410000Y362000D01*
X408000D02*
X409000Y364000D01*
X408000Y366000D01*
X410000Y365000D01*
X412000Y366000D01*
X411000Y364000D01*
X412000Y362000D01*
X410000Y363000D01*
X408000Y362000D01*
X406000D02*
X407000Y364000D01*
X406000Y366000D01*
X408000Y365000D01*
X410000Y366000D01*
X409000Y364000D01*
X410000Y362000D01*
X408000Y363000D01*
X406000Y362000D01*
X404000D02*
X405000Y364000D01*
X404000Y366000D01*
X406000Y365000D01*
X408000Y366000D01*
X407000Y364000D01*
X408000Y362000D01*
X406000Y363000D01*
X404000Y362000D01*
X402000D02*
X403000Y364000D01*
X402000Y366000D01*
X404000Y365000D01*
X406000Y366000D01*
X405000Y364000D01*
X406000Y362000D01*
X404000Y363000D01*
X402000Y362000D01*
X400000D02*
X401000Y364000D01*
X400000Y366000D01*
X402000Y365000D01*
X404000Y366000D01*
X403000Y364000D01*
X404000Y362000D01*
X402000Y363000D01*
X400000Y362000D01*
Y360000D02*
X401000Y362000D01*
X400000Y364000D01*
X402000Y363000D01*
X404000Y364000D01*
X403000Y362000D01*
X404000Y360000D01*
X402000Y361000D01*
X400000Y360000D01*
X402000D02*
X403000Y362000D01*
X402000Y364000D01*
X404000Y363000D01*
X406000Y364000D01*
X405000Y362000D01*
X406000Y360000D01*
X404000Y361000D01*
X402000Y360000D01*
X404000D02*
X405000Y362000D01*
X404000Y364000D01*
X406000Y363000D01*
X408000Y364000D01*
X407000Y362000D01*
X408000Y360000D01*
X406000Y361000D01*
X404000Y360000D01*
X406000D02*
X407000Y362000D01*
X406000Y364000D01*
X408000Y363000D01*
X410000Y364000D01*
X409000Y362000D01*
X410000Y360000D01*
X408000Y361000D01*
X406000Y360000D01*
X408000D02*
X409000Y362000D01*
X408000Y364000D01*
X410000Y363000D01*
X412000Y364000D01*
X411000Y362000D01*
X412000Y360000D01*
X410000Y361000D01*
X408000Y360000D01*
X410000D02*
X411000Y362000D01*
X410000Y364000D01*
X412000Y363000D01*
X414000Y364000D01*
X413000Y362000D01*
X414000Y360000D01*
X412000Y361000D01*
X410000Y360000D01*
Y358000D02*
X411000Y360000D01*
X410000Y362000D01*
X412000Y361000D01*
X414000Y362000D01*
X413000Y360000D01*
X414000Y358000D01*
X412000Y359000D01*
X410000Y358000D01*
X408000D02*
X409000Y360000D01*
X408000Y362000D01*
X410000Y361000D01*
X412000Y362000D01*
X411000Y360000D01*
X412000Y358000D01*
X410000Y359000D01*
X408000Y358000D01*
X406000D02*
X407000Y360000D01*
X406000Y362000D01*
X408000Y361000D01*
X410000Y362000D01*
X409000Y360000D01*
X410000Y358000D01*
X408000Y359000D01*
X406000Y358000D01*
X404000D02*
X405000Y360000D01*
X404000Y362000D01*
X406000Y361000D01*
X408000Y362000D01*
X407000Y360000D01*
X408000Y358000D01*
X406000Y359000D01*
X404000Y358000D01*
X402000D02*
X403000Y360000D01*
X402000Y362000D01*
X404000Y361000D01*
X406000Y362000D01*
X405000Y360000D01*
X406000Y358000D01*
X404000Y359000D01*
X402000Y358000D01*
X400000D02*
X401000Y360000D01*
X400000Y362000D01*
X402000Y361000D01*
X404000Y362000D01*
X403000Y360000D01*
X404000Y358000D01*
X402000Y359000D01*
X400000Y358000D01*
X332000Y291500D02*
X333000Y293500D01*
X332000Y295500D01*
X334000Y294500D01*
X336000Y295500D01*
X335000Y293500D01*
X336000Y291500D01*
X334000Y292500D01*
X332000Y291500D01*
X330000D02*
X331000Y293500D01*
X330000Y295500D01*
X332000Y294500D01*
X334000Y295500D01*
X333000Y293500D01*
X334000Y291500D01*
X332000Y292500D01*
X330000Y291500D01*
Y289500D02*
X331000Y291500D01*
X330000Y293500D01*
X332000Y292500D01*
X334000Y293500D01*
X333000Y291500D01*
X334000Y289500D01*
X332000Y290500D01*
X330000Y289500D01*
X332000D02*
X333000Y291500D01*
X332000Y293500D01*
X334000Y292500D01*
X336000Y293500D01*
X335000Y291500D01*
X336000Y289500D01*
X334000Y290500D01*
X332000Y289500D01*
X442000Y274000D02*
X443000Y276000D01*
X442000Y278000D01*
X444000Y277000D01*
X446000Y278000D01*
X445000Y276000D01*
X446000Y274000D01*
X444000Y275000D01*
X442000Y274000D01*
X440500Y270500D02*
X441500Y272500D01*
X440500Y274500D01*
X442500Y273500D01*
X444500Y274500D01*
X443500Y272500D01*
X444500Y270500D01*
X442500Y271500D01*
X440500Y270500D01*
X439000Y267000D02*
X440000Y269000D01*
X439000Y271000D01*
X441000Y270000D01*
X443000Y271000D01*
X442000Y269000D01*
X443000Y267000D01*
X441000Y268000D01*
X439000Y267000D01*
X437000Y263500D02*
X438000Y265500D01*
X437000Y267500D01*
X439000Y266500D01*
X441000Y267500D01*
X440000Y265500D01*
X441000Y263500D01*
X439000Y264500D01*
X437000Y263500D01*
X435000Y260000D02*
X436000Y262000D01*
X435000Y264000D01*
X437000Y263000D01*
X439000Y264000D01*
X438000Y262000D01*
X439000Y260000D01*
X437000Y261000D01*
X435000Y260000D01*
X432500Y256500D02*
X433500Y258500D01*
X432500Y260500D01*
X434500Y259500D01*
X436500Y260500D01*
X435500Y258500D01*
X436500Y256500D01*
X434500Y257500D01*
X432500Y256500D01*
X430000Y253000D02*
X431000Y255000D01*
X430000Y257000D01*
X432000Y256000D01*
X434000Y257000D01*
X433000Y255000D01*
X434000Y253000D01*
X432000Y254000D01*
X430000Y253000D01*
X427000Y249500D02*
X428000Y251500D01*
X427000Y253500D01*
X429000Y252500D01*
X431000Y253500D01*
X430000Y251500D01*
X431000Y249500D01*
X429000Y250500D01*
X427000Y249500D01*
X424500Y247000D02*
X425500Y249000D01*
X424500Y251000D01*
X426500Y250000D01*
X428500Y251000D01*
X427500Y249000D01*
X428500Y247000D01*
X426500Y248000D01*
X424500Y247000D01*
X421500Y243500D02*
X422500Y245500D01*
X421500Y247500D01*
X423500Y246500D01*
X425500Y247500D01*
X424500Y245500D01*
X425500Y243500D01*
X423500Y244500D01*
X421500Y243500D01*
X418000Y240500D02*
X419000Y242500D01*
X418000Y244500D01*
X420000Y243500D01*
X422000Y244500D01*
X421000Y242500D01*
X422000Y240500D01*
X420000Y241500D01*
X418000Y240500D01*
X412500Y236000D02*
X413500Y238000D01*
X412500Y240000D01*
X414500Y239000D01*
X416500Y240000D01*
X415500Y238000D01*
X416500Y236000D01*
X414500Y237000D01*
X412500Y236000D01*
X409500Y234000D02*
X410500Y236000D01*
X409500Y238000D01*
X411500Y237000D01*
X413500Y238000D01*
X412500Y236000D01*
X413500Y234000D01*
X411500Y235000D01*
X409500Y234000D01*
X406500Y232000D02*
X407500Y234000D01*
X406500Y236000D01*
X408500Y235000D01*
X410500Y236000D01*
X409500Y234000D01*
X410500Y232000D01*
X408500Y233000D01*
X406500Y232000D01*
X403500Y230500D02*
X404500Y232500D01*
X403500Y234500D01*
X405500Y233500D01*
X407500Y234500D01*
X406500Y232500D01*
X407500Y230500D01*
X405500Y231500D01*
X403500Y230500D01*
X400000Y228500D02*
X401000Y230500D01*
X400000Y232500D01*
X402000Y231500D01*
X404000Y232500D01*
X403000Y230500D01*
X404000Y228500D01*
X402000Y229500D01*
X400000Y228500D01*
X396500Y227000D02*
X397500Y229000D01*
X396500Y231000D01*
X398500Y230000D01*
X400500Y231000D01*
X399500Y229000D01*
X400500Y227000D01*
X398500Y228000D01*
X396500Y227000D01*
X393500Y225500D02*
X394500Y227500D01*
X393500Y229500D01*
X395500Y228500D01*
X397500Y229500D01*
X396500Y227500D01*
X397500Y225500D01*
X395500Y226500D01*
X393500Y225500D01*
X290000Y262327D02*
X291000Y264327D01*
X290000Y266327D01*
X292000Y265327D01*
X294000Y266327D01*
X293000Y264327D01*
X294000Y262327D01*
X292000Y263327D01*
X290000Y262327D01*
X420000Y352000D02*
X421000Y354000D01*
X420000Y356000D01*
X422000Y355000D01*
X424000Y356000D01*
X423000Y354000D01*
X424000Y352000D01*
X422000Y353000D01*
X420000Y352000D01*
Y350000D02*
X421000Y352000D01*
X420000Y354000D01*
X422000Y353000D01*
X424000Y354000D01*
X423000Y352000D01*
X424000Y350000D01*
X422000Y351000D01*
X420000Y350000D01*
Y348000D02*
X421000Y350000D01*
X420000Y352000D01*
X422000Y351000D01*
X424000Y352000D01*
X423000Y350000D01*
X424000Y348000D01*
X422000Y349000D01*
X420000Y348000D01*
X448000Y303500D02*
X449000Y305500D01*
X448000Y307500D01*
X450000Y306500D01*
X452000Y307500D01*
X451000Y305500D01*
X452000Y303500D01*
X450000Y304500D01*
X448000Y303500D01*
Y308500D02*
X449000Y310500D01*
X448000Y312500D01*
X450000Y311500D01*
X452000Y312500D01*
X451000Y310500D01*
X452000Y308500D01*
X450000Y309500D01*
X448000Y308500D01*
Y317000D02*
X449000Y319000D01*
X448000Y321000D01*
X450000Y320000D01*
X452000Y321000D01*
X451000Y319000D01*
X452000Y317000D01*
X450000Y318000D01*
X448000Y317000D01*
X415500Y238000D02*
X416500Y240000D01*
X415500Y242000D01*
X417500Y241000D01*
X419500Y242000D01*
X418500Y240000D01*
X419500Y238000D01*
X417500Y239000D01*
X415500Y238000D01*
X287500Y359000D02*
X288500Y361000D01*
X287500Y363000D01*
X289500Y362000D01*
X291500Y363000D01*
X290500Y361000D01*
X291500Y359000D01*
X289500Y360000D01*
X287500Y359000D01*
X387500Y332000D02*
X388500Y334000D01*
X387500Y336000D01*
X389500Y335000D01*
X391500Y336000D01*
X390500Y334000D01*
X391500Y332000D01*
X389500Y333000D01*
X387500Y332000D01*
X303000Y368000D02*
X304000Y370000D01*
X303000Y372000D01*
X305000Y371000D01*
X307000Y372000D01*
X306000Y370000D01*
X307000Y368000D01*
X305000Y369000D01*
X303000Y368000D01*
X350500Y364500D02*
X351500Y366500D01*
X350500Y368500D01*
X352500Y367500D01*
X354500Y368500D01*
X353500Y366500D01*
X354500Y364500D01*
X352500Y365500D01*
X350500Y364500D01*
X322000Y355500D02*
X323000Y357500D01*
X322000Y359500D01*
X324000Y358500D01*
X326000Y359500D01*
X325000Y357500D01*
X326000Y355500D01*
X324000Y356500D01*
X322000Y355500D01*
Y357500D02*
X323000Y359500D01*
X322000Y361500D01*
X324000Y360500D01*
X326000Y361500D01*
X325000Y359500D01*
X326000Y357500D01*
X324000Y358500D01*
X322000Y357500D01*
X326000D02*
X327000Y359500D01*
X326000Y361500D01*
X328000Y360500D01*
X330000Y361500D01*
X329000Y359500D01*
X330000Y357500D01*
X328000Y358500D01*
X326000Y357500D01*
Y355500D02*
X327000Y357500D01*
X326000Y359500D01*
X328000Y358500D01*
X330000Y359500D01*
X329000Y357500D01*
X330000Y355500D01*
X328000Y356500D01*
X326000Y355500D01*
X321500Y228000D02*
X322500Y230000D01*
X321500Y232000D01*
X323500Y231000D01*
X325500Y232000D01*
X324500Y230000D01*
X325500Y228000D01*
X323500Y229000D01*
X321500Y228000D01*
X319000Y229500D02*
X320000Y231500D01*
X319000Y233500D01*
X321000Y232500D01*
X323000Y233500D01*
X322000Y231500D01*
X323000Y229500D01*
X321000Y230500D01*
X319000Y229500D01*
X324000Y355500D02*
X325000Y357500D01*
X324000Y359500D01*
X326000Y358500D01*
X328000Y359500D01*
X327000Y357500D01*
X328000Y355500D01*
X326000Y356500D01*
X324000Y355500D01*
Y357500D02*
X325000Y359500D01*
X324000Y361500D01*
X326000Y360500D01*
X328000Y361500D01*
X327000Y359500D01*
X328000Y357500D01*
X326000Y358500D01*
X324000Y357500D01*
X409000Y368827D02*
X410000Y370827D01*
X409000Y372827D01*
X411000Y371827D01*
X413000Y372827D01*
X412000Y370827D01*
X413000Y368827D01*
X411000Y369827D01*
X409000Y368827D01*
X383000Y377000D02*
X384000Y379000D01*
X383000Y381000D01*
X385000Y380000D01*
X387000Y381000D01*
X386000Y379000D01*
X387000Y377000D01*
X385000Y378000D01*
X383000Y377000D01*
X381000D02*
X382000Y379000D01*
X381000Y381000D01*
X383000Y380000D01*
X385000Y381000D01*
X384000Y379000D01*
X385000Y377000D01*
X383000Y378000D01*
X381000Y377000D01*
X364000Y371500D02*
X365000Y373500D01*
X364000Y375500D01*
X366000Y374500D01*
X368000Y375500D01*
X367000Y373500D01*
X368000Y371500D01*
X366000Y372500D01*
X364000Y371500D01*
X387500Y381000D02*
X388500Y383000D01*
X387500Y385000D01*
X389500Y384000D01*
X391500Y385000D01*
X390500Y383000D01*
X391500Y381000D01*
X389500Y382000D01*
X387500Y381000D01*
X364224Y377224D02*
X365224Y379224D01*
X364224Y381224D01*
X366224Y380224D01*
X368224Y381224D01*
X367224Y379224D01*
X368224Y377224D01*
X366224Y378224D01*
X364224Y377224D01*
X381327Y383327D02*
X382327Y385327D01*
X381327Y387327D01*
X383327Y386327D01*
X385327Y387327D01*
X384327Y385327D01*
X385327Y383327D01*
X383327Y384327D01*
X381327Y383327D01*
X318000Y355000D02*
X319000Y357000D01*
X318000Y359000D01*
X320000Y358000D01*
X322000Y359000D01*
X321000Y357000D01*
X322000Y355000D01*
X320000Y356000D01*
X318000Y355000D01*
X329587Y374413D02*
X330587Y376413D01*
X329587Y378413D01*
X331587Y377413D01*
X333587Y378413D01*
X332587Y376413D01*
X333587Y374413D01*
X331587Y375413D01*
X329587Y374413D01*
X373327Y367327D02*
X374327Y369327D01*
X373327Y371327D01*
X375327Y370327D01*
X377327Y371327D01*
X376327Y369327D01*
X377327Y367327D01*
X375327Y368327D01*
X373327Y367327D01*
X319500Y370500D02*
X320500Y372500D01*
X319500Y374500D01*
X321500Y373500D01*
X323500Y374500D01*
X322500Y372500D01*
X323500Y370500D01*
X321500Y371500D01*
X319500Y370500D01*
X321500D02*
X322500Y372500D01*
X321500Y374500D01*
X323500Y373500D01*
X325500Y374500D01*
X324500Y372500D01*
X325500Y370500D01*
X323500Y371500D01*
X321500Y370500D01*
X323500D02*
X324500Y372500D01*
X323500Y374500D01*
X325500Y373500D01*
X327500Y374500D01*
X326500Y372500D01*
X327500Y370500D01*
X325500Y371500D01*
X323500Y370500D01*
X325500D02*
X326500Y372500D01*
X325500Y374500D01*
X327500Y373500D01*
X329500Y374500D01*
X328500Y372500D01*
X329500Y370500D01*
X327500Y371500D01*
X325500Y370500D01*
X327500D02*
X328500Y372500D01*
X327500Y374500D01*
X329500Y373500D01*
X331500Y374500D01*
X330500Y372500D01*
X331500Y370500D01*
X329500Y371500D01*
X327500Y370500D01*
Y336500D02*
X328500Y338500D01*
X327500Y340500D01*
X329500Y339500D01*
X331500Y340500D01*
X330500Y338500D01*
X331500Y336500D01*
X329500Y337500D01*
X327500Y336500D01*
X340000Y368500D02*
X341000Y370500D01*
X340000Y372500D01*
X342000Y371500D01*
X344000Y372500D01*
X343000Y370500D01*
X344000Y368500D01*
X342000Y369500D01*
X340000Y368500D01*
X306673Y255000D02*
X307673Y257000D01*
X306673Y259000D01*
X308673Y258000D01*
X310673Y259000D01*
X309673Y257000D01*
X310673Y255000D01*
X308673Y256000D01*
X306673Y255000D01*
X292500Y250500D02*
X293500Y252500D01*
X292500Y254500D01*
X294500Y253500D01*
X296500Y254500D01*
X295500Y252500D01*
X296500Y250500D01*
X294500Y251500D01*
X292500Y250500D01*
X295000Y247500D02*
X296000Y249500D01*
X295000Y251500D01*
X297000Y250500D01*
X299000Y251500D01*
X298000Y249500D01*
X299000Y247500D01*
X297000Y248500D01*
X295000Y247500D01*
X300500Y251500D02*
X301500Y253500D01*
X300500Y255500D01*
X302500Y254500D01*
X304500Y255500D01*
X303500Y253500D01*
X304500Y251500D01*
X302500Y252500D01*
X300500Y251500D01*
Y254500D02*
X301500Y256500D01*
X300500Y258500D01*
X302500Y257500D01*
X304500Y258500D01*
X303500Y256500D01*
X304500Y254500D01*
X302500Y255500D01*
X300500Y254500D01*
X297500Y244500D02*
X298500Y246500D01*
X297500Y248500D01*
X299500Y247500D01*
X301500Y248500D01*
X300500Y246500D01*
X301500Y244500D01*
X299500Y245500D01*
X297500Y244500D01*
X311000Y254000D02*
X312000Y256000D01*
X311000Y258000D01*
X313000Y257000D01*
X315000Y258000D01*
X314000Y256000D01*
X315000Y254000D01*
X313000Y255000D01*
X311000Y254000D01*
X335000Y278000D02*
X336000Y280000D01*
X335000Y282000D01*
X337000Y281000D01*
X339000Y282000D01*
X338000Y280000D01*
X339000Y278000D01*
X337000Y279000D01*
X335000Y278000D01*
X328500Y276500D02*
X329500Y278500D01*
X328500Y280500D01*
X330500Y279500D01*
X332500Y280500D01*
X331500Y278500D01*
X332500Y276500D01*
X330500Y277500D01*
X328500Y276500D01*
X331500Y231500D02*
X332500Y233500D01*
X331500Y235500D01*
X333500Y234500D01*
X335500Y235500D01*
X334500Y233500D01*
X335500Y231500D01*
X333500Y232500D01*
X331500Y231500D01*
Y229500D02*
X332500Y231500D01*
X331500Y233500D01*
X333500Y232500D01*
X335500Y233500D01*
X334500Y231500D01*
X335500Y229500D01*
X333500Y230500D01*
X331500Y229500D01*
X329500Y227000D02*
X330500Y229000D01*
X329500Y231000D01*
X331500Y230000D01*
X333500Y231000D01*
X332500Y229000D01*
X333500Y227000D01*
X331500Y228000D01*
X329500Y227000D01*
Y224500D02*
X330500Y226500D01*
X329500Y228500D01*
X331500Y227500D01*
X333500Y228500D01*
X332500Y226500D01*
X333500Y224500D01*
X331500Y225500D01*
X329500Y224500D01*
Y231500D02*
X330500Y233500D01*
X329500Y235500D01*
X331500Y234500D01*
X333500Y235500D01*
X332500Y233500D01*
X333500Y231500D01*
X331500Y232500D01*
X329500Y231500D01*
Y222500D02*
X330500Y224500D01*
X329500Y226500D01*
X331500Y225500D01*
X333500Y226500D01*
X332500Y224500D01*
X333500Y222500D01*
X331500Y223500D01*
X329500Y222500D01*
Y229500D02*
X330500Y231500D01*
X329500Y233500D01*
X331500Y232500D01*
X333500Y233500D01*
X332500Y231500D01*
X333500Y229500D01*
X331500Y230500D01*
X329500Y229500D01*
X338000Y241000D02*
X339000Y243000D01*
X338000Y245000D01*
X340000Y244000D01*
X342000Y245000D01*
X341000Y243000D01*
X342000Y241000D01*
X340000Y242000D01*
X338000Y241000D01*
X352500Y353000D02*
X353500Y355000D01*
X352500Y357000D01*
X354500Y356000D01*
X356500Y357000D01*
X355500Y355000D01*
X356500Y353000D01*
X354500Y354000D01*
X352500Y353000D01*
X307000Y358000D02*
X308000Y360000D01*
X307000Y362000D01*
X309000Y361000D01*
X311000Y362000D01*
X310000Y360000D01*
X311000Y358000D01*
X309000Y359000D01*
X307000Y358000D01*
X318500Y278025D02*
X319500Y280025D01*
X318500Y282025D01*
X320500Y281025D01*
X322500Y282025D01*
X321500Y280025D01*
X322500Y278025D01*
X320500Y279025D01*
X318500Y278025D01*
X374000Y278000D02*
X375000Y280000D01*
X374000Y282000D01*
X376000Y281000D01*
X378000Y282000D01*
X377000Y280000D01*
X378000Y278000D01*
X376000Y279000D01*
X374000Y278000D01*
X376000D02*
X377000Y280000D01*
X376000Y282000D01*
X378000Y281000D01*
X380000Y282000D01*
X379000Y280000D01*
X380000Y278000D01*
X378000Y279000D01*
X376000Y278000D01*
X374000Y280000D02*
X375000Y282000D01*
X374000Y284000D01*
X376000Y283000D01*
X378000Y284000D01*
X377000Y282000D01*
X378000Y280000D01*
X376000Y281000D01*
X374000Y280000D01*
X380000Y278000D02*
X381000Y280000D01*
X380000Y282000D01*
X382000Y281000D01*
X384000Y282000D01*
X383000Y280000D01*
X384000Y278000D01*
X382000Y279000D01*
X380000Y278000D01*
X382000D02*
X383000Y280000D01*
X382000Y282000D01*
X384000Y281000D01*
X386000Y282000D01*
X385000Y280000D01*
X386000Y278000D01*
X384000Y279000D01*
X382000Y278000D01*
Y280000D02*
X383000Y282000D01*
X382000Y284000D01*
X384000Y283000D01*
X386000Y284000D01*
X385000Y282000D01*
X386000Y280000D01*
X384000Y281000D01*
X382000Y280000D01*
X380000D02*
X381000Y282000D01*
X380000Y284000D01*
X382000Y283000D01*
X384000Y284000D01*
X383000Y282000D01*
X384000Y280000D01*
X382000Y281000D01*
X380000Y280000D01*
X378000D02*
X379000Y282000D01*
X378000Y284000D01*
X380000Y283000D01*
X382000Y284000D01*
X381000Y282000D01*
X382000Y280000D01*
X380000Y281000D01*
X378000Y280000D01*
X291500Y312000D02*
X292500Y314000D01*
X291500Y316000D01*
X293500Y315000D01*
X295500Y316000D01*
X294500Y314000D01*
X295500Y312000D01*
X293500Y313000D01*
X291500Y312000D01*
D121*
X295441Y320079D02*
G03*
X295441Y320079I-2000J0D01*
G01*
Y297323D02*
G03*
X295441Y297323I-2000J0D01*
G01*
%TF.MD5,17BB0A362A41602845774BB47925F84F*%
M02*
