G04 Layer_Color=255*
%FSLAX25Y25*%
%MOIN*%
%TF.FileFunction,Pads,Bot*%
%TF.Part,Single*%
G01*
G75*
%TA.AperFunction,SMDPad*%
%ADD10R,0.03661X0.03858*%
%TA.AperFunction,ConnectorPad*%
%ADD12C,0.44488*%
%TA.AperFunction,ViaPad*%
%ADD13R,0.00394X0.00394*%
%TA.AperFunction,ViaPad*%
%ADD14O,0.07087X0.04724*%
%TA.AperFunction,ViaPad*%
%ADD15O,0.07874X0.04724*%
%TA.AperFunction,SMDPad*%
%ADD52O,0.00984X0.04331*%
%TA.AperFunction,SMDPad*%
%ADD53O,0.04331X0.00984*%
%TA.AperFunction,SMDPad*%
%ADD54R,0.21260X0.21260*%
%TA.AperFunction,SMDPad*%
%ADD55R,0.02402X0.03110*%
%TA.AperFunction,SMDPad*%
%ADD56R,0.02402X0.02795*%
%TA.AperFunction,SMDPad*%
%ADD57R,0.16535X0.09449*%
%TA.AperFunction,SMDPad*%
%ADD58R,0.02402X0.03110*%
%TA.AperFunction,SMDPad*%
%ADD59R,0.03858X0.03661*%
%TA.AperFunction,SMDPad*%
%ADD60R,0.04449X0.07087*%
%TA.AperFunction,SMDPad*%
%ADD61R,0.02362X0.02559*%
%TA.AperFunction,SMDPad*%
%ADD62R,0.04567X0.05787*%
%TA.AperFunction,SMDPad*%
%ADD63R,0.02559X0.02362*%
%TA.AperFunction,SMDPad*%
%ADD64R,0.12598X0.09252*%
%TA.AperFunction,SMDPad*%
%ADD65R,0.04528X0.01772*%
%TA.AperFunction,SMDPad*%
%ADD66R,0.05787X0.04567*%
%TA.AperFunction,SMDPad*%
%ADD67R,0.04921X0.03937*%
%TA.AperFunction,SMDPad*%
%ADD68R,0.03937X0.04921*%
%TA.AperFunction,SMDPad*%
%ADD69R,0.05118X0.01181*%
%TA.AperFunction,SMDPad*%
%ADD70R,0.18701X0.12402*%
%TA.AperFunction,SMDPad*%
%ADD71R,0.03937X0.02362*%
%TA.AperFunction,SMDPad*%
%ADD72R,0.02362X0.03937*%
D10*
X345031Y374000D02*
D03*
X338968D02*
D03*
X345031Y366500D02*
D03*
X338968D02*
D03*
X338968Y359000D02*
D03*
X345031D02*
D03*
D12*
X362201Y308701D02*
D03*
D13*
X293441Y320079D02*
D03*
Y297323D02*
D03*
D14*
X279071Y291693D02*
D03*
Y325709D02*
D03*
D15*
X295528D02*
D03*
Y291693D02*
D03*
D52*
X322673Y274476D02*
D03*
X324642D02*
D03*
X326610D02*
D03*
X328579D02*
D03*
X330547D02*
D03*
X332516D02*
D03*
X334484D02*
D03*
X336453D02*
D03*
X338421D02*
D03*
X340390D02*
D03*
X342358D02*
D03*
X344327D02*
D03*
Y246524D02*
D03*
X342358D02*
D03*
X340390D02*
D03*
X338421D02*
D03*
X336453D02*
D03*
X334484D02*
D03*
X332516D02*
D03*
X330547D02*
D03*
X328579D02*
D03*
X326610D02*
D03*
X324642D02*
D03*
X322673D02*
D03*
D53*
X347476Y271327D02*
D03*
Y269358D02*
D03*
Y267390D02*
D03*
Y265421D02*
D03*
Y263453D02*
D03*
Y261484D02*
D03*
Y259516D02*
D03*
Y257547D02*
D03*
Y255579D02*
D03*
Y253610D02*
D03*
Y251642D02*
D03*
Y249673D02*
D03*
X319524D02*
D03*
Y251642D02*
D03*
Y253610D02*
D03*
Y255579D02*
D03*
Y257547D02*
D03*
Y259516D02*
D03*
Y261484D02*
D03*
Y263453D02*
D03*
Y265421D02*
D03*
Y267390D02*
D03*
Y269358D02*
D03*
Y271327D02*
D03*
D54*
X333500Y260500D02*
D03*
D55*
X378993Y280413D02*
D03*
X384295D02*
D03*
X378993Y252413D02*
D03*
X384295D02*
D03*
D56*
X368705Y280571D02*
D03*
Y259430D02*
D03*
X373990D02*
D03*
X378990D02*
D03*
X384295D02*
D03*
X368705Y252571D02*
D03*
Y231430D02*
D03*
X373990D02*
D03*
X378990D02*
D03*
X384295D02*
D03*
D57*
X376490Y268406D02*
D03*
Y240406D02*
D03*
D58*
X374000Y280413D02*
D03*
Y252413D02*
D03*
D59*
X360000Y266032D02*
D03*
Y259968D02*
D03*
Y243969D02*
D03*
Y250031D02*
D03*
X384000Y376031D02*
D03*
Y369969D02*
D03*
D60*
X360366Y231500D02*
D03*
X348634D02*
D03*
X321634Y292500D02*
D03*
X333366D02*
D03*
D61*
X342327Y240000D02*
D03*
X345673D02*
D03*
X351327D02*
D03*
X354673D02*
D03*
X337173Y240000D02*
D03*
X333827D02*
D03*
X308673Y259500D02*
D03*
X305327D02*
D03*
X308673Y254000D02*
D03*
X305327D02*
D03*
X308673Y265000D02*
D03*
X305327D02*
D03*
X308673Y248500D02*
D03*
X305327D02*
D03*
X344827Y279500D02*
D03*
X348173D02*
D03*
X395673Y383000D02*
D03*
X392327D02*
D03*
X386673D02*
D03*
X383327D02*
D03*
X318673Y360500D02*
D03*
X315327D02*
D03*
D62*
X333496Y232500D02*
D03*
X340504D02*
D03*
X313504Y293000D02*
D03*
X306496D02*
D03*
X313504Y283500D02*
D03*
X306496D02*
D03*
D63*
X355000Y277673D02*
D03*
Y274327D02*
D03*
X360500Y274327D02*
D03*
Y277673D02*
D03*
X326500Y236673D02*
D03*
Y233327D02*
D03*
X389500Y339673D02*
D03*
Y336327D02*
D03*
X309000Y368827D02*
D03*
Y372173D02*
D03*
X292000Y267682D02*
D03*
Y264336D02*
D03*
X411000Y374173D02*
D03*
Y370827D02*
D03*
X405000Y374173D02*
D03*
Y370827D02*
D03*
X377500Y372673D02*
D03*
Y369327D02*
D03*
X377500Y378327D02*
D03*
Y381673D02*
D03*
X314500Y372173D02*
D03*
Y368827D02*
D03*
D64*
X317000Y304394D02*
D03*
Y328606D02*
D03*
X407500Y337394D02*
D03*
Y361606D02*
D03*
D65*
X316260Y352500D02*
D03*
Y347500D02*
D03*
Y342500D02*
D03*
Y337500D02*
D03*
X293740Y352500D02*
D03*
Y347500D02*
D03*
Y342500D02*
D03*
Y337500D02*
D03*
X366740Y347500D02*
D03*
Y352500D02*
D03*
Y357500D02*
D03*
Y362500D02*
D03*
X389260Y347500D02*
D03*
Y352500D02*
D03*
Y357500D02*
D03*
Y362500D02*
D03*
D66*
X425500Y346004D02*
D03*
Y338996D02*
D03*
X326000Y351496D02*
D03*
Y358504D02*
D03*
D67*
X293693Y274000D02*
D03*
X305307D02*
D03*
D68*
X298500Y256193D02*
D03*
Y267807D02*
D03*
D69*
X298087Y295512D02*
D03*
Y296693D02*
D03*
Y298662D02*
D03*
X298087Y299843D02*
D03*
X298087Y301811D02*
D03*
Y303780D02*
D03*
Y305748D02*
D03*
Y307717D02*
D03*
Y309685D02*
D03*
Y311654D02*
D03*
Y315591D02*
D03*
X298086Y317559D02*
D03*
Y318741D02*
D03*
X298087Y320709D02*
D03*
Y321890D02*
D03*
Y313621D02*
D03*
D70*
X414000Y280346D02*
D03*
Y323654D02*
D03*
D71*
X399724Y376740D02*
D03*
Y373000D02*
D03*
Y369260D02*
D03*
X390276D02*
D03*
Y376740D02*
D03*
D72*
X321760Y365587D02*
D03*
X329240D02*
D03*
Y376413D02*
D03*
X325500D02*
D03*
X321760D02*
D03*
X369740Y369776D02*
D03*
X366000D02*
D03*
X362260D02*
D03*
Y379224D02*
D03*
X369740D02*
D03*
%TF.MD5,771434DF66F9F580FDFD075529C6255C*%
M02*
