G04 Layer_Color=128*
%FSLAX25Y25*%
%MOIN*%
%TF.FileFunction,Drillmap*%
%TF.Part,Single*%
G01*
G75*
%ADD120C,0.00500*%
D120*
X347437Y308701D02*
X376965D01*
X362201Y293937D02*
Y323465D01*
X292063Y320079D02*
X294819D01*
X293441Y318701D02*
Y321457D01*
X292063Y297323D02*
X294819D01*
X293441Y295945D02*
Y298701D01*
X277693Y291693D02*
X280449D01*
X279071Y290315D02*
Y293071D01*
X277693Y325709D02*
X280449D01*
X279071Y324331D02*
Y327087D01*
X294150Y325709D02*
X296906D01*
X295528Y324331D02*
Y327087D01*
X294150Y291693D02*
X296906D01*
X295528Y290315D02*
Y293071D01*
X307500Y316500D02*
X308500D01*
X308000Y316000D02*
Y317000D01*
X335500Y253000D02*
X336500D01*
X336000Y252500D02*
Y253500D01*
X338000Y253000D02*
X339000D01*
X338500Y252500D02*
Y253500D01*
X325500Y255500D02*
X326500D01*
X326000Y255000D02*
Y256000D01*
X325500Y258000D02*
X326500D01*
X326000Y257500D02*
Y258500D01*
X325500Y260500D02*
X326500D01*
X326000Y260000D02*
Y261000D01*
X325500Y268000D02*
X326500D01*
X326000Y267500D02*
Y268500D01*
X328000Y268000D02*
X329000D01*
X328500Y267500D02*
Y268500D01*
X330500Y268000D02*
X331500D01*
X331000Y267500D02*
Y268500D01*
X333000Y268000D02*
X334000D01*
X333500Y267500D02*
Y268500D01*
X335500Y268000D02*
X336500D01*
X336000Y267500D02*
Y268500D01*
X338000Y268000D02*
X339000D01*
X338500Y267500D02*
Y268500D01*
X325500Y263000D02*
X326500D01*
X326000Y262500D02*
Y263500D01*
X325500Y265500D02*
X326500D01*
X326000Y265000D02*
Y266000D01*
X321000Y238500D02*
X322000D01*
X321500Y238000D02*
Y239000D01*
X314500Y235000D02*
X315500D01*
X315000Y234500D02*
Y235500D01*
X317500Y233000D02*
X318500D01*
X318000Y232500D02*
Y233500D01*
X317000Y241500D02*
X318000D01*
X317500Y241000D02*
Y242000D01*
X311000Y237000D02*
X312000D01*
X311500Y236500D02*
Y237500D01*
X421500Y358000D02*
X422500D01*
X422000Y357500D02*
Y358500D01*
X315500Y244000D02*
X316500D01*
X316000Y243500D02*
Y244500D01*
X308000Y239000D02*
X309000D01*
X308500Y238500D02*
Y239500D01*
X319000Y236500D02*
X320000D01*
X319500Y236000D02*
Y237000D01*
X342500Y279500D02*
X343500D01*
X343000Y279000D02*
Y280000D01*
X314000Y250500D02*
X315000D01*
X314500Y250000D02*
Y251000D01*
X304500Y241500D02*
X305500D01*
X305000Y241000D02*
Y242000D01*
X312500Y253000D02*
X313500D01*
X313000Y252500D02*
Y253500D01*
X302000Y244000D02*
X303000D01*
X302500Y243500D02*
Y244500D01*
X369500Y222500D02*
X370500D01*
X370000Y222000D02*
Y223000D01*
X369500Y224500D02*
X370500D01*
X370000Y224000D02*
Y225000D01*
X375500Y222500D02*
X376500D01*
X376000Y222000D02*
Y223000D01*
X383500Y231000D02*
X384500D01*
X384000Y230500D02*
Y231500D01*
X385500Y231000D02*
X386500D01*
X386000Y230500D02*
Y231500D01*
X385500Y233000D02*
X386500D01*
X386000Y232500D02*
Y233500D01*
X383500Y233000D02*
X384500D01*
X384000Y232500D02*
Y233500D01*
X378500Y231000D02*
X379500D01*
X379000Y230500D02*
Y231500D01*
X378500Y233000D02*
X379500D01*
X379000Y232500D02*
Y233500D01*
X377500Y222500D02*
X378500D01*
X378000Y222000D02*
Y223000D01*
X373500Y222500D02*
X374500D01*
X374000Y222000D02*
Y223000D01*
X369500Y220500D02*
X370500D01*
X370000Y220000D02*
Y221000D01*
X392000Y226000D02*
X393000D01*
X392500Y225500D02*
Y226500D01*
X366500Y220000D02*
X367500D01*
X367000Y219500D02*
Y220500D01*
X363000Y219500D02*
X364000D01*
X363500Y219000D02*
Y220000D01*
X360000Y219500D02*
X361000D01*
X360500Y219000D02*
Y220000D01*
X357000Y219500D02*
X358000D01*
X357500Y219000D02*
Y220000D01*
X353000D02*
X354000D01*
X353500Y219500D02*
Y220500D01*
X349500D02*
X350500D01*
X350000Y220000D02*
Y221000D01*
X346000D02*
X347000D01*
X346500Y220500D02*
Y221500D01*
X342500Y222000D02*
X343500D01*
X343000Y221500D02*
Y222500D01*
X399500Y250500D02*
X400500D01*
X400000Y250000D02*
Y251000D01*
X401500Y252500D02*
X402500D01*
X402000Y252000D02*
Y253000D01*
X399500Y252500D02*
X400500D01*
X400000Y252000D02*
Y253000D01*
X399500Y254500D02*
X400500D01*
X400000Y254000D02*
Y255000D01*
X401500Y254500D02*
X402500D01*
X402000Y254000D02*
Y255000D01*
X401500Y256500D02*
X402500D01*
X402000Y256000D02*
Y257000D01*
X399500Y256500D02*
X400500D01*
X400000Y256000D02*
Y257000D01*
X401500Y258500D02*
X402500D01*
X402000Y258000D02*
Y259000D01*
X399500Y258500D02*
X400500D01*
X400000Y258000D02*
Y259000D01*
X350000Y230500D02*
X351000D01*
X350500Y230000D02*
Y231000D01*
X350000Y232500D02*
X351000D01*
X350500Y232000D02*
Y233000D01*
X350000Y234500D02*
X351000D01*
X350500Y234000D02*
Y235000D01*
X348000Y234500D02*
X349000D01*
X348500Y234000D02*
Y235000D01*
X354000Y228500D02*
X355000D01*
X354500Y228000D02*
Y229000D01*
X350000Y228500D02*
X351000D01*
X350500Y228000D02*
Y229000D01*
X385000Y259000D02*
X386000D01*
X385500Y258500D02*
Y259500D01*
X383000Y259000D02*
X384000D01*
X383500Y258500D02*
Y259500D01*
X379000Y259000D02*
X380000D01*
X379500Y258500D02*
Y259500D01*
X372500Y259000D02*
X373500D01*
X373000Y258500D02*
Y259500D01*
X374500Y259000D02*
X375500D01*
X375000Y258500D02*
Y259500D01*
X371500Y282000D02*
X372500D01*
X372000Y281500D02*
Y282500D01*
X371500Y280000D02*
X372500D01*
X372000Y279500D02*
Y280500D01*
X373500Y280000D02*
X374500D01*
X374000Y279500D02*
Y280500D01*
X373500Y281968D02*
X374500D01*
X374000Y281468D02*
Y282468D01*
X371500Y278000D02*
X372500D01*
X372000Y277500D02*
Y278500D01*
X373500Y278000D02*
X374500D01*
X374000Y277500D02*
Y278500D01*
X352000Y228500D02*
X353000D01*
X352500Y228000D02*
Y229000D01*
X346000Y234500D02*
X347000D01*
X346500Y234000D02*
Y235000D01*
X364000Y254000D02*
X365000D01*
X364500Y253500D02*
Y254500D01*
X368000Y255500D02*
X369000D01*
X368500Y255000D02*
Y256000D01*
X383000Y256500D02*
X384000D01*
X383500Y256000D02*
Y257000D01*
X385000Y256500D02*
X386000D01*
X385500Y256000D02*
Y257000D01*
X387500Y256500D02*
X388500D01*
X388000Y256000D02*
Y257000D01*
X387500Y254500D02*
X388500D01*
X388000Y254000D02*
Y255000D01*
X389500Y256500D02*
X390500D01*
X390000Y256000D02*
Y257000D01*
X391500Y256500D02*
X392500D01*
X392000Y256000D02*
Y257000D01*
X393500Y256500D02*
X394500D01*
X394000Y256000D02*
Y257000D01*
X389500Y254500D02*
X390500D01*
X390000Y254000D02*
Y255000D01*
X391500Y254500D02*
X392500D01*
X392000Y254000D02*
Y255000D01*
X393500Y254500D02*
X394500D01*
X394000Y254000D02*
Y255000D01*
X393500Y252500D02*
X394500D01*
X394000Y252000D02*
Y253000D01*
X391500Y252500D02*
X392500D01*
X392000Y252000D02*
Y253000D01*
X389500Y252500D02*
X390500D01*
X390000Y252000D02*
Y253000D01*
X387500Y252500D02*
X388500D01*
X388000Y252000D02*
Y253000D01*
X387500Y250500D02*
X388500D01*
X388000Y250000D02*
Y251000D01*
X389500Y250500D02*
X390500D01*
X390000Y250000D02*
Y251000D01*
X391500Y250500D02*
X392500D01*
X392000Y250000D02*
Y251000D01*
X393500Y250500D02*
X394500D01*
X394000Y250000D02*
Y251000D01*
X395500Y250500D02*
X396500D01*
X396000Y250000D02*
Y251000D01*
X395500Y252500D02*
X396500D01*
X396000Y252000D02*
Y253000D01*
X395500Y254500D02*
X396500D01*
X396000Y254000D02*
Y255000D01*
X395500Y256500D02*
X396500D01*
X396000Y256000D02*
Y257000D01*
X397500Y256500D02*
X398500D01*
X398000Y256000D02*
Y257000D01*
X397500Y254500D02*
X398500D01*
X398000Y254000D02*
Y255000D01*
X397500Y252500D02*
X398500D01*
X398000Y252000D02*
Y253000D01*
X397500Y250500D02*
X398500D01*
X398000Y250000D02*
Y251000D01*
X397500Y248500D02*
X398500D01*
X398000Y248000D02*
Y249000D01*
X395500Y248500D02*
X396500D01*
X396000Y248000D02*
Y249000D01*
X393500Y248500D02*
X394500D01*
X394000Y248000D02*
Y249000D01*
X391500Y248500D02*
X392500D01*
X392000Y248000D02*
Y249000D01*
X389500Y248500D02*
X390500D01*
X390000Y248000D02*
Y249000D01*
X387500Y248500D02*
X388500D01*
X388000Y248000D02*
Y249000D01*
X397500Y258500D02*
X398500D01*
X398000Y258000D02*
Y259000D01*
X395500Y258500D02*
X396500D01*
X396000Y258000D02*
Y259000D01*
X393500Y258500D02*
X394500D01*
X394000Y258000D02*
Y259000D01*
X391500Y258500D02*
X392500D01*
X392000Y258000D02*
Y259000D01*
X389500Y258500D02*
X390500D01*
X390000Y258000D02*
Y259000D01*
X387500Y258500D02*
X388500D01*
X388000Y258000D02*
Y259000D01*
X381000Y260500D02*
X382000D01*
X381500Y260000D02*
Y261000D01*
X381000Y258500D02*
X382000D01*
X381500Y258000D02*
Y259000D01*
X381000Y256500D02*
X382000D01*
X381500Y256000D02*
Y257000D01*
X383500Y248000D02*
X384500D01*
X384000Y247500D02*
Y248500D01*
X383500Y250000D02*
X384500D01*
X384000Y249500D02*
Y250500D01*
X381500Y250000D02*
X382500D01*
X382000Y249500D02*
Y250500D01*
X379500Y250000D02*
X380500D01*
X380000Y249500D02*
Y250500D01*
X381500Y248000D02*
X382500D01*
X382000Y247500D02*
Y248500D01*
X379500Y248000D02*
X380500D01*
X380000Y247500D02*
Y248500D01*
X377500Y250000D02*
X378500D01*
X378000Y249500D02*
Y250500D01*
X377500Y248000D02*
X378500D01*
X378000Y247500D02*
Y248500D01*
X375500Y248000D02*
X376500D01*
X376000Y247500D02*
Y248500D01*
X375500Y250000D02*
X376500D01*
X376000Y249500D02*
Y250500D01*
X373500Y248000D02*
X374500D01*
X374000Y247500D02*
Y248500D01*
X373500Y250000D02*
X374500D01*
X374000Y249500D02*
Y250500D01*
X371500Y248000D02*
X372500D01*
X372000Y247500D02*
Y248500D01*
X369500Y248000D02*
X370500D01*
X370000Y247500D02*
Y248500D01*
X373500Y228500D02*
X374500D01*
X374000Y228000D02*
Y229000D01*
X375500Y228500D02*
X376500D01*
X376000Y228000D02*
Y229000D01*
X377500Y228500D02*
X378500D01*
X378000Y228000D02*
Y229000D01*
X379500Y228500D02*
X380500D01*
X380000Y228000D02*
Y229000D01*
X381500Y228500D02*
X382500D01*
X382000Y228000D02*
Y229000D01*
X383500Y228500D02*
X384500D01*
X384000Y228000D02*
Y229000D01*
X383500Y226500D02*
X384500D01*
X384000Y226000D02*
Y227000D01*
X381500Y226500D02*
X382500D01*
X382000Y226000D02*
Y227000D01*
X379500Y226500D02*
X380500D01*
X380000Y226000D02*
Y227000D01*
X377500Y226500D02*
X378500D01*
X378000Y226000D02*
Y227000D01*
X375500Y226500D02*
X376500D01*
X376000Y226000D02*
Y227000D01*
X373500Y226500D02*
X374500D01*
X374000Y226000D02*
Y227000D01*
X373500Y224500D02*
X374500D01*
X374000Y224000D02*
Y225000D01*
X375500Y224500D02*
X376500D01*
X376000Y224000D02*
Y225000D01*
X377500Y224500D02*
X378500D01*
X378000Y224000D02*
Y225000D01*
X379500Y224500D02*
X380500D01*
X380000Y224000D02*
Y225000D01*
X381500Y224500D02*
X382500D01*
X382000Y224000D02*
Y225000D01*
X383500Y224500D02*
X384500D01*
X384000Y224000D02*
Y225000D01*
X385500Y226500D02*
X386500D01*
X386000Y226000D02*
Y227000D01*
X385500Y228500D02*
X386500D01*
X386000Y228000D02*
Y229000D01*
X387500Y226500D02*
X388500D01*
X388000Y226000D02*
Y227000D01*
X387500Y228500D02*
X388500D01*
X388000Y228000D02*
Y229000D01*
X387500Y230500D02*
X388500D01*
X388000Y230000D02*
Y231000D01*
X387500Y232500D02*
X388500D01*
X388000Y232000D02*
Y233000D01*
X381000Y231000D02*
X382000D01*
X381500Y230500D02*
Y231500D01*
X381000Y233000D02*
X382000D01*
X381500Y232500D02*
Y233500D01*
X376000Y233000D02*
X377000D01*
X376500Y232500D02*
Y233500D01*
X376000Y231000D02*
X377000D01*
X376500Y230500D02*
Y231500D01*
X389500Y232500D02*
X390500D01*
X390000Y232000D02*
Y233000D01*
X389500Y230500D02*
X390500D01*
X390000Y230000D02*
Y231000D01*
X389500Y228500D02*
X390500D01*
X390000Y228000D02*
Y229000D01*
X389500Y226500D02*
X390500D01*
X390000Y226000D02*
Y227000D01*
X385500Y224500D02*
X386500D01*
X386000Y224000D02*
Y225000D01*
X364000Y241000D02*
X365000D01*
X364500Y240500D02*
Y241500D01*
X361000Y234500D02*
X362000D01*
X361500Y234000D02*
Y235000D01*
X359000Y234500D02*
X360000D01*
X359500Y234000D02*
Y235000D01*
X359000Y232500D02*
X360000D01*
X359500Y232000D02*
Y233000D01*
X361000Y232500D02*
X362000D01*
X361500Y232000D02*
Y233000D01*
X361000Y230500D02*
X362000D01*
X361500Y230000D02*
Y231000D01*
X359000Y230500D02*
X360000D01*
X359500Y230000D02*
Y231000D01*
X359000Y228500D02*
X360000D01*
X359500Y228000D02*
Y229000D01*
X361000Y228500D02*
X362000D01*
X361500Y228000D02*
Y229000D01*
X363000Y230500D02*
X364000D01*
X363500Y230000D02*
Y231000D01*
X363000Y228500D02*
X364000D01*
X363500Y228000D02*
Y229000D01*
X365000Y228500D02*
X366000D01*
X365500Y228000D02*
Y229000D01*
X361000Y236500D02*
X362000D01*
X361500Y236000D02*
Y237000D01*
X359000Y238500D02*
X360000D01*
X359500Y238000D02*
Y239000D01*
X359000Y236500D02*
X360000D01*
X359500Y236000D02*
Y237000D01*
X361000Y238500D02*
X362000D01*
X361500Y238000D02*
Y239000D01*
X346000Y226000D02*
X347000D01*
X346500Y225500D02*
Y226500D01*
X348000Y226000D02*
X349000D01*
X348500Y225500D02*
Y226500D01*
X350000Y226000D02*
X351000D01*
X350500Y225500D02*
Y226500D01*
X346000Y228500D02*
X347000D01*
X346500Y228000D02*
Y229000D01*
X348000Y228500D02*
X349000D01*
X348500Y228000D02*
Y229000D01*
X348000Y230500D02*
X349000D01*
X348500Y230000D02*
Y231000D01*
X346000Y230500D02*
X347000D01*
X346500Y230000D02*
Y231000D01*
X348000Y232500D02*
X349000D01*
X348500Y232000D02*
Y233000D01*
X352000Y226000D02*
X353000D01*
X352500Y225500D02*
Y226500D01*
X355000Y224000D02*
X356000D01*
X355500Y223500D02*
Y224500D01*
X354000Y226000D02*
X355000D01*
X354500Y225500D02*
Y226500D01*
X356000Y226000D02*
X357000D01*
X356500Y225500D02*
Y226500D01*
X358500Y225500D02*
X359500D01*
X359000Y225000D02*
Y226000D01*
X361500Y225500D02*
X362500D01*
X362000Y225000D02*
Y226000D01*
X363000Y224000D02*
X364000D01*
X363500Y223500D02*
Y224500D01*
X364500Y225500D02*
X365500D01*
X365000Y225000D02*
Y226000D01*
X379000Y256500D02*
X380000D01*
X379500Y256000D02*
Y257000D01*
X376500Y256500D02*
X377500D01*
X377000Y256000D02*
Y257000D01*
X374500Y256500D02*
X375500D01*
X375000Y256000D02*
Y257000D01*
X372500Y256500D02*
X373500D01*
X373000Y256000D02*
Y257000D01*
X376500Y259000D02*
X377500D01*
X377000Y258500D02*
Y259500D01*
X357000Y224000D02*
X358000D01*
X357500Y223500D02*
Y224500D01*
X360000Y224000D02*
X361000D01*
X360500Y223500D02*
Y224500D01*
X366000Y224000D02*
X367000D01*
X366500Y223500D02*
Y224500D01*
X426000Y318500D02*
X427000D01*
X426500Y318000D02*
Y319000D01*
X428000Y318500D02*
X429000D01*
X428500Y318000D02*
Y319000D01*
X430000Y318500D02*
X431000D01*
X430500Y318000D02*
Y319000D01*
X432000Y318500D02*
X433000D01*
X432500Y318000D02*
Y319000D01*
X434000Y318500D02*
X435000D01*
X434500Y318000D02*
Y319000D01*
X436000Y318500D02*
X437000D01*
X436500Y318000D02*
Y319000D01*
X436000Y316500D02*
X437000D01*
X436500Y316000D02*
Y317000D01*
X434000Y316500D02*
X435000D01*
X434500Y316000D02*
Y317000D01*
X434000Y314500D02*
X435000D01*
X434500Y314000D02*
Y315000D01*
X436000Y314500D02*
X437000D01*
X436500Y314000D02*
Y315000D01*
X432000Y316500D02*
X433000D01*
X432500Y316000D02*
Y317000D01*
X430000Y316500D02*
X431000D01*
X430500Y316000D02*
Y317000D01*
X428000Y316500D02*
X429000D01*
X428500Y316000D02*
Y317000D01*
X426000Y316500D02*
X427000D01*
X426500Y316000D02*
Y317000D01*
X426000Y314500D02*
X427000D01*
X426500Y314000D02*
Y315000D01*
X428000Y314500D02*
X429000D01*
X428500Y314000D02*
Y315000D01*
X430000Y314500D02*
X431000D01*
X430500Y314000D02*
Y315000D01*
X432000Y314500D02*
X433000D01*
X432500Y314000D02*
Y315000D01*
X426000Y312500D02*
X427000D01*
X426500Y312000D02*
Y313000D01*
X428000Y312500D02*
X429000D01*
X428500Y312000D02*
Y313000D01*
X430000Y312500D02*
X431000D01*
X430500Y312000D02*
Y313000D01*
X432000Y312500D02*
X433000D01*
X432500Y312000D02*
Y313000D01*
X434000Y312500D02*
X435000D01*
X434500Y312000D02*
Y313000D01*
X436000Y312500D02*
X437000D01*
X436500Y312000D02*
Y313000D01*
X436000Y310500D02*
X437000D01*
X436500Y310000D02*
Y311000D01*
X434000Y310500D02*
X435000D01*
X434500Y310000D02*
Y311000D01*
X432000Y310500D02*
X433000D01*
X432500Y310000D02*
Y311000D01*
X430000Y310500D02*
X431000D01*
X430500Y310000D02*
Y311000D01*
X428000Y310500D02*
X429000D01*
X428500Y310000D02*
Y311000D01*
X426000Y310500D02*
X427000D01*
X426500Y310000D02*
Y311000D01*
X426000Y308500D02*
X427000D01*
X426500Y308000D02*
Y309000D01*
X428000Y308500D02*
X429000D01*
X428500Y308000D02*
Y309000D01*
X430000Y308500D02*
X431000D01*
X430500Y308000D02*
Y309000D01*
X432000Y308500D02*
X433000D01*
X432500Y308000D02*
Y309000D01*
X434000Y308500D02*
X435000D01*
X434500Y308000D02*
Y309000D01*
X436000Y308500D02*
X437000D01*
X436500Y308000D02*
Y309000D01*
X359500Y243969D02*
X360500D01*
X360000Y243468D02*
Y244468D01*
X339500Y293500D02*
X340500D01*
X340000Y293000D02*
Y294000D01*
X337500Y293500D02*
X338500D01*
X338000Y293000D02*
Y294000D01*
X339500Y291500D02*
X340500D01*
X340000Y291000D02*
Y292000D01*
X339500Y289500D02*
X340500D01*
X340000Y289000D02*
Y290000D01*
X339500Y287500D02*
X340500D01*
X340000Y287000D02*
Y288000D01*
X337500Y291500D02*
X338500D01*
X338000Y291000D02*
Y292000D01*
X337500Y289500D02*
X338500D01*
X338000Y289000D02*
Y290000D01*
X335500Y289500D02*
X336500D01*
X336000Y289000D02*
Y290000D01*
X335500Y291500D02*
X336500D01*
X336000Y291000D02*
Y292000D01*
X335500Y293500D02*
X336500D01*
X336000Y293000D02*
Y294000D01*
X333500Y289500D02*
X334500D01*
X334000Y289000D02*
Y290000D01*
X331500Y289500D02*
X332500D01*
X332000Y289000D02*
Y290000D01*
X341500Y287500D02*
X342500D01*
X342000Y287000D02*
Y288000D01*
X341500Y289500D02*
X342500D01*
X342000Y289000D02*
Y290000D01*
X341500Y291500D02*
X342500D01*
X342000Y291000D02*
Y292000D01*
X343500Y289500D02*
X344500D01*
X344000Y289000D02*
Y290000D01*
X343500Y287500D02*
X344500D01*
X344000Y287000D02*
Y288000D01*
X375500Y278000D02*
X376500D01*
X376000Y277500D02*
Y278500D01*
X377500Y278000D02*
X378500D01*
X378000Y277500D02*
Y278500D01*
X379500Y278000D02*
X380500D01*
X380000Y277500D02*
Y278500D01*
X381500Y278000D02*
X382500D01*
X382000Y277500D02*
Y278500D01*
X383500Y278000D02*
X384500D01*
X384000Y277500D02*
Y278500D01*
X383500Y276000D02*
X384500D01*
X384000Y275500D02*
Y276500D01*
X381500Y276000D02*
X382500D01*
X382000Y275500D02*
Y276500D01*
X379500Y276000D02*
X380500D01*
X380000Y275500D02*
Y276500D01*
X377500Y276000D02*
X378500D01*
X378000Y275500D02*
Y276500D01*
X375500Y276000D02*
X376500D01*
X376000Y275500D02*
Y276500D01*
X373500Y276000D02*
X374500D01*
X374000Y275500D02*
Y276500D01*
X371500Y276000D02*
X372500D01*
X372000Y275500D02*
Y276500D01*
X369500Y276000D02*
X370500D01*
X370000Y275500D02*
Y276500D01*
X302000Y312500D02*
X303000D01*
X302500Y312000D02*
Y313000D01*
X302000Y309500D02*
X303000D01*
X302500Y309000D02*
Y310000D01*
X293500Y304000D02*
X294500D01*
X294000Y303500D02*
Y304500D01*
X308173Y262673D02*
X309173D01*
X308673Y262173D02*
Y263173D01*
X346000Y232500D02*
X347000D01*
X346500Y232000D02*
Y233000D01*
X321000Y291000D02*
X322000D01*
X321500Y290500D02*
Y291500D01*
X333000Y260500D02*
X334000D01*
X333500Y260000D02*
Y261000D01*
X330500Y260500D02*
X331500D01*
X331000Y260000D02*
Y261000D01*
X335500Y260500D02*
X336500D01*
X336000Y260000D02*
Y261000D01*
X335500Y263000D02*
X336500D01*
X336000Y262500D02*
Y263500D01*
X330500Y263000D02*
X331500D01*
X331000Y262500D02*
Y263500D01*
X333000Y263000D02*
X334000D01*
X333500Y262500D02*
Y263500D01*
X330500Y258000D02*
X331500D01*
X331000Y257500D02*
Y258500D01*
X333000Y258000D02*
X334000D01*
X333500Y257500D02*
Y258500D01*
X335500Y258000D02*
X336500D01*
X336000Y257500D02*
Y258500D01*
X335500Y265500D02*
X336500D01*
X336000Y265000D02*
Y266000D01*
X333000Y265500D02*
X334000D01*
X333500Y265000D02*
Y266000D01*
X330500Y265500D02*
X331500D01*
X331000Y265000D02*
Y266000D01*
X328000Y265500D02*
X329000D01*
X328500Y265000D02*
Y266000D01*
X328000Y263000D02*
X329000D01*
X328500Y262500D02*
Y263500D01*
X338000Y263000D02*
X339000D01*
X338500Y262500D02*
Y263500D01*
X338000Y265500D02*
X339000D01*
X338500Y265000D02*
Y266000D01*
X338000Y260500D02*
X339000D01*
X338500Y260000D02*
Y261000D01*
X338000Y258000D02*
X339000D01*
X338500Y257500D02*
Y258500D01*
X328000Y258000D02*
X329000D01*
X328500Y257500D02*
Y258500D01*
X328000Y260500D02*
X329000D01*
X328500Y260000D02*
Y261000D01*
X328000Y255500D02*
X329000D01*
X328500Y255000D02*
Y256000D01*
X330500Y255500D02*
X331500D01*
X331000Y255000D02*
Y256000D01*
X333000Y255500D02*
X334000D01*
X333500Y255000D02*
Y256000D01*
X335500Y255500D02*
X336500D01*
X336000Y255000D02*
Y256000D01*
X338000Y255500D02*
X339000D01*
X338500Y255000D02*
Y256000D01*
X346500Y274000D02*
X347500D01*
X347000Y273500D02*
Y274500D01*
X339890Y278610D02*
X340890D01*
X340390Y278110D02*
Y279110D01*
X301500Y326500D02*
X302500D01*
X302000Y326000D02*
Y327000D01*
X303500Y326500D02*
X304500D01*
X304000Y326000D02*
Y327000D01*
X305500Y326500D02*
X306500D01*
X306000Y326000D02*
Y327000D01*
X305500Y324500D02*
X306500D01*
X306000Y324000D02*
Y325000D01*
X303500Y324500D02*
X304500D01*
X304000Y324000D02*
Y325000D01*
X301500Y324500D02*
X302500D01*
X302000Y324000D02*
Y325000D01*
X303500Y322500D02*
X304500D01*
X304000Y322000D02*
Y323000D01*
X305500Y322500D02*
X306500D01*
X306000Y322000D02*
Y323000D01*
X307500Y324500D02*
X308500D01*
X308000Y324000D02*
Y325000D01*
X307500Y326500D02*
X308500D01*
X308000Y326000D02*
Y327000D01*
X307500Y328500D02*
X308500D01*
X308000Y328000D02*
Y329000D01*
X305500Y328500D02*
X306500D01*
X306000Y328000D02*
Y329000D01*
X303500Y328500D02*
X304500D01*
X304000Y328000D02*
Y329000D01*
X301500Y328500D02*
X302500D01*
X302000Y328000D02*
Y329000D01*
X307500Y322500D02*
X308500D01*
X308000Y322000D02*
Y323000D01*
X303500Y320500D02*
X304500D01*
X304000Y320000D02*
Y321000D01*
X305500Y320500D02*
X306500D01*
X306000Y320000D02*
Y321000D01*
X307500Y320500D02*
X308500D01*
X308000Y320000D02*
Y321000D01*
X309500Y324500D02*
X310500D01*
X310000Y324000D02*
Y325000D01*
X309500Y326500D02*
X310500D01*
X310000Y326000D02*
Y327000D01*
X309500Y328500D02*
X310500D01*
X310000Y328000D02*
Y329000D01*
X307500Y318500D02*
X308500D01*
X308000Y318000D02*
Y319000D01*
X305500Y318500D02*
X306500D01*
X306000Y318000D02*
Y319000D01*
X292500Y288000D02*
X293500D01*
X293000Y287500D02*
Y288500D01*
X294500Y288000D02*
X295500D01*
X295000Y287500D02*
Y288500D01*
X296500Y288000D02*
X297500D01*
X297000Y287500D02*
Y288500D01*
X298500Y288000D02*
X299500D01*
X299000Y287500D02*
Y288500D01*
X298500Y286000D02*
X299500D01*
X299000Y285500D02*
Y286500D01*
X296500Y286000D02*
X297500D01*
X297000Y285500D02*
Y286500D01*
X294500Y286000D02*
X295500D01*
X295000Y285500D02*
Y286500D01*
X292500Y286000D02*
X293500D01*
X293000Y285500D02*
Y286500D01*
X292500Y284000D02*
X293500D01*
X293000Y283500D02*
Y284500D01*
X294500Y284000D02*
X295500D01*
X295000Y283500D02*
Y284500D01*
X296500Y284000D02*
X297500D01*
X297000Y283500D02*
Y284500D01*
X298500Y284000D02*
X299500D01*
X299000Y283500D02*
Y284500D01*
X301500Y322500D02*
X302500D01*
X302000Y322000D02*
Y323000D01*
X303500Y318500D02*
X304500D01*
X304000Y318000D02*
Y319000D01*
X299000Y299500D02*
X300000D01*
X299500Y299000D02*
Y300000D01*
X296000Y299500D02*
X297000D01*
X296500Y299000D02*
Y300000D01*
X299000Y318000D02*
X300000D01*
X299500Y317500D02*
Y318500D01*
X296500Y318000D02*
X297500D01*
X297000Y317500D02*
Y318500D01*
X290000Y313500D02*
X291000D01*
X290500Y313000D02*
Y314000D01*
X290000Y311500D02*
X291000D01*
X290500Y311000D02*
Y312000D01*
X288000Y311500D02*
X289000D01*
X288500Y311000D02*
Y312000D01*
X290000Y299000D02*
X291000D01*
X290500Y298500D02*
Y299500D01*
X288000Y299000D02*
X289000D01*
X288500Y298500D02*
Y299500D01*
X290000Y301000D02*
X291000D01*
X290500Y300500D02*
Y301500D01*
X288000Y301000D02*
X289000D01*
X288500Y300500D02*
Y301500D01*
X290000Y303000D02*
X291000D01*
X290500Y302500D02*
Y303500D01*
X288000Y303000D02*
X289000D01*
X288500Y302500D02*
Y303500D01*
X290000Y305000D02*
X291000D01*
X290500Y304500D02*
Y305500D01*
X288000Y305000D02*
X289000D01*
X288500Y304500D02*
Y305500D01*
X296500Y347000D02*
X297500D01*
X297000Y346500D02*
Y347500D01*
X298500Y282000D02*
X299500D01*
X299000Y281500D02*
Y282500D01*
X296500Y282000D02*
X297500D01*
X297000Y281500D02*
Y282500D01*
X294500Y282000D02*
X295500D01*
X295000Y281500D02*
Y282500D01*
X316000Y356500D02*
X317000D01*
X316500Y356000D02*
Y357000D01*
X333000Y229000D02*
X334000D01*
X333500Y228500D02*
Y229500D01*
X333000Y226500D02*
X334000D01*
X333500Y226000D02*
Y227000D01*
X335500Y226500D02*
X336500D01*
X336000Y226000D02*
Y227000D01*
X338000Y226500D02*
X339000D01*
X338500Y226000D02*
Y227000D01*
X340500Y226500D02*
X341500D01*
X341000Y226000D02*
Y227000D01*
X340500Y224500D02*
X341500D01*
X341000Y224000D02*
Y225000D01*
X338000Y224500D02*
X339000D01*
X338500Y224000D02*
Y225000D01*
X335500Y224500D02*
X336500D01*
X336000Y224000D02*
Y225000D01*
X333000Y224500D02*
X334000D01*
X333500Y224000D02*
Y225000D01*
X297500Y279000D02*
X298500D01*
X298000Y278500D02*
Y279500D01*
X299000Y264500D02*
X300000D01*
X299500Y264000D02*
Y265000D01*
X299000Y274500D02*
X300000D01*
X299500Y274000D02*
Y275000D01*
X299000Y266500D02*
X300000D01*
X299500Y266000D02*
Y267000D01*
X301000Y272500D02*
X302000D01*
X301500Y272000D02*
Y273000D01*
X299000Y272500D02*
X300000D01*
X299500Y272000D02*
Y273000D01*
X297000Y266500D02*
X298000D01*
X297500Y266000D02*
Y267000D01*
X297000Y264500D02*
X298000D01*
X297500Y264000D02*
Y265000D01*
X301000Y274500D02*
X302000D01*
X301500Y274000D02*
Y275000D01*
X310000Y273000D02*
X311000D01*
X310500Y272500D02*
Y273500D01*
X379500Y280000D02*
X380500D01*
X380000Y279500D02*
Y280500D01*
X377500Y282000D02*
X378500D01*
X378000Y281500D02*
Y282500D01*
X306500Y308500D02*
X307500D01*
X307000Y308000D02*
Y309000D01*
X332000Y365500D02*
X333000D01*
X332500Y365000D02*
Y366000D01*
X332000Y369500D02*
X333000D01*
X332500Y369000D02*
Y370000D01*
X349000Y381500D02*
X350000D01*
X349500Y381000D02*
Y382000D01*
X358000Y370000D02*
X359000D01*
X358500Y369500D02*
Y370500D01*
X342500Y354000D02*
X343500D01*
X343000Y353500D02*
Y354500D01*
X290000Y315500D02*
X291000D01*
X290500Y315000D02*
Y316000D01*
X288000Y313500D02*
X289000D01*
X288500Y313000D02*
Y314000D01*
X290000Y317500D02*
X291000D01*
X290500Y317000D02*
Y318000D01*
X288000Y315500D02*
X289000D01*
X288500Y315000D02*
Y316000D01*
X353000Y248500D02*
X354000D01*
X353500Y248000D02*
Y249000D01*
X288000Y317500D02*
X289000D01*
X288500Y317000D02*
Y318000D01*
X303000Y286000D02*
X304000D01*
X303500Y285500D02*
Y286500D01*
X355000Y351000D02*
X356000D01*
X355500Y350500D02*
Y351500D01*
X373500Y252413D02*
X374500D01*
X374000Y251913D02*
Y252913D01*
X375500Y252500D02*
X376500D01*
X376000Y252000D02*
Y253000D01*
X377500Y252500D02*
X378500D01*
X378000Y252000D02*
Y253000D01*
X379500Y252500D02*
X380500D01*
X380000Y252000D02*
Y253000D01*
X381500Y252500D02*
X382500D01*
X382000Y252000D02*
Y253000D01*
X383500Y252500D02*
X384500D01*
X384000Y252000D02*
Y253000D01*
X316500Y273500D02*
X317500D01*
X317000Y273000D02*
Y274000D01*
X291500Y278000D02*
X292500D01*
X292000Y277500D02*
Y278500D01*
X320500Y246500D02*
X321500D01*
X321000Y246000D02*
Y247000D01*
X371500Y224500D02*
X372500D01*
X372000Y224000D02*
Y225000D01*
X371500Y222500D02*
X372500D01*
X372000Y222000D02*
Y223000D01*
X387500Y224500D02*
X388500D01*
X388000Y224000D02*
Y225000D01*
X389500Y224500D02*
X390500D01*
X390000Y224000D02*
Y225000D01*
X423500Y350000D02*
X424500D01*
X424000Y349500D02*
Y350500D01*
X425500Y350000D02*
X426500D01*
X426000Y349500D02*
Y350500D01*
X427500Y350000D02*
X428500D01*
X428000Y349500D02*
Y350500D01*
X427500Y352000D02*
X428500D01*
X428000Y351500D02*
Y352500D01*
X425500Y352000D02*
X426500D01*
X426000Y351500D02*
Y352500D01*
X423500Y352000D02*
X424500D01*
X424000Y351500D02*
Y352500D01*
X423500Y354000D02*
X424500D01*
X424000Y353500D02*
Y354500D01*
X425500Y354000D02*
X426500D01*
X426000Y353500D02*
Y354500D01*
X427500Y354000D02*
X428500D01*
X428000Y353500D02*
Y354500D01*
X427500Y356000D02*
X428500D01*
X428000Y355500D02*
Y356500D01*
X425500Y356000D02*
X426500D01*
X426000Y355500D02*
Y356500D01*
X423500Y356000D02*
X424500D01*
X424000Y355500D02*
Y356500D01*
X421500Y356000D02*
X422500D01*
X422000Y355500D02*
Y356500D01*
X429500Y356000D02*
X430500D01*
X430000Y355500D02*
Y356500D01*
X429500Y354000D02*
X430500D01*
X430000Y353500D02*
Y354500D01*
X429500Y352000D02*
X430500D01*
X430000Y351500D02*
Y352500D01*
X429500Y350000D02*
X430500D01*
X430000Y349500D02*
Y350500D01*
X431500Y350000D02*
X432500D01*
X432000Y349500D02*
Y350500D01*
X431500Y352000D02*
X432500D01*
X432000Y351500D02*
Y352500D01*
X431500Y354000D02*
X432500D01*
X432000Y353500D02*
Y354500D01*
X431500Y356000D02*
X432500D01*
X432000Y355500D02*
Y356500D01*
X429500Y358000D02*
X430500D01*
X430000Y357500D02*
Y358500D01*
X427500Y358000D02*
X428500D01*
X428000Y357500D02*
Y358500D01*
X425500Y358000D02*
X426500D01*
X426000Y357500D02*
Y358500D01*
X423500Y358000D02*
X424500D01*
X424000Y357500D02*
Y358500D01*
X311000Y363000D02*
X312000D01*
X311500Y362500D02*
Y363500D01*
X395000Y349500D02*
X396000D01*
X395500Y349000D02*
Y350000D01*
X397000Y349500D02*
X398000D01*
X397500Y349000D02*
Y350000D01*
X397000Y347500D02*
X398000D01*
X397500Y347000D02*
Y348000D01*
X395000Y347500D02*
X396000D01*
X395500Y347000D02*
Y348000D01*
X290000Y309500D02*
X291000D01*
X290500Y309000D02*
Y310000D01*
X288000Y309500D02*
X289000D01*
X288500Y309000D02*
Y310000D01*
X288000Y307500D02*
X289000D01*
X288500Y307000D02*
Y308000D01*
X290000Y307500D02*
X291000D01*
X290500Y307000D02*
Y308000D01*
X311500Y328500D02*
X312500D01*
X312000Y328000D02*
Y329000D01*
X311500Y326500D02*
X312500D01*
X312000Y326000D02*
Y327000D01*
X311500Y324500D02*
X312500D01*
X312000Y324000D02*
Y325000D01*
X331500Y287500D02*
X332500D01*
X332000Y287000D02*
Y288000D01*
X333500Y287500D02*
X334500D01*
X334000Y287000D02*
Y288000D01*
X335500Y287500D02*
X336500D01*
X336000Y287000D02*
Y288000D01*
X337500Y287500D02*
X338500D01*
X338000Y287000D02*
Y288000D01*
X277000Y320000D02*
X278000D01*
X277500Y319500D02*
Y320500D01*
X275000Y320000D02*
X276000D01*
X275500Y319500D02*
Y320500D01*
X275000Y318000D02*
X276000D01*
X275500Y317500D02*
Y318500D01*
X277000Y318000D02*
X278000D01*
X277500Y317500D02*
Y318500D01*
X277000Y316000D02*
X278000D01*
X277500Y315500D02*
Y316500D01*
X275000Y316000D02*
X276000D01*
X275500Y315500D02*
Y316500D01*
X275000Y314000D02*
X276000D01*
X275500Y313500D02*
Y314500D01*
X277000Y314000D02*
X278000D01*
X277500Y313500D02*
Y314500D01*
X277000Y312000D02*
X278000D01*
X277500Y311500D02*
Y312500D01*
X275000Y312000D02*
X276000D01*
X275500Y311500D02*
Y312500D01*
X275000Y310000D02*
X276000D01*
X275500Y309500D02*
Y310500D01*
X277000Y310000D02*
X278000D01*
X277500Y309500D02*
Y310500D01*
X277000Y308000D02*
X278000D01*
X277500Y307500D02*
Y308500D01*
X275000Y308000D02*
X276000D01*
X275500Y307500D02*
Y308500D01*
X275000Y306000D02*
X276000D01*
X275500Y305500D02*
Y306500D01*
X277000Y306000D02*
X278000D01*
X277500Y305500D02*
Y306500D01*
X275000Y304000D02*
X276000D01*
X275500Y303500D02*
Y304500D01*
X275000Y302000D02*
X276000D01*
X275500Y301500D02*
Y302500D01*
X275000Y300000D02*
X276000D01*
X275500Y299500D02*
Y300500D01*
X275000Y298000D02*
X276000D01*
X275500Y297500D02*
Y298500D01*
X277000Y298000D02*
X278000D01*
X277500Y297500D02*
Y298500D01*
X277000Y300000D02*
X278000D01*
X277500Y299500D02*
Y300500D01*
X277000Y302000D02*
X278000D01*
X277500Y301500D02*
Y302500D01*
X277000Y304000D02*
X278000D01*
X277500Y303500D02*
Y304500D01*
X274000Y329500D02*
X275000D01*
X274500Y329000D02*
Y330000D01*
X275000Y333500D02*
X276000D01*
X275500Y333000D02*
Y334000D01*
X277000Y338000D02*
X278000D01*
X277500Y337500D02*
Y338500D01*
X278500Y342000D02*
X279500D01*
X279000Y341500D02*
Y342500D01*
X280500Y346500D02*
X281500D01*
X281000Y346000D02*
Y347000D01*
X282000Y350500D02*
X283000D01*
X282500Y350000D02*
Y351000D01*
X284500Y354500D02*
X285500D01*
X285000Y354000D02*
Y355000D01*
X286500Y358000D02*
X287500D01*
X287000Y357500D02*
Y358500D01*
X291500Y364000D02*
X292500D01*
X292000Y363500D02*
Y364500D01*
X294500Y367000D02*
X295500D01*
X295000Y366500D02*
Y367500D01*
X297500Y370000D02*
X298500D01*
X298000Y369500D02*
Y370500D01*
X300500Y373500D02*
X301500D01*
X301000Y373000D02*
Y374000D01*
X304000Y376500D02*
X305000D01*
X304500Y376000D02*
Y377000D01*
X307500Y379500D02*
X308500D01*
X308000Y379000D02*
Y380000D01*
X311500Y382000D02*
X312500D01*
X312000Y381500D02*
Y382500D01*
X316000Y384500D02*
X317000D01*
X316500Y384000D02*
Y385000D01*
X320000Y386500D02*
X321000D01*
X320500Y386000D02*
Y387000D01*
X324000Y388500D02*
X325000D01*
X324500Y388000D02*
Y389000D01*
X328000Y390000D02*
X329000D01*
X328500Y389500D02*
Y390500D01*
X332500Y392000D02*
X333500D01*
X333000Y391500D02*
Y392500D01*
X337000Y393500D02*
X338000D01*
X337500Y393000D02*
Y394000D01*
X342000Y394500D02*
X343000D01*
X342500Y394000D02*
Y395000D01*
X346500Y395500D02*
X347500D01*
X347000Y395000D02*
Y396000D01*
X351000D02*
X352000D01*
X351500Y395500D02*
Y396500D01*
X356000D02*
X357000D01*
X356500Y396000D02*
Y397000D01*
X361000Y396500D02*
X362000D01*
X361500Y396000D02*
Y397000D01*
X366000Y396500D02*
X367000D01*
X366500Y396000D02*
Y397000D01*
X371500Y396000D02*
X372500D01*
X372000Y395500D02*
Y396500D01*
X376500Y395500D02*
X377500D01*
X377000Y395000D02*
Y396000D01*
X381500Y394500D02*
X382500D01*
X382000Y394000D02*
Y395000D01*
X386500Y393000D02*
X387500D01*
X387000Y392500D02*
Y393500D01*
X392000Y391000D02*
X393000D01*
X392500Y390500D02*
Y391500D01*
X396500Y389500D02*
X397500D01*
X397000Y389000D02*
Y390000D01*
X401000Y387500D02*
X402000D01*
X401500Y387000D02*
Y388000D01*
X405000Y385500D02*
X406000D01*
X405500Y385000D02*
Y386000D01*
X408500Y383000D02*
X409500D01*
X409000Y382500D02*
Y383500D01*
X412000Y381000D02*
X413000D01*
X412500Y380500D02*
Y381500D01*
X415000Y378500D02*
X416000D01*
X415500Y378000D02*
Y379000D01*
X418500Y376000D02*
X419500D01*
X419000Y375500D02*
Y376500D01*
X422000Y373000D02*
X423000D01*
X422500Y372500D02*
Y373500D01*
X425500Y369500D02*
X426500D01*
X426000Y369000D02*
Y370000D01*
X429000Y365500D02*
X430000D01*
X429500Y365000D02*
Y366000D01*
X275500Y287000D02*
X276500D01*
X276000Y286500D02*
Y287500D01*
X276500Y283500D02*
X277500D01*
X277000Y283000D02*
Y284000D01*
X278000Y279500D02*
X279000D01*
X278500Y279000D02*
Y280000D01*
X279500Y276000D02*
X280500D01*
X280000Y275500D02*
Y276500D01*
X281000Y273000D02*
X282000D01*
X281500Y272500D02*
Y273500D01*
X283000Y270000D02*
X284000D01*
X283500Y269500D02*
Y270500D01*
X284500Y267000D02*
X285500D01*
X285000Y266500D02*
Y267500D01*
X286000Y263500D02*
X287000D01*
X286500Y263000D02*
Y264000D01*
X288000Y260500D02*
X289000D01*
X288500Y260000D02*
Y261000D01*
X291000Y256000D02*
X292000D01*
X291500Y255500D02*
Y256500D01*
X325500Y229000D02*
X326500D01*
X326000Y228500D02*
Y229500D01*
X432500Y361000D02*
X433500D01*
X433000Y360500D02*
Y361500D01*
X435500Y357000D02*
X436500D01*
X436000Y356500D02*
Y357500D01*
X438000Y353000D02*
X439000D01*
X438500Y352500D02*
Y353500D01*
X440000Y349500D02*
X441000D01*
X440500Y349000D02*
Y350000D01*
X442000Y345500D02*
X443000D01*
X442500Y345000D02*
Y346000D01*
X444000Y341000D02*
X445000D01*
X444500Y340500D02*
Y341500D01*
X445500Y335500D02*
X446500D01*
X446000Y335000D02*
Y336000D01*
X447000Y331500D02*
X448000D01*
X447500Y331000D02*
Y332000D01*
X448000Y327500D02*
X449000D01*
X448500Y327000D02*
Y328000D01*
X449000Y323500D02*
X450000D01*
X449500Y323000D02*
Y324000D01*
Y315000D02*
X450500D01*
X450000Y314500D02*
Y315500D01*
X449000Y301000D02*
X450000D01*
X449500Y300500D02*
Y301500D01*
X448500Y296500D02*
X449500D01*
X449000Y296000D02*
Y297000D01*
X448000Y292500D02*
X449000D01*
X448500Y292000D02*
Y293000D01*
X447000Y288500D02*
X448000D01*
X447500Y288000D02*
Y289000D01*
X446000Y284000D02*
X447000D01*
X446500Y283500D02*
Y284500D01*
X444500Y280000D02*
X445500D01*
X445000Y279500D02*
Y280500D01*
X359500Y267500D02*
X360500D01*
X360000Y267000D02*
Y268000D01*
X371500Y252500D02*
X372500D01*
X372000Y252000D02*
Y253000D01*
X371500Y250000D02*
X372500D01*
X372000Y249500D02*
Y250500D01*
X401500Y366000D02*
X402500D01*
X402000Y365500D02*
Y366500D01*
X403500Y366000D02*
X404500D01*
X404000Y365500D02*
Y366500D01*
X405500Y366000D02*
X406500D01*
X406000Y365500D02*
Y366500D01*
X407500Y366000D02*
X408500D01*
X408000Y365500D02*
Y366500D01*
X409500Y366000D02*
X410500D01*
X410000Y365500D02*
Y366500D01*
X411500Y366000D02*
X412500D01*
X412000Y365500D02*
Y366500D01*
X411500Y364000D02*
X412500D01*
X412000Y363500D02*
Y364500D01*
X409500Y364000D02*
X410500D01*
X410000Y363500D02*
Y364500D01*
X407500Y364000D02*
X408500D01*
X408000Y363500D02*
Y364500D01*
X405500Y364000D02*
X406500D01*
X406000Y363500D02*
Y364500D01*
X403500Y364000D02*
X404500D01*
X404000Y363500D02*
Y364500D01*
X401500Y364000D02*
X402500D01*
X402000Y363500D02*
Y364500D01*
X401500Y362000D02*
X402500D01*
X402000Y361500D02*
Y362500D01*
X403500Y362000D02*
X404500D01*
X404000Y361500D02*
Y362500D01*
X405500Y362000D02*
X406500D01*
X406000Y361500D02*
Y362500D01*
X407500Y362000D02*
X408500D01*
X408000Y361500D02*
Y362500D01*
X409500Y362000D02*
X410500D01*
X410000Y361500D02*
Y362500D01*
X411500Y362000D02*
X412500D01*
X412000Y361500D02*
Y362500D01*
X411500Y360000D02*
X412500D01*
X412000Y359500D02*
Y360500D01*
X409500Y360000D02*
X410500D01*
X410000Y359500D02*
Y360500D01*
X407500Y360000D02*
X408500D01*
X408000Y359500D02*
Y360500D01*
X405500Y360000D02*
X406500D01*
X406000Y359500D02*
Y360500D01*
X403500Y360000D02*
X404500D01*
X404000Y359500D02*
Y360500D01*
X401500Y360000D02*
X402500D01*
X402000Y359500D02*
Y360500D01*
X333500Y293500D02*
X334500D01*
X334000Y293000D02*
Y294000D01*
X331500Y293500D02*
X332500D01*
X332000Y293000D02*
Y294000D01*
X331500Y291500D02*
X332500D01*
X332000Y291000D02*
Y292000D01*
X333500Y291500D02*
X334500D01*
X334000Y291000D02*
Y292000D01*
X443500Y276000D02*
X444500D01*
X444000Y275500D02*
Y276500D01*
X442000Y272500D02*
X443000D01*
X442500Y272000D02*
Y273000D01*
X440500Y269000D02*
X441500D01*
X441000Y268500D02*
Y269500D01*
X438500Y265500D02*
X439500D01*
X439000Y265000D02*
Y266000D01*
X436500Y262000D02*
X437500D01*
X437000Y261500D02*
Y262500D01*
X434000Y258500D02*
X435000D01*
X434500Y258000D02*
Y259000D01*
X431500Y255000D02*
X432500D01*
X432000Y254500D02*
Y255500D01*
X428500Y251500D02*
X429500D01*
X429000Y251000D02*
Y252000D01*
X426000Y249000D02*
X427000D01*
X426500Y248500D02*
Y249500D01*
X423000Y245500D02*
X424000D01*
X423500Y245000D02*
Y246000D01*
X419500Y242500D02*
X420500D01*
X420000Y242000D02*
Y243000D01*
X414000Y238000D02*
X415000D01*
X414500Y237500D02*
Y238500D01*
X411000Y236000D02*
X412000D01*
X411500Y235500D02*
Y236500D01*
X408000Y234000D02*
X409000D01*
X408500Y233500D02*
Y234500D01*
X405000Y232500D02*
X406000D01*
X405500Y232000D02*
Y233000D01*
X401500Y230500D02*
X402500D01*
X402000Y230000D02*
Y231000D01*
X398000Y229000D02*
X399000D01*
X398500Y228500D02*
Y229500D01*
X395000Y227500D02*
X396000D01*
X395500Y227000D02*
Y228000D01*
X291500Y264327D02*
X292500D01*
X292000Y263827D02*
Y264827D01*
X421500Y354000D02*
X422500D01*
X422000Y353500D02*
Y354500D01*
X421500Y352000D02*
X422500D01*
X422000Y351500D02*
Y352500D01*
X421500Y350000D02*
X422500D01*
X422000Y349500D02*
Y350500D01*
X449500Y305500D02*
X450500D01*
X450000Y305000D02*
Y306000D01*
X449500Y310500D02*
X450500D01*
X450000Y310000D02*
Y311000D01*
X449500Y319000D02*
X450500D01*
X450000Y318500D02*
Y319500D01*
X417000Y240000D02*
X418000D01*
X417500Y239500D02*
Y240500D01*
X289000Y361000D02*
X290000D01*
X289500Y360500D02*
Y361500D01*
X389000Y334000D02*
X390000D01*
X389500Y333500D02*
Y334500D01*
X304500Y370000D02*
X305500D01*
X305000Y369500D02*
Y370500D01*
X352000Y366500D02*
X353000D01*
X352500Y366000D02*
Y367000D01*
X323500Y357500D02*
X324500D01*
X324000Y357000D02*
Y358000D01*
X323500Y359500D02*
X324500D01*
X324000Y359000D02*
Y360000D01*
X327500Y359500D02*
X328500D01*
X328000Y359000D02*
Y360000D01*
X327500Y357500D02*
X328500D01*
X328000Y357000D02*
Y358000D01*
X323000Y230000D02*
X324000D01*
X323500Y229500D02*
Y230500D01*
X320500Y231500D02*
X321500D01*
X321000Y231000D02*
Y232000D01*
X325500Y357500D02*
X326500D01*
X326000Y357000D02*
Y358000D01*
X325500Y359500D02*
X326500D01*
X326000Y359000D02*
Y360000D01*
X410500Y370827D02*
X411500D01*
X411000Y370327D02*
Y371327D01*
X384500Y379000D02*
X385500D01*
X385000Y378500D02*
Y379500D01*
X382500Y379000D02*
X383500D01*
X383000Y378500D02*
Y379500D01*
X365500Y373500D02*
X366500D01*
X366000Y373000D02*
Y374000D01*
X389000Y383000D02*
X390000D01*
X389500Y382500D02*
Y383500D01*
X365724Y379224D02*
X366724D01*
X366224Y378724D02*
Y379724D01*
X382827Y385327D02*
X383827D01*
X383327Y384827D02*
Y385827D01*
X319500Y357000D02*
X320500D01*
X320000Y356500D02*
Y357500D01*
X331087Y376413D02*
X332087D01*
X331587Y375913D02*
Y376913D01*
X374827Y369327D02*
X375827D01*
X375327Y368827D02*
Y369827D01*
X321000Y372500D02*
X322000D01*
X321500Y372000D02*
Y373000D01*
X323000Y372500D02*
X324000D01*
X323500Y372000D02*
Y373000D01*
X325000Y372500D02*
X326000D01*
X325500Y372000D02*
Y373000D01*
X327000Y372500D02*
X328000D01*
X327500Y372000D02*
Y373000D01*
X329000Y372500D02*
X330000D01*
X329500Y372000D02*
Y373000D01*
X329000Y338500D02*
X330000D01*
X329500Y338000D02*
Y339000D01*
X341500Y370500D02*
X342500D01*
X342000Y370000D02*
Y371000D01*
X308173Y257000D02*
X309173D01*
X308673Y256500D02*
Y257500D01*
X294000Y252500D02*
X295000D01*
X294500Y252000D02*
Y253000D01*
X296500Y249500D02*
X297500D01*
X297000Y249000D02*
Y250000D01*
X302000Y253500D02*
X303000D01*
X302500Y253000D02*
Y254000D01*
X302000Y256500D02*
X303000D01*
X302500Y256000D02*
Y257000D01*
X299000Y246500D02*
X300000D01*
X299500Y246000D02*
Y247000D01*
X312500Y256000D02*
X313500D01*
X313000Y255500D02*
Y256500D01*
X336500Y280000D02*
X337500D01*
X337000Y279500D02*
Y280500D01*
X330000Y278500D02*
X331000D01*
X330500Y278000D02*
Y279000D01*
X333000Y233500D02*
X334000D01*
X333500Y233000D02*
Y234000D01*
X333000Y231500D02*
X334000D01*
X333500Y231000D02*
Y232000D01*
X331000Y229000D02*
X332000D01*
X331500Y228500D02*
Y229500D01*
X331000Y226500D02*
X332000D01*
X331500Y226000D02*
Y227000D01*
X331000Y233500D02*
X332000D01*
X331500Y233000D02*
Y234000D01*
X331000Y224500D02*
X332000D01*
X331500Y224000D02*
Y225000D01*
X331000Y231500D02*
X332000D01*
X331500Y231000D02*
Y232000D01*
X339500Y243000D02*
X340500D01*
X340000Y242500D02*
Y243500D01*
X354000Y355000D02*
X355000D01*
X354500Y354500D02*
Y355500D01*
X308500Y360000D02*
X309500D01*
X309000Y359500D02*
Y360500D01*
X320000Y280025D02*
X321000D01*
X320500Y279525D02*
Y280525D01*
X375500Y280000D02*
X376500D01*
X376000Y279500D02*
Y280500D01*
X377500Y280000D02*
X378500D01*
X378000Y279500D02*
Y280500D01*
X375500Y282000D02*
X376500D01*
X376000Y281500D02*
Y282500D01*
X381500Y280000D02*
X382500D01*
X382000Y279500D02*
Y280500D01*
X383500Y280000D02*
X384500D01*
X384000Y279500D02*
Y280500D01*
X383500Y282000D02*
X384500D01*
X384000Y281500D02*
Y282500D01*
X381500Y282000D02*
X382500D01*
X382000Y281500D02*
Y282500D01*
X379500Y282000D02*
X380500D01*
X380000Y281500D02*
Y282500D01*
X293000Y314000D02*
X294000D01*
X293500Y313500D02*
Y314500D01*
%TF.MD5,196D3120DF1936319159EEE634F14A10*%
M02*
