G04 Layer_Color=0*
%FSLAX25Y25*%
%MOIN*%
%TF.FileFunction,PTH,Drill*%
%TF.Part,Single*%
G01*
G75*
%TA.AperFunction,OtherDrill*%
%ADD115C,0.29528*%
%TA.AperFunction,ComponentDrill*%
%ADD116C,0.02756*%
%TA.AperFunction,ComponentDrill*%
%ADD117O,0.05512X0.02756*%
%TA.AperFunction,ComponentDrill*%
%ADD118O,0.06693X0.02756*%
%TA.AperFunction,ViaDrill*%
%ADD119C,0.01000*%
D115*
X362201Y308701D02*
D03*
D116*
X293441Y320079D02*
D03*
Y297323D02*
D03*
D117*
X279071Y291693D02*
D03*
Y325709D02*
D03*
D118*
X295528Y325709D02*
D03*
X295528Y291693D02*
D03*
D119*
X308000Y316500D02*
D03*
X336000Y253000D02*
D03*
X338500D02*
D03*
X326000Y255500D02*
D03*
Y258000D02*
D03*
Y260500D02*
D03*
Y268000D02*
D03*
X328500D02*
D03*
X331000D02*
D03*
X333500D02*
D03*
X336000D02*
D03*
X338500D02*
D03*
X326000Y263000D02*
D03*
Y265500D02*
D03*
X321500Y238500D02*
D03*
X315000Y235000D02*
D03*
X318000Y233000D02*
D03*
X317500Y241500D02*
D03*
X311500Y237000D02*
D03*
X422000Y358000D02*
D03*
X316000Y244000D02*
D03*
X308500Y239000D02*
D03*
X319500Y236500D02*
D03*
X343000Y279500D02*
D03*
X314500Y250500D02*
D03*
X305000Y241500D02*
D03*
X313000Y253000D02*
D03*
X302500Y244000D02*
D03*
X370000Y222500D02*
D03*
Y224500D02*
D03*
X376000Y222500D02*
D03*
X384000Y231000D02*
D03*
X386000D02*
D03*
Y233000D02*
D03*
X384000D02*
D03*
X379000Y231000D02*
D03*
Y233000D02*
D03*
X378000Y222500D02*
D03*
X374000D02*
D03*
X370000Y220500D02*
D03*
X392500Y226000D02*
D03*
X367000Y220000D02*
D03*
X363500Y219500D02*
D03*
X360500D02*
D03*
X357500D02*
D03*
X353500Y220000D02*
D03*
X350000Y220500D02*
D03*
X346500Y221000D02*
D03*
X343000Y222000D02*
D03*
X400000Y250500D02*
D03*
X402000Y252500D02*
D03*
X400000D02*
D03*
Y254500D02*
D03*
X402000D02*
D03*
Y256500D02*
D03*
X400000D02*
D03*
X402000Y258500D02*
D03*
X400000D02*
D03*
X350500Y230500D02*
D03*
Y232500D02*
D03*
Y234500D02*
D03*
X348500D02*
D03*
X354500Y228500D02*
D03*
X350500D02*
D03*
X385500Y259000D02*
D03*
X383500D02*
D03*
X379500D02*
D03*
X373000D02*
D03*
X375000D02*
D03*
X372000Y282000D02*
D03*
Y280000D02*
D03*
X374000D02*
D03*
X374000Y281968D02*
D03*
X372000Y278000D02*
D03*
X374000D02*
D03*
X352500Y228500D02*
D03*
X346500Y234500D02*
D03*
X364500Y254000D02*
D03*
X368500Y255500D02*
D03*
X383500Y256500D02*
D03*
X385500D02*
D03*
X388000D02*
D03*
Y254500D02*
D03*
X390000Y256500D02*
D03*
X392000D02*
D03*
X394000D02*
D03*
X390000Y254500D02*
D03*
X392000D02*
D03*
X394000D02*
D03*
Y252500D02*
D03*
X392000D02*
D03*
X390000D02*
D03*
X388000D02*
D03*
Y250500D02*
D03*
X390000D02*
D03*
X392000D02*
D03*
X394000D02*
D03*
X396000D02*
D03*
Y252500D02*
D03*
Y254500D02*
D03*
Y256500D02*
D03*
X398000D02*
D03*
Y254500D02*
D03*
Y252500D02*
D03*
Y250500D02*
D03*
Y248500D02*
D03*
X396000D02*
D03*
X394000D02*
D03*
X392000D02*
D03*
X390000D02*
D03*
X388000D02*
D03*
X398000Y258500D02*
D03*
X396000D02*
D03*
X394000D02*
D03*
X392000D02*
D03*
X390000D02*
D03*
X388000D02*
D03*
X381500Y260500D02*
D03*
Y258500D02*
D03*
Y256500D02*
D03*
X384000Y248000D02*
D03*
Y250000D02*
D03*
X382000D02*
D03*
X380000D02*
D03*
X382000Y248000D02*
D03*
X380000D02*
D03*
X378000Y250000D02*
D03*
Y248000D02*
D03*
X376000D02*
D03*
Y250000D02*
D03*
X374000Y248000D02*
D03*
Y250000D02*
D03*
X372000Y248000D02*
D03*
X370000D02*
D03*
X374000Y228500D02*
D03*
X376000D02*
D03*
X378000D02*
D03*
X380000D02*
D03*
X382000D02*
D03*
X384000D02*
D03*
Y226500D02*
D03*
X382000D02*
D03*
X380000D02*
D03*
X378000D02*
D03*
X376000D02*
D03*
X374000D02*
D03*
Y224500D02*
D03*
X376000D02*
D03*
X378000D02*
D03*
X380000D02*
D03*
X382000D02*
D03*
X384000D02*
D03*
X386000Y226500D02*
D03*
Y228500D02*
D03*
X388000Y226500D02*
D03*
Y228500D02*
D03*
Y230500D02*
D03*
Y232500D02*
D03*
X381500Y231000D02*
D03*
Y233000D02*
D03*
X376500D02*
D03*
Y231000D02*
D03*
X390000Y232500D02*
D03*
Y230500D02*
D03*
Y228500D02*
D03*
Y226500D02*
D03*
X386000Y224500D02*
D03*
X364500Y241000D02*
D03*
X361500Y234500D02*
D03*
X359500D02*
D03*
Y232500D02*
D03*
X361500D02*
D03*
Y230500D02*
D03*
X359500D02*
D03*
Y228500D02*
D03*
X361500D02*
D03*
X363500Y230500D02*
D03*
Y228500D02*
D03*
X365500D02*
D03*
X361500Y236500D02*
D03*
X359500Y238500D02*
D03*
Y236500D02*
D03*
X361500Y238500D02*
D03*
X346500Y226000D02*
D03*
X348500D02*
D03*
X350500D02*
D03*
X346500Y228500D02*
D03*
X348500D02*
D03*
Y230500D02*
D03*
X346500D02*
D03*
X348500Y232500D02*
D03*
X352500Y226000D02*
D03*
X355500Y224000D02*
D03*
X354500Y226000D02*
D03*
X356500D02*
D03*
X359000Y225500D02*
D03*
X362000D02*
D03*
X363500Y224000D02*
D03*
X365000Y225500D02*
D03*
X379500Y256500D02*
D03*
X377000D02*
D03*
X375000D02*
D03*
X373000D02*
D03*
X377000Y259000D02*
D03*
X357500Y224000D02*
D03*
X360500D02*
D03*
X366500D02*
D03*
X426500Y318500D02*
D03*
X428500D02*
D03*
X430500D02*
D03*
X432500D02*
D03*
X434500D02*
D03*
X436500D02*
D03*
Y316500D02*
D03*
X434500D02*
D03*
Y314500D02*
D03*
X436500D02*
D03*
X432500Y316500D02*
D03*
X430500D02*
D03*
X428500D02*
D03*
X426500D02*
D03*
Y314500D02*
D03*
X428500D02*
D03*
X430500D02*
D03*
X432500D02*
D03*
X426500Y312500D02*
D03*
X428500D02*
D03*
X430500D02*
D03*
X432500D02*
D03*
X434500D02*
D03*
X436500D02*
D03*
Y310500D02*
D03*
X434500D02*
D03*
X432500D02*
D03*
X430500D02*
D03*
X428500D02*
D03*
X426500D02*
D03*
Y308500D02*
D03*
X428500D02*
D03*
X430500D02*
D03*
X432500D02*
D03*
X434500D02*
D03*
X436500D02*
D03*
X360000Y243969D02*
D03*
X340000Y293500D02*
D03*
X338000D02*
D03*
X340000Y291500D02*
D03*
Y289500D02*
D03*
Y287500D02*
D03*
X338000Y291500D02*
D03*
Y289500D02*
D03*
X336000D02*
D03*
Y291500D02*
D03*
Y293500D02*
D03*
X334000Y289500D02*
D03*
X332000D02*
D03*
X342000Y287500D02*
D03*
Y289500D02*
D03*
Y291500D02*
D03*
X344000Y289500D02*
D03*
Y287500D02*
D03*
X376000Y278000D02*
D03*
X378000D02*
D03*
X380000D02*
D03*
X382000D02*
D03*
X384000D02*
D03*
Y276000D02*
D03*
X382000D02*
D03*
X380000D02*
D03*
X378000D02*
D03*
X376000D02*
D03*
X374000D02*
D03*
X372000D02*
D03*
X370000D02*
D03*
X302500Y312500D02*
D03*
Y309500D02*
D03*
X294000Y304000D02*
D03*
X308673Y262673D02*
D03*
X346500Y232500D02*
D03*
X321500Y291000D02*
D03*
X333500Y260500D02*
D03*
X331000D02*
D03*
X336000D02*
D03*
Y263000D02*
D03*
X331000D02*
D03*
X333500D02*
D03*
X331000Y258000D02*
D03*
X333500D02*
D03*
X336000D02*
D03*
Y265500D02*
D03*
X333500D02*
D03*
X331000D02*
D03*
X328500D02*
D03*
Y263000D02*
D03*
X338500D02*
D03*
Y265500D02*
D03*
Y260500D02*
D03*
Y258000D02*
D03*
X328500D02*
D03*
Y260500D02*
D03*
Y255500D02*
D03*
X331000D02*
D03*
X333500D02*
D03*
X336000D02*
D03*
X338500D02*
D03*
X347000Y274000D02*
D03*
X340390Y278610D02*
D03*
X302000Y326500D02*
D03*
X304000D02*
D03*
X306000D02*
D03*
Y324500D02*
D03*
X304000D02*
D03*
X302000D02*
D03*
X304000Y322500D02*
D03*
X306000D02*
D03*
X308000Y324500D02*
D03*
Y326500D02*
D03*
Y328500D02*
D03*
X306000D02*
D03*
X304000D02*
D03*
X302000D02*
D03*
X308000Y322500D02*
D03*
X304000Y320500D02*
D03*
X306000D02*
D03*
X308000D02*
D03*
X310000Y324500D02*
D03*
Y326500D02*
D03*
Y328500D02*
D03*
X308000Y318500D02*
D03*
X306000D02*
D03*
X293000Y288000D02*
D03*
X295000D02*
D03*
X297000D02*
D03*
X299000D02*
D03*
Y286000D02*
D03*
X297000D02*
D03*
X295000D02*
D03*
X293000D02*
D03*
Y284000D02*
D03*
X295000D02*
D03*
X297000D02*
D03*
X299000D02*
D03*
X302000Y322500D02*
D03*
X304000Y318500D02*
D03*
X299500Y299500D02*
D03*
X296500D02*
D03*
X299500Y318000D02*
D03*
X297000D02*
D03*
X290500Y313500D02*
D03*
Y311500D02*
D03*
X288500D02*
D03*
X290500Y299000D02*
D03*
X288500D02*
D03*
X290500Y301000D02*
D03*
X288500D02*
D03*
X290500Y303000D02*
D03*
X288500D02*
D03*
X290500Y305000D02*
D03*
X288500D02*
D03*
X297000Y347000D02*
D03*
X299000Y282000D02*
D03*
X297000D02*
D03*
X295000D02*
D03*
X316500Y356500D02*
D03*
X333500Y229000D02*
D03*
Y226500D02*
D03*
X336000D02*
D03*
X338500D02*
D03*
X341000D02*
D03*
Y224500D02*
D03*
X338500D02*
D03*
X336000D02*
D03*
X333500D02*
D03*
X298000Y279000D02*
D03*
X299500Y264500D02*
D03*
Y274500D02*
D03*
Y266500D02*
D03*
X301500Y272500D02*
D03*
X299500D02*
D03*
X297500Y266500D02*
D03*
Y264500D02*
D03*
X301500Y274500D02*
D03*
X310500Y273000D02*
D03*
X380000Y280000D02*
D03*
X378000Y282000D02*
D03*
X307000Y308500D02*
D03*
X332500Y365500D02*
D03*
Y369500D02*
D03*
X349500Y381500D02*
D03*
X358500Y370000D02*
D03*
X343000Y354000D02*
D03*
X290500Y315500D02*
D03*
X288500Y313500D02*
D03*
X290500Y317500D02*
D03*
X288500Y315500D02*
D03*
X353500Y248500D02*
D03*
X288500Y317500D02*
D03*
X303500Y286000D02*
D03*
X355500Y351000D02*
D03*
X374000Y252413D02*
D03*
X376000Y252500D02*
D03*
X378000D02*
D03*
X380000D02*
D03*
X382000D02*
D03*
X384000D02*
D03*
X317000Y273500D02*
D03*
X292000Y278000D02*
D03*
X321000Y246500D02*
D03*
X372000Y224500D02*
D03*
Y222500D02*
D03*
X388000Y224500D02*
D03*
X390000D02*
D03*
X424000Y350000D02*
D03*
X426000D02*
D03*
X428000D02*
D03*
Y352000D02*
D03*
X426000D02*
D03*
X424000D02*
D03*
Y354000D02*
D03*
X426000D02*
D03*
X428000D02*
D03*
Y356000D02*
D03*
X426000D02*
D03*
X424000D02*
D03*
X422000D02*
D03*
X430000D02*
D03*
Y354000D02*
D03*
Y352000D02*
D03*
Y350000D02*
D03*
X432000D02*
D03*
Y352000D02*
D03*
Y354000D02*
D03*
Y356000D02*
D03*
X430000Y358000D02*
D03*
X428000D02*
D03*
X426000D02*
D03*
X424000D02*
D03*
X311500Y363000D02*
D03*
X395500Y349500D02*
D03*
X397500D02*
D03*
Y347500D02*
D03*
X395500D02*
D03*
X290500Y309500D02*
D03*
X288500D02*
D03*
Y307500D02*
D03*
X290500D02*
D03*
X312000Y328500D02*
D03*
Y326500D02*
D03*
Y324500D02*
D03*
X332000Y287500D02*
D03*
X334000D02*
D03*
X336000D02*
D03*
X338000D02*
D03*
X277500Y320000D02*
D03*
X275500D02*
D03*
Y318000D02*
D03*
X277500D02*
D03*
Y316000D02*
D03*
X275500D02*
D03*
Y314000D02*
D03*
X277500D02*
D03*
Y312000D02*
D03*
X275500D02*
D03*
Y310000D02*
D03*
X277500D02*
D03*
Y308000D02*
D03*
X275500D02*
D03*
Y306000D02*
D03*
X277500D02*
D03*
X275500Y304000D02*
D03*
Y302000D02*
D03*
Y300000D02*
D03*
Y298000D02*
D03*
X277500D02*
D03*
Y300000D02*
D03*
Y302000D02*
D03*
Y304000D02*
D03*
X274500Y329500D02*
D03*
X275500Y333500D02*
D03*
X277500Y338000D02*
D03*
X279000Y342000D02*
D03*
X281000Y346500D02*
D03*
X282500Y350500D02*
D03*
X285000Y354500D02*
D03*
X287000Y358000D02*
D03*
X292000Y364000D02*
D03*
X295000Y367000D02*
D03*
X298000Y370000D02*
D03*
X301000Y373500D02*
D03*
X304500Y376500D02*
D03*
X308000Y379500D02*
D03*
X312000Y382000D02*
D03*
X316500Y384500D02*
D03*
X320500Y386500D02*
D03*
X324500Y388500D02*
D03*
X328500Y390000D02*
D03*
X333000Y392000D02*
D03*
X337500Y393500D02*
D03*
X342500Y394500D02*
D03*
X347000Y395500D02*
D03*
X351500Y396000D02*
D03*
X356500Y396500D02*
D03*
X361500D02*
D03*
X366500D02*
D03*
X372000Y396000D02*
D03*
X377000Y395500D02*
D03*
X382000Y394500D02*
D03*
X387000Y393000D02*
D03*
X392500Y391000D02*
D03*
X397000Y389500D02*
D03*
X401500Y387500D02*
D03*
X405500Y385500D02*
D03*
X409000Y383000D02*
D03*
X412500Y381000D02*
D03*
X415500Y378500D02*
D03*
X419000Y376000D02*
D03*
X422500Y373000D02*
D03*
X426000Y369500D02*
D03*
X429500Y365500D02*
D03*
X276000Y287000D02*
D03*
X277000Y283500D02*
D03*
X278500Y279500D02*
D03*
X280000Y276000D02*
D03*
X281500Y273000D02*
D03*
X283500Y270000D02*
D03*
X285000Y267000D02*
D03*
X286500Y263500D02*
D03*
X288500Y260500D02*
D03*
X291500Y256000D02*
D03*
X326000Y229000D02*
D03*
X433000Y361000D02*
D03*
X436000Y357000D02*
D03*
X438500Y353000D02*
D03*
X440500Y349500D02*
D03*
X442500Y345500D02*
D03*
X444500Y341000D02*
D03*
X446000Y335500D02*
D03*
X447500Y331500D02*
D03*
X448500Y327500D02*
D03*
X449500Y323500D02*
D03*
X450000Y315000D02*
D03*
X449500Y301000D02*
D03*
X449000Y296500D02*
D03*
X448500Y292500D02*
D03*
X447500Y288500D02*
D03*
X446500Y284000D02*
D03*
X445000Y280000D02*
D03*
X360000Y267500D02*
D03*
X372000Y252500D02*
D03*
Y250000D02*
D03*
X402000Y366000D02*
D03*
X404000D02*
D03*
X406000D02*
D03*
X408000D02*
D03*
X410000D02*
D03*
X412000D02*
D03*
Y364000D02*
D03*
X410000D02*
D03*
X408000D02*
D03*
X406000D02*
D03*
X404000D02*
D03*
X402000D02*
D03*
Y362000D02*
D03*
X404000D02*
D03*
X406000D02*
D03*
X408000D02*
D03*
X410000D02*
D03*
X412000D02*
D03*
Y360000D02*
D03*
X410000D02*
D03*
X408000D02*
D03*
X406000D02*
D03*
X404000D02*
D03*
X402000D02*
D03*
X334000Y293500D02*
D03*
X332000D02*
D03*
Y291500D02*
D03*
X334000D02*
D03*
X444000Y276000D02*
D03*
X442500Y272500D02*
D03*
X441000Y269000D02*
D03*
X439000Y265500D02*
D03*
X437000Y262000D02*
D03*
X434500Y258500D02*
D03*
X432000Y255000D02*
D03*
X429000Y251500D02*
D03*
X426500Y249000D02*
D03*
X423500Y245500D02*
D03*
X420000Y242500D02*
D03*
X414500Y238000D02*
D03*
X411500Y236000D02*
D03*
X408500Y234000D02*
D03*
X405500Y232500D02*
D03*
X402000Y230500D02*
D03*
X398500Y229000D02*
D03*
X395500Y227500D02*
D03*
X292000Y264327D02*
D03*
X422000Y354000D02*
D03*
Y352000D02*
D03*
Y350000D02*
D03*
X450000Y305500D02*
D03*
Y310500D02*
D03*
Y319000D02*
D03*
X417500Y240000D02*
D03*
X289500Y361000D02*
D03*
X389500Y334000D02*
D03*
X305000Y370000D02*
D03*
X352500Y366500D02*
D03*
X324000Y357500D02*
D03*
Y359500D02*
D03*
X328000D02*
D03*
Y357500D02*
D03*
X323500Y230000D02*
D03*
X321000Y231500D02*
D03*
X326000Y357500D02*
D03*
Y359500D02*
D03*
X411000Y370827D02*
D03*
X385000Y379000D02*
D03*
X383000D02*
D03*
X366000Y373500D02*
D03*
X389500Y383000D02*
D03*
X366224Y379224D02*
D03*
X383327Y385327D02*
D03*
X320000Y357000D02*
D03*
X331587Y376413D02*
D03*
X375327Y369327D02*
D03*
X321500Y372500D02*
D03*
X323500D02*
D03*
X325500D02*
D03*
X327500D02*
D03*
X329500D02*
D03*
Y338500D02*
D03*
X342000Y370500D02*
D03*
X308673Y257000D02*
D03*
X294500Y252500D02*
D03*
X297000Y249500D02*
D03*
X302500Y253500D02*
D03*
Y256500D02*
D03*
X299500Y246500D02*
D03*
X313000Y256000D02*
D03*
X337000Y280000D02*
D03*
X330500Y278500D02*
D03*
X333500Y233500D02*
D03*
Y231500D02*
D03*
X331500Y229000D02*
D03*
Y226500D02*
D03*
Y233500D02*
D03*
Y224500D02*
D03*
Y231500D02*
D03*
X340000Y243000D02*
D03*
X354500Y355000D02*
D03*
X309000Y360000D02*
D03*
X320500Y280025D02*
D03*
X376000Y280000D02*
D03*
X378000D02*
D03*
X376000Y282000D02*
D03*
X382000Y280000D02*
D03*
X384000D02*
D03*
Y282000D02*
D03*
X382000D02*
D03*
X380000D02*
D03*
X293500Y314000D02*
D03*
%TF.MD5,8AC29283342E240181AE4DB069DF7303*%
M02*
