G04 Layer_Color=128*
%FSLAX25Y25*%
%MOIN*%
%TF.FileFunction,Paste,Bot*%
%TF.Part,Single*%
G01*
G75*
%TA.AperFunction,SMDPad*%
%ADD10R,0.03661X0.03858*%
%TA.AperFunction,SMDPad*%
%ADD52O,0.00984X0.04331*%
%TA.AperFunction,SMDPad*%
%ADD53O,0.04331X0.00984*%
%TA.AperFunction,SMDPad*%
%ADD54R,0.21260X0.21260*%
%TA.AperFunction,SMDPad*%
%ADD58R,0.02402X0.03110*%
%TA.AperFunction,SMDPad*%
%ADD59R,0.03858X0.03661*%
%TA.AperFunction,SMDPad*%
%ADD60R,0.04449X0.07087*%
%TA.AperFunction,SMDPad*%
%ADD61R,0.02362X0.02559*%
%TA.AperFunction,SMDPad*%
%ADD62R,0.04567X0.05787*%
%TA.AperFunction,SMDPad*%
%ADD63R,0.02559X0.02362*%
%TA.AperFunction,SMDPad*%
%ADD64R,0.12598X0.09252*%
%TA.AperFunction,SMDPad*%
%ADD65R,0.04528X0.01772*%
%TA.AperFunction,SMDPad*%
%ADD66R,0.05787X0.04567*%
%TA.AperFunction,SMDPad*%
%ADD67R,0.04921X0.03937*%
%TA.AperFunction,SMDPad*%
%ADD68R,0.03937X0.04921*%
%TA.AperFunction,SMDPad*%
%ADD70R,0.18701X0.12402*%
%TA.AperFunction,SMDPad*%
%ADD71R,0.03937X0.02362*%
%TA.AperFunction,SMDPad*%
%ADD72R,0.02362X0.03937*%
G36*
X385497Y258032D02*
X383096D01*
Y260827D01*
X385497D01*
Y258032D01*
D02*
G37*
G36*
X380192D02*
X377790D01*
Y260827D01*
X380192D01*
Y258032D01*
D02*
G37*
G36*
X375192D02*
X372790D01*
Y260827D01*
X375192D01*
Y258032D01*
D02*
G37*
G36*
X384759Y263682D02*
X368223D01*
Y273130D01*
X384759D01*
Y263682D01*
D02*
G37*
G36*
X280369Y294052D02*
X280487Y294043D01*
X280604Y294029D01*
X280720Y294008D01*
X280835Y293982D01*
X280948Y293950D01*
X281060Y293913D01*
X281169Y293869D01*
X281277Y293821D01*
X281382Y293767D01*
X281484Y293708D01*
X281582Y293644D01*
X281678Y293576D01*
X281770Y293502D01*
X281858Y293424D01*
X281943Y293342D01*
X282023Y293256D01*
X282099Y293166D01*
X282170Y293072D01*
X282236Y292974D01*
X282297Y292874D01*
X282354Y292771D01*
X282405Y292664D01*
X282451Y292556D01*
X282491Y292445D01*
X282526Y292333D01*
X282555Y292218D01*
X282578Y292103D01*
X282596Y291986D01*
X282607Y291869D01*
X282613Y291752D01*
Y291634D01*
X282607Y291516D01*
X282596Y291399D01*
X282578Y291283D01*
X282555Y291167D01*
X282526Y291053D01*
X282491Y290940D01*
X282451Y290830D01*
X282405Y290721D01*
X282354Y290615D01*
X282297Y290512D01*
X282236Y290411D01*
X282170Y290314D01*
X282099Y290220D01*
X282023Y290130D01*
X281943Y290043D01*
X281858Y289961D01*
X281770Y289883D01*
X281678Y289810D01*
X281582Y289741D01*
X281484Y289677D01*
X281382Y289618D01*
X281277Y289564D01*
X281169Y289516D01*
X281060Y289473D01*
X280948Y289436D01*
X280835Y289404D01*
X280720Y289377D01*
X280604Y289357D01*
X280487Y289342D01*
X280369Y289334D01*
X280252Y289331D01*
X277890D01*
X277772Y289334D01*
X277654Y289342D01*
X277537Y289357D01*
X277421Y289377D01*
X277307Y289404D01*
X277193Y289436D01*
X277082Y289473D01*
X276972Y289516D01*
X276865Y289564D01*
X276760Y289618D01*
X276658Y289677D01*
X276559Y289741D01*
X276463Y289810D01*
X276371Y289883D01*
X276283Y289961D01*
X276199Y290043D01*
X276118Y290130D01*
X276043Y290220D01*
X275972Y290314D01*
X275905Y290411D01*
X275844Y290512D01*
X275787Y290615D01*
X275736Y290721D01*
X275691Y290830D01*
X275650Y290940D01*
X275616Y291053D01*
X275587Y291167D01*
X275563Y291283D01*
X275546Y291399D01*
X275534Y291516D01*
X275528Y291634D01*
Y291752D01*
X275534Y291869D01*
X275546Y291986D01*
X275563Y292103D01*
X275587Y292218D01*
X275616Y292333D01*
X275650Y292445D01*
X275691Y292556D01*
X275736Y292664D01*
X275787Y292771D01*
X275844Y292874D01*
X275905Y292974D01*
X275972Y293072D01*
X276043Y293166D01*
X276118Y293256D01*
X276199Y293342D01*
X276283Y293424D01*
X276371Y293502D01*
X276463Y293576D01*
X276559Y293644D01*
X276658Y293708D01*
X276760Y293767D01*
X276865Y293821D01*
X276972Y293869D01*
X277082Y293913D01*
X277193Y293950D01*
X277307Y293982D01*
X277421Y294008D01*
X277537Y294029D01*
X277654Y294043D01*
X277772Y294052D01*
X277890Y294055D01*
X280252D01*
X280369Y294052D01*
D02*
G37*
G36*
X385496Y278858D02*
X384768D01*
X384769Y274252D01*
X368234D01*
Y277638D01*
X372800D01*
Y281968D01*
X375202D01*
Y279449D01*
X377791Y279449D01*
Y281968D01*
X380193D01*
Y279449D01*
X383095D01*
Y281968D01*
X385496D01*
Y278858D01*
D02*
G37*
G36*
X369906Y279173D02*
X367505D01*
Y281968D01*
X369906D01*
Y279173D01*
D02*
G37*
G36*
Y258032D02*
X367505D01*
Y260827D01*
X369906D01*
Y258032D01*
D02*
G37*
G36*
X380192Y230032D02*
X377790D01*
Y232827D01*
X380192D01*
Y230032D01*
D02*
G37*
G36*
X375192D02*
X372790D01*
Y232827D01*
X375192D01*
Y230032D01*
D02*
G37*
G36*
X369906D02*
X367505D01*
Y232827D01*
X369906D01*
Y230032D01*
D02*
G37*
G36*
X385497D02*
X383096D01*
Y232827D01*
X385497D01*
Y230032D01*
D02*
G37*
G36*
X385496Y250858D02*
X384768D01*
X384769Y246252D01*
X368234D01*
Y249638D01*
X372800D01*
Y253968D01*
X375202D01*
Y251449D01*
X377791Y251448D01*
Y253968D01*
X380193D01*
Y251448D01*
X383095D01*
Y253968D01*
X385496D01*
Y250858D01*
D02*
G37*
G36*
X369906Y251173D02*
X367505D01*
Y253968D01*
X369906D01*
Y251173D01*
D02*
G37*
G36*
X384759Y235682D02*
X368223D01*
Y245130D01*
X384759D01*
Y235682D01*
D02*
G37*
G36*
X300646Y315000D02*
X295528D01*
Y316181D01*
X300646D01*
Y315000D01*
D02*
G37*
G36*
X300646Y313030D02*
X295528D01*
X295528Y314211D01*
X300646D01*
Y313030D01*
D02*
G37*
G36*
X300646Y311063D02*
X295528D01*
Y312244D01*
X300646D01*
Y311063D01*
D02*
G37*
G36*
X300645Y316969D02*
X295527D01*
Y319332D01*
X300645D01*
Y316969D01*
D02*
G37*
G36*
X297220Y328068D02*
X297338Y328059D01*
X297455Y328045D01*
X297571Y328024D01*
X297685Y327998D01*
X297799Y327966D01*
X297910Y327928D01*
X298020Y327886D01*
X298127Y327837D01*
X298232Y327783D01*
X298334Y327724D01*
X298433Y327660D01*
X298529Y327592D01*
X298621Y327518D01*
X298709Y327440D01*
X298794Y327358D01*
X298874Y327272D01*
X298949Y327182D01*
X299021Y327088D01*
X299087Y326990D01*
X299148Y326890D01*
X299205Y326786D01*
X299256Y326680D01*
X299301Y326572D01*
X299342Y326461D01*
X299376Y326349D01*
X299406Y326234D01*
X299429Y326119D01*
X299446Y326003D01*
X299458Y325885D01*
X299464Y325768D01*
Y325650D01*
X299458Y325532D01*
X299446Y325415D01*
X299429Y325299D01*
X299406Y325183D01*
X299376Y325069D01*
X299342Y324956D01*
X299301Y324846D01*
X299256Y324737D01*
X299205Y324631D01*
X299148Y324528D01*
X299087Y324427D01*
X299021Y324330D01*
X298949Y324236D01*
X298874Y324146D01*
X298794Y324059D01*
X298709Y323977D01*
X298621Y323899D01*
X298529Y323826D01*
X298433Y323757D01*
X298334Y323693D01*
X298232Y323634D01*
X298127Y323581D01*
X298020Y323532D01*
X297910Y323489D01*
X297799Y323451D01*
X297685Y323420D01*
X297571Y323393D01*
X297455Y323373D01*
X297338Y323358D01*
X297220Y323349D01*
X297102Y323347D01*
X293953D01*
X293835Y323349D01*
X293718Y323358D01*
X293601Y323373D01*
X293485Y323393D01*
X293370Y323420D01*
X293257Y323451D01*
X293145Y323489D01*
X293035Y323532D01*
X292928Y323581D01*
X292823Y323634D01*
X292721Y323693D01*
X292622Y323757D01*
X292527Y323826D01*
X292435Y323899D01*
X292346Y323977D01*
X292262Y324059D01*
X292182Y324146D01*
X292106Y324236D01*
X292035Y324330D01*
X291969Y324427D01*
X291907Y324528D01*
X291851Y324631D01*
X291800Y324737D01*
X291754Y324846D01*
X291714Y324956D01*
X291679Y325069D01*
X291650Y325183D01*
X291627Y325299D01*
X291609Y325415D01*
X291597Y325532D01*
X291591Y325650D01*
Y325768D01*
X291597Y325885D01*
X291609Y326003D01*
X291627Y326119D01*
X291650Y326234D01*
X291679Y326349D01*
X291714Y326461D01*
X291754Y326572D01*
X291800Y326680D01*
X291851Y326786D01*
X291907Y326890D01*
X291969Y326990D01*
X292035Y327088D01*
X292106Y327182D01*
X292182Y327272D01*
X292262Y327358D01*
X292346Y327440D01*
X292435Y327518D01*
X292527Y327592D01*
X292622Y327660D01*
X292721Y327724D01*
X292823Y327783D01*
X292928Y327837D01*
X293035Y327886D01*
X293145Y327928D01*
X293257Y327966D01*
X293370Y327998D01*
X293485Y328024D01*
X293601Y328045D01*
X293718Y328059D01*
X293835Y328068D01*
X293953Y328071D01*
X297102D01*
X297220Y328068D01*
D02*
G37*
G36*
X280369D02*
X280487Y328059D01*
X280604Y328045D01*
X280720Y328024D01*
X280835Y327998D01*
X280948Y327966D01*
X281060Y327928D01*
X281169Y327886D01*
X281277Y327837D01*
X281382Y327783D01*
X281484Y327724D01*
X281582Y327660D01*
X281678Y327592D01*
X281770Y327518D01*
X281858Y327440D01*
X281943Y327358D01*
X282023Y327272D01*
X282099Y327182D01*
X282170Y327088D01*
X282236Y326990D01*
X282297Y326890D01*
X282354Y326786D01*
X282405Y326680D01*
X282451Y326572D01*
X282491Y326461D01*
X282526Y326349D01*
X282555Y326234D01*
X282578Y326119D01*
X282596Y326003D01*
X282607Y325885D01*
X282613Y325768D01*
Y325650D01*
X282607Y325532D01*
X282596Y325415D01*
X282578Y325299D01*
X282555Y325183D01*
X282526Y325069D01*
X282491Y324956D01*
X282451Y324846D01*
X282405Y324737D01*
X282354Y324631D01*
X282297Y324528D01*
X282236Y324427D01*
X282170Y324330D01*
X282099Y324236D01*
X282023Y324146D01*
X281943Y324059D01*
X281858Y323977D01*
X281770Y323899D01*
X281678Y323826D01*
X281582Y323757D01*
X281484Y323693D01*
X281382Y323634D01*
X281277Y323581D01*
X281169Y323532D01*
X281060Y323489D01*
X280948Y323451D01*
X280835Y323420D01*
X280720Y323393D01*
X280604Y323373D01*
X280487Y323358D01*
X280369Y323349D01*
X280252Y323347D01*
X277890D01*
X277772Y323349D01*
X277654Y323358D01*
X277537Y323373D01*
X277421Y323393D01*
X277307Y323420D01*
X277193Y323451D01*
X277082Y323489D01*
X276972Y323532D01*
X276865Y323581D01*
X276760Y323634D01*
X276658Y323693D01*
X276559Y323757D01*
X276463Y323826D01*
X276371Y323899D01*
X276283Y323977D01*
X276199Y324059D01*
X276118Y324146D01*
X276043Y324236D01*
X275972Y324330D01*
X275905Y324427D01*
X275844Y324528D01*
X275787Y324631D01*
X275736Y324737D01*
X275691Y324846D01*
X275650Y324956D01*
X275616Y325069D01*
X275587Y325183D01*
X275563Y325299D01*
X275546Y325415D01*
X275534Y325532D01*
X275528Y325650D01*
Y325768D01*
X275534Y325885D01*
X275546Y326003D01*
X275563Y326119D01*
X275587Y326234D01*
X275616Y326349D01*
X275650Y326461D01*
X275691Y326572D01*
X275736Y326680D01*
X275787Y326786D01*
X275844Y326890D01*
X275905Y326990D01*
X275972Y327088D01*
X276043Y327182D01*
X276118Y327272D01*
X276199Y327358D01*
X276283Y327440D01*
X276371Y327518D01*
X276463Y327592D01*
X276559Y327660D01*
X276658Y327724D01*
X276760Y327783D01*
X276865Y327837D01*
X276972Y327886D01*
X277082Y327928D01*
X277193Y327966D01*
X277307Y327998D01*
X277421Y328024D01*
X277537Y328045D01*
X277654Y328059D01*
X277772Y328068D01*
X277890Y328071D01*
X280252D01*
X280369Y328068D01*
D02*
G37*
G36*
X300646Y320118D02*
X295528D01*
Y322480D01*
X300646D01*
Y320118D01*
D02*
G37*
G36*
X300646Y309094D02*
X295528D01*
Y310275D01*
X300646D01*
Y309094D01*
D02*
G37*
G36*
Y298071D02*
X295528D01*
Y300433D01*
X300646D01*
Y298071D01*
D02*
G37*
G36*
Y294921D02*
X295528D01*
Y297283D01*
X300646D01*
Y294921D01*
D02*
G37*
G36*
X297220Y294052D02*
X297338Y294043D01*
X297455Y294029D01*
X297571Y294008D01*
X297685Y293982D01*
X297799Y293950D01*
X297910Y293913D01*
X298020Y293869D01*
X298127Y293821D01*
X298232Y293767D01*
X298334Y293708D01*
X298433Y293644D01*
X298529Y293576D01*
X298621Y293502D01*
X298709Y293424D01*
X298794Y293342D01*
X298874Y293256D01*
X298949Y293166D01*
X299021Y293072D01*
X299087Y292974D01*
X299148Y292874D01*
X299205Y292771D01*
X299256Y292664D01*
X299301Y292556D01*
X299342Y292445D01*
X299376Y292333D01*
X299406Y292218D01*
X299429Y292103D01*
X299446Y291986D01*
X299458Y291869D01*
X299464Y291752D01*
Y291634D01*
X299458Y291516D01*
X299446Y291399D01*
X299429Y291283D01*
X299406Y291167D01*
X299376Y291053D01*
X299342Y290940D01*
X299301Y290830D01*
X299256Y290721D01*
X299205Y290615D01*
X299148Y290512D01*
X299087Y290411D01*
X299021Y290314D01*
X298949Y290220D01*
X298874Y290130D01*
X298794Y290043D01*
X298709Y289961D01*
X298621Y289883D01*
X298529Y289810D01*
X298433Y289741D01*
X298334Y289677D01*
X298232Y289618D01*
X298127Y289564D01*
X298020Y289516D01*
X297910Y289473D01*
X297799Y289436D01*
X297685Y289404D01*
X297571Y289377D01*
X297455Y289357D01*
X297338Y289342D01*
X297220Y289334D01*
X297102Y289331D01*
X293953D01*
X293835Y289334D01*
X293718Y289342D01*
X293601Y289357D01*
X293485Y289377D01*
X293370Y289404D01*
X293257Y289436D01*
X293145Y289473D01*
X293035Y289516D01*
X292928Y289564D01*
X292823Y289618D01*
X292721Y289677D01*
X292622Y289741D01*
X292527Y289810D01*
X292435Y289883D01*
X292346Y289961D01*
X292262Y290043D01*
X292182Y290130D01*
X292106Y290220D01*
X292035Y290314D01*
X291969Y290411D01*
X291907Y290512D01*
X291851Y290615D01*
X291800Y290721D01*
X291754Y290830D01*
X291714Y290940D01*
X291679Y291053D01*
X291650Y291167D01*
X291627Y291283D01*
X291609Y291399D01*
X291597Y291516D01*
X291591Y291634D01*
Y291752D01*
X291597Y291869D01*
X291609Y291986D01*
X291627Y292103D01*
X291650Y292218D01*
X291679Y292333D01*
X291714Y292445D01*
X291754Y292556D01*
X291800Y292664D01*
X291851Y292771D01*
X291907Y292874D01*
X291969Y292974D01*
X292035Y293072D01*
X292106Y293166D01*
X292182Y293256D01*
X292262Y293342D01*
X292346Y293424D01*
X292435Y293502D01*
X292527Y293576D01*
X292622Y293644D01*
X292721Y293708D01*
X292823Y293767D01*
X292928Y293821D01*
X293035Y293869D01*
X293145Y293913D01*
X293257Y293950D01*
X293370Y293982D01*
X293485Y294008D01*
X293601Y294029D01*
X293718Y294043D01*
X293835Y294052D01*
X293953Y294055D01*
X297102D01*
X297220Y294052D01*
D02*
G37*
G36*
X300646Y301220D02*
X295528D01*
Y302401D01*
X300646D01*
Y301220D01*
D02*
G37*
G36*
X300646Y307126D02*
X295528D01*
Y308307D01*
X300646D01*
Y307126D01*
D02*
G37*
G36*
X300646Y305157D02*
X295528D01*
Y306338D01*
X300646D01*
Y305157D01*
D02*
G37*
G36*
X300646Y303189D02*
X295528D01*
Y304370D01*
X300646D01*
Y303189D01*
D02*
G37*
D10*
X345031Y374000D02*
D03*
X338968D02*
D03*
X345031Y366500D02*
D03*
X338968D02*
D03*
X338968Y359000D02*
D03*
X345031D02*
D03*
D52*
X322673Y274476D02*
D03*
X324642D02*
D03*
X326610D02*
D03*
X328579D02*
D03*
X330547D02*
D03*
X332516D02*
D03*
X334484D02*
D03*
X336453D02*
D03*
X338421D02*
D03*
X340390D02*
D03*
X342358D02*
D03*
X344327D02*
D03*
Y246524D02*
D03*
X342358D02*
D03*
X340390D02*
D03*
X338421D02*
D03*
X336453D02*
D03*
X334484D02*
D03*
X332516D02*
D03*
X330547D02*
D03*
X328579D02*
D03*
X326610D02*
D03*
X324642D02*
D03*
X322673D02*
D03*
D53*
X347476Y271327D02*
D03*
Y269358D02*
D03*
Y267390D02*
D03*
Y265421D02*
D03*
Y263453D02*
D03*
Y261484D02*
D03*
Y259516D02*
D03*
Y257547D02*
D03*
Y255579D02*
D03*
Y253610D02*
D03*
Y251642D02*
D03*
Y249673D02*
D03*
X319524D02*
D03*
Y251642D02*
D03*
Y253610D02*
D03*
Y255579D02*
D03*
Y257547D02*
D03*
Y259516D02*
D03*
Y261484D02*
D03*
Y263453D02*
D03*
Y265421D02*
D03*
Y267390D02*
D03*
Y269358D02*
D03*
Y271327D02*
D03*
D54*
X333500Y260500D02*
D03*
D58*
X374000Y280413D02*
D03*
Y252413D02*
D03*
D59*
X360000Y266032D02*
D03*
Y259968D02*
D03*
Y243969D02*
D03*
Y250031D02*
D03*
X384000Y376031D02*
D03*
Y369969D02*
D03*
D60*
X360366Y231500D02*
D03*
X348634D02*
D03*
X321634Y292500D02*
D03*
X333366D02*
D03*
D61*
X342327Y240000D02*
D03*
X345673D02*
D03*
X351327D02*
D03*
X354673D02*
D03*
X337173Y240000D02*
D03*
X333827D02*
D03*
X308673Y259500D02*
D03*
X305327D02*
D03*
X308673Y254000D02*
D03*
X305327D02*
D03*
X308673Y265000D02*
D03*
X305327D02*
D03*
X308673Y248500D02*
D03*
X305327D02*
D03*
X344827Y279500D02*
D03*
X348173D02*
D03*
X395673Y383000D02*
D03*
X392327D02*
D03*
X386673D02*
D03*
X383327D02*
D03*
X318673Y360500D02*
D03*
X315327D02*
D03*
D62*
X333496Y232500D02*
D03*
X340504D02*
D03*
X313504Y293000D02*
D03*
X306496D02*
D03*
X313504Y283500D02*
D03*
X306496D02*
D03*
D63*
X355000Y277673D02*
D03*
Y274327D02*
D03*
X360500Y274327D02*
D03*
Y277673D02*
D03*
X326500Y236673D02*
D03*
Y233327D02*
D03*
X389500Y339673D02*
D03*
Y336327D02*
D03*
X309000Y368827D02*
D03*
Y372173D02*
D03*
X292000Y267682D02*
D03*
Y264336D02*
D03*
X411000Y374173D02*
D03*
Y370827D02*
D03*
X405000Y374173D02*
D03*
Y370827D02*
D03*
X377500Y372673D02*
D03*
Y369327D02*
D03*
X377500Y378327D02*
D03*
Y381673D02*
D03*
X314500Y372173D02*
D03*
Y368827D02*
D03*
D64*
X317000Y304394D02*
D03*
Y328606D02*
D03*
X407500Y337394D02*
D03*
Y361606D02*
D03*
D65*
X316260Y352500D02*
D03*
Y347500D02*
D03*
Y342500D02*
D03*
Y337500D02*
D03*
X293740Y352500D02*
D03*
Y347500D02*
D03*
Y342500D02*
D03*
Y337500D02*
D03*
X366740Y347500D02*
D03*
Y352500D02*
D03*
Y357500D02*
D03*
Y362500D02*
D03*
X389260Y347500D02*
D03*
Y352500D02*
D03*
Y357500D02*
D03*
Y362500D02*
D03*
D66*
X425500Y346004D02*
D03*
Y338996D02*
D03*
X326000Y351496D02*
D03*
Y358504D02*
D03*
D67*
X293693Y274000D02*
D03*
X305307D02*
D03*
D68*
X298500Y256193D02*
D03*
Y267807D02*
D03*
D70*
X414000Y280346D02*
D03*
Y323654D02*
D03*
D71*
X399724Y376740D02*
D03*
Y373000D02*
D03*
Y369260D02*
D03*
X390276D02*
D03*
Y376740D02*
D03*
D72*
X321760Y365587D02*
D03*
X329240D02*
D03*
Y376413D02*
D03*
X325500D02*
D03*
X321760D02*
D03*
X369740Y369776D02*
D03*
X366000D02*
D03*
X362260D02*
D03*
Y379224D02*
D03*
X369740D02*
D03*
%TF.MD5,B15E0E4EC93C62DA97C78842FED41A2A*%
M02*
