G04 Layer_Physical_Order=1*
G04 Layer_Color=255*
%FSLAX25Y25*%
%MOIN*%
%TF.FileFunction,Copper,L1,Top,Signal*%
%TF.Part,Single*%
G01*
G75*
%TA.AperFunction,SMDPad*%
%ADD10R,0.02362X0.02559*%
%TA.AperFunction,SMDPad*%
%ADD11R,0.03937X0.03268*%
%TA.AperFunction,SMDPad*%
%ADD12R,0.03858X0.14567*%
%TA.AperFunction,SMDPad*%
%ADD13R,0.02559X0.02362*%
%TA.AperFunction,SMDPad*%
%ADD14R,0.06000X0.10000*%
%TA.AperFunction,SMDPad*%
%ADD15R,0.10000X0.06000*%
%TA.AperFunction,SMDPad*%
%ADD16R,0.05315X0.07087*%
%TA.AperFunction,SMDPad*%
%ADD17R,0.02362X0.03937*%
%TA.AperFunction,SMDPad*%
%ADD18R,0.03858X0.03661*%
%TA.AperFunction,SMDPad*%
%ADD19R,0.01181X0.01772*%
%TA.AperFunction,SMDPad*%
%ADD20R,0.07677X0.07205*%
%TA.AperFunction,SMDPad*%
%ADD21R,0.07677X0.06890*%
%TA.AperFunction,SMDPad*%
%ADD22O,0.02953X0.00984*%
%TA.AperFunction,SMDPad*%
%ADD23O,0.00984X0.02953*%
%TA.AperFunction,SMDPad*%
%ADD24R,0.09370X0.39370*%
%TA.AperFunction,SMDPad*%
%ADD25R,0.03661X0.03858*%
%TA.AperFunction,SMDPad*%
G04:AMPARAMS|DCode=26|XSize=15.35mil|YSize=47.24mil|CornerRadius=3.84mil|HoleSize=0mil|Usage=FLASHONLY|Rotation=270.000|XOffset=0mil|YOffset=0mil|HoleType=Round|Shape=RoundedRectangle|*
%AMROUNDEDRECTD26*
21,1,0.01535,0.03957,0,0,270.0*
21,1,0.00768,0.04724,0,0,270.0*
1,1,0.00768,-0.01978,-0.00384*
1,1,0.00768,-0.01978,0.00384*
1,1,0.00768,0.01978,0.00384*
1,1,0.00768,0.01978,-0.00384*
%
%ADD26ROUNDEDRECTD26*%
%TA.AperFunction,SMDPad*%
%ADD27O,0.04331X0.00984*%
%TA.AperFunction,SMDPad*%
%ADD28O,0.00984X0.04331*%
%TA.AperFunction,SMDPad*%
%ADD29R,0.09646X0.09646*%
%TA.AperFunction,SMDPad*%
%ADD30R,0.03347X0.06299*%
%TA.AperFunction,SMDPad*%
%ADD31O,0.02756X0.00984*%
%TA.AperFunction,SMDPad*%
%ADD32R,0.03543X0.01575*%
%TA.AperFunction,SMDPad*%
%ADD33R,0.01575X0.03543*%
%ADD34C,0.00800*%
%ADD35C,0.00700*%
%ADD36C,0.01500*%
%ADD37C,0.02000*%
%ADD38C,0.04000*%
%ADD39C,0.01000*%
%TA.AperFunction,ViaPad*%
%ADD40C,0.03937*%
%TA.AperFunction,ViaPad*%
%ADD41R,0.03937X0.03937*%
%TA.AperFunction,ViaPad*%
%ADD42R,0.03937X0.03937*%
%TA.AperFunction,ViaPad*%
%ADD43C,0.01800*%
G36*
X397422Y384260D02*
X402235Y383690D01*
X404632Y383213D01*
X406989Y382745D01*
X411654Y381429D01*
X416202Y379751D01*
X420603Y377722D01*
X424832Y375354D01*
X428863Y372661D01*
X432669Y369660D01*
X436228Y366370D01*
X439518Y362811D01*
X439763Y362500D01*
X442519Y359004D01*
X445212Y354974D01*
X447580Y350745D01*
X449610Y346343D01*
X451287Y341796D01*
X452603Y337131D01*
X453548Y332377D01*
X453845Y329874D01*
X453513Y329500D01*
X446100Y329500D01*
D01*
X453889D01*
X454118Y327564D01*
X454309Y322721D01*
X454134Y318276D01*
X454118Y317877D01*
X453548Y313064D01*
X452603Y308310D01*
X451287Y303645D01*
X449797Y299606D01*
X449610Y299097D01*
X448912Y297585D01*
D01*
X447597Y294731D01*
X447580Y294696D01*
X445212Y290467D01*
X443970Y288608D01*
X443224Y287492D01*
X442519Y286437D01*
X440624Y284033D01*
X439518Y282630D01*
X436228Y279071D01*
X432669Y275781D01*
X428863Y272780D01*
X424832Y270087D01*
X421500Y268221D01*
X420603Y267719D01*
X416202Y265690D01*
X411654Y264012D01*
X406989Y262696D01*
X402235Y261751D01*
X397422Y261181D01*
X392579Y260991D01*
X387736Y261181D01*
X382922Y261751D01*
X378168Y262696D01*
X373503Y264012D01*
X368956Y265690D01*
X364554Y267719D01*
X360325Y270087D01*
X356295Y272780D01*
X352488Y275781D01*
X349156Y278862D01*
X348929Y279071D01*
X345639Y282630D01*
X342638Y286437D01*
X339946Y290467D01*
X337577Y294696D01*
X337042Y295857D01*
X335548Y299097D01*
X333870Y303645D01*
X332555Y308310D01*
X331609Y313064D01*
X331039Y317877D01*
X330849Y322721D01*
X331039Y327564D01*
X331609Y332377D01*
X332555Y337131D01*
X333870Y341796D01*
X335548Y346343D01*
X337577Y350745D01*
X339946Y354974D01*
X341260Y356941D01*
D01*
X342638Y359004D01*
X345639Y362811D01*
X348929Y366370D01*
X349517Y366913D01*
X352214Y369407D01*
D01*
X352488Y369660D01*
X356295Y372661D01*
X360325Y375354D01*
X364554Y377722D01*
X368956Y379751D01*
X373503Y381429D01*
X376635Y382312D01*
X378168Y382745D01*
X382922Y383690D01*
X387736Y384260D01*
X392579Y384450D01*
X397422Y384260D01*
D02*
G37*
%LPC*%
G36*
X346779Y293227D02*
X345100D01*
Y291646D01*
X346779D01*
Y293227D01*
D02*
G37*
G36*
X367329Y303346D02*
X365158D01*
Y302159D01*
X367329D01*
Y303346D01*
D02*
G37*
G36*
X387283Y302974D02*
X386998D01*
Y302053D01*
X387783D01*
X387825Y302095D01*
X387827Y302053D01*
X388677D01*
X388359Y302529D01*
X387866Y302858D01*
X387283Y302974D01*
D02*
G37*
G36*
X335727Y326400D02*
X334146D01*
Y324721D01*
X335727D01*
Y325663D01*
X335671Y325700D01*
X335603Y325725D01*
X335527Y325732D01*
X335727D01*
Y326325D01*
X335697Y326357D01*
X335727D01*
Y326400D01*
D02*
G37*
G36*
X391400Y305354D02*
X389721D01*
Y303773D01*
X391400D01*
Y305354D01*
D02*
G37*
G36*
X337227Y331900D02*
X335646D01*
Y330221D01*
X337227D01*
Y331163D01*
X337171Y331201D01*
X337103Y331224D01*
X337027Y331233D01*
X337227D01*
Y331900D01*
D02*
G37*
G36*
X394280Y305354D02*
X392600D01*
Y303773D01*
X394280D01*
Y305354D01*
D02*
G37*
G36*
X448854Y325400D02*
X448357D01*
Y325370D01*
X448325Y325400D01*
X447901D01*
X447863Y325344D01*
X447838Y325276D01*
X447830Y325200D01*
Y325400D01*
X447273D01*
Y323721D01*
X448854D01*
Y325400D01*
D02*
G37*
G36*
Y328279D02*
X447273D01*
Y326600D01*
X447830D01*
Y326800D01*
X447838Y326724D01*
X447863Y326656D01*
X447901Y326600D01*
X448325D01*
X448357Y326630D01*
Y326600D01*
X448854D01*
Y328279D01*
D02*
G37*
G36*
X339400Y302727D02*
X337720D01*
Y301146D01*
X339400D01*
Y302727D01*
D02*
G37*
G36*
X337227Y334780D02*
X335646D01*
Y333100D01*
X337227D01*
Y334780D01*
D02*
G37*
G36*
X441280Y292227D02*
X440684D01*
Y292197D01*
X440651Y292227D01*
X440337D01*
X440300Y292171D01*
X440275Y292103D01*
X440268Y292027D01*
Y292227D01*
X439600D01*
Y290646D01*
X441280D01*
Y292227D01*
D02*
G37*
G36*
X343900Y293227D02*
X343245D01*
Y293027D01*
X343236Y293103D01*
X343212Y293171D01*
X343174Y293227D01*
X342349D01*
X342316Y293197D01*
Y293227D01*
X342220D01*
Y291646D01*
X343900D01*
Y293227D01*
D02*
G37*
G36*
X346227Y334780D02*
X344646D01*
Y333100D01*
X345143D01*
Y333130D01*
X345175Y333100D01*
X345599D01*
X345637Y333156D01*
X345662Y333224D01*
X345670Y333300D01*
Y333100D01*
X346227D01*
Y334780D01*
D02*
G37*
G36*
X405279Y305354D02*
X403600D01*
Y303773D01*
X405279D01*
Y305354D01*
D02*
G37*
G36*
X335727Y323280D02*
X334146D01*
Y321600D01*
X335727D01*
Y322255D01*
X335527D01*
X335603Y322264D01*
X335671Y322288D01*
X335727Y322326D01*
Y323280D01*
D02*
G37*
G36*
X429854Y281400D02*
X428273D01*
Y279720D01*
X429854D01*
Y281400D01*
D02*
G37*
G36*
X446073Y328279D02*
X444492D01*
Y328040D01*
X442172D01*
X442158Y328042D01*
X442143Y328040D01*
X441386D01*
Y327578D01*
X441318Y327565D01*
X441020Y327540D01*
X439925D01*
X439870Y327543D01*
X439693Y327563D01*
X439614Y327578D01*
Y328040D01*
X438857D01*
X438842Y328042D01*
X438828Y328040D01*
X433214D01*
X433209Y328041D01*
X433201Y328040D01*
X433172D01*
X433158Y328042D01*
X433143Y328040D01*
X432386D01*
Y327670D01*
X431852Y327564D01*
X431303Y327197D01*
X430936Y326648D01*
X430807Y326000D01*
X430936Y325352D01*
X431303Y324803D01*
X431852Y324436D01*
X432386Y324330D01*
Y323960D01*
X433143D01*
X433158Y323958D01*
X433172Y323960D01*
X433201D01*
X433209Y323959D01*
X433214Y323960D01*
X438828D01*
X438842Y323958D01*
X438857Y323960D01*
X439614D01*
Y324422D01*
X439682Y324435D01*
X439980Y324460D01*
X441075D01*
X441130Y324457D01*
X441307Y324437D01*
X441386Y324422D01*
Y323960D01*
X441785D01*
X441787Y323942D01*
Y323673D01*
X441831Y323453D01*
X441436Y322953D01*
X438441D01*
Y323193D01*
X436860D01*
Y320224D01*
Y317256D01*
X438441D01*
Y317496D01*
X445681D01*
Y322032D01*
Y322166D01*
X445684Y322181D01*
X445681Y322195D01*
Y322953D01*
X445630D01*
X445280Y323260D01*
X445265Y323334D01*
X445582Y323721D01*
X446073D01*
Y326000D01*
Y328279D01*
D02*
G37*
G36*
X435660Y323193D02*
X434079D01*
Y322997D01*
Y322500D01*
Y320824D01*
X435660D01*
Y323193D01*
D02*
G37*
G36*
X372500Y372775D02*
X362000D01*
X361703Y372716D01*
X361452Y372548D01*
X360952Y372048D01*
X360784Y371796D01*
X360725Y371500D01*
Y368321D01*
X360679Y368275D01*
X358000D01*
X357703Y368216D01*
X357452Y368048D01*
X356452Y367048D01*
X356284Y366796D01*
X356225Y366500D01*
Y364775D01*
Y356775D01*
X352653D01*
X352462Y356813D01*
X352403Y356801D01*
D01*
X352165Y356754D01*
X352165Y356754D01*
X351704Y356563D01*
X351704Y356563D01*
X351620Y356507D01*
X351610Y356500D01*
X351610D01*
X351452Y356395D01*
X351284Y356143D01*
X351225Y355847D01*
X351225Y355847D01*
Y352768D01*
X351284Y352471D01*
X351452Y352220D01*
X351461Y352214D01*
Y348886D01*
X351504D01*
X351640Y348744D01*
X351663Y348610D01*
X351263Y348175D01*
X350064D01*
X349882Y348438D01*
X350040Y348886D01*
X350040D01*
Y351992D01*
X350279D01*
Y353573D01*
X345721D01*
Y351992D01*
X345960D01*
Y348886D01*
X345960D01*
X346166Y348458D01*
X346087Y348094D01*
X346039Y348085D01*
X345656Y347828D01*
X344664Y346836D01*
X344407Y346453D01*
X344338Y346107D01*
X343845D01*
X343830Y346109D01*
X343816Y346107D01*
X339539D01*
Y343012D01*
Y340453D01*
Y337894D01*
X343816D01*
X343830Y337891D01*
X343845Y337894D01*
X344602D01*
X344602Y337894D01*
X345100Y337887D01*
X345500Y337807D01*
X346148Y337936D01*
X346317Y338050D01*
X346817Y337782D01*
Y336500D01*
X346817Y336500D01*
X346907Y336047D01*
X347164Y335664D01*
X347586Y335242D01*
X347427Y334857D01*
Y332500D01*
X346827D01*
Y331900D01*
X345670D01*
Y331700D01*
X345662Y331776D01*
X345637Y331844D01*
X345599Y331900D01*
X345175D01*
X345143Y331870D01*
Y331900D01*
X344646D01*
Y330785D01*
X343114D01*
Y334540D01*
X340008D01*
Y334780D01*
X338427D01*
Y332500D01*
Y331233D01*
X338627D01*
X338551Y331224D01*
X338483Y331201D01*
X338427Y331163D01*
Y330221D01*
X339910D01*
X339986Y329835D01*
X340184Y329539D01*
X340000Y329040D01*
X338508D01*
Y329279D01*
X336927D01*
Y328305D01*
X336983Y328278D01*
X337051Y328261D01*
X337127Y328256D01*
X336927D01*
Y327675D01*
X336957Y327643D01*
X336927D01*
Y327000D01*
Y326357D01*
X336957D01*
X336927Y326325D01*
Y325732D01*
X337127D01*
X337051Y325725D01*
X336983Y325700D01*
X336927Y325663D01*
Y324721D01*
X337665D01*
X337982Y324334D01*
X337981Y324327D01*
X338090Y323780D01*
X337821Y323280D01*
X336927D01*
Y322326D01*
X336983Y322288D01*
X337051Y322264D01*
X337127Y322255D01*
X336927D01*
Y321000D01*
X336327D01*
Y320400D01*
X334146D01*
Y318721D01*
X336218D01*
X336485Y318220D01*
X336436Y318148D01*
X336330Y317614D01*
X335961D01*
Y313732D01*
Y310386D01*
X340039D01*
X340317Y310001D01*
Y309990D01*
X339164Y308836D01*
X339015Y308614D01*
X337961D01*
Y305508D01*
X337720D01*
Y303927D01*
X340000D01*
Y303327D01*
X340600D01*
Y301146D01*
X342280D01*
Y301146D01*
X343900D01*
Y302810D01*
X343883Y302819D01*
X343822Y302844D01*
X343757Y302866D01*
X343687Y302885D01*
X343612Y302900D01*
X343532Y302912D01*
X343360Y302925D01*
X343266Y302927D01*
X343245Y303025D01*
Y302527D01*
X343236Y302603D01*
X343212Y302671D01*
X343171Y302731D01*
X343114Y302783D01*
X343041Y302827D01*
X342952Y302863D01*
X342847Y302891D01*
X342725Y302911D01*
X342587Y302923D01*
X342432Y302927D01*
Y303727D01*
X342587Y303731D01*
X342725Y303743D01*
X342847Y303763D01*
X342952Y303791D01*
X343041Y303827D01*
X343114Y303871D01*
X343171Y303923D01*
X343212Y303983D01*
X343236Y304051D01*
X343245Y304127D01*
Y303735D01*
X343270Y303737D01*
X343351Y303751D01*
X343426Y303770D01*
X343495Y303794D01*
X343558Y303823D01*
X343615Y303858D01*
X343665Y303898D01*
X343710Y303944D01*
X343748Y303994D01*
X343900Y303220D01*
Y303327D01*
X344500D01*
Y303927D01*
X346779D01*
Y305508D01*
Y305508D01*
X346539D01*
Y306077D01*
D01*
X346540Y306080D01*
X346545Y306144D01*
X346551Y306171D01*
X346567Y306220D01*
X346598Y306288D01*
X346645Y306375D01*
X346711Y306476D01*
X346790Y306584D01*
X346863Y306669D01*
X347325Y306578D01*
X347402Y306523D01*
X347436Y306352D01*
X347698Y305961D01*
X347484Y305461D01*
X347394D01*
Y305461D01*
Y301649D01*
X347280Y301565D01*
X346779Y301816D01*
D01*
Y302727D01*
X345100D01*
Y301146D01*
X346668D01*
X346994Y300735D01*
X346948Y300666D01*
X346936Y300648D01*
X346808Y300000D01*
X346936Y299352D01*
X346513Y299114D01*
X342460D01*
Y299101D01*
X342173Y298866D01*
X341526Y298737D01*
X340977Y298370D01*
X340610Y297821D01*
X340481Y297173D01*
X340610Y296526D01*
X340977Y295976D01*
X341526Y295610D01*
X342173Y295481D01*
X342220Y295442D01*
Y294427D01*
X342316D01*
Y294457D01*
X342349Y294427D01*
X343174D01*
X343212Y294483D01*
X343236Y294551D01*
X343245Y294627D01*
Y294427D01*
X346779D01*
Y295990D01*
X347394D01*
Y292326D01*
X347391Y292311D01*
X347394Y292297D01*
Y291539D01*
X347758D01*
Y290059D01*
X347758Y290059D01*
X347848Y289606D01*
X348105Y289223D01*
X350164Y287164D01*
X350164Y287164D01*
X350547Y286907D01*
X351000Y286817D01*
X351000Y286817D01*
X354010D01*
X354052Y286775D01*
X354317Y286510D01*
Y283000D01*
X354317Y283000D01*
X354407Y282547D01*
X354664Y282164D01*
X357164Y279664D01*
X357164Y279664D01*
X357547Y279407D01*
X358000Y279317D01*
X363500D01*
X363500Y279317D01*
X363953Y279407D01*
X364336Y279664D01*
X365836Y281164D01*
X366093Y281547D01*
X366167Y281923D01*
X366173Y281942D01*
X366174Y281954D01*
X366183Y282000D01*
Y282039D01*
X366187Y282060D01*
X366209Y282123D01*
X366248Y282208D01*
X366306Y282312D01*
X366386Y282432D01*
X366481Y282559D01*
X366760Y282878D01*
X366895Y283015D01*
X366946Y283054D01*
X367383Y283624D01*
X367658Y284288D01*
X367752Y285000D01*
X367658Y285712D01*
X367528Y286028D01*
X367383Y286376D01*
X366946Y286946D01*
X366832Y287034D01*
X366832Y287664D01*
X367117Y287883D01*
X367593Y288503D01*
X367892Y289225D01*
X367920Y289437D01*
X368475Y289822D01*
X368500Y289817D01*
X368500Y289817D01*
X370772D01*
X370786Y289815D01*
X370797Y289813D01*
X370803Y289803D01*
X371352Y289436D01*
X372000Y289307D01*
X372648Y289436D01*
X373080Y289725D01*
X373197Y289803D01*
X373564Y290352D01*
X373692Y291000D01*
Y291000D01*
X373667Y291130D01*
X373564Y291648D01*
X373197Y292197D01*
X372648Y292564D01*
X372000Y292692D01*
X371352Y292564D01*
X370803Y292197D01*
X370797Y292187D01*
X370786Y292185D01*
X370772Y292183D01*
X368990D01*
X367208Y293965D01*
X366824Y294221D01*
X366371Y294311D01*
X366371Y294311D01*
X366286D01*
X366231Y294393D01*
X366498Y294894D01*
X369432D01*
X369468Y294713D01*
X369724Y294329D01*
X370404Y293649D01*
X370404Y293649D01*
X370787Y293393D01*
X371240Y293303D01*
X371240Y293303D01*
X374760D01*
X374760Y293303D01*
X374832Y293317D01*
X376000D01*
X376000Y293317D01*
X376453Y293407D01*
X376836Y293664D01*
X377489Y294316D01*
X377716Y294271D01*
X379488D01*
X379889Y294350D01*
X381900D01*
Y298500D01*
Y302650D01*
X380480D01*
X380192Y303000D01*
X380064Y303648D01*
X379697Y304197D01*
X379148Y304564D01*
X378500Y304693D01*
X377852Y304564D01*
X377303Y304197D01*
X376936Y303648D01*
X376807Y303000D01*
X376921Y302427D01*
X376814Y302356D01*
X376537Y301941D01*
X376127Y301667D01*
X376000Y301693D01*
X375780Y301649D01*
X375279Y302059D01*
Y302354D01*
X373600D01*
Y300173D01*
X372400D01*
Y302354D01*
X370721D01*
X370701Y302846D01*
Y303346D01*
X368529D01*
Y301559D01*
X367929D01*
Y300959D01*
X365158D01*
Y299772D01*
Y299600D01*
X367929D01*
Y298400D01*
X365158D01*
Y297213D01*
X365398D01*
Y295482D01*
X364897Y295275D01*
D01*
X362895Y297277D01*
X362618Y297462D01*
X362609Y297487D01*
X362604Y297573D01*
X362586Y297870D01*
D01*
X362618Y298018D01*
X362836Y298164D01*
X363663Y298990D01*
X363663Y298990D01*
X363919Y299374D01*
X364009Y299827D01*
X364009Y299827D01*
Y304221D01*
X365573D01*
Y306500D01*
X366173D01*
Y307100D01*
X368354D01*
Y308780D01*
X367623D01*
X367356Y309279D01*
X367420Y309374D01*
X367510Y309827D01*
X367510Y309827D01*
Y310460D01*
X371614D01*
Y313918D01*
D01*
X371631Y313953D01*
X371676Y314019D01*
X372109Y314276D01*
D01*
X372168Y314236D01*
X372382Y314022D01*
X372445Y313980D01*
X372445Y313980D01*
X372446Y313979D01*
X372500Y313925D01*
X372562Y313884D01*
X372633Y313854D01*
X372634Y313854D01*
X372634D01*
X372696Y313812D01*
X372749Y313790D01*
X372749Y313790D01*
X372749Y313790D01*
X372824Y313775D01*
X372842Y313768D01*
X372842D01*
X372894Y313746D01*
X372925Y313740D01*
X373001Y313740D01*
X373076Y313725D01*
X374296D01*
X374317Y313719D01*
X374342Y313696D01*
Y305900D01*
Y305799D01*
X381658D01*
Y305900D01*
Y307000D01*
X375500D01*
Y313871D01*
X380643D01*
Y313582D01*
X380702Y313286D01*
X380870Y313035D01*
X380883Y313021D01*
Y310756D01*
X380884Y310750D01*
X380883Y310743D01*
X380913Y310602D01*
X380942Y310459D01*
X380945Y310454D01*
X380947Y310448D01*
X381029Y310329D01*
X381109Y310208D01*
X381115Y310205D01*
X381119Y310199D01*
X381478Y309852D01*
X381484Y309848D01*
X381487Y309843D01*
X381610Y309766D01*
X381732Y309688D01*
X381739Y309686D01*
X381744Y309683D01*
X381887Y309660D01*
X382030Y309634D01*
X382219Y309325D01*
X382234Y309303D01*
X382241Y309278D01*
X382317Y309178D01*
X382387Y309073D01*
X382409Y309059D01*
X382425Y309038D01*
X382534Y308975D01*
X382639Y308905D01*
X382664Y308900D01*
X382687Y308887D01*
X382812Y308871D01*
X382935Y308846D01*
X393121D01*
X393418Y308905D01*
X393669Y309073D01*
X394048Y309452D01*
X394216Y309703D01*
X394275Y310000D01*
X394216Y310297D01*
X394048Y310548D01*
X393775Y310821D01*
Y326000D01*
X397225D01*
Y310500D01*
X397284Y310204D01*
X397452Y309952D01*
X397704Y309784D01*
X398000Y309725D01*
X404679D01*
X404725Y309679D01*
Y308000D01*
X404784Y307703D01*
X404920Y307500D01*
X404874Y307314D01*
X404697Y307000D01*
X382333D01*
X382400Y306000D01*
X406000D01*
Y306916D01*
X408732D01*
X408955Y306961D01*
X409284D01*
X409285Y306960D01*
X409356Y306931D01*
X409883Y306826D01*
X409946Y306784D01*
X410021Y306769D01*
X410092Y306740D01*
X410168D01*
X410243Y306725D01*
X410757D01*
X410832Y306740D01*
X410908D01*
X410979Y306769D01*
X411054Y306784D01*
X411117Y306826D01*
X411651Y306932D01*
X411719Y306961D01*
X412614D01*
Y308084D01*
X412624Y308131D01*
X412674Y308383D01*
X412716Y308447D01*
X412718Y308456D01*
X412731Y308521D01*
X412760Y308592D01*
Y308668D01*
X412775Y308743D01*
Y309257D01*
X412760Y309332D01*
Y309408D01*
X412731Y309479D01*
D01*
D01*
X412716Y309554D01*
X412685Y309600D01*
X412674Y309616D01*
X412614Y309916D01*
D01*
Y310084D01*
X412623Y310129D01*
X412674Y310384D01*
X412716Y310447D01*
X412731Y310521D01*
X412760Y310592D01*
Y310668D01*
X412775Y310743D01*
Y317000D01*
X412716Y317297D01*
X412548Y317548D01*
X412544Y317552D01*
X412292Y317720D01*
X411996Y317779D01*
X409275D01*
Y318679D01*
X409321Y318725D01*
X411000D01*
X411297Y318784D01*
X411548Y318952D01*
X412008Y319413D01*
X412102Y319447D01*
X412616Y319403D01*
X412731Y319231D01*
X413235Y318727D01*
X413817Y318338D01*
X414504Y318201D01*
X420496D01*
X421078Y318317D01*
X421183Y318338D01*
X421765Y318727D01*
X421979Y318941D01*
X427189D01*
Y319348D01*
Y319656D01*
X427190Y319661D01*
X427195Y319725D01*
X427240Y319737D01*
X427468D01*
X428155Y319874D01*
X428490Y320098D01*
X428991Y319830D01*
Y311280D01*
Y311039D01*
X428232D01*
Y306961D01*
X427847Y306683D01*
X425000D01*
X425000Y306683D01*
X424547Y306593D01*
X424164Y306336D01*
X423727Y306510D01*
D01*
D01*
X423648Y306564D01*
X423000Y306693D01*
X422352Y306564D01*
X422227Y306480D01*
X421803Y306197D01*
X421436Y305648D01*
X421308Y305000D01*
X421436Y304352D01*
X421561Y304166D01*
X421557Y304135D01*
X421282Y303683D01*
X420583D01*
Y304894D01*
X419788D01*
X419585Y305273D01*
X419572Y305394D01*
X419693Y306000D01*
X419601Y306460D01*
X419910Y306961D01*
X421614D01*
Y306991D01*
X422000Y307308D01*
X422648Y307436D01*
X423197Y307803D01*
X423564Y308352D01*
X423693Y309000D01*
X423564Y309648D01*
X423197Y310197D01*
X422648Y310564D01*
X422000Y310693D01*
X421614Y311009D01*
Y311039D01*
X420592D01*
X420510Y311163D01*
X420509Y311163D01*
X419681Y311991D01*
D01*
Y317004D01*
X415799D01*
Y311547D01*
X416821D01*
X416904Y311423D01*
X417732Y310595D01*
Y309000D01*
X417500D01*
Y307593D01*
X417352Y307564D01*
X416803Y307197D01*
X416436Y306648D01*
X416351Y306221D01*
D01*
X416307Y306000D01*
X416428Y305394D01*
X416415Y305273D01*
D01*
X416212Y304894D01*
X415126D01*
Y301384D01*
X414626Y301335D01*
X414564Y301648D01*
X414197Y302197D01*
X414193Y302199D01*
X414135Y302238D01*
X414093Y302453D01*
X413836Y302836D01*
X413836Y302836D01*
X412663Y304010D01*
X412279Y304266D01*
X411827Y304356D01*
X411827Y304356D01*
X410539D01*
Y305114D01*
X406461D01*
Y301009D01*
X405279D01*
Y302573D01*
X403000D01*
Y303173D01*
X402400D01*
Y305354D01*
X400721D01*
Y304105D01*
X400258Y303914D01*
X400163Y304010D01*
X399779Y304266D01*
X399539Y304314D01*
Y305114D01*
X395461D01*
Y301009D01*
X394280D01*
Y302573D01*
X389721D01*
Y300992D01*
X389961D01*
Y297886D01*
X390340D01*
X390538Y297386D01*
X390263Y296974D01*
X390244Y296881D01*
X389886Y296539D01*
X389422Y296628D01*
X389405Y296640D01*
X389113Y296698D01*
X388922Y296804D01*
D01*
X388877Y296916D01*
X386398D01*
Y298116D01*
X388677D01*
X388420Y298500D01*
X388677Y298884D01*
X386398D01*
Y300084D01*
X388677D01*
X388631Y300154D01*
X388100D01*
X388098Y300247D01*
X388091Y300335D01*
X388079Y300418D01*
X388063Y300496D01*
X388042Y300569D01*
X388017Y300637D01*
X387987Y300699D01*
X387953Y300757D01*
X387914Y300810D01*
X387880Y300847D01*
X387872Y300853D01*
X386398D01*
Y301453D01*
X385798D01*
Y302974D01*
X385512D01*
X384930Y302858D01*
X384617Y302650D01*
X383100D01*
Y298500D01*
Y294350D01*
X385111D01*
X385512Y294271D01*
X387283D01*
X387610Y294336D01*
X388096Y294365D01*
X388463D01*
X389164Y293664D01*
X389164Y293664D01*
X389547Y293407D01*
X389886Y293340D01*
Y292460D01*
X389501Y292183D01*
X377228D01*
X377214Y292185D01*
X377203Y292187D01*
X377197Y292197D01*
X376648Y292564D01*
X376000Y292692D01*
X375352Y292564D01*
X374803Y292197D01*
X374436Y291648D01*
X374307Y291000D01*
D01*
Y291000D01*
X374436Y290352D01*
X374803Y289803D01*
X374920Y289725D01*
X375201Y289538D01*
X375352Y289436D01*
X376000Y289307D01*
X376648Y289436D01*
X377197Y289803D01*
X377203Y289813D01*
X377214Y289815D01*
X377228Y289817D01*
X403500D01*
X403500Y289817D01*
X403953Y289907D01*
X404336Y290164D01*
X404836Y290664D01*
X404836Y290664D01*
X405093Y291047D01*
X405183Y291500D01*
X405183Y291500D01*
Y292272D01*
X405185Y292286D01*
X405187Y292297D01*
X405197Y292303D01*
X405564Y292852D01*
X405692Y293500D01*
X405564Y294148D01*
X405197Y294697D01*
X404648Y295064D01*
X404000Y295193D01*
X403352Y295064D01*
X402803Y294697D01*
X402436Y294148D01*
X402308Y293500D01*
X402436Y292852D01*
X402550Y292683D01*
X402282Y292183D01*
X397839D01*
X397354Y292220D01*
Y292683D01*
Y293900D01*
X395173D01*
Y294500D01*
X394573D01*
Y296779D01*
X393429D01*
X393390Y296974D01*
X393116Y297386D01*
X393313Y297886D01*
X394040D01*
Y298644D01*
X395461D01*
Y297886D01*
X396317D01*
Y297486D01*
X396358Y297280D01*
X396021Y296779D01*
X395773D01*
Y295100D01*
X397354D01*
Y296183D01*
X397500Y296303D01*
X405024D01*
X406477Y294850D01*
Y288584D01*
X406091Y288267D01*
X406000Y288285D01*
X370000D01*
X369508Y288187D01*
X369092Y287908D01*
X369000Y287771D01*
X368992Y287759D01*
X368813Y287492D01*
X368715Y287000D01*
Y286508D01*
Y274000D01*
X368813Y273508D01*
X369092Y273092D01*
X369508Y272813D01*
X370000Y272715D01*
X406000D01*
X406492Y272813D01*
X406908Y273092D01*
X407187Y273508D01*
X407285Y274000D01*
Y274899D01*
X407785Y275083D01*
X408047Y274907D01*
X408500Y274817D01*
X408500Y274817D01*
X416000D01*
X416000Y274817D01*
X416453Y274907D01*
X416836Y275164D01*
X417336Y275664D01*
X417336Y275664D01*
X417593Y276047D01*
X417683Y276500D01*
X417683Y276500D01*
Y277960D01*
D01*
X417693Y278012D01*
X417718Y278094D01*
X417759Y278191D01*
X417817Y278304D01*
X417896Y278430D01*
X417989Y278559D01*
X418264Y278881D01*
X418396Y279015D01*
X418446Y279054D01*
X418883Y279624D01*
X419158Y280288D01*
X419252Y281000D01*
X419158Y281712D01*
X418883Y282376D01*
X418446Y282946D01*
X418114Y283201D01*
X418113Y283203D01*
Y283730D01*
X418515Y284033D01*
X418909Y283914D01*
X419460Y283362D01*
Y283000D01*
X419578Y282411D01*
X419911Y281911D01*
X420911Y280911D01*
X421411Y280578D01*
X422000Y280460D01*
X422386Y280163D01*
Y279960D01*
X423143D01*
X423158Y279958D01*
X423172Y279960D01*
X425492D01*
Y279720D01*
X427073D01*
Y282000D01*
Y284279D01*
X425929D01*
X425890Y284474D01*
X425524Y285023D01*
X424974Y285390D01*
X424327Y285519D01*
X423679Y285390D01*
X423130Y285023D01*
X422909Y284693D01*
X422772Y284664D01*
X422340Y284713D01*
X422089Y285089D01*
X421273Y285905D01*
X421464Y286367D01*
X421691D01*
Y288161D01*
X422291D01*
Y288761D01*
X424538D01*
Y288813D01*
X424577Y288766D01*
X424582Y288761D01*
X425638D01*
X425583Y289038D01*
X425605Y289170D01*
X425801Y289538D01*
X426220D01*
X426221Y289538D01*
X426673Y289628D01*
X427057Y289884D01*
X427336Y290164D01*
X427593Y290547D01*
X427683Y291000D01*
Y293000D01*
X427683Y293000D01*
X427593Y293453D01*
X427336Y293836D01*
X427336Y293836D01*
X427057Y294116D01*
X426673Y294372D01*
X426221Y294462D01*
X426220Y294462D01*
X425584D01*
X425316Y294962D01*
X425347Y295008D01*
X425436Y295455D01*
Y296222D01*
X425347Y296669D01*
X425094Y297047D01*
X424716Y297300D01*
X424270Y297389D01*
X423475D01*
X423351Y297574D01*
X423254Y297889D01*
X423564Y298352D01*
X423693Y299000D01*
X423564Y299648D01*
X423197Y300197D01*
X423187Y300203D01*
X423185Y300214D01*
X423183Y300228D01*
Y302000D01*
X423183Y302000D01*
X423093Y302453D01*
X422841Y302829D01*
X422853Y302884D01*
X422927Y303096D01*
X423060Y303320D01*
X423648Y303436D01*
X423917Y303616D01*
X424417Y303349D01*
Y300106D01*
X429874D01*
Y304392D01*
D01*
X429953Y304407D01*
X430336Y304664D01*
X431009Y305337D01*
X431009Y305337D01*
X431266Y305721D01*
X431356Y306173D01*
X431356Y306173D01*
Y306961D01*
X432114D01*
Y311039D01*
X431356D01*
Y314044D01*
Y322605D01*
Y322827D01*
X431356Y322827D01*
X431266Y323279D01*
X431009Y323663D01*
X431009Y323663D01*
X428836Y325836D01*
X428453Y326093D01*
X428000Y326183D01*
X428000Y326183D01*
X422000D01*
X422000Y326183D01*
X421547Y326093D01*
X421164Y325836D01*
X421164Y325836D01*
X420234Y324907D01*
X419681D01*
Y326453D01*
X416327D01*
Y328725D01*
X441424D01*
X441499Y328740D01*
X441575D01*
X441639Y328753D01*
X441709Y328782D01*
X441720Y328784D01*
X441730Y328790D01*
X441918Y328868D01*
X441918Y328868D01*
X442132Y329082D01*
X442132Y329082D01*
X442210Y329270D01*
X442216Y329280D01*
X442218Y329291D01*
X442247Y329362D01*
X442690Y329500D01*
X442275D01*
Y351725D01*
X442216Y352022D01*
X442048Y352273D01*
X441796Y352441D01*
X441500Y352500D01*
Y353000D01*
X440947Y353520D01*
X424980D01*
X424000Y354500D01*
Y356500D01*
Y369500D01*
X423000Y370500D01*
X410000D01*
X408500Y372000D01*
X386500D01*
X384500Y370000D01*
X382641Y368141D01*
X382500Y368000D01*
X382500Y367679D01*
X382500Y367679D01*
Y364000D01*
Y360076D01*
X382486Y360006D01*
X382446Y359946D01*
X380141Y357641D01*
X380000Y357500D01*
X380000Y357179D01*
X380000Y357179D01*
Y355132D01*
X380000Y355132D01*
X379950Y355099D01*
X379886Y355003D01*
X379886Y355003D01*
X379886Y355003D01*
X379782Y354847D01*
X379723Y354551D01*
Y337504D01*
X379738Y337429D01*
Y337429D01*
X379752Y337358D01*
Y337358D01*
X379752Y337358D01*
X379782Y337207D01*
X379868Y337079D01*
X379868Y337079D01*
X379868Y337079D01*
X379949Y336957D01*
X379950Y336955D01*
X379946Y336946D01*
X379500Y336500D01*
Y336500D01*
X379452Y336468D01*
X379410Y336404D01*
X379356Y336350D01*
X379327Y336280D01*
X379284Y336217D01*
X379269Y336142D01*
X379240Y336071D01*
Y335995D01*
X379225Y335920D01*
Y334500D01*
X374102D01*
X374056Y334464D01*
X373860Y334292D01*
X373753Y334188D01*
X373658Y334500D01*
X373500D01*
Y335016D01*
X373488Y335054D01*
X373500Y335066D01*
Y337000D01*
Y342464D01*
X370803Y342464D01*
Y342500D01*
X362500D01*
X362427Y342427D01*
X361958Y342602D01*
X361732Y345860D01*
X362073Y346225D01*
X370000D01*
X370297Y346284D01*
X370548Y346452D01*
X370716Y346704D01*
X370775Y347000D01*
Y357603D01*
X370789Y357673D01*
X370829Y357733D01*
X373048Y359952D01*
X373216Y360204D01*
X373246Y360355D01*
X373246Y360355D01*
Y360355D01*
X373275Y360500D01*
Y371500D01*
Y372000D01*
X373216Y372297D01*
X373048Y372548D01*
X372797Y372716D01*
X372500Y372775D01*
D02*
G37*
G36*
X350279Y356354D02*
X348600D01*
Y355401D01*
X348656Y355363D01*
X348724Y355338D01*
X348800Y355330D01*
X348600D01*
Y354773D01*
X350279D01*
Y356354D01*
D02*
G37*
G36*
X347400D02*
X345721D01*
Y354773D01*
X347400D01*
Y355330D01*
X347200D01*
X347276Y355338D01*
X347344Y355363D01*
X347400Y355401D01*
Y356354D01*
D02*
G37*
G36*
X435660Y319624D02*
X434079D01*
Y317256D01*
X435660D01*
Y319624D01*
D02*
G37*
G36*
X368354Y305900D02*
X366773D01*
Y304221D01*
X368354D01*
Y305900D01*
D02*
G37*
G36*
X445500Y314275D02*
X441000D01*
X440703Y314216D01*
X440452Y314048D01*
X439952Y313548D01*
X439784Y313297D01*
X439725Y313000D01*
Y307429D01*
Y305500D01*
Y302321D01*
X439679Y302275D01*
X436500D01*
X436203Y302216D01*
X435952Y302048D01*
X435784Y301797D01*
X435725Y301500D01*
Y297576D01*
X435711Y297506D01*
X435709Y297503D01*
X435693Y297497D01*
X435684Y297491D01*
X435312Y297406D01*
X435301Y297405D01*
X435237Y297391D01*
X435172D01*
X435161Y297389D01*
X431730D01*
X431284Y297300D01*
X431156Y297214D01*
X431156Y297214D01*
X430906Y297047D01*
X430653Y296669D01*
X430649Y296649D01*
X430564Y296222D01*
Y295455D01*
X430653Y295008D01*
X430838Y294731D01*
X430733Y294661D01*
X430427Y294203D01*
X430319Y293663D01*
Y292896D01*
X430365Y292666D01*
X429852Y292564D01*
X429303Y292197D01*
X428936Y291648D01*
X428807Y291000D01*
X428936Y290352D01*
X429303Y289803D01*
X429383Y289750D01*
Y289250D01*
X429303Y289197D01*
X429047Y288813D01*
X428936Y288648D01*
X428807Y288000D01*
X428936Y287352D01*
X429303Y286803D01*
X429852Y286436D01*
X430500Y286308D01*
X431148Y286436D01*
X431483Y286661D01*
X431730Y286611D01*
X435687D01*
X436133Y286700D01*
X436512Y286953D01*
X436764Y287331D01*
X436853Y287778D01*
Y288545D01*
X436828Y288673D01*
X436804Y288793D01*
D01*
X436764Y288992D01*
X436724Y289052D01*
X436545Y289441D01*
X436724Y289829D01*
X436764Y289890D01*
X436853Y290337D01*
Y290646D01*
X438400D01*
Y292827D01*
X439000D01*
Y293427D01*
X440268D01*
Y293627D01*
X440275Y293551D01*
X440300Y293483D01*
X440337Y293427D01*
X440651D01*
X440684Y293457D01*
Y293427D01*
X441280D01*
Y294041D01*
X441336Y294052D01*
X441389Y294087D01*
X441447Y294109D01*
X441561Y294179D01*
X441660Y294235D01*
X441728Y294257D01*
X441730Y294259D01*
X441733Y294259D01*
X441802Y294282D01*
X441850Y294288D01*
X441889Y294302D01*
X441931Y294303D01*
X442032Y294349D01*
X442137Y294385D01*
X442168Y294412D01*
X442206Y294429D01*
X442281Y294510D01*
X442365Y294583D01*
X442383Y294620D01*
X442412Y294651D01*
X442660Y295054D01*
X442681Y295112D01*
X442716Y295163D01*
X442734Y295252D01*
X442765Y295337D01*
X442763Y295399D01*
X442775Y295460D01*
Y296725D01*
X443500D01*
X443796Y296784D01*
X444048Y296952D01*
X446548Y299452D01*
X446716Y299704D01*
X446775Y300000D01*
Y301500D01*
Y306000D01*
Y313000D01*
X446716Y313297D01*
X446548Y313548D01*
X446048Y314048D01*
X445796Y314216D01*
X445500Y314275D01*
D02*
G37*
G36*
X425638Y287561D02*
X424582D01*
X424577Y287557D01*
X424538Y287509D01*
Y287561D01*
X422891D01*
Y286367D01*
X424270D01*
X424810Y286474D01*
X425267Y286780D01*
X425573Y287238D01*
X425638Y287561D01*
D02*
G37*
G36*
X429854Y284279D02*
X428273D01*
Y282600D01*
X429854D01*
Y284279D01*
D02*
G37*
G36*
X444900Y329500D02*
X443000D01*
X444900D01*
D01*
D02*
G37*
G36*
X335727Y329279D02*
X334146D01*
Y327600D01*
X335727D01*
Y327643D01*
X335697D01*
X335727Y327675D01*
Y328256D01*
X335527D01*
X335603Y328261D01*
X335671Y328278D01*
X335727Y328305D01*
Y329279D01*
D02*
G37*
%LPD*%
G36*
X376901Y300098D02*
X376924Y300053D01*
X376955Y300013D01*
X376996Y299979D01*
X377046Y299950D01*
X377105Y299926D01*
X377173Y299908D01*
X377179Y299907D01*
X377506Y299927D01*
X377529Y299937D01*
Y299032D01*
X377506Y299042D01*
X377469Y299051D01*
X377417Y299059D01*
X377271Y299071D01*
X376804Y299084D01*
X376651Y299084D01*
Y299112D01*
X376234Y299131D01*
X376651Y299780D01*
Y299884D01*
X376718Y299885D01*
X376888Y300148D01*
X376901Y300098D01*
D02*
G37*
G36*
X349341Y301325D02*
X349343Y301169D01*
X349716D01*
X349645Y301162D01*
X349581Y301140D01*
X349525Y301104D01*
X349476Y301053D01*
X349435Y300987D01*
X349401Y300907D01*
X349375Y300813D01*
X349356Y300703D01*
X349349Y300628D01*
X349351Y300489D01*
X349363Y300483D01*
X349431Y300458D01*
X349504Y300437D01*
X349582Y300421D01*
X349665Y300409D01*
X349753Y300402D01*
X349846Y300400D01*
Y299600D01*
X349753Y299598D01*
X349665Y299591D01*
X349582Y299579D01*
X349504Y299563D01*
X349431Y299542D01*
X349363Y299517D01*
X349301Y299487D01*
X349243Y299453D01*
X349190Y299414D01*
X349143Y299370D01*
Y300399D01*
X349065Y300441D01*
X348541D01*
X348537Y300579D01*
X348526Y300703D01*
X348521Y300732D01*
X348266Y300869D01*
X348318Y300888D01*
X348365Y300916D01*
X348406Y300952D01*
X348442Y300996D01*
X348406Y301053D01*
X348357Y301104D01*
X348301Y301140D01*
X348237Y301162D01*
X348165Y301169D01*
X348513D01*
X348516Y301180D01*
X348530Y301258D01*
X348538Y301344D01*
X348541Y301439D01*
X349341Y301325D01*
D02*
G37*
G36*
X360839Y299704D02*
X360862Y299640D01*
X360903Y299584D01*
X360959Y299535D01*
X361031Y299494D01*
X361119Y299460D01*
X361223Y299434D01*
X361343Y299415D01*
X361478Y299404D01*
X361631Y299400D01*
Y298600D01*
X361478Y298596D01*
X361343Y298585D01*
X361223Y298566D01*
X361119Y298540D01*
X361031Y298506D01*
X360959Y298465D01*
X360903Y298416D01*
X360862Y298360D01*
X360839Y298296D01*
X360830Y298225D01*
Y299775D01*
X360839Y299704D01*
D02*
G37*
G36*
X369692D02*
X369701Y299640D01*
X369717Y299584D01*
X369739Y299535D01*
X369767Y299494D01*
X369801Y299460D01*
X369841Y299434D01*
X369888Y299415D01*
X369941Y299404D01*
X370000Y299400D01*
Y298600D01*
X369941Y298596D01*
X369888Y298585D01*
X369841Y298566D01*
X369801Y298540D01*
X369767Y298506D01*
X369739Y298465D01*
X369717Y298416D01*
X369701Y298360D01*
X369692Y298296D01*
X369689Y298225D01*
Y299775D01*
X369692Y299704D01*
D02*
G37*
G36*
X412190Y299026D02*
X412243Y298987D01*
X412301Y298953D01*
X412363Y298923D01*
X412431Y298898D01*
X412504Y298877D01*
X412582Y298861D01*
X412665Y298849D01*
X412753Y298842D01*
X412846Y298840D01*
Y298040D01*
X412753Y298038D01*
X412665Y298031D01*
X412582Y298019D01*
X412504Y298003D01*
X412431Y297983D01*
X412363Y297957D01*
X412301Y297927D01*
X412243Y297893D01*
X412190Y297854D01*
X412143Y297810D01*
Y299070D01*
X412190Y299026D01*
D02*
G37*
G36*
X398224Y298661D02*
X398156Y298637D01*
X398096Y298597D01*
X398044Y298540D01*
X398000Y298467D01*
X397964Y298377D01*
X397936Y298272D01*
X397916Y298150D01*
X397904Y298012D01*
X397900Y297858D01*
X397100D01*
X397096Y298012D01*
X397084Y298150D01*
X397064Y298272D01*
X397036Y298377D01*
X397000Y298467D01*
X396956Y298540D01*
X396904Y298597D01*
X396844Y298637D01*
X396776Y298661D01*
X396700Y298670D01*
X398300D01*
X398224Y298661D01*
D02*
G37*
G36*
X393264Y300551D02*
X393288Y300483D01*
X393329Y300423D01*
X393386Y300371D01*
X393459Y300327D01*
X393548Y300291D01*
X393653Y300263D01*
X393775Y300243D01*
X393913Y300231D01*
X394068Y300227D01*
Y299427D01*
X393913Y299423D01*
X393775Y299411D01*
X393653Y299391D01*
X393548Y299363D01*
X393459Y299327D01*
X393386Y299283D01*
X393329Y299231D01*
X393288Y299171D01*
X393264Y299103D01*
X393255Y299027D01*
Y300627D01*
X393264Y300551D01*
D02*
G37*
G36*
X404264D02*
X404288Y300483D01*
X404329Y300423D01*
X404386Y300371D01*
X404459Y300327D01*
X404548Y300291D01*
X404653Y300263D01*
X404775Y300243D01*
X404913Y300231D01*
X405067Y300227D01*
Y299427D01*
X404913Y299423D01*
X404775Y299411D01*
X404653Y299391D01*
X404548Y299363D01*
X404459Y299327D01*
X404386Y299283D01*
X404329Y299231D01*
X404288Y299171D01*
X404264Y299103D01*
X404255Y299027D01*
Y300627D01*
X404264Y300551D01*
D02*
G37*
G36*
X407233Y299027D02*
X407225Y299103D01*
X407200Y299171D01*
X407161Y299231D01*
X407104Y299283D01*
X407032Y299327D01*
X406945Y299363D01*
X406841Y299391D01*
X406720Y299411D01*
X406585Y299423D01*
X406432Y299427D01*
Y300227D01*
X406585Y300231D01*
X406720Y300243D01*
X406841Y300263D01*
X406945Y300291D01*
X407032Y300327D01*
X407104Y300371D01*
X407161Y300423D01*
X407200Y300483D01*
X407225Y300551D01*
X407233Y300627D01*
Y299027D01*
D02*
G37*
G36*
X396233D02*
X396224Y299103D01*
X396200Y299171D01*
X396161Y299231D01*
X396105Y299283D01*
X396033Y299327D01*
X395944Y299363D01*
X395841Y299391D01*
X395721Y299411D01*
X395585Y299423D01*
X395432Y299427D01*
Y300227D01*
X395585Y300231D01*
X395721Y300243D01*
X395841Y300263D01*
X395944Y300291D01*
X396033Y300327D01*
X396105Y300371D01*
X396161Y300423D01*
X396200Y300483D01*
X396224Y300551D01*
X396233Y300627D01*
Y299027D01*
D02*
G37*
G36*
X401732D02*
X401727Y299103D01*
X401710Y299171D01*
X401682Y299231D01*
X401643Y299283D01*
X401593Y299327D01*
X401531Y299363D01*
X401458Y299391D01*
X401375Y299411D01*
X401279Y299423D01*
X401173Y299427D01*
Y300227D01*
X401279Y300231D01*
X401375Y300243D01*
X401458Y300263D01*
X401531Y300291D01*
X401593Y300327D01*
X401643Y300371D01*
X401682Y300423D01*
X401710Y300483D01*
X401727Y300551D01*
X401732Y300627D01*
Y299027D01*
D02*
G37*
G36*
X428346Y305100D02*
X428194Y305092D01*
X428058Y305068D01*
X427938Y305028D01*
X427834Y304972D01*
X427746Y304900D01*
X427674Y304812D01*
X427618Y304708D01*
X427578Y304588D01*
X427573Y304561D01*
X427582Y304508D01*
X427610Y304402D01*
X427646Y304313D01*
X427690Y304240D01*
X427742Y304183D01*
X427802Y304142D01*
X427870Y304118D01*
X427946Y304110D01*
X426346D01*
X426422Y304118D01*
X426490Y304142D01*
X426550Y304183D01*
X426602Y304240D01*
X426646Y304313D01*
X426682Y304402D01*
X426710Y304508D01*
X426718Y304561D01*
X426714Y304588D01*
X426674Y304708D01*
X426618Y304812D01*
X426546Y304900D01*
X426458Y304972D01*
X426354Y305028D01*
X426234Y305068D01*
X426098Y305092D01*
X425946Y305100D01*
X427146Y305900D01*
X428346Y305100D01*
D02*
G37*
G36*
X423690Y305586D02*
X423743Y305547D01*
X423801Y305513D01*
X423864Y305483D01*
X423931Y305457D01*
X424004Y305437D01*
X424082Y305421D01*
X424165Y305409D01*
X424253Y305402D01*
X424346Y305400D01*
Y304600D01*
X424253Y304598D01*
X424165Y304591D01*
X424082Y304579D01*
X424004Y304563D01*
X423931Y304542D01*
X423864Y304517D01*
X423801Y304487D01*
X423743Y304453D01*
X423690Y304414D01*
X423643Y304370D01*
Y305630D01*
X423690Y305586D01*
D02*
G37*
G36*
X409764Y303897D02*
X409788Y303829D01*
X409829Y303769D01*
X409886Y303717D01*
X409959Y303673D01*
X410048Y303637D01*
X410153Y303609D01*
X410275Y303589D01*
X410413Y303577D01*
X410568Y303573D01*
Y302773D01*
X410413Y302769D01*
X410275Y302757D01*
X410153Y302737D01*
X410048Y302709D01*
X409959Y302673D01*
X409886Y302629D01*
X409829Y302577D01*
X409788Y302517D01*
X409764Y302449D01*
X409756Y302373D01*
Y303973D01*
X409764Y303897D01*
D02*
G37*
G36*
X341264Y304051D02*
X341288Y303983D01*
X341329Y303923D01*
X341386Y303871D01*
X341459Y303827D01*
X341548Y303791D01*
X341653Y303763D01*
X341775Y303743D01*
X341913Y303731D01*
X342068Y303727D01*
Y302927D01*
X341913Y302923D01*
X341775Y302911D01*
X341653Y302891D01*
X341548Y302863D01*
X341459Y302827D01*
X341386Y302783D01*
X341329Y302731D01*
X341288Y302671D01*
X341264Y302603D01*
X341255Y302527D01*
Y304127D01*
X341264Y304051D01*
D02*
G37*
G36*
X363551Y305236D02*
X363483Y305212D01*
X363423Y305171D01*
X363371Y305115D01*
X363327Y305042D01*
X363291Y304952D01*
X363263Y304847D01*
X363243Y304725D01*
X363231Y304587D01*
X363227Y304433D01*
X362427D01*
X362423Y304587D01*
X362411Y304725D01*
X362391Y304847D01*
X362363Y304952D01*
X362327Y305042D01*
X362283Y305115D01*
X362231Y305171D01*
X362171Y305212D01*
X362103Y305236D01*
X362027Y305244D01*
X363627D01*
X363551Y305236D01*
D02*
G37*
G36*
X346616Y307550D02*
X346455Y307383D01*
X346183Y307067D01*
X346073Y306917D01*
X345980Y306773D01*
X345903Y306634D01*
X345844Y306501D01*
X345801Y306374D01*
X345776Y306252D01*
X345767Y306136D01*
Y307842D01*
X345773Y307846D01*
X345790Y307862D01*
X346333Y308399D01*
X346616Y307550D01*
D02*
G37*
G36*
X349687Y307586D02*
X349770Y307513D01*
X349808Y307483D01*
X349845Y307457D01*
X349880Y307437D01*
X349913Y307421D01*
X349943Y307409D01*
X349973Y307402D01*
X350000Y307400D01*
Y306600D01*
X349973Y306598D01*
X349943Y306591D01*
X349913Y306579D01*
X349880Y306563D01*
X349845Y306542D01*
X349808Y306517D01*
X349770Y306487D01*
X349687Y306414D01*
X349643Y306370D01*
Y307630D01*
X349687Y307586D01*
D02*
G37*
G36*
X358898Y305671D02*
X358965Y305613D01*
X359032Y305563D01*
X359099Y305519D01*
X359165Y305482D01*
X359231Y305452D01*
X359296Y305429D01*
X359362Y305412D01*
X359426Y305403D01*
X359491Y305400D01*
X358600Y304509D01*
X358597Y304574D01*
X358588Y304639D01*
X358571Y304704D01*
X358548Y304769D01*
X358518Y304835D01*
X358481Y304901D01*
X358437Y304968D01*
X358387Y305034D01*
X358329Y305102D01*
X358265Y305169D01*
X358831Y305735D01*
X358898Y305671D01*
D02*
G37*
G36*
X363303Y306586D02*
X363287Y306535D01*
X363273Y306480D01*
X363250Y306351D01*
X363242Y306278D01*
X363228Y306025D01*
X363227Y305929D01*
X362427Y305563D01*
X362424Y305657D01*
X362416Y305744D01*
X362402Y305823D01*
X362382Y305895D01*
X362357Y305960D01*
X362326Y306017D01*
X362289Y306067D01*
X362247Y306110D01*
X362200Y306145D01*
X362146Y306172D01*
X363320Y306630D01*
X363303Y306586D01*
D02*
G37*
G36*
X368653Y300787D02*
X368585Y300763D01*
X368525Y300723D01*
X368473Y300666D01*
X368429Y300593D01*
X368393Y300503D01*
X368365Y300398D01*
X368346Y300279D01*
X368365Y300161D01*
X368393Y300056D01*
X368429Y299966D01*
X368473Y299893D01*
X368525Y299836D01*
X368585Y299796D01*
X368653Y299771D01*
X368729Y299763D01*
X367129D01*
X367205Y299771D01*
X367273Y299796D01*
X367333Y299836D01*
X367385Y299893D01*
X367429Y299966D01*
X367465Y300056D01*
X367493Y300161D01*
X367513Y300279D01*
X367493Y300398D01*
X367465Y300503D01*
X367429Y300593D01*
X367385Y300666D01*
X367333Y300723D01*
X367273Y300763D01*
X367205Y300787D01*
X367129Y300796D01*
X368729D01*
X368653Y300787D01*
D02*
G37*
G36*
X357311Y300784D02*
X357304Y300855D01*
X357283Y300919D01*
X357249Y300975D01*
X357201Y301024D01*
X357138Y301065D01*
X357062Y301099D01*
X356972Y301125D01*
X356868Y301144D01*
X356751Y301155D01*
X356619Y301159D01*
Y301959D01*
X356751Y301963D01*
X356868Y301974D01*
X356972Y301993D01*
X357062Y302019D01*
X357138Y302053D01*
X357201Y302094D01*
X357249Y302143D01*
X357283Y302199D01*
X357304Y302263D01*
X357311Y302334D01*
Y300784D01*
D02*
G37*
G36*
X371732Y299373D02*
X371727Y299449D01*
X371710Y299517D01*
X371682Y299577D01*
X371643Y299629D01*
X371593Y299673D01*
X371531Y299709D01*
X371458Y299737D01*
X371375Y299757D01*
X371280Y299769D01*
X371173Y299773D01*
Y300573D01*
X371280Y300577D01*
X371375Y300589D01*
X371458Y300609D01*
X371531Y300637D01*
X371593Y300673D01*
X371643Y300717D01*
X371682Y300769D01*
X371710Y300829D01*
X371727Y300897D01*
X371732Y300973D01*
Y299373D01*
D02*
G37*
G36*
X422402Y300253D02*
X422409Y300165D01*
X422421Y300082D01*
X422437Y300004D01*
X422458Y299931D01*
X422483Y299864D01*
X422513Y299801D01*
X422547Y299743D01*
X422586Y299690D01*
X422630Y299643D01*
X421370D01*
X421414Y299690D01*
X421453Y299743D01*
X421487Y299801D01*
X421517Y299864D01*
X421543Y299931D01*
X421563Y300004D01*
X421579Y300082D01*
X421591Y300165D01*
X421598Y300253D01*
X421600Y300346D01*
X422400D01*
X422402Y300253D01*
D02*
G37*
G36*
X379006Y302588D02*
X379018Y302450D01*
X379024Y302413D01*
X379199Y302433D01*
X379162Y302382D01*
X379128Y302327D01*
X379099Y302267D01*
X379074Y302204D01*
X379102Y302133D01*
X379146Y302060D01*
X379198Y302003D01*
X379258Y301963D01*
X379326Y301938D01*
X379402Y301930D01*
X379014D01*
X379010Y301895D01*
X379002Y301713D01*
X378202Y301611D01*
X378200Y301704D01*
X378192Y301792D01*
X378179Y301874D01*
X378166Y301930D01*
X377802D01*
X377878Y301938D01*
X377946Y301963D01*
X378006Y302003D01*
X378058Y302060D01*
X378093Y302117D01*
X378077Y302145D01*
X378039Y302199D01*
X377996Y302247D01*
X377947Y302290D01*
X378163Y302314D01*
X378166Y302328D01*
X378186Y302450D01*
X378198Y302588D01*
X378202Y302742D01*
X379002D01*
X379006Y302588D01*
D02*
G37*
G36*
X418517Y303086D02*
X418570Y303047D01*
X418628Y303013D01*
X418690Y302983D01*
X418758Y302958D01*
X418831Y302937D01*
X418909Y302921D01*
X418992Y302909D01*
X419080Y302902D01*
X419173Y302900D01*
X419173Y302100D01*
X419080Y302098D01*
X418992Y302091D01*
X418909Y302079D01*
X418831Y302063D01*
X418758Y302043D01*
X418690Y302017D01*
X418628Y301987D01*
X418570Y301953D01*
X418517Y301914D01*
X418469Y301870D01*
X418469Y303130D01*
X418517Y303086D01*
D02*
G37*
G36*
X398761Y303897D02*
X398778Y303829D01*
X398807Y303769D01*
X398847Y303717D01*
X398898Y303673D01*
X398961Y303637D01*
X399035Y303609D01*
X399121Y303589D01*
X399218Y303577D01*
X399327Y303573D01*
Y302773D01*
X399218Y302769D01*
X399121Y302757D01*
X399035Y302737D01*
X398961Y302709D01*
X398898Y302673D01*
X398847Y302629D01*
X398807Y302577D01*
X398778Y302517D01*
X398761Y302449D01*
X398756Y302373D01*
Y303973D01*
X398761Y303897D01*
D02*
G37*
G36*
X413402Y301973D02*
X413409Y301943D01*
X413421Y301912D01*
X413437Y301880D01*
X413457Y301845D01*
X413483Y301808D01*
X413513Y301770D01*
X413586Y301687D01*
X413630Y301643D01*
X412370D01*
X412414Y301687D01*
X412487Y301770D01*
X412517Y301808D01*
X412542Y301845D01*
X412563Y301880D01*
X412579Y301912D01*
X412591Y301943D01*
X412598Y301973D01*
X412600Y302000D01*
X413400D01*
X413402Y301973D01*
D02*
G37*
G36*
X419807Y303224D02*
X419831Y303156D01*
X419872Y303096D01*
X419929Y303044D01*
X420002Y303000D01*
X420091Y302964D01*
X420197Y302936D01*
X420319Y302916D01*
X420457Y302904D01*
X420611Y302900D01*
Y302100D01*
X420457Y302096D01*
X420319Y302084D01*
X420197Y302064D01*
X420091Y302036D01*
X420002Y302000D01*
X419929Y301956D01*
X419872Y301904D01*
X419831Y301844D01*
X419807Y301776D01*
X419799Y301700D01*
Y303300D01*
X419807Y303224D01*
D02*
G37*
G36*
X376690Y291586D02*
X376743Y291547D01*
X376801Y291513D01*
X376864Y291483D01*
X376931Y291458D01*
X377004Y291437D01*
X377082Y291421D01*
X377165Y291409D01*
X377253Y291402D01*
X377346Y291400D01*
Y290600D01*
X377253Y290598D01*
X377165Y290591D01*
X377082Y290579D01*
X377004Y290563D01*
X376931Y290543D01*
X376864Y290517D01*
X376801Y290487D01*
X376743Y290453D01*
X376690Y290414D01*
X376643Y290370D01*
Y291630D01*
X376690Y291586D01*
D02*
G37*
G36*
X349645Y292303D02*
X349581Y292279D01*
X349525Y292239D01*
X349476Y292183D01*
X349435Y292111D01*
X349401Y292023D01*
X349375Y291919D01*
X349356Y291799D01*
X349345Y291663D01*
X349341Y291511D01*
X348541D01*
X348537Y291663D01*
X348526Y291799D01*
X348507Y291919D01*
X348481Y292023D01*
X348447Y292111D01*
X348406Y292183D01*
X348357Y292239D01*
X348301Y292279D01*
X348237Y292303D01*
X348165Y292311D01*
X349716D01*
X349645Y292303D01*
D02*
G37*
G36*
X431338Y291346D02*
X431376Y291299D01*
X431388Y291288D01*
X431425Y291325D01*
X431462Y291372D01*
Y291228D01*
X431473Y291221D01*
X431532Y291190D01*
X431598Y291165D01*
X431671Y291146D01*
X431751Y291132D01*
X431838Y291123D01*
X431932Y291121D01*
X431630Y290320D01*
X431535Y290319D01*
X431462Y290314D01*
Y290069D01*
X431425Y290116D01*
X431381Y290159D01*
X431330Y290197D01*
X431272Y290230D01*
X431207Y290258D01*
X431145Y290277D01*
X431076Y290262D01*
X431017Y290244D01*
X430964Y290224D01*
X430915Y290201D01*
X430951Y290312D01*
X430879Y290318D01*
X430780Y290320D01*
Y291121D01*
X430879Y291123D01*
X430971Y291131D01*
X431057Y291143D01*
X431136Y291161D01*
X431207Y291183D01*
X431241Y291198D01*
X431307Y291399D01*
X431338Y291346D01*
D02*
G37*
G36*
X371357Y290370D02*
X371310Y290414D01*
X371257Y290453D01*
X371199Y290487D01*
X371136Y290517D01*
X371069Y290543D01*
X370996Y290563D01*
X370918Y290579D01*
X370835Y290591D01*
X370747Y290598D01*
X370654Y290600D01*
Y291400D01*
X370747Y291402D01*
X370835Y291409D01*
X370918Y291421D01*
X370996Y291437D01*
X371069Y291458D01*
X371136Y291483D01*
X371199Y291513D01*
X371257Y291547D01*
X371310Y291586D01*
X371357Y291630D01*
Y290370D01*
D02*
G37*
G36*
X354763Y292303D02*
X354699Y292279D01*
X354643Y292239D01*
X354594Y292183D01*
X354553Y292111D01*
X354519Y292023D01*
X354493Y291919D01*
X354474Y291799D01*
X354463Y291663D01*
X354459Y291511D01*
X353659D01*
X353655Y291663D01*
X353644Y291799D01*
X353625Y291919D01*
X353599Y292023D01*
X353565Y292111D01*
X353524Y292183D01*
X353475Y292239D01*
X353419Y292279D01*
X353355Y292303D01*
X353284Y292311D01*
X354835D01*
X354763Y292303D01*
D02*
G37*
G36*
X417086Y295810D02*
X417047Y295757D01*
X417013Y295699D01*
X416983Y295637D01*
X416958Y295569D01*
X416937Y295496D01*
X416921Y295418D01*
X416909Y295335D01*
X416903Y295262D01*
X416908Y295177D01*
X416932Y295040D01*
X416972Y294920D01*
X417028Y294816D01*
X417100Y294728D01*
X417188Y294656D01*
X417292Y294601D01*
X417412Y294561D01*
X417548Y294536D01*
X417700Y294529D01*
Y293728D01*
X417548Y293721D01*
X417412Y293696D01*
X417292Y293656D01*
X417188Y293601D01*
X417100Y293529D01*
X417058Y293477D01*
X417144Y293311D01*
X417252Y293138D01*
X417379Y292962D01*
X417526Y292781D01*
X417878Y292406D01*
X415122D01*
X415308Y292595D01*
X415621Y292962D01*
X415748Y293138D01*
X415856Y293311D01*
X415943Y293479D01*
X416012Y293643D01*
X416061Y293802D01*
X416090Y293958D01*
X416100Y294109D01*
X416113D01*
X416100Y294128D01*
X416784Y295154D01*
X416100D01*
X416098Y295247D01*
X416091Y295335D01*
X416079Y295418D01*
X416063Y295496D01*
X416043Y295569D01*
X416017Y295637D01*
X415987Y295699D01*
X415953Y295757D01*
X415914Y295810D01*
X415870Y295857D01*
X417130D01*
X417086Y295810D01*
D02*
G37*
G36*
X424577Y293884D02*
X424628Y293841D01*
X424690Y293803D01*
X424764Y293770D01*
X424849Y293742D01*
X424945Y293720D01*
X425053Y293702D01*
X425173Y293690D01*
X425446Y293679D01*
Y292880D01*
X425303Y292877D01*
X425053Y292857D01*
X424945Y292839D01*
X424849Y292816D01*
X424764Y292789D01*
X424690Y292756D01*
X424628Y292718D01*
X424577Y292675D01*
X424538Y292628D01*
Y293932D01*
X424577Y293884D01*
D02*
G37*
G36*
X437745Y292027D02*
X437739Y292103D01*
X437722Y292171D01*
X437693Y292231D01*
X437653Y292283D01*
X437602Y292327D01*
X437539Y292363D01*
X437465Y292391D01*
X437379Y292411D01*
X437282Y292423D01*
X437173Y292427D01*
Y293227D01*
X437282Y293231D01*
X437379Y293243D01*
X437465Y293263D01*
X437539Y293291D01*
X437602Y293327D01*
X437653Y293371D01*
X437693Y293423D01*
X437722Y293483D01*
X437739Y293551D01*
X437745Y293627D01*
Y292027D01*
D02*
G37*
G36*
X404586Y292810D02*
X404547Y292757D01*
X404513Y292699D01*
X404483Y292636D01*
X404458Y292569D01*
X404437Y292496D01*
X404421Y292418D01*
X404409Y292335D01*
X404402Y292247D01*
X404400Y292154D01*
X403600D01*
X403598Y292247D01*
X403591Y292335D01*
X403579Y292418D01*
X403563Y292496D01*
X403543Y292569D01*
X403517Y292636D01*
X403487Y292699D01*
X403453Y292757D01*
X403414Y292810D01*
X403370Y292857D01*
X404630D01*
X404586Y292810D01*
D02*
G37*
G36*
X423158Y280732D02*
X423146Y280831D01*
X423111Y280919D01*
X423054Y280996D01*
X422972Y281064D01*
X422868Y281121D01*
X422741Y281167D01*
X422590Y281203D01*
X422417Y281229D01*
X422220Y281245D01*
X422000Y281250D01*
Y282750D01*
X422220Y282755D01*
X422417Y282771D01*
X422590Y282797D01*
X422741Y282833D01*
X422868Y282879D01*
X422972Y282936D01*
X423054Y283004D01*
X423111Y283081D01*
X423146Y283169D01*
X423158Y283267D01*
Y280732D01*
D02*
G37*
G36*
X366192Y283406D02*
X365879Y283048D01*
X365752Y282879D01*
X365645Y282716D01*
X365557Y282560D01*
X365488Y282410D01*
X365439Y282267D01*
X365410Y282130D01*
X365400Y282000D01*
X364600D01*
X364590Y282130D01*
X364561Y282267D01*
X364512Y282410D01*
X364443Y282560D01*
X364355Y282716D01*
X364248Y282879D01*
X364121Y283048D01*
X363808Y283406D01*
X363622Y283594D01*
X366378D01*
X366192Y283406D01*
D02*
G37*
G36*
X417692Y279405D02*
X417379Y279038D01*
X417252Y278862D01*
X417144Y278689D01*
X417057Y278521D01*
X416988Y278357D01*
X416939Y278198D01*
X416910Y278042D01*
X416900Y277891D01*
X416100D01*
X416090Y278042D01*
X416061Y278198D01*
X416012Y278357D01*
X415943Y278521D01*
X415856Y278689D01*
X415748Y278862D01*
X415621Y279038D01*
X415474Y279219D01*
X415122Y279594D01*
X417878D01*
X417692Y279405D01*
D02*
G37*
G36*
X412100Y278085D02*
X412275Y278108D01*
X412997Y278407D01*
X413617Y278883D01*
X413836Y279168D01*
D01*
D01*
X414466Y279168D01*
X414554Y279054D01*
X414598Y279020D01*
X414890Y278710D01*
X415005Y278568D01*
X415104Y278430D01*
X415183Y278304D01*
X415241Y278191D01*
X415282Y278094D01*
X415307Y278012D01*
X415317Y277960D01*
Y277183D01*
X408990D01*
X408843Y277330D01*
Y278765D01*
X409343Y278935D01*
X409383Y278883D01*
X410003Y278407D01*
X410725Y278108D01*
X410900Y278085D01*
Y281000D01*
X412100D01*
Y278085D01*
D02*
G37*
G36*
X425081Y283720D02*
X425094Y283625D01*
X425114Y283542D01*
X425144Y283469D01*
X425181Y283407D01*
X425228Y283357D01*
X425282Y283318D01*
X425345Y283290D01*
X425416Y283273D01*
X425496Y283267D01*
X423158D01*
X423237Y283273D01*
X423309Y283290D01*
X423371Y283318D01*
X423426Y283357D01*
X423472Y283407D01*
X423510Y283469D01*
X423539Y283542D01*
X423560Y283625D01*
X423573Y283720D01*
X423577Y283827D01*
X425077D01*
X425081Y283720D01*
D02*
G37*
G36*
X352690Y291086D02*
X352743Y291047D01*
X352801Y291013D01*
X352864Y290983D01*
X352931Y290957D01*
X353004Y290937D01*
X353082Y290921D01*
X353165Y290909D01*
X353253Y290902D01*
X353346Y290900D01*
Y290100D01*
X353253Y290098D01*
X353165Y290091D01*
X353082Y290079D01*
X353004Y290063D01*
X352931Y290042D01*
X352864Y290017D01*
X352801Y289987D01*
X352743Y289953D01*
X352690Y289914D01*
X352643Y289870D01*
Y291130D01*
X352690Y291086D01*
D02*
G37*
G36*
X424577Y291325D02*
X424628Y291282D01*
X424690Y291244D01*
X424764Y291211D01*
X424849Y291183D01*
X424945Y291161D01*
X425053Y291143D01*
X425173Y291131D01*
X425446Y291121D01*
Y290320D01*
X425303Y290318D01*
X425053Y290298D01*
X424945Y290280D01*
X424849Y290258D01*
X424764Y290230D01*
X424690Y290197D01*
X424628Y290159D01*
X424577Y290116D01*
X424538Y290069D01*
Y291372D01*
X424577Y291325D01*
D02*
G37*
G36*
X418027Y287259D02*
X418263Y287058D01*
X418376Y286976D01*
X418487Y286907D01*
X418595Y286851D01*
X418701Y286807D01*
X418803Y286775D01*
X418903Y286756D01*
X419000Y286750D01*
Y285250D01*
X418903Y285244D01*
X418803Y285225D01*
X418701Y285193D01*
X418595Y285150D01*
X418487Y285093D01*
X418376Y285024D01*
X418263Y284942D01*
X418147Y284848D01*
X417906Y284622D01*
Y287378D01*
X418027Y287259D01*
D02*
G37*
G36*
X431462Y288579D02*
X431477Y288577D01*
X431650Y288563D01*
X431743Y288561D01*
X431908Y287761D01*
X431814Y287759D01*
X431727Y287751D01*
X431645Y287737D01*
X431570Y287719D01*
X431501Y287695D01*
X431462Y287677D01*
Y287509D01*
X431424Y287557D01*
X431376Y287600D01*
X431357Y287613D01*
X431329Y287591D01*
X431284Y287546D01*
X431245Y287495D01*
X431211Y287686D01*
X431178Y287698D01*
X431093Y287721D01*
X430999Y287739D01*
X430896Y287751D01*
X430783Y287759D01*
X430661Y287761D01*
Y288561D01*
X430783Y288564D01*
X430999Y288584D01*
X431045Y288593D01*
X431019Y288735D01*
X431071Y288702D01*
X431127Y288673D01*
X431188Y288647D01*
X431214Y288638D01*
X431253Y288652D01*
X431319Y288685D01*
X431376Y288723D01*
X431424Y288766D01*
X431462Y288813D01*
Y288579D01*
D02*
G37*
G36*
X435993Y293884D02*
X436040Y293841D01*
X436095Y293803D01*
X436158Y293770D01*
X436231Y293742D01*
X436311Y293720D01*
X436401Y293702D01*
X436499Y293690D01*
X436605Y293682D01*
X436721Y293679D01*
Y292880D01*
X436605Y292877D01*
X436401Y292857D01*
X436311Y292839D01*
X436231Y292816D01*
X436158Y292789D01*
X436095Y292756D01*
X436040Y292718D01*
X435993Y292675D01*
X435955Y292628D01*
Y293932D01*
X435993Y293884D01*
D02*
G37*
G36*
X392231Y296220D02*
X392243Y296125D01*
X392263Y296042D01*
X392291Y295969D01*
X392327Y295907D01*
X392371Y295857D01*
X392423Y295818D01*
X392483Y295790D01*
X392551Y295773D01*
X392627Y295767D01*
X391027D01*
X391103Y295773D01*
X391171Y295790D01*
X391231Y295818D01*
X391283Y295857D01*
X391327Y295907D01*
X391363Y295969D01*
X391391Y296042D01*
X391411Y296125D01*
X391423Y296220D01*
X391427Y296327D01*
X392227D01*
X392231Y296220D01*
D02*
G37*
G36*
X351904Y296373D02*
X351915Y296259D01*
X351934Y296159D01*
X351960Y296072D01*
X351994Y295998D01*
X352035Y295938D01*
X352084Y295891D01*
X352140Y295857D01*
X352204Y295837D01*
X352275Y295830D01*
X350725D01*
X350796Y295837D01*
X350860Y295857D01*
X350916Y295891D01*
X350965Y295938D01*
X351006Y295998D01*
X351040Y296072D01*
X351066Y296159D01*
X351085Y296259D01*
X351096Y296373D01*
X351100Y296500D01*
X351900D01*
X351904Y296373D01*
D02*
G37*
G36*
X360839Y297145D02*
X360862Y297081D01*
X360903Y297025D01*
X360959Y296976D01*
X361031Y296935D01*
X361119Y296901D01*
X361223Y296875D01*
X361343Y296856D01*
X361478Y296845D01*
X361631Y296841D01*
Y296041D01*
X361478Y296037D01*
X361343Y296026D01*
X361223Y296007D01*
X361119Y295981D01*
X361031Y295947D01*
X360959Y295906D01*
X360903Y295857D01*
X360862Y295801D01*
X360839Y295737D01*
X360830Y295666D01*
Y297216D01*
X360839Y297145D01*
D02*
G37*
G36*
X369686Y297094D02*
X369710Y297026D01*
X369751Y296966D01*
X369808Y296914D01*
X369881Y296870D01*
X369971Y296834D01*
X370076Y296806D01*
X370198Y296786D01*
X370335Y296774D01*
X370489Y296770D01*
Y295970D01*
X370337Y295967D01*
X370081Y295943D01*
X369977Y295921D01*
X369889Y295894D01*
X369817Y295860D01*
X369761Y295821D01*
X369721Y295775D01*
X369697Y295723D01*
X369689Y295666D01*
X369677Y297170D01*
X369686Y297094D01*
D02*
G37*
G36*
X374264Y297551D02*
X374288Y297483D01*
X374329Y297423D01*
X374385Y297371D01*
X374459Y297327D01*
X374548Y297291D01*
X374653Y297263D01*
X374775Y297243D01*
X374913Y297231D01*
X375067Y297227D01*
Y296427D01*
X374913Y296423D01*
X374775Y296411D01*
X374653Y296391D01*
X374548Y296363D01*
X374459Y296327D01*
X374385Y296283D01*
X374329Y296231D01*
X374288Y296171D01*
X374264Y296103D01*
X374255Y296027D01*
Y297627D01*
X374264Y297551D01*
D02*
G37*
G36*
X412086Y297750D02*
X412047Y297697D01*
X412013Y297639D01*
X411983Y297576D01*
X411958Y297509D01*
X411937Y297436D01*
X411921Y297358D01*
X411909Y297275D01*
X411902Y297187D01*
X411900Y297094D01*
X411100D01*
X411098Y297187D01*
X411091Y297275D01*
X411079Y297358D01*
X411063Y297436D01*
X411042Y297509D01*
X411017Y297576D01*
X410987Y297639D01*
X410953Y297697D01*
X410914Y297750D01*
X410870Y297797D01*
X412130D01*
X412086Y297750D01*
D02*
G37*
G36*
X343245Y297596D02*
X343255Y297594D01*
X343338Y297582D01*
X343426Y297575D01*
X343519Y297573D01*
Y296773D01*
X343426Y296771D01*
X343338Y296764D01*
X343255Y296753D01*
X343245Y296750D01*
Y296373D01*
X343236Y296449D01*
X343212Y296517D01*
X343171Y296577D01*
X343114Y296629D01*
X343041Y296673D01*
X343019Y296682D01*
X342974Y296660D01*
X342916Y296626D01*
X342864Y296587D01*
X342816Y296543D01*
Y296742D01*
X342725Y296757D01*
X342587Y296769D01*
X342432Y296773D01*
Y297573D01*
X342587Y297577D01*
X342725Y297589D01*
X342816Y297604D01*
Y297803D01*
X342864Y297760D01*
X342916Y297720D01*
X342974Y297686D01*
X343019Y297664D01*
X343041Y297673D01*
X343114Y297717D01*
X343171Y297769D01*
X343212Y297829D01*
X343236Y297897D01*
X343245Y297973D01*
Y297596D01*
D02*
G37*
G36*
X345776Y297897D02*
X345799Y297829D01*
X345840Y297769D01*
X345896Y297717D01*
X345968Y297673D01*
X346056Y297637D01*
X346160Y297609D01*
X346280Y297589D01*
X346415Y297577D01*
X346568Y297573D01*
Y296773D01*
X346415Y296769D01*
X346280Y296757D01*
X346160Y296737D01*
X346056Y296709D01*
X345968Y296673D01*
X345896Y296629D01*
X345840Y296577D01*
X345799Y296517D01*
X345776Y296449D01*
X345767Y296373D01*
Y297973D01*
X345776Y297897D01*
D02*
G37*
G36*
X377529Y297063D02*
X377506Y297073D01*
X377469Y297082D01*
X377417Y297090D01*
X377271Y297103D01*
X376804Y297115D01*
X376651Y297116D01*
Y297916D01*
X376804Y297916D01*
X377506Y297958D01*
X377529Y297968D01*
Y297063D01*
D02*
G37*
G36*
X354831Y294724D02*
X354855Y294656D01*
X354895Y294596D01*
X354952Y294544D01*
X355026Y294500D01*
X355115Y294464D01*
X355220Y294436D01*
X355342Y294416D01*
X355480Y294404D01*
X355634Y294400D01*
Y293600D01*
X355480Y293596D01*
X355342Y293584D01*
X355220Y293564D01*
X355115Y293536D01*
X355026Y293500D01*
X354952Y293456D01*
X354895Y293404D01*
X354855Y293344D01*
X354831Y293276D01*
X354822Y293200D01*
Y294800D01*
X354831Y294724D01*
D02*
G37*
G36*
X360857Y293370D02*
X360810Y293414D01*
X360757Y293453D01*
X360699Y293487D01*
X360636Y293517D01*
X360569Y293543D01*
X360496Y293563D01*
X360418Y293579D01*
X360335Y293591D01*
X360247Y293598D01*
X360154Y293600D01*
Y294400D01*
X360247Y294402D01*
X360335Y294409D01*
X360418Y294421D01*
X360496Y294437D01*
X360569Y294458D01*
X360636Y294483D01*
X360699Y294513D01*
X360757Y294547D01*
X360810Y294586D01*
X360857Y294630D01*
Y293370D01*
D02*
G37*
G36*
X419963Y292751D02*
X419956Y292775D01*
X419945Y292797D01*
X419930Y292816D01*
X419912Y292833D01*
X419889Y292847D01*
X419863Y292859D01*
X419833Y292868D01*
X419800Y292874D01*
X419762Y292878D01*
X419721Y292880D01*
Y293679D01*
X419762Y293681D01*
X419800Y293685D01*
X419833Y293691D01*
X419863Y293700D01*
X419889Y293712D01*
X419912Y293726D01*
X419930Y293743D01*
X419945Y293762D01*
X419956Y293784D01*
X419963Y293809D01*
Y292751D01*
D02*
G37*
G36*
X411904Y293602D02*
X411916Y293464D01*
X411936Y293342D01*
X411964Y293237D01*
X412000Y293147D01*
X412044Y293074D01*
X412096Y293018D01*
X412156Y292977D01*
X412224Y292953D01*
X412300Y292945D01*
X410700D01*
X410776Y292953D01*
X410844Y292977D01*
X410904Y293018D01*
X410956Y293074D01*
X411000Y293147D01*
X411036Y293237D01*
X411064Y293342D01*
X411084Y293464D01*
X411096Y293602D01*
X411100Y293757D01*
X411900D01*
X411904Y293602D01*
D02*
G37*
G36*
X390670Y293700D02*
X390663Y293776D01*
X390643Y293844D01*
X390609Y293904D01*
X390563Y293956D01*
X390502Y294000D01*
X390429Y294036D01*
X390341Y294064D01*
X390241Y294084D01*
X390127Y294096D01*
X390000Y294100D01*
Y294900D01*
X390127Y294904D01*
X390241Y294916D01*
X390341Y294936D01*
X390429Y294964D01*
X390502Y295000D01*
X390563Y295044D01*
X390609Y295096D01*
X390643Y295156D01*
X390663Y295224D01*
X390670Y295300D01*
Y293700D01*
D02*
G37*
G36*
X387494Y295990D02*
X387531Y295981D01*
X387583Y295973D01*
X387730Y295960D01*
X388196Y295948D01*
X388349Y295947D01*
Y295147D01*
X388196Y295147D01*
X387494Y295105D01*
X387471Y295095D01*
Y296000D01*
X387494Y295990D01*
D02*
G37*
G36*
X420045Y295187D02*
X420006Y295234D01*
X419956Y295277D01*
X419895Y295315D01*
X419823Y295348D01*
X419740Y295376D01*
X419646Y295398D01*
X419541Y295416D01*
X419426Y295428D01*
X419161Y295439D01*
Y296239D01*
X419299Y296241D01*
X419541Y296261D01*
X419646Y296279D01*
X419740Y296302D01*
X419823Y296329D01*
X419895Y296362D01*
X419956Y296400D01*
X420006Y296443D01*
X420045Y296491D01*
Y295187D01*
D02*
G37*
G36*
X446000Y313000D02*
Y306000D01*
Y300000D01*
X445000Y299000D01*
X443500Y297500D01*
X442000D01*
Y296725D01*
X442000Y296725D01*
X442000D01*
Y295460D01*
X441752Y295057D01*
X441628Y295041D01*
X441487Y294994D01*
X441346Y294948D01*
X441346Y294948D01*
X441167Y294847D01*
X441040Y294768D01*
X436961D01*
Y294633D01*
X436460Y294522D01*
X436334Y294607D01*
X436332Y294609D01*
X436331Y294609D01*
X436133Y294741D01*
X435687Y294830D01*
X432098D01*
X431710Y294871D01*
X431500Y295293D01*
Y296512D01*
X431586Y296570D01*
X431807Y296614D01*
X435237D01*
X435323Y296631D01*
X435410Y296633D01*
X435868Y296738D01*
X435899Y296752D01*
X435934Y296756D01*
X435964Y296773D01*
X436022Y296784D01*
X436124Y296852D01*
X436144Y296861D01*
X436155Y296873D01*
X436273Y296952D01*
X436441Y297203D01*
X436500Y297500D01*
Y301500D01*
X440000D01*
X440500Y302000D01*
Y305500D01*
Y313000D01*
X441000Y313500D01*
X445500D01*
X446000Y313000D01*
D02*
G37*
G36*
X392413Y295636D02*
X392374Y295584D01*
X392339Y295526D01*
X392310Y295463D01*
X392284Y295395D01*
X392264Y295323D01*
X392248Y295245D01*
X392236Y295162D01*
X392229Y295074D01*
X392227Y294981D01*
X391427D01*
X391424Y295074D01*
X391418Y295162D01*
X391406Y295245D01*
X391390Y295323D01*
X391369Y295395D01*
X391344Y295463D01*
X391314Y295526D01*
X391280Y295584D01*
X391241Y295636D01*
X391197Y295684D01*
X392457D01*
X392413Y295636D01*
D02*
G37*
G36*
X352252Y307013D02*
X352325Y306979D01*
X353103Y306201D01*
X352896Y305701D01*
X352100D01*
Y302929D01*
X350900D01*
Y306021D01*
X350890Y306044D01*
X350873Y306201D01*
X350925Y306252D01*
X351212Y306539D01*
D01*
X351663Y306990D01*
X351800Y307031D01*
X352252Y307013D01*
D02*
G37*
G36*
X359307Y331239D02*
X359247Y331222D01*
X359195Y331193D01*
X359149Y331153D01*
X359111Y331102D01*
X359079Y331039D01*
X359055Y330965D01*
X359037Y330879D01*
X359027Y330782D01*
X359023Y330673D01*
X358323D01*
X358320Y330782D01*
X358309Y330879D01*
X358292Y330965D01*
X358267Y331039D01*
X358236Y331102D01*
X358197Y331153D01*
X358152Y331193D01*
X358099Y331222D01*
X358040Y331239D01*
X357973Y331244D01*
X359373D01*
X359307Y331239D01*
D02*
G37*
G36*
X364731Y333094D02*
X364743Y333023D01*
X364763Y332960D01*
X364791Y332906D01*
X364827Y332860D01*
X364871Y332822D01*
X364923Y332793D01*
X364983Y332772D01*
X365051Y332760D01*
X365127Y332755D01*
X363527D01*
X363603Y332760D01*
X363671Y332772D01*
X363731Y332793D01*
X363783Y332822D01*
X363827Y332860D01*
X363863Y332906D01*
X363891Y332960D01*
X363911Y333023D01*
X363923Y333094D01*
X363927Y333173D01*
X364727D01*
X364731Y333094D01*
D02*
G37*
G36*
X355913Y331810D02*
X355874Y331757D01*
X355839Y331699D01*
X355810Y331637D01*
X355784Y331569D01*
X355764Y331496D01*
X355748Y331418D01*
X355736Y331335D01*
X355729Y331247D01*
X355729Y331244D01*
X356127D01*
X356051Y331236D01*
X355983Y331212D01*
X355923Y331171D01*
X355871Y331115D01*
X355827Y331042D01*
X355791Y330952D01*
X355763Y330847D01*
X355743Y330725D01*
X355731Y330587D01*
X355727Y330433D01*
X354927D01*
X354923Y330587D01*
X354911Y330725D01*
X354891Y330847D01*
X354863Y330952D01*
X354827Y331042D01*
X354783Y331115D01*
X354731Y331171D01*
X354671Y331212D01*
X354603Y331236D01*
X354527Y331244D01*
X354925D01*
X354925Y331247D01*
X354918Y331335D01*
X354906Y331418D01*
X354890Y331496D01*
X354869Y331569D01*
X354844Y331637D01*
X354814Y331699D01*
X354780Y331757D01*
X354741Y331810D01*
X354697Y331857D01*
X355957D01*
X355913Y331810D01*
D02*
G37*
G36*
X341778Y331828D02*
X341756Y331791D01*
X341737Y331746D01*
X341720Y331693D01*
X341706Y331632D01*
X341694Y331564D01*
X341678Y331403D01*
X341674Y331311D01*
X341673Y331233D01*
X342173D01*
X342078Y331223D01*
X341993Y331196D01*
X341918Y331151D01*
X341853Y331088D01*
X341798Y331006D01*
X341753Y330906D01*
X341718Y330789D01*
X341693Y330653D01*
X341678Y330499D01*
X341673Y330327D01*
X340673D01*
X340668Y330499D01*
X340653Y330653D01*
X340628Y330789D01*
X340593Y330906D01*
X340548Y331006D01*
X340493Y331088D01*
X340428Y331151D01*
X340353Y331196D01*
X340268Y331223D01*
X340173Y331233D01*
X340673D01*
X340672Y331311D01*
X340652Y331564D01*
X340641Y331632D01*
X340626Y331693D01*
X340610Y331746D01*
X340590Y331791D01*
X340568Y331828D01*
X340543Y331857D01*
X341803D01*
X341778Y331828D01*
D02*
G37*
G36*
X350779D02*
X350756Y331791D01*
X350737Y331746D01*
X350720Y331693D01*
X350706Y331632D01*
X350694Y331564D01*
X350678Y331403D01*
X350675Y331311D01*
X350674Y331233D01*
X351173D01*
X351078Y331223D01*
X350993Y331196D01*
X350918Y331151D01*
X350853Y331088D01*
X350798Y331006D01*
X350753Y330906D01*
X350718Y330789D01*
X350693Y330653D01*
X350678Y330499D01*
X350673Y330327D01*
X349673D01*
X349668Y330499D01*
X349653Y330653D01*
X349628Y330789D01*
X349593Y330906D01*
X349548Y331006D01*
X349493Y331088D01*
X349428Y331151D01*
X349353Y331196D01*
X349268Y331223D01*
X349173Y331233D01*
X349673D01*
X349672Y331311D01*
X349652Y331564D01*
X349641Y331632D01*
X349626Y331693D01*
X349609Y331746D01*
X349590Y331791D01*
X349568Y331828D01*
X349543Y331857D01*
X350803D01*
X350779Y331828D01*
D02*
G37*
G36*
X365454Y335488D02*
X365436Y335412D01*
X365439Y335326D01*
X365462Y335231D01*
X365506Y335126D01*
X365571Y335011D01*
X365657Y334887D01*
X365763Y334752D01*
X365891Y334608D01*
X365995Y334500D01*
X366373D01*
X366345Y334970D01*
X366335Y334993D01*
X367240D01*
X367230Y334970D01*
X367221Y334933D01*
X367213Y334881D01*
X367201Y334735D01*
X367194Y334500D01*
X367508D01*
X367657Y334278D01*
X368071Y334001D01*
X368560Y333904D01*
X369048Y334001D01*
X369445Y334266D01*
X369842Y334001D01*
X370331Y333904D01*
X370819Y334001D01*
X371233Y334278D01*
X371382Y334500D01*
X372002D01*
X372144Y334327D01*
X372144Y334327D01*
Y333540D01*
X371386D01*
Y331000D01*
Y329461D01*
X375268D01*
Y331000D01*
Y333214D01*
X379225D01*
Y328877D01*
X379000Y328693D01*
Y328693D01*
X379000D01*
X378352Y328564D01*
X377803Y328197D01*
X377436Y327648D01*
X377308Y327000D01*
X377436Y326352D01*
X377803Y325803D01*
X378352Y325436D01*
X379000Y325307D01*
X379648Y325436D01*
X380197Y325803D01*
X380476Y326221D01*
X380654Y326308D01*
X380912Y326363D01*
X381077Y326369D01*
X381204Y326284D01*
X381500Y326225D01*
X393000D01*
Y310500D01*
X393500Y310000D01*
X393121Y309621D01*
X382935D01*
X382931Y309689D01*
X382895Y309823D01*
X382863Y309958D01*
X382856Y309969D01*
X382852Y309981D01*
X382768Y310091D01*
X382687Y310204D01*
X382676Y310211D01*
X382668Y310221D01*
X382548Y310290D01*
X382430Y310363D01*
X382417Y310365D01*
X382406Y310372D01*
X382268Y310390D01*
X382132Y310412D01*
X382017Y310408D01*
X381658Y310756D01*
Y313342D01*
X381417Y313582D01*
Y314646D01*
X374583D01*
Y314646D01*
X374393Y314490D01*
X374342Y314500D01*
X373076D01*
X373045Y314506D01*
X373045D01*
X372993Y314528D01*
X372930Y314570D01*
X372662Y314838D01*
X372662Y314838D01*
X372411Y315006D01*
X372114Y315065D01*
Y320969D01*
X372000D01*
Y321417D01*
X371978Y321529D01*
X371967Y321642D01*
X371949Y321676D01*
X371941Y321714D01*
X371878Y321808D01*
X371824Y321909D01*
X371789Y321952D01*
X371774Y321964D01*
X371773Y321965D01*
X371771Y321966D01*
X371759Y321976D01*
X371738Y322008D01*
X371643Y322072D01*
X371614Y322095D01*
Y325307D01*
Y325539D01*
X369960D01*
X369721Y325780D01*
X367197D01*
X366877Y326153D01*
X366871Y326279D01*
X366878Y326344D01*
X366862Y326402D01*
X366859Y326462D01*
X366820Y326546D01*
X366795Y326635D01*
X366757Y326682D01*
X366732Y326736D01*
X366664Y326799D01*
X366607Y326871D01*
X366554Y326900D01*
X366510Y326941D01*
X366423Y326973D01*
X366342Y327018D01*
X366112Y327091D01*
X366112D01*
X366040Y327114D01*
X365905Y327614D01*
X366028Y327799D01*
Y327845D01*
X366094Y328003D01*
X366162Y328349D01*
Y328500D01*
Y328651D01*
X366115Y328888D01*
X366101Y328960D01*
X366096Y328973D01*
X366097Y328996D01*
X366268Y329461D01*
X366268D01*
Y329461D01*
Y330768D01*
Y333540D01*
X365437D01*
X365420Y333626D01*
X365163Y334010D01*
X365135Y334038D01*
X365195Y334185D01*
X364816Y334616D01*
X364785Y334672D01*
X364777Y334710D01*
X364791Y334729D01*
X364828Y334729D01*
X365493Y335554D01*
X365454Y335488D01*
D02*
G37*
G36*
X410725Y369372D02*
Y339500D01*
Y335500D01*
X406000D01*
X405500Y336000D01*
Y338500D01*
X404500Y339500D01*
X397775D01*
Y358000D01*
Y363000D01*
Y369500D01*
Y369725D01*
X410725D01*
Y369372D01*
D02*
G37*
G36*
X363687Y334972D02*
X363678Y334939D01*
X363670Y334894D01*
X363663Y334838D01*
X363649Y334599D01*
X363645Y334256D01*
X362844D01*
X362844Y334382D01*
X362811Y334939D01*
X362802Y334972D01*
X362792Y334993D01*
X363697D01*
X363687Y334972D01*
D02*
G37*
G36*
X373731Y333413D02*
X373743Y333275D01*
X373763Y333153D01*
X373791Y333048D01*
X373827Y332959D01*
X373871Y332886D01*
X373923Y332829D01*
X373983Y332788D01*
X374051Y332764D01*
X374127Y332755D01*
X372527D01*
X372603Y332764D01*
X372671Y332788D01*
X372731Y332829D01*
X372783Y332886D01*
X372827Y332959D01*
X372863Y333048D01*
X372891Y333153D01*
X372911Y333275D01*
X372923Y333413D01*
X372927Y333568D01*
X373727D01*
X373731Y333413D01*
D02*
G37*
G36*
X359027Y334334D02*
X359037Y334215D01*
X359055Y334110D01*
X359079Y334019D01*
X359111Y333943D01*
X359149Y333879D01*
X359195Y333830D01*
X359247Y333795D01*
X359307Y333774D01*
X359373Y333768D01*
X357973D01*
X358040Y333774D01*
X358099Y333795D01*
X358152Y333830D01*
X358197Y333879D01*
X358236Y333943D01*
X358267Y334019D01*
X358292Y334110D01*
X358309Y334215D01*
X358320Y334334D01*
X358323Y334468D01*
X359023D01*
X359027Y334334D01*
D02*
G37*
G36*
X438857Y327169D02*
X438902Y327081D01*
X438977Y327004D01*
X439082Y326936D01*
X439217Y326879D01*
X439382Y326833D01*
X439577Y326797D01*
X439802Y326771D01*
X440057Y326755D01*
X440342Y326750D01*
Y325250D01*
X440057Y325245D01*
X439577Y325203D01*
X439382Y325167D01*
X439217Y325121D01*
X439082Y325064D01*
X438977Y324996D01*
X438902Y324919D01*
X438857Y324831D01*
X438842Y324732D01*
Y327268D01*
X438857Y327169D01*
D02*
G37*
G36*
X340397Y325725D02*
X340329Y325700D01*
X340269Y325660D01*
X340217Y325605D01*
X340173Y325533D01*
X340137Y325445D01*
X340109Y325341D01*
X340109Y325337D01*
X340110Y325331D01*
X340131Y325258D01*
X340156Y325190D01*
X340186Y325128D01*
X340220Y325070D01*
X340260Y325017D01*
X340303Y324970D01*
X340074D01*
X340073Y324933D01*
X339273D01*
X339272Y324970D01*
X339043D01*
X339087Y325017D01*
X339126Y325070D01*
X339160Y325128D01*
X339190Y325190D01*
X339216Y325258D01*
X339236Y325331D01*
X339238Y325337D01*
X339237Y325341D01*
X339209Y325445D01*
X339173Y325533D01*
X339129Y325605D01*
X339077Y325660D01*
X339017Y325700D01*
X338949Y325725D01*
X338873Y325732D01*
X340473D01*
X340397Y325725D01*
D02*
G37*
G36*
X433158Y324732D02*
X433151Y324831D01*
X433131Y324919D01*
X433099Y324996D01*
X433052Y325064D01*
X432993Y325121D01*
X432921Y325167D01*
X432835Y325203D01*
X432737Y325229D01*
X432625Y325245D01*
X432500Y325250D01*
Y326750D01*
X432625Y326755D01*
X432737Y326771D01*
X432835Y326797D01*
X432921Y326833D01*
X432993Y326879D01*
X433052Y326936D01*
X433099Y327004D01*
X433131Y327081D01*
X433151Y327169D01*
X433158Y327268D01*
Y324732D01*
D02*
G37*
G36*
X442158Y324732D02*
X444496D01*
X444416Y324722D01*
X444345Y324690D01*
X444282Y324637D01*
X444228Y324563D01*
X444181Y324468D01*
X444144Y324351D01*
X444114Y324213D01*
X444094Y324055D01*
X444081Y323874D01*
X444077Y323673D01*
X442577D01*
X442573Y323874D01*
X442539Y324213D01*
X442510Y324351D01*
X442472Y324468D01*
X442426Y324563D01*
X442371Y324637D01*
X442309Y324690D01*
X442237Y324722D01*
X442158Y324732D01*
X442143Y324831D01*
X442098Y324919D01*
X442023Y324996D01*
X441918Y325064D01*
X441783Y325121D01*
X441618Y325167D01*
X441423Y325203D01*
X441198Y325229D01*
X440943Y325245D01*
X440658Y325250D01*
Y326750D01*
X440943Y326755D01*
X441423Y326797D01*
X441618Y326833D01*
X441783Y326879D01*
X441918Y326936D01*
X442023Y327004D01*
X442098Y327081D01*
X442143Y327169D01*
X442158Y327268D01*
Y324732D01*
D02*
G37*
G36*
X361473Y333904D02*
X361717Y333953D01*
X362144Y333570D01*
X362146Y333567D01*
Y332100D01*
X364327D01*
Y331500D01*
X364927D01*
Y329195D01*
X364999Y329170D01*
X365087Y329116D01*
X365328Y328906D01*
X365341Y328858D01*
Y328809D01*
X365388Y328575D01*
Y328425D01*
X365349Y328229D01*
X365312Y328142D01*
X365307Y328115D01*
X365260Y328045D01*
X365250Y328021D01*
X365233Y328001D01*
X365193Y327882D01*
X365145Y327765D01*
Y327739D01*
X365136Y327714D01*
X365145Y327589D01*
Y327463D01*
X365155Y327439D01*
X365157Y327413D01*
X365291Y326912D01*
X365310Y326874D01*
X365312Y326864D01*
X365324Y326847D01*
X365328Y326838D01*
X365351Y326759D01*
X365394Y326704D01*
X365426Y326642D01*
X365488Y326587D01*
X365539Y326523D01*
X365600Y326489D01*
X365653Y326443D01*
X365746Y326254D01*
X365619Y325972D01*
X365616Y325968D01*
X365334Y325780D01*
X364146D01*
Y323993D01*
X363647Y323840D01*
X363233Y324116D01*
X362843Y324194D01*
X362669Y324455D01*
X362589Y324714D01*
X362634Y324781D01*
X362763Y325429D01*
X362634Y326077D01*
X362268Y326626D01*
X361719Y326993D01*
X361071Y327122D01*
X360423Y326993D01*
X359874Y326626D01*
X359507Y326077D01*
X359378Y325429D01*
X359507Y324781D01*
X359256Y324604D01*
X358823Y324823D01*
Y324823D01*
X358609D01*
X358199Y325323D01*
X358214Y325398D01*
Y328744D01*
X358342Y328936D01*
X358433Y328954D01*
X358800Y329200D01*
X359473Y329873D01*
X359719Y330240D01*
X359763Y330461D01*
X360614D01*
Y333693D01*
X361114Y333975D01*
X361473Y333904D01*
D02*
G37*
G36*
X355369Y329657D02*
X355411Y328954D01*
X355421Y328931D01*
X354516D01*
X354526Y328954D01*
X354535Y328992D01*
X354543Y329043D01*
X354555Y329190D01*
X354568Y329657D01*
X354569Y329810D01*
X355368D01*
X355369Y329657D01*
D02*
G37*
G36*
X423225Y369179D02*
Y356500D01*
Y354500D01*
X423284Y354204D01*
X423452Y353952D01*
X424432Y352973D01*
X424683Y352804D01*
X424980Y352746D01*
X440640D01*
X440725Y352665D01*
Y352500D01*
X440740Y352425D01*
Y352349D01*
X440769Y352278D01*
X440784Y352203D01*
X440827Y352140D01*
X440856Y352069D01*
X440910Y352015D01*
X440952Y351952D01*
X441015Y351910D01*
X441070Y351856D01*
X441140Y351827D01*
X441203Y351784D01*
X441278Y351769D01*
X441349Y351740D01*
X441487Y351712D01*
X441500Y351649D01*
Y351649D01*
Y332500D01*
Y329576D01*
X441487Y329513D01*
X441424Y329500D01*
X411576D01*
X411513Y329513D01*
X411508Y329538D01*
X411500Y330000D01*
X411500Y330000D01*
Y351000D01*
Y369725D01*
X422679D01*
X423225Y369179D01*
D02*
G37*
G36*
X353386Y329678D02*
X353428Y328999D01*
X353440Y328958D01*
X353452Y328931D01*
X352548D01*
X352555Y328950D01*
X352561Y328984D01*
X352567Y329032D01*
X352576Y329174D01*
X352586Y329788D01*
X353386Y329831D01*
X353386Y329678D01*
D02*
G37*
G36*
X397000Y363000D02*
Y327000D01*
X381500D01*
X380500Y328000D01*
X380000Y328500D01*
Y335920D01*
X380048Y335952D01*
X380499Y336403D01*
X380520Y336435D01*
X380550Y336460D01*
X380575Y336505D01*
X380594Y336525D01*
X380617Y336580D01*
X380667Y336654D01*
X380674Y336692D01*
X380693Y336727D01*
X380697Y336773D01*
X380710Y336805D01*
Y336873D01*
X380726Y336951D01*
X380718Y336989D01*
X380722Y337028D01*
X380721Y337033D01*
X380710Y337069D01*
Y337107D01*
X380680Y337180D01*
X380667Y337247D01*
X380647Y337277D01*
X380633Y337322D01*
X380609Y337351D01*
X380594Y337386D01*
X380516Y337504D01*
X380498D01*
Y337580D01*
Y354475D01*
Y354551D01*
X380516D01*
X380531Y354573D01*
X380548Y354584D01*
X380590Y354648D01*
X380644Y354702D01*
X380674Y354772D01*
X380716Y354836D01*
X380731Y354910D01*
X380760Y354981D01*
Y355057D01*
X380775Y355132D01*
Y357179D01*
X383048Y359452D01*
X383216Y359703D01*
X383275Y360000D01*
Y364000D01*
Y367679D01*
X385048Y369452D01*
X386821Y371225D01*
X397000D01*
Y363000D01*
D02*
G37*
G36*
X348470Y329739D02*
X348877Y329390D01*
X348963Y329330D01*
X349044Y329280D01*
X349119Y329242D01*
X349187Y329214D01*
X349250Y329196D01*
X348586Y327512D01*
X348614Y327616D01*
X348620Y327728D01*
X348603Y327849D01*
X348565Y327978D01*
X348504Y328115D01*
X348421Y328261D01*
X348316Y328415D01*
X348188Y328577D01*
X348038Y328748D01*
X347866Y328926D01*
X348354Y329854D01*
X348470Y329739D01*
D02*
G37*
G36*
X357427Y344768D02*
X357404Y344778D01*
X357367Y344787D01*
X357315Y344794D01*
X357168Y344807D01*
X356701Y344819D01*
X356549Y344820D01*
Y345620D01*
X356701Y345620D01*
X357404Y345662D01*
X357427Y345672D01*
Y344768D01*
D02*
G37*
G36*
Y346540D02*
X357404Y346550D01*
X357367Y346558D01*
X357315Y346566D01*
X357168Y346579D01*
X356701Y346591D01*
X356549Y346592D01*
Y347392D01*
X356701Y347393D01*
X357404Y347434D01*
X357427Y347444D01*
Y346540D01*
D02*
G37*
G36*
X356500Y344581D02*
X356449D01*
X356016Y344495D01*
X355649Y344249D01*
X355599Y344199D01*
X355596Y344198D01*
X355583Y344190D01*
X355573Y344185D01*
X355564Y344182D01*
X355560Y344181D01*
X355500Y344193D01*
X354852Y344064D01*
X354303Y343697D01*
X353961Y343184D01*
X353925Y343180D01*
X353461Y343484D01*
Y343547D01*
X349184D01*
X349169Y343550D01*
X349155Y343547D01*
X348397D01*
Y343183D01*
X347997D01*
X347545Y343093D01*
X347183Y342851D01*
X347058Y342876D01*
X346683Y343020D01*
Y345510D01*
X346982Y345809D01*
X356500D01*
Y344581D01*
D02*
G37*
G36*
X357427Y342997D02*
X357391Y343016D01*
X357344Y343034D01*
X357286Y343049D01*
X357217Y343062D01*
X357046Y343083D01*
X356832Y343095D01*
X356605Y343098D01*
X356589Y343078D01*
X356544Y343013D01*
X356505Y342947D01*
X356472Y342878D01*
X356446Y342808D01*
X356425Y342736D01*
X356411Y342662D01*
X356402Y342586D01*
X356400Y342509D01*
X355509Y343400D01*
X355587Y343402D01*
X355662Y343411D01*
X355736Y343425D01*
X355808Y343445D01*
X355878Y343472D01*
X355946Y343505D01*
X356013Y343544D01*
X356078Y343588D01*
X356140Y343639D01*
X356202Y343696D01*
X356574Y343324D01*
Y343799D01*
X356708Y343800D01*
X357217Y343836D01*
X357286Y343849D01*
X357344Y343864D01*
X357391Y343882D01*
X357427Y343901D01*
Y342997D01*
D02*
G37*
G36*
X343839Y345263D02*
X343863Y345199D01*
X343902Y345143D01*
X343958Y345094D01*
X344030Y345053D01*
X344118Y345019D01*
X344222Y344993D01*
X344342Y344974D01*
X344479Y344963D01*
X344631Y344959D01*
Y344159D01*
X344479Y344155D01*
X344342Y344144D01*
X344222Y344125D01*
X344118Y344099D01*
X344030Y344065D01*
X343958Y344024D01*
X343902Y343975D01*
X343863Y343919D01*
X343839Y343855D01*
X343830Y343784D01*
Y345335D01*
X343839Y345263D01*
D02*
G37*
G36*
X348402Y349753D02*
X348409Y349670D01*
X348800D01*
X348724Y349661D01*
X348656Y349637D01*
X348596Y349597D01*
X348544Y349540D01*
X348500Y349467D01*
X348471Y349395D01*
X348483Y349363D01*
X348513Y349301D01*
X348547Y349243D01*
X348586Y349190D01*
X348630Y349143D01*
X348415D01*
X348404Y349012D01*
X348400Y348858D01*
X347600D01*
X347596Y349012D01*
X347585Y349143D01*
X347370D01*
X347414Y349190D01*
X347453Y349243D01*
X347487Y349301D01*
X347517Y349363D01*
X347529Y349395D01*
X347500Y349467D01*
X347456Y349540D01*
X347404Y349597D01*
X347344Y349637D01*
X347276Y349661D01*
X347200Y349670D01*
X347591D01*
X347598Y349753D01*
X347600Y349846D01*
X348400D01*
X348402Y349753D01*
D02*
G37*
G36*
X352500Y356000D02*
X356225D01*
Y354000D01*
X356284Y353703D01*
X356452Y353452D01*
X356679Y353226D01*
X356700Y353193D01*
X356435Y352796D01*
X356338Y352307D01*
X356435Y351818D01*
X356712Y351404D01*
X357126Y351128D01*
X357614Y351030D01*
X359583D01*
X359897Y350671D01*
Y350410D01*
X359491Y350041D01*
X358639D01*
X358598Y350049D01*
X355539D01*
Y352768D01*
X352000D01*
Y355847D01*
X352462Y356038D01*
X352500Y356000D01*
D02*
G37*
G36*
X354765Y350049D02*
X354824Y349752D01*
X354992Y349501D01*
X355243Y349333D01*
X355539Y349274D01*
X357537D01*
X357614Y349258D01*
X359583D01*
X359897Y349000D01*
Y348687D01*
X359690Y348411D01*
X359536Y348269D01*
X357614D01*
X357287Y348204D01*
X356801Y348175D01*
X353103D01*
X353099Y348177D01*
X352930Y348297D01*
X352875Y348349D01*
X352711Y348570D01*
X352705Y348669D01*
X352705Y348675D01*
X352712Y348770D01*
X352696Y348820D01*
X352692Y348872D01*
X352648Y348962D01*
X352617Y349057D01*
X352498Y349268D01*
X352430Y349347D01*
X352372Y349434D01*
X352332Y349460D01*
X352300Y349497D01*
X352235Y349529D01*
Y351993D01*
X354765D01*
Y350049D01*
D02*
G37*
G36*
X348408Y348040D02*
X348432Y347904D01*
X348448Y347857D01*
X348630D01*
X348586Y347810D01*
X348547Y347757D01*
X348515Y347704D01*
X348528Y347680D01*
X348600Y347592D01*
X348688Y347520D01*
X348792Y347464D01*
X348912Y347424D01*
X349048Y347400D01*
X349200Y347392D01*
X348000Y346592D01*
X346800Y347392D01*
X346952Y347400D01*
X347088Y347424D01*
X347208Y347464D01*
X347312Y347520D01*
X347400Y347592D01*
X347472Y347680D01*
X347485Y347704D01*
X347453Y347757D01*
X347414Y347810D01*
X347370Y347857D01*
X347552D01*
X347568Y347904D01*
X347592Y348040D01*
X347600Y348192D01*
X348400D01*
X348408Y348040D01*
D02*
G37*
G36*
X372500Y360500D02*
X372446Y360446D01*
X370227Y358227D01*
X370059Y357976D01*
X370000Y357679D01*
Y357000D01*
Y347000D01*
X361653D01*
X361462Y347462D01*
X361500Y347500D01*
Y353098D01*
X361098Y353500D01*
X360003D01*
X359583Y353584D01*
X357614D01*
X357449Y353551D01*
X357000Y354000D01*
Y356500D01*
Y366500D01*
X358000Y367500D01*
X361000D01*
X361500Y368000D01*
Y370500D01*
Y371000D01*
Y371500D01*
X362000Y372000D01*
X372500D01*
Y360500D01*
D02*
G37*
G36*
X368960Y338062D02*
X369002Y337359D01*
X369012Y337337D01*
X368107D01*
X368117Y337359D01*
X368126Y337397D01*
X368134Y337449D01*
X368146Y337595D01*
X368159Y338062D01*
X368160Y338215D01*
X368959D01*
X368960Y338062D01*
D02*
G37*
G36*
X363968Y339134D02*
X363900Y339110D01*
X363841Y339069D01*
X363789Y339012D01*
X363744Y338939D01*
X363708Y338850D01*
X363681Y338744D01*
X363661Y338622D01*
X363649Y338484D01*
X363645Y338330D01*
X362844D01*
X362841Y338484D01*
X362828Y338622D01*
X362808Y338744D01*
X362780Y338850D01*
X362744Y338939D01*
X362701Y339012D01*
X362649Y339069D01*
X362589Y339110D01*
X362521Y339134D01*
X362444Y339142D01*
X364044D01*
X363968Y339134D01*
D02*
G37*
G36*
X363645Y338062D02*
X363687Y337359D01*
X363697Y337337D01*
X362792D01*
X362802Y337359D01*
X362811Y337397D01*
X362819Y337449D01*
X362831Y337595D01*
X362844Y338062D01*
X362844Y338215D01*
X363645D01*
X363645Y338062D01*
D02*
G37*
G36*
X353961Y341816D02*
X354303Y341303D01*
X354184Y340781D01*
X354031Y340553D01*
X353903Y339905D01*
X353952Y339654D01*
X353995Y339245D01*
X353589Y339111D01*
X353352Y339064D01*
X352803Y338697D01*
X352436Y338148D01*
X352308Y337500D01*
Y337500D01*
D01*
X352436Y336852D01*
X352707Y336447D01*
X352319Y336128D01*
X352111Y336336D01*
X351727Y336593D01*
X351274Y336683D01*
X351274Y336683D01*
X349490D01*
X349183Y336990D01*
D01*
Y337653D01*
Y338171D01*
X349180Y338183D01*
Y340452D01*
X349184Y340453D01*
X353461D01*
Y341515D01*
X353925Y341820D01*
X353961Y341816D01*
D02*
G37*
G36*
X354902Y337413D02*
X354911Y337337D01*
X354927Y337262D01*
X354949Y337189D01*
X354977Y337117D01*
X355012Y337047D01*
X355053Y336978D01*
X355101Y336910D01*
X355155Y336844D01*
X355216Y336779D01*
X354721Y336284D01*
X354656Y336345D01*
X354590Y336399D01*
X354522Y336447D01*
X354453Y336488D01*
X354383Y336523D01*
X354311Y336551D01*
X354238Y336573D01*
X354163Y336589D01*
X354087Y336598D01*
X354009Y336600D01*
X354900Y337491D01*
X354902Y337413D01*
D02*
G37*
G36*
X345902Y340753D02*
X345909Y340665D01*
X345921Y340582D01*
X345937Y340504D01*
X345957Y340431D01*
X345983Y340364D01*
X346013Y340301D01*
X346047Y340243D01*
X346086Y340190D01*
X346130Y340143D01*
X344870D01*
X344914Y340190D01*
X344953Y340243D01*
X344987Y340301D01*
X345017Y340364D01*
X345042Y340431D01*
X345063Y340504D01*
X345079Y340582D01*
X345091Y340665D01*
X345098Y340753D01*
X345100Y340846D01*
X345900D01*
X345902Y340753D01*
D02*
G37*
G36*
X349169Y341225D02*
X349162Y341296D01*
X349137Y341360D01*
X349097Y341416D01*
X349042Y341465D01*
X348970Y341506D01*
X348882Y341540D01*
X348778Y341566D01*
X348657Y341585D01*
X348521Y341596D01*
X348370Y341600D01*
Y342400D01*
X348521Y342404D01*
X348657Y342415D01*
X348778Y342434D01*
X348882Y342460D01*
X348970Y342494D01*
X349042Y342535D01*
X349097Y342584D01*
X349137Y342640D01*
X349162Y342704D01*
X349169Y342775D01*
Y341225D01*
D02*
G37*
G36*
X356285Y340491D02*
X356338Y340452D01*
X356396Y340418D01*
X356458Y340388D01*
X356526Y340363D01*
X356599Y340342D01*
X356677Y340326D01*
X356760Y340314D01*
X356798Y340311D01*
X357404Y340347D01*
X357427Y340357D01*
Y339453D01*
X357404Y339463D01*
X357367Y339472D01*
X357315Y339479D01*
X357168Y339492D01*
X356828Y339501D01*
X356760Y339496D01*
X356677Y339484D01*
X356599Y339468D01*
X356526Y339447D01*
X356458Y339422D01*
X356396Y339392D01*
X356338Y339358D01*
X356285Y339319D01*
X356238Y339275D01*
Y340535D01*
X356285Y340491D01*
D02*
G37*
G36*
X369216Y339130D02*
X369167Y339122D01*
X369124Y339098D01*
X369085Y339058D01*
X369052Y339002D01*
X369024Y338930D01*
X369001Y338842D01*
X368983Y338738D01*
X368970Y338618D01*
X368959Y338330D01*
X368160D01*
X368156Y338484D01*
X368144Y338621D01*
X368124Y338743D01*
X368095Y338848D01*
X368059Y338937D01*
X368016Y339011D01*
X367964Y339068D01*
X367903Y339109D01*
X367835Y339133D01*
X367759Y339142D01*
X369216Y339130D01*
D02*
G37*
G36*
X343839Y340145D02*
X343863Y340081D01*
X343902Y340025D01*
X343958Y339976D01*
X344030Y339935D01*
X344118Y339901D01*
X344222Y339875D01*
X344342Y339856D01*
X344343Y339856D01*
X344391Y339863D01*
X344468Y339880D01*
X344539Y339902D01*
X344606Y339929D01*
X344667Y339961D01*
X344722Y339998D01*
X344772Y340040D01*
X344817Y340087D01*
X344900Y338829D01*
X344850Y338869D01*
X344796Y338905D01*
X344736Y338937D01*
X344672Y338965D01*
X344603Y338988D01*
X344529Y339007D01*
X344451Y339022D01*
X344389Y339030D01*
X344342Y339026D01*
X344222Y339007D01*
X344118Y338981D01*
X344030Y338947D01*
X343958Y338906D01*
X343902Y338857D01*
X343863Y338801D01*
X343839Y338737D01*
X343830Y338666D01*
Y340216D01*
X343839Y340145D01*
D02*
G37*
G36*
X367051Y311225D02*
X366983Y311200D01*
X366923Y311160D01*
X366871Y311104D01*
X366827Y311033D01*
X366791Y310945D01*
X366763Y310841D01*
X366743Y310720D01*
X366731Y310584D01*
X366727Y310433D01*
X365927D01*
X365923Y310584D01*
X365911Y310720D01*
X365891Y310841D01*
X365863Y310945D01*
X365827Y311033D01*
X365783Y311104D01*
X365731Y311160D01*
X365671Y311200D01*
X365603Y311225D01*
X365527Y311232D01*
X367127D01*
X367051Y311225D01*
D02*
G37*
G36*
X344902Y310973D02*
X344909Y310944D01*
X344921Y310912D01*
X344937Y310880D01*
X344957Y310845D01*
X344983Y310808D01*
X345013Y310770D01*
X345086Y310687D01*
X345130Y310643D01*
X343870D01*
X343914Y310687D01*
X343987Y310770D01*
X344017Y310808D01*
X344042Y310845D01*
X344063Y310880D01*
X344079Y310912D01*
X344091Y310944D01*
X344098Y310973D01*
X344100Y311000D01*
X344900D01*
X344902Y310973D01*
D02*
G37*
G36*
X430577Y310915D02*
X430589Y310780D01*
X430609Y310660D01*
X430637Y310556D01*
X430673Y310468D01*
X430717Y310396D01*
X430769Y310339D01*
X430829Y310299D01*
X430897Y310276D01*
X430973Y310267D01*
X429373D01*
X429449Y310276D01*
X429517Y310299D01*
X429577Y310339D01*
X429629Y310396D01*
X429673Y310468D01*
X429709Y310556D01*
X429737Y310660D01*
X429757Y310780D01*
X429769Y310915D01*
X429773Y311068D01*
X430573D01*
X430577Y310915D01*
D02*
G37*
G36*
X357423Y311653D02*
X357447Y311585D01*
X357488Y311525D01*
X357544Y311473D01*
X357617Y311429D01*
X357707Y311393D01*
X357812Y311365D01*
X357934Y311345D01*
X358072Y311333D01*
X358226Y311329D01*
Y310529D01*
X358072Y310525D01*
X357934Y310513D01*
X357812Y310493D01*
X357707Y310465D01*
X357617Y310429D01*
X357544Y310385D01*
X357488Y310333D01*
X357447Y310273D01*
X357423Y310205D01*
X357415Y310129D01*
Y311729D01*
X357423Y311653D01*
D02*
G37*
G36*
X420077Y310313D02*
X420089Y310301D01*
X420109Y310290D01*
X420137Y310281D01*
X420173Y310273D01*
X420217Y310267D01*
X420329Y310258D01*
X420473Y310256D01*
X418873D01*
X418949Y310256D01*
X419173Y310273D01*
X419209Y310281D01*
X419237Y310290D01*
X419257Y310301D01*
X419269Y310313D01*
X419273Y310327D01*
X420073D01*
X420077Y310313D01*
D02*
G37*
G36*
X370077Y314413D02*
X370089Y314275D01*
X370109Y314153D01*
X370137Y314048D01*
X370173Y313959D01*
X370217Y313885D01*
X370269Y313829D01*
X370329Y313788D01*
X370397Y313764D01*
X370473Y313755D01*
X369975D01*
X370073Y313734D01*
X370075Y313640D01*
X370088Y313468D01*
X370100Y313388D01*
X370115Y313313D01*
X370134Y313243D01*
X370156Y313178D01*
X370181Y313117D01*
X370210Y313061D01*
X370242Y313009D01*
X369005Y313252D01*
X369056Y313290D01*
X369102Y313335D01*
X369142Y313385D01*
X369177Y313442D01*
X369206Y313505D01*
X369230Y313574D01*
X369249Y313649D01*
X369263Y313730D01*
X369265Y313755D01*
X368873D01*
X368949Y313764D01*
X369017Y313788D01*
X369077Y313829D01*
X369129Y313885D01*
X369173Y313959D01*
X369209Y314048D01*
X369237Y314153D01*
X369257Y314275D01*
X369269Y314413D01*
X369273Y314567D01*
X370073D01*
X370077Y314413D01*
D02*
G37*
G36*
X341687Y315086D02*
X341770Y315013D01*
X341808Y314983D01*
X341845Y314957D01*
X341880Y314937D01*
X341913Y314921D01*
X341944Y314909D01*
X341973Y314902D01*
X342000Y314900D01*
Y314100D01*
X341973Y314098D01*
X341944Y314091D01*
X341913Y314079D01*
X341880Y314063D01*
X341845Y314042D01*
X341808Y314017D01*
X341770Y313987D01*
X341687Y313914D01*
X341643Y313870D01*
Y315130D01*
X341687Y315086D01*
D02*
G37*
G36*
X418464Y312330D02*
X418240Y312313D01*
X418204Y312305D01*
X418176Y312296D01*
X418156Y312285D01*
X418144Y312273D01*
X418140Y312260D01*
X417340D01*
X417336Y312273D01*
X417324Y312285D01*
X417304Y312296D01*
X417276Y312305D01*
X417240Y312313D01*
X417196Y312320D01*
X417084Y312328D01*
X416940Y312331D01*
X418540D01*
X418464Y312330D01*
D02*
G37*
G36*
X342700Y311927D02*
X342548Y311919D01*
X342412Y311895D01*
X342292Y311855D01*
X342188Y311799D01*
X342100Y311727D01*
X342028Y311639D01*
X341972Y311535D01*
X341932Y311415D01*
X341908Y311279D01*
X341900Y311127D01*
X341100D01*
X341092Y311279D01*
X341068Y311415D01*
X341028Y311535D01*
X340972Y311639D01*
X340900Y311727D01*
X340812Y311799D01*
X340708Y311855D01*
X340588Y311895D01*
X340452Y311919D01*
X340300Y311927D01*
X341500Y312727D01*
X342700Y311927D01*
D02*
G37*
G36*
X339276Y313051D02*
X339300Y312983D01*
X339339Y312923D01*
X339395Y312871D01*
X339468Y312827D01*
X339556Y312791D01*
X339660Y312763D01*
X339779Y312743D01*
X339915Y312731D01*
X340068Y312727D01*
Y311927D01*
X339915Y311923D01*
X339779Y311911D01*
X339660Y311891D01*
X339556Y311863D01*
X339468Y311827D01*
X339395Y311783D01*
X339339Y311731D01*
X339300Y311671D01*
X339276Y311603D01*
X339267Y311527D01*
Y313127D01*
X339276Y313051D01*
D02*
G37*
G36*
X412000Y320500D02*
X411500Y320000D01*
X408000D01*
Y318274D01*
X408501Y317773D01*
X408559Y317482D01*
X408568Y317468D01*
X408373Y317004D01*
X408319D01*
Y311547D01*
X408486D01*
X408496Y311534D01*
X408516Y311486D01*
X408547Y311439D01*
X408711Y311084D01*
X408712Y311080D01*
X408726Y311038D01*
X408728Y310995D01*
X408732Y310976D01*
Y307691D01*
X405809D01*
X405500Y308000D01*
Y310000D01*
X405000Y310500D01*
X398000D01*
Y326000D01*
X412000D01*
Y320500D01*
D02*
G37*
G36*
X340404Y307968D02*
X340416Y307939D01*
X340436Y307913D01*
X340464Y307891D01*
X340500Y307873D01*
X340544Y307857D01*
X340596Y307846D01*
X340656Y307837D01*
X340724Y307832D01*
X340800Y307830D01*
X339200D01*
X339276Y307832D01*
X339344Y307837D01*
X339404Y307846D01*
X339456Y307857D01*
X339500Y307873D01*
X339536Y307891D01*
X339564Y307913D01*
X339584Y307939D01*
X339596Y307968D01*
X339600Y308000D01*
X340400D01*
X340404Y307968D01*
D02*
G37*
G36*
X412000Y317000D02*
Y310743D01*
X411936Y310648D01*
X411807Y310000D01*
X411936Y309352D01*
X412000Y309257D01*
Y308743D01*
X411936Y308648D01*
X411807Y308000D01*
X411500Y307693D01*
X410852Y307564D01*
X410757Y307500D01*
X410243D01*
X410148Y307564D01*
X409507Y307691D01*
Y311039D01*
X409504Y311055D01*
X409506Y311071D01*
X409481Y311177D01*
X409467Y311285D01*
X409453Y311309D01*
X409448Y311336D01*
X409439Y311349D01*
X409435Y311365D01*
X409239Y311790D01*
X409219Y311817D01*
X409216Y311833D01*
X409160Y311917D01*
X409116Y312007D01*
X409107Y312018D01*
X409094Y312030D01*
Y316525D01*
X409216Y316707D01*
X409275Y317004D01*
X411996D01*
X412000Y317000D01*
D02*
G37*
G36*
X358817Y306914D02*
X358772Y306961D01*
X358722Y307003D01*
X358666Y307040D01*
X358605Y307071D01*
X358539Y307099D01*
X358467Y307121D01*
X358390Y307138D01*
X358308Y307150D01*
X358220Y307157D01*
X358127Y307160D01*
X358186Y307960D01*
X358279Y307962D01*
X358451Y307979D01*
X358530Y307994D01*
X358604Y308013D01*
X358673Y308036D01*
X358737Y308064D01*
X358796Y308095D01*
X358851Y308131D01*
X358901Y308172D01*
X358817Y306914D01*
D02*
G37*
G36*
X430897Y307736D02*
X430829Y307712D01*
X430769Y307671D01*
X430717Y307614D01*
X430673Y307541D01*
X430637Y307452D01*
X430609Y307347D01*
X430589Y307225D01*
X430577Y307087D01*
X430573Y306932D01*
X429773D01*
X429769Y307087D01*
X429757Y307225D01*
X429737Y307347D01*
X429709Y307452D01*
X429673Y307541D01*
X429629Y307614D01*
X429577Y307671D01*
X429517Y307712D01*
X429449Y307736D01*
X429373Y307745D01*
X430973D01*
X430897Y307736D01*
D02*
G37*
G36*
X420838Y309724D02*
X420863Y309656D01*
X420903Y309596D01*
X420960Y309544D01*
X421033Y309500D01*
X421105Y309471D01*
X421137Y309483D01*
X421199Y309513D01*
X421257Y309547D01*
X421310Y309586D01*
X421357Y309630D01*
Y309415D01*
X421488Y309404D01*
X421642Y309400D01*
Y308600D01*
X421488Y308596D01*
X421357Y308585D01*
Y308370D01*
X421310Y308414D01*
X421257Y308453D01*
X421199Y308487D01*
X421137Y308517D01*
X421105Y308529D01*
X421033Y308500D01*
X420960Y308456D01*
X420903Y308404D01*
X420863Y308344D01*
X420838Y308276D01*
X420830Y308200D01*
Y308591D01*
X420747Y308598D01*
X420654Y308600D01*
Y309400D01*
X420747Y309402D01*
X420830Y309409D01*
Y309800D01*
X420838Y309724D01*
D02*
G37*
G36*
X348586Y310129D02*
X348579Y310205D01*
X348559Y310273D01*
X348526Y310333D01*
X348481Y310385D01*
X348421Y310429D01*
X348349Y310465D01*
X348264Y310493D01*
X348165Y310513D01*
X348054Y310525D01*
X347929Y310529D01*
Y311329D01*
X348054Y311333D01*
X348165Y311345D01*
X348264Y311365D01*
X348349Y311393D01*
X348421Y311429D01*
X348481Y311473D01*
X348526Y311525D01*
X348559Y311585D01*
X348579Y311653D01*
X348586Y311729D01*
Y310129D01*
D02*
G37*
G36*
X355411Y309046D02*
X355402Y309011D01*
X355394Y308963D01*
X355382Y308828D01*
X355371Y308528D01*
X355368Y308262D01*
X354569D01*
X354568Y308401D01*
X354526Y309046D01*
X354516Y309069D01*
X355421D01*
X355411Y309046D01*
D02*
G37*
G36*
X351474Y309046D02*
X351465Y309008D01*
X351457Y308957D01*
X351445Y308810D01*
X351432Y308343D01*
X351431Y308190D01*
X350631D01*
X350631Y308343D01*
X350589Y309046D01*
X350579Y309069D01*
X351484D01*
X351474Y309046D01*
D02*
G37*
G36*
X353442D02*
X353433Y309008D01*
X353426Y308957D01*
X353413Y308810D01*
X353400Y308343D01*
X353400Y308190D01*
X352600D01*
X352600Y308343D01*
X352558Y309046D01*
X352548Y309069D01*
X353452D01*
X353442Y309046D01*
D02*
G37*
G36*
X357807Y315787D02*
X357831Y315719D01*
X357872Y315659D01*
X357929Y315607D01*
X358002Y315563D01*
X358091Y315527D01*
X358197Y315499D01*
X358318Y315479D01*
X358457Y315467D01*
X358517Y315465D01*
X359187Y315505D01*
X359210Y315515D01*
Y314611D01*
X359187Y314621D01*
X359150Y314630D01*
X359098Y314637D01*
X358952Y314650D01*
X358537Y314661D01*
X358457Y314659D01*
X358318Y314647D01*
X358197Y314627D01*
X358091Y314599D01*
X358002Y314563D01*
X357929Y314519D01*
X357872Y314467D01*
X357831Y314407D01*
X357807Y314339D01*
X357799Y314263D01*
Y315863D01*
X357807Y315787D01*
D02*
G37*
G36*
X415137Y321755D02*
X415108Y321717D01*
X415083Y321654D01*
X415061Y321565D01*
X415042Y321451D01*
X415027Y321311D01*
X415002Y320741D01*
X415000Y320500D01*
X413000D01*
X412998Y320741D01*
X412939Y321565D01*
X412917Y321654D01*
X412892Y321717D01*
X412863Y321755D01*
X412831Y321768D01*
X415169D01*
X415137Y321755D01*
D02*
G37*
G36*
X357807Y321692D02*
X357831Y321624D01*
X357872Y321565D01*
X357929Y321513D01*
X358002Y321468D01*
X358091Y321432D01*
X358197Y321405D01*
X358318Y321385D01*
X358457Y321373D01*
X358517Y321371D01*
X359187Y321411D01*
X359210Y321421D01*
Y320516D01*
X359187Y320526D01*
X359150Y320535D01*
X359098Y320543D01*
X358952Y320555D01*
X358537Y320567D01*
X358457Y320565D01*
X358318Y320552D01*
X358197Y320532D01*
X358091Y320504D01*
X358002Y320468D01*
X357929Y320425D01*
X357872Y320373D01*
X357831Y320312D01*
X357807Y320245D01*
X357799Y320168D01*
Y321768D01*
X357807Y321692D01*
D02*
G37*
G36*
X426428Y323195D02*
X426459Y323056D01*
X426512Y322933D01*
X426585Y322826D01*
X426680Y322736D01*
X426796Y322662D01*
X426932Y322605D01*
X427090Y322564D01*
X427269Y322540D01*
X427468Y322532D01*
Y320532D01*
X427269Y320523D01*
X427090Y320499D01*
X426932Y320458D01*
X426796Y320401D01*
X426680Y320327D01*
X426585Y320237D01*
X426512Y320130D01*
X426459Y320007D01*
X426428Y319868D01*
X426417Y319713D01*
Y323350D01*
X426428Y323195D01*
D02*
G37*
G36*
X340841Y321873D02*
X340871Y321789D01*
X340921Y321713D01*
X340992Y321649D01*
X341083Y321593D01*
X341195Y321549D01*
X341326Y321514D01*
X341478Y321488D01*
X341650Y321474D01*
X341842Y321468D01*
Y320468D01*
X341650Y320463D01*
X341478Y320448D01*
X341326Y320424D01*
X341195Y320389D01*
X341083Y320343D01*
X340992Y320288D01*
X340921Y320223D01*
X340871Y320148D01*
X340841Y320063D01*
X340830Y319969D01*
Y321969D01*
X340841Y321873D01*
D02*
G37*
G36*
X362954Y321411D02*
X362992Y321402D01*
X363043Y321394D01*
X363190Y321382D01*
X363657Y321369D01*
X363810Y321369D01*
Y320568D01*
X363657Y320568D01*
X362954Y320526D01*
X362931Y320516D01*
Y321421D01*
X362954Y321411D01*
D02*
G37*
G36*
X340575Y324254D02*
X340581Y324193D01*
X340591Y324134D01*
X340605Y324078D01*
X340624Y324023D01*
X340647Y323971D01*
X340675Y323920D01*
X340706Y323872D01*
X340742Y323827D01*
X340783Y323783D01*
X340217Y323217D01*
X340174Y323258D01*
X340128Y323294D01*
X340080Y323325D01*
X340029Y323353D01*
X339977Y323376D01*
X339922Y323395D01*
X339866Y323409D01*
X339807Y323419D01*
X339746Y323425D01*
X339682Y323427D01*
X340573Y324318D01*
X340575Y324254D01*
D02*
G37*
G36*
X361657Y324739D02*
X361618Y324686D01*
X361584Y324628D01*
X361554Y324566D01*
X361528Y324498D01*
X361508Y324425D01*
X361492Y324347D01*
X361480Y324264D01*
X361473Y324176D01*
X361473Y324156D01*
X361475Y324072D01*
X361487Y323934D01*
X361507Y323812D01*
X361535Y323707D01*
X361571Y323618D01*
X361615Y323545D01*
X361667Y323488D01*
X361727Y323447D01*
X361795Y323423D01*
X361871Y323414D01*
X360271D01*
X360347Y323423D01*
X360415Y323447D01*
X360475Y323488D01*
X360527Y323545D01*
X360571Y323618D01*
X360607Y323707D01*
X360635Y323812D01*
X360655Y323934D01*
X360667Y324072D01*
X360669Y324156D01*
X360669Y324176D01*
X360662Y324264D01*
X360650Y324347D01*
X360634Y324425D01*
X360613Y324498D01*
X360588Y324566D01*
X360558Y324628D01*
X360524Y324686D01*
X360485Y324739D01*
X360441Y324786D01*
X361701D01*
X361657Y324739D01*
D02*
G37*
G36*
X444494Y323055D02*
X444528Y322710D01*
X444557Y322569D01*
X444595Y322451D01*
X444641Y322354D01*
X444696Y322278D01*
X444758Y322224D01*
X444830Y322192D01*
X444909Y322181D01*
X442571D01*
X442651Y322192D01*
X442722Y322224D01*
X442785Y322278D01*
X442839Y322354D01*
X442885Y322451D01*
X442923Y322569D01*
X442952Y322710D01*
X442973Y322871D01*
X442986Y323055D01*
X442990Y323260D01*
X444490D01*
X444494Y323055D01*
D02*
G37*
G36*
X418905Y324448D02*
X418930Y324380D01*
X418970Y324320D01*
X419027Y324268D01*
X419100Y324224D01*
X419190Y324188D01*
X419295Y324160D01*
X419417Y324140D01*
X419555Y324128D01*
X419709Y324124D01*
Y323324D01*
X419555Y323320D01*
X419417Y323308D01*
X419295Y323288D01*
X419190Y323260D01*
X419100Y323224D01*
X419027Y323180D01*
X418970Y323128D01*
X418930Y323068D01*
X418905Y323000D01*
X418897Y322924D01*
Y324524D01*
X418905Y324448D01*
D02*
G37*
G36*
X422583Y319713D02*
X422577Y319868D01*
X422561Y320007D01*
X422533Y320130D01*
X422495Y320237D01*
X422445Y320327D01*
X422384Y320401D01*
X422313Y320458D01*
X422230Y320499D01*
X422136Y320523D01*
X422031Y320532D01*
Y322532D01*
X422136Y322540D01*
X422230Y322564D01*
X422313Y322605D01*
X422384Y322662D01*
X422445Y322736D01*
X422495Y322826D01*
X422533Y322933D01*
X422561Y323056D01*
X422577Y323195D01*
X422583Y323350D01*
Y319713D01*
D02*
G37*
G36*
X348201Y316231D02*
X348193Y316307D01*
X348169Y316375D01*
X348128Y316436D01*
X348071Y316488D01*
X347998Y316531D01*
X347909Y316567D01*
X347803Y316596D01*
X347681Y316616D01*
X347543Y316628D01*
X347483Y316629D01*
X346813Y316589D01*
X346790Y316579D01*
Y317484D01*
X346813Y317474D01*
X346850Y317465D01*
X346902Y317457D01*
X347048Y317445D01*
X347463Y317433D01*
X347543Y317436D01*
X347681Y317447D01*
X347803Y317467D01*
X347909Y317495D01*
X347998Y317531D01*
X348071Y317576D01*
X348128Y317628D01*
X348169Y317688D01*
X348193Y317756D01*
X348201Y317831D01*
Y316231D01*
D02*
G37*
G36*
X366927Y322245D02*
X367127D01*
X367051Y322236D01*
X366983Y322212D01*
X366927Y322174D01*
Y321220D01*
X368508D01*
Y321461D01*
X371174D01*
X371185Y321455D01*
X371192Y321448D01*
X371194Y321443D01*
X371218Y321415D01*
Y321378D01*
X371225Y321341D01*
Y320969D01*
X371263Y320779D01*
X371033Y320356D01*
X370971Y320280D01*
X370273D01*
Y319337D01*
X370329Y319300D01*
X370397Y319275D01*
X370473Y319268D01*
X370273D01*
Y318000D01*
X369073D01*
Y319268D01*
X368873D01*
X368949Y319275D01*
X369017Y319300D01*
X369073Y319337D01*
Y320280D01*
X367492D01*
Y320040D01*
X364519D01*
X364357Y320192D01*
X364162Y320447D01*
X364265Y320969D01*
X364472Y321220D01*
X365727D01*
Y322174D01*
X365671Y322212D01*
X365603Y322236D01*
X365527Y322245D01*
X365727D01*
Y323500D01*
X366927D01*
Y322245D01*
D02*
G37*
G36*
X365170Y317200D02*
X365163Y317276D01*
X365143Y317344D01*
X365109Y317404D01*
X365062Y317456D01*
X365002Y317500D01*
X364929Y317536D01*
X364842Y317564D01*
X364741Y317584D01*
X364627Y317596D01*
X364500Y317600D01*
Y318400D01*
X364627Y318404D01*
X364741Y318416D01*
X364842Y318436D01*
X364929Y318464D01*
X365002Y318500D01*
X365062Y318544D01*
X365109Y318596D01*
X365143Y318656D01*
X365163Y318724D01*
X365170Y318800D01*
Y317200D01*
D02*
G37*
G36*
X341402Y315753D02*
X341409Y315665D01*
X341421Y315582D01*
X341437Y315504D01*
X341458Y315431D01*
X341483Y315364D01*
X341513Y315301D01*
X341547Y315243D01*
X341586Y315190D01*
X341630Y315143D01*
X340370D01*
X340414Y315190D01*
X340453Y315243D01*
X340487Y315301D01*
X340517Y315364D01*
X340543Y315431D01*
X340563Y315504D01*
X340579Y315582D01*
X340591Y315665D01*
X340598Y315753D01*
X340600Y315846D01*
X341400D01*
X341402Y315753D01*
D02*
G37*
G36*
X338404Y317373D02*
X338416Y317259D01*
X338436Y317159D01*
X338464Y317071D01*
X338500Y316998D01*
X338544Y316937D01*
X338596Y316891D01*
X338656Y316857D01*
X338724Y316837D01*
X338800Y316830D01*
X338605D01*
X338586Y316810D01*
X338547Y316757D01*
X338513Y316699D01*
X338483Y316636D01*
X338457Y316569D01*
X338437Y316496D01*
X338421Y316418D01*
X338409Y316335D01*
X338402Y316247D01*
X338400Y316154D01*
X337600D01*
X337598Y316247D01*
X337591Y316335D01*
X337579Y316418D01*
X337563Y316496D01*
X337543Y316569D01*
X337517Y316636D01*
X337487Y316699D01*
X337453Y316757D01*
X337414Y316810D01*
X337395Y316830D01*
X337200D01*
X337276Y316837D01*
X337344Y316857D01*
X337404Y316891D01*
X337456Y316937D01*
X337500Y316998D01*
X337536Y317071D01*
X337564Y317159D01*
X337584Y317259D01*
X337596Y317373D01*
X337600Y317500D01*
X338400D01*
X338404Y317373D01*
D02*
G37*
G36*
X357807Y319724D02*
X357831Y319656D01*
X357872Y319596D01*
X357929Y319544D01*
X358002Y319500D01*
X358091Y319464D01*
X358197Y319436D01*
X358318Y319416D01*
X358457Y319404D01*
X358517Y319402D01*
X359187Y319442D01*
X359210Y319452D01*
Y318548D01*
X359187Y318558D01*
X359150Y318567D01*
X359098Y318574D01*
X358952Y318587D01*
X358537Y318598D01*
X358457Y318596D01*
X358318Y318584D01*
X358197Y318564D01*
X358091Y318536D01*
X358002Y318500D01*
X357929Y318456D01*
X357872Y318404D01*
X357831Y318344D01*
X357807Y318276D01*
X357799Y318200D01*
Y319800D01*
X357807Y319724D01*
D02*
G37*
G36*
X355000Y319000D02*
X354357Y318370D01*
X354310Y318414D01*
X354257Y318453D01*
X354199Y318487D01*
X354136Y318517D01*
X354069Y318543D01*
X354000Y318562D01*
X353931Y318543D01*
X353864Y318517D01*
X353801Y318487D01*
X353743Y318453D01*
X353690Y318414D01*
X353643Y318370D01*
Y319630D01*
X353690Y319586D01*
X353743Y319547D01*
X353801Y319513D01*
X353864Y319483D01*
X353931Y319458D01*
X354000Y319438D01*
X354069Y319458D01*
X354136Y319483D01*
X354199Y319513D01*
X354257Y319547D01*
X354310Y319586D01*
X354357Y319630D01*
X355000Y319000D01*
D02*
G37*
G36*
X355690Y319586D02*
X355743Y319547D01*
X355801Y319513D01*
X355863Y319483D01*
X355931Y319458D01*
X356004Y319437D01*
X356082Y319421D01*
X356165Y319409D01*
X356253Y319402D01*
X356346Y319400D01*
Y318600D01*
X356253Y318598D01*
X356165Y318591D01*
X356082Y318579D01*
X356004Y318563D01*
X355931Y318543D01*
X355863Y318517D01*
X355801Y318487D01*
X355743Y318453D01*
X355690Y318414D01*
X355643Y318370D01*
X355000Y319000D01*
X355643Y319630D01*
X355690Y319586D01*
D02*
G37*
G36*
X343069Y318548D02*
X343046Y318558D01*
X343008Y318567D01*
X342957Y318574D01*
X342810Y318587D01*
X342343Y318600D01*
X342190Y318600D01*
Y319400D01*
X342343Y319401D01*
X343046Y319442D01*
X343069Y319452D01*
Y318548D01*
D02*
G37*
%LPC*%
G36*
X363727Y330900D02*
X362146D01*
Y329221D01*
X363727D01*
Y330900D01*
D02*
G37*
%LPD*%
D10*
X430173Y309000D02*
D03*
X426827D02*
D03*
X427673Y282000D02*
D03*
X424327D02*
D03*
X410673Y309000D02*
D03*
X407327D02*
D03*
X376673Y331500D02*
D03*
X373327D02*
D03*
X367673D02*
D03*
X364327D02*
D03*
X419673Y309000D02*
D03*
X416327D02*
D03*
X437673Y326000D02*
D03*
X434327D02*
D03*
X443327Y326000D02*
D03*
X446673D02*
D03*
X350173Y332500D02*
D03*
X346827D02*
D03*
X339673Y321000D02*
D03*
X336327D02*
D03*
X341173Y332500D02*
D03*
X337827D02*
D03*
X366327Y323500D02*
D03*
X369673D02*
D03*
X366327Y318000D02*
D03*
X369673D02*
D03*
X369673Y312500D02*
D03*
X366327D02*
D03*
X339673Y327000D02*
D03*
X336327D02*
D03*
X355327Y332500D02*
D03*
X358673D02*
D03*
X391827Y294500D02*
D03*
X395173D02*
D03*
X362827Y306500D02*
D03*
X366173D02*
D03*
D11*
X427146Y302500D02*
D03*
X417854D02*
D03*
D12*
X400165Y318000D02*
D03*
X390835D02*
D03*
D13*
X397500Y303173D02*
D03*
Y299827D02*
D03*
X408500D02*
D03*
Y303173D02*
D03*
X403000D02*
D03*
Y299827D02*
D03*
X392000Y303173D02*
D03*
Y299827D02*
D03*
X353500Y354173D02*
D03*
Y350827D02*
D03*
X439000Y296173D02*
D03*
Y292827D02*
D03*
X344500Y297173D02*
D03*
Y293827D02*
D03*
Y306673D02*
D03*
Y303327D02*
D03*
X340000Y303327D02*
D03*
Y306673D02*
D03*
X338000Y315673D02*
D03*
Y312327D02*
D03*
X348000Y350827D02*
D03*
Y354173D02*
D03*
X373000Y296827D02*
D03*
Y300173D02*
D03*
D14*
X378500Y364500D02*
D03*
X365500D02*
D03*
X445500Y335500D02*
D03*
X432500D02*
D03*
D15*
X431000Y357000D02*
D03*
Y344000D02*
D03*
D16*
X378000Y320657D02*
D03*
Y310343D02*
D03*
D17*
X410260Y323724D02*
D03*
X414000D02*
D03*
X417740D02*
D03*
Y314276D02*
D03*
X414000D02*
D03*
X410260D02*
D03*
X443740Y320224D02*
D03*
X440000D02*
D03*
X436260D02*
D03*
Y310776D02*
D03*
X443740D02*
D03*
D18*
X424500Y321532D02*
D03*
Y315469D02*
D03*
D19*
X371393Y340004D02*
D03*
D20*
X365389Y351185D02*
D03*
D21*
Y342563D02*
D03*
D22*
X358598Y338134D02*
D03*
Y339905D02*
D03*
Y341677D02*
D03*
Y343449D02*
D03*
Y345220D02*
D03*
Y346992D02*
D03*
Y348764D02*
D03*
Y350535D02*
D03*
Y352307D02*
D03*
Y354079D02*
D03*
X382024Y354000D02*
D03*
Y352228D02*
D03*
Y350457D02*
D03*
Y348685D02*
D03*
Y346913D02*
D03*
Y345142D02*
D03*
Y343370D02*
D03*
Y341598D02*
D03*
Y339827D02*
D03*
Y338055D02*
D03*
D23*
X361866Y355850D02*
D03*
X363637D02*
D03*
X365409D02*
D03*
X367181D02*
D03*
X368952D02*
D03*
X371393D02*
D03*
X373165D02*
D03*
X374938D02*
D03*
X376709D02*
D03*
X378481D02*
D03*
X378086Y336165D02*
D03*
X376315D02*
D03*
X374543D02*
D03*
X370331D02*
D03*
X368560D02*
D03*
X366788D02*
D03*
X365016D02*
D03*
X363245D02*
D03*
X361473D02*
D03*
D24*
X391000Y349500D02*
D03*
X417181D02*
D03*
D25*
X443032Y304500D02*
D03*
X436969D02*
D03*
X359531Y360500D02*
D03*
X353468D02*
D03*
D26*
X433709Y288161D02*
D03*
Y290721D02*
D03*
Y293280D02*
D03*
Y295839D02*
D03*
X422291Y288161D02*
D03*
Y290721D02*
D03*
Y293280D02*
D03*
Y295839D02*
D03*
D27*
X344929Y322937D02*
D03*
Y320969D02*
D03*
Y319000D02*
D03*
Y317032D02*
D03*
Y315063D02*
D03*
X361071D02*
D03*
Y317032D02*
D03*
Y319000D02*
D03*
Y320969D02*
D03*
Y322937D02*
D03*
D28*
X349063Y310929D02*
D03*
X351031D02*
D03*
X353000D02*
D03*
X354969D02*
D03*
X356937D02*
D03*
Y327071D02*
D03*
X354969D02*
D03*
X353000D02*
D03*
X351031D02*
D03*
X349063D02*
D03*
D29*
X353000Y319000D02*
D03*
D30*
X382500Y298500D02*
D03*
D31*
X378602Y301453D02*
D03*
Y299484D02*
D03*
Y297516D02*
D03*
Y295547D02*
D03*
X386398Y301453D02*
D03*
Y299484D02*
D03*
Y297516D02*
D03*
Y295547D02*
D03*
D32*
X359071Y296441D02*
D03*
Y299000D02*
D03*
Y301559D02*
D03*
X367929D02*
D03*
Y299000D02*
D03*
Y296441D02*
D03*
X350929Y344559D02*
D03*
Y342000D02*
D03*
Y339441D02*
D03*
X342071D02*
D03*
Y342000D02*
D03*
Y344559D02*
D03*
D33*
X354059Y302929D02*
D03*
X351500D02*
D03*
X348941D02*
D03*
Y294071D02*
D03*
X351500D02*
D03*
X354059D02*
D03*
D34*
X347997Y338173D02*
Y342000D01*
Y338173D02*
X348000Y338171D01*
Y336500D02*
Y338171D01*
X347997Y342000D02*
X350929D01*
X348000Y336500D02*
X349000Y335500D01*
X352986Y327085D02*
Y333789D01*
X351274Y335500D02*
X352986Y333789D01*
X349000Y335500D02*
X351274D01*
X365968Y320969D02*
X369673D01*
X361071D02*
X365968D01*
X352000Y290500D02*
X353500D01*
X351000Y288000D02*
X354500D01*
X348941Y290059D02*
X351000Y288000D01*
X358088Y305911D02*
X359500Y304500D01*
X341673Y293827D02*
X344500D01*
X342173Y297173D02*
X344500D01*
X369500Y315000D02*
X369673Y314827D01*
X348500Y300000D02*
X350500D01*
X348500D02*
X348941Y300441D01*
X369673Y312500D02*
Y314827D01*
X369673Y318000D02*
Y320969D01*
X427146Y305500D02*
X429500D01*
X425000D02*
X427146D01*
X429500D02*
X430173Y306173D01*
X427146Y302500D02*
Y305500D01*
X424500Y305000D02*
X425000Y305500D01*
X423000Y305000D02*
X424500D01*
X411500Y298440D02*
X414440D01*
X415000Y299000D01*
X418000D01*
X428000Y325000D02*
X430173Y322827D01*
Y309000D02*
Y322827D01*
Y306173D02*
Y309000D01*
X422000Y299000D02*
Y302000D01*
X421500Y302500D02*
X422000Y302000D01*
X417854Y302500D02*
X421500D01*
X418000Y299000D02*
X419161Y297839D01*
Y295839D02*
Y297839D01*
X353000Y307976D02*
X354979Y305997D01*
X355671Y307560D02*
X359440D01*
X354969Y308262D02*
X355671Y307560D01*
X354969Y308262D02*
Y310929D01*
X358085Y305911D02*
X358088D01*
X358058Y305939D02*
X358085Y305911D01*
X358009Y305939D02*
X358058D01*
X357987Y305961D02*
X358009Y305939D01*
X357927Y305961D02*
X357987D01*
X357910Y305978D02*
X357927Y305961D01*
X357839Y305978D02*
X357910D01*
X357827Y305990D02*
X357839Y305978D01*
X357747Y305990D02*
X357827D01*
X357739Y305997D02*
X357747Y305990D01*
X354979Y305997D02*
X357739D01*
X365371Y293128D02*
X366371D01*
X362059Y296441D02*
X365371Y293128D01*
X366371D02*
X368500Y291000D01*
X354130Y294000D02*
X361500D01*
X368500Y291000D02*
X372000D01*
X358000Y280500D02*
X363500D01*
X355500Y283000D02*
X358000Y280500D01*
X348941Y290059D02*
Y294071D01*
X359071Y296441D02*
X362059D01*
X371240Y294486D02*
X374760D01*
X370561Y295165D02*
X371240Y294486D01*
X370561Y295165D02*
Y296370D01*
X368000D02*
X370561D01*
X354500Y288000D02*
X355500Y287000D01*
X341000Y314500D02*
Y318226D01*
Y314500D02*
X342000D01*
X342563Y315063D01*
X344929D01*
X344500Y310000D02*
Y311000D01*
X343173Y312327D02*
X344500Y311000D01*
X345500Y307000D02*
X347500Y309000D01*
X345500Y307000D02*
X345500D01*
X341500Y312327D02*
X343173D01*
X347500Y309000D02*
Y310500D01*
X347929Y310929D01*
X405514Y297486D02*
X407660Y295340D01*
Y276840D02*
Y295340D01*
Y276840D02*
X408500Y276000D01*
X339673Y324327D02*
X340500Y323500D01*
X342000D01*
X342563Y322937D01*
X344929D01*
X339673Y324327D02*
Y327000D01*
X392000Y299827D02*
X397500D01*
X403000D02*
X408500D01*
X401173D02*
X403000D01*
X400500Y300500D02*
X401173Y299827D01*
X400500Y300500D02*
Y302000D01*
X399327Y303173D02*
X400500Y302000D01*
X397500Y303173D02*
X399327D01*
X411827D02*
X413000Y302000D01*
X408500Y303173D02*
X411827D01*
X422000Y325000D02*
X428000D01*
X420724Y323724D02*
X422000Y325000D01*
X417740Y323724D02*
X420724D01*
X368560Y336165D02*
Y339393D01*
X363245Y336165D02*
Y340418D01*
X373327Y331500D02*
Y334327D01*
X374543Y335543D01*
Y336165D01*
X366788Y332386D02*
Y336165D01*
Y332386D02*
X367673Y331500D01*
X417740Y312260D02*
Y314276D01*
Y312260D02*
X419673Y310327D01*
Y309000D02*
Y310327D01*
Y309000D02*
X422000D01*
X446673Y326000D02*
X449000D01*
X437173Y292827D02*
X439000D01*
X436721Y293280D02*
X437173Y292827D01*
X434209Y293280D02*
X436721D01*
X439000Y292827D02*
X441327D01*
X430780Y290721D02*
X434209D01*
X430500Y291000D02*
X430780Y290721D01*
X430661Y288161D02*
X434209D01*
X422791D02*
X425839D01*
X426000Y288000D01*
X426221Y290721D02*
X426500Y291000D01*
X422791Y293280D02*
X426221D01*
X426500Y293000D01*
Y291000D02*
Y293000D01*
X351500Y294071D02*
Y296500D01*
X364327Y331500D02*
Y333173D01*
X365016Y334912D02*
X366328Y333600D01*
X365016Y334912D02*
Y336165D01*
X363245Y334256D02*
Y336165D01*
Y334256D02*
X364327Y333173D01*
X344500Y332500D02*
X346827D01*
X344929Y317032D02*
X351031D01*
X341000Y318226D02*
X341774Y319000D01*
X344929D01*
X366000Y309500D02*
X366327Y309827D01*
Y312500D01*
X356937Y315063D02*
X361071D01*
X353000Y319000D02*
X361071D01*
X354969Y320969D02*
X361071D01*
X365968D02*
X366327Y321327D01*
Y323500D01*
X361071Y317032D02*
X363531D01*
X364500Y318000D01*
X366327D01*
X353000Y307976D02*
Y310929D01*
X356937D02*
X359071D01*
X360500Y309500D01*
X366000D01*
X359440Y307560D02*
X359500Y307500D01*
X338000Y315673D02*
Y317500D01*
X340000Y306673D02*
Y308000D01*
X341500Y309500D01*
Y312327D01*
X338000D02*
X341500D01*
X340000Y303327D02*
X344500D01*
X336327Y321000D02*
Y327000D01*
Y328827D01*
X337827Y330327D01*
Y332500D01*
X354220Y345220D02*
X358598D01*
X354969Y327071D02*
Y329969D01*
X355327Y330327D02*
Y332500D01*
X354969Y329969D02*
X355327Y330327D01*
X352986Y327085D02*
X353000Y327071D01*
X344941Y339441D02*
X345500Y340000D01*
X342071Y339441D02*
X344941D01*
X342071Y344559D02*
X345441D01*
X345500Y340000D02*
Y346000D01*
X361071Y322937D02*
Y325429D01*
X361000Y325500D02*
X361071Y325429D01*
X350929Y344559D02*
X353441D01*
X345500Y346000D02*
X346492Y346992D01*
X355595Y339905D02*
X358598D01*
X353441Y344559D02*
X353500Y344500D01*
X354220Y345220D01*
X348000Y346992D02*
Y348500D01*
Y350827D01*
X346492Y346992D02*
X348000D01*
X358598D01*
X348000Y354173D02*
Y358500D01*
X348941Y300441D02*
Y302929D01*
X351500D02*
Y304000D01*
X350827Y297173D02*
X351500Y296500D01*
X347929Y310929D02*
X349063D01*
X350000Y307000D02*
X351031Y308032D01*
Y310929D01*
X344500Y297173D02*
X350827D01*
X349000Y307000D02*
X350000D01*
X350500Y300000D02*
X351500Y299000D01*
X354059Y291059D02*
Y294071D01*
X377500Y297516D02*
X378602D01*
X373000Y296827D02*
X375903D01*
X376591Y297516D01*
X376516Y299484D02*
X378602D01*
X376000Y300000D02*
X376516Y299484D01*
X376591Y297516D02*
X378602D01*
X351500Y299000D02*
X355500D01*
X367929Y296441D02*
X368000Y296370D01*
X374760Y294486D02*
X374774Y294500D01*
X376000D01*
X377047Y295547D01*
X378602D01*
X371173Y300173D02*
X373000D01*
X367929Y299000D02*
X370000D01*
X371173Y300173D01*
X367929Y299000D02*
Y301559D01*
X362827Y299827D02*
Y306500D01*
X362000Y299000D02*
X362827Y299827D01*
X359071Y299000D02*
X362000D01*
X356619Y301559D02*
X359071D01*
X356000Y300940D02*
X356619Y301559D01*
X356000Y299500D02*
Y300940D01*
X355500Y299000D02*
X356000Y299500D01*
X363500Y280500D02*
X365000Y282000D01*
Y285000D01*
X353500Y290500D02*
X354059Y291059D01*
X355500Y283000D02*
Y287000D01*
X378602Y301453D02*
Y302898D01*
X386398Y297516D02*
X388016D01*
X388500Y298000D01*
X388453Y301453D02*
X388500Y301500D01*
X386398Y301453D02*
X388453D01*
X386398Y299484D02*
X388234D01*
X388500Y298000D02*
Y301500D01*
X391827Y294500D02*
Y296327D01*
X390000Y294500D02*
X391827D01*
X386398Y295547D02*
X388953D01*
X390000Y294500D01*
X422291Y290721D02*
X426221D01*
X419721Y293280D02*
X422291D01*
X418871Y294128D02*
X419721Y293280D01*
X416500Y291000D02*
Y294128D01*
X418871D01*
X416500D02*
Y296500D01*
X419161Y295839D02*
X422291D01*
X411500Y291000D02*
X413000Y292500D01*
X430500Y288000D02*
X430661Y288161D01*
X413000Y301000D02*
Y302000D01*
X426000Y287000D02*
Y288000D01*
X411500Y291000D02*
Y298440D01*
X397500Y297486D02*
Y299827D01*
X416500Y276500D02*
Y281000D01*
X416000Y276000D02*
X416500Y276500D01*
X397500Y297486D02*
X405514D01*
X408500Y276000D02*
X416000D01*
X376000Y291000D02*
X403500D01*
X404000Y291500D01*
Y293500D01*
D35*
X354000Y337500D02*
X355490Y336010D01*
X358673Y332500D02*
Y335327D01*
X357990Y336010D02*
X358673Y335327D01*
X355490Y336010D02*
X357990D01*
X356449Y343449D02*
X358598D01*
X358673Y330673D02*
Y332500D01*
X358000Y330000D02*
X358673Y330673D01*
X357500Y330000D02*
X358000D01*
X356937Y329437D02*
X357500Y330000D01*
X356937Y327071D02*
Y329437D01*
X355500Y342500D02*
X356449Y343449D01*
D36*
X424327Y282000D02*
Y283827D01*
X416500Y286000D02*
X419000D01*
X421000Y284000D01*
Y283000D02*
Y284000D01*
Y283000D02*
X422000Y282000D01*
X424327D01*
X437673Y326000D02*
X443327D01*
X443327Y326000D01*
Y323673D02*
Y326000D01*
X443740Y320224D02*
Y323260D01*
X443327Y323673D02*
X443740Y323260D01*
X432500Y326000D02*
X432500Y326000D01*
X434327D01*
D37*
X422031Y321532D02*
X424500D01*
X420496Y319996D02*
X422031Y321532D01*
X414504Y319996D02*
X420496D01*
X414000Y320500D02*
X414504Y319996D01*
X414000Y320500D02*
Y323724D01*
X424500Y321532D02*
X427468D01*
X373000Y318500D02*
X374000Y319500D01*
D38*
X378000Y310126D02*
Y310343D01*
D39*
X353736Y348764D02*
X358598D01*
X353500Y349000D02*
Y350827D01*
X341173Y330327D02*
Y332500D01*
Y330327D02*
X342000Y329500D01*
X348000D01*
X349063Y328437D01*
Y327071D02*
Y328437D01*
X351031Y327071D02*
Y329468D01*
X350173Y330327D02*
X351031Y329468D01*
X350173Y330327D02*
Y332500D01*
X339705Y320969D02*
X344929D01*
X339673Y321000D02*
X339705Y320969D01*
D40*
X365000Y290000D02*
D03*
Y285000D02*
D03*
X360000Y290000D02*
D03*
X416500Y281000D02*
D03*
X411500D02*
D03*
X416500Y286000D02*
D03*
X411500D02*
D03*
X416500Y291000D02*
D03*
D41*
X360000Y285000D02*
D03*
D42*
X411500Y291000D02*
D03*
D43*
X409000Y336500D02*
D03*
Y338500D02*
D03*
X407000D02*
D03*
X345500Y339500D02*
D03*
X342000Y342000D02*
D03*
X340500Y349500D02*
D03*
X433000Y361000D02*
D03*
X431000D02*
D03*
X439000Y359000D02*
D03*
X354000Y337500D02*
D03*
X342500Y349500D02*
D03*
Y351500D02*
D03*
X340500D02*
D03*
X361500Y330000D02*
D03*
X374500Y338500D02*
D03*
Y340500D02*
D03*
Y342500D02*
D03*
X376500Y338500D02*
D03*
X378500D02*
D03*
X376500Y340500D02*
D03*
X378500D02*
D03*
X376500Y342500D02*
D03*
X378500D02*
D03*
X370500Y308929D02*
D03*
X352000Y290500D02*
D03*
X362500Y307000D02*
D03*
X359500Y304500D02*
D03*
X341673Y293827D02*
D03*
X342173Y297173D02*
D03*
X369500Y312500D02*
D03*
X348500Y300000D02*
D03*
X344500Y303500D02*
D03*
X351500Y305000D02*
D03*
X363000Y312500D02*
D03*
X427000Y310000D02*
D03*
X423000Y305000D02*
D03*
X422000Y299000D02*
D03*
X417827Y302500D02*
D03*
X436000Y310000D02*
D03*
Y308000D02*
D03*
X399000Y368500D02*
D03*
X401000D02*
D03*
Y366500D02*
D03*
X399000D02*
D03*
Y364500D02*
D03*
X401000D02*
D03*
Y362500D02*
D03*
X399000D02*
D03*
Y360500D02*
D03*
X401000D02*
D03*
X403000D02*
D03*
Y362500D02*
D03*
Y364500D02*
D03*
Y366500D02*
D03*
Y368500D02*
D03*
X405000D02*
D03*
Y366500D02*
D03*
Y364500D02*
D03*
Y362500D02*
D03*
Y360500D02*
D03*
X407000D02*
D03*
Y362500D02*
D03*
Y364500D02*
D03*
X409000D02*
D03*
Y362500D02*
D03*
Y360500D02*
D03*
Y358500D02*
D03*
X407000D02*
D03*
X405000D02*
D03*
X403000D02*
D03*
X401000D02*
D03*
X399000D02*
D03*
X361500Y294000D02*
D03*
X372000Y291000D02*
D03*
X341000Y314500D02*
D03*
X449500Y337500D02*
D03*
X433000Y359000D02*
D03*
X431000D02*
D03*
X425000D02*
D03*
Y361000D02*
D03*
Y367000D02*
D03*
Y369000D02*
D03*
X431000Y367000D02*
D03*
X344500Y310000D02*
D03*
X424327Y283827D02*
D03*
X339673Y324327D02*
D03*
X378000Y352500D02*
D03*
X366500Y356500D02*
D03*
X368500D02*
D03*
X364500D02*
D03*
X362500D02*
D03*
X369000Y375500D02*
D03*
X371000Y377500D02*
D03*
Y375500D02*
D03*
X375000Y373500D02*
D03*
X377000D02*
D03*
X379000D02*
D03*
X381000D02*
D03*
X383000D02*
D03*
X449500Y335500D02*
D03*
Y333500D02*
D03*
Y331500D02*
D03*
X447500Y343500D02*
D03*
Y341500D02*
D03*
Y339500D02*
D03*
Y337500D02*
D03*
Y335500D02*
D03*
Y333500D02*
D03*
Y331500D02*
D03*
X443500Y347500D02*
D03*
Y345500D02*
D03*
Y343500D02*
D03*
Y341500D02*
D03*
Y339500D02*
D03*
Y337500D02*
D03*
Y335500D02*
D03*
Y333500D02*
D03*
Y331500D02*
D03*
X445500D02*
D03*
Y333500D02*
D03*
Y335500D02*
D03*
Y337500D02*
D03*
Y339500D02*
D03*
Y341500D02*
D03*
Y343500D02*
D03*
Y345500D02*
D03*
Y347500D02*
D03*
Y349500D02*
D03*
X443500D02*
D03*
Y351500D02*
D03*
X376000Y352500D02*
D03*
X374000D02*
D03*
X372000D02*
D03*
Y350500D02*
D03*
X374000D02*
D03*
X376000D02*
D03*
X378000D02*
D03*
Y348500D02*
D03*
X376000D02*
D03*
X374000D02*
D03*
X372000D02*
D03*
Y346500D02*
D03*
X374000D02*
D03*
X376000D02*
D03*
X378000D02*
D03*
Y344500D02*
D03*
X376000D02*
D03*
X374000D02*
D03*
X372000D02*
D03*
X362500Y370500D02*
D03*
X364500D02*
D03*
X366500D02*
D03*
X368500D02*
D03*
X370500D02*
D03*
Y368500D02*
D03*
X368500D02*
D03*
X366500D02*
D03*
X364500D02*
D03*
X362500D02*
D03*
Y366500D02*
D03*
X364500D02*
D03*
X366500D02*
D03*
X368500D02*
D03*
X370500D02*
D03*
Y364500D02*
D03*
X368500D02*
D03*
X366500D02*
D03*
X364500D02*
D03*
X362500D02*
D03*
Y362500D02*
D03*
X364500D02*
D03*
X366500D02*
D03*
X368500D02*
D03*
X370500D02*
D03*
Y360500D02*
D03*
X368500D02*
D03*
X366500D02*
D03*
X364500D02*
D03*
X362500D02*
D03*
Y358500D02*
D03*
X364500D02*
D03*
X366500D02*
D03*
X368500D02*
D03*
Y348000D02*
D03*
X366500D02*
D03*
X364500D02*
D03*
X362500D02*
D03*
Y354000D02*
D03*
X364500D02*
D03*
X366500D02*
D03*
X368500D02*
D03*
Y352000D02*
D03*
X366500D02*
D03*
X364500D02*
D03*
X362500D02*
D03*
Y350000D02*
D03*
X364500D02*
D03*
X366500D02*
D03*
X368500D02*
D03*
X385000Y381500D02*
D03*
X383000D02*
D03*
X385000Y379500D02*
D03*
X383000D02*
D03*
X387000D02*
D03*
Y381500D02*
D03*
X389000D02*
D03*
Y379500D02*
D03*
X391000D02*
D03*
Y381500D02*
D03*
X393000D02*
D03*
Y379500D02*
D03*
X381000Y381500D02*
D03*
Y379500D02*
D03*
X379000D02*
D03*
Y377500D02*
D03*
X383000D02*
D03*
X381000D02*
D03*
X385000D02*
D03*
X387000D02*
D03*
X389000D02*
D03*
X391000D02*
D03*
X393000D02*
D03*
X395000Y381500D02*
D03*
Y379500D02*
D03*
Y377500D02*
D03*
Y375500D02*
D03*
X393000D02*
D03*
X391000D02*
D03*
X389000D02*
D03*
X387000D02*
D03*
X383000D02*
D03*
X381000D02*
D03*
X379000D02*
D03*
X377000Y379500D02*
D03*
Y377500D02*
D03*
Y375500D02*
D03*
X375000D02*
D03*
Y377500D02*
D03*
Y379500D02*
D03*
X397000Y381500D02*
D03*
Y379500D02*
D03*
Y377500D02*
D03*
Y375500D02*
D03*
X399000D02*
D03*
Y377500D02*
D03*
Y379500D02*
D03*
Y381500D02*
D03*
X401000Y379500D02*
D03*
Y377500D02*
D03*
Y375500D02*
D03*
X403000D02*
D03*
Y377500D02*
D03*
Y379500D02*
D03*
X405000D02*
D03*
Y377500D02*
D03*
Y375500D02*
D03*
X368000Y345000D02*
D03*
X366000D02*
D03*
X364000D02*
D03*
Y343000D02*
D03*
X366000D02*
D03*
X368000D02*
D03*
Y341000D02*
D03*
X366000D02*
D03*
X364000D02*
D03*
X427000Y361000D02*
D03*
X429000D02*
D03*
X435000D02*
D03*
X427000Y363000D02*
D03*
X429000D02*
D03*
X431000D02*
D03*
X433000D02*
D03*
X427000Y365000D02*
D03*
X429000D02*
D03*
X431000D02*
D03*
X429000Y367000D02*
D03*
X427000D02*
D03*
Y369000D02*
D03*
X429000D02*
D03*
X435000Y359000D02*
D03*
X429000D02*
D03*
X427000D02*
D03*
Y357000D02*
D03*
X429000D02*
D03*
X431000D02*
D03*
X433000D02*
D03*
X435000D02*
D03*
Y355000D02*
D03*
X433000D02*
D03*
X431000D02*
D03*
X429000D02*
D03*
X427000D02*
D03*
X437000D02*
D03*
Y357000D02*
D03*
Y359000D02*
D03*
Y361000D02*
D03*
X435000Y363000D02*
D03*
X433000Y365000D02*
D03*
X439000Y355000D02*
D03*
Y357000D02*
D03*
X352000Y364500D02*
D03*
X350000D02*
D03*
Y362500D02*
D03*
X352000D02*
D03*
Y360500D02*
D03*
X350000D02*
D03*
X348000D02*
D03*
Y362500D02*
D03*
Y358500D02*
D03*
X350000D02*
D03*
X352000D02*
D03*
X409000Y340500D02*
D03*
X407000D02*
D03*
X405000D02*
D03*
X409000Y342500D02*
D03*
X407000D02*
D03*
X405000D02*
D03*
Y344500D02*
D03*
X407000D02*
D03*
X409000D02*
D03*
Y346500D02*
D03*
X407000D02*
D03*
X405000D02*
D03*
X403000D02*
D03*
Y344500D02*
D03*
Y340500D02*
D03*
Y342500D02*
D03*
X409000Y348500D02*
D03*
X407000D02*
D03*
X405000D02*
D03*
X403000D02*
D03*
Y350500D02*
D03*
X405000D02*
D03*
X407000D02*
D03*
X409000D02*
D03*
X407000Y352500D02*
D03*
X405000D02*
D03*
X403000D02*
D03*
Y354500D02*
D03*
X405000D02*
D03*
X407000D02*
D03*
X409000D02*
D03*
Y356500D02*
D03*
X407000D02*
D03*
X405000D02*
D03*
X403000D02*
D03*
X409000Y352500D02*
D03*
X401000Y356500D02*
D03*
Y354500D02*
D03*
Y352500D02*
D03*
Y350500D02*
D03*
Y348500D02*
D03*
Y346500D02*
D03*
Y344500D02*
D03*
Y342500D02*
D03*
Y340500D02*
D03*
X399000Y356500D02*
D03*
Y354500D02*
D03*
Y352500D02*
D03*
Y350500D02*
D03*
Y348500D02*
D03*
Y346500D02*
D03*
Y344500D02*
D03*
Y342500D02*
D03*
Y340500D02*
D03*
X379000Y327000D02*
D03*
X436500Y331000D02*
D03*
X422000Y309000D02*
D03*
X414000Y307000D02*
D03*
Y309000D02*
D03*
Y311000D02*
D03*
X418000Y306000D02*
D03*
X427468Y321532D02*
D03*
X427000Y312000D02*
D03*
X425000D02*
D03*
Y310000D02*
D03*
X441000Y355000D02*
D03*
X425000Y365000D02*
D03*
Y363000D02*
D03*
Y357000D02*
D03*
Y355000D02*
D03*
X449000Y326000D02*
D03*
X434000Y310000D02*
D03*
Y308000D02*
D03*
X439500Y300500D02*
D03*
Y298500D02*
D03*
X437500Y300500D02*
D03*
Y298500D02*
D03*
X401000Y381500D02*
D03*
X403000D02*
D03*
X373000Y377500D02*
D03*
Y375500D02*
D03*
X407000Y379500D02*
D03*
Y377500D02*
D03*
Y375500D02*
D03*
X409000D02*
D03*
Y377500D02*
D03*
Y379500D02*
D03*
X411000Y375500D02*
D03*
Y377500D02*
D03*
X385000Y375500D02*
D03*
X436500Y323000D02*
D03*
X413000Y375500D02*
D03*
Y373500D02*
D03*
X415000D02*
D03*
Y375500D02*
D03*
X417000D02*
D03*
Y373500D02*
D03*
X419000D02*
D03*
Y375500D02*
D03*
X421000Y373500D02*
D03*
X411000D02*
D03*
X441327Y292827D02*
D03*
X430500Y291000D02*
D03*
X411000Y379500D02*
D03*
X413000Y377500D02*
D03*
X415000D02*
D03*
X417000D02*
D03*
X405000Y381500D02*
D03*
X423000Y373500D02*
D03*
X419000Y371500D02*
D03*
X425000Y371000D02*
D03*
X421000Y371500D02*
D03*
X423000D02*
D03*
X417000D02*
D03*
X415000D02*
D03*
X413000D02*
D03*
X411000D02*
D03*
X427000Y371000D02*
D03*
X373000Y318500D02*
D03*
X379000Y310000D02*
D03*
Y308000D02*
D03*
X377000Y310000D02*
D03*
Y308000D02*
D03*
X341173Y332500D02*
D03*
X344500D02*
D03*
X353000Y319000D02*
D03*
X351000D02*
D03*
X353000Y317000D02*
D03*
X369500Y323500D02*
D03*
X338000Y317500D02*
D03*
X336327Y327000D02*
D03*
X355000Y319000D02*
D03*
X350173Y332500D02*
D03*
X355327Y332500D02*
D03*
X361071Y325429D02*
D03*
X353000Y321000D02*
D03*
X355595Y339905D02*
D03*
X355500Y342500D02*
D03*
X353500Y344500D02*
D03*
X359500Y307500D02*
D03*
X350929Y339441D02*
D03*
X348000Y348500D02*
D03*
X349000Y307000D02*
D03*
X354000Y301500D02*
D03*
X376000Y300000D02*
D03*
X378500Y303000D02*
D03*
X388500Y301500D02*
D03*
X382500Y300500D02*
D03*
X391827Y296327D02*
D03*
X376000Y291000D02*
D03*
X416500Y296500D02*
D03*
X432500Y326000D02*
D03*
X430500Y288000D02*
D03*
X413000Y301000D02*
D03*
X426000Y287000D02*
D03*
X411500Y298440D02*
D03*
X404000Y293500D02*
D03*
X398500D02*
D03*
X382500Y296000D02*
D03*
X354000Y364500D02*
D03*
Y362500D02*
D03*
Y360500D02*
D03*
Y358500D02*
D03*
%TF.MD5,EA7C5093D490EA4EA6BF0FF0166238C2*%
M02*
