G04 Layer_Color=16711935*
%FSLAX25Y25*%
%MOIN*%
%TF.FileFunction,Soldermask,Bot*%
%TF.Part,Single*%
G01*
G75*
%TA.AperFunction,SMDPad*%
%ADD76R,0.02762X0.02959*%
%TA.AperFunction,SMDPad*%
%ADD77R,0.04737X0.04068*%
%TA.AperFunction,SMDPad*%
%ADD79R,0.02959X0.02762*%
%TA.AperFunction,SMDPad*%
%ADD99R,0.01969X0.03937*%
%TA.AperFunction,ViaPad*%
%ADD100C,0.04737*%
%TA.AperFunction,ViaPad*%
%ADD101R,0.04737X0.04737*%
%TA.AperFunction,ViaPad*%
%ADD102R,0.04737X0.04737*%
%ADD118C,0.05906*%
%ADD119R,0.12205X0.06299*%
%ADD120R,0.12205X0.12205*%
%TA.AperFunction,SMDPad*%
%ADD121R,0.10052X0.13398*%
%TA.AperFunction,SMDPad*%
%ADD122R,0.13398X0.10052*%
%TA.AperFunction,ConnectorPad*%
%ADD123C,0.31890*%
%TA.AperFunction,SMDPad*%
%ADD124R,0.01969X0.06890*%
%TA.AperFunction,SMDPad*%
%ADD125R,0.10236X0.06890*%
%TA.AperFunction,SMDPad*%
%ADD126R,0.04343X0.05721*%
D76*
X417827Y302500D02*
D03*
X421173D02*
D03*
X417792Y308992D02*
D03*
X421138D02*
D03*
X375673Y314000D02*
D03*
X372327D02*
D03*
X356673Y345500D02*
D03*
X353327D02*
D03*
D77*
X357631Y332500D02*
D03*
X348340D02*
D03*
D79*
X359500Y304327D02*
D03*
Y307673D02*
D03*
X354000Y316673D02*
D03*
Y313327D02*
D03*
X359500Y313327D02*
D03*
Y316673D02*
D03*
X353500Y350827D02*
D03*
Y354173D02*
D03*
X344000Y313327D02*
D03*
Y316673D02*
D03*
D99*
X367941Y308929D02*
D03*
X370500D02*
D03*
X373059D02*
D03*
Y300071D02*
D03*
X370500D02*
D03*
X367941D02*
D03*
D100*
X365000Y290000D02*
D03*
Y285000D02*
D03*
X360000Y290000D02*
D03*
X416500Y281000D02*
D03*
X411500D02*
D03*
X416500Y286000D02*
D03*
X411500D02*
D03*
X416500Y291000D02*
D03*
D101*
X360000Y285000D02*
D03*
D102*
X411500Y291000D02*
D03*
D118*
X342017Y292208D02*
G03*
X372703Y378330I50562J30512D01*
G01*
X353778Y367240D02*
G03*
X340060Y349726I38801J-44519D01*
G01*
D119*
X415602Y337650D02*
D03*
D120*
Y321898D02*
D03*
D121*
X393894Y354500D02*
D03*
X418106D02*
D03*
D122*
X373500Y339894D02*
D03*
Y364106D02*
D03*
D123*
X392579Y322721D02*
D03*
D124*
X435799Y317799D02*
D03*
Y343000D02*
D03*
D125*
X429106Y317800D02*
D03*
Y343000D02*
D03*
D126*
X395437Y370500D02*
D03*
X387563D02*
D03*
X408937D02*
D03*
X401063D02*
D03*
%TF.MD5,0F3343BA3C796FE5E31A25B2C108A351*%
M02*
