G04 Layer_Color=255*
%FSLAX25Y25*%
%MOIN*%
%TF.FileFunction,Pads,Bot*%
%TF.Part,Single*%
G01*
G75*
%TA.AperFunction,SMDPad*%
%ADD12R,0.01575X0.03543*%
%TA.AperFunction,SMDPad*%
%ADD14R,0.02362X0.02559*%
%TA.AperFunction,SMDPad*%
%ADD17R,0.02559X0.02362*%
%TA.AperFunction,SMDPad*%
%ADD33R,0.03937X0.03268*%
%TA.AperFunction,ViaPad*%
%ADD41R,0.03937X0.03937*%
%TA.AperFunction,ViaPad*%
%ADD42C,0.03937*%
%TA.AperFunction,ViaPad*%
%ADD43R,0.03937X0.03937*%
%TA.AperFunction,SMDPad*%
%ADD60R,0.03543X0.04921*%
%TA.AperFunction,SMDPad*%
%ADD61R,0.09843X0.06496*%
%TA.AperFunction,SMDPad*%
%ADD62R,0.01575X0.06496*%
%TA.AperFunction,ConnectorPad*%
%ADD63C,0.31496*%
%TA.AperFunction,SMDPad*%
%ADD64R,0.12598X0.09252*%
%TA.AperFunction,SMDPad*%
%ADD65R,0.09252X0.12598*%
D12*
X367941Y300071D02*
D03*
X370500D02*
D03*
X373059D02*
D03*
Y308929D02*
D03*
X370500D02*
D03*
X367941D02*
D03*
D14*
X353327Y345500D02*
D03*
X356673D02*
D03*
X372327Y314000D02*
D03*
X375673D02*
D03*
X421138Y308992D02*
D03*
X417792D02*
D03*
X421173Y302500D02*
D03*
X417827D02*
D03*
D17*
X422073Y292227D02*
D03*
Y295573D02*
D03*
X344000Y316673D02*
D03*
Y313327D02*
D03*
X353500Y354173D02*
D03*
Y350827D02*
D03*
X359500Y316673D02*
D03*
Y313327D02*
D03*
X354000Y313327D02*
D03*
Y316673D02*
D03*
X359500Y307673D02*
D03*
Y304327D02*
D03*
D33*
X348340Y332500D02*
D03*
X357631D02*
D03*
D41*
X411500Y291000D02*
D03*
D42*
X416500D02*
D03*
X411500Y286000D02*
D03*
X416500D02*
D03*
X411500Y281000D02*
D03*
X416500D02*
D03*
X360000Y290000D02*
D03*
X365000Y285000D02*
D03*
Y290000D02*
D03*
D43*
X360000Y285000D02*
D03*
D60*
X401063Y370500D02*
D03*
X408937D02*
D03*
X387563D02*
D03*
X395437D02*
D03*
D61*
X429106Y343000D02*
D03*
Y317800D02*
D03*
D62*
X435799Y343000D02*
D03*
Y317799D02*
D03*
D63*
X392579Y322721D02*
D03*
D64*
X373500Y364106D02*
D03*
Y339894D02*
D03*
D65*
X418106Y354500D02*
D03*
X393894D02*
D03*
%TF.MD5,E4226AF34ADF51999A7CCA6E3DE8F150*%
M02*
