G04 Layer_Color=255*
%FSLAX25Y25*%
%MOIN*%
%TF.FileFunction,Pads,Bot*%
%TF.Part,Single*%
G01*
G75*
%TA.AperFunction,SMDPad*%
%ADD10R,0.02362X0.02559*%
%TA.AperFunction,SMDPad*%
%ADD11R,0.03937X0.03268*%
%TA.AperFunction,SMDPad*%
%ADD13R,0.02559X0.02362*%
%TA.AperFunction,SMDPad*%
%ADD33R,0.01575X0.03543*%
%TA.AperFunction,ViaPad*%
%ADD40C,0.03937*%
%TA.AperFunction,ViaPad*%
%ADD41R,0.03937X0.03937*%
%TA.AperFunction,ViaPad*%
%ADD42R,0.03937X0.03937*%
%TA.AperFunction,SMDPad*%
%ADD54R,0.09252X0.12598*%
%TA.AperFunction,SMDPad*%
%ADD55R,0.12598X0.09252*%
%TA.AperFunction,ConnectorPad*%
%ADD56C,0.31496*%
%TA.AperFunction,SMDPad*%
%ADD57R,0.01575X0.06496*%
%TA.AperFunction,SMDPad*%
%ADD58R,0.09843X0.06496*%
%TA.AperFunction,SMDPad*%
%ADD59R,0.03543X0.04921*%
D10*
X417827Y302500D02*
D03*
X421173D02*
D03*
X417792Y308992D02*
D03*
X421138D02*
D03*
X375673Y314000D02*
D03*
X372327D02*
D03*
X356673Y345500D02*
D03*
X353327D02*
D03*
D11*
X357631Y332500D02*
D03*
X348340D02*
D03*
D13*
X359500Y304327D02*
D03*
Y307673D02*
D03*
X354000Y316673D02*
D03*
Y313327D02*
D03*
X359500Y313327D02*
D03*
Y316673D02*
D03*
X353500Y350827D02*
D03*
Y354173D02*
D03*
X344000Y313327D02*
D03*
Y316673D02*
D03*
D33*
X367941Y308929D02*
D03*
X370500D02*
D03*
X373059D02*
D03*
Y300071D02*
D03*
X370500D02*
D03*
X367941D02*
D03*
D40*
X365000Y290000D02*
D03*
Y285000D02*
D03*
X360000Y290000D02*
D03*
X416500Y281000D02*
D03*
X411500D02*
D03*
X416500Y286000D02*
D03*
X411500D02*
D03*
X416500Y291000D02*
D03*
D41*
X360000Y285000D02*
D03*
D42*
X411500Y291000D02*
D03*
D54*
X393894Y354500D02*
D03*
X418106D02*
D03*
D55*
X373500Y339894D02*
D03*
Y364106D02*
D03*
D56*
X392579Y322721D02*
D03*
D57*
X435799Y317799D02*
D03*
Y343000D02*
D03*
D58*
X429106Y317800D02*
D03*
Y343000D02*
D03*
D59*
X395437Y370500D02*
D03*
X387563D02*
D03*
X408937D02*
D03*
X401063D02*
D03*
%TF.MD5,1D1462790F925DCB7811A0A6B5E641AA*%
M02*
