G04 Layer_Color=128*
%FSLAX25Y25*%
%MOIN*%
%TF.FileFunction,Drillmap*%
%TF.Part,Single*%
G01*
G75*
%ADD63C,0.00500*%
D63*
X363819Y290000D02*
X366181D01*
X365000Y288819D02*
Y291181D01*
X363819Y285000D02*
X366181D01*
X365000Y283819D02*
Y286181D01*
X358819Y290000D02*
X361181D01*
X360000Y288819D02*
Y291181D01*
X358819Y285000D02*
X361181D01*
X360000Y283819D02*
Y286181D01*
X415319Y281000D02*
X417681D01*
X416500Y279819D02*
Y282181D01*
X410319Y281000D02*
X412681D01*
X411500Y279819D02*
Y282181D01*
X415319Y286000D02*
X417681D01*
X416500Y284819D02*
Y287181D01*
X410319Y286000D02*
X412681D01*
X411500Y284819D02*
Y287181D01*
X415319Y291000D02*
X417681D01*
X416500Y289819D02*
Y292181D01*
X410319Y291000D02*
X412681D01*
X411500Y289819D02*
Y292181D01*
X408500Y336500D02*
X409500D01*
X409000Y336000D02*
Y337000D01*
X408500Y338500D02*
X409500D01*
X409000Y338000D02*
Y339000D01*
X406500Y338500D02*
X407500D01*
X407000Y338000D02*
Y339000D01*
X345000Y339500D02*
X346000D01*
X345500Y339000D02*
Y340000D01*
X341500Y342000D02*
X342500D01*
X342000Y341500D02*
Y342500D01*
X340000Y349500D02*
X341000D01*
X340500Y349000D02*
Y350000D01*
X432500Y361000D02*
X433500D01*
X433000Y360500D02*
Y361500D01*
X430500Y361000D02*
X431500D01*
X431000Y360500D02*
Y361500D01*
X438500Y359000D02*
X439500D01*
X439000Y358500D02*
Y359500D01*
X353500Y337500D02*
X354500D01*
X354000Y337000D02*
Y338000D01*
X342000Y349500D02*
X343000D01*
X342500Y349000D02*
Y350000D01*
X342000Y351500D02*
X343000D01*
X342500Y351000D02*
Y352000D01*
X340000Y351500D02*
X341000D01*
X340500Y351000D02*
Y352000D01*
X361000Y330000D02*
X362000D01*
X361500Y329500D02*
Y330500D01*
X374000Y338500D02*
X375000D01*
X374500Y338000D02*
Y339000D01*
X374000Y340500D02*
X375000D01*
X374500Y340000D02*
Y341000D01*
X374000Y342500D02*
X375000D01*
X374500Y342000D02*
Y343000D01*
X376000Y338500D02*
X377000D01*
X376500Y338000D02*
Y339000D01*
X378000Y338500D02*
X379000D01*
X378500Y338000D02*
Y339000D01*
X376000Y340500D02*
X377000D01*
X376500Y340000D02*
Y341000D01*
X378000Y340500D02*
X379000D01*
X378500Y340000D02*
Y341000D01*
X376000Y342500D02*
X377000D01*
X376500Y342000D02*
Y343000D01*
X378000Y342500D02*
X379000D01*
X378500Y342000D02*
Y343000D01*
X370000Y308929D02*
X371000D01*
X370500Y308429D02*
Y309429D01*
X351500Y290500D02*
X352500D01*
X352000Y290000D02*
Y291000D01*
X362000Y307000D02*
X363000D01*
X362500Y306500D02*
Y307500D01*
X359000Y304500D02*
X360000D01*
X359500Y304000D02*
Y305000D01*
X341173Y293827D02*
X342173D01*
X341673Y293327D02*
Y294327D01*
X341673Y297173D02*
X342673D01*
X342173Y296673D02*
Y297673D01*
X369000Y312500D02*
X370000D01*
X369500Y312000D02*
Y313000D01*
X348000Y300000D02*
X349000D01*
X348500Y299500D02*
Y300500D01*
X344000Y303500D02*
X345000D01*
X344500Y303000D02*
Y304000D01*
X351000Y305000D02*
X352000D01*
X351500Y304500D02*
Y305500D01*
X362500Y312500D02*
X363500D01*
X363000Y312000D02*
Y313000D01*
X426500Y310000D02*
X427500D01*
X427000Y309500D02*
Y310500D01*
X422500Y305000D02*
X423500D01*
X423000Y304500D02*
Y305500D01*
X421500Y299000D02*
X422500D01*
X422000Y298500D02*
Y299500D01*
X417327Y302500D02*
X418327D01*
X417827Y302000D02*
Y303000D01*
X435500Y310000D02*
X436500D01*
X436000Y309500D02*
Y310500D01*
X435500Y308000D02*
X436500D01*
X436000Y307500D02*
Y308500D01*
X398500Y368500D02*
X399500D01*
X399000Y368000D02*
Y369000D01*
X400500Y368500D02*
X401500D01*
X401000Y368000D02*
Y369000D01*
X400500Y366500D02*
X401500D01*
X401000Y366000D02*
Y367000D01*
X398500Y366500D02*
X399500D01*
X399000Y366000D02*
Y367000D01*
X398500Y364500D02*
X399500D01*
X399000Y364000D02*
Y365000D01*
X400500Y364500D02*
X401500D01*
X401000Y364000D02*
Y365000D01*
X400500Y362500D02*
X401500D01*
X401000Y362000D02*
Y363000D01*
X398500Y362500D02*
X399500D01*
X399000Y362000D02*
Y363000D01*
X398500Y360500D02*
X399500D01*
X399000Y360000D02*
Y361000D01*
X400500Y360500D02*
X401500D01*
X401000Y360000D02*
Y361000D01*
X402500Y360500D02*
X403500D01*
X403000Y360000D02*
Y361000D01*
X402500Y362500D02*
X403500D01*
X403000Y362000D02*
Y363000D01*
X402500Y364500D02*
X403500D01*
X403000Y364000D02*
Y365000D01*
X402500Y366500D02*
X403500D01*
X403000Y366000D02*
Y367000D01*
X402500Y368500D02*
X403500D01*
X403000Y368000D02*
Y369000D01*
X404500Y368500D02*
X405500D01*
X405000Y368000D02*
Y369000D01*
X404500Y366500D02*
X405500D01*
X405000Y366000D02*
Y367000D01*
X404500Y364500D02*
X405500D01*
X405000Y364000D02*
Y365000D01*
X404500Y362500D02*
X405500D01*
X405000Y362000D02*
Y363000D01*
X404500Y360500D02*
X405500D01*
X405000Y360000D02*
Y361000D01*
X406500Y360500D02*
X407500D01*
X407000Y360000D02*
Y361000D01*
X406500Y362500D02*
X407500D01*
X407000Y362000D02*
Y363000D01*
X406500Y364500D02*
X407500D01*
X407000Y364000D02*
Y365000D01*
X408500Y364500D02*
X409500D01*
X409000Y364000D02*
Y365000D01*
X408500Y362500D02*
X409500D01*
X409000Y362000D02*
Y363000D01*
X408500Y360500D02*
X409500D01*
X409000Y360000D02*
Y361000D01*
X408500Y358500D02*
X409500D01*
X409000Y358000D02*
Y359000D01*
X406500Y358500D02*
X407500D01*
X407000Y358000D02*
Y359000D01*
X404500Y358500D02*
X405500D01*
X405000Y358000D02*
Y359000D01*
X402500Y358500D02*
X403500D01*
X403000Y358000D02*
Y359000D01*
X400500Y358500D02*
X401500D01*
X401000Y358000D02*
Y359000D01*
X398500Y358500D02*
X399500D01*
X399000Y358000D02*
Y359000D01*
X361000Y294000D02*
X362000D01*
X361500Y293500D02*
Y294500D01*
X371500Y291000D02*
X372500D01*
X372000Y290500D02*
Y291500D01*
X340500Y314500D02*
X341500D01*
X341000Y314000D02*
Y315000D01*
X449000Y337500D02*
X450000D01*
X449500Y337000D02*
Y338000D01*
X432500Y359000D02*
X433500D01*
X433000Y358500D02*
Y359500D01*
X430500Y359000D02*
X431500D01*
X431000Y358500D02*
Y359500D01*
X424500Y359000D02*
X425500D01*
X425000Y358500D02*
Y359500D01*
X424500Y361000D02*
X425500D01*
X425000Y360500D02*
Y361500D01*
X424500Y367000D02*
X425500D01*
X425000Y366500D02*
Y367500D01*
X424500Y369000D02*
X425500D01*
X425000Y368500D02*
Y369500D01*
X430500Y367000D02*
X431500D01*
X431000Y366500D02*
Y367500D01*
X344000Y310000D02*
X345000D01*
X344500Y309500D02*
Y310500D01*
X423827Y283827D02*
X424827D01*
X424327Y283327D02*
Y284327D01*
X339173Y324327D02*
X340173D01*
X339673Y323827D02*
Y324827D01*
X377500Y352500D02*
X378500D01*
X378000Y352000D02*
Y353000D01*
X366000Y356500D02*
X367000D01*
X366500Y356000D02*
Y357000D01*
X368000Y356500D02*
X369000D01*
X368500Y356000D02*
Y357000D01*
X364000Y356500D02*
X365000D01*
X364500Y356000D02*
Y357000D01*
X362000Y356500D02*
X363000D01*
X362500Y356000D02*
Y357000D01*
X368500Y375500D02*
X369500D01*
X369000Y375000D02*
Y376000D01*
X370500Y377500D02*
X371500D01*
X371000Y377000D02*
Y378000D01*
X370500Y375500D02*
X371500D01*
X371000Y375000D02*
Y376000D01*
X374500Y373500D02*
X375500D01*
X375000Y373000D02*
Y374000D01*
X376500Y373500D02*
X377500D01*
X377000Y373000D02*
Y374000D01*
X378500Y373500D02*
X379500D01*
X379000Y373000D02*
Y374000D01*
X380500Y373500D02*
X381500D01*
X381000Y373000D02*
Y374000D01*
X382500Y373500D02*
X383500D01*
X383000Y373000D02*
Y374000D01*
X449000Y335500D02*
X450000D01*
X449500Y335000D02*
Y336000D01*
X449000Y333500D02*
X450000D01*
X449500Y333000D02*
Y334000D01*
X449000Y331500D02*
X450000D01*
X449500Y331000D02*
Y332000D01*
X447000Y343500D02*
X448000D01*
X447500Y343000D02*
Y344000D01*
X447000Y341500D02*
X448000D01*
X447500Y341000D02*
Y342000D01*
X447000Y339500D02*
X448000D01*
X447500Y339000D02*
Y340000D01*
X447000Y337500D02*
X448000D01*
X447500Y337000D02*
Y338000D01*
X447000Y335500D02*
X448000D01*
X447500Y335000D02*
Y336000D01*
X447000Y333500D02*
X448000D01*
X447500Y333000D02*
Y334000D01*
X447000Y331500D02*
X448000D01*
X447500Y331000D02*
Y332000D01*
X443000Y347500D02*
X444000D01*
X443500Y347000D02*
Y348000D01*
X443000Y345500D02*
X444000D01*
X443500Y345000D02*
Y346000D01*
X443000Y343500D02*
X444000D01*
X443500Y343000D02*
Y344000D01*
X443000Y341500D02*
X444000D01*
X443500Y341000D02*
Y342000D01*
X443000Y339500D02*
X444000D01*
X443500Y339000D02*
Y340000D01*
X443000Y337500D02*
X444000D01*
X443500Y337000D02*
Y338000D01*
X443000Y335500D02*
X444000D01*
X443500Y335000D02*
Y336000D01*
X443000Y333500D02*
X444000D01*
X443500Y333000D02*
Y334000D01*
X443000Y331500D02*
X444000D01*
X443500Y331000D02*
Y332000D01*
X445000Y331500D02*
X446000D01*
X445500Y331000D02*
Y332000D01*
X445000Y333500D02*
X446000D01*
X445500Y333000D02*
Y334000D01*
X445000Y335500D02*
X446000D01*
X445500Y335000D02*
Y336000D01*
X445000Y337500D02*
X446000D01*
X445500Y337000D02*
Y338000D01*
X445000Y339500D02*
X446000D01*
X445500Y339000D02*
Y340000D01*
X445000Y341500D02*
X446000D01*
X445500Y341000D02*
Y342000D01*
X445000Y343500D02*
X446000D01*
X445500Y343000D02*
Y344000D01*
X445000Y345500D02*
X446000D01*
X445500Y345000D02*
Y346000D01*
X445000Y347500D02*
X446000D01*
X445500Y347000D02*
Y348000D01*
X445000Y349500D02*
X446000D01*
X445500Y349000D02*
Y350000D01*
X443000Y349500D02*
X444000D01*
X443500Y349000D02*
Y350000D01*
X443000Y351500D02*
X444000D01*
X443500Y351000D02*
Y352000D01*
X375500Y352500D02*
X376500D01*
X376000Y352000D02*
Y353000D01*
X373500Y352500D02*
X374500D01*
X374000Y352000D02*
Y353000D01*
X371500Y352500D02*
X372500D01*
X372000Y352000D02*
Y353000D01*
X371500Y350500D02*
X372500D01*
X372000Y350000D02*
Y351000D01*
X373500Y350500D02*
X374500D01*
X374000Y350000D02*
Y351000D01*
X375500Y350500D02*
X376500D01*
X376000Y350000D02*
Y351000D01*
X377500Y350500D02*
X378500D01*
X378000Y350000D02*
Y351000D01*
X377500Y348500D02*
X378500D01*
X378000Y348000D02*
Y349000D01*
X375500Y348500D02*
X376500D01*
X376000Y348000D02*
Y349000D01*
X373500Y348500D02*
X374500D01*
X374000Y348000D02*
Y349000D01*
X371500Y348500D02*
X372500D01*
X372000Y348000D02*
Y349000D01*
X371500Y346500D02*
X372500D01*
X372000Y346000D02*
Y347000D01*
X373500Y346500D02*
X374500D01*
X374000Y346000D02*
Y347000D01*
X375500Y346500D02*
X376500D01*
X376000Y346000D02*
Y347000D01*
X377500Y346500D02*
X378500D01*
X378000Y346000D02*
Y347000D01*
X377500Y344500D02*
X378500D01*
X378000Y344000D02*
Y345000D01*
X375500Y344500D02*
X376500D01*
X376000Y344000D02*
Y345000D01*
X373500Y344500D02*
X374500D01*
X374000Y344000D02*
Y345000D01*
X371500Y344500D02*
X372500D01*
X372000Y344000D02*
Y345000D01*
X362000Y370500D02*
X363000D01*
X362500Y370000D02*
Y371000D01*
X364000Y370500D02*
X365000D01*
X364500Y370000D02*
Y371000D01*
X366000Y370500D02*
X367000D01*
X366500Y370000D02*
Y371000D01*
X368000Y370500D02*
X369000D01*
X368500Y370000D02*
Y371000D01*
X370000Y370500D02*
X371000D01*
X370500Y370000D02*
Y371000D01*
X370000Y368500D02*
X371000D01*
X370500Y368000D02*
Y369000D01*
X368000Y368500D02*
X369000D01*
X368500Y368000D02*
Y369000D01*
X366000Y368500D02*
X367000D01*
X366500Y368000D02*
Y369000D01*
X364000Y368500D02*
X365000D01*
X364500Y368000D02*
Y369000D01*
X362000Y368500D02*
X363000D01*
X362500Y368000D02*
Y369000D01*
X362000Y366500D02*
X363000D01*
X362500Y366000D02*
Y367000D01*
X364000Y366500D02*
X365000D01*
X364500Y366000D02*
Y367000D01*
X366000Y366500D02*
X367000D01*
X366500Y366000D02*
Y367000D01*
X368000Y366500D02*
X369000D01*
X368500Y366000D02*
Y367000D01*
X370000Y366500D02*
X371000D01*
X370500Y366000D02*
Y367000D01*
X370000Y364500D02*
X371000D01*
X370500Y364000D02*
Y365000D01*
X368000Y364500D02*
X369000D01*
X368500Y364000D02*
Y365000D01*
X366000Y364500D02*
X367000D01*
X366500Y364000D02*
Y365000D01*
X364000Y364500D02*
X365000D01*
X364500Y364000D02*
Y365000D01*
X362000Y364500D02*
X363000D01*
X362500Y364000D02*
Y365000D01*
X362000Y362500D02*
X363000D01*
X362500Y362000D02*
Y363000D01*
X364000Y362500D02*
X365000D01*
X364500Y362000D02*
Y363000D01*
X366000Y362500D02*
X367000D01*
X366500Y362000D02*
Y363000D01*
X368000Y362500D02*
X369000D01*
X368500Y362000D02*
Y363000D01*
X370000Y362500D02*
X371000D01*
X370500Y362000D02*
Y363000D01*
X370000Y360500D02*
X371000D01*
X370500Y360000D02*
Y361000D01*
X368000Y360500D02*
X369000D01*
X368500Y360000D02*
Y361000D01*
X366000Y360500D02*
X367000D01*
X366500Y360000D02*
Y361000D01*
X364000Y360500D02*
X365000D01*
X364500Y360000D02*
Y361000D01*
X362000Y360500D02*
X363000D01*
X362500Y360000D02*
Y361000D01*
X362000Y358500D02*
X363000D01*
X362500Y358000D02*
Y359000D01*
X364000Y358500D02*
X365000D01*
X364500Y358000D02*
Y359000D01*
X366000Y358500D02*
X367000D01*
X366500Y358000D02*
Y359000D01*
X368000Y358500D02*
X369000D01*
X368500Y358000D02*
Y359000D01*
X368000Y348000D02*
X369000D01*
X368500Y347500D02*
Y348500D01*
X366000Y348000D02*
X367000D01*
X366500Y347500D02*
Y348500D01*
X364000Y348000D02*
X365000D01*
X364500Y347500D02*
Y348500D01*
X362000Y348000D02*
X363000D01*
X362500Y347500D02*
Y348500D01*
X362000Y354000D02*
X363000D01*
X362500Y353500D02*
Y354500D01*
X364000Y354000D02*
X365000D01*
X364500Y353500D02*
Y354500D01*
X366000Y354000D02*
X367000D01*
X366500Y353500D02*
Y354500D01*
X368000Y354000D02*
X369000D01*
X368500Y353500D02*
Y354500D01*
X368000Y352000D02*
X369000D01*
X368500Y351500D02*
Y352500D01*
X366000Y352000D02*
X367000D01*
X366500Y351500D02*
Y352500D01*
X364000Y352000D02*
X365000D01*
X364500Y351500D02*
Y352500D01*
X362000Y352000D02*
X363000D01*
X362500Y351500D02*
Y352500D01*
X362000Y350000D02*
X363000D01*
X362500Y349500D02*
Y350500D01*
X364000Y350000D02*
X365000D01*
X364500Y349500D02*
Y350500D01*
X366000Y350000D02*
X367000D01*
X366500Y349500D02*
Y350500D01*
X368000Y350000D02*
X369000D01*
X368500Y349500D02*
Y350500D01*
X384500Y381500D02*
X385500D01*
X385000Y381000D02*
Y382000D01*
X382500Y381500D02*
X383500D01*
X383000Y381000D02*
Y382000D01*
X384500Y379500D02*
X385500D01*
X385000Y379000D02*
Y380000D01*
X382500Y379500D02*
X383500D01*
X383000Y379000D02*
Y380000D01*
X386500Y379500D02*
X387500D01*
X387000Y379000D02*
Y380000D01*
X386500Y381500D02*
X387500D01*
X387000Y381000D02*
Y382000D01*
X388500Y381500D02*
X389500D01*
X389000Y381000D02*
Y382000D01*
X388500Y379500D02*
X389500D01*
X389000Y379000D02*
Y380000D01*
X390500Y379500D02*
X391500D01*
X391000Y379000D02*
Y380000D01*
X390500Y381500D02*
X391500D01*
X391000Y381000D02*
Y382000D01*
X392500Y381500D02*
X393500D01*
X393000Y381000D02*
Y382000D01*
X392500Y379500D02*
X393500D01*
X393000Y379000D02*
Y380000D01*
X380500Y381500D02*
X381500D01*
X381000Y381000D02*
Y382000D01*
X380500Y379500D02*
X381500D01*
X381000Y379000D02*
Y380000D01*
X378500Y379500D02*
X379500D01*
X379000Y379000D02*
Y380000D01*
X378500Y377500D02*
X379500D01*
X379000Y377000D02*
Y378000D01*
X382500Y377500D02*
X383500D01*
X383000Y377000D02*
Y378000D01*
X380500Y377500D02*
X381500D01*
X381000Y377000D02*
Y378000D01*
X384500Y377500D02*
X385500D01*
X385000Y377000D02*
Y378000D01*
X386500Y377500D02*
X387500D01*
X387000Y377000D02*
Y378000D01*
X388500Y377500D02*
X389500D01*
X389000Y377000D02*
Y378000D01*
X390500Y377500D02*
X391500D01*
X391000Y377000D02*
Y378000D01*
X392500Y377500D02*
X393500D01*
X393000Y377000D02*
Y378000D01*
X394500Y381500D02*
X395500D01*
X395000Y381000D02*
Y382000D01*
X394500Y379500D02*
X395500D01*
X395000Y379000D02*
Y380000D01*
X394500Y377500D02*
X395500D01*
X395000Y377000D02*
Y378000D01*
X394500Y375500D02*
X395500D01*
X395000Y375000D02*
Y376000D01*
X392500Y375500D02*
X393500D01*
X393000Y375000D02*
Y376000D01*
X390500Y375500D02*
X391500D01*
X391000Y375000D02*
Y376000D01*
X388500Y375500D02*
X389500D01*
X389000Y375000D02*
Y376000D01*
X386500Y375500D02*
X387500D01*
X387000Y375000D02*
Y376000D01*
X382500Y375500D02*
X383500D01*
X383000Y375000D02*
Y376000D01*
X380500Y375500D02*
X381500D01*
X381000Y375000D02*
Y376000D01*
X378500Y375500D02*
X379500D01*
X379000Y375000D02*
Y376000D01*
X376500Y379500D02*
X377500D01*
X377000Y379000D02*
Y380000D01*
X376500Y377500D02*
X377500D01*
X377000Y377000D02*
Y378000D01*
X376500Y375500D02*
X377500D01*
X377000Y375000D02*
Y376000D01*
X374500Y375500D02*
X375500D01*
X375000Y375000D02*
Y376000D01*
X374500Y377500D02*
X375500D01*
X375000Y377000D02*
Y378000D01*
X374500Y379500D02*
X375500D01*
X375000Y379000D02*
Y380000D01*
X396500Y381500D02*
X397500D01*
X397000Y381000D02*
Y382000D01*
X396500Y379500D02*
X397500D01*
X397000Y379000D02*
Y380000D01*
X396500Y377500D02*
X397500D01*
X397000Y377000D02*
Y378000D01*
X396500Y375500D02*
X397500D01*
X397000Y375000D02*
Y376000D01*
X398500Y375500D02*
X399500D01*
X399000Y375000D02*
Y376000D01*
X398500Y377500D02*
X399500D01*
X399000Y377000D02*
Y378000D01*
X398500Y379500D02*
X399500D01*
X399000Y379000D02*
Y380000D01*
X398500Y381500D02*
X399500D01*
X399000Y381000D02*
Y382000D01*
X400500Y379500D02*
X401500D01*
X401000Y379000D02*
Y380000D01*
X400500Y377500D02*
X401500D01*
X401000Y377000D02*
Y378000D01*
X400500Y375500D02*
X401500D01*
X401000Y375000D02*
Y376000D01*
X402500Y375500D02*
X403500D01*
X403000Y375000D02*
Y376000D01*
X402500Y377500D02*
X403500D01*
X403000Y377000D02*
Y378000D01*
X402500Y379500D02*
X403500D01*
X403000Y379000D02*
Y380000D01*
X404500Y379500D02*
X405500D01*
X405000Y379000D02*
Y380000D01*
X404500Y377500D02*
X405500D01*
X405000Y377000D02*
Y378000D01*
X404500Y375500D02*
X405500D01*
X405000Y375000D02*
Y376000D01*
X367500Y345000D02*
X368500D01*
X368000Y344500D02*
Y345500D01*
X365500Y345000D02*
X366500D01*
X366000Y344500D02*
Y345500D01*
X363500Y345000D02*
X364500D01*
X364000Y344500D02*
Y345500D01*
X363500Y343000D02*
X364500D01*
X364000Y342500D02*
Y343500D01*
X365500Y343000D02*
X366500D01*
X366000Y342500D02*
Y343500D01*
X367500Y343000D02*
X368500D01*
X368000Y342500D02*
Y343500D01*
X367500Y341000D02*
X368500D01*
X368000Y340500D02*
Y341500D01*
X365500Y341000D02*
X366500D01*
X366000Y340500D02*
Y341500D01*
X363500Y341000D02*
X364500D01*
X364000Y340500D02*
Y341500D01*
X426500Y361000D02*
X427500D01*
X427000Y360500D02*
Y361500D01*
X428500Y361000D02*
X429500D01*
X429000Y360500D02*
Y361500D01*
X434500Y361000D02*
X435500D01*
X435000Y360500D02*
Y361500D01*
X426500Y363000D02*
X427500D01*
X427000Y362500D02*
Y363500D01*
X428500Y363000D02*
X429500D01*
X429000Y362500D02*
Y363500D01*
X430500Y363000D02*
X431500D01*
X431000Y362500D02*
Y363500D01*
X432500Y363000D02*
X433500D01*
X433000Y362500D02*
Y363500D01*
X426500Y365000D02*
X427500D01*
X427000Y364500D02*
Y365500D01*
X428500Y365000D02*
X429500D01*
X429000Y364500D02*
Y365500D01*
X430500Y365000D02*
X431500D01*
X431000Y364500D02*
Y365500D01*
X428500Y367000D02*
X429500D01*
X429000Y366500D02*
Y367500D01*
X426500Y367000D02*
X427500D01*
X427000Y366500D02*
Y367500D01*
X426500Y369000D02*
X427500D01*
X427000Y368500D02*
Y369500D01*
X428500Y369000D02*
X429500D01*
X429000Y368500D02*
Y369500D01*
X434500Y359000D02*
X435500D01*
X435000Y358500D02*
Y359500D01*
X428500Y359000D02*
X429500D01*
X429000Y358500D02*
Y359500D01*
X426500Y359000D02*
X427500D01*
X427000Y358500D02*
Y359500D01*
X426500Y357000D02*
X427500D01*
X427000Y356500D02*
Y357500D01*
X428500Y357000D02*
X429500D01*
X429000Y356500D02*
Y357500D01*
X430500Y357000D02*
X431500D01*
X431000Y356500D02*
Y357500D01*
X432500Y357000D02*
X433500D01*
X433000Y356500D02*
Y357500D01*
X434500Y357000D02*
X435500D01*
X435000Y356500D02*
Y357500D01*
X434500Y355000D02*
X435500D01*
X435000Y354500D02*
Y355500D01*
X432500Y355000D02*
X433500D01*
X433000Y354500D02*
Y355500D01*
X430500Y355000D02*
X431500D01*
X431000Y354500D02*
Y355500D01*
X428500Y355000D02*
X429500D01*
X429000Y354500D02*
Y355500D01*
X426500Y355000D02*
X427500D01*
X427000Y354500D02*
Y355500D01*
X436500Y355000D02*
X437500D01*
X437000Y354500D02*
Y355500D01*
X436500Y357000D02*
X437500D01*
X437000Y356500D02*
Y357500D01*
X436500Y359000D02*
X437500D01*
X437000Y358500D02*
Y359500D01*
X436500Y361000D02*
X437500D01*
X437000Y360500D02*
Y361500D01*
X434500Y363000D02*
X435500D01*
X435000Y362500D02*
Y363500D01*
X432500Y365000D02*
X433500D01*
X433000Y364500D02*
Y365500D01*
X438500Y355000D02*
X439500D01*
X439000Y354500D02*
Y355500D01*
X438500Y357000D02*
X439500D01*
X439000Y356500D02*
Y357500D01*
X351500Y364500D02*
X352500D01*
X352000Y364000D02*
Y365000D01*
X349500Y364500D02*
X350500D01*
X350000Y364000D02*
Y365000D01*
X349500Y362500D02*
X350500D01*
X350000Y362000D02*
Y363000D01*
X351500Y362500D02*
X352500D01*
X352000Y362000D02*
Y363000D01*
X351500Y360500D02*
X352500D01*
X352000Y360000D02*
Y361000D01*
X349500Y360500D02*
X350500D01*
X350000Y360000D02*
Y361000D01*
X347500Y360500D02*
X348500D01*
X348000Y360000D02*
Y361000D01*
X347500Y362500D02*
X348500D01*
X348000Y362000D02*
Y363000D01*
X347500Y358500D02*
X348500D01*
X348000Y358000D02*
Y359000D01*
X349500Y358500D02*
X350500D01*
X350000Y358000D02*
Y359000D01*
X351500Y358500D02*
X352500D01*
X352000Y358000D02*
Y359000D01*
X408500Y340500D02*
X409500D01*
X409000Y340000D02*
Y341000D01*
X406500Y340500D02*
X407500D01*
X407000Y340000D02*
Y341000D01*
X404500Y340500D02*
X405500D01*
X405000Y340000D02*
Y341000D01*
X408500Y342500D02*
X409500D01*
X409000Y342000D02*
Y343000D01*
X406500Y342500D02*
X407500D01*
X407000Y342000D02*
Y343000D01*
X404500Y342500D02*
X405500D01*
X405000Y342000D02*
Y343000D01*
X404500Y344500D02*
X405500D01*
X405000Y344000D02*
Y345000D01*
X406500Y344500D02*
X407500D01*
X407000Y344000D02*
Y345000D01*
X408500Y344500D02*
X409500D01*
X409000Y344000D02*
Y345000D01*
X408500Y346500D02*
X409500D01*
X409000Y346000D02*
Y347000D01*
X406500Y346500D02*
X407500D01*
X407000Y346000D02*
Y347000D01*
X404500Y346500D02*
X405500D01*
X405000Y346000D02*
Y347000D01*
X402500Y346500D02*
X403500D01*
X403000Y346000D02*
Y347000D01*
X402500Y344500D02*
X403500D01*
X403000Y344000D02*
Y345000D01*
X402500Y340500D02*
X403500D01*
X403000Y340000D02*
Y341000D01*
X402500Y342500D02*
X403500D01*
X403000Y342000D02*
Y343000D01*
X408500Y348500D02*
X409500D01*
X409000Y348000D02*
Y349000D01*
X406500Y348500D02*
X407500D01*
X407000Y348000D02*
Y349000D01*
X404500Y348500D02*
X405500D01*
X405000Y348000D02*
Y349000D01*
X402500Y348500D02*
X403500D01*
X403000Y348000D02*
Y349000D01*
X402500Y350500D02*
X403500D01*
X403000Y350000D02*
Y351000D01*
X404500Y350500D02*
X405500D01*
X405000Y350000D02*
Y351000D01*
X406500Y350500D02*
X407500D01*
X407000Y350000D02*
Y351000D01*
X408500Y350500D02*
X409500D01*
X409000Y350000D02*
Y351000D01*
X406500Y352500D02*
X407500D01*
X407000Y352000D02*
Y353000D01*
X404500Y352500D02*
X405500D01*
X405000Y352000D02*
Y353000D01*
X402500Y352500D02*
X403500D01*
X403000Y352000D02*
Y353000D01*
X402500Y354500D02*
X403500D01*
X403000Y354000D02*
Y355000D01*
X404500Y354500D02*
X405500D01*
X405000Y354000D02*
Y355000D01*
X406500Y354500D02*
X407500D01*
X407000Y354000D02*
Y355000D01*
X408500Y354500D02*
X409500D01*
X409000Y354000D02*
Y355000D01*
X408500Y356500D02*
X409500D01*
X409000Y356000D02*
Y357000D01*
X406500Y356500D02*
X407500D01*
X407000Y356000D02*
Y357000D01*
X404500Y356500D02*
X405500D01*
X405000Y356000D02*
Y357000D01*
X402500Y356500D02*
X403500D01*
X403000Y356000D02*
Y357000D01*
X408500Y352500D02*
X409500D01*
X409000Y352000D02*
Y353000D01*
X400500Y356500D02*
X401500D01*
X401000Y356000D02*
Y357000D01*
X400500Y354500D02*
X401500D01*
X401000Y354000D02*
Y355000D01*
X400500Y352500D02*
X401500D01*
X401000Y352000D02*
Y353000D01*
X400500Y350500D02*
X401500D01*
X401000Y350000D02*
Y351000D01*
X400500Y348500D02*
X401500D01*
X401000Y348000D02*
Y349000D01*
X400500Y346500D02*
X401500D01*
X401000Y346000D02*
Y347000D01*
X400500Y344500D02*
X401500D01*
X401000Y344000D02*
Y345000D01*
X400500Y342500D02*
X401500D01*
X401000Y342000D02*
Y343000D01*
X400500Y340500D02*
X401500D01*
X401000Y340000D02*
Y341000D01*
X398500Y356500D02*
X399500D01*
X399000Y356000D02*
Y357000D01*
X398500Y354500D02*
X399500D01*
X399000Y354000D02*
Y355000D01*
X398500Y352500D02*
X399500D01*
X399000Y352000D02*
Y353000D01*
X398500Y350500D02*
X399500D01*
X399000Y350000D02*
Y351000D01*
X398500Y348500D02*
X399500D01*
X399000Y348000D02*
Y349000D01*
X398500Y346500D02*
X399500D01*
X399000Y346000D02*
Y347000D01*
X398500Y344500D02*
X399500D01*
X399000Y344000D02*
Y345000D01*
X398500Y342500D02*
X399500D01*
X399000Y342000D02*
Y343000D01*
X398500Y340500D02*
X399500D01*
X399000Y340000D02*
Y341000D01*
X378500Y327000D02*
X379500D01*
X379000Y326500D02*
Y327500D01*
X436000Y331000D02*
X437000D01*
X436500Y330500D02*
Y331500D01*
X421500Y309000D02*
X422500D01*
X422000Y308500D02*
Y309500D01*
X413500Y307000D02*
X414500D01*
X414000Y306500D02*
Y307500D01*
X413500Y309000D02*
X414500D01*
X414000Y308500D02*
Y309500D01*
X413500Y311000D02*
X414500D01*
X414000Y310500D02*
Y311500D01*
X417500Y306000D02*
X418500D01*
X418000Y305500D02*
Y306500D01*
X426968Y321532D02*
X427969D01*
X427468Y321031D02*
Y322031D01*
X426500Y312000D02*
X427500D01*
X427000Y311500D02*
Y312500D01*
X424500Y312000D02*
X425500D01*
X425000Y311500D02*
Y312500D01*
X424500Y310000D02*
X425500D01*
X425000Y309500D02*
Y310500D01*
X440500Y355000D02*
X441500D01*
X441000Y354500D02*
Y355500D01*
X424500Y365000D02*
X425500D01*
X425000Y364500D02*
Y365500D01*
X424500Y363000D02*
X425500D01*
X425000Y362500D02*
Y363500D01*
X424500Y357000D02*
X425500D01*
X425000Y356500D02*
Y357500D01*
X424500Y355000D02*
X425500D01*
X425000Y354500D02*
Y355500D01*
X448500Y326000D02*
X449500D01*
X449000Y325500D02*
Y326500D01*
X433500Y310000D02*
X434500D01*
X434000Y309500D02*
Y310500D01*
X433500Y308000D02*
X434500D01*
X434000Y307500D02*
Y308500D01*
X439000Y300500D02*
X440000D01*
X439500Y300000D02*
Y301000D01*
X439000Y298500D02*
X440000D01*
X439500Y298000D02*
Y299000D01*
X437000Y300500D02*
X438000D01*
X437500Y300000D02*
Y301000D01*
X437000Y298500D02*
X438000D01*
X437500Y298000D02*
Y299000D01*
X400500Y381500D02*
X401500D01*
X401000Y381000D02*
Y382000D01*
X402500Y381500D02*
X403500D01*
X403000Y381000D02*
Y382000D01*
X372500Y377500D02*
X373500D01*
X373000Y377000D02*
Y378000D01*
X372500Y375500D02*
X373500D01*
X373000Y375000D02*
Y376000D01*
X406500Y379500D02*
X407500D01*
X407000Y379000D02*
Y380000D01*
X406500Y377500D02*
X407500D01*
X407000Y377000D02*
Y378000D01*
X406500Y375500D02*
X407500D01*
X407000Y375000D02*
Y376000D01*
X408500Y375500D02*
X409500D01*
X409000Y375000D02*
Y376000D01*
X408500Y377500D02*
X409500D01*
X409000Y377000D02*
Y378000D01*
X408500Y379500D02*
X409500D01*
X409000Y379000D02*
Y380000D01*
X410500Y375500D02*
X411500D01*
X411000Y375000D02*
Y376000D01*
X410500Y377500D02*
X411500D01*
X411000Y377000D02*
Y378000D01*
X384500Y375500D02*
X385500D01*
X385000Y375000D02*
Y376000D01*
X436000Y323000D02*
X437000D01*
X436500Y322500D02*
Y323500D01*
X412500Y375500D02*
X413500D01*
X413000Y375000D02*
Y376000D01*
X412500Y373500D02*
X413500D01*
X413000Y373000D02*
Y374000D01*
X414500Y373500D02*
X415500D01*
X415000Y373000D02*
Y374000D01*
X414500Y375500D02*
X415500D01*
X415000Y375000D02*
Y376000D01*
X416500Y375500D02*
X417500D01*
X417000Y375000D02*
Y376000D01*
X416500Y373500D02*
X417500D01*
X417000Y373000D02*
Y374000D01*
X418500Y373500D02*
X419500D01*
X419000Y373000D02*
Y374000D01*
X418500Y375500D02*
X419500D01*
X419000Y375000D02*
Y376000D01*
X420500Y373500D02*
X421500D01*
X421000Y373000D02*
Y374000D01*
X410500Y373500D02*
X411500D01*
X411000Y373000D02*
Y374000D01*
X440827Y292827D02*
X441827D01*
X441327Y292327D02*
Y293327D01*
X430000Y291000D02*
X431000D01*
X430500Y290500D02*
Y291500D01*
X410500Y379500D02*
X411500D01*
X411000Y379000D02*
Y380000D01*
X412500Y377500D02*
X413500D01*
X413000Y377000D02*
Y378000D01*
X414500Y377500D02*
X415500D01*
X415000Y377000D02*
Y378000D01*
X416500Y377500D02*
X417500D01*
X417000Y377000D02*
Y378000D01*
X404500Y381500D02*
X405500D01*
X405000Y381000D02*
Y382000D01*
X422500Y373500D02*
X423500D01*
X423000Y373000D02*
Y374000D01*
X418500Y371500D02*
X419500D01*
X419000Y371000D02*
Y372000D01*
X424500Y371000D02*
X425500D01*
X425000Y370500D02*
Y371500D01*
X420500D02*
X421500D01*
X421000Y371000D02*
Y372000D01*
X422500Y371500D02*
X423500D01*
X423000Y371000D02*
Y372000D01*
X416500Y371500D02*
X417500D01*
X417000Y371000D02*
Y372000D01*
X414500Y371500D02*
X415500D01*
X415000Y371000D02*
Y372000D01*
X412500Y371500D02*
X413500D01*
X413000Y371000D02*
Y372000D01*
X410500Y371500D02*
X411500D01*
X411000Y371000D02*
Y372000D01*
X426500Y371000D02*
X427500D01*
X427000Y370500D02*
Y371500D01*
X372500Y318500D02*
X373500D01*
X373000Y318000D02*
Y319000D01*
X378500Y310000D02*
X379500D01*
X379000Y309500D02*
Y310500D01*
X378500Y308000D02*
X379500D01*
X379000Y307500D02*
Y308500D01*
X376500Y310000D02*
X377500D01*
X377000Y309500D02*
Y310500D01*
X376500Y308000D02*
X377500D01*
X377000Y307500D02*
Y308500D01*
X340673Y332500D02*
X341673D01*
X341173Y332000D02*
Y333000D01*
X344000Y332500D02*
X345000D01*
X344500Y332000D02*
Y333000D01*
X352500Y319000D02*
X353500D01*
X353000Y318500D02*
Y319500D01*
X350500Y319000D02*
X351500D01*
X351000Y318500D02*
Y319500D01*
X352500Y317000D02*
X353500D01*
X353000Y316500D02*
Y317500D01*
X369000Y323500D02*
X370000D01*
X369500Y323000D02*
Y324000D01*
X337500Y317500D02*
X338500D01*
X338000Y317000D02*
Y318000D01*
X335827Y327000D02*
X336827D01*
X336327Y326500D02*
Y327500D01*
X354500Y319000D02*
X355500D01*
X355000Y318500D02*
Y319500D01*
X349673Y332500D02*
X350673D01*
X350173Y332000D02*
Y333000D01*
X354827Y332500D02*
X355827D01*
X355327Y332000D02*
Y333000D01*
X360571Y325429D02*
X361571D01*
X361071Y324929D02*
Y325929D01*
X352500Y321000D02*
X353500D01*
X353000Y320500D02*
Y321500D01*
X355095Y339905D02*
X356095D01*
X355595Y339405D02*
Y340405D01*
X355000Y342500D02*
X356000D01*
X355500Y342000D02*
Y343000D01*
X353000Y344500D02*
X354000D01*
X353500Y344000D02*
Y345000D01*
X359000Y307500D02*
X360000D01*
X359500Y307000D02*
Y308000D01*
X350429Y339441D02*
X351429D01*
X350929Y338941D02*
Y339941D01*
X347500Y348500D02*
X348500D01*
X348000Y348000D02*
Y349000D01*
X348500Y307000D02*
X349500D01*
X349000Y306500D02*
Y307500D01*
X353500Y301500D02*
X354500D01*
X354000Y301000D02*
Y302000D01*
X375500Y300000D02*
X376500D01*
X376000Y299500D02*
Y300500D01*
X378000Y303000D02*
X379000D01*
X378500Y302500D02*
Y303500D01*
X388000Y301500D02*
X389000D01*
X388500Y301000D02*
Y302000D01*
X382000Y300500D02*
X383000D01*
X382500Y300000D02*
Y301000D01*
X391327Y296327D02*
X392327D01*
X391827Y295827D02*
Y296827D01*
X375500Y291000D02*
X376500D01*
X376000Y290500D02*
Y291500D01*
X416000Y296500D02*
X417000D01*
X416500Y296000D02*
Y297000D01*
X432000Y326000D02*
X433000D01*
X432500Y325500D02*
Y326500D01*
X430000Y288000D02*
X431000D01*
X430500Y287500D02*
Y288500D01*
X412500Y301000D02*
X413500D01*
X413000Y300500D02*
Y301500D01*
X425500Y287000D02*
X426500D01*
X426000Y286500D02*
Y287500D01*
X411000Y298440D02*
X412000D01*
X411500Y297940D02*
Y298940D01*
X403500Y293500D02*
X404500D01*
X404000Y293000D02*
Y294000D01*
X398000Y293500D02*
X399000D01*
X398500Y293000D02*
Y294000D01*
X382000Y296000D02*
X383000D01*
X382500Y295500D02*
Y296500D01*
X353500Y364500D02*
X354500D01*
X354000Y364000D02*
Y365000D01*
X353500Y362500D02*
X354500D01*
X354000Y362000D02*
Y363000D01*
X353500Y360500D02*
X354500D01*
X354000Y360000D02*
Y361000D01*
X353500Y358500D02*
X354500D01*
X354000Y358000D02*
Y359000D01*
%TF.MD5,2DF7DEC4CBC274617666E06F7742D6E5*%
M02*
