G04 Layer_Color=16711935*
%FSLAX25Y25*%
%MOIN*%
%TF.FileFunction,Soldermask,Bot*%
%TF.Part,Single*%
G01*
G75*
%TA.AperFunction,SMDPad*%
%ADD91R,0.01969X0.03937*%
%TA.AperFunction,SMDPad*%
%ADD93R,0.02762X0.02959*%
%TA.AperFunction,SMDPad*%
%ADD96R,0.02959X0.02762*%
%TA.AperFunction,SMDPad*%
%ADD112R,0.04737X0.04068*%
%TA.AperFunction,ViaPad*%
%ADD114R,0.04737X0.04737*%
%TA.AperFunction,ViaPad*%
%ADD115C,0.04737*%
%TA.AperFunction,ViaPad*%
%ADD116R,0.04737X0.04737*%
%ADD133C,0.05906*%
%ADD134R,0.12205X0.12205*%
%ADD135R,0.12205X0.06299*%
%TA.AperFunction,SMDPad*%
%ADD136R,0.04343X0.05721*%
%TA.AperFunction,SMDPad*%
%ADD137R,0.10236X0.06890*%
%TA.AperFunction,SMDPad*%
%ADD138R,0.01969X0.06890*%
%TA.AperFunction,ConnectorPad*%
%ADD139C,0.31890*%
%TA.AperFunction,SMDPad*%
%ADD140R,0.13398X0.10052*%
%TA.AperFunction,SMDPad*%
%ADD141R,0.10052X0.13398*%
D91*
X367941Y300071D02*
D03*
X370500D02*
D03*
X373059D02*
D03*
Y308929D02*
D03*
X370500D02*
D03*
X367941D02*
D03*
D93*
X353327Y345500D02*
D03*
X356673D02*
D03*
X372327Y314000D02*
D03*
X375673D02*
D03*
X421138Y308992D02*
D03*
X417792D02*
D03*
X421173Y302500D02*
D03*
X417827D02*
D03*
D96*
X422073Y292227D02*
D03*
Y295573D02*
D03*
X344000Y316673D02*
D03*
Y313327D02*
D03*
X353500Y354173D02*
D03*
Y350827D02*
D03*
X359500Y316673D02*
D03*
Y313327D02*
D03*
X354000Y313327D02*
D03*
Y316673D02*
D03*
X359500Y307673D02*
D03*
Y304327D02*
D03*
D112*
X348340Y332500D02*
D03*
X357631D02*
D03*
D114*
X411500Y291000D02*
D03*
D115*
X416500D02*
D03*
X411500Y286000D02*
D03*
X416500D02*
D03*
X411500Y281000D02*
D03*
X416500D02*
D03*
X360000Y290000D02*
D03*
X365000Y285000D02*
D03*
Y290000D02*
D03*
D116*
X360000Y285000D02*
D03*
D133*
X353778Y367240D02*
G03*
X340060Y349726I38801J-44519D01*
G01*
X342017Y292208D02*
G03*
X372703Y378330I50562J30512D01*
G01*
D134*
X415602Y321898D02*
D03*
D135*
Y337650D02*
D03*
D136*
X401063Y370500D02*
D03*
X408937D02*
D03*
X387563D02*
D03*
X395437D02*
D03*
D137*
X429106Y343000D02*
D03*
Y317800D02*
D03*
D138*
X435799Y343000D02*
D03*
Y317799D02*
D03*
D139*
X392579Y322721D02*
D03*
D140*
X373500Y364106D02*
D03*
Y339894D02*
D03*
D141*
X418106Y354500D02*
D03*
X393894D02*
D03*
%TF.MD5,D4B51FA26D71859923B4A192E0ED6A6A*%
M02*
