G04 Layer_Color=8388736*
%FSLAX25Y25*%
%MOIN*%
%TF.FileFunction,Soldermask,Top*%
%TF.Part,Single*%
G01*
G75*
%ADD84C,0.03150*%
%ADD85R,0.22000X0.07500*%
%ADD86R,0.07000X0.10500*%
%ADD87R,0.11000X0.19000*%
%ADD88R,0.07000X0.03500*%
%TA.AperFunction,SMDPad*%
%ADD89R,0.07493X0.08477*%
%TA.AperFunction,SMDPad*%
%ADD90R,0.04461X0.04658*%
%TA.AperFunction,SMDPad*%
%ADD91R,0.01969X0.03937*%
%TA.AperFunction,SMDPad*%
%ADD92R,0.03937X0.01969*%
%TA.AperFunction,SMDPad*%
%ADD93R,0.02762X0.02959*%
%TA.AperFunction,SMDPad*%
%ADD94O,0.02913X0.01142*%
%TA.AperFunction,SMDPad*%
%ADD95R,0.03504X0.06457*%
%TA.AperFunction,SMDPad*%
%ADD96R,0.02959X0.02762*%
%TA.AperFunction,SMDPad*%
%ADD97R,0.06800X0.10800*%
%TA.AperFunction,SMDPad*%
%ADD98R,0.09961X0.09961*%
%TA.AperFunction,SMDPad*%
%ADD99O,0.01299X0.04646*%
%TA.AperFunction,SMDPad*%
%ADD100O,0.04646X0.01299*%
%TA.AperFunction,SMDPad*%
G04:AMPARAMS|DCode=101|XSize=17.72mil|YSize=49.61mil|CornerRadius=5.02mil|HoleSize=0mil|Usage=FLASHONLY|Rotation=270.000|XOffset=0mil|YOffset=0mil|HoleType=Round|Shape=RoundedRectangle|*
%AMROUNDEDRECTD101*
21,1,0.01772,0.03957,0,0,270.0*
21,1,0.00768,0.04961,0,0,270.0*
1,1,0.01004,-0.01978,-0.00384*
1,1,0.01004,-0.01978,0.00384*
1,1,0.01004,0.01978,0.00384*
1,1,0.01004,0.01978,-0.00384*
%
%ADD101ROUNDEDRECTD101*%
%TA.AperFunction,SMDPad*%
%ADD102R,0.03162X0.04737*%
%TA.AperFunction,SMDPad*%
%ADD103R,0.09764X0.39764*%
%TA.AperFunction,SMDPad*%
%ADD104O,0.01378X0.03347*%
%TA.AperFunction,SMDPad*%
%ADD105O,0.03347X0.01378*%
%TA.AperFunction,SMDPad*%
%ADD106R,0.08071X0.07284*%
%TA.AperFunction,SMDPad*%
%ADD107R,0.08071X0.07599*%
%TA.AperFunction,SMDPad*%
%ADD108R,0.01575X0.02166*%
%TA.AperFunction,SMDPad*%
%ADD109R,0.04658X0.04461*%
%TA.AperFunction,SMDPad*%
%ADD110R,0.06115X0.07887*%
%TA.AperFunction,SMDPad*%
%ADD111R,0.10800X0.06800*%
%TA.AperFunction,SMDPad*%
%ADD112R,0.04737X0.04068*%
%TA.AperFunction,SMDPad*%
%ADD113R,0.04147X0.02375*%
%TA.AperFunction,ViaPad*%
%ADD114R,0.04737X0.04737*%
%TA.AperFunction,ViaPad*%
%ADD115C,0.04737*%
%TA.AperFunction,ViaPad*%
%ADD116R,0.04737X0.04737*%
G36*
X379110Y354981D02*
X379147Y354970D01*
X379181Y354952D01*
X379211Y354927D01*
X379235Y354897D01*
X379254Y354863D01*
X379265Y354826D01*
X379269Y354787D01*
Y337228D01*
X379265Y337189D01*
X379254Y337152D01*
X379235Y337118D01*
X379211Y337088D01*
X379181Y337063D01*
X379147Y337045D01*
X379110Y337034D01*
X379071Y337030D01*
X373559D01*
X373520Y337034D01*
X373483Y337045D01*
X373449Y337063D01*
X373419Y337088D01*
X373395Y337118D01*
X373376Y337152D01*
X373365Y337189D01*
X373361Y337228D01*
Y342266D01*
X370803Y342266D01*
X370765Y342270D01*
X370753Y342274D01*
X370727Y342282D01*
X370693Y342300D01*
X370663Y342324D01*
Y342324D01*
X370663D01*
X370639Y342354D01*
X370620Y342389D01*
X370613Y342414D01*
X370609Y342426D01*
X370605Y342464D01*
Y354787D01*
X370609Y354826D01*
X370620Y354863D01*
X370639Y354897D01*
X370663Y354927D01*
X370693Y354952D01*
X370727Y354970D01*
X370765Y354981D01*
X370803Y354985D01*
X379071D01*
X379110Y354981D01*
D02*
G37*
G36*
X381176Y354745D02*
X381213Y354734D01*
X381248Y354715D01*
X381278Y354691D01*
X381302Y354661D01*
X381321Y354627D01*
X381332Y354590D01*
X381336Y354551D01*
Y337504D01*
X381332Y337465D01*
X381321Y337428D01*
X381302Y337394D01*
X381278Y337364D01*
X381248Y337339D01*
X381213Y337321D01*
X381176Y337310D01*
X381138Y337306D01*
X380498D01*
X380459Y337310D01*
X380422Y337321D01*
X380388Y337339D01*
X380358Y337364D01*
X380334Y337394D01*
X380315Y337428D01*
X380304Y337465D01*
X380300Y337504D01*
Y354551D01*
X380304Y354590D01*
X380315Y354627D01*
X380334Y354661D01*
X380358Y354691D01*
X380388Y354715D01*
X380422Y354734D01*
X380459Y354745D01*
X380498Y354749D01*
X381138D01*
X381176Y354745D01*
D02*
G37*
D84*
X453906Y326049D02*
G03*
X453909Y325986I-61327J-3329D01*
G01*
D85*
X393000Y376250D02*
D03*
D86*
X378500Y373250D02*
D03*
D87*
X431000Y339500D02*
D03*
D88*
X379000Y272250D02*
D03*
D89*
X400693Y316000D02*
D03*
X387307D02*
D03*
D90*
X353468Y360500D02*
D03*
X359531D02*
D03*
X436969Y304500D02*
D03*
X443032D02*
D03*
D91*
X354059Y294071D02*
D03*
X351500D02*
D03*
X348941D02*
D03*
Y302929D02*
D03*
X351500D02*
D03*
X354059D02*
D03*
D92*
X342071Y344559D02*
D03*
Y342000D02*
D03*
Y339441D02*
D03*
X350929D02*
D03*
Y342000D02*
D03*
Y344559D02*
D03*
X367929Y296441D02*
D03*
Y299000D02*
D03*
Y301559D02*
D03*
X359071D02*
D03*
Y299000D02*
D03*
Y296441D02*
D03*
D93*
X366173Y306500D02*
D03*
X362827D02*
D03*
X395173Y294500D02*
D03*
X391827D02*
D03*
X358673Y332500D02*
D03*
X355327D02*
D03*
X336327Y327000D02*
D03*
X339673D02*
D03*
X366327Y312500D02*
D03*
X369673D02*
D03*
X369673Y318000D02*
D03*
X366327D02*
D03*
X369673Y323500D02*
D03*
X366327D02*
D03*
X337827Y332500D02*
D03*
X341173D02*
D03*
X336327Y321000D02*
D03*
X339673D02*
D03*
X346827Y332500D02*
D03*
X350173D02*
D03*
X446673Y326000D02*
D03*
X443327D02*
D03*
X434327Y326000D02*
D03*
X437673D02*
D03*
X416327Y309000D02*
D03*
X419673D02*
D03*
X364327Y331500D02*
D03*
X367673D02*
D03*
X373327D02*
D03*
X376673D02*
D03*
X407327Y309000D02*
D03*
X410673D02*
D03*
X424327Y282000D02*
D03*
X427673D02*
D03*
X426827Y309000D02*
D03*
X430173D02*
D03*
X363327Y278500D02*
D03*
X366673D02*
D03*
X349827Y290000D02*
D03*
X353173D02*
D03*
X414327Y274000D02*
D03*
X417673D02*
D03*
D94*
X386398Y295547D02*
D03*
Y297516D02*
D03*
Y299484D02*
D03*
Y301453D02*
D03*
X378602Y295547D02*
D03*
Y297516D02*
D03*
Y299484D02*
D03*
Y301453D02*
D03*
D95*
X382500Y298500D02*
D03*
D96*
X373000Y300173D02*
D03*
Y296827D02*
D03*
X348000Y354173D02*
D03*
Y350827D02*
D03*
X338000Y312327D02*
D03*
Y315673D02*
D03*
X340000Y306673D02*
D03*
Y303327D02*
D03*
X344500Y303327D02*
D03*
Y306673D02*
D03*
Y293827D02*
D03*
Y297173D02*
D03*
X439000Y292827D02*
D03*
Y296173D02*
D03*
X353500Y350827D02*
D03*
Y354173D02*
D03*
X392000Y299827D02*
D03*
Y303173D02*
D03*
X403000Y299827D02*
D03*
Y303173D02*
D03*
X408500D02*
D03*
Y299827D02*
D03*
X397500D02*
D03*
Y303173D02*
D03*
X403500Y270673D02*
D03*
Y267327D02*
D03*
D97*
X432500Y335500D02*
D03*
X445500D02*
D03*
X365500Y364500D02*
D03*
X378500D02*
D03*
D98*
X353000Y319000D02*
D03*
D99*
X349063Y327071D02*
D03*
X351031D02*
D03*
X353000D02*
D03*
X354969D02*
D03*
X356937D02*
D03*
Y310929D02*
D03*
X354969D02*
D03*
X353000D02*
D03*
X351031D02*
D03*
X349063D02*
D03*
D100*
X361071Y322937D02*
D03*
Y320969D02*
D03*
Y319000D02*
D03*
Y317032D02*
D03*
Y315063D02*
D03*
X344929D02*
D03*
Y317032D02*
D03*
Y319000D02*
D03*
Y320969D02*
D03*
Y322937D02*
D03*
D101*
X422291Y295839D02*
D03*
Y293280D02*
D03*
Y290721D02*
D03*
Y288161D02*
D03*
X433709Y295839D02*
D03*
Y293280D02*
D03*
Y290721D02*
D03*
Y288161D02*
D03*
D102*
X443740Y310776D02*
D03*
X436260D02*
D03*
Y320224D02*
D03*
X440000D02*
D03*
X443740D02*
D03*
X410260Y314276D02*
D03*
X414000D02*
D03*
X417740D02*
D03*
Y323724D02*
D03*
X414000D02*
D03*
X410260D02*
D03*
D103*
X417181Y349500D02*
D03*
X391000D02*
D03*
D104*
X361473Y336165D02*
D03*
X363245D02*
D03*
X365016D02*
D03*
X366788D02*
D03*
X368560D02*
D03*
X370331D02*
D03*
X374543D02*
D03*
X376315D02*
D03*
X378086D02*
D03*
X378481Y355850D02*
D03*
X376709D02*
D03*
X374938D02*
D03*
X373165D02*
D03*
X371393D02*
D03*
X368952D02*
D03*
X367181D02*
D03*
X365409D02*
D03*
X363637D02*
D03*
X361866D02*
D03*
D105*
X382024Y338055D02*
D03*
Y339827D02*
D03*
Y341598D02*
D03*
Y343370D02*
D03*
Y345142D02*
D03*
Y346913D02*
D03*
Y348685D02*
D03*
Y350457D02*
D03*
Y352228D02*
D03*
Y354000D02*
D03*
X358598Y354079D02*
D03*
Y352307D02*
D03*
Y350535D02*
D03*
Y348764D02*
D03*
Y346992D02*
D03*
Y345220D02*
D03*
Y343449D02*
D03*
Y341677D02*
D03*
Y339905D02*
D03*
Y338134D02*
D03*
D106*
X365389Y342563D02*
D03*
D107*
Y351185D02*
D03*
D108*
X371393Y340004D02*
D03*
D109*
X424500Y315469D02*
D03*
Y321532D02*
D03*
D110*
X378000Y310343D02*
D03*
Y320657D02*
D03*
D111*
X431000Y346000D02*
D03*
Y359000D02*
D03*
D112*
X417854Y302500D02*
D03*
X427146D02*
D03*
D113*
X389571Y271059D02*
D03*
Y268500D02*
D03*
Y265941D02*
D03*
X398429D02*
D03*
Y271059D02*
D03*
D114*
X411500Y291000D02*
D03*
D115*
X416500D02*
D03*
X411500Y286000D02*
D03*
X416500D02*
D03*
X411500Y281000D02*
D03*
X416500D02*
D03*
X360000Y290000D02*
D03*
X365000Y285000D02*
D03*
Y290000D02*
D03*
D116*
X360000Y285000D02*
D03*
%TF.MD5,A34F0391DE8BE9645A362F28E1E24300*%
M02*
