G04 Layer_Color=65535*
%FSLAX25Y25*%
%MOIN*%
%TF.FileFunction,Legend,Top*%
%TF.Part,Single*%
G01*
G75*
%ADD38C,0.01000*%
%ADD67C,0.00787*%
%ADD68C,0.00984*%
%ADD69C,0.00394*%
%ADD70C,0.00866*%
%ADD71C,0.00500*%
%ADD72R,0.01063X0.04724*%
%ADD73R,0.01500X0.01500*%
%ADD74R,0.02362X0.01831*%
%ADD75R,0.02362X0.02331*%
%ADD76R,0.03000X0.02500*%
%ADD77R,0.01000X0.01000*%
%ADD78R,0.02831X0.02362*%
%ADD79R,0.02362X0.02831*%
%ADD80R,0.02000X0.01862*%
%ADD81R,0.02406X0.02362*%
%ADD82R,0.03543X0.01906*%
%ADD83R,0.01906X0.02362*%
G36*
X378461Y291846D02*
X378484D01*
X378510Y291843D01*
X378570Y291831D01*
X378645Y291812D01*
X378728Y291786D01*
X378814Y291749D01*
X378907Y291696D01*
X378739Y291258D01*
X378731Y291261D01*
X378709Y291272D01*
X378675Y291291D01*
X378630Y291310D01*
X378577Y291329D01*
X378521Y291348D01*
X378457Y291359D01*
X378394Y291363D01*
X378367D01*
X378338Y291359D01*
X378300Y291351D01*
X378259Y291340D01*
X378214Y291321D01*
X378165Y291299D01*
X378116Y291269D01*
X378113Y291265D01*
X378098Y291250D01*
X378075Y291231D01*
X378049Y291201D01*
X378019Y291164D01*
X377989Y291119D01*
X377962Y291070D01*
X377940Y291010D01*
Y291006D01*
X377936Y290999D01*
X377933Y290984D01*
X377929Y290965D01*
X377921Y290943D01*
X377918Y290916D01*
X377910Y290882D01*
X377903Y290849D01*
X377888Y290766D01*
X377876Y290672D01*
X377869Y290567D01*
X377865Y290459D01*
Y289000D01*
X377393D01*
Y291786D01*
X377816D01*
Y291363D01*
X377820Y291366D01*
X377824Y291374D01*
X377831Y291389D01*
X377842Y291411D01*
X377857Y291434D01*
X377876Y291460D01*
X377914Y291524D01*
X377959Y291587D01*
X378011Y291651D01*
X378064Y291707D01*
X378090Y291734D01*
X378116Y291753D01*
X378124Y291756D01*
X378142Y291768D01*
X378169Y291782D01*
X378206Y291801D01*
X378251Y291820D01*
X378304Y291835D01*
X378360Y291846D01*
X378420Y291850D01*
X378443D01*
X378461Y291846D01*
D02*
G37*
G36*
X372514Y289000D02*
X371985D01*
X370500Y292844D01*
X371051D01*
X372049Y290050D01*
Y290046D01*
X372053Y290035D01*
X372060Y290016D01*
X372067Y289994D01*
X372079Y289964D01*
X372090Y289926D01*
X372105Y289889D01*
X372120Y289844D01*
X372150Y289746D01*
X372184Y289641D01*
X372217Y289532D01*
X372251Y289420D01*
Y289424D01*
X372255Y289435D01*
X372259Y289450D01*
X372266Y289473D01*
X372277Y289503D01*
X372285Y289536D01*
X372296Y289574D01*
X372311Y289619D01*
X372341Y289713D01*
X372375Y289818D01*
X372416Y289934D01*
X372458Y290050D01*
X373500Y292844D01*
X374018D01*
X372514Y289000D01*
D02*
G37*
G36*
X385309D02*
X384836D01*
Y292004D01*
X384833D01*
X384829Y291996D01*
X384818Y291989D01*
X384806Y291978D01*
X384769Y291944D01*
X384716Y291902D01*
X384652Y291854D01*
X384574Y291797D01*
X384484Y291738D01*
X384386Y291677D01*
X384383D01*
X384375Y291670D01*
X384360Y291663D01*
X384341Y291651D01*
X384315Y291636D01*
X384289Y291621D01*
X384221Y291587D01*
X384146Y291550D01*
X384064Y291509D01*
X383978Y291471D01*
X383895Y291438D01*
Y291891D01*
X383899Y291895D01*
X383914Y291899D01*
X383932Y291910D01*
X383962Y291925D01*
X383996Y291944D01*
X384034Y291966D01*
X384079Y291989D01*
X384127Y292019D01*
X384236Y292083D01*
X384352Y292161D01*
X384469Y292248D01*
X384585Y292341D01*
X384589Y292345D01*
X384596Y292353D01*
X384615Y292368D01*
X384634Y292386D01*
X384656Y292412D01*
X384686Y292439D01*
X384716Y292473D01*
X384750Y292506D01*
X384818Y292585D01*
X384885Y292671D01*
X384949Y292765D01*
X384979Y292810D01*
X385001Y292859D01*
X385309D01*
Y289000D01*
D02*
G37*
G36*
X432500Y312500D02*
X428656D01*
Y313010D01*
X432046D01*
Y314900D01*
X432500D01*
Y312500D01*
D02*
G37*
G36*
X403725Y291846D02*
X403762Y291843D01*
X403811Y291839D01*
X403871Y291831D01*
X403931Y291820D01*
X404003Y291801D01*
X404074Y291782D01*
X404149Y291756D01*
X404227Y291726D01*
X404306Y291689D01*
X404385Y291648D01*
X404460Y291595D01*
X404535Y291539D01*
X404606Y291471D01*
X404610Y291467D01*
X404621Y291453D01*
X404640Y291434D01*
X404663Y291404D01*
X404693Y291363D01*
X404722Y291318D01*
X404756Y291265D01*
X404790Y291201D01*
X404824Y291130D01*
X404857Y291051D01*
X404887Y290969D01*
X404917Y290875D01*
X404940Y290774D01*
X404959Y290669D01*
X404970Y290552D01*
X404974Y290433D01*
Y290425D01*
Y290410D01*
Y290380D01*
X404970Y290342D01*
Y290298D01*
X404966Y290245D01*
X404959Y290189D01*
X404955Y290125D01*
X404936Y289990D01*
X404906Y289847D01*
X404865Y289709D01*
X404843Y289645D01*
X404812Y289585D01*
Y289581D01*
X404805Y289570D01*
X404798Y289555D01*
X404782Y289536D01*
X404768Y289510D01*
X404745Y289480D01*
X404693Y289409D01*
X404625Y289334D01*
X404546Y289251D01*
X404449Y289176D01*
X404340Y289105D01*
X404336D01*
X404325Y289097D01*
X404310Y289090D01*
X404287Y289079D01*
X404257Y289068D01*
X404224Y289053D01*
X404186Y289037D01*
X404141Y289022D01*
X404093Y289004D01*
X404040Y288989D01*
X403928Y288963D01*
X403804Y288944D01*
X403736Y288940D01*
X403669Y288936D01*
X403643D01*
X403613Y288940D01*
X403571Y288944D01*
X403522Y288948D01*
X403466Y288955D01*
X403403Y288966D01*
X403335Y288985D01*
X403260Y289004D01*
X403185Y289026D01*
X403106Y289060D01*
X403027Y289094D01*
X402949Y289139D01*
X402870Y289188D01*
X402799Y289244D01*
X402728Y289311D01*
X402724Y289315D01*
X402712Y289330D01*
X402694Y289349D01*
X402671Y289383D01*
X402645Y289420D01*
X402615Y289469D01*
X402581Y289521D01*
X402548Y289589D01*
X402514Y289660D01*
X402480Y289739D01*
X402450Y289829D01*
X402424Y289926D01*
X402401Y290031D01*
X402383Y290144D01*
X402371Y290264D01*
X402367Y290391D01*
Y290395D01*
Y290399D01*
Y290410D01*
Y290425D01*
X402371Y290466D01*
X402375Y290519D01*
X402383Y290582D01*
X402390Y290657D01*
X402405Y290740D01*
X402420Y290826D01*
X402443Y290916D01*
X402472Y291014D01*
X402506Y291108D01*
X402548Y291201D01*
X402596Y291295D01*
X402653Y291381D01*
X402720Y291464D01*
X402795Y291539D01*
X402799Y291543D01*
X402810Y291554D01*
X402833Y291569D01*
X402859Y291587D01*
X402892Y291610D01*
X402938Y291636D01*
X402986Y291666D01*
X403039Y291696D01*
X403099Y291722D01*
X403166Y291753D01*
X403237Y291779D01*
X403316Y291801D01*
X403399Y291820D01*
X403485Y291835D01*
X403575Y291846D01*
X403669Y291850D01*
X403695D01*
X403725Y291846D01*
D02*
G37*
G36*
X430824Y320761D02*
X431878D01*
Y320315D01*
X430824D01*
Y319269D01*
X430385D01*
Y320315D01*
X429339D01*
Y320761D01*
X430385D01*
Y321808D01*
X430824D01*
Y320761D01*
D02*
G37*
G36*
X430670Y318680D02*
X430715D01*
X430764Y318676D01*
X430820Y318672D01*
X430880Y318665D01*
X430940Y318657D01*
X431071Y318639D01*
X431206Y318613D01*
X431337Y318579D01*
X431341D01*
X431353Y318575D01*
X431371Y318567D01*
X431394Y318560D01*
X431424Y318549D01*
X431458Y318537D01*
X431495Y318523D01*
X431532Y318508D01*
X431623Y318470D01*
X431716Y318425D01*
X431810Y318373D01*
X431896Y318316D01*
X431900D01*
X431908Y318309D01*
X431919Y318301D01*
X431934Y318290D01*
X431971Y318256D01*
X432024Y318215D01*
X432080Y318162D01*
X432136Y318103D01*
X432193Y318039D01*
X432245Y317968D01*
Y317964D01*
X432249Y317960D01*
X432256Y317949D01*
X432268Y317934D01*
X432275Y317915D01*
X432290Y317893D01*
X432316Y317840D01*
X432346Y317773D01*
X432380Y317694D01*
X432410Y317604D01*
X432436Y317506D01*
Y317502D01*
X432440Y317495D01*
X432444Y317480D01*
X432447Y317458D01*
X432451Y317435D01*
X432455Y317405D01*
X432463Y317368D01*
X432466Y317330D01*
X432474Y317285D01*
X432481Y317240D01*
X432489Y317135D01*
X432496Y317019D01*
X432500Y316891D01*
Y315504D01*
X428656D01*
Y316828D01*
Y316831D01*
Y316846D01*
Y316869D01*
Y316902D01*
Y316940D01*
X428660Y316981D01*
Y317030D01*
X428664Y317079D01*
X428671Y317191D01*
X428679Y317304D01*
X428694Y317412D01*
X428701Y317465D01*
X428713Y317510D01*
Y317514D01*
X428716Y317525D01*
X428720Y317544D01*
X428727Y317566D01*
X428735Y317596D01*
X428746Y317626D01*
X428761Y317664D01*
X428776Y317705D01*
X428814Y317795D01*
X428862Y317889D01*
X428919Y317986D01*
X428990Y318076D01*
X428994Y318080D01*
X429001Y318091D01*
X429016Y318106D01*
X429035Y318125D01*
X429061Y318151D01*
X429091Y318181D01*
X429129Y318211D01*
X429166Y318249D01*
X429211Y318283D01*
X429264Y318320D01*
X429316Y318357D01*
X429373Y318395D01*
X429436Y318432D01*
X429504Y318466D01*
X429646Y318530D01*
X429650D01*
X429665Y318537D01*
X429688Y318545D01*
X429717Y318552D01*
X429755Y318567D01*
X429800Y318579D01*
X429852Y318594D01*
X429909Y318609D01*
X429973Y318620D01*
X430044Y318635D01*
X430119Y318650D01*
X430197Y318661D01*
X430284Y318669D01*
X430370Y318676D01*
X430557Y318684D01*
X430632D01*
X430670Y318680D01*
D02*
G37*
G36*
X406669Y374095D02*
X409149D01*
Y373500D01*
X406000D01*
Y378543D01*
X406669D01*
Y374095D01*
D02*
G37*
G36*
X409052Y270332D02*
X413500D01*
Y269663D01*
X409052D01*
Y268000D01*
X408457D01*
Y272000D01*
X409052D01*
Y270332D01*
D02*
G37*
G36*
X422747Y279058D02*
X422786Y279053D01*
X422835Y279048D01*
X422884Y279043D01*
X422993Y279023D01*
X423111Y278994D01*
X423234Y278949D01*
X423352Y278895D01*
X423357D01*
X423366Y278886D01*
X423381Y278881D01*
X423406Y278866D01*
X423460Y278826D01*
X423534Y278777D01*
X423612Y278708D01*
X423696Y278630D01*
X423780Y278531D01*
X423858Y278423D01*
Y278418D01*
X423868Y278408D01*
X423878Y278394D01*
X423893Y278369D01*
X423908Y278339D01*
X423927Y278305D01*
X423947Y278261D01*
X423972Y278216D01*
X423996Y278162D01*
X424021Y278108D01*
X424070Y277980D01*
X424124Y277833D01*
X424168Y277675D01*
Y277670D01*
X424173Y277656D01*
X424178Y277631D01*
X424188Y277596D01*
X424198Y277552D01*
X424208Y277498D01*
X424218Y277434D01*
X424228Y277360D01*
X424237Y277282D01*
X424247Y277188D01*
X424257Y277095D01*
X424267Y276986D01*
X424277Y276873D01*
X424282Y276750D01*
X424287Y276622D01*
Y276485D01*
Y276475D01*
Y276445D01*
Y276401D01*
X424282Y276337D01*
Y276263D01*
X424277Y276175D01*
X424272Y276081D01*
X424262Y275973D01*
X424252Y275860D01*
X424242Y275747D01*
X424208Y275505D01*
X424164Y275269D01*
X424134Y275161D01*
X424100Y275053D01*
Y275048D01*
X424090Y275028D01*
X424080Y274999D01*
X424065Y274964D01*
X424046Y274915D01*
X424021Y274866D01*
X423996Y274807D01*
X423962Y274743D01*
X423888Y274610D01*
X423795Y274467D01*
X423681Y274335D01*
X423617Y274271D01*
X423554Y274212D01*
X423549Y274207D01*
X423539Y274197D01*
X423519Y274182D01*
X423490Y274167D01*
X423455Y274143D01*
X423411Y274118D01*
X423362Y274094D01*
X423308Y274064D01*
X423244Y274034D01*
X423175Y274010D01*
X423101Y273985D01*
X423017Y273961D01*
X422934Y273946D01*
X422840Y273931D01*
X422747Y273921D01*
X422643Y273916D01*
X422609D01*
X422574Y273921D01*
X422520Y273926D01*
X422461Y273931D01*
X422387Y273946D01*
X422309Y273961D01*
X422225Y273980D01*
X422136Y274010D01*
X422043Y274044D01*
X421945Y274084D01*
X421851Y274133D01*
X421758Y274192D01*
X421664Y274261D01*
X421576Y274344D01*
X421497Y274433D01*
X421492Y274443D01*
X421477Y274463D01*
X421453Y274502D01*
X421418Y274556D01*
X421384Y274625D01*
X421340Y274709D01*
X421295Y274812D01*
X421251Y274930D01*
X421202Y275063D01*
X421157Y275215D01*
X421113Y275382D01*
X421079Y275565D01*
X421044Y275771D01*
X421020Y275988D01*
X421005Y276229D01*
X421000Y276485D01*
Y276489D01*
Y276494D01*
Y276524D01*
Y276573D01*
X421005Y276632D01*
Y276711D01*
X421010Y276795D01*
X421015Y276893D01*
X421025Y277001D01*
X421034Y277114D01*
X421044Y277232D01*
X421079Y277469D01*
X421123Y277710D01*
X421152Y277818D01*
X421182Y277926D01*
Y277931D01*
X421192Y277951D01*
X421202Y277980D01*
X421216Y278015D01*
X421236Y278064D01*
X421261Y278113D01*
X421285Y278172D01*
X421320Y278236D01*
X421394Y278374D01*
X421487Y278512D01*
X421600Y278644D01*
X421664Y278708D01*
X421728Y278767D01*
X421733Y278772D01*
X421743Y278782D01*
X421768Y278797D01*
X421792Y278812D01*
X421832Y278836D01*
X421871Y278861D01*
X421925Y278886D01*
X421979Y278915D01*
X422043Y278945D01*
X422112Y278969D01*
X422186Y278994D01*
X422269Y279018D01*
X422353Y279033D01*
X422446Y279048D01*
X422540Y279058D01*
X422643Y279063D01*
X422712D01*
X422747Y279058D01*
D02*
G37*
G36*
X411525Y375015D02*
X409621D01*
Y375640D01*
X411525D01*
Y375015D01*
D02*
G37*
G36*
X382841Y289000D02*
X382305D01*
Y289536D01*
X382841D01*
Y289000D01*
D02*
G37*
G36*
X380381Y292855D02*
X380422D01*
X380468Y292851D01*
X380520Y292844D01*
X380580Y292832D01*
X380647Y292821D01*
X380715Y292803D01*
X380786Y292784D01*
X380861Y292758D01*
X380932Y292727D01*
X381008Y292694D01*
X381075Y292653D01*
X381142Y292604D01*
X381206Y292551D01*
X381210Y292547D01*
X381221Y292536D01*
X381236Y292521D01*
X381255Y292495D01*
X381281Y292465D01*
X381308Y292431D01*
X381337Y292390D01*
X381367Y292341D01*
X381398Y292289D01*
X381428Y292229D01*
X381454Y292169D01*
X381480Y292101D01*
X381499Y292030D01*
X381514Y291951D01*
X381525Y291873D01*
X381529Y291790D01*
Y291786D01*
Y291779D01*
Y291768D01*
Y291753D01*
X381525Y291730D01*
Y291707D01*
X381518Y291648D01*
X381506Y291580D01*
X381487Y291501D01*
X381465Y291419D01*
X381431Y291336D01*
Y291333D01*
X381428Y291325D01*
X381420Y291314D01*
X381413Y291299D01*
X381401Y291276D01*
X381390Y291254D01*
X381356Y291194D01*
X381315Y291126D01*
X381259Y291044D01*
X381195Y290957D01*
X381116Y290867D01*
X381113Y290864D01*
X381105Y290856D01*
X381094Y290841D01*
X381075Y290823D01*
X381049Y290796D01*
X381023Y290766D01*
X380985Y290733D01*
X380944Y290691D01*
X380899Y290646D01*
X380842Y290594D01*
X380786Y290538D01*
X380719Y290477D01*
X380647Y290414D01*
X380569Y290342D01*
X380483Y290271D01*
X380393Y290193D01*
X380389Y290189D01*
X380374Y290177D01*
X380351Y290159D01*
X380325Y290136D01*
X380291Y290106D01*
X380254Y290072D01*
X380164Y289998D01*
X380074Y289919D01*
X379984Y289840D01*
X379942Y289803D01*
X379905Y289765D01*
X379871Y289735D01*
X379845Y289709D01*
X379841Y289705D01*
X379826Y289686D01*
X379804Y289660D01*
X379774Y289630D01*
X379744Y289589D01*
X379710Y289547D01*
X379676Y289503D01*
X379646Y289454D01*
X381533D01*
Y289000D01*
X378994D01*
Y289004D01*
Y289007D01*
Y289030D01*
Y289060D01*
X378997Y289105D01*
X379005Y289154D01*
X379012Y289210D01*
X379028Y289266D01*
X379046Y289326D01*
Y289330D01*
X379050Y289337D01*
X379058Y289352D01*
X379065Y289371D01*
X379076Y289394D01*
X379087Y289420D01*
X379121Y289488D01*
X379166Y289566D01*
X379219Y289652D01*
X379282Y289742D01*
X379358Y289836D01*
X379361Y289840D01*
X379369Y289847D01*
X379380Y289862D01*
X379399Y289881D01*
X379421Y289904D01*
X379448Y289934D01*
X379478Y289967D01*
X379515Y290005D01*
X379556Y290042D01*
X379601Y290088D01*
X379654Y290136D01*
X379706Y290189D01*
X379766Y290241D01*
X379830Y290298D01*
X379901Y290357D01*
X379973Y290418D01*
X379980Y290425D01*
X379999Y290440D01*
X380032Y290466D01*
X380074Y290504D01*
X380126Y290545D01*
X380183Y290598D01*
X380246Y290654D01*
X380314Y290714D01*
X380456Y290845D01*
X380595Y290980D01*
X380659Y291048D01*
X380719Y291115D01*
X380775Y291175D01*
X380820Y291235D01*
X380824Y291239D01*
X380831Y291250D01*
X380842Y291265D01*
X380854Y291287D01*
X380873Y291314D01*
X380891Y291344D01*
X380910Y291381D01*
X380932Y291419D01*
X380974Y291505D01*
X381011Y291599D01*
X381023Y291651D01*
X381034Y291700D01*
X381041Y291753D01*
X381045Y291801D01*
Y291805D01*
Y291812D01*
Y291828D01*
X381041Y291850D01*
X381037Y291873D01*
X381034Y291899D01*
X381019Y291966D01*
X380996Y292041D01*
X380959Y292120D01*
X380936Y292158D01*
X380910Y292199D01*
X380880Y292236D01*
X380842Y292274D01*
X380839Y292278D01*
X380835Y292281D01*
X380820Y292292D01*
X380805Y292304D01*
X380786Y292319D01*
X380760Y292334D01*
X380734Y292353D01*
X380700Y292371D01*
X380666Y292390D01*
X380625Y292409D01*
X380535Y292439D01*
X380434Y292461D01*
X380378Y292465D01*
X380317Y292469D01*
X380284D01*
X380261Y292465D01*
X380231Y292461D01*
X380198Y292458D01*
X380160Y292450D01*
X380122Y292442D01*
X380032Y292420D01*
X379942Y292383D01*
X379897Y292360D01*
X379853Y292330D01*
X379811Y292300D01*
X379770Y292263D01*
X379766Y292259D01*
X379763Y292255D01*
X379751Y292240D01*
X379740Y292225D01*
X379725Y292206D01*
X379706Y292180D01*
X379688Y292150D01*
X379669Y292116D01*
X379650Y292079D01*
X379631Y292038D01*
X379616Y291989D01*
X379597Y291940D01*
X379586Y291887D01*
X379575Y291828D01*
X379571Y291768D01*
X379568Y291700D01*
X379084Y291749D01*
Y291756D01*
X379087Y291771D01*
X379091Y291801D01*
X379095Y291839D01*
X379106Y291884D01*
X379117Y291936D01*
X379133Y291992D01*
X379148Y292056D01*
X379170Y292120D01*
X379196Y292188D01*
X379226Y292255D01*
X379260Y292326D01*
X379301Y292394D01*
X379346Y292458D01*
X379399Y292517D01*
X379455Y292574D01*
X379459Y292578D01*
X379470Y292585D01*
X379489Y292600D01*
X379515Y292619D01*
X379549Y292641D01*
X379586Y292664D01*
X379635Y292690D01*
X379688Y292716D01*
X379748Y292742D01*
X379811Y292769D01*
X379883Y292791D01*
X379961Y292814D01*
X380044Y292832D01*
X380134Y292847D01*
X380227Y292855D01*
X380329Y292859D01*
X380355D01*
X380381Y292855D01*
D02*
G37*
G36*
X375607Y291846D02*
X375649Y291843D01*
X375694Y291839D01*
X375750Y291831D01*
X375814Y291816D01*
X375877Y291801D01*
X375949Y291782D01*
X376024Y291756D01*
X376099Y291726D01*
X376174Y291689D01*
X376253Y291644D01*
X376327Y291595D01*
X376399Y291535D01*
X376466Y291467D01*
X376470Y291464D01*
X376481Y291449D01*
X376500Y291426D01*
X376522Y291396D01*
X376549Y291359D01*
X376579Y291310D01*
X376612Y291254D01*
X376646Y291190D01*
X376676Y291119D01*
X376710Y291036D01*
X376740Y290950D01*
X376766Y290852D01*
X376789Y290751D01*
X376807Y290639D01*
X376819Y290523D01*
X376822Y290395D01*
Y290388D01*
Y290376D01*
Y290365D01*
Y290346D01*
Y290324D01*
X376819Y290301D01*
Y290271D01*
X374738D01*
Y290267D01*
Y290252D01*
X374741Y290226D01*
X374745Y290196D01*
X374752Y290159D01*
X374760Y290114D01*
X374767Y290065D01*
X374779Y290009D01*
X374813Y289896D01*
X374835Y289836D01*
X374857Y289780D01*
X374887Y289724D01*
X374918Y289668D01*
X374955Y289615D01*
X374996Y289566D01*
X375000Y289563D01*
X375008Y289555D01*
X375019Y289544D01*
X375038Y289529D01*
X375060Y289510D01*
X375090Y289488D01*
X375120Y289469D01*
X375157Y289446D01*
X375199Y289420D01*
X375240Y289401D01*
X375289Y289379D01*
X375341Y289360D01*
X375397Y289345D01*
X375454Y289334D01*
X375518Y289326D01*
X375581Y289322D01*
X375607D01*
X375626Y289326D01*
X375649D01*
X375671Y289330D01*
X375735Y289341D01*
X375802Y289356D01*
X375877Y289379D01*
X375953Y289412D01*
X376024Y289458D01*
X376027D01*
X376031Y289465D01*
X376054Y289484D01*
X376087Y289517D01*
X376129Y289566D01*
X376178Y289626D01*
X376226Y289701D01*
X376249Y289746D01*
X376271Y289795D01*
X376294Y289844D01*
X376316Y289900D01*
X376804Y289836D01*
Y289832D01*
X376800Y289818D01*
X376793Y289795D01*
X376781Y289765D01*
X376770Y289727D01*
X376751Y289686D01*
X376732Y289641D01*
X376710Y289593D01*
X376680Y289540D01*
X376650Y289484D01*
X376616Y289427D01*
X376575Y289371D01*
X376534Y289319D01*
X376485Y289266D01*
X376432Y289214D01*
X376376Y289169D01*
X376373Y289165D01*
X376361Y289158D01*
X376346Y289146D01*
X376320Y289131D01*
X376290Y289116D01*
X376253Y289094D01*
X376207Y289075D01*
X376159Y289053D01*
X376106Y289030D01*
X376046Y289011D01*
X375979Y288989D01*
X375911Y288974D01*
X375833Y288959D01*
X375754Y288948D01*
X375671Y288940D01*
X375581Y288936D01*
X375555D01*
X375521Y288940D01*
X375480Y288944D01*
X375428Y288948D01*
X375367Y288955D01*
X375304Y288966D01*
X375233Y288985D01*
X375154Y289004D01*
X375075Y289026D01*
X374996Y289060D01*
X374914Y289094D01*
X374835Y289139D01*
X374756Y289188D01*
X374681Y289244D01*
X374610Y289311D01*
X374606Y289315D01*
X374595Y289330D01*
X374576Y289349D01*
X374554Y289383D01*
X374528Y289420D01*
X374498Y289465D01*
X374464Y289521D01*
X374434Y289585D01*
X374400Y289656D01*
X374366Y289735D01*
X374336Y289821D01*
X374310Y289915D01*
X374288Y290016D01*
X374269Y290129D01*
X374257Y290245D01*
X374254Y290369D01*
Y290372D01*
Y290376D01*
Y290399D01*
X374257Y290436D01*
X374261Y290485D01*
X374265Y290545D01*
X374272Y290613D01*
X374284Y290687D01*
X374299Y290770D01*
X374318Y290852D01*
X374340Y290943D01*
X374370Y291033D01*
X374408Y291126D01*
X374449Y291216D01*
X374494Y291302D01*
X374550Y291385D01*
X374614Y291460D01*
X374618Y291464D01*
X374633Y291479D01*
X374651Y291497D01*
X374681Y291520D01*
X374715Y291550D01*
X374760Y291584D01*
X374809Y291617D01*
X374869Y291655D01*
X374933Y291692D01*
X375004Y291726D01*
X375082Y291760D01*
X375165Y291790D01*
X375255Y291812D01*
X375349Y291835D01*
X375450Y291846D01*
X375555Y291850D01*
X375581D01*
X375607Y291846D01*
D02*
G37*
G36*
X406084Y291786D02*
X406556D01*
Y291419D01*
X406084D01*
Y289784D01*
Y289780D01*
Y289776D01*
Y289754D01*
Y289716D01*
X406087Y289679D01*
Y289634D01*
X406095Y289593D01*
X406099Y289555D01*
X406106Y289525D01*
Y289521D01*
X406110Y289517D01*
X406125Y289491D01*
X406151Y289465D01*
X406189Y289435D01*
X406192D01*
X406200Y289431D01*
X406211Y289424D01*
X406230Y289420D01*
X406252Y289412D01*
X406283Y289405D01*
X406313Y289401D01*
X406380D01*
X406402Y289405D01*
X406432D01*
X406470Y289409D01*
X406511Y289412D01*
X406556Y289420D01*
X406624Y289004D01*
X406616D01*
X406605Y289000D01*
X406590Y288996D01*
X406553Y288993D01*
X406504Y288985D01*
X406448Y288978D01*
X406388Y288970D01*
X406324Y288966D01*
X406264Y288963D01*
X406222D01*
X406200Y288966D01*
X406178D01*
X406117Y288974D01*
X406054Y288981D01*
X405990Y288996D01*
X405923Y289015D01*
X405866Y289041D01*
X405859Y289045D01*
X405844Y289056D01*
X405818Y289075D01*
X405788Y289097D01*
X405754Y289131D01*
X405724Y289165D01*
X405694Y289210D01*
X405667Y289255D01*
X405664Y289263D01*
Y289270D01*
X405660Y289281D01*
X405656Y289300D01*
X405649Y289319D01*
X405645Y289345D01*
X405641Y289375D01*
X405634Y289412D01*
X405630Y289450D01*
X405626Y289495D01*
X405619Y289547D01*
X405615Y289604D01*
Y289668D01*
X405611Y289739D01*
Y289814D01*
Y291419D01*
X405263D01*
Y291786D01*
X405611D01*
Y292473D01*
X406084Y292758D01*
Y291786D01*
D02*
G37*
G36*
X406000Y347548D02*
X401521D01*
Y348142D01*
X405471D01*
Y350344D01*
X406000D01*
Y347548D01*
D02*
G37*
G36*
X404610Y354828D02*
X404650Y354815D01*
X404698Y354802D01*
X404759Y354780D01*
X404829Y354754D01*
X404908Y354719D01*
X404990Y354684D01*
X405082Y354640D01*
X405174Y354592D01*
X405266Y354535D01*
X405358Y354474D01*
X405449Y354404D01*
X405537Y354334D01*
X405620Y354251D01*
X405694Y354164D01*
X405698Y354159D01*
X405712Y354142D01*
X405729Y354116D01*
X405755Y354077D01*
X405782Y354028D01*
X405812Y353972D01*
X405847Y353906D01*
X405882Y353836D01*
X405921Y353753D01*
X405952Y353661D01*
X405987Y353565D01*
X406013Y353460D01*
X406039Y353347D01*
X406057Y353233D01*
X406070Y353106D01*
X406074Y352980D01*
Y352971D01*
Y352949D01*
Y352910D01*
X406070Y352857D01*
X406066Y352796D01*
X406057Y352726D01*
X406048Y352647D01*
X406039Y352560D01*
X406022Y352468D01*
X406004Y352372D01*
X405978Y352276D01*
X405952Y352176D01*
X405917Y352079D01*
X405878Y351979D01*
X405834Y351887D01*
X405782Y351800D01*
X405777Y351795D01*
X405768Y351782D01*
X405751Y351756D01*
X405725Y351726D01*
X405698Y351686D01*
X405659Y351647D01*
X405615Y351599D01*
X405563Y351546D01*
X405506Y351489D01*
X405445Y351433D01*
X405375Y351376D01*
X405296Y351319D01*
X405213Y351267D01*
X405126Y351210D01*
X405030Y351162D01*
X404929Y351114D01*
X404921Y351109D01*
X404903Y351105D01*
X404873Y351092D01*
X404833Y351079D01*
X404781Y351061D01*
X404720Y351039D01*
X404650Y351017D01*
X404571Y350996D01*
X404484Y350974D01*
X404392Y350952D01*
X404291Y350935D01*
X404186Y350913D01*
X404077Y350900D01*
X403964Y350886D01*
X403846Y350882D01*
X403728Y350878D01*
X403658D01*
X403610Y350882D01*
X403548Y350886D01*
X403478Y350891D01*
X403400Y350900D01*
X403312Y350913D01*
X403221Y350926D01*
X403125Y350943D01*
X403020Y350965D01*
X402919Y350991D01*
X402814Y351022D01*
X402709Y351057D01*
X402609Y351096D01*
X402508Y351144D01*
X402504Y351149D01*
X402487Y351157D01*
X402456Y351170D01*
X402421Y351192D01*
X402377Y351223D01*
X402329Y351254D01*
X402272Y351293D01*
X402211Y351341D01*
X402150Y351389D01*
X402084Y351446D01*
X402019Y351511D01*
X401953Y351577D01*
X401888Y351651D01*
X401827Y351730D01*
X401765Y351813D01*
X401713Y351905D01*
X401709Y351909D01*
X401700Y351926D01*
X401687Y351953D01*
X401669Y351992D01*
X401652Y352036D01*
X401626Y352093D01*
X401604Y352154D01*
X401578Y352228D01*
X401551Y352302D01*
X401530Y352385D01*
X401503Y352477D01*
X401486Y352573D01*
X401468Y352674D01*
X401455Y352774D01*
X401446Y352884D01*
X401442Y352993D01*
Y353001D01*
Y353023D01*
Y353058D01*
X401446Y353106D01*
X401451Y353163D01*
X401460Y353229D01*
X401473Y353303D01*
X401486Y353386D01*
X401503Y353469D01*
X401525Y353561D01*
X401556Y353657D01*
X401586Y353749D01*
X401626Y353845D01*
X401674Y353941D01*
X401726Y354033D01*
X401787Y354120D01*
X401792Y354125D01*
X401805Y354142D01*
X401822Y354164D01*
X401849Y354194D01*
X401884Y354234D01*
X401927Y354273D01*
X401980Y354321D01*
X402036Y354374D01*
X402102Y354426D01*
X402172Y354479D01*
X402250Y354531D01*
X402338Y354583D01*
X402430Y354636D01*
X402530Y354684D01*
X402635Y354723D01*
X402749Y354763D01*
X402884Y354177D01*
X402880D01*
X402862Y354168D01*
X402836Y354159D01*
X402806Y354146D01*
X402766Y354133D01*
X402718Y354112D01*
X402670Y354090D01*
X402613Y354063D01*
X402500Y353998D01*
X402382Y353919D01*
X402272Y353827D01*
X402220Y353775D01*
X402176Y353723D01*
X402172Y353718D01*
X402168Y353709D01*
X402154Y353692D01*
X402141Y353670D01*
X402124Y353640D01*
X402106Y353605D01*
X402084Y353565D01*
X402063Y353517D01*
X402041Y353469D01*
X402019Y353412D01*
X402001Y353351D01*
X401984Y353286D01*
X401958Y353141D01*
X401953Y353063D01*
X401949Y352980D01*
Y352975D01*
Y352958D01*
Y352932D01*
X401953Y352892D01*
X401958Y352849D01*
X401962Y352796D01*
X401971Y352739D01*
X401980Y352678D01*
X402010Y352538D01*
X402028Y352468D01*
X402054Y352394D01*
X402084Y352324D01*
X402115Y352250D01*
X402154Y352180D01*
X402198Y352114D01*
X402203Y352110D01*
X402211Y352101D01*
X402224Y352084D01*
X402242Y352058D01*
X402268Y352031D01*
X402299Y351996D01*
X402334Y351961D01*
X402373Y351926D01*
X402421Y351883D01*
X402469Y351843D01*
X402526Y351804D01*
X402587Y351765D01*
X402648Y351726D01*
X402718Y351691D01*
X402788Y351660D01*
X402867Y351629D01*
X402871D01*
X402884Y351625D01*
X402906Y351616D01*
X402937Y351607D01*
X402976Y351599D01*
X403020Y351586D01*
X403072Y351572D01*
X403129Y351559D01*
X403190Y351546D01*
X403260Y351533D01*
X403404Y351511D01*
X403561Y351494D01*
X403723Y351489D01*
X403780D01*
X403819Y351494D01*
X403867D01*
X403929Y351498D01*
X403990Y351503D01*
X404064Y351511D01*
X404138Y351520D01*
X404217Y351529D01*
X404388Y351559D01*
X404558Y351599D01*
X404724Y351656D01*
X404728D01*
X404741Y351664D01*
X404763Y351673D01*
X404794Y351686D01*
X404829Y351704D01*
X404868Y351726D01*
X404960Y351782D01*
X405065Y351857D01*
X405170Y351944D01*
X405270Y352049D01*
X405314Y352110D01*
X405358Y352171D01*
X405362Y352176D01*
X405366Y352189D01*
X405375Y352206D01*
X405388Y352232D01*
X405406Y352263D01*
X405423Y352302D01*
X405441Y352346D01*
X405463Y352398D01*
X405480Y352451D01*
X405502Y352512D01*
X405532Y352639D01*
X405559Y352783D01*
X405563Y352857D01*
X405567Y352932D01*
Y352936D01*
Y352953D01*
Y352980D01*
X405563Y353015D01*
X405559Y353058D01*
X405554Y353106D01*
X405546Y353163D01*
X405532Y353224D01*
X405497Y353356D01*
X405476Y353425D01*
X405449Y353500D01*
X405414Y353570D01*
X405375Y353640D01*
X405331Y353709D01*
X405283Y353775D01*
X405279Y353779D01*
X405270Y353788D01*
X405253Y353810D01*
X405231Y353832D01*
X405200Y353858D01*
X405161Y353893D01*
X405117Y353928D01*
X405069Y353963D01*
X405012Y354002D01*
X404947Y354042D01*
X404877Y354081D01*
X404803Y354120D01*
X404720Y354155D01*
X404628Y354186D01*
X404532Y354216D01*
X404431Y354243D01*
X404580Y354837D01*
X404589D01*
X404610Y354828D01*
D02*
G37*
G36*
Y343702D02*
X404650Y343689D01*
X404698Y343676D01*
X404759Y343654D01*
X404829Y343628D01*
X404908Y343593D01*
X404990Y343558D01*
X405082Y343514D01*
X405174Y343466D01*
X405266Y343409D01*
X405358Y343348D01*
X405449Y343278D01*
X405537Y343208D01*
X405620Y343125D01*
X405694Y343038D01*
X405698Y343034D01*
X405712Y343016D01*
X405729Y342990D01*
X405755Y342951D01*
X405782Y342902D01*
X405812Y342846D01*
X405847Y342780D01*
X405882Y342710D01*
X405921Y342627D01*
X405952Y342535D01*
X405987Y342439D01*
X406013Y342334D01*
X406039Y342221D01*
X406057Y342107D01*
X406070Y341980D01*
X406074Y341854D01*
Y341845D01*
Y341823D01*
Y341784D01*
X406070Y341731D01*
X406066Y341670D01*
X406057Y341600D01*
X406048Y341522D01*
X406039Y341434D01*
X406022Y341342D01*
X406004Y341246D01*
X405978Y341150D01*
X405952Y341050D01*
X405917Y340953D01*
X405878Y340853D01*
X405834Y340761D01*
X405782Y340674D01*
X405777Y340669D01*
X405768Y340656D01*
X405751Y340630D01*
X405725Y340599D01*
X405698Y340560D01*
X405659Y340521D01*
X405615Y340473D01*
X405563Y340420D01*
X405506Y340364D01*
X405445Y340307D01*
X405375Y340250D01*
X405296Y340193D01*
X405213Y340141D01*
X405126Y340084D01*
X405030Y340036D01*
X404929Y339988D01*
X404921Y339983D01*
X404903Y339979D01*
X404873Y339966D01*
X404833Y339953D01*
X404781Y339935D01*
X404720Y339913D01*
X404650Y339892D01*
X404571Y339870D01*
X404484Y339848D01*
X404392Y339826D01*
X404291Y339809D01*
X404186Y339787D01*
X404077Y339774D01*
X403964Y339760D01*
X403846Y339756D01*
X403728Y339752D01*
X403658D01*
X403610Y339756D01*
X403548Y339760D01*
X403478Y339765D01*
X403400Y339774D01*
X403312Y339787D01*
X403221Y339800D01*
X403125Y339817D01*
X403020Y339839D01*
X402919Y339865D01*
X402814Y339896D01*
X402709Y339931D01*
X402609Y339970D01*
X402508Y340018D01*
X402504Y340023D01*
X402487Y340031D01*
X402456Y340044D01*
X402421Y340066D01*
X402377Y340097D01*
X402329Y340127D01*
X402272Y340167D01*
X402211Y340215D01*
X402150Y340263D01*
X402084Y340320D01*
X402019Y340385D01*
X401953Y340451D01*
X401888Y340525D01*
X401827Y340604D01*
X401765Y340687D01*
X401713Y340779D01*
X401709Y340783D01*
X401700Y340800D01*
X401687Y340827D01*
X401669Y340866D01*
X401652Y340910D01*
X401626Y340967D01*
X401604Y341028D01*
X401578Y341102D01*
X401551Y341176D01*
X401530Y341259D01*
X401503Y341351D01*
X401486Y341447D01*
X401468Y341548D01*
X401455Y341648D01*
X401446Y341757D01*
X401442Y341867D01*
Y341876D01*
Y341897D01*
Y341932D01*
X401446Y341980D01*
X401451Y342037D01*
X401460Y342103D01*
X401473Y342177D01*
X401486Y342260D01*
X401503Y342343D01*
X401525Y342435D01*
X401556Y342531D01*
X401586Y342623D01*
X401626Y342719D01*
X401674Y342815D01*
X401726Y342907D01*
X401787Y342994D01*
X401792Y342999D01*
X401805Y343016D01*
X401822Y343038D01*
X401849Y343069D01*
X401884Y343108D01*
X401927Y343147D01*
X401980Y343195D01*
X402036Y343248D01*
X402102Y343300D01*
X402172Y343353D01*
X402250Y343405D01*
X402338Y343457D01*
X402430Y343510D01*
X402530Y343558D01*
X402635Y343597D01*
X402749Y343637D01*
X402884Y343051D01*
X402880D01*
X402862Y343042D01*
X402836Y343034D01*
X402806Y343020D01*
X402766Y343007D01*
X402718Y342985D01*
X402670Y342964D01*
X402613Y342937D01*
X402500Y342872D01*
X402382Y342793D01*
X402272Y342701D01*
X402220Y342649D01*
X402176Y342597D01*
X402172Y342592D01*
X402168Y342583D01*
X402154Y342566D01*
X402141Y342544D01*
X402124Y342513D01*
X402106Y342478D01*
X402084Y342439D01*
X402063Y342391D01*
X402041Y342343D01*
X402019Y342286D01*
X402001Y342225D01*
X401984Y342160D01*
X401958Y342015D01*
X401953Y341937D01*
X401949Y341854D01*
Y341849D01*
Y341832D01*
Y341806D01*
X401953Y341766D01*
X401958Y341722D01*
X401962Y341670D01*
X401971Y341613D01*
X401980Y341552D01*
X402010Y341412D01*
X402028Y341342D01*
X402054Y341268D01*
X402084Y341198D01*
X402115Y341124D01*
X402154Y341054D01*
X402198Y340988D01*
X402203Y340984D01*
X402211Y340975D01*
X402224Y340958D01*
X402242Y340932D01*
X402268Y340905D01*
X402299Y340870D01*
X402334Y340835D01*
X402373Y340800D01*
X402421Y340757D01*
X402469Y340717D01*
X402526Y340678D01*
X402587Y340639D01*
X402648Y340599D01*
X402718Y340564D01*
X402788Y340534D01*
X402867Y340503D01*
X402871D01*
X402884Y340499D01*
X402906Y340490D01*
X402937Y340481D01*
X402976Y340473D01*
X403020Y340460D01*
X403072Y340446D01*
X403129Y340433D01*
X403190Y340420D01*
X403260Y340407D01*
X403404Y340385D01*
X403561Y340368D01*
X403723Y340364D01*
X403780D01*
X403819Y340368D01*
X403867D01*
X403929Y340372D01*
X403990Y340377D01*
X404064Y340385D01*
X404138Y340394D01*
X404217Y340403D01*
X404388Y340433D01*
X404558Y340473D01*
X404724Y340529D01*
X404728D01*
X404741Y340538D01*
X404763Y340547D01*
X404794Y340560D01*
X404829Y340578D01*
X404868Y340599D01*
X404960Y340656D01*
X405065Y340731D01*
X405170Y340818D01*
X405270Y340923D01*
X405314Y340984D01*
X405358Y341045D01*
X405362Y341050D01*
X405366Y341063D01*
X405375Y341080D01*
X405388Y341106D01*
X405406Y341137D01*
X405423Y341176D01*
X405441Y341220D01*
X405463Y341272D01*
X405480Y341325D01*
X405502Y341386D01*
X405532Y341513D01*
X405559Y341657D01*
X405563Y341731D01*
X405567Y341806D01*
Y341810D01*
Y341827D01*
Y341854D01*
X405563Y341889D01*
X405559Y341932D01*
X405554Y341980D01*
X405546Y342037D01*
X405532Y342098D01*
X405497Y342229D01*
X405476Y342299D01*
X405449Y342374D01*
X405414Y342444D01*
X405375Y342513D01*
X405331Y342583D01*
X405283Y342649D01*
X405279Y342653D01*
X405270Y342662D01*
X405253Y342684D01*
X405231Y342706D01*
X405200Y342732D01*
X405161Y342767D01*
X405117Y342802D01*
X405069Y342837D01*
X405012Y342876D01*
X404947Y342916D01*
X404877Y342955D01*
X404803Y342994D01*
X404720Y343029D01*
X404628Y343060D01*
X404532Y343090D01*
X404431Y343117D01*
X404580Y343711D01*
X404589D01*
X404610Y343702D01*
D02*
G37*
G36*
X404715Y346599D02*
X404768Y346595D01*
X404829Y346591D01*
X404894Y346586D01*
X405034Y346569D01*
X405178Y346547D01*
X405318Y346512D01*
X405384Y346490D01*
X405445Y346464D01*
X405449D01*
X405458Y346460D01*
X405476Y346451D01*
X405493Y346438D01*
X405519Y346425D01*
X405550Y346407D01*
X405620Y346359D01*
X405694Y346298D01*
X405773Y346224D01*
X405847Y346136D01*
X405913Y346031D01*
Y346027D01*
X405921Y346018D01*
X405926Y346001D01*
X405939Y345979D01*
X405952Y345953D01*
X405965Y345918D01*
X405978Y345878D01*
X405991Y345835D01*
X406009Y345787D01*
X406022Y345734D01*
X406048Y345616D01*
X406066Y345485D01*
X406074Y345341D01*
Y345332D01*
Y345315D01*
X406070Y345284D01*
Y345245D01*
X406066Y345197D01*
X406057Y345140D01*
X406048Y345074D01*
X406031Y345009D01*
X406013Y344935D01*
X405991Y344860D01*
X405965Y344786D01*
X405930Y344712D01*
X405895Y344637D01*
X405847Y344567D01*
X405799Y344497D01*
X405738Y344436D01*
X405733Y344432D01*
X405720Y344423D01*
X405703Y344406D01*
X405677Y344388D01*
X405637Y344366D01*
X405598Y344340D01*
X405546Y344310D01*
X405484Y344283D01*
X405419Y344253D01*
X405344Y344227D01*
X405262Y344200D01*
X405170Y344179D01*
X405074Y344161D01*
X404969Y344148D01*
X404855Y344139D01*
X404733D01*
X404658Y344672D01*
X404680D01*
X404706Y344677D01*
X404741D01*
X404781Y344681D01*
X404829Y344685D01*
X404881Y344694D01*
X404938Y344703D01*
X405052Y344725D01*
X405170Y344760D01*
X405222Y344781D01*
X405275Y344803D01*
X405318Y344830D01*
X405358Y344860D01*
X405366Y344869D01*
X405388Y344891D01*
X405419Y344930D01*
X405449Y344987D01*
X405484Y345053D01*
X405515Y345135D01*
X405537Y345232D01*
X405541Y345280D01*
X405546Y345337D01*
Y345341D01*
Y345345D01*
Y345358D01*
Y345376D01*
X405541Y345415D01*
X405532Y345468D01*
X405519Y345529D01*
X405502Y345594D01*
X405480Y345660D01*
X405445Y345721D01*
X405441Y345730D01*
X405428Y345747D01*
X405406Y345774D01*
X405371Y345809D01*
X405331Y345848D01*
X405288Y345883D01*
X405231Y345918D01*
X405170Y345944D01*
X405161Y345948D01*
X405135Y345953D01*
X405117Y345961D01*
X405091Y345966D01*
X405065Y345970D01*
X405030Y345979D01*
X404995Y345983D01*
X404951Y345988D01*
X404908Y345996D01*
X404855Y346001D01*
X404803Y346005D01*
X404741D01*
X404676Y346009D01*
X401521D01*
Y346604D01*
X404667D01*
X404715Y346599D01*
D02*
G37*
G36*
X404610Y365954D02*
X404650Y365941D01*
X404698Y365928D01*
X404759Y365906D01*
X404829Y365880D01*
X404908Y365845D01*
X404990Y365810D01*
X405082Y365766D01*
X405174Y365718D01*
X405266Y365661D01*
X405358Y365600D01*
X405449Y365530D01*
X405537Y365460D01*
X405620Y365377D01*
X405694Y365290D01*
X405698Y365286D01*
X405712Y365268D01*
X405729Y365242D01*
X405755Y365202D01*
X405782Y365155D01*
X405812Y365098D01*
X405847Y365032D01*
X405882Y364962D01*
X405921Y364879D01*
X405952Y364787D01*
X405987Y364691D01*
X406013Y364586D01*
X406039Y364473D01*
X406057Y364359D01*
X406070Y364232D01*
X406074Y364106D01*
Y364097D01*
Y364075D01*
Y364036D01*
X406070Y363983D01*
X406066Y363922D01*
X406057Y363852D01*
X406048Y363773D01*
X406039Y363686D01*
X406022Y363594D01*
X406004Y363498D01*
X405978Y363402D01*
X405952Y363302D01*
X405917Y363205D01*
X405878Y363105D01*
X405834Y363013D01*
X405782Y362926D01*
X405777Y362921D01*
X405768Y362908D01*
X405751Y362882D01*
X405725Y362852D01*
X405698Y362812D01*
X405659Y362773D01*
X405615Y362725D01*
X405563Y362672D01*
X405506Y362615D01*
X405445Y362559D01*
X405375Y362502D01*
X405296Y362445D01*
X405213Y362393D01*
X405126Y362336D01*
X405030Y362288D01*
X404929Y362240D01*
X404921Y362235D01*
X404903Y362231D01*
X404873Y362218D01*
X404833Y362205D01*
X404781Y362187D01*
X404720Y362165D01*
X404650Y362143D01*
X404571Y362122D01*
X404484Y362100D01*
X404392Y362078D01*
X404291Y362060D01*
X404186Y362039D01*
X404077Y362025D01*
X403964Y362012D01*
X403846Y362008D01*
X403728Y362004D01*
X403658D01*
X403610Y362008D01*
X403548Y362012D01*
X403478Y362017D01*
X403400Y362025D01*
X403312Y362039D01*
X403221Y362052D01*
X403125Y362069D01*
X403020Y362091D01*
X402919Y362117D01*
X402814Y362148D01*
X402709Y362183D01*
X402609Y362222D01*
X402508Y362270D01*
X402504Y362275D01*
X402487Y362283D01*
X402456Y362297D01*
X402421Y362318D01*
X402377Y362349D01*
X402329Y362380D01*
X402272Y362419D01*
X402211Y362467D01*
X402150Y362515D01*
X402084Y362572D01*
X402019Y362637D01*
X401953Y362703D01*
X401888Y362777D01*
X401827Y362856D01*
X401765Y362939D01*
X401713Y363031D01*
X401709Y363035D01*
X401700Y363053D01*
X401687Y363079D01*
X401669Y363118D01*
X401652Y363162D01*
X401626Y363219D01*
X401604Y363280D01*
X401578Y363354D01*
X401551Y363428D01*
X401530Y363511D01*
X401503Y363603D01*
X401486Y363699D01*
X401468Y363800D01*
X401455Y363900D01*
X401446Y364009D01*
X401442Y364119D01*
Y364127D01*
Y364149D01*
Y364184D01*
X401446Y364232D01*
X401451Y364289D01*
X401460Y364355D01*
X401473Y364429D01*
X401486Y364512D01*
X401503Y364595D01*
X401525Y364687D01*
X401556Y364783D01*
X401586Y364875D01*
X401626Y364971D01*
X401674Y365067D01*
X401726Y365159D01*
X401787Y365246D01*
X401792Y365251D01*
X401805Y365268D01*
X401822Y365290D01*
X401849Y365320D01*
X401884Y365360D01*
X401927Y365399D01*
X401980Y365447D01*
X402036Y365500D01*
X402102Y365552D01*
X402172Y365605D01*
X402250Y365657D01*
X402338Y365709D01*
X402430Y365762D01*
X402530Y365810D01*
X402635Y365849D01*
X402749Y365889D01*
X402884Y365303D01*
X402880D01*
X402862Y365294D01*
X402836Y365286D01*
X402806Y365272D01*
X402766Y365259D01*
X402718Y365237D01*
X402670Y365216D01*
X402613Y365189D01*
X402500Y365124D01*
X402382Y365045D01*
X402272Y364953D01*
X402220Y364901D01*
X402176Y364849D01*
X402172Y364844D01*
X402168Y364835D01*
X402154Y364818D01*
X402141Y364796D01*
X402124Y364766D01*
X402106Y364731D01*
X402084Y364691D01*
X402063Y364643D01*
X402041Y364595D01*
X402019Y364538D01*
X402001Y364477D01*
X401984Y364412D01*
X401958Y364267D01*
X401953Y364189D01*
X401949Y364106D01*
Y364101D01*
Y364084D01*
Y364058D01*
X401953Y364018D01*
X401958Y363975D01*
X401962Y363922D01*
X401971Y363865D01*
X401980Y363804D01*
X402010Y363664D01*
X402028Y363594D01*
X402054Y363520D01*
X402084Y363450D01*
X402115Y363376D01*
X402154Y363306D01*
X402198Y363240D01*
X402203Y363236D01*
X402211Y363227D01*
X402224Y363210D01*
X402242Y363184D01*
X402268Y363157D01*
X402299Y363122D01*
X402334Y363087D01*
X402373Y363053D01*
X402421Y363009D01*
X402469Y362969D01*
X402526Y362930D01*
X402587Y362891D01*
X402648Y362852D01*
X402718Y362817D01*
X402788Y362786D01*
X402867Y362755D01*
X402871D01*
X402884Y362751D01*
X402906Y362742D01*
X402937Y362734D01*
X402976Y362725D01*
X403020Y362712D01*
X403072Y362699D01*
X403129Y362685D01*
X403190Y362672D01*
X403260Y362659D01*
X403404Y362637D01*
X403561Y362620D01*
X403723Y362615D01*
X403780D01*
X403819Y362620D01*
X403867D01*
X403929Y362624D01*
X403990Y362629D01*
X404064Y362637D01*
X404138Y362646D01*
X404217Y362655D01*
X404388Y362685D01*
X404558Y362725D01*
X404724Y362782D01*
X404728D01*
X404741Y362790D01*
X404763Y362799D01*
X404794Y362812D01*
X404829Y362830D01*
X404868Y362852D01*
X404960Y362908D01*
X405065Y362983D01*
X405170Y363070D01*
X405270Y363175D01*
X405314Y363236D01*
X405358Y363297D01*
X405362Y363302D01*
X405366Y363315D01*
X405375Y363332D01*
X405388Y363358D01*
X405406Y363389D01*
X405423Y363428D01*
X405441Y363472D01*
X405463Y363524D01*
X405480Y363577D01*
X405502Y363638D01*
X405532Y363765D01*
X405559Y363909D01*
X405563Y363983D01*
X405567Y364058D01*
Y364062D01*
Y364079D01*
Y364106D01*
X405563Y364141D01*
X405559Y364184D01*
X405554Y364232D01*
X405546Y364289D01*
X405532Y364350D01*
X405497Y364481D01*
X405476Y364551D01*
X405449Y364626D01*
X405414Y364696D01*
X405375Y364766D01*
X405331Y364835D01*
X405283Y364901D01*
X405279Y364905D01*
X405270Y364914D01*
X405253Y364936D01*
X405231Y364958D01*
X405200Y364984D01*
X405161Y365019D01*
X405117Y365054D01*
X405069Y365089D01*
X405012Y365128D01*
X404947Y365168D01*
X404877Y365207D01*
X404803Y365246D01*
X404720Y365281D01*
X404628Y365312D01*
X404532Y365342D01*
X404431Y365369D01*
X404580Y365963D01*
X404589D01*
X404610Y365954D01*
D02*
G37*
G36*
X346534Y327200D02*
X344800Y325466D01*
X344339Y325657D01*
Y327661D01*
X346343D01*
X346534Y327200D01*
D02*
G37*
G36*
X404715Y357726D02*
X404768Y357721D01*
X404829Y357717D01*
X404894Y357712D01*
X405034Y357695D01*
X405178Y357673D01*
X405318Y357638D01*
X405384Y357616D01*
X405445Y357590D01*
X405449D01*
X405458Y357586D01*
X405476Y357577D01*
X405493Y357564D01*
X405519Y357551D01*
X405550Y357533D01*
X405620Y357485D01*
X405694Y357424D01*
X405773Y357350D01*
X405847Y357262D01*
X405913Y357157D01*
Y357153D01*
X405921Y357144D01*
X405926Y357127D01*
X405939Y357105D01*
X405952Y357079D01*
X405965Y357044D01*
X405978Y357004D01*
X405991Y356961D01*
X406009Y356913D01*
X406022Y356860D01*
X406048Y356742D01*
X406066Y356611D01*
X406074Y356467D01*
Y356458D01*
Y356441D01*
X406070Y356410D01*
Y356371D01*
X406066Y356323D01*
X406057Y356266D01*
X406048Y356200D01*
X406031Y356135D01*
X406013Y356061D01*
X405991Y355986D01*
X405965Y355912D01*
X405930Y355838D01*
X405895Y355763D01*
X405847Y355693D01*
X405799Y355624D01*
X405738Y355562D01*
X405733Y355558D01*
X405720Y355549D01*
X405703Y355532D01*
X405677Y355514D01*
X405637Y355492D01*
X405598Y355466D01*
X405546Y355436D01*
X405484Y355409D01*
X405419Y355379D01*
X405344Y355353D01*
X405262Y355326D01*
X405170Y355305D01*
X405074Y355287D01*
X404969Y355274D01*
X404855Y355265D01*
X404733D01*
X404658Y355798D01*
X404680D01*
X404706Y355803D01*
X404741D01*
X404781Y355807D01*
X404829Y355811D01*
X404881Y355820D01*
X404938Y355829D01*
X405052Y355851D01*
X405170Y355886D01*
X405222Y355908D01*
X405275Y355929D01*
X405318Y355956D01*
X405358Y355986D01*
X405366Y355995D01*
X405388Y356017D01*
X405419Y356056D01*
X405449Y356113D01*
X405484Y356178D01*
X405515Y356261D01*
X405537Y356358D01*
X405541Y356406D01*
X405546Y356463D01*
Y356467D01*
Y356471D01*
Y356484D01*
Y356502D01*
X405541Y356541D01*
X405532Y356594D01*
X405519Y356655D01*
X405502Y356720D01*
X405480Y356786D01*
X405445Y356847D01*
X405441Y356856D01*
X405428Y356873D01*
X405406Y356899D01*
X405371Y356934D01*
X405331Y356974D01*
X405288Y357009D01*
X405231Y357044D01*
X405170Y357070D01*
X405161Y357074D01*
X405135Y357079D01*
X405117Y357087D01*
X405091Y357092D01*
X405065Y357096D01*
X405030Y357105D01*
X404995Y357109D01*
X404951Y357114D01*
X404908Y357122D01*
X404855Y357127D01*
X404803Y357131D01*
X404741D01*
X404676Y357136D01*
X401521D01*
Y357730D01*
X404667D01*
X404715Y357726D01*
D02*
G37*
G36*
X406000Y358674D02*
X401521D01*
Y359268D01*
X405471D01*
Y361471D01*
X406000D01*
Y358674D01*
D02*
G37*
G36*
X404715Y335473D02*
X404768Y335469D01*
X404829Y335465D01*
X404894Y335460D01*
X405034Y335443D01*
X405178Y335421D01*
X405318Y335386D01*
X405384Y335364D01*
X405445Y335338D01*
X405449D01*
X405458Y335334D01*
X405476Y335325D01*
X405493Y335312D01*
X405519Y335299D01*
X405550Y335281D01*
X405620Y335233D01*
X405694Y335172D01*
X405773Y335098D01*
X405847Y335010D01*
X405913Y334905D01*
Y334901D01*
X405921Y334892D01*
X405926Y334875D01*
X405939Y334853D01*
X405952Y334827D01*
X405965Y334792D01*
X405978Y334752D01*
X405991Y334709D01*
X406009Y334661D01*
X406022Y334608D01*
X406048Y334490D01*
X406066Y334359D01*
X406074Y334215D01*
Y334206D01*
Y334189D01*
X406070Y334158D01*
Y334119D01*
X406066Y334071D01*
X406057Y334014D01*
X406048Y333948D01*
X406031Y333883D01*
X406013Y333808D01*
X405991Y333734D01*
X405965Y333660D01*
X405930Y333586D01*
X405895Y333511D01*
X405847Y333441D01*
X405799Y333371D01*
X405738Y333310D01*
X405733Y333306D01*
X405720Y333297D01*
X405703Y333280D01*
X405677Y333262D01*
X405637Y333240D01*
X405598Y333214D01*
X405546Y333184D01*
X405484Y333157D01*
X405419Y333127D01*
X405344Y333101D01*
X405262Y333074D01*
X405170Y333052D01*
X405074Y333035D01*
X404969Y333022D01*
X404855Y333013D01*
X404733D01*
X404658Y333546D01*
X404680D01*
X404706Y333551D01*
X404741D01*
X404781Y333555D01*
X404829Y333559D01*
X404881Y333568D01*
X404938Y333577D01*
X405052Y333599D01*
X405170Y333634D01*
X405222Y333656D01*
X405275Y333677D01*
X405318Y333704D01*
X405358Y333734D01*
X405366Y333743D01*
X405388Y333765D01*
X405419Y333804D01*
X405449Y333861D01*
X405484Y333926D01*
X405515Y334010D01*
X405537Y334106D01*
X405541Y334154D01*
X405546Y334210D01*
Y334215D01*
Y334219D01*
Y334232D01*
Y334250D01*
X405541Y334289D01*
X405532Y334342D01*
X405519Y334403D01*
X405502Y334468D01*
X405480Y334534D01*
X405445Y334595D01*
X405441Y334604D01*
X405428Y334621D01*
X405406Y334647D01*
X405371Y334682D01*
X405331Y334722D01*
X405288Y334757D01*
X405231Y334792D01*
X405170Y334818D01*
X405161Y334822D01*
X405135Y334827D01*
X405117Y334835D01*
X405091Y334840D01*
X405065Y334844D01*
X405030Y334853D01*
X404995Y334857D01*
X404951Y334862D01*
X404908Y334870D01*
X404855Y334875D01*
X404803Y334879D01*
X404741D01*
X404676Y334883D01*
X401521D01*
Y335478D01*
X404667D01*
X404715Y335473D01*
D02*
G37*
G36*
X400549Y292840D02*
X400594Y292836D01*
X400642Y292832D01*
X400691Y292829D01*
X400804Y292814D01*
X400924Y292795D01*
X401040Y292765D01*
X401092Y292746D01*
X401145Y292724D01*
X401149D01*
X401156Y292720D01*
X401171Y292712D01*
X401190Y292701D01*
X401213Y292690D01*
X401239Y292675D01*
X401299Y292634D01*
X401363Y292585D01*
X401434Y292521D01*
X401501Y292450D01*
X401561Y292364D01*
Y292360D01*
X401569Y292353D01*
X401576Y292341D01*
X401584Y292322D01*
X401599Y292300D01*
X401610Y292274D01*
X401640Y292210D01*
X401666Y292135D01*
X401692Y292049D01*
X401708Y291955D01*
X401715Y291858D01*
Y291854D01*
Y291846D01*
Y291835D01*
X401711Y291816D01*
Y291794D01*
X401708Y291768D01*
X401700Y291707D01*
X401681Y291636D01*
X401659Y291558D01*
X401625Y291475D01*
X401580Y291392D01*
Y291389D01*
X401573Y291381D01*
X401565Y291370D01*
X401554Y291355D01*
X401524Y291318D01*
X401479Y291269D01*
X401423Y291213D01*
X401351Y291153D01*
X401269Y291096D01*
X401175Y291044D01*
X401179D01*
X401190Y291040D01*
X401209Y291033D01*
X401231Y291025D01*
X401261Y291014D01*
X401295Y290999D01*
X401374Y290961D01*
X401460Y290913D01*
X401550Y290852D01*
X401636Y290777D01*
X401674Y290736D01*
X401711Y290691D01*
X401715Y290687D01*
X401719Y290680D01*
X401730Y290665D01*
X401741Y290646D01*
X401756Y290624D01*
X401771Y290598D01*
X401790Y290564D01*
X401809Y290526D01*
X401824Y290485D01*
X401842Y290444D01*
X401872Y290342D01*
X401895Y290234D01*
X401899Y290174D01*
X401902Y290110D01*
Y290106D01*
Y290099D01*
Y290084D01*
Y290065D01*
X401899Y290039D01*
X401895Y290013D01*
X401888Y289945D01*
X401872Y289870D01*
X401854Y289784D01*
X401824Y289698D01*
X401786Y289608D01*
Y289604D01*
X401783Y289596D01*
X401775Y289585D01*
X401767Y289570D01*
X401741Y289529D01*
X401708Y289476D01*
X401670Y289420D01*
X401621Y289360D01*
X401565Y289304D01*
X401505Y289251D01*
X401498Y289247D01*
X401475Y289232D01*
X401438Y289210D01*
X401389Y289180D01*
X401329Y289150D01*
X401254Y289120D01*
X401171Y289090D01*
X401081Y289064D01*
X401078D01*
X401070Y289060D01*
X401055Y289056D01*
X401036Y289053D01*
X401014Y289049D01*
X400984Y289045D01*
X400950Y289037D01*
X400909Y289034D01*
X400868Y289026D01*
X400819Y289019D01*
X400770Y289015D01*
X400714Y289011D01*
X400594Y289004D01*
X400462Y289000D01*
X399000D01*
Y292844D01*
X400511D01*
X400549Y292840D01*
D02*
G37*
G36*
X406000Y336422D02*
X401521D01*
Y337016D01*
X405471D01*
Y339218D01*
X406000D01*
Y336422D01*
D02*
G37*
%LPC*%
G36*
X403669Y291460D02*
X403635D01*
X403609Y291456D01*
X403579Y291453D01*
X403545Y291445D01*
X403508Y291438D01*
X403463Y291426D01*
X403417Y291411D01*
X403372Y291396D01*
X403324Y291374D01*
X403275Y291348D01*
X403223Y291318D01*
X403177Y291280D01*
X403129Y291243D01*
X403084Y291194D01*
X403080Y291190D01*
X403073Y291182D01*
X403061Y291167D01*
X403046Y291145D01*
X403031Y291115D01*
X403009Y291081D01*
X402990Y291040D01*
X402968Y290995D01*
X402945Y290939D01*
X402926Y290882D01*
X402904Y290815D01*
X402889Y290744D01*
X402874Y290665D01*
X402863Y290579D01*
X402855Y290489D01*
X402851Y290391D01*
Y290384D01*
Y290369D01*
Y290339D01*
X402855Y290305D01*
X402859Y290260D01*
X402863Y290208D01*
X402870Y290151D01*
X402881Y290091D01*
X402908Y289960D01*
X402926Y289893D01*
X402949Y289825D01*
X402975Y289761D01*
X403009Y289701D01*
X403043Y289641D01*
X403084Y289589D01*
X403088Y289585D01*
X403095Y289578D01*
X403106Y289563D01*
X403125Y289547D01*
X403148Y289529D01*
X403177Y289506D01*
X403207Y289480D01*
X403245Y289458D01*
X403286Y289431D01*
X403328Y289405D01*
X403376Y289383D01*
X403429Y289364D01*
X403485Y289349D01*
X403541Y289334D01*
X403605Y289326D01*
X403669Y289322D01*
X403702D01*
X403729Y289326D01*
X403759Y289330D01*
X403792Y289337D01*
X403830Y289345D01*
X403875Y289356D01*
X403920Y289371D01*
X403965Y289386D01*
X404014Y289409D01*
X404066Y289435D01*
X404115Y289465D01*
X404164Y289503D01*
X404209Y289544D01*
X404254Y289589D01*
X404257Y289593D01*
X404265Y289600D01*
X404276Y289619D01*
X404291Y289641D01*
X404310Y289668D01*
X404329Y289705D01*
X404351Y289746D01*
X404374Y289791D01*
X404392Y289847D01*
X404415Y289908D01*
X404434Y289975D01*
X404453Y290046D01*
X404467Y290129D01*
X404479Y290215D01*
X404486Y290309D01*
X404490Y290406D01*
Y290414D01*
Y290429D01*
Y290455D01*
X404486Y290493D01*
X404483Y290534D01*
X404479Y290582D01*
X404471Y290639D01*
X404460Y290699D01*
X404434Y290826D01*
X404415Y290890D01*
X404389Y290954D01*
X404362Y291018D01*
X404332Y291081D01*
X404295Y291138D01*
X404254Y291190D01*
X404250Y291194D01*
X404243Y291201D01*
X404231Y291216D01*
X404213Y291231D01*
X404190Y291254D01*
X404160Y291276D01*
X404130Y291299D01*
X404093Y291325D01*
X404051Y291351D01*
X404006Y291374D01*
X403909Y291419D01*
X403853Y291434D01*
X403792Y291449D01*
X403732Y291456D01*
X403669Y291460D01*
D02*
G37*
G36*
X422633Y278551D02*
X422594D01*
X422565Y278546D01*
X422525Y278541D01*
X422486Y278531D01*
X422387Y278507D01*
X422333Y278487D01*
X422279Y278462D01*
X422220Y278433D01*
X422166Y278398D01*
X422107Y278354D01*
X422053Y278305D01*
X421999Y278251D01*
X421950Y278187D01*
X421945Y278182D01*
X421935Y278167D01*
X421920Y278138D01*
X421900Y278093D01*
X421876Y278044D01*
X421851Y277975D01*
X421822Y277897D01*
X421792Y277803D01*
X421763Y277690D01*
X421733Y277567D01*
X421708Y277429D01*
X421684Y277272D01*
X421664Y277104D01*
X421649Y276913D01*
X421640Y276706D01*
X421635Y276485D01*
Y276480D01*
Y276470D01*
Y276455D01*
Y276431D01*
Y276401D01*
Y276366D01*
X421640Y276327D01*
Y276283D01*
X421644Y276185D01*
X421649Y276071D01*
X421659Y275943D01*
X421669Y275811D01*
X421704Y275535D01*
X421728Y275397D01*
X421758Y275264D01*
X421792Y275136D01*
X421832Y275018D01*
X421876Y274915D01*
X421925Y274832D01*
X421930Y274827D01*
X421940Y274812D01*
X421954Y274792D01*
X421979Y274767D01*
X422004Y274738D01*
X422038Y274704D01*
X422078Y274664D01*
X422122Y274630D01*
X422176Y274590D01*
X422230Y274551D01*
X422353Y274487D01*
X422417Y274463D01*
X422491Y274443D01*
X422565Y274428D01*
X422643Y274423D01*
X422663D01*
X422683Y274428D01*
X422712D01*
X422752Y274438D01*
X422791Y274443D01*
X422840Y274458D01*
X422889Y274472D01*
X422948Y274497D01*
X423002Y274521D01*
X423062Y274556D01*
X423120Y274595D01*
X423184Y274644D01*
X423244Y274699D01*
X423303Y274758D01*
X423357Y274832D01*
X423362Y274836D01*
X423371Y274851D01*
X423386Y274876D01*
X423401Y274915D01*
X423426Y274964D01*
X423450Y275028D01*
X423475Y275102D01*
X423504Y275196D01*
X423534Y275299D01*
X423558Y275417D01*
X423583Y275550D01*
X423608Y275702D01*
X423622Y275870D01*
X423637Y276057D01*
X423647Y276263D01*
X423652Y276485D01*
Y276489D01*
Y276499D01*
Y276514D01*
Y276539D01*
Y276568D01*
Y276603D01*
X423647Y276642D01*
Y276686D01*
X423642Y276785D01*
X423637Y276898D01*
X423627Y277026D01*
X423617Y277159D01*
X423583Y277434D01*
X423558Y277572D01*
X423529Y277710D01*
X423494Y277833D01*
X423460Y277951D01*
X423411Y278054D01*
X423362Y278138D01*
X423357Y278143D01*
X423347Y278157D01*
X423332Y278177D01*
X423308Y278202D01*
X423283Y278236D01*
X423248Y278271D01*
X423209Y278305D01*
X423160Y278344D01*
X423111Y278384D01*
X423057Y278418D01*
X422934Y278487D01*
X422865Y278512D01*
X422791Y278531D01*
X422712Y278546D01*
X422633Y278551D01*
D02*
G37*
G36*
X430550Y318159D02*
X430494D01*
X430452Y318155D01*
X430400Y318151D01*
X430344Y318147D01*
X430280Y318144D01*
X430209Y318132D01*
X430137Y318125D01*
X430062Y318110D01*
X429909Y318076D01*
X429834Y318054D01*
X429759Y318027D01*
X429691Y317994D01*
X429628Y317960D01*
X429624Y317956D01*
X429612Y317952D01*
X429598Y317941D01*
X429575Y317926D01*
X429549Y317904D01*
X429519Y317881D01*
X429451Y317825D01*
X429376Y317754D01*
X429305Y317671D01*
X429241Y317578D01*
X429211Y317529D01*
X429189Y317476D01*
Y317473D01*
X429185Y317465D01*
X429181Y317454D01*
X429178Y317439D01*
X429170Y317416D01*
X429163Y317390D01*
X429155Y317356D01*
X429147Y317319D01*
X429144Y317274D01*
X429136Y317229D01*
X429129Y317173D01*
X429121Y317112D01*
X429117Y317049D01*
X429114Y316978D01*
X429110Y316902D01*
Y316820D01*
Y316014D01*
X432046D01*
Y316831D01*
Y316835D01*
Y316850D01*
Y316869D01*
Y316895D01*
X432043Y316925D01*
Y316963D01*
X432039Y317004D01*
Y317049D01*
X432031Y317146D01*
X432016Y317244D01*
X432001Y317341D01*
X431990Y317386D01*
X431979Y317427D01*
Y317431D01*
X431975Y317439D01*
X431971Y317450D01*
X431964Y317465D01*
X431949Y317502D01*
X431926Y317551D01*
X431896Y317607D01*
X431862Y317664D01*
X431821Y317720D01*
X431776Y317773D01*
X431773Y317776D01*
X431769Y317780D01*
X431757Y317791D01*
X431742Y317803D01*
X431724Y317817D01*
X431705Y317836D01*
X431649Y317878D01*
X431577Y317922D01*
X431495Y317971D01*
X431401Y318016D01*
X431292Y318057D01*
X431289D01*
X431278Y318061D01*
X431262Y318069D01*
X431236Y318073D01*
X431206Y318080D01*
X431173Y318091D01*
X431131Y318099D01*
X431082Y318110D01*
X431034Y318117D01*
X430977Y318125D01*
X430914Y318136D01*
X430850Y318144D01*
X430779Y318151D01*
X430708Y318155D01*
X430550Y318159D01*
D02*
G37*
G36*
X375555Y291464D02*
X375525D01*
X375502Y291460D01*
X375472Y291456D01*
X375439Y291453D01*
X375405Y291445D01*
X375364Y291438D01*
X375277Y291411D01*
X375233Y291392D01*
X375187Y291370D01*
X375139Y291344D01*
X375094Y291318D01*
X375049Y291280D01*
X375008Y291243D01*
X375004Y291239D01*
X374996Y291231D01*
X374989Y291220D01*
X374974Y291201D01*
X374955Y291179D01*
X374936Y291153D01*
X374918Y291123D01*
X374895Y291085D01*
X374872Y291048D01*
X374850Y291002D01*
X374831Y290954D01*
X374813Y290901D01*
X374794Y290845D01*
X374782Y290789D01*
X374771Y290725D01*
X374764Y290657D01*
X376324D01*
Y290661D01*
Y290672D01*
X376320Y290691D01*
X376316Y290714D01*
X376312Y290744D01*
X376305Y290777D01*
X376290Y290856D01*
X376264Y290943D01*
X376234Y291029D01*
X376192Y291111D01*
X376170Y291153D01*
X376144Y291186D01*
X376140Y291190D01*
X376132Y291197D01*
X376121Y291213D01*
X376102Y291231D01*
X376080Y291250D01*
X376054Y291272D01*
X376020Y291299D01*
X375986Y291325D01*
X375945Y291351D01*
X375900Y291377D01*
X375851Y291400D01*
X375799Y291419D01*
X375743Y291438D01*
X375682Y291453D01*
X375623Y291460D01*
X375555Y291464D01*
D02*
G37*
G36*
X400350Y292390D02*
X399510D01*
Y291228D01*
X400421D01*
X400455Y291231D01*
X400526D01*
X400605Y291239D01*
X400684Y291246D01*
X400759Y291254D01*
X400793Y291261D01*
X400822Y291269D01*
X400826D01*
X400830Y291272D01*
X400852Y291280D01*
X400890Y291295D01*
X400931Y291314D01*
X400976Y291344D01*
X401025Y291374D01*
X401070Y291415D01*
X401111Y291460D01*
X401115Y291467D01*
X401126Y291486D01*
X401145Y291512D01*
X401164Y291554D01*
X401179Y291602D01*
X401197Y291659D01*
X401209Y291726D01*
X401213Y291797D01*
Y291801D01*
Y291805D01*
Y291816D01*
Y291831D01*
X401209Y291865D01*
X401201Y291910D01*
X401190Y291963D01*
X401171Y292022D01*
X401149Y292079D01*
X401119Y292135D01*
X401115Y292143D01*
X401104Y292158D01*
X401081Y292184D01*
X401051Y292214D01*
X401014Y292248D01*
X400969Y292281D01*
X400916Y292311D01*
X400856Y292334D01*
X400852D01*
X400849Y292337D01*
X400838D01*
X400822Y292341D01*
X400804Y292349D01*
X400781Y292353D01*
X400755Y292356D01*
X400721Y292364D01*
X400684Y292368D01*
X400639Y292371D01*
X400594Y292379D01*
X400541Y292383D01*
X400481Y292386D01*
X400418D01*
X400350Y292390D01*
D02*
G37*
G36*
X400462Y290774D02*
X399510D01*
Y289454D01*
X400549D01*
X400601Y289458D01*
X400658D01*
X400717Y289461D01*
X400770Y289465D01*
X400811Y289469D01*
X400819D01*
X400841Y289476D01*
X400875Y289484D01*
X400913Y289495D01*
X400961Y289510D01*
X401010Y289529D01*
X401059Y289547D01*
X401104Y289574D01*
X401108Y289578D01*
X401123Y289589D01*
X401145Y289604D01*
X401175Y289630D01*
X401205Y289660D01*
X401235Y289698D01*
X401269Y289739D01*
X401299Y289788D01*
X401302Y289795D01*
X401310Y289814D01*
X401325Y289844D01*
X401340Y289881D01*
X401351Y289930D01*
X401366Y289986D01*
X401374Y290046D01*
X401377Y290114D01*
Y290118D01*
Y290125D01*
Y290136D01*
Y290151D01*
X401370Y290189D01*
X401363Y290241D01*
X401347Y290298D01*
X401329Y290361D01*
X401299Y290425D01*
X401261Y290485D01*
X401258Y290493D01*
X401242Y290511D01*
X401216Y290538D01*
X401183Y290571D01*
X401137Y290609D01*
X401085Y290646D01*
X401021Y290680D01*
X400954Y290706D01*
X400950D01*
X400946Y290710D01*
X400935Y290714D01*
X400920Y290718D01*
X400898Y290721D01*
X400875Y290729D01*
X400845Y290733D01*
X400811Y290740D01*
X400774Y290747D01*
X400733Y290751D01*
X400688Y290759D01*
X400639Y290762D01*
X400583Y290766D01*
X400526Y290770D01*
X400462Y290774D01*
D02*
G37*
%LPD*%
D38*
X451634Y322721D02*
G03*
X451634Y322721I-59055J0D01*
G01*
X388500Y309000D02*
X390000Y310500D01*
X429500Y329000D02*
X431000Y327500D01*
X428000D02*
X429500Y329000D01*
X384405Y327256D02*
X423776D01*
Y371744D01*
X384405Y327256D02*
Y371744D01*
X423776D01*
X358500Y356047D02*
X360464D01*
X358303Y355481D02*
Y356047D01*
Y335968D02*
Y336732D01*
X358500Y335968D02*
X360070D01*
X358303D02*
X358500D01*
X371733D02*
X373141D01*
X382516D02*
Y336653D01*
X379489Y335968D02*
X382516D01*
X379883Y356047D02*
X382516D01*
Y355402D02*
Y356047D01*
X374055Y325488D02*
X381945D01*
X374055Y305512D02*
X381945D01*
Y317862D02*
Y325488D01*
Y305512D02*
Y313138D01*
X374055Y305512D02*
Y313138D01*
Y317862D02*
Y325488D01*
X375638Y327205D02*
X380362D01*
X374055Y325488D02*
X375638Y327205D01*
X380362D02*
X381945Y325488D01*
X429500Y324000D02*
Y329000D01*
Y324000D02*
X430500Y323000D01*
X397500Y330500D02*
X410500D01*
X408500Y332500D02*
X410500Y330500D01*
X388500Y309000D02*
X399500D01*
D67*
X350457Y358965D02*
G03*
X352031Y357390I1575J-0D01*
G01*
Y363610D02*
G03*
X350457Y362035I0J-1575D01*
G01*
X368339Y307898D02*
G03*
X367472Y308764I-866J0D01*
G01*
Y304236D02*
G03*
X368339Y305102I0J866D01*
G01*
X361528Y308764D02*
G03*
X360661Y307898I0J-866D01*
G01*
Y305102D02*
G03*
X361528Y304236I866J0D01*
G01*
X371602Y302339D02*
G03*
X370736Y301472I0J-866D01*
G01*
X375264D02*
G03*
X374398Y302339I-866J0D01*
G01*
X370736Y295528D02*
G03*
X371602Y294661I866J0D01*
G01*
X374398D02*
G03*
X375264Y295528I0J866D01*
G01*
X397339Y295898D02*
G03*
X396472Y296764I-866J0D01*
G01*
Y292236D02*
G03*
X397339Y293102I0J866D01*
G01*
X390528Y296764D02*
G03*
X389661Y295898I0J-866D01*
G01*
Y293102D02*
G03*
X390528Y292236I866J0D01*
G01*
X360839Y333898D02*
G03*
X359972Y334764I-866J0D01*
G01*
Y330236D02*
G03*
X360839Y331102I0J866D01*
G01*
X354028Y334764D02*
G03*
X353161Y333898I0J-866D01*
G01*
Y331102D02*
G03*
X354028Y330236I866J0D01*
G01*
X345898Y301161D02*
G03*
X346764Y302028I0J866D01*
G01*
X342236D02*
G03*
X343102Y301161I866J0D01*
G01*
X346764Y307972D02*
G03*
X345898Y308839I-866J0D01*
G01*
X343102D02*
G03*
X342236Y307972I0J-866D01*
G01*
X371839Y324898D02*
G03*
X370972Y325764I-866J0D01*
G01*
Y321236D02*
G03*
X371839Y322102I0J866D01*
G01*
X365028Y325764D02*
G03*
X364161Y324898I0J-866D01*
G01*
Y322102D02*
G03*
X365028Y321236I866J0D01*
G01*
X335661Y331102D02*
G03*
X336528Y330236I866J0D01*
G01*
Y334764D02*
G03*
X335661Y333898I0J-866D01*
G01*
X342472Y330236D02*
G03*
X343339Y331102I0J866D01*
G01*
Y333898D02*
G03*
X342472Y334764I-866J0D01*
G01*
X334161Y319602D02*
G03*
X335028Y318736I866J0D01*
G01*
Y323264D02*
G03*
X334161Y322398I0J-866D01*
G01*
X340972Y318736D02*
G03*
X341839Y319602I0J866D01*
G01*
Y322398D02*
G03*
X340972Y323264I-866J0D01*
G01*
X344661Y331102D02*
G03*
X345528Y330236I866J0D01*
G01*
Y334764D02*
G03*
X344661Y333898I0J-866D01*
G01*
X351472Y330236D02*
G03*
X352339Y331102I0J866D01*
G01*
Y333898D02*
G03*
X351472Y334764I-866J0D01*
G01*
X345898Y291661D02*
G03*
X346764Y292528I0J866D01*
G01*
X342236D02*
G03*
X343102Y291661I866J0D01*
G01*
X346764Y298472D02*
G03*
X345898Y299339I-866J0D01*
G01*
X343102D02*
G03*
X342236Y298472I0J-866D01*
G01*
X440398Y290661D02*
G03*
X441264Y291528I0J866D01*
G01*
X436736D02*
G03*
X437602Y290661I866J0D01*
G01*
X441264Y297472D02*
G03*
X440398Y298339I-866J0D01*
G01*
X437602D02*
G03*
X436736Y297472I0J-866D01*
G01*
X448839Y327398D02*
G03*
X447972Y328264I-866J0D01*
G01*
Y323736D02*
G03*
X448839Y324602I0J866D01*
G01*
X442028Y328264D02*
G03*
X441161Y327398I0J-866D01*
G01*
Y324602D02*
G03*
X442028Y323736I866J0D01*
G01*
X446043Y306035D02*
G03*
X444468Y307610I-1575J0D01*
G01*
X444468Y301390D02*
G03*
X446043Y302965I-0J1575D01*
G01*
X433957Y302965D02*
G03*
X435532Y301390I1575J-0D01*
G01*
Y307610D02*
G03*
X433957Y306035I0J-1575D01*
G01*
X422965Y324543D02*
G03*
X421390Y322969I0J-1575D01*
G01*
X427610Y322969D02*
G03*
X426035Y324543I-1575J-0D01*
G01*
X426035Y312457D02*
G03*
X427610Y314032I0J1575D01*
G01*
X421390D02*
G03*
X422965Y312457I1575J0D01*
G01*
X362161Y330102D02*
G03*
X363028Y329236I866J0D01*
G01*
Y333764D02*
G03*
X362161Y332898I0J-866D01*
G01*
X368972Y329236D02*
G03*
X369839Y330102I0J866D01*
G01*
Y332898D02*
G03*
X368972Y333764I-866J0D01*
G01*
X371161Y330102D02*
G03*
X372028Y329236I866J0D01*
G01*
Y333764D02*
G03*
X371161Y332898I0J-866D01*
G01*
X377972Y329236D02*
G03*
X378839Y330102I0J866D01*
G01*
Y332898D02*
G03*
X377972Y333764I-866J0D01*
G01*
X405161Y307602D02*
G03*
X406028Y306736I866J0D01*
G01*
Y311264D02*
G03*
X405161Y310398I0J-866D01*
G01*
X411972Y306736D02*
G03*
X412839Y307602I0J866D01*
G01*
Y310398D02*
G03*
X411972Y311264I-866J0D01*
G01*
X354898Y348661D02*
G03*
X355764Y349528I0J866D01*
G01*
X351236D02*
G03*
X352102Y348661I866J0D01*
G01*
X355764Y355472D02*
G03*
X354898Y356339I-866J0D01*
G01*
X352102D02*
G03*
X351236Y355472I0J-866D01*
G01*
X404398Y297661D02*
G03*
X405264Y298528I0J866D01*
G01*
X400736D02*
G03*
X401602Y297661I866J0D01*
G01*
X405264Y304472D02*
G03*
X404398Y305339I-866J0D01*
G01*
X401602D02*
G03*
X400736Y304472I0J-866D01*
G01*
X422161Y280602D02*
G03*
X423028Y279736I866J0D01*
G01*
Y284264D02*
G03*
X422161Y283398I0J-866D01*
G01*
X428972Y279736D02*
G03*
X429839Y280602I0J866D01*
G01*
Y283398D02*
G03*
X428972Y284264I-866J0D01*
G01*
X424661Y307602D02*
G03*
X425528Y306736I866J0D01*
G01*
Y311264D02*
G03*
X424661Y310398I0J-866D01*
G01*
X431472Y306736D02*
G03*
X432339Y307602I0J866D01*
G01*
Y310398D02*
G03*
X431472Y311264I-866J0D01*
G01*
X361161Y277102D02*
G03*
X362028Y276236I866J0D01*
G01*
Y280764D02*
G03*
X361161Y279898I0J-866D01*
G01*
X367972Y276236D02*
G03*
X368839Y277102I0J866D01*
G01*
Y279898D02*
G03*
X367972Y280764I-866J0D01*
G01*
X402102Y272839D02*
G03*
X401236Y271972I0J-866D01*
G01*
X405764D02*
G03*
X404898Y272839I-866J0D01*
G01*
X401236Y266028D02*
G03*
X402102Y265161I866J0D01*
G01*
X404898D02*
G03*
X405764Y266028I0J866D01*
G01*
X384551Y307142D02*
X403449D01*
X384551Y324858D02*
X403449D01*
Y307142D02*
Y310587D01*
X384551Y307142D02*
Y310587D01*
X403449Y321413D02*
Y324858D01*
X384551Y321413D02*
Y324858D01*
X352031Y363610D02*
X354925D01*
X350457Y358965D02*
Y362035D01*
X352031Y357390D02*
X354925D01*
X347169Y297319D02*
X355831D01*
X347169Y299681D02*
X355831D01*
X347169Y297319D02*
Y299681D01*
X355831Y297319D02*
Y299681D01*
X345319Y346331D02*
X347681D01*
X345319Y337669D02*
X347681D01*
X345319D02*
Y346331D01*
X347681Y337669D02*
Y346331D01*
X362319Y294669D02*
X364681D01*
X362319Y303331D02*
X364681D01*
Y294669D02*
Y303331D01*
X362319Y294669D02*
Y303331D01*
X368339Y305102D02*
Y307898D01*
X365681Y308764D02*
X367453D01*
X365681Y304236D02*
X367453D01*
X361547Y308764D02*
X363319D01*
X361547Y304236D02*
X363319D01*
X360661Y305102D02*
Y307898D01*
X371602Y302339D02*
X374398D01*
X370736Y299681D02*
Y301453D01*
X375264Y299681D02*
Y301453D01*
X370736Y295547D02*
Y297319D01*
X375264Y295547D02*
Y297319D01*
X371602Y294661D02*
X374398D01*
X397339Y293102D02*
Y295898D01*
X394681Y296764D02*
X396453D01*
X394681Y292236D02*
X396453D01*
X390547Y296764D02*
X392319D01*
X390547Y292236D02*
X392319D01*
X389661Y293102D02*
Y295898D01*
X356457Y281457D02*
Y293543D01*
X368543D01*
Y281457D02*
Y293543D01*
X356457Y281457D02*
X368543D01*
X345736Y348661D02*
Y351319D01*
Y353681D02*
Y356339D01*
X350264Y348661D02*
Y351319D01*
Y353681D02*
Y356339D01*
X345736Y348661D02*
X350264D01*
X345736Y356339D02*
X350264D01*
X360839Y331102D02*
Y333898D01*
X358181Y334764D02*
X359953D01*
X358181Y330236D02*
X359953D01*
X354047Y334764D02*
X355819D01*
X354047Y330236D02*
X355819D01*
X353161Y331102D02*
Y333898D01*
X340264Y315181D02*
Y317839D01*
Y310161D02*
Y312819D01*
X335736Y315181D02*
Y317839D01*
Y310161D02*
Y312819D01*
Y317839D02*
X340264D01*
X335736Y310161D02*
X340264D01*
X337736Y301161D02*
Y303819D01*
Y306181D02*
Y308839D01*
X342264Y301161D02*
Y303819D01*
Y306181D02*
Y308839D01*
X337736Y301161D02*
X342264D01*
X337736Y308839D02*
X342264D01*
X339181Y324736D02*
X341839D01*
X334161D02*
X336819D01*
X339181Y329264D02*
X341839D01*
X334161D02*
X336819D01*
X341839Y324736D02*
Y329264D01*
X334161Y324736D02*
Y329264D01*
X343102Y301161D02*
X345898D01*
X346764Y302047D02*
Y303819D01*
X342236Y302047D02*
Y303819D01*
X346764Y306181D02*
Y307953D01*
X342236Y306181D02*
Y307953D01*
X343102Y308839D02*
X345898D01*
X369181Y310236D02*
X371839D01*
X364161D02*
X366819D01*
X369181Y314764D02*
X371839D01*
X364161D02*
X366819D01*
X371839Y310236D02*
Y314764D01*
X364161Y310236D02*
Y314764D01*
Y320264D02*
X366819D01*
X369181D02*
X371839D01*
X364161Y315736D02*
X366819D01*
X369181D02*
X371839D01*
X364161D02*
Y320264D01*
X371839Y315736D02*
Y320264D01*
X371839Y322102D02*
Y324898D01*
X369181Y325764D02*
X370953D01*
X369181Y321236D02*
X370953D01*
X365047Y325764D02*
X366819D01*
X365047Y321236D02*
X366819D01*
X364161Y322102D02*
Y324898D01*
X335661Y331102D02*
Y333898D01*
X336547Y330236D02*
X338319D01*
X336547Y334764D02*
X338319D01*
X340681Y330236D02*
X342453D01*
X340681Y334764D02*
X342453D01*
X343339Y331102D02*
Y333898D01*
X334161Y319602D02*
Y322398D01*
X335047Y318736D02*
X336819D01*
X335047Y323264D02*
X336819D01*
X339181Y318736D02*
X340953D01*
X339181Y323264D02*
X340953D01*
X341839Y319602D02*
Y322398D01*
X344661Y331102D02*
Y333898D01*
X345547Y330236D02*
X347319D01*
X345547Y334764D02*
X347319D01*
X349681Y330236D02*
X351453D01*
X349681Y334764D02*
X351453D01*
X352339Y331102D02*
Y333898D01*
X344339Y310339D02*
X346996D01*
X344339D02*
Y312996D01*
X359004Y310339D02*
X361661D01*
Y312996D01*
Y325004D02*
Y327661D01*
X359004D02*
X361661D01*
X344339D02*
X346996D01*
X344339Y325004D02*
Y327661D01*
X343102Y291661D02*
X345898D01*
X346764Y292547D02*
Y294319D01*
X342236Y292547D02*
Y294319D01*
X346764Y296681D02*
Y298453D01*
X342236Y296681D02*
Y298453D01*
X343102Y299339D02*
X345898D01*
X426228Y297905D02*
X429772D01*
X426228Y286094D02*
X429772D01*
X426228D02*
Y297905D01*
X429772Y286094D02*
Y297905D01*
X437602Y290661D02*
X440398D01*
X441264Y291547D02*
Y293319D01*
X436736Y291547D02*
Y293319D01*
X441264Y295681D02*
Y297453D01*
X436736Y295681D02*
Y297453D01*
X437602Y298339D02*
X440398D01*
X448839Y324602D02*
Y327398D01*
X446181Y328264D02*
X447953D01*
X446181Y323736D02*
X447953D01*
X442047Y328264D02*
X443819D01*
X442047Y323736D02*
X443819D01*
X441161Y324602D02*
Y327398D01*
X437181Y323736D02*
X439839D01*
X432161D02*
X434819D01*
X437181Y328264D02*
X439839D01*
X432161D02*
X434819D01*
X439839Y323736D02*
Y328264D01*
X432161Y323736D02*
Y328264D01*
X434094Y314319D02*
X445905D01*
X434094Y316681D02*
X445905D01*
X434094Y314319D02*
Y316681D01*
X445905Y314319D02*
Y316681D01*
X435532Y307610D02*
X438425D01*
X446043Y302965D02*
Y306035D01*
X433957Y302965D02*
Y306035D01*
X441575Y307610D02*
X444468D01*
X441575Y301390D02*
X444468D01*
X435532Y301390D02*
X438425D01*
X421390Y314032D02*
Y316925D01*
X422965Y324543D02*
X426035D01*
X422965Y312457D02*
X426035D01*
X421390Y320075D02*
Y322969D01*
X427610Y320075D02*
Y322969D01*
X427610Y314032D02*
Y316925D01*
X419181Y306736D02*
X421839D01*
X414161D02*
X416819D01*
X419181Y311264D02*
X421839D01*
X414161D02*
X416819D01*
X421839Y306736D02*
Y311264D01*
X414161Y306736D02*
Y311264D01*
X362161Y330102D02*
Y332898D01*
X363047Y329236D02*
X364819D01*
X363047Y333764D02*
X364819D01*
X367181Y329236D02*
X368953D01*
X367181Y333764D02*
X368953D01*
X369839Y330102D02*
Y332898D01*
X371161Y330102D02*
Y332898D01*
X372047Y329236D02*
X373819D01*
X372047Y333764D02*
X373819D01*
X376181Y329236D02*
X377953D01*
X376181Y333764D02*
X377953D01*
X378839Y330102D02*
Y332898D01*
X405161Y307602D02*
Y310398D01*
X406047Y306736D02*
X407819D01*
X406047Y311264D02*
X407819D01*
X410181Y306736D02*
X411953D01*
X410181Y311264D02*
X411953D01*
X412839Y307602D02*
Y310398D01*
X408095Y317819D02*
Y320181D01*
X419906Y317819D02*
Y320181D01*
X408095Y317819D02*
X419906D01*
X408095Y320181D02*
X419906D01*
X352102Y348661D02*
X354898D01*
X355764Y349547D02*
Y351319D01*
X351236Y349547D02*
Y351319D01*
X355764Y353681D02*
Y355453D01*
X351236Y353681D02*
Y355453D01*
X352102Y356339D02*
X354898D01*
X389736Y305339D02*
X394264D01*
X389736Y297661D02*
X394264D01*
Y302681D02*
Y305339D01*
Y297661D02*
Y300319D01*
X389736Y302681D02*
Y305339D01*
Y297661D02*
Y300319D01*
X401602Y297661D02*
X404398D01*
X405264Y298547D02*
Y300319D01*
X400736Y298547D02*
Y300319D01*
X405264Y302681D02*
Y304453D01*
X400736Y302681D02*
Y304453D01*
X401602Y305339D02*
X404398D01*
X410764Y297661D02*
Y305339D01*
X406236Y297661D02*
X410764D01*
X406236D02*
Y305339D01*
X410764D01*
X395236D02*
X399764D01*
X395236Y297661D02*
X399764D01*
Y302681D02*
Y305339D01*
Y297661D02*
Y300319D01*
X395236Y302681D02*
Y305339D01*
Y297661D02*
Y300319D01*
X422161Y280602D02*
Y283398D01*
X423047Y279736D02*
X424819D01*
X423047Y284264D02*
X424819D01*
X427181Y279736D02*
X428953D01*
X427181Y284264D02*
X428953D01*
X429839Y280602D02*
Y283398D01*
X420925Y304862D02*
X424075D01*
X420925Y300138D02*
X424075D01*
X421988D02*
Y304862D01*
X420925Y300138D02*
Y304862D01*
X424075Y300138D02*
Y304862D01*
X424661Y307602D02*
Y310398D01*
X425547Y306736D02*
X427319D01*
X425547Y311264D02*
X427319D01*
X429681Y306736D02*
X431453D01*
X429681Y311264D02*
X431453D01*
X432339Y307602D02*
Y310398D01*
X420043Y277457D02*
Y286457D01*
X407957Y277457D02*
X420043D01*
X407957D02*
Y294543D01*
X418957D01*
X361161Y277102D02*
Y279898D01*
X362047Y276236D02*
X363819D01*
X362047Y280764D02*
X363819D01*
X366181Y276236D02*
X367953D01*
X366181Y280764D02*
X367953D01*
X368839Y277102D02*
Y279898D01*
X355339Y287736D02*
Y292264D01*
X347661Y287736D02*
Y292264D01*
X352681Y287736D02*
X355339D01*
X347661D02*
X350319D01*
X352681Y292264D02*
X355339D01*
X347661D02*
X350319D01*
X402102Y272839D02*
X404898D01*
X401236Y270181D02*
Y271953D01*
X405764Y270181D02*
Y271953D01*
X401236Y266047D02*
Y267819D01*
X405764Y266047D02*
Y267819D01*
X402102Y265161D02*
X404898D01*
X392819Y272831D02*
X395181D01*
X392819Y264169D02*
X395181D01*
X392819D02*
Y272831D01*
X395181Y264169D02*
Y272831D01*
X419839Y271736D02*
Y276264D01*
X412161Y271736D02*
Y276264D01*
X417181Y271736D02*
X419839D01*
X412161D02*
X414819D01*
X417181Y276264D02*
X419839D01*
X412161D02*
X414819D01*
D68*
X357504Y302929D02*
G03*
X357504Y302929I-492J0D01*
G01*
X342563Y347512D02*
G03*
X342563Y347512I-492J0D01*
G01*
X434201Y284913D02*
G03*
X434201Y284913I-492J0D01*
G01*
X447579Y320224D02*
G03*
X447579Y320224I-492J0D01*
G01*
D69*
X388611Y294220D02*
G03*
X388611Y294220I-197J0D01*
G01*
D70*
X378500Y294000D02*
X386500D01*
X378500Y303000D02*
X386500D01*
D71*
X439000Y330500D02*
Y340500D01*
X426000Y352500D02*
X436000D01*
X372000Y359500D02*
Y369500D01*
D72*
X421457Y302500D02*
D03*
D73*
X387750Y292250D02*
D03*
X386250Y271250D02*
D03*
D74*
X394000Y271915D02*
D03*
D75*
X363500Y295835D02*
D03*
D76*
X355000Y336750D02*
D03*
D77*
X344000Y329000D02*
D03*
D78*
X354415Y298500D02*
D03*
D79*
X346500Y344915D02*
D03*
D80*
X406500Y314569D02*
D03*
D81*
X409297Y319000D02*
D03*
D82*
X428000Y287047D02*
D03*
D83*
X444953Y315500D02*
D03*
%TF.MD5,58986EC33BE853C930B180382D781002*%
M02*
