G04 Layer_Physical_Order=3*
G04 Layer_Color=128*
%FSLAX25Y25*%
%MOIN*%
%TF.FileFunction,Copper,L3,Inr,Plane*%
%TF.Part,Single*%
G01*
G75*
%ADD38C,0.04000*%
%ADD39C,0.01000*%
%TA.AperFunction,ViaPad*%
%ADD47C,0.05362*%
%TA.AperFunction,ViaPad*%
%ADD48C,0.04000*%
%ADD49R,0.08000X0.05000*%
%ADD50R,0.07500X0.02500*%
%ADD51R,0.12510X0.02370*%
%ADD52R,0.13500X0.12500*%
%ADD53R,0.14000X0.17000*%
G36*
X406000Y274000D02*
X370000D01*
Y287000D01*
X406000D01*
Y274000D01*
D02*
G37*
D38*
Y287000D01*
X370000Y274000D02*
X406000D01*
X370000D02*
Y287000D01*
X406000D01*
X392579Y385761D02*
X397525Y385567D01*
X387633D02*
X392579Y385761D01*
X382717Y384985D02*
X387633Y385567D01*
X377862Y384019D02*
X382717Y384985D01*
X373098Y382676D02*
X377862Y384019D01*
X368454Y380962D02*
X373098Y382676D01*
X363959Y378890D02*
X368454Y380962D01*
X359640Y376471D02*
X363959Y378890D01*
X355524Y373722D02*
X359640Y376471D01*
X351637Y370657D02*
X355524Y373722D01*
X348002Y367297D02*
X351637Y370657D01*
X344642Y363662D02*
X348002Y367297D01*
X341578Y359775D02*
X344642Y363662D01*
X338828Y355659D02*
X341578Y359775D01*
X336409Y351340D02*
X338828Y355659D01*
X334337Y346845D02*
X336409Y351340D01*
X332623Y342201D02*
X334337Y346845D01*
X331280Y337437D02*
X332623Y342201D01*
X330314Y332582D02*
X331280Y337437D01*
X329732Y327667D02*
X330314Y332582D01*
X329538Y322721D02*
X329732Y327667D01*
X329538Y322721D02*
X329732Y317774D01*
X330314Y312859D01*
X331280Y308004D01*
X332623Y303240D01*
X334337Y298596D01*
X336409Y294101D01*
X338828Y289782D01*
X341578Y285666D01*
X344642Y281779D01*
X348002Y278144D01*
X351637Y274784D01*
X355524Y271720D01*
X359640Y268969D01*
X363959Y266551D01*
X368454Y264478D01*
X373098Y262765D01*
X377862Y261422D01*
X382717Y260456D01*
X387633Y259874D01*
X392579Y259680D01*
X397525Y259874D01*
X402441Y260456D01*
X407295Y261422D01*
X412059Y262765D01*
X416703Y264478D01*
X421199Y266551D01*
X425517Y268969D01*
X429633Y271720D01*
X433520Y274784D01*
X437155Y278144D01*
X440515Y281779D01*
X443580Y285666D01*
X446330Y289782D01*
X448748Y294101D01*
X450821Y298596D01*
X452534Y303240D01*
X453878Y308004D01*
X454843Y312859D01*
X455425Y317774D01*
X455619Y322721D01*
X455425Y327667D02*
X455619Y322721D01*
X454843Y332582D02*
X455425Y327667D01*
X453878Y337437D02*
X454843Y332582D01*
X452534Y342201D02*
X453878Y337437D01*
X450821Y346845D02*
X452534Y342201D01*
X448748Y351340D02*
X450821Y346845D01*
X446330Y355659D02*
X448748Y351340D01*
X443580Y359775D02*
X446330Y355659D01*
X440515Y363662D02*
X443580Y359775D01*
X437155Y367297D02*
X440515Y363662D01*
X433520Y370657D02*
X437155Y367297D01*
X429633Y373722D02*
X433520Y370657D01*
X425517Y376471D02*
X429633Y373722D01*
X421199Y378890D02*
X425517Y376471D01*
X416703Y380962D02*
X421199Y378890D01*
X412059Y382676D02*
X416703Y380962D01*
X407295Y384019D02*
X412059Y382676D01*
X402441Y384985D02*
X407295Y384019D01*
X397525Y385567D02*
X402441Y384985D01*
D39*
X373500Y372500D02*
X374500Y371500D01*
X384500D01*
X385500Y372500D01*
X407000D01*
X442000Y322500D02*
X456500D01*
X438250Y326250D02*
X442000Y322500D01*
X438250Y326250D02*
Y329250D01*
X415500Y303000D02*
X415630Y303130D01*
X339500Y328000D02*
X342062Y325438D01*
Y324062D02*
Y325438D01*
X420000Y306500D02*
X427500D01*
X417500Y319500D02*
X419500Y321500D01*
X425000Y327500D02*
X426500Y329000D01*
X425000Y327500D02*
X431500Y321000D01*
Y302000D02*
Y321000D01*
X428000Y298500D02*
X431500Y302000D01*
X413221Y298500D02*
X428000D01*
X410990Y300731D02*
X413221Y298500D01*
X410990Y300731D02*
Y301990D01*
X412000Y303000D01*
X415500D01*
X415630Y303130D02*
X427500D01*
Y304000D01*
Y313500D01*
X419500Y321500D02*
X427500Y313500D01*
X407000Y372500D02*
X411000Y368500D01*
Y339000D02*
Y368500D01*
X397000Y339000D02*
Y350500D01*
X392500Y355000D02*
X397000Y350500D01*
X370500Y355000D02*
X392500D01*
X360000Y346500D02*
X370500D01*
X360000D02*
Y371500D01*
X361000Y372500D01*
X373500D01*
X370500Y346500D02*
Y355000D01*
X397000Y339000D02*
X411000D01*
X376500Y325500D02*
Y329500D01*
X375500Y330500D02*
X376500Y329500D01*
X359500Y330500D02*
X375500D01*
X354500Y325500D02*
X359500Y330500D01*
X342062Y325500D02*
X354500D01*
X376500D02*
X377000D01*
X377500Y325000D01*
X380000D01*
X381500Y326500D01*
Y331000D01*
X376000Y336500D02*
X381500Y331000D01*
X350500Y336500D02*
X376000D01*
X339500Y335000D02*
X349000D01*
X339500Y328000D02*
Y335000D01*
X433500Y333500D02*
X437500D01*
X438500Y332500D01*
Y329500D02*
Y332500D01*
X438000Y329000D02*
X438500Y329500D01*
X426500Y329000D02*
X438000D01*
X374500Y320000D02*
X417500D01*
X373000Y321500D02*
X374500Y320000D01*
X373000Y321500D02*
Y325000D01*
X371000Y327000D02*
X373000Y325000D01*
X362500Y327000D02*
X371000D01*
X357510Y322010D02*
X362500Y327000D01*
X426500Y333500D02*
X434000D01*
X416000Y323000D02*
X426500Y333500D01*
X383000Y323000D02*
X416000D01*
X380500Y325500D02*
X383000Y323000D01*
X336500Y316000D02*
X340000D01*
X336500D02*
Y318500D01*
X342062Y324062D01*
X369000Y310500D02*
X373500Y315000D01*
X354500Y310500D02*
X369000D01*
X348000Y304000D02*
X354500Y310500D01*
X332500Y304000D02*
X348000D01*
X338987Y355500D02*
X360000D01*
X338828Y355659D02*
X338987Y355500D01*
X360000Y336500D02*
Y346500D01*
X373500Y316500D02*
X414500D01*
X415500Y315500D01*
Y305500D02*
Y315500D01*
Y305500D02*
X416500Y304500D01*
X419000D01*
X420000Y305500D01*
Y317000D01*
X417000Y320000D02*
X420000Y317000D01*
X416000Y320000D02*
X417000D01*
X373500Y315000D02*
Y316500D01*
X349000Y335000D02*
X350500Y336500D01*
X340000Y316000D02*
X346010Y322010D01*
X357510D01*
D47*
X365000Y290000D02*
D03*
Y285000D02*
D03*
X360000Y290000D02*
D03*
Y285000D02*
D03*
X416500Y281000D02*
D03*
X411500D02*
D03*
X416500Y286000D02*
D03*
X411500D02*
D03*
X416500Y291000D02*
D03*
X411500D02*
D03*
D48*
X409000Y336500D02*
D03*
Y338500D02*
D03*
X407000D02*
D03*
X345500Y339500D02*
D03*
X342000Y342000D02*
D03*
X340500Y349500D02*
D03*
X354000Y337500D02*
D03*
X342500Y349500D02*
D03*
Y351500D02*
D03*
X340500D02*
D03*
X361500Y330000D02*
D03*
X370500Y308929D02*
D03*
X352000Y290500D02*
D03*
X359500Y304500D02*
D03*
X341673Y293827D02*
D03*
X369500Y312500D02*
D03*
X348500Y300000D02*
D03*
X344500Y303500D02*
D03*
X351500Y305000D02*
D03*
X427000Y310000D02*
D03*
X423000Y305000D02*
D03*
X422000Y299000D02*
D03*
X417827Y302500D02*
D03*
X436000Y310000D02*
D03*
Y308000D02*
D03*
X361500Y294000D02*
D03*
X372000Y291000D02*
D03*
X341000Y314500D02*
D03*
X344500Y310000D02*
D03*
X339673Y324327D02*
D03*
X422000Y309000D02*
D03*
X414000Y307000D02*
D03*
Y309000D02*
D03*
Y311000D02*
D03*
X427468Y321532D02*
D03*
X427000Y312000D02*
D03*
X434000Y310000D02*
D03*
Y308000D02*
D03*
X436500Y323000D02*
D03*
X441327Y292827D02*
D03*
X430500Y291000D02*
D03*
X379000Y310000D02*
D03*
Y308000D02*
D03*
X377000Y310000D02*
D03*
Y308000D02*
D03*
X344500Y332500D02*
D03*
X353000Y319000D02*
D03*
X351000D02*
D03*
X353000Y317000D02*
D03*
X369500Y323500D02*
D03*
X336327Y327000D02*
D03*
X355000Y319000D02*
D03*
X350173Y332500D02*
D03*
X355327Y332500D02*
D03*
X361071Y325429D02*
D03*
X353000Y321000D02*
D03*
X355595Y339905D02*
D03*
X355500Y342500D02*
D03*
X359500Y307500D02*
D03*
X350929Y339441D02*
D03*
X348000Y348500D02*
D03*
X349000Y307000D02*
D03*
X354000Y301500D02*
D03*
X376000Y300000D02*
D03*
X378500Y303000D02*
D03*
X388500Y301500D02*
D03*
X382500Y300500D02*
D03*
X376000Y291000D02*
D03*
X416500Y296500D02*
D03*
X432500Y326000D02*
D03*
X430500Y288000D02*
D03*
X426000Y287000D02*
D03*
X411500Y298440D02*
D03*
X404000Y293500D02*
D03*
X398500D02*
D03*
X382500Y296000D02*
D03*
D49*
X374000Y291000D02*
D03*
D50*
X423750Y305250D02*
D03*
D51*
X421245Y304315D02*
D03*
D52*
X363250Y287250D02*
D03*
D53*
X413000Y286000D02*
D03*
%TF.MD5,4C27271031DDC790FD4076FF03553165*%
M02*
