G04 Layer_Physical_Order=4*
G04 Layer_Color=16711680*
%FSLAX25Y25*%
%MOIN*%
%TF.FileFunction,Copper,L4,Bot,Signal*%
%TF.Part,Single*%
G01*
G75*
%TA.AperFunction,SMDPad*%
%ADD12R,0.01575X0.03543*%
%TA.AperFunction,SMDPad*%
%ADD14R,0.02362X0.02559*%
%TA.AperFunction,SMDPad*%
%ADD17R,0.02559X0.02362*%
%TA.AperFunction,SMDPad*%
%ADD33R,0.03937X0.03268*%
%ADD35C,0.00800*%
%ADD37C,0.00700*%
%ADD38C,0.01000*%
%ADD39C,0.02000*%
%TA.AperFunction,ViaPad*%
%ADD41R,0.03937X0.03937*%
%TA.AperFunction,ViaPad*%
%ADD42C,0.03937*%
%TA.AperFunction,ViaPad*%
%ADD43R,0.03937X0.03937*%
%TA.AperFunction,ViaPad*%
%ADD44C,0.01800*%
%TA.AperFunction,SMDPad*%
%ADD60R,0.03543X0.04921*%
%TA.AperFunction,SMDPad*%
%ADD61R,0.09843X0.06496*%
%TA.AperFunction,SMDPad*%
%ADD62R,0.01575X0.06496*%
%TA.AperFunction,ConnectorPad*%
%ADD63C,0.31496*%
%TA.AperFunction,SMDPad*%
%ADD64R,0.12598X0.09252*%
%TA.AperFunction,SMDPad*%
%ADD65R,0.09252X0.12598*%
%ADD66C,0.03000*%
G36*
X397422Y384260D02*
X402235Y383690D01*
X406989Y382745D01*
X411654Y381429D01*
X416202Y379751D01*
X420603Y377722D01*
X424832Y375354D01*
X428863Y372661D01*
X432669Y369660D01*
X436228Y366370D01*
X439518Y362811D01*
X441440Y360373D01*
D01*
X442519Y359004D01*
X445212Y354974D01*
X447580Y350745D01*
X447867Y350124D01*
X449354Y346898D01*
X449610Y346343D01*
X451287Y341796D01*
X452603Y337131D01*
X453548Y332377D01*
X454118Y327564D01*
X454309Y322721D01*
X454118Y317877D01*
X453548Y313064D01*
X452603Y308310D01*
X451287Y303645D01*
X449610Y299097D01*
X447580Y294696D01*
X445212Y290467D01*
X442519Y286437D01*
X439518Y282630D01*
X436228Y279071D01*
X432669Y275781D01*
X428863Y272780D01*
X425890Y270794D01*
X424832Y270087D01*
X420603Y267719D01*
X416202Y265690D01*
X411654Y264012D01*
X406989Y262696D01*
X402235Y261751D01*
X397422Y261181D01*
X392579Y260991D01*
X387736Y261181D01*
X382922Y261751D01*
X378168Y262696D01*
X373503Y264012D01*
X373500Y264013D01*
X368956Y265690D01*
X367806Y266220D01*
X364554Y267719D01*
X360325Y270087D01*
X356295Y272780D01*
X352488Y275781D01*
X348929Y279071D01*
X345639Y282630D01*
X342638Y286437D01*
X339946Y290467D01*
X337577Y294696D01*
X335548Y299097D01*
X333870Y303645D01*
X332555Y308310D01*
X331609Y313064D01*
X331039Y317877D01*
X330849Y322721D01*
X331039Y327564D01*
X331609Y332377D01*
X332555Y337131D01*
X333870Y341796D01*
X335548Y346343D01*
X337577Y350745D01*
X339946Y354974D01*
X342638Y359004D01*
X345639Y362811D01*
X348929Y366370D01*
X352488Y369660D01*
X356295Y372661D01*
X360325Y375354D01*
X361395Y375953D01*
D01*
X364554Y377722D01*
X368956Y379751D01*
X373503Y381429D01*
X378168Y382745D01*
X382922Y383690D01*
X387736Y384260D01*
X392579Y384450D01*
X397422Y384260D01*
D02*
G37*
%LPC*%
G36*
X424327Y285519D02*
X423679Y285390D01*
X423130Y285023D01*
X422763Y284474D01*
X422634Y283827D01*
X422763Y283179D01*
X423130Y282630D01*
X423679Y282263D01*
X424327Y282134D01*
X424974Y282263D01*
X425524Y282630D01*
X425890Y283179D01*
X426019Y283827D01*
X425890Y284474D01*
X425524Y285023D01*
X424974Y285390D01*
X424327Y285519D01*
D02*
G37*
G36*
X411000Y274193D02*
X410352Y274064D01*
X409803Y273697D01*
X409436Y273148D01*
X409307Y272500D01*
X409436Y271852D01*
X409803Y271303D01*
X410352Y270936D01*
X411000Y270808D01*
X411648Y270936D01*
X412197Y271303D01*
X412564Y271852D01*
X412692Y272500D01*
X412564Y273148D01*
X412197Y273697D01*
X411648Y274064D01*
X411000Y274193D01*
D02*
G37*
G36*
X421473Y291627D02*
X419793D01*
Y290046D01*
X421473D01*
Y291627D01*
D02*
G37*
G36*
X424352D02*
X422673D01*
Y290046D01*
X424352D01*
Y291627D01*
D02*
G37*
G36*
X355539Y356114D02*
X351461D01*
Y355305D01*
X351173D01*
X350740Y355219D01*
X350373Y354974D01*
X347200Y351800D01*
X346954Y351433D01*
X346868Y351000D01*
Y349787D01*
X346866Y349774D01*
X346861Y349755D01*
X346856Y349741D01*
X346852Y349730D01*
X346851Y349729D01*
X346803Y349697D01*
X346436Y349148D01*
X346307Y348500D01*
X346436Y347852D01*
X346803Y347303D01*
X347352Y346936D01*
X348000Y346808D01*
X348648Y346936D01*
X349197Y347303D01*
X349564Y347852D01*
X349693Y348500D01*
X349564Y349148D01*
X349197Y349697D01*
X349149Y349729D01*
X349148Y349730D01*
X349144Y349741D01*
X349139Y349755D01*
X349134Y349774D01*
X349132Y349787D01*
Y350531D01*
X351016Y352416D01*
X351206Y352337D01*
X351461Y352153D01*
Y348886D01*
X352241D01*
X352305Y348873D01*
X352317Y348809D01*
Y347616D01*
X352305Y347552D01*
X352241Y347539D01*
X351386D01*
Y343460D01*
X351262Y343349D01*
X351002Y343154D01*
X350941Y343132D01*
X349973D01*
X349836Y343336D01*
X347336Y345836D01*
X346953Y346093D01*
X346500Y346183D01*
X346500Y346183D01*
X340500D01*
X340500Y346183D01*
X340047Y346093D01*
X339664Y345836D01*
X339664Y345836D01*
X337664Y343836D01*
X337407Y343453D01*
X337317Y343000D01*
X337317Y343000D01*
Y330500D01*
X337317Y330500D01*
X337407Y330047D01*
X337664Y329664D01*
X339481Y327846D01*
X339481Y327846D01*
X339865Y327590D01*
X340317Y327500D01*
X340317Y327500D01*
X345327D01*
X345817Y327010D01*
Y320630D01*
X345817Y320630D01*
X345907Y320178D01*
X346164Y319794D01*
X347757Y318200D01*
Y311215D01*
X347757Y311215D01*
X347847Y310762D01*
X348104Y310378D01*
X348962Y309520D01*
X348787Y308988D01*
X348698Y308975D01*
X346836Y310836D01*
X346453Y311093D01*
X346421Y311099D01*
X346040Y311386D01*
X346040Y311646D01*
Y314492D01*
X346280D01*
Y316073D01*
X344000D01*
Y316673D01*
X343400D01*
Y318854D01*
X342183D01*
Y323000D01*
X342093Y323453D01*
X341836Y323836D01*
X341836Y323836D01*
X341378Y324294D01*
X341369Y324306D01*
X341363Y324315D01*
X341366Y324327D01*
X341237Y324974D01*
X340870Y325523D01*
X340321Y325890D01*
X339673Y326019D01*
X339025Y325890D01*
X338476Y325523D01*
X338110Y324974D01*
X337981Y324327D01*
X338110Y323679D01*
X338476Y323130D01*
X339025Y322763D01*
X339673Y322634D01*
X339817Y322169D01*
Y318668D01*
X339317Y318516D01*
X339197Y318697D01*
X338648Y319064D01*
X338000Y319193D01*
X337352Y319064D01*
X336803Y318697D01*
X336436Y318148D01*
X336308Y317500D01*
X336436Y316852D01*
X336803Y316303D01*
X337352Y315936D01*
X337490Y315909D01*
X337768Y315493D01*
X337757Y315440D01*
X337757Y315440D01*
Y305560D01*
X337757Y305560D01*
X337847Y305107D01*
X338104Y304724D01*
X343767Y299060D01*
X343727Y298624D01*
X343272Y298436D01*
X342821Y298737D01*
X342173Y298866D01*
X341526Y298737D01*
X340977Y298370D01*
X340610Y297821D01*
X340481Y297173D01*
X340610Y296526D01*
X340977Y295976D01*
X341526Y295610D01*
X342173Y295481D01*
X342821Y295610D01*
X343370Y295976D01*
X343696Y296464D01*
X343867Y296537D01*
X343868Y296537D01*
X344256Y296571D01*
X351817Y289010D01*
Y288228D01*
X351815Y288214D01*
X351813Y288203D01*
X351803Y288197D01*
X351436Y287648D01*
X351308Y287000D01*
X351436Y286352D01*
X351803Y285803D01*
X352352Y285436D01*
X353000Y285308D01*
X353648Y285436D01*
X354197Y285803D01*
X354564Y286352D01*
X354693Y287000D01*
X354564Y287648D01*
X354197Y288197D01*
X354187Y288203D01*
X354185Y288214D01*
X354183Y288228D01*
Y289500D01*
X354183Y289500D01*
X354093Y289953D01*
X353836Y290336D01*
X346183Y297990D01*
Y299500D01*
X346093Y299953D01*
X345836Y300336D01*
X345836Y300336D01*
X340123Y306050D01*
Y306997D01*
X340623Y307205D01*
X342664Y305164D01*
X342664Y305164D01*
X343047Y304907D01*
X343500Y304817D01*
X344423D01*
X347317Y301923D01*
Y301228D01*
X347315Y301214D01*
X347313Y301203D01*
X347303Y301197D01*
X346936Y300648D01*
X346808Y300000D01*
X346936Y299352D01*
X347303Y298803D01*
X347852Y298436D01*
X348500Y298307D01*
X349148Y298436D01*
X349697Y298803D01*
X349821Y298990D01*
X349985Y298993D01*
X350343Y298870D01*
X350407Y298547D01*
X350664Y298164D01*
X351817Y297010D01*
Y295000D01*
X351817Y295000D01*
X351907Y294547D01*
X352164Y294164D01*
X353664Y292664D01*
X354047Y292407D01*
X354500Y292317D01*
X356010D01*
X357014Y291314D01*
X357044Y291270D01*
X357084Y291194D01*
X357124Y291096D01*
X357162Y290975D01*
X357195Y290830D01*
X357221Y290672D01*
X357254Y290251D01*
X357256Y290063D01*
X357248Y290000D01*
X357342Y289288D01*
X357617Y288624D01*
X357920Y288229D01*
X357694Y287729D01*
X357272D01*
Y282272D01*
X358817D01*
Y281500D01*
X358817Y281500D01*
X358907Y281047D01*
X359164Y280664D01*
X362664Y277164D01*
X362664Y277164D01*
X363047Y276907D01*
X363500Y276817D01*
X363500Y276817D01*
X366010D01*
X366179Y276648D01*
X366303Y276197D01*
X365936Y275648D01*
X365808Y275000D01*
X365936Y274352D01*
X366303Y273803D01*
X366852Y273436D01*
X367500Y273307D01*
X368148Y273436D01*
X368298Y273536D01*
X368414Y273530D01*
X368919Y273350D01*
X369092Y273092D01*
X369508Y272813D01*
X370000Y272715D01*
X393179D01*
X393331Y272215D01*
X393303Y272197D01*
X392936Y271648D01*
X392808Y271000D01*
X392936Y270352D01*
X393050Y270183D01*
X392782Y269683D01*
X390990D01*
X390836Y269836D01*
X390453Y270093D01*
X390000Y270183D01*
X390000Y270183D01*
X387228D01*
X387214Y270185D01*
X387203Y270187D01*
X387197Y270197D01*
X386648Y270564D01*
X386000Y270692D01*
X385352Y270564D01*
X384803Y270197D01*
X384436Y269648D01*
X384308Y269000D01*
X384436Y268352D01*
X384803Y267803D01*
X385352Y267436D01*
X386000Y267307D01*
X386648Y267436D01*
X387197Y267803D01*
X387203Y267813D01*
X387214Y267815D01*
X387228Y267817D01*
X389510D01*
X389664Y267664D01*
X389664Y267664D01*
X390047Y267407D01*
X390500Y267317D01*
X390500Y267317D01*
X395772D01*
X395786Y267315D01*
X395797Y267313D01*
X395803Y267303D01*
X396352Y266936D01*
X397000Y266808D01*
X397648Y266936D01*
X398197Y267303D01*
X398564Y267852D01*
X398692Y268500D01*
X398564Y269148D01*
X398450Y269317D01*
X398718Y269817D01*
X405500D01*
X405500Y269817D01*
X405953Y269907D01*
X406336Y270164D01*
X408496Y272324D01*
X408753Y272707D01*
X408843Y273160D01*
Y278765D01*
X409343Y278935D01*
X409383Y278883D01*
X410003Y278407D01*
X410725Y278108D01*
X410900Y278085D01*
Y281000D01*
X412100D01*
Y278085D01*
X412275Y278108D01*
X412997Y278407D01*
X413617Y278883D01*
X413836Y279168D01*
X414466Y279168D01*
X414554Y279054D01*
X415124Y278617D01*
X415788Y278342D01*
X416500Y278248D01*
X417212Y278342D01*
X417876Y278617D01*
X418446Y279054D01*
X418883Y279624D01*
X419158Y280288D01*
X419252Y281000D01*
X419158Y281712D01*
X418883Y282376D01*
X418446Y282946D01*
X418114Y283201D01*
X418113Y283203D01*
Y283797D01*
X418114Y283799D01*
X418446Y284054D01*
X418883Y284624D01*
X419158Y285288D01*
X419252Y286000D01*
X419158Y286712D01*
X418883Y287376D01*
X418446Y287946D01*
X418114Y288201D01*
X418113Y288203D01*
Y288797D01*
X418114Y288799D01*
X418446Y289054D01*
X418883Y289624D01*
X419158Y290288D01*
X419252Y291000D01*
X419158Y291712D01*
X418883Y292376D01*
X418446Y292946D01*
X418249Y293097D01*
X418258Y293367D01*
X418334Y293662D01*
X419063Y294391D01*
X419793D01*
Y292827D01*
X424352D01*
Y293257D01*
Y294408D01*
X424112D01*
Y297514D01*
X423596D01*
X423338Y298014D01*
X423564Y298352D01*
X423693Y299000D01*
X423564Y299648D01*
X423303Y300038D01*
X423114Y300461D01*
Y303330D01*
X423648Y303436D01*
X424197Y303803D01*
X424564Y304352D01*
X424692Y305000D01*
X424564Y305648D01*
X424197Y306197D01*
X423648Y306564D01*
X423436Y306606D01*
X423079Y306953D01*
Y307725D01*
X423197Y307803D01*
X423564Y308352D01*
X423693Y309000D01*
X423564Y309648D01*
X423197Y310197D01*
X423079Y310275D01*
Y311032D01*
X415851D01*
Y306953D01*
X416039D01*
X416127Y306885D01*
D01*
X416397Y306453D01*
X416307Y306000D01*
X416376Y305655D01*
X416436Y305352D01*
X416645Y305040D01*
X416378Y304539D01*
X415886D01*
Y300461D01*
X420378D01*
X420645Y299960D01*
X420436Y299648D01*
X420307Y299000D01*
X420436Y298352D01*
X420662Y298014D01*
X420404Y297514D01*
X420033D01*
Y296756D01*
X418573D01*
X418158Y296673D01*
D01*
X418064Y297148D01*
X417697Y297697D01*
X417148Y298064D01*
X416500Y298193D01*
X415852Y298064D01*
X415303Y297697D01*
X415297Y297687D01*
X415286Y297685D01*
X415272Y297683D01*
X415000D01*
X414547Y297593D01*
X414164Y297336D01*
X414164Y297336D01*
X414070Y297243D01*
X413298D01*
X413031Y297743D01*
X413064Y297792D01*
X413193Y298440D01*
X413064Y299088D01*
X413457Y299398D01*
X413648Y299436D01*
X414197Y299803D01*
X414564Y300352D01*
X414692Y301000D01*
X414564Y301648D01*
X414197Y302197D01*
X413648Y302564D01*
X413000Y302693D01*
X412352Y302564D01*
X411803Y302197D01*
X411436Y301648D01*
X411307Y301000D01*
X411436Y300352D01*
X411043Y300042D01*
X410852Y300004D01*
X410303Y299637D01*
X410297Y299627D01*
X410286Y299625D01*
X410272Y299623D01*
X381050D01*
X379683Y300990D01*
Y301772D01*
X379685Y301786D01*
X379687Y301797D01*
X379697Y301803D01*
X380064Y302352D01*
X380192Y303000D01*
X380064Y303648D01*
X379697Y304197D01*
X379148Y304564D01*
X378500Y304693D01*
X377852Y304564D01*
X377303Y304197D01*
X376936Y303648D01*
X376807Y303000D01*
X376936Y302352D01*
X377070Y302152D01*
X377015Y301919D01*
X376648Y301564D01*
X376000Y301693D01*
X375352Y301564D01*
X375106Y301399D01*
X374606Y301667D01*
Y301764D01*
X374606Y301764D01*
X374606Y301765D01*
Y301816D01*
X374609Y301831D01*
X374606Y301845D01*
Y302603D01*
X374210D01*
X374152Y302894D01*
X373895Y303277D01*
X373895Y303277D01*
X371774Y305399D01*
X371390Y305655D01*
X371379Y305658D01*
X371428Y306157D01*
X372287D01*
Y306398D01*
X374606D01*
Y310674D01*
X374609Y310689D01*
X374606Y310703D01*
Y311461D01*
X374999Y311720D01*
X375073D01*
Y312663D01*
X375017Y312701D01*
X374949Y312724D01*
X374873Y312733D01*
X375073D01*
Y314000D01*
Y316280D01*
X374612D01*
X374576Y316299D01*
X374241Y316779D01*
X374285Y317000D01*
X374285Y317000D01*
Y317413D01*
X374287Y317439D01*
X374564Y317852D01*
X374693Y318500D01*
X374564Y319148D01*
X374197Y319697D01*
X373648Y320064D01*
X373000Y320193D01*
X372352Y320064D01*
X371803Y319697D01*
X371436Y319148D01*
X371307Y318500D01*
X371436Y317852D01*
X371676Y317493D01*
X371418Y317235D01*
X371183Y316882D01*
X370933Y316885D01*
X370683Y316966D01*
Y322272D01*
X370685Y322286D01*
X370687Y322297D01*
X370697Y322303D01*
X371064Y322852D01*
X371193Y323500D01*
X371064Y324148D01*
X370697Y324697D01*
X370148Y325064D01*
X369500Y325192D01*
X368852Y325064D01*
X368303Y324697D01*
X367936Y324148D01*
X367808Y323500D01*
X367936Y322852D01*
X368303Y322303D01*
X368313Y322297D01*
X368315Y322286D01*
X368317Y322272D01*
Y313728D01*
X368315Y313714D01*
X368313Y313703D01*
X368303Y313697D01*
X367936Y313148D01*
X367808Y312500D01*
X367867Y312201D01*
D01*
X367936Y311852D01*
X368303Y311303D01*
X368479Y311186D01*
X368542Y310542D01*
X368500Y310500D01*
Y307000D01*
X366683D01*
Y311701D01*
Y318000D01*
X366683Y318000D01*
X366593Y318453D01*
X366336Y318836D01*
X366336Y318836D01*
X364865Y320307D01*
Y335634D01*
Y337500D01*
X364775Y337953D01*
X364519Y338336D01*
X364519Y338336D01*
X364355Y338500D01*
X363765Y339090D01*
X362114Y340741D01*
X361730Y340998D01*
X361278Y341088D01*
X361278Y341088D01*
X357154D01*
X356898Y341567D01*
X356911Y341624D01*
X357064Y341852D01*
X357192Y342500D01*
X357149Y342720D01*
X357064Y343148D01*
X356697Y343697D01*
X356148Y344064D01*
X355507Y344191D01*
Y347005D01*
X355448Y347301D01*
X355280Y347553D01*
X355029Y347721D01*
X354859Y347754D01*
X354834Y347765D01*
X354759Y347779D01*
X354695Y347792D01*
X354683Y347856D01*
Y348809D01*
X354695Y348873D01*
X354759Y348886D01*
X355539D01*
Y352232D01*
Y356114D01*
D02*
G37*
G36*
X346280Y318854D02*
X344600D01*
Y317273D01*
X346280D01*
Y318854D01*
D02*
G37*
G36*
X403595Y373721D02*
X398531D01*
Y372275D01*
X397969D01*
X397672Y372216D01*
X397421Y372048D01*
X397253Y371796D01*
X397194Y371500D01*
Y368054D01*
X393680D01*
Y371500D01*
X393621Y371796D01*
X393453Y372048D01*
X393202Y372216D01*
X392905Y372275D01*
X390095D01*
Y373721D01*
X385031D01*
Y372275D01*
X361576D01*
X361502Y372260D01*
X361425D01*
X361355Y372246D01*
X361355D01*
X361284Y372217D01*
X361280Y372216D01*
X361276Y372213D01*
X361154Y372163D01*
X361150Y372162D01*
X361146Y372160D01*
X361075Y372130D01*
X361075Y372130D01*
X361016Y372090D01*
X360962Y372036D01*
X360898Y371994D01*
X360698Y371794D01*
X360684Y371773D01*
X360649Y371738D01*
X360620Y371695D01*
X360602Y371676D01*
X360588Y371656D01*
X360582Y371641D01*
X360525Y371577D01*
X360509Y371529D01*
X360481Y371486D01*
X360464Y371402D01*
X360456Y371389D01*
X360448Y371365D01*
X360445Y371339D01*
X360428Y371290D01*
X360422Y371241D01*
X360414Y371217D01*
X359732Y366017D01*
X359735Y365966D01*
X359725Y365916D01*
Y362775D01*
Y353500D01*
Y347576D01*
X359740Y347501D01*
Y347425D01*
X359755Y347350D01*
X359784Y347280D01*
X359799Y347205D01*
X359841Y347141D01*
X359871Y347071D01*
X359892Y347050D01*
X359925Y347001D01*
X359958Y346968D01*
X359967Y346954D01*
X359988Y346933D01*
X360021Y346883D01*
X360898Y346006D01*
X360962Y345964D01*
X361016Y345910D01*
X361075Y345870D01*
X361075Y345870D01*
X361146Y345841D01*
X361150Y345838D01*
X361154Y345837D01*
X361276Y345787D01*
X361280Y345784D01*
X361284Y345783D01*
X361355Y345754D01*
X361355D01*
X361425Y345740D01*
X361502D01*
X361576Y345725D01*
X363257D01*
X363332Y345740D01*
X363408D01*
X363479Y345769D01*
X363554Y345784D01*
X363616Y345826D01*
X364000Y345902D01*
X364384Y345826D01*
X364446Y345784D01*
X364521Y345769D01*
X364592Y345740D01*
X364668D01*
X364743Y345725D01*
X365257D01*
X365332Y345740D01*
X365408D01*
X365479Y345769D01*
X365553Y345784D01*
X365616Y345826D01*
X365847Y345872D01*
X366000Y345902D01*
X366384Y345826D01*
X366446Y345784D01*
X366521Y345769D01*
X366592Y345740D01*
X366668D01*
X366743Y345725D01*
X367257D01*
X367332Y345740D01*
X367408D01*
X367479Y345769D01*
X367553Y345784D01*
X367617Y345826D01*
X368000Y345902D01*
X368384Y345826D01*
X368446Y345784D01*
X368521Y345769D01*
X368592Y345740D01*
X368668D01*
X368743Y345725D01*
X368924D01*
X368999Y345740D01*
X369075D01*
X369145Y345754D01*
X369145D01*
X369216Y345783D01*
X369220Y345784D01*
X369224Y345787D01*
X369346Y345837D01*
X369351Y345838D01*
X369354Y345841D01*
X369425Y345870D01*
X369425Y345870D01*
X369484Y345910D01*
X369538Y345964D01*
D01*
X369602Y346006D01*
X370494Y346898D01*
X370536Y346962D01*
X370590Y347016D01*
X370630Y347075D01*
X370630Y347075D01*
X370659Y347146D01*
X370662Y347149D01*
X370663Y347154D01*
X370713Y347276D01*
X370716Y347280D01*
X370717Y347284D01*
X370746Y347355D01*
Y347355D01*
X370760Y347425D01*
Y347501D01*
D01*
X370775Y347576D01*
Y354679D01*
X371255Y354725D01*
X381679D01*
X382225Y354179D01*
Y351500D01*
Y342000D01*
Y338576D01*
X382240Y338502D01*
Y338425D01*
X382253Y338362D01*
X382282Y338291D01*
X382284Y338280D01*
X382291Y338270D01*
X382336Y338160D01*
X382368Y338082D01*
X382368Y338082D01*
X382582Y337868D01*
X382582Y337868D01*
X382770Y337790D01*
D01*
X382771Y337790D01*
X382780Y337784D01*
X382791Y337782D01*
X382861Y337753D01*
X382925Y337740D01*
X383001D01*
X383076Y337725D01*
X383829D01*
X384103Y337472D01*
X384218Y337311D01*
X384134Y336932D01*
X382644Y335936D01*
X382508Y335845D01*
X380881Y334419D01*
X380349Y333812D01*
X379454Y332791D01*
X378252Y330992D01*
X377294Y329051D01*
X376599Y327002D01*
X376177Y324880D01*
X376035Y322721D01*
X376177Y320561D01*
X376599Y318439D01*
X377162Y316779D01*
X376804Y316280D01*
X376273D01*
Y314000D01*
Y312733D01*
X376473D01*
X376397Y312724D01*
X376329Y312701D01*
X376273Y312663D01*
Y311720D01*
X377854D01*
Y314143D01*
X378354Y314295D01*
X379454Y312649D01*
X380881Y311022D01*
X382508Y309596D01*
X384307Y308393D01*
X386248Y307436D01*
X388297Y306741D01*
X390038Y306394D01*
X390038Y306394D01*
X390075Y306370D01*
X390133Y306346D01*
X390159Y306328D01*
X390173Y306323D01*
X390204Y306316D01*
X390276Y306287D01*
X390280Y306284D01*
X390284Y306283D01*
X390355Y306254D01*
X390425Y306240D01*
X390501D01*
X390576Y306225D01*
X391845D01*
X392579Y306177D01*
X393312Y306225D01*
X404424D01*
X404498Y306240D01*
X404575D01*
X404645Y306254D01*
X404645D01*
X404716Y306283D01*
X404720Y306284D01*
X404724Y306287D01*
D01*
X404811Y306323D01*
X404846Y306337D01*
D01*
D01*
X404850Y306338D01*
X404854Y306341D01*
X404925Y306370D01*
X404925Y306370D01*
X404985Y306410D01*
X405038Y306464D01*
X405102Y306506D01*
X411321Y312725D01*
X423757D01*
X423757Y312725D01*
X423946Y312763D01*
X424054Y312784D01*
X424054Y312784D01*
X424124Y312813D01*
X424125Y312813D01*
X424191Y312841D01*
X424425Y312888D01*
X424575D01*
X424599Y312883D01*
X424750D01*
X424901D01*
X424901Y312883D01*
X425000Y312902D01*
X425384Y312826D01*
X425447Y312784D01*
X425521Y312769D01*
X425592Y312740D01*
X425668D01*
X425743Y312725D01*
X425757D01*
X425757Y312725D01*
X425832Y312740D01*
X425894D01*
X425952Y312764D01*
X426054Y312784D01*
X426054Y312784D01*
X426124Y312813D01*
X426125Y312813D01*
X426191Y312841D01*
X426425Y312888D01*
X426575D01*
X426599Y312883D01*
X426750D01*
X426901D01*
X426901Y312883D01*
X427000Y312902D01*
X427384Y312826D01*
X427447Y312784D01*
X427521Y312769D01*
X427592Y312740D01*
X427668D01*
X427743Y312725D01*
X433424D01*
X433498Y312740D01*
X433575D01*
X433645Y312754D01*
X433645D01*
X433716Y312783D01*
X433720Y312784D01*
X433724Y312787D01*
X433846Y312837D01*
X433850Y312838D01*
X433854Y312841D01*
X433925Y312870D01*
X433925Y312870D01*
X433985Y312910D01*
X434000Y312925D01*
X434038Y312964D01*
X434102Y313006D01*
X434361Y313265D01*
X434846Y313307D01*
X434940Y313298D01*
X434963Y313264D01*
X437217Y311010D01*
Y306890D01*
X436727Y306400D01*
X436510Y306183D01*
X431837D01*
X431385Y306093D01*
X431001Y305836D01*
X431001Y305836D01*
X428664Y303499D01*
X428407Y303115D01*
X428317Y302663D01*
X428317Y302663D01*
Y297490D01*
X425564Y294736D01*
X425307Y294353D01*
X425217Y293900D01*
X425217Y293900D01*
X425217Y293900D01*
Y293257D01*
Y290137D01*
X425217Y290137D01*
X425307Y289685D01*
X425564Y289301D01*
X427001Y287864D01*
X427001Y287864D01*
X427385Y287607D01*
X427837Y287517D01*
X428903D01*
X428936Y287352D01*
X429303Y286803D01*
X429852Y286436D01*
X430500Y286308D01*
X431148Y286436D01*
X431697Y286803D01*
X432064Y287352D01*
X432193Y288000D01*
X432064Y288648D01*
X431697Y289197D01*
X431617Y289250D01*
Y289750D01*
X431697Y289803D01*
X432064Y290352D01*
X432193Y291000D01*
X432064Y291648D01*
X431697Y292197D01*
X431148Y292564D01*
X430500Y292692D01*
X430110Y292615D01*
X429602Y292899D01*
X429553Y292965D01*
X429533Y293097D01*
X431936Y295501D01*
X431936Y295501D01*
X432193Y295885D01*
X432283Y296337D01*
Y301510D01*
X432990Y302217D01*
X435895D01*
X435903Y302215D01*
X435991Y302171D01*
X436038Y302121D01*
X436303Y301697D01*
X436283Y301666D01*
X436283Y301666D01*
X435936Y301148D01*
X435906Y300996D01*
X435906Y300996D01*
Y300996D01*
X435838Y300651D01*
X435838Y300651D01*
Y300651D01*
X435808Y300500D01*
X435838Y300349D01*
Y300349D01*
X435838Y300349D01*
X435906Y300004D01*
Y300004D01*
X435906Y300004D01*
X435936Y299852D01*
X436022Y299724D01*
X436022Y299724D01*
X436022Y299276D01*
X435936Y299148D01*
X435906Y298996D01*
X435906Y298996D01*
Y298996D01*
X435838Y298651D01*
X435838Y298651D01*
Y298651D01*
X435808Y298500D01*
X435838Y298349D01*
Y298349D01*
X435838Y298349D01*
X435906Y298004D01*
Y298004D01*
X435906Y298004D01*
X435936Y297852D01*
X436022Y297724D01*
X436022Y297724D01*
X436022Y297724D01*
X436218Y297431D01*
X436218Y297431D01*
X436218Y297431D01*
X436303Y297303D01*
X436852Y296936D01*
X437003Y296906D01*
X437004Y296906D01*
X437004D01*
X437349Y296838D01*
X437349Y296837D01*
X437349D01*
X437500Y296808D01*
X437651Y296837D01*
X437651D01*
X437651Y296838D01*
X437996Y296906D01*
X437996D01*
X437997Y296906D01*
X438148Y296936D01*
X438276Y297022D01*
X438276Y297022D01*
X438724Y297022D01*
X438852Y296936D01*
X439004Y296906D01*
X439004Y296906D01*
X439004D01*
X439349Y296838D01*
X439349Y296837D01*
X439349D01*
X439500Y296808D01*
X439651Y296837D01*
X439651D01*
X439651Y296838D01*
X439996Y296906D01*
X439996D01*
X439997Y296906D01*
X440148Y296936D01*
X440276Y297022D01*
X440276Y297022D01*
X440276Y297022D01*
X440569Y297218D01*
X440569Y297218D01*
X440569Y297218D01*
X440697Y297303D01*
X441064Y297852D01*
X441094Y298003D01*
X441094Y298004D01*
Y298004D01*
X441162Y298349D01*
X441162Y298349D01*
Y298349D01*
X441192Y298500D01*
X441162Y298651D01*
Y298651D01*
X441162Y298651D01*
X441094Y298996D01*
Y298996D01*
X441094Y298996D01*
X441064Y299148D01*
X440978Y299276D01*
X440978Y299276D01*
X440978Y299724D01*
X441064Y299852D01*
X441094Y300004D01*
X441094Y300004D01*
Y300004D01*
X441162Y300349D01*
X441162Y300349D01*
Y300349D01*
X441192Y300500D01*
X441162Y300651D01*
Y300651D01*
X441162Y300651D01*
X441094Y300996D01*
Y300996D01*
X441094Y300996D01*
X441064Y301148D01*
X440978Y301276D01*
X440978Y301276D01*
X440978Y301276D01*
X440782Y301569D01*
X440782Y301569D01*
X440782Y301569D01*
X440697Y301697D01*
X440148Y302064D01*
X439997Y302094D01*
X439996Y302094D01*
X439996D01*
X439651Y302162D01*
X439651Y302163D01*
X439651D01*
X439500Y302192D01*
X439349Y302163D01*
X439349D01*
X439349Y302162D01*
X439178Y302128D01*
X438810Y302211D01*
X438622Y302687D01*
X440836Y304901D01*
X440836Y304901D01*
X441093Y305285D01*
X441183Y305737D01*
Y306400D01*
Y334500D01*
X441093Y334953D01*
X440836Y335336D01*
X440836Y335336D01*
X437580Y338592D01*
X437347Y338992D01*
X437347D01*
X437347Y338992D01*
Y339749D01*
X437350Y339764D01*
X437347Y339778D01*
Y347008D01*
X435509D01*
X435026Y347039D01*
X435025Y347063D01*
X435006Y347142D01*
X435004Y347196D01*
X435004Y347196D01*
X434995Y347215D01*
X434988Y347271D01*
X434874Y347625D01*
X434843Y347679D01*
X434826Y347740D01*
X434770Y347810D01*
X434726Y347889D01*
X434677Y347928D01*
X434639Y347977D01*
X434560Y348021D01*
X434489Y348077D01*
X434429Y348094D01*
X434375Y348124D01*
X434024Y348237D01*
X433904Y348251D01*
X433786Y348275D01*
X423569D01*
X423494Y348260D01*
X423418Y348260D01*
X423341Y348245D01*
X423271Y348216D01*
X413880D01*
X413466Y348425D01*
X413437Y348496D01*
X413436Y348500D01*
X413434Y348504D01*
X413383Y348626D01*
X413382Y348630D01*
X413380Y348634D01*
X413351Y348704D01*
X413351Y348704D01*
X413311Y348764D01*
X413275Y348800D01*
Y349412D01*
Y360000D01*
Y361799D01*
Y367424D01*
X413251Y367546D01*
X413235Y367669D01*
X413222Y367691D01*
X413217Y367716D01*
X413216Y367718D01*
X413216Y367720D01*
X413147Y367824D01*
X413085Y367931D01*
X413065Y367947D01*
X413051Y367969D01*
X412700Y368323D01*
X412635Y368367D01*
X412580Y368422D01*
X412511Y368451D01*
X412450Y368493D01*
X412443Y368494D01*
X412441Y368495D01*
X412371Y368509D01*
X412301Y368538D01*
X412296Y368539D01*
X412222Y368539D01*
X412153Y368553D01*
X412151Y368553D01*
X412144Y368554D01*
X411469D01*
X411172Y368495D01*
X410921Y368327D01*
X410753Y368076D01*
X410748Y368054D01*
X407180D01*
Y371500D01*
X407121Y371796D01*
X406953Y372048D01*
X406702Y372216D01*
X406405Y372275D01*
X403595D01*
Y373721D01*
D02*
G37*
G36*
X366201Y334299D02*
Y334268D01*
X366232D01*
X366201Y334299D01*
D02*
G37*
%LPD*%
G36*
X376586Y299310D02*
X376547Y299257D01*
X376513Y299199D01*
X376483Y299136D01*
X376458Y299069D01*
X376437Y298996D01*
X376421Y298918D01*
X376409Y298835D01*
X376402Y298747D01*
X376400Y298654D01*
X375600D01*
X375598Y298747D01*
X375591Y298835D01*
X375579Y298918D01*
X375563Y298996D01*
X375542Y299069D01*
X375517Y299136D01*
X375487Y299199D01*
X375453Y299257D01*
X375414Y299310D01*
X375370Y299357D01*
X376630D01*
X376586Y299310D01*
D02*
G37*
G36*
X410857Y297810D02*
X410810Y297854D01*
X410757Y297893D01*
X410699Y297927D01*
X410637Y297957D01*
X410569Y297983D01*
X410496Y298003D01*
X410418Y298019D01*
X410335Y298031D01*
X410247Y298038D01*
X410154Y298040D01*
Y298840D01*
X410247Y298842D01*
X410335Y298849D01*
X410418Y298861D01*
X410496Y298877D01*
X410569Y298898D01*
X410637Y298923D01*
X410699Y298953D01*
X410757Y298987D01*
X410810Y299026D01*
X410857Y299070D01*
Y297810D01*
D02*
G37*
G36*
X422586Y298310D02*
X422547Y298257D01*
X422513Y298199D01*
X422483Y298136D01*
X422458Y298069D01*
X422437Y297996D01*
X422421Y297918D01*
X422409Y297835D01*
X422402Y297747D01*
X422400Y297654D01*
X421600D01*
X421598Y297747D01*
X421591Y297835D01*
X421579Y297918D01*
X421563Y297996D01*
X421543Y298069D01*
X421517Y298136D01*
X421487Y298199D01*
X421453Y298257D01*
X421414Y298310D01*
X421370Y298357D01*
X422630D01*
X422586Y298310D01*
D02*
G37*
G36*
X415857Y295870D02*
X415810Y295914D01*
X415757Y295953D01*
X415699Y295987D01*
X415636Y296017D01*
X415569Y296042D01*
X415496Y296063D01*
X415418Y296079D01*
X415335Y296091D01*
X415247Y296098D01*
X415154Y296100D01*
Y296900D01*
X415247Y296902D01*
X415335Y296909D01*
X415418Y296921D01*
X415496Y296937D01*
X415569Y296957D01*
X415636Y296983D01*
X415699Y297013D01*
X415757Y297047D01*
X415810Y297086D01*
X415857Y297130D01*
Y295870D01*
D02*
G37*
G36*
X420817Y294773D02*
X420809Y294849D01*
X420785Y294917D01*
X420744Y294977D01*
X420687Y295029D01*
X420614Y295073D01*
X420525Y295109D01*
X420419Y295137D01*
X420297Y295157D01*
X420159Y295169D01*
X420005Y295173D01*
Y295973D01*
X420159Y295977D01*
X420297Y295989D01*
X420419Y296009D01*
X420525Y296037D01*
X420614Y296073D01*
X420687Y296117D01*
X420744Y296169D01*
X420785Y296229D01*
X420809Y296297D01*
X420817Y296373D01*
Y294773D01*
D02*
G37*
G36*
X437942Y302096D02*
X437979Y301987D01*
X438005Y301874D01*
X438027Y301844D01*
X438038Y301810D01*
X438076Y301743D01*
X438101Y301715D01*
X438117Y301680D01*
X438200Y301602D01*
X438275Y301516D01*
X438309Y301499D01*
X438337Y301473D01*
X438415Y301423D01*
X438438Y301415D01*
X438456Y301399D01*
X438578Y301361D01*
X438698Y301315D01*
X438722Y301316D01*
X438745Y301309D01*
X438813Y301302D01*
X438929Y301312D01*
X439046D01*
X439500Y301402D01*
X439845Y301334D01*
X440138Y301138D01*
X440334Y300845D01*
X440403Y300500D01*
X440334Y300155D01*
X440184Y299931D01*
X440068Y299651D01*
X440068Y299500D01*
X440068Y299349D01*
X440184Y299069D01*
X440184Y299069D01*
X440334Y298845D01*
X440403Y298500D01*
X440334Y298155D01*
X440138Y297862D01*
X439845Y297666D01*
X439500Y297598D01*
X439155Y297666D01*
X438931Y297816D01*
X438651Y297932D01*
X438500Y297932D01*
X438349Y297932D01*
X438069Y297816D01*
X438069Y297816D01*
X437845Y297666D01*
X437500Y297598D01*
X437155Y297666D01*
X436862Y297862D01*
X436666Y298155D01*
X436597Y298500D01*
X436666Y298845D01*
X436816Y299069D01*
X436932Y299349D01*
X436932Y299500D01*
X436932Y299651D01*
X436816Y299931D01*
X436816Y299931D01*
X436666Y300155D01*
X436597Y300500D01*
X436666Y300845D01*
X436927Y301236D01*
X436978Y301287D01*
X436993Y301322D01*
X437017Y301352D01*
X437050Y301461D01*
X437094Y301566D01*
Y301605D01*
X437105Y301641D01*
X437098Y301717D01*
X437120Y301896D01*
X437300Y302089D01*
X437452Y302217D01*
X437470D01*
X437942Y302096D01*
D02*
G37*
G36*
X422404Y297388D02*
X422416Y297250D01*
X422436Y297128D01*
X422464Y297023D01*
X422500Y296933D01*
X422544Y296860D01*
X422596Y296803D01*
X422656Y296763D01*
X422724Y296739D01*
X422800Y296730D01*
X421200D01*
X421276Y296739D01*
X421344Y296763D01*
X421404Y296803D01*
X421456Y296860D01*
X421500Y296933D01*
X421536Y297023D01*
X421564Y297128D01*
X421584Y297250D01*
X421596Y297388D01*
X421600Y297542D01*
X422400D01*
X422404Y297388D01*
D02*
G37*
G36*
X373463Y302325D02*
X373474Y302221D01*
X373493Y302130D01*
X373519Y302050D01*
X373553Y301983D01*
X373594Y301928D01*
X373643Y301885D01*
X373699Y301855D01*
X373763Y301837D01*
X373834Y301831D01*
X372284D01*
X372355Y301837D01*
X372419Y301855D01*
X372475Y301885D01*
X372524Y301928D01*
X372565Y301983D01*
X372599Y302050D01*
X372625Y302130D01*
X372644Y302221D01*
X372655Y302325D01*
X372659Y302441D01*
X373459D01*
X373463Y302325D01*
D02*
G37*
G36*
X370904Y302373D02*
X370915Y302259D01*
X370934Y302159D01*
X370960Y302071D01*
X370994Y301998D01*
X371035Y301938D01*
X371084Y301891D01*
X371140Y301857D01*
X371204Y301837D01*
X371275Y301831D01*
X369725D01*
X369796Y301837D01*
X369860Y301857D01*
X369916Y301891D01*
X369965Y301938D01*
X370006Y301998D01*
X370040Y302071D01*
X370066Y302159D01*
X370085Y302259D01*
X370096Y302373D01*
X370100Y302500D01*
X370900D01*
X370904Y302373D01*
D02*
G37*
G36*
X421577Y304413D02*
X421589Y304275D01*
X421609Y304153D01*
X421637Y304048D01*
X421673Y303959D01*
X421717Y303885D01*
X421769Y303829D01*
X421829Y303788D01*
X421897Y303764D01*
X421973Y303755D01*
X420373D01*
X420449Y303764D01*
X420517Y303788D01*
X420577Y303829D01*
X420629Y303885D01*
X420673Y303959D01*
X420709Y304048D01*
X420737Y304153D01*
X420757Y304275D01*
X420769Y304413D01*
X420773Y304568D01*
X421573D01*
X421577Y304413D01*
D02*
G37*
G36*
X360764Y305051D02*
X360788Y304983D01*
X360829Y304923D01*
X360885Y304871D01*
X360959Y304827D01*
X361048Y304791D01*
X361153Y304763D01*
X361275Y304743D01*
X361413Y304731D01*
X361567Y304727D01*
Y303927D01*
X361413Y303923D01*
X361275Y303911D01*
X361153Y303891D01*
X361048Y303863D01*
X360959Y303827D01*
X360885Y303783D01*
X360829Y303731D01*
X360788Y303671D01*
X360764Y303603D01*
X360755Y303527D01*
Y304025D01*
X360734Y303927D01*
X360640Y303925D01*
X360468Y303912D01*
X360388Y303900D01*
X360313Y303885D01*
X360243Y303866D01*
X360178Y303844D01*
X360117Y303819D01*
X360078Y303799D01*
X360047Y303757D01*
X360013Y303699D01*
X359983Y303637D01*
X359958Y303569D01*
X359937Y303496D01*
X359921Y303418D01*
X359909Y303335D01*
X359902Y303247D01*
X359900Y303170D01*
X360300D01*
X360224Y303163D01*
X360156Y303143D01*
X360096Y303109D01*
X360044Y303063D01*
X360000Y303002D01*
X359964Y302929D01*
X359936Y302841D01*
X359916Y302741D01*
X359904Y302627D01*
X359900Y302500D01*
X359100D01*
X359096Y302627D01*
X359084Y302741D01*
X359064Y302841D01*
X359036Y302929D01*
X359000Y303002D01*
X358956Y303063D01*
X358904Y303109D01*
X358844Y303143D01*
X358776Y303163D01*
X358700Y303170D01*
X359100D01*
X359098Y303247D01*
X359091Y303335D01*
X359079Y303418D01*
X359063Y303496D01*
X359043Y303569D01*
X359017Y303637D01*
X358987Y303699D01*
X358953Y303757D01*
X358914Y303810D01*
X358870Y303857D01*
X360029Y303857D01*
X360252Y304995D01*
X360290Y304944D01*
X360335Y304898D01*
X360385Y304858D01*
X360442Y304823D01*
X360505Y304794D01*
X360574Y304770D01*
X360649Y304751D01*
X360730Y304737D01*
X360755Y304735D01*
Y305127D01*
X360764Y305051D01*
D02*
G37*
G36*
X422357Y304370D02*
X422310Y304414D01*
X422257Y304453D01*
X422199Y304487D01*
X422136Y304517D01*
X422069Y304542D01*
X421996Y304563D01*
X421918Y304579D01*
X421835Y304591D01*
X421747Y304598D01*
X421654Y304600D01*
Y305400D01*
X421747Y305402D01*
X421835Y305409D01*
X421918Y305421D01*
X421996Y305437D01*
X422069Y305457D01*
X422136Y305483D01*
X422199Y305513D01*
X422257Y305547D01*
X422310Y305586D01*
X422357Y305630D01*
Y304370D01*
D02*
G37*
G36*
X354903Y301426D02*
X354912Y301361D01*
X354929Y301296D01*
X354952Y301231D01*
X354982Y301165D01*
X355019Y301099D01*
X355063Y301032D01*
X355113Y300965D01*
X355171Y300898D01*
X355235Y300831D01*
X354669Y300265D01*
X354602Y300329D01*
X354535Y300387D01*
X354468Y300437D01*
X354401Y300481D01*
X354335Y300518D01*
X354269Y300548D01*
X354204Y300571D01*
X354138Y300588D01*
X354074Y300597D01*
X354009Y300600D01*
X354900Y301491D01*
X354903Y301426D01*
D02*
G37*
G36*
X367178Y299271D02*
X367172Y299347D01*
X367153Y299415D01*
X367123Y299475D01*
X367080Y299527D01*
X367026Y299571D01*
X366959Y299607D01*
X366880Y299635D01*
X366789Y299655D01*
X366686Y299667D01*
X366571Y299671D01*
Y300471D01*
X366686Y300475D01*
X366789Y300487D01*
X366880Y300507D01*
X366959Y300535D01*
X367026Y300571D01*
X367080Y300615D01*
X367123Y300667D01*
X367153Y300727D01*
X367172Y300795D01*
X367178Y300871D01*
Y299271D01*
D02*
G37*
G36*
X348902Y301253D02*
X348909Y301165D01*
X348921Y301082D01*
X348937Y301004D01*
X348957Y300931D01*
X348983Y300864D01*
X349013Y300801D01*
X349047Y300743D01*
X349086Y300690D01*
X349130Y300643D01*
X347870D01*
X347914Y300690D01*
X347953Y300743D01*
X347987Y300801D01*
X348017Y300864D01*
X348042Y300931D01*
X348063Y301004D01*
X348079Y301082D01*
X348091Y301165D01*
X348098Y301253D01*
X348100Y301346D01*
X348900D01*
X348902Y301253D01*
D02*
G37*
G36*
X379086Y302310D02*
X379047Y302257D01*
X379013Y302199D01*
X378983Y302136D01*
X378958Y302069D01*
X378937Y301996D01*
X378921Y301918D01*
X378909Y301835D01*
X378902Y301747D01*
X378900Y301654D01*
X378100D01*
X378098Y301747D01*
X378091Y301835D01*
X378079Y301918D01*
X378063Y301996D01*
X378043Y302069D01*
X378017Y302136D01*
X377987Y302199D01*
X377953Y302257D01*
X377914Y302310D01*
X377870Y302357D01*
X379130D01*
X379086Y302310D01*
D02*
G37*
G36*
X343095Y310886D02*
X342936Y310648D01*
X342808Y310000D01*
X342936Y309352D01*
X343303Y308803D01*
X343852Y308436D01*
X344500Y308308D01*
X345148Y308436D01*
X345593Y308734D01*
X347295Y307032D01*
X347304Y307021D01*
X347310Y307012D01*
X347307Y307000D01*
X347436Y306352D01*
X347803Y305803D01*
X348352Y305436D01*
X349000Y305308D01*
X349648Y305436D01*
X350197Y305803D01*
X350564Y306352D01*
X350693Y307000D01*
X350659Y307169D01*
X351109Y307470D01*
X351202Y307407D01*
X351655Y307317D01*
X352817D01*
Y305077D01*
X350664Y302923D01*
X350407Y302539D01*
X350317Y302087D01*
X350317Y302087D01*
Y301614D01*
X349817Y301383D01*
X349683Y301498D01*
Y302413D01*
X349593Y302866D01*
X349336Y303250D01*
X349336Y303250D01*
X345750Y306836D01*
X345366Y307093D01*
X344913Y307183D01*
X344913Y307183D01*
X343990D01*
X342183Y308990D01*
Y311386D01*
X342828D01*
X343095Y310886D01*
D02*
G37*
G36*
X370984Y292317D02*
X370803Y292197D01*
X370436Y291648D01*
X370307Y291000D01*
X370436Y290352D01*
X370803Y289803D01*
X370865Y289762D01*
X370907Y289547D01*
X371164Y289164D01*
X371581Y288747D01*
X371389Y288285D01*
X370000D01*
X369508Y288187D01*
X369092Y287908D01*
X368813Y287492D01*
X368715Y287000D01*
Y278139D01*
X368693Y278121D01*
X368215Y277957D01*
X367336Y278836D01*
X366953Y279093D01*
X366500Y279183D01*
X366500Y279183D01*
X363990D01*
X361401Y281771D01*
X361608Y282272D01*
X362729D01*
Y282694D01*
X363229Y282920D01*
X363624Y282617D01*
X364288Y282342D01*
X365000Y282248D01*
X365712Y282342D01*
X366376Y282617D01*
X366946Y283054D01*
X367383Y283624D01*
X367658Y284288D01*
X367752Y285000D01*
X367658Y285712D01*
X367383Y286376D01*
X366946Y286946D01*
X366614Y287201D01*
X366613Y287203D01*
Y287797D01*
X366614Y287799D01*
X366946Y288054D01*
X367383Y288624D01*
X367658Y289288D01*
X367752Y290000D01*
X367658Y290712D01*
X367383Y291376D01*
X366946Y291946D01*
X366895Y291985D01*
X366760Y292122D01*
X366589Y292317D01*
X366724Y292707D01*
X366824Y292817D01*
X370832D01*
X370984Y292317D01*
D02*
G37*
G36*
X360724Y283035D02*
X360656Y283012D01*
X360596Y282972D01*
X360544Y282915D01*
X360500Y282843D01*
X360464Y282755D01*
X360436Y282651D01*
X360416Y282531D01*
X360404Y282396D01*
X360400Y282243D01*
X359600D01*
X359596Y282396D01*
X359584Y282531D01*
X359564Y282651D01*
X359536Y282755D01*
X359500Y282843D01*
X359456Y282915D01*
X359404Y282972D01*
X359344Y283012D01*
X359276Y283035D01*
X359200Y283044D01*
X360800D01*
X360724Y283035D01*
D02*
G37*
G36*
X353402Y288253D02*
X353409Y288165D01*
X353421Y288082D01*
X353437Y288004D01*
X353457Y287931D01*
X353483Y287863D01*
X353513Y287801D01*
X353547Y287743D01*
X353586Y287690D01*
X353630Y287643D01*
X352370D01*
X352414Y287690D01*
X352453Y287743D01*
X352487Y287801D01*
X352517Y287863D01*
X352542Y287931D01*
X352563Y288004D01*
X352579Y288082D01*
X352591Y288165D01*
X352598Y288253D01*
X352600Y288346D01*
X353400D01*
X353402Y288253D01*
D02*
G37*
G36*
X408064Y287300D02*
X408075Y287153D01*
X408094Y287015D01*
X408120Y286884D01*
X408153Y286763D01*
X408194Y286650D01*
X408243Y286545D01*
X408299Y286449D01*
X408362Y286362D01*
X408392Y286329D01*
Y286400D01*
X408542Y286410D01*
X408698Y286439D01*
X408857Y286488D01*
X409021Y286557D01*
X409189Y286645D01*
X409362Y286752D01*
X409538Y286879D01*
X409719Y287026D01*
X410094Y287378D01*
Y284622D01*
X409905Y284808D01*
X409538Y285121D01*
X409362Y285248D01*
X409189Y285355D01*
X409021Y285443D01*
X408857Y285512D01*
X408698Y285561D01*
X408542Y285590D01*
X408392Y285600D01*
Y286294D01*
X407660Y286490D01*
X407260D01*
X408060Y287456D01*
X408064Y287300D01*
D02*
G37*
G36*
X386690Y269586D02*
X386743Y269547D01*
X386801Y269513D01*
X386863Y269483D01*
X386931Y269458D01*
X387004Y269437D01*
X387082Y269421D01*
X387165Y269409D01*
X387253Y269402D01*
X387346Y269400D01*
Y268600D01*
X387253Y268598D01*
X387165Y268591D01*
X387082Y268579D01*
X387004Y268563D01*
X386931Y268543D01*
X386863Y268517D01*
X386801Y268487D01*
X386743Y268453D01*
X386690Y268414D01*
X386643Y268370D01*
Y269630D01*
X386690Y269586D01*
D02*
G37*
G36*
X396357Y267870D02*
X396310Y267914D01*
X396257Y267953D01*
X396199Y267987D01*
X396136Y268017D01*
X396069Y268042D01*
X395996Y268063D01*
X395918Y268079D01*
X395835Y268091D01*
X395747Y268098D01*
X395654Y268100D01*
Y268900D01*
X395747Y268902D01*
X395835Y268909D01*
X395918Y268921D01*
X395996Y268937D01*
X396069Y268957D01*
X396136Y268983D01*
X396199Y269013D01*
X396257Y269047D01*
X396310Y269086D01*
X396357Y269130D01*
Y267870D01*
D02*
G37*
G36*
X367902Y276253D02*
X367909Y276165D01*
X367921Y276082D01*
X367937Y276004D01*
X367957Y275931D01*
X367983Y275864D01*
X368013Y275801D01*
X368047Y275743D01*
X368086Y275690D01*
X368130Y275643D01*
X366870D01*
X366914Y275690D01*
X366953Y275743D01*
X366987Y275801D01*
X367017Y275864D01*
X367042Y275931D01*
X367063Y276004D01*
X367079Y276082D01*
X367091Y276165D01*
X367098Y276253D01*
X367100Y276346D01*
X367900D01*
X367902Y276253D01*
D02*
G37*
G36*
X395190Y271586D02*
X395243Y271547D01*
X395301Y271513D01*
X395363Y271483D01*
X395431Y271458D01*
X395504Y271437D01*
X395582Y271421D01*
X395665Y271409D01*
X395753Y271402D01*
X395846Y271400D01*
Y270600D01*
X395753Y270598D01*
X395665Y270591D01*
X395582Y270579D01*
X395504Y270563D01*
X395431Y270543D01*
X395363Y270517D01*
X395301Y270487D01*
X395243Y270453D01*
X395190Y270414D01*
X395143Y270370D01*
Y271630D01*
X395190Y271586D01*
D02*
G37*
G36*
X430102Y288966D02*
X430127Y288952D01*
X430156Y288939D01*
X430190Y288928D01*
X430228Y288919D01*
X430271Y288912D01*
X430319Y288906D01*
X430429Y288900D01*
X430491Y288900D01*
X429600Y288009D01*
X429600Y288071D01*
X429588Y288229D01*
X429581Y288272D01*
X429572Y288311D01*
X429561Y288344D01*
X429548Y288373D01*
X429533Y288398D01*
X429517Y288417D01*
X430083Y288983D01*
X430102Y288966D01*
D02*
G37*
G36*
X365410Y292870D02*
X365439Y292733D01*
X365488Y292590D01*
X365557Y292440D01*
X365645Y292284D01*
X365752Y292121D01*
X365879Y291952D01*
X366192Y291594D01*
X366378Y291406D01*
X363622D01*
X363808Y291594D01*
X364121Y291952D01*
X364248Y292121D01*
X364355Y292284D01*
X364443Y292440D01*
X364512Y292590D01*
X364561Y292733D01*
X364590Y292870D01*
X364600Y293000D01*
X365400D01*
X365410Y292870D01*
D02*
G37*
G36*
X375398Y292171D02*
X375465Y292113D01*
X375532Y292063D01*
X375599Y292019D01*
X375665Y291982D01*
X375731Y291952D01*
X375796Y291929D01*
X375862Y291912D01*
X375926Y291903D01*
X375991Y291900D01*
X375100Y291009D01*
X375097Y291074D01*
X375088Y291139D01*
X375071Y291204D01*
X375048Y291269D01*
X375018Y291335D01*
X374981Y291401D01*
X374937Y291468D01*
X374887Y291534D01*
X374829Y291602D01*
X374765Y291669D01*
X375331Y292235D01*
X375398Y292171D01*
D02*
G37*
G36*
X378057Y299270D02*
X379724Y297604D01*
X380107Y297347D01*
X380560Y297257D01*
X380560Y297257D01*
X389896D01*
X390220Y296757D01*
X390134Y296327D01*
X390263Y295679D01*
X390595Y295183D01*
X390534Y294944D01*
X390399Y294683D01*
X380163D01*
X377183Y297662D01*
Y298772D01*
X377185Y298786D01*
X377187Y298797D01*
X377197Y298803D01*
X377445Y299175D01*
X377955Y299287D01*
X378057Y299270D01*
D02*
G37*
G36*
X405223Y294157D02*
X405161Y294092D01*
X405106Y294027D01*
X405057Y293962D01*
X405015Y293897D01*
X404979Y293832D01*
X404950Y293767D01*
X404928Y293703D01*
X404912Y293638D01*
X404903Y293573D01*
X404900Y293509D01*
X404009Y294400D01*
X404073Y294403D01*
X404138Y294412D01*
X404203Y294428D01*
X404267Y294450D01*
X404332Y294479D01*
X404397Y294515D01*
X404462Y294557D01*
X404527Y294606D01*
X404592Y294661D01*
X404657Y294723D01*
X405223Y294157D01*
D02*
G37*
G36*
X372586Y290313D02*
X372513Y290230D01*
X372483Y290192D01*
X372458Y290155D01*
X372437Y290120D01*
X372421Y290088D01*
X372409Y290056D01*
X372402Y290027D01*
X372400Y290000D01*
X371600D01*
X371598Y290027D01*
X371591Y290056D01*
X371579Y290088D01*
X371563Y290120D01*
X371543Y290155D01*
X371517Y290192D01*
X371487Y290230D01*
X371414Y290313D01*
X371370Y290357D01*
X372630D01*
X372586Y290313D01*
D02*
G37*
G36*
X354000Y299808D02*
X354012Y299810D01*
X354021Y299804D01*
X354032Y299795D01*
X356164Y297664D01*
X356547Y297407D01*
X357000Y297317D01*
X365000D01*
X365000Y297317D01*
X365453Y297407D01*
X365836Y297664D01*
X365932Y297759D01*
X366393Y297568D01*
Y297539D01*
X374507D01*
X374778Y297219D01*
X374826Y297130D01*
X374907Y296720D01*
X375164Y296336D01*
X378836Y292664D01*
X378836Y292664D01*
X379220Y292407D01*
X379673Y292317D01*
X393500D01*
X393500Y292317D01*
X393953Y292407D01*
X394336Y292664D01*
X396550Y294877D01*
X402322D01*
X402590Y294377D01*
X402436Y294148D01*
X402308Y293500D01*
X402436Y292852D01*
X402803Y292303D01*
X403352Y291936D01*
X404000Y291808D01*
X404648Y291936D01*
X405197Y292303D01*
X405564Y292852D01*
X405644Y293257D01*
X408772D01*
Y288956D01*
X408272Y288749D01*
X407244Y289776D01*
X406860Y290033D01*
X406408Y290123D01*
X406407Y290123D01*
X377966D01*
X377618Y290623D01*
X377693Y291000D01*
X377564Y291648D01*
X377197Y292197D01*
X376648Y292564D01*
X376000Y292692D01*
X375988Y292690D01*
X375979Y292696D01*
X375968Y292705D01*
X373836Y294836D01*
X373453Y295093D01*
X373000Y295183D01*
X373000Y295183D01*
X366000D01*
X365547Y295093D01*
X365164Y294836D01*
X365164Y294836D01*
X364164Y293836D01*
X363907Y293453D01*
X363833Y293077D01*
X363827Y293058D01*
X363826Y293046D01*
X363817Y293000D01*
X363817Y293000D01*
Y292961D01*
X363813Y292940D01*
X363791Y292877D01*
X363752Y292792D01*
X363694Y292688D01*
X363615Y292568D01*
X363519Y292441D01*
X363240Y292122D01*
X363105Y291985D01*
X363054Y291946D01*
X362799Y291614D01*
X362797Y291613D01*
X362203D01*
X362201Y291614D01*
X361946Y291946D01*
X361376Y292383D01*
X360712Y292658D01*
X360000Y292752D01*
X359945Y292745D01*
X359519Y292758D01*
X359337Y292777D01*
X359170Y292805D01*
X359025Y292838D01*
X358904Y292876D01*
X358806Y292916D01*
X358730Y292956D01*
X358686Y292986D01*
X357336Y294336D01*
X356953Y294593D01*
X356500Y294683D01*
X356500Y294683D01*
X354990D01*
X354183Y295490D01*
Y297500D01*
X354093Y297953D01*
X353836Y298336D01*
X352839Y299334D01*
X352877Y299676D01*
X353333Y299926D01*
X353373Y299932D01*
X354000Y299808D01*
D02*
G37*
G36*
X358198Y292381D02*
X358329Y292292D01*
X358476Y292214D01*
X358641Y292146D01*
X358822Y292090D01*
X359020Y292044D01*
X359235Y292009D01*
X359466Y291985D01*
X359980Y291968D01*
X358032Y290020D01*
X358029Y290285D01*
X357991Y290765D01*
X357956Y290980D01*
X357910Y291178D01*
X357854Y291359D01*
X357786Y291524D01*
X357708Y291671D01*
X357619Y291802D01*
X357519Y291915D01*
X358085Y292481D01*
X358198Y292381D01*
D02*
G37*
G36*
X430491Y290100D02*
X430429Y290100D01*
X430271Y290088D01*
X430228Y290081D01*
X430190Y290072D01*
X430156Y290061D01*
X430127Y290048D01*
X430102Y290034D01*
X430083Y290017D01*
X429517Y290583D01*
X429533Y290602D01*
X429548Y290627D01*
X429561Y290656D01*
X429572Y290689D01*
X429581Y290728D01*
X429588Y290771D01*
X429594Y290819D01*
X429600Y290929D01*
X429600Y290991D01*
X430491Y290100D01*
D02*
G37*
G36*
X364317Y307077D02*
X362750Y305509D01*
X361540D01*
Y305732D01*
Y308725D01*
X364317D01*
Y307077D01*
D02*
G37*
G36*
X340387Y342399D02*
X340307Y342000D01*
X340436Y341352D01*
X340803Y340803D01*
X340813Y340797D01*
X340815Y340786D01*
X340817Y340772D01*
Y337000D01*
X340817Y337000D01*
X340907Y336547D01*
X341164Y336164D01*
X342664Y334664D01*
X343047Y334407D01*
X343500Y334317D01*
X345258D01*
X345612Y333964D01*
Y330295D01*
X345612Y330106D01*
X345211Y329866D01*
X340807D01*
X339959Y330713D01*
X340278Y331102D01*
X340526Y330936D01*
X341173Y330807D01*
X341821Y330936D01*
X342370Y331303D01*
X342737Y331852D01*
X342866Y332500D01*
X342737Y333148D01*
X342370Y333697D01*
X341821Y334064D01*
X341173Y334192D01*
X340526Y334064D01*
X340183Y333835D01*
X339683Y334089D01*
Y342473D01*
X339969Y342700D01*
X340387Y342399D01*
D02*
G37*
G36*
X438817Y334010D02*
Y313409D01*
X438355Y313217D01*
X437347Y314226D01*
D01*
Y314549D01*
X437350Y314563D01*
X437347Y314578D01*
Y314604D01*
X437348Y314613D01*
X437347Y314618D01*
Y321807D01*
X435275D01*
Y329221D01*
X435775Y329488D01*
X435852Y329436D01*
X436500Y329308D01*
X437148Y329436D01*
X437697Y329803D01*
X438064Y330352D01*
X438193Y331000D01*
X438172Y331102D01*
X438113Y331399D01*
X438064Y331648D01*
X437697Y332197D01*
X437148Y332564D01*
X436500Y332693D01*
X435852Y332564D01*
X435775Y332512D01*
X435275Y332779D01*
Y336845D01*
X435412Y336956D01*
X435737Y337090D01*
X438817Y334010D01*
D02*
G37*
G36*
X353357Y336870D02*
X353301Y336923D01*
X353240Y336971D01*
X353177Y337013D01*
X353109Y337049D01*
X353038Y337080D01*
X352964Y337105D01*
X352886Y337125D01*
X352804Y337139D01*
X352719Y337147D01*
X352631Y337150D01*
Y337850D01*
X352719Y337853D01*
X352804Y337861D01*
X352886Y337875D01*
X352964Y337895D01*
X353038Y337920D01*
X353109Y337951D01*
X353177Y337987D01*
X353240Y338029D01*
X353301Y338077D01*
X353357Y338130D01*
Y336870D01*
D02*
G37*
G36*
X355675Y330878D02*
X355671Y330996D01*
X355661Y331102D01*
X355644Y331195D01*
X355619Y331276D01*
X355588Y331345D01*
X355550Y331400D01*
X355504Y331444D01*
X355452Y331475D01*
X355393Y331494D01*
X355327Y331500D01*
Y333500D01*
X355393Y333506D01*
X355452Y333525D01*
X355504Y333556D01*
X355550Y333599D01*
X355588Y333656D01*
X355619Y333724D01*
X355644Y333805D01*
X355661Y333898D01*
X355671Y334004D01*
X355675Y334122D01*
Y330878D01*
D02*
G37*
G36*
X362500Y337010D02*
Y328278D01*
X362301Y328168D01*
X362000Y328127D01*
X361907Y328266D01*
X361907Y328266D01*
X360836Y329336D01*
X360453Y329593D01*
X360368Y329609D01*
X360360Y330106D01*
X360360Y330106D01*
X360360Y330106D01*
Y334894D01*
X355709D01*
X355698Y334896D01*
X355686Y334894D01*
X355675Y334897D01*
X355660Y334894D01*
X354903D01*
Y334573D01*
X354784Y334438D01*
X354683Y334392D01*
X354538Y334423D01*
X354149Y334670D01*
X354093Y334953D01*
X353841Y335329D01*
X353853Y335384D01*
X353927Y335596D01*
X354060Y335820D01*
X354648Y335936D01*
X355197Y336303D01*
X355564Y336852D01*
X355693Y337500D01*
X355643Y337751D01*
X355600Y338160D01*
X356006Y338294D01*
X356243Y338341D01*
X356792Y338708D01*
X356798Y338718D01*
X356809Y338720D01*
X356823Y338722D01*
X360788D01*
X362500Y337010D01*
D02*
G37*
G36*
X370086Y322810D02*
X370047Y322757D01*
X370013Y322699D01*
X369983Y322637D01*
X369957Y322569D01*
X369937Y322496D01*
X369921Y322418D01*
X369909Y322335D01*
X369902Y322247D01*
X369900Y322154D01*
X369100D01*
X369098Y322247D01*
X369091Y322335D01*
X369079Y322418D01*
X369063Y322496D01*
X369042Y322569D01*
X369017Y322637D01*
X368987Y322699D01*
X368953Y322757D01*
X368914Y322810D01*
X368870Y322857D01*
X370130D01*
X370086Y322810D01*
D02*
G37*
G36*
X352233Y353473D02*
X352225Y353540D01*
X352204Y353599D01*
X352169Y353652D01*
X352120Y353697D01*
X352058Y353736D01*
X351980Y353767D01*
X351889Y353792D01*
X351784Y353809D01*
X351665Y353820D01*
X351533Y353823D01*
Y354523D01*
X351665Y354527D01*
X351784Y354537D01*
X351889Y354555D01*
X351980Y354579D01*
X352058Y354611D01*
X352120Y354649D01*
X352169Y354695D01*
X352204Y354747D01*
X352225Y354807D01*
X352233Y354873D01*
Y353473D01*
D02*
G37*
G36*
X361473Y326682D02*
X361480Y326594D01*
X361492Y326511D01*
X361508Y326433D01*
X361528Y326361D01*
X361554Y326293D01*
X361584Y326230D01*
X361618Y326172D01*
X361657Y326119D01*
X361701Y326072D01*
X360441D01*
X360485Y326119D01*
X360524Y326172D01*
X360558Y326230D01*
X360588Y326293D01*
X360613Y326361D01*
X360634Y326433D01*
X360650Y326511D01*
X360662Y326594D01*
X360669Y326682D01*
X360671Y326775D01*
X361471D01*
X361473Y326682D01*
D02*
G37*
G36*
X340576Y324253D02*
X340586Y324188D01*
X340602Y324123D01*
X340625Y324058D01*
X340655Y323992D01*
X340692Y323926D01*
X340736Y323859D01*
X340786Y323792D01*
X340844Y323725D01*
X340908Y323658D01*
X340342Y323092D01*
X340275Y323156D01*
X340208Y323214D01*
X340141Y323264D01*
X340074Y323308D01*
X340008Y323345D01*
X339942Y323375D01*
X339877Y323398D01*
X339812Y323414D01*
X339747Y323424D01*
X339682Y323427D01*
X340573Y324318D01*
X340576Y324253D01*
D02*
G37*
G36*
X355255Y341634D02*
X355234Y341637D01*
X355195Y341640D01*
X354569Y341649D01*
X354212Y341650D01*
X354073Y342350D01*
X354165Y342353D01*
X354249Y342363D01*
X354324Y342378D01*
X354391Y342401D01*
X354450Y342429D01*
X354500Y342464D01*
X354542Y342505D01*
X354575Y342553D01*
X354599Y342607D01*
X354616Y342667D01*
X355255Y341634D01*
D02*
G37*
G36*
X342586Y341310D02*
X342547Y341257D01*
X342513Y341199D01*
X342483Y341137D01*
X342458Y341069D01*
X342437Y340996D01*
X342421Y340918D01*
X342409Y340835D01*
X342402Y340747D01*
X342400Y340654D01*
X341600D01*
X341598Y340747D01*
X341591Y340835D01*
X341579Y340918D01*
X341563Y340996D01*
X341543Y341069D01*
X341517Y341137D01*
X341487Y341199D01*
X341453Y341257D01*
X341414Y341310D01*
X341370Y341357D01*
X342630D01*
X342586Y341310D01*
D02*
G37*
G36*
X348353Y349781D02*
X348361Y349695D01*
X348375Y349614D01*
X348395Y349536D01*
X348420Y349462D01*
X348451Y349391D01*
X348487Y349323D01*
X348529Y349260D01*
X348577Y349199D01*
X348630Y349143D01*
X347370D01*
X347423Y349199D01*
X347471Y349260D01*
X347513Y349323D01*
X347549Y349391D01*
X347580Y349462D01*
X347605Y349536D01*
X347625Y349614D01*
X347639Y349695D01*
X347647Y349781D01*
X347650Y349869D01*
X348350D01*
X348353Y349781D01*
D02*
G37*
G36*
X354765Y349661D02*
X354683D01*
X354386Y349602D01*
X354135Y349434D01*
X353967Y349182D01*
X353908Y348886D01*
Y347779D01*
X353967Y347483D01*
X354135Y347232D01*
X354386Y347064D01*
X354683Y347005D01*
X354732D01*
Y343983D01*
X354303Y343697D01*
X353936Y343148D01*
X353933Y343132D01*
X352605D01*
X352561Y343146D01*
X352309Y343319D01*
X352161Y343460D01*
Y346765D01*
X352317D01*
X352614Y346824D01*
X352865Y346992D01*
X353033Y347243D01*
X353092Y347539D01*
Y348886D01*
X353033Y349182D01*
X352865Y349434D01*
X352614Y349602D01*
X352317Y349661D01*
X352235D01*
Y352153D01*
X352722Y352232D01*
X354765D01*
Y349661D01*
D02*
G37*
G36*
X356285Y340491D02*
X356338Y340452D01*
X356396Y340418D01*
X356458Y340388D01*
X356526Y340363D01*
X356599Y340342D01*
X356677Y340326D01*
X356760Y340314D01*
X356848Y340307D01*
X356941Y340305D01*
Y339505D01*
X356848Y339503D01*
X356760Y339496D01*
X356677Y339484D01*
X356599Y339468D01*
X356526Y339447D01*
X356458Y339422D01*
X356396Y339392D01*
X356338Y339358D01*
X356285Y339319D01*
X356238Y339275D01*
Y340535D01*
X356285Y340491D01*
D02*
G37*
G36*
X391576Y338500D02*
X403847D01*
X403924D01*
X403927Y338497D01*
X404050Y338447D01*
X404054Y338446D01*
X404054D01*
X404108Y338392D01*
X408500Y334000D01*
X412719Y329781D01*
X412782Y329738D01*
X412837Y329685D01*
X412896Y329645D01*
X412896Y329645D01*
X412967Y329615D01*
X412970Y329613D01*
X412975Y329612D01*
X413012Y329597D01*
X413097Y329561D01*
X413101Y329559D01*
X413105Y329558D01*
X413176Y329529D01*
X413176D01*
X413246Y329515D01*
X413322D01*
X413397Y329500D01*
X434500D01*
Y329221D01*
Y321807D01*
X434252D01*
Y314618D01*
X434250Y314613D01*
X434252Y314604D01*
Y314578D01*
X434249Y314563D01*
X434252Y314549D01*
Y314252D01*
X433895Y313895D01*
X433554Y313554D01*
X433494Y313514D01*
X433424Y313500D01*
X427743D01*
X427648Y313564D01*
X427000Y313692D01*
X426750Y313643D01*
X426651Y313662D01*
X426651D01*
X426651Y313663D01*
X426500D01*
X426349D01*
X426349Y313662D01*
X426349D01*
X425965Y313586D01*
X425828Y313529D01*
X425828Y313529D01*
X425757Y313500D01*
X425757D01*
X425743D01*
X425648Y313564D01*
X425000Y313692D01*
X424750Y313643D01*
X424651Y313662D01*
X424651D01*
X424651Y313663D01*
X424500D01*
X424349D01*
X424349Y313662D01*
X424349D01*
X423965Y313586D01*
X423828Y313529D01*
X423828Y313529D01*
X423757Y313500D01*
X423757D01*
X423681D01*
X411000D01*
X410773Y313273D01*
X404554Y307054D01*
X404494Y307014D01*
X404424Y307000D01*
X390576D01*
X390506Y307014D01*
X390469Y307039D01*
X390456Y307044D01*
X388000Y309500D01*
X379000Y318500D01*
Y319500D01*
X379500D01*
X380500Y332500D01*
X383730Y335730D01*
X383930Y335864D01*
D01*
X384701Y336379D01*
X384769Y336447D01*
X384846Y336504D01*
X384888Y336551D01*
X384906Y336580D01*
X384931Y336603D01*
X384982Y336709D01*
X385043Y336811D01*
X385048Y336844D01*
X385063Y336875D01*
X385111Y337062D01*
X385113Y337096D01*
X385124Y337124D01*
X385500Y337500D01*
Y337725D01*
X387631D01*
X387680Y337735D01*
X387705D01*
X387731Y337740D01*
X387782D01*
X387831Y337750D01*
X387831Y337750D01*
X387831D01*
X387880Y337756D01*
X387928Y337772D01*
X387954Y337776D01*
X387979Y337784D01*
X388028Y337791D01*
X388498Y337950D01*
X390521Y338352D01*
X391147Y338394D01*
X391177Y338402D01*
X391183Y338401D01*
X391206Y338407D01*
X391248D01*
X391283Y338414D01*
X391363Y338447D01*
X391378Y338448D01*
X391464Y338471D01*
X391487Y338482D01*
X391487D01*
X391568Y338498D01*
X391576Y338500D01*
X391576D01*
D02*
G37*
G36*
X346402Y339413D02*
X346411Y339337D01*
X346427Y339262D01*
X346449Y339189D01*
X346477Y339117D01*
X346512Y339047D01*
X346553Y338978D01*
X346601Y338910D01*
X346655Y338844D01*
X346716Y338779D01*
X346221Y338284D01*
X346156Y338345D01*
X346090Y338399D01*
X346022Y338447D01*
X345953Y338488D01*
X345883Y338523D01*
X345811Y338551D01*
X345738Y338573D01*
X345663Y338589D01*
X345587Y338598D01*
X345509Y338600D01*
X346400Y339491D01*
X346402Y339413D01*
D02*
G37*
G36*
X436503Y339756D02*
X436440Y339732D01*
X436383Y339692D01*
X436334Y339636D01*
X436293Y339564D01*
X436259Y339476D01*
X436233Y339372D01*
X436214Y339252D01*
X436203Y339116D01*
X436199Y338964D01*
X435399D01*
X435395Y339116D01*
X435384Y339252D01*
X435365Y339372D01*
X435339Y339476D01*
X435305Y339564D01*
X435264Y339636D01*
X435215Y339692D01*
X435159Y339732D01*
X435095Y339756D01*
X435024Y339764D01*
X436575D01*
X436503Y339756D01*
D02*
G37*
G36*
X348164Y341664D02*
X348381Y341518D01*
X348700Y341200D01*
X349067Y340954D01*
X349500Y340868D01*
X353687D01*
X353995Y340368D01*
X353903Y339905D01*
X353952Y339654D01*
X353995Y339245D01*
X353589Y339111D01*
X353352Y339064D01*
X352803Y338697D01*
X352771Y338649D01*
X352770Y338648D01*
X352759Y338644D01*
X352745Y338639D01*
X352726Y338634D01*
X352713Y338632D01*
X351831D01*
X351484Y338563D01*
X348038D01*
X347210Y339390D01*
X347203Y339401D01*
X347193Y339418D01*
X347186Y339431D01*
X347182Y339442D01*
X347181Y339443D01*
X347193Y339500D01*
X347064Y340148D01*
X346697Y340697D01*
X346148Y341064D01*
X345500Y341193D01*
X344852Y341064D01*
X344303Y340697D01*
X343936Y340148D01*
X343808Y339500D01*
X343936Y338852D01*
X344303Y338303D01*
X344852Y337936D01*
X345500Y337807D01*
X345556Y337819D01*
X345558Y337818D01*
X345569Y337814D01*
X345582Y337807D01*
X345599Y337797D01*
X345610Y337790D01*
X346255Y337145D01*
X346063Y336683D01*
X343990D01*
X343183Y337490D01*
Y340772D01*
X343185Y340786D01*
X343187Y340797D01*
X343197Y340803D01*
X343564Y341352D01*
X343692Y342000D01*
X343564Y342648D01*
X343197Y343197D01*
X343017Y343317D01*
X343168Y343817D01*
X346010D01*
X348164Y341664D01*
D02*
G37*
G36*
X406405Y367279D02*
X411469D01*
Y367779D01*
X412144D01*
X412149Y367778D01*
X412500Y367424D01*
X412500Y367424D01*
X412500Y367424D01*
Y361799D01*
Y360000D01*
Y349412D01*
Y348500D01*
X412666Y348334D01*
X412706Y348274D01*
X412720Y348203D01*
Y347500D01*
Y347441D01*
X423492D01*
Y347485D01*
X423569Y347500D01*
X433786D01*
X434136Y347387D01*
X434251Y347032D01*
X434252Y347008D01*
X434252Y347008D01*
Y339778D01*
X434249Y339764D01*
X434252Y339749D01*
Y338992D01*
X434500D01*
Y336899D01*
X434500Y336899D01*
X434500Y336899D01*
X434500Y336899D01*
X434500D01*
Y332779D01*
Y330275D01*
X413397D01*
X413327Y330289D01*
X413267Y330329D01*
X409048Y334548D01*
X404602Y338994D01*
X404538Y339036D01*
X404485Y339090D01*
X404425Y339130D01*
X404425Y339130D01*
X404354Y339159D01*
X404351Y339162D01*
X404346Y339163D01*
X404224Y339213D01*
X404220Y339216D01*
X404216Y339217D01*
X404145Y339246D01*
X404145D01*
X404075Y339260D01*
X403999D01*
X403924Y339275D01*
X391576D01*
X391501Y339260D01*
X391425D01*
X391336Y339242D01*
X391312Y339232D01*
X391286Y339231D01*
X391263Y339219D01*
X391178Y339196D01*
X391132Y339174D01*
X391096Y339167D01*
X390419Y339122D01*
X388297Y338700D01*
X387779Y338525D01*
X387730Y338518D01*
X387705Y338510D01*
X387680D01*
X387631Y338500D01*
X383076D01*
X383013Y338513D01*
X383000Y338576D01*
Y342000D01*
Y354179D01*
Y354500D01*
X382859Y354641D01*
X382000Y355500D01*
X370500D01*
X370000Y355000D01*
X370000Y354679D01*
X370000Y354679D01*
Y347576D01*
X369986Y347506D01*
X369946Y347446D01*
X369054Y346554D01*
X368994Y346514D01*
X368924Y346500D01*
X368743D01*
X368648Y346564D01*
X368151Y346662D01*
X368151D01*
X368000Y346692D01*
X367849Y346662D01*
X367849D01*
X367849Y346662D01*
X367352Y346564D01*
X367257Y346500D01*
X366743D01*
X366648Y346564D01*
X366151Y346662D01*
X366151D01*
X366000Y346692D01*
X365849Y346662D01*
X365849D01*
X365849Y346662D01*
X365352Y346564D01*
X365257Y346500D01*
X364743D01*
X364648Y346564D01*
X364151Y346662D01*
X364151D01*
X364000Y346692D01*
X363849Y346662D01*
X363849D01*
X363849Y346662D01*
X363352Y346564D01*
X363257Y346500D01*
X361576D01*
X361506Y346514D01*
X361446Y346554D01*
X360569Y347431D01*
X360536Y347480D01*
X360515Y347501D01*
X360500Y347576D01*
Y353500D01*
Y365916D01*
X361182Y371116D01*
X361190Y371140D01*
X361197Y371190D01*
X361232Y371225D01*
X361246Y371246D01*
X361446Y371446D01*
X361506Y371486D01*
X361576Y371500D01*
X392905D01*
Y367279D01*
X397969D01*
Y371500D01*
X406405D01*
Y367279D01*
D02*
G37*
G36*
X360224Y312161D02*
X360156Y312137D01*
X360096Y312097D01*
X360044Y312040D01*
X360000Y311967D01*
X359964Y311877D01*
X359936Y311772D01*
X359916Y311650D01*
X359904Y311512D01*
X359900Y311358D01*
X359100D01*
X359096Y311512D01*
X359084Y311650D01*
X359064Y311772D01*
X359036Y311877D01*
X359000Y311967D01*
X358956Y312040D01*
X358904Y312097D01*
X358844Y312137D01*
X358776Y312161D01*
X358700Y312170D01*
X360300D01*
X360224Y312161D01*
D02*
G37*
G36*
X373562Y311298D02*
X373584Y311057D01*
X373603Y310960D01*
X373628Y310877D01*
X373658Y310809D01*
X373694Y310756D01*
X373735Y310719D01*
X373782Y310696D01*
X373834Y310689D01*
X372284D01*
X372336Y310696D01*
X372383Y310719D01*
X372424Y310756D01*
X372460Y310809D01*
X372490Y310877D01*
X372515Y310960D01*
X372534Y311057D01*
X372548Y311170D01*
X372556Y311298D01*
X372559Y311441D01*
X373559D01*
X373562Y311298D01*
D02*
G37*
G36*
X342733Y312527D02*
X342724Y312603D01*
X342701Y312671D01*
X342660Y312731D01*
X342604Y312783D01*
X342532Y312827D01*
X342444Y312863D01*
X342340Y312891D01*
X342220Y312911D01*
X342085Y312923D01*
X341933Y312927D01*
Y313727D01*
X342085Y313731D01*
X342220Y313743D01*
X342340Y313763D01*
X342444Y313791D01*
X342532Y313827D01*
X342604Y313871D01*
X342660Y313923D01*
X342701Y313983D01*
X342724Y314051D01*
X342733Y314127D01*
Y312527D01*
D02*
G37*
G36*
X373232Y312727D02*
X373147Y312710D01*
X373072Y312682D01*
X373007Y312643D01*
X372952Y312593D01*
X372907Y312531D01*
X372872Y312458D01*
X372847Y312374D01*
X372832Y312280D01*
X372827Y312173D01*
X371827D01*
X371822Y312280D01*
X371807Y312374D01*
X371782Y312458D01*
X371747Y312531D01*
X371702Y312593D01*
X371647Y312643D01*
X371582Y312682D01*
X371507Y312710D01*
X371422Y312727D01*
X371327Y312733D01*
X373327D01*
X373232Y312727D01*
D02*
G37*
G36*
X362280Y317075D02*
X362477Y317036D01*
X362669Y316908D01*
X363269Y316307D01*
X363287Y316296D01*
X363300Y316279D01*
X363412Y316212D01*
X363521Y316139D01*
X363542Y316135D01*
X363560Y316125D01*
X363689Y316106D01*
X363817Y316080D01*
X363847Y316083D01*
X363859Y316082D01*
X364191Y315852D01*
X364243Y315804D01*
X364317Y315682D01*
Y309500D01*
X361540D01*
Y309614D01*
X360683D01*
Y311386D01*
X361540D01*
Y314492D01*
X361779D01*
Y316725D01*
X362135Y317077D01*
X362280Y317075D01*
D02*
G37*
G36*
X348398Y308171D02*
X348465Y308113D01*
X348532Y308063D01*
X348599Y308019D01*
X348665Y307982D01*
X348731Y307952D01*
X348796Y307929D01*
X348862Y307912D01*
X348926Y307903D01*
X348991Y307900D01*
X348100Y307009D01*
X348097Y307074D01*
X348088Y307138D01*
X348071Y307204D01*
X348048Y307269D01*
X348018Y307335D01*
X347981Y307401D01*
X347937Y307468D01*
X347887Y307535D01*
X347829Y307602D01*
X347765Y307669D01*
X348331Y308235D01*
X348398Y308171D01*
D02*
G37*
G36*
X418516Y307729D02*
X418448Y307704D01*
X418388Y307664D01*
X418336Y307607D01*
X418292Y307534D01*
X418256Y307444D01*
X418228Y307339D01*
X418208Y307217D01*
X418207Y307211D01*
X418216Y307158D01*
X418235Y307083D01*
X418260Y307015D01*
X418290Y306954D01*
X418325Y306898D01*
X418366Y306849D01*
X418412Y306807D01*
X418464Y306771D01*
X417238Y306480D01*
X417268Y306531D01*
X417294Y306587D01*
X417317Y306647D01*
X417337Y306712D01*
X417353Y306782D01*
X417367Y306857D01*
X417386Y307021D01*
X417388Y307068D01*
X417388Y307079D01*
X417376Y307217D01*
X417356Y307339D01*
X417328Y307444D01*
X417292Y307534D01*
X417248Y307607D01*
X417196Y307664D01*
X417136Y307704D01*
X417068Y307729D01*
X416992Y307737D01*
X418592D01*
X418516Y307729D01*
D02*
G37*
G36*
X345190Y310586D02*
X345243Y310547D01*
X345301Y310513D01*
X345363Y310483D01*
X345431Y310457D01*
X345504Y310437D01*
X345582Y310421D01*
X345665Y310409D01*
X345753Y310402D01*
X345846Y310400D01*
Y309600D01*
X345753Y309598D01*
X345665Y309591D01*
X345582Y309579D01*
X345504Y309563D01*
X345431Y309542D01*
X345363Y309517D01*
X345301Y309487D01*
X345243Y309453D01*
X345190Y309414D01*
X345143Y309370D01*
Y310630D01*
X345190Y310586D01*
D02*
G37*
G36*
X359904Y309488D02*
X359916Y309350D01*
X359936Y309228D01*
X359964Y309123D01*
X360000Y309033D01*
X360044Y308960D01*
X360096Y308903D01*
X360156Y308863D01*
X360224Y308838D01*
X360300Y308830D01*
X359900D01*
X359902Y308753D01*
X359909Y308665D01*
X359921Y308582D01*
X359937Y308504D01*
X359958Y308431D01*
X359983Y308364D01*
X360013Y308301D01*
X360047Y308243D01*
X360086Y308190D01*
X360130Y308143D01*
X358971Y308143D01*
X358748Y307006D01*
X358710Y307056D01*
X358665Y307102D01*
X358615Y307142D01*
X358558Y307177D01*
X358495Y307206D01*
X358426Y307230D01*
X358351Y307249D01*
X358270Y307262D01*
X358232Y307266D01*
Y306873D01*
X358227Y306949D01*
X358210Y307017D01*
X358182Y307077D01*
X358143Y307129D01*
X358093Y307173D01*
X358031Y307209D01*
X357958Y307237D01*
X357874Y307257D01*
X357780Y307269D01*
X357673Y307273D01*
Y308073D01*
X357780Y308077D01*
X357874Y308089D01*
X357958Y308109D01*
X358031Y308137D01*
X358093Y308173D01*
X358143Y308217D01*
X358182Y308269D01*
X358210Y308329D01*
X358227Y308397D01*
X358232Y308473D01*
Y307921D01*
X358266Y308073D01*
X358360Y308075D01*
X358532Y308088D01*
X358612Y308100D01*
X358687Y308115D01*
X358757Y308134D01*
X358822Y308156D01*
X358883Y308181D01*
X358922Y308201D01*
X358953Y308243D01*
X358987Y308301D01*
X359017Y308364D01*
X359043Y308431D01*
X359063Y308504D01*
X359079Y308582D01*
X359091Y308665D01*
X359098Y308753D01*
X359100Y308830D01*
X358700D01*
X358776Y308838D01*
X358844Y308863D01*
X358904Y308903D01*
X358956Y308960D01*
X359000Y309033D01*
X359036Y309123D01*
X359064Y309228D01*
X359084Y309350D01*
X359096Y309488D01*
X359100Y309642D01*
X359900D01*
X359904Y309488D01*
D02*
G37*
G36*
X360764Y317397D02*
X360788Y317329D01*
X360829Y317269D01*
X360885Y317217D01*
X360959Y317173D01*
X361048Y317137D01*
X361153Y317109D01*
X361275Y317089D01*
X361413Y317077D01*
X361567Y317073D01*
Y316273D01*
X361413Y316269D01*
X361275Y316257D01*
X361153Y316237D01*
X361048Y316209D01*
X360959Y316173D01*
X360885Y316129D01*
X360829Y316077D01*
X360788Y316017D01*
X360764Y315949D01*
X360755Y315873D01*
Y317473D01*
X360764Y317397D01*
D02*
G37*
G36*
X372832Y316075D02*
X372847Y315903D01*
X372872Y315751D01*
X372907Y315620D01*
X372952Y315509D01*
X373007Y315417D01*
X373072Y315347D01*
X373147Y315296D01*
X373232Y315266D01*
X373327Y315255D01*
X371327D01*
X371422Y315266D01*
X371507Y315296D01*
X371582Y315347D01*
X371647Y315417D01*
X371702Y315509D01*
X371747Y315620D01*
X371782Y315751D01*
X371807Y315903D01*
X371822Y316075D01*
X371827Y316267D01*
X372827D01*
X372832Y316075D01*
D02*
G37*
G36*
X373605Y317828D02*
X373583Y317791D01*
X373564Y317746D01*
X373547Y317693D01*
X373533Y317632D01*
X373521Y317564D01*
X373505Y317403D01*
X373501Y317311D01*
X373500Y317212D01*
X372500D01*
X372499Y317311D01*
X372479Y317564D01*
X372467Y317632D01*
X372453Y317693D01*
X372436Y317746D01*
X372417Y317791D01*
X372395Y317828D01*
X372370Y317857D01*
X373630D01*
X373605Y317828D01*
D02*
G37*
G36*
X351817Y330657D02*
Y330000D01*
X351817Y330000D01*
X351907Y329547D01*
X352164Y329164D01*
X353664Y327664D01*
X354047Y327407D01*
X354500Y327317D01*
X359510D01*
X359750Y327077D01*
X359874Y326626D01*
X359507Y326077D01*
X359378Y325429D01*
X359507Y324781D01*
X359874Y324232D01*
X360423Y323866D01*
X361071Y323737D01*
X361719Y323866D01*
X362000Y324054D01*
X362500Y323786D01*
Y319817D01*
X362500Y319817D01*
X362590Y319365D01*
X362846Y318981D01*
X364278Y317550D01*
X364187Y317083D01*
X363747Y316925D01*
X363163Y317510D01*
X362908Y317680D01*
X362908Y317680D01*
X362908Y317680D01*
X362779Y317766D01*
X362327Y317856D01*
X362327Y317856D01*
X361540D01*
Y318614D01*
X357460D01*
D01*
Y314510D01*
X356279D01*
Y316073D01*
X351720D01*
Y314492D01*
X351960D01*
Y312925D01*
Y311386D01*
X356040D01*
Y312144D01*
X357460D01*
Y311386D01*
X358317D01*
Y309614D01*
X357460D01*
Y308814D01*
X357221Y308766D01*
X356837Y308509D01*
X356837Y308509D01*
X356224Y307897D01*
X355968Y307513D01*
X355878Y307061D01*
X355878Y307060D01*
Y302665D01*
X355878Y302665D01*
X355903Y302541D01*
X355432Y302345D01*
X355197Y302697D01*
X354773Y302980D01*
X354625Y303539D01*
X354836Y303750D01*
X354836Y303750D01*
X355093Y304134D01*
X355183Y304587D01*
Y307827D01*
X355183Y307827D01*
X355093Y308280D01*
X354836Y308664D01*
X354836Y308664D01*
X354164Y309336D01*
X353780Y309593D01*
X353327Y309683D01*
X353327Y309683D01*
X352145D01*
X350123Y311705D01*
Y312925D01*
Y318690D01*
X350033Y319143D01*
X349776Y319527D01*
X349776Y319527D01*
X348183Y321120D01*
Y327500D01*
X348093Y327953D01*
X347836Y328336D01*
X347836Y328336D01*
X346654Y329519D01*
X346523Y329606D01*
X346675Y330106D01*
X351068D01*
Y330748D01*
X351317Y330919D01*
X351817Y330657D01*
D02*
G37*
G36*
X436503Y314559D02*
X436440Y314545D01*
X436383Y314522D01*
X436334Y314489D01*
X436293Y314448D01*
X436259Y314397D01*
X436233Y314337D01*
X436214Y314267D01*
X436203Y314189D01*
X436199Y314101D01*
X435399D01*
X435395Y314189D01*
X435384Y314267D01*
X435365Y314337D01*
X435339Y314397D01*
X435305Y314448D01*
X435264Y314489D01*
X435215Y314522D01*
X435159Y314545D01*
X435095Y314559D01*
X435024Y314563D01*
X436575D01*
X436503Y314559D01*
D02*
G37*
G36*
X358232Y312527D02*
X358225Y312603D01*
X358201Y312671D01*
X358160Y312731D01*
X358104Y312783D01*
X358032Y312827D01*
X357944Y312863D01*
X357840Y312891D01*
X357720Y312911D01*
X357585Y312923D01*
X357433Y312927D01*
Y313727D01*
X357585Y313731D01*
X357720Y313743D01*
X357840Y313763D01*
X357944Y313791D01*
X358032Y313827D01*
X358104Y313871D01*
X358160Y313923D01*
X358201Y313983D01*
X358225Y314051D01*
X358232Y314127D01*
Y312527D01*
D02*
G37*
G36*
X355276Y314051D02*
X355299Y313983D01*
X355340Y313923D01*
X355396Y313871D01*
X355468Y313827D01*
X355556Y313791D01*
X355660Y313763D01*
X355780Y313743D01*
X355915Y313731D01*
X356067Y313727D01*
Y312927D01*
X355915Y312923D01*
X355780Y312911D01*
X355660Y312891D01*
X355556Y312863D01*
X355468Y312827D01*
X355396Y312783D01*
X355340Y312731D01*
X355299Y312671D01*
X355276Y312603D01*
X355268Y312527D01*
Y314127D01*
X355276Y314051D01*
D02*
G37*
G36*
X341586Y313810D02*
X341547Y313757D01*
X341513Y313699D01*
X341483Y313636D01*
X341458Y313569D01*
X341437Y313496D01*
X341421Y313418D01*
X341409Y313335D01*
X341402Y313247D01*
X341400Y313154D01*
X340600D01*
X340598Y313247D01*
X340591Y313335D01*
X340579Y313418D01*
X340563Y313496D01*
X340543Y313569D01*
X340517Y313636D01*
X340487Y313699D01*
X340453Y313757D01*
X340414Y313810D01*
X340370Y313857D01*
X341630D01*
X341586Y313810D01*
D02*
G37*
G36*
X369902Y313753D02*
X369909Y313665D01*
X369921Y313582D01*
X369937Y313504D01*
X369957Y313431D01*
X369983Y313364D01*
X370013Y313301D01*
X370047Y313243D01*
X370086Y313190D01*
X370130Y313143D01*
X368870D01*
X368914Y313190D01*
X368953Y313243D01*
X368987Y313301D01*
X369017Y313364D01*
X369042Y313431D01*
X369063Y313504D01*
X369079Y313582D01*
X369091Y313665D01*
X369098Y313753D01*
X369100Y313846D01*
X369900D01*
X369902Y313753D01*
D02*
G37*
%LPC*%
G36*
X353400Y318854D02*
X351720D01*
Y317273D01*
X353400D01*
Y318854D01*
D02*
G37*
G36*
X356279D02*
X354600D01*
Y317273D01*
X356279D01*
Y318854D01*
D02*
G37*
%LPD*%
D12*
X367941Y300071D02*
D03*
X370500D02*
D03*
X373059D02*
D03*
Y308929D02*
D03*
X370500D02*
D03*
X367941D02*
D03*
D14*
X353327Y345500D02*
D03*
X356673D02*
D03*
X372327Y314000D02*
D03*
X375673D02*
D03*
X421138Y308992D02*
D03*
X417792D02*
D03*
X421173Y302500D02*
D03*
X417827D02*
D03*
D17*
X422073Y292227D02*
D03*
Y295573D02*
D03*
X344000Y316673D02*
D03*
Y313327D02*
D03*
X353500Y354173D02*
D03*
Y350827D02*
D03*
X359500Y316673D02*
D03*
Y313327D02*
D03*
X354000Y313327D02*
D03*
Y316673D02*
D03*
X359500Y307673D02*
D03*
Y304327D02*
D03*
D33*
X348340Y332500D02*
D03*
X357631D02*
D03*
D35*
X418573Y295573D02*
X422000D01*
X417440Y294440D02*
X418573Y295573D01*
X390500Y268500D02*
X397000D01*
X365000Y291801D02*
Y293000D01*
X366000Y294000D01*
X379673Y293500D02*
X393500D01*
X376000Y297173D02*
X379673Y293500D01*
X376000Y297173D02*
Y300000D01*
X393500Y293500D02*
X396060Y296060D01*
X414560D01*
X372000Y290000D02*
X373060Y288940D01*
X414560Y296060D02*
X415000Y296500D01*
X404000Y293500D02*
X404940Y294440D01*
X415000Y296500D02*
X416500D01*
X378500Y300500D02*
X380560Y298440D01*
X378500Y300500D02*
Y303000D01*
X354500Y293500D02*
X356500D01*
X345817Y328683D02*
X347000Y327500D01*
X340317Y328683D02*
X345817D01*
X353000Y295000D02*
X354500Y293500D01*
X353000Y295000D02*
Y297500D01*
X366571Y300071D02*
X367941D01*
X351500Y299000D02*
X353000Y297500D01*
X345000D02*
Y299500D01*
X338940Y305560D02*
X345000Y299500D01*
X339673Y324327D02*
X341000Y323000D01*
X338500Y330500D02*
X340317Y328683D01*
X351655Y308500D02*
X353327D01*
X354000Y307827D01*
Y304587D02*
Y307827D01*
X351500Y302087D02*
X354000Y304587D01*
X351500Y299000D02*
Y302087D01*
X375673Y311327D02*
Y314000D01*
Y311327D02*
X377000Y310000D01*
X353500Y344500D02*
Y350827D01*
X352000Y335500D02*
X353000Y334500D01*
X343500Y335500D02*
X352000D01*
X353000Y330000D02*
Y334500D01*
X342000Y337000D02*
X343500Y335500D01*
X361071Y325429D02*
Y327429D01*
X360000Y328500D02*
X361071Y327429D01*
X354500Y328500D02*
X360000D01*
X353000Y330000D02*
X354500Y328500D01*
X354000Y313327D02*
X359500D01*
X359500Y307673D02*
Y313327D01*
X362327Y316673D02*
X363000Y316000D01*
X359500Y316673D02*
X362327D01*
X428000Y293237D02*
X431100Y296337D01*
X428000Y290800D02*
Y293237D01*
X429500Y297000D02*
Y302663D01*
X426400Y293900D02*
X429500Y297000D01*
X426400Y290137D02*
Y293900D01*
X435799Y314101D02*
X438400Y311500D01*
X435799Y314101D02*
Y317799D01*
X438400Y306400D02*
Y311500D01*
X437000Y305000D02*
X438400Y306400D01*
X431837Y305000D02*
X437000D01*
X435799Y338701D02*
X440000Y334500D01*
X435799Y338701D02*
Y343000D01*
X440000Y305737D02*
Y334500D01*
X437663Y303400D02*
X440000Y305737D01*
X432500Y303400D02*
X437663D01*
X429500Y302663D02*
X431837Y305000D01*
X431100Y302000D02*
X432500Y303400D01*
X431100Y296337D02*
Y302000D01*
X426400Y290137D02*
X427837Y288700D01*
X429800D01*
X428000Y290800D02*
X428500Y290300D01*
X429800D01*
X430500Y291000D01*
X408150Y286000D02*
X411500D01*
X407660Y286490D02*
X408150Y286000D01*
X407660Y286490D02*
Y287688D01*
X406408Y288940D02*
X407660Y287688D01*
X373060Y288940D02*
X406408D01*
X347000Y320630D02*
Y327500D01*
Y320630D02*
X348940Y318690D01*
Y311215D02*
X351655Y308500D01*
X348940Y311215D02*
Y318690D01*
X341000Y308500D02*
X343500Y306000D01*
X344913D01*
X348500Y302413D01*
X344500Y310000D02*
X346000D01*
X349000Y307000D01*
X341000Y317500D02*
Y323000D01*
X338940Y315440D02*
X341000Y317500D01*
X338940Y305560D02*
Y315440D01*
X341173Y313327D02*
X344000D01*
X341000Y308500D02*
Y314500D01*
X356500Y293500D02*
X360000Y290000D01*
X373000Y294000D02*
X376000Y291000D01*
X372000Y290000D02*
Y291000D01*
X366000Y294000D02*
X373000D01*
X404940Y294440D02*
X417440D01*
X380560Y298440D02*
X411500D01*
X421173Y302500D02*
Y304673D01*
X421500Y305000D01*
X423000D01*
X418000Y306000D02*
X418327Y306327D01*
X417792Y306208D02*
Y308992D01*
Y306208D02*
X418000Y306000D01*
X363000Y312500D02*
Y316000D01*
X348500Y300000D02*
Y302413D01*
X369500Y312500D02*
Y323500D01*
X369998Y303003D02*
X370500Y302500D01*
Y300071D02*
Y302500D01*
X370937Y304562D02*
X373059Y302441D01*
Y300071D02*
Y302441D01*
X366673Y303003D02*
X369998D01*
X366027Y304562D02*
X370937D01*
X359500Y304327D02*
X363240D01*
X365500Y306587D01*
Y318000D01*
X368060Y308810D02*
X368179Y308929D01*
X355595Y339905D02*
X361278D01*
X363683Y319817D02*
X365500Y318000D01*
X363683Y319817D02*
Y337500D01*
X361278Y339905D02*
X363683Y337500D01*
X346500Y345000D02*
X349000Y342500D01*
X338500Y343000D02*
X340500Y345000D01*
X346500D01*
X338500Y330500D02*
Y343000D01*
X342000Y337000D02*
Y342000D01*
X365000Y298500D02*
X366571Y300071D01*
X354000Y301500D02*
X357000Y298500D01*
X365000D01*
X359500Y302500D02*
Y304327D01*
X363464Y302000D02*
X366027Y304562D01*
X360000Y302000D02*
X363464D01*
X359500Y302500D02*
X360000Y302000D01*
X364110Y300440D02*
X366673Y303003D01*
X359286Y300440D02*
X364110D01*
X357061Y302665D02*
X359286Y300440D01*
X357061Y302665D02*
Y307061D01*
X357673Y307673D01*
X359500D01*
X353000Y287000D02*
Y289500D01*
X345000Y297500D02*
X353000Y289500D01*
X360000Y281500D02*
Y285000D01*
Y281500D02*
X363500Y278000D01*
X366500D01*
X367500Y277000D01*
Y275000D02*
Y277000D01*
X386000Y269000D02*
X390000D01*
X407660Y273160D02*
Y286490D01*
X405500Y271000D02*
X407660Y273160D01*
X394500Y271000D02*
X405500D01*
X390000Y269000D02*
X390500Y268500D01*
X422000Y295573D02*
Y299000D01*
X429800Y288700D02*
X430500Y288000D01*
D37*
X348000Y348500D02*
Y351000D01*
X351173Y354173D01*
X353500D01*
X351762Y337431D02*
X351831Y337500D01*
X355000Y342000D02*
X355500Y342500D01*
X349000D02*
X349500Y342000D01*
X355000D01*
X351831Y337500D02*
X354000D01*
X347569Y337431D02*
X351762D01*
X345500Y339500D02*
X347569Y337431D01*
D38*
X372327Y316327D02*
X373000Y317000D01*
X372327Y314000D02*
Y316327D01*
X373000Y317000D02*
Y318500D01*
X373059Y308929D02*
Y311441D01*
X348000Y332500D02*
X348340D01*
X372327Y312173D02*
X373059Y311441D01*
X372327Y312173D02*
Y314000D01*
D39*
X350173Y332500D02*
X350173Y332500D01*
X348340Y332500D02*
X350173D01*
X355327Y332500D02*
X357631D01*
D41*
X411500Y291000D02*
D03*
D42*
X416500D02*
D03*
X411500Y286000D02*
D03*
X416500D02*
D03*
X411500Y281000D02*
D03*
X416500D02*
D03*
X360000Y290000D02*
D03*
X365000Y285000D02*
D03*
Y290000D02*
D03*
D43*
X360000Y285000D02*
D03*
D44*
X379000Y381500D02*
D03*
X407000D02*
D03*
X425000Y373000D02*
D03*
X421000Y375500D02*
D03*
X379000Y271500D02*
D03*
X397000Y268500D02*
D03*
X425000Y367000D02*
D03*
Y369000D02*
D03*
X431000Y367000D02*
D03*
X354000Y358500D02*
D03*
Y360500D02*
D03*
Y362500D02*
D03*
Y364500D02*
D03*
X382500Y296000D02*
D03*
X398500Y293500D02*
D03*
X404000D02*
D03*
X411500Y298440D02*
D03*
X413000Y301000D02*
D03*
X432500Y326000D02*
D03*
X416500Y296500D02*
D03*
X376000Y291000D02*
D03*
X391827Y296327D02*
D03*
X382500Y300500D02*
D03*
X388500Y301500D02*
D03*
X378500Y303000D02*
D03*
X376000Y300000D02*
D03*
X354000Y301500D02*
D03*
X349000Y307000D02*
D03*
X348000Y348500D02*
D03*
X350929Y339441D02*
D03*
X359500Y307500D02*
D03*
X353500Y344500D02*
D03*
X355500Y342500D02*
D03*
X355595Y339905D02*
D03*
X353000Y321000D02*
D03*
X361071Y325429D02*
D03*
X355327Y332500D02*
D03*
X350173Y332500D02*
D03*
X355000Y319000D02*
D03*
X336327Y327000D02*
D03*
X338000Y317500D02*
D03*
X369500Y323500D02*
D03*
X353000Y317000D02*
D03*
X351000Y319000D02*
D03*
X353000D02*
D03*
X344500Y332500D02*
D03*
X341173D02*
D03*
X377000Y308000D02*
D03*
Y310000D02*
D03*
X379000Y308000D02*
D03*
Y310000D02*
D03*
X373000Y318500D02*
D03*
X427000Y371000D02*
D03*
X411000Y371500D02*
D03*
X413000D02*
D03*
X415000D02*
D03*
X417000D02*
D03*
X423000D02*
D03*
X421000D02*
D03*
X425000Y371000D02*
D03*
X419000Y371500D02*
D03*
X423000Y373500D02*
D03*
X405000Y381500D02*
D03*
X417000Y377500D02*
D03*
X415000D02*
D03*
X413000D02*
D03*
X411000Y379500D02*
D03*
X430500Y291000D02*
D03*
X441327Y292827D02*
D03*
X411000Y373500D02*
D03*
X421000D02*
D03*
X419000Y375500D02*
D03*
Y373500D02*
D03*
X417000D02*
D03*
Y375500D02*
D03*
X415000D02*
D03*
Y373500D02*
D03*
X413000D02*
D03*
Y375500D02*
D03*
X436500Y323000D02*
D03*
X385000Y375500D02*
D03*
X411000Y377500D02*
D03*
Y375500D02*
D03*
X409000Y379500D02*
D03*
Y377500D02*
D03*
Y375500D02*
D03*
X407000D02*
D03*
Y377500D02*
D03*
Y379500D02*
D03*
X373000Y375500D02*
D03*
Y377500D02*
D03*
X403000Y381500D02*
D03*
X401000D02*
D03*
X437500Y298500D02*
D03*
Y300500D02*
D03*
X439500Y298500D02*
D03*
Y300500D02*
D03*
X434000Y308000D02*
D03*
Y310000D02*
D03*
X449000Y326000D02*
D03*
X425000Y355000D02*
D03*
Y357000D02*
D03*
Y363000D02*
D03*
Y365000D02*
D03*
X441000Y355000D02*
D03*
X425000Y310000D02*
D03*
Y312000D02*
D03*
X427000D02*
D03*
X427468Y321532D02*
D03*
X418000Y306000D02*
D03*
X414000Y311000D02*
D03*
Y309000D02*
D03*
Y307000D02*
D03*
X422000Y309000D02*
D03*
X436500Y331000D02*
D03*
X379000Y327000D02*
D03*
X399000Y340500D02*
D03*
Y342500D02*
D03*
Y344500D02*
D03*
Y346500D02*
D03*
Y348500D02*
D03*
Y350500D02*
D03*
Y352500D02*
D03*
Y354500D02*
D03*
Y356500D02*
D03*
X401000Y340500D02*
D03*
Y342500D02*
D03*
Y344500D02*
D03*
Y346500D02*
D03*
Y348500D02*
D03*
Y350500D02*
D03*
Y352500D02*
D03*
Y354500D02*
D03*
Y356500D02*
D03*
X409000Y352500D02*
D03*
X403000Y356500D02*
D03*
X405000D02*
D03*
X407000D02*
D03*
X409000D02*
D03*
Y354500D02*
D03*
X407000D02*
D03*
X405000D02*
D03*
X403000D02*
D03*
Y352500D02*
D03*
X405000D02*
D03*
X407000D02*
D03*
X409000Y350500D02*
D03*
X407000D02*
D03*
X405000D02*
D03*
X403000D02*
D03*
Y348500D02*
D03*
X405000D02*
D03*
X407000D02*
D03*
X409000D02*
D03*
X403000Y342500D02*
D03*
Y340500D02*
D03*
Y344500D02*
D03*
Y346500D02*
D03*
X405000D02*
D03*
X407000D02*
D03*
X409000D02*
D03*
Y344500D02*
D03*
X407000D02*
D03*
X405000D02*
D03*
Y342500D02*
D03*
X407000D02*
D03*
X409000D02*
D03*
X405000Y340500D02*
D03*
X407000D02*
D03*
X409000D02*
D03*
X352000Y358500D02*
D03*
X350000D02*
D03*
X348000D02*
D03*
Y362500D02*
D03*
Y360500D02*
D03*
X350000D02*
D03*
X352000D02*
D03*
Y362500D02*
D03*
X350000D02*
D03*
Y364500D02*
D03*
X352000D02*
D03*
X439000Y357000D02*
D03*
Y355000D02*
D03*
X433000Y365000D02*
D03*
X435000Y363000D02*
D03*
X437000Y361000D02*
D03*
Y359000D02*
D03*
Y357000D02*
D03*
Y355000D02*
D03*
X427000D02*
D03*
X429000D02*
D03*
X431000D02*
D03*
X433000D02*
D03*
X435000D02*
D03*
Y357000D02*
D03*
X433000D02*
D03*
X431000D02*
D03*
X429000D02*
D03*
X427000D02*
D03*
Y359000D02*
D03*
X429000D02*
D03*
X435000D02*
D03*
X429000Y369000D02*
D03*
X427000D02*
D03*
Y367000D02*
D03*
X429000D02*
D03*
X431000Y365000D02*
D03*
X429000D02*
D03*
X427000D02*
D03*
X433000Y363000D02*
D03*
X431000D02*
D03*
X429000D02*
D03*
X427000D02*
D03*
X435000Y361000D02*
D03*
X429000D02*
D03*
X427000D02*
D03*
X364000Y341000D02*
D03*
X366000D02*
D03*
X368000D02*
D03*
Y343000D02*
D03*
X366000D02*
D03*
X364000D02*
D03*
Y345000D02*
D03*
X366000D02*
D03*
X368000D02*
D03*
X405000Y375500D02*
D03*
Y377500D02*
D03*
Y379500D02*
D03*
X403000D02*
D03*
Y377500D02*
D03*
Y375500D02*
D03*
X401000D02*
D03*
Y377500D02*
D03*
Y379500D02*
D03*
X399000Y381500D02*
D03*
Y379500D02*
D03*
Y377500D02*
D03*
Y375500D02*
D03*
X397000D02*
D03*
Y377500D02*
D03*
Y379500D02*
D03*
Y381500D02*
D03*
X375000Y379500D02*
D03*
Y377500D02*
D03*
Y375500D02*
D03*
X377000D02*
D03*
Y377500D02*
D03*
Y379500D02*
D03*
X379000Y375500D02*
D03*
X381000D02*
D03*
X383000D02*
D03*
X387000D02*
D03*
X389000D02*
D03*
X391000D02*
D03*
X393000D02*
D03*
X395000D02*
D03*
Y377500D02*
D03*
Y379500D02*
D03*
Y381500D02*
D03*
X393000Y377500D02*
D03*
X391000D02*
D03*
X389000D02*
D03*
X387000D02*
D03*
X385000D02*
D03*
X381000D02*
D03*
X383000D02*
D03*
X379000D02*
D03*
Y379500D02*
D03*
X381000D02*
D03*
Y381500D02*
D03*
X393000Y379500D02*
D03*
Y381500D02*
D03*
X391000D02*
D03*
Y379500D02*
D03*
X389000D02*
D03*
Y381500D02*
D03*
X387000D02*
D03*
Y379500D02*
D03*
X383000D02*
D03*
X385000D02*
D03*
X383000Y381500D02*
D03*
X385000D02*
D03*
X368500Y350000D02*
D03*
X366500D02*
D03*
X364500D02*
D03*
X362500D02*
D03*
Y352000D02*
D03*
X364500D02*
D03*
X366500D02*
D03*
X368500D02*
D03*
Y354000D02*
D03*
X366500D02*
D03*
X364500D02*
D03*
X362500D02*
D03*
Y348000D02*
D03*
X364500D02*
D03*
X366500D02*
D03*
X368500D02*
D03*
Y358500D02*
D03*
X366500D02*
D03*
X364500D02*
D03*
X362500D02*
D03*
Y360500D02*
D03*
X364500D02*
D03*
X366500D02*
D03*
X368500D02*
D03*
X370500D02*
D03*
Y362500D02*
D03*
X368500D02*
D03*
X366500D02*
D03*
X364500D02*
D03*
X362500D02*
D03*
Y364500D02*
D03*
X364500D02*
D03*
X366500D02*
D03*
X368500D02*
D03*
X370500D02*
D03*
Y366500D02*
D03*
X368500D02*
D03*
X366500D02*
D03*
X364500D02*
D03*
X362500D02*
D03*
Y368500D02*
D03*
X364500D02*
D03*
X366500D02*
D03*
X368500D02*
D03*
X370500D02*
D03*
Y370500D02*
D03*
X368500D02*
D03*
X366500D02*
D03*
X364500D02*
D03*
X362500D02*
D03*
X372000Y344500D02*
D03*
X374000D02*
D03*
X376000D02*
D03*
X378000D02*
D03*
Y346500D02*
D03*
X376000D02*
D03*
X374000D02*
D03*
X372000D02*
D03*
Y348500D02*
D03*
X374000D02*
D03*
X376000D02*
D03*
X378000D02*
D03*
Y350500D02*
D03*
X376000D02*
D03*
X374000D02*
D03*
X372000D02*
D03*
Y352500D02*
D03*
X374000D02*
D03*
X376000D02*
D03*
X443500Y351500D02*
D03*
Y349500D02*
D03*
X445500D02*
D03*
Y347500D02*
D03*
Y345500D02*
D03*
Y343500D02*
D03*
Y341500D02*
D03*
Y339500D02*
D03*
Y337500D02*
D03*
Y335500D02*
D03*
Y333500D02*
D03*
Y331500D02*
D03*
X443500D02*
D03*
Y333500D02*
D03*
Y335500D02*
D03*
Y337500D02*
D03*
Y339500D02*
D03*
Y341500D02*
D03*
Y343500D02*
D03*
Y345500D02*
D03*
Y347500D02*
D03*
X447500Y331500D02*
D03*
Y333500D02*
D03*
Y335500D02*
D03*
Y337500D02*
D03*
Y339500D02*
D03*
Y341500D02*
D03*
X449500Y331500D02*
D03*
Y333500D02*
D03*
X383000Y373500D02*
D03*
X381000D02*
D03*
X379000D02*
D03*
X377000D02*
D03*
X375000D02*
D03*
X371000Y375500D02*
D03*
Y377500D02*
D03*
X369000Y375500D02*
D03*
X362500Y356500D02*
D03*
X364500D02*
D03*
X368500D02*
D03*
X366500D02*
D03*
X378000Y352500D02*
D03*
X339673Y324327D02*
D03*
X424327Y283827D02*
D03*
X344500Y310000D02*
D03*
X341000Y314500D02*
D03*
X372000Y291000D02*
D03*
X399000Y358500D02*
D03*
X401000D02*
D03*
X403000D02*
D03*
X405000D02*
D03*
X407000D02*
D03*
X409000D02*
D03*
Y360500D02*
D03*
Y362500D02*
D03*
Y364500D02*
D03*
X407000D02*
D03*
Y362500D02*
D03*
Y360500D02*
D03*
X405000D02*
D03*
Y362500D02*
D03*
Y364500D02*
D03*
Y366500D02*
D03*
Y368500D02*
D03*
X403000D02*
D03*
Y366500D02*
D03*
Y364500D02*
D03*
Y362500D02*
D03*
Y360500D02*
D03*
X401000D02*
D03*
X399000D02*
D03*
Y362500D02*
D03*
X401000D02*
D03*
Y364500D02*
D03*
X399000D02*
D03*
Y366500D02*
D03*
X401000D02*
D03*
Y368500D02*
D03*
X399000D02*
D03*
X436000Y308000D02*
D03*
Y310000D02*
D03*
X417827Y302500D02*
D03*
X422000Y299000D02*
D03*
X423000Y305000D02*
D03*
X427000Y310000D02*
D03*
X363000Y312500D02*
D03*
X351500Y305000D02*
D03*
X344500Y303500D02*
D03*
X348500Y300000D02*
D03*
X369500Y312500D02*
D03*
X342173Y297173D02*
D03*
X341673Y293827D02*
D03*
X359500Y304500D02*
D03*
X362500Y307000D02*
D03*
X370500Y308929D02*
D03*
X378500Y342500D02*
D03*
X376500D02*
D03*
X378500Y340500D02*
D03*
X376500D02*
D03*
X378500Y338500D02*
D03*
X376500D02*
D03*
X374500Y342500D02*
D03*
Y340500D02*
D03*
Y338500D02*
D03*
X361500Y330000D02*
D03*
X340500Y351500D02*
D03*
X342500D02*
D03*
Y349500D02*
D03*
X354000Y337500D02*
D03*
X340500Y349500D02*
D03*
X342000Y342000D02*
D03*
X345500Y339500D02*
D03*
X407000Y338500D02*
D03*
X409000D02*
D03*
X449500Y337500D02*
D03*
Y335500D02*
D03*
X366500Y281000D02*
D03*
X441000Y349500D02*
D03*
Y347500D02*
D03*
Y341500D02*
D03*
Y339500D02*
D03*
X442500Y353500D02*
D03*
X441000Y357000D02*
D03*
X361500Y294000D02*
D03*
X425000Y361000D02*
D03*
X353000Y287000D02*
D03*
X367500Y275000D02*
D03*
X441000Y337500D02*
D03*
Y343500D02*
D03*
Y345500D02*
D03*
Y351500D02*
D03*
X386000Y269000D02*
D03*
X394500Y271000D02*
D03*
X447500Y343500D02*
D03*
X433000Y361000D02*
D03*
X431000D02*
D03*
X422000Y277500D02*
D03*
X439000Y359000D02*
D03*
X430500Y288000D02*
D03*
X427673Y281990D02*
D03*
X410000Y275000D02*
D03*
X433000Y359000D02*
D03*
X431000D02*
D03*
X425000D02*
D03*
X411000Y272500D02*
D03*
D60*
X401063Y370500D02*
D03*
X408937D02*
D03*
X387563D02*
D03*
X395437D02*
D03*
D61*
X429106Y343000D02*
D03*
Y317800D02*
D03*
D62*
X435799Y343000D02*
D03*
Y317799D02*
D03*
D63*
X392579Y322721D02*
D03*
D64*
X373500Y364106D02*
D03*
Y339894D02*
D03*
D65*
X418106Y354500D02*
D03*
X393894D02*
D03*
D66*
X411500Y277000D02*
Y281000D01*
%TF.MD5,D9741BAFB992FDF185C040511E717A07*%
M02*
