G04 Layer_Color=8388736*
%FSLAX25Y25*%
%MOIN*%
%TF.FileFunction,Soldermask,Top*%
%TF.Part,Single*%
G01*
G75*
%ADD71C,0.03150*%
%ADD72R,0.27500X0.06500*%
%ADD73R,0.11000X0.16500*%
%ADD74R,0.07000X0.10500*%
%ADD75R,0.14000X0.07500*%
%TA.AperFunction,SMDPad*%
%ADD76R,0.02762X0.02959*%
%TA.AperFunction,SMDPad*%
%ADD77R,0.04737X0.04068*%
%TA.AperFunction,SMDPad*%
%ADD78R,0.04252X0.14961*%
%TA.AperFunction,SMDPad*%
%ADD79R,0.02959X0.02762*%
%TA.AperFunction,SMDPad*%
%ADD80R,0.06800X0.10800*%
%TA.AperFunction,SMDPad*%
%ADD81R,0.10800X0.06800*%
%TA.AperFunction,SMDPad*%
%ADD82R,0.06115X0.07887*%
%TA.AperFunction,SMDPad*%
%ADD83R,0.03162X0.04737*%
%TA.AperFunction,SMDPad*%
%ADD84R,0.04658X0.04461*%
%TA.AperFunction,SMDPad*%
%ADD85R,0.01575X0.02166*%
%TA.AperFunction,SMDPad*%
%ADD86R,0.08071X0.07599*%
%TA.AperFunction,SMDPad*%
%ADD87R,0.08071X0.07284*%
%TA.AperFunction,SMDPad*%
%ADD88O,0.03347X0.01378*%
%TA.AperFunction,SMDPad*%
%ADD89O,0.01378X0.03347*%
%TA.AperFunction,SMDPad*%
%ADD90R,0.09764X0.39764*%
%TA.AperFunction,SMDPad*%
%ADD91R,0.04461X0.04658*%
%TA.AperFunction,SMDPad*%
G04:AMPARAMS|DCode=92|XSize=17.72mil|YSize=49.61mil|CornerRadius=5.02mil|HoleSize=0mil|Usage=FLASHONLY|Rotation=270.000|XOffset=0mil|YOffset=0mil|HoleType=Round|Shape=RoundedRectangle|*
%AMROUNDEDRECTD92*
21,1,0.01772,0.03957,0,0,270.0*
21,1,0.00768,0.04961,0,0,270.0*
1,1,0.01004,-0.01978,-0.00384*
1,1,0.01004,-0.01978,0.00384*
1,1,0.01004,0.01978,0.00384*
1,1,0.01004,0.01978,-0.00384*
%
%ADD92ROUNDEDRECTD92*%
%TA.AperFunction,SMDPad*%
%ADD93O,0.04646X0.01299*%
%TA.AperFunction,SMDPad*%
%ADD94O,0.01299X0.04646*%
%TA.AperFunction,SMDPad*%
%ADD95R,0.09961X0.09961*%
%TA.AperFunction,SMDPad*%
%ADD96R,0.03504X0.06457*%
%TA.AperFunction,SMDPad*%
%ADD97O,0.02913X0.01142*%
%TA.AperFunction,SMDPad*%
%ADD98R,0.03937X0.01969*%
%TA.AperFunction,SMDPad*%
%ADD99R,0.01969X0.03937*%
%TA.AperFunction,ViaPad*%
%ADD100C,0.04737*%
%TA.AperFunction,ViaPad*%
%ADD101R,0.04737X0.04737*%
%TA.AperFunction,ViaPad*%
%ADD102R,0.04737X0.04737*%
G36*
X379110Y354981D02*
X379147Y354970D01*
X379181Y354952D01*
X379211Y354927D01*
X379235Y354897D01*
X379254Y354863D01*
X379265Y354826D01*
X379269Y354787D01*
Y337228D01*
X379265Y337189D01*
X379254Y337152D01*
X379235Y337118D01*
X379211Y337088D01*
X379181Y337063D01*
X379147Y337045D01*
X379110Y337034D01*
X379071Y337030D01*
X373559D01*
X373520Y337034D01*
X373483Y337045D01*
X373449Y337063D01*
X373419Y337088D01*
X373395Y337118D01*
X373376Y337152D01*
X373365Y337189D01*
X373361Y337228D01*
Y342266D01*
X370803Y342266D01*
X370765Y342270D01*
X370753Y342274D01*
X370727Y342282D01*
X370693Y342300D01*
X370663Y342324D01*
Y342324D01*
X370663D01*
X370639Y342354D01*
X370620Y342389D01*
X370613Y342414D01*
X370609Y342426D01*
X370605Y342464D01*
Y354787D01*
X370609Y354826D01*
X370620Y354863D01*
X370639Y354897D01*
X370663Y354927D01*
X370693Y354952D01*
X370727Y354970D01*
X370765Y354981D01*
X370803Y354985D01*
X379071D01*
X379110Y354981D01*
D02*
G37*
G36*
X381176Y354745D02*
X381213Y354734D01*
X381248Y354715D01*
X381278Y354691D01*
X381302Y354661D01*
X381321Y354627D01*
X381332Y354590D01*
X381336Y354551D01*
Y337504D01*
X381332Y337465D01*
X381321Y337428D01*
X381302Y337394D01*
X381278Y337364D01*
X381248Y337339D01*
X381213Y337321D01*
X381176Y337310D01*
X381138Y337306D01*
X380498D01*
X380459Y337310D01*
X380422Y337321D01*
X380388Y337339D01*
X380358Y337364D01*
X380334Y337394D01*
X380315Y337428D01*
X380304Y337465D01*
X380300Y337504D01*
Y354551D01*
X380304Y354590D01*
X380315Y354627D01*
X380334Y354661D01*
X380358Y354691D01*
X380388Y354715D01*
X380422Y354734D01*
X380459Y354745D01*
X380498Y354749D01*
X381138D01*
X381176Y354745D01*
D02*
G37*
D71*
X453906Y326049D02*
G03*
X453909Y325986I-61327J-3329D01*
G01*
D72*
X388250Y271750D02*
D03*
D73*
X431000Y338250D02*
D03*
D74*
X378500Y373250D02*
D03*
D75*
X389000Y376250D02*
D03*
D76*
X430173Y309000D02*
D03*
X426827D02*
D03*
X427673Y282000D02*
D03*
X424327D02*
D03*
X410673Y309000D02*
D03*
X407327D02*
D03*
X376673Y331500D02*
D03*
X373327D02*
D03*
X367673D02*
D03*
X364327D02*
D03*
X419673Y309000D02*
D03*
X416327D02*
D03*
X437673Y326000D02*
D03*
X434327D02*
D03*
X443327Y326000D02*
D03*
X446673D02*
D03*
X350173Y332500D02*
D03*
X346827D02*
D03*
X339673Y321000D02*
D03*
X336327D02*
D03*
X341173Y332500D02*
D03*
X337827D02*
D03*
X366327Y323500D02*
D03*
X369673D02*
D03*
X366327Y318000D02*
D03*
X369673D02*
D03*
X369673Y312500D02*
D03*
X366327D02*
D03*
X339673Y327000D02*
D03*
X336327D02*
D03*
X355327Y332500D02*
D03*
X358673D02*
D03*
X391827Y294500D02*
D03*
X395173D02*
D03*
X362827Y306500D02*
D03*
X366173D02*
D03*
D77*
X427146Y302500D02*
D03*
X417854D02*
D03*
D78*
X400165Y318000D02*
D03*
X390835D02*
D03*
D79*
X397500Y303173D02*
D03*
Y299827D02*
D03*
X408500D02*
D03*
Y303173D02*
D03*
X403000D02*
D03*
Y299827D02*
D03*
X392000Y303173D02*
D03*
Y299827D02*
D03*
X353500Y354173D02*
D03*
Y350827D02*
D03*
X439000Y296173D02*
D03*
Y292827D02*
D03*
X344500Y297173D02*
D03*
Y293827D02*
D03*
Y306673D02*
D03*
Y303327D02*
D03*
X340000Y303327D02*
D03*
Y306673D02*
D03*
X338000Y315673D02*
D03*
Y312327D02*
D03*
X348000Y350827D02*
D03*
Y354173D02*
D03*
X373000Y296827D02*
D03*
Y300173D02*
D03*
D80*
X378500Y364500D02*
D03*
X365500D02*
D03*
X445500Y335500D02*
D03*
X432500D02*
D03*
D81*
X431000Y357000D02*
D03*
Y344000D02*
D03*
D82*
X378000Y320657D02*
D03*
Y310343D02*
D03*
D83*
X410260Y323724D02*
D03*
X414000D02*
D03*
X417740D02*
D03*
Y314276D02*
D03*
X414000D02*
D03*
X410260D02*
D03*
X443740Y320224D02*
D03*
X440000D02*
D03*
X436260D02*
D03*
Y310776D02*
D03*
X443740D02*
D03*
D84*
X424500Y321532D02*
D03*
Y315469D02*
D03*
D85*
X371393Y340004D02*
D03*
D86*
X365389Y351185D02*
D03*
D87*
Y342563D02*
D03*
D88*
X358598Y338134D02*
D03*
Y339905D02*
D03*
Y341677D02*
D03*
Y343449D02*
D03*
Y345220D02*
D03*
Y346992D02*
D03*
Y348764D02*
D03*
Y350535D02*
D03*
Y352307D02*
D03*
Y354079D02*
D03*
X382024Y354000D02*
D03*
Y352228D02*
D03*
Y350457D02*
D03*
Y348685D02*
D03*
Y346913D02*
D03*
Y345142D02*
D03*
Y343370D02*
D03*
Y341598D02*
D03*
Y339827D02*
D03*
Y338055D02*
D03*
D89*
X361866Y355850D02*
D03*
X363637D02*
D03*
X365409D02*
D03*
X367181D02*
D03*
X368952D02*
D03*
X371393D02*
D03*
X373165D02*
D03*
X374938D02*
D03*
X376709D02*
D03*
X378481D02*
D03*
X378086Y336165D02*
D03*
X376315D02*
D03*
X374543D02*
D03*
X370331D02*
D03*
X368560D02*
D03*
X366788D02*
D03*
X365016D02*
D03*
X363245D02*
D03*
X361473D02*
D03*
D90*
X391000Y349500D02*
D03*
X417181D02*
D03*
D91*
X443032Y304500D02*
D03*
X436969D02*
D03*
X359531Y360500D02*
D03*
X353468D02*
D03*
D92*
X433709Y288161D02*
D03*
Y290721D02*
D03*
Y293280D02*
D03*
Y295839D02*
D03*
X422291Y288161D02*
D03*
Y290721D02*
D03*
Y293280D02*
D03*
Y295839D02*
D03*
D93*
X344929Y322937D02*
D03*
Y320969D02*
D03*
Y319000D02*
D03*
Y317032D02*
D03*
Y315063D02*
D03*
X361071D02*
D03*
Y317032D02*
D03*
Y319000D02*
D03*
Y320969D02*
D03*
Y322937D02*
D03*
D94*
X349063Y310929D02*
D03*
X351031D02*
D03*
X353000D02*
D03*
X354969D02*
D03*
X356937D02*
D03*
Y327071D02*
D03*
X354969D02*
D03*
X353000D02*
D03*
X351031D02*
D03*
X349063D02*
D03*
D95*
X353000Y319000D02*
D03*
D96*
X382500Y298500D02*
D03*
D97*
X378602Y301453D02*
D03*
Y299484D02*
D03*
Y297516D02*
D03*
Y295547D02*
D03*
X386398Y301453D02*
D03*
Y299484D02*
D03*
Y297516D02*
D03*
Y295547D02*
D03*
D98*
X359071Y296441D02*
D03*
Y299000D02*
D03*
Y301559D02*
D03*
X367929D02*
D03*
Y299000D02*
D03*
Y296441D02*
D03*
X350929Y344559D02*
D03*
Y342000D02*
D03*
Y339441D02*
D03*
X342071D02*
D03*
Y342000D02*
D03*
Y344559D02*
D03*
D99*
X354059Y302929D02*
D03*
X351500D02*
D03*
X348941D02*
D03*
Y294071D02*
D03*
X351500D02*
D03*
X354059D02*
D03*
D100*
X365000Y290000D02*
D03*
Y285000D02*
D03*
X360000Y290000D02*
D03*
X416500Y281000D02*
D03*
X411500D02*
D03*
X416500Y286000D02*
D03*
X411500D02*
D03*
X416500Y291000D02*
D03*
D101*
X360000Y285000D02*
D03*
D102*
X411500Y291000D02*
D03*
%TF.MD5,83741F1C2DB3C9517E593B31251796BB*%
M02*
