G04 Layer_Color=32896*
%FSLAX25Y25*%
%MOIN*%
%TF.FileFunction,Legend,Bot*%
%TF.Part,Single*%
G01*
G75*
%ADD11C,0.01000*%
%ADD30C,0.00787*%
%ADD38C,0.00984*%
G36*
X317810Y388185D02*
X317845Y388175D01*
X317890Y388165D01*
X317940Y388145D01*
X318000Y388120D01*
X318065Y388095D01*
X318140Y388060D01*
X318215Y388025D01*
X318295Y387980D01*
X318370Y387935D01*
X318450Y387880D01*
X318530Y387825D01*
X318605Y387760D01*
X318675Y387690D01*
X318740Y387615D01*
X318745Y387610D01*
X318755Y387595D01*
X318770Y387575D01*
X318790Y387540D01*
X318815Y387500D01*
X318845Y387450D01*
X318870Y387395D01*
X318900Y387335D01*
X318935Y387260D01*
X318960Y387185D01*
X318990Y387100D01*
X319015Y387010D01*
X319035Y386915D01*
X319050Y386815D01*
X319060Y386710D01*
X319065Y386600D01*
Y386595D01*
Y386575D01*
Y386540D01*
X319060Y386495D01*
X319055Y386445D01*
X319050Y386380D01*
X319045Y386315D01*
X319035Y386240D01*
X319005Y386080D01*
X318960Y385910D01*
X318930Y385825D01*
X318895Y385740D01*
X318860Y385660D01*
X318815Y385585D01*
X318810Y385580D01*
X318805Y385570D01*
X318790Y385550D01*
X318765Y385520D01*
X318740Y385490D01*
X318710Y385450D01*
X318670Y385410D01*
X318625Y385365D01*
X318580Y385315D01*
X318525Y385270D01*
X318465Y385220D01*
X318395Y385170D01*
X318325Y385120D01*
X318250Y385075D01*
X318165Y385030D01*
X318080Y384990D01*
X318075D01*
X318060Y384980D01*
X318030Y384970D01*
X317995Y384960D01*
X317950Y384945D01*
X317900Y384925D01*
X317840Y384910D01*
X317770Y384890D01*
X317695Y384870D01*
X317615Y384855D01*
X317530Y384835D01*
X317445Y384820D01*
X317250Y384800D01*
X317050Y384790D01*
X316990D01*
X316950Y384795D01*
X316895D01*
X316835Y384800D01*
X316770Y384810D01*
X316695Y384820D01*
X316615Y384830D01*
X316530Y384845D01*
X316355Y384885D01*
X316180Y384940D01*
X316090Y384975D01*
X316005Y385015D01*
X316000Y385020D01*
X315985Y385025D01*
X315960Y385040D01*
X315930Y385060D01*
X315895Y385080D01*
X315850Y385110D01*
X315805Y385145D01*
X315750Y385185D01*
X315640Y385275D01*
X315530Y385390D01*
X315420Y385520D01*
X315370Y385595D01*
X315325Y385670D01*
X315320Y385675D01*
X315315Y385690D01*
X315305Y385715D01*
X315290Y385745D01*
X315270Y385785D01*
X315250Y385830D01*
X315230Y385885D01*
X315205Y385945D01*
X315185Y386015D01*
X315165Y386085D01*
X315125Y386245D01*
X315100Y386420D01*
X315090Y386510D01*
Y386605D01*
Y386610D01*
Y386630D01*
Y386660D01*
X315095Y386700D01*
X315100Y386750D01*
X315105Y386810D01*
X315115Y386875D01*
X315125Y386945D01*
X315160Y387095D01*
X315185Y387175D01*
X315215Y387260D01*
X315250Y387340D01*
X315285Y387420D01*
X315335Y387500D01*
X315385Y387575D01*
X315390Y387580D01*
X315400Y387590D01*
X315415Y387615D01*
X315440Y387640D01*
X315470Y387670D01*
X315505Y387710D01*
X315550Y387750D01*
X315600Y387795D01*
X315655Y387840D01*
X315715Y387885D01*
X315785Y387930D01*
X315855Y387975D01*
X315935Y388020D01*
X316020Y388060D01*
X316115Y388100D01*
X316210Y388130D01*
X316330Y387630D01*
X316325D01*
X316310Y387625D01*
X316290Y387615D01*
X316260Y387605D01*
X316225Y387590D01*
X316185Y387575D01*
X316095Y387530D01*
X315995Y387475D01*
X315895Y387410D01*
X315800Y387330D01*
X315760Y387285D01*
X315720Y387240D01*
Y387235D01*
X315710Y387230D01*
X315700Y387215D01*
X315690Y387195D01*
X315675Y387170D01*
X315660Y387140D01*
X315620Y387065D01*
X315585Y386970D01*
X315555Y386860D01*
X315535Y386735D01*
X315525Y386595D01*
Y386590D01*
Y386575D01*
Y386550D01*
X315530Y386520D01*
Y386485D01*
X315535Y386440D01*
X315545Y386390D01*
X315550Y386335D01*
X315575Y386220D01*
X315615Y386095D01*
X315670Y385970D01*
X315700Y385910D01*
X315740Y385850D01*
Y385845D01*
X315750Y385835D01*
X315760Y385820D01*
X315780Y385800D01*
X315825Y385750D01*
X315890Y385690D01*
X315970Y385620D01*
X316070Y385550D01*
X316180Y385485D01*
X316310Y385435D01*
X316315D01*
X316325Y385430D01*
X316345Y385425D01*
X316370Y385415D01*
X316405Y385405D01*
X316445Y385395D01*
X316490Y385385D01*
X316535Y385375D01*
X316650Y385355D01*
X316775Y385335D01*
X316910Y385320D01*
X317050Y385315D01*
X317130D01*
X317175Y385320D01*
X317225Y385325D01*
X317280D01*
X317340Y385335D01*
X317475Y385350D01*
X317615Y385375D01*
X317765Y385410D01*
X317905Y385455D01*
X317910D01*
X317920Y385460D01*
X317940Y385470D01*
X317965Y385485D01*
X317995Y385500D01*
X318030Y385515D01*
X318110Y385565D01*
X318200Y385630D01*
X318290Y385705D01*
X318375Y385795D01*
X318450Y385900D01*
Y385905D01*
X318460Y385915D01*
X318465Y385930D01*
X318480Y385955D01*
X318490Y385980D01*
X318505Y386015D01*
X318540Y386095D01*
X318575Y386195D01*
X318600Y386305D01*
X318620Y386425D01*
X318630Y386555D01*
Y386560D01*
Y386575D01*
Y386595D01*
X318625Y386625D01*
X318620Y386665D01*
X318615Y386705D01*
X318610Y386755D01*
X318600Y386805D01*
X318570Y386920D01*
X318525Y387040D01*
X318500Y387105D01*
X318465Y387165D01*
X318430Y387225D01*
X318385Y387280D01*
X318380Y387285D01*
X318375Y387295D01*
X318360Y387310D01*
X318340Y387330D01*
X318315Y387350D01*
X318280Y387380D01*
X318245Y387410D01*
X318200Y387440D01*
X318155Y387475D01*
X318100Y387510D01*
X318040Y387540D01*
X317975Y387575D01*
X317900Y387605D01*
X317825Y387635D01*
X317745Y387660D01*
X317655Y387685D01*
X317785Y388195D01*
X317790D01*
X317810Y388185D01*
D02*
G37*
G36*
X317895Y390670D02*
X317940D01*
X317995Y390665D01*
X318050Y390660D01*
X318170Y390645D01*
X318295Y390625D01*
X318415Y390595D01*
X318475Y390575D01*
X318525Y390555D01*
X318530D01*
X318535Y390550D01*
X318550Y390545D01*
X318570Y390535D01*
X318615Y390505D01*
X318675Y390465D01*
X318740Y390415D01*
X318805Y390350D01*
X318870Y390275D01*
X318930Y390185D01*
Y390180D01*
X318935Y390175D01*
X318940Y390160D01*
X318950Y390140D01*
X318975Y390090D01*
X318995Y390015D01*
X319020Y389930D01*
X319045Y389830D01*
X319060Y389715D01*
X319065Y389590D01*
Y389585D01*
Y389570D01*
Y389540D01*
X319060Y389505D01*
X319055Y389465D01*
X319050Y389415D01*
X319040Y389360D01*
X319030Y389305D01*
X318995Y389180D01*
X318970Y389115D01*
X318940Y389050D01*
X318910Y388985D01*
X318870Y388925D01*
X318825Y388870D01*
X318775Y388815D01*
X318770Y388810D01*
X318760Y388805D01*
X318745Y388790D01*
X318720Y388775D01*
X318690Y388755D01*
X318655Y388730D01*
X318610Y388705D01*
X318560Y388680D01*
X318500Y388660D01*
X318435Y388635D01*
X318365Y388615D01*
X318290Y388595D01*
X318205Y388580D01*
X318115Y388565D01*
X318020Y388560D01*
X317915D01*
X317850Y389020D01*
X317890D01*
X317920Y389025D01*
X317955Y389030D01*
X317995Y389035D01*
X318090Y389045D01*
X318190Y389065D01*
X318290Y389095D01*
X318380Y389130D01*
X318415Y389155D01*
X318450Y389180D01*
X318455Y389185D01*
X318475Y389210D01*
X318500Y389240D01*
X318530Y389290D01*
X318560Y389345D01*
X318585Y389415D01*
X318605Y389500D01*
X318610Y389590D01*
Y389600D01*
Y389620D01*
X318605Y389660D01*
X318600Y389705D01*
X318590Y389755D01*
X318575Y389810D01*
X318555Y389865D01*
X318525Y389920D01*
X318520Y389925D01*
X318510Y389945D01*
X318490Y389965D01*
X318460Y389995D01*
X318425Y390030D01*
X318385Y390060D01*
X318340Y390090D01*
X318285Y390110D01*
X318280Y390115D01*
X318255Y390120D01*
X318220Y390130D01*
X318170Y390140D01*
X318100Y390150D01*
X318020Y390155D01*
X317920Y390165D01*
X315155D01*
Y390675D01*
X317855D01*
X317895Y390670D01*
D02*
G37*
G36*
Y381120D02*
X317940D01*
X317995Y381115D01*
X318050Y381110D01*
X318170Y381095D01*
X318295Y381075D01*
X318415Y381045D01*
X318475Y381025D01*
X318525Y381005D01*
X318530D01*
X318535Y381000D01*
X318550Y380995D01*
X318570Y380985D01*
X318615Y380955D01*
X318675Y380915D01*
X318740Y380865D01*
X318805Y380800D01*
X318870Y380725D01*
X318930Y380635D01*
Y380630D01*
X318935Y380625D01*
X318940Y380610D01*
X318950Y380590D01*
X318975Y380540D01*
X318995Y380465D01*
X319020Y380380D01*
X319045Y380280D01*
X319060Y380165D01*
X319065Y380040D01*
Y380035D01*
Y380020D01*
Y379990D01*
X319060Y379955D01*
X319055Y379915D01*
X319050Y379865D01*
X319040Y379810D01*
X319030Y379755D01*
X318995Y379630D01*
X318970Y379565D01*
X318940Y379500D01*
X318910Y379435D01*
X318870Y379375D01*
X318825Y379320D01*
X318775Y379265D01*
X318770Y379260D01*
X318760Y379255D01*
X318745Y379240D01*
X318720Y379225D01*
X318690Y379205D01*
X318655Y379180D01*
X318610Y379155D01*
X318560Y379130D01*
X318500Y379110D01*
X318435Y379085D01*
X318365Y379065D01*
X318290Y379045D01*
X318205Y379030D01*
X318115Y379015D01*
X318020Y379010D01*
X317915D01*
X317850Y379470D01*
X317890D01*
X317920Y379475D01*
X317955Y379480D01*
X317995Y379485D01*
X318090Y379495D01*
X318190Y379515D01*
X318290Y379545D01*
X318380Y379580D01*
X318415Y379605D01*
X318450Y379630D01*
X318455Y379635D01*
X318475Y379660D01*
X318500Y379690D01*
X318530Y379740D01*
X318560Y379795D01*
X318585Y379865D01*
X318605Y379950D01*
X318610Y380040D01*
Y380050D01*
Y380070D01*
X318605Y380110D01*
X318600Y380155D01*
X318590Y380205D01*
X318575Y380260D01*
X318555Y380315D01*
X318525Y380370D01*
X318520Y380375D01*
X318510Y380395D01*
X318490Y380415D01*
X318460Y380445D01*
X318425Y380480D01*
X318385Y380510D01*
X318340Y380540D01*
X318285Y380560D01*
X318280Y380565D01*
X318255Y380570D01*
X318220Y380580D01*
X318170Y380590D01*
X318100Y380600D01*
X318020Y380605D01*
X317920Y380615D01*
X315155D01*
Y381125D01*
X317855D01*
X317895Y381120D01*
D02*
G37*
G36*
X319000Y381935D02*
X315155D01*
Y382445D01*
X318545D01*
Y384335D01*
X319000D01*
Y381935D01*
D02*
G37*
G36*
Y391485D02*
X315155D01*
Y391995D01*
X318545D01*
Y393885D01*
X319000D01*
Y391485D01*
D02*
G37*
G36*
Y401035D02*
X315155D01*
Y401545D01*
X318545D01*
Y403435D01*
X319000D01*
Y401035D01*
D02*
G37*
G36*
X317810Y407285D02*
X317845Y407275D01*
X317890Y407265D01*
X317940Y407245D01*
X318000Y407220D01*
X318065Y407195D01*
X318140Y407160D01*
X318215Y407125D01*
X318295Y407080D01*
X318370Y407035D01*
X318450Y406980D01*
X318530Y406925D01*
X318605Y406860D01*
X318675Y406790D01*
X318740Y406715D01*
X318745Y406710D01*
X318755Y406695D01*
X318770Y406675D01*
X318790Y406640D01*
X318815Y406600D01*
X318845Y406550D01*
X318870Y406495D01*
X318900Y406435D01*
X318935Y406360D01*
X318960Y406285D01*
X318990Y406200D01*
X319015Y406110D01*
X319035Y406015D01*
X319050Y405915D01*
X319060Y405810D01*
X319065Y405700D01*
Y405695D01*
Y405675D01*
Y405640D01*
X319060Y405595D01*
X319055Y405545D01*
X319050Y405480D01*
X319045Y405415D01*
X319035Y405340D01*
X319005Y405180D01*
X318960Y405010D01*
X318930Y404925D01*
X318895Y404840D01*
X318860Y404760D01*
X318815Y404685D01*
X318810Y404680D01*
X318805Y404670D01*
X318790Y404650D01*
X318765Y404620D01*
X318740Y404590D01*
X318710Y404550D01*
X318670Y404510D01*
X318625Y404465D01*
X318580Y404415D01*
X318525Y404370D01*
X318465Y404320D01*
X318395Y404270D01*
X318325Y404220D01*
X318250Y404175D01*
X318165Y404130D01*
X318080Y404090D01*
X318075D01*
X318060Y404080D01*
X318030Y404070D01*
X317995Y404060D01*
X317950Y404045D01*
X317900Y404025D01*
X317840Y404010D01*
X317770Y403990D01*
X317695Y403970D01*
X317615Y403955D01*
X317530Y403935D01*
X317445Y403920D01*
X317250Y403900D01*
X317050Y403890D01*
X316990D01*
X316950Y403895D01*
X316895D01*
X316835Y403900D01*
X316770Y403910D01*
X316695Y403920D01*
X316615Y403930D01*
X316530Y403945D01*
X316355Y403985D01*
X316180Y404040D01*
X316090Y404075D01*
X316005Y404115D01*
X316000Y404120D01*
X315985Y404125D01*
X315960Y404140D01*
X315930Y404160D01*
X315895Y404180D01*
X315850Y404210D01*
X315805Y404245D01*
X315750Y404285D01*
X315640Y404375D01*
X315530Y404490D01*
X315420Y404620D01*
X315370Y404695D01*
X315325Y404770D01*
X315320Y404775D01*
X315315Y404790D01*
X315305Y404815D01*
X315290Y404845D01*
X315270Y404885D01*
X315250Y404930D01*
X315230Y404985D01*
X315205Y405045D01*
X315185Y405115D01*
X315165Y405185D01*
X315125Y405345D01*
X315100Y405520D01*
X315090Y405610D01*
Y405705D01*
Y405710D01*
Y405730D01*
Y405760D01*
X315095Y405800D01*
X315100Y405850D01*
X315105Y405910D01*
X315115Y405975D01*
X315125Y406045D01*
X315160Y406195D01*
X315185Y406275D01*
X315215Y406360D01*
X315250Y406440D01*
X315285Y406520D01*
X315335Y406600D01*
X315385Y406675D01*
X315390Y406680D01*
X315400Y406690D01*
X315415Y406715D01*
X315440Y406740D01*
X315470Y406770D01*
X315505Y406810D01*
X315550Y406850D01*
X315600Y406895D01*
X315655Y406940D01*
X315715Y406985D01*
X315785Y407030D01*
X315855Y407075D01*
X315935Y407120D01*
X316020Y407160D01*
X316115Y407200D01*
X316210Y407230D01*
X316330Y406730D01*
X316325D01*
X316310Y406725D01*
X316290Y406715D01*
X316260Y406705D01*
X316225Y406690D01*
X316185Y406675D01*
X316095Y406630D01*
X315995Y406575D01*
X315895Y406510D01*
X315800Y406430D01*
X315760Y406385D01*
X315720Y406340D01*
Y406335D01*
X315710Y406330D01*
X315700Y406315D01*
X315690Y406295D01*
X315675Y406270D01*
X315660Y406240D01*
X315620Y406165D01*
X315585Y406070D01*
X315555Y405960D01*
X315535Y405835D01*
X315525Y405695D01*
Y405690D01*
Y405675D01*
Y405650D01*
X315530Y405620D01*
Y405585D01*
X315535Y405540D01*
X315545Y405490D01*
X315550Y405435D01*
X315575Y405320D01*
X315615Y405195D01*
X315670Y405070D01*
X315700Y405010D01*
X315740Y404950D01*
Y404945D01*
X315750Y404935D01*
X315760Y404920D01*
X315780Y404900D01*
X315825Y404850D01*
X315890Y404790D01*
X315970Y404720D01*
X316070Y404650D01*
X316180Y404585D01*
X316310Y404535D01*
X316315D01*
X316325Y404530D01*
X316345Y404525D01*
X316370Y404515D01*
X316405Y404505D01*
X316445Y404495D01*
X316490Y404485D01*
X316535Y404475D01*
X316650Y404455D01*
X316775Y404435D01*
X316910Y404420D01*
X317050Y404415D01*
X317130D01*
X317175Y404420D01*
X317225Y404425D01*
X317280D01*
X317340Y404435D01*
X317475Y404450D01*
X317615Y404475D01*
X317765Y404510D01*
X317905Y404555D01*
X317910D01*
X317920Y404560D01*
X317940Y404570D01*
X317965Y404585D01*
X317995Y404600D01*
X318030Y404615D01*
X318110Y404665D01*
X318200Y404730D01*
X318290Y404805D01*
X318375Y404895D01*
X318450Y405000D01*
Y405005D01*
X318460Y405015D01*
X318465Y405030D01*
X318480Y405055D01*
X318490Y405080D01*
X318505Y405115D01*
X318540Y405195D01*
X318575Y405295D01*
X318600Y405405D01*
X318620Y405525D01*
X318630Y405655D01*
Y405660D01*
Y405675D01*
Y405695D01*
X318625Y405725D01*
X318620Y405765D01*
X318615Y405805D01*
X318610Y405855D01*
X318600Y405905D01*
X318570Y406020D01*
X318525Y406140D01*
X318500Y406205D01*
X318465Y406265D01*
X318430Y406325D01*
X318385Y406380D01*
X318380Y406385D01*
X318375Y406395D01*
X318360Y406410D01*
X318340Y406430D01*
X318315Y406450D01*
X318280Y406480D01*
X318245Y406510D01*
X318200Y406540D01*
X318155Y406575D01*
X318100Y406610D01*
X318040Y406640D01*
X317975Y406675D01*
X317900Y406705D01*
X317825Y406735D01*
X317745Y406760D01*
X317655Y406785D01*
X317785Y407295D01*
X317790D01*
X317810Y407285D01*
D02*
G37*
G36*
Y397735D02*
X317845Y397725D01*
X317890Y397715D01*
X317940Y397695D01*
X318000Y397670D01*
X318065Y397645D01*
X318140Y397610D01*
X318215Y397575D01*
X318295Y397530D01*
X318370Y397485D01*
X318450Y397430D01*
X318530Y397375D01*
X318605Y397310D01*
X318675Y397240D01*
X318740Y397165D01*
X318745Y397160D01*
X318755Y397145D01*
X318770Y397125D01*
X318790Y397090D01*
X318815Y397050D01*
X318845Y397000D01*
X318870Y396945D01*
X318900Y396885D01*
X318935Y396810D01*
X318960Y396735D01*
X318990Y396650D01*
X319015Y396560D01*
X319035Y396465D01*
X319050Y396365D01*
X319060Y396260D01*
X319065Y396150D01*
Y396145D01*
Y396125D01*
Y396090D01*
X319060Y396045D01*
X319055Y395995D01*
X319050Y395930D01*
X319045Y395865D01*
X319035Y395790D01*
X319005Y395630D01*
X318960Y395460D01*
X318930Y395375D01*
X318895Y395290D01*
X318860Y395210D01*
X318815Y395135D01*
X318810Y395130D01*
X318805Y395120D01*
X318790Y395100D01*
X318765Y395070D01*
X318740Y395040D01*
X318710Y395000D01*
X318670Y394960D01*
X318625Y394915D01*
X318580Y394865D01*
X318525Y394820D01*
X318465Y394770D01*
X318395Y394720D01*
X318325Y394670D01*
X318250Y394625D01*
X318165Y394580D01*
X318080Y394540D01*
X318075D01*
X318060Y394530D01*
X318030Y394520D01*
X317995Y394510D01*
X317950Y394495D01*
X317900Y394475D01*
X317840Y394460D01*
X317770Y394440D01*
X317695Y394420D01*
X317615Y394405D01*
X317530Y394385D01*
X317445Y394370D01*
X317250Y394350D01*
X317050Y394340D01*
X316990D01*
X316950Y394345D01*
X316895D01*
X316835Y394350D01*
X316770Y394360D01*
X316695Y394370D01*
X316615Y394380D01*
X316530Y394395D01*
X316355Y394435D01*
X316180Y394490D01*
X316090Y394525D01*
X316005Y394565D01*
X316000Y394570D01*
X315985Y394575D01*
X315960Y394590D01*
X315930Y394610D01*
X315895Y394630D01*
X315850Y394660D01*
X315805Y394695D01*
X315750Y394735D01*
X315640Y394825D01*
X315530Y394940D01*
X315420Y395070D01*
X315370Y395145D01*
X315325Y395220D01*
X315320Y395225D01*
X315315Y395240D01*
X315305Y395265D01*
X315290Y395295D01*
X315270Y395335D01*
X315250Y395380D01*
X315230Y395435D01*
X315205Y395495D01*
X315185Y395565D01*
X315165Y395635D01*
X315125Y395795D01*
X315100Y395970D01*
X315090Y396060D01*
Y396155D01*
Y396160D01*
Y396180D01*
Y396210D01*
X315095Y396250D01*
X315100Y396300D01*
X315105Y396360D01*
X315115Y396425D01*
X315125Y396495D01*
X315160Y396645D01*
X315185Y396725D01*
X315215Y396810D01*
X315250Y396890D01*
X315285Y396970D01*
X315335Y397050D01*
X315385Y397125D01*
X315390Y397130D01*
X315400Y397140D01*
X315415Y397165D01*
X315440Y397190D01*
X315470Y397220D01*
X315505Y397260D01*
X315550Y397300D01*
X315600Y397345D01*
X315655Y397390D01*
X315715Y397435D01*
X315785Y397480D01*
X315855Y397525D01*
X315935Y397570D01*
X316020Y397610D01*
X316115Y397650D01*
X316210Y397680D01*
X316330Y397180D01*
X316325D01*
X316310Y397175D01*
X316290Y397165D01*
X316260Y397155D01*
X316225Y397140D01*
X316185Y397125D01*
X316095Y397080D01*
X315995Y397025D01*
X315895Y396960D01*
X315800Y396880D01*
X315760Y396835D01*
X315720Y396790D01*
Y396785D01*
X315710Y396780D01*
X315700Y396765D01*
X315690Y396745D01*
X315675Y396720D01*
X315660Y396690D01*
X315620Y396615D01*
X315585Y396520D01*
X315555Y396410D01*
X315535Y396285D01*
X315525Y396145D01*
Y396140D01*
Y396125D01*
Y396100D01*
X315530Y396070D01*
Y396035D01*
X315535Y395990D01*
X315545Y395940D01*
X315550Y395885D01*
X315575Y395770D01*
X315615Y395645D01*
X315670Y395520D01*
X315700Y395460D01*
X315740Y395400D01*
Y395395D01*
X315750Y395385D01*
X315760Y395370D01*
X315780Y395350D01*
X315825Y395300D01*
X315890Y395240D01*
X315970Y395170D01*
X316070Y395100D01*
X316180Y395035D01*
X316310Y394985D01*
X316315D01*
X316325Y394980D01*
X316345Y394975D01*
X316370Y394965D01*
X316405Y394955D01*
X316445Y394945D01*
X316490Y394935D01*
X316535Y394925D01*
X316650Y394905D01*
X316775Y394885D01*
X316910Y394870D01*
X317050Y394865D01*
X317130D01*
X317175Y394870D01*
X317225Y394875D01*
X317280D01*
X317340Y394885D01*
X317475Y394900D01*
X317615Y394925D01*
X317765Y394960D01*
X317905Y395005D01*
X317910D01*
X317920Y395010D01*
X317940Y395020D01*
X317965Y395035D01*
X317995Y395050D01*
X318030Y395065D01*
X318110Y395115D01*
X318200Y395180D01*
X318290Y395255D01*
X318375Y395345D01*
X318450Y395450D01*
Y395455D01*
X318460Y395465D01*
X318465Y395480D01*
X318480Y395505D01*
X318490Y395530D01*
X318505Y395565D01*
X318540Y395645D01*
X318575Y395745D01*
X318600Y395855D01*
X318620Y395975D01*
X318630Y396105D01*
Y396110D01*
Y396125D01*
Y396145D01*
X318625Y396175D01*
X318620Y396215D01*
X318615Y396255D01*
X318610Y396305D01*
X318600Y396355D01*
X318570Y396470D01*
X318525Y396590D01*
X318500Y396655D01*
X318465Y396715D01*
X318430Y396775D01*
X318385Y396830D01*
X318380Y396835D01*
X318375Y396845D01*
X318360Y396860D01*
X318340Y396880D01*
X318315Y396900D01*
X318280Y396930D01*
X318245Y396960D01*
X318200Y396990D01*
X318155Y397025D01*
X318100Y397060D01*
X318040Y397090D01*
X317975Y397125D01*
X317900Y397155D01*
X317825Y397185D01*
X317745Y397210D01*
X317655Y397235D01*
X317785Y397745D01*
X317790D01*
X317810Y397735D01*
D02*
G37*
G36*
X317895Y400220D02*
X317940D01*
X317995Y400215D01*
X318050Y400210D01*
X318170Y400195D01*
X318295Y400175D01*
X318415Y400145D01*
X318475Y400125D01*
X318525Y400105D01*
X318530D01*
X318535Y400100D01*
X318550Y400095D01*
X318570Y400085D01*
X318615Y400055D01*
X318675Y400015D01*
X318740Y399965D01*
X318805Y399900D01*
X318870Y399825D01*
X318930Y399735D01*
Y399730D01*
X318935Y399725D01*
X318940Y399710D01*
X318950Y399690D01*
X318975Y399640D01*
X318995Y399565D01*
X319020Y399480D01*
X319045Y399380D01*
X319060Y399265D01*
X319065Y399140D01*
Y399135D01*
Y399120D01*
Y399090D01*
X319060Y399055D01*
X319055Y399015D01*
X319050Y398965D01*
X319040Y398910D01*
X319030Y398855D01*
X318995Y398730D01*
X318970Y398665D01*
X318940Y398600D01*
X318910Y398535D01*
X318870Y398475D01*
X318825Y398420D01*
X318775Y398365D01*
X318770Y398360D01*
X318760Y398355D01*
X318745Y398340D01*
X318720Y398325D01*
X318690Y398305D01*
X318655Y398280D01*
X318610Y398255D01*
X318560Y398230D01*
X318500Y398210D01*
X318435Y398185D01*
X318365Y398165D01*
X318290Y398145D01*
X318205Y398130D01*
X318115Y398115D01*
X318020Y398110D01*
X317915D01*
X317850Y398570D01*
X317890D01*
X317920Y398575D01*
X317955Y398580D01*
X317995Y398585D01*
X318090Y398595D01*
X318190Y398615D01*
X318290Y398645D01*
X318380Y398680D01*
X318415Y398705D01*
X318450Y398730D01*
X318455Y398735D01*
X318475Y398760D01*
X318500Y398790D01*
X318530Y398840D01*
X318560Y398895D01*
X318585Y398965D01*
X318605Y399050D01*
X318610Y399140D01*
Y399150D01*
Y399170D01*
X318605Y399210D01*
X318600Y399255D01*
X318590Y399305D01*
X318575Y399360D01*
X318555Y399415D01*
X318525Y399470D01*
X318520Y399475D01*
X318510Y399495D01*
X318490Y399515D01*
X318460Y399545D01*
X318425Y399580D01*
X318385Y399610D01*
X318340Y399640D01*
X318285Y399660D01*
X318280Y399665D01*
X318255Y399670D01*
X318220Y399680D01*
X318170Y399690D01*
X318100Y399700D01*
X318020Y399705D01*
X317920Y399715D01*
X315155D01*
Y400225D01*
X317855D01*
X317895Y400220D01*
D02*
G37*
D11*
X314869Y375701D02*
X322335D01*
X300078Y411701D02*
X306272D01*
X300078Y375701D02*
Y411701D01*
Y375701D02*
X306272D01*
X314869Y411701D02*
X322335D01*
X385795Y425445D02*
Y428988D01*
Y425445D02*
X396031D01*
X385795Y440012D02*
Y443555D01*
X396031D01*
X364002Y344000D02*
X370000D01*
Y340001D01*
Y338002D02*
Y336003D01*
Y337002D01*
X364002D01*
X365002Y338002D01*
D30*
X460468Y381890D02*
G03*
X462043Y383465I-0J1575D01*
G01*
X462043Y386535D02*
G03*
X460468Y388110I-1575J0D01*
G01*
X451532Y388110D02*
G03*
X449957Y386535I0J-1575D01*
G01*
Y383465D02*
G03*
X451532Y381890I1575J0D01*
G01*
X444969Y406390D02*
G03*
X446543Y407965I-0J1575D01*
G01*
X446543Y411035D02*
G03*
X444969Y412610I-1575J0D01*
G01*
X436031Y412610D02*
G03*
X434457Y411035I0J-1575D01*
G01*
Y407965D02*
G03*
X436031Y406390I1575J0D01*
G01*
X444969Y381390D02*
G03*
X446543Y382965I-0J1575D01*
G01*
X446543Y386035D02*
G03*
X444969Y387610I-1575J0D01*
G01*
X436031Y387610D02*
G03*
X434457Y386035I0J-1575D01*
G01*
Y382965D02*
G03*
X436031Y381390I1575J0D01*
G01*
X403390Y433032D02*
G03*
X404965Y431457I1575J0D01*
G01*
X408035Y431457D02*
G03*
X409610Y433032I0J1575D01*
G01*
X409610Y441968D02*
G03*
X408035Y443543I-1575J-0D01*
G01*
X404965D02*
G03*
X403390Y441968I0J-1575D01*
G01*
X372890Y433032D02*
G03*
X374465Y431457I1575J0D01*
G01*
X377535Y431457D02*
G03*
X379110Y433032I0J1575D01*
G01*
X379110Y441968D02*
G03*
X377535Y443543I-1575J-0D01*
G01*
X374465D02*
G03*
X372890Y441968I0J-1575D01*
G01*
X406575Y364894D02*
G03*
X405000Y366469I-1575J-0D01*
G01*
X400000Y366469D02*
G03*
X398425Y364894I0J-1575D01*
G01*
X398425Y354106D02*
G03*
X400000Y352532I1575J0D01*
G01*
X405000Y352532D02*
G03*
X406575Y354106I0J1575D01*
G01*
X407925Y354106D02*
G03*
X409500Y352532I1575J0D01*
G01*
X414500Y352532D02*
G03*
X416075Y354106I0J1575D01*
G01*
X416075Y364894D02*
G03*
X414500Y366469I-1575J0D01*
G01*
X409500Y366469D02*
G03*
X407925Y364894I0J-1575D01*
G01*
X377925Y354106D02*
G03*
X379500Y352532I1575J0D01*
G01*
X384500Y352532D02*
G03*
X386075Y354106I0J1575D01*
G01*
X386075Y364894D02*
G03*
X384500Y366469I-1575J0D01*
G01*
X379500Y366469D02*
G03*
X377925Y364894I0J-1575D01*
G01*
X387425Y354106D02*
G03*
X389000Y352532I1575J0D01*
G01*
X394000Y352532D02*
G03*
X395575Y354106I0J1575D01*
G01*
X395575Y364894D02*
G03*
X394000Y366469I-1575J0D01*
G01*
X389000Y366469D02*
G03*
X387425Y364894I0J-1575D01*
G01*
X353575Y334394D02*
G03*
X352000Y335968I-1575J-0D01*
G01*
X347000Y335968D02*
G03*
X345425Y334394I0J-1575D01*
G01*
X345425Y323606D02*
G03*
X347000Y322031I1575J0D01*
G01*
X352000Y322031D02*
G03*
X353575Y323606I0J1575D01*
G01*
X345425Y346606D02*
G03*
X347000Y345031I1575J0D01*
G01*
X352000Y345031D02*
G03*
X353575Y346606I0J1575D01*
G01*
X353575Y357394D02*
G03*
X352000Y358968I-1575J0D01*
G01*
X347000Y358968D02*
G03*
X345425Y357394I0J-1575D01*
G01*
X387110Y323969D02*
G03*
X385535Y325543I-1575J-0D01*
G01*
X382465Y325543D02*
G03*
X380890Y323969I0J-1575D01*
G01*
X380890Y315032D02*
G03*
X382465Y313457I1575J0D01*
G01*
X385535D02*
G03*
X387110Y315032I0J1575D01*
G01*
X381390Y334531D02*
G03*
X382965Y332957I1575J0D01*
G01*
X386035Y332957D02*
G03*
X387610Y334531I0J1575D01*
G01*
X387610Y343468D02*
G03*
X386035Y345043I-1575J-0D01*
G01*
X382965D02*
G03*
X381390Y343468I0J-1575D01*
G01*
X417110Y431457D02*
Y435925D01*
X410890Y443543D02*
X417110D01*
X410890Y431457D02*
X417110D01*
Y439075D02*
Y443543D01*
X410890Y431457D02*
Y435925D01*
Y439075D02*
Y443543D01*
X457075Y427610D02*
X461543D01*
X449457Y421390D02*
Y427610D01*
X461543Y421390D02*
Y427610D01*
X449457D02*
X453925D01*
X457075Y421390D02*
X461543D01*
X449457D02*
X453925D01*
X462102Y369531D02*
Y373468D01*
X449898Y369531D02*
Y373468D01*
Y369531D02*
X462102D01*
X449898Y373468D02*
X462102D01*
X457075Y412610D02*
X461543D01*
X449457Y406390D02*
Y412610D01*
X461543Y406390D02*
Y412610D01*
X449457D02*
X453925D01*
X457075Y406390D02*
X461543D01*
X449457D02*
X453925D01*
X451532Y381890D02*
X454425D01*
X462043Y383465D02*
Y386535D01*
X449957Y383465D02*
Y386535D01*
X457575Y381890D02*
X460468D01*
X457575Y388110D02*
X460468D01*
X451532Y388110D02*
X454425D01*
X449457Y413890D02*
X453925D01*
X461543D02*
Y420110D01*
X449457Y413890D02*
Y420110D01*
X457075Y413890D02*
X461543D01*
X449457Y420110D02*
X453925D01*
X457075D02*
X461543D01*
X450095Y398681D02*
X461905D01*
X450095Y396319D02*
X461905D01*
X450095D02*
Y398681D01*
X461905Y396319D02*
Y398681D01*
X434457Y413890D02*
X438925D01*
X446543D02*
Y420110D01*
X434457Y413890D02*
Y420110D01*
X442075Y413890D02*
X446543D01*
X434457Y420110D02*
X438925D01*
X442075D02*
X446543D01*
X442075Y427610D02*
X446543D01*
X434457Y421390D02*
Y427610D01*
X446543Y421390D02*
Y427610D01*
X434457D02*
X438925D01*
X442075Y421390D02*
X446543D01*
X434457D02*
X438925D01*
X436031Y406390D02*
X438925D01*
X446543Y407965D02*
Y411035D01*
X434457Y407965D02*
Y411035D01*
X442075Y406390D02*
X444969D01*
X442075Y412610D02*
X444969D01*
X436031Y412610D02*
X438925D01*
X436031Y381390D02*
X438925D01*
X446543Y382965D02*
Y386035D01*
X434457Y382965D02*
Y386035D01*
X442075Y381390D02*
X444969D01*
X442075Y387610D02*
X444969D01*
X436031Y387610D02*
X438925D01*
X446102Y369531D02*
Y373468D01*
X433898Y369531D02*
Y373468D01*
Y369531D02*
X446102D01*
X433898Y373468D02*
X446102D01*
X446602Y395532D02*
Y399468D01*
X434398Y395532D02*
Y399468D01*
Y395532D02*
X446602D01*
X434398Y399468D02*
X446602D01*
X403390Y439075D02*
Y441968D01*
X404965Y431457D02*
X408035D01*
X404965Y443543D02*
X408035D01*
X403390Y433032D02*
Y435925D01*
X409610Y433032D02*
Y435925D01*
X409610Y439075D02*
Y441968D01*
X372890Y439075D02*
Y441968D01*
X374465Y431457D02*
X377535D01*
X374465Y443543D02*
X377535D01*
X372890Y433032D02*
Y435925D01*
X379110Y433032D02*
Y435925D01*
X379110Y439075D02*
Y441968D01*
X418610Y329957D02*
Y334425D01*
X412390Y342043D02*
X418610D01*
X412390Y329957D02*
X418610D01*
Y337575D02*
Y342043D01*
X412390Y329957D02*
Y334425D01*
Y337575D02*
Y342043D01*
X402610Y313457D02*
Y317925D01*
X396390Y325543D02*
X402610D01*
X396390Y313457D02*
X402610D01*
Y321075D02*
Y325543D01*
X396390Y313457D02*
Y317925D01*
Y321075D02*
Y325543D01*
X395110Y313457D02*
Y317925D01*
X388890Y325543D02*
X395110D01*
X388890Y313457D02*
X395110D01*
Y321075D02*
Y325543D01*
X388890Y313457D02*
Y317925D01*
Y321075D02*
Y325543D01*
X410610Y313457D02*
Y317925D01*
X404390Y325543D02*
X410610D01*
X404390Y313457D02*
X410610D01*
Y321075D02*
Y325543D01*
X404390Y313457D02*
Y317925D01*
Y321075D02*
Y325543D01*
X418610Y313457D02*
Y317925D01*
X412390Y325543D02*
X418610D01*
X412390Y313457D02*
X418610D01*
Y321075D02*
Y325543D01*
X412390Y313457D02*
Y317925D01*
Y321075D02*
Y325543D01*
X406575Y354106D02*
Y357728D01*
Y361272D02*
Y364894D01*
X398425Y361272D02*
Y364894D01*
X400000Y366469D02*
X405000D01*
X398425Y354106D02*
Y357728D01*
X400000Y352532D02*
X405000D01*
X407925Y361272D02*
Y364894D01*
Y354106D02*
Y357728D01*
X416075Y354106D02*
Y357728D01*
X409500Y352532D02*
X414500D01*
X416075Y361272D02*
Y364894D01*
X409500Y366469D02*
X414500D01*
X377925Y361272D02*
Y364894D01*
Y354106D02*
Y357728D01*
X386075Y354106D02*
Y357728D01*
X379500Y352532D02*
X384500D01*
X386075Y361272D02*
Y364894D01*
X379500Y366469D02*
X384500D01*
X387425Y361272D02*
Y364894D01*
Y354106D02*
Y357728D01*
X395575Y354106D02*
Y357728D01*
X389000Y352532D02*
X394000D01*
X395575Y361272D02*
Y364894D01*
X389000Y366469D02*
X394000D01*
X354680Y326687D02*
Y352513D01*
Y326687D02*
X379720D01*
X354680Y352513D02*
X379720D01*
Y326687D02*
Y352513D01*
X353075Y403110D02*
X357543D01*
X345457Y396890D02*
Y403110D01*
X357543Y396890D02*
Y403110D01*
X345457D02*
X349925D01*
X353075Y396890D02*
X357543D01*
X345457D02*
X349925D01*
X353075Y388110D02*
X357543D01*
X345457Y381890D02*
Y388110D01*
X357543Y381890D02*
Y388110D01*
X345457D02*
X349925D01*
X353075Y381890D02*
X357543D01*
X345457D02*
X349925D01*
X353575Y323606D02*
Y327228D01*
Y330772D02*
Y334394D01*
X345425Y330772D02*
Y334394D01*
X347000Y335968D02*
X352000D01*
X345425Y323606D02*
Y327228D01*
X347000Y322031D02*
X352000D01*
X345425Y353772D02*
Y357394D01*
Y346606D02*
Y350228D01*
X353575Y346606D02*
Y350228D01*
X347000Y345031D02*
X352000D01*
X353575Y353772D02*
Y357394D01*
X347000Y358968D02*
X352000D01*
X387110Y315032D02*
Y317925D01*
X382465Y325543D02*
X385535D01*
X382465Y313457D02*
X385535D01*
X387110Y321075D02*
Y323969D01*
X380890Y321075D02*
Y323969D01*
X380890Y315032D02*
Y317925D01*
X373390Y321075D02*
Y325543D01*
Y313457D02*
X379610D01*
X373390Y325543D02*
X379610D01*
X373390Y313457D02*
Y317925D01*
X379610Y321075D02*
Y325543D01*
Y313457D02*
Y317925D01*
X381390Y340575D02*
Y343468D01*
X382965Y332957D02*
X386035D01*
X382965Y345043D02*
X386035D01*
X381390Y334531D02*
Y337425D01*
X387610Y334531D02*
Y337425D01*
X387610Y340575D02*
Y343468D01*
X408661Y346988D02*
Y348661D01*
X406988D02*
X408661D01*
X391339D02*
X393012D01*
X391339Y346988D02*
Y348661D01*
Y331339D02*
Y333012D01*
Y331339D02*
X393012D01*
X408661D02*
Y333012D01*
X406988Y331339D02*
X408661D01*
D38*
X463579Y366087D02*
G03*
X463579Y366087I-492J0D01*
G01*
Y392776D02*
G03*
X463579Y392776I-492J0D01*
G01*
X447579Y366087D02*
G03*
X447579Y366087I-492J0D01*
G01*
X448079Y392087D02*
G03*
X448079Y392087I-492J0D01*
G01*
X411713Y348071D02*
G03*
X411713Y348071I-492J0D01*
G01*
%TF.MD5,05685F8ACAC63B9BC42CFA3CE5DE9A37*%
M02*
