G04 Layer_Color=2752767*
%FSLAX25Y25*%
%MOIN*%
%TF.FileFunction,Drawing*%
%TF.Part,Single*%
G01*
G75*
%ADD55C,0.00500*%
%ADD56C,0.00667*%
D55*
X325028Y374693D02*
Y378693D01*
X329028D01*
Y374693D01*
X325028D01*
X325028Y408709D02*
Y412709D01*
X329028D01*
Y408709D01*
X325028D01*
X324941Y380323D02*
X322941Y384323D01*
X326941D01*
X324941Y380323D01*
Y403079D02*
X322941Y407079D01*
X326941D01*
X324941Y403079D01*
X393701Y391701D02*
X394701Y392701D01*
X395701D01*
X394701Y393701D01*
X395701Y394701D01*
X394701D01*
X393701Y395701D01*
X392701Y394701D01*
X391701D01*
X392701Y393701D01*
X391701Y392701D01*
X392701D01*
X393701Y391701D01*
X405500Y348000D02*
X406500Y350000D01*
X405500Y352000D01*
X407500Y351000D01*
X409500Y352000D01*
X408500Y350000D01*
X409500Y348000D01*
X407500Y349000D01*
X405500Y348000D01*
X407500D02*
X408500Y350000D01*
X407500Y352000D01*
X409500Y351000D01*
X411500Y352000D01*
X410500Y350000D01*
X411500Y348000D01*
X409500Y349000D01*
X407500Y348000D01*
X409500D02*
X410500Y350000D01*
X409500Y352000D01*
X411500Y351000D01*
X413500Y352000D01*
X412500Y350000D01*
X413500Y348000D01*
X411500Y349000D01*
X409500Y348000D01*
X365000Y361000D02*
X366000Y363000D01*
X365000Y365000D01*
X367000Y364000D01*
X369000Y365000D01*
X368000Y363000D01*
X369000Y361000D01*
X367000Y362000D01*
X365000Y361000D01*
Y363000D02*
X366000Y365000D01*
X365000Y367000D01*
X367000Y366000D01*
X369000Y367000D01*
X368000Y365000D01*
X369000Y363000D01*
X367000Y364000D01*
X365000Y363000D01*
Y359000D02*
X366000Y361000D01*
X365000Y363000D01*
X367000Y362000D01*
X369000Y363000D01*
X368000Y361000D01*
X369000Y359000D01*
X367000Y360000D01*
X365000Y359000D01*
Y357000D02*
X366000Y359000D01*
X365000Y361000D01*
X367000Y360000D01*
X369000Y361000D01*
X368000Y359000D01*
X369000Y357000D01*
X367000Y358000D01*
X365000Y357000D01*
Y355000D02*
X366000Y357000D01*
X365000Y359000D01*
X367000Y358000D01*
X369000Y359000D01*
X368000Y357000D01*
X369000Y355000D01*
X367000Y356000D01*
X365000Y355000D01*
X373000D02*
X374000Y357000D01*
X373000Y359000D01*
X375000Y358000D01*
X377000Y359000D01*
X376000Y357000D01*
X377000Y355000D01*
X375000Y356000D01*
X373000Y355000D01*
X371000D02*
X372000Y357000D01*
X371000Y359000D01*
X373000Y358000D01*
X375000Y359000D01*
X374000Y357000D01*
X375000Y355000D01*
X373000Y356000D01*
X371000Y355000D01*
X369000D02*
X370000Y357000D01*
X369000Y359000D01*
X371000Y358000D01*
X373000Y359000D01*
X372000Y357000D01*
X373000Y355000D01*
X371000Y356000D01*
X369000Y355000D01*
X367000D02*
X368000Y357000D01*
X367000Y359000D01*
X369000Y358000D01*
X371000Y359000D01*
X370000Y357000D01*
X371000Y355000D01*
X369000Y356000D01*
X367000Y355000D01*
Y363000D02*
X368000Y365000D01*
X367000Y367000D01*
X369000Y366000D01*
X371000Y367000D01*
X370000Y365000D01*
X371000Y363000D01*
X369000Y364000D01*
X367000Y363000D01*
Y361000D02*
X368000Y363000D01*
X367000Y365000D01*
X369000Y364000D01*
X371000Y365000D01*
X370000Y363000D01*
X371000Y361000D01*
X369000Y362000D01*
X367000Y361000D01*
Y359000D02*
X368000Y361000D01*
X367000Y363000D01*
X369000Y362000D01*
X371000Y363000D01*
X370000Y361000D01*
X371000Y359000D01*
X369000Y360000D01*
X367000Y359000D01*
Y357000D02*
X368000Y359000D01*
X367000Y361000D01*
X369000Y360000D01*
X371000Y361000D01*
X370000Y359000D01*
X371000Y357000D01*
X369000Y358000D01*
X367000Y357000D01*
X369000D02*
X370000Y359000D01*
X369000Y361000D01*
X371000Y360000D01*
X373000Y361000D01*
X372000Y359000D01*
X373000Y357000D01*
X371000Y358000D01*
X369000Y357000D01*
X371000D02*
X372000Y359000D01*
X371000Y361000D01*
X373000Y360000D01*
X375000Y361000D01*
X374000Y359000D01*
X375000Y357000D01*
X373000Y358000D01*
X371000Y357000D01*
X373000D02*
X374000Y359000D01*
X373000Y361000D01*
X375000Y360000D01*
X377000Y361000D01*
X376000Y359000D01*
X377000Y357000D01*
X375000Y358000D01*
X373000Y357000D01*
X310000Y383500D02*
X311000Y385500D01*
X310000Y387500D01*
X312000Y386500D01*
X314000Y387500D01*
X313000Y385500D01*
X314000Y383500D01*
X312000Y384500D01*
X310000Y383500D01*
X308000D02*
X309000Y385500D01*
X308000Y387500D01*
X310000Y386500D01*
X312000Y387500D01*
X311000Y385500D01*
X312000Y383500D01*
X310000Y384500D01*
X308000Y383500D01*
X306000D02*
X307000Y385500D01*
X306000Y387500D01*
X308000Y386500D01*
X310000Y387500D01*
X309000Y385500D01*
X310000Y383500D01*
X308000Y384500D01*
X306000Y383500D01*
Y385500D02*
X307000Y387500D01*
X306000Y389500D01*
X308000Y388500D01*
X310000Y389500D01*
X309000Y387500D01*
X310000Y385500D01*
X308000Y386500D01*
X306000Y385500D01*
X308000D02*
X309000Y387500D01*
X308000Y389500D01*
X310000Y388500D01*
X312000Y389500D01*
X311000Y387500D01*
X312000Y385500D01*
X310000Y386500D01*
X308000Y385500D01*
X310000D02*
X311000Y387500D01*
X310000Y389500D01*
X312000Y388500D01*
X314000Y389500D01*
X313000Y387500D01*
X314000Y385500D01*
X312000Y386500D01*
X310000Y385500D01*
Y387500D02*
X311000Y389500D01*
X310000Y391500D01*
X312000Y390500D01*
X314000Y391500D01*
X313000Y389500D01*
X314000Y387500D01*
X312000Y388500D01*
X310000Y387500D01*
X308000D02*
X309000Y389500D01*
X308000Y391500D01*
X310000Y390500D01*
X312000Y391500D01*
X311000Y389500D01*
X312000Y387500D01*
X310000Y388500D01*
X308000Y387500D01*
X306000D02*
X307000Y389500D01*
X306000Y391500D01*
X308000Y390500D01*
X310000Y391500D01*
X309000Y389500D01*
X310000Y387500D01*
X308000Y388500D01*
X306000Y387500D01*
Y389500D02*
X307000Y391500D01*
X306000Y393500D01*
X308000Y392500D01*
X310000Y393500D01*
X309000Y391500D01*
X310000Y389500D01*
X308000Y390500D01*
X306000Y389500D01*
X308000D02*
X309000Y391500D01*
X308000Y393500D01*
X310000Y392500D01*
X312000Y393500D01*
X311000Y391500D01*
X312000Y389500D01*
X310000Y390500D01*
X308000Y389500D01*
X310000D02*
X311000Y391500D01*
X310000Y393500D01*
X312000Y392500D01*
X314000Y393500D01*
X313000Y391500D01*
X314000Y389500D01*
X312000Y390500D01*
X310000Y389500D01*
Y397500D02*
X311000Y399500D01*
X310000Y401500D01*
X312000Y400500D01*
X314000Y401500D01*
X313000Y399500D01*
X314000Y397500D01*
X312000Y398500D01*
X310000Y397500D01*
X308000D02*
X309000Y399500D01*
X308000Y401500D01*
X310000Y400500D01*
X312000Y401500D01*
X311000Y399500D01*
X312000Y397500D01*
X310000Y398500D01*
X308000Y397500D01*
X306000D02*
X307000Y399500D01*
X306000Y401500D01*
X308000Y400500D01*
X310000Y401500D01*
X309000Y399500D01*
X310000Y397500D01*
X308000Y398500D01*
X306000Y397500D01*
Y395500D02*
X307000Y397500D01*
X306000Y399500D01*
X308000Y398500D01*
X310000Y399500D01*
X309000Y397500D01*
X310000Y395500D01*
X308000Y396500D01*
X306000Y395500D01*
Y393500D02*
X307000Y395500D01*
X306000Y397500D01*
X308000Y396500D01*
X310000Y397500D01*
X309000Y395500D01*
X310000Y393500D01*
X308000Y394500D01*
X306000Y393500D01*
Y391500D02*
X307000Y393500D01*
X306000Y395500D01*
X308000Y394500D01*
X310000Y395500D01*
X309000Y393500D01*
X310000Y391500D01*
X308000Y392500D01*
X306000Y391500D01*
X308000D02*
X309000Y393500D01*
X308000Y395500D01*
X310000Y394500D01*
X312000Y395500D01*
X311000Y393500D01*
X312000Y391500D01*
X310000Y392500D01*
X308000Y391500D01*
X310000D02*
X311000Y393500D01*
X310000Y395500D01*
X312000Y394500D01*
X314000Y395500D01*
X313000Y393500D01*
X314000Y391500D01*
X312000Y392500D01*
X310000Y391500D01*
Y393500D02*
X311000Y395500D01*
X310000Y397500D01*
X312000Y396500D01*
X314000Y397500D01*
X313000Y395500D01*
X314000Y393500D01*
X312000Y394500D01*
X310000Y393500D01*
X308000D02*
X309000Y395500D01*
X308000Y397500D01*
X310000Y396500D01*
X312000Y397500D01*
X311000Y395500D01*
X312000Y393500D01*
X310000Y394500D01*
X308000Y393500D01*
Y395500D02*
X309000Y397500D01*
X308000Y399500D01*
X310000Y398500D01*
X312000Y399500D01*
X311000Y397500D01*
X312000Y395500D01*
X310000Y396500D01*
X308000Y395500D01*
X310000D02*
X311000Y397500D01*
X310000Y399500D01*
X312000Y398500D01*
X314000Y399500D01*
X313000Y397500D01*
X314000Y395500D01*
X312000Y396500D01*
X310000Y395500D01*
X333000Y401000D02*
X334000Y403000D01*
X333000Y405000D01*
X335000Y404000D01*
X337000Y405000D01*
X336000Y403000D01*
X337000Y401000D01*
X335000Y402000D01*
X333000Y401000D01*
X337000D02*
X338000Y403000D01*
X337000Y405000D01*
X339000Y404000D01*
X341000Y405000D01*
X340000Y403000D01*
X341000Y401000D01*
X339000Y402000D01*
X337000Y401000D01*
X335000D02*
X336000Y403000D01*
X335000Y405000D01*
X337000Y404000D01*
X339000Y405000D01*
X338000Y403000D01*
X339000Y401000D01*
X337000Y402000D01*
X335000Y401000D01*
Y418000D02*
X336000Y420000D01*
X335000Y422000D01*
X337000Y421000D01*
X339000Y422000D01*
X338000Y420000D01*
X339000Y418000D01*
X337000Y419000D01*
X335000Y418000D01*
X337000D02*
X338000Y420000D01*
X337000Y422000D01*
X339000Y421000D01*
X341000Y422000D01*
X340000Y420000D01*
X341000Y418000D01*
X339000Y419000D01*
X337000Y418000D01*
Y420000D02*
X338000Y422000D01*
X337000Y424000D01*
X339000Y423000D01*
X341000Y424000D01*
X340000Y422000D01*
X341000Y420000D01*
X339000Y421000D01*
X337000Y420000D01*
X335000D02*
X336000Y422000D01*
X335000Y424000D01*
X337000Y423000D01*
X339000Y424000D01*
X338000Y422000D01*
X339000Y420000D01*
X337000Y421000D01*
X335000Y420000D01*
X317500Y395500D02*
X318500Y397500D01*
X317500Y399500D01*
X319500Y398500D01*
X321500Y399500D01*
X320500Y397500D01*
X321500Y395500D01*
X319500Y396500D01*
X317500Y395500D01*
X318593Y390407D02*
X319593Y392407D01*
X318593Y394407D01*
X320593Y393407D01*
X322593Y394407D01*
X321593Y392407D01*
X322593Y390407D01*
X320593Y391407D01*
X318593Y390407D01*
X342500Y383000D02*
X343500Y385000D01*
X342500Y387000D01*
X344500Y386000D01*
X346500Y387000D01*
X345500Y385000D01*
X346500Y383000D01*
X344500Y384000D01*
X342500Y383000D01*
X342000Y398000D02*
X343000Y400000D01*
X342000Y402000D01*
X344000Y401000D01*
X346000Y402000D01*
X345000Y400000D01*
X346000Y398000D01*
X344000Y399000D01*
X342000Y398000D01*
X322000Y397500D02*
X323000Y399500D01*
X322000Y401500D01*
X324000Y400500D01*
X326000Y401500D01*
X325000Y399500D01*
X326000Y397500D01*
X324000Y398500D01*
X322000Y397500D01*
X320500Y385500D02*
X321500Y387500D01*
X320500Y389500D01*
X322500Y388500D01*
X324500Y389500D01*
X323500Y387500D01*
X324500Y385500D01*
X322500Y386500D01*
X320500Y385500D01*
X322000Y392557D02*
X323000Y394557D01*
X322000Y396557D01*
X324000Y395557D01*
X326000Y396557D01*
X325000Y394557D01*
X326000Y392557D01*
X324000Y393557D01*
X322000Y392557D01*
X446000Y422500D02*
X447000Y424500D01*
X446000Y426500D01*
X448000Y425500D01*
X450000Y426500D01*
X449000Y424500D01*
X450000Y422500D01*
X448000Y423500D01*
X446000Y422500D01*
X315500Y378000D02*
X316500Y380000D01*
X315500Y382000D01*
X317500Y381000D01*
X319500Y382000D01*
X318500Y380000D01*
X319500Y378000D01*
X317500Y379000D01*
X315500Y378000D01*
X317500D02*
X318500Y380000D01*
X317500Y382000D01*
X319500Y381000D01*
X321500Y382000D01*
X320500Y380000D01*
X321500Y378000D01*
X319500Y379000D01*
X317500Y378000D01*
X388669Y460331D02*
X389669Y462331D01*
X388669Y464331D01*
X390669Y463331D01*
X392669Y464331D01*
X391669Y462331D01*
X392669Y460331D01*
X390669Y461331D01*
X388669Y460331D01*
X449000Y370000D02*
X450000Y372000D01*
X449000Y374000D01*
X451000Y373000D01*
X453000Y374000D01*
X452000Y372000D01*
X453000Y370000D01*
X451000Y371000D01*
X449000Y370000D01*
X427000Y414000D02*
X428000Y416000D01*
X427000Y418000D01*
X429000Y417000D01*
X431000Y418000D01*
X430000Y416000D01*
X431000Y414000D01*
X429000Y415000D01*
X427000Y414000D01*
X430500Y420500D02*
X431500Y422500D01*
X430500Y424500D01*
X432500Y423500D01*
X434500Y424500D01*
X433500Y422500D01*
X434500Y420500D01*
X432500Y421500D01*
X430500Y420500D01*
X388669Y421669D02*
X389669Y423669D01*
X388669Y425669D01*
X390669Y424669D01*
X392669Y425669D01*
X391669Y423669D01*
X392669Y421669D01*
X390669Y422669D01*
X388669Y421669D01*
X398500Y457000D02*
X399500Y459000D01*
X398500Y461000D01*
X400500Y460000D01*
X402500Y461000D01*
X401500Y459000D01*
X402500Y457000D01*
X400500Y458000D01*
X398500Y457000D01*
X399500Y430000D02*
X400500Y432000D01*
X399500Y434000D01*
X401500Y433000D01*
X403500Y434000D01*
X402500Y432000D01*
X403500Y430000D01*
X401500Y431000D01*
X399500Y430000D01*
X455776Y400224D02*
X456776Y402224D01*
X455776Y404224D01*
X457776Y403224D01*
X459776Y404224D01*
X458776Y402224D01*
X459776Y400224D01*
X457776Y401224D01*
X455776Y400224D01*
X456531Y419031D02*
X457531Y421032D01*
X456531Y423032D01*
X458532Y422031D01*
X460532Y423032D01*
X459531Y421032D01*
X460532Y419031D01*
X458532Y420031D01*
X456531Y419031D01*
X450468Y417969D02*
X451469Y419969D01*
X450468Y421969D01*
X452468Y420968D01*
X454468Y421969D01*
X453469Y419969D01*
X454468Y417969D01*
X452468Y418968D01*
X450468Y417969D01*
X460000Y383000D02*
X461000Y385000D01*
X460000Y387000D01*
X462000Y386000D01*
X464000Y387000D01*
X463000Y385000D01*
X464000Y383000D01*
X462000Y384000D01*
X460000Y383000D01*
X450969Y379532D02*
X451968Y381532D01*
X450969Y383531D01*
X452969Y382531D01*
X454969Y383531D01*
X453968Y381532D01*
X454969Y379532D01*
X452969Y380532D01*
X450969Y379532D01*
X406000Y425500D02*
X407000Y427500D01*
X406000Y429500D01*
X408000Y428500D01*
X410000Y429500D01*
X409000Y427500D01*
X410000Y425500D01*
X408000Y426500D01*
X406000Y425500D01*
X429500Y340000D02*
X430500Y342000D01*
X429500Y344000D01*
X431500Y343000D01*
X433500Y344000D01*
X432500Y342000D01*
X433500Y340000D01*
X431500Y341000D01*
X429500Y340000D01*
Y331500D02*
X430500Y333500D01*
X429500Y335500D01*
X431500Y334500D01*
X433500Y335500D01*
X432500Y333500D01*
X433500Y331500D01*
X431500Y332500D01*
X429500Y331500D01*
X445000Y407500D02*
X446000Y409500D01*
X445000Y411500D01*
X447000Y410500D01*
X449000Y411500D01*
X448000Y409500D01*
X449000Y407500D01*
X447000Y408500D01*
X445000Y407500D01*
Y382500D02*
X446000Y384500D01*
X445000Y386500D01*
X447000Y385500D01*
X449000Y386500D01*
X448000Y384500D01*
X449000Y382500D01*
X447000Y383500D01*
X445000Y382500D01*
X436913Y374913D02*
X437913Y376913D01*
X436913Y378913D01*
X438913Y377913D01*
X440913Y378913D01*
X439913Y376913D01*
X440913Y374913D01*
X438913Y375913D01*
X436913Y374913D01*
X442240Y393240D02*
X443240Y395240D01*
X442240Y397240D01*
X444240Y396240D01*
X446240Y397240D01*
X445240Y395240D01*
X446240Y393240D01*
X444240Y394240D01*
X442240Y393240D01*
X421500Y323500D02*
X422500Y325500D01*
X421500Y327500D01*
X423500Y326500D01*
X425500Y327500D01*
X424500Y325500D01*
X425500Y323500D01*
X423500Y324500D01*
X421500Y323500D01*
X418500Y335500D02*
X419500Y337500D01*
X418500Y339500D01*
X420500Y338500D01*
X422500Y339500D01*
X421500Y337500D01*
X422500Y335500D01*
X420500Y336500D01*
X418500Y335500D01*
X407500Y330500D02*
X408500Y332500D01*
X407500Y334500D01*
X409500Y333500D01*
X411500Y334500D01*
X410500Y332500D01*
X411500Y330500D01*
X409500Y331500D01*
X407500Y330500D01*
X342000Y387500D02*
X343000Y389500D01*
X342000Y391500D01*
X344000Y390500D01*
X346000Y391500D01*
X345000Y389500D01*
X346000Y387500D01*
X344000Y388500D01*
X342000Y387500D01*
X404000Y425500D02*
X405000Y427500D01*
X404000Y429500D01*
X406000Y428500D01*
X408000Y429500D01*
X407000Y427500D01*
X408000Y425500D01*
X406000Y426500D01*
X404000Y425500D01*
X389000Y328000D02*
X390000Y330000D01*
X389000Y332000D01*
X391000Y331000D01*
X393000Y332000D01*
X392000Y330000D01*
X393000Y328000D01*
X391000Y329000D01*
X389000Y328000D01*
X416500Y330000D02*
X417500Y332000D01*
X416500Y334000D01*
X418500Y333000D01*
X420500Y334000D01*
X419500Y332000D01*
X420500Y330000D01*
X418500Y331000D01*
X416500Y330000D01*
Y332000D02*
X417500Y334000D01*
X416500Y336000D01*
X418500Y335000D01*
X420500Y336000D01*
X419500Y334000D01*
X420500Y332000D01*
X418500Y333000D01*
X416500Y332000D01*
X418500Y330000D02*
X419500Y332000D01*
X418500Y334000D01*
X420500Y333000D01*
X422500Y334000D01*
X421500Y332000D01*
X422500Y330000D01*
X420500Y331000D01*
X418500Y330000D01*
Y332000D02*
X419500Y334000D01*
X418500Y336000D01*
X420500Y335000D01*
X422500Y336000D01*
X421500Y334000D01*
X422500Y332000D01*
X420500Y333000D01*
X418500Y332000D01*
X392000Y325500D02*
X393000Y327500D01*
X392000Y329500D01*
X394000Y328500D01*
X396000Y329500D01*
X395000Y327500D01*
X396000Y325500D01*
X394000Y326500D01*
X392000Y325500D01*
X369000Y359000D02*
X370000Y361000D01*
X369000Y363000D01*
X371000Y362000D01*
X373000Y363000D01*
X372000Y361000D01*
X373000Y359000D01*
X371000Y360000D01*
X369000Y359000D01*
Y361000D02*
X370000Y363000D01*
X369000Y365000D01*
X371000Y364000D01*
X373000Y365000D01*
X372000Y363000D01*
X373000Y361000D01*
X371000Y362000D01*
X369000Y361000D01*
Y363000D02*
X370000Y365000D01*
X369000Y367000D01*
X371000Y366000D01*
X373000Y367000D01*
X372000Y365000D01*
X373000Y363000D01*
X371000Y364000D01*
X369000Y363000D01*
X371000D02*
X372000Y365000D01*
X371000Y367000D01*
X373000Y366000D01*
X375000Y367000D01*
X374000Y365000D01*
X375000Y363000D01*
X373000Y364000D01*
X371000Y363000D01*
Y361000D02*
X372000Y363000D01*
X371000Y365000D01*
X373000Y364000D01*
X375000Y365000D01*
X374000Y363000D01*
X375000Y361000D01*
X373000Y362000D01*
X371000Y361000D01*
Y359000D02*
X372000Y361000D01*
X371000Y363000D01*
X373000Y362000D01*
X375000Y363000D01*
X374000Y361000D01*
X375000Y359000D01*
X373000Y360000D01*
X371000Y359000D01*
X373000D02*
X374000Y361000D01*
X373000Y363000D01*
X375000Y362000D01*
X377000Y363000D01*
X376000Y361000D01*
X377000Y359000D01*
X375000Y360000D01*
X373000Y359000D01*
Y361000D02*
X374000Y363000D01*
X373000Y365000D01*
X375000Y364000D01*
X377000Y365000D01*
X376000Y363000D01*
X377000Y361000D01*
X375000Y362000D01*
X373000Y361000D01*
Y363000D02*
X374000Y365000D01*
X373000Y367000D01*
X375000Y366000D01*
X377000Y367000D01*
X376000Y365000D01*
X377000Y363000D01*
X375000Y364000D01*
X373000Y363000D01*
X401000Y335500D02*
X402000Y337500D01*
X401000Y339500D01*
X403000Y338500D01*
X405000Y339500D01*
X404000Y337500D01*
X405000Y335500D01*
X403000Y336500D01*
X401000Y335500D01*
X399000D02*
X400000Y337500D01*
X399000Y339500D01*
X401000Y338500D01*
X403000Y339500D01*
X402000Y337500D01*
X403000Y335500D01*
X401000Y336500D01*
X399000Y335500D01*
Y337500D02*
X400000Y339500D01*
X399000Y341500D01*
X401000Y340500D01*
X403000Y341500D01*
X402000Y339500D01*
X403000Y337500D01*
X401000Y338500D01*
X399000Y337500D01*
X401000D02*
X402000Y339500D01*
X401000Y341500D01*
X403000Y340500D01*
X405000Y341500D01*
X404000Y339500D01*
X405000Y337500D01*
X403000Y338500D01*
X401000Y337500D01*
Y339500D02*
X402000Y341500D01*
X401000Y343500D01*
X403000Y342500D01*
X405000Y343500D01*
X404000Y341500D01*
X405000Y339500D01*
X403000Y340500D01*
X401000Y339500D01*
X399000D02*
X400000Y341500D01*
X399000Y343500D01*
X401000Y342500D01*
X403000Y343500D01*
X402000Y341500D01*
X403000Y339500D01*
X401000Y340500D01*
X399000Y339500D01*
X397000D02*
X398000Y341500D01*
X397000Y343500D01*
X399000Y342500D01*
X401000Y343500D01*
X400000Y341500D01*
X401000Y339500D01*
X399000Y340500D01*
X397000Y339500D01*
Y337500D02*
X398000Y339500D01*
X397000Y341500D01*
X399000Y340500D01*
X401000Y341500D01*
X400000Y339500D01*
X401000Y337500D01*
X399000Y338500D01*
X397000Y337500D01*
Y335500D02*
X398000Y337500D01*
X397000Y339500D01*
X399000Y338500D01*
X401000Y339500D01*
X400000Y337500D01*
X401000Y335500D01*
X399000Y336500D01*
X397000Y335500D01*
X395000D02*
X396000Y337500D01*
X395000Y339500D01*
X397000Y338500D01*
X399000Y339500D01*
X398000Y337500D01*
X399000Y335500D01*
X397000Y336500D01*
X395000Y335500D01*
Y337500D02*
X396000Y339500D01*
X395000Y341500D01*
X397000Y340500D01*
X399000Y341500D01*
X398000Y339500D01*
X399000Y337500D01*
X397000Y338500D01*
X395000Y337500D01*
Y339500D02*
X396000Y341500D01*
X395000Y343500D01*
X397000Y342500D01*
X399000Y343500D01*
X398000Y341500D01*
X399000Y339500D01*
X397000Y340500D01*
X395000Y339500D01*
Y341500D02*
X396000Y343500D01*
X395000Y345500D01*
X397000Y344500D01*
X399000Y345500D01*
X398000Y343500D01*
X399000Y341500D01*
X397000Y342500D01*
X395000Y341500D01*
X397000D02*
X398000Y343500D01*
X397000Y345500D01*
X399000Y344500D01*
X401000Y345500D01*
X400000Y343500D01*
X401000Y341500D01*
X399000Y342500D01*
X397000Y341500D01*
X399000D02*
X400000Y343500D01*
X399000Y345500D01*
X401000Y344500D01*
X403000Y345500D01*
X402000Y343500D01*
X403000Y341500D01*
X401000Y342500D01*
X399000Y341500D01*
X401000D02*
X402000Y343500D01*
X401000Y345500D01*
X403000Y344500D01*
X405000Y345500D01*
X404000Y343500D01*
X405000Y341500D01*
X403000Y342500D01*
X401000Y341500D01*
X390500Y348000D02*
X391500Y350000D01*
X390500Y352000D01*
X392500Y351000D01*
X394500Y352000D01*
X393500Y350000D01*
X394500Y348000D01*
X392500Y349000D01*
X390500Y348000D01*
X388500D02*
X389500Y350000D01*
X388500Y352000D01*
X390500Y351000D01*
X392500Y352000D01*
X391500Y350000D01*
X392500Y348000D01*
X390500Y349000D01*
X388500Y348000D01*
X386500D02*
X387500Y350000D01*
X386500Y352000D01*
X388500Y351000D01*
X390500Y352000D01*
X389500Y350000D01*
X390500Y348000D01*
X388500Y349000D01*
X386500Y348000D01*
X412000Y346000D02*
X413000Y348000D01*
X412000Y350000D01*
X414000Y349000D01*
X416000Y350000D01*
X415000Y348000D01*
X416000Y346000D01*
X414000Y347000D01*
X412000Y346000D01*
Y342000D02*
X413000Y344000D01*
X412000Y346000D01*
X414000Y345000D01*
X416000Y346000D01*
X415000Y344000D01*
X416000Y342000D01*
X414000Y343000D01*
X412000Y342000D01*
X415000Y352000D02*
X416000Y354000D01*
X415000Y356000D01*
X417000Y355000D01*
X419000Y356000D01*
X418000Y354000D01*
X419000Y352000D01*
X417000Y353000D01*
X415000Y352000D01*
Y350000D02*
X416000Y352000D01*
X415000Y354000D01*
X417000Y353000D01*
X419000Y354000D01*
X418000Y352000D01*
X419000Y350000D01*
X417000Y351000D01*
X415000Y350000D01*
Y354000D02*
X416000Y356000D01*
X415000Y358000D01*
X417000Y357000D01*
X419000Y358000D01*
X418000Y356000D01*
X419000Y354000D01*
X417000Y355000D01*
X415000Y354000D01*
Y356000D02*
X416000Y358000D01*
X415000Y360000D01*
X417000Y359000D01*
X419000Y360000D01*
X418000Y358000D01*
X419000Y356000D01*
X417000Y357000D01*
X415000Y356000D01*
X413000Y350000D02*
X414000Y352000D01*
X413000Y354000D01*
X415000Y353000D01*
X417000Y354000D01*
X416000Y352000D01*
X417000Y350000D01*
X415000Y351000D01*
X413000Y350000D01*
X398500D02*
X399500Y352000D01*
X398500Y354000D01*
X400500Y353000D01*
X402500Y354000D01*
X401500Y352000D01*
X402500Y350000D01*
X400500Y351000D01*
X398500Y350000D01*
X411000D02*
X412000Y352000D01*
X411000Y354000D01*
X413000Y353000D01*
X415000Y354000D01*
X414000Y352000D01*
X415000Y350000D01*
X413000Y351000D01*
X411000Y350000D01*
X409000D02*
X410000Y352000D01*
X409000Y354000D01*
X411000Y353000D01*
X413000Y354000D01*
X412000Y352000D01*
X413000Y350000D01*
X411000Y351000D01*
X409000Y350000D01*
X407000D02*
X408000Y352000D01*
X407000Y354000D01*
X409000Y353000D01*
X411000Y354000D01*
X410000Y352000D01*
X411000Y350000D01*
X409000Y351000D01*
X407000Y350000D01*
X405000D02*
X406000Y352000D01*
X405000Y354000D01*
X407000Y353000D01*
X409000Y354000D01*
X408000Y352000D01*
X409000Y350000D01*
X407000Y351000D01*
X405000Y350000D01*
Y352000D02*
X406000Y354000D01*
X405000Y356000D01*
X407000Y355000D01*
X409000Y356000D01*
X408000Y354000D01*
X409000Y352000D01*
X407000Y353000D01*
X405000Y352000D01*
Y354000D02*
X406000Y356000D01*
X405000Y358000D01*
X407000Y357000D01*
X409000Y358000D01*
X408000Y356000D01*
X409000Y354000D01*
X407000Y355000D01*
X405000Y354000D01*
Y356000D02*
X406000Y358000D01*
X405000Y360000D01*
X407000Y359000D01*
X409000Y360000D01*
X408000Y358000D01*
X409000Y356000D01*
X407000Y357000D01*
X405000Y356000D01*
X315500Y380000D02*
X316500Y382000D01*
X315500Y384000D01*
X317500Y383000D01*
X319500Y384000D01*
X318500Y382000D01*
X319500Y380000D01*
X317500Y381000D01*
X315500Y380000D01*
X319500Y378000D02*
X320500Y380000D01*
X319500Y382000D01*
X321500Y381000D01*
X323500Y382000D01*
X322500Y380000D01*
X323500Y378000D01*
X321500Y379000D01*
X319500Y378000D01*
Y380000D02*
X320500Y382000D01*
X319500Y384000D01*
X321500Y383000D01*
X323500Y384000D01*
X322500Y382000D01*
X323500Y380000D01*
X321500Y381000D01*
X319500Y380000D01*
X317500D02*
X318500Y382000D01*
X317500Y384000D01*
X319500Y383000D01*
X321500Y384000D01*
X320500Y382000D01*
X321500Y380000D01*
X319500Y381000D01*
X317500Y380000D01*
X368531Y320532D02*
X369531Y322532D01*
X368531Y324532D01*
X370532Y323532D01*
X372532Y324532D01*
X371532Y322532D01*
X372532Y320532D01*
X370532Y321532D01*
X368531Y320532D01*
X348000Y334500D02*
X349000Y336500D01*
X348000Y338500D01*
X350000Y337500D01*
X352000Y338500D01*
X351000Y336500D01*
X352000Y334500D01*
X350000Y335500D01*
X348000Y334500D01*
D56*
X312571Y410709D02*
G03*
X312571Y410709I-2000J0D01*
G01*
Y376693D02*
G03*
X312571Y376693I-2000J0D01*
G01*
%TF.MD5,CD6668D124F80E9ED47ECFE074CF6B31*%
M02*
