G04 Layer_Color=128*
%FSLAX25Y25*%
%MOIN*%
%TF.FileFunction,Drillmap*%
%TF.Part,Single*%
G01*
G75*
%ADD55C,0.00500*%
D55*
X325650Y376693D02*
X328406D01*
X327028Y375315D02*
Y378071D01*
X325650Y410709D02*
X328406D01*
X327028Y409331D02*
Y412087D01*
X309193Y410709D02*
X311949D01*
X310571Y409331D02*
Y412087D01*
X309193Y376693D02*
X311949D01*
X310571Y375315D02*
Y378071D01*
X323563Y382323D02*
X326319D01*
X324941Y380945D02*
Y383701D01*
X323563Y405079D02*
X326319D01*
X324941Y403701D02*
Y406457D01*
X378051Y393701D02*
X409350D01*
X393701Y378051D02*
Y409350D01*
X407000Y350000D02*
X408000D01*
X407500Y349500D02*
Y350500D01*
X409000Y350000D02*
X410000D01*
X409500Y349500D02*
Y350500D01*
X411000Y350000D02*
X412000D01*
X411500Y349500D02*
Y350500D01*
X366500Y363000D02*
X367500D01*
X367000Y362500D02*
Y363500D01*
X366500Y365000D02*
X367500D01*
X367000Y364500D02*
Y365500D01*
X366500Y361000D02*
X367500D01*
X367000Y360500D02*
Y361500D01*
X366500Y359000D02*
X367500D01*
X367000Y358500D02*
Y359500D01*
X366500Y357000D02*
X367500D01*
X367000Y356500D02*
Y357500D01*
X374500Y357000D02*
X375500D01*
X375000Y356500D02*
Y357500D01*
X372500Y357000D02*
X373500D01*
X373000Y356500D02*
Y357500D01*
X370500Y357000D02*
X371500D01*
X371000Y356500D02*
Y357500D01*
X368500Y357000D02*
X369500D01*
X369000Y356500D02*
Y357500D01*
X368500Y365000D02*
X369500D01*
X369000Y364500D02*
Y365500D01*
X368500Y363000D02*
X369500D01*
X369000Y362500D02*
Y363500D01*
X368500Y361000D02*
X369500D01*
X369000Y360500D02*
Y361500D01*
X368500Y359000D02*
X369500D01*
X369000Y358500D02*
Y359500D01*
X370500Y359000D02*
X371500D01*
X371000Y358500D02*
Y359500D01*
X372500Y359000D02*
X373500D01*
X373000Y358500D02*
Y359500D01*
X374500Y359000D02*
X375500D01*
X375000Y358500D02*
Y359500D01*
X311500Y385500D02*
X312500D01*
X312000Y385000D02*
Y386000D01*
X309500Y385500D02*
X310500D01*
X310000Y385000D02*
Y386000D01*
X307500Y385500D02*
X308500D01*
X308000Y385000D02*
Y386000D01*
X307500Y387500D02*
X308500D01*
X308000Y387000D02*
Y388000D01*
X309500Y387500D02*
X310500D01*
X310000Y387000D02*
Y388000D01*
X311500Y387500D02*
X312500D01*
X312000Y387000D02*
Y388000D01*
X311500Y389500D02*
X312500D01*
X312000Y389000D02*
Y390000D01*
X309500Y389500D02*
X310500D01*
X310000Y389000D02*
Y390000D01*
X307500Y389500D02*
X308500D01*
X308000Y389000D02*
Y390000D01*
X307500Y391500D02*
X308500D01*
X308000Y391000D02*
Y392000D01*
X309500Y391500D02*
X310500D01*
X310000Y391000D02*
Y392000D01*
X311500Y391500D02*
X312500D01*
X312000Y391000D02*
Y392000D01*
X311500Y399500D02*
X312500D01*
X312000Y399000D02*
Y400000D01*
X309500Y399500D02*
X310500D01*
X310000Y399000D02*
Y400000D01*
X307500Y399500D02*
X308500D01*
X308000Y399000D02*
Y400000D01*
X307500Y397500D02*
X308500D01*
X308000Y397000D02*
Y398000D01*
X307500Y395500D02*
X308500D01*
X308000Y395000D02*
Y396000D01*
X307500Y393500D02*
X308500D01*
X308000Y393000D02*
Y394000D01*
X309500Y393500D02*
X310500D01*
X310000Y393000D02*
Y394000D01*
X311500Y393500D02*
X312500D01*
X312000Y393000D02*
Y394000D01*
X311500Y395500D02*
X312500D01*
X312000Y395000D02*
Y396000D01*
X309500Y395500D02*
X310500D01*
X310000Y395000D02*
Y396000D01*
X309500Y397500D02*
X310500D01*
X310000Y397000D02*
Y398000D01*
X311500Y397500D02*
X312500D01*
X312000Y397000D02*
Y398000D01*
X334500Y403000D02*
X335500D01*
X335000Y402500D02*
Y403500D01*
X338500Y403000D02*
X339500D01*
X339000Y402500D02*
Y403500D01*
X336500Y403000D02*
X337500D01*
X337000Y402500D02*
Y403500D01*
X336500Y420000D02*
X337500D01*
X337000Y419500D02*
Y420500D01*
X338500Y420000D02*
X339500D01*
X339000Y419500D02*
Y420500D01*
X338500Y422000D02*
X339500D01*
X339000Y421500D02*
Y422500D01*
X336500Y422000D02*
X337500D01*
X337000Y421500D02*
Y422500D01*
X319000Y397500D02*
X320000D01*
X319500Y397000D02*
Y398000D01*
X320093Y392407D02*
X321093D01*
X320593Y391907D02*
Y392907D01*
X344000Y385000D02*
X345000D01*
X344500Y384500D02*
Y385500D01*
X343500Y400000D02*
X344500D01*
X344000Y399500D02*
Y400500D01*
X323500Y399500D02*
X324500D01*
X324000Y399000D02*
Y400000D01*
X322000Y387500D02*
X323000D01*
X322500Y387000D02*
Y388000D01*
X323500Y394557D02*
X324500D01*
X324000Y394057D02*
Y395057D01*
X447500Y424500D02*
X448500D01*
X448000Y424000D02*
Y425000D01*
X317000Y380000D02*
X318000D01*
X317500Y379500D02*
Y380500D01*
X319000Y380000D02*
X320000D01*
X319500Y379500D02*
Y380500D01*
X390169Y462331D02*
X391169D01*
X390669Y461831D02*
Y462831D01*
X450500Y372000D02*
X451500D01*
X451000Y371500D02*
Y372500D01*
X428500Y416000D02*
X429500D01*
X429000Y415500D02*
Y416500D01*
X432000Y422500D02*
X433000D01*
X432500Y422000D02*
Y423000D01*
X390169Y423669D02*
X391169D01*
X390669Y423169D02*
Y424169D01*
X400000Y459000D02*
X401000D01*
X400500Y458500D02*
Y459500D01*
X401000Y432000D02*
X402000D01*
X401500Y431500D02*
Y432500D01*
X457276Y402224D02*
X458276D01*
X457776Y401724D02*
Y402724D01*
X458032Y421032D02*
X459031D01*
X458532Y420532D02*
Y421531D01*
X451968Y419969D02*
X452969D01*
X452468Y419468D02*
Y420469D01*
X461500Y385000D02*
X462500D01*
X462000Y384500D02*
Y385500D01*
X452468Y381532D02*
X453469D01*
X452969Y381031D02*
Y382031D01*
X407500Y427500D02*
X408500D01*
X408000Y427000D02*
Y428000D01*
X431000Y342000D02*
X432000D01*
X431500Y341500D02*
Y342500D01*
X431000Y333500D02*
X432000D01*
X431500Y333000D02*
Y334000D01*
X446500Y409500D02*
X447500D01*
X447000Y409000D02*
Y410000D01*
X446500Y384500D02*
X447500D01*
X447000Y384000D02*
Y385000D01*
X438413Y376913D02*
X439413D01*
X438913Y376413D02*
Y377413D01*
X443740Y395240D02*
X444740D01*
X444240Y394740D02*
Y395740D01*
X423000Y325500D02*
X424000D01*
X423500Y325000D02*
Y326000D01*
X420000Y337500D02*
X421000D01*
X420500Y337000D02*
Y338000D01*
X409000Y332500D02*
X410000D01*
X409500Y332000D02*
Y333000D01*
X343500Y389500D02*
X344500D01*
X344000Y389000D02*
Y390000D01*
X405500Y427500D02*
X406500D01*
X406000Y427000D02*
Y428000D01*
X390500Y330000D02*
X391500D01*
X391000Y329500D02*
Y330500D01*
X418000Y332000D02*
X419000D01*
X418500Y331500D02*
Y332500D01*
X418000Y334000D02*
X419000D01*
X418500Y333500D02*
Y334500D01*
X420000Y332000D02*
X421000D01*
X420500Y331500D02*
Y332500D01*
X420000Y334000D02*
X421000D01*
X420500Y333500D02*
Y334500D01*
X393500Y327500D02*
X394500D01*
X394000Y327000D02*
Y328000D01*
X370500Y361000D02*
X371500D01*
X371000Y360500D02*
Y361500D01*
X370500Y363000D02*
X371500D01*
X371000Y362500D02*
Y363500D01*
X370500Y365000D02*
X371500D01*
X371000Y364500D02*
Y365500D01*
X372500Y365000D02*
X373500D01*
X373000Y364500D02*
Y365500D01*
X372500Y363000D02*
X373500D01*
X373000Y362500D02*
Y363500D01*
X372500Y361000D02*
X373500D01*
X373000Y360500D02*
Y361500D01*
X374500Y361000D02*
X375500D01*
X375000Y360500D02*
Y361500D01*
X374500Y363000D02*
X375500D01*
X375000Y362500D02*
Y363500D01*
X374500Y365000D02*
X375500D01*
X375000Y364500D02*
Y365500D01*
X402500Y337500D02*
X403500D01*
X403000Y337000D02*
Y338000D01*
X400500Y337500D02*
X401500D01*
X401000Y337000D02*
Y338000D01*
X400500Y339500D02*
X401500D01*
X401000Y339000D02*
Y340000D01*
X402500Y339500D02*
X403500D01*
X403000Y339000D02*
Y340000D01*
X402500Y341500D02*
X403500D01*
X403000Y341000D02*
Y342000D01*
X400500Y341500D02*
X401500D01*
X401000Y341000D02*
Y342000D01*
X398500Y341500D02*
X399500D01*
X399000Y341000D02*
Y342000D01*
X398500Y339500D02*
X399500D01*
X399000Y339000D02*
Y340000D01*
X398500Y337500D02*
X399500D01*
X399000Y337000D02*
Y338000D01*
X396500Y337500D02*
X397500D01*
X397000Y337000D02*
Y338000D01*
X396500Y339500D02*
X397500D01*
X397000Y339000D02*
Y340000D01*
X396500Y341500D02*
X397500D01*
X397000Y341000D02*
Y342000D01*
X396500Y343500D02*
X397500D01*
X397000Y343000D02*
Y344000D01*
X398500Y343500D02*
X399500D01*
X399000Y343000D02*
Y344000D01*
X400500Y343500D02*
X401500D01*
X401000Y343000D02*
Y344000D01*
X402500Y343500D02*
X403500D01*
X403000Y343000D02*
Y344000D01*
X392000Y350000D02*
X393000D01*
X392500Y349500D02*
Y350500D01*
X390000Y350000D02*
X391000D01*
X390500Y349500D02*
Y350500D01*
X388000Y350000D02*
X389000D01*
X388500Y349500D02*
Y350500D01*
X413500Y348000D02*
X414500D01*
X414000Y347500D02*
Y348500D01*
X413500Y344000D02*
X414500D01*
X414000Y343500D02*
Y344500D01*
X416500Y354000D02*
X417500D01*
X417000Y353500D02*
Y354500D01*
X416500Y352000D02*
X417500D01*
X417000Y351500D02*
Y352500D01*
X416500Y356000D02*
X417500D01*
X417000Y355500D02*
Y356500D01*
X416500Y358000D02*
X417500D01*
X417000Y357500D02*
Y358500D01*
X414500Y352000D02*
X415500D01*
X415000Y351500D02*
Y352500D01*
X400000Y352000D02*
X401000D01*
X400500Y351500D02*
Y352500D01*
X412500Y352000D02*
X413500D01*
X413000Y351500D02*
Y352500D01*
X410500Y352000D02*
X411500D01*
X411000Y351500D02*
Y352500D01*
X408500Y352000D02*
X409500D01*
X409000Y351500D02*
Y352500D01*
X406500Y352000D02*
X407500D01*
X407000Y351500D02*
Y352500D01*
X406500Y354000D02*
X407500D01*
X407000Y353500D02*
Y354500D01*
X406500Y356000D02*
X407500D01*
X407000Y355500D02*
Y356500D01*
X406500Y358000D02*
X407500D01*
X407000Y357500D02*
Y358500D01*
X317000Y382000D02*
X318000D01*
X317500Y381500D02*
Y382500D01*
X321000Y380000D02*
X322000D01*
X321500Y379500D02*
Y380500D01*
X321000Y382000D02*
X322000D01*
X321500Y381500D02*
Y382500D01*
X319000Y382000D02*
X320000D01*
X319500Y381500D02*
Y382500D01*
X370031Y322532D02*
X371031D01*
X370532Y322031D02*
Y323031D01*
X349500Y336500D02*
X350500D01*
X350000Y336000D02*
Y337000D01*
%TF.MD5,B79B7C348F1450F8489F40985D64EC5C*%
M02*
