G04 Layer_Physical_Order=2*
G04 Layer_Color=16711680*
%FSLAX25Y25*%
%MOIN*%
%TF.FileFunction,Copper,L2,Bot,Signal*%
%TF.Part,Single*%
G01*
G75*
%TA.AperFunction,SMDPad*%
%ADD10R,0.03661X0.03858*%
%ADD11C,0.01000*%
%ADD12C,0.02000*%
%TA.AperFunction,ViaPad*%
%ADD13O,0.07874X0.04724*%
%TA.AperFunction,ViaPad*%
%ADD14O,0.07087X0.04724*%
%TA.AperFunction,ViaPad*%
%ADD15R,0.00394X0.00394*%
%TA.AperFunction,ConnectorPad*%
%ADD16C,0.44488*%
%TA.AperFunction,ViaPad*%
%ADD17C,0.01800*%
%TA.AperFunction,SMDPad*%
%ADD18R,0.05118X0.01181*%
%TA.AperFunction,SMDPad*%
%ADD19R,0.03858X0.03661*%
%TA.AperFunction,SMDPad*%
%ADD20R,0.02362X0.03937*%
%TA.AperFunction,SMDPad*%
%ADD21O,0.13780X0.07874*%
%TA.AperFunction,SMDPad*%
%ADD22O,0.08268X0.02756*%
%TA.AperFunction,SMDPad*%
%ADD23O,0.07480X0.02756*%
%TA.AperFunction,SMDPad*%
%ADD24R,0.05787X0.04567*%
%TA.AperFunction,SMDPad*%
%ADD25R,0.04921X0.22402*%
%TA.AperFunction,SMDPad*%
%ADD26O,0.04528X0.00984*%
%TA.AperFunction,SMDPad*%
%ADD27O,0.00984X0.04528*%
%TA.AperFunction,SMDPad*%
%ADD28R,0.09843X0.09843*%
%ADD29C,0.03500*%
G36*
X399670Y484774D02*
X405614Y484189D01*
X411506Y483216D01*
X417323Y481859D01*
X423038Y480126D01*
X428628Y478022D01*
X434068Y475557D01*
X439335Y472742D01*
X444407Y469588D01*
X449262Y466109D01*
X453878Y462320D01*
X458237Y458237D01*
X462320Y453878D01*
X466109Y449262D01*
X469588Y444407D01*
X472742Y439335D01*
X475557Y434068D01*
X478022Y428628D01*
X480126Y423038D01*
X481859Y417323D01*
X483216Y411506D01*
X484189Y405614D01*
X484774Y399670D01*
X484969Y393701D01*
X484774Y387732D01*
X484189Y381788D01*
X483216Y375895D01*
X481859Y370079D01*
X480126Y364364D01*
X478022Y358774D01*
X475557Y353334D01*
X472742Y348066D01*
X469588Y342995D01*
X466109Y338140D01*
X462320Y333523D01*
X458237Y329164D01*
X453878Y325081D01*
X449262Y321293D01*
X444407Y317814D01*
X439335Y314660D01*
X434068Y311844D01*
X428628Y309380D01*
X423038Y307276D01*
X422000Y306961D01*
X417323Y305542D01*
X411506Y304186D01*
X405614Y303213D01*
X399670Y302628D01*
X393701Y302432D01*
X387732Y302628D01*
X381788Y303213D01*
X375895Y304186D01*
X370079Y305542D01*
X364364Y307276D01*
X363768Y307500D01*
X358774Y309380D01*
X353334Y311844D01*
X348066Y314660D01*
X342995Y317814D01*
X341562Y318841D01*
D01*
X338140Y321293D01*
X333523Y325081D01*
X329164Y329164D01*
X325081Y333523D01*
X321293Y338140D01*
X317814Y342995D01*
X314660Y348066D01*
X311844Y353334D01*
X309380Y358774D01*
X307276Y364364D01*
X305542Y370079D01*
X304186Y375895D01*
X303213Y381788D01*
X302628Y387732D01*
X302432Y393701D01*
X302628Y399670D01*
X303213Y405614D01*
X304186Y411506D01*
X305542Y417323D01*
X307276Y423038D01*
X309380Y428628D01*
X311844Y434068D01*
X314660Y439335D01*
X317814Y444407D01*
X321293Y449262D01*
X325081Y453878D01*
X329164Y458237D01*
X333523Y462320D01*
X338140Y466109D01*
X342995Y469588D01*
X348066Y472742D01*
X353334Y475557D01*
X358774Y478022D01*
X364364Y480126D01*
X370079Y481859D01*
X375895Y483216D01*
X381788Y484189D01*
X387732Y484774D01*
X393701Y484969D01*
X399670Y484774D01*
D02*
G37*
%LPC*%
G36*
X439500Y398775D02*
X433000D01*
X432512Y398677D01*
X432099Y398401D01*
X429599Y395901D01*
X429322Y395488D01*
X429225Y395000D01*
Y361500D01*
X429322Y361012D01*
X429599Y360599D01*
X430226Y359972D01*
Y343087D01*
X430223Y343058D01*
X429946Y342644D01*
X429818Y342000D01*
X429946Y341356D01*
X430310Y340810D01*
X430856Y340446D01*
X431500Y340318D01*
X432144Y340446D01*
X432690Y340810D01*
X433054Y341356D01*
X433182Y342000D01*
X433054Y342644D01*
X432779Y343057D01*
X432774Y343108D01*
Y360500D01*
X432678Y360988D01*
X432401Y361401D01*
X431775Y362028D01*
Y394472D01*
X433528Y396226D01*
X438972D01*
X439225Y395972D01*
Y395437D01*
X438941Y395055D01*
X437360D01*
Y392087D01*
Y390130D01*
X437760D01*
X437665Y390120D01*
X437580Y390090D01*
X437505Y390040D01*
X437440Y389970D01*
X437385Y389880D01*
X437360Y389819D01*
Y389118D01*
X438941D01*
Y389368D01*
X446171D01*
Y394805D01*
X446171D01*
X445901Y395134D01*
X445923Y395240D01*
X445794Y395884D01*
X445430Y396430D01*
X444884Y396794D01*
X444240Y396922D01*
X443596Y396794D01*
X443051Y396430D01*
X442686Y395884D01*
X442558Y395240D01*
X442565Y395202D01*
X442256Y394826D01*
X441775Y394828D01*
X441775Y394829D01*
Y396500D01*
X441678Y396988D01*
X441401Y397401D01*
X440401Y398401D01*
X439988Y398677D01*
X439500Y398775D01*
D02*
G37*
G36*
X436160Y391487D02*
X434579D01*
Y389118D01*
X436160D01*
Y389819D01*
X436135Y389880D01*
X436080Y389970D01*
X436015Y390040D01*
X435940Y390090D01*
X435855Y390120D01*
X435760Y390130D01*
X436160D01*
Y391487D01*
D02*
G37*
G36*
X455400Y395744D02*
X452860D01*
Y392776D01*
Y390819D01*
X453260D01*
X453165Y390809D01*
X453080Y390779D01*
X453005Y390729D01*
X452940Y390659D01*
X452885Y390569D01*
X452860Y390508D01*
Y389807D01*
X455400D01*
Y390508D01*
X455375Y390569D01*
X455320Y390659D01*
X455255Y390729D01*
X455180Y390779D01*
X455095Y390809D01*
X455000Y390819D01*
X455400D01*
Y392776D01*
Y395744D01*
D02*
G37*
G36*
X436160Y395055D02*
X434579D01*
Y392687D01*
X436160D01*
Y395055D01*
D02*
G37*
G36*
X451660Y392176D02*
X450079D01*
Y389807D01*
X451660D01*
Y390508D01*
X451635Y390569D01*
X451580Y390659D01*
X451515Y390729D01*
X451440Y390779D01*
X451355Y390809D01*
X451260Y390819D01*
X451660D01*
Y392176D01*
D02*
G37*
G36*
X351049Y387679D02*
X345888D01*
Y386619D01*
X345388Y386391D01*
X345144Y386554D01*
X344500Y386682D01*
X343856Y386554D01*
X343310Y386190D01*
X342946Y385644D01*
X342818Y385000D01*
X342946Y384356D01*
X343310Y383810D01*
X343856Y383446D01*
X344500Y383318D01*
X345144Y383446D01*
X345388Y383609D01*
X345888Y383381D01*
Y382321D01*
X351049D01*
Y387679D01*
D02*
G37*
G36*
X353931Y387929D02*
X351701D01*
Y385600D01*
X353931D01*
Y387929D01*
D02*
G37*
G36*
X440299Y387429D02*
X438068D01*
Y386720D01*
X438094Y386658D01*
X438148Y386567D01*
X438213Y386496D01*
X438288Y386446D01*
X438374Y386415D01*
X438469Y386405D01*
X438068D01*
Y385100D01*
X440299D01*
Y387429D01*
D02*
G37*
G36*
X357362Y387929D02*
X355132D01*
Y385600D01*
X357362D01*
Y387929D01*
D02*
G37*
G36*
X455799D02*
X453569D01*
Y387220D01*
X453593Y387158D01*
X453649Y387067D01*
X453714Y386996D01*
X453789Y386946D01*
X453873Y386915D01*
X453968Y386905D01*
X453569D01*
Y385600D01*
X455799D01*
Y387929D01*
D02*
G37*
G36*
X452368D02*
X450138D01*
Y385600D01*
X452368D01*
Y386905D01*
X451968D01*
X452064Y386915D01*
X452148Y386946D01*
X452223Y386996D01*
X452288Y387067D01*
X452344Y387158D01*
X452368Y387220D01*
Y387929D01*
D02*
G37*
G36*
X351049Y402679D02*
X345888D01*
Y401274D01*
X345062D01*
X344644Y401554D01*
X344000Y401682D01*
X343356Y401554D01*
X342810Y401190D01*
X342446Y400644D01*
X342318Y400000D01*
X342446Y399356D01*
X342810Y398810D01*
X343356Y398446D01*
X344000Y398318D01*
X344644Y398446D01*
X345062Y398726D01*
X345888D01*
Y397321D01*
X351049D01*
Y402679D01*
D02*
G37*
G36*
X357362Y402929D02*
X355132D01*
Y400600D01*
X357362D01*
Y402929D01*
D02*
G37*
G36*
X348900Y324896D02*
X346618D01*
Y323225D01*
X346583Y323324D01*
X346478Y323412D01*
X346303Y323491D01*
X346058Y323558D01*
X345743Y323616D01*
X345606Y323632D01*
Y322213D01*
X348900D01*
Y324896D01*
D02*
G37*
G36*
X436868Y408900D02*
X434638D01*
Y406571D01*
X436868D01*
Y408900D01*
D02*
G37*
G36*
X352382Y324896D02*
X350100D01*
Y322213D01*
X353394D01*
Y323624D01*
X353257Y323616D01*
X352942Y323558D01*
X352697Y323491D01*
X352522Y323412D01*
X352417Y323324D01*
X352382Y323225D01*
Y324896D01*
D02*
G37*
G36*
X353931Y402929D02*
X351701D01*
Y400600D01*
X353931D01*
Y402929D01*
D02*
G37*
G36*
X461671Y404943D02*
X457809D01*
Y403934D01*
X457776Y403907D01*
X457132Y403779D01*
X456586Y403414D01*
X456221Y402868D01*
X456093Y402224D01*
X456221Y401581D01*
X456586Y401035D01*
X457132Y400670D01*
X457776Y400542D01*
X457809Y400515D01*
Y399506D01*
X458516D01*
X458563Y399272D01*
X458839Y398859D01*
X461726Y395971D01*
X461496Y395494D01*
X461244Y395494D01*
X458181D01*
Y395744D01*
X456600D01*
Y392776D01*
Y390819D01*
X457000D01*
X456905Y390809D01*
X456820Y390779D01*
X456745Y390729D01*
X456680Y390659D01*
X456625Y390569D01*
X456600Y390508D01*
Y389807D01*
X458181D01*
X458466Y389425D01*
Y389268D01*
X458130Y388933D01*
X457854Y388519D01*
X457757Y388032D01*
Y387703D01*
X457755Y387679D01*
X456451D01*
Y382321D01*
X457755D01*
X457757Y382294D01*
Y381469D01*
X457854Y380981D01*
X458130Y380567D01*
X458466Y380232D01*
Y379656D01*
X458464Y379632D01*
X457809D01*
Y374195D01*
X461671D01*
Y379632D01*
X461017D01*
X461015Y379656D01*
Y380760D01*
X460918Y381248D01*
X460641Y381661D01*
X460482Y381821D01*
X460689Y382321D01*
X460796D01*
X460800Y382320D01*
X460808Y382321D01*
X460837D01*
X460850Y382318D01*
X460864Y382321D01*
X461612D01*
Y383029D01*
X461613Y383032D01*
X461621Y383149D01*
X461627Y383177D01*
X461664Y383193D01*
X461738Y383212D01*
X461761Y383216D01*
X462000D01*
X462683Y383351D01*
X463262Y383738D01*
X463649Y384317D01*
X463784Y385000D01*
X463649Y385683D01*
X463262Y386262D01*
X462683Y386649D01*
X462000Y386784D01*
X461761D01*
X461738Y386788D01*
X461664Y386807D01*
X461627Y386823D01*
X461621Y386851D01*
X461613Y386967D01*
X461612Y386971D01*
Y387679D01*
X461136D01*
X460869Y388179D01*
X460918Y388252D01*
X461015Y388740D01*
Y390030D01*
X461017Y390057D01*
X461671D01*
Y395031D01*
X461671Y395319D01*
X462149Y395549D01*
X465726Y391972D01*
Y374028D01*
X464472Y372775D01*
X458000D01*
X457512Y372677D01*
X457099Y372401D01*
X455099Y370401D01*
X454822Y369988D01*
X454726Y369500D01*
Y369437D01*
X454441Y369055D01*
X452860D01*
Y366087D01*
Y363118D01*
X454441D01*
Y363368D01*
X461671D01*
Y368805D01*
X457815D01*
X457608Y369305D01*
X458528Y370226D01*
X465000D01*
X465488Y370322D01*
X465901Y370599D01*
X467901Y372599D01*
X468178Y373012D01*
X468274Y373500D01*
Y392500D01*
X468178Y392988D01*
X467901Y393401D01*
X461671Y399631D01*
Y404943D01*
D02*
G37*
G36*
X451660Y395744D02*
X450079D01*
Y393376D01*
X451660D01*
Y395744D01*
D02*
G37*
G36*
X353931Y399400D02*
X351701D01*
Y397071D01*
X353931D01*
Y399400D01*
D02*
G37*
G36*
X324941Y407248D02*
X324113Y407084D01*
X324111Y407083D01*
X323407Y406613D01*
X322937Y405909D01*
X322881Y405632D01*
X322855Y405500D01*
X322771Y405079D01*
X322937Y404249D01*
X323407Y403545D01*
X324111Y403074D01*
X324941Y402909D01*
X325749Y403070D01*
X325835Y403070D01*
D01*
X326006Y403008D01*
X326097Y402964D01*
X326142Y402943D01*
X326237Y402868D01*
X326270Y402843D01*
X326277Y402806D01*
Y401865D01*
X325091D01*
X324603Y401768D01*
X324190Y401492D01*
X323850Y401153D01*
X323356Y401054D01*
X322810Y400690D01*
X322446Y400144D01*
X322318Y399500D01*
X322446Y398856D01*
X322667Y398524D01*
X322407Y398025D01*
X321078D01*
X321054Y398144D01*
X320690Y398690D01*
X320144Y399054D01*
X319500Y399182D01*
X318856Y399054D01*
X318310Y398690D01*
X317946Y398144D01*
X317818Y397500D01*
X317946Y396856D01*
X318053Y396695D01*
X318012Y396178D01*
X317599Y395901D01*
X317099Y395401D01*
X316823Y394988D01*
X316725Y394500D01*
Y390500D01*
X316823Y390012D01*
X317099Y389599D01*
X318099Y388599D01*
X318512Y388322D01*
X319000Y388226D01*
X320452D01*
X320863Y387725D01*
X320818Y387500D01*
X320946Y386856D01*
X321310Y386310D01*
X321856Y385946D01*
X322500Y385818D01*
X323144Y385946D01*
X323690Y386310D01*
X324054Y386856D01*
X324152Y387350D01*
X324278Y387475D01*
X326278D01*
Y386183D01*
X326278D01*
Y384595D01*
X326271Y384558D01*
X326142Y384458D01*
X326022Y384400D01*
X326002Y384390D01*
X325842Y384332D01*
D01*
D01*
X325839Y384332D01*
X325749Y384332D01*
X324941Y384492D01*
X324111Y384327D01*
X323407Y383857D01*
X322937Y383153D01*
X322771Y382323D01*
X322937Y381492D01*
X323407Y380789D01*
X324111Y380318D01*
X324113Y380318D01*
D01*
X324941Y380153D01*
X325771Y380318D01*
X326475Y380789D01*
X326945Y381492D01*
X327110Y382321D01*
X332235D01*
Y374143D01*
Y373000D01*
Y340575D01*
X332250Y340501D01*
X332250Y340426D01*
X332264Y340356D01*
X332293Y340287D01*
X332294Y340283D01*
X332296Y340279D01*
X332346Y340158D01*
X332347Y340154D01*
X332349Y340150D01*
X332378Y340081D01*
X332417Y340022D01*
X332471Y339969D01*
X332512Y339906D01*
X335406Y337013D01*
X335469Y336971D01*
X335522Y336917D01*
X335581Y336878D01*
X335650Y336849D01*
X335654Y336847D01*
X335658Y336846D01*
X335779Y336796D01*
X335783Y336793D01*
X335787Y336793D01*
X335857Y336764D01*
X335926Y336750D01*
X336001D01*
X336075Y336735D01*
X344254D01*
X344735Y336683D01*
Y330075D01*
X344750Y330001D01*
Y329926D01*
X344762Y329863D01*
X344791Y329794D01*
X344794Y329783D01*
X344800Y329773D01*
X344817Y329731D01*
X344877Y329588D01*
X344877Y329588D01*
X344877Y329588D01*
X345088Y329377D01*
X345088Y329377D01*
X345088Y329377D01*
X345197Y329331D01*
X345273Y329300D01*
X345283Y329293D01*
X345294Y329291D01*
X345363Y329262D01*
X345426Y329250D01*
X345501D01*
X345524Y329245D01*
X345605Y328785D01*
D01*
D01*
X345606Y328771D01*
X345606Y328735D01*
Y327368D01*
X345743Y327376D01*
X346058Y327434D01*
X346303Y327502D01*
X346478Y327580D01*
X346583Y327668D01*
X346618Y327767D01*
Y326096D01*
X352382D01*
Y327767D01*
X352417Y327668D01*
X352522Y327580D01*
X352697Y327502D01*
X352942Y327434D01*
X353257Y327376D01*
X353394Y327360D01*
Y328318D01*
X353894Y328525D01*
X354906Y327513D01*
X354969Y327471D01*
X355022Y327417D01*
X355034Y327409D01*
X355104Y327380D01*
X355154Y327347D01*
X355154D01*
X355166Y327339D01*
X355240Y327324D01*
X355310Y327295D01*
X355385Y327295D01*
X355459Y327280D01*
X360929D01*
X361081Y327250D01*
X361157D01*
X361230Y327235D01*
X361925D01*
X361999Y327250D01*
X362074D01*
X362143Y327264D01*
X362213Y327293D01*
X362217Y327293D01*
X362221Y327296D01*
X362342Y327346D01*
X362346Y327347D01*
X362350Y327349D01*
X362419Y327378D01*
X362478Y327417D01*
X362531Y327471D01*
X362594Y327513D01*
X363041Y327959D01*
X363207Y328207D01*
X363265Y328500D01*
Y340000D01*
Y351308D01*
Y351500D01*
X363207Y351793D01*
X363041Y352041D01*
X362594Y352487D01*
X362531Y352529D01*
X362478Y352583D01*
X362419Y352622D01*
X362350Y352651D01*
X362346Y352653D01*
X362342Y352654D01*
X362221Y352704D01*
X362217Y352707D01*
X362213Y352707D01*
X362143Y352736D01*
X362074Y352750D01*
X361999D01*
X361925Y352765D01*
X353394D01*
Y353632D01*
X353257Y353624D01*
X352942Y353566D01*
X352697Y353498D01*
X352522Y353420D01*
X352417Y353332D01*
X352382Y353233D01*
Y354904D01*
X345606D01*
Y354128D01*
X345144Y353937D01*
X341765Y357317D01*
Y384000D01*
Y404271D01*
X341746Y404364D01*
X341741Y404458D01*
X341729Y404484D01*
X341725Y404513D01*
X341712Y404537D01*
X341706Y404564D01*
X341654Y404642D01*
X341614Y404728D01*
X341592Y404747D01*
X341578Y404772D01*
X341556Y404789D01*
X341541Y404812D01*
X341462Y404865D01*
X341392Y404928D01*
X340991Y405167D01*
X340869Y405211D01*
X340749Y405261D01*
X340687Y405273D01*
X340687D01*
X340687Y405273D01*
X340575Y405273D01*
X340519Y405284D01*
X340464Y405273D01*
X340389Y405273D01*
X340389Y405273D01*
X340389D01*
X340370Y405269D01*
X340359Y405265D01*
X334265D01*
D01*
X333469D01*
X333176Y405206D01*
X332895Y405081D01*
X327110D01*
X326945Y405909D01*
X326475Y406613D01*
X325771Y407083D01*
X324941Y407248D01*
D02*
G37*
G36*
X357362Y399400D02*
X355132D01*
Y397071D01*
X357362D01*
Y399400D01*
D02*
G37*
G36*
X309971Y376093D02*
X306077D01*
X306114Y375815D01*
X306453Y374997D01*
X306992Y374295D01*
X307694Y373756D01*
X308512Y373417D01*
X309390Y373302D01*
X309971D01*
Y376093D01*
D02*
G37*
G36*
X454191Y379632D02*
X450329D01*
Y374195D01*
X450329D01*
X450494Y373695D01*
X450411Y373565D01*
X450356Y373554D01*
X449810Y373190D01*
X449446Y372644D01*
X449318Y372000D01*
X449446Y371356D01*
X449810Y370810D01*
X450356Y370446D01*
X451000Y370318D01*
X451644Y370446D01*
X452190Y370810D01*
X452554Y371356D01*
X452651Y371843D01*
X452685Y371882D01*
X453161Y372359D01*
X453437Y372772D01*
X453534Y373260D01*
Y374168D01*
X453537Y374195D01*
X454191D01*
Y379632D01*
D02*
G37*
G36*
X315064Y376093D02*
X311171D01*
Y373302D01*
X311752D01*
X312630Y373417D01*
X313447Y373756D01*
X314150Y374295D01*
X314689Y374997D01*
X315027Y375815D01*
X315064Y376093D01*
D02*
G37*
G36*
X309971Y380084D02*
X309390D01*
X308512Y379968D01*
X307694Y379630D01*
X306992Y379091D01*
X306453Y378388D01*
X306114Y377571D01*
X306077Y377293D01*
X309971D01*
Y380084D01*
D02*
G37*
G36*
X438191Y379632D02*
X434329D01*
Y374195D01*
X438191D01*
Y374865D01*
X438691Y375275D01*
X438913Y375231D01*
X439557Y375359D01*
X440103Y375724D01*
X440468Y376270D01*
X440596Y376913D01*
X440468Y377557D01*
X440103Y378103D01*
X439557Y378468D01*
X438913Y378596D01*
X438691Y378552D01*
X438191Y378962D01*
Y379632D01*
D02*
G37*
G36*
X435660Y369055D02*
X434079D01*
Y366687D01*
X435660D01*
Y369055D01*
D02*
G37*
G36*
X418000Y360529D02*
X398731D01*
X398146Y360413D01*
X397650Y360082D01*
X397650Y360081D01*
X397366Y359657D01*
X397293Y359706D01*
X397000Y359765D01*
X379000D01*
X379000Y359765D01*
X378707Y359706D01*
X378459Y359541D01*
X378139Y359221D01*
X377959Y359041D01*
X377794Y358793D01*
X377735Y358500D01*
Y353500D01*
X377794Y353207D01*
X377959Y352959D01*
X377959Y352959D01*
X378192Y352727D01*
X378001Y352265D01*
X372000D01*
X371707Y352206D01*
X371459Y352041D01*
X371293Y351793D01*
X371235Y351500D01*
Y351308D01*
Y328000D01*
X371293Y327707D01*
X371459Y327459D01*
X371707Y327293D01*
X372000Y327235D01*
X380500D01*
X380500Y327235D01*
X380793Y327293D01*
X381041Y327459D01*
X381541Y327959D01*
X381541Y327959D01*
X382541Y328959D01*
X382706Y329207D01*
X382765Y329500D01*
Y333034D01*
D01*
X383118Y333388D01*
X387179D01*
X387226Y332907D01*
D01*
Y324950D01*
X387179Y324919D01*
X386679Y325112D01*
Y325112D01*
X381321D01*
Y323808D01*
X381297Y323806D01*
X381031D01*
X380544Y323709D01*
X380130Y323433D01*
X379679Y322982D01*
X379364Y323053D01*
X379179Y323173D01*
Y325112D01*
X373821D01*
Y323808D01*
X373794Y323806D01*
X371618D01*
X371590Y323809D01*
X371175Y324086D01*
X370532Y324214D01*
X369888Y324086D01*
X369342Y323721D01*
X368977Y323175D01*
X368849Y322532D01*
X368977Y321888D01*
X369342Y321342D01*
X369888Y320977D01*
X370532Y320849D01*
X371175Y320977D01*
X371588Y321253D01*
X371640Y321257D01*
X373794D01*
X373821Y321255D01*
Y319951D01*
X379110D01*
Y319951D01*
X379110D01*
X379208Y319500D01*
D01*
Y319500D01*
X379110Y319049D01*
X373821D01*
Y313888D01*
X379179D01*
Y315192D01*
X379203Y315194D01*
X379468D01*
X379956Y315291D01*
X380370Y315567D01*
X380609Y315807D01*
X381071Y315615D01*
Y313638D01*
X383400D01*
Y316469D01*
Y319299D01*
X381774D01*
Y319951D01*
X386679D01*
Y321255D01*
X386706Y321257D01*
X387032D01*
X387519Y321354D01*
X387933Y321630D01*
X388859Y322556D01*
X389321Y322365D01*
Y320000D01*
Y319951D01*
X394679D01*
Y320000D01*
Y321255D01*
X394706Y321257D01*
X395031D01*
X395519Y321354D01*
X395933Y321630D01*
X396359Y322057D01*
X396821Y321865D01*
Y320000D01*
Y319951D01*
X402179D01*
Y320000D01*
Y321865D01*
X402641Y322057D01*
X403067Y321630D01*
X403481Y321354D01*
X403968Y321257D01*
X404797D01*
X404821Y321255D01*
Y320000D01*
Y319951D01*
X410179D01*
Y320000D01*
D01*
Y325112D01*
X410632Y325225D01*
X412368D01*
X412821Y325112D01*
Y320000D01*
Y319951D01*
X418179D01*
Y325112D01*
X416752D01*
X416678Y325488D01*
X416401Y325901D01*
X415077Y327225D01*
X415284Y327726D01*
X429000D01*
X429488Y327822D01*
X429901Y328099D01*
X432401Y330599D01*
X432678Y331012D01*
X432774Y331500D01*
Y332414D01*
X432777Y332442D01*
X433054Y332856D01*
X433182Y333500D01*
X433054Y334144D01*
X432690Y334690D01*
X432144Y335054D01*
X431500Y335182D01*
X430856Y335054D01*
X430310Y334690D01*
X429946Y334144D01*
X429818Y333500D01*
X429946Y332856D01*
X430222Y332443D01*
X430226Y332392D01*
Y332028D01*
X428472Y330275D01*
X418429D01*
Y331000D01*
X413595D01*
Y335000D01*
X414900D01*
Y335799D01*
X414039D01*
X413956Y335951D01*
X414253Y336451D01*
X418179D01*
Y341612D01*
X414096D01*
X413957Y341865D01*
X413915Y342112D01*
X414133Y342331D01*
X414155Y342348D01*
X414644Y342446D01*
X415190Y342810D01*
X415554Y343356D01*
X415682Y344000D01*
X415554Y344644D01*
X415190Y345190D01*
X414644Y345554D01*
X414425Y345598D01*
X414194Y346128D01*
X414355Y346388D01*
X414644Y346446D01*
X415190Y346810D01*
X415554Y347356D01*
X415682Y348000D01*
X415554Y348644D01*
X415336Y348971D01*
X415600Y349471D01*
X418000D01*
X418585Y349587D01*
X419081Y349919D01*
X419413Y350415D01*
X419529Y351000D01*
Y352000D01*
Y359000D01*
X419413Y359585D01*
X419081Y360081D01*
X418585Y360413D01*
X418000Y360529D01*
D02*
G37*
G36*
X353394Y358787D02*
X351497D01*
X351533Y358650D01*
X351657Y358335D01*
X351804Y358090D01*
X351974Y357915D01*
X352167Y357810D01*
X352382Y357775D01*
X350100D01*
Y356104D01*
X352382D01*
Y357775D01*
X352417Y357676D01*
X352522Y357588D01*
X352697Y357509D01*
X352942Y357442D01*
X353257Y357384D01*
X353394Y357368D01*
Y358787D01*
D02*
G37*
G36*
X435660Y365487D02*
X434079D01*
Y363118D01*
X435660D01*
Y365487D01*
D02*
G37*
G36*
X393701Y421339D02*
X390606Y421166D01*
X387551Y420646D01*
X384572Y419788D01*
X381709Y418602D01*
X378996Y417103D01*
X376468Y415309D01*
X374157Y413244D01*
X372092Y410933D01*
X370299Y408405D01*
X368799Y405693D01*
X367613Y402829D01*
X366755Y399851D01*
X366236Y396795D01*
X366062Y393701D01*
X366236Y390606D01*
X366755Y387551D01*
X367613Y384572D01*
X368799Y381709D01*
X370299Y378996D01*
X372092Y376468D01*
X374157Y374157D01*
X376468Y372092D01*
X378996Y370299D01*
X381709Y368799D01*
X384572Y367613D01*
X384965Y367500D01*
X387551Y366755D01*
X387551D01*
X390606Y366236D01*
X393701Y366062D01*
X395394Y366157D01*
X396795Y366236D01*
X397098Y366287D01*
X399851Y366755D01*
X402829Y367613D01*
X405693Y368799D01*
X408405Y370299D01*
X410933Y372092D01*
X413244Y374157D01*
X415309Y376468D01*
X417103Y378996D01*
X417155Y379091D01*
X418602Y381709D01*
X419788Y384572D01*
X420646Y387551D01*
X421166Y390606D01*
X421339Y393701D01*
X421166Y396795D01*
X420646Y399851D01*
X419788Y402829D01*
X418602Y405693D01*
X417103Y408405D01*
X415309Y410933D01*
X413244Y413244D01*
X410933Y415309D01*
X408405Y417103D01*
X405693Y418602D01*
X402829Y419788D01*
X399851Y420646D01*
X396795Y421166D01*
X393701Y421339D01*
D02*
G37*
G36*
X347503Y358787D02*
X345606D01*
Y356104D01*
X348900D01*
Y357775D01*
X346618D01*
X346833Y357810D01*
X347026Y357915D01*
X347196Y358090D01*
X347343Y358335D01*
X347467Y358650D01*
X347503Y358787D01*
D02*
G37*
G36*
X455799Y384400D02*
X453569D01*
Y383083D01*
X453968D01*
X453873Y383073D01*
X453789Y383043D01*
X453714Y382993D01*
X453649Y382923D01*
X453593Y382833D01*
X453569Y382772D01*
Y382212D01*
X453574Y382204D01*
X453598Y382174D01*
X453569D01*
Y382071D01*
X455799D01*
Y384400D01*
D02*
G37*
G36*
X452368D02*
X450138D01*
Y382071D01*
X452368D01*
Y382174D01*
X452339D01*
X452363Y382204D01*
X452368Y382212D01*
Y382772D01*
X452344Y382833D01*
X452288Y382923D01*
X452223Y382993D01*
X452148Y383043D01*
X452064Y383073D01*
X451968Y383083D01*
X452368D01*
Y384400D01*
D02*
G37*
G36*
X446112Y387179D02*
X440951D01*
Y381821D01*
X442255D01*
X442257Y381794D01*
Y380968D01*
X442354Y380481D01*
X442466Y380314D01*
Y379656D01*
X442464Y379632D01*
X441809D01*
Y374195D01*
X442463D01*
X442466Y374168D01*
Y373260D01*
X442563Y372772D01*
X442839Y372359D01*
X447226Y367972D01*
Y337528D01*
X441472Y331774D01*
X440000D01*
X439512Y331678D01*
X439099Y331401D01*
X434472Y326775D01*
X424586D01*
X424558Y326777D01*
X424144Y327054D01*
X423500Y327182D01*
X422856Y327054D01*
X422310Y326690D01*
X421946Y326144D01*
X421818Y325500D01*
X421946Y324856D01*
X422310Y324310D01*
X422856Y323946D01*
X423500Y323818D01*
X424144Y323946D01*
X424556Y324221D01*
X424608Y324225D01*
X435000D01*
X435488Y324323D01*
X435901Y324599D01*
X440528Y329225D01*
X442000D01*
X442488Y329323D01*
X442901Y329599D01*
X449401Y336099D01*
X449678Y336512D01*
X449775Y337000D01*
Y362744D01*
X450079Y363118D01*
X450275Y363118D01*
X451660D01*
Y366087D01*
Y369055D01*
X450174D01*
X450079Y369055D01*
X449599Y369105D01*
X449401Y369401D01*
X445108Y373695D01*
X445239Y374195D01*
X445671D01*
Y379632D01*
X445017D01*
X445015Y379656D01*
Y380760D01*
X444918Y381248D01*
X444869Y381321D01*
X445029Y381821D01*
X446112D01*
Y382553D01*
X446612Y382895D01*
X447000Y382818D01*
X447644Y382946D01*
X448190Y383310D01*
X448554Y383856D01*
X448682Y384500D01*
X448554Y385144D01*
X448190Y385690D01*
X447644Y386054D01*
X447000Y386182D01*
X446612Y386105D01*
X446112Y386447D01*
Y387179D01*
D02*
G37*
G36*
X436868Y387429D02*
X434638D01*
Y385100D01*
X436868D01*
Y386405D01*
X436469D01*
X436563Y386415D01*
X436649Y386446D01*
X436724Y386496D01*
X436789Y386567D01*
X436843Y386658D01*
X436868Y386720D01*
Y387429D01*
D02*
G37*
G36*
X418429Y335799D02*
X416100D01*
Y335000D01*
X418429D01*
Y335799D01*
D02*
G37*
G36*
X357362Y384400D02*
X355132D01*
Y382071D01*
X357362D01*
Y384400D01*
D02*
G37*
G36*
X438441Y369055D02*
X436860D01*
Y366087D01*
Y363118D01*
X438441D01*
X438726Y362736D01*
Y340528D01*
X436972Y338774D01*
X421587D01*
X421558Y338777D01*
X421144Y339054D01*
X420500Y339182D01*
X419856Y339054D01*
X419310Y338690D01*
X418946Y338144D01*
X418818Y337500D01*
X418946Y336856D01*
X419310Y336310D01*
X419856Y335946D01*
X420500Y335818D01*
X421144Y335946D01*
X421557Y336222D01*
X421608Y336226D01*
X437500D01*
X437988Y336322D01*
X438401Y336599D01*
X440901Y339099D01*
X441178Y339512D01*
X441274Y340000D01*
Y363341D01*
X441277Y363368D01*
X445671D01*
Y368805D01*
X438441D01*
Y369055D01*
D02*
G37*
G36*
X311752Y380084D02*
X311171D01*
Y377293D01*
X315064D01*
X315027Y377571D01*
X314689Y378388D01*
X314150Y379091D01*
X313447Y379630D01*
X312630Y379968D01*
X311752Y380084D01*
D02*
G37*
G36*
X436868Y383900D02*
X434638D01*
Y381571D01*
X436868D01*
Y383900D01*
D02*
G37*
G36*
X353931Y384400D02*
X351701D01*
Y382071D01*
X353931D01*
Y384400D01*
D02*
G37*
G36*
X440299Y383900D02*
X438068D01*
Y381571D01*
X440299D01*
Y383900D01*
D02*
G37*
G36*
Y408900D02*
X438068D01*
Y406571D01*
X440299D01*
Y408900D01*
D02*
G37*
G36*
X450650Y427182D02*
X450636Y427179D01*
X449888D01*
Y426484D01*
X449885Y426457D01*
X449827Y426425D01*
X449703Y426378D01*
X449520Y426333D01*
X449281Y426297D01*
X449128Y426284D01*
X448000D01*
X447317Y426149D01*
X446738Y425762D01*
X446612Y425573D01*
X446112Y425725D01*
Y427179D01*
X440951D01*
Y422326D01*
X440451Y422085D01*
X440299Y422207D01*
Y423900D01*
X434638D01*
Y423159D01*
X434414Y422751D01*
X434414Y422751D01*
Y422751D01*
X434138Y422724D01*
X434131Y422757D01*
X434054Y423144D01*
X433690Y423690D01*
X433144Y424054D01*
X432500Y424182D01*
X431856Y424054D01*
X431310Y423690D01*
X430946Y423144D01*
X430818Y422500D01*
X430946Y421856D01*
X431221Y421444D01*
X431225Y421392D01*
Y417502D01*
X431322Y417014D01*
X431599Y416600D01*
X432100Y416099D01*
X432514Y415823D01*
X433002Y415726D01*
X434864D01*
X434888Y415723D01*
Y414321D01*
X440049D01*
Y419226D01*
X440951D01*
Y415096D01*
X440948Y415083D01*
X440951Y415069D01*
Y414321D01*
X441603D01*
X441619Y414289D01*
X441663Y414158D01*
X441702Y413981D01*
X441747Y413535D01*
Y412907D01*
X441738Y412777D01*
X441704Y412531D01*
X441663Y412341D01*
X441619Y412211D01*
X441603Y412179D01*
X440951D01*
Y411431D01*
X440948Y411417D01*
X440951Y411404D01*
Y406821D01*
X442286D01*
X442354Y406481D01*
X442587Y406132D01*
X442522Y405894D01*
X442359Y405632D01*
X442309D01*
Y400195D01*
X446171D01*
Y405632D01*
X445517D01*
X445515Y405656D01*
Y406260D01*
X445503Y406321D01*
X445913Y406821D01*
X446112D01*
Y407553D01*
X446612Y407895D01*
X447000Y407818D01*
X447644Y407946D01*
X448190Y408310D01*
X448554Y408856D01*
X448682Y409500D01*
X448554Y410144D01*
X448190Y410690D01*
X447644Y411054D01*
X447000Y411182D01*
X446612Y411105D01*
X446204Y411349D01*
X446157Y411399D01*
X446112Y411477D01*
Y412179D01*
X445460D01*
X445444Y412211D01*
X445400Y412341D01*
X445361Y412519D01*
X445316Y412965D01*
Y413593D01*
X445325Y413724D01*
X445359Y413969D01*
X445400Y414158D01*
X445444Y414289D01*
X445460Y414321D01*
X446112D01*
Y415069D01*
X446115Y415083D01*
X446112Y415096D01*
Y419679D01*
X444135D01*
X443944Y420141D01*
X444433Y420630D01*
X444709Y421044D01*
X444806Y421531D01*
Y421797D01*
X444808Y421821D01*
X446112D01*
Y423275D01*
X446612Y423427D01*
X446738Y423238D01*
X447317Y422852D01*
X448000Y422716D01*
X449128D01*
X449281Y422703D01*
X449520Y422667D01*
X449703Y422622D01*
X449827Y422575D01*
X449885Y422543D01*
X449888Y422516D01*
Y421821D01*
X450636D01*
X450650Y421818D01*
X450663Y421821D01*
X451371D01*
X451522Y421321D01*
X451279Y421158D01*
X450914Y420612D01*
X450786Y419969D01*
X450549Y419679D01*
X449888D01*
Y414321D01*
X451380D01*
X451456Y414137D01*
X451535Y413821D01*
X451291Y413456D01*
X451194Y412968D01*
Y412206D01*
X451192Y412179D01*
X449888D01*
Y406821D01*
X451192D01*
X451194Y406797D01*
Y405915D01*
X451082Y405748D01*
X450985Y405260D01*
Y404967D01*
X450983Y404943D01*
X450329D01*
Y399506D01*
X454191D01*
Y404943D01*
X454148D01*
X453738Y405443D01*
X453743Y405469D01*
Y406797D01*
X453745Y406821D01*
X455049D01*
Y411692D01*
X455549Y411942D01*
X455701Y411827D01*
Y410100D01*
X461362D01*
Y412429D01*
X459900D01*
X459632Y412929D01*
X459709Y413044D01*
X459806Y413531D01*
Y414294D01*
X459808Y414321D01*
X461112D01*
Y419679D01*
X460214D01*
X459946Y420179D01*
X460086Y420388D01*
X460214Y421032D01*
X460156Y421321D01*
X460544Y421821D01*
X461112D01*
Y427179D01*
X455951D01*
Y421821D01*
X456519D01*
X456907Y421321D01*
X456849Y421032D01*
X456977Y420388D01*
X457117Y420179D01*
X456849Y419679D01*
X455951D01*
Y414806D01*
X455049D01*
Y419679D01*
X454388D01*
X454151Y419969D01*
X454023Y420612D01*
X453658Y421158D01*
X453414Y421321D01*
X453566Y421821D01*
X455049D01*
Y427179D01*
X450663D01*
X450650Y427182D01*
D02*
G37*
G36*
X440299Y427429D02*
X438068D01*
Y425100D01*
X440299D01*
Y427429D01*
D02*
G37*
G36*
X436868D02*
X434638D01*
Y425100D01*
X436868D01*
Y427429D01*
D02*
G37*
G36*
X410429Y315868D02*
X409728D01*
X409667Y315844D01*
X409577Y315789D01*
X409507Y315723D01*
X409457Y315649D01*
X409427Y315564D01*
X409417Y315469D01*
Y315868D01*
X408100D01*
Y313638D01*
X410429D01*
Y315868D01*
D02*
G37*
G36*
X414900D02*
X413595D01*
Y315469D01*
X413585Y315564D01*
X413554Y315649D01*
X413504Y315723D01*
X413433Y315789D01*
X413342Y315844D01*
X413280Y315868D01*
X412571D01*
Y313638D01*
X414900D01*
Y315868D01*
D02*
G37*
G36*
X386929Y319299D02*
X384600D01*
Y317069D01*
X386929D01*
Y319299D01*
D02*
G37*
G36*
X402429Y319299D02*
X400100D01*
Y317069D01*
X401417D01*
Y317469D01*
X401427Y317373D01*
X401457Y317288D01*
X401507Y317214D01*
X401577Y317148D01*
X401667Y317093D01*
X401728Y317069D01*
X402429D01*
Y319299D01*
D02*
G37*
G36*
X406900D02*
X404571D01*
Y317069D01*
X405280D01*
X405342Y317093D01*
X405433Y317148D01*
X405504Y317214D01*
X405554Y317288D01*
X405585Y317373D01*
X405595Y317469D01*
Y317069D01*
X406900D01*
Y319299D01*
D02*
G37*
G36*
X410429D02*
X408100D01*
Y317069D01*
X409417D01*
Y317469D01*
X409427Y317373D01*
X409457Y317288D01*
X409507Y317214D01*
X409577Y317148D01*
X409667Y317093D01*
X409728Y317069D01*
X410429D01*
Y319299D01*
D02*
G37*
G36*
X391400D02*
X389071D01*
Y317069D01*
X391400D01*
Y319299D01*
D02*
G37*
G36*
X394929D02*
X392600D01*
Y317069D01*
X393917D01*
Y317469D01*
X393927Y317373D01*
X393957Y317288D01*
X394007Y317214D01*
X394077Y317148D01*
X394167Y317093D01*
X394228Y317069D01*
X394929D01*
Y319299D01*
D02*
G37*
G36*
X398900D02*
X396571D01*
Y317069D01*
X397280D01*
X397342Y317093D01*
X397433Y317148D01*
X397504Y317214D01*
X397554Y317288D01*
X397585Y317373D01*
X397595Y317469D01*
Y317069D01*
X398900D01*
Y319299D01*
D02*
G37*
G36*
X406900Y315868D02*
X405595D01*
Y315469D01*
X405585Y315564D01*
X405554Y315649D01*
X405504Y315723D01*
X405433Y315789D01*
X405342Y315844D01*
X405280Y315868D01*
X404571D01*
Y313638D01*
X406900D01*
Y315868D01*
D02*
G37*
G36*
X405900Y443362D02*
X403571D01*
Y441131D01*
X405900D01*
Y443362D01*
D02*
G37*
G36*
X375400D02*
X373071D01*
Y441131D01*
X375400D01*
Y443362D01*
D02*
G37*
G36*
X400362Y442830D02*
X398600D01*
Y441006D01*
X402667D01*
X402602Y441333D01*
X402077Y442120D01*
X401290Y442646D01*
X400362Y442830D01*
D02*
G37*
G36*
X393925Y444265D02*
X379075D01*
X379001Y444250D01*
X378926D01*
X378856Y444236D01*
X378787Y444207D01*
X378713Y444193D01*
X378650Y444151D01*
X378581Y444122D01*
X378580Y444122D01*
X378533Y444090D01*
X378480Y444037D01*
X378465Y444027D01*
X378465Y444027D01*
X378455Y444012D01*
X378452Y444009D01*
X378365Y443937D01*
X378134Y443654D01*
X378117Y443622D01*
X378093Y443592D01*
X378074Y443557D01*
X378051Y443529D01*
X378034Y443497D01*
X378028Y443474D01*
X377979Y443401D01*
X377973Y443387D01*
X377968Y443362D01*
X376600D01*
Y440531D01*
X376000D01*
Y439931D01*
X373071D01*
Y439265D01*
X373071Y439265D01*
X369575D01*
X369501Y439250D01*
X369426Y439250D01*
X369356Y439236D01*
X369287Y439207D01*
X369283Y439207D01*
X369279Y439204D01*
X369158Y439154D01*
X369154Y439153D01*
X369150Y439151D01*
X369081Y439122D01*
X369022Y439083D01*
X368969Y439029D01*
X368906Y438987D01*
X367512Y437594D01*
X367471Y437531D01*
X367417Y437478D01*
X367378Y437419D01*
X367349Y437350D01*
X367347Y437346D01*
X367346Y437342D01*
X367296Y437221D01*
X367294Y437217D01*
X367293Y437213D01*
X367264Y437144D01*
X367250Y437074D01*
Y436999D01*
X367235Y436925D01*
Y431000D01*
Y423892D01*
X367221Y423822D01*
X367204Y423796D01*
X367178Y423778D01*
X367108Y423765D01*
X336000D01*
X335707Y423706D01*
X335459Y423541D01*
X335294Y423293D01*
X335235Y423000D01*
Y421000D01*
Y418500D01*
X335294Y418207D01*
X335459Y417959D01*
X335707Y417794D01*
X336000Y417735D01*
X370425D01*
X370499Y417750D01*
X370574Y417750D01*
X370643Y417764D01*
X370713Y417793D01*
X370717Y417794D01*
X370721Y417796D01*
X370842Y417846D01*
X370846Y417847D01*
X370849Y417849D01*
X370919Y417878D01*
X370978Y417917D01*
X371031Y417971D01*
X371094Y418013D01*
X372487Y419406D01*
X372529Y419469D01*
X372583Y419522D01*
X372622Y419581D01*
X372651Y419651D01*
X372653Y419654D01*
X372654Y419658D01*
X372704Y419779D01*
X372707Y419783D01*
X372707Y419787D01*
X372736Y419857D01*
X372750Y419926D01*
Y420001D01*
X372765Y420075D01*
Y424608D01*
X372779Y424678D01*
X372818Y424736D01*
X373264Y425182D01*
X373323Y425221D01*
X373392Y425235D01*
X389126D01*
X389133Y425233D01*
X389173Y425229D01*
X389200Y425201D01*
X389217Y425169D01*
X389234Y425148D01*
X389243Y425123D01*
X389268Y425082D01*
X389314Y424959D01*
X389361Y424883D01*
X389395Y424800D01*
X389422Y424773D01*
X389115Y424313D01*
X388987Y423669D01*
X389115Y423026D01*
X389480Y422480D01*
X390025Y422115D01*
X390669Y421987D01*
X391313Y422115D01*
X391726Y422391D01*
X391777Y422395D01*
X415303D01*
X424226Y413472D01*
Y406500D01*
X424323Y406012D01*
X424599Y405599D01*
X428185Y402012D01*
X428599Y401736D01*
X429087Y401639D01*
X434805D01*
X434829Y401637D01*
Y400195D01*
X438691D01*
Y405632D01*
X434829D01*
Y404190D01*
X434805Y404188D01*
X429614D01*
X426775Y407028D01*
Y414000D01*
X426678Y414488D01*
X426401Y414901D01*
X416732Y424571D01*
X416318Y424847D01*
X415831Y424944D01*
X403679D01*
X403487Y425406D01*
X403817Y425735D01*
X409500D01*
X409793Y425794D01*
X410041Y425959D01*
X410207Y426207D01*
X410265Y426500D01*
Y433500D01*
Y436500D01*
X410207Y436793D01*
X410041Y437041D01*
X409793Y437207D01*
X409556Y437254D01*
X409429Y437701D01*
X409429Y437701D01*
X409429D01*
X409429Y437701D01*
Y439931D01*
X403571D01*
Y439407D01*
X403479Y439251D01*
X403456Y439233D01*
X403019Y439053D01*
X403004Y439069D01*
X402981Y439084D01*
X402970Y439097D01*
X402967Y439100D01*
X402964Y439103D01*
X402941Y439115D01*
X402912Y439147D01*
X402839Y439200D01*
X402602Y439478D01*
X402667Y439806D01*
X398000D01*
Y440406D01*
X397400D01*
Y442830D01*
X395638D01*
X395152Y442733D01*
X394805Y443055D01*
X394765Y443121D01*
Y443425D01*
X394750Y443499D01*
Y443574D01*
X394738Y443637D01*
X394709Y443706D01*
X394707Y443717D01*
X394700Y443727D01*
X394623Y443912D01*
X394412Y444123D01*
X394227Y444200D01*
X394217Y444206D01*
X394206Y444209D01*
X394137Y444238D01*
X394074Y444250D01*
X393999D01*
X393925Y444265D01*
D02*
G37*
G36*
X386929Y315868D02*
X384600D01*
Y313638D01*
X386929D01*
Y315868D01*
D02*
G37*
G36*
X409429Y443362D02*
X407100D01*
Y441131D01*
X409429D01*
Y443362D01*
D02*
G37*
G36*
X394929Y315868D02*
X394228D01*
X394167Y315844D01*
X394077Y315789D01*
X394007Y315723D01*
X393957Y315649D01*
X393927Y315564D01*
X393917Y315469D01*
Y315868D01*
X392600D01*
Y313638D01*
X394929D01*
Y315868D01*
D02*
G37*
G36*
X398900D02*
X397595D01*
Y315469D01*
X397585Y315564D01*
X397554Y315649D01*
X397504Y315723D01*
X397433Y315789D01*
X397342Y315844D01*
X397280Y315868D01*
X396571D01*
Y313638D01*
X398900D01*
Y315868D01*
D02*
G37*
G36*
X402429D02*
X401728D01*
X401667Y315844D01*
X401577Y315789D01*
X401507Y315723D01*
X401457Y315649D01*
X401427Y315564D01*
X401417Y315469D01*
Y315868D01*
X400100D01*
Y313638D01*
X402429D01*
Y315868D01*
D02*
G37*
G36*
X391400D02*
X389071D01*
Y313638D01*
X391400D01*
Y315868D01*
D02*
G37*
G36*
X418429D02*
X416100D01*
Y313638D01*
X418429D01*
Y315868D01*
D02*
G37*
G36*
X400500Y460682D02*
X399856Y460554D01*
X399310Y460190D01*
X398946Y459644D01*
X398818Y459000D01*
X398946Y458356D01*
X399310Y457810D01*
X399856Y457446D01*
X400500Y457318D01*
X401144Y457446D01*
X401557Y457722D01*
X401608Y457725D01*
X410472D01*
X412725Y455472D01*
Y443136D01*
X412723Y443112D01*
X411321D01*
Y437951D01*
X416679D01*
Y443112D01*
X415277D01*
X415274Y443136D01*
Y456000D01*
X415177Y456488D01*
X414901Y456901D01*
X411901Y459901D01*
X411488Y460178D01*
X411000Y460275D01*
X401586D01*
X401558Y460277D01*
X401144Y460554D01*
X400500Y460682D01*
D02*
G37*
G36*
X414900Y319299D02*
X412571D01*
Y317069D01*
X413280D01*
X413342Y317093D01*
X413433Y317148D01*
X413504Y317214D01*
X413554Y317288D01*
X413585Y317373D01*
X413595Y317469D01*
Y317069D01*
X414900D01*
Y319299D01*
D02*
G37*
G36*
X436868Y412429D02*
X434638D01*
Y410100D01*
X436868D01*
Y412429D01*
D02*
G37*
G36*
X315064Y410109D02*
X311171D01*
Y407318D01*
X311752D01*
X312630Y407433D01*
X313447Y407772D01*
X314150Y408311D01*
X314689Y409013D01*
X315027Y409831D01*
X315064Y410109D01*
D02*
G37*
G36*
X309971D02*
X306077D01*
X306114Y409831D01*
X306453Y409013D01*
X306992Y408311D01*
X307694Y407772D01*
X308512Y407433D01*
X309390Y407318D01*
X309971D01*
Y410109D01*
D02*
G37*
G36*
X440299Y412429D02*
X438068D01*
Y410100D01*
X440299D01*
Y412429D01*
D02*
G37*
G36*
X309971Y414100D02*
X309390D01*
X308512Y413984D01*
X307694Y413646D01*
X306992Y413107D01*
X306453Y412404D01*
X306114Y411587D01*
X306077Y411309D01*
X309971D01*
Y414100D01*
D02*
G37*
G36*
X324782Y414012D02*
X324575Y413984D01*
X323757Y413646D01*
X323741Y413633D01*
X324782Y414012D01*
D02*
G37*
G36*
X418429Y319299D02*
X416100D01*
Y317069D01*
X418429D01*
Y319299D01*
D02*
G37*
G36*
X457932Y408900D02*
X455701D01*
Y406571D01*
X457932D01*
Y408900D01*
D02*
G37*
G36*
X461362D02*
X459131D01*
Y406571D01*
X461362D01*
Y408900D01*
D02*
G37*
G36*
X311752Y414100D02*
X311171D01*
Y411309D01*
X315064D01*
X315027Y411587D01*
X314689Y412404D01*
X314150Y413107D01*
X313447Y413646D01*
X312630Y413984D01*
X311752Y414100D01*
D02*
G37*
G36*
X416679Y437049D02*
X411321D01*
Y431888D01*
X416679D01*
Y433192D01*
X416706Y433194D01*
X422504D01*
X427726Y427972D01*
Y417087D01*
X427723Y417058D01*
X427446Y416644D01*
X427318Y416000D01*
X427446Y415356D01*
X427810Y414810D01*
X428356Y414446D01*
X429000Y414318D01*
X429644Y414446D01*
X430190Y414810D01*
X430554Y415356D01*
X430682Y416000D01*
X430554Y416644D01*
X430278Y417057D01*
X430274Y417108D01*
Y428500D01*
X430177Y428988D01*
X429901Y429401D01*
X423933Y435370D01*
X423519Y435646D01*
X423032Y435743D01*
X416706D01*
X416679Y435745D01*
Y437049D01*
D02*
G37*
%LPD*%
G36*
X378415Y317373D02*
X378446Y317288D01*
X378496Y317214D01*
X378567Y317148D01*
X378658Y317093D01*
X378769Y317049D01*
X378901Y317014D01*
X379053Y316988D01*
X379225Y316973D01*
X379417Y316968D01*
Y315968D01*
X379225Y315964D01*
X379053Y315949D01*
X378901Y315924D01*
X378769Y315889D01*
X378658Y315844D01*
X378567Y315789D01*
X378496Y315723D01*
X378446Y315649D01*
X378415Y315564D01*
X378405Y315469D01*
Y317469D01*
X378415Y317373D01*
D02*
G37*
G36*
X393735Y351183D02*
Y346713D01*
X393406Y346443D01*
X392234D01*
Y345500D01*
X394000D01*
Y344265D01*
X388817D01*
X388041Y345041D01*
X388041Y345041D01*
X387265Y345817D01*
Y351000D01*
X387265Y351000D01*
X387218Y351235D01*
X387249Y351354D01*
X387512Y351735D01*
X393183D01*
X393735Y351183D01*
D02*
G37*
G36*
X398000Y358000D02*
Y353500D01*
Y350853D01*
X397846Y350622D01*
X397749Y350138D01*
Y346595D01*
X397768Y346500D01*
X397363Y346000D01*
X394568D01*
X394541Y346041D01*
X394500Y346068D01*
Y351500D01*
X393500Y352500D01*
X379500D01*
X378500Y353500D01*
Y358500D01*
X379000Y359000D01*
X397000D01*
X398000Y358000D01*
D02*
G37*
G36*
X416005Y324874D02*
X416020Y324762D01*
X416045Y324662D01*
X416080Y324576D01*
X416125Y324504D01*
X416180Y324444D01*
X416245Y324398D01*
X416320Y324365D01*
X416405Y324345D01*
X416500Y324338D01*
X414500D01*
X414595Y324345D01*
X414680Y324365D01*
X414755Y324398D01*
X414820Y324444D01*
X414875Y324504D01*
X414920Y324576D01*
X414955Y324662D01*
X414980Y324762D01*
X414995Y324874D01*
X415000Y325000D01*
X416000D01*
X416005Y324874D01*
D02*
G37*
G36*
X400005Y325158D02*
X400020Y324986D01*
X400045Y324834D01*
X400080Y324703D01*
X400125Y324591D01*
X400180Y324500D01*
X400245Y324429D01*
X400320Y324379D01*
X400405Y324348D01*
X400500Y324338D01*
X398500D01*
X398595Y324348D01*
X398680Y324379D01*
X398755Y324429D01*
X398820Y324500D01*
X398875Y324591D01*
X398920Y324703D01*
X398955Y324834D01*
X398980Y324986D01*
X398995Y325158D01*
X399000Y325350D01*
X400000D01*
X400005Y325158D01*
D02*
G37*
G36*
X371204Y323137D02*
X371241Y323115D01*
X371286Y323095D01*
X371339Y323078D01*
X371399Y323064D01*
X371468Y323052D01*
X371628Y323037D01*
X371720Y323033D01*
X371820Y323031D01*
Y322031D01*
X371720Y322030D01*
X371468Y322011D01*
X371399Y321999D01*
X371339Y321985D01*
X371286Y321968D01*
X371241Y321948D01*
X371204Y321926D01*
X371174Y321901D01*
Y323162D01*
X371204Y323137D01*
D02*
G37*
G36*
X418000Y351000D02*
X415600D01*
X415377Y350956D01*
X415150Y350932D01*
X415087Y350898D01*
X415015Y350884D01*
X414826Y350757D01*
X414625Y350649D01*
X414579Y350592D01*
X414519Y350552D01*
X414393Y350363D01*
X414249Y350186D01*
X413984Y349686D01*
X413982Y349679D01*
X413356Y349554D01*
X412810Y349190D01*
X412684Y349000D01*
X406188D01*
Y350138D01*
X406091Y350622D01*
X405817Y351033D01*
X405406Y351308D01*
X404921Y351404D01*
X404437Y351308D01*
X404026Y351033D01*
X403848D01*
X403437Y351308D01*
X402953Y351404D01*
X402468Y351308D01*
X402057Y351033D01*
X401937Y350853D01*
X401783Y350622D01*
X401686Y350138D01*
Y346595D01*
X401544Y346421D01*
X398885D01*
X398821Y346485D01*
X398821Y346485D01*
X398518Y346649D01*
X398514Y346670D01*
Y350062D01*
X398566Y350324D01*
X398636Y350429D01*
X398665Y350498D01*
X398707Y350561D01*
X398721Y350635D01*
X398750Y350704D01*
Y350780D01*
X398765Y350853D01*
Y353500D01*
Y358000D01*
X398707Y358293D01*
X398568Y358500D01*
D01*
X398541Y358541D01*
X398567Y358595D01*
X398605Y358659D01*
X398625Y358745D01*
X398731Y359000D01*
X418000D01*
Y351000D01*
D02*
G37*
G36*
X405595Y321532D02*
X405585Y321626D01*
X405554Y321711D01*
X405504Y321786D01*
X405433Y321851D01*
X405342Y321906D01*
X405231Y321952D01*
X405099Y321987D01*
X404947Y322011D01*
X404775Y322026D01*
X404583Y322031D01*
Y323031D01*
X404775Y323037D01*
X404947Y323052D01*
X405099Y323077D01*
X405231Y323112D01*
X405342Y323156D01*
X405433Y323212D01*
X405504Y323276D01*
X405554Y323352D01*
X405585Y323436D01*
X405595Y323532D01*
Y321532D01*
D02*
G37*
G36*
X413991Y347100D02*
X413953Y347097D01*
X413911Y347086D01*
X413865Y347068D01*
X413816Y347043D01*
X413763Y347010D01*
X413706Y346970D01*
X413582Y346867D01*
X413514Y346805D01*
X413443Y346736D01*
X412736Y347443D01*
X412805Y347514D01*
X412970Y347706D01*
X413010Y347763D01*
X413043Y347816D01*
X413068Y347865D01*
X413086Y347911D01*
X413097Y347953D01*
X413100Y347991D01*
X413991Y347100D01*
D02*
G37*
G36*
X424172Y326105D02*
X424209Y326083D01*
X424254Y326064D01*
X424307Y326047D01*
X424368Y326032D01*
X424436Y326021D01*
X424597Y326005D01*
X424689Y326001D01*
X424788Y326000D01*
Y325000D01*
X424689Y324999D01*
X424436Y324979D01*
X424368Y324968D01*
X424307Y324953D01*
X424254Y324936D01*
X424209Y324917D01*
X424172Y324895D01*
X424143Y324870D01*
Y326130D01*
X424172Y326105D01*
D02*
G37*
G36*
X409271Y334592D02*
X409186Y334562D01*
X409111Y334514D01*
X409046Y334446D01*
X408991Y334359D01*
X408946Y334253D01*
X408911Y334127D01*
X408886Y333982D01*
X408871Y333818D01*
X408868Y333690D01*
X408943Y333765D01*
X409014Y333695D01*
X409206Y333530D01*
X409263Y333490D01*
X409316Y333457D01*
X409365Y333432D01*
X409411Y333414D01*
X409453Y333403D01*
X409491Y333400D01*
X408600Y332509D01*
X408597Y332547D01*
X408586Y332589D01*
X408568Y332635D01*
X408543Y332684D01*
X408510Y332737D01*
X408470Y332794D01*
X408367Y332918D01*
X408305Y332986D01*
X408236Y333057D01*
X408812Y333634D01*
X407866D01*
X407861Y333818D01*
X407846Y333982D01*
X407821Y334127D01*
X407786Y334253D01*
X407741Y334359D01*
X407686Y334446D01*
X407621Y334514D01*
X407546Y334562D01*
X407461Y334592D01*
X407366Y334601D01*
X409366D01*
X409271Y334592D01*
D02*
G37*
G36*
X413595Y338016D02*
X413585Y338111D01*
X413554Y338196D01*
X413504Y338271D01*
X413433Y338336D01*
X413342Y338391D01*
X413231Y338436D01*
X413099Y338471D01*
X412947Y338496D01*
X412775Y338511D01*
X412583Y338516D01*
Y339516D01*
X412775Y339521D01*
X412947Y339536D01*
X413099Y339561D01*
X413231Y339596D01*
X413342Y339641D01*
X413433Y339696D01*
X413504Y339761D01*
X413554Y339836D01*
X413585Y339921D01*
X413595Y340016D01*
Y338016D01*
D02*
G37*
G36*
X385927Y323436D02*
X385957Y323352D01*
X386007Y323276D01*
X386077Y323212D01*
X386167Y323156D01*
X386277Y323112D01*
X386407Y323077D01*
X386557Y323052D01*
X386727Y323037D01*
X386917Y323031D01*
Y322031D01*
X386727Y322026D01*
X386557Y322011D01*
X386407Y321987D01*
X386277Y321952D01*
X386167Y321906D01*
X386077Y321851D01*
X386007Y321786D01*
X385957Y321711D01*
X385927Y321626D01*
X385917Y321532D01*
Y323532D01*
X385927Y323436D01*
D02*
G37*
G36*
X421172Y338105D02*
X421209Y338083D01*
X421254Y338064D01*
X421307Y338047D01*
X421368Y338033D01*
X421436Y338021D01*
X421597Y338005D01*
X421689Y338001D01*
X421788Y338000D01*
Y337000D01*
X421689Y336999D01*
X421436Y336979D01*
X421368Y336967D01*
X421307Y336953D01*
X421254Y336936D01*
X421209Y336917D01*
X421172Y336895D01*
X421143Y336870D01*
Y338130D01*
X421172Y338105D01*
D02*
G37*
G36*
X386415Y336874D02*
X386446Y336789D01*
X386496Y336714D01*
X386567Y336649D01*
X386658Y336594D01*
X386770Y336548D01*
X386901Y336513D01*
X387053Y336489D01*
X387225Y336473D01*
X387417Y336469D01*
Y335469D01*
X387225Y335464D01*
X387053Y335449D01*
X386901Y335423D01*
X386770Y335388D01*
X386658Y335344D01*
X386567Y335289D01*
X386496Y335224D01*
X386446Y335149D01*
X386415Y335064D01*
X386405Y334968D01*
Y336968D01*
X386415Y336874D01*
D02*
G37*
G36*
X374583Y321532D02*
X374573Y321626D01*
X374543Y321711D01*
X374493Y321786D01*
X374423Y321851D01*
X374333Y321906D01*
X374223Y321952D01*
X374093Y321987D01*
X373943Y322011D01*
X373773Y322026D01*
X373583Y322031D01*
Y323031D01*
X373773Y323037D01*
X373943Y323052D01*
X374093Y323077D01*
X374223Y323112D01*
X374333Y323156D01*
X374423Y323212D01*
X374493Y323276D01*
X374543Y323352D01*
X374573Y323436D01*
X374583Y323532D01*
Y321532D01*
D02*
G37*
G36*
X382095Y321532D02*
X382085Y321626D01*
X382054Y321711D01*
X382004Y321786D01*
X381933Y321851D01*
X381842Y321906D01*
X381731Y321952D01*
X381599Y321987D01*
X381447Y322011D01*
X381275Y322026D01*
X381083Y322031D01*
Y323031D01*
X381275Y323037D01*
X381447Y323052D01*
X381599Y323077D01*
X381731Y323112D01*
X381842Y323156D01*
X381933Y323212D01*
X382004Y323276D01*
X382054Y323352D01*
X382085Y323436D01*
X382095Y323532D01*
Y321532D01*
D02*
G37*
G36*
X432001Y343189D02*
X432021Y342936D01*
X432032Y342868D01*
X432047Y342807D01*
X432064Y342754D01*
X432083Y342709D01*
X432105Y342672D01*
X432130Y342643D01*
X430870D01*
X430895Y342672D01*
X430917Y342709D01*
X430936Y342754D01*
X430953Y342807D01*
X430968Y342868D01*
X430979Y342936D01*
X430995Y343097D01*
X430999Y343189D01*
X431000Y343288D01*
X432000D01*
X432001Y343189D01*
D02*
G37*
G36*
X393408Y333809D02*
X393809Y333408D01*
X393812Y333383D01*
Y331674D01*
X393804Y331634D01*
Y329143D01*
X393356Y329054D01*
X392810Y328690D01*
X392446Y328144D01*
X392318Y327500D01*
X392446Y326856D01*
X392810Y326310D01*
X393356Y325946D01*
X394000Y325818D01*
X394114Y325840D01*
X394483Y325479D01*
X394352Y325112D01*
X389774D01*
Y333804D01*
X391634D01*
X391674Y333812D01*
X393383D01*
X393408Y333809D01*
D02*
G37*
G36*
X413991Y343100D02*
X413953Y343097D01*
X413911Y343086D01*
X413865Y343068D01*
X413816Y343043D01*
X413763Y343010D01*
X413706Y342970D01*
X413582Y342867D01*
X413514Y342805D01*
X413443Y342736D01*
X412736Y343443D01*
X412805Y343514D01*
X412970Y343706D01*
X413010Y343763D01*
X413043Y343816D01*
X413068Y343865D01*
X413086Y343911D01*
X413097Y343953D01*
X413100Y343991D01*
X413991Y343100D01*
D02*
G37*
G36*
X386500Y351000D02*
Y350500D01*
Y345500D01*
X387500Y344500D01*
X388500Y343500D01*
X394000D01*
Y338500D01*
X387179D01*
Y338549D01*
X381821D01*
Y333388D01*
X382000D01*
Y329500D01*
X381000Y328500D01*
X380500Y328000D01*
X372000D01*
Y351500D01*
X386000D01*
X386500Y351000D01*
D02*
G37*
G36*
X393927Y323436D02*
X393957Y323352D01*
X394007Y323276D01*
X394077Y323212D01*
X394167Y323156D01*
X394277Y323112D01*
X394407Y323077D01*
X394557Y323052D01*
X394727Y323037D01*
X394917Y323031D01*
Y322031D01*
X394727Y322026D01*
X394557Y322011D01*
X394407Y321987D01*
X394277Y321952D01*
X394167Y321906D01*
X394077Y321851D01*
X394007Y321786D01*
X393957Y321711D01*
X393927Y321626D01*
X393917Y321532D01*
Y323532D01*
X393927Y323436D01*
D02*
G37*
G36*
X432105Y332828D02*
X432083Y332791D01*
X432064Y332746D01*
X432047Y332693D01*
X432032Y332632D01*
X432021Y332564D01*
X432005Y332403D01*
X432001Y332311D01*
X432000Y332212D01*
X431000D01*
X430999Y332311D01*
X430979Y332564D01*
X430968Y332632D01*
X430953Y332693D01*
X430936Y332746D01*
X430917Y332791D01*
X430895Y332828D01*
X430870Y332857D01*
X432130D01*
X432105Y332828D01*
D02*
G37*
G36*
X395265Y328057D02*
X395195Y327986D01*
X395030Y327794D01*
X394990Y327737D01*
X394957Y327684D01*
X394932Y327635D01*
X394914Y327589D01*
X394903Y327547D01*
X394900Y327509D01*
X394009Y328400D01*
X394047Y328403D01*
X394089Y328414D01*
X394135Y328432D01*
X394184Y328457D01*
X394237Y328490D01*
X394294Y328530D01*
X394418Y328633D01*
X394486Y328695D01*
X394557Y328765D01*
X395265Y328057D01*
D02*
G37*
G36*
X435662Y416000D02*
X435652Y416095D01*
X435621Y416180D01*
X435571Y416255D01*
X435500Y416320D01*
X435409Y416375D01*
X435297Y416420D01*
X435166Y416455D01*
X435014Y416480D01*
X434842Y416495D01*
X434650Y416500D01*
Y417500D01*
X434842Y417505D01*
X435014Y417520D01*
X435166Y417545D01*
X435297Y417580D01*
X435409Y417625D01*
X435500Y417680D01*
X435571Y417745D01*
X435621Y417820D01*
X435652Y417905D01*
X435662Y418000D01*
Y416000D01*
D02*
G37*
G36*
X459437Y415073D02*
X459351Y415043D01*
X459276Y414993D01*
X459211Y414923D01*
X459157Y414833D01*
X459111Y414723D01*
X459076Y414593D01*
X459052Y414443D01*
X459036Y414273D01*
X459031Y414083D01*
X458032D01*
X458027Y414273D01*
X458011Y414443D01*
X457986Y414593D01*
X457951Y414723D01*
X457906Y414833D01*
X457852Y414923D01*
X457787Y414993D01*
X457712Y415043D01*
X457626Y415073D01*
X457531Y415083D01*
X459531D01*
X459437Y415073D01*
D02*
G37*
G36*
X429501Y417189D02*
X429521Y416936D01*
X429532Y416868D01*
X429547Y416807D01*
X429564Y416754D01*
X429583Y416709D01*
X429605Y416672D01*
X429630Y416643D01*
X428370D01*
X428395Y416672D01*
X428417Y416709D01*
X428436Y416754D01*
X428453Y416807D01*
X428468Y416868D01*
X428479Y416936D01*
X428495Y417097D01*
X428499Y417189D01*
X428500Y417288D01*
X429500D01*
X429501Y417189D01*
D02*
G37*
G36*
X437973Y419361D02*
X437989Y419266D01*
X438014Y419181D01*
X438049Y419108D01*
X438094Y419046D01*
X438148Y418995D01*
X438213Y418956D01*
X438288Y418928D01*
X438374Y418911D01*
X438469Y418905D01*
X436469D01*
X436563Y418911D01*
X436649Y418928D01*
X436724Y418956D01*
X436789Y418995D01*
X436843Y419046D01*
X436889Y419108D01*
X436924Y419181D01*
X436948Y419266D01*
X436964Y419361D01*
X436969Y419468D01*
X437968D01*
X437973Y419361D01*
D02*
G37*
G36*
X452974Y419725D02*
X452988Y419553D01*
X453014Y419401D01*
X453033Y419326D01*
X453098D01*
X453074Y419296D01*
X453052Y419260D01*
X453093Y419158D01*
X453149Y419067D01*
X453214Y418996D01*
X453289Y418946D01*
X453373Y418915D01*
X453469Y418905D01*
X452977D01*
X452974Y418872D01*
X452970Y418780D01*
X452969Y418680D01*
X451968D01*
X451967Y418780D01*
X451958Y418905D01*
X451469D01*
X451564Y418915D01*
X451649Y418946D01*
X451723Y418996D01*
X451789Y419067D01*
X451844Y419158D01*
X451885Y419260D01*
X451863Y419296D01*
X451838Y419326D01*
X451903D01*
X451924Y419401D01*
X451948Y419553D01*
X451964Y419725D01*
X451968Y419917D01*
X452969D01*
X452974Y419725D01*
D02*
G37*
G36*
X453373Y407585D02*
X453289Y407554D01*
X453214Y407504D01*
X453149Y407433D01*
X453093Y407342D01*
X453049Y407231D01*
X453014Y407099D01*
X452988Y406947D01*
X452974Y406775D01*
X452969Y406583D01*
X451968D01*
X451964Y406775D01*
X451948Y406947D01*
X451924Y407099D01*
X451889Y407231D01*
X451844Y407342D01*
X451789Y407433D01*
X451723Y407504D01*
X451649Y407554D01*
X451564Y407585D01*
X451469Y407595D01*
X453469D01*
X453373Y407585D01*
D02*
G37*
G36*
X444745Y405678D02*
X444760Y405506D01*
X444785Y405354D01*
X444820Y405222D01*
X444865Y405111D01*
X444920Y405020D01*
X444985Y404949D01*
X445060Y404898D01*
X445145Y404868D01*
X445240Y404858D01*
X443240D01*
X443335Y404868D01*
X443420Y404898D01*
X443495Y404949D01*
X443560Y405020D01*
X443615Y405111D01*
X443660Y405222D01*
X443695Y405354D01*
X443720Y405506D01*
X443735Y405678D01*
X443740Y405870D01*
X444740D01*
X444745Y405678D01*
D02*
G37*
G36*
X445348Y410405D02*
X445379Y410320D01*
X445429Y410245D01*
X445500Y410180D01*
X445591Y410125D01*
X445703Y410080D01*
X445834Y410045D01*
X445986Y410020D01*
X446018Y410017D01*
X446064Y410021D01*
X446132Y410033D01*
X446193Y410047D01*
X446246Y410064D01*
X446291Y410083D01*
X446328Y410105D01*
X446357Y410130D01*
Y410000D01*
X446397Y410000D01*
Y409000D01*
X446357Y409000D01*
Y408870D01*
X446328Y408895D01*
X446291Y408917D01*
X446246Y408936D01*
X446193Y408953D01*
X446132Y408967D01*
X446064Y408979D01*
X446023Y408983D01*
X445986Y408980D01*
X445834Y408955D01*
X445703Y408920D01*
X445591Y408875D01*
X445500Y408820D01*
X445429Y408755D01*
X445379Y408680D01*
X445348Y408595D01*
X445338Y408500D01*
Y408953D01*
X444520Y408898D01*
X444391Y408867D01*
X444297Y408832D01*
X444263Y408809D01*
X444240Y408774D01*
X444196Y408676D01*
X444158Y408553D01*
X444124Y408403D01*
X444096Y408228D01*
X444055Y407801D01*
X444046Y407583D01*
X444531D01*
X444437Y407577D01*
X444351Y407558D01*
X444277Y407528D01*
X444211Y407485D01*
X444157Y407429D01*
X444111Y407362D01*
X444076Y407282D01*
X444052Y407190D01*
X444036Y407085D01*
X444031Y406968D01*
X443032D01*
X443026Y407085D01*
X443012Y407190D01*
X442986Y407282D01*
X442951Y407362D01*
X442907Y407429D01*
X442851Y407485D01*
X442787Y407528D01*
X442711Y407558D01*
X442626Y407577D01*
X442531Y407583D01*
X443009D01*
X442967Y408228D01*
X442939Y408403D01*
X442906Y408553D01*
X442867Y408676D01*
X442823Y408774D01*
X442774Y408847D01*
X444238D01*
Y410208D01*
X444297Y410168D01*
X444391Y410133D01*
X444520Y410102D01*
X444683Y410075D01*
X445115Y410033D01*
X445338Y410026D01*
Y410500D01*
X445348Y410405D01*
D02*
G37*
G36*
X452974Y412227D02*
X452988Y412057D01*
X453014Y411907D01*
X453049Y411777D01*
X453093Y411667D01*
X453149Y411577D01*
X453214Y411507D01*
X453289Y411457D01*
X453373Y411427D01*
X453469Y411417D01*
X451469D01*
X451564Y411427D01*
X451649Y411457D01*
X451723Y411507D01*
X451789Y411577D01*
X451844Y411667D01*
X451889Y411777D01*
X451924Y411907D01*
X451948Y412057D01*
X451964Y412227D01*
X451968Y412417D01*
X452969D01*
X452974Y412227D01*
D02*
G37*
G36*
X445195Y415063D02*
X445055Y415003D01*
X444933Y414903D01*
X444826Y414763D01*
X444736Y414583D01*
X444663Y414363D01*
X444605Y414103D01*
X444564Y413803D01*
X444540Y413463D01*
X444535Y413250D01*
X444540Y413037D01*
X444605Y412397D01*
X444663Y412137D01*
X444736Y411917D01*
X444826Y411737D01*
X444933Y411597D01*
X445055Y411497D01*
X445195Y411437D01*
X445350Y411417D01*
X441713D01*
X441868Y411437D01*
X442007Y411497D01*
X442130Y411597D01*
X442237Y411737D01*
X442327Y411917D01*
X442401Y412137D01*
X442458Y412397D01*
X442499Y412697D01*
X442523Y413037D01*
X442528Y413250D01*
X442523Y413463D01*
X442458Y414103D01*
X442401Y414363D01*
X442327Y414583D01*
X442237Y414763D01*
X442130Y414903D01*
X442007Y415003D01*
X441868Y415063D01*
X441713Y415083D01*
X445350D01*
X445195Y415063D01*
D02*
G37*
G36*
X433105Y421828D02*
X433083Y421791D01*
X433064Y421746D01*
X433047Y421693D01*
X433033Y421632D01*
X433021Y421564D01*
X433005Y421403D01*
X433001Y421311D01*
X433000Y421212D01*
X432000D01*
X431999Y421311D01*
X431979Y421564D01*
X431967Y421632D01*
X431953Y421693D01*
X431936Y421746D01*
X431917Y421791D01*
X431895Y421828D01*
X431870Y421857D01*
X433130D01*
X433105Y421828D01*
D02*
G37*
G36*
X402340Y438635D02*
X402390Y438581D01*
X402463Y438528D01*
X402479Y438513D01*
X402480Y438511D01*
X402485Y438506D01*
X402527Y438465D01*
X402571Y438435D01*
X402646Y438360D01*
X402681Y438345D01*
X402710Y438321D01*
X402818Y438289D01*
X402922Y438246D01*
X402960D01*
X402996Y438235D01*
X403071Y438242D01*
X403120Y438236D01*
X403565Y437895D01*
X403571Y437889D01*
Y437265D01*
X403500D01*
X403207Y437207D01*
X402959Y437041D01*
X402794Y436793D01*
X402735Y436500D01*
Y436129D01*
X402235Y435977D01*
X402077Y436214D01*
X401290Y436740D01*
X400362Y436925D01*
X398206D01*
Y434500D01*
Y432076D01*
X400362D01*
X401290Y432260D01*
X402000Y432734D01*
X402500Y432588D01*
Y430969D01*
X402031Y430500D01*
X401341D01*
X401193Y430599D01*
X400362Y430764D01*
X395638D01*
X394957Y430629D01*
X394928Y430659D01*
X394717Y431091D01*
X395423Y432010D01*
X395450Y432076D01*
X397006D01*
Y434500D01*
Y436925D01*
X395450D01*
X395423Y436990D01*
X394717Y437909D01*
X394921Y438325D01*
X394963Y438370D01*
X395638Y438236D01*
X400362D01*
X401193Y438401D01*
X401624Y438690D01*
X401902Y438869D01*
X402340Y438635D01*
D02*
G37*
G36*
X415927Y435373D02*
X415957Y435288D01*
X416007Y435214D01*
X416077Y435148D01*
X416167Y435093D01*
X416277Y435048D01*
X416407Y435013D01*
X416557Y434988D01*
X416727Y434973D01*
X416917Y434969D01*
Y433968D01*
X416727Y433963D01*
X416557Y433949D01*
X416407Y433923D01*
X416277Y433888D01*
X416167Y433844D01*
X416077Y433788D01*
X416007Y433723D01*
X415957Y433648D01*
X415927Y433564D01*
X415917Y433468D01*
Y435468D01*
X415927Y435373D01*
D02*
G37*
G36*
X393987Y443488D02*
X394000Y443425D01*
Y443050D01*
X394007Y443013D01*
X394004Y442976D01*
X394036Y442868D01*
X394058Y442758D01*
X394079Y442726D01*
X394090Y442690D01*
X394162Y442603D01*
X394224Y442510D01*
X394226Y442297D01*
X394178Y441990D01*
X394104Y441940D01*
X393633Y441236D01*
X393468Y440406D01*
X393633Y439575D01*
X393872Y439218D01*
X393726Y439000D01*
X393519Y438846D01*
X392399Y439310D01*
X391110Y439480D01*
X388757D01*
Y434500D01*
Y429520D01*
X391110D01*
X392399Y429690D01*
X393519Y430154D01*
X393726Y430000D01*
X393872Y429782D01*
X393633Y429425D01*
X393468Y428594D01*
X393633Y427764D01*
X394000Y427215D01*
X394000Y427215D01*
Y426075D01*
X393986Y426006D01*
X393932Y425925D01*
X393927Y425913D01*
X393918Y425903D01*
X393870Y425775D01*
X393818Y425649D01*
Y425636D01*
X393813Y425624D01*
X393818Y425488D01*
Y425351D01*
X393770Y425274D01*
X393444Y424956D01*
X393414Y424944D01*
X391756D01*
X391728Y424946D01*
X391313Y425224D01*
X390669Y425352D01*
X390031Y425225D01*
X389959Y425419D01*
X389894Y425524D01*
X389837Y425633D01*
X389771Y425716D01*
X389739Y425742D01*
X389716Y425776D01*
X389625Y425837D01*
X389541Y425907D01*
X389502Y425919D01*
X389468Y425942D01*
X389361Y425963D01*
X389257Y425996D01*
X389216Y425992D01*
X389176Y426000D01*
X373317D01*
X373024Y425942D01*
X372776Y425776D01*
X372224Y425224D01*
X372224Y425224D01*
X372058Y424976D01*
X372000Y424683D01*
Y420075D01*
X371986Y420006D01*
X371947Y419947D01*
X370553Y418553D01*
X370494Y418514D01*
X370425Y418500D01*
X336000D01*
Y423000D01*
X367183D01*
X367476Y423058D01*
X367724Y423224D01*
X367724Y423224D01*
X367776Y423276D01*
X367942Y423524D01*
X368000Y423817D01*
Y431000D01*
Y436925D01*
X368014Y436994D01*
X368053Y437053D01*
X369447Y438447D01*
X369506Y438486D01*
X369575Y438500D01*
X373071D01*
X373321Y438295D01*
Y437951D01*
X378679D01*
Y443094D01*
X378685Y443109D01*
X378710Y443139D01*
X378727Y443171D01*
X378958Y443454D01*
X379005Y443486D01*
X379006Y443486D01*
X379075Y443500D01*
X393925D01*
X393987Y443488D01*
D02*
G37*
G36*
X401172Y459605D02*
X401209Y459583D01*
X401254Y459564D01*
X401307Y459547D01*
X401368Y459532D01*
X401436Y459521D01*
X401597Y459505D01*
X401689Y459501D01*
X401788Y459500D01*
Y458500D01*
X401689Y458499D01*
X401436Y458479D01*
X401368Y458467D01*
X401307Y458453D01*
X401254Y458436D01*
X401209Y458417D01*
X401172Y458395D01*
X401143Y458370D01*
Y459630D01*
X401172Y459605D01*
D02*
G37*
G36*
X414505Y443158D02*
X414520Y442986D01*
X414545Y442834D01*
X414580Y442702D01*
X414625Y442591D01*
X414680Y442500D01*
X414745Y442429D01*
X414820Y442379D01*
X414905Y442348D01*
X415000Y442338D01*
X413000D01*
X413095Y442348D01*
X413180Y442379D01*
X413255Y442429D01*
X413320Y442500D01*
X413375Y442591D01*
X413420Y442702D01*
X413455Y442834D01*
X413480Y442986D01*
X413495Y443158D01*
X413500Y443350D01*
X414500D01*
X414505Y443158D01*
D02*
G37*
G36*
X459437Y422585D02*
X459351Y422554D01*
X459276Y422504D01*
X459211Y422433D01*
X459157Y422342D01*
X459111Y422231D01*
X459076Y422099D01*
X459054Y421960D01*
X459064Y421899D01*
X459078Y421839D01*
X459095Y421786D01*
X459115Y421741D01*
X459137Y421704D01*
X459162Y421674D01*
X459034D01*
X459031Y421583D01*
X458032D01*
X458029Y421674D01*
X457901D01*
X457926Y421704D01*
X457948Y421741D01*
X457968Y421786D01*
X457985Y421839D01*
X457999Y421899D01*
X458009Y421960D01*
X457986Y422099D01*
X457951Y422231D01*
X457906Y422342D01*
X457852Y422433D01*
X457787Y422504D01*
X457712Y422554D01*
X457626Y422585D01*
X457531Y422595D01*
X459531D01*
X459437Y422585D01*
D02*
G37*
G36*
X444437D02*
X444351Y422554D01*
X444277Y422504D01*
X444211Y422433D01*
X444157Y422342D01*
X444111Y422231D01*
X444076Y422099D01*
X444052Y421947D01*
X444036Y421775D01*
X444031Y421583D01*
X443032D01*
X443026Y421775D01*
X443012Y421947D01*
X442986Y422099D01*
X442951Y422231D01*
X442907Y422342D01*
X442851Y422433D01*
X442787Y422504D01*
X442711Y422554D01*
X442626Y422585D01*
X442531Y422595D01*
X444531D01*
X444437Y422585D01*
D02*
G37*
G36*
X450650Y422583D02*
X450630Y422757D01*
X450570Y422913D01*
X450470Y423051D01*
X450330Y423170D01*
X450150Y423271D01*
X449930Y423353D01*
X449670Y423418D01*
X449370Y423463D01*
X449030Y423491D01*
X448650Y423500D01*
Y425500D01*
X449030Y425509D01*
X449370Y425537D01*
X449670Y425583D01*
X449930Y425647D01*
X450150Y425729D01*
X450330Y425830D01*
X450470Y425949D01*
X450570Y426087D01*
X450630Y426243D01*
X450650Y426417D01*
Y422583D01*
D02*
G37*
G36*
X409500Y433500D02*
Y426500D01*
X403500D01*
X402000Y425000D01*
X394753D01*
X394615Y425299D01*
X394568Y425500D01*
X394707Y425707D01*
X394765Y426000D01*
Y427215D01*
X394750Y427289D01*
Y427365D01*
X394721Y427434D01*
X394707Y427508D01*
X394665Y427571D01*
X394636Y427640D01*
X394354Y428063D01*
X394302Y428322D01*
X394378Y429164D01*
X394655Y429577D01*
X395106Y429879D01*
X395713Y429999D01*
X400287D01*
X400894Y429879D01*
X400916Y429864D01*
X400985Y429835D01*
X401048Y429794D01*
X401122Y429779D01*
X401191Y429750D01*
X401267D01*
X401341Y429735D01*
X402500D01*
X402793Y429794D01*
X403041Y429959D01*
X403206Y430207D01*
X403265Y430500D01*
Y433500D01*
X403500D01*
Y436500D01*
X409500D01*
Y433500D01*
D02*
G37*
G36*
X391341Y424275D02*
X391379Y424253D01*
X391424Y424233D01*
X391476Y424216D01*
X391537Y424202D01*
X391606Y424190D01*
X391766Y424174D01*
X391858Y424171D01*
X391958Y424169D01*
Y423169D01*
X391858Y423168D01*
X391606Y423148D01*
X391537Y423137D01*
X391476Y423123D01*
X391424Y423106D01*
X391379Y423086D01*
X391341Y423064D01*
X391312Y423039D01*
Y424299D01*
X391341Y424275D01*
D02*
G37*
G36*
X340599Y404511D02*
X341000Y404271D01*
X341000Y404271D01*
X341000Y404271D01*
Y384000D01*
Y357317D01*
Y357000D01*
X344566Y353434D01*
X346000Y352000D01*
X361925D01*
X361994Y351986D01*
X362053Y351947D01*
X362500Y351500D01*
Y340000D01*
Y328500D01*
X362053Y328053D01*
X361994Y328014D01*
X361925Y328000D01*
X361230D01*
X361004Y328045D01*
X355459D01*
X355447Y328053D01*
X353500Y330000D01*
X345575D01*
X345513Y330012D01*
X345500Y330075D01*
Y336683D01*
X345500Y336683D01*
Y337000D01*
X345355Y337145D01*
X345000Y337500D01*
X336075D01*
X336006Y337514D01*
X335947Y337553D01*
X333053Y340447D01*
X333014Y340506D01*
X333000Y340575D01*
Y374143D01*
X333000Y374143D01*
X333000Y374143D01*
Y383000D01*
X332896D01*
Y383033D01*
X332500D01*
X332235Y383086D01*
X327110D01*
X327000Y383574D01*
Y384280D01*
X327010Y384297D01*
X327021Y384409D01*
X327042Y384519D01*
Y385470D01*
X332896D01*
Y385500D01*
X333000D01*
Y402000D01*
X327041D01*
Y402882D01*
X327020Y402992D01*
X327009Y403104D01*
X327000Y403120D01*
Y403829D01*
X327110Y404317D01*
X332895D01*
X332905Y404319D01*
X332914Y404317D01*
X333051Y404348D01*
X333187Y404375D01*
X333196Y404380D01*
X333206Y404383D01*
X333409Y404473D01*
X333450Y404481D01*
X333469Y404500D01*
X340500D01*
X340519Y404519D01*
X340538Y404523D01*
X340599Y404511D01*
D02*
G37*
G36*
X444245Y379678D02*
X444260Y379506D01*
X444285Y379354D01*
X444320Y379222D01*
X444365Y379111D01*
X444420Y379020D01*
X444485Y378949D01*
X444560Y378898D01*
X444645Y378868D01*
X444740Y378858D01*
X442740D01*
X442835Y378868D01*
X442920Y378898D01*
X442995Y378949D01*
X443060Y379020D01*
X443115Y379111D01*
X443160Y379222D01*
X443195Y379354D01*
X443220Y379506D01*
X443235Y379678D01*
X443240Y379870D01*
X444240D01*
X444245Y379678D01*
D02*
G37*
G36*
X437427Y377818D02*
X437457Y377733D01*
X437508Y377658D01*
X437579Y377593D01*
X437670Y377538D01*
X437781Y377493D01*
X437913Y377458D01*
X438018Y377441D01*
X438046Y377446D01*
X438106Y377460D01*
X438159Y377477D01*
X438204Y377497D01*
X438241Y377519D01*
X438271Y377543D01*
Y377417D01*
X438429Y377413D01*
Y376413D01*
X438271Y376409D01*
Y376283D01*
X438241Y376308D01*
X438204Y376330D01*
X438159Y376350D01*
X438106Y376367D01*
X438046Y376381D01*
X438018Y376386D01*
X437913Y376368D01*
X437781Y376333D01*
X437670Y376288D01*
X437579Y376233D01*
X437508Y376168D01*
X437457Y376093D01*
X437427Y376008D01*
X437417Y375913D01*
Y377913D01*
X437427Y377818D01*
D02*
G37*
G36*
X460245Y379678D02*
X460260Y379506D01*
X460285Y379354D01*
X460320Y379222D01*
X460365Y379111D01*
X460420Y379020D01*
X460485Y378949D01*
X460560Y378898D01*
X460645Y378868D01*
X460740Y378858D01*
X458740D01*
X458835Y378868D01*
X458920Y378898D01*
X458995Y378949D01*
X459060Y379020D01*
X459115Y379111D01*
X459160Y379222D01*
X459195Y379354D01*
X459220Y379506D01*
X459235Y379678D01*
X459240Y379870D01*
X460240D01*
X460245Y379678D01*
D02*
G37*
G36*
X459700Y384234D02*
X459664Y384140D01*
X459633Y384012D01*
X459606Y383848D01*
X459565Y383416D01*
X459553Y383083D01*
X460032D01*
X459937Y383073D01*
X459852Y383043D01*
X459776Y382993D01*
X459712Y382923D01*
X459656Y382833D01*
X459612Y382723D01*
X459577Y382593D01*
X459551Y382443D01*
X459537Y382273D01*
X459531Y382083D01*
X458532D01*
X458527Y382273D01*
X458511Y382443D01*
X458487Y382593D01*
X458452Y382723D01*
X458406Y382833D01*
X458352Y382923D01*
X458287Y382993D01*
X458212Y383043D01*
X458126Y383073D01*
X458032Y383083D01*
X458491D01*
X458430Y384012D01*
X458399Y384140D01*
X458363Y384234D01*
X458324Y384293D01*
X459739D01*
X459700Y384234D01*
D02*
G37*
G36*
X444437Y382573D02*
X444351Y382543D01*
X444277Y382493D01*
X444211Y382423D01*
X444157Y382333D01*
X444111Y382223D01*
X444076Y382093D01*
X444052Y381943D01*
X444036Y381773D01*
X444031Y381583D01*
X443032D01*
X443026Y381773D01*
X443012Y381943D01*
X442986Y382093D01*
X442951Y382223D01*
X442907Y382333D01*
X442851Y382423D01*
X442787Y382493D01*
X442711Y382543D01*
X442626Y382573D01*
X442531Y382583D01*
X444531D01*
X444437Y382573D01*
D02*
G37*
G36*
X456505Y368851D02*
X456520Y368679D01*
X456545Y368527D01*
X456580Y368395D01*
X456625Y368284D01*
X456680Y368193D01*
X456745Y368122D01*
X456820Y368072D01*
X456905Y368041D01*
X457000Y368031D01*
X455000D01*
X455095Y368041D01*
X455180Y368072D01*
X455255Y368122D01*
X455320Y368193D01*
X455375Y368284D01*
X455420Y368395D01*
X455455Y368527D01*
X455480Y368679D01*
X455495Y368851D01*
X455500Y369043D01*
X456500D01*
X456505Y368851D01*
D02*
G37*
G36*
X440905Y364120D02*
X440820Y364090D01*
X440745Y364040D01*
X440680Y363970D01*
X440625Y363880D01*
X440580Y363770D01*
X440545Y363640D01*
X440520Y363490D01*
X440505Y363320D01*
X440500Y363130D01*
X439500D01*
X439495Y363320D01*
X439480Y363490D01*
X439455Y363640D01*
X439420Y363770D01*
X439375Y363880D01*
X439320Y363970D01*
X439255Y364040D01*
X439180Y364090D01*
X439095Y364120D01*
X439000Y364130D01*
X441000D01*
X440905Y364120D01*
D02*
G37*
G36*
X452264Y372557D02*
X452195Y372486D01*
X452030Y372294D01*
X451990Y372237D01*
X451957Y372184D01*
X451932Y372135D01*
X451914Y372089D01*
X451903Y372047D01*
X451900Y372009D01*
X451009Y372900D01*
X451047Y372903D01*
X451089Y372914D01*
X451135Y372932D01*
X451184Y372957D01*
X451237Y372990D01*
X451294Y373030D01*
X451418Y373133D01*
X451486Y373195D01*
X451557Y373265D01*
X452264Y372557D01*
D02*
G37*
G36*
X453165Y374947D02*
X453080Y374917D01*
X453005Y374867D01*
X452940Y374797D01*
X452885Y374707D01*
X452840Y374597D01*
X452805Y374467D01*
X452780Y374317D01*
X452765Y374147D01*
X452760Y373957D01*
X451760D01*
X451755Y374147D01*
X451740Y374317D01*
X451715Y374467D01*
X451680Y374597D01*
X451635Y374707D01*
X451580Y374797D01*
X451515Y374867D01*
X451440Y374917D01*
X451355Y374947D01*
X451260Y374957D01*
X453260D01*
X453165Y374947D01*
D02*
G37*
G36*
X444645D02*
X444560Y374917D01*
X444485Y374867D01*
X444420Y374797D01*
X444365Y374707D01*
X444320Y374597D01*
X444285Y374467D01*
X444260Y374317D01*
X444245Y374147D01*
X444240Y373957D01*
X443240D01*
X443235Y374147D01*
X443220Y374317D01*
X443195Y374467D01*
X443160Y374597D01*
X443115Y374707D01*
X443060Y374797D01*
X442995Y374867D01*
X442920Y374917D01*
X442835Y374947D01*
X442740Y374957D01*
X444740D01*
X444645Y374947D01*
D02*
G37*
G36*
X441005Y394851D02*
X441020Y394679D01*
X441045Y394527D01*
X441080Y394395D01*
X441125Y394284D01*
X441180Y394193D01*
X441245Y394122D01*
X441320Y394072D01*
X441405Y394041D01*
X441500Y394031D01*
X439500D01*
X439595Y394041D01*
X439680Y394072D01*
X439755Y394122D01*
X439820Y394193D01*
X439875Y394284D01*
X439920Y394395D01*
X439955Y394527D01*
X439980Y394679D01*
X439995Y394851D01*
X440000Y395043D01*
X441000D01*
X441005Y394851D01*
D02*
G37*
G36*
X452765Y404989D02*
X452780Y404817D01*
X452805Y404665D01*
X452840Y404533D01*
X452885Y404422D01*
X452940Y404331D01*
X453005Y404260D01*
X453080Y404209D01*
X453165Y404179D01*
X453260Y404169D01*
X451260D01*
X451355Y404179D01*
X451440Y404209D01*
X451515Y404260D01*
X451580Y404331D01*
X451635Y404422D01*
X451680Y404533D01*
X451715Y404665D01*
X451740Y404817D01*
X451755Y404989D01*
X451760Y405181D01*
X452760D01*
X452765Y404989D01*
D02*
G37*
G36*
X435603Y401913D02*
X435593Y402008D01*
X435562Y402093D01*
X435512Y402168D01*
X435441Y402233D01*
X435350Y402288D01*
X435238Y402333D01*
X435107Y402368D01*
X434955Y402393D01*
X434783Y402408D01*
X434591Y402413D01*
Y403413D01*
X434783Y403418D01*
X434955Y403433D01*
X435107Y403458D01*
X435238Y403493D01*
X435350Y403538D01*
X435441Y403593D01*
X435512Y403658D01*
X435562Y403733D01*
X435593Y403818D01*
X435603Y403913D01*
Y401913D01*
D02*
G37*
G36*
X460645Y400263D02*
X460560Y400248D01*
X460485Y400222D01*
X460420Y400187D01*
X460365Y400141D01*
X460320Y400085D01*
X460285Y400019D01*
X460260Y399943D01*
X460245Y399856D01*
X460240Y399760D01*
X459240D01*
X459235Y399856D01*
X459220Y399943D01*
X459195Y400019D01*
X459160Y400085D01*
X459115Y400141D01*
X459060Y400187D01*
X458995Y400222D01*
X458920Y400248D01*
X458835Y400263D01*
X458740Y400268D01*
X460740D01*
X460645Y400263D01*
D02*
G37*
G36*
X458583Y402771D02*
X458643Y402757D01*
X458712Y402745D01*
X458872Y402730D01*
X458964Y402726D01*
X459064Y402724D01*
Y401724D01*
X458964Y401723D01*
X458712Y401704D01*
X458643Y401692D01*
X458583Y401678D01*
Y401224D01*
X458575Y401319D01*
X458551Y401404D01*
X458510Y401479D01*
X458454Y401544D01*
X458381Y401599D01*
X458292Y401644D01*
X458187Y401679D01*
X458066Y401704D01*
X457929Y401719D01*
X457776Y401724D01*
Y402724D01*
X457929Y402729D01*
X458066Y402744D01*
X458187Y402769D01*
X458292Y402804D01*
X458381Y402849D01*
X458454Y402904D01*
X458510Y402969D01*
X458551Y403044D01*
X458575Y403129D01*
X458583Y403224D01*
Y402771D01*
D02*
G37*
G36*
X445348Y385405D02*
X445379Y385320D01*
X445429Y385245D01*
X445500Y385180D01*
X445591Y385125D01*
X445703Y385080D01*
X445834Y385045D01*
X445986Y385020D01*
X446018Y385017D01*
X446064Y385021D01*
X446132Y385033D01*
X446193Y385047D01*
X446246Y385064D01*
X446291Y385083D01*
X446328Y385105D01*
X446357Y385130D01*
Y383870D01*
X446328Y383895D01*
X446291Y383917D01*
X446246Y383936D01*
X446193Y383953D01*
X446132Y383967D01*
X446064Y383979D01*
X446023Y383983D01*
X445986Y383980D01*
X445834Y383955D01*
X445703Y383920D01*
X445591Y383875D01*
X445500Y383820D01*
X445429Y383755D01*
X445379Y383680D01*
X445348Y383595D01*
X445338Y383500D01*
Y385500D01*
X445348Y385405D01*
D02*
G37*
G36*
X460862Y386743D02*
X460896Y386587D01*
X460954Y386449D01*
X461034Y386330D01*
X461138Y386229D01*
X461264Y386147D01*
X461414Y386083D01*
X461586Y386037D01*
X461782Y386009D01*
X462000Y386000D01*
Y384000D01*
X461782Y383991D01*
X461586Y383963D01*
X461414Y383917D01*
X461264Y383853D01*
X461138Y383771D01*
X461034Y383670D01*
X460954Y383551D01*
X460896Y383413D01*
X460862Y383257D01*
X460850Y383083D01*
Y386917D01*
X460862Y386743D01*
D02*
G37*
G36*
X459537Y387725D02*
X459551Y387553D01*
X459577Y387401D01*
X459612Y387269D01*
X459656Y387158D01*
X459712Y387067D01*
X459776Y386996D01*
X459852Y386946D01*
X459937Y386915D01*
X460032Y386905D01*
X459573D01*
X459633Y385988D01*
X459664Y385859D01*
X459700Y385766D01*
X459739Y385707D01*
X458324D01*
X458363Y385766D01*
X458399Y385859D01*
X458430Y385988D01*
X458457Y386152D01*
X458498Y386584D01*
X458509Y386905D01*
X458032D01*
X458126Y386915D01*
X458212Y386946D01*
X458287Y386996D01*
X458352Y387067D01*
X458406Y387158D01*
X458452Y387269D01*
X458487Y387401D01*
X458511Y387553D01*
X458527Y387725D01*
X458532Y387917D01*
X459531D01*
X459537Y387725D01*
D02*
G37*
G36*
X444745Y394851D02*
X444760Y394679D01*
X444774Y394597D01*
X444870D01*
X444845Y394568D01*
X444823Y394531D01*
X444804Y394486D01*
X444800Y394473D01*
X444820Y394395D01*
X444865Y394284D01*
X444920Y394193D01*
X444985Y394122D01*
X445060Y394072D01*
X445145Y394041D01*
X445240Y394031D01*
X444741D01*
X444740Y393952D01*
X443740D01*
X443739Y394031D01*
X443240D01*
X443335Y394041D01*
X443420Y394072D01*
X443495Y394122D01*
X443560Y394193D01*
X443615Y394284D01*
X443660Y394395D01*
X443681Y394473D01*
X443677Y394486D01*
X443657Y394531D01*
X443635Y394568D01*
X443610Y394597D01*
X443707D01*
X443720Y394679D01*
X443735Y394851D01*
X443740Y395043D01*
X444740D01*
X444745Y394851D01*
D02*
G37*
G36*
X460645Y390809D02*
X460560Y390779D01*
X460485Y390729D01*
X460420Y390659D01*
X460365Y390569D01*
X460320Y390459D01*
X460285Y390329D01*
X460260Y390179D01*
X460245Y390009D01*
X460240Y389819D01*
X459240D01*
X459235Y390009D01*
X459220Y390179D01*
X459195Y390329D01*
X459160Y390459D01*
X459115Y390569D01*
X459060Y390659D01*
X458995Y390729D01*
X458920Y390779D01*
X458835Y390809D01*
X458740Y390819D01*
X460740D01*
X460645Y390809D01*
D02*
G37*
%LPC*%
G36*
X387558Y439480D02*
X385205D01*
X383916Y439310D01*
X382715Y438812D01*
X381684Y438021D01*
X380892Y436990D01*
X380395Y435789D01*
X380304Y435100D01*
X387558D01*
Y439480D01*
D02*
G37*
G36*
X378929Y437299D02*
X376600D01*
Y435069D01*
X378929D01*
Y437299D01*
D02*
G37*
G36*
X375400Y433869D02*
X373071D01*
Y431638D01*
X375400D01*
Y433869D01*
D02*
G37*
G36*
X387558Y433900D02*
X380304D01*
X380395Y433211D01*
X380892Y432010D01*
X381684Y430979D01*
X382715Y430188D01*
X383916Y429690D01*
X385205Y429520D01*
X387558D01*
Y433900D01*
D02*
G37*
G36*
X378929Y433869D02*
X376600D01*
Y431638D01*
X378929D01*
Y433869D01*
D02*
G37*
G36*
X375400Y437299D02*
X373071D01*
Y435069D01*
X375400D01*
Y437299D01*
D02*
G37*
G36*
X391034Y346443D02*
X389862D01*
X389500Y346371D01*
Y345500D01*
X391034D01*
Y346443D01*
D02*
G37*
%LPD*%
D10*
X458532Y424500D02*
D03*
X452468D02*
D03*
X458532Y409500D02*
D03*
X452468D02*
D03*
X452969Y385000D02*
D03*
X459031D02*
D03*
X452468Y417000D02*
D03*
X458532D02*
D03*
X437468D02*
D03*
X443532D02*
D03*
X443532Y424500D02*
D03*
X437468D02*
D03*
X437468Y409500D02*
D03*
X443532D02*
D03*
X437468Y384500D02*
D03*
X443532D02*
D03*
X354532Y400000D02*
D03*
X348468D02*
D03*
X354532Y385000D02*
D03*
X348468D02*
D03*
D11*
X320250Y396750D02*
X329587D01*
X319500Y397500D02*
X320250Y396750D01*
X329587Y396654D02*
Y396750D01*
X323557Y395000D02*
X324000Y394557D01*
X318500Y395000D02*
X323557D01*
X318000Y394500D02*
X318500Y395000D01*
X318000Y390500D02*
Y394500D01*
Y390500D02*
X319000Y389500D01*
X321000D01*
X322000Y390500D01*
X320593Y392407D02*
X324890D01*
X323750Y388750D02*
X329587D01*
X344500Y385000D02*
X348468D01*
X344000Y400000D02*
X348468D01*
X324000Y399500D02*
X325091Y400591D01*
X329587D01*
X322500Y387500D02*
X323750Y388750D01*
X329587D02*
Y388780D01*
X322000Y390500D02*
X325500D01*
X325748Y390748D01*
X329587D01*
X325200Y392717D02*
X329587D01*
X324890Y392407D02*
X325200Y392717D01*
X324000Y394557D02*
X329459D01*
X329587Y394685D01*
X451000Y372000D02*
X452260Y373260D01*
Y376913D01*
X429000Y416000D02*
Y428500D01*
X423032Y434469D02*
X429000Y428500D01*
X414000Y434469D02*
X423032D01*
X433002Y417000D02*
X437468D01*
X432500Y417502D02*
X433002Y417000D01*
X432500Y417502D02*
Y422500D01*
X429087Y402913D02*
X436760D01*
X425500Y406500D02*
X429087Y402913D01*
X425500Y406500D02*
Y414000D01*
X415831Y423669D02*
X425500Y414000D01*
X390669Y423669D02*
X415831D01*
X414000Y440531D02*
Y456000D01*
X411000Y459000D02*
X414000Y456000D01*
X400500Y459000D02*
X411000D01*
X459031Y381469D02*
X459740Y380760D01*
X459031Y381469D02*
Y385000D01*
X459740Y376913D02*
Y380760D01*
X456000Y366087D02*
Y369500D01*
X458000Y371500D01*
X465000D01*
X467000Y373500D01*
Y392500D01*
X459740Y399760D02*
X467000Y392500D01*
X459740Y399760D02*
Y402224D01*
X457776D02*
X459740D01*
X458532Y421032D02*
Y424500D01*
X452468Y417000D02*
Y419969D01*
X452260Y405260D02*
X452468Y405469D01*
X452260Y402224D02*
Y405260D01*
X452468Y405469D02*
Y409500D01*
Y412968D02*
X453031Y413531D01*
X452468Y409500D02*
Y412968D01*
X453031Y413531D02*
X458532D01*
Y417000D01*
X459031Y385000D02*
Y388032D01*
X459740Y388740D01*
Y392776D01*
X452969Y381532D02*
Y385000D01*
X452260Y388740D02*
X453000Y388000D01*
X452969Y387968D02*
X455469D01*
X456000Y388500D01*
Y392776D01*
X452969Y385000D02*
Y387968D01*
X452260Y388740D02*
Y392776D01*
X438500Y420500D02*
X442500D01*
X437468Y419468D02*
X438500Y420500D01*
X437468Y417000D02*
Y419468D01*
X442500Y420500D02*
X443532Y421531D01*
Y424500D01*
X448500Y337000D02*
Y368500D01*
X443740Y376913D02*
Y380760D01*
Y373260D02*
Y376913D01*
Y373260D02*
X448500Y368500D01*
X442000Y330500D02*
X448500Y337000D01*
X440000Y330500D02*
X442000D01*
X435000Y325500D02*
X440000Y330500D01*
X423500Y325500D02*
X435000D01*
X440500Y392087D02*
Y396500D01*
X439500Y397500D02*
X440500Y396500D01*
X433000Y397500D02*
X439500D01*
X430500Y395000D02*
X433000Y397500D01*
X430500Y361500D02*
Y395000D01*
Y361500D02*
X431500Y360500D01*
Y342000D02*
Y360500D01*
Y331500D02*
Y333500D01*
X429000Y329000D02*
X431500Y331500D01*
X413709Y329000D02*
X429000D01*
X420500Y337500D02*
X437500D01*
X440000Y340000D01*
Y366087D01*
X436760Y388740D02*
X437468Y388032D01*
Y384500D02*
Y388032D01*
X436760Y388740D02*
Y392087D01*
X443532Y409500D02*
X447000D01*
X443532Y384500D02*
X447000D01*
X443532Y380968D02*
X443740Y380760D01*
X443532Y380968D02*
Y384500D01*
X436260Y376913D02*
X438913D01*
X444240Y392087D02*
Y395240D01*
X443532Y406968D02*
X444240Y406260D01*
X443532Y406968D02*
Y409500D01*
X444240Y402913D02*
Y406260D01*
X408366Y333634D02*
X409500Y332500D01*
X408366Y333634D02*
Y335079D01*
X412321Y330388D02*
X413709Y329000D01*
X412321Y330388D02*
Y335679D01*
X410953Y337047D02*
X412321Y335679D01*
X408366Y337047D02*
X410953D01*
X414000Y326500D02*
X415500Y325000D01*
Y322532D02*
Y325000D01*
X408366Y339016D02*
X415484D01*
X394000Y327500D02*
X395079Y328579D01*
Y331634D01*
X410921Y344921D02*
X414000Y348000D01*
X412953Y342953D02*
X414000Y344000D01*
X408366Y342953D02*
X412953D01*
X408366Y344921D02*
X410921D01*
X399500Y316469D02*
X414500D01*
X392000D02*
X399500D01*
X405500Y326500D02*
X414000D01*
X404921Y327079D02*
X405500Y326500D01*
X404921Y327079D02*
Y331634D01*
X403968Y322532D02*
X407000D01*
X403000Y323500D02*
X403968Y322532D01*
X403000Y323500D02*
Y325500D01*
X400984Y327516D02*
X403000Y325500D01*
X400984Y327516D02*
Y331634D01*
X399000Y327000D02*
Y332289D01*
Y327000D02*
X399500Y326500D01*
Y322532D02*
Y326500D01*
X392000Y322532D02*
X395031D01*
X396000Y323500D01*
Y326000D01*
X397047Y327047D01*
Y331634D01*
X370532Y322532D02*
X376500D01*
X387032Y322532D02*
X388500Y324000D01*
X384000Y322532D02*
X387032D01*
X381031D02*
X384000D01*
X380500Y322000D02*
X381031Y322532D01*
X380500Y317500D02*
Y322000D01*
X379468Y316469D02*
X380500Y317500D01*
X376500Y316469D02*
X379468D01*
X388500Y324000D02*
Y334454D01*
X389124Y335079D01*
X391634D01*
X387469Y335968D02*
X388547Y337047D01*
X384500Y335968D02*
X387469D01*
X388547Y337047D02*
X391634D01*
D12*
X448000Y424500D02*
X452468D01*
X459031Y385000D02*
X462000D01*
X443532Y409500D02*
Y417000D01*
D13*
X327028Y376693D02*
D03*
Y410709D02*
D03*
D14*
X310571D02*
D03*
Y376693D02*
D03*
D15*
X324941Y382323D02*
D03*
Y405079D02*
D03*
D16*
X393701Y393701D02*
D03*
D17*
X407500Y350000D02*
D03*
X409500D02*
D03*
X411500D02*
D03*
X367000Y363000D02*
D03*
Y365000D02*
D03*
Y361000D02*
D03*
Y359000D02*
D03*
Y357000D02*
D03*
X375000D02*
D03*
X373000D02*
D03*
X371000D02*
D03*
X369000D02*
D03*
Y365000D02*
D03*
Y363000D02*
D03*
Y361000D02*
D03*
Y359000D02*
D03*
X371000D02*
D03*
X373000D02*
D03*
X375000D02*
D03*
X312000Y385500D02*
D03*
X310000D02*
D03*
X308000D02*
D03*
Y387500D02*
D03*
X310000D02*
D03*
X312000D02*
D03*
Y389500D02*
D03*
X310000D02*
D03*
X308000D02*
D03*
Y391500D02*
D03*
X310000D02*
D03*
X312000D02*
D03*
Y399500D02*
D03*
X310000D02*
D03*
X308000D02*
D03*
Y397500D02*
D03*
Y395500D02*
D03*
Y393500D02*
D03*
X310000D02*
D03*
X312000D02*
D03*
Y395500D02*
D03*
X310000D02*
D03*
Y397500D02*
D03*
X312000D02*
D03*
X335000Y403000D02*
D03*
X339000D02*
D03*
X337000D02*
D03*
Y420000D02*
D03*
X339000D02*
D03*
Y422000D02*
D03*
X337000D02*
D03*
X319500Y397500D02*
D03*
X320593Y392407D02*
D03*
X344500Y385000D02*
D03*
X344000Y400000D02*
D03*
X324000Y399500D02*
D03*
X322500Y387500D02*
D03*
X324000Y394557D02*
D03*
X448000Y424500D02*
D03*
X317500Y380000D02*
D03*
X319500D02*
D03*
X390669Y462331D02*
D03*
X451000Y372000D02*
D03*
X429000Y416000D02*
D03*
X432500Y422500D02*
D03*
X390669Y423669D02*
D03*
X400500Y459000D02*
D03*
X401500Y432000D02*
D03*
X457776Y402224D02*
D03*
X458532Y421032D02*
D03*
X452468Y419969D02*
D03*
X462000Y385000D02*
D03*
X452969Y381532D02*
D03*
X408000Y427500D02*
D03*
X431500Y342000D02*
D03*
Y333500D02*
D03*
X447000Y409500D02*
D03*
Y384500D02*
D03*
X438913Y376913D02*
D03*
X444240Y395240D02*
D03*
X423500Y325500D02*
D03*
X420500Y337500D02*
D03*
X409500Y332500D02*
D03*
X344000Y389500D02*
D03*
X406000Y427500D02*
D03*
X391000Y330000D02*
D03*
X418500Y332000D02*
D03*
Y334000D02*
D03*
X420500Y332000D02*
D03*
Y334000D02*
D03*
X394000Y327500D02*
D03*
X371000Y361000D02*
D03*
Y363000D02*
D03*
Y365000D02*
D03*
X373000D02*
D03*
Y363000D02*
D03*
Y361000D02*
D03*
X375000D02*
D03*
Y363000D02*
D03*
Y365000D02*
D03*
X403000Y337500D02*
D03*
X401000D02*
D03*
Y339500D02*
D03*
X403000D02*
D03*
Y341500D02*
D03*
X401000D02*
D03*
X399000D02*
D03*
Y339500D02*
D03*
Y337500D02*
D03*
X397000D02*
D03*
Y339500D02*
D03*
Y341500D02*
D03*
Y343500D02*
D03*
X399000D02*
D03*
X401000D02*
D03*
X403000D02*
D03*
X392500Y350000D02*
D03*
X390500D02*
D03*
X388500D02*
D03*
X414000Y348000D02*
D03*
Y344000D02*
D03*
X417000Y354000D02*
D03*
Y352000D02*
D03*
Y356000D02*
D03*
Y358000D02*
D03*
X415000Y352000D02*
D03*
X400500D02*
D03*
X413000D02*
D03*
X411000D02*
D03*
X409000D02*
D03*
X407000D02*
D03*
Y354000D02*
D03*
Y356000D02*
D03*
Y358000D02*
D03*
X317500Y382000D02*
D03*
X321500Y380000D02*
D03*
Y382000D02*
D03*
X319500D02*
D03*
X370532Y322532D02*
D03*
X350000Y336500D02*
D03*
D18*
X329587Y398621D02*
D03*
Y406890D02*
D03*
Y405709D02*
D03*
X329586Y403741D02*
D03*
Y402559D02*
D03*
X329587Y400591D02*
D03*
Y396654D02*
D03*
Y394685D02*
D03*
Y392717D02*
D03*
Y390748D02*
D03*
Y388780D02*
D03*
Y386811D02*
D03*
X329587Y384843D02*
D03*
X329587Y383662D02*
D03*
Y381693D02*
D03*
Y380512D02*
D03*
D19*
X414000Y434469D02*
D03*
Y440531D02*
D03*
X406500Y440531D02*
D03*
Y434469D02*
D03*
X376000Y440531D02*
D03*
Y434469D02*
D03*
X415500Y332968D02*
D03*
Y339032D02*
D03*
X399500Y316469D02*
D03*
Y322532D02*
D03*
X392000Y316469D02*
D03*
Y322532D02*
D03*
X407500Y316469D02*
D03*
Y322532D02*
D03*
X415500Y316469D02*
D03*
Y322532D02*
D03*
X384000Y316469D02*
D03*
Y322532D02*
D03*
X376500Y322532D02*
D03*
Y316469D02*
D03*
X384500Y342032D02*
D03*
Y335968D02*
D03*
D20*
X459740Y366087D02*
D03*
X456000D02*
D03*
X452260D02*
D03*
Y376913D02*
D03*
X459740D02*
D03*
Y402224D02*
D03*
X452260D02*
D03*
Y392776D02*
D03*
X456000D02*
D03*
X459740D02*
D03*
X443740Y366087D02*
D03*
X440000D02*
D03*
X436260D02*
D03*
Y376913D02*
D03*
X443740D02*
D03*
X444240Y392087D02*
D03*
X440500D02*
D03*
X436760D02*
D03*
Y402913D02*
D03*
X444240D02*
D03*
D21*
X388158Y434500D02*
D03*
D22*
X397606D02*
D03*
D23*
X398000Y428594D02*
D03*
Y440406D02*
D03*
D24*
X402500Y355996D02*
D03*
Y363004D02*
D03*
X412000D02*
D03*
Y355996D02*
D03*
X382000Y363004D02*
D03*
Y355996D02*
D03*
X391500Y363004D02*
D03*
Y355996D02*
D03*
X349500Y325496D02*
D03*
Y332504D02*
D03*
Y355504D02*
D03*
Y348496D02*
D03*
D25*
X359247Y339600D02*
D03*
X375153D02*
D03*
D26*
X408366Y344921D02*
D03*
Y342953D02*
D03*
Y340984D02*
D03*
Y339016D02*
D03*
Y337047D02*
D03*
Y335079D02*
D03*
X391634D02*
D03*
Y337047D02*
D03*
Y339016D02*
D03*
Y340984D02*
D03*
Y342953D02*
D03*
Y344921D02*
D03*
D27*
X404921Y331634D02*
D03*
X402953D02*
D03*
X400984D02*
D03*
X399016D02*
D03*
X397047D02*
D03*
X395079D02*
D03*
Y348366D02*
D03*
X397047D02*
D03*
X399016D02*
D03*
X400984D02*
D03*
X402953D02*
D03*
X404921D02*
D03*
D28*
X400000Y340000D02*
D03*
D29*
X376500Y363000D02*
X416000D01*
X349500Y355504D02*
Y363000D01*
Y355504D02*
X360496D01*
X349500Y325496D02*
X361004D01*
X339004D02*
X349500D01*
%TF.MD5,81F928449935B9BED5D2A95BBFBDEEA8*%
M02*
