G04 Layer_Color=0*
%FSLAX25Y25*%
%MOIN*%
%TF.FileFunction,PTH,Drill*%
%TF.Part,Single*%
G01*
G75*
%TA.AperFunction,ComponentDrill*%
%ADD50O,0.06693X0.02756*%
%TA.AperFunction,ComponentDrill*%
%ADD51O,0.05512X0.02756*%
%TA.AperFunction,ComponentDrill*%
%ADD52C,0.02756*%
%TA.AperFunction,OtherDrill*%
%ADD53C,0.31299*%
%TA.AperFunction,ViaDrill*%
%ADD54C,0.01000*%
D50*
X327028Y376693D02*
D03*
X327028Y410709D02*
D03*
D51*
X310571Y410709D02*
D03*
Y376693D02*
D03*
D52*
X324941Y382323D02*
D03*
Y405079D02*
D03*
D53*
X393701Y393701D02*
D03*
D54*
X407500Y350000D02*
D03*
X409500D02*
D03*
X411500D02*
D03*
X367000Y363000D02*
D03*
Y365000D02*
D03*
Y361000D02*
D03*
Y359000D02*
D03*
Y357000D02*
D03*
X375000D02*
D03*
X373000D02*
D03*
X371000D02*
D03*
X369000D02*
D03*
Y365000D02*
D03*
Y363000D02*
D03*
Y361000D02*
D03*
Y359000D02*
D03*
X371000D02*
D03*
X373000D02*
D03*
X375000D02*
D03*
X312000Y385500D02*
D03*
X310000D02*
D03*
X308000D02*
D03*
Y387500D02*
D03*
X310000D02*
D03*
X312000D02*
D03*
Y389500D02*
D03*
X310000D02*
D03*
X308000D02*
D03*
Y391500D02*
D03*
X310000D02*
D03*
X312000D02*
D03*
Y399500D02*
D03*
X310000D02*
D03*
X308000D02*
D03*
Y397500D02*
D03*
Y395500D02*
D03*
Y393500D02*
D03*
X310000D02*
D03*
X312000D02*
D03*
Y395500D02*
D03*
X310000D02*
D03*
Y397500D02*
D03*
X312000D02*
D03*
X335000Y403000D02*
D03*
X339000D02*
D03*
X337000D02*
D03*
Y420000D02*
D03*
X339000D02*
D03*
Y422000D02*
D03*
X337000D02*
D03*
X319500Y397500D02*
D03*
X320593Y392407D02*
D03*
X344500Y385000D02*
D03*
X344000Y400000D02*
D03*
X324000Y399500D02*
D03*
X322500Y387500D02*
D03*
X324000Y394557D02*
D03*
X448000Y424500D02*
D03*
X317500Y380000D02*
D03*
X319500D02*
D03*
X390669Y462331D02*
D03*
X451000Y372000D02*
D03*
X429000Y416000D02*
D03*
X432500Y422500D02*
D03*
X390669Y423669D02*
D03*
X400500Y459000D02*
D03*
X401500Y432000D02*
D03*
X457776Y402224D02*
D03*
X458532Y421032D02*
D03*
X452468Y419969D02*
D03*
X462000Y385000D02*
D03*
X452969Y381532D02*
D03*
X408000Y427500D02*
D03*
X431500Y342000D02*
D03*
Y333500D02*
D03*
X447000Y409500D02*
D03*
Y384500D02*
D03*
X438913Y376913D02*
D03*
X444240Y395240D02*
D03*
X423500Y325500D02*
D03*
X420500Y337500D02*
D03*
X409500Y332500D02*
D03*
X344000Y389500D02*
D03*
X406000Y427500D02*
D03*
X391000Y330000D02*
D03*
X418500Y332000D02*
D03*
Y334000D02*
D03*
X420500Y332000D02*
D03*
Y334000D02*
D03*
X394000Y327500D02*
D03*
X371000Y361000D02*
D03*
Y363000D02*
D03*
Y365000D02*
D03*
X373000D02*
D03*
Y363000D02*
D03*
Y361000D02*
D03*
X375000D02*
D03*
Y363000D02*
D03*
Y365000D02*
D03*
X403000Y337500D02*
D03*
X401000D02*
D03*
Y339500D02*
D03*
X403000D02*
D03*
Y341500D02*
D03*
X401000D02*
D03*
X399000D02*
D03*
Y339500D02*
D03*
Y337500D02*
D03*
X397000D02*
D03*
Y339500D02*
D03*
Y341500D02*
D03*
Y343500D02*
D03*
X399000D02*
D03*
X401000D02*
D03*
X403000D02*
D03*
X392500Y350000D02*
D03*
X390500D02*
D03*
X388500D02*
D03*
X414000Y348000D02*
D03*
Y344000D02*
D03*
X417000Y354000D02*
D03*
Y352000D02*
D03*
Y356000D02*
D03*
Y358000D02*
D03*
X415000Y352000D02*
D03*
X400500D02*
D03*
X413000D02*
D03*
X411000D02*
D03*
X409000D02*
D03*
X407000D02*
D03*
Y354000D02*
D03*
Y356000D02*
D03*
Y358000D02*
D03*
X317500Y382000D02*
D03*
X321500Y380000D02*
D03*
Y382000D02*
D03*
X319500D02*
D03*
X370532Y322532D02*
D03*
X350000Y336500D02*
D03*
%TF.MD5,2952D3F9F086A16681CAEBA5D85596C4*%
M02*
