G04 Layer_Color=255*
%FSLAX25Y25*%
%MOIN*%
%TF.FileFunction,Pads,Top*%
%TF.Part,Single*%
G01*
G75*
%TA.AperFunction,SMDPad*%
%ADD10R,0.02559X0.02362*%
%TA.AperFunction,SMDPad*%
%ADD11R,0.02559X0.02559*%
%TA.AperFunction,SMDPad*%
%ADD12R,0.02559X0.02559*%
%TA.AperFunction,SMDPad*%
%ADD13R,0.06221X0.03150*%
D10*
X347500Y371173D02*
D03*
Y367827D02*
D03*
X361000Y371173D02*
D03*
Y367827D02*
D03*
X343000Y338827D02*
D03*
Y342173D02*
D03*
X343000Y369673D02*
D03*
Y366327D02*
D03*
X361000Y337327D02*
D03*
Y340673D02*
D03*
X347500Y337327D02*
D03*
Y340673D02*
D03*
X365500Y369673D02*
D03*
Y366327D02*
D03*
X365500Y338827D02*
D03*
Y342173D02*
D03*
D11*
X356004Y373721D02*
D03*
X352658D02*
D03*
X356004Y368799D02*
D03*
X352658D02*
D03*
Y334941D02*
D03*
X356004D02*
D03*
X352658Y339863D02*
D03*
X356004D02*
D03*
D12*
X339863Y352658D02*
D03*
Y356004D02*
D03*
X334941Y352658D02*
D03*
Y356004D02*
D03*
X368799D02*
D03*
Y352658D02*
D03*
X373721Y356004D02*
D03*
Y352658D02*
D03*
D13*
X342520Y361614D02*
D03*
X366142D02*
D03*
X342520Y347048D02*
D03*
X366142D02*
D03*
%TF.MD5,D85FB464DC364FA2018888A4AE568925*%
M02*
