G04 Layer_Color=32896*
%FSLAX25Y25*%
%MOIN*%
%TF.FileFunction,Legend,Bot*%
%TF.Part,Single*%
G01*
G75*
%ADD23C,0.04921*%
%ADD24R,0.04828X0.05545*%
%ADD25R,0.04500X0.06000*%
%ADD26R,0.04000X0.18500*%
%ADD27R,0.03500X0.03000*%
%ADD28R,0.18000X0.04500*%
%ADD29R,0.05000X0.05000*%
%ADD30R,0.04000X0.03500*%
%ADD31R,0.03000X0.05000*%
%ADD32R,0.04500X0.20500*%
%ADD33R,0.06500X0.05000*%
%ADD34R,0.19000X0.03000*%
%ADD35R,0.00500X0.12130*%
%ADD36R,0.06328X0.05500*%
%ADD37R,0.05500X0.19000*%
%ADD38R,0.06828X0.24000*%
%ADD39R,0.04000X0.04000*%
%ADD40R,0.08500X0.24500*%
%ADD41R,0.08000X0.06000*%
%ADD42R,0.02500X0.08500*%
G36*
X362500Y363500D02*
X354695D01*
Y372545D01*
X362500D01*
Y363500D01*
D02*
G37*
G36*
X363000Y337000D02*
X354559D01*
Y346045D01*
X363000D01*
Y337000D01*
D02*
G37*
G36*
X354500Y336915D02*
X345836D01*
Y346130D01*
X354500D01*
Y336915D01*
D02*
G37*
G36*
X354000Y363500D02*
X345828D01*
Y372545D01*
X354000D01*
Y363500D01*
D02*
G37*
%LPC*%
G36*
X361000Y344045D02*
X358651D01*
X358593Y344038D01*
X358533D01*
X358461Y344032D01*
X358383Y344025D01*
X358219Y344012D01*
X358048Y343986D01*
X357884Y343953D01*
X357805Y343933D01*
X357740Y343907D01*
X357733D01*
X357727Y343900D01*
X357707Y343894D01*
X357681Y343881D01*
X357615Y343848D01*
X357536Y343795D01*
X357445Y343730D01*
X357353Y343644D01*
X357261Y343540D01*
X357175Y343421D01*
Y343415D01*
X357169Y343408D01*
X357156Y343389D01*
X357143Y343362D01*
X357110Y343290D01*
X357071Y343198D01*
X357031Y343087D01*
X356998Y342956D01*
X356972Y342811D01*
X356966Y342660D01*
Y342654D01*
Y342634D01*
Y342608D01*
X356972Y342569D01*
X356979Y342523D01*
X356985Y342470D01*
X357012Y342346D01*
X357051Y342201D01*
X357110Y342050D01*
X357149Y341978D01*
X357195Y341899D01*
X357254Y341827D01*
X357313Y341755D01*
X357320Y341749D01*
X357326Y341742D01*
X357353Y341722D01*
X357379Y341696D01*
X357418Y341670D01*
X357464Y341637D01*
X357517Y341598D01*
X357576Y341558D01*
X357648Y341519D01*
X357727Y341480D01*
X357818Y341440D01*
X357917Y341401D01*
X358022Y341368D01*
X358133Y341335D01*
X358258Y341309D01*
X358389Y341289D01*
X358376Y341283D01*
X358343Y341270D01*
X358297Y341244D01*
X358238Y341211D01*
X358107Y341125D01*
X358048Y341079D01*
X357989Y341034D01*
X357982D01*
X357976Y341020D01*
X357937Y340988D01*
X357884Y340929D01*
X357805Y340850D01*
X357720Y340758D01*
X357628Y340640D01*
X357530Y340509D01*
X357431Y340365D01*
X356559Y339000D01*
X357399D01*
X358061Y340043D01*
Y340050D01*
X358074Y340063D01*
X358087Y340089D01*
X358107Y340115D01*
X358133Y340155D01*
X358166Y340200D01*
X358232Y340299D01*
X358310Y340410D01*
X358389Y340522D01*
X358468Y340633D01*
X358547Y340732D01*
X358553Y340745D01*
X358579Y340771D01*
X358612Y340817D01*
X358658Y340863D01*
X358711Y340922D01*
X358770Y340981D01*
X358829Y341027D01*
X358888Y341073D01*
X358894Y341079D01*
X358914Y341086D01*
X358940Y341106D01*
X358980Y341125D01*
X359025Y341152D01*
X359078Y341171D01*
X359189Y341211D01*
X359196D01*
X359209Y341217D01*
X359235D01*
X359275Y341224D01*
X359327Y341230D01*
X359393D01*
X359465Y341237D01*
X360331D01*
Y339000D01*
X361000D01*
Y344045D01*
D02*
G37*
G36*
X349981Y344130D02*
X349889D01*
X349837Y344123D01*
X349784D01*
X349719Y344117D01*
X349653Y344110D01*
X349496Y344084D01*
X349331Y344051D01*
X349161Y344005D01*
X348990Y343946D01*
X348984D01*
X348971Y343940D01*
X348951Y343927D01*
X348918Y343913D01*
X348879Y343894D01*
X348839Y343874D01*
X348741Y343822D01*
X348630Y343749D01*
X348512Y343664D01*
X348400Y343566D01*
X348302Y343454D01*
Y343448D01*
X348288Y343441D01*
X348275Y343421D01*
X348262Y343395D01*
X348236Y343369D01*
X348216Y343330D01*
X348157Y343231D01*
X348092Y343113D01*
X348033Y342975D01*
X347967Y342811D01*
X347915Y342628D01*
X348518Y342464D01*
Y342470D01*
X348525Y342483D01*
X348531Y342503D01*
X348538Y342529D01*
X348564Y342595D01*
X348597Y342687D01*
X348636Y342779D01*
X348682Y342883D01*
X348741Y342982D01*
X348800Y343067D01*
X348807Y343080D01*
X348833Y343107D01*
X348872Y343146D01*
X348925Y343198D01*
X348990Y343251D01*
X349076Y343310D01*
X349174Y343369D01*
X349286Y343421D01*
X349292D01*
X349299Y343428D01*
X349338Y343441D01*
X349404Y343467D01*
X349489Y343494D01*
X349587Y343513D01*
X349705Y343540D01*
X349837Y343553D01*
X349974Y343559D01*
X350053D01*
X350093Y343553D01*
X350138D01*
X350243Y343540D01*
X350368Y343526D01*
X350506Y343500D01*
X350637Y343461D01*
X350768Y343415D01*
X350775D01*
X350781Y343408D01*
X350821Y343389D01*
X350886Y343362D01*
X350958Y343317D01*
X351044Y343264D01*
X351135Y343205D01*
X351227Y343126D01*
X351306Y343047D01*
X351313Y343034D01*
X351339Y343008D01*
X351378Y342962D01*
X351424Y342903D01*
X351470Y342831D01*
X351523Y342746D01*
X351575Y342647D01*
X351621Y342549D01*
Y342542D01*
X351627Y342529D01*
X351641Y342503D01*
X351647Y342470D01*
X351667Y342424D01*
X351680Y342372D01*
X351700Y342313D01*
X351713Y342247D01*
X351752Y342096D01*
X351778Y341926D01*
X351805Y341736D01*
X351811Y341532D01*
Y341526D01*
Y341499D01*
Y341467D01*
X351805Y341421D01*
Y341362D01*
X351798Y341296D01*
X351792Y341217D01*
X351785Y341139D01*
X351752Y340961D01*
X351713Y340771D01*
X351660Y340581D01*
X351582Y340404D01*
Y340397D01*
X351569Y340384D01*
X351555Y340358D01*
X351536Y340332D01*
X351516Y340292D01*
X351483Y340246D01*
X351411Y340148D01*
X351319Y340043D01*
X351201Y339925D01*
X351070Y339820D01*
X350912Y339728D01*
X350906D01*
X350893Y339722D01*
X350867Y339708D01*
X350834Y339695D01*
X350794Y339676D01*
X350742Y339663D01*
X350689Y339643D01*
X350624Y339623D01*
X350486Y339577D01*
X350329Y339545D01*
X350151Y339518D01*
X349968Y339512D01*
X349896D01*
X349856Y339518D01*
X349810D01*
X349699Y339531D01*
X349568Y339551D01*
X349430Y339584D01*
X349279Y339623D01*
X349122Y339676D01*
X349115D01*
X349102Y339682D01*
X349082Y339695D01*
X349056Y339702D01*
X348977Y339735D01*
X348885Y339781D01*
X348787Y339833D01*
X348682Y339892D01*
X348584Y339958D01*
X348492Y340030D01*
Y340975D01*
X349974D01*
Y341571D01*
X347836D01*
Y339695D01*
X347842Y339689D01*
X347855Y339676D01*
X347882Y339656D01*
X347921Y339630D01*
X347967Y339597D01*
X348020Y339564D01*
X348079Y339525D01*
X348144Y339479D01*
X348302Y339381D01*
X348472Y339289D01*
X348656Y339190D01*
X348853Y339111D01*
X348859D01*
X348879Y339105D01*
X348905Y339092D01*
X348944Y339079D01*
X348990Y339066D01*
X349049Y339053D01*
X349115Y339033D01*
X349181Y339013D01*
X349345Y338980D01*
X349528Y338948D01*
X349725Y338921D01*
X349928Y338915D01*
X350001D01*
X350053Y338921D01*
X350119D01*
X350197Y338934D01*
X350283Y338941D01*
X350375Y338954D01*
X350480Y338974D01*
X350585Y338993D01*
X350814Y339046D01*
X351044Y339125D01*
X351162Y339177D01*
X351280Y339230D01*
X351286Y339236D01*
X351306Y339243D01*
X351339Y339262D01*
X351378Y339289D01*
X351431Y339321D01*
X351490Y339361D01*
X351549Y339413D01*
X351621Y339466D01*
X351693Y339525D01*
X351765Y339597D01*
X351844Y339669D01*
X351916Y339754D01*
X351995Y339840D01*
X352067Y339938D01*
X352133Y340037D01*
X352192Y340148D01*
Y340155D01*
X352205Y340174D01*
X352218Y340207D01*
X352238Y340253D01*
X352264Y340312D01*
X352290Y340378D01*
X352316Y340456D01*
X352343Y340542D01*
X352375Y340640D01*
X352402Y340745D01*
X352428Y340850D01*
X352454Y340968D01*
X352487Y341224D01*
X352493Y341355D01*
X352500Y341493D01*
Y341499D01*
Y341526D01*
Y341565D01*
X352493Y341617D01*
Y341683D01*
X352487Y341762D01*
X352474Y341847D01*
X352461Y341945D01*
X352448Y342044D01*
X352428Y342155D01*
X352375Y342385D01*
X352297Y342628D01*
X352251Y342752D01*
X352198Y342870D01*
X352192Y342877D01*
X352185Y342897D01*
X352165Y342929D01*
X352139Y342975D01*
X352106Y343028D01*
X352067Y343087D01*
X352021Y343152D01*
X351969Y343225D01*
X351910Y343303D01*
X351844Y343382D01*
X351772Y343461D01*
X351693Y343540D01*
X351516Y343684D01*
X351418Y343756D01*
X351313Y343815D01*
X351306Y343822D01*
X351286Y343828D01*
X351254Y343841D01*
X351208Y343867D01*
X351155Y343887D01*
X351090Y343913D01*
X351011Y343946D01*
X350926Y343972D01*
X350834Y344005D01*
X350729Y344032D01*
X350624Y344058D01*
X350506Y344084D01*
X350250Y344117D01*
X350119Y344123D01*
X349981Y344130D01*
D02*
G37*
G36*
X352000Y370545D02*
X351331D01*
Y368045D01*
X348825Y370545D01*
X347920D01*
X350039Y368491D01*
X347828Y365500D01*
X348713D01*
X350511Y368039D01*
X351331Y367245D01*
Y365500D01*
X352000D01*
Y370545D01*
D02*
G37*
G36*
X360500D02*
X358512D01*
X358466Y370538D01*
X358407D01*
X358276Y370525D01*
X358132Y370505D01*
X357974Y370479D01*
X357823Y370440D01*
X357686Y370387D01*
X357679D01*
X357673Y370381D01*
X357653Y370374D01*
X357627Y370361D01*
X357568Y370322D01*
X357489Y370269D01*
X357397Y370203D01*
X357312Y370125D01*
X357220Y370026D01*
X357141Y369915D01*
Y369908D01*
X357135Y369902D01*
X357108Y369862D01*
X357076Y369797D01*
X357036Y369711D01*
X357003Y369613D01*
X356971Y369502D01*
X356944Y369384D01*
X356938Y369252D01*
Y369246D01*
Y369239D01*
Y369219D01*
Y369200D01*
X356944Y369134D01*
X356958Y369056D01*
X356984Y368957D01*
X357010Y368852D01*
X357056Y368747D01*
X357115Y368636D01*
X357122Y368623D01*
X357148Y368590D01*
X357187Y368537D01*
X357246Y368472D01*
X357325Y368400D01*
X357417Y368327D01*
X357522Y368249D01*
X357646Y368183D01*
X357640D01*
X357627Y368177D01*
X357600Y368170D01*
X357568Y368157D01*
X357535Y368144D01*
X357489Y368124D01*
X357384Y368072D01*
X357273Y368006D01*
X357154Y367927D01*
X357043Y367829D01*
X356944Y367717D01*
Y367711D01*
X356931Y367704D01*
X356918Y367685D01*
X356905Y367658D01*
X356866Y367593D01*
X356820Y367501D01*
X356774Y367389D01*
X356735Y367258D01*
X356708Y367114D01*
X356695Y366956D01*
Y366950D01*
Y366943D01*
Y366923D01*
Y366897D01*
X356702Y366832D01*
X356715Y366740D01*
X356735Y366641D01*
X356761Y366530D01*
X356794Y366418D01*
X356846Y366300D01*
X356853Y366287D01*
X356872Y366248D01*
X356905Y366195D01*
X356951Y366130D01*
X357003Y366051D01*
X357069Y365972D01*
X357141Y365900D01*
X357220Y365828D01*
X357227Y365821D01*
X357259Y365802D01*
X357305Y365769D01*
X357371Y365736D01*
X357450Y365697D01*
X357541Y365651D01*
X357653Y365612D01*
X357771Y365579D01*
X357784D01*
X357804Y365572D01*
X357830Y365566D01*
X357863Y365559D01*
X357902Y365552D01*
X357994Y365539D01*
X358112Y365526D01*
X358250Y365513D01*
X358407Y365507D01*
X358584Y365500D01*
X360500D01*
Y370545D01*
D02*
G37*
%LPD*%
G36*
X359831Y366097D02*
X358401D01*
X358250Y366104D01*
X358184Y366110D01*
X358125Y366117D01*
X358112D01*
X358086Y366123D01*
X358047Y366136D01*
X357994Y366149D01*
X357928Y366169D01*
X357869Y366189D01*
X357804Y366222D01*
X357745Y366254D01*
X357738Y366261D01*
X357719Y366274D01*
X357692Y366294D01*
X357653Y366327D01*
X357614Y366366D01*
X357568Y366418D01*
X357528Y366471D01*
X357489Y366536D01*
X357482Y366543D01*
X357469Y366569D01*
X357456Y366609D01*
X357436Y366661D01*
X357417Y366720D01*
X357397Y366792D01*
X357391Y366878D01*
X357384Y366963D01*
Y366976D01*
Y367009D01*
X357391Y367061D01*
X357404Y367127D01*
X357423Y367206D01*
X357450Y367284D01*
X357482Y367370D01*
X357535Y367448D01*
X357541Y367455D01*
X357561Y367481D01*
X357594Y367520D01*
X357640Y367566D01*
X357699Y367612D01*
X357765Y367665D01*
X357843Y367704D01*
X357935Y367743D01*
X357948Y367750D01*
X357981Y367757D01*
X358040Y367770D01*
X358125Y367789D01*
X358224Y367803D01*
X358355Y367816D01*
X358499Y367822D01*
X358670Y367829D01*
X359831D01*
Y366097D01*
D02*
G37*
G36*
Y368426D02*
X358591D01*
X358499Y368432D01*
X358394Y368439D01*
X358289Y368445D01*
X358191Y368459D01*
X358112Y368478D01*
X358099Y368485D01*
X358073Y368491D01*
X358027Y368511D01*
X357968Y368537D01*
X357902Y368577D01*
X357843Y368616D01*
X357778Y368669D01*
X357725Y368727D01*
X357719Y368734D01*
X357705Y368760D01*
X357686Y368800D01*
X357660Y368852D01*
X357633Y368911D01*
X357614Y368990D01*
X357600Y369075D01*
X357594Y369174D01*
Y369187D01*
Y369213D01*
X357600Y369265D01*
X357607Y369324D01*
X357627Y369390D01*
X357646Y369462D01*
X357679Y369541D01*
X357719Y369613D01*
X357725Y369620D01*
X357738Y369646D01*
X357765Y369679D01*
X357804Y369718D01*
X357856Y369764D01*
X357909Y369803D01*
X357981Y369843D01*
X358060Y369876D01*
X358073Y369882D01*
X358106Y369889D01*
X358158Y369902D01*
X358237Y369915D01*
X358289Y369921D01*
X358342Y369928D01*
X358407D01*
X358479Y369935D01*
X358552Y369941D01*
X358637Y369948D01*
X359831D01*
Y368426D01*
D02*
G37*
G36*
X360331Y341814D02*
X358789D01*
X358743Y341821D01*
X358638Y341827D01*
X358527Y341834D01*
X358402Y341854D01*
X358291Y341873D01*
X358186Y341906D01*
X358173Y341913D01*
X358140Y341926D01*
X358094Y341945D01*
X358035Y341978D01*
X357976Y342018D01*
X357910Y342070D01*
X357845Y342136D01*
X357792Y342208D01*
X357786Y342214D01*
X357772Y342247D01*
X357746Y342287D01*
X357720Y342346D01*
X357700Y342411D01*
X357674Y342490D01*
X357661Y342569D01*
X357654Y342660D01*
Y342667D01*
Y342674D01*
Y342693D01*
X357661Y342720D01*
X357667Y342785D01*
X357687Y342870D01*
X357720Y342962D01*
X357766Y343061D01*
X357832Y343159D01*
X357917Y343251D01*
X357930Y343264D01*
X357969Y343290D01*
X358028Y343323D01*
X358120Y343369D01*
X358173Y343389D01*
X358232Y343415D01*
X358297Y343435D01*
X358376Y343448D01*
X358455Y343467D01*
X358540Y343474D01*
X358638Y343487D01*
X360331D01*
Y341814D01*
D02*
G37*
D23*
X375984Y354331D02*
G03*
X375984Y354331I-21654J0D01*
G01*
D24*
X343414Y369772D02*
D03*
D25*
X338750Y364000D02*
D03*
D26*
X336000Y356750D02*
D03*
D27*
X339250Y342500D02*
D03*
D28*
X354000Y335750D02*
D03*
D29*
X343500Y338500D02*
D03*
D30*
X364000Y337250D02*
D03*
D31*
X366500Y339500D02*
D03*
D32*
X371750Y354750D02*
D03*
D33*
X364250Y370500D02*
D03*
D34*
X354500Y373000D02*
D03*
D35*
X354750Y340065D02*
D03*
D36*
X342664Y366250D02*
D03*
D37*
X338250Y353500D02*
D03*
D38*
X342414Y351500D02*
D03*
D39*
X364000Y340000D02*
D03*
D40*
X367250Y352250D02*
D03*
D41*
X366500Y366500D02*
D03*
D42*
X354250Y367750D02*
D03*
%TF.MD5,8620EA5FC57F775A2EF1BEBD0F7C4E27*%
M02*
