G04 Layer_Physical_Order=1*
G04 Layer_Color=255*
%FSLAX25Y25*%
%MOIN*%
%TF.FileFunction,Copper,L1,Top,Signal*%
%TF.Part,Single*%
G01*
G75*
%TA.AperFunction,SMDPad*%
%ADD10R,0.02559X0.02362*%
%TA.AperFunction,SMDPad*%
%ADD11R,0.02559X0.02559*%
%TA.AperFunction,SMDPad*%
%ADD12R,0.02559X0.02559*%
%TA.AperFunction,SMDPad*%
%ADD13R,0.06221X0.03150*%
%ADD14C,0.01000*%
%TA.AperFunction,ViaPad*%
%ADD15C,0.01800*%
G36*
X357249Y376499D02*
X360118Y375929D01*
X362888Y374989D01*
X365511Y373695D01*
X367943Y372070D01*
X370142Y370142D01*
X372070Y367943D01*
X373695Y365511D01*
X374989Y362888D01*
X375929Y360118D01*
X376499Y357249D01*
X376691Y354331D01*
X376499Y351412D01*
X375929Y348544D01*
X374989Y345774D01*
X373695Y343151D01*
X372070Y340719D01*
X370142Y338520D01*
X368263Y336873D01*
X367799Y337131D01*
X367807Y337177D01*
X367864Y337292D01*
X368370Y337630D01*
X368737Y338179D01*
X368866Y338827D01*
X368737Y339475D01*
X368370Y340024D01*
X367821Y340390D01*
X367880Y340889D01*
X369673D01*
X369673Y340889D01*
X370165Y340986D01*
X370582Y341265D01*
X371908Y342592D01*
X371908Y342592D01*
X372187Y343008D01*
X372285Y343500D01*
Y349000D01*
X372285Y349000D01*
X372187Y349492D01*
X371908Y349908D01*
X370838Y350978D01*
Y353964D01*
Y357545D01*
X370908Y357592D01*
X371908Y358592D01*
X371908Y358592D01*
X372187Y359008D01*
X372285Y359500D01*
Y365000D01*
X372187Y365492D01*
X371908Y365908D01*
X371908Y365908D01*
X370582Y367235D01*
X370165Y367514D01*
X369673Y367612D01*
X369673Y367611D01*
X368033D01*
X367974Y368109D01*
X368524Y368476D01*
X368891Y369025D01*
X369019Y369673D01*
X368891Y370321D01*
X368524Y370870D01*
X367974Y371237D01*
X367540Y371323D01*
Y371614D01*
X363460D01*
X363039Y371805D01*
Y373114D01*
X362670D01*
X362564Y373648D01*
X362197Y374197D01*
X361648Y374564D01*
X361000Y374693D01*
X360352Y374564D01*
X359803Y374197D01*
X359436Y373648D01*
X359330Y373114D01*
X358961D01*
Y370511D01*
X358528Y370199D01*
X358112Y370337D01*
X358043Y370534D01*
Y370838D01*
X351294D01*
X351019Y371173D01*
X350890Y371821D01*
X350524Y372370D01*
X349974Y372737D01*
X349539Y372823D01*
Y373114D01*
X345461D01*
Y371805D01*
X345040Y371614D01*
X344960Y371614D01*
X340961D01*
Y371402D01*
X340663Y371356D01*
X340443Y371828D01*
X340719Y372070D01*
X343151Y373695D01*
X345774Y374989D01*
X348544Y375929D01*
X351412Y376499D01*
X354331Y376691D01*
X357249Y376499D01*
D02*
G37*
G36*
X341744Y341173D02*
X341735Y341268D01*
X341708Y341353D01*
X341662Y341428D01*
X341598Y341493D01*
X341515Y341548D01*
X341414Y341593D01*
X341295Y341628D01*
X341157Y341653D01*
X341001Y341668D01*
X340827Y341673D01*
Y342673D01*
X341001Y342678D01*
X341157Y342693D01*
X341295Y342718D01*
X341414Y342753D01*
X341515Y342798D01*
X341598Y342853D01*
X341662Y342918D01*
X341708Y342993D01*
X341735Y343078D01*
X341744Y343173D01*
Y341173D01*
D02*
G37*
G36*
X348773Y341578D02*
X348790Y341493D01*
X348818Y341418D01*
X348857Y341353D01*
X348907Y341298D01*
X348969Y341253D01*
X349042Y341218D01*
X349125Y341193D01*
X349220Y341178D01*
X349327Y341173D01*
Y340173D01*
X349220Y340168D01*
X349125Y340153D01*
X349042Y340128D01*
X348969Y340093D01*
X348907Y340048D01*
X348857Y339993D01*
X348818Y339928D01*
X348790Y339853D01*
X348773Y339768D01*
X348767Y339673D01*
Y341673D01*
X348773Y341578D01*
D02*
G37*
G36*
X359745Y339673D02*
X359739Y339768D01*
X359722Y339853D01*
X359693Y339928D01*
X359653Y339993D01*
X359602Y340048D01*
X359539Y340093D01*
X359465Y340128D01*
X359379Y340153D01*
X359282Y340168D01*
X359173Y340173D01*
Y341173D01*
X359282Y341178D01*
X359379Y341193D01*
X359465Y341218D01*
X359539Y341253D01*
X359602Y341298D01*
X359653Y341353D01*
X359693Y341418D01*
X359722Y341493D01*
X359739Y341578D01*
X359745Y341673D01*
Y339673D01*
D02*
G37*
G36*
X366777Y343078D02*
X366808Y342993D01*
X366858Y342918D01*
X366928Y342853D01*
X367018Y342798D01*
X367127Y342753D01*
X367257Y342718D01*
X367407Y342693D01*
X367578Y342678D01*
X367768Y342673D01*
Y341673D01*
X367578Y341668D01*
X367407Y341653D01*
X367257Y341628D01*
X367127Y341593D01*
X367018Y341548D01*
X366928Y341493D01*
X366858Y341428D01*
X366808Y341353D01*
X366777Y341268D01*
X366768Y341173D01*
Y343173D01*
X366777Y343078D01*
D02*
G37*
G36*
X369704Y351400D02*
X369544Y351384D01*
X369479Y351370D01*
X369424Y351352D01*
X369379Y351330D01*
X369344Y351304D01*
X369319Y351273D01*
X369304Y351239D01*
X369299Y351201D01*
X368299D01*
X368294Y351239D01*
X368279Y351273D01*
X368254Y351304D01*
X368219Y351330D01*
X368174Y351352D01*
X368119Y351370D01*
X368054Y351384D01*
X367979Y351394D01*
X367894Y351400D01*
X367799Y351402D01*
X369799D01*
X369704Y351400D01*
D02*
G37*
G36*
X359501Y352189D02*
X359521Y351936D01*
X359532Y351868D01*
X359547Y351807D01*
X359564Y351754D01*
X359583Y351709D01*
X359605Y351672D01*
X359630Y351643D01*
X358370D01*
X358395Y351672D01*
X358417Y351709D01*
X358436Y351754D01*
X358453Y351807D01*
X358468Y351868D01*
X358479Y351936D01*
X358495Y352097D01*
X358499Y352189D01*
X358500Y352288D01*
X359500D01*
X359501Y352189D01*
D02*
G37*
G36*
X368000Y358817D02*
X367890Y358707D01*
X367612Y358291D01*
X367563Y358043D01*
X366759D01*
Y353964D01*
Y350618D01*
X367673D01*
X367890Y350293D01*
X368339Y349845D01*
X368147Y349382D01*
X362271D01*
Y344713D01*
X369715D01*
Y344032D01*
X369141Y343458D01*
X367557D01*
X367540Y343460D01*
Y344114D01*
X363460D01*
Y342805D01*
X363039Y342614D01*
X362960Y342614D01*
X358961D01*
Y342030D01*
X358519Y341774D01*
X358043Y341902D01*
Y341902D01*
X358043Y341902D01*
X350618D01*
Y341840D01*
X350118Y341660D01*
X349818Y341860D01*
X349539Y341916D01*
Y342614D01*
X345539D01*
X345461Y342614D01*
X345040Y342805D01*
Y344114D01*
X340961D01*
X340961Y344114D01*
Y344114D01*
X340527Y344290D01*
X339285Y345532D01*
Y348468D01*
X340771Y349954D01*
X340771Y349954D01*
X341050Y350371D01*
X341099Y350618D01*
X341902D01*
Y351016D01*
X342048Y351120D01*
X342402Y351237D01*
X342852Y350936D01*
X343500Y350807D01*
X344148Y350936D01*
X344560Y351212D01*
X344609Y351215D01*
X346000D01*
X346000Y351215D01*
X346492Y351313D01*
X346908Y351592D01*
X349532Y354215D01*
X351500D01*
X351500Y354215D01*
X351992Y354313D01*
X352408Y354592D01*
X356032Y358215D01*
X357413D01*
X357438Y358213D01*
X357852Y357936D01*
X358500Y357807D01*
X359148Y357936D01*
X359333Y358060D01*
X359903Y357840D01*
X359927Y357744D01*
X358092Y355908D01*
X357813Y355492D01*
X357715Y355000D01*
X357715Y355000D01*
Y352087D01*
X357713Y352062D01*
X357436Y351648D01*
X357308Y351000D01*
X357436Y350352D01*
X357803Y349803D01*
X358352Y349436D01*
X359000Y349307D01*
X359648Y349436D01*
X360197Y349803D01*
X360564Y350352D01*
X360693Y351000D01*
X360564Y351648D01*
X360289Y352060D01*
X360285Y352109D01*
Y354468D01*
X362408Y356592D01*
X362408Y356592D01*
X362687Y357008D01*
X362785Y357500D01*
Y359279D01*
X367809D01*
X368000Y358817D01*
D02*
G37*
G36*
X340768Y351385D02*
X340683Y351369D01*
X340608Y351343D01*
X340543Y351306D01*
X340488Y351258D01*
X340443Y351200D01*
X340408Y351132D01*
X340383Y351052D01*
X340368Y350963D01*
X340363Y350863D01*
X339363D01*
X339358Y350963D01*
X339343Y351052D01*
X339318Y351132D01*
X339283Y351200D01*
X339238Y351258D01*
X339183Y351306D01*
X339118Y351343D01*
X339043Y351369D01*
X338958Y351385D01*
X338863Y351390D01*
X340863D01*
X340768Y351385D01*
D02*
G37*
G36*
X357281Y340768D02*
X357311Y340683D01*
X357361Y340608D01*
X357431Y340543D01*
X357521Y340488D01*
X357631Y340443D01*
X357761Y340408D01*
X357911Y340383D01*
X358081Y340368D01*
X358271Y340363D01*
Y339363D01*
X358081Y339358D01*
X357911Y339343D01*
X357761Y339318D01*
X357631Y339283D01*
X357521Y339238D01*
X357431Y339183D01*
X357361Y339118D01*
X357311Y339043D01*
X357281Y338958D01*
X357271Y338863D01*
Y340863D01*
X357281Y340768D01*
D02*
G37*
G36*
X348684Y336697D02*
X348655Y336721D01*
X348618Y336744D01*
X348572Y336763D01*
X348520Y336780D01*
X348459Y336794D01*
X348391Y336806D01*
X348230Y336822D01*
X348138Y336825D01*
X348039Y336827D01*
Y337827D01*
X348138Y337828D01*
X348391Y337848D01*
X348459Y337859D01*
X348520Y337874D01*
X348572Y337891D01*
X348618Y337910D01*
X348655Y337932D01*
X348684Y337957D01*
Y336697D01*
D02*
G37*
G36*
X339789Y370590D02*
X339610Y370321D01*
X339481Y369673D01*
X339610Y369025D01*
X339976Y368476D01*
X340526Y368109D01*
X340517Y368040D01*
X340327Y367612D01*
X339835Y367514D01*
X339418Y367235D01*
X339418Y367235D01*
X337092Y364908D01*
X336813Y364492D01*
X336715Y364000D01*
X336715Y364000D01*
Y359500D01*
X336715Y359500D01*
X336813Y359008D01*
X337092Y358592D01*
X337823Y357860D01*
Y353964D01*
Y350640D01*
X337092Y349908D01*
X336813Y349492D01*
X336715Y349000D01*
X336715Y349000D01*
Y345000D01*
X336715Y345000D01*
X336813Y344508D01*
X337092Y344092D01*
X339918Y341265D01*
X339918Y341265D01*
X340335Y340986D01*
X340694Y340915D01*
Y340405D01*
X340620Y340390D01*
X340071Y340024D01*
X339704Y339475D01*
X339575Y338827D01*
X339704Y338179D01*
X339756Y338101D01*
X339377Y337768D01*
X338520Y338520D01*
X336591Y340719D01*
X334966Y343151D01*
X333673Y345774D01*
X332733Y348544D01*
X332162Y351412D01*
X331971Y354331D01*
X332162Y357249D01*
X332733Y360118D01*
X333673Y362888D01*
X334966Y365511D01*
X336591Y367943D01*
X338520Y370142D01*
X339410Y370922D01*
X339789Y370590D01*
D02*
G37*
G36*
X358939Y338245D02*
X358961Y338191D01*
Y335386D01*
X359330D01*
X359436Y334852D01*
X359803Y334303D01*
X360352Y333936D01*
X361000Y333807D01*
X361648Y333936D01*
X362197Y334303D01*
X362564Y334852D01*
X362670Y335386D01*
X363039D01*
Y336695D01*
X363460Y336886D01*
X363540Y336886D01*
X367088D01*
X367503Y336394D01*
X367485Y336286D01*
X365511Y334966D01*
X362888Y333673D01*
X360118Y332733D01*
X357249Y332162D01*
X354331Y331971D01*
X351412Y332162D01*
X348544Y332733D01*
X345774Y333673D01*
X343151Y334966D01*
X341027Y336386D01*
X341178Y336886D01*
X344960D01*
X345040Y336886D01*
X345461Y336695D01*
Y335386D01*
X349539D01*
Y335677D01*
X349974Y335763D01*
X350524Y336130D01*
X350890Y336679D01*
X351019Y337327D01*
X350997Y337437D01*
X351315Y337823D01*
X358043D01*
Y338236D01*
X358363Y338578D01*
X358460Y338597D01*
X358939Y338245D01*
D02*
G37*
G36*
X348773Y338232D02*
X348790Y338147D01*
X348818Y338072D01*
X348857Y338007D01*
X348907Y337952D01*
X348969Y337907D01*
X349042Y337872D01*
X349126Y337847D01*
X349220Y337832D01*
X349327Y337827D01*
Y336827D01*
X349220Y336822D01*
X349126Y336807D01*
X349042Y336782D01*
X348969Y336747D01*
X348907Y336702D01*
X348857Y336647D01*
X348818Y336582D01*
X348790Y336507D01*
X348773Y336422D01*
X348767Y336327D01*
Y338327D01*
X348773Y338232D01*
D02*
G37*
G36*
X341744Y337827D02*
X341740Y337922D01*
X341725Y338007D01*
X341702Y338082D01*
X341668Y338147D01*
X341625Y338202D01*
X341573Y338247D01*
X341511Y338282D01*
X341439Y338307D01*
X341358Y338322D01*
X341267Y338327D01*
Y339327D01*
X341358Y339332D01*
X341439Y339347D01*
X341511Y339372D01*
X341573Y339407D01*
X341625Y339452D01*
X341668Y339507D01*
X341702Y339572D01*
X341725Y339647D01*
X341740Y339732D01*
X341744Y339827D01*
Y337827D01*
D02*
G37*
G36*
X366530Y338197D02*
X366501Y338222D01*
X366464Y338244D01*
X366419Y338263D01*
X366366Y338280D01*
X366305Y338294D01*
X366237Y338306D01*
X366076Y338322D01*
X365985Y338326D01*
X365885Y338327D01*
Y339327D01*
X365985Y339328D01*
X366237Y339348D01*
X366305Y339359D01*
X366366Y339374D01*
X366419Y339390D01*
X366464Y339410D01*
X366501Y339432D01*
X366530Y339457D01*
Y338197D01*
D02*
G37*
G36*
X351402Y338863D02*
X351392Y338958D01*
X351362Y339043D01*
X351311Y339118D01*
X351240Y339183D01*
X351149Y339238D01*
X351038Y339283D01*
X350906Y339318D01*
X350754Y339343D01*
X350582Y339358D01*
X350390Y339363D01*
Y340363D01*
X350582Y340368D01*
X350754Y340383D01*
X350906Y340408D01*
X351038Y340443D01*
X351149Y340488D01*
X351240Y340543D01*
X351311Y340608D01*
X351362Y340683D01*
X351392Y340768D01*
X351402Y340863D01*
Y338863D01*
D02*
G37*
G36*
X366772Y339732D02*
X366784Y339647D01*
X366804Y339572D01*
X366832Y339507D01*
X366869Y339452D01*
X366914Y339407D01*
X366966Y339372D01*
X367027Y339347D01*
X367096Y339332D01*
X367173Y339327D01*
Y338327D01*
X367096Y338322D01*
X367027Y338307D01*
X366966Y338282D01*
X366914Y338247D01*
X366869Y338202D01*
X366832Y338147D01*
X366804Y338082D01*
X366784Y338007D01*
X366772Y337922D01*
X366768Y337827D01*
Y339827D01*
X366772Y339732D01*
D02*
G37*
G36*
X341939Y339432D02*
X341977Y339410D01*
X342022Y339390D01*
X342075Y339374D01*
X342135Y339359D01*
X342204Y339348D01*
X342364Y339332D01*
X342456Y339328D01*
X342556Y339327D01*
Y338327D01*
X342456Y338326D01*
X342204Y338306D01*
X342135Y338294D01*
X342075Y338280D01*
X342022Y338263D01*
X341977Y338244D01*
X341939Y338222D01*
X341910Y338197D01*
Y339457D01*
X341939Y339432D01*
D02*
G37*
G36*
X357269Y369704D02*
X357297Y369619D01*
X357344Y369544D01*
X357410Y369479D01*
X357495Y369424D01*
X357598Y369379D01*
X357721Y369344D01*
X357862Y369319D01*
X358022Y369304D01*
X358201Y369299D01*
Y368299D01*
X358022Y368294D01*
X357862Y368279D01*
X357721Y368254D01*
X357598Y368219D01*
X357495Y368174D01*
X357410Y368119D01*
X357344Y368054D01*
X357297Y367979D01*
X357269Y367894D01*
X357259Y367799D01*
Y369799D01*
X357269Y369704D01*
D02*
G37*
G36*
X341733Y368673D02*
X341727Y368768D01*
X341710Y368853D01*
X341682Y368928D01*
X341643Y368993D01*
X341593Y369048D01*
X341531Y369093D01*
X341458Y369128D01*
X341374Y369153D01*
X341280Y369168D01*
X341173Y369173D01*
Y370173D01*
X341280Y370178D01*
X341374Y370193D01*
X341458Y370218D01*
X341531Y370253D01*
X341593Y370298D01*
X341643Y370353D01*
X341682Y370418D01*
X341710Y370493D01*
X341727Y370578D01*
X341733Y370673D01*
Y368673D01*
D02*
G37*
G36*
X359733Y366827D02*
X359727Y366922D01*
X359710Y367007D01*
X359682Y367082D01*
X359643Y367147D01*
X359593Y367202D01*
X359531Y367247D01*
X359458Y367282D01*
X359375Y367307D01*
X359279Y367322D01*
X359173Y367327D01*
Y368327D01*
X359279Y368332D01*
X359375Y368347D01*
X359458Y368372D01*
X359531Y368407D01*
X359593Y368452D01*
X359643Y368507D01*
X359682Y368572D01*
X359710Y368647D01*
X359727Y368732D01*
X359733Y368827D01*
Y366827D01*
D02*
G37*
G36*
X351390Y367799D02*
X351384Y367894D01*
X351366Y367979D01*
X351337Y368054D01*
X351296Y368119D01*
X351242Y368174D01*
X351177Y368219D01*
X351100Y368254D01*
X351012Y368279D01*
X350911Y368294D01*
X350799Y368299D01*
Y369299D01*
X350911Y369304D01*
X351012Y369319D01*
X351100Y369344D01*
X351177Y369379D01*
X351242Y369424D01*
X351296Y369479D01*
X351337Y369544D01*
X351366Y369619D01*
X351384Y369704D01*
X351390Y369799D01*
Y367799D01*
D02*
G37*
G36*
X366761Y370578D02*
X366778Y370493D01*
X366807Y370418D01*
X366847Y370353D01*
X366898Y370298D01*
X366961Y370253D01*
X367035Y370218D01*
X367121Y370193D01*
X367218Y370178D01*
X367327Y370173D01*
Y369173D01*
X367218Y369168D01*
X367121Y369153D01*
X367035Y369128D01*
X366961Y369093D01*
X366898Y369048D01*
X366847Y368993D01*
X366807Y368928D01*
X366778Y368853D01*
X366761Y368768D01*
X366756Y368673D01*
Y370673D01*
X366761Y370578D01*
D02*
G37*
G36*
X348761Y372078D02*
X348778Y371993D01*
X348807Y371918D01*
X348847Y371853D01*
X348898Y371798D01*
X348961Y371753D01*
X349035Y371718D01*
X349121Y371693D01*
X349218Y371678D01*
X349327Y371673D01*
Y370673D01*
X349218Y370668D01*
X349121Y370653D01*
X349035Y370628D01*
X348961Y370593D01*
X348898Y370548D01*
X348847Y370493D01*
X348807Y370428D01*
X348778Y370353D01*
X348761Y370268D01*
X348756Y370173D01*
Y372173D01*
X348761Y372078D01*
D02*
G37*
G36*
X348684Y370543D02*
X348655Y370568D01*
X348618Y370590D01*
X348572Y370609D01*
X348520Y370626D01*
X348459Y370641D01*
X348391Y370652D01*
X348230Y370668D01*
X348138Y370672D01*
X348039Y370673D01*
Y371673D01*
X348138Y371674D01*
X348391Y371694D01*
X348459Y371706D01*
X348520Y371720D01*
X348572Y371737D01*
X348618Y371756D01*
X348655Y371778D01*
X348684Y371803D01*
Y370543D01*
D02*
G37*
G36*
X341845Y370279D02*
X341882Y370256D01*
X341928Y370237D01*
X341980Y370220D01*
X342041Y370206D01*
X342109Y370194D01*
X342270Y370178D01*
X342362Y370175D01*
X342461Y370173D01*
Y369173D01*
X342362Y369172D01*
X342109Y369152D01*
X342041Y369141D01*
X341980Y369126D01*
X341928Y369110D01*
X341882Y369090D01*
X341845Y369068D01*
X341816Y369043D01*
Y370303D01*
X341845Y370279D01*
D02*
G37*
G36*
X366684Y369043D02*
X366655Y369068D01*
X366617Y369090D01*
X366572Y369110D01*
X366520Y369126D01*
X366459Y369141D01*
X366390Y369152D01*
X366230Y369168D01*
X366138Y369172D01*
X366038Y369173D01*
Y370173D01*
X366138Y370175D01*
X366390Y370194D01*
X366459Y370206D01*
X366520Y370220D01*
X366572Y370237D01*
X366617Y370256D01*
X366655Y370279D01*
X366684Y370303D01*
Y369043D01*
D02*
G37*
G36*
X348766Y368732D02*
X348796Y368647D01*
X348847Y368572D01*
X348918Y368507D01*
X349008Y368452D01*
X349120Y368407D01*
X349251Y368372D01*
X349403Y368347D01*
X349575Y368332D01*
X349767Y368327D01*
Y367327D01*
X349575Y367322D01*
X349403Y367307D01*
X349251Y367282D01*
X349120Y367247D01*
X349008Y367202D01*
X348918Y367147D01*
X348847Y367082D01*
X348796Y367007D01*
X348766Y366922D01*
X348756Y366827D01*
Y368827D01*
X348766Y368732D01*
D02*
G37*
G36*
X357857Y358870D02*
X357828Y358895D01*
X357791Y358917D01*
X357746Y358936D01*
X357693Y358953D01*
X357632Y358967D01*
X357564Y358979D01*
X357403Y358995D01*
X357311Y358999D01*
X357212Y359000D01*
Y360000D01*
X357311Y360001D01*
X357564Y360021D01*
X357632Y360033D01*
X357693Y360047D01*
X357746Y360064D01*
X357791Y360083D01*
X357828Y360105D01*
X357857Y360130D01*
Y358870D01*
D02*
G37*
G36*
X348514Y360695D02*
X348706Y360530D01*
X348763Y360490D01*
X348816Y360457D01*
X348865Y360432D01*
X348911Y360414D01*
X348953Y360403D01*
X348991Y360400D01*
X348100Y359509D01*
X348097Y359547D01*
X348086Y359589D01*
X348068Y359635D01*
X348043Y359684D01*
X348010Y359737D01*
X347970Y359794D01*
X347867Y359918D01*
X347805Y359986D01*
X347736Y360057D01*
X348443Y360765D01*
X348514Y360695D01*
D02*
G37*
G36*
X344172Y353105D02*
X344209Y353083D01*
X344254Y353064D01*
X344307Y353047D01*
X344368Y353032D01*
X344436Y353021D01*
X344597Y353005D01*
X344689Y353001D01*
X344788Y353000D01*
Y352000D01*
X344689Y351999D01*
X344436Y351979D01*
X344368Y351968D01*
X344307Y351953D01*
X344254Y351936D01*
X344209Y351917D01*
X344172Y351895D01*
X344143Y351870D01*
Y353130D01*
X344172Y353105D01*
D02*
G37*
G36*
X340368Y357566D02*
X340383Y357501D01*
X340408Y357445D01*
X340443Y357395D01*
X340488Y357354D01*
X340543Y357320D01*
X340608Y357293D01*
X340683Y357274D01*
X340768Y357263D01*
X340863Y357259D01*
X338863D01*
X338958Y357263D01*
X339043Y357274D01*
X339118Y357293D01*
X339183Y357320D01*
X339238Y357354D01*
X339283Y357395D01*
X339318Y357445D01*
X339343Y357501D01*
X339358Y357566D01*
X339363Y357637D01*
X340363D01*
X340368Y357566D01*
D02*
G37*
G36*
X345616Y362519D02*
X345646Y362434D01*
X345697Y362359D01*
X345768Y362294D01*
X345859Y362239D01*
X345970Y362194D01*
X346102Y362159D01*
X346254Y362134D01*
X346426Y362119D01*
X346618Y362114D01*
Y361114D01*
X346426Y361109D01*
X346254Y361094D01*
X346102Y361069D01*
X345970Y361034D01*
X345859Y360989D01*
X345768Y360934D01*
X345697Y360869D01*
X345646Y360794D01*
X345616Y360709D01*
X345606Y360614D01*
Y362614D01*
X345616Y362519D01*
D02*
G37*
G36*
X341733Y365327D02*
X341722Y365422D01*
X341692Y365507D01*
X341642Y365582D01*
X341572Y365647D01*
X341482Y365702D01*
X341372Y365747D01*
X341243Y365782D01*
X341092Y365807D01*
X340922Y365822D01*
X340733Y365827D01*
Y366827D01*
X340922Y366832D01*
X341092Y366847D01*
X341243Y366872D01*
X341372Y366907D01*
X341482Y366952D01*
X341572Y367007D01*
X341642Y367072D01*
X341692Y367147D01*
X341722Y367232D01*
X341733Y367327D01*
Y365327D01*
D02*
G37*
G36*
X366766Y367232D02*
X366796Y367147D01*
X366847Y367072D01*
X366917Y367007D01*
X367008Y366952D01*
X367120Y366907D01*
X367251Y366872D01*
X367403Y366847D01*
X367575Y366832D01*
X367768Y366827D01*
Y365827D01*
X367575Y365822D01*
X367403Y365807D01*
X367251Y365782D01*
X367120Y365747D01*
X367008Y365702D01*
X366917Y365647D01*
X366847Y365582D01*
X366796Y365507D01*
X366766Y365422D01*
X366756Y365327D01*
Y367327D01*
X366766Y367232D01*
D02*
G37*
G36*
X355511Y366259D02*
X355436Y366148D01*
X355308Y365500D01*
X355436Y364852D01*
X355803Y364303D01*
X356352Y363936D01*
X357000Y363808D01*
X357648Y363936D01*
X358007Y364176D01*
X360215Y361968D01*
Y360821D01*
X359715Y360669D01*
X359697Y360697D01*
X359148Y361064D01*
X358500Y361192D01*
X357852Y361064D01*
X357440Y360788D01*
X357391Y360785D01*
X355500D01*
X355008Y360687D01*
X354592Y360408D01*
X354592Y360408D01*
X350968Y356785D01*
X349000D01*
X349000Y356785D01*
X348508Y356687D01*
X348092Y356408D01*
X345468Y353785D01*
X344587D01*
X344562Y353787D01*
X344148Y354064D01*
X343500Y354192D01*
X342852Y354064D01*
X342402Y353763D01*
X342010Y353892D01*
X341987Y353907D01*
X341902Y353984D01*
Y358043D01*
X341067D01*
X341050Y358129D01*
X340771Y358546D01*
X340771Y358546D01*
X340500Y358817D01*
X340691Y359279D01*
X346390D01*
Y359640D01*
X346852Y359831D01*
X347323Y359360D01*
X347339Y359341D01*
X347436Y358852D01*
X347803Y358303D01*
X348352Y357936D01*
X349000Y357807D01*
X349648Y357936D01*
X350197Y358303D01*
X350564Y358852D01*
X350693Y359500D01*
X350564Y360148D01*
X350197Y360697D01*
X349648Y361064D01*
X349162Y361160D01*
X349125Y361192D01*
X347795Y362522D01*
X347378Y362801D01*
X346886Y362898D01*
X346886Y362898D01*
X346404D01*
X346390Y362900D01*
Y363948D01*
X345191D01*
X345040Y364386D01*
X345040D01*
Y365695D01*
X345461Y365886D01*
X345540Y365886D01*
X349539D01*
Y366178D01*
X349827Y366542D01*
X350318Y366640D01*
X350618Y366759D01*
X350618Y366759D01*
X350618Y366759D01*
X355244D01*
X355511Y366259D01*
D02*
G37*
G36*
X357672Y366105D02*
X357709Y366083D01*
X357754Y366064D01*
X357807Y366047D01*
X357868Y366033D01*
X357936Y366021D01*
X358097Y366005D01*
X358189Y366001D01*
X358288Y366000D01*
Y365000D01*
X358189Y364999D01*
X357936Y364979D01*
X357868Y364967D01*
X357807Y364953D01*
X357754Y364936D01*
X357709Y364917D01*
X357672Y364895D01*
X357643Y364870D01*
Y366130D01*
X357672Y366105D01*
D02*
G37*
D10*
X347500Y371173D02*
D03*
Y367827D02*
D03*
X361000Y371173D02*
D03*
Y367827D02*
D03*
X343000Y338827D02*
D03*
Y342173D02*
D03*
X343000Y369673D02*
D03*
Y366327D02*
D03*
X361000Y337327D02*
D03*
Y340673D02*
D03*
X347500Y337327D02*
D03*
Y340673D02*
D03*
X365500Y369673D02*
D03*
Y366327D02*
D03*
X365500Y338827D02*
D03*
Y342173D02*
D03*
D11*
X356004Y373721D02*
D03*
X352658D02*
D03*
X356004Y368799D02*
D03*
X352658D02*
D03*
Y334941D02*
D03*
X356004D02*
D03*
X352658Y339863D02*
D03*
X356004D02*
D03*
D12*
X339863Y352658D02*
D03*
Y356004D02*
D03*
X334941Y352658D02*
D03*
Y356004D02*
D03*
X368799D02*
D03*
Y352658D02*
D03*
X373721Y356004D02*
D03*
Y352658D02*
D03*
D13*
X342520Y361614D02*
D03*
X366142D02*
D03*
X342520Y347048D02*
D03*
X366142D02*
D03*
D14*
X371000Y359500D02*
Y365000D01*
X370000Y358500D02*
X371000Y359500D01*
X369673Y366327D02*
X371000Y365000D01*
X343500Y352500D02*
X346000D01*
X339863Y350863D02*
Y352658D01*
X338000Y349000D02*
X339863Y350863D01*
X338000Y345000D02*
Y349000D01*
X359173Y340673D02*
X361000D01*
X358363Y339863D02*
X359173Y340673D01*
X356004Y339863D02*
X358363D01*
X341267Y338827D02*
X343000D01*
X340827Y342173D02*
X343000D01*
X338000Y345000D02*
X340827Y342173D01*
X357000Y365500D02*
X358500D01*
X347500Y371173D02*
X349327D01*
X358500Y365500D02*
X361500Y362500D01*
Y357500D02*
Y362500D01*
X359000Y355000D02*
X361500Y357500D01*
X359000Y351000D02*
Y355000D01*
X355500Y359500D02*
X358500D01*
X351500Y355500D02*
X355500Y359500D01*
X349000Y355500D02*
X351500D01*
X346000Y352500D02*
X349000Y355500D01*
X365500Y369673D02*
X367327D01*
X347500Y337327D02*
X349327D01*
X350137Y339863D02*
X352658D01*
X349327Y340673D02*
X350137Y339863D01*
X365500Y338827D02*
X367173D01*
X361000Y335500D02*
Y337327D01*
X341173Y369673D02*
X343000D01*
X350000Y349000D02*
Y351000D01*
X348048Y347048D02*
X350000Y349000D01*
X342520Y347048D02*
X348048D01*
X346886Y361614D02*
X349000Y359500D01*
X342520Y361614D02*
X346886D01*
X365500Y366327D02*
X369673D01*
X340327D02*
X343000D01*
X368799Y351201D02*
X371000Y349000D01*
Y343500D02*
Y349000D01*
X369673Y342173D02*
X371000Y343500D01*
X365500Y342173D02*
X369673D01*
X347500Y340673D02*
X349327D01*
X339863Y356004D02*
Y357637D01*
X338000Y359500D02*
X339863Y357637D01*
X338000Y359500D02*
Y364000D01*
X340327Y366327D01*
X350799Y368799D02*
X352658D01*
X349827Y367827D02*
X350799Y368799D01*
X347500Y367827D02*
X349827D01*
X358201Y368799D02*
X359173Y367827D01*
X356004Y368799D02*
X358201D01*
X359173Y367827D02*
X361000D01*
X369500Y358500D02*
X370000D01*
X368799Y357799D02*
X369500Y358500D01*
X368799Y356004D02*
Y357799D01*
Y351201D02*
Y352658D01*
D15*
X352500Y344500D02*
D03*
X343500Y352500D02*
D03*
X335000Y349000D02*
D03*
X354500Y336500D02*
D03*
X348500Y344500D02*
D03*
X350500D02*
D03*
X354500D02*
D03*
X356500D02*
D03*
X341267Y338827D02*
D03*
X365500Y357500D02*
D03*
Y355000D02*
D03*
Y352500D02*
D03*
X357000Y365500D02*
D03*
X355000Y375000D02*
D03*
X349327Y371173D02*
D03*
X344000Y373000D02*
D03*
X374000Y359500D02*
D03*
X373500Y349000D02*
D03*
X335000Y359000D02*
D03*
X343500Y356500D02*
D03*
X359000Y351000D02*
D03*
X358500Y359500D02*
D03*
X367327Y369673D02*
D03*
X349327Y337327D02*
D03*
X367173Y338827D02*
D03*
X361000Y335500D02*
D03*
X341173Y369673D02*
D03*
X361000Y373000D02*
D03*
X349000Y359500D02*
D03*
%TF.MD5,E9F669A00DCF7A3BE16F9BB0A64433ED*%
M02*
