G04 Layer_Color=128*
%FSLAX25Y25*%
%MOIN*%
%TF.FileFunction,Drillmap*%
%TF.Part,Single*%
G01*
G75*
%ADD45C,0.00500*%
D45*
X352000Y344500D02*
X353000D01*
X352500Y344000D02*
Y345000D01*
X343000Y352500D02*
X344000D01*
X343500Y352000D02*
Y353000D01*
X334500Y349000D02*
X335500D01*
X335000Y348500D02*
Y349500D01*
X354000Y336500D02*
X355000D01*
X354500Y336000D02*
Y337000D01*
X348000Y344500D02*
X349000D01*
X348500Y344000D02*
Y345000D01*
X350000Y344500D02*
X351000D01*
X350500Y344000D02*
Y345000D01*
X354000Y344500D02*
X355000D01*
X354500Y344000D02*
Y345000D01*
X356000Y344500D02*
X357000D01*
X356500Y344000D02*
Y345000D01*
X340767Y338827D02*
X341767D01*
X341267Y338327D02*
Y339327D01*
X365000Y357500D02*
X366000D01*
X365500Y357000D02*
Y358000D01*
X365000Y355000D02*
X366000D01*
X365500Y354500D02*
Y355500D01*
X365000Y352500D02*
X366000D01*
X365500Y352000D02*
Y353000D01*
X356500Y365500D02*
X357500D01*
X357000Y365000D02*
Y366000D01*
X354500Y375000D02*
X355500D01*
X355000Y374500D02*
Y375500D01*
X348827Y371173D02*
X349827D01*
X349327Y370673D02*
Y371673D01*
X343500Y373000D02*
X344500D01*
X344000Y372500D02*
Y373500D01*
X373500Y359500D02*
X374500D01*
X374000Y359000D02*
Y360000D01*
X373000Y349000D02*
X374000D01*
X373500Y348500D02*
Y349500D01*
X334500Y359000D02*
X335500D01*
X335000Y358500D02*
Y359500D01*
X343000Y356500D02*
X344000D01*
X343500Y356000D02*
Y357000D01*
X358500Y351000D02*
X359500D01*
X359000Y350500D02*
Y351500D01*
X358000Y359500D02*
X359000D01*
X358500Y359000D02*
Y360000D01*
X366827Y369673D02*
X367827D01*
X367327Y369173D02*
Y370173D01*
X348827Y337327D02*
X349827D01*
X349327Y336827D02*
Y337827D01*
X366673Y338827D02*
X367673D01*
X367173Y338327D02*
Y339327D01*
X360500Y335500D02*
X361500D01*
X361000Y335000D02*
Y336000D01*
X340673Y369673D02*
X341673D01*
X341173Y369173D02*
Y370173D01*
X360500Y373000D02*
X361500D01*
X361000Y372500D02*
Y373500D01*
X348500Y359500D02*
X349500D01*
X349000Y359000D02*
Y360000D01*
%TF.MD5,323FCABD6C7DA3EFABA5C38349EA86F8*%
M02*
