G04 Layer_Physical_Order=2*
G04 Layer_Color=16711680*
%FSLAX25Y25*%
%MOIN*%
%TF.FileFunction,Copper,L2,Bot,Signal*%
%TF.Part,Single*%
G01*
G75*
%ADD14C,0.01000*%
%TA.AperFunction,ViaPad*%
%ADD15C,0.01800*%
%TA.AperFunction,ConnectorPad*%
%ADD16R,0.07874X0.07874*%
G36*
X359605Y350328D02*
X359583Y350291D01*
X359564Y350246D01*
X359547Y350193D01*
X359532Y350132D01*
X359521Y350064D01*
X359505Y349903D01*
X359501Y349811D01*
X359500Y349712D01*
X358500D01*
X358499Y349811D01*
X358479Y350064D01*
X358468Y350132D01*
X358453Y350193D01*
X358436Y350246D01*
X358417Y350291D01*
X358395Y350328D01*
X358370Y350357D01*
X359630D01*
X359605Y350328D01*
D02*
G37*
G36*
X359905Y346565D02*
X359820Y346535D01*
X359745Y346485D01*
X359680Y346415D01*
X359625Y346325D01*
X359580Y346215D01*
X359545Y346085D01*
X359520Y345935D01*
X359505Y345765D01*
X359500Y345575D01*
X358500D01*
X358495Y345765D01*
X358480Y345935D01*
X358455Y346085D01*
X358420Y346215D01*
X358375Y346325D01*
X358320Y346415D01*
X358255Y346485D01*
X358180Y346535D01*
X358095Y346565D01*
X358000Y346575D01*
X360000D01*
X359905Y346565D01*
D02*
G37*
G36*
X359001Y360689D02*
X359021Y360436D01*
X359033Y360368D01*
X359047Y360307D01*
X359064Y360254D01*
X359083Y360209D01*
X359105Y360172D01*
X359130Y360143D01*
X357870D01*
X357895Y360172D01*
X357917Y360209D01*
X357936Y360254D01*
X357953Y360307D01*
X357967Y360368D01*
X357979Y360436D01*
X357995Y360597D01*
X357999Y360689D01*
X358000Y360788D01*
X359000D01*
X359001Y360689D01*
D02*
G37*
G36*
X343491Y351600D02*
X343453Y351597D01*
X343411Y351586D01*
X343365Y351568D01*
X343316Y351543D01*
X343263Y351510D01*
X343206Y351470D01*
X343082Y351367D01*
X343014Y351305D01*
X342943Y351236D01*
X342235Y351943D01*
X342305Y352014D01*
X342470Y352206D01*
X342510Y352263D01*
X342543Y352316D01*
X342568Y352365D01*
X342586Y352411D01*
X342597Y352453D01*
X342600Y352491D01*
X343491Y351600D01*
D02*
G37*
G36*
X366687Y340022D02*
X366879Y339857D01*
X366936Y339817D01*
X366989Y339784D01*
X367038Y339759D01*
X367084Y339741D01*
X367126Y339730D01*
X367164Y339727D01*
X366273Y338836D01*
X366270Y338874D01*
X366259Y338916D01*
X366241Y338962D01*
X366216Y339011D01*
X366183Y339064D01*
X366143Y339121D01*
X366040Y339245D01*
X365978Y339313D01*
X365909Y339384D01*
X366616Y340091D01*
X366687Y340022D01*
D02*
G37*
G36*
X349828Y338515D02*
X349848Y338263D01*
X349859Y338195D01*
X349874Y338134D01*
X349890Y338081D01*
X349910Y338036D01*
X349932Y337999D01*
X349957Y337969D01*
X348697D01*
X348722Y337999D01*
X348744Y338036D01*
X348763Y338081D01*
X348780Y338134D01*
X348794Y338195D01*
X348806Y338263D01*
X348822Y338423D01*
X348826Y338515D01*
X348827Y338615D01*
X349827D01*
X349828Y338515D01*
D02*
G37*
G36*
X339789Y370590D02*
X339610Y370321D01*
X339481Y369673D01*
X339610Y369025D01*
X339976Y368476D01*
X340526Y368109D01*
X341173Y367981D01*
X341821Y368109D01*
X342233Y368385D01*
X342282Y368389D01*
X345621D01*
X345669Y368380D01*
X345697Y368371D01*
X345707Y368342D01*
X345715Y368294D01*
Y367000D01*
X345715Y367000D01*
X345813Y366508D01*
X346092Y366092D01*
X347486Y364697D01*
X347362Y364282D01*
X347300Y364197D01*
X345303D01*
Y354803D01*
X354303D01*
Y345803D01*
X357714D01*
X357715Y345785D01*
Y342785D01*
X350500D01*
X350500Y342785D01*
X350008Y342687D01*
X349592Y342408D01*
X349592Y342408D01*
X348418Y341235D01*
X348285Y341035D01*
X347785Y341187D01*
Y341500D01*
X347785Y341500D01*
X347687Y341992D01*
X347408Y342408D01*
X346500Y343317D01*
X346083Y343595D01*
X345592Y343693D01*
X345591Y343693D01*
X343285D01*
Y350468D01*
X343640Y350823D01*
X343659Y350839D01*
X344148Y350936D01*
X344697Y351303D01*
X345064Y351852D01*
X345193Y352500D01*
X345064Y353148D01*
X344697Y353697D01*
X344148Y354064D01*
X343500Y354192D01*
X342852Y354064D01*
X342303Y353697D01*
X341936Y353148D01*
X341840Y352662D01*
X341808Y352625D01*
X341092Y351908D01*
X340813Y351492D01*
X340715Y351000D01*
X340715Y351000D01*
Y343532D01*
X340359Y343176D01*
X340080Y342759D01*
X339983Y342267D01*
X339983Y342267D01*
Y339914D01*
X339980Y339888D01*
X339704Y339475D01*
X339575Y338827D01*
X339704Y338179D01*
X339756Y338101D01*
X339377Y337768D01*
X338520Y338520D01*
X336591Y340719D01*
X334966Y343151D01*
X333673Y345774D01*
X332733Y348544D01*
X332162Y351412D01*
X331971Y354331D01*
X332162Y357249D01*
X332733Y360118D01*
X333673Y362888D01*
X334966Y365511D01*
X336591Y367943D01*
X338520Y370142D01*
X339410Y370922D01*
X339789Y370590D01*
D02*
G37*
G36*
X341769Y340015D02*
X341788Y339763D01*
X341800Y339695D01*
X341814Y339634D01*
X341831Y339581D01*
X341851Y339536D01*
X341873Y339499D01*
X341897Y339470D01*
X340637D01*
X340662Y339499D01*
X340684Y339536D01*
X340704Y339581D01*
X340721Y339634D01*
X340735Y339695D01*
X340747Y339763D01*
X340762Y339924D01*
X340766Y340015D01*
X340767Y340115D01*
X341767D01*
X341769Y340015D01*
D02*
G37*
G36*
X359005Y363484D02*
X359020Y363469D01*
X359045Y363456D01*
X359080Y363444D01*
X359125Y363435D01*
X359180Y363427D01*
X359320Y363417D01*
X359500Y363413D01*
X357500D01*
X357595Y363414D01*
X357875Y363435D01*
X357920Y363444D01*
X357955Y363456D01*
X357980Y363469D01*
X357995Y363484D01*
X358000Y363500D01*
X359000D01*
X359005Y363484D01*
D02*
G37*
G36*
X341845Y370279D02*
X341882Y370256D01*
X341928Y370237D01*
X341980Y370220D01*
X342041Y370206D01*
X342109Y370194D01*
X342270Y370178D01*
X342362Y370175D01*
X342461Y370173D01*
Y369173D01*
X342362Y369172D01*
X342109Y369152D01*
X342041Y369141D01*
X341980Y369126D01*
X341928Y369110D01*
X341882Y369090D01*
X341845Y369068D01*
X341816Y369043D01*
Y370303D01*
X341845Y370279D01*
D02*
G37*
G36*
X367318Y368773D02*
X367280Y368770D01*
X367238Y368759D01*
X367192Y368741D01*
X367143Y368716D01*
X367090Y368683D01*
X367033Y368643D01*
X366909Y368541D01*
X366841Y368478D01*
X366769Y368409D01*
X366062Y369116D01*
X366132Y369187D01*
X366297Y369379D01*
X366337Y369436D01*
X366369Y369489D01*
X366395Y369538D01*
X366413Y369584D01*
X366424Y369626D01*
X366427Y369664D01*
X367318Y368773D01*
D02*
G37*
G36*
X360991Y372100D02*
X360953Y372097D01*
X360911Y372086D01*
X360865Y372068D01*
X360816Y372043D01*
X360763Y372010D01*
X360706Y371970D01*
X360582Y371867D01*
X360514Y371805D01*
X360443Y371736D01*
X359735Y372443D01*
X359805Y372514D01*
X359970Y372706D01*
X360010Y372763D01*
X360043Y372816D01*
X360068Y372865D01*
X360086Y372911D01*
X360097Y372953D01*
X360100Y372991D01*
X360991Y372100D01*
D02*
G37*
G36*
X349932Y370501D02*
X349910Y370464D01*
X349890Y370419D01*
X349874Y370366D01*
X349859Y370305D01*
X349848Y370237D01*
X349832Y370076D01*
X349828Y369985D01*
X349827Y369885D01*
X348827D01*
X348826Y369985D01*
X348806Y370237D01*
X348794Y370305D01*
X348780Y370366D01*
X348763Y370419D01*
X348744Y370464D01*
X348722Y370501D01*
X348697Y370531D01*
X349957D01*
X349932Y370501D01*
D02*
G37*
G36*
X361500Y367500D02*
X361310Y367490D01*
X361140Y367460D01*
X360990Y367410D01*
X360860Y367340D01*
X360750Y367250D01*
X360660Y367140D01*
X360590Y367010D01*
X360540Y366860D01*
X360510Y366690D01*
X360500Y366500D01*
X359500D01*
X359490Y366690D01*
X359460Y366860D01*
X359410Y367010D01*
X359340Y367140D01*
X359250Y367250D01*
X359140Y367340D01*
X359010Y367410D01*
X358860Y367460D01*
X358690Y367490D01*
X358500Y367500D01*
X360000Y368500D01*
X361500Y367500D01*
D02*
G37*
G36*
X356357Y364870D02*
X356328Y364895D01*
X356291Y364917D01*
X356246Y364936D01*
X356193Y364953D01*
X356132Y364967D01*
X356064Y364979D01*
X355903Y364995D01*
X355811Y364999D01*
X355712Y365000D01*
Y366000D01*
X355811Y366001D01*
X356064Y366021D01*
X356132Y366033D01*
X356193Y366047D01*
X356246Y366064D01*
X356291Y366083D01*
X356328Y366105D01*
X356357Y366130D01*
Y364870D01*
D02*
G37*
G36*
X347500Y369673D02*
X346500Y368173D01*
X346490Y368363D01*
X346460Y368533D01*
X346410Y368683D01*
X346340Y368813D01*
X346250Y368923D01*
X346140Y369013D01*
X346010Y369083D01*
X345860Y369133D01*
X345690Y369163D01*
X345500Y369173D01*
Y370173D01*
X345690Y370180D01*
X345860Y370200D01*
X346010Y370234D01*
X346140Y370281D01*
X346250Y370341D01*
X346340Y370416D01*
X346410Y370503D01*
X346460Y370604D01*
X346490Y370719D01*
X346500Y370846D01*
X347500Y369673D01*
D02*
G37*
G36*
X357249Y376499D02*
X360118Y375929D01*
X362888Y374989D01*
X365511Y373695D01*
X367943Y372070D01*
X370142Y370142D01*
X372070Y367943D01*
X373695Y365511D01*
X374989Y362888D01*
X375929Y360118D01*
X376499Y357249D01*
X376691Y354331D01*
X376499Y351412D01*
X375929Y348544D01*
X374989Y345774D01*
X373695Y343151D01*
X372070Y340719D01*
X370142Y338520D01*
X367943Y336591D01*
X365511Y334966D01*
X362888Y333673D01*
X360118Y332733D01*
X357249Y332162D01*
X354331Y331971D01*
X351412Y332162D01*
X348544Y332733D01*
X345774Y333673D01*
X343151Y334966D01*
X340719Y336591D01*
X340480Y336801D01*
X340738Y337240D01*
X341267Y337134D01*
X341915Y337263D01*
X342464Y337630D01*
X342831Y338179D01*
X342960Y338827D01*
X342831Y339475D01*
X342556Y339886D01*
X342552Y339935D01*
Y341091D01*
X342592Y341124D01*
X342592Y341124D01*
X345059D01*
X345215Y340968D01*
Y337000D01*
X345215Y337000D01*
X345313Y336508D01*
X345592Y336092D01*
X347592Y334092D01*
X347592Y334092D01*
X348008Y333813D01*
X348500Y333715D01*
X348500Y333715D01*
X350968D01*
X351592Y333092D01*
X351592Y333092D01*
X352008Y332813D01*
X352500Y332715D01*
X355500D01*
X355500Y332715D01*
X355992Y332813D01*
X356408Y333092D01*
X357532Y334215D01*
X359935D01*
X360352Y333936D01*
X361000Y333807D01*
X361648Y333936D01*
X362197Y334303D01*
X362564Y334852D01*
X362692Y335500D01*
X362564Y336148D01*
X362197Y336697D01*
X361648Y337064D01*
X361000Y337193D01*
X360352Y337064D01*
X359935Y336785D01*
X357000D01*
X357000Y336785D01*
X356508Y336687D01*
X356092Y336408D01*
X354968Y335285D01*
X353032D01*
X352408Y335908D01*
X351992Y336187D01*
X351500Y336285D01*
X351500Y336285D01*
X351183D01*
X350911Y336785D01*
X351019Y337327D01*
X350890Y337975D01*
X350615Y338386D01*
X350611Y338436D01*
Y339795D01*
X351032Y340215D01*
X358500D01*
X358500Y340215D01*
X358500Y340215D01*
X363968D01*
X365496Y338687D01*
X365512Y338667D01*
X365610Y338179D01*
X365976Y337630D01*
X366526Y337263D01*
X367173Y337134D01*
X367821Y337263D01*
X368370Y337630D01*
X368737Y338179D01*
X368866Y338827D01*
X368737Y339475D01*
X368370Y340024D01*
X367821Y340390D01*
X367335Y340487D01*
X367298Y340519D01*
X365408Y342408D01*
X364992Y342687D01*
X364500Y342785D01*
X364500Y342785D01*
X360285D01*
Y345785D01*
X360286Y345803D01*
X363697D01*
Y354803D01*
Y364197D01*
X361534D01*
X361427Y364325D01*
X361224Y364697D01*
X361285Y365000D01*
X361285Y365000D01*
Y366621D01*
X361293Y366669D01*
X361303Y366697D01*
X361331Y366707D01*
X361379Y366715D01*
X365653D01*
X365654Y366715D01*
X366145Y366813D01*
X366562Y367092D01*
X367466Y367996D01*
X367486Y368012D01*
X367974Y368109D01*
X368524Y368476D01*
X368891Y369025D01*
X369019Y369673D01*
X368891Y370321D01*
X368524Y370870D01*
X367974Y371237D01*
X367327Y371366D01*
X366679Y371237D01*
X366130Y370870D01*
X365763Y370321D01*
X365666Y369835D01*
X365634Y369798D01*
X365121Y369285D01*
X359398D01*
X359349Y369785D01*
X359492Y369813D01*
X359908Y370092D01*
X361140Y371323D01*
X361159Y371339D01*
X361648Y371436D01*
X362197Y371803D01*
X362564Y372352D01*
X362692Y373000D01*
X362564Y373648D01*
X362197Y374197D01*
X361648Y374564D01*
X361000Y374693D01*
X360352Y374564D01*
X359803Y374197D01*
X359436Y373648D01*
X359340Y373162D01*
X359308Y373125D01*
X358468Y372285D01*
X354032D01*
X351908Y374408D01*
X351492Y374687D01*
X351000Y374785D01*
X351000Y374785D01*
X348000D01*
X347508Y374687D01*
X347092Y374408D01*
X347092Y374408D01*
X346092Y373408D01*
X345813Y372992D01*
X345715Y372500D01*
X345715Y372500D01*
Y370963D01*
X345670Y370958D01*
X342260D01*
X342235Y370960D01*
X341821Y371237D01*
X341173Y371366D01*
X340526Y371237D01*
X340227Y371639D01*
X340719Y372070D01*
X343151Y373695D01*
X345774Y374989D01*
X348544Y375929D01*
X351412Y376499D01*
X354331Y376691D01*
X357249Y376499D01*
D02*
G37*
D14*
X342000Y351000D02*
X343500Y352500D01*
X355500Y334000D02*
X357000Y335500D01*
X352500Y334000D02*
X355500D01*
X357000Y335500D02*
X361000D01*
X351500Y335000D02*
X352500Y334000D01*
X348500Y335000D02*
X351500D01*
X346500Y337000D02*
X348500Y335000D01*
X346500Y337000D02*
Y341500D01*
X341267Y338827D02*
Y342267D01*
X342000Y343000D01*
Y351000D01*
Y343000D02*
X342592Y342408D01*
X345592D01*
X346500Y341500D01*
X341173Y369673D02*
X347000D01*
Y370846D02*
Y372500D01*
X348500Y365500D02*
X357000D01*
X347000Y367000D02*
Y370846D01*
Y367000D02*
X348500Y365500D01*
X347000Y372500D02*
X348000Y373500D01*
X351000D01*
X360000Y365000D02*
Y368000D01*
X358500Y363500D02*
X360000Y365000D01*
X358500Y359500D02*
Y363500D01*
X350500Y368000D02*
X360000D01*
X349327Y369173D02*
X350500Y368000D01*
X349327Y369173D02*
Y371173D01*
X353500Y371000D02*
X359000D01*
X351000Y373500D02*
X353500Y371000D01*
X360000Y368000D02*
X365654D01*
X359000Y371000D02*
X361000Y373000D01*
X358500Y341500D02*
X364500D01*
X350500D02*
X358500D01*
X359000Y342000D01*
Y350500D01*
X349327Y340327D02*
X350500Y341500D01*
X349327Y337327D02*
Y340327D01*
X365654Y368000D02*
X367327Y369673D01*
X364500Y341500D02*
X367173Y338827D01*
D15*
X352500Y344500D02*
D03*
X343500Y352500D02*
D03*
X335000Y349000D02*
D03*
X354500Y336500D02*
D03*
X348500Y344500D02*
D03*
X350500D02*
D03*
X354500D02*
D03*
X356500D02*
D03*
X341267Y338827D02*
D03*
X365500Y357500D02*
D03*
Y355000D02*
D03*
Y352500D02*
D03*
X357000Y365500D02*
D03*
X355000Y375000D02*
D03*
X349327Y371173D02*
D03*
X344000Y373000D02*
D03*
X374000Y359500D02*
D03*
X373500Y349000D02*
D03*
X335000Y359000D02*
D03*
X343500Y356500D02*
D03*
X359000Y351000D02*
D03*
X358500Y359500D02*
D03*
X367327Y369673D02*
D03*
X349327Y337327D02*
D03*
X367173Y338827D02*
D03*
X361000Y335500D02*
D03*
X341173Y369673D02*
D03*
X361000Y373000D02*
D03*
X349000Y359500D02*
D03*
D16*
X359000D02*
D03*
Y350500D02*
D03*
X350000D02*
D03*
Y359500D02*
D03*
%TF.MD5,9A912340CF72A94B0560EACC496D5411*%
M02*
