G04 Layer_Color=32896*
%FSLAX25Y25*%
%MOIN*%
%TF.FileFunction,Legend,Bot*%
%TF.Part,Single*%
G01*
G75*
%ADD13C,0.01000*%
%ADD38C,0.00394*%
%ADD39C,0.00787*%
%ADD40C,0.00984*%
%ADD41C,0.00591*%
%ADD42R,0.02602X0.03937*%
%ADD43R,0.01181X0.04724*%
G36*
X442872Y410996D02*
X442965Y410986D01*
X443054Y410971D01*
X443142Y410951D01*
X443221Y410927D01*
X443295Y410902D01*
X443364Y410873D01*
X443428Y410848D01*
X443482Y410818D01*
X443531Y410789D01*
X443575Y410764D01*
X443614Y410740D01*
X443639Y410720D01*
X443664Y410705D01*
X443674Y410696D01*
X443679Y410691D01*
X443806Y410568D01*
X443925Y410440D01*
X444023Y410307D01*
X444102Y410184D01*
X444136Y410130D01*
X444166Y410076D01*
X444190Y410026D01*
X444210Y409987D01*
X444230Y409953D01*
X444239Y409928D01*
X444244Y409913D01*
X444249Y409908D01*
X444284Y409815D01*
X444313Y409716D01*
X444367Y409510D01*
X444407Y409293D01*
X444421Y409190D01*
X444436Y409087D01*
X444446Y408993D01*
X444456Y408905D01*
X444461Y408821D01*
X444466Y408752D01*
X444471Y408698D01*
X444476Y408654D01*
Y408629D01*
Y408619D01*
X444480Y408472D01*
Y408329D01*
Y408196D01*
Y408073D01*
X444476Y407955D01*
X444471Y407852D01*
X444466Y407753D01*
X444456Y407665D01*
X444451Y407586D01*
X444441Y407517D01*
X444436Y407463D01*
X444431Y407414D01*
X444426Y407374D01*
X444421Y407350D01*
X444417Y407330D01*
Y407325D01*
X444377Y407153D01*
X444328Y406986D01*
X444279Y406833D01*
X444249Y406760D01*
X444225Y406696D01*
X444200Y406636D01*
X444180Y406582D01*
X444161Y406533D01*
X444141Y406494D01*
X444126Y406464D01*
X444116Y406440D01*
X444106Y406425D01*
Y406420D01*
X444062Y406341D01*
X444013Y406267D01*
X443900Y406130D01*
X443777Y406017D01*
X443718Y405963D01*
X443654Y405913D01*
X443600Y405874D01*
X443546Y405835D01*
X443496Y405805D01*
X443452Y405780D01*
X443418Y405756D01*
X443393Y405741D01*
X443373Y405736D01*
X443368Y405731D01*
X443270Y405687D01*
X443172Y405653D01*
X443078Y405628D01*
X442985Y405613D01*
X442896Y405603D01*
X442729D01*
X442650Y405608D01*
X442581Y405618D01*
X442517Y405628D01*
X442463Y405643D01*
X442414Y405653D01*
X442375Y405662D01*
X442350Y405672D01*
X442330Y405682D01*
X442325D01*
X442232Y405726D01*
X442138Y405775D01*
X442055Y405835D01*
X441981Y405894D01*
X441907Y405958D01*
X441843Y406021D01*
X441784Y406085D01*
X441735Y406149D01*
X441686Y406209D01*
X441646Y406263D01*
X441617Y406317D01*
X441587Y406361D01*
X441568Y406395D01*
X441548Y406425D01*
X441543Y406445D01*
X441538Y406450D01*
X441494Y406558D01*
X441450Y406671D01*
X441381Y406907D01*
X441327Y407148D01*
X441307Y407261D01*
X441287Y407374D01*
X441273Y407478D01*
X441263Y407576D01*
X441253Y407660D01*
X441243Y407734D01*
X441238Y407798D01*
X441233Y407842D01*
Y407871D01*
Y407881D01*
X441223Y408044D01*
Y408201D01*
Y408349D01*
Y408491D01*
X441228Y408629D01*
X441233Y408757D01*
X441243Y408875D01*
X441253Y408983D01*
X441263Y409082D01*
X441273Y409170D01*
X441278Y409249D01*
X441287Y409313D01*
X441297Y409362D01*
X441302Y409402D01*
X441307Y409421D01*
Y409431D01*
X441332Y409554D01*
X441366Y409672D01*
X441400Y409785D01*
X441440Y409894D01*
X441484Y409992D01*
X441528Y410085D01*
X441573Y410169D01*
X441617Y410248D01*
X441661Y410317D01*
X441701Y410376D01*
X441735Y410430D01*
X441770Y410474D01*
X441794Y410509D01*
X441814Y410533D01*
X441829Y410548D01*
X441833Y410553D01*
X441907Y410632D01*
X441986Y410700D01*
X442070Y410759D01*
X442148Y410814D01*
X442227Y410853D01*
X442306Y410892D01*
X442380Y410922D01*
X442453Y410946D01*
X442517Y410961D01*
X442581Y410976D01*
X442635Y410986D01*
X442685Y410996D01*
X442719D01*
X442749Y411001D01*
X442773D01*
X442872Y410996D01*
D02*
G37*
G36*
X447777Y406435D02*
X447846Y406415D01*
X447900Y406395D01*
X447944Y406371D01*
X447984Y406346D01*
X448008Y406331D01*
X448023Y406317D01*
X448028Y406312D01*
X448062Y406267D01*
X448092Y406223D01*
X448111Y406174D01*
X448121Y406125D01*
X448131Y406085D01*
X448136Y406051D01*
Y406031D01*
Y406021D01*
X448131Y405948D01*
X448116Y405879D01*
X448092Y405825D01*
X448067Y405780D01*
X448042Y405741D01*
X448018Y405717D01*
X448003Y405702D01*
X447998Y405697D01*
X447944Y405662D01*
X447895Y405633D01*
X447846Y405613D01*
X447796Y405603D01*
X447762Y405593D01*
X447728Y405589D01*
X447703D01*
X447639Y405593D01*
X447580Y405603D01*
X447526Y405623D01*
X447482Y405643D01*
X447447Y405662D01*
X447418Y405682D01*
X447403Y405692D01*
X447398Y405697D01*
X447359Y405741D01*
X447329Y405795D01*
X447304Y405849D01*
X447290Y405899D01*
X447280Y405948D01*
X447275Y405987D01*
Y406012D01*
Y406021D01*
X447280Y406085D01*
X447290Y406145D01*
X447309Y406199D01*
X447329Y406243D01*
X447349Y406277D01*
X447368Y406307D01*
X447378Y406322D01*
X447383Y406327D01*
X447428Y406366D01*
X447477Y406395D01*
X447531Y406420D01*
X447585Y406435D01*
X447629Y406445D01*
X447669Y406450D01*
X447703D01*
X447777Y406435D01*
D02*
G37*
G36*
X385017Y433652D02*
X383477D01*
X383334Y433657D01*
X383201Y433667D01*
X383073Y433682D01*
X382955Y433707D01*
X382842Y433731D01*
X382739Y433761D01*
X382646Y433790D01*
X382557Y433820D01*
X382483Y433849D01*
X382414Y433884D01*
X382355Y433908D01*
X382306Y433933D01*
X382267Y433958D01*
X382242Y433972D01*
X382222Y433982D01*
X382217Y433987D01*
X382129Y434056D01*
X382055Y434140D01*
X381991Y434228D01*
X381932Y434322D01*
X381883Y434425D01*
X381843Y434528D01*
X381814Y434632D01*
X381785Y434730D01*
X381765Y434828D01*
X381750Y434922D01*
X381740Y435006D01*
X381735Y435079D01*
X381730Y435138D01*
X381725Y435183D01*
Y435212D01*
Y435222D01*
X381730Y435311D01*
X381740Y435399D01*
X381755Y435478D01*
X381770Y435552D01*
X381794Y435620D01*
X381819Y435684D01*
X381843Y435744D01*
X381873Y435798D01*
X381903Y435847D01*
X381927Y435886D01*
X381952Y435921D01*
X381976Y435950D01*
X381991Y435975D01*
X382006Y435990D01*
X382016Y435999D01*
X382021Y436004D01*
X382134Y436103D01*
X382247Y436186D01*
X382355Y436255D01*
X382458Y436304D01*
X382547Y436344D01*
X382586Y436358D01*
X382616Y436368D01*
X382646Y436378D01*
X382665Y436383D01*
X382675Y436388D01*
X382680D01*
X382577Y436432D01*
X382478Y436482D01*
X382385Y436541D01*
X382306Y436600D01*
X382237Y436654D01*
X382183Y436698D01*
X382163Y436718D01*
X382149Y436732D01*
X382144Y436737D01*
X382139Y436742D01*
X382094Y436796D01*
X382050Y436851D01*
X382016Y436914D01*
X381986Y436978D01*
X381942Y437116D01*
X381912Y437249D01*
X381898Y437313D01*
X381893Y437367D01*
X381888Y437421D01*
X381883Y437470D01*
X381878Y437505D01*
Y437534D01*
Y437554D01*
Y437559D01*
X381883Y437662D01*
X381893Y437756D01*
X381912Y437849D01*
X381937Y437938D01*
X381966Y438022D01*
X382001Y438100D01*
X382035Y438174D01*
X382070Y438243D01*
X382104Y438302D01*
X382139Y438351D01*
X382173Y438400D01*
X382203Y438440D01*
X382227Y438469D01*
X382247Y438489D01*
X382257Y438504D01*
X382262Y438509D01*
X382335Y438577D01*
X382419Y438641D01*
X382513Y438695D01*
X382606Y438740D01*
X382700Y438779D01*
X382798Y438814D01*
X382892Y438838D01*
X382985Y438863D01*
X383073Y438878D01*
X383152Y438892D01*
X383226Y438902D01*
X383290Y438907D01*
X383344D01*
X383383Y438912D01*
X385017D01*
Y433652D01*
D02*
G37*
G36*
X379541Y437151D02*
X379654Y437136D01*
X379752Y437116D01*
X379836Y437097D01*
X379910Y437072D01*
X379959Y437052D01*
X379979Y437042D01*
X379994Y437038D01*
X379998Y437033D01*
X380003D01*
X380092Y436978D01*
X380176Y436919D01*
X380244Y436851D01*
X380309Y436787D01*
X380363Y436728D01*
X380397Y436678D01*
X380412Y436659D01*
X380422Y436644D01*
X380432Y436639D01*
Y437097D01*
X381047D01*
Y432516D01*
X380432D01*
Y434115D01*
X380363Y434017D01*
X380289Y433933D01*
X380215Y433859D01*
X380151Y433800D01*
X380092Y433756D01*
X380043Y433721D01*
X380013Y433702D01*
X380008Y433697D01*
X380003D01*
X379905Y433652D01*
X379807Y433618D01*
X379708Y433594D01*
X379620Y433579D01*
X379536Y433569D01*
X379502Y433564D01*
X379477Y433559D01*
X379418D01*
X379305Y433564D01*
X379197Y433579D01*
X379093Y433603D01*
X378995Y433633D01*
X378901Y433667D01*
X378818Y433707D01*
X378739Y433746D01*
X378665Y433790D01*
X378601Y433835D01*
X378542Y433874D01*
X378493Y433913D01*
X378454Y433948D01*
X378419Y433977D01*
X378395Y434002D01*
X378380Y434017D01*
X378375Y434022D01*
X378296Y434115D01*
X378232Y434213D01*
X378173Y434317D01*
X378124Y434430D01*
X378085Y434538D01*
X378045Y434651D01*
X378021Y434764D01*
X377996Y434873D01*
X377976Y434976D01*
X377967Y435070D01*
X377957Y435153D01*
X377947Y435227D01*
Y435291D01*
X377942Y435335D01*
Y435365D01*
Y435374D01*
X377947Y435537D01*
X377962Y435689D01*
X377981Y435827D01*
X378011Y435960D01*
X378040Y436078D01*
X378080Y436186D01*
X378119Y436285D01*
X378158Y436373D01*
X378198Y436452D01*
X378237Y436521D01*
X378276Y436580D01*
X378306Y436624D01*
X378336Y436664D01*
X378355Y436688D01*
X378370Y436703D01*
X378375Y436708D01*
X378459Y436787D01*
X378542Y436855D01*
X378631Y436914D01*
X378719Y436969D01*
X378808Y437008D01*
X378891Y437047D01*
X378975Y437077D01*
X379059Y437101D01*
X379133Y437116D01*
X379202Y437131D01*
X379260Y437141D01*
X379315Y437151D01*
X379359D01*
X379388Y437156D01*
X379418D01*
X379541Y437151D01*
D02*
G37*
G36*
X420495Y412105D02*
X422000D01*
Y411613D01*
X420495D01*
Y410107D01*
X419973D01*
Y411613D01*
X418463D01*
Y412105D01*
X419973D01*
Y413610D01*
X420495D01*
Y412105D01*
D02*
G37*
G36*
X450748Y410838D02*
X450852Y410715D01*
X450955Y410592D01*
X451058Y410479D01*
X451167Y410371D01*
X451270Y410272D01*
X451373Y410179D01*
X451472Y410090D01*
X451565Y410012D01*
X451649Y409943D01*
X451728Y409884D01*
X451792Y409834D01*
X451846Y409795D01*
X451885Y409766D01*
X451910Y409746D01*
X451920Y409741D01*
Y409156D01*
X451806Y409224D01*
X451698Y409293D01*
X451595Y409362D01*
X451501Y409431D01*
X451413Y409500D01*
X451329Y409564D01*
X451250Y409623D01*
X451182Y409682D01*
X451118Y409731D01*
X451063Y409780D01*
X451014Y409825D01*
X450975Y409859D01*
X450940Y409889D01*
X450921Y409908D01*
X450906Y409923D01*
X450901Y409928D01*
Y405682D01*
X450286D01*
Y410971D01*
X450655D01*
X450748Y410838D01*
D02*
G37*
G36*
X454960Y405589D02*
X454345D01*
X452810Y410912D01*
X453548D01*
X454626Y406882D01*
X454684D01*
X455762Y410912D01*
X456500D01*
X454960Y405589D01*
D02*
G37*
G36*
X399231Y437151D02*
X399364Y437136D01*
X399482Y437111D01*
X399600Y437082D01*
X399708Y437047D01*
X399806Y437003D01*
X399900Y436964D01*
X399984Y436919D01*
X400057Y436870D01*
X400121Y436831D01*
X400180Y436792D01*
X400225Y436752D01*
X400264Y436723D01*
X400293Y436698D01*
X400308Y436683D01*
X400313Y436678D01*
X400397Y436585D01*
X400471Y436486D01*
X400535Y436383D01*
X400589Y436275D01*
X400633Y436167D01*
X400672Y436058D01*
X400707Y435950D01*
X400731Y435852D01*
X400751Y435753D01*
X400766Y435665D01*
X400776Y435581D01*
X400781Y435512D01*
X400785Y435453D01*
X400790Y435409D01*
Y435384D01*
Y435374D01*
X400785Y435222D01*
X400771Y435079D01*
X400746Y434946D01*
X400717Y434819D01*
X400677Y434700D01*
X400638Y434597D01*
X400599Y434499D01*
X400549Y434410D01*
X400505Y434332D01*
X400466Y434263D01*
X400421Y434204D01*
X400387Y434154D01*
X400357Y434115D01*
X400333Y434090D01*
X400318Y434071D01*
X400313Y434066D01*
X400220Y433982D01*
X400126Y433908D01*
X400023Y433844D01*
X399920Y433790D01*
X399821Y433746D01*
X399718Y433707D01*
X399620Y433672D01*
X399526Y433648D01*
X399437Y433628D01*
X399359Y433613D01*
X399285Y433603D01*
X399221Y433598D01*
X399167Y433594D01*
X399132Y433589D01*
X399098D01*
X398990Y433594D01*
X398886Y433603D01*
X398788Y433618D01*
X398694Y433643D01*
X398601Y433667D01*
X398517Y433697D01*
X398444Y433726D01*
X398370Y433761D01*
X398306Y433790D01*
X398252Y433820D01*
X398202Y433849D01*
X398158Y433874D01*
X398129Y433898D01*
X398104Y433913D01*
X398089Y433923D01*
X398084Y433928D01*
X398006Y433992D01*
X397937Y434066D01*
X397878Y434135D01*
X397824Y434208D01*
X397779Y434287D01*
X397740Y434361D01*
X397706Y434430D01*
X397676Y434499D01*
X397652Y434568D01*
X397632Y434627D01*
X397617Y434681D01*
X397607Y434725D01*
X397602Y434764D01*
X397597Y434794D01*
X397592Y434814D01*
Y434819D01*
X398267D01*
X398296Y434700D01*
X398335Y434597D01*
X398385Y434514D01*
X398429Y434440D01*
X398473Y434386D01*
X398513Y434346D01*
X398537Y434322D01*
X398542Y434312D01*
X398547D01*
X398631Y434258D01*
X398724Y434213D01*
X398813Y434184D01*
X398901Y434164D01*
X398980Y434154D01*
X399014Y434149D01*
X399044D01*
X399063Y434144D01*
X399098D01*
X399177Y434149D01*
X399255Y434154D01*
X399393Y434189D01*
X399516Y434233D01*
X399570Y434258D01*
X399620Y434282D01*
X399669Y434307D01*
X399708Y434332D01*
X399743Y434356D01*
X399767Y434376D01*
X399792Y434395D01*
X399806Y434410D01*
X399816Y434415D01*
X399821Y434420D01*
X399870Y434474D01*
X399915Y434538D01*
X399954Y434612D01*
X399989Y434686D01*
X400018Y434764D01*
X400043Y434843D01*
X400077Y435001D01*
X400087Y435074D01*
X400097Y435143D01*
X400102Y435207D01*
X400107Y435266D01*
X400111Y435311D01*
Y435345D01*
Y435365D01*
Y435374D01*
X397622D01*
X397627Y435547D01*
X397642Y435709D01*
X397661Y435857D01*
X397686Y435990D01*
X397720Y436112D01*
X397755Y436226D01*
X397794Y436329D01*
X397829Y436418D01*
X397868Y436496D01*
X397907Y436560D01*
X397942Y436619D01*
X397976Y436664D01*
X398001Y436698D01*
X398021Y436723D01*
X398035Y436737D01*
X398040Y436742D01*
X398119Y436816D01*
X398202Y436880D01*
X398291Y436934D01*
X398380Y436983D01*
X398468Y437023D01*
X398557Y437057D01*
X398640Y437082D01*
X398724Y437106D01*
X398803Y437121D01*
X398872Y437136D01*
X398936Y437141D01*
X398990Y437151D01*
X399034D01*
X399068Y437156D01*
X399098D01*
X399231Y437151D01*
D02*
G37*
G36*
X403772Y437097D02*
X404820D01*
Y436604D01*
X403772D01*
Y434760D01*
X403767Y434656D01*
X403757Y434563D01*
X403742Y434474D01*
X403718Y434390D01*
X403693Y434312D01*
X403664Y434243D01*
X403634Y434179D01*
X403605Y434120D01*
X403575Y434066D01*
X403541Y434022D01*
X403516Y433982D01*
X403491Y433953D01*
X403467Y433928D01*
X403452Y433908D01*
X403442Y433898D01*
X403437Y433894D01*
X403373Y433840D01*
X403300Y433795D01*
X403231Y433751D01*
X403152Y433716D01*
X403078Y433687D01*
X403004Y433662D01*
X402862Y433628D01*
X402798Y433613D01*
X402734Y433603D01*
X402680Y433598D01*
X402635Y433594D01*
X402596Y433589D01*
X402419D01*
X402316Y433594D01*
X402222Y433603D01*
X402148Y433613D01*
X402084Y433618D01*
X402040Y433628D01*
X402015Y433633D01*
X402006D01*
X401932Y433652D01*
X401863Y433672D01*
X401804Y433692D01*
X401755Y433707D01*
X401711Y433721D01*
X401676Y433736D01*
X401656Y433741D01*
X401651Y433746D01*
Y434361D01*
X401711Y434327D01*
X401774Y434297D01*
X401833Y434272D01*
X401893Y434248D01*
X401942Y434228D01*
X401986Y434213D01*
X402011Y434208D01*
X402015Y434204D01*
X402020D01*
X402104Y434184D01*
X402198Y434169D01*
X402291Y434159D01*
X402375Y434154D01*
X402453Y434149D01*
X402488Y434144D01*
X402631D01*
X402690Y434149D01*
X402788Y434169D01*
X402867Y434199D01*
X402931Y434228D01*
X402975Y434258D01*
X403009Y434287D01*
X403029Y434307D01*
X403034Y434312D01*
X403073Y434381D01*
X403103Y434450D01*
X403127Y434518D01*
X403142Y434587D01*
X403152Y434641D01*
X403157Y434691D01*
Y434720D01*
Y434725D01*
Y434730D01*
Y436604D01*
X401897D01*
Y437097D01*
X403157D01*
Y438297D01*
X403772D01*
Y437097D01*
D02*
G37*
G36*
X407708D02*
X408756D01*
Y436604D01*
X407708D01*
Y434760D01*
X407703Y434656D01*
X407693Y434563D01*
X407678Y434474D01*
X407654Y434390D01*
X407629Y434312D01*
X407600Y434243D01*
X407570Y434179D01*
X407541Y434120D01*
X407511Y434066D01*
X407477Y434022D01*
X407452Y433982D01*
X407428Y433953D01*
X407403Y433928D01*
X407388Y433908D01*
X407378Y433898D01*
X407373Y433894D01*
X407309Y433840D01*
X407236Y433795D01*
X407167Y433751D01*
X407088Y433716D01*
X407014Y433687D01*
X406940Y433662D01*
X406798Y433628D01*
X406734Y433613D01*
X406670Y433603D01*
X406616Y433598D01*
X406571Y433594D01*
X406532Y433589D01*
X406355D01*
X406252Y433594D01*
X406158Y433603D01*
X406084Y433613D01*
X406020Y433618D01*
X405976Y433628D01*
X405951Y433633D01*
X405942D01*
X405868Y433652D01*
X405799Y433672D01*
X405740Y433692D01*
X405691Y433707D01*
X405647Y433721D01*
X405612Y433736D01*
X405592Y433741D01*
X405587Y433746D01*
Y434361D01*
X405647Y434327D01*
X405710Y434297D01*
X405769Y434272D01*
X405829Y434248D01*
X405878Y434228D01*
X405922Y434213D01*
X405947Y434208D01*
X405951Y434204D01*
X405956D01*
X406040Y434184D01*
X406134Y434169D01*
X406227Y434159D01*
X406311Y434154D01*
X406389Y434149D01*
X406424Y434144D01*
X406566D01*
X406626Y434149D01*
X406724Y434169D01*
X406803Y434199D01*
X406867Y434228D01*
X406911Y434258D01*
X406945Y434287D01*
X406965Y434307D01*
X406970Y434312D01*
X407009Y434381D01*
X407039Y434450D01*
X407063Y434518D01*
X407078Y434587D01*
X407088Y434641D01*
X407093Y434691D01*
Y434720D01*
Y434725D01*
Y434730D01*
Y436604D01*
X405833D01*
Y437097D01*
X407093D01*
Y438297D01*
X407708D01*
Y437097D01*
D02*
G37*
G36*
X391624Y433530D02*
X391659Y433436D01*
X391693Y433357D01*
X391723Y433298D01*
X391752Y433254D01*
X391777Y433220D01*
X391797Y433195D01*
X391807Y433185D01*
X391811Y433180D01*
X391851Y433156D01*
X391905Y433136D01*
X391959Y433121D01*
X392018Y433111D01*
X392067Y433106D01*
X392112Y433102D01*
X392151D01*
X392220Y433106D01*
X392289Y433121D01*
X392318Y433126D01*
X392343Y433131D01*
X392358Y433136D01*
X392362D01*
X392451Y433160D01*
X392495Y433175D01*
X392530Y433190D01*
X392564Y433205D01*
X392589Y433215D01*
X392604Y433224D01*
X392608D01*
Y432610D01*
X392515Y432575D01*
X392471Y432560D01*
X392431Y432550D01*
X392397Y432546D01*
X392372Y432541D01*
X392353Y432536D01*
X392348D01*
X392244Y432526D01*
X392195Y432521D01*
X392151D01*
X392112Y432516D01*
X392057D01*
X391989Y432521D01*
X391925Y432526D01*
X391807Y432550D01*
X391698Y432585D01*
X391610Y432624D01*
X391541Y432664D01*
X391511Y432683D01*
X391487Y432698D01*
X391467Y432713D01*
X391452Y432723D01*
X391447Y432732D01*
X391442D01*
X391398Y432777D01*
X391354Y432821D01*
X391280Y432924D01*
X391216Y433033D01*
X391167Y433136D01*
X391128Y433229D01*
X391108Y433274D01*
X391098Y433308D01*
X391088Y433338D01*
X391078Y433357D01*
X391073Y433372D01*
Y433377D01*
X389656Y437097D01*
X390335D01*
X391290Y434390D01*
X391319D01*
X392303Y437097D01*
X392977D01*
X391624Y433530D01*
D02*
G37*
G36*
X394286Y437146D02*
X394473Y437121D01*
X394557Y437101D01*
X394636Y437082D01*
X394709Y437062D01*
X394778Y437042D01*
X394842Y437018D01*
X394896Y436998D01*
X394946Y436978D01*
X394985Y436959D01*
X395014Y436944D01*
X395039Y436934D01*
X395054Y436929D01*
X395059Y436924D01*
X395132Y436880D01*
X395206Y436831D01*
X395339Y436718D01*
X395457Y436600D01*
X395556Y436482D01*
X395600Y436427D01*
X395639Y436373D01*
X395669Y436329D01*
X395698Y436285D01*
X395718Y436255D01*
X395733Y436226D01*
X395743Y436211D01*
X395747Y436206D01*
Y437097D01*
X396362D01*
Y433652D01*
X395747D01*
Y435404D01*
X395693Y435522D01*
X395639Y435630D01*
X395585Y435729D01*
X395526Y435817D01*
X395467Y435901D01*
X395413Y435975D01*
X395359Y436039D01*
X395305Y436098D01*
X395260Y436152D01*
X395216Y436191D01*
X395172Y436231D01*
X395137Y436260D01*
X395113Y436280D01*
X395093Y436295D01*
X395078Y436304D01*
X395073Y436309D01*
X394995Y436354D01*
X394916Y436393D01*
X394832Y436422D01*
X394749Y436447D01*
X394665Y436467D01*
X394581Y436482D01*
X394429Y436496D01*
X394232D01*
X394183Y436491D01*
X394139Y436486D01*
X394109D01*
X394089Y436482D01*
X394085D01*
Y437156D01*
X394188D01*
X394286Y437146D01*
D02*
G37*
G36*
X411083Y437151D02*
X411191Y437141D01*
X411290Y437131D01*
X411383Y437111D01*
X411472Y437087D01*
X411555Y437062D01*
X411629Y437038D01*
X411698Y437013D01*
X411762Y436983D01*
X411816Y436959D01*
X411860Y436934D01*
X411900Y436910D01*
X411929Y436890D01*
X411949Y436880D01*
X411964Y436870D01*
X411969Y436865D01*
X412038Y436811D01*
X412097Y436747D01*
X412151Y436683D01*
X412200Y436619D01*
X412239Y436555D01*
X412279Y436491D01*
X412308Y436427D01*
X412333Y436363D01*
X412357Y436309D01*
X412372Y436255D01*
X412387Y436206D01*
X412397Y436167D01*
X412402Y436132D01*
X412407Y436103D01*
X412411Y436088D01*
Y436083D01*
X411737D01*
X411708Y436172D01*
X411673Y436245D01*
X411634Y436314D01*
X411600Y436368D01*
X411560Y436413D01*
X411531Y436442D01*
X411511Y436462D01*
X411506Y436467D01*
X411437Y436511D01*
X411354Y436546D01*
X411265Y436570D01*
X411177Y436590D01*
X411093Y436600D01*
X411059D01*
X411029Y436604D01*
X410886D01*
X410813Y436595D01*
X410744Y436590D01*
X410680Y436575D01*
X410626Y436560D01*
X410576Y436546D01*
X410532Y436531D01*
X410498Y436511D01*
X410463Y436491D01*
X410439Y436477D01*
X410399Y436447D01*
X410375Y436427D01*
X410370Y436418D01*
X410325Y436349D01*
X410291Y436285D01*
X410266Y436221D01*
X410247Y436167D01*
X410237Y436117D01*
X410232Y436083D01*
Y436058D01*
Y436049D01*
X410237Y436019D01*
X410247Y435994D01*
X410261Y435970D01*
X410281Y435945D01*
X410335Y435906D01*
X410394Y435866D01*
X410453Y435842D01*
X410507Y435817D01*
X410527Y435812D01*
X410542Y435808D01*
X410552Y435803D01*
X410557D01*
X410680Y435773D01*
X410808Y435744D01*
X410935Y435714D01*
X411049Y435694D01*
X411103Y435684D01*
X411152Y435675D01*
X411196Y435670D01*
X411231Y435660D01*
X411265Y435655D01*
X411285D01*
X411300Y435650D01*
X411305D01*
X411423Y435630D01*
X411531Y435606D01*
X411634Y435581D01*
X411728Y435552D01*
X411816Y435522D01*
X411895Y435493D01*
X411964Y435463D01*
X412028Y435429D01*
X412082Y435399D01*
X412131Y435374D01*
X412170Y435350D01*
X412205Y435325D01*
X412229Y435306D01*
X412249Y435291D01*
X412259Y435286D01*
X412264Y435281D01*
X412318Y435227D01*
X412362Y435173D01*
X412407Y435109D01*
X412441Y435050D01*
X412470Y434986D01*
X412495Y434927D01*
X412530Y434809D01*
X412544Y434755D01*
X412554Y434705D01*
X412559Y434661D01*
X412564Y434622D01*
X412569Y434587D01*
Y434563D01*
Y434548D01*
Y434543D01*
X412564Y434459D01*
X412554Y434381D01*
X412539Y434307D01*
X412515Y434238D01*
X412490Y434174D01*
X412461Y434115D01*
X412431Y434061D01*
X412397Y434017D01*
X412367Y433972D01*
X412338Y433938D01*
X412308Y433903D01*
X412284Y433879D01*
X412259Y433859D01*
X412244Y433844D01*
X412234Y433840D01*
X412229Y433835D01*
X412165Y433790D01*
X412097Y433756D01*
X412028Y433721D01*
X411954Y433692D01*
X411816Y433648D01*
X411688Y433618D01*
X411624Y433608D01*
X411570Y433603D01*
X411521Y433598D01*
X411482Y433594D01*
X411447Y433589D01*
X411398D01*
X411275Y433594D01*
X411152Y433608D01*
X411044Y433628D01*
X410950Y433652D01*
X410867Y433672D01*
X410832Y433682D01*
X410808Y433692D01*
X410783Y433702D01*
X410768Y433707D01*
X410758Y433712D01*
X410753D01*
X410640Y433761D01*
X410542Y433820D01*
X410453Y433884D01*
X410375Y433943D01*
X410316Y433997D01*
X410271Y434041D01*
X410242Y434071D01*
X410232Y434076D01*
Y434026D01*
X410227Y433977D01*
X410222Y433933D01*
X410217Y433894D01*
X410212Y433864D01*
X410207Y433840D01*
X410202Y433825D01*
Y433820D01*
X410173Y433746D01*
X410158Y433721D01*
X410143Y433697D01*
X410129Y433677D01*
X410119Y433662D01*
X410109Y433657D01*
Y433652D01*
X409371D01*
X409415Y433712D01*
X409450Y433766D01*
X409484Y433815D01*
X409509Y433864D01*
X409533Y433903D01*
X409548Y433933D01*
X409553Y433953D01*
X409558Y433958D01*
X409578Y434017D01*
X409592Y434076D01*
X409602Y434135D01*
X409607Y434189D01*
X409612Y434233D01*
X409617Y434268D01*
Y434287D01*
Y434297D01*
Y435990D01*
X409622Y436088D01*
X409632Y436186D01*
X409646Y436275D01*
X409671Y436354D01*
X409696Y436432D01*
X409725Y436501D01*
X409755Y436565D01*
X409784Y436624D01*
X409819Y436673D01*
X409848Y436723D01*
X409878Y436757D01*
X409902Y436792D01*
X409927Y436816D01*
X409942Y436831D01*
X409951Y436841D01*
X409956Y436846D01*
X410020Y436900D01*
X410094Y436949D01*
X410173Y436988D01*
X410256Y437023D01*
X410340Y437057D01*
X410424Y437082D01*
X410586Y437116D01*
X410665Y437131D01*
X410739Y437141D01*
X410803Y437146D01*
X410857Y437151D01*
X410906Y437156D01*
X410970D01*
X411083Y437151D01*
D02*
G37*
G36*
X416505Y433652D02*
X414965D01*
X414822Y433657D01*
X414689Y433667D01*
X414562Y433682D01*
X414443Y433707D01*
X414330Y433731D01*
X414227Y433761D01*
X414134Y433790D01*
X414045Y433820D01*
X413971Y433849D01*
X413902Y433884D01*
X413843Y433908D01*
X413794Y433933D01*
X413755Y433958D01*
X413730Y433972D01*
X413710Y433982D01*
X413705Y433987D01*
X413617Y434056D01*
X413543Y434140D01*
X413479Y434228D01*
X413420Y434322D01*
X413371Y434425D01*
X413332Y434528D01*
X413302Y434632D01*
X413272Y434730D01*
X413253Y434828D01*
X413238Y434922D01*
X413228Y435006D01*
X413223Y435079D01*
X413218Y435138D01*
X413213Y435183D01*
Y435212D01*
Y435222D01*
X413218Y435311D01*
X413228Y435399D01*
X413243Y435478D01*
X413258Y435552D01*
X413282Y435620D01*
X413307Y435684D01*
X413332Y435744D01*
X413361Y435798D01*
X413391Y435847D01*
X413415Y435886D01*
X413440Y435921D01*
X413464Y435950D01*
X413479Y435975D01*
X413494Y435990D01*
X413504Y435999D01*
X413509Y436004D01*
X413622Y436103D01*
X413735Y436186D01*
X413843Y436255D01*
X413946Y436304D01*
X414035Y436344D01*
X414074Y436358D01*
X414104Y436368D01*
X414134Y436378D01*
X414153Y436383D01*
X414163Y436388D01*
X414168D01*
X414065Y436432D01*
X413966Y436482D01*
X413873Y436541D01*
X413794Y436600D01*
X413725Y436654D01*
X413671Y436698D01*
X413651Y436718D01*
X413637Y436732D01*
X413632Y436737D01*
X413627Y436742D01*
X413582Y436796D01*
X413538Y436851D01*
X413504Y436914D01*
X413474Y436978D01*
X413430Y437116D01*
X413400Y437249D01*
X413386Y437313D01*
X413381Y437367D01*
X413376Y437421D01*
X413371Y437470D01*
X413366Y437505D01*
Y437534D01*
Y437554D01*
Y437559D01*
X413371Y437662D01*
X413381Y437756D01*
X413400Y437849D01*
X413425Y437938D01*
X413454Y438022D01*
X413489Y438100D01*
X413523Y438174D01*
X413558Y438243D01*
X413592Y438302D01*
X413627Y438351D01*
X413661Y438400D01*
X413691Y438440D01*
X413715Y438469D01*
X413735Y438489D01*
X413745Y438504D01*
X413750Y438509D01*
X413824Y438577D01*
X413907Y438641D01*
X414001Y438695D01*
X414094Y438740D01*
X414188Y438779D01*
X414286Y438814D01*
X414380Y438838D01*
X414473Y438863D01*
X414562Y438878D01*
X414640Y438892D01*
X414714Y438902D01*
X414778Y438907D01*
X414832D01*
X414872Y438912D01*
X416505D01*
Y433652D01*
D02*
G37*
G36*
X408745Y409089D02*
X408131D01*
X406596Y414412D01*
X407334D01*
X408411Y410383D01*
X408470D01*
X409548Y414412D01*
X410286D01*
X408745Y409089D01*
D02*
G37*
G36*
X428595Y391574D02*
X433043D01*
Y390905D01*
X428000D01*
Y394054D01*
X428595D01*
Y391574D01*
D02*
G37*
G36*
X433043Y389173D02*
X429491D01*
X429417Y389168D01*
X429348D01*
X429289Y389163D01*
X429230Y389158D01*
X429181Y389149D01*
X429132Y389144D01*
X429092Y389139D01*
X429053Y389129D01*
X429023Y389124D01*
X428994Y389119D01*
X428974Y389109D01*
X428945Y389104D01*
X428935Y389099D01*
X428866Y389070D01*
X428802Y389031D01*
X428753Y388991D01*
X428709Y388947D01*
X428669Y388908D01*
X428645Y388878D01*
X428630Y388858D01*
X428625Y388848D01*
X428585Y388780D01*
X428561Y388706D01*
X428541Y388632D01*
X428526Y388563D01*
X428517Y388504D01*
X428512Y388460D01*
Y388440D01*
Y388425D01*
Y388420D01*
Y388416D01*
X428517Y388351D01*
X428521Y388297D01*
X428546Y388189D01*
X428581Y388096D01*
X428620Y388022D01*
X428654Y387958D01*
X428689Y387914D01*
X428713Y387889D01*
X428723Y387879D01*
X428767Y387845D01*
X428817Y387815D01*
X428876Y387791D01*
X428935Y387766D01*
X429068Y387727D01*
X429196Y387702D01*
X429259Y387692D01*
X429319Y387682D01*
X429373Y387678D01*
X429417Y387673D01*
X429456D01*
X429486Y387668D01*
X429510D01*
X429427Y387067D01*
X429289D01*
X429161Y387077D01*
X429043Y387092D01*
X428935Y387112D01*
X428831Y387136D01*
X428738Y387166D01*
X428654Y387195D01*
X428581Y387230D01*
X428512Y387259D01*
X428453Y387294D01*
X428408Y387323D01*
X428364Y387348D01*
X428335Y387368D01*
X428315Y387387D01*
X428300Y387397D01*
X428295Y387402D01*
X428226Y387471D01*
X428172Y387550D01*
X428118Y387628D01*
X428079Y387712D01*
X428039Y387796D01*
X428010Y387879D01*
X427985Y387963D01*
X427966Y388047D01*
X427946Y388120D01*
X427936Y388194D01*
X427926Y388258D01*
X427921Y388312D01*
Y388356D01*
X427916Y388391D01*
Y388411D01*
Y388420D01*
X427926Y388583D01*
X427946Y388730D01*
X427975Y388863D01*
X427990Y388922D01*
X428010Y388976D01*
X428025Y389026D01*
X428039Y389070D01*
X428054Y389109D01*
X428069Y389139D01*
X428084Y389163D01*
X428089Y389183D01*
X428098Y389193D01*
Y389198D01*
X428172Y389316D01*
X428256Y389414D01*
X428344Y389498D01*
X428428Y389567D01*
X428507Y389621D01*
X428541Y389641D01*
X428571Y389655D01*
X428590Y389670D01*
X428610Y389680D01*
X428620Y389685D01*
X428625D01*
X428694Y389714D01*
X428767Y389739D01*
X428925Y389778D01*
X429087Y389803D01*
X429245Y389823D01*
X429319Y389827D01*
X429387Y389832D01*
X429447Y389837D01*
X429501Y389842D01*
X433043D01*
Y389173D01*
D02*
G37*
G36*
X429766Y385916D02*
X429653Y385887D01*
X429545Y385852D01*
X429442Y385818D01*
X429348Y385778D01*
X429264Y385734D01*
X429186Y385690D01*
X429112Y385646D01*
X429048Y385601D01*
X428994Y385562D01*
X428945Y385523D01*
X428900Y385483D01*
X428866Y385454D01*
X428841Y385429D01*
X428822Y385404D01*
X428812Y385395D01*
X428807Y385390D01*
X428753Y385316D01*
X428704Y385237D01*
X428659Y385158D01*
X428620Y385080D01*
X428590Y384996D01*
X428566Y384917D01*
X428526Y384770D01*
X428512Y384701D01*
X428502Y384637D01*
X428497Y384583D01*
X428492Y384534D01*
X428487Y384494D01*
Y384465D01*
Y384445D01*
Y384440D01*
X428492Y384356D01*
X428497Y384273D01*
X428526Y384110D01*
X428561Y383968D01*
X428585Y383899D01*
X428605Y383840D01*
X428630Y383781D01*
X428649Y383732D01*
X428669Y383687D01*
X428689Y383653D01*
X428704Y383623D01*
X428713Y383604D01*
X428718Y383589D01*
X428723Y383584D01*
X428772Y383515D01*
X428822Y383446D01*
X428935Y383328D01*
X429053Y383230D01*
X429171Y383146D01*
X429274Y383082D01*
X429319Y383058D01*
X429358Y383038D01*
X429392Y383023D01*
X429417Y383013D01*
X429432Y383003D01*
X429437D01*
X429624Y382940D01*
X429815Y382895D01*
X430007Y382861D01*
X430096Y382851D01*
X430180Y382841D01*
X430263Y382831D01*
X430332Y382826D01*
X430401Y382821D01*
X430455D01*
X430499Y382817D01*
X430563D01*
X430745Y382821D01*
X430923Y382841D01*
X431085Y382866D01*
X431164Y382880D01*
X431232Y382895D01*
X431296Y382910D01*
X431355Y382925D01*
X431405Y382940D01*
X431449Y382949D01*
X431483Y382959D01*
X431508Y382969D01*
X431523Y382974D01*
X431528D01*
X431616Y383008D01*
X431695Y383043D01*
X431774Y383082D01*
X431843Y383126D01*
X431911Y383171D01*
X431975Y383215D01*
X432029Y383259D01*
X432084Y383309D01*
X432128Y383348D01*
X432167Y383387D01*
X432202Y383427D01*
X432231Y383456D01*
X432251Y383486D01*
X432266Y383505D01*
X432275Y383515D01*
X432280Y383520D01*
X432330Y383594D01*
X432374Y383673D01*
X432408Y383756D01*
X432443Y383835D01*
X432472Y383919D01*
X432492Y383997D01*
X432526Y384155D01*
X432536Y384224D01*
X432546Y384288D01*
X432551Y384347D01*
X432556Y384396D01*
X432561Y384440D01*
Y384470D01*
Y384489D01*
Y384494D01*
X432556Y384588D01*
X432551Y384676D01*
X432521Y384839D01*
X432502Y384912D01*
X432482Y384981D01*
X432457Y385045D01*
X432433Y385099D01*
X432408Y385154D01*
X432384Y385198D01*
X432364Y385237D01*
X432344Y385272D01*
X432330Y385296D01*
X432315Y385316D01*
X432310Y385326D01*
X432305Y385331D01*
X432256Y385390D01*
X432197Y385449D01*
X432074Y385552D01*
X431941Y385641D01*
X431813Y385714D01*
X431749Y385744D01*
X431695Y385769D01*
X431641Y385793D01*
X431597Y385808D01*
X431562Y385823D01*
X431533Y385833D01*
X431513Y385842D01*
X431508D01*
X431661Y386502D01*
X431788Y386457D01*
X431907Y386413D01*
X432020Y386359D01*
X432123Y386300D01*
X432221Y386241D01*
X432310Y386182D01*
X432389Y386123D01*
X432462Y386064D01*
X432526Y386005D01*
X432585Y385951D01*
X432635Y385906D01*
X432674Y385862D01*
X432703Y385828D01*
X432723Y385803D01*
X432738Y385783D01*
X432743Y385778D01*
X432812Y385680D01*
X432871Y385577D01*
X432925Y385468D01*
X432969Y385360D01*
X433004Y385257D01*
X433038Y385149D01*
X433063Y385045D01*
X433082Y384952D01*
X433097Y384858D01*
X433112Y384775D01*
X433122Y384701D01*
X433127Y384637D01*
X433132Y384583D01*
Y384543D01*
Y384519D01*
Y384509D01*
X433127Y384386D01*
X433117Y384263D01*
X433102Y384150D01*
X433082Y384037D01*
X433063Y383928D01*
X433033Y383825D01*
X433009Y383732D01*
X432979Y383648D01*
X432949Y383564D01*
X432925Y383495D01*
X432895Y383432D01*
X432876Y383382D01*
X432856Y383338D01*
X432841Y383309D01*
X432831Y383289D01*
X432827Y383284D01*
X432767Y383181D01*
X432699Y383087D01*
X432630Y382999D01*
X432556Y382915D01*
X432482Y382841D01*
X432408Y382767D01*
X432335Y382703D01*
X432266Y382649D01*
X432197Y382595D01*
X432133Y382551D01*
X432079Y382516D01*
X432029Y382482D01*
X431990Y382457D01*
X431956Y382443D01*
X431936Y382433D01*
X431931Y382428D01*
X431818Y382374D01*
X431705Y382329D01*
X431587Y382290D01*
X431469Y382256D01*
X431355Y382226D01*
X431237Y382202D01*
X431129Y382182D01*
X431026Y382167D01*
X430927Y382152D01*
X430839Y382142D01*
X430760Y382138D01*
X430691Y382133D01*
X430637Y382128D01*
X430558D01*
X430426Y382133D01*
X430293Y382138D01*
X430165Y382152D01*
X430042Y382167D01*
X429924Y382192D01*
X429811Y382211D01*
X429707Y382236D01*
X429609Y382261D01*
X429520Y382285D01*
X429442Y382310D01*
X429373Y382334D01*
X429314Y382354D01*
X429269Y382369D01*
X429235Y382384D01*
X429215Y382388D01*
X429205Y382393D01*
X429092Y382448D01*
X428984Y382502D01*
X428886Y382566D01*
X428792Y382625D01*
X428704Y382689D01*
X428625Y382753D01*
X428556Y382817D01*
X428492Y382880D01*
X428433Y382940D01*
X428384Y382994D01*
X428339Y383038D01*
X428310Y383082D01*
X428280Y383117D01*
X428261Y383146D01*
X428251Y383161D01*
X428246Y383166D01*
X428187Y383264D01*
X428138Y383368D01*
X428093Y383481D01*
X428054Y383589D01*
X428025Y383702D01*
X427995Y383810D01*
X427975Y383919D01*
X427956Y384022D01*
X427946Y384120D01*
X427936Y384209D01*
X427926Y384288D01*
X427921Y384356D01*
X427916Y384416D01*
Y384460D01*
Y384484D01*
Y384494D01*
X427921Y384637D01*
X427936Y384780D01*
X427956Y384908D01*
X427985Y385035D01*
X428015Y385154D01*
X428054Y385262D01*
X428089Y385365D01*
X428133Y385459D01*
X428172Y385537D01*
X428212Y385611D01*
X428246Y385675D01*
X428275Y385729D01*
X428305Y385773D01*
X428325Y385803D01*
X428339Y385823D01*
X428344Y385828D01*
X428428Y385926D01*
X428521Y386019D01*
X428620Y386098D01*
X428723Y386177D01*
X428827Y386246D01*
X428930Y386310D01*
X429033Y386364D01*
X429137Y386413D01*
X429230Y386452D01*
X429319Y386492D01*
X429397Y386521D01*
X429466Y386546D01*
X429520Y386561D01*
X429565Y386575D01*
X429589Y386585D01*
X429599D01*
X429766Y385916D01*
D02*
G37*
G36*
Y398442D02*
X429653Y398413D01*
X429545Y398378D01*
X429442Y398344D01*
X429348Y398305D01*
X429264Y398260D01*
X429186Y398216D01*
X429112Y398172D01*
X429048Y398128D01*
X428994Y398088D01*
X428945Y398049D01*
X428900Y398009D01*
X428866Y397980D01*
X428841Y397955D01*
X428822Y397931D01*
X428812Y397921D01*
X428807Y397916D01*
X428753Y397842D01*
X428704Y397763D01*
X428659Y397685D01*
X428620Y397606D01*
X428590Y397522D01*
X428566Y397444D01*
X428526Y397296D01*
X428512Y397227D01*
X428502Y397163D01*
X428497Y397109D01*
X428492Y397060D01*
X428487Y397021D01*
Y396991D01*
Y396971D01*
Y396966D01*
X428492Y396883D01*
X428497Y396799D01*
X428526Y396637D01*
X428561Y396494D01*
X428585Y396425D01*
X428605Y396366D01*
X428630Y396307D01*
X428649Y396258D01*
X428669Y396214D01*
X428689Y396179D01*
X428704Y396150D01*
X428713Y396130D01*
X428718Y396115D01*
X428723Y396110D01*
X428772Y396041D01*
X428822Y395973D01*
X428935Y395854D01*
X429053Y395756D01*
X429171Y395672D01*
X429274Y395608D01*
X429319Y395584D01*
X429358Y395564D01*
X429392Y395550D01*
X429417Y395540D01*
X429432Y395530D01*
X429437D01*
X429624Y395466D01*
X429815Y395422D01*
X430007Y395387D01*
X430096Y395377D01*
X430180Y395367D01*
X430263Y395358D01*
X430332Y395353D01*
X430401Y395348D01*
X430455D01*
X430499Y395343D01*
X430563D01*
X430745Y395348D01*
X430923Y395367D01*
X431085Y395392D01*
X431164Y395407D01*
X431232Y395422D01*
X431296Y395436D01*
X431355Y395451D01*
X431405Y395466D01*
X431449Y395476D01*
X431483Y395485D01*
X431508Y395495D01*
X431523Y395500D01*
X431528D01*
X431616Y395535D01*
X431695Y395569D01*
X431774Y395608D01*
X431843Y395653D01*
X431911Y395697D01*
X431975Y395741D01*
X432029Y395786D01*
X432084Y395835D01*
X432128Y395874D01*
X432167Y395914D01*
X432202Y395953D01*
X432231Y395982D01*
X432251Y396012D01*
X432266Y396032D01*
X432275Y396041D01*
X432280Y396046D01*
X432330Y396120D01*
X432374Y396199D01*
X432408Y396283D01*
X432443Y396361D01*
X432472Y396445D01*
X432492Y396524D01*
X432526Y396681D01*
X432536Y396750D01*
X432546Y396814D01*
X432551Y396873D01*
X432556Y396922D01*
X432561Y396966D01*
Y396996D01*
Y397016D01*
Y397021D01*
X432556Y397114D01*
X432551Y397203D01*
X432521Y397365D01*
X432502Y397439D01*
X432482Y397508D01*
X432457Y397572D01*
X432433Y397626D01*
X432408Y397680D01*
X432384Y397724D01*
X432364Y397763D01*
X432344Y397798D01*
X432330Y397822D01*
X432315Y397842D01*
X432310Y397852D01*
X432305Y397857D01*
X432256Y397916D01*
X432197Y397975D01*
X432074Y398078D01*
X431941Y398167D01*
X431813Y398241D01*
X431749Y398270D01*
X431695Y398295D01*
X431641Y398319D01*
X431597Y398334D01*
X431562Y398349D01*
X431533Y398359D01*
X431513Y398369D01*
X431508D01*
X431661Y399028D01*
X431788Y398984D01*
X431907Y398939D01*
X432020Y398885D01*
X432123Y398826D01*
X432221Y398767D01*
X432310Y398708D01*
X432389Y398649D01*
X432462Y398590D01*
X432526Y398531D01*
X432585Y398477D01*
X432635Y398433D01*
X432674Y398388D01*
X432703Y398354D01*
X432723Y398329D01*
X432738Y398310D01*
X432743Y398305D01*
X432812Y398206D01*
X432871Y398103D01*
X432925Y397995D01*
X432969Y397886D01*
X433004Y397783D01*
X433038Y397675D01*
X433063Y397572D01*
X433082Y397478D01*
X433097Y397385D01*
X433112Y397301D01*
X433122Y397227D01*
X433127Y397163D01*
X433132Y397109D01*
Y397070D01*
Y397045D01*
Y397035D01*
X433127Y396912D01*
X433117Y396789D01*
X433102Y396676D01*
X433082Y396563D01*
X433063Y396455D01*
X433033Y396351D01*
X433009Y396258D01*
X432979Y396174D01*
X432949Y396091D01*
X432925Y396022D01*
X432895Y395958D01*
X432876Y395909D01*
X432856Y395864D01*
X432841Y395835D01*
X432831Y395815D01*
X432827Y395810D01*
X432767Y395707D01*
X432699Y395613D01*
X432630Y395525D01*
X432556Y395441D01*
X432482Y395367D01*
X432408Y395294D01*
X432335Y395230D01*
X432266Y395176D01*
X432197Y395121D01*
X432133Y395077D01*
X432079Y395043D01*
X432029Y395008D01*
X431990Y394984D01*
X431956Y394969D01*
X431936Y394959D01*
X431931Y394954D01*
X431818Y394900D01*
X431705Y394856D01*
X431587Y394816D01*
X431469Y394782D01*
X431355Y394752D01*
X431237Y394728D01*
X431129Y394708D01*
X431026Y394693D01*
X430927Y394679D01*
X430839Y394669D01*
X430760Y394664D01*
X430691Y394659D01*
X430637Y394654D01*
X430558D01*
X430426Y394659D01*
X430293Y394664D01*
X430165Y394679D01*
X430042Y394693D01*
X429924Y394718D01*
X429811Y394738D01*
X429707Y394762D01*
X429609Y394787D01*
X429520Y394812D01*
X429442Y394836D01*
X429373Y394861D01*
X429314Y394880D01*
X429269Y394895D01*
X429235Y394910D01*
X429215Y394915D01*
X429205Y394920D01*
X429092Y394974D01*
X428984Y395028D01*
X428886Y395092D01*
X428792Y395151D01*
X428704Y395215D01*
X428625Y395279D01*
X428556Y395343D01*
X428492Y395407D01*
X428433Y395466D01*
X428384Y395520D01*
X428339Y395564D01*
X428310Y395608D01*
X428280Y395643D01*
X428261Y395672D01*
X428251Y395687D01*
X428246Y395692D01*
X428187Y395791D01*
X428138Y395894D01*
X428093Y396007D01*
X428054Y396115D01*
X428025Y396228D01*
X427995Y396337D01*
X427975Y396445D01*
X427956Y396548D01*
X427946Y396647D01*
X427936Y396735D01*
X427926Y396814D01*
X427921Y396883D01*
X427916Y396942D01*
Y396986D01*
Y397011D01*
Y397021D01*
X427921Y397163D01*
X427936Y397306D01*
X427956Y397434D01*
X427985Y397562D01*
X428015Y397680D01*
X428054Y397788D01*
X428089Y397891D01*
X428133Y397985D01*
X428172Y398064D01*
X428212Y398137D01*
X428246Y398201D01*
X428275Y398255D01*
X428305Y398300D01*
X428325Y398329D01*
X428339Y398349D01*
X428344Y398354D01*
X428428Y398452D01*
X428521Y398546D01*
X428620Y398624D01*
X428723Y398703D01*
X428827Y398772D01*
X428930Y398836D01*
X429033Y398890D01*
X429137Y398939D01*
X429230Y398979D01*
X429319Y399018D01*
X429397Y399048D01*
X429466Y399072D01*
X429520Y399087D01*
X429565Y399102D01*
X429589Y399112D01*
X429599D01*
X429766Y398442D01*
D02*
G37*
G36*
Y410969D02*
X429653Y410939D01*
X429545Y410905D01*
X429442Y410870D01*
X429348Y410831D01*
X429264Y410787D01*
X429186Y410742D01*
X429112Y410698D01*
X429048Y410654D01*
X428994Y410614D01*
X428945Y410575D01*
X428900Y410536D01*
X428866Y410506D01*
X428841Y410482D01*
X428822Y410457D01*
X428812Y410447D01*
X428807Y410442D01*
X428753Y410368D01*
X428704Y410290D01*
X428659Y410211D01*
X428620Y410132D01*
X428590Y410049D01*
X428566Y409970D01*
X428526Y409822D01*
X428512Y409754D01*
X428502Y409690D01*
X428497Y409635D01*
X428492Y409586D01*
X428487Y409547D01*
Y409517D01*
Y409498D01*
Y409493D01*
X428492Y409409D01*
X428497Y409326D01*
X428526Y409163D01*
X428561Y409020D01*
X428585Y408952D01*
X428605Y408892D01*
X428630Y408834D01*
X428649Y408784D01*
X428669Y408740D01*
X428689Y408706D01*
X428704Y408676D01*
X428713Y408656D01*
X428718Y408642D01*
X428723Y408637D01*
X428772Y408568D01*
X428822Y408499D01*
X428935Y408381D01*
X429053Y408282D01*
X429171Y408199D01*
X429274Y408135D01*
X429319Y408110D01*
X429358Y408091D01*
X429392Y408076D01*
X429417Y408066D01*
X429432Y408056D01*
X429437D01*
X429624Y407992D01*
X429815Y407948D01*
X430007Y407913D01*
X430096Y407904D01*
X430180Y407894D01*
X430263Y407884D01*
X430332Y407879D01*
X430401Y407874D01*
X430455D01*
X430499Y407869D01*
X430563D01*
X430745Y407874D01*
X430923Y407894D01*
X431085Y407918D01*
X431164Y407933D01*
X431232Y407948D01*
X431296Y407963D01*
X431355Y407977D01*
X431405Y407992D01*
X431449Y408002D01*
X431483Y408012D01*
X431508Y408022D01*
X431523Y408027D01*
X431528D01*
X431616Y408061D01*
X431695Y408096D01*
X431774Y408135D01*
X431843Y408179D01*
X431911Y408223D01*
X431975Y408268D01*
X432029Y408312D01*
X432084Y408361D01*
X432128Y408400D01*
X432167Y408440D01*
X432202Y408479D01*
X432231Y408509D01*
X432251Y408538D01*
X432266Y408558D01*
X432275Y408568D01*
X432280Y408573D01*
X432330Y408646D01*
X432374Y408725D01*
X432408Y408809D01*
X432443Y408888D01*
X432472Y408971D01*
X432492Y409050D01*
X432526Y409207D01*
X432536Y409276D01*
X432546Y409340D01*
X432551Y409399D01*
X432556Y409448D01*
X432561Y409493D01*
Y409522D01*
Y409542D01*
Y409547D01*
X432556Y409640D01*
X432551Y409729D01*
X432521Y409891D01*
X432502Y409965D01*
X432482Y410034D01*
X432457Y410098D01*
X432433Y410152D01*
X432408Y410206D01*
X432384Y410250D01*
X432364Y410290D01*
X432344Y410324D01*
X432330Y410349D01*
X432315Y410368D01*
X432310Y410378D01*
X432305Y410383D01*
X432256Y410442D01*
X432197Y410501D01*
X432074Y410605D01*
X431941Y410693D01*
X431813Y410767D01*
X431749Y410797D01*
X431695Y410821D01*
X431641Y410846D01*
X431597Y410860D01*
X431562Y410875D01*
X431533Y410885D01*
X431513Y410895D01*
X431508D01*
X431661Y411554D01*
X431788Y411510D01*
X431907Y411466D01*
X432020Y411412D01*
X432123Y411352D01*
X432221Y411294D01*
X432310Y411234D01*
X432389Y411175D01*
X432462Y411116D01*
X432526Y411057D01*
X432585Y411003D01*
X432635Y410959D01*
X432674Y410915D01*
X432703Y410880D01*
X432723Y410856D01*
X432738Y410836D01*
X432743Y410831D01*
X432812Y410733D01*
X432871Y410629D01*
X432925Y410521D01*
X432969Y410413D01*
X433004Y410310D01*
X433038Y410201D01*
X433063Y410098D01*
X433082Y410004D01*
X433097Y409911D01*
X433112Y409827D01*
X433122Y409754D01*
X433127Y409690D01*
X433132Y409635D01*
Y409596D01*
Y409572D01*
Y409562D01*
X433127Y409439D01*
X433117Y409316D01*
X433102Y409202D01*
X433082Y409089D01*
X433063Y408981D01*
X433033Y408878D01*
X433009Y408784D01*
X432979Y408701D01*
X432949Y408617D01*
X432925Y408548D01*
X432895Y408484D01*
X432876Y408435D01*
X432856Y408391D01*
X432841Y408361D01*
X432831Y408342D01*
X432827Y408337D01*
X432767Y408233D01*
X432699Y408140D01*
X432630Y408051D01*
X432556Y407968D01*
X432482Y407894D01*
X432408Y407820D01*
X432335Y407756D01*
X432266Y407702D01*
X432197Y407648D01*
X432133Y407604D01*
X432079Y407569D01*
X432029Y407535D01*
X431990Y407510D01*
X431956Y407495D01*
X431936Y407485D01*
X431931Y407480D01*
X431818Y407426D01*
X431705Y407382D01*
X431587Y407343D01*
X431469Y407308D01*
X431355Y407279D01*
X431237Y407254D01*
X431129Y407234D01*
X431026Y407220D01*
X430927Y407205D01*
X430839Y407195D01*
X430760Y407190D01*
X430691Y407185D01*
X430637Y407180D01*
X430558D01*
X430426Y407185D01*
X430293Y407190D01*
X430165Y407205D01*
X430042Y407220D01*
X429924Y407244D01*
X429811Y407264D01*
X429707Y407289D01*
X429609Y407313D01*
X429520Y407338D01*
X429442Y407362D01*
X429373Y407387D01*
X429314Y407407D01*
X429269Y407421D01*
X429235Y407436D01*
X429215Y407441D01*
X429205Y407446D01*
X429092Y407500D01*
X428984Y407554D01*
X428886Y407618D01*
X428792Y407677D01*
X428704Y407741D01*
X428625Y407805D01*
X428556Y407869D01*
X428492Y407933D01*
X428433Y407992D01*
X428384Y408046D01*
X428339Y408091D01*
X428310Y408135D01*
X428280Y408169D01*
X428261Y408199D01*
X428251Y408214D01*
X428246Y408218D01*
X428187Y408317D01*
X428138Y408420D01*
X428093Y408533D01*
X428054Y408642D01*
X428025Y408755D01*
X427995Y408863D01*
X427975Y408971D01*
X427956Y409075D01*
X427946Y409173D01*
X427936Y409262D01*
X427926Y409340D01*
X427921Y409409D01*
X427916Y409468D01*
Y409512D01*
Y409537D01*
Y409547D01*
X427921Y409690D01*
X427936Y409832D01*
X427956Y409960D01*
X427985Y410088D01*
X428015Y410206D01*
X428054Y410314D01*
X428089Y410418D01*
X428133Y410511D01*
X428172Y410590D01*
X428212Y410664D01*
X428246Y410728D01*
X428275Y410782D01*
X428305Y410826D01*
X428325Y410856D01*
X428339Y410875D01*
X428344Y410880D01*
X428428Y410979D01*
X428521Y411072D01*
X428620Y411151D01*
X428723Y411230D01*
X428827Y411298D01*
X428930Y411362D01*
X429033Y411416D01*
X429137Y411466D01*
X429230Y411505D01*
X429319Y411544D01*
X429397Y411574D01*
X429466Y411598D01*
X429520Y411613D01*
X429565Y411628D01*
X429589Y411638D01*
X429599D01*
X429766Y410969D01*
D02*
G37*
G36*
X428595Y404100D02*
X433043D01*
Y403431D01*
X428000D01*
Y406580D01*
X428595D01*
Y404100D01*
D02*
G37*
G36*
X433043Y401699D02*
X429491D01*
X429417Y401695D01*
X429348D01*
X429289Y401690D01*
X429230Y401685D01*
X429181Y401675D01*
X429132Y401670D01*
X429092Y401665D01*
X429053Y401655D01*
X429023Y401650D01*
X428994Y401645D01*
X428974Y401636D01*
X428945Y401631D01*
X428935Y401626D01*
X428866Y401596D01*
X428802Y401557D01*
X428753Y401517D01*
X428709Y401473D01*
X428669Y401434D01*
X428645Y401404D01*
X428630Y401385D01*
X428625Y401375D01*
X428585Y401306D01*
X428561Y401232D01*
X428541Y401158D01*
X428526Y401089D01*
X428517Y401030D01*
X428512Y400986D01*
Y400966D01*
Y400952D01*
Y400947D01*
Y400942D01*
X428517Y400878D01*
X428521Y400824D01*
X428546Y400715D01*
X428581Y400622D01*
X428620Y400548D01*
X428654Y400484D01*
X428689Y400440D01*
X428713Y400415D01*
X428723Y400406D01*
X428767Y400371D01*
X428817Y400342D01*
X428876Y400317D01*
X428935Y400292D01*
X429068Y400253D01*
X429196Y400228D01*
X429259Y400219D01*
X429319Y400209D01*
X429373Y400204D01*
X429417Y400199D01*
X429456D01*
X429486Y400194D01*
X429510D01*
X429427Y399594D01*
X429289D01*
X429161Y399604D01*
X429043Y399618D01*
X428935Y399638D01*
X428831Y399663D01*
X428738Y399692D01*
X428654Y399722D01*
X428581Y399756D01*
X428512Y399786D01*
X428453Y399820D01*
X428408Y399850D01*
X428364Y399874D01*
X428335Y399894D01*
X428315Y399914D01*
X428300Y399923D01*
X428295Y399928D01*
X428226Y399997D01*
X428172Y400076D01*
X428118Y400155D01*
X428079Y400238D01*
X428039Y400322D01*
X428010Y400406D01*
X427985Y400489D01*
X427966Y400573D01*
X427946Y400647D01*
X427936Y400720D01*
X427926Y400784D01*
X427921Y400839D01*
Y400883D01*
X427916Y400917D01*
Y400937D01*
Y400947D01*
X427926Y401109D01*
X427946Y401257D01*
X427975Y401390D01*
X427990Y401449D01*
X428010Y401503D01*
X428025Y401552D01*
X428039Y401596D01*
X428054Y401636D01*
X428069Y401665D01*
X428084Y401690D01*
X428089Y401709D01*
X428098Y401719D01*
Y401724D01*
X428172Y401842D01*
X428256Y401941D01*
X428344Y402024D01*
X428428Y402093D01*
X428507Y402147D01*
X428541Y402167D01*
X428571Y402182D01*
X428590Y402196D01*
X428610Y402206D01*
X428620Y402211D01*
X428625D01*
X428694Y402241D01*
X428767Y402265D01*
X428925Y402305D01*
X429087Y402329D01*
X429245Y402349D01*
X429319Y402354D01*
X429387Y402359D01*
X429447Y402364D01*
X429501Y402369D01*
X433043D01*
Y401699D01*
D02*
G37*
G36*
Y364121D02*
X429491D01*
X429417Y364116D01*
X429348D01*
X429289Y364111D01*
X429230Y364106D01*
X429181Y364096D01*
X429132Y364091D01*
X429092Y364086D01*
X429053Y364076D01*
X429023Y364071D01*
X428994Y364066D01*
X428974Y364057D01*
X428945Y364052D01*
X428935Y364047D01*
X428866Y364017D01*
X428802Y363978D01*
X428753Y363938D01*
X428709Y363894D01*
X428669Y363855D01*
X428645Y363825D01*
X428630Y363806D01*
X428625Y363796D01*
X428585Y363727D01*
X428561Y363653D01*
X428541Y363579D01*
X428526Y363510D01*
X428517Y363451D01*
X428512Y363407D01*
Y363387D01*
Y363373D01*
Y363368D01*
Y363363D01*
X428517Y363299D01*
X428521Y363245D01*
X428546Y363137D01*
X428581Y363043D01*
X428620Y362969D01*
X428654Y362905D01*
X428689Y362861D01*
X428713Y362836D01*
X428723Y362827D01*
X428767Y362792D01*
X428817Y362763D01*
X428876Y362738D01*
X428935Y362713D01*
X429068Y362674D01*
X429196Y362649D01*
X429259Y362640D01*
X429319Y362630D01*
X429373Y362625D01*
X429417Y362620D01*
X429456D01*
X429486Y362615D01*
X429510D01*
X429427Y362015D01*
X429289D01*
X429161Y362025D01*
X429043Y362039D01*
X428935Y362059D01*
X428831Y362084D01*
X428738Y362113D01*
X428654Y362143D01*
X428581Y362177D01*
X428512Y362207D01*
X428453Y362241D01*
X428408Y362271D01*
X428364Y362295D01*
X428335Y362315D01*
X428315Y362335D01*
X428300Y362344D01*
X428295Y362349D01*
X428226Y362418D01*
X428172Y362497D01*
X428118Y362576D01*
X428079Y362659D01*
X428039Y362743D01*
X428010Y362827D01*
X427985Y362910D01*
X427966Y362994D01*
X427946Y363068D01*
X427936Y363141D01*
X427926Y363205D01*
X427921Y363260D01*
Y363304D01*
X427916Y363338D01*
Y363358D01*
Y363368D01*
X427926Y363530D01*
X427946Y363678D01*
X427975Y363811D01*
X427990Y363870D01*
X428010Y363924D01*
X428025Y363973D01*
X428039Y364017D01*
X428054Y364057D01*
X428069Y364086D01*
X428084Y364111D01*
X428089Y364130D01*
X428098Y364140D01*
Y364145D01*
X428172Y364263D01*
X428256Y364362D01*
X428344Y364445D01*
X428428Y364514D01*
X428507Y364568D01*
X428541Y364588D01*
X428571Y364603D01*
X428590Y364617D01*
X428610Y364627D01*
X428620Y364632D01*
X428625D01*
X428694Y364662D01*
X428767Y364686D01*
X428925Y364726D01*
X429087Y364750D01*
X429245Y364770D01*
X429319Y364775D01*
X429387Y364780D01*
X429447Y364785D01*
X429501Y364790D01*
X433043D01*
Y364121D01*
D02*
G37*
G36*
X412421Y414505D02*
X412470D01*
X412485Y414501D01*
X412500D01*
X412598Y414491D01*
X412686Y414476D01*
X412775Y414456D01*
X412859Y414432D01*
X412942Y414407D01*
X413016Y414378D01*
X413085Y414343D01*
X413149Y414314D01*
X413203Y414279D01*
X413257Y414250D01*
X413301Y414225D01*
X413336Y414195D01*
X413365Y414176D01*
X413385Y414161D01*
X413400Y414151D01*
X413405Y414146D01*
X413474Y414082D01*
X413543Y414009D01*
X413607Y413935D01*
X413665Y413851D01*
X413774Y413679D01*
X413862Y413512D01*
X413902Y413433D01*
X413936Y413359D01*
X413966Y413290D01*
X413990Y413236D01*
X414010Y413187D01*
X414025Y413148D01*
X414030Y413128D01*
X414035Y413118D01*
X413454Y413025D01*
X413424Y413103D01*
X413390Y413177D01*
X413356Y413246D01*
X413316Y413310D01*
X413282Y413364D01*
X413242Y413418D01*
X413208Y413467D01*
X413169Y413512D01*
X413139Y413546D01*
X413105Y413581D01*
X413080Y413605D01*
X413055Y413630D01*
X413036Y413645D01*
X413021Y413659D01*
X413011Y413669D01*
X413006D01*
X412898Y413743D01*
X412790Y413797D01*
X412681Y413841D01*
X412588Y413876D01*
X412509Y413895D01*
X412475Y413900D01*
X412445Y413905D01*
X412421Y413910D01*
X412406Y413915D01*
X412391D01*
X412332Y413920D01*
X412273D01*
X412165Y413905D01*
X412067Y413876D01*
X411983Y413846D01*
X411914Y413812D01*
X411865Y413777D01*
X411845Y413767D01*
X411830Y413758D01*
X411825Y413748D01*
X411821D01*
X411737Y413669D01*
X411673Y413585D01*
X411619Y413502D01*
X411584Y413423D01*
X411555Y413349D01*
X411540Y413295D01*
X411535Y413271D01*
X411530Y413256D01*
Y413246D01*
Y413241D01*
X411525Y413182D01*
Y413123D01*
X411535Y412995D01*
X411555Y412872D01*
X411584Y412759D01*
X411599Y412705D01*
X411614Y412656D01*
X411629Y412611D01*
X411643Y412577D01*
X411658Y412547D01*
X411663Y412523D01*
X411673Y412508D01*
Y412503D01*
X411712Y412419D01*
X411762Y412326D01*
X411816Y412232D01*
X411875Y412134D01*
X412003Y411932D01*
X412071Y411829D01*
X412140Y411735D01*
X412204Y411642D01*
X412263Y411558D01*
X412322Y411485D01*
X412372Y411416D01*
X412411Y411362D01*
X412445Y411322D01*
X412465Y411298D01*
X412470Y411288D01*
X412583Y411145D01*
X412691Y411012D01*
X412790Y410889D01*
X412888Y410776D01*
X412977Y410673D01*
X413060Y410579D01*
X413139Y410496D01*
X413208Y410417D01*
X413272Y410353D01*
X413326Y410294D01*
X413370Y410245D01*
X413410Y410205D01*
X413444Y410176D01*
X413464Y410156D01*
X413479Y410141D01*
X413483Y410137D01*
X413552Y410068D01*
X413616Y409994D01*
X413670Y409925D01*
X413720Y409851D01*
X413759Y409782D01*
X413793Y409713D01*
X413823Y409645D01*
X413848Y409581D01*
X413867Y409526D01*
X413882Y409472D01*
X413892Y409423D01*
X413902Y409384D01*
X413907Y409349D01*
X413911Y409325D01*
Y409310D01*
Y409305D01*
Y409182D01*
X410807D01*
Y409738D01*
X413021D01*
X412800Y409994D01*
X412598Y410235D01*
X412411Y410451D01*
X412244Y410658D01*
X412091Y410845D01*
X411953Y411012D01*
X411835Y411165D01*
X411732Y411303D01*
X411638Y411421D01*
X411565Y411524D01*
X411501Y411613D01*
X411447Y411686D01*
X411412Y411740D01*
X411383Y411780D01*
X411368Y411799D01*
X411363Y411809D01*
X411284Y411932D01*
X411220Y412050D01*
X411156Y412164D01*
X411107Y412267D01*
X411058Y412370D01*
X411024Y412464D01*
X410989Y412547D01*
X410959Y412631D01*
X410940Y412700D01*
X410920Y412764D01*
X410910Y412818D01*
X410900Y412867D01*
X410891Y412902D01*
Y412931D01*
X410886Y412946D01*
Y412951D01*
X410881Y413039D01*
X410876Y413123D01*
X410886Y413280D01*
X410891Y413349D01*
X410900Y413418D01*
X410915Y413477D01*
X410930Y413536D01*
X410945Y413585D01*
X410955Y413630D01*
X410969Y413669D01*
X410984Y413703D01*
X410994Y413728D01*
X410999Y413748D01*
X411009Y413758D01*
Y413763D01*
X411073Y413881D01*
X411146Y413984D01*
X411215Y414073D01*
X411284Y414141D01*
X411343Y414200D01*
X411392Y414240D01*
X411412Y414250D01*
X411427Y414259D01*
X411432Y414269D01*
X411437D01*
X411535Y414328D01*
X411624Y414378D01*
X411712Y414412D01*
X411786Y414441D01*
X411850Y414461D01*
X411899Y414476D01*
X411919Y414481D01*
X411934Y414486D01*
X411943D01*
X412037Y414501D01*
X412135Y414510D01*
X412386D01*
X412421Y414505D01*
D02*
G37*
G36*
X416342Y414338D02*
X416445Y414215D01*
X416549Y414092D01*
X416652Y413979D01*
X416760Y413871D01*
X416863Y413772D01*
X416967Y413679D01*
X417065Y413590D01*
X417159Y413512D01*
X417242Y413443D01*
X417321Y413384D01*
X417385Y413335D01*
X417439Y413295D01*
X417479Y413266D01*
X417503Y413246D01*
X417513Y413241D01*
Y412656D01*
X417400Y412724D01*
X417292Y412793D01*
X417188Y412862D01*
X417095Y412931D01*
X417006Y413000D01*
X416923Y413064D01*
X416844Y413123D01*
X416775Y413182D01*
X416711Y413231D01*
X416657Y413280D01*
X416608Y413325D01*
X416568Y413359D01*
X416534Y413389D01*
X416514Y413408D01*
X416499Y413423D01*
X416495Y413428D01*
Y409182D01*
X415879D01*
Y414471D01*
X416249D01*
X416342Y414338D01*
D02*
G37*
G36*
X428595Y366522D02*
X433043D01*
Y365852D01*
X428000D01*
Y369001D01*
X428595D01*
Y366522D01*
D02*
G37*
G36*
X433043Y376647D02*
X429491D01*
X429417Y376642D01*
X429348D01*
X429289Y376637D01*
X429230Y376632D01*
X429181Y376622D01*
X429132Y376617D01*
X429092Y376612D01*
X429053Y376603D01*
X429023Y376598D01*
X428994Y376593D01*
X428974Y376583D01*
X428945Y376578D01*
X428935Y376573D01*
X428866Y376543D01*
X428802Y376504D01*
X428753Y376465D01*
X428709Y376420D01*
X428669Y376381D01*
X428645Y376352D01*
X428630Y376332D01*
X428625Y376322D01*
X428585Y376253D01*
X428561Y376179D01*
X428541Y376106D01*
X428526Y376037D01*
X428517Y375978D01*
X428512Y375933D01*
Y375914D01*
Y375899D01*
Y375894D01*
Y375889D01*
X428517Y375825D01*
X428521Y375771D01*
X428546Y375663D01*
X428581Y375569D01*
X428620Y375496D01*
X428654Y375432D01*
X428689Y375387D01*
X428713Y375363D01*
X428723Y375353D01*
X428767Y375318D01*
X428817Y375289D01*
X428876Y375264D01*
X428935Y375240D01*
X429068Y375200D01*
X429196Y375176D01*
X429259Y375166D01*
X429319Y375156D01*
X429373Y375151D01*
X429417Y375146D01*
X429456D01*
X429486Y375141D01*
X429510D01*
X429427Y374541D01*
X429289D01*
X429161Y374551D01*
X429043Y374566D01*
X428935Y374585D01*
X428831Y374610D01*
X428738Y374640D01*
X428654Y374669D01*
X428581Y374703D01*
X428512Y374733D01*
X428453Y374767D01*
X428408Y374797D01*
X428364Y374821D01*
X428335Y374841D01*
X428315Y374861D01*
X428300Y374871D01*
X428295Y374876D01*
X428226Y374944D01*
X428172Y375023D01*
X428118Y375102D01*
X428079Y375186D01*
X428039Y375269D01*
X428010Y375353D01*
X427985Y375436D01*
X427966Y375520D01*
X427946Y375594D01*
X427936Y375668D01*
X427926Y375732D01*
X427921Y375786D01*
Y375830D01*
X427916Y375865D01*
Y375884D01*
Y375894D01*
X427926Y376056D01*
X427946Y376204D01*
X427975Y376337D01*
X427990Y376396D01*
X428010Y376450D01*
X428025Y376499D01*
X428039Y376543D01*
X428054Y376583D01*
X428069Y376612D01*
X428084Y376637D01*
X428089Y376657D01*
X428098Y376666D01*
Y376671D01*
X428172Y376789D01*
X428256Y376888D01*
X428344Y376972D01*
X428428Y377040D01*
X428507Y377095D01*
X428541Y377114D01*
X428571Y377129D01*
X428590Y377144D01*
X428610Y377154D01*
X428620Y377158D01*
X428625D01*
X428694Y377188D01*
X428767Y377213D01*
X428925Y377252D01*
X429087Y377277D01*
X429245Y377296D01*
X429319Y377301D01*
X429387Y377306D01*
X429447Y377311D01*
X429501Y377316D01*
X433043D01*
Y376647D01*
D02*
G37*
G36*
X428595Y379048D02*
X433043D01*
Y378379D01*
X428000D01*
Y381527D01*
X428595D01*
Y379048D01*
D02*
G37*
G36*
X429766Y373390D02*
X429653Y373360D01*
X429545Y373326D01*
X429442Y373291D01*
X429348Y373252D01*
X429264Y373208D01*
X429186Y373164D01*
X429112Y373119D01*
X429048Y373075D01*
X428994Y373036D01*
X428945Y372996D01*
X428900Y372957D01*
X428866Y372927D01*
X428841Y372903D01*
X428822Y372878D01*
X428812Y372868D01*
X428807Y372863D01*
X428753Y372790D01*
X428704Y372711D01*
X428659Y372632D01*
X428620Y372553D01*
X428590Y372470D01*
X428566Y372391D01*
X428526Y372243D01*
X428512Y372175D01*
X428502Y372111D01*
X428497Y372057D01*
X428492Y372007D01*
X428487Y371968D01*
Y371938D01*
Y371919D01*
Y371914D01*
X428492Y371830D01*
X428497Y371746D01*
X428526Y371584D01*
X428561Y371442D01*
X428585Y371373D01*
X428605Y371314D01*
X428630Y371254D01*
X428649Y371205D01*
X428669Y371161D01*
X428689Y371127D01*
X428704Y371097D01*
X428713Y371077D01*
X428718Y371063D01*
X428723Y371058D01*
X428772Y370989D01*
X428822Y370920D01*
X428935Y370802D01*
X429053Y370704D01*
X429171Y370620D01*
X429274Y370556D01*
X429319Y370531D01*
X429358Y370512D01*
X429392Y370497D01*
X429417Y370487D01*
X429432Y370477D01*
X429437D01*
X429624Y370413D01*
X429815Y370369D01*
X430007Y370335D01*
X430096Y370325D01*
X430180Y370315D01*
X430263Y370305D01*
X430332Y370300D01*
X430401Y370295D01*
X430455D01*
X430499Y370290D01*
X430563D01*
X430745Y370295D01*
X430923Y370315D01*
X431085Y370339D01*
X431164Y370354D01*
X431232Y370369D01*
X431296Y370384D01*
X431355Y370398D01*
X431405Y370413D01*
X431449Y370423D01*
X431483Y370433D01*
X431508Y370443D01*
X431523Y370448D01*
X431528D01*
X431616Y370482D01*
X431695Y370516D01*
X431774Y370556D01*
X431843Y370600D01*
X431911Y370644D01*
X431975Y370689D01*
X432029Y370733D01*
X432084Y370782D01*
X432128Y370822D01*
X432167Y370861D01*
X432202Y370900D01*
X432231Y370930D01*
X432251Y370959D01*
X432266Y370979D01*
X432275Y370989D01*
X432280Y370994D01*
X432330Y371068D01*
X432374Y371146D01*
X432408Y371230D01*
X432443Y371309D01*
X432472Y371392D01*
X432492Y371471D01*
X432526Y371628D01*
X432536Y371697D01*
X432546Y371761D01*
X432551Y371820D01*
X432556Y371869D01*
X432561Y371914D01*
Y371943D01*
Y371963D01*
Y371968D01*
X432556Y372061D01*
X432551Y372150D01*
X432521Y372312D01*
X432502Y372386D01*
X432482Y372455D01*
X432457Y372519D01*
X432433Y372573D01*
X432408Y372627D01*
X432384Y372672D01*
X432364Y372711D01*
X432344Y372745D01*
X432330Y372770D01*
X432315Y372790D01*
X432310Y372799D01*
X432305Y372804D01*
X432256Y372863D01*
X432197Y372922D01*
X432074Y373026D01*
X431941Y373114D01*
X431813Y373188D01*
X431749Y373218D01*
X431695Y373242D01*
X431641Y373267D01*
X431597Y373282D01*
X431562Y373296D01*
X431533Y373306D01*
X431513Y373316D01*
X431508D01*
X431661Y373975D01*
X431788Y373931D01*
X431907Y373887D01*
X432020Y373833D01*
X432123Y373774D01*
X432221Y373714D01*
X432310Y373656D01*
X432389Y373596D01*
X432462Y373537D01*
X432526Y373478D01*
X432585Y373424D01*
X432635Y373380D01*
X432674Y373336D01*
X432703Y373301D01*
X432723Y373277D01*
X432738Y373257D01*
X432743Y373252D01*
X432812Y373154D01*
X432871Y373050D01*
X432925Y372942D01*
X432969Y372834D01*
X433004Y372730D01*
X433038Y372622D01*
X433063Y372519D01*
X433082Y372426D01*
X433097Y372332D01*
X433112Y372248D01*
X433122Y372175D01*
X433127Y372111D01*
X433132Y372057D01*
Y372017D01*
Y371992D01*
Y371983D01*
X433127Y371860D01*
X433117Y371737D01*
X433102Y371623D01*
X433082Y371510D01*
X433063Y371402D01*
X433033Y371299D01*
X433009Y371205D01*
X432979Y371122D01*
X432949Y371038D01*
X432925Y370969D01*
X432895Y370905D01*
X432876Y370856D01*
X432856Y370812D01*
X432841Y370782D01*
X432831Y370762D01*
X432827Y370758D01*
X432767Y370654D01*
X432699Y370561D01*
X432630Y370472D01*
X432556Y370389D01*
X432482Y370315D01*
X432408Y370241D01*
X432335Y370177D01*
X432266Y370123D01*
X432197Y370069D01*
X432133Y370024D01*
X432079Y369990D01*
X432029Y369956D01*
X431990Y369931D01*
X431956Y369916D01*
X431936Y369906D01*
X431931Y369901D01*
X431818Y369847D01*
X431705Y369803D01*
X431587Y369764D01*
X431469Y369729D01*
X431355Y369700D01*
X431237Y369675D01*
X431129Y369655D01*
X431026Y369641D01*
X430927Y369626D01*
X430839Y369616D01*
X430760Y369611D01*
X430691Y369606D01*
X430637Y369601D01*
X430558D01*
X430426Y369606D01*
X430293Y369611D01*
X430165Y369626D01*
X430042Y369641D01*
X429924Y369665D01*
X429811Y369685D01*
X429707Y369710D01*
X429609Y369734D01*
X429520Y369759D01*
X429442Y369783D01*
X429373Y369808D01*
X429314Y369828D01*
X429269Y369843D01*
X429235Y369857D01*
X429215Y369862D01*
X429205Y369867D01*
X429092Y369921D01*
X428984Y369975D01*
X428886Y370039D01*
X428792Y370098D01*
X428704Y370162D01*
X428625Y370226D01*
X428556Y370290D01*
X428492Y370354D01*
X428433Y370413D01*
X428384Y370467D01*
X428339Y370512D01*
X428310Y370556D01*
X428280Y370590D01*
X428261Y370620D01*
X428251Y370635D01*
X428246Y370639D01*
X428187Y370738D01*
X428138Y370841D01*
X428093Y370954D01*
X428054Y371063D01*
X428025Y371176D01*
X427995Y371284D01*
X427975Y371392D01*
X427956Y371496D01*
X427946Y371594D01*
X427936Y371683D01*
X427926Y371761D01*
X427921Y371830D01*
X427916Y371889D01*
Y371934D01*
Y371958D01*
Y371968D01*
X427921Y372111D01*
X427936Y372253D01*
X427956Y372381D01*
X427985Y372509D01*
X428015Y372627D01*
X428054Y372735D01*
X428089Y372839D01*
X428133Y372932D01*
X428172Y373011D01*
X428212Y373085D01*
X428246Y373149D01*
X428275Y373203D01*
X428305Y373247D01*
X428325Y373277D01*
X428339Y373296D01*
X428344Y373301D01*
X428428Y373400D01*
X428521Y373493D01*
X428620Y373572D01*
X428723Y373651D01*
X428827Y373719D01*
X428930Y373783D01*
X429033Y373837D01*
X429137Y373887D01*
X429230Y373926D01*
X429319Y373965D01*
X429397Y373995D01*
X429466Y374020D01*
X429520Y374034D01*
X429565Y374049D01*
X429589Y374059D01*
X429599D01*
X429766Y373390D01*
D02*
G37*
%LPC*%
G36*
X379575Y436604D02*
X379541D01*
X379457Y436600D01*
X379379Y436590D01*
X379305Y436575D01*
X379236Y436555D01*
X379177Y436531D01*
X379118Y436501D01*
X379069Y436472D01*
X379024Y436442D01*
X378985Y436413D01*
X378946Y436383D01*
X378921Y436354D01*
X378896Y436329D01*
X378877Y436309D01*
X378862Y436295D01*
X378857Y436285D01*
X378852Y436280D01*
X378813Y436216D01*
X378773Y436147D01*
X378719Y436004D01*
X378675Y435852D01*
X378650Y435709D01*
X378641Y435640D01*
X378631Y435576D01*
X378626Y435522D01*
Y435473D01*
X378621Y435429D01*
Y435399D01*
Y435379D01*
Y435374D01*
Y435266D01*
X378631Y435168D01*
X378641Y435070D01*
X378655Y434981D01*
X378675Y434902D01*
X378695Y434824D01*
X378714Y434755D01*
X378734Y434691D01*
X378759Y434636D01*
X378778Y434587D01*
X378798Y434548D01*
X378818Y434514D01*
X378833Y434484D01*
X378842Y434464D01*
X378847Y434454D01*
X378852Y434450D01*
X378896Y434390D01*
X378946Y434341D01*
X379000Y434297D01*
X379054Y434258D01*
X379113Y434223D01*
X379167Y434199D01*
X379280Y434159D01*
X379383Y434135D01*
X379428Y434125D01*
X379467Y434120D01*
X379497Y434115D01*
X379541D01*
X379610Y434120D01*
X379674Y434130D01*
X379738Y434144D01*
X379797Y434169D01*
X379900Y434223D01*
X379994Y434282D01*
X380067Y434346D01*
X380097Y434371D01*
X380126Y434395D01*
X380146Y434420D01*
X380161Y434435D01*
X380166Y434445D01*
X380171Y434450D01*
X380215Y434518D01*
X380254Y434587D01*
X380294Y434661D01*
X380323Y434740D01*
X380367Y434892D01*
X380397Y435040D01*
X380412Y435109D01*
X380417Y435173D01*
X380422Y435227D01*
X380427Y435276D01*
X380432Y435320D01*
Y435350D01*
Y435370D01*
Y435374D01*
X380427Y435483D01*
X380422Y435581D01*
X380407Y435675D01*
X380392Y435763D01*
X380372Y435842D01*
X380348Y435921D01*
X380323Y435985D01*
X380299Y436049D01*
X380279Y436103D01*
X380254Y436147D01*
X380230Y436186D01*
X380210Y436221D01*
X380195Y436245D01*
X380181Y436265D01*
X380176Y436275D01*
X380171Y436280D01*
X380121Y436339D01*
X380067Y436388D01*
X380013Y436432D01*
X379964Y436467D01*
X379910Y436501D01*
X379856Y436526D01*
X379757Y436565D01*
X379669Y436590D01*
X379634Y436595D01*
X379605Y436600D01*
X379575Y436604D01*
D02*
G37*
G36*
X384308Y438327D02*
X383383D01*
X383265Y438317D01*
X383152Y438297D01*
X383059Y438268D01*
X382975Y438233D01*
X382906Y438199D01*
X382857Y438169D01*
X382842Y438159D01*
X382827Y438149D01*
X382823Y438140D01*
X382818D01*
X382778Y438105D01*
X382739Y438061D01*
X382685Y437972D01*
X382641Y437874D01*
X382616Y437780D01*
X382596Y437697D01*
X382591Y437657D01*
Y437623D01*
X382586Y437598D01*
Y437579D01*
Y437564D01*
Y437559D01*
X382591Y437475D01*
X382596Y437397D01*
X382611Y437328D01*
X382626Y437259D01*
X382646Y437200D01*
X382665Y437146D01*
X382685Y437097D01*
X382709Y437052D01*
X382734Y437018D01*
X382754Y436983D01*
X382773Y436954D01*
X382793Y436934D01*
X382808Y436914D01*
X382823Y436905D01*
X382827Y436900D01*
X382832Y436895D01*
X382926Y436831D01*
X383029Y436782D01*
X383128Y436747D01*
X383216Y436723D01*
X383295Y436708D01*
X383329Y436703D01*
X383359D01*
X383383Y436698D01*
X384308D01*
Y438327D01*
D02*
G37*
G36*
X415796D02*
X414872D01*
X414753Y438317D01*
X414640Y438297D01*
X414547Y438268D01*
X414463Y438233D01*
X414394Y438199D01*
X414345Y438169D01*
X414330Y438159D01*
X414316Y438149D01*
X414311Y438140D01*
X414306D01*
X414266Y438105D01*
X414227Y438061D01*
X414173Y437972D01*
X414129Y437874D01*
X414104Y437780D01*
X414084Y437697D01*
X414079Y437657D01*
Y437623D01*
X414074Y437598D01*
Y437579D01*
Y437564D01*
Y437559D01*
X414079Y437475D01*
X414084Y437397D01*
X414099Y437328D01*
X414114Y437259D01*
X414134Y437200D01*
X414153Y437146D01*
X414173Y437097D01*
X414197Y437052D01*
X414222Y437018D01*
X414242Y436983D01*
X414261Y436954D01*
X414281Y436934D01*
X414296Y436914D01*
X414311Y436905D01*
X414316Y436900D01*
X414320Y436895D01*
X414414Y436831D01*
X414517Y436782D01*
X414616Y436747D01*
X414704Y436723D01*
X414783Y436708D01*
X414817Y436703D01*
X414847D01*
X414872Y436698D01*
X415796D01*
Y438327D01*
D02*
G37*
G36*
X442808Y410435D02*
X442768D01*
X442699Y410430D01*
X442630Y410415D01*
X442567Y410391D01*
X442512Y410361D01*
X442404Y410297D01*
X442316Y410218D01*
X442247Y410145D01*
X442217Y410110D01*
X442198Y410080D01*
X442178Y410056D01*
X442163Y410036D01*
X442158Y410021D01*
X442153Y410017D01*
X442075Y409864D01*
X442011Y409712D01*
X441966Y409559D01*
X441927Y409421D01*
X441917Y409357D01*
X441902Y409303D01*
X441892Y409254D01*
X441888Y409210D01*
X441883Y409175D01*
X441878Y409146D01*
Y409131D01*
Y409126D01*
X441863Y408939D01*
X441853Y408747D01*
X441843Y408565D01*
Y408477D01*
X441838Y408398D01*
Y408319D01*
X441833Y408250D01*
Y408186D01*
Y408137D01*
Y408093D01*
Y408058D01*
Y408039D01*
Y408034D01*
X441838Y407812D01*
X441858Y407606D01*
X441873Y407512D01*
X441888Y407419D01*
X441902Y407335D01*
X441917Y407256D01*
X441932Y407183D01*
X441947Y407119D01*
X441961Y407065D01*
X441976Y407015D01*
X441986Y406976D01*
X441996Y406951D01*
X442001Y406932D01*
Y406927D01*
X442035Y406838D01*
X442070Y406755D01*
X442114Y406676D01*
X442153Y406607D01*
X442198Y406543D01*
X442242Y406489D01*
X442286Y406440D01*
X442330Y406395D01*
X442375Y406361D01*
X442409Y406331D01*
X442449Y406302D01*
X442478Y406282D01*
X442503Y406267D01*
X442522Y406258D01*
X442532Y406248D01*
X442537D01*
X442606Y406223D01*
X442675Y406204D01*
X442739Y406194D01*
X442808D01*
X442867Y406199D01*
X442926Y406209D01*
X443039Y406238D01*
X443083Y406258D01*
X443127Y406277D01*
X443167Y406297D01*
X443201Y406317D01*
X443226Y406331D01*
X443246Y406346D01*
X443255Y406351D01*
X443260Y406356D01*
X443324Y406415D01*
X443383Y406479D01*
X443437Y406548D01*
X443492Y406622D01*
X443580Y406779D01*
X443649Y406932D01*
X443679Y407006D01*
X443703Y407074D01*
X443723Y407133D01*
X443742Y407188D01*
X443757Y407232D01*
X443762Y407266D01*
X443772Y407291D01*
Y407296D01*
X443797Y407424D01*
X443816Y407552D01*
X443846Y407812D01*
X443856Y408063D01*
X443860Y408186D01*
Y408299D01*
X443856Y408403D01*
X443851Y408501D01*
X443846Y408585D01*
X443841Y408659D01*
Y408718D01*
X443836Y408762D01*
X443831Y408791D01*
Y408801D01*
X443811Y408954D01*
X443787Y409096D01*
X443762Y409229D01*
X443733Y409352D01*
X443698Y409466D01*
X443669Y409569D01*
X443634Y409657D01*
X443605Y409741D01*
X443575Y409815D01*
X443546Y409874D01*
X443516Y409928D01*
X443492Y409972D01*
X443477Y410002D01*
X443462Y410026D01*
X443452Y410041D01*
X443447Y410046D01*
X443393Y410115D01*
X443334Y410179D01*
X443275Y410233D01*
X443216Y410277D01*
X443157Y410317D01*
X443103Y410346D01*
X443049Y410371D01*
X442995Y410391D01*
X442906Y410420D01*
X442867Y410425D01*
X442832Y410430D01*
X442808Y410435D01*
D02*
G37*
G36*
X399191Y436634D02*
X399162D01*
X399039Y436629D01*
X398931Y436609D01*
X398837Y436580D01*
X398759Y436550D01*
X398694Y436516D01*
X398645Y436491D01*
X398616Y436472D01*
X398606Y436462D01*
X398567Y436427D01*
X398532Y436388D01*
X398473Y436300D01*
X398424Y436201D01*
X398385Y436103D01*
X398360Y436009D01*
X398350Y435970D01*
X398345Y435935D01*
X398335Y435906D01*
Y435886D01*
X398330Y435871D01*
Y435866D01*
X400082D01*
X400057Y435945D01*
X400033Y436014D01*
X400003Y436083D01*
X399974Y436142D01*
X399939Y436196D01*
X399910Y436245D01*
X399880Y436285D01*
X399851Y436324D01*
X399821Y436358D01*
X399797Y436388D01*
X399752Y436427D01*
X399723Y436452D01*
X399718Y436462D01*
X399713D01*
X399620Y436521D01*
X399521Y436560D01*
X399432Y436590D01*
X399344Y436614D01*
X399270Y436624D01*
X399241Y436629D01*
X399211D01*
X399191Y436634D01*
D02*
G37*
G36*
X410232Y435404D02*
Y434789D01*
X410306Y434671D01*
X410389Y434568D01*
X410473Y434484D01*
X410552Y434415D01*
X410626Y434361D01*
X410685Y434327D01*
X410709Y434312D01*
X410724Y434302D01*
X410734Y434297D01*
X410739D01*
X410857Y434248D01*
X410965Y434208D01*
X411068Y434184D01*
X411157Y434164D01*
X411236Y434154D01*
X411265Y434149D01*
X411290D01*
X411309Y434144D01*
X411339D01*
X411437Y434149D01*
X411521Y434164D01*
X411590Y434189D01*
X411649Y434213D01*
X411693Y434238D01*
X411728Y434263D01*
X411747Y434277D01*
X411752Y434282D01*
X411797Y434336D01*
X411831Y434390D01*
X411856Y434445D01*
X411870Y434499D01*
X411880Y434543D01*
X411890Y434578D01*
Y434597D01*
Y434607D01*
X411885Y434686D01*
X411870Y434755D01*
X411846Y434814D01*
X411821Y434868D01*
X411797Y434912D01*
X411772Y434946D01*
X411757Y434966D01*
X411752Y434971D01*
X411723Y435001D01*
X411688Y435025D01*
X411644Y435050D01*
X411600Y435070D01*
X411501Y435109D01*
X411398Y435138D01*
X411305Y435163D01*
X411265Y435168D01*
X411226Y435178D01*
X411196Y435183D01*
X411172D01*
X411157Y435188D01*
X411152D01*
X411078Y435197D01*
X411014Y435212D01*
X410950Y435222D01*
X410896Y435232D01*
X410842Y435242D01*
X410798Y435252D01*
X410719Y435266D01*
X410660Y435276D01*
X410621Y435286D01*
X410596Y435296D01*
X410586D01*
X410458Y435335D01*
X410399Y435350D01*
X410345Y435370D01*
X410301Y435384D01*
X410261Y435394D01*
X410242Y435399D01*
X410232Y435404D01*
D02*
G37*
G36*
X384308Y436112D02*
X383506D01*
X383359Y436103D01*
X383226Y436083D01*
X383103Y436049D01*
X383000Y436014D01*
X382950Y435994D01*
X382911Y435975D01*
X382877Y435960D01*
X382842Y435940D01*
X382823Y435930D01*
X382803Y435921D01*
X382793Y435911D01*
X382788D01*
X382729Y435871D01*
X382680Y435827D01*
X382636Y435773D01*
X382601Y435719D01*
X382567Y435665D01*
X382542Y435606D01*
X382503Y435493D01*
X382478Y435389D01*
X382473Y435340D01*
X382468Y435301D01*
X382463Y435271D01*
Y435242D01*
Y435227D01*
Y435222D01*
X382468Y435124D01*
X382478Y435030D01*
X382493Y434946D01*
X382508Y434868D01*
X382532Y434799D01*
X382557Y434735D01*
X382581Y434676D01*
X382611Y434627D01*
X382641Y434582D01*
X382665Y434548D01*
X382690Y434518D01*
X382714Y434494D01*
X382729Y434474D01*
X382744Y434459D01*
X382754Y434454D01*
X382759Y434450D01*
X382818Y434410D01*
X382877Y434381D01*
X383014Y434327D01*
X383152Y434292D01*
X383290Y434263D01*
X383349Y434258D01*
X383408Y434248D01*
X383462Y434243D01*
X383511D01*
X383546Y434238D01*
X384308D01*
Y436112D01*
D02*
G37*
G36*
X415796D02*
X414994D01*
X414847Y436103D01*
X414714Y436083D01*
X414591Y436049D01*
X414488Y436014D01*
X414438Y435994D01*
X414399Y435975D01*
X414365Y435960D01*
X414330Y435940D01*
X414311Y435930D01*
X414291Y435921D01*
X414281Y435911D01*
X414276D01*
X414217Y435871D01*
X414168Y435827D01*
X414124Y435773D01*
X414089Y435719D01*
X414055Y435665D01*
X414030Y435606D01*
X413991Y435493D01*
X413966Y435389D01*
X413961Y435340D01*
X413956Y435301D01*
X413951Y435271D01*
Y435242D01*
Y435227D01*
Y435222D01*
X413956Y435124D01*
X413966Y435030D01*
X413981Y434946D01*
X413996Y434868D01*
X414020Y434799D01*
X414045Y434735D01*
X414070Y434676D01*
X414099Y434627D01*
X414129Y434582D01*
X414153Y434548D01*
X414178Y434518D01*
X414202Y434494D01*
X414217Y434474D01*
X414232Y434459D01*
X414242Y434454D01*
X414247Y434450D01*
X414306Y434410D01*
X414365Y434381D01*
X414502Y434327D01*
X414640Y434292D01*
X414778Y434263D01*
X414837Y434258D01*
X414896Y434248D01*
X414950Y434243D01*
X414999D01*
X415034Y434238D01*
X415796D01*
Y436112D01*
D02*
G37*
%LPD*%
D13*
X404205Y428512D02*
Y432055D01*
X393969D02*
X404205D01*
Y413945D02*
Y417488D01*
X393969Y413945D02*
X404205D01*
X405000Y411000D02*
X405500D01*
X404000Y410000D02*
X405000Y411000D01*
X404000Y406000D02*
Y410000D01*
X402500Y404500D02*
X404000Y406000D01*
X402500Y404500D02*
Y406000D01*
Y404500D02*
X404000D01*
D38*
X330024Y360370D02*
G03*
X330024Y360370I-197J0D01*
G01*
Y404370D02*
G03*
X330024Y404370I-197J0D01*
G01*
Y382370D02*
G03*
X330024Y382370I-197J0D01*
G01*
D39*
X410528Y407264D02*
G03*
X409661Y406398I0J-866D01*
G01*
Y403602D02*
G03*
X410528Y402736I866J0D01*
G01*
X417339Y406398D02*
G03*
X416472Y407264I-866J0D01*
G01*
Y402736D02*
G03*
X417339Y403602I0J866D01*
G01*
X421736Y367528D02*
G03*
X422602Y366661I866J0D01*
G01*
X425398D02*
G03*
X426264Y367528I0J866D01*
G01*
X422602Y374339D02*
G03*
X421736Y373472I0J-866D01*
G01*
X426264D02*
G03*
X425398Y374339I-866J0D01*
G01*
X416528Y386264D02*
G03*
X415661Y385398I0J-866D01*
G01*
Y382602D02*
G03*
X416528Y381736I866J0D01*
G01*
X423339Y385398D02*
G03*
X422472Y386264I-866J0D01*
G01*
Y381736D02*
G03*
X423339Y382602I0J866D01*
G01*
X416110Y427468D02*
G03*
X414535Y429043I-1575J-0D01*
G01*
X411465Y429043D02*
G03*
X409890Y427468I0J-1575D01*
G01*
X409890Y418532D02*
G03*
X411465Y416957I1575J0D01*
G01*
X414535D02*
G03*
X416110Y418532I0J1575D01*
G01*
X387110Y426968D02*
G03*
X385535Y428543I-1575J-0D01*
G01*
X382465Y428543D02*
G03*
X380890Y426968I0J-1575D01*
G01*
X380890Y418032D02*
G03*
X382465Y416457I1575J0D01*
G01*
X385535D02*
G03*
X387110Y418032I0J1575D01*
G01*
X331402Y360370D02*
Y361039D01*
Y380961D02*
Y381630D01*
X356598Y360370D02*
Y361039D01*
Y380961D02*
Y381630D01*
X331402Y360370D02*
X334610D01*
X353390D02*
X356598D01*
X331402Y381630D02*
X334610D01*
X353390D02*
X356598D01*
X331402Y404370D02*
Y405039D01*
Y424961D02*
Y425630D01*
X356598Y404370D02*
Y405039D01*
Y424961D02*
Y425630D01*
X331402Y404370D02*
X334610D01*
X353390D02*
X356598D01*
X331402Y425630D02*
X334610D01*
X353390D02*
X356598D01*
X331402Y382370D02*
Y383039D01*
Y402961D02*
Y403630D01*
X356598Y382370D02*
Y383039D01*
Y402961D02*
Y403630D01*
X331402Y382370D02*
X334610D01*
X353390D02*
X356598D01*
X331402Y403630D02*
X334610D01*
X353390D02*
X356598D01*
X409661Y403602D02*
Y406398D01*
X410547Y407264D02*
X412319D01*
X410547Y402736D02*
X412319D01*
X414681Y407264D02*
X416453D01*
X414681Y402736D02*
X416453D01*
X417339Y403602D02*
Y406398D01*
X422602Y366661D02*
X425398D01*
X421736Y367547D02*
Y369319D01*
X426264Y367547D02*
Y369319D01*
X421736Y371681D02*
Y373453D01*
X426264Y371681D02*
Y373453D01*
X422602Y374339D02*
X425398D01*
X411681Y386264D02*
X414339D01*
X406661D02*
X409319D01*
X411681Y381736D02*
X414339D01*
X406661D02*
X409319D01*
X414339D02*
Y386264D01*
X406661Y381736D02*
Y386264D01*
X415661Y382602D02*
Y385398D01*
X416547Y386264D02*
X418319D01*
X416547Y381736D02*
X418319D01*
X420681Y386264D02*
X422453D01*
X420681Y381736D02*
X422453D01*
X423339Y382602D02*
Y385398D01*
X408898Y396468D02*
X421102D01*
X408898Y392531D02*
X421102D01*
X408898D02*
Y396468D01*
X421102Y392531D02*
Y396468D01*
X416110Y418532D02*
Y421425D01*
X411465Y429043D02*
X414535D01*
X411465Y416957D02*
X414535D01*
X416110Y424575D02*
Y427468D01*
X409890Y424575D02*
Y427468D01*
X409890Y418532D02*
Y421425D01*
X387110Y418032D02*
Y420925D01*
X382465Y428543D02*
X385535D01*
X382465Y416457D02*
X385535D01*
X387110Y424075D02*
Y426968D01*
X380890Y424075D02*
Y426968D01*
X380890Y418032D02*
Y420925D01*
X382744Y369787D02*
X388256D01*
X382744Y370969D02*
X388256D01*
X382744Y367032D02*
X388256D01*
Y370969D01*
X382744Y367032D02*
Y370969D01*
X377236Y366181D02*
Y368839D01*
Y361161D02*
Y363819D01*
X381764Y366181D02*
Y368839D01*
Y361161D02*
Y363819D01*
X377236Y368839D02*
X381764D01*
X377236Y361161D02*
X381764D01*
X397575Y366531D02*
Y371728D01*
Y375272D02*
Y380469D01*
X389425Y375272D02*
Y380469D01*
Y366531D02*
Y371728D01*
Y366531D02*
X397575D01*
X389425Y380469D02*
X397575D01*
X393787Y406744D02*
Y412256D01*
X394969Y406744D02*
Y412256D01*
X391032Y406744D02*
Y412256D01*
Y406744D02*
X394969D01*
X391032Y412256D02*
X394969D01*
X407075Y359110D02*
X411543D01*
X400382D02*
X403925D01*
X407075Y352890D02*
X411543D01*
X399594Y353650D02*
Y358350D01*
X411543Y352890D02*
Y359110D01*
X400382Y352890D02*
X403925D01*
X399594Y353650D02*
X400382Y352890D01*
X399594Y358350D02*
X400382Y359110D01*
X412661Y353736D02*
Y358264D01*
X420339Y353736D02*
Y358264D01*
X412661Y353736D02*
X415319D01*
X417681D02*
X420339D01*
X412661Y358264D02*
X415319D01*
X417681D02*
X420339D01*
D40*
X422579Y389087D02*
G03*
X422579Y389087I-492J0D01*
G01*
D41*
X410874Y376752D02*
G03*
X410874Y376752I-1181J0D01*
G01*
X399457Y379949D02*
Y380736D01*
X419929D01*
Y380263D02*
Y380736D01*
Y366086D02*
Y374915D01*
Y360264D02*
Y360738D01*
X399457Y360264D02*
X419929Y360264D01*
X399457Y360264D02*
Y360738D01*
Y366086D02*
Y379949D01*
X400244Y376752D02*
X403394Y379903D01*
X414780Y368500D02*
X418780D01*
X416780Y366500D02*
X416780Y370500D01*
D42*
X419801Y394500D02*
D03*
D43*
X398315Y356000D02*
D03*
%TF.MD5,B8218E7C719F54DE09912F2287B8C2A0*%
M02*
