G04 Layer_Color=0*
%FSLAX25Y25*%
%MOIN*%
%TF.FileFunction,PTH,Drill*%
%TF.Part,Single*%
G01*
G75*
%TA.AperFunction,OtherDrill*%
%ADD81C,0.09843*%
%TA.AperFunction,ViaDrill*%
%ADD82C,0.01000*%
D81*
X447736Y393701D02*
D03*
X393701D02*
D03*
X366683Y346905D02*
D03*
X366683Y440497D02*
D03*
D82*
X351000Y385500D02*
D03*
Y387500D02*
D03*
Y389500D02*
D03*
X404000Y382000D02*
D03*
X410500Y397000D02*
D03*
X371000Y366500D02*
D03*
X373000D02*
D03*
Y368500D02*
D03*
X371000D02*
D03*
X369000D02*
D03*
Y366500D02*
D03*
X367000D02*
D03*
Y368500D02*
D03*
Y370500D02*
D03*
X369000D02*
D03*
X371000D02*
D03*
X373000D02*
D03*
Y372500D02*
D03*
X371000D02*
D03*
X369000D02*
D03*
X367000D02*
D03*
Y374500D02*
D03*
X369000D02*
D03*
X371000D02*
D03*
X373000D02*
D03*
Y376500D02*
D03*
X371000D02*
D03*
X369000D02*
D03*
X367000D02*
D03*
Y378500D02*
D03*
X369000D02*
D03*
X371000D02*
D03*
X373000D02*
D03*
Y380500D02*
D03*
X371000D02*
D03*
X369000D02*
D03*
X367000D02*
D03*
Y382500D02*
D03*
X369000D02*
D03*
X371000D02*
D03*
X373000D02*
D03*
X365000Y366500D02*
D03*
Y368500D02*
D03*
Y370500D02*
D03*
Y372500D02*
D03*
Y374500D02*
D03*
Y376500D02*
D03*
Y378500D02*
D03*
Y380500D02*
D03*
Y382500D02*
D03*
Y384500D02*
D03*
X367000D02*
D03*
X369000D02*
D03*
X371000D02*
D03*
X373000D02*
D03*
Y386500D02*
D03*
X371000D02*
D03*
X369000D02*
D03*
X367000D02*
D03*
D03*
X365000D02*
D03*
X363000D02*
D03*
Y384500D02*
D03*
Y382500D02*
D03*
Y380500D02*
D03*
Y378500D02*
D03*
Y376500D02*
D03*
Y374500D02*
D03*
Y372500D02*
D03*
Y370500D02*
D03*
Y368500D02*
D03*
Y366500D02*
D03*
X359000D02*
D03*
X361000D02*
D03*
X359000Y368500D02*
D03*
Y370500D02*
D03*
Y372500D02*
D03*
Y374500D02*
D03*
Y376500D02*
D03*
Y378500D02*
D03*
Y380500D02*
D03*
Y382500D02*
D03*
X361000Y368500D02*
D03*
Y370500D02*
D03*
Y372500D02*
D03*
Y374500D02*
D03*
Y376500D02*
D03*
Y378500D02*
D03*
Y380500D02*
D03*
Y382500D02*
D03*
Y384500D02*
D03*
Y386500D02*
D03*
X373000Y388500D02*
D03*
X371000D02*
D03*
X369000D02*
D03*
X367000D02*
D03*
Y390500D02*
D03*
X369000D02*
D03*
X371000D02*
D03*
X373000D02*
D03*
Y392500D02*
D03*
X371000D02*
D03*
X369000D02*
D03*
X367000D02*
D03*
X365000D02*
D03*
Y390500D02*
D03*
Y388500D02*
D03*
X363000D02*
D03*
Y390500D02*
D03*
Y392500D02*
D03*
X365000Y394500D02*
D03*
X363000D02*
D03*
X367000D02*
D03*
X369000D02*
D03*
X371000D02*
D03*
X373000D02*
D03*
Y396500D02*
D03*
X371000D02*
D03*
D03*
X369000D02*
D03*
X367000D02*
D03*
X365000D02*
D03*
X363000D02*
D03*
X361000D02*
D03*
Y394500D02*
D03*
Y392500D02*
D03*
Y390500D02*
D03*
Y388500D02*
D03*
X359000D02*
D03*
Y390500D02*
D03*
Y392500D02*
D03*
Y394500D02*
D03*
Y396500D02*
D03*
X373000Y398500D02*
D03*
X371000D02*
D03*
X369000D02*
D03*
X367000D02*
D03*
Y400500D02*
D03*
X369000D02*
D03*
X371000D02*
D03*
X373000D02*
D03*
Y402500D02*
D03*
X371000D02*
D03*
X369000D02*
D03*
X367000D02*
D03*
X365000D02*
D03*
Y400500D02*
D03*
Y398500D02*
D03*
X363000D02*
D03*
Y400500D02*
D03*
Y402500D02*
D03*
X361000Y398500D02*
D03*
Y400500D02*
D03*
X359000Y398500D02*
D03*
Y400500D02*
D03*
Y402500D02*
D03*
Y404500D02*
D03*
X361000Y402500D02*
D03*
X373000Y404500D02*
D03*
X371000D02*
D03*
X369000D02*
D03*
X367000D02*
D03*
X365000D02*
D03*
X363000D02*
D03*
X373000Y406500D02*
D03*
X371000D02*
D03*
Y408500D02*
D03*
X373000D02*
D03*
Y410500D02*
D03*
X371000D02*
D03*
Y412500D02*
D03*
X373000D02*
D03*
Y414500D02*
D03*
X371000D02*
D03*
X373000Y416500D02*
D03*
X371000D02*
D03*
Y418500D02*
D03*
X373000D02*
D03*
Y422500D02*
D03*
Y420500D02*
D03*
X371000D02*
D03*
Y422500D02*
D03*
X369000Y406500D02*
D03*
X367000D02*
D03*
X365000D02*
D03*
X363000D02*
D03*
X361000Y404500D02*
D03*
Y406500D02*
D03*
Y408500D02*
D03*
X363000D02*
D03*
X365000D02*
D03*
X367000D02*
D03*
X369000D02*
D03*
X367000Y410500D02*
D03*
X369000D02*
D03*
Y412500D02*
D03*
X367000D02*
D03*
X365000D02*
D03*
Y410500D02*
D03*
X363000D02*
D03*
Y412500D02*
D03*
X367000Y414500D02*
D03*
X369000D02*
D03*
Y416500D02*
D03*
X367000D02*
D03*
Y418500D02*
D03*
X369000D02*
D03*
Y420500D02*
D03*
Y422500D02*
D03*
X367000Y420500D02*
D03*
Y422500D02*
D03*
X365000D02*
D03*
Y420500D02*
D03*
Y418500D02*
D03*
Y416500D02*
D03*
Y414500D02*
D03*
X363000D02*
D03*
Y416500D02*
D03*
Y418500D02*
D03*
Y420500D02*
D03*
Y422500D02*
D03*
X361000D02*
D03*
Y420500D02*
D03*
Y418500D02*
D03*
Y416500D02*
D03*
Y414500D02*
D03*
Y412500D02*
D03*
Y410500D02*
D03*
X359000D02*
D03*
Y412500D02*
D03*
Y414500D02*
D03*
Y416500D02*
D03*
Y418500D02*
D03*
Y420500D02*
D03*
Y422500D02*
D03*
Y408500D02*
D03*
Y406500D02*
D03*
Y386500D02*
D03*
Y384500D02*
D03*
X357000Y404500D02*
D03*
X355000D02*
D03*
X353000D02*
D03*
X351000D02*
D03*
X349000D02*
D03*
X347000D02*
D03*
X345000D02*
D03*
X343000D02*
D03*
X341000D02*
D03*
X357000Y382500D02*
D03*
X355000D02*
D03*
X353000D02*
D03*
X351000D02*
D03*
X349000D02*
D03*
X347000D02*
D03*
X345000D02*
D03*
X343000D02*
D03*
X341000D02*
D03*
X373000Y364500D02*
D03*
X371000D02*
D03*
X369000D02*
D03*
X367000D02*
D03*
X365000D02*
D03*
X363000D02*
D03*
X361000D02*
D03*
X359000D02*
D03*
X351000Y407500D02*
D03*
X349000D02*
D03*
X347000D02*
D03*
X345000D02*
D03*
X343000D02*
D03*
X341000D02*
D03*
Y409500D02*
D03*
X343000D02*
D03*
X345000D02*
D03*
X347000D02*
D03*
X349000D02*
D03*
X351000D02*
D03*
Y411500D02*
D03*
X349000D02*
D03*
X347000D02*
D03*
X345000D02*
D03*
X343000D02*
D03*
X341000D02*
D03*
X349000Y385500D02*
D03*
X347000D02*
D03*
X345000D02*
D03*
X343000D02*
D03*
X341000D02*
D03*
Y387500D02*
D03*
X343000D02*
D03*
X345000D02*
D03*
X347000D02*
D03*
X349000D02*
D03*
Y389500D02*
D03*
X347000D02*
D03*
X345000D02*
D03*
X343000D02*
D03*
X341000D02*
D03*
%TF.MD5,FA7CAA76269DB525BC9DF85F96000D22*%
M02*
