G04 Layer_Color=16711935*
%FSLAX25Y25*%
%MOIN*%
%TF.FileFunction,Soldermask,Bot*%
%TF.Part,Single*%
G01*
G75*
%ADD13C,0.01000*%
%ADD31R,0.16500X0.17000*%
%TA.AperFunction,ConnectorPad*%
%ADD37C,0.20079*%
%ADD44C,0.11811*%
%ADD45R,0.30000X0.25500*%
%ADD46R,0.06500X0.59000*%
%ADD47R,0.17000X0.12500*%
%ADD48R,0.20000X0.11000*%
%ADD49R,0.27500X0.12000*%
%ADD50R,0.34500X0.14000*%
%ADD51R,0.44500X0.33000*%
%ADD52R,0.20000X0.14500*%
%ADD53R,0.14500X0.12000*%
%ADD54R,0.31500X0.37000*%
%ADD55R,0.57000X0.14500*%
%ADD56R,0.03000X0.04000*%
%ADD57R,0.67500X0.17500*%
%ADD58R,0.10000X0.10500*%
%ADD59R,0.15000X0.12000*%
%ADD60R,0.08500X0.27500*%
%ADD61R,0.25000X0.36000*%
%ADD62R,0.08500X0.10000*%
%ADD63R,0.12000X0.22500*%
%ADD64R,0.23500X0.35000*%
%ADD65R,0.11811X0.47244*%
%TA.AperFunction,SMDPad*%
%ADD66R,0.05328X0.02572*%
%TA.AperFunction,SMDPad*%
%ADD67R,0.02762X0.02959*%
%TA.AperFunction,SMDPad*%
%ADD68R,0.02959X0.02762*%
%TA.AperFunction,SMDPad*%
%ADD69R,0.03162X0.04737*%
%TA.AperFunction,SMDPad*%
%ADD70R,0.04658X0.04461*%
%TA.AperFunction,SMDPad*%
%ADD71O,0.14579X0.08674*%
%TA.AperFunction,SMDPad*%
%ADD72O,0.09068X0.03556*%
%TA.AperFunction,SMDPad*%
%ADD73O,0.08280X0.03556*%
%TA.AperFunction,SMDPad*%
%ADD74R,0.04737X0.05721*%
%TA.AperFunction,SMDPad*%
%ADD75R,0.06587X0.05367*%
%TA.AperFunction,SMDPad*%
%ADD76R,0.05721X0.04737*%
%TA.AperFunction,SMDPad*%
%ADD77R,0.04461X0.04658*%
%TA.AperFunction,SMDPad*%
%ADD78R,0.07887X0.04737*%
%TA.AperFunction,SMDPad*%
%ADD79R,0.07886X0.04737*%
%TA.AperFunction,ConnectorPad*%
%ADD80C,0.24016*%
D13*
X421000Y440000D02*
G03*
X417379Y441500I-3621J-3621D01*
G01*
X422000Y437586D02*
G03*
X421000Y440000I-3414J0D01*
G01*
X422000Y417414D02*
G03*
X423000Y415000I3414J0D01*
G01*
X422000Y417414D02*
Y437586D01*
D31*
X347750Y371000D02*
D03*
Y415000D02*
D03*
Y393000D02*
D03*
D37*
X447736Y393701D02*
D03*
X366683Y346905D02*
D03*
X366683Y440497D02*
D03*
D44*
X470902Y393701D02*
G03*
X470902Y393701I-77201J0D01*
G01*
D45*
X450000Y367250D02*
D03*
D46*
X324750Y394000D02*
D03*
D47*
X388000Y351750D02*
D03*
D48*
X426500Y333500D02*
D03*
D49*
X432750Y341500D02*
D03*
D50*
X441250Y351000D02*
D03*
D51*
X401750Y335500D02*
D03*
D52*
X452500Y430750D02*
D03*
D53*
X456250Y419000D02*
D03*
D54*
X437250Y431500D02*
D03*
D55*
X402500Y460250D02*
D03*
D56*
X433000Y448500D02*
D03*
D57*
X407750Y448250D02*
D03*
D58*
X343500Y343750D02*
D03*
D59*
X338500Y352000D02*
D03*
D60*
X350250Y344250D02*
D03*
D61*
X367000Y340000D02*
D03*
D62*
X335750Y434000D02*
D03*
D63*
X345000Y440250D02*
D03*
D64*
X362750Y446500D02*
D03*
D65*
X367094Y392878D02*
D03*
D66*
X332740Y363500D02*
D03*
Y368500D02*
D03*
Y373500D02*
D03*
Y378500D02*
D03*
X355260Y363500D02*
D03*
Y368500D02*
D03*
Y373500D02*
D03*
Y378500D02*
D03*
X332740Y407500D02*
D03*
Y412500D02*
D03*
Y417500D02*
D03*
Y422500D02*
D03*
X355260Y407500D02*
D03*
Y412500D02*
D03*
Y417500D02*
D03*
Y422500D02*
D03*
X332740Y385500D02*
D03*
Y390500D02*
D03*
Y395500D02*
D03*
Y400500D02*
D03*
X355260Y385500D02*
D03*
Y390500D02*
D03*
Y395500D02*
D03*
Y400500D02*
D03*
D67*
X411827Y405000D02*
D03*
X415173D02*
D03*
X408827Y384000D02*
D03*
X412173D02*
D03*
X417827D02*
D03*
X421173D02*
D03*
X418173Y356000D02*
D03*
X414827D02*
D03*
D68*
X424000Y368827D02*
D03*
Y372173D02*
D03*
X379500Y363327D02*
D03*
Y366673D02*
D03*
D69*
X418740Y399913D02*
D03*
X415000D02*
D03*
X411260D02*
D03*
Y389087D02*
D03*
X415000D02*
D03*
X418740D02*
D03*
D70*
X413000Y419969D02*
D03*
Y426031D02*
D03*
X384000Y419468D02*
D03*
Y425531D02*
D03*
D71*
X401842Y423000D02*
D03*
D72*
X392394D02*
D03*
D73*
X392000Y428905D02*
D03*
Y417095D02*
D03*
D74*
X385500Y374807D02*
D03*
Y363193D02*
D03*
D75*
X393500Y377004D02*
D03*
Y369996D02*
D03*
D76*
X398807Y409500D02*
D03*
X387193D02*
D03*
D77*
X408532Y356000D02*
D03*
X402468D02*
D03*
D78*
X417969Y377588D02*
D03*
D79*
X418359Y363411D02*
D03*
X401027D02*
D03*
D80*
X393701Y393701D02*
D03*
%TF.MD5,4CBA637C5DB0DFEFBA13F6CFB9F68CEF*%
M02*
