G04 Layer_Color=128*
%FSLAX25Y25*%
%MOIN*%
%TF.FileFunction,Drillmap*%
%TF.Part,Single*%
G01*
G75*
%ADD83C,0.00500*%
D83*
X442815Y393701D02*
X452658D01*
X447736Y388779D02*
Y398622D01*
X388779Y393701D02*
X398622D01*
X393701Y388779D02*
Y398622D01*
X361762Y346905D02*
X371604D01*
X366683Y341984D02*
Y351826D01*
X361762Y440497D02*
X371604D01*
X366683Y435576D02*
Y445418D01*
X350500Y385500D02*
X351500D01*
X351000Y385000D02*
Y386000D01*
X350500Y387500D02*
X351500D01*
X351000Y387000D02*
Y388000D01*
X350500Y389500D02*
X351500D01*
X351000Y389000D02*
Y390000D01*
X403500Y382000D02*
X404500D01*
X404000Y381500D02*
Y382500D01*
X410000Y397000D02*
X411000D01*
X410500Y396500D02*
Y397500D01*
X370500Y366500D02*
X371500D01*
X371000Y366000D02*
Y367000D01*
X372500Y366500D02*
X373500D01*
X373000Y366000D02*
Y367000D01*
X372500Y368500D02*
X373500D01*
X373000Y368000D02*
Y369000D01*
X370500Y368500D02*
X371500D01*
X371000Y368000D02*
Y369000D01*
X368500Y368500D02*
X369500D01*
X369000Y368000D02*
Y369000D01*
X368500Y366500D02*
X369500D01*
X369000Y366000D02*
Y367000D01*
X366500Y366500D02*
X367500D01*
X367000Y366000D02*
Y367000D01*
X366500Y368500D02*
X367500D01*
X367000Y368000D02*
Y369000D01*
X366500Y370500D02*
X367500D01*
X367000Y370000D02*
Y371000D01*
X368500Y370500D02*
X369500D01*
X369000Y370000D02*
Y371000D01*
X370500Y370500D02*
X371500D01*
X371000Y370000D02*
Y371000D01*
X372500Y370500D02*
X373500D01*
X373000Y370000D02*
Y371000D01*
X372500Y372500D02*
X373500D01*
X373000Y372000D02*
Y373000D01*
X370500Y372500D02*
X371500D01*
X371000Y372000D02*
Y373000D01*
X368500Y372500D02*
X369500D01*
X369000Y372000D02*
Y373000D01*
X366500Y372500D02*
X367500D01*
X367000Y372000D02*
Y373000D01*
X366500Y374500D02*
X367500D01*
X367000Y374000D02*
Y375000D01*
X368500Y374500D02*
X369500D01*
X369000Y374000D02*
Y375000D01*
X370500Y374500D02*
X371500D01*
X371000Y374000D02*
Y375000D01*
X372500Y374500D02*
X373500D01*
X373000Y374000D02*
Y375000D01*
X372500Y376500D02*
X373500D01*
X373000Y376000D02*
Y377000D01*
X370500Y376500D02*
X371500D01*
X371000Y376000D02*
Y377000D01*
X368500Y376500D02*
X369500D01*
X369000Y376000D02*
Y377000D01*
X366500Y376500D02*
X367500D01*
X367000Y376000D02*
Y377000D01*
X366500Y378500D02*
X367500D01*
X367000Y378000D02*
Y379000D01*
X368500Y378500D02*
X369500D01*
X369000Y378000D02*
Y379000D01*
X370500Y378500D02*
X371500D01*
X371000Y378000D02*
Y379000D01*
X372500Y378500D02*
X373500D01*
X373000Y378000D02*
Y379000D01*
X372500Y380500D02*
X373500D01*
X373000Y380000D02*
Y381000D01*
X370500Y380500D02*
X371500D01*
X371000Y380000D02*
Y381000D01*
X368500Y380500D02*
X369500D01*
X369000Y380000D02*
Y381000D01*
X366500Y380500D02*
X367500D01*
X367000Y380000D02*
Y381000D01*
X366500Y382500D02*
X367500D01*
X367000Y382000D02*
Y383000D01*
X368500Y382500D02*
X369500D01*
X369000Y382000D02*
Y383000D01*
X370500Y382500D02*
X371500D01*
X371000Y382000D02*
Y383000D01*
X372500Y382500D02*
X373500D01*
X373000Y382000D02*
Y383000D01*
X364500Y366500D02*
X365500D01*
X365000Y366000D02*
Y367000D01*
X364500Y368500D02*
X365500D01*
X365000Y368000D02*
Y369000D01*
X364500Y370500D02*
X365500D01*
X365000Y370000D02*
Y371000D01*
X364500Y372500D02*
X365500D01*
X365000Y372000D02*
Y373000D01*
X364500Y374500D02*
X365500D01*
X365000Y374000D02*
Y375000D01*
X364500Y376500D02*
X365500D01*
X365000Y376000D02*
Y377000D01*
X364500Y378500D02*
X365500D01*
X365000Y378000D02*
Y379000D01*
X364500Y380500D02*
X365500D01*
X365000Y380000D02*
Y381000D01*
X364500Y382500D02*
X365500D01*
X365000Y382000D02*
Y383000D01*
X364500Y384500D02*
X365500D01*
X365000Y384000D02*
Y385000D01*
X366500Y384500D02*
X367500D01*
X367000Y384000D02*
Y385000D01*
X368500Y384500D02*
X369500D01*
X369000Y384000D02*
Y385000D01*
X370500Y384500D02*
X371500D01*
X371000Y384000D02*
Y385000D01*
X372500Y384500D02*
X373500D01*
X373000Y384000D02*
Y385000D01*
X372500Y386500D02*
X373500D01*
X373000Y386000D02*
Y387000D01*
X370500Y386500D02*
X371500D01*
X371000Y386000D02*
Y387000D01*
X368500Y386500D02*
X369500D01*
X369000Y386000D02*
Y387000D01*
X366500Y386500D02*
X367500D01*
X367000Y386000D02*
Y387000D01*
X366500Y386500D02*
X367500D01*
X367000Y386000D02*
Y387000D01*
X364500Y386500D02*
X365500D01*
X365000Y386000D02*
Y387000D01*
X362500Y386500D02*
X363500D01*
X363000Y386000D02*
Y387000D01*
X362500Y384500D02*
X363500D01*
X363000Y384000D02*
Y385000D01*
X362500Y382500D02*
X363500D01*
X363000Y382000D02*
Y383000D01*
X362500Y380500D02*
X363500D01*
X363000Y380000D02*
Y381000D01*
X362500Y378500D02*
X363500D01*
X363000Y378000D02*
Y379000D01*
X362500Y376500D02*
X363500D01*
X363000Y376000D02*
Y377000D01*
X362500Y374500D02*
X363500D01*
X363000Y374000D02*
Y375000D01*
X362500Y372500D02*
X363500D01*
X363000Y372000D02*
Y373000D01*
X362500Y370500D02*
X363500D01*
X363000Y370000D02*
Y371000D01*
X362500Y368500D02*
X363500D01*
X363000Y368000D02*
Y369000D01*
X362500Y366500D02*
X363500D01*
X363000Y366000D02*
Y367000D01*
X358500Y366500D02*
X359500D01*
X359000Y366000D02*
Y367000D01*
X360500Y366500D02*
X361500D01*
X361000Y366000D02*
Y367000D01*
X358500Y368500D02*
X359500D01*
X359000Y368000D02*
Y369000D01*
X358500Y370500D02*
X359500D01*
X359000Y370000D02*
Y371000D01*
X358500Y372500D02*
X359500D01*
X359000Y372000D02*
Y373000D01*
X358500Y374500D02*
X359500D01*
X359000Y374000D02*
Y375000D01*
X358500Y376500D02*
X359500D01*
X359000Y376000D02*
Y377000D01*
X358500Y378500D02*
X359500D01*
X359000Y378000D02*
Y379000D01*
X358500Y380500D02*
X359500D01*
X359000Y380000D02*
Y381000D01*
X358500Y382500D02*
X359500D01*
X359000Y382000D02*
Y383000D01*
X360500Y368500D02*
X361500D01*
X361000Y368000D02*
Y369000D01*
X360500Y370500D02*
X361500D01*
X361000Y370000D02*
Y371000D01*
X360500Y372500D02*
X361500D01*
X361000Y372000D02*
Y373000D01*
X360500Y374500D02*
X361500D01*
X361000Y374000D02*
Y375000D01*
X360500Y376500D02*
X361500D01*
X361000Y376000D02*
Y377000D01*
X360500Y378500D02*
X361500D01*
X361000Y378000D02*
Y379000D01*
X360500Y380500D02*
X361500D01*
X361000Y380000D02*
Y381000D01*
X360500Y382500D02*
X361500D01*
X361000Y382000D02*
Y383000D01*
X360500Y384500D02*
X361500D01*
X361000Y384000D02*
Y385000D01*
X360500Y386500D02*
X361500D01*
X361000Y386000D02*
Y387000D01*
X372500Y388500D02*
X373500D01*
X373000Y388000D02*
Y389000D01*
X370500Y388500D02*
X371500D01*
X371000Y388000D02*
Y389000D01*
X368500Y388500D02*
X369500D01*
X369000Y388000D02*
Y389000D01*
X366500Y388500D02*
X367500D01*
X367000Y388000D02*
Y389000D01*
X366500Y390500D02*
X367500D01*
X367000Y390000D02*
Y391000D01*
X368500Y390500D02*
X369500D01*
X369000Y390000D02*
Y391000D01*
X370500Y390500D02*
X371500D01*
X371000Y390000D02*
Y391000D01*
X372500Y390500D02*
X373500D01*
X373000Y390000D02*
Y391000D01*
X372500Y392500D02*
X373500D01*
X373000Y392000D02*
Y393000D01*
X370500Y392500D02*
X371500D01*
X371000Y392000D02*
Y393000D01*
X368500Y392500D02*
X369500D01*
X369000Y392000D02*
Y393000D01*
X366500Y392500D02*
X367500D01*
X367000Y392000D02*
Y393000D01*
X364500Y392500D02*
X365500D01*
X365000Y392000D02*
Y393000D01*
X364500Y390500D02*
X365500D01*
X365000Y390000D02*
Y391000D01*
X364500Y388500D02*
X365500D01*
X365000Y388000D02*
Y389000D01*
X362500Y388500D02*
X363500D01*
X363000Y388000D02*
Y389000D01*
X362500Y390500D02*
X363500D01*
X363000Y390000D02*
Y391000D01*
X362500Y392500D02*
X363500D01*
X363000Y392000D02*
Y393000D01*
X364500Y394500D02*
X365500D01*
X365000Y394000D02*
Y395000D01*
X362500Y394500D02*
X363500D01*
X363000Y394000D02*
Y395000D01*
X366500Y394500D02*
X367500D01*
X367000Y394000D02*
Y395000D01*
X368500Y394500D02*
X369500D01*
X369000Y394000D02*
Y395000D01*
X370500Y394500D02*
X371500D01*
X371000Y394000D02*
Y395000D01*
X372500Y394500D02*
X373500D01*
X373000Y394000D02*
Y395000D01*
X372500Y396500D02*
X373500D01*
X373000Y396000D02*
Y397000D01*
X370500Y396500D02*
X371500D01*
X371000Y396000D02*
Y397000D01*
X370500Y396500D02*
X371500D01*
X371000Y396000D02*
Y397000D01*
X368500Y396500D02*
X369500D01*
X369000Y396000D02*
Y397000D01*
X366500Y396500D02*
X367500D01*
X367000Y396000D02*
Y397000D01*
X364500Y396500D02*
X365500D01*
X365000Y396000D02*
Y397000D01*
X362500Y396500D02*
X363500D01*
X363000Y396000D02*
Y397000D01*
X360500Y396500D02*
X361500D01*
X361000Y396000D02*
Y397000D01*
X360500Y394500D02*
X361500D01*
X361000Y394000D02*
Y395000D01*
X360500Y392500D02*
X361500D01*
X361000Y392000D02*
Y393000D01*
X360500Y390500D02*
X361500D01*
X361000Y390000D02*
Y391000D01*
X360500Y388500D02*
X361500D01*
X361000Y388000D02*
Y389000D01*
X358500Y388500D02*
X359500D01*
X359000Y388000D02*
Y389000D01*
X358500Y390500D02*
X359500D01*
X359000Y390000D02*
Y391000D01*
X358500Y392500D02*
X359500D01*
X359000Y392000D02*
Y393000D01*
X358500Y394500D02*
X359500D01*
X359000Y394000D02*
Y395000D01*
X358500Y396500D02*
X359500D01*
X359000Y396000D02*
Y397000D01*
X372500Y398500D02*
X373500D01*
X373000Y398000D02*
Y399000D01*
X370500Y398500D02*
X371500D01*
X371000Y398000D02*
Y399000D01*
X368500Y398500D02*
X369500D01*
X369000Y398000D02*
Y399000D01*
X366500Y398500D02*
X367500D01*
X367000Y398000D02*
Y399000D01*
X366500Y400500D02*
X367500D01*
X367000Y400000D02*
Y401000D01*
X368500Y400500D02*
X369500D01*
X369000Y400000D02*
Y401000D01*
X370500Y400500D02*
X371500D01*
X371000Y400000D02*
Y401000D01*
X372500Y400500D02*
X373500D01*
X373000Y400000D02*
Y401000D01*
X372500Y402500D02*
X373500D01*
X373000Y402000D02*
Y403000D01*
X370500Y402500D02*
X371500D01*
X371000Y402000D02*
Y403000D01*
X368500Y402500D02*
X369500D01*
X369000Y402000D02*
Y403000D01*
X366500Y402500D02*
X367500D01*
X367000Y402000D02*
Y403000D01*
X364500Y402500D02*
X365500D01*
X365000Y402000D02*
Y403000D01*
X364500Y400500D02*
X365500D01*
X365000Y400000D02*
Y401000D01*
X364500Y398500D02*
X365500D01*
X365000Y398000D02*
Y399000D01*
X362500Y398500D02*
X363500D01*
X363000Y398000D02*
Y399000D01*
X362500Y400500D02*
X363500D01*
X363000Y400000D02*
Y401000D01*
X362500Y402500D02*
X363500D01*
X363000Y402000D02*
Y403000D01*
X360500Y398500D02*
X361500D01*
X361000Y398000D02*
Y399000D01*
X360500Y400500D02*
X361500D01*
X361000Y400000D02*
Y401000D01*
X358500Y398500D02*
X359500D01*
X359000Y398000D02*
Y399000D01*
X358500Y400500D02*
X359500D01*
X359000Y400000D02*
Y401000D01*
X358500Y402500D02*
X359500D01*
X359000Y402000D02*
Y403000D01*
X358500Y404500D02*
X359500D01*
X359000Y404000D02*
Y405000D01*
X360500Y402500D02*
X361500D01*
X361000Y402000D02*
Y403000D01*
X372500Y404500D02*
X373500D01*
X373000Y404000D02*
Y405000D01*
X370500Y404500D02*
X371500D01*
X371000Y404000D02*
Y405000D01*
X368500Y404500D02*
X369500D01*
X369000Y404000D02*
Y405000D01*
X366500Y404500D02*
X367500D01*
X367000Y404000D02*
Y405000D01*
X364500Y404500D02*
X365500D01*
X365000Y404000D02*
Y405000D01*
X362500Y404500D02*
X363500D01*
X363000Y404000D02*
Y405000D01*
X372500Y406500D02*
X373500D01*
X373000Y406000D02*
Y407000D01*
X370500Y406500D02*
X371500D01*
X371000Y406000D02*
Y407000D01*
X370500Y408500D02*
X371500D01*
X371000Y408000D02*
Y409000D01*
X372500Y408500D02*
X373500D01*
X373000Y408000D02*
Y409000D01*
X372500Y410500D02*
X373500D01*
X373000Y410000D02*
Y411000D01*
X370500Y410500D02*
X371500D01*
X371000Y410000D02*
Y411000D01*
X370500Y412500D02*
X371500D01*
X371000Y412000D02*
Y413000D01*
X372500Y412500D02*
X373500D01*
X373000Y412000D02*
Y413000D01*
X372500Y414500D02*
X373500D01*
X373000Y414000D02*
Y415000D01*
X370500Y414500D02*
X371500D01*
X371000Y414000D02*
Y415000D01*
X372500Y416500D02*
X373500D01*
X373000Y416000D02*
Y417000D01*
X370500Y416500D02*
X371500D01*
X371000Y416000D02*
Y417000D01*
X370500Y418500D02*
X371500D01*
X371000Y418000D02*
Y419000D01*
X372500Y418500D02*
X373500D01*
X373000Y418000D02*
Y419000D01*
X372500Y422500D02*
X373500D01*
X373000Y422000D02*
Y423000D01*
X372500Y420500D02*
X373500D01*
X373000Y420000D02*
Y421000D01*
X370500Y420500D02*
X371500D01*
X371000Y420000D02*
Y421000D01*
X370500Y422500D02*
X371500D01*
X371000Y422000D02*
Y423000D01*
X368500Y406500D02*
X369500D01*
X369000Y406000D02*
Y407000D01*
X366500Y406500D02*
X367500D01*
X367000Y406000D02*
Y407000D01*
X364500Y406500D02*
X365500D01*
X365000Y406000D02*
Y407000D01*
X362500Y406500D02*
X363500D01*
X363000Y406000D02*
Y407000D01*
X360500Y404500D02*
X361500D01*
X361000Y404000D02*
Y405000D01*
X360500Y406500D02*
X361500D01*
X361000Y406000D02*
Y407000D01*
X360500Y408500D02*
X361500D01*
X361000Y408000D02*
Y409000D01*
X362500Y408500D02*
X363500D01*
X363000Y408000D02*
Y409000D01*
X364500Y408500D02*
X365500D01*
X365000Y408000D02*
Y409000D01*
X366500Y408500D02*
X367500D01*
X367000Y408000D02*
Y409000D01*
X368500Y408500D02*
X369500D01*
X369000Y408000D02*
Y409000D01*
X366500Y410500D02*
X367500D01*
X367000Y410000D02*
Y411000D01*
X368500Y410500D02*
X369500D01*
X369000Y410000D02*
Y411000D01*
X368500Y412500D02*
X369500D01*
X369000Y412000D02*
Y413000D01*
X366500Y412500D02*
X367500D01*
X367000Y412000D02*
Y413000D01*
X364500Y412500D02*
X365500D01*
X365000Y412000D02*
Y413000D01*
X364500Y410500D02*
X365500D01*
X365000Y410000D02*
Y411000D01*
X362500Y410500D02*
X363500D01*
X363000Y410000D02*
Y411000D01*
X362500Y412500D02*
X363500D01*
X363000Y412000D02*
Y413000D01*
X366500Y414500D02*
X367500D01*
X367000Y414000D02*
Y415000D01*
X368500Y414500D02*
X369500D01*
X369000Y414000D02*
Y415000D01*
X368500Y416500D02*
X369500D01*
X369000Y416000D02*
Y417000D01*
X366500Y416500D02*
X367500D01*
X367000Y416000D02*
Y417000D01*
X366500Y418500D02*
X367500D01*
X367000Y418000D02*
Y419000D01*
X368500Y418500D02*
X369500D01*
X369000Y418000D02*
Y419000D01*
X368500Y420500D02*
X369500D01*
X369000Y420000D02*
Y421000D01*
X368500Y422500D02*
X369500D01*
X369000Y422000D02*
Y423000D01*
X366500Y420500D02*
X367500D01*
X367000Y420000D02*
Y421000D01*
X366500Y422500D02*
X367500D01*
X367000Y422000D02*
Y423000D01*
X364500Y422500D02*
X365500D01*
X365000Y422000D02*
Y423000D01*
X364500Y420500D02*
X365500D01*
X365000Y420000D02*
Y421000D01*
X364500Y418500D02*
X365500D01*
X365000Y418000D02*
Y419000D01*
X364500Y416500D02*
X365500D01*
X365000Y416000D02*
Y417000D01*
X364500Y414500D02*
X365500D01*
X365000Y414000D02*
Y415000D01*
X362500Y414500D02*
X363500D01*
X363000Y414000D02*
Y415000D01*
X362500Y416500D02*
X363500D01*
X363000Y416000D02*
Y417000D01*
X362500Y418500D02*
X363500D01*
X363000Y418000D02*
Y419000D01*
X362500Y420500D02*
X363500D01*
X363000Y420000D02*
Y421000D01*
X362500Y422500D02*
X363500D01*
X363000Y422000D02*
Y423000D01*
X360500Y422500D02*
X361500D01*
X361000Y422000D02*
Y423000D01*
X360500Y420500D02*
X361500D01*
X361000Y420000D02*
Y421000D01*
X360500Y418500D02*
X361500D01*
X361000Y418000D02*
Y419000D01*
X360500Y416500D02*
X361500D01*
X361000Y416000D02*
Y417000D01*
X360500Y414500D02*
X361500D01*
X361000Y414000D02*
Y415000D01*
X360500Y412500D02*
X361500D01*
X361000Y412000D02*
Y413000D01*
X360500Y410500D02*
X361500D01*
X361000Y410000D02*
Y411000D01*
X358500Y410500D02*
X359500D01*
X359000Y410000D02*
Y411000D01*
X358500Y412500D02*
X359500D01*
X359000Y412000D02*
Y413000D01*
X358500Y414500D02*
X359500D01*
X359000Y414000D02*
Y415000D01*
X358500Y416500D02*
X359500D01*
X359000Y416000D02*
Y417000D01*
X358500Y418500D02*
X359500D01*
X359000Y418000D02*
Y419000D01*
X358500Y420500D02*
X359500D01*
X359000Y420000D02*
Y421000D01*
X358500Y422500D02*
X359500D01*
X359000Y422000D02*
Y423000D01*
X358500Y408500D02*
X359500D01*
X359000Y408000D02*
Y409000D01*
X358500Y406500D02*
X359500D01*
X359000Y406000D02*
Y407000D01*
X358500Y386500D02*
X359500D01*
X359000Y386000D02*
Y387000D01*
X358500Y384500D02*
X359500D01*
X359000Y384000D02*
Y385000D01*
X356500Y404500D02*
X357500D01*
X357000Y404000D02*
Y405000D01*
X354500Y404500D02*
X355500D01*
X355000Y404000D02*
Y405000D01*
X352500Y404500D02*
X353500D01*
X353000Y404000D02*
Y405000D01*
X350500Y404500D02*
X351500D01*
X351000Y404000D02*
Y405000D01*
X348500Y404500D02*
X349500D01*
X349000Y404000D02*
Y405000D01*
X346500Y404500D02*
X347500D01*
X347000Y404000D02*
Y405000D01*
X344500Y404500D02*
X345500D01*
X345000Y404000D02*
Y405000D01*
X342500Y404500D02*
X343500D01*
X343000Y404000D02*
Y405000D01*
X340500Y404500D02*
X341500D01*
X341000Y404000D02*
Y405000D01*
X356500Y382500D02*
X357500D01*
X357000Y382000D02*
Y383000D01*
X354500Y382500D02*
X355500D01*
X355000Y382000D02*
Y383000D01*
X352500Y382500D02*
X353500D01*
X353000Y382000D02*
Y383000D01*
X350500Y382500D02*
X351500D01*
X351000Y382000D02*
Y383000D01*
X348500Y382500D02*
X349500D01*
X349000Y382000D02*
Y383000D01*
X346500Y382500D02*
X347500D01*
X347000Y382000D02*
Y383000D01*
X344500Y382500D02*
X345500D01*
X345000Y382000D02*
Y383000D01*
X342500Y382500D02*
X343500D01*
X343000Y382000D02*
Y383000D01*
X340500Y382500D02*
X341500D01*
X341000Y382000D02*
Y383000D01*
X372500Y364500D02*
X373500D01*
X373000Y364000D02*
Y365000D01*
X370500Y364500D02*
X371500D01*
X371000Y364000D02*
Y365000D01*
X368500Y364500D02*
X369500D01*
X369000Y364000D02*
Y365000D01*
X366500Y364500D02*
X367500D01*
X367000Y364000D02*
Y365000D01*
X364500Y364500D02*
X365500D01*
X365000Y364000D02*
Y365000D01*
X362500Y364500D02*
X363500D01*
X363000Y364000D02*
Y365000D01*
X360500Y364500D02*
X361500D01*
X361000Y364000D02*
Y365000D01*
X358500Y364500D02*
X359500D01*
X359000Y364000D02*
Y365000D01*
X350500Y407500D02*
X351500D01*
X351000Y407000D02*
Y408000D01*
X348500Y407500D02*
X349500D01*
X349000Y407000D02*
Y408000D01*
X346500Y407500D02*
X347500D01*
X347000Y407000D02*
Y408000D01*
X344500Y407500D02*
X345500D01*
X345000Y407000D02*
Y408000D01*
X342500Y407500D02*
X343500D01*
X343000Y407000D02*
Y408000D01*
X340500Y407500D02*
X341500D01*
X341000Y407000D02*
Y408000D01*
X340500Y409500D02*
X341500D01*
X341000Y409000D02*
Y410000D01*
X342500Y409500D02*
X343500D01*
X343000Y409000D02*
Y410000D01*
X344500Y409500D02*
X345500D01*
X345000Y409000D02*
Y410000D01*
X346500Y409500D02*
X347500D01*
X347000Y409000D02*
Y410000D01*
X348500Y409500D02*
X349500D01*
X349000Y409000D02*
Y410000D01*
X350500Y409500D02*
X351500D01*
X351000Y409000D02*
Y410000D01*
X350500Y411500D02*
X351500D01*
X351000Y411000D02*
Y412000D01*
X348500Y411500D02*
X349500D01*
X349000Y411000D02*
Y412000D01*
X346500Y411500D02*
X347500D01*
X347000Y411000D02*
Y412000D01*
X344500Y411500D02*
X345500D01*
X345000Y411000D02*
Y412000D01*
X342500Y411500D02*
X343500D01*
X343000Y411000D02*
Y412000D01*
X340500Y411500D02*
X341500D01*
X341000Y411000D02*
Y412000D01*
X348500Y385500D02*
X349500D01*
X349000Y385000D02*
Y386000D01*
X346500Y385500D02*
X347500D01*
X347000Y385000D02*
Y386000D01*
X344500Y385500D02*
X345500D01*
X345000Y385000D02*
Y386000D01*
X342500Y385500D02*
X343500D01*
X343000Y385000D02*
Y386000D01*
X340500Y385500D02*
X341500D01*
X341000Y385000D02*
Y386000D01*
X340500Y387500D02*
X341500D01*
X341000Y387000D02*
Y388000D01*
X342500Y387500D02*
X343500D01*
X343000Y387000D02*
Y388000D01*
X344500Y387500D02*
X345500D01*
X345000Y387000D02*
Y388000D01*
X346500Y387500D02*
X347500D01*
X347000Y387000D02*
Y388000D01*
X348500Y387500D02*
X349500D01*
X349000Y387000D02*
Y388000D01*
X348500Y389500D02*
X349500D01*
X349000Y389000D02*
Y390000D01*
X346500Y389500D02*
X347500D01*
X347000Y389000D02*
Y390000D01*
X344500Y389500D02*
X345500D01*
X345000Y389000D02*
Y390000D01*
X342500Y389500D02*
X343500D01*
X343000Y389000D02*
Y390000D01*
X340500Y389500D02*
X341500D01*
X341000Y389000D02*
Y390000D01*
%TF.MD5,E29C30A966E1AE48ADDB1EC70F76D48A*%
M02*
