G04 Layer_Color=2752767*
%FSLAX25Y25*%
%MOIN*%
%TF.FileFunction,Drawing*%
%TF.Part,Single*%
G01*
G75*
%ADD83C,0.00500*%
%ADD84C,0.00667*%
D83*
X445736Y391701D02*
Y395701D01*
X449736D01*
Y391701D01*
X445736D01*
X391701D02*
Y395701D01*
X395701D01*
Y391701D01*
X391701D01*
X364683Y344905D02*
Y348905D01*
X368683D01*
Y344905D01*
X364683D01*
X364683Y438497D02*
Y442497D01*
X368683D01*
Y438497D01*
X364683D01*
D84*
X353000Y385500D02*
G03*
X353000Y385500I-2000J0D01*
G01*
Y387500D02*
G03*
X353000Y387500I-2000J0D01*
G01*
Y389500D02*
G03*
X353000Y389500I-2000J0D01*
G01*
X406000Y382000D02*
G03*
X406000Y382000I-2000J0D01*
G01*
X412500Y397000D02*
G03*
X412500Y397000I-2000J0D01*
G01*
X373000Y366500D02*
G03*
X373000Y366500I-2000J0D01*
G01*
X375000D02*
G03*
X375000Y366500I-2000J0D01*
G01*
Y368500D02*
G03*
X375000Y368500I-2000J0D01*
G01*
X373000D02*
G03*
X373000Y368500I-2000J0D01*
G01*
X371000D02*
G03*
X371000Y368500I-2000J0D01*
G01*
Y366500D02*
G03*
X371000Y366500I-2000J0D01*
G01*
X369000D02*
G03*
X369000Y366500I-2000J0D01*
G01*
Y368500D02*
G03*
X369000Y368500I-2000J0D01*
G01*
Y370500D02*
G03*
X369000Y370500I-2000J0D01*
G01*
X371000D02*
G03*
X371000Y370500I-2000J0D01*
G01*
X373000D02*
G03*
X373000Y370500I-2000J0D01*
G01*
X375000D02*
G03*
X375000Y370500I-2000J0D01*
G01*
Y372500D02*
G03*
X375000Y372500I-2000J0D01*
G01*
X373000D02*
G03*
X373000Y372500I-2000J0D01*
G01*
X371000D02*
G03*
X371000Y372500I-2000J0D01*
G01*
X369000D02*
G03*
X369000Y372500I-2000J0D01*
G01*
Y374500D02*
G03*
X369000Y374500I-2000J0D01*
G01*
X371000D02*
G03*
X371000Y374500I-2000J0D01*
G01*
X373000D02*
G03*
X373000Y374500I-2000J0D01*
G01*
X375000D02*
G03*
X375000Y374500I-2000J0D01*
G01*
Y376500D02*
G03*
X375000Y376500I-2000J0D01*
G01*
X373000D02*
G03*
X373000Y376500I-2000J0D01*
G01*
X371000D02*
G03*
X371000Y376500I-2000J0D01*
G01*
X369000D02*
G03*
X369000Y376500I-2000J0D01*
G01*
Y378500D02*
G03*
X369000Y378500I-2000J0D01*
G01*
X371000D02*
G03*
X371000Y378500I-2000J0D01*
G01*
X373000D02*
G03*
X373000Y378500I-2000J0D01*
G01*
X375000D02*
G03*
X375000Y378500I-2000J0D01*
G01*
Y380500D02*
G03*
X375000Y380500I-2000J0D01*
G01*
X373000D02*
G03*
X373000Y380500I-2000J0D01*
G01*
X371000D02*
G03*
X371000Y380500I-2000J0D01*
G01*
X369000D02*
G03*
X369000Y380500I-2000J0D01*
G01*
Y382500D02*
G03*
X369000Y382500I-2000J0D01*
G01*
X371000D02*
G03*
X371000Y382500I-2000J0D01*
G01*
X373000D02*
G03*
X373000Y382500I-2000J0D01*
G01*
X375000D02*
G03*
X375000Y382500I-2000J0D01*
G01*
X367000Y366500D02*
G03*
X367000Y366500I-2000J0D01*
G01*
Y368500D02*
G03*
X367000Y368500I-2000J0D01*
G01*
Y370500D02*
G03*
X367000Y370500I-2000J0D01*
G01*
Y372500D02*
G03*
X367000Y372500I-2000J0D01*
G01*
Y374500D02*
G03*
X367000Y374500I-2000J0D01*
G01*
Y376500D02*
G03*
X367000Y376500I-2000J0D01*
G01*
Y378500D02*
G03*
X367000Y378500I-2000J0D01*
G01*
Y380500D02*
G03*
X367000Y380500I-2000J0D01*
G01*
Y382500D02*
G03*
X367000Y382500I-2000J0D01*
G01*
Y384500D02*
G03*
X367000Y384500I-2000J0D01*
G01*
X369000D02*
G03*
X369000Y384500I-2000J0D01*
G01*
X371000D02*
G03*
X371000Y384500I-2000J0D01*
G01*
X373000D02*
G03*
X373000Y384500I-2000J0D01*
G01*
X375000D02*
G03*
X375000Y384500I-2000J0D01*
G01*
Y386500D02*
G03*
X375000Y386500I-2000J0D01*
G01*
X373000D02*
G03*
X373000Y386500I-2000J0D01*
G01*
X371000D02*
G03*
X371000Y386500I-2000J0D01*
G01*
X369000D02*
G03*
X369000Y386500I-2000J0D01*
G01*
D02*
G03*
X369000Y386500I-2000J0D01*
G01*
X367000D02*
G03*
X367000Y386500I-2000J0D01*
G01*
X365000D02*
G03*
X365000Y386500I-2000J0D01*
G01*
Y384500D02*
G03*
X365000Y384500I-2000J0D01*
G01*
Y382500D02*
G03*
X365000Y382500I-2000J0D01*
G01*
Y380500D02*
G03*
X365000Y380500I-2000J0D01*
G01*
Y378500D02*
G03*
X365000Y378500I-2000J0D01*
G01*
Y376500D02*
G03*
X365000Y376500I-2000J0D01*
G01*
Y374500D02*
G03*
X365000Y374500I-2000J0D01*
G01*
Y372500D02*
G03*
X365000Y372500I-2000J0D01*
G01*
Y370500D02*
G03*
X365000Y370500I-2000J0D01*
G01*
Y368500D02*
G03*
X365000Y368500I-2000J0D01*
G01*
Y366500D02*
G03*
X365000Y366500I-2000J0D01*
G01*
X361000D02*
G03*
X361000Y366500I-2000J0D01*
G01*
X363000D02*
G03*
X363000Y366500I-2000J0D01*
G01*
X361000Y368500D02*
G03*
X361000Y368500I-2000J0D01*
G01*
Y370500D02*
G03*
X361000Y370500I-2000J0D01*
G01*
Y372500D02*
G03*
X361000Y372500I-2000J0D01*
G01*
Y374500D02*
G03*
X361000Y374500I-2000J0D01*
G01*
Y376500D02*
G03*
X361000Y376500I-2000J0D01*
G01*
Y378500D02*
G03*
X361000Y378500I-2000J0D01*
G01*
Y380500D02*
G03*
X361000Y380500I-2000J0D01*
G01*
Y382500D02*
G03*
X361000Y382500I-2000J0D01*
G01*
X363000Y368500D02*
G03*
X363000Y368500I-2000J0D01*
G01*
Y370500D02*
G03*
X363000Y370500I-2000J0D01*
G01*
Y372500D02*
G03*
X363000Y372500I-2000J0D01*
G01*
Y374500D02*
G03*
X363000Y374500I-2000J0D01*
G01*
Y376500D02*
G03*
X363000Y376500I-2000J0D01*
G01*
Y378500D02*
G03*
X363000Y378500I-2000J0D01*
G01*
Y380500D02*
G03*
X363000Y380500I-2000J0D01*
G01*
Y382500D02*
G03*
X363000Y382500I-2000J0D01*
G01*
Y384500D02*
G03*
X363000Y384500I-2000J0D01*
G01*
Y386500D02*
G03*
X363000Y386500I-2000J0D01*
G01*
X375000Y388500D02*
G03*
X375000Y388500I-2000J0D01*
G01*
X373000D02*
G03*
X373000Y388500I-2000J0D01*
G01*
X371000D02*
G03*
X371000Y388500I-2000J0D01*
G01*
X369000D02*
G03*
X369000Y388500I-2000J0D01*
G01*
Y390500D02*
G03*
X369000Y390500I-2000J0D01*
G01*
X371000D02*
G03*
X371000Y390500I-2000J0D01*
G01*
X373000D02*
G03*
X373000Y390500I-2000J0D01*
G01*
X375000D02*
G03*
X375000Y390500I-2000J0D01*
G01*
Y392500D02*
G03*
X375000Y392500I-2000J0D01*
G01*
X373000D02*
G03*
X373000Y392500I-2000J0D01*
G01*
X371000D02*
G03*
X371000Y392500I-2000J0D01*
G01*
X369000D02*
G03*
X369000Y392500I-2000J0D01*
G01*
X367000D02*
G03*
X367000Y392500I-2000J0D01*
G01*
Y390500D02*
G03*
X367000Y390500I-2000J0D01*
G01*
Y388500D02*
G03*
X367000Y388500I-2000J0D01*
G01*
X365000D02*
G03*
X365000Y388500I-2000J0D01*
G01*
Y390500D02*
G03*
X365000Y390500I-2000J0D01*
G01*
Y392500D02*
G03*
X365000Y392500I-2000J0D01*
G01*
X367000Y394500D02*
G03*
X367000Y394500I-2000J0D01*
G01*
X365000D02*
G03*
X365000Y394500I-2000J0D01*
G01*
X369000D02*
G03*
X369000Y394500I-2000J0D01*
G01*
X371000D02*
G03*
X371000Y394500I-2000J0D01*
G01*
X373000D02*
G03*
X373000Y394500I-2000J0D01*
G01*
X375000D02*
G03*
X375000Y394500I-2000J0D01*
G01*
Y396500D02*
G03*
X375000Y396500I-2000J0D01*
G01*
X373000D02*
G03*
X373000Y396500I-2000J0D01*
G01*
D02*
G03*
X373000Y396500I-2000J0D01*
G01*
X371000D02*
G03*
X371000Y396500I-2000J0D01*
G01*
X369000D02*
G03*
X369000Y396500I-2000J0D01*
G01*
X367000D02*
G03*
X367000Y396500I-2000J0D01*
G01*
X365000D02*
G03*
X365000Y396500I-2000J0D01*
G01*
X363000D02*
G03*
X363000Y396500I-2000J0D01*
G01*
Y394500D02*
G03*
X363000Y394500I-2000J0D01*
G01*
Y392500D02*
G03*
X363000Y392500I-2000J0D01*
G01*
Y390500D02*
G03*
X363000Y390500I-2000J0D01*
G01*
Y388500D02*
G03*
X363000Y388500I-2000J0D01*
G01*
X361000D02*
G03*
X361000Y388500I-2000J0D01*
G01*
Y390500D02*
G03*
X361000Y390500I-2000J0D01*
G01*
Y392500D02*
G03*
X361000Y392500I-2000J0D01*
G01*
Y394500D02*
G03*
X361000Y394500I-2000J0D01*
G01*
Y396500D02*
G03*
X361000Y396500I-2000J0D01*
G01*
X375000Y398500D02*
G03*
X375000Y398500I-2000J0D01*
G01*
X373000D02*
G03*
X373000Y398500I-2000J0D01*
G01*
X371000D02*
G03*
X371000Y398500I-2000J0D01*
G01*
X369000D02*
G03*
X369000Y398500I-2000J0D01*
G01*
Y400500D02*
G03*
X369000Y400500I-2000J0D01*
G01*
X371000D02*
G03*
X371000Y400500I-2000J0D01*
G01*
X373000D02*
G03*
X373000Y400500I-2000J0D01*
G01*
X375000D02*
G03*
X375000Y400500I-2000J0D01*
G01*
Y402500D02*
G03*
X375000Y402500I-2000J0D01*
G01*
X373000D02*
G03*
X373000Y402500I-2000J0D01*
G01*
X371000D02*
G03*
X371000Y402500I-2000J0D01*
G01*
X369000D02*
G03*
X369000Y402500I-2000J0D01*
G01*
X367000D02*
G03*
X367000Y402500I-2000J0D01*
G01*
Y400500D02*
G03*
X367000Y400500I-2000J0D01*
G01*
Y398500D02*
G03*
X367000Y398500I-2000J0D01*
G01*
X365000D02*
G03*
X365000Y398500I-2000J0D01*
G01*
Y400500D02*
G03*
X365000Y400500I-2000J0D01*
G01*
Y402500D02*
G03*
X365000Y402500I-2000J0D01*
G01*
X363000Y398500D02*
G03*
X363000Y398500I-2000J0D01*
G01*
Y400500D02*
G03*
X363000Y400500I-2000J0D01*
G01*
X361000Y398500D02*
G03*
X361000Y398500I-2000J0D01*
G01*
Y400500D02*
G03*
X361000Y400500I-2000J0D01*
G01*
Y402500D02*
G03*
X361000Y402500I-2000J0D01*
G01*
Y404500D02*
G03*
X361000Y404500I-2000J0D01*
G01*
X363000Y402500D02*
G03*
X363000Y402500I-2000J0D01*
G01*
X375000Y404500D02*
G03*
X375000Y404500I-2000J0D01*
G01*
X373000D02*
G03*
X373000Y404500I-2000J0D01*
G01*
X371000D02*
G03*
X371000Y404500I-2000J0D01*
G01*
X369000D02*
G03*
X369000Y404500I-2000J0D01*
G01*
X367000D02*
G03*
X367000Y404500I-2000J0D01*
G01*
X365000D02*
G03*
X365000Y404500I-2000J0D01*
G01*
X375000Y406500D02*
G03*
X375000Y406500I-2000J0D01*
G01*
X373000D02*
G03*
X373000Y406500I-2000J0D01*
G01*
Y408500D02*
G03*
X373000Y408500I-2000J0D01*
G01*
X375000D02*
G03*
X375000Y408500I-2000J0D01*
G01*
Y410500D02*
G03*
X375000Y410500I-2000J0D01*
G01*
X373000D02*
G03*
X373000Y410500I-2000J0D01*
G01*
Y412500D02*
G03*
X373000Y412500I-2000J0D01*
G01*
X375000D02*
G03*
X375000Y412500I-2000J0D01*
G01*
Y414500D02*
G03*
X375000Y414500I-2000J0D01*
G01*
X373000D02*
G03*
X373000Y414500I-2000J0D01*
G01*
X375000Y416500D02*
G03*
X375000Y416500I-2000J0D01*
G01*
X373000D02*
G03*
X373000Y416500I-2000J0D01*
G01*
Y418500D02*
G03*
X373000Y418500I-2000J0D01*
G01*
X375000D02*
G03*
X375000Y418500I-2000J0D01*
G01*
Y422500D02*
G03*
X375000Y422500I-2000J0D01*
G01*
Y420500D02*
G03*
X375000Y420500I-2000J0D01*
G01*
X373000D02*
G03*
X373000Y420500I-2000J0D01*
G01*
Y422500D02*
G03*
X373000Y422500I-2000J0D01*
G01*
X371000Y406500D02*
G03*
X371000Y406500I-2000J0D01*
G01*
X369000D02*
G03*
X369000Y406500I-2000J0D01*
G01*
X367000D02*
G03*
X367000Y406500I-2000J0D01*
G01*
X365000D02*
G03*
X365000Y406500I-2000J0D01*
G01*
X363000Y404500D02*
G03*
X363000Y404500I-2000J0D01*
G01*
Y406500D02*
G03*
X363000Y406500I-2000J0D01*
G01*
Y408500D02*
G03*
X363000Y408500I-2000J0D01*
G01*
X365000D02*
G03*
X365000Y408500I-2000J0D01*
G01*
X367000D02*
G03*
X367000Y408500I-2000J0D01*
G01*
X369000D02*
G03*
X369000Y408500I-2000J0D01*
G01*
X371000D02*
G03*
X371000Y408500I-2000J0D01*
G01*
X369000Y410500D02*
G03*
X369000Y410500I-2000J0D01*
G01*
X371000D02*
G03*
X371000Y410500I-2000J0D01*
G01*
Y412500D02*
G03*
X371000Y412500I-2000J0D01*
G01*
X369000D02*
G03*
X369000Y412500I-2000J0D01*
G01*
X367000D02*
G03*
X367000Y412500I-2000J0D01*
G01*
Y410500D02*
G03*
X367000Y410500I-2000J0D01*
G01*
X365000D02*
G03*
X365000Y410500I-2000J0D01*
G01*
Y412500D02*
G03*
X365000Y412500I-2000J0D01*
G01*
X369000Y414500D02*
G03*
X369000Y414500I-2000J0D01*
G01*
X371000D02*
G03*
X371000Y414500I-2000J0D01*
G01*
Y416500D02*
G03*
X371000Y416500I-2000J0D01*
G01*
X369000D02*
G03*
X369000Y416500I-2000J0D01*
G01*
Y418500D02*
G03*
X369000Y418500I-2000J0D01*
G01*
X371000D02*
G03*
X371000Y418500I-2000J0D01*
G01*
Y420500D02*
G03*
X371000Y420500I-2000J0D01*
G01*
Y422500D02*
G03*
X371000Y422500I-2000J0D01*
G01*
X369000Y420500D02*
G03*
X369000Y420500I-2000J0D01*
G01*
Y422500D02*
G03*
X369000Y422500I-2000J0D01*
G01*
X367000D02*
G03*
X367000Y422500I-2000J0D01*
G01*
Y420500D02*
G03*
X367000Y420500I-2000J0D01*
G01*
Y418500D02*
G03*
X367000Y418500I-2000J0D01*
G01*
Y416500D02*
G03*
X367000Y416500I-2000J0D01*
G01*
Y414500D02*
G03*
X367000Y414500I-2000J0D01*
G01*
X365000D02*
G03*
X365000Y414500I-2000J0D01*
G01*
Y416500D02*
G03*
X365000Y416500I-2000J0D01*
G01*
Y418500D02*
G03*
X365000Y418500I-2000J0D01*
G01*
Y420500D02*
G03*
X365000Y420500I-2000J0D01*
G01*
Y422500D02*
G03*
X365000Y422500I-2000J0D01*
G01*
X363000D02*
G03*
X363000Y422500I-2000J0D01*
G01*
Y420500D02*
G03*
X363000Y420500I-2000J0D01*
G01*
Y418500D02*
G03*
X363000Y418500I-2000J0D01*
G01*
Y416500D02*
G03*
X363000Y416500I-2000J0D01*
G01*
Y414500D02*
G03*
X363000Y414500I-2000J0D01*
G01*
Y412500D02*
G03*
X363000Y412500I-2000J0D01*
G01*
Y410500D02*
G03*
X363000Y410500I-2000J0D01*
G01*
X361000D02*
G03*
X361000Y410500I-2000J0D01*
G01*
Y412500D02*
G03*
X361000Y412500I-2000J0D01*
G01*
Y414500D02*
G03*
X361000Y414500I-2000J0D01*
G01*
Y416500D02*
G03*
X361000Y416500I-2000J0D01*
G01*
Y418500D02*
G03*
X361000Y418500I-2000J0D01*
G01*
Y420500D02*
G03*
X361000Y420500I-2000J0D01*
G01*
Y422500D02*
G03*
X361000Y422500I-2000J0D01*
G01*
Y408500D02*
G03*
X361000Y408500I-2000J0D01*
G01*
Y406500D02*
G03*
X361000Y406500I-2000J0D01*
G01*
Y386500D02*
G03*
X361000Y386500I-2000J0D01*
G01*
Y384500D02*
G03*
X361000Y384500I-2000J0D01*
G01*
X359000Y404500D02*
G03*
X359000Y404500I-2000J0D01*
G01*
X357000D02*
G03*
X357000Y404500I-2000J0D01*
G01*
X355000D02*
G03*
X355000Y404500I-2000J0D01*
G01*
X353000D02*
G03*
X353000Y404500I-2000J0D01*
G01*
X351000D02*
G03*
X351000Y404500I-2000J0D01*
G01*
X349000D02*
G03*
X349000Y404500I-2000J0D01*
G01*
X347000D02*
G03*
X347000Y404500I-2000J0D01*
G01*
X345000D02*
G03*
X345000Y404500I-2000J0D01*
G01*
X343000D02*
G03*
X343000Y404500I-2000J0D01*
G01*
X359000Y382500D02*
G03*
X359000Y382500I-2000J0D01*
G01*
X357000D02*
G03*
X357000Y382500I-2000J0D01*
G01*
X355000D02*
G03*
X355000Y382500I-2000J0D01*
G01*
X353000D02*
G03*
X353000Y382500I-2000J0D01*
G01*
X351000D02*
G03*
X351000Y382500I-2000J0D01*
G01*
X349000D02*
G03*
X349000Y382500I-2000J0D01*
G01*
X347000D02*
G03*
X347000Y382500I-2000J0D01*
G01*
X345000D02*
G03*
X345000Y382500I-2000J0D01*
G01*
X343000D02*
G03*
X343000Y382500I-2000J0D01*
G01*
X375000Y364500D02*
G03*
X375000Y364500I-2000J0D01*
G01*
X373000D02*
G03*
X373000Y364500I-2000J0D01*
G01*
X371000D02*
G03*
X371000Y364500I-2000J0D01*
G01*
X369000D02*
G03*
X369000Y364500I-2000J0D01*
G01*
X367000D02*
G03*
X367000Y364500I-2000J0D01*
G01*
X365000D02*
G03*
X365000Y364500I-2000J0D01*
G01*
X363000D02*
G03*
X363000Y364500I-2000J0D01*
G01*
X361000D02*
G03*
X361000Y364500I-2000J0D01*
G01*
X353000Y407500D02*
G03*
X353000Y407500I-2000J0D01*
G01*
X351000D02*
G03*
X351000Y407500I-2000J0D01*
G01*
X349000D02*
G03*
X349000Y407500I-2000J0D01*
G01*
X347000D02*
G03*
X347000Y407500I-2000J0D01*
G01*
X345000D02*
G03*
X345000Y407500I-2000J0D01*
G01*
X343000D02*
G03*
X343000Y407500I-2000J0D01*
G01*
Y409500D02*
G03*
X343000Y409500I-2000J0D01*
G01*
X345000D02*
G03*
X345000Y409500I-2000J0D01*
G01*
X347000D02*
G03*
X347000Y409500I-2000J0D01*
G01*
X349000D02*
G03*
X349000Y409500I-2000J0D01*
G01*
X351000D02*
G03*
X351000Y409500I-2000J0D01*
G01*
X353000D02*
G03*
X353000Y409500I-2000J0D01*
G01*
Y411500D02*
G03*
X353000Y411500I-2000J0D01*
G01*
X351000D02*
G03*
X351000Y411500I-2000J0D01*
G01*
X349000D02*
G03*
X349000Y411500I-2000J0D01*
G01*
X347000D02*
G03*
X347000Y411500I-2000J0D01*
G01*
X345000D02*
G03*
X345000Y411500I-2000J0D01*
G01*
X343000D02*
G03*
X343000Y411500I-2000J0D01*
G01*
X351000Y385500D02*
G03*
X351000Y385500I-2000J0D01*
G01*
X349000D02*
G03*
X349000Y385500I-2000J0D01*
G01*
X347000D02*
G03*
X347000Y385500I-2000J0D01*
G01*
X345000D02*
G03*
X345000Y385500I-2000J0D01*
G01*
X343000D02*
G03*
X343000Y385500I-2000J0D01*
G01*
Y387500D02*
G03*
X343000Y387500I-2000J0D01*
G01*
X345000D02*
G03*
X345000Y387500I-2000J0D01*
G01*
X347000D02*
G03*
X347000Y387500I-2000J0D01*
G01*
X349000D02*
G03*
X349000Y387500I-2000J0D01*
G01*
X351000D02*
G03*
X351000Y387500I-2000J0D01*
G01*
Y389500D02*
G03*
X351000Y389500I-2000J0D01*
G01*
X349000D02*
G03*
X349000Y389500I-2000J0D01*
G01*
X347000D02*
G03*
X347000Y389500I-2000J0D01*
G01*
X345000D02*
G03*
X345000Y389500I-2000J0D01*
G01*
X343000D02*
G03*
X343000Y389500I-2000J0D01*
G01*
%TF.MD5,A7A210E94AB05232F2A285B49A528298*%
M02*
