G04 Layer_Physical_Order=1*
G04 Layer_Color=255*
%FSLAX25Y25*%
%MOIN*%
%TF.FileFunction,Copper,L1,Top,Signal*%
%TF.Part,Single*%
G01*
G75*
%TA.AperFunction,ConnectorPad*%
%ADD10C,0.31890*%
%TA.AperFunction,ConnectorPad*%
G04:AMPARAMS|DCode=11|XSize=480.31mil|YSize=433.07mil|CornerRadius=64.96mil|HoleSize=0mil|Usage=FLASHONLY|Rotation=0.000|XOffset=0mil|YOffset=0mil|HoleType=Round|Shape=RoundedRectangle|*
%AMROUNDEDRECTD11*
21,1,0.48031,0.30315,0,0,0.0*
21,1,0.35039,0.43307,0,0,0.0*
1,1,0.12992,0.17520,-0.15157*
1,1,0.12992,-0.17520,-0.15157*
1,1,0.12992,-0.17520,0.15157*
1,1,0.12992,0.17520,0.15157*
%
%ADD11ROUNDEDRECTD11*%
%TA.AperFunction,ConnectorPad*%
G04:AMPARAMS|DCode=12|XSize=472.44mil|YSize=433.07mil|CornerRadius=64.96mil|HoleSize=0mil|Usage=FLASHONLY|Rotation=120.000|XOffset=0mil|YOffset=0mil|HoleType=Round|Shape=RoundedRectangle|*
%AMROUNDEDRECTD12*
21,1,0.47244,0.30315,0,0,120.0*
21,1,0.34252,0.43307,0,0,120.0*
1,1,0.12992,0.04564,0.22410*
1,1,0.12992,0.21690,-0.07253*
1,1,0.12992,-0.04564,-0.22410*
1,1,0.12992,-0.21690,0.07253*
%
%ADD12ROUNDEDRECTD12*%
%TA.AperFunction,ConnectorPad*%
%ADD13C,0.19685*%
%TA.AperFunction,ViaPad*%
%ADD14C,0.01800*%
G36*
X382000Y473293D02*
Y409023D01*
X381963Y408998D01*
X380067Y407335D01*
X378404Y405439D01*
X377002Y403342D01*
X375887Y401080D01*
X375076Y398691D01*
X374584Y396218D01*
X374419Y393701D01*
X374584Y391184D01*
X375076Y388710D01*
X375887Y386322D01*
X377002Y384060D01*
X378404Y381963D01*
X380067Y380067D01*
X381963Y378404D01*
X382000Y378379D01*
Y314109D01*
X381619Y313785D01*
X377926Y314395D01*
X372773Y315597D01*
X367709Y317133D01*
X362757Y318996D01*
X357938Y321180D01*
X353271Y323675D01*
X348778Y326469D01*
X344477Y329551D01*
X340387Y332908D01*
X336525Y336525D01*
X332908Y340387D01*
X329551Y344477D01*
X326469Y348778D01*
X323675Y353271D01*
X321180Y357938D01*
X318996Y362757D01*
X317133Y367709D01*
X315597Y372773D01*
X314395Y377926D01*
X313533Y383147D01*
X313015Y388412D01*
X312841Y393701D01*
X313015Y398989D01*
X313533Y404255D01*
X314395Y409476D01*
X315597Y414629D01*
X317133Y419692D01*
X318996Y424644D01*
X321180Y429464D01*
X323675Y434130D01*
X326469Y438624D01*
X329551Y442925D01*
X332908Y447015D01*
X336525Y450877D01*
X340387Y454494D01*
X344477Y457851D01*
X348778Y460933D01*
X353271Y463727D01*
X357938Y466221D01*
X362757Y468405D01*
X367709Y470269D01*
X372773Y471805D01*
X377926Y473006D01*
X381619Y473616D01*
X382000Y473293D01*
D02*
G37*
G36*
X398989Y474387D02*
X404255Y473869D01*
X409476Y473006D01*
X414629Y471805D01*
X419692Y470269D01*
X424644Y468405D01*
X429464Y466221D01*
X434130Y463727D01*
X438624Y460933D01*
X442925Y457851D01*
X447015Y454494D01*
X450877Y450877D01*
X454494Y447015D01*
X457851Y442925D01*
X460933Y438624D01*
X463727Y434130D01*
X466221Y429464D01*
X468405Y424644D01*
X469351Y422130D01*
X470269Y419692D01*
X471805Y414629D01*
X473006Y409476D01*
X473869Y404255D01*
X474387Y398989D01*
X474560Y393701D01*
X474387Y388412D01*
X473869Y383147D01*
X473006Y377926D01*
X471805Y372773D01*
X470269Y367709D01*
X468405Y362757D01*
X466739Y359080D01*
X466221Y357938D01*
X463727Y353271D01*
X460933Y348778D01*
X457851Y344477D01*
X454494Y340387D01*
X450877Y336525D01*
X447015Y332908D01*
X442925Y329551D01*
X438624Y326469D01*
X434130Y323675D01*
X429464Y321180D01*
X424644Y318996D01*
X419692Y317133D01*
X414629Y315597D01*
X409476Y314395D01*
X404255Y313533D01*
X398989Y313015D01*
X397119Y312953D01*
X393701Y312841D01*
X388412Y313015D01*
X387000Y313154D01*
Y353000D01*
Y375227D01*
X387406Y375519D01*
X388710Y375076D01*
X391184Y374584D01*
X393701Y374419D01*
X396218Y374584D01*
X398691Y375076D01*
X401080Y375887D01*
X403342Y377002D01*
X405439Y378404D01*
X407335Y380067D01*
X408998Y381963D01*
X410399Y384060D01*
X411515Y386322D01*
X412325Y388710D01*
X412818Y391184D01*
X412983Y393701D01*
X412818Y396218D01*
X412325Y398691D01*
X411515Y401080D01*
X410399Y403342D01*
X408998Y405439D01*
X407335Y407335D01*
X405439Y408998D01*
X403342Y410399D01*
X401080Y411515D01*
X398691Y412325D01*
X396218Y412818D01*
X393701Y412983D01*
X391184Y412818D01*
X388710Y412325D01*
X387406Y411883D01*
X387000Y412174D01*
Y474248D01*
X388412Y474387D01*
X393701Y474560D01*
X398989Y474387D01*
D02*
G37*
%LPC*%
G36*
X447736Y400153D02*
X446477Y400029D01*
X445267Y399662D01*
X444151Y399066D01*
X443174Y398263D01*
X442371Y397286D01*
X441775Y396170D01*
X441408Y394960D01*
X441284Y393701D01*
X441408Y392442D01*
X441775Y391232D01*
X442371Y390116D01*
X443174Y389138D01*
X444151Y388336D01*
X445267Y387740D01*
X446477Y387372D01*
X447736Y387248D01*
X448995Y387372D01*
X450205Y387740D01*
X451321Y388336D01*
X452299Y389138D01*
X453101Y390116D01*
X453697Y391232D01*
X454065Y392442D01*
X454189Y393701D01*
X454065Y394960D01*
X453697Y396170D01*
X453101Y397286D01*
X452299Y398263D01*
X451321Y399066D01*
X450205Y399662D01*
X448995Y400029D01*
X447736Y400153D01*
D02*
G37*
%LPD*%
D10*
X418947Y437428D02*
D03*
D11*
X343209Y393701D02*
D03*
D12*
X418947Y349973D02*
D03*
D13*
X366683Y440497D02*
D03*
X366683Y346905D02*
D03*
X393701Y393701D02*
D03*
D14*
X351500Y356000D02*
D03*
Y354000D02*
D03*
Y352000D02*
D03*
Y350000D02*
D03*
Y348000D02*
D03*
Y346000D02*
D03*
Y344000D02*
D03*
Y342000D02*
D03*
Y340000D02*
D03*
Y338000D02*
D03*
Y336000D02*
D03*
Y334000D02*
D03*
Y332000D02*
D03*
Y330000D02*
D03*
Y328000D02*
D03*
X331000Y362500D02*
D03*
Y364500D02*
D03*
Y368500D02*
D03*
Y366500D02*
D03*
Y370500D02*
D03*
Y372500D02*
D03*
Y374500D02*
D03*
Y376500D02*
D03*
X353000Y412500D02*
D03*
X351000D02*
D03*
X349000D02*
D03*
X347000D02*
D03*
X345000D02*
D03*
X343000D02*
D03*
X341000D02*
D03*
X339000D02*
D03*
Y414500D02*
D03*
X341000D02*
D03*
X343000D02*
D03*
X345000D02*
D03*
X347000D02*
D03*
X349000D02*
D03*
X351000D02*
D03*
X353000D02*
D03*
Y416500D02*
D03*
X351000D02*
D03*
X349000D02*
D03*
X347000D02*
D03*
X345000D02*
D03*
X343000D02*
D03*
X341000D02*
D03*
X339000D02*
D03*
Y418500D02*
D03*
X341000D02*
D03*
X343000D02*
D03*
X345000D02*
D03*
X347000D02*
D03*
X349000D02*
D03*
X351000D02*
D03*
X353000D02*
D03*
Y410500D02*
D03*
X351000D02*
D03*
X349000D02*
D03*
X347000D02*
D03*
X345000D02*
D03*
X343000D02*
D03*
X341000D02*
D03*
X339000D02*
D03*
X337000D02*
D03*
Y412500D02*
D03*
Y414500D02*
D03*
Y416500D02*
D03*
Y418500D02*
D03*
X335000D02*
D03*
Y416500D02*
D03*
Y414500D02*
D03*
Y412500D02*
D03*
Y410500D02*
D03*
X333000D02*
D03*
Y412500D02*
D03*
Y414500D02*
D03*
Y416500D02*
D03*
Y418500D02*
D03*
X331000D02*
D03*
Y416500D02*
D03*
Y414500D02*
D03*
Y412500D02*
D03*
Y410500D02*
D03*
X343000Y408500D02*
D03*
X345000D02*
D03*
X341000D02*
D03*
X347000D02*
D03*
X349000D02*
D03*
X351000D02*
D03*
X353000D02*
D03*
X339000D02*
D03*
X337000D02*
D03*
X335000D02*
D03*
X333000D02*
D03*
X331000D02*
D03*
Y406500D02*
D03*
X333000D02*
D03*
X335000D02*
D03*
X337000D02*
D03*
X339000D02*
D03*
X341000D02*
D03*
X343000D02*
D03*
X345000D02*
D03*
X347000D02*
D03*
X349000D02*
D03*
X351000D02*
D03*
X353000D02*
D03*
X364500Y428500D02*
D03*
X362500D02*
D03*
X360500D02*
D03*
X358500D02*
D03*
Y430500D02*
D03*
X360500D02*
D03*
X366500Y428500D02*
D03*
X368500D02*
D03*
X356500Y430500D02*
D03*
Y428500D02*
D03*
Y432500D02*
D03*
X354500D02*
D03*
Y430500D02*
D03*
Y428500D02*
D03*
Y434500D02*
D03*
Y436500D02*
D03*
Y438500D02*
D03*
Y440500D02*
D03*
Y442500D02*
D03*
Y444500D02*
D03*
Y446500D02*
D03*
Y448500D02*
D03*
X356500D02*
D03*
Y450500D02*
D03*
X354500D02*
D03*
Y452500D02*
D03*
X356500D02*
D03*
X358500Y450500D02*
D03*
Y452500D02*
D03*
X352500D02*
D03*
Y450500D02*
D03*
Y448500D02*
D03*
Y446500D02*
D03*
Y444500D02*
D03*
Y442500D02*
D03*
Y440500D02*
D03*
Y438500D02*
D03*
Y436500D02*
D03*
Y434500D02*
D03*
Y432500D02*
D03*
Y430500D02*
D03*
Y428500D02*
D03*
X350500D02*
D03*
Y430500D02*
D03*
Y432500D02*
D03*
Y434500D02*
D03*
Y436500D02*
D03*
Y438500D02*
D03*
Y440500D02*
D03*
Y442500D02*
D03*
Y444500D02*
D03*
Y446500D02*
D03*
Y448500D02*
D03*
Y450500D02*
D03*
Y452500D02*
D03*
X348500D02*
D03*
Y450500D02*
D03*
Y448500D02*
D03*
Y446500D02*
D03*
Y444500D02*
D03*
Y442500D02*
D03*
Y440500D02*
D03*
Y438500D02*
D03*
Y436500D02*
D03*
Y434500D02*
D03*
Y432500D02*
D03*
Y430500D02*
D03*
Y428500D02*
D03*
X355500Y356000D02*
D03*
X353500D02*
D03*
X355500Y354000D02*
D03*
X353500D02*
D03*
X355500Y352000D02*
D03*
X353500D02*
D03*
X355500Y350000D02*
D03*
X353500D02*
D03*
Y348000D02*
D03*
Y346000D02*
D03*
Y344000D02*
D03*
Y342000D02*
D03*
X355500D02*
D03*
Y340000D02*
D03*
X353500D02*
D03*
Y338000D02*
D03*
X355500D02*
D03*
X357500D02*
D03*
Y336000D02*
D03*
X355500D02*
D03*
X353500D02*
D03*
Y334000D02*
D03*
X355500D02*
D03*
X357500D02*
D03*
Y332000D02*
D03*
X353500D02*
D03*
X355500D02*
D03*
X353500Y330000D02*
D03*
X355500D02*
D03*
X357500D02*
D03*
X359500D02*
D03*
Y332000D02*
D03*
Y334000D02*
D03*
X361500D02*
D03*
Y332000D02*
D03*
Y330000D02*
D03*
X363500D02*
D03*
Y332000D02*
D03*
Y334000D02*
D03*
X365500D02*
D03*
Y332000D02*
D03*
Y330000D02*
D03*
Y328000D02*
D03*
X363500D02*
D03*
X361500D02*
D03*
X359500D02*
D03*
X357500D02*
D03*
X355500D02*
D03*
X353500D02*
D03*
X363500Y326000D02*
D03*
X361500D02*
D03*
X359500D02*
D03*
X357500D02*
D03*
X355500D02*
D03*
X353500D02*
D03*
X363500Y324000D02*
D03*
X361500D02*
D03*
X359500D02*
D03*
X357500D02*
D03*
X355500D02*
D03*
X353000Y376500D02*
D03*
X351000D02*
D03*
X349000D02*
D03*
X353000Y374500D02*
D03*
X351000D02*
D03*
X349000D02*
D03*
X347000Y376500D02*
D03*
Y374500D02*
D03*
X345000D02*
D03*
Y376500D02*
D03*
X343000D02*
D03*
Y374500D02*
D03*
X341000Y376500D02*
D03*
Y374500D02*
D03*
X339000D02*
D03*
Y376500D02*
D03*
X337000D02*
D03*
Y374500D02*
D03*
X335000D02*
D03*
Y376500D02*
D03*
X333000D02*
D03*
Y374500D02*
D03*
Y372500D02*
D03*
X335000D02*
D03*
X337000D02*
D03*
X339000D02*
D03*
X341000D02*
D03*
X343000D02*
D03*
X345000D02*
D03*
X347000D02*
D03*
X349000D02*
D03*
X351000D02*
D03*
X353000D02*
D03*
Y370500D02*
D03*
X351000D02*
D03*
X349000D02*
D03*
X347000D02*
D03*
X345000D02*
D03*
X343000D02*
D03*
X341000D02*
D03*
X339000D02*
D03*
X337000D02*
D03*
X335000D02*
D03*
X333000D02*
D03*
Y368500D02*
D03*
X335000D02*
D03*
X337000D02*
D03*
D03*
X339000D02*
D03*
X341000D02*
D03*
X343000D02*
D03*
X345000D02*
D03*
X347000D02*
D03*
X349000D02*
D03*
X351000D02*
D03*
X353000D02*
D03*
Y366500D02*
D03*
X351000D02*
D03*
X349000D02*
D03*
X347000D02*
D03*
X345000D02*
D03*
X343000D02*
D03*
X341000D02*
D03*
X339000D02*
D03*
X337000D02*
D03*
X335000D02*
D03*
X333000D02*
D03*
Y364500D02*
D03*
X335000D02*
D03*
X337000D02*
D03*
X339000D02*
D03*
X341000D02*
D03*
X343000D02*
D03*
X345000D02*
D03*
X347000D02*
D03*
X349000D02*
D03*
X351000D02*
D03*
X353000D02*
D03*
Y362500D02*
D03*
X351000D02*
D03*
X349000D02*
D03*
X347000D02*
D03*
X345000D02*
D03*
X343000D02*
D03*
X341000D02*
D03*
X339000D02*
D03*
X337000D02*
D03*
X335000D02*
D03*
X333000D02*
D03*
X331000Y396000D02*
D03*
X333000D02*
D03*
X335000D02*
D03*
X337000D02*
D03*
X339000D02*
D03*
X341000D02*
D03*
X343000D02*
D03*
X345000D02*
D03*
X347000D02*
D03*
X349000D02*
D03*
X351000D02*
D03*
Y394000D02*
D03*
X349000D02*
D03*
X347000D02*
D03*
X345000D02*
D03*
X343000D02*
D03*
X341000D02*
D03*
X339000D02*
D03*
X337000D02*
D03*
X335000D02*
D03*
X333000D02*
D03*
X331000D02*
D03*
Y392000D02*
D03*
X333000D02*
D03*
X335000D02*
D03*
X337000D02*
D03*
X339000D02*
D03*
X341000D02*
D03*
X343000D02*
D03*
X345000D02*
D03*
X347000D02*
D03*
X349000D02*
D03*
X351000D02*
D03*
Y390000D02*
D03*
X349000D02*
D03*
X347000D02*
D03*
X345000D02*
D03*
X343000D02*
D03*
X341000D02*
D03*
X339000D02*
D03*
X335000D02*
D03*
X333000D02*
D03*
X331000D02*
D03*
X337000D02*
D03*
X353000Y396000D02*
D03*
Y394000D02*
D03*
Y392000D02*
D03*
Y390000D02*
D03*
%TF.MD5,EC995CD7BED4D7E0F711D9873DFAEAA8*%
M02*
