G04 Layer_Color=255*
%FSLAX25Y25*%
%MOIN*%
%TF.FileFunction,Pads,Bot*%
%TF.Part,Single*%
G01*
G75*
%TA.AperFunction,ConnectorPad*%
%ADD24C,0.07874*%
%TA.AperFunction,ConnectorPad*%
G04:AMPARAMS|DCode=25|XSize=78.74mil|YSize=78.74mil|CornerRadius=0mil|HoleSize=0mil|Usage=FLASHONLY|Rotation=0.000|XOffset=0mil|YOffset=0mil|HoleType=Round|Shape=Octagon|*
%AMOCTAGOND25*
4,1,8,0.03937,-0.01969,0.03937,0.01969,0.01969,0.03937,-0.01969,0.03937,-0.03937,0.01969,-0.03937,-0.01969,-0.01969,-0.03937,0.01969,-0.03937,0.03937,-0.01969,0.0*
%
%ADD25OCTAGOND25*%

%TA.AperFunction,ViaPad*%
G04:AMPARAMS|DCode=26|XSize=157.48mil|YSize=118.11mil|CornerRadius=29.53mil|HoleSize=0mil|Usage=FLASHONLY|Rotation=0.000|XOffset=0mil|YOffset=0mil|HoleType=Round|Shape=RoundedRectangle|*
%AMROUNDEDRECTD26*
21,1,0.15748,0.05906,0,0,0.0*
21,1,0.09843,0.11811,0,0,0.0*
1,1,0.05906,0.04921,-0.02953*
1,1,0.05906,-0.04921,-0.02953*
1,1,0.05906,-0.04921,0.02953*
1,1,0.05906,0.04921,0.02953*
%
%ADD26ROUNDEDRECTD26*%
%TA.AperFunction,ViaPad*%
%ADD27R,0.11000X0.16000*%
%TA.AperFunction,ViaPad*%
%ADD28O,0.11000X0.16000*%
D24*
X392000Y349500D02*
D03*
D25*
X409500D02*
D03*
D26*
X500658Y324327D02*
D03*
X520342D02*
D03*
Y352673D02*
D03*
X500658D02*
D03*
X451158Y323827D02*
D03*
X470843D02*
D03*
Y352173D02*
D03*
X451158D02*
D03*
Y215827D02*
D03*
X470843D02*
D03*
Y244173D02*
D03*
X451158D02*
D03*
X500658Y215827D02*
D03*
X520342D02*
D03*
Y244173D02*
D03*
X500658D02*
D03*
D27*
X427500Y249000D02*
D03*
D28*
X412000D02*
D03*
X396500D02*
D03*
%TF.MD5,EB5F861F7518ECF3ECCF7AD3D7EA2C1E*%
M02*
