G04 Layer_Color=16711935*
%FSLAX25Y25*%
%MOIN*%
%TF.FileFunction,Soldermask,Bot*%
%TF.Part,Single*%
G01*
G75*
%TA.AperFunction,ConnectorPad*%
%ADD56C,0.05906*%
%TA.AperFunction,ConnectorPad*%
G04:AMPARAMS|DCode=57|XSize=161.42mil|YSize=161.42mil|CornerRadius=41.34mil|HoleSize=0mil|Usage=FLASHONLY|Rotation=180.000|XOffset=0mil|YOffset=0mil|HoleType=Round|Shape=RoundedRectangle|*
%AMROUNDEDRECTD57*
21,1,0.16142,0.07874,0,0,180.0*
21,1,0.07874,0.16142,0,0,180.0*
1,1,0.08268,-0.03937,0.03937*
1,1,0.08268,0.03937,0.03937*
1,1,0.08268,0.03937,-0.03937*
1,1,0.08268,-0.03937,-0.03937*
%
%ADD57ROUNDEDRECTD57*%
%TA.AperFunction,ViaPad*%
%ADD58O,0.10800X0.14800*%
%TA.AperFunction,ViaPad*%
%ADD59R,0.10800X0.14800*%
%TA.AperFunction,ViaPad*%
G04:AMPARAMS|DCode=60|XSize=165.48mil|YSize=126.11mil|CornerRadius=33.53mil|HoleSize=0mil|Usage=FLASHONLY|Rotation=0.000|XOffset=0mil|YOffset=0mil|HoleType=Round|Shape=RoundedRectangle|*
%AMROUNDEDRECTD60*
21,1,0.16548,0.05906,0,0,0.0*
21,1,0.09843,0.12611,0,0,0.0*
1,1,0.06706,0.04921,-0.02953*
1,1,0.06706,-0.04921,-0.02953*
1,1,0.06706,-0.04921,0.02953*
1,1,0.06706,0.04921,0.02953*
%
%ADD60ROUNDEDRECTD60*%
%ADD61R,0.60500X0.06000*%
D56*
X410000Y336000D02*
D03*
X401500D02*
D03*
D57*
X362500Y347500D02*
D03*
D58*
X367500Y248500D02*
D03*
X387500D02*
D03*
X407500D02*
D03*
D59*
X427500D02*
D03*
D60*
X500658Y244173D02*
D03*
X520342D02*
D03*
Y215827D02*
D03*
X500658D02*
D03*
X451158Y244173D02*
D03*
X470843D02*
D03*
Y215827D02*
D03*
X451158D02*
D03*
Y352173D02*
D03*
X470843D02*
D03*
Y323827D02*
D03*
X451158D02*
D03*
X500658Y352673D02*
D03*
X520342D02*
D03*
Y324327D02*
D03*
X500658D02*
D03*
D61*
X428250Y352000D02*
D03*
%TF.MD5,34FC9040C7DEBBA334B28EB045B600B1*%
M02*
