G04 Layer_Color=2752767*
%FSLAX25Y25*%
%MOIN*%
%TF.FileFunction,Drawing*%
%TF.Part,Single*%
G01*
G75*
%ADD57C,0.00500*%
%ADD58C,0.00667*%
D57*
X390000Y347500D02*
Y351500D01*
X394000D01*
Y347500D01*
X390000D01*
X407500D02*
Y351500D01*
X411500D01*
Y347500D01*
X407500D01*
X427500Y247000D02*
X425500Y251000D01*
X429500D01*
X427500Y247000D01*
X412000D02*
X410000Y251000D01*
X414000D01*
X412000Y247000D01*
X396500D02*
X394500Y251000D01*
X398500D01*
X396500Y247000D01*
X518500Y280000D02*
X519500Y281000D01*
X520500D01*
X519500Y282000D01*
X520500Y283000D01*
X519500D01*
X518500Y284000D01*
X517500Y283000D01*
X516500D01*
X517500Y282000D01*
X516500Y281000D01*
X517500D01*
X518500Y280000D01*
Y282000D02*
X519500Y283000D01*
X520500D01*
X519500Y284000D01*
X520500Y285000D01*
X519500D01*
X518500Y286000D01*
X517500Y285000D01*
X516500D01*
X517500Y284000D01*
X516500Y283000D01*
X517500D01*
X518500Y282000D01*
Y284000D02*
X519500Y285000D01*
X520500D01*
X519500Y286000D01*
X520500Y287000D01*
X519500D01*
X518500Y288000D01*
X517500Y287000D01*
X516500D01*
X517500Y286000D01*
X516500Y285000D01*
X517500D01*
X518500Y284000D01*
X516500D02*
X517500Y285000D01*
X518500D01*
X517500Y286000D01*
X518500Y287000D01*
X517500D01*
X516500Y288000D01*
X515500Y287000D01*
X514500D01*
X515500Y286000D01*
X514500Y285000D01*
X515500D01*
X516500Y284000D01*
Y282000D02*
X517500Y283000D01*
X518500D01*
X517500Y284000D01*
X518500Y285000D01*
X517500D01*
X516500Y286000D01*
X515500Y285000D01*
X514500D01*
X515500Y284000D01*
X514500Y283000D01*
X515500D01*
X516500Y282000D01*
Y280000D02*
X517500Y281000D01*
X518500D01*
X517500Y282000D01*
X518500Y283000D01*
X517500D01*
X516500Y284000D01*
X515500Y283000D01*
X514500D01*
X515500Y282000D01*
X514500Y281000D01*
X515500D01*
X516500Y280000D01*
X514500D02*
X515500Y281000D01*
X516500D01*
X515500Y282000D01*
X516500Y283000D01*
X515500D01*
X514500Y284000D01*
X513500Y283000D01*
X512500D01*
X513500Y282000D01*
X512500Y281000D01*
X513500D01*
X514500Y280000D01*
Y282000D02*
X515500Y283000D01*
X516500D01*
X515500Y284000D01*
X516500Y285000D01*
X515500D01*
X514500Y286000D01*
X513500Y285000D01*
X512500D01*
X513500Y284000D01*
X512500Y283000D01*
X513500D01*
X514500Y282000D01*
Y284000D02*
X515500Y285000D01*
X516500D01*
X515500Y286000D01*
X516500Y287000D01*
X515500D01*
X514500Y288000D01*
X513500Y287000D01*
X512500D01*
X513500Y286000D01*
X512500Y285000D01*
X513500D01*
X514500Y284000D01*
X512500D02*
X513500Y285000D01*
X514500D01*
X513500Y286000D01*
X514500Y287000D01*
X513500D01*
X512500Y288000D01*
X511500Y287000D01*
X510500D01*
X511500Y286000D01*
X510500Y285000D01*
X511500D01*
X512500Y284000D01*
Y282000D02*
X513500Y283000D01*
X514500D01*
X513500Y284000D01*
X514500Y285000D01*
X513500D01*
X512500Y286000D01*
X511500Y285000D01*
X510500D01*
X511500Y284000D01*
X510500Y283000D01*
X511500D01*
X512500Y282000D01*
Y280000D02*
X513500Y281000D01*
X514500D01*
X513500Y282000D01*
X514500Y283000D01*
X513500D01*
X512500Y284000D01*
X511500Y283000D01*
X510500D01*
X511500Y282000D01*
X510500Y281000D01*
X511500D01*
X512500Y280000D01*
X510500D02*
X511500Y281000D01*
X512500D01*
X511500Y282000D01*
X512500Y283000D01*
X511500D01*
X510500Y284000D01*
X509500Y283000D01*
X508500D01*
X509500Y282000D01*
X508500Y281000D01*
X509500D01*
X510500Y280000D01*
Y282000D02*
X511500Y283000D01*
X512500D01*
X511500Y284000D01*
X512500Y285000D01*
X511500D01*
X510500Y286000D01*
X509500Y285000D01*
X508500D01*
X509500Y284000D01*
X508500Y283000D01*
X509500D01*
X510500Y282000D01*
Y284000D02*
X511500Y285000D01*
X512500D01*
X511500Y286000D01*
X512500Y287000D01*
X511500D01*
X510500Y288000D01*
X509500Y287000D01*
X508500D01*
X509500Y286000D01*
X508500Y285000D01*
X509500D01*
X510500Y284000D01*
X508500D02*
X509500Y285000D01*
X510500D01*
X509500Y286000D01*
X510500Y287000D01*
X509500D01*
X508500Y288000D01*
X507500Y287000D01*
X506500D01*
X507500Y286000D01*
X506500Y285000D01*
X507500D01*
X508500Y284000D01*
Y282000D02*
X509500Y283000D01*
X510500D01*
X509500Y284000D01*
X510500Y285000D01*
X509500D01*
X508500Y286000D01*
X507500Y285000D01*
X506500D01*
X507500Y284000D01*
X506500Y283000D01*
X507500D01*
X508500Y282000D01*
Y280000D02*
X509500Y281000D01*
X510500D01*
X509500Y282000D01*
X510500Y283000D01*
X509500D01*
X508500Y284000D01*
X507500Y283000D01*
X506500D01*
X507500Y282000D01*
X506500Y281000D01*
X507500D01*
X508500Y280000D01*
X506500D02*
X507500Y281000D01*
X508500D01*
X507500Y282000D01*
X508500Y283000D01*
X507500D01*
X506500Y284000D01*
X505500Y283000D01*
X504500D01*
X505500Y282000D01*
X504500Y281000D01*
X505500D01*
X506500Y280000D01*
Y282000D02*
X507500Y283000D01*
X508500D01*
X507500Y284000D01*
X508500Y285000D01*
X507500D01*
X506500Y286000D01*
X505500Y285000D01*
X504500D01*
X505500Y284000D01*
X504500Y283000D01*
X505500D01*
X506500Y282000D01*
Y284000D02*
X507500Y285000D01*
X508500D01*
X507500Y286000D01*
X508500Y287000D01*
X507500D01*
X506500Y288000D01*
X505500Y287000D01*
X504500D01*
X505500Y286000D01*
X504500Y285000D01*
X505500D01*
X506500Y284000D01*
X504500D02*
X505500Y285000D01*
X506500D01*
X505500Y286000D01*
X506500Y287000D01*
X505500D01*
X504500Y288000D01*
X503500Y287000D01*
X502500D01*
X503500Y286000D01*
X502500Y285000D01*
X503500D01*
X504500Y284000D01*
Y282000D02*
X505500Y283000D01*
X506500D01*
X505500Y284000D01*
X506500Y285000D01*
X505500D01*
X504500Y286000D01*
X503500Y285000D01*
X502500D01*
X503500Y284000D01*
X502500Y283000D01*
X503500D01*
X504500Y282000D01*
Y280000D02*
X505500Y281000D01*
X506500D01*
X505500Y282000D01*
X506500Y283000D01*
X505500D01*
X504500Y284000D01*
X503500Y283000D01*
X502500D01*
X503500Y282000D01*
X502500Y281000D01*
X503500D01*
X504500Y280000D01*
X502500D02*
X503500Y281000D01*
X504500D01*
X503500Y282000D01*
X504500Y283000D01*
X503500D01*
X502500Y284000D01*
X501500Y283000D01*
X500500D01*
X501500Y282000D01*
X500500Y281000D01*
X501500D01*
X502500Y280000D01*
Y282000D02*
X503500Y283000D01*
X504500D01*
X503500Y284000D01*
X504500Y285000D01*
X503500D01*
X502500Y286000D01*
X501500Y285000D01*
X500500D01*
X501500Y284000D01*
X500500Y283000D01*
X501500D01*
X502500Y282000D01*
Y284000D02*
X503500Y285000D01*
X504500D01*
X503500Y286000D01*
X504500Y287000D01*
X503500D01*
X502500Y288000D01*
X501500Y287000D01*
X500500D01*
X501500Y286000D01*
X500500Y285000D01*
X501500D01*
X502500Y284000D01*
X500500D02*
X501500Y285000D01*
X502500D01*
X501500Y286000D01*
X502500Y287000D01*
X501500D01*
X500500Y288000D01*
X499500Y287000D01*
X498500D01*
X499500Y286000D01*
X498500Y285000D01*
X499500D01*
X500500Y284000D01*
Y282000D02*
X501500Y283000D01*
X502500D01*
X501500Y284000D01*
X502500Y285000D01*
X501500D01*
X500500Y286000D01*
X499500Y285000D01*
X498500D01*
X499500Y284000D01*
X498500Y283000D01*
X499500D01*
X500500Y282000D01*
Y280000D02*
X501500Y281000D01*
X502500D01*
X501500Y282000D01*
X502500Y283000D01*
X501500D01*
X500500Y284000D01*
X499500Y283000D01*
X498500D01*
X499500Y282000D01*
X498500Y281000D01*
X499500D01*
X500500Y280000D01*
X498500D02*
X499500Y281000D01*
X500500D01*
X499500Y282000D01*
X500500Y283000D01*
X499500D01*
X498500Y284000D01*
X497500Y283000D01*
X496500D01*
X497500Y282000D01*
X496500Y281000D01*
X497500D01*
X498500Y280000D01*
Y282000D02*
X499500Y283000D01*
X500500D01*
X499500Y284000D01*
X500500Y285000D01*
X499500D01*
X498500Y286000D01*
X497500Y285000D01*
X496500D01*
X497500Y284000D01*
X496500Y283000D01*
X497500D01*
X498500Y282000D01*
Y284000D02*
X499500Y285000D01*
X500500D01*
X499500Y286000D01*
X500500Y287000D01*
X499500D01*
X498500Y288000D01*
X497500Y287000D01*
X496500D01*
X497500Y286000D01*
X496500Y285000D01*
X497500D01*
X498500Y284000D01*
X491000Y292500D02*
X492000Y293500D01*
X493000D01*
X492000Y294500D01*
X493000Y295500D01*
X492000D01*
X491000Y296500D01*
X490000Y295500D01*
X489000D01*
X490000Y294500D01*
X489000Y293500D01*
X490000D01*
X491000Y292500D01*
X493000D02*
X494000Y293500D01*
X495000D01*
X494000Y294500D01*
X495000Y295500D01*
X494000D01*
X493000Y296500D01*
X492000Y295500D01*
X491000D01*
X492000Y294500D01*
X491000Y293500D01*
X492000D01*
X493000Y292500D01*
X495000D02*
X496000Y293500D01*
X497000D01*
X496000Y294500D01*
X497000Y295500D01*
X496000D01*
X495000Y296500D01*
X494000Y295500D01*
X493000D01*
X494000Y294500D01*
X493000Y293500D01*
X494000D01*
X495000Y292500D01*
X493000Y278500D02*
X494000Y279500D01*
X495000D01*
X494000Y280500D01*
X495000Y281500D01*
X494000D01*
X493000Y282500D01*
X492000Y281500D01*
X491000D01*
X492000Y280500D01*
X491000Y279500D01*
X492000D01*
X493000Y278500D01*
X495000Y276500D02*
X496000Y277500D01*
X497000D01*
X496000Y278500D01*
X497000Y279500D01*
X496000D01*
X495000Y280500D01*
X494000Y279500D01*
X493000D01*
X494000Y278500D01*
X493000Y277500D01*
X494000D01*
X495000Y276500D01*
Y278500D02*
X496000Y279500D01*
X497000D01*
X496000Y280500D01*
X497000Y281500D01*
X496000D01*
X495000Y282500D01*
X494000Y281500D01*
X493000D01*
X494000Y280500D01*
X493000Y279500D01*
X494000D01*
X495000Y278500D01*
X493000Y276500D02*
X494000Y277500D01*
X495000D01*
X494000Y278500D01*
X495000Y279500D01*
X494000D01*
X493000Y280500D01*
X492000Y279500D01*
X491000D01*
X492000Y278500D01*
X491000Y277500D01*
X492000D01*
X493000Y276500D01*
X491000D02*
X492000Y277500D01*
X493000D01*
X492000Y278500D01*
X493000Y279500D01*
X492000D01*
X491000Y280500D01*
X490000Y279500D01*
X489000D01*
X490000Y278500D01*
X489000Y277500D01*
X490000D01*
X491000Y276500D01*
Y278500D02*
X492000Y279500D01*
X493000D01*
X492000Y280500D01*
X493000Y281500D01*
X492000D01*
X491000Y282500D01*
X490000Y281500D01*
X489000D01*
X490000Y280500D01*
X489000Y279500D01*
X490000D01*
X491000Y278500D01*
Y290500D02*
X492000Y291500D01*
X493000D01*
X492000Y292500D01*
X493000Y293500D01*
X492000D01*
X491000Y294500D01*
X490000Y293500D01*
X489000D01*
X490000Y292500D01*
X489000Y291500D01*
X490000D01*
X491000Y290500D01*
X493000D02*
X494000Y291500D01*
X495000D01*
X494000Y292500D01*
X495000Y293500D01*
X494000D01*
X493000Y294500D01*
X492000Y293500D01*
X491000D01*
X492000Y292500D01*
X491000Y291500D01*
X492000D01*
X493000Y290500D01*
X495000D02*
X496000Y291500D01*
X497000D01*
X496000Y292500D01*
X497000Y293500D01*
X496000D01*
X495000Y294500D01*
X494000Y293500D01*
X493000D01*
X494000Y292500D01*
X493000Y291500D01*
X494000D01*
X495000Y290500D01*
Y288500D02*
X496000Y289500D01*
X497000D01*
X496000Y290500D01*
X497000Y291500D01*
X496000D01*
X495000Y292500D01*
X494000Y291500D01*
X493000D01*
X494000Y290500D01*
X493000Y289500D01*
X494000D01*
X495000Y288500D01*
X493000D02*
X494000Y289500D01*
X495000D01*
X494000Y290500D01*
X495000Y291500D01*
X494000D01*
X493000Y292500D01*
X492000Y291500D01*
X491000D01*
X492000Y290500D01*
X491000Y289500D01*
X492000D01*
X493000Y288500D01*
X491000D02*
X492000Y289500D01*
X493000D01*
X492000Y290500D01*
X493000Y291500D01*
X492000D01*
X491000Y292500D01*
X490000Y291500D01*
X489000D01*
X490000Y290500D01*
X489000Y289500D01*
X490000D01*
X491000Y288500D01*
Y286500D02*
X492000Y287500D01*
X493000D01*
X492000Y288500D01*
X493000Y289500D01*
X492000D01*
X491000Y290500D01*
X490000Y289500D01*
X489000D01*
X490000Y288500D01*
X489000Y287500D01*
X490000D01*
X491000Y286500D01*
X493000D02*
X494000Y287500D01*
X495000D01*
X494000Y288500D01*
X495000Y289500D01*
X494000D01*
X493000Y290500D01*
X492000Y289500D01*
X491000D01*
X492000Y288500D01*
X491000Y287500D01*
X492000D01*
X493000Y286500D01*
X495000D02*
X496000Y287500D01*
X497000D01*
X496000Y288500D01*
X497000Y289500D01*
X496000D01*
X495000Y290500D01*
X494000Y289500D01*
X493000D01*
X494000Y288500D01*
X493000Y287500D01*
X494000D01*
X495000Y286500D01*
X491000Y280500D02*
X492000Y281500D01*
X493000D01*
X492000Y282500D01*
X493000Y283500D01*
X492000D01*
X491000Y284500D01*
X490000Y283500D01*
X489000D01*
X490000Y282500D01*
X489000Y281500D01*
X490000D01*
X491000Y280500D01*
X493000D02*
X494000Y281500D01*
X495000D01*
X494000Y282500D01*
X495000Y283500D01*
X494000D01*
X493000Y284500D01*
X492000Y283500D01*
X491000D01*
X492000Y282500D01*
X491000Y281500D01*
X492000D01*
X493000Y280500D01*
X491000Y282500D02*
X492000Y283500D01*
X493000D01*
X492000Y284500D01*
X493000Y285500D01*
X492000D01*
X491000Y286500D01*
X490000Y285500D01*
X489000D01*
X490000Y284500D01*
X489000Y283500D01*
X490000D01*
X491000Y282500D01*
X493000D02*
X494000Y283500D01*
X495000D01*
X494000Y284500D01*
X495000Y285500D01*
X494000D01*
X493000Y286500D01*
X492000Y285500D01*
X491000D01*
X492000Y284500D01*
X491000Y283500D01*
X492000D01*
X493000Y282500D01*
X491000Y284500D02*
X492000Y285500D01*
X493000D01*
X492000Y286500D01*
X493000Y287500D01*
X492000D01*
X491000Y288500D01*
X490000Y287500D01*
X489000D01*
X490000Y286500D01*
X489000Y285500D01*
X490000D01*
X491000Y284500D01*
X493000D02*
X494000Y285500D01*
X495000D01*
X494000Y286500D01*
X495000Y287500D01*
X494000D01*
X493000Y288500D01*
X492000Y287500D01*
X491000D01*
X492000Y286500D01*
X491000Y285500D01*
X492000D01*
X493000Y284500D01*
X495000D02*
X496000Y285500D01*
X497000D01*
X496000Y286500D01*
X497000Y287500D01*
X496000D01*
X495000Y288500D01*
X494000Y287500D01*
X493000D01*
X494000Y286500D01*
X493000Y285500D01*
X494000D01*
X495000Y284500D01*
Y282500D02*
X496000Y283500D01*
X497000D01*
X496000Y284500D01*
X497000Y285500D01*
X496000D01*
X495000Y286500D01*
X494000Y285500D01*
X493000D01*
X494000Y284500D01*
X493000Y283500D01*
X494000D01*
X495000Y282500D01*
Y280500D02*
X496000Y281500D01*
X497000D01*
X496000Y282500D01*
X497000Y283500D01*
X496000D01*
X495000Y284500D01*
X494000Y283500D01*
X493000D01*
X494000Y282500D01*
X493000Y281500D01*
X494000D01*
X495000Y280500D01*
X404000Y325500D02*
X405000Y326500D01*
X406000D01*
X405000Y327500D01*
X406000Y328500D01*
X405000D01*
X404000Y329500D01*
X403000Y328500D01*
X402000D01*
X403000Y327500D01*
X402000Y326500D01*
X403000D01*
X404000Y325500D01*
Y327500D02*
X405000Y328500D01*
X406000D01*
X405000Y329500D01*
X406000Y330500D01*
X405000D01*
X404000Y331500D01*
X403000Y330500D01*
X402000D01*
X403000Y329500D01*
X402000Y328500D01*
X403000D01*
X404000Y327500D01*
X402000Y325500D02*
X403000Y326500D01*
X404000D01*
X403000Y327500D01*
X404000Y328500D01*
X403000D01*
X402000Y329500D01*
X401000Y328500D01*
X400000D01*
X401000Y327500D01*
X400000Y326500D01*
X401000D01*
X402000Y325500D01*
X408500Y318500D02*
X409500Y319500D01*
X410500D01*
X409500Y320500D01*
X410500Y321500D01*
X409500D01*
X408500Y322500D01*
X407500Y321500D01*
X406500D01*
X407500Y320500D01*
X406500Y319500D01*
X407500D01*
X408500Y318500D01*
X408000Y281500D02*
X409000Y282500D01*
X410000D01*
X409000Y283500D01*
X410000Y284500D01*
X409000D01*
X408000Y285500D01*
X407000Y284500D01*
X406000D01*
X407000Y283500D01*
X406000Y282500D01*
X407000D01*
X408000Y281500D01*
X402500Y263000D02*
X403500Y264000D01*
X404500D01*
X403500Y265000D01*
X404500Y266000D01*
X403500D01*
X402500Y267000D01*
X401500Y266000D01*
X400500D01*
X401500Y265000D01*
X400500Y264000D01*
X401500D01*
X402500Y263000D01*
X415500Y281000D02*
X416500Y282000D01*
X417500D01*
X416500Y283000D01*
X417500Y284000D01*
X416500D01*
X415500Y285000D01*
X414500Y284000D01*
X413500D01*
X414500Y283000D01*
X413500Y282000D01*
X414500D01*
X415500Y281000D01*
X418469Y293531D02*
X419468Y294531D01*
X420469D01*
X419468Y295532D01*
X420469Y296532D01*
X419468D01*
X418469Y297532D01*
X417469Y296532D01*
X416468D01*
X417469Y295532D01*
X416468Y294531D01*
X417469D01*
X418469Y293531D01*
X421500Y270500D02*
X422500Y271500D01*
X423500D01*
X422500Y272500D01*
X423500Y273500D01*
X422500D01*
X421500Y274500D01*
X420500Y273500D01*
X419500D01*
X420500Y272500D01*
X419500Y271500D01*
X420500D01*
X421500Y270500D01*
X433000Y275000D02*
X434000Y276000D01*
X435000D01*
X434000Y277000D01*
X435000Y278000D01*
X434000D01*
X433000Y279000D01*
X432000Y278000D01*
X431000D01*
X432000Y277000D01*
X431000Y276000D01*
X432000D01*
X433000Y275000D01*
Y262500D02*
X434000Y263500D01*
X435000D01*
X434000Y264500D01*
X435000Y265500D01*
X434000D01*
X433000Y266500D01*
X432000Y265500D01*
X431000D01*
X432000Y264500D01*
X431000Y263500D01*
X432000D01*
X433000Y262500D01*
X427500Y296000D02*
X428500Y297000D01*
X429500D01*
X428500Y298000D01*
X429500Y299000D01*
X428500D01*
X427500Y300000D01*
X426500Y299000D01*
X425500D01*
X426500Y298000D01*
X425500Y297000D01*
X426500D01*
X427500Y296000D01*
X402000Y327500D02*
X403000Y328500D01*
X404000D01*
X403000Y329500D01*
X404000Y330500D01*
X403000D01*
X402000Y331500D01*
X401000Y330500D01*
X400000D01*
X401000Y329500D01*
X400000Y328500D01*
X401000D01*
X402000Y327500D01*
X390500Y290500D02*
X391500Y291500D01*
X392500D01*
X391500Y292500D01*
X392500Y293500D01*
X391500D01*
X390500Y294500D01*
X389500Y293500D01*
X388500D01*
X389500Y292500D01*
X388500Y291500D01*
X389500D01*
X390500Y290500D01*
X388500Y292500D02*
X389500Y293500D01*
X390500D01*
X389500Y294500D01*
X390500Y295500D01*
X389500D01*
X388500Y296500D01*
X387500Y295500D01*
X386500D01*
X387500Y294500D01*
X386500Y293500D01*
X387500D01*
X388500Y292500D01*
X390500D02*
X391500Y293500D01*
X392500D01*
X391500Y294500D01*
X392500Y295500D01*
X391500D01*
X390500Y296500D01*
X389500Y295500D01*
X388500D01*
X389500Y294500D01*
X388500Y293500D01*
X389500D01*
X390500Y292500D01*
X388500Y290500D02*
X389500Y291500D01*
X390500D01*
X389500Y292500D01*
X390500Y293500D01*
X389500D01*
X388500Y294500D01*
X387500Y293500D01*
X386500D01*
X387500Y292500D01*
X386500Y291500D01*
X387500D01*
X388500Y290500D01*
X391968Y330968D02*
X392969Y331968D01*
X393969D01*
X392969Y332968D01*
X393969Y333968D01*
X392969D01*
X391968Y334968D01*
X390968Y333968D01*
X389968D01*
X390968Y332968D01*
X389968Y331968D01*
X390968D01*
X391968Y330968D01*
X477000Y294000D02*
X478000Y295000D01*
X479000D01*
X478000Y296000D01*
X479000Y297000D01*
X478000D01*
X477000Y298000D01*
X476000Y297000D01*
X475000D01*
X476000Y296000D01*
X475000Y295000D01*
X476000D01*
X477000Y294000D01*
Y292000D02*
X478000Y293000D01*
X479000D01*
X478000Y294000D01*
X479000Y295000D01*
X478000D01*
X477000Y296000D01*
X476000Y295000D01*
X475000D01*
X476000Y294000D01*
X475000Y293000D01*
X476000D01*
X477000Y292000D01*
Y290000D02*
X478000Y291000D01*
X479000D01*
X478000Y292000D01*
X479000Y293000D01*
X478000D01*
X477000Y294000D01*
X476000Y293000D01*
X475000D01*
X476000Y292000D01*
X475000Y291000D01*
X476000D01*
X477000Y290000D01*
Y288000D02*
X478000Y289000D01*
X479000D01*
X478000Y290000D01*
X479000Y291000D01*
X478000D01*
X477000Y292000D01*
X476000Y291000D01*
X475000D01*
X476000Y290000D01*
X475000Y289000D01*
X476000D01*
X477000Y288000D01*
Y286000D02*
X478000Y287000D01*
X479000D01*
X478000Y288000D01*
X479000Y289000D01*
X478000D01*
X477000Y290000D01*
X476000Y289000D01*
X475000D01*
X476000Y288000D01*
X475000Y287000D01*
X476000D01*
X477000Y286000D01*
Y284000D02*
X478000Y285000D01*
X479000D01*
X478000Y286000D01*
X479000Y287000D01*
X478000D01*
X477000Y288000D01*
X476000Y287000D01*
X475000D01*
X476000Y286000D01*
X475000Y285000D01*
X476000D01*
X477000Y284000D01*
X475000Y294000D02*
X476000Y295000D01*
X477000D01*
X476000Y296000D01*
X477000Y297000D01*
X476000D01*
X475000Y298000D01*
X474000Y297000D01*
X473000D01*
X474000Y296000D01*
X473000Y295000D01*
X474000D01*
X475000Y294000D01*
X473000D02*
X474000Y295000D01*
X475000D01*
X474000Y296000D01*
X475000Y297000D01*
X474000D01*
X473000Y298000D01*
X472000Y297000D01*
X471000D01*
X472000Y296000D01*
X471000Y295000D01*
X472000D01*
X473000Y294000D01*
X471000D02*
X472000Y295000D01*
X473000D01*
X472000Y296000D01*
X473000Y297000D01*
X472000D01*
X471000Y298000D01*
X470000Y297000D01*
X469000D01*
X470000Y296000D01*
X469000Y295000D01*
X470000D01*
X471000Y294000D01*
X469000D02*
X470000Y295000D01*
X471000D01*
X470000Y296000D01*
X471000Y297000D01*
X470000D01*
X469000Y298000D01*
X468000Y297000D01*
X467000D01*
X468000Y296000D01*
X467000Y295000D01*
X468000D01*
X469000Y294000D01*
X465000D02*
X466000Y295000D01*
X467000D01*
X466000Y296000D01*
X467000Y297000D01*
X466000D01*
X465000Y298000D01*
X464000Y297000D01*
X463000D01*
X464000Y296000D01*
X463000Y295000D01*
X464000D01*
X465000Y294000D01*
X467000D02*
X468000Y295000D01*
X469000D01*
X468000Y296000D01*
X469000Y297000D01*
X468000D01*
X467000Y298000D01*
X466000Y297000D01*
X465000D01*
X466000Y296000D01*
X465000Y295000D01*
X466000D01*
X467000Y294000D01*
X463000D02*
X464000Y295000D01*
X465000D01*
X464000Y296000D01*
X465000Y297000D01*
X464000D01*
X463000Y298000D01*
X462000Y297000D01*
X461000D01*
X462000Y296000D01*
X461000Y295000D01*
X462000D01*
X463000Y294000D01*
X461000D02*
X462000Y295000D01*
X463000D01*
X462000Y296000D01*
X463000Y297000D01*
X462000D01*
X461000Y298000D01*
X460000Y297000D01*
X459000D01*
X460000Y296000D01*
X459000Y295000D01*
X460000D01*
X461000Y294000D01*
X459000D02*
X460000Y295000D01*
X461000D01*
X460000Y296000D01*
X461000Y297000D01*
X460000D01*
X459000Y298000D01*
X458000Y297000D01*
X457000D01*
X458000Y296000D01*
X457000Y295000D01*
X458000D01*
X459000Y294000D01*
X457000D02*
X458000Y295000D01*
X459000D01*
X458000Y296000D01*
X459000Y297000D01*
X458000D01*
X457000Y298000D01*
X456000Y297000D01*
X455000D01*
X456000Y296000D01*
X455000Y295000D01*
X456000D01*
X457000Y294000D01*
X455000D02*
X456000Y295000D01*
X457000D01*
X456000Y296000D01*
X457000Y297000D01*
X456000D01*
X455000Y298000D01*
X454000Y297000D01*
X453000D01*
X454000Y296000D01*
X453000Y295000D01*
X454000D01*
X455000Y294000D01*
X453000D02*
X454000Y295000D01*
X455000D01*
X454000Y296000D01*
X455000Y297000D01*
X454000D01*
X453000Y298000D01*
X452000Y297000D01*
X451000D01*
X452000Y296000D01*
X451000Y295000D01*
X452000D01*
X453000Y294000D01*
X451000D02*
X452000Y295000D01*
X453000D01*
X452000Y296000D01*
X453000Y297000D01*
X452000D01*
X451000Y298000D01*
X450000Y297000D01*
X449000D01*
X450000Y296000D01*
X449000Y295000D01*
X450000D01*
X451000Y294000D01*
Y292000D02*
X452000Y293000D01*
X453000D01*
X452000Y294000D01*
X453000Y295000D01*
X452000D01*
X451000Y296000D01*
X450000Y295000D01*
X449000D01*
X450000Y294000D01*
X449000Y293000D01*
X450000D01*
X451000Y292000D01*
X453000D02*
X454000Y293000D01*
X455000D01*
X454000Y294000D01*
X455000Y295000D01*
X454000D01*
X453000Y296000D01*
X452000Y295000D01*
X451000D01*
X452000Y294000D01*
X451000Y293000D01*
X452000D01*
X453000Y292000D01*
X455000D02*
X456000Y293000D01*
X457000D01*
X456000Y294000D01*
X457000Y295000D01*
X456000D01*
X455000Y296000D01*
X454000Y295000D01*
X453000D01*
X454000Y294000D01*
X453000Y293000D01*
X454000D01*
X455000Y292000D01*
X457000D02*
X458000Y293000D01*
X459000D01*
X458000Y294000D01*
X459000Y295000D01*
X458000D01*
X457000Y296000D01*
X456000Y295000D01*
X455000D01*
X456000Y294000D01*
X455000Y293000D01*
X456000D01*
X457000Y292000D01*
X459000D02*
X460000Y293000D01*
X461000D01*
X460000Y294000D01*
X461000Y295000D01*
X460000D01*
X459000Y296000D01*
X458000Y295000D01*
X457000D01*
X458000Y294000D01*
X457000Y293000D01*
X458000D01*
X459000Y292000D01*
X461000D02*
X462000Y293000D01*
X463000D01*
X462000Y294000D01*
X463000Y295000D01*
X462000D01*
X461000Y296000D01*
X460000Y295000D01*
X459000D01*
X460000Y294000D01*
X459000Y293000D01*
X460000D01*
X461000Y292000D01*
X463000D02*
X464000Y293000D01*
X465000D01*
X464000Y294000D01*
X465000Y295000D01*
X464000D01*
X463000Y296000D01*
X462000Y295000D01*
X461000D01*
X462000Y294000D01*
X461000Y293000D01*
X462000D01*
X463000Y292000D01*
X465000D02*
X466000Y293000D01*
X467000D01*
X466000Y294000D01*
X467000Y295000D01*
X466000D01*
X465000Y296000D01*
X464000Y295000D01*
X463000D01*
X464000Y294000D01*
X463000Y293000D01*
X464000D01*
X465000Y292000D01*
X467000D02*
X468000Y293000D01*
X469000D01*
X468000Y294000D01*
X469000Y295000D01*
X468000D01*
X467000Y296000D01*
X466000Y295000D01*
X465000D01*
X466000Y294000D01*
X465000Y293000D01*
X466000D01*
X467000Y292000D01*
X469000D02*
X470000Y293000D01*
X471000D01*
X470000Y294000D01*
X471000Y295000D01*
X470000D01*
X469000Y296000D01*
X468000Y295000D01*
X467000D01*
X468000Y294000D01*
X467000Y293000D01*
X468000D01*
X469000Y292000D01*
X471000D02*
X472000Y293000D01*
X473000D01*
X472000Y294000D01*
X473000Y295000D01*
X472000D01*
X471000Y296000D01*
X470000Y295000D01*
X469000D01*
X470000Y294000D01*
X469000Y293000D01*
X470000D01*
X471000Y292000D01*
X473000D02*
X474000Y293000D01*
X475000D01*
X474000Y294000D01*
X475000Y295000D01*
X474000D01*
X473000Y296000D01*
X472000Y295000D01*
X471000D01*
X472000Y294000D01*
X471000Y293000D01*
X472000D01*
X473000Y292000D01*
X475000D02*
X476000Y293000D01*
X477000D01*
X476000Y294000D01*
X477000Y295000D01*
X476000D01*
X475000Y296000D01*
X474000Y295000D01*
X473000D01*
X474000Y294000D01*
X473000Y293000D01*
X474000D01*
X475000Y292000D01*
Y290000D02*
X476000Y291000D01*
X477000D01*
X476000Y292000D01*
X477000Y293000D01*
X476000D01*
X475000Y294000D01*
X474000Y293000D01*
X473000D01*
X474000Y292000D01*
X473000Y291000D01*
X474000D01*
X475000Y290000D01*
X473000D02*
X474000Y291000D01*
X475000D01*
X474000Y292000D01*
X475000Y293000D01*
X474000D01*
X473000Y294000D01*
X472000Y293000D01*
X471000D01*
X472000Y292000D01*
X471000Y291000D01*
X472000D01*
X473000Y290000D01*
X471000D02*
X472000Y291000D01*
X473000D01*
X472000Y292000D01*
X473000Y293000D01*
X472000D01*
X471000Y294000D01*
X470000Y293000D01*
X469000D01*
X470000Y292000D01*
X469000Y291000D01*
X470000D01*
X471000Y290000D01*
X469000D02*
X470000Y291000D01*
X471000D01*
X470000Y292000D01*
X471000Y293000D01*
X470000D01*
X469000Y294000D01*
X468000Y293000D01*
X467000D01*
X468000Y292000D01*
X467000Y291000D01*
X468000D01*
X469000Y290000D01*
X467000D02*
X468000Y291000D01*
X469000D01*
X468000Y292000D01*
X469000Y293000D01*
X468000D01*
X467000Y294000D01*
X466000Y293000D01*
X465000D01*
X466000Y292000D01*
X465000Y291000D01*
X466000D01*
X467000Y290000D01*
X465000D02*
X466000Y291000D01*
X467000D01*
X466000Y292000D01*
X467000Y293000D01*
X466000D01*
X465000Y294000D01*
X464000Y293000D01*
X463000D01*
X464000Y292000D01*
X463000Y291000D01*
X464000D01*
X465000Y290000D01*
X463000D02*
X464000Y291000D01*
X465000D01*
X464000Y292000D01*
X465000Y293000D01*
X464000D01*
X463000Y294000D01*
X462000Y293000D01*
X461000D01*
X462000Y292000D01*
X461000Y291000D01*
X462000D01*
X463000Y290000D01*
X461000D02*
X462000Y291000D01*
X463000D01*
X462000Y292000D01*
X463000Y293000D01*
X462000D01*
X461000Y294000D01*
X460000Y293000D01*
X459000D01*
X460000Y292000D01*
X459000Y291000D01*
X460000D01*
X461000Y290000D01*
X459000D02*
X460000Y291000D01*
X461000D01*
X460000Y292000D01*
X461000Y293000D01*
X460000D01*
X459000Y294000D01*
X458000Y293000D01*
X457000D01*
X458000Y292000D01*
X457000Y291000D01*
X458000D01*
X459000Y290000D01*
X457000D02*
X458000Y291000D01*
X459000D01*
X458000Y292000D01*
X459000Y293000D01*
X458000D01*
X457000Y294000D01*
X456000Y293000D01*
X455000D01*
X456000Y292000D01*
X455000Y291000D01*
X456000D01*
X457000Y290000D01*
X455000D02*
X456000Y291000D01*
X457000D01*
X456000Y292000D01*
X457000Y293000D01*
X456000D01*
X455000Y294000D01*
X454000Y293000D01*
X453000D01*
X454000Y292000D01*
X453000Y291000D01*
X454000D01*
X455000Y290000D01*
X453000D02*
X454000Y291000D01*
X455000D01*
X454000Y292000D01*
X455000Y293000D01*
X454000D01*
X453000Y294000D01*
X452000Y293000D01*
X451000D01*
X452000Y292000D01*
X451000Y291000D01*
X452000D01*
X453000Y290000D01*
X451000D02*
X452000Y291000D01*
X453000D01*
X452000Y292000D01*
X453000Y293000D01*
X452000D01*
X451000Y294000D01*
X450000Y293000D01*
X449000D01*
X450000Y292000D01*
X449000Y291000D01*
X450000D01*
X451000Y290000D01*
X477000Y264500D02*
X478000Y265500D01*
X479000D01*
X478000Y266500D01*
X479000Y267500D01*
X478000D01*
X477000Y268500D01*
X476000Y267500D01*
X475000D01*
X476000Y266500D01*
X475000Y265500D01*
X476000D01*
X477000Y264500D01*
Y266500D02*
X478000Y267500D01*
X479000D01*
X478000Y268500D01*
X479000Y269500D01*
X478000D01*
X477000Y270500D01*
X476000Y269500D01*
X475000D01*
X476000Y268500D01*
X475000Y267500D01*
X476000D01*
X477000Y266500D01*
Y268500D02*
X478000Y269500D01*
X479000D01*
X478000Y270500D01*
X479000Y271500D01*
X478000D01*
X477000Y272500D01*
X476000Y271500D01*
X475000D01*
X476000Y270500D01*
X475000Y269500D01*
X476000D01*
X477000Y268500D01*
Y270500D02*
X478000Y271500D01*
X479000D01*
X478000Y272500D01*
X479000Y273500D01*
X478000D01*
X477000Y274500D01*
X476000Y273500D01*
X475000D01*
X476000Y272500D01*
X475000Y271500D01*
X476000D01*
X477000Y270500D01*
Y272500D02*
X478000Y273500D01*
X479000D01*
X478000Y274500D01*
X479000Y275500D01*
X478000D01*
X477000Y276500D01*
X476000Y275500D01*
X475000D01*
X476000Y274500D01*
X475000Y273500D01*
X476000D01*
X477000Y272500D01*
Y274500D02*
X478000Y275500D01*
X479000D01*
X478000Y276500D01*
X479000Y277500D01*
X478000D01*
X477000Y278500D01*
X476000Y277500D01*
X475000D01*
X476000Y276500D01*
X475000Y275500D01*
X476000D01*
X477000Y274500D01*
X461000Y288000D02*
X462000Y289000D01*
X463000D01*
X462000Y290000D01*
X463000Y291000D01*
X462000D01*
X461000Y292000D01*
X460000Y291000D01*
X459000D01*
X460000Y290000D01*
X459000Y289000D01*
X460000D01*
X461000Y288000D01*
X473000D02*
X474000Y289000D01*
X475000D01*
X474000Y290000D01*
X475000Y291000D01*
X474000D01*
X473000Y292000D01*
X472000Y291000D01*
X471000D01*
X472000Y290000D01*
X471000Y289000D01*
X472000D01*
X473000Y288000D01*
X475000D02*
X476000Y289000D01*
X477000D01*
X476000Y290000D01*
X477000Y291000D01*
X476000D01*
X475000Y292000D01*
X474000Y291000D01*
X473000D01*
X474000Y290000D01*
X473000Y289000D01*
X474000D01*
X475000Y288000D01*
X471000D02*
X472000Y289000D01*
X473000D01*
X472000Y290000D01*
X473000Y291000D01*
X472000D01*
X471000Y292000D01*
X470000Y291000D01*
X469000D01*
X470000Y290000D01*
X469000Y289000D01*
X470000D01*
X471000Y288000D01*
X469000D02*
X470000Y289000D01*
X471000D01*
X470000Y290000D01*
X471000Y291000D01*
X470000D01*
X469000Y292000D01*
X468000Y291000D01*
X467000D01*
X468000Y290000D01*
X467000Y289000D01*
X468000D01*
X469000Y288000D01*
X467000D02*
X468000Y289000D01*
X469000D01*
X468000Y290000D01*
X469000Y291000D01*
X468000D01*
X467000Y292000D01*
X466000Y291000D01*
X465000D01*
X466000Y290000D01*
X465000Y289000D01*
X466000D01*
X467000Y288000D01*
X465000D02*
X466000Y289000D01*
X467000D01*
X466000Y290000D01*
X467000Y291000D01*
X466000D01*
X465000Y292000D01*
X464000Y291000D01*
X463000D01*
X464000Y290000D01*
X463000Y289000D01*
X464000D01*
X465000Y288000D01*
X463000D02*
X464000Y289000D01*
X465000D01*
X464000Y290000D01*
X465000Y291000D01*
X464000D01*
X463000Y292000D01*
X462000Y291000D01*
X461000D01*
X462000Y290000D01*
X461000Y289000D01*
X462000D01*
X463000Y288000D01*
X459000D02*
X460000Y289000D01*
X461000D01*
X460000Y290000D01*
X461000Y291000D01*
X460000D01*
X459000Y292000D01*
X458000Y291000D01*
X457000D01*
X458000Y290000D01*
X457000Y289000D01*
X458000D01*
X459000Y288000D01*
X457000D02*
X458000Y289000D01*
X459000D01*
X458000Y290000D01*
X459000Y291000D01*
X458000D01*
X457000Y292000D01*
X456000Y291000D01*
X455000D01*
X456000Y290000D01*
X455000Y289000D01*
X456000D01*
X457000Y288000D01*
X455000D02*
X456000Y289000D01*
X457000D01*
X456000Y290000D01*
X457000Y291000D01*
X456000D01*
X455000Y292000D01*
X454000Y291000D01*
X453000D01*
X454000Y290000D01*
X453000Y289000D01*
X454000D01*
X455000Y288000D01*
X453000D02*
X454000Y289000D01*
X455000D01*
X454000Y290000D01*
X455000Y291000D01*
X454000D01*
X453000Y292000D01*
X452000Y291000D01*
X451000D01*
X452000Y290000D01*
X451000Y289000D01*
X452000D01*
X453000Y288000D01*
X451000D02*
X452000Y289000D01*
X453000D01*
X452000Y290000D01*
X453000Y291000D01*
X452000D01*
X451000Y292000D01*
X450000Y291000D01*
X449000D01*
X450000Y290000D01*
X449000Y289000D01*
X450000D01*
X451000Y288000D01*
Y286000D02*
X452000Y287000D01*
X453000D01*
X452000Y288000D01*
X453000Y289000D01*
X452000D01*
X451000Y290000D01*
X450000Y289000D01*
X449000D01*
X450000Y288000D01*
X449000Y287000D01*
X450000D01*
X451000Y286000D01*
X453000D02*
X454000Y287000D01*
X455000D01*
X454000Y288000D01*
X455000Y289000D01*
X454000D01*
X453000Y290000D01*
X452000Y289000D01*
X451000D01*
X452000Y288000D01*
X451000Y287000D01*
X452000D01*
X453000Y286000D01*
X455000D02*
X456000Y287000D01*
X457000D01*
X456000Y288000D01*
X457000Y289000D01*
X456000D01*
X455000Y290000D01*
X454000Y289000D01*
X453000D01*
X454000Y288000D01*
X453000Y287000D01*
X454000D01*
X455000Y286000D01*
X457000D02*
X458000Y287000D01*
X459000D01*
X458000Y288000D01*
X459000Y289000D01*
X458000D01*
X457000Y290000D01*
X456000Y289000D01*
X455000D01*
X456000Y288000D01*
X455000Y287000D01*
X456000D01*
X457000Y286000D01*
X459000D02*
X460000Y287000D01*
X461000D01*
X460000Y288000D01*
X461000Y289000D01*
X460000D01*
X459000Y290000D01*
X458000Y289000D01*
X457000D01*
X458000Y288000D01*
X457000Y287000D01*
X458000D01*
X459000Y286000D01*
X461000D02*
X462000Y287000D01*
X463000D01*
X462000Y288000D01*
X463000Y289000D01*
X462000D01*
X461000Y290000D01*
X460000Y289000D01*
X459000D01*
X460000Y288000D01*
X459000Y287000D01*
X460000D01*
X461000Y286000D01*
X463000D02*
X464000Y287000D01*
X465000D01*
X464000Y288000D01*
X465000Y289000D01*
X464000D01*
X463000Y290000D01*
X462000Y289000D01*
X461000D01*
X462000Y288000D01*
X461000Y287000D01*
X462000D01*
X463000Y286000D01*
X465000D02*
X466000Y287000D01*
X467000D01*
X466000Y288000D01*
X467000Y289000D01*
X466000D01*
X465000Y290000D01*
X464000Y289000D01*
X463000D01*
X464000Y288000D01*
X463000Y287000D01*
X464000D01*
X465000Y286000D01*
X467000D02*
X468000Y287000D01*
X469000D01*
X468000Y288000D01*
X469000Y289000D01*
X468000D01*
X467000Y290000D01*
X466000Y289000D01*
X465000D01*
X466000Y288000D01*
X465000Y287000D01*
X466000D01*
X467000Y286000D01*
X469000D02*
X470000Y287000D01*
X471000D01*
X470000Y288000D01*
X471000Y289000D01*
X470000D01*
X469000Y290000D01*
X468000Y289000D01*
X467000D01*
X468000Y288000D01*
X467000Y287000D01*
X468000D01*
X469000Y286000D01*
X471000D02*
X472000Y287000D01*
X473000D01*
X472000Y288000D01*
X473000Y289000D01*
X472000D01*
X471000Y290000D01*
X470000Y289000D01*
X469000D01*
X470000Y288000D01*
X469000Y287000D01*
X470000D01*
X471000Y286000D01*
X473000D02*
X474000Y287000D01*
X475000D01*
X474000Y288000D01*
X475000Y289000D01*
X474000D01*
X473000Y290000D01*
X472000Y289000D01*
X471000D01*
X472000Y288000D01*
X471000Y287000D01*
X472000D01*
X473000Y286000D01*
X475000D02*
X476000Y287000D01*
X477000D01*
X476000Y288000D01*
X477000Y289000D01*
X476000D01*
X475000Y290000D01*
X474000Y289000D01*
X473000D01*
X474000Y288000D01*
X473000Y287000D01*
X474000D01*
X475000Y286000D01*
Y284000D02*
X476000Y285000D01*
X477000D01*
X476000Y286000D01*
X477000Y287000D01*
X476000D01*
X475000Y288000D01*
X474000Y287000D01*
X473000D01*
X474000Y286000D01*
X473000Y285000D01*
X474000D01*
X475000Y284000D01*
X473000D02*
X474000Y285000D01*
X475000D01*
X474000Y286000D01*
X475000Y287000D01*
X474000D01*
X473000Y288000D01*
X472000Y287000D01*
X471000D01*
X472000Y286000D01*
X471000Y285000D01*
X472000D01*
X473000Y284000D01*
X471000D02*
X472000Y285000D01*
X473000D01*
X472000Y286000D01*
X473000Y287000D01*
X472000D01*
X471000Y288000D01*
X470000Y287000D01*
X469000D01*
X470000Y286000D01*
X469000Y285000D01*
X470000D01*
X471000Y284000D01*
X469000D02*
X470000Y285000D01*
X471000D01*
X470000Y286000D01*
X471000Y287000D01*
X470000D01*
X469000Y288000D01*
X468000Y287000D01*
X467000D01*
X468000Y286000D01*
X467000Y285000D01*
X468000D01*
X469000Y284000D01*
X467000D02*
X468000Y285000D01*
X469000D01*
X468000Y286000D01*
X469000Y287000D01*
X468000D01*
X467000Y288000D01*
X466000Y287000D01*
X465000D01*
X466000Y286000D01*
X465000Y285000D01*
X466000D01*
X467000Y284000D01*
X465000D02*
X466000Y285000D01*
X467000D01*
X466000Y286000D01*
X467000Y287000D01*
X466000D01*
X465000Y288000D01*
X464000Y287000D01*
X463000D01*
X464000Y286000D01*
X463000Y285000D01*
X464000D01*
X465000Y284000D01*
X463000D02*
X464000Y285000D01*
X465000D01*
X464000Y286000D01*
X465000Y287000D01*
X464000D01*
X463000Y288000D01*
X462000Y287000D01*
X461000D01*
X462000Y286000D01*
X461000Y285000D01*
X462000D01*
X463000Y284000D01*
X461000D02*
X462000Y285000D01*
X463000D01*
X462000Y286000D01*
X463000Y287000D01*
X462000D01*
X461000Y288000D01*
X460000Y287000D01*
X459000D01*
X460000Y286000D01*
X459000Y285000D01*
X460000D01*
X461000Y284000D01*
X459000D02*
X460000Y285000D01*
X461000D01*
X460000Y286000D01*
X461000Y287000D01*
X460000D01*
X459000Y288000D01*
X458000Y287000D01*
X457000D01*
X458000Y286000D01*
X457000Y285000D01*
X458000D01*
X459000Y284000D01*
X457000D02*
X458000Y285000D01*
X459000D01*
X458000Y286000D01*
X459000Y287000D01*
X458000D01*
X457000Y288000D01*
X456000Y287000D01*
X455000D01*
X456000Y286000D01*
X455000Y285000D01*
X456000D01*
X457000Y284000D01*
X455000D02*
X456000Y285000D01*
X457000D01*
X456000Y286000D01*
X457000Y287000D01*
X456000D01*
X455000Y288000D01*
X454000Y287000D01*
X453000D01*
X454000Y286000D01*
X453000Y285000D01*
X454000D01*
X455000Y284000D01*
X453000D02*
X454000Y285000D01*
X455000D01*
X454000Y286000D01*
X455000Y287000D01*
X454000D01*
X453000Y288000D01*
X452000Y287000D01*
X451000D01*
X452000Y286000D01*
X451000Y285000D01*
X452000D01*
X453000Y284000D01*
X451000D02*
X452000Y285000D01*
X453000D01*
X452000Y286000D01*
X453000Y287000D01*
X452000D01*
X451000Y288000D01*
X450000Y287000D01*
X449000D01*
X450000Y286000D01*
X449000Y285000D01*
X450000D01*
X451000Y284000D01*
X475000Y264500D02*
X476000Y265500D01*
X477000D01*
X476000Y266500D01*
X477000Y267500D01*
X476000D01*
X475000Y268500D01*
X474000Y267500D01*
X473000D01*
X474000Y266500D01*
X473000Y265500D01*
X474000D01*
X475000Y264500D01*
Y266500D02*
X476000Y267500D01*
X477000D01*
X476000Y268500D01*
X477000Y269500D01*
X476000D01*
X475000Y270500D01*
X474000Y269500D01*
X473000D01*
X474000Y268500D01*
X473000Y267500D01*
X474000D01*
X475000Y266500D01*
Y268500D02*
X476000Y269500D01*
X477000D01*
X476000Y270500D01*
X477000Y271500D01*
X476000D01*
X475000Y272500D01*
X474000Y271500D01*
X473000D01*
X474000Y270500D01*
X473000Y269500D01*
X474000D01*
X475000Y268500D01*
Y270500D02*
X476000Y271500D01*
X477000D01*
X476000Y272500D01*
X477000Y273500D01*
X476000D01*
X475000Y274500D01*
X474000Y273500D01*
X473000D01*
X474000Y272500D01*
X473000Y271500D01*
X474000D01*
X475000Y270500D01*
Y272500D02*
X476000Y273500D01*
X477000D01*
X476000Y274500D01*
X477000Y275500D01*
X476000D01*
X475000Y276500D01*
X474000Y275500D01*
X473000D01*
X474000Y274500D01*
X473000Y273500D01*
X474000D01*
X475000Y272500D01*
Y274500D02*
X476000Y275500D01*
X477000D01*
X476000Y276500D01*
X477000Y277500D01*
X476000D01*
X475000Y278500D01*
X474000Y277500D01*
X473000D01*
X474000Y276500D01*
X473000Y275500D01*
X474000D01*
X475000Y274500D01*
X473000Y264500D02*
X474000Y265500D01*
X475000D01*
X474000Y266500D01*
X475000Y267500D01*
X474000D01*
X473000Y268500D01*
X472000Y267500D01*
X471000D01*
X472000Y266500D01*
X471000Y265500D01*
X472000D01*
X473000Y264500D01*
Y266500D02*
X474000Y267500D01*
X475000D01*
X474000Y268500D01*
X475000Y269500D01*
X474000D01*
X473000Y270500D01*
X472000Y269500D01*
X471000D01*
X472000Y268500D01*
X471000Y267500D01*
X472000D01*
X473000Y266500D01*
Y268500D02*
X474000Y269500D01*
X475000D01*
X474000Y270500D01*
X475000Y271500D01*
X474000D01*
X473000Y272500D01*
X472000Y271500D01*
X471000D01*
X472000Y270500D01*
X471000Y269500D01*
X472000D01*
X473000Y268500D01*
Y270500D02*
X474000Y271500D01*
X475000D01*
X474000Y272500D01*
X475000Y273500D01*
X474000D01*
X473000Y274500D01*
X472000Y273500D01*
X471000D01*
X472000Y272500D01*
X471000Y271500D01*
X472000D01*
X473000Y270500D01*
Y272500D02*
X474000Y273500D01*
X475000D01*
X474000Y274500D01*
X475000Y275500D01*
X474000D01*
X473000Y276500D01*
X472000Y275500D01*
X471000D01*
X472000Y274500D01*
X471000Y273500D01*
X472000D01*
X473000Y272500D01*
Y274500D02*
X474000Y275500D01*
X475000D01*
X474000Y276500D01*
X475000Y277500D01*
X474000D01*
X473000Y278500D01*
X472000Y277500D01*
X471000D01*
X472000Y276500D01*
X471000Y275500D01*
X472000D01*
X473000Y274500D01*
X471000Y264500D02*
X472000Y265500D01*
X473000D01*
X472000Y266500D01*
X473000Y267500D01*
X472000D01*
X471000Y268500D01*
X470000Y267500D01*
X469000D01*
X470000Y266500D01*
X469000Y265500D01*
X470000D01*
X471000Y264500D01*
Y266500D02*
X472000Y267500D01*
X473000D01*
X472000Y268500D01*
X473000Y269500D01*
X472000D01*
X471000Y270500D01*
X470000Y269500D01*
X469000D01*
X470000Y268500D01*
X469000Y267500D01*
X470000D01*
X471000Y266500D01*
Y268500D02*
X472000Y269500D01*
X473000D01*
X472000Y270500D01*
X473000Y271500D01*
X472000D01*
X471000Y272500D01*
X470000Y271500D01*
X469000D01*
X470000Y270500D01*
X469000Y269500D01*
X470000D01*
X471000Y268500D01*
Y270500D02*
X472000Y271500D01*
X473000D01*
X472000Y272500D01*
X473000Y273500D01*
X472000D01*
X471000Y274500D01*
X470000Y273500D01*
X469000D01*
X470000Y272500D01*
X469000Y271500D01*
X470000D01*
X471000Y270500D01*
Y272500D02*
X472000Y273500D01*
X473000D01*
X472000Y274500D01*
X473000Y275500D01*
X472000D01*
X471000Y276500D01*
X470000Y275500D01*
X469000D01*
X470000Y274500D01*
X469000Y273500D01*
X470000D01*
X471000Y272500D01*
Y274500D02*
X472000Y275500D01*
X473000D01*
X472000Y276500D01*
X473000Y277500D01*
X472000D01*
X471000Y278500D01*
X470000Y277500D01*
X469000D01*
X470000Y276500D01*
X469000Y275500D01*
X470000D01*
X471000Y274500D01*
X469000Y264500D02*
X470000Y265500D01*
X471000D01*
X470000Y266500D01*
X471000Y267500D01*
X470000D01*
X469000Y268500D01*
X468000Y267500D01*
X467000D01*
X468000Y266500D01*
X467000Y265500D01*
X468000D01*
X469000Y264500D01*
X467000D02*
X468000Y265500D01*
X469000D01*
X468000Y266500D01*
X469000Y267500D01*
X468000D01*
X467000Y268500D01*
X466000Y267500D01*
X465000D01*
X466000Y266500D01*
X465000Y265500D01*
X466000D01*
X467000Y264500D01*
X465000D02*
X466000Y265500D01*
X467000D01*
X466000Y266500D01*
X467000Y267500D01*
X466000D01*
X465000Y268500D01*
X464000Y267500D01*
X463000D01*
X464000Y266500D01*
X463000Y265500D01*
X464000D01*
X465000Y264500D01*
X463000D02*
X464000Y265500D01*
X465000D01*
X464000Y266500D01*
X465000Y267500D01*
X464000D01*
X463000Y268500D01*
X462000Y267500D01*
X461000D01*
X462000Y266500D01*
X461000Y265500D01*
X462000D01*
X463000Y264500D01*
Y266500D02*
X464000Y267500D01*
X465000D01*
X464000Y268500D01*
X465000Y269500D01*
X464000D01*
X463000Y270500D01*
X462000Y269500D01*
X461000D01*
X462000Y268500D01*
X461000Y267500D01*
X462000D01*
X463000Y266500D01*
X461000Y264500D02*
X462000Y265500D01*
X463000D01*
X462000Y266500D01*
X463000Y267500D01*
X462000D01*
X461000Y268500D01*
X460000Y267500D01*
X459000D01*
X460000Y266500D01*
X459000Y265500D01*
X460000D01*
X461000Y264500D01*
X459000D02*
X460000Y265500D01*
X461000D01*
X460000Y266500D01*
X461000Y267500D01*
X460000D01*
X459000Y268500D01*
X458000Y267500D01*
X457000D01*
X458000Y266500D01*
X457000Y265500D01*
X458000D01*
X459000Y264500D01*
X457000D02*
X458000Y265500D01*
X459000D01*
X458000Y266500D01*
X459000Y267500D01*
X458000D01*
X457000Y268500D01*
X456000Y267500D01*
X455000D01*
X456000Y266500D01*
X455000Y265500D01*
X456000D01*
X457000Y264500D01*
X461000Y266500D02*
X462000Y267500D01*
X463000D01*
X462000Y268500D01*
X463000Y269500D01*
X462000D01*
X461000Y270500D01*
X460000Y269500D01*
X459000D01*
X460000Y268500D01*
X459000Y267500D01*
X460000D01*
X461000Y266500D01*
X459000D02*
X460000Y267500D01*
X461000D01*
X460000Y268500D01*
X461000Y269500D01*
X460000D01*
X459000Y270500D01*
X458000Y269500D01*
X457000D01*
X458000Y268500D01*
X457000Y267500D01*
X458000D01*
X459000Y266500D01*
X457000D02*
X458000Y267500D01*
X459000D01*
X458000Y268500D01*
X459000Y269500D01*
X458000D01*
X457000Y270500D01*
X456000Y269500D01*
X455000D01*
X456000Y268500D01*
X455000Y267500D01*
X456000D01*
X457000Y266500D01*
Y268500D02*
X458000Y269500D01*
X459000D01*
X458000Y270500D01*
X459000Y271500D01*
X458000D01*
X457000Y272500D01*
X456000Y271500D01*
X455000D01*
X456000Y270500D01*
X455000Y269500D01*
X456000D01*
X457000Y268500D01*
X465000Y266500D02*
X466000Y267500D01*
X467000D01*
X466000Y268500D01*
X467000Y269500D01*
X466000D01*
X465000Y270500D01*
X464000Y269500D01*
X463000D01*
X464000Y268500D01*
X463000Y267500D01*
X464000D01*
X465000Y266500D01*
X467000D02*
X468000Y267500D01*
X469000D01*
X468000Y268500D01*
X469000Y269500D01*
X468000D01*
X467000Y270500D01*
X466000Y269500D01*
X465000D01*
X466000Y268500D01*
X465000Y267500D01*
X466000D01*
X467000Y266500D01*
X469000D02*
X470000Y267500D01*
X471000D01*
X470000Y268500D01*
X471000Y269500D01*
X470000D01*
X469000Y270500D01*
X468000Y269500D01*
X467000D01*
X468000Y268500D01*
X467000Y267500D01*
X468000D01*
X469000Y266500D01*
Y268500D02*
X470000Y269500D01*
X471000D01*
X470000Y270500D01*
X471000Y271500D01*
X470000D01*
X469000Y272500D01*
X468000Y271500D01*
X467000D01*
X468000Y270500D01*
X467000Y269500D01*
X468000D01*
X469000Y268500D01*
X467000D02*
X468000Y269500D01*
X469000D01*
X468000Y270500D01*
X469000Y271500D01*
X468000D01*
X467000Y272500D01*
X466000Y271500D01*
X465000D01*
X466000Y270500D01*
X465000Y269500D01*
X466000D01*
X467000Y268500D01*
X465000D02*
X466000Y269500D01*
X467000D01*
X466000Y270500D01*
X467000Y271500D01*
X466000D01*
X465000Y272500D01*
X464000Y271500D01*
X463000D01*
X464000Y270500D01*
X463000Y269500D01*
X464000D01*
X465000Y268500D01*
X463000D02*
X464000Y269500D01*
X465000D01*
X464000Y270500D01*
X465000Y271500D01*
X464000D01*
X463000Y272500D01*
X462000Y271500D01*
X461000D01*
X462000Y270500D01*
X461000Y269500D01*
X462000D01*
X463000Y268500D01*
X461000D02*
X462000Y269500D01*
X463000D01*
X462000Y270500D01*
X463000Y271500D01*
X462000D01*
X461000Y272500D01*
X460000Y271500D01*
X459000D01*
X460000Y270500D01*
X459000Y269500D01*
X460000D01*
X461000Y268500D01*
X459000D02*
X460000Y269500D01*
X461000D01*
X460000Y270500D01*
X461000Y271500D01*
X460000D01*
X459000Y272500D01*
X458000Y271500D01*
X457000D01*
X458000Y270500D01*
X457000Y269500D01*
X458000D01*
X459000Y268500D01*
X455000D02*
X456000Y269500D01*
X457000D01*
X456000Y270500D01*
X457000Y271500D01*
X456000D01*
X455000Y272500D01*
X454000Y271500D01*
X453000D01*
X454000Y270500D01*
X453000Y269500D01*
X454000D01*
X455000Y268500D01*
Y266500D02*
X456000Y267500D01*
X457000D01*
X456000Y268500D01*
X457000Y269500D01*
X456000D01*
X455000Y270500D01*
X454000Y269500D01*
X453000D01*
X454000Y268500D01*
X453000Y267500D01*
X454000D01*
X455000Y266500D01*
Y264500D02*
X456000Y265500D01*
X457000D01*
X456000Y266500D01*
X457000Y267500D01*
X456000D01*
X455000Y268500D01*
X454000Y267500D01*
X453000D01*
X454000Y266500D01*
X453000Y265500D01*
X454000D01*
X455000Y264500D01*
X453000D02*
X454000Y265500D01*
X455000D01*
X454000Y266500D01*
X455000Y267500D01*
X454000D01*
X453000Y268500D01*
X452000Y267500D01*
X451000D01*
X452000Y266500D01*
X451000Y265500D01*
X452000D01*
X453000Y264500D01*
Y266500D02*
X454000Y267500D01*
X455000D01*
X454000Y268500D01*
X455000Y269500D01*
X454000D01*
X453000Y270500D01*
X452000Y269500D01*
X451000D01*
X452000Y268500D01*
X451000Y267500D01*
X452000D01*
X453000Y266500D01*
Y268500D02*
X454000Y269500D01*
X455000D01*
X454000Y270500D01*
X455000Y271500D01*
X454000D01*
X453000Y272500D01*
X452000Y271500D01*
X451000D01*
X452000Y270500D01*
X451000Y269500D01*
X452000D01*
X453000Y268500D01*
X451000Y264500D02*
X452000Y265500D01*
X453000D01*
X452000Y266500D01*
X453000Y267500D01*
X452000D01*
X451000Y268500D01*
X450000Y267500D01*
X449000D01*
X450000Y266500D01*
X449000Y265500D01*
X450000D01*
X451000Y264500D01*
Y266500D02*
X452000Y267500D01*
X453000D01*
X452000Y268500D01*
X453000Y269500D01*
X452000D01*
X451000Y270500D01*
X450000Y269500D01*
X449000D01*
X450000Y268500D01*
X449000Y267500D01*
X450000D01*
X451000Y266500D01*
Y268500D02*
X452000Y269500D01*
X453000D01*
X452000Y270500D01*
X453000Y271500D01*
X452000D01*
X451000Y272500D01*
X450000Y271500D01*
X449000D01*
X450000Y270500D01*
X449000Y269500D01*
X450000D01*
X451000Y268500D01*
X459000Y270500D02*
X460000Y271500D01*
X461000D01*
X460000Y272500D01*
X461000Y273500D01*
X460000D01*
X459000Y274500D01*
X458000Y273500D01*
X457000D01*
X458000Y272500D01*
X457000Y271500D01*
X458000D01*
X459000Y270500D01*
X451000D02*
X452000Y271500D01*
X453000D01*
X452000Y272500D01*
X453000Y273500D01*
X452000D01*
X451000Y274500D01*
X450000Y273500D01*
X449000D01*
X450000Y272500D01*
X449000Y271500D01*
X450000D01*
X451000Y270500D01*
X453000D02*
X454000Y271500D01*
X455000D01*
X454000Y272500D01*
X455000Y273500D01*
X454000D01*
X453000Y274500D01*
X452000Y273500D01*
X451000D01*
X452000Y272500D01*
X451000Y271500D01*
X452000D01*
X453000Y270500D01*
X455000D02*
X456000Y271500D01*
X457000D01*
X456000Y272500D01*
X457000Y273500D01*
X456000D01*
X455000Y274500D01*
X454000Y273500D01*
X453000D01*
X454000Y272500D01*
X453000Y271500D01*
X454000D01*
X455000Y270500D01*
X457000D02*
X458000Y271500D01*
X459000D01*
X458000Y272500D01*
X459000Y273500D01*
X458000D01*
X457000Y274500D01*
X456000Y273500D01*
X455000D01*
X456000Y272500D01*
X455000Y271500D01*
X456000D01*
X457000Y270500D01*
X461000D02*
X462000Y271500D01*
X463000D01*
X462000Y272500D01*
X463000Y273500D01*
X462000D01*
X461000Y274500D01*
X460000Y273500D01*
X459000D01*
X460000Y272500D01*
X459000Y271500D01*
X460000D01*
X461000Y270500D01*
X463000D02*
X464000Y271500D01*
X465000D01*
X464000Y272500D01*
X465000Y273500D01*
X464000D01*
X463000Y274500D01*
X462000Y273500D01*
X461000D01*
X462000Y272500D01*
X461000Y271500D01*
X462000D01*
X463000Y270500D01*
X465000D02*
X466000Y271500D01*
X467000D01*
X466000Y272500D01*
X467000Y273500D01*
X466000D01*
X465000Y274500D01*
X464000Y273500D01*
X463000D01*
X464000Y272500D01*
X463000Y271500D01*
X464000D01*
X465000Y270500D01*
X467000D02*
X468000Y271500D01*
X469000D01*
X468000Y272500D01*
X469000Y273500D01*
X468000D01*
X467000Y274500D01*
X466000Y273500D01*
X465000D01*
X466000Y272500D01*
X465000Y271500D01*
X466000D01*
X467000Y270500D01*
X469000D02*
X470000Y271500D01*
X471000D01*
X470000Y272500D01*
X471000Y273500D01*
X470000D01*
X469000Y274500D01*
X468000Y273500D01*
X467000D01*
X468000Y272500D01*
X467000Y271500D01*
X468000D01*
X469000Y270500D01*
Y272500D02*
X470000Y273500D01*
X471000D01*
X470000Y274500D01*
X471000Y275500D01*
X470000D01*
X469000Y276500D01*
X468000Y275500D01*
X467000D01*
X468000Y274500D01*
X467000Y273500D01*
X468000D01*
X469000Y272500D01*
X467000D02*
X468000Y273500D01*
X469000D01*
X468000Y274500D01*
X469000Y275500D01*
X468000D01*
X467000Y276500D01*
X466000Y275500D01*
X465000D01*
X466000Y274500D01*
X465000Y273500D01*
X466000D01*
X467000Y272500D01*
X465000D02*
X466000Y273500D01*
X467000D01*
X466000Y274500D01*
X467000Y275500D01*
X466000D01*
X465000Y276500D01*
X464000Y275500D01*
X463000D01*
X464000Y274500D01*
X463000Y273500D01*
X464000D01*
X465000Y272500D01*
X463000D02*
X464000Y273500D01*
X465000D01*
X464000Y274500D01*
X465000Y275500D01*
X464000D01*
X463000Y276500D01*
X462000Y275500D01*
X461000D01*
X462000Y274500D01*
X461000Y273500D01*
X462000D01*
X463000Y272500D01*
X461000D02*
X462000Y273500D01*
X463000D01*
X462000Y274500D01*
X463000Y275500D01*
X462000D01*
X461000Y276500D01*
X460000Y275500D01*
X459000D01*
X460000Y274500D01*
X459000Y273500D01*
X460000D01*
X461000Y272500D01*
X459000D02*
X460000Y273500D01*
X461000D01*
X460000Y274500D01*
X461000Y275500D01*
X460000D01*
X459000Y276500D01*
X458000Y275500D01*
X457000D01*
X458000Y274500D01*
X457000Y273500D01*
X458000D01*
X459000Y272500D01*
X457000D02*
X458000Y273500D01*
X459000D01*
X458000Y274500D01*
X459000Y275500D01*
X458000D01*
X457000Y276500D01*
X456000Y275500D01*
X455000D01*
X456000Y274500D01*
X455000Y273500D01*
X456000D01*
X457000Y272500D01*
X455000D02*
X456000Y273500D01*
X457000D01*
X456000Y274500D01*
X457000Y275500D01*
X456000D01*
X455000Y276500D01*
X454000Y275500D01*
X453000D01*
X454000Y274500D01*
X453000Y273500D01*
X454000D01*
X455000Y272500D01*
X453000D02*
X454000Y273500D01*
X455000D01*
X454000Y274500D01*
X455000Y275500D01*
X454000D01*
X453000Y276500D01*
X452000Y275500D01*
X451000D01*
X452000Y274500D01*
X451000Y273500D01*
X452000D01*
X453000Y272500D01*
X451000D02*
X452000Y273500D01*
X453000D01*
X452000Y274500D01*
X453000Y275500D01*
X452000D01*
X451000Y276500D01*
X450000Y275500D01*
X449000D01*
X450000Y274500D01*
X449000Y273500D01*
X450000D01*
X451000Y272500D01*
X469000Y274500D02*
X470000Y275500D01*
X471000D01*
X470000Y276500D01*
X471000Y277500D01*
X470000D01*
X469000Y278500D01*
X468000Y277500D01*
X467000D01*
X468000Y276500D01*
X467000Y275500D01*
X468000D01*
X469000Y274500D01*
X467000D02*
X468000Y275500D01*
X469000D01*
X468000Y276500D01*
X469000Y277500D01*
X468000D01*
X467000Y278500D01*
X466000Y277500D01*
X465000D01*
X466000Y276500D01*
X465000Y275500D01*
X466000D01*
X467000Y274500D01*
X465000D02*
X466000Y275500D01*
X467000D01*
X466000Y276500D01*
X467000Y277500D01*
X466000D01*
X465000Y278500D01*
X464000Y277500D01*
X463000D01*
X464000Y276500D01*
X463000Y275500D01*
X464000D01*
X465000Y274500D01*
X463000D02*
X464000Y275500D01*
X465000D01*
X464000Y276500D01*
X465000Y277500D01*
X464000D01*
X463000Y278500D01*
X462000Y277500D01*
X461000D01*
X462000Y276500D01*
X461000Y275500D01*
X462000D01*
X463000Y274500D01*
X461000D02*
X462000Y275500D01*
X463000D01*
X462000Y276500D01*
X463000Y277500D01*
X462000D01*
X461000Y278500D01*
X460000Y277500D01*
X459000D01*
X460000Y276500D01*
X459000Y275500D01*
X460000D01*
X461000Y274500D01*
X459000D02*
X460000Y275500D01*
X461000D01*
X460000Y276500D01*
X461000Y277500D01*
X460000D01*
X459000Y278500D01*
X458000Y277500D01*
X457000D01*
X458000Y276500D01*
X457000Y275500D01*
X458000D01*
X459000Y274500D01*
X457000D02*
X458000Y275500D01*
X459000D01*
X458000Y276500D01*
X459000Y277500D01*
X458000D01*
X457000Y278500D01*
X456000Y277500D01*
X455000D01*
X456000Y276500D01*
X455000Y275500D01*
X456000D01*
X457000Y274500D01*
X455000D02*
X456000Y275500D01*
X457000D01*
X456000Y276500D01*
X457000Y277500D01*
X456000D01*
X455000Y278500D01*
X454000Y277500D01*
X453000D01*
X454000Y276500D01*
X453000Y275500D01*
X454000D01*
X455000Y274500D01*
X453000D02*
X454000Y275500D01*
X455000D01*
X454000Y276500D01*
X455000Y277500D01*
X454000D01*
X453000Y278500D01*
X452000Y277500D01*
X451000D01*
X452000Y276500D01*
X451000Y275500D01*
X452000D01*
X453000Y274500D01*
X451000D02*
X452000Y275500D01*
X453000D01*
X452000Y276500D01*
X453000Y277500D01*
X452000D01*
X451000Y278500D01*
X450000Y277500D01*
X449000D01*
X450000Y276500D01*
X449000Y275500D01*
X450000D01*
X451000Y274500D01*
X492500Y255500D02*
X493500Y256500D01*
X494500D01*
X493500Y257500D01*
X494500Y258500D01*
X493500D01*
X492500Y259500D01*
X491500Y258500D01*
X490500D01*
X491500Y257500D01*
X490500Y256500D01*
X491500D01*
X492500Y255500D01*
X495000D02*
X496000Y256500D01*
X497000D01*
X496000Y257500D01*
X497000Y258500D01*
X496000D01*
X495000Y259500D01*
X494000Y258500D01*
X493000D01*
X494000Y257500D01*
X493000Y256500D01*
X494000D01*
X495000Y255500D01*
X497500D02*
X498500Y256500D01*
X499500D01*
X498500Y257500D01*
X499500Y258500D01*
X498500D01*
X497500Y259500D01*
X496500Y258500D01*
X495500D01*
X496500Y257500D01*
X495500Y256500D01*
X496500D01*
X497500Y255500D01*
X500000D02*
X501000Y256500D01*
X502000D01*
X501000Y257500D01*
X502000Y258500D01*
X501000D01*
X500000Y259500D01*
X499000Y258500D01*
X498000D01*
X499000Y257500D01*
X498000Y256500D01*
X499000D01*
X500000Y255500D01*
X502500D02*
X503500Y256500D01*
X504500D01*
X503500Y257500D01*
X504500Y258500D01*
X503500D01*
X502500Y259500D01*
X501500Y258500D01*
X500500D01*
X501500Y257500D01*
X500500Y256500D01*
X501500D01*
X502500Y255500D01*
X505000D02*
X506000Y256500D01*
X507000D01*
X506000Y257500D01*
X507000Y258500D01*
X506000D01*
X505000Y259500D01*
X504000Y258500D01*
X503000D01*
X504000Y257500D01*
X503000Y256500D01*
X504000D01*
X505000Y255500D01*
X507500D02*
X508500Y256500D01*
X509500D01*
X508500Y257500D01*
X509500Y258500D01*
X508500D01*
X507500Y259500D01*
X506500Y258500D01*
X505500D01*
X506500Y257500D01*
X505500Y256500D01*
X506500D01*
X507500Y255500D01*
X510000D02*
X511000Y256500D01*
X512000D01*
X511000Y257500D01*
X512000Y258500D01*
X511000D01*
X510000Y259500D01*
X509000Y258500D01*
X508000D01*
X509000Y257500D01*
X508000Y256500D01*
X509000D01*
X510000Y255500D01*
X512500D02*
X513500Y256500D01*
X514500D01*
X513500Y257500D01*
X514500Y258500D01*
X513500D01*
X512500Y259500D01*
X511500Y258500D01*
X510500D01*
X511500Y257500D01*
X510500Y256500D01*
X511500D01*
X512500Y255500D01*
X515000D02*
X516000Y256500D01*
X517000D01*
X516000Y257500D01*
X517000Y258500D01*
X516000D01*
X515000Y259500D01*
X514000Y258500D01*
X513000D01*
X514000Y257500D01*
X513000Y256500D01*
X514000D01*
X515000Y255500D01*
X517500D02*
X518500Y256500D01*
X519500D01*
X518500Y257500D01*
X519500Y258500D01*
X518500D01*
X517500Y259500D01*
X516500Y258500D01*
X515500D01*
X516500Y257500D01*
X515500Y256500D01*
X516500D01*
X517500Y255500D01*
X520000D02*
X521000Y256500D01*
X522000D01*
X521000Y257500D01*
X522000Y258500D01*
X521000D01*
X520000Y259500D01*
X519000Y258500D01*
X518000D01*
X519000Y257500D01*
X518000Y256500D01*
X519000D01*
X520000Y255500D01*
Y253000D02*
X521000Y254000D01*
X522000D01*
X521000Y255000D01*
X522000Y256000D01*
X521000D01*
X520000Y257000D01*
X519000Y256000D01*
X518000D01*
X519000Y255000D01*
X518000Y254000D01*
X519000D01*
X520000Y253000D01*
X517500D02*
X518500Y254000D01*
X519500D01*
X518500Y255000D01*
X519500Y256000D01*
X518500D01*
X517500Y257000D01*
X516500Y256000D01*
X515500D01*
X516500Y255000D01*
X515500Y254000D01*
X516500D01*
X517500Y253000D01*
X515000D02*
X516000Y254000D01*
X517000D01*
X516000Y255000D01*
X517000Y256000D01*
X516000D01*
X515000Y257000D01*
X514000Y256000D01*
X513000D01*
X514000Y255000D01*
X513000Y254000D01*
X514000D01*
X515000Y253000D01*
X512500D02*
X513500Y254000D01*
X514500D01*
X513500Y255000D01*
X514500Y256000D01*
X513500D01*
X512500Y257000D01*
X511500Y256000D01*
X510500D01*
X511500Y255000D01*
X510500Y254000D01*
X511500D01*
X512500Y253000D01*
X510000D02*
X511000Y254000D01*
X512000D01*
X511000Y255000D01*
X512000Y256000D01*
X511000D01*
X510000Y257000D01*
X509000Y256000D01*
X508000D01*
X509000Y255000D01*
X508000Y254000D01*
X509000D01*
X510000Y253000D01*
X507500D02*
X508500Y254000D01*
X509500D01*
X508500Y255000D01*
X509500Y256000D01*
X508500D01*
X507500Y257000D01*
X506500Y256000D01*
X505500D01*
X506500Y255000D01*
X505500Y254000D01*
X506500D01*
X507500Y253000D01*
X505000D02*
X506000Y254000D01*
X507000D01*
X506000Y255000D01*
X507000Y256000D01*
X506000D01*
X505000Y257000D01*
X504000Y256000D01*
X503000D01*
X504000Y255000D01*
X503000Y254000D01*
X504000D01*
X505000Y253000D01*
X502500D02*
X503500Y254000D01*
X504500D01*
X503500Y255000D01*
X504500Y256000D01*
X503500D01*
X502500Y257000D01*
X501500Y256000D01*
X500500D01*
X501500Y255000D01*
X500500Y254000D01*
X501500D01*
X502500Y253000D01*
X500000D02*
X501000Y254000D01*
X502000D01*
X501000Y255000D01*
X502000Y256000D01*
X501000D01*
X500000Y257000D01*
X499000Y256000D01*
X498000D01*
X499000Y255000D01*
X498000Y254000D01*
X499000D01*
X500000Y253000D01*
X497500D02*
X498500Y254000D01*
X499500D01*
X498500Y255000D01*
X499500Y256000D01*
X498500D01*
X497500Y257000D01*
X496500Y256000D01*
X495500D01*
X496500Y255000D01*
X495500Y254000D01*
X496500D01*
X497500Y253000D01*
X495000D02*
X496000Y254000D01*
X497000D01*
X496000Y255000D01*
X497000Y256000D01*
X496000D01*
X495000Y257000D01*
X494000Y256000D01*
X493000D01*
X494000Y255000D01*
X493000Y254000D01*
X494000D01*
X495000Y253000D01*
X492500D02*
X493500Y254000D01*
X494500D01*
X493500Y255000D01*
X494500Y256000D01*
X493500D01*
X492500Y257000D01*
X491500Y256000D01*
X490500D01*
X491500Y255000D01*
X490500Y254000D01*
X491500D01*
X492500Y253000D01*
Y250500D02*
X493500Y251500D01*
X494500D01*
X493500Y252500D01*
X494500Y253500D01*
X493500D01*
X492500Y254500D01*
X491500Y253500D01*
X490500D01*
X491500Y252500D01*
X490500Y251500D01*
X491500D01*
X492500Y250500D01*
X495000D02*
X496000Y251500D01*
X497000D01*
X496000Y252500D01*
X497000Y253500D01*
X496000D01*
X495000Y254500D01*
X494000Y253500D01*
X493000D01*
X494000Y252500D01*
X493000Y251500D01*
X494000D01*
X495000Y250500D01*
X497500D02*
X498500Y251500D01*
X499500D01*
X498500Y252500D01*
X499500Y253500D01*
X498500D01*
X497500Y254500D01*
X496500Y253500D01*
X495500D01*
X496500Y252500D01*
X495500Y251500D01*
X496500D01*
X497500Y250500D01*
X500000D02*
X501000Y251500D01*
X502000D01*
X501000Y252500D01*
X502000Y253500D01*
X501000D01*
X500000Y254500D01*
X499000Y253500D01*
X498000D01*
X499000Y252500D01*
X498000Y251500D01*
X499000D01*
X500000Y250500D01*
X502500D02*
X503500Y251500D01*
X504500D01*
X503500Y252500D01*
X504500Y253500D01*
X503500D01*
X502500Y254500D01*
X501500Y253500D01*
X500500D01*
X501500Y252500D01*
X500500Y251500D01*
X501500D01*
X502500Y250500D01*
X505000D02*
X506000Y251500D01*
X507000D01*
X506000Y252500D01*
X507000Y253500D01*
X506000D01*
X505000Y254500D01*
X504000Y253500D01*
X503000D01*
X504000Y252500D01*
X503000Y251500D01*
X504000D01*
X505000Y250500D01*
X507500D02*
X508500Y251500D01*
X509500D01*
X508500Y252500D01*
X509500Y253500D01*
X508500D01*
X507500Y254500D01*
X506500Y253500D01*
X505500D01*
X506500Y252500D01*
X505500Y251500D01*
X506500D01*
X507500Y250500D01*
X510000D02*
X511000Y251500D01*
X512000D01*
X511000Y252500D01*
X512000Y253500D01*
X511000D01*
X510000Y254500D01*
X509000Y253500D01*
X508000D01*
X509000Y252500D01*
X508000Y251500D01*
X509000D01*
X510000Y250500D01*
X512500D02*
X513500Y251500D01*
X514500D01*
X513500Y252500D01*
X514500Y253500D01*
X513500D01*
X512500Y254500D01*
X511500Y253500D01*
X510500D01*
X511500Y252500D01*
X510500Y251500D01*
X511500D01*
X512500Y250500D01*
X515000D02*
X516000Y251500D01*
X517000D01*
X516000Y252500D01*
X517000Y253500D01*
X516000D01*
X515000Y254500D01*
X514000Y253500D01*
X513000D01*
X514000Y252500D01*
X513000Y251500D01*
X514000D01*
X515000Y250500D01*
X517500D02*
X518500Y251500D01*
X519500D01*
X518500Y252500D01*
X519500Y253500D01*
X518500D01*
X517500Y254500D01*
X516500Y253500D01*
X515500D01*
X516500Y252500D01*
X515500Y251500D01*
X516500D01*
X517500Y250500D01*
X520000D02*
X521000Y251500D01*
X522000D01*
X521000Y252500D01*
X522000Y253500D01*
X521000D01*
X520000Y254500D01*
X519000Y253500D01*
X518000D01*
X519000Y252500D01*
X518000Y251500D01*
X519000D01*
X520000Y250500D01*
X499000Y304500D02*
X500000Y305500D01*
X501000D01*
X500000Y306500D01*
X501000Y307500D01*
X500000D01*
X499000Y308500D01*
X498000Y307500D01*
X497000D01*
X498000Y306500D01*
X497000Y305500D01*
X498000D01*
X499000Y304500D01*
X501500D02*
X502500Y305500D01*
X503500D01*
X502500Y306500D01*
X503500Y307500D01*
X502500D01*
X501500Y308500D01*
X500500Y307500D01*
X499500D01*
X500500Y306500D01*
X499500Y305500D01*
X500500D01*
X501500Y304500D01*
X504000D02*
X505000Y305500D01*
X506000D01*
X505000Y306500D01*
X506000Y307500D01*
X505000D01*
X504000Y308500D01*
X503000Y307500D01*
X502000D01*
X503000Y306500D01*
X502000Y305500D01*
X503000D01*
X504000Y304500D01*
X506500D02*
X507500Y305500D01*
X508500D01*
X507500Y306500D01*
X508500Y307500D01*
X507500D01*
X506500Y308500D01*
X505500Y307500D01*
X504500D01*
X505500Y306500D01*
X504500Y305500D01*
X505500D01*
X506500Y304500D01*
X509000D02*
X510000Y305500D01*
X511000D01*
X510000Y306500D01*
X511000Y307500D01*
X510000D01*
X509000Y308500D01*
X508000Y307500D01*
X507000D01*
X508000Y306500D01*
X507000Y305500D01*
X508000D01*
X509000Y304500D01*
X511500D02*
X512500Y305500D01*
X513500D01*
X512500Y306500D01*
X513500Y307500D01*
X512500D01*
X511500Y308500D01*
X510500Y307500D01*
X509500D01*
X510500Y306500D01*
X509500Y305500D01*
X510500D01*
X511500Y304500D01*
X514000D02*
X515000Y305500D01*
X516000D01*
X515000Y306500D01*
X516000Y307500D01*
X515000D01*
X514000Y308500D01*
X513000Y307500D01*
X512000D01*
X513000Y306500D01*
X512000Y305500D01*
X513000D01*
X514000Y304500D01*
X516500D02*
X517500Y305500D01*
X518500D01*
X517500Y306500D01*
X518500Y307500D01*
X517500D01*
X516500Y308500D01*
X515500Y307500D01*
X514500D01*
X515500Y306500D01*
X514500Y305500D01*
X515500D01*
X516500Y304500D01*
X519000D02*
X520000Y305500D01*
X521000D01*
X520000Y306500D01*
X521000Y307500D01*
X520000D01*
X519000Y308500D01*
X518000Y307500D01*
X517000D01*
X518000Y306500D01*
X517000Y305500D01*
X518000D01*
X519000Y304500D01*
X521500D02*
X522500Y305500D01*
X523500D01*
X522500Y306500D01*
X523500Y307500D01*
X522500D01*
X521500Y308500D01*
X520500Y307500D01*
X519500D01*
X520500Y306500D01*
X519500Y305500D01*
X520500D01*
X521500Y304500D01*
Y312000D02*
X522500Y313000D01*
X523500D01*
X522500Y314000D01*
X523500Y315000D01*
X522500D01*
X521500Y316000D01*
X520500Y315000D01*
X519500D01*
X520500Y314000D01*
X519500Y313000D01*
X520500D01*
X521500Y312000D01*
Y309500D02*
X522500Y310500D01*
X523500D01*
X522500Y311500D01*
X523500Y312500D01*
X522500D01*
X521500Y313500D01*
X520500Y312500D01*
X519500D01*
X520500Y311500D01*
X519500Y310500D01*
X520500D01*
X521500Y309500D01*
Y307000D02*
X522500Y308000D01*
X523500D01*
X522500Y309000D01*
X523500Y310000D01*
X522500D01*
X521500Y311000D01*
X520500Y310000D01*
X519500D01*
X520500Y309000D01*
X519500Y308000D01*
X520500D01*
X521500Y307000D01*
X519000D02*
X520000Y308000D01*
X521000D01*
X520000Y309000D01*
X521000Y310000D01*
X520000D01*
X519000Y311000D01*
X518000Y310000D01*
X517000D01*
X518000Y309000D01*
X517000Y308000D01*
X518000D01*
X519000Y307000D01*
Y309500D02*
X520000Y310500D01*
X521000D01*
X520000Y311500D01*
X521000Y312500D01*
X520000D01*
X519000Y313500D01*
X518000Y312500D01*
X517000D01*
X518000Y311500D01*
X517000Y310500D01*
X518000D01*
X519000Y309500D01*
Y312000D02*
X520000Y313000D01*
X521000D01*
X520000Y314000D01*
X521000Y315000D01*
X520000D01*
X519000Y316000D01*
X518000Y315000D01*
X517000D01*
X518000Y314000D01*
X517000Y313000D01*
X518000D01*
X519000Y312000D01*
X499000D02*
X500000Y313000D01*
X501000D01*
X500000Y314000D01*
X501000Y315000D01*
X500000D01*
X499000Y316000D01*
X498000Y315000D01*
X497000D01*
X498000Y314000D01*
X497000Y313000D01*
X498000D01*
X499000Y312000D01*
Y309500D02*
X500000Y310500D01*
X501000D01*
X500000Y311500D01*
X501000Y312500D01*
X500000D01*
X499000Y313500D01*
X498000Y312500D01*
X497000D01*
X498000Y311500D01*
X497000Y310500D01*
X498000D01*
X499000Y309500D01*
Y307000D02*
X500000Y308000D01*
X501000D01*
X500000Y309000D01*
X501000Y310000D01*
X500000D01*
X499000Y311000D01*
X498000Y310000D01*
X497000D01*
X498000Y309000D01*
X497000Y308000D01*
X498000D01*
X499000Y307000D01*
X501500D02*
X502500Y308000D01*
X503500D01*
X502500Y309000D01*
X503500Y310000D01*
X502500D01*
X501500Y311000D01*
X500500Y310000D01*
X499500D01*
X500500Y309000D01*
X499500Y308000D01*
X500500D01*
X501500Y307000D01*
Y309500D02*
X502500Y310500D01*
X503500D01*
X502500Y311500D01*
X503500Y312500D01*
X502500D01*
X501500Y313500D01*
X500500Y312500D01*
X499500D01*
X500500Y311500D01*
X499500Y310500D01*
X500500D01*
X501500Y309500D01*
Y312000D02*
X502500Y313000D01*
X503500D01*
X502500Y314000D01*
X503500Y315000D01*
X502500D01*
X501500Y316000D01*
X500500Y315000D01*
X499500D01*
X500500Y314000D01*
X499500Y313000D01*
X500500D01*
X501500Y312000D01*
X504000Y307000D02*
X505000Y308000D01*
X506000D01*
X505000Y309000D01*
X506000Y310000D01*
X505000D01*
X504000Y311000D01*
X503000Y310000D01*
X502000D01*
X503000Y309000D01*
X502000Y308000D01*
X503000D01*
X504000Y307000D01*
X506500D02*
X507500Y308000D01*
X508500D01*
X507500Y309000D01*
X508500Y310000D01*
X507500D01*
X506500Y311000D01*
X505500Y310000D01*
X504500D01*
X505500Y309000D01*
X504500Y308000D01*
X505500D01*
X506500Y307000D01*
X509000D02*
X510000Y308000D01*
X511000D01*
X510000Y309000D01*
X511000Y310000D01*
X510000D01*
X509000Y311000D01*
X508000Y310000D01*
X507000D01*
X508000Y309000D01*
X507000Y308000D01*
X508000D01*
X509000Y307000D01*
X511500D02*
X512500Y308000D01*
X513500D01*
X512500Y309000D01*
X513500Y310000D01*
X512500D01*
X511500Y311000D01*
X510500Y310000D01*
X509500D01*
X510500Y309000D01*
X509500Y308000D01*
X510500D01*
X511500Y307000D01*
X514000D02*
X515000Y308000D01*
X516000D01*
X515000Y309000D01*
X516000Y310000D01*
X515000D01*
X514000Y311000D01*
X513000Y310000D01*
X512000D01*
X513000Y309000D01*
X512000Y308000D01*
X513000D01*
X514000Y307000D01*
X516500D02*
X517500Y308000D01*
X518500D01*
X517500Y309000D01*
X518500Y310000D01*
X517500D01*
X516500Y311000D01*
X515500Y310000D01*
X514500D01*
X515500Y309000D01*
X514500Y308000D01*
X515500D01*
X516500Y307000D01*
Y309500D02*
X517500Y310500D01*
X518500D01*
X517500Y311500D01*
X518500Y312500D01*
X517500D01*
X516500Y313500D01*
X515500Y312500D01*
X514500D01*
X515500Y311500D01*
X514500Y310500D01*
X515500D01*
X516500Y309500D01*
X514000D02*
X515000Y310500D01*
X516000D01*
X515000Y311500D01*
X516000Y312500D01*
X515000D01*
X514000Y313500D01*
X513000Y312500D01*
X512000D01*
X513000Y311500D01*
X512000Y310500D01*
X513000D01*
X514000Y309500D01*
X511500D02*
X512500Y310500D01*
X513500D01*
X512500Y311500D01*
X513500Y312500D01*
X512500D01*
X511500Y313500D01*
X510500Y312500D01*
X509500D01*
X510500Y311500D01*
X509500Y310500D01*
X510500D01*
X511500Y309500D01*
X509000D02*
X510000Y310500D01*
X511000D01*
X510000Y311500D01*
X511000Y312500D01*
X510000D01*
X509000Y313500D01*
X508000Y312500D01*
X507000D01*
X508000Y311500D01*
X507000Y310500D01*
X508000D01*
X509000Y309500D01*
X506500D02*
X507500Y310500D01*
X508500D01*
X507500Y311500D01*
X508500Y312500D01*
X507500D01*
X506500Y313500D01*
X505500Y312500D01*
X504500D01*
X505500Y311500D01*
X504500Y310500D01*
X505500D01*
X506500Y309500D01*
X504000D02*
X505000Y310500D01*
X506000D01*
X505000Y311500D01*
X506000Y312500D01*
X505000D01*
X504000Y313500D01*
X503000Y312500D01*
X502000D01*
X503000Y311500D01*
X502000Y310500D01*
X503000D01*
X504000Y309500D01*
X516500Y312000D02*
X517500Y313000D01*
X518500D01*
X517500Y314000D01*
X518500Y315000D01*
X517500D01*
X516500Y316000D01*
X515500Y315000D01*
X514500D01*
X515500Y314000D01*
X514500Y313000D01*
X515500D01*
X516500Y312000D01*
X514000D02*
X515000Y313000D01*
X516000D01*
X515000Y314000D01*
X516000Y315000D01*
X515000D01*
X514000Y316000D01*
X513000Y315000D01*
X512000D01*
X513000Y314000D01*
X512000Y313000D01*
X513000D01*
X514000Y312000D01*
X511500D02*
X512500Y313000D01*
X513500D01*
X512500Y314000D01*
X513500Y315000D01*
X512500D01*
X511500Y316000D01*
X510500Y315000D01*
X509500D01*
X510500Y314000D01*
X509500Y313000D01*
X510500D01*
X511500Y312000D01*
X509000D02*
X510000Y313000D01*
X511000D01*
X510000Y314000D01*
X511000Y315000D01*
X510000D01*
X509000Y316000D01*
X508000Y315000D01*
X507000D01*
X508000Y314000D01*
X507000Y313000D01*
X508000D01*
X509000Y312000D01*
X506500D02*
X507500Y313000D01*
X508500D01*
X507500Y314000D01*
X508500Y315000D01*
X507500D01*
X506500Y316000D01*
X505500Y315000D01*
X504500D01*
X505500Y314000D01*
X504500Y313000D01*
X505500D01*
X506500Y312000D01*
X504000D02*
X505000Y313000D01*
X506000D01*
X505000Y314000D01*
X506000Y315000D01*
X505000D01*
X504000Y316000D01*
X503000Y315000D01*
X502000D01*
X503000Y314000D01*
X502000Y313000D01*
X503000D01*
X504000Y312000D01*
D58*
X502658Y324327D02*
G03*
X502658Y324327I-2000J0D01*
G01*
X522342D02*
G03*
X522342Y324327I-2000J0D01*
G01*
Y352673D02*
G03*
X522342Y352673I-2000J0D01*
G01*
X502658D02*
G03*
X502658Y352673I-2000J0D01*
G01*
X453158Y323827D02*
G03*
X453158Y323827I-2000J0D01*
G01*
X472843D02*
G03*
X472843Y323827I-2000J0D01*
G01*
Y352173D02*
G03*
X472843Y352173I-2000J0D01*
G01*
X453158D02*
G03*
X453158Y352173I-2000J0D01*
G01*
Y215827D02*
G03*
X453158Y215827I-2000J0D01*
G01*
X472843D02*
G03*
X472843Y215827I-2000J0D01*
G01*
Y244173D02*
G03*
X472843Y244173I-2000J0D01*
G01*
X453158D02*
G03*
X453158Y244173I-2000J0D01*
G01*
X502658Y215827D02*
G03*
X502658Y215827I-2000J0D01*
G01*
X522342D02*
G03*
X522342Y215827I-2000J0D01*
G01*
Y244173D02*
G03*
X522342Y244173I-2000J0D01*
G01*
X502658D02*
G03*
X502658Y244173I-2000J0D01*
G01*
%TF.MD5,DD92ADE9EA4A94A6A89B07CC12194839*%
M02*
