G04 Layer_Color=8388736*
%FSLAX25Y25*%
%MOIN*%
%TF.FileFunction,Soldermask,Top*%
%TF.Part,Single*%
G01*
G75*
%ADD37R,0.23622X0.31496*%
%ADD38R,0.31496X0.15748*%
%ADD39R,0.31496X0.11811*%
%ADD40R,0.09843X0.09843*%
%TA.AperFunction,SMDPad*%
%ADD41R,0.04461X0.04658*%
%TA.AperFunction,SMDPad*%
%ADD42R,0.04658X0.04461*%
%TA.AperFunction,SMDPad*%
%ADD43R,0.03162X0.04737*%
%TA.AperFunction,SMDPad*%
%ADD44R,0.03162X0.05131*%
%TA.AperFunction,SMDPad*%
%ADD45R,0.01969X0.03937*%
%TA.AperFunction,SMDPad*%
%ADD46R,0.06890X0.10236*%
%TA.AperFunction,SMDPad*%
%ADD47R,0.06890X0.01969*%
%TA.AperFunction,SMDPad*%
%ADD48R,0.02762X0.02959*%
%TA.AperFunction,SMDPad*%
%ADD49R,0.06706X0.07099*%
%TA.AperFunction,SMDPad*%
%ADD50R,0.05367X0.06587*%
%TA.AperFunction,SMDPad*%
%ADD51O,0.03556X0.08280*%
%TA.AperFunction,SMDPad*%
%ADD52O,0.03556X0.09068*%
%TA.AperFunction,SMDPad*%
%ADD53O,0.08674X0.14579*%
%TA.AperFunction,SMDPad*%
%ADD54R,0.19698X0.10642*%
%TA.AperFunction,SMDPad*%
%ADD55R,0.04343X0.10642*%
%TA.AperFunction,ConnectorPad*%
%ADD56C,0.05906*%
%TA.AperFunction,ConnectorPad*%
G04:AMPARAMS|DCode=57|XSize=161.42mil|YSize=161.42mil|CornerRadius=41.34mil|HoleSize=0mil|Usage=FLASHONLY|Rotation=180.000|XOffset=0mil|YOffset=0mil|HoleType=Round|Shape=RoundedRectangle|*
%AMROUNDEDRECTD57*
21,1,0.16142,0.07874,0,0,180.0*
21,1,0.07874,0.16142,0,0,180.0*
1,1,0.08268,-0.03937,0.03937*
1,1,0.08268,0.03937,0.03937*
1,1,0.08268,0.03937,-0.03937*
1,1,0.08268,-0.03937,-0.03937*
%
%ADD57ROUNDEDRECTD57*%
%TA.AperFunction,ViaPad*%
%ADD58O,0.10800X0.14800*%
%TA.AperFunction,ViaPad*%
%ADD59R,0.10800X0.14800*%
%TA.AperFunction,ViaPad*%
G04:AMPARAMS|DCode=60|XSize=165.48mil|YSize=126.11mil|CornerRadius=33.53mil|HoleSize=0mil|Usage=FLASHONLY|Rotation=0.000|XOffset=0mil|YOffset=0mil|HoleType=Round|Shape=RoundedRectangle|*
%AMROUNDEDRECTD60*
21,1,0.16548,0.05906,0,0,0.0*
21,1,0.09843,0.12611,0,0,0.0*
1,1,0.06706,0.04921,-0.02953*
1,1,0.06706,-0.04921,-0.02953*
1,1,0.06706,-0.04921,0.02953*
1,1,0.06706,0.04921,0.02953*
%
%ADD60ROUNDEDRECTD60*%
D37*
X509189Y300748D02*
D03*
X509311Y267248D02*
D03*
D38*
X460752Y307626D02*
D03*
D39*
X460748Y258594D02*
D03*
D40*
X477921Y291079D02*
D03*
Y272579D02*
D03*
D41*
X358968Y305000D02*
D03*
X365032D02*
D03*
X380031Y259000D02*
D03*
X373969D02*
D03*
X373468Y283500D02*
D03*
X379532D02*
D03*
X372969Y308000D02*
D03*
X379031D02*
D03*
X424532Y323500D02*
D03*
X418469D02*
D03*
X392969Y265000D02*
D03*
X399031D02*
D03*
X391968Y329500D02*
D03*
X398031D02*
D03*
X424532Y298000D02*
D03*
X418469D02*
D03*
X424532Y283000D02*
D03*
X418469D02*
D03*
X424532Y290500D02*
D03*
X418469D02*
D03*
D42*
X358500Y297532D02*
D03*
Y291469D02*
D03*
X365000Y319531D02*
D03*
Y313469D02*
D03*
X358500Y313469D02*
D03*
Y319531D02*
D03*
Y284032D02*
D03*
Y277969D02*
D03*
X366000Y297532D02*
D03*
Y291469D02*
D03*
Y277969D02*
D03*
Y284032D02*
D03*
X372000Y315469D02*
D03*
Y321532D02*
D03*
X379500Y315469D02*
D03*
Y321532D02*
D03*
X417500Y337032D02*
D03*
Y330968D02*
D03*
X425500Y337032D02*
D03*
Y330968D02*
D03*
X433000Y273532D02*
D03*
Y267469D02*
D03*
D43*
X359260Y259587D02*
D03*
X363000D02*
D03*
X366740D02*
D03*
Y270413D02*
D03*
X359260D02*
D03*
D44*
X380240Y265488D02*
D03*
X372760D02*
D03*
Y276512D02*
D03*
X376500D02*
D03*
X380240D02*
D03*
X426240Y275512D02*
D03*
X422500D02*
D03*
X418760D02*
D03*
Y264488D02*
D03*
X426240D02*
D03*
D45*
X373441Y289571D02*
D03*
X376000D02*
D03*
X378559D02*
D03*
Y298429D02*
D03*
X376000D02*
D03*
X373441D02*
D03*
X408441Y266071D02*
D03*
X411000D02*
D03*
X413559D02*
D03*
Y274929D02*
D03*
X411000D02*
D03*
X408441D02*
D03*
X418441Y312929D02*
D03*
X423559Y304071D02*
D03*
X421000D02*
D03*
X418441D02*
D03*
X423559Y312929D02*
D03*
X421000D02*
D03*
D46*
X376000Y348894D02*
D03*
X401200D02*
D03*
D47*
X376000Y342201D02*
D03*
X401201D02*
D03*
D48*
X412673Y259000D02*
D03*
X409327D02*
D03*
X408827Y281000D02*
D03*
X412173D02*
D03*
D49*
X396000Y274331D02*
D03*
Y290669D02*
D03*
D50*
X399004Y299000D02*
D03*
X391996D02*
D03*
D51*
X401405Y321000D02*
D03*
X389595D02*
D03*
D52*
X395500Y320606D02*
D03*
D53*
Y311157D02*
D03*
D54*
X459500Y272677D02*
D03*
Y290000D02*
D03*
D55*
X444736D02*
D03*
Y272677D02*
D03*
D56*
X410000Y336000D02*
D03*
X401500D02*
D03*
D57*
X362500Y347500D02*
D03*
D58*
X367500Y248500D02*
D03*
X387500D02*
D03*
X407500D02*
D03*
D59*
X427500D02*
D03*
D60*
X500658Y244173D02*
D03*
X520342D02*
D03*
Y215827D02*
D03*
X500658D02*
D03*
X451158Y244173D02*
D03*
X470843D02*
D03*
Y215827D02*
D03*
X451158D02*
D03*
Y352173D02*
D03*
X470843D02*
D03*
Y323827D02*
D03*
X451158D02*
D03*
X500658Y352673D02*
D03*
X520342D02*
D03*
Y324327D02*
D03*
X500658D02*
D03*
%TF.MD5,3938344F9F40ADFC417A6183CFA5148B*%
M02*
