G04 Layer_Color=8421504*
%FSLAX25Y25*%
%MOIN*%
%TF.FileFunction,Paste,Top*%
%TF.Part,Single*%
G01*
G75*
%TA.AperFunction,SMDPad*%
%ADD10R,0.02362X0.04331*%
%TA.AperFunction,SMDPad*%
%ADD11R,0.03543X0.09843*%
%TA.AperFunction,SMDPad*%
%ADD12R,0.18898X0.09843*%
%TA.AperFunction,SMDPad*%
%ADD13R,0.03858X0.03661*%
%TA.AperFunction,SMDPad*%
%ADD14R,0.03661X0.03858*%
%TA.AperFunction,SMDPad*%
%ADD15O,0.07874X0.13780*%
%TA.AperFunction,SMDPad*%
%ADD16O,0.02756X0.08268*%
%TA.AperFunction,SMDPad*%
%ADD17O,0.02756X0.07480*%
%TA.AperFunction,SMDPad*%
%ADD18R,0.04567X0.05787*%
%TA.AperFunction,SMDPad*%
%ADD19R,0.05906X0.06299*%
%TA.AperFunction,SMDPad*%
%ADD20R,0.01575X0.03543*%
D10*
X425240Y264988D02*
D03*
X417760D02*
D03*
Y276012D02*
D03*
X421500D02*
D03*
X425240D02*
D03*
D11*
X444736Y272677D02*
D03*
Y290000D02*
D03*
D12*
X459500D02*
D03*
Y272677D02*
D03*
D13*
X433000Y267469D02*
D03*
Y273532D02*
D03*
X425500Y330968D02*
D03*
Y337032D02*
D03*
X417500Y330968D02*
D03*
Y337032D02*
D03*
D14*
X418469Y290500D02*
D03*
X424532D02*
D03*
X418469Y283000D02*
D03*
X424532D02*
D03*
X418469Y298000D02*
D03*
X424532D02*
D03*
X398031Y329500D02*
D03*
X391968D02*
D03*
X399031Y265000D02*
D03*
X392969D02*
D03*
X418469Y323500D02*
D03*
X424532D02*
D03*
D15*
X395500Y311157D02*
D03*
D16*
Y320606D02*
D03*
D17*
X389595Y321000D02*
D03*
X401405D02*
D03*
D18*
X391996Y299000D02*
D03*
X399004D02*
D03*
D19*
X396000Y290669D02*
D03*
Y274331D02*
D03*
D20*
X421000Y312929D02*
D03*
X423559D02*
D03*
X418441Y304071D02*
D03*
X421000D02*
D03*
X423559D02*
D03*
X418441Y312929D02*
D03*
%TF.MD5,0848D7AC9EC0868985E9EA195405504A*%
M02*
