G04 Layer_Color=255*
%FSLAX25Y25*%
%MOIN*%
%TF.FileFunction,Pads,Top*%
%TF.Part,Single*%
G01*
G75*
%TA.AperFunction,SMDPad*%
%ADD10R,0.03661X0.03858*%
%TA.AperFunction,SMDPad*%
%ADD11R,0.03858X0.03661*%
%TA.AperFunction,SMDPad*%
%ADD12R,0.02362X0.03937*%
%TA.AperFunction,SMDPad*%
%ADD13R,0.02362X0.04331*%
%TA.AperFunction,SMDPad*%
%ADD14R,0.01575X0.03543*%
%TA.AperFunction,SMDPad*%
%ADD15R,0.06496X0.09843*%
%TA.AperFunction,SMDPad*%
%ADD16R,0.06496X0.01575*%
%TA.AperFunction,SMDPad*%
%ADD17R,0.02362X0.02559*%
%TA.AperFunction,SMDPad*%
%ADD18R,0.05906X0.06299*%
%TA.AperFunction,SMDPad*%
%ADD19R,0.04567X0.05787*%
%TA.AperFunction,SMDPad*%
%ADD20O,0.02756X0.07480*%
%TA.AperFunction,SMDPad*%
%ADD21O,0.02756X0.08268*%
%TA.AperFunction,SMDPad*%
%ADD22O,0.07874X0.13780*%
%TA.AperFunction,SMDPad*%
%ADD23R,0.18898X0.09843*%
%TA.AperFunction,SMDPad*%
%ADD24R,0.03543X0.09843*%
%TA.AperFunction,ConnectorPad*%
%ADD28C,0.05512*%
%TA.AperFunction,ConnectorPad*%
G04:AMPARAMS|DCode=29|XSize=157.48mil|YSize=157.48mil|CornerRadius=39.37mil|HoleSize=0mil|Usage=FLASHONLY|Rotation=180.000|XOffset=0mil|YOffset=0mil|HoleType=Round|Shape=RoundedRectangle|*
%AMROUNDEDRECTD29*
21,1,0.15748,0.07874,0,0,180.0*
21,1,0.07874,0.15748,0,0,180.0*
1,1,0.07874,-0.03937,0.03937*
1,1,0.07874,0.03937,0.03937*
1,1,0.07874,0.03937,-0.03937*
1,1,0.07874,-0.03937,-0.03937*
%
%ADD29ROUNDEDRECTD29*%
%TA.AperFunction,ViaPad*%
%ADD30O,0.10000X0.14000*%
%TA.AperFunction,ViaPad*%
%ADD31R,0.10000X0.14000*%
%TA.AperFunction,ViaPad*%
G04:AMPARAMS|DCode=32|XSize=157.48mil|YSize=118.11mil|CornerRadius=29.53mil|HoleSize=0mil|Usage=FLASHONLY|Rotation=0.000|XOffset=0mil|YOffset=0mil|HoleType=Round|Shape=RoundedRectangle|*
%AMROUNDEDRECTD32*
21,1,0.15748,0.05906,0,0,0.0*
21,1,0.09843,0.11811,0,0,0.0*
1,1,0.05906,0.04921,-0.02953*
1,1,0.05906,-0.04921,-0.02953*
1,1,0.05906,-0.04921,0.02953*
1,1,0.05906,0.04921,0.02953*
%
%ADD32ROUNDEDRECTD32*%
D10*
X358968Y305000D02*
D03*
X365032D02*
D03*
X380031Y259000D02*
D03*
X373969D02*
D03*
X373468Y283500D02*
D03*
X379532D02*
D03*
X372969Y308000D02*
D03*
X379031D02*
D03*
X424532Y323500D02*
D03*
X418469D02*
D03*
X392969Y265000D02*
D03*
X399031D02*
D03*
X391968Y329500D02*
D03*
X398031D02*
D03*
X424532Y298000D02*
D03*
X418469D02*
D03*
X424532Y283000D02*
D03*
X418469D02*
D03*
X424532Y290500D02*
D03*
X418469D02*
D03*
D11*
X358500Y297532D02*
D03*
Y291469D02*
D03*
X365000Y319531D02*
D03*
Y313469D02*
D03*
X358500Y313469D02*
D03*
Y319531D02*
D03*
Y284032D02*
D03*
Y277969D02*
D03*
X366000Y297532D02*
D03*
Y291469D02*
D03*
Y277969D02*
D03*
Y284032D02*
D03*
X372000Y315469D02*
D03*
Y321532D02*
D03*
X379500Y315469D02*
D03*
Y321532D02*
D03*
X417500Y337032D02*
D03*
Y330968D02*
D03*
X425500Y337032D02*
D03*
Y330968D02*
D03*
X433000Y273532D02*
D03*
Y267469D02*
D03*
D12*
X359260Y259587D02*
D03*
X363000D02*
D03*
X366740D02*
D03*
Y270413D02*
D03*
X359260D02*
D03*
D13*
X380240Y265488D02*
D03*
X372760D02*
D03*
Y276512D02*
D03*
X376500D02*
D03*
X380240D02*
D03*
X426240Y275512D02*
D03*
X422500D02*
D03*
X418760D02*
D03*
Y264488D02*
D03*
X426240D02*
D03*
D14*
X373441Y289571D02*
D03*
X376000D02*
D03*
X378559D02*
D03*
Y298429D02*
D03*
X376000D02*
D03*
X373441D02*
D03*
X408441Y266071D02*
D03*
X411000D02*
D03*
X413559D02*
D03*
Y274929D02*
D03*
X411000D02*
D03*
X408441D02*
D03*
X418441Y312929D02*
D03*
X423559Y304071D02*
D03*
X421000D02*
D03*
X418441D02*
D03*
X423559Y312929D02*
D03*
X421000D02*
D03*
D15*
X376000Y348894D02*
D03*
X401200D02*
D03*
D16*
X376000Y342201D02*
D03*
X401201D02*
D03*
D17*
X412673Y259000D02*
D03*
X409327D02*
D03*
X408827Y281000D02*
D03*
X412173D02*
D03*
D18*
X396000Y274331D02*
D03*
Y290669D02*
D03*
D19*
X399004Y299000D02*
D03*
X391996D02*
D03*
D20*
X401405Y321000D02*
D03*
X389595D02*
D03*
D21*
X395500Y320606D02*
D03*
D22*
Y311157D02*
D03*
D23*
X459500Y272677D02*
D03*
Y290000D02*
D03*
D24*
X444736D02*
D03*
Y272677D02*
D03*
D28*
X410000Y336000D02*
D03*
X401500D02*
D03*
D29*
X362500Y347500D02*
D03*
D30*
X367500Y248500D02*
D03*
X387500D02*
D03*
X407500D02*
D03*
D31*
X427500D02*
D03*
D32*
X500658Y244173D02*
D03*
X520342D02*
D03*
Y215827D02*
D03*
X500658D02*
D03*
X451158Y244173D02*
D03*
X470843D02*
D03*
Y215827D02*
D03*
X451158D02*
D03*
Y352173D02*
D03*
X470843D02*
D03*
Y323827D02*
D03*
X451158D02*
D03*
X500658Y352673D02*
D03*
X520342D02*
D03*
Y324327D02*
D03*
X500658D02*
D03*
%TF.MD5,B45CDFC89D07D2F18AA3C63C6BBA9504*%
M02*
