G04 Layer_Color=128*
%FSLAX25Y25*%
%MOIN*%
%TF.FileFunction,Drillmap*%
%TF.Part,Single*%
G01*
G75*
%ADD67C,0.00500*%
D67*
X408032Y336000D02*
X411969D01*
X410000Y334032D02*
Y337968D01*
X399532Y336000D02*
X403469D01*
X401500Y334032D02*
Y337968D01*
X358563Y347500D02*
X366437D01*
X362500Y343563D02*
Y351437D01*
X364500Y248500D02*
X370500D01*
X367500Y245500D02*
Y251500D01*
X384500Y248500D02*
X390500D01*
X387500Y245500D02*
Y251500D01*
X404500Y248500D02*
X410500D01*
X407500Y245500D02*
Y251500D01*
X424500Y248500D02*
X430500D01*
X427500Y245500D02*
Y251500D01*
X496721Y244173D02*
X504595D01*
X500658Y240236D02*
Y248110D01*
X516405Y244173D02*
X524279D01*
X520342Y240236D02*
Y248110D01*
X516405Y215827D02*
X524279D01*
X520342Y211890D02*
Y219764D01*
X496721Y215827D02*
X504595D01*
X500658Y211890D02*
Y219764D01*
X447221Y244173D02*
X455094D01*
X451158Y240236D02*
Y248110D01*
X466905Y244173D02*
X474780D01*
X470843Y240236D02*
Y248110D01*
X466905Y215827D02*
X474780D01*
X470843Y211890D02*
Y219764D01*
X447221Y215827D02*
X455094D01*
X451158Y211890D02*
Y219764D01*
X447221Y352173D02*
X455094D01*
X451158Y348236D02*
Y356110D01*
X466905Y352173D02*
X474780D01*
X470843Y348236D02*
Y356110D01*
X466905Y323827D02*
X474780D01*
X470843Y319890D02*
Y327764D01*
X447221Y323827D02*
X455094D01*
X451158Y319890D02*
Y327764D01*
X496721Y352673D02*
X504595D01*
X500658Y348736D02*
Y356610D01*
X516405Y352673D02*
X524279D01*
X520342Y348736D02*
Y356610D01*
X516405Y324327D02*
X524279D01*
X520342Y320390D02*
Y328264D01*
X496721Y324327D02*
X504595D01*
X500658Y320390D02*
Y328264D01*
X435000Y259000D02*
X436000D01*
X435500Y258500D02*
Y259500D01*
X388000Y353000D02*
X389000D01*
X388500Y352500D02*
Y353500D01*
X386500Y330500D02*
X387500D01*
X387000Y330000D02*
Y331000D01*
X438000Y332500D02*
X439000D01*
X438500Y332000D02*
Y333000D01*
X381500Y303000D02*
X382500D01*
X382000Y302500D02*
Y303500D01*
X371000Y303000D02*
X372000D01*
X371500Y302500D02*
Y303500D01*
X361500Y319500D02*
X362500D01*
X362000Y319000D02*
Y320000D01*
X363087Y270413D02*
X364087D01*
X363587Y269913D02*
Y270913D01*
X358000Y287750D02*
X359000D01*
X358500Y287250D02*
Y288250D01*
X373500Y256000D02*
X374500D01*
X374000Y255500D02*
Y256500D01*
X366240Y263260D02*
X367240D01*
X366740Y262760D02*
Y263760D01*
X361032Y277969D02*
X362032D01*
X361531Y277468D02*
Y278468D01*
X384000Y271000D02*
X385000D01*
X384500Y270500D02*
Y271500D01*
X408000Y262000D02*
X409000D01*
X408500Y261500D02*
Y262500D01*
X375488Y265488D02*
X376488D01*
X375988Y264988D02*
Y265988D01*
X370000Y287000D02*
X371000D01*
X370500Y286500D02*
Y287500D01*
X379740Y273240D02*
X380740D01*
X380240Y272740D02*
Y273740D01*
X365500Y274500D02*
X366500D01*
X366000Y274000D02*
Y275000D01*
X376000Y273500D02*
X377000D01*
X376500Y273000D02*
Y274000D01*
X403500Y345000D02*
X404500D01*
X404000Y344500D02*
Y345500D01*
X401500Y345000D02*
X402500D01*
X402000Y344500D02*
Y345500D01*
X399500Y345000D02*
X400500D01*
X400000Y344500D02*
Y345500D01*
X397500Y345000D02*
X398500D01*
X398000Y344500D02*
Y345500D01*
X397500Y347000D02*
X398500D01*
X398000Y346500D02*
Y347500D01*
X399500Y347000D02*
X400500D01*
X400000Y346500D02*
Y347500D01*
X401500Y347000D02*
X402500D01*
X402000Y346500D02*
Y347500D01*
X403500Y347000D02*
X404500D01*
X404000Y346500D02*
Y347500D01*
X403500Y349000D02*
X404500D01*
X404000Y348500D02*
Y349500D01*
X401500Y349000D02*
X402500D01*
X402000Y348500D02*
Y349500D01*
X399500Y349000D02*
X400500D01*
X400000Y348500D02*
Y349500D01*
X397500Y349000D02*
X398500D01*
X398000Y348500D02*
Y349500D01*
X397500Y351000D02*
X398500D01*
X398000Y350500D02*
Y351500D01*
X399500Y351000D02*
X400500D01*
X400000Y350500D02*
Y351500D01*
X401500Y351000D02*
X402500D01*
X402000Y350500D02*
Y351500D01*
X403500Y351000D02*
X404500D01*
X404000Y350500D02*
Y351500D01*
X403500Y353000D02*
X404500D01*
X404000Y352500D02*
Y353500D01*
X401500Y353000D02*
X402500D01*
X402000Y352500D02*
Y353500D01*
X399500Y353000D02*
X400500D01*
X400000Y352500D02*
Y353500D01*
X397500Y353000D02*
X398500D01*
X398000Y352500D02*
Y353500D01*
X370000Y283500D02*
X371000D01*
X370500Y283000D02*
Y284000D01*
X390000Y338000D02*
X391000D01*
X390500Y337500D02*
Y338500D01*
X386000Y338000D02*
X387000D01*
X386500Y337500D02*
Y338500D01*
X373500Y328000D02*
X374500D01*
X374000Y327500D02*
Y328500D01*
X377000Y328000D02*
X378000D01*
X377500Y327500D02*
Y328500D01*
X372000Y346500D02*
X373000D01*
X372500Y346000D02*
Y347000D01*
X374000Y346500D02*
X375000D01*
X374500Y346000D02*
Y347000D01*
X376000Y346500D02*
X377000D01*
X376500Y346000D02*
Y347000D01*
X378000Y346500D02*
X379000D01*
X378500Y346000D02*
Y347000D01*
X378000Y348500D02*
X379000D01*
X378500Y348000D02*
Y349000D01*
X376000Y348500D02*
X377000D01*
X376500Y348000D02*
Y349000D01*
X374000Y348500D02*
X375000D01*
X374500Y348000D02*
Y349000D01*
X372000Y348500D02*
X373000D01*
X372500Y348000D02*
Y349000D01*
X372000Y350500D02*
X373000D01*
X372500Y350000D02*
Y351000D01*
X372000Y352500D02*
X373000D01*
X372500Y352000D02*
Y353000D01*
X374000Y350500D02*
X375000D01*
X374500Y350000D02*
Y351000D01*
X376000Y350500D02*
X377000D01*
X376500Y350000D02*
Y351000D01*
X378000Y350500D02*
X379000D01*
X378500Y350000D02*
Y351000D01*
X378000Y352500D02*
X379000D01*
X378500Y352000D02*
Y353000D01*
X376000Y352500D02*
X377000D01*
X376500Y352000D02*
Y353000D01*
X374000Y352500D02*
X375000D01*
X374500Y352000D02*
Y353000D01*
X372000Y354500D02*
X373000D01*
X372500Y354000D02*
Y355000D01*
X372000Y356500D02*
X373000D01*
X372500Y356000D02*
Y357000D01*
X374000Y354500D02*
X375000D01*
X374500Y354000D02*
Y355000D01*
X376000Y354500D02*
X377000D01*
X376500Y354000D02*
Y355000D01*
X374000Y356500D02*
X375000D01*
X374500Y356000D02*
Y357000D01*
X376000Y356500D02*
X377000D01*
X376500Y356000D02*
Y357000D01*
X378000Y356500D02*
X379000D01*
X378500Y356000D02*
Y357000D01*
X378000Y354500D02*
X379000D01*
X378500Y354000D02*
Y355000D01*
X413500Y345000D02*
X414500D01*
X414000Y344500D02*
Y345500D01*
X413500Y347000D02*
X414500D01*
X414000Y346500D02*
Y347500D01*
X413500Y349000D02*
X414500D01*
X414000Y348500D02*
Y349500D01*
X413500Y351000D02*
X414500D01*
X414000Y350500D02*
Y351500D01*
X413500Y353000D02*
X414500D01*
X414000Y352500D02*
Y353500D01*
X413500Y355000D02*
X414500D01*
X414000Y354500D02*
Y355500D01*
X413500Y357000D02*
X414500D01*
X414000Y356500D02*
Y357500D01*
X411500Y357000D02*
X412500D01*
X412000Y356500D02*
Y357500D01*
X409500Y357000D02*
X410500D01*
X410000Y356500D02*
Y357500D01*
X407500Y357000D02*
X408500D01*
X408000Y356500D02*
Y357500D01*
X405500Y357000D02*
X406500D01*
X406000Y356500D02*
Y357500D01*
X403500Y357000D02*
X404500D01*
X404000Y356500D02*
Y357500D01*
X401500Y357000D02*
X402500D01*
X402000Y356500D02*
Y357500D01*
X399500Y357000D02*
X400500D01*
X400000Y356500D02*
Y357500D01*
X397500Y357000D02*
X398500D01*
X398000Y356500D02*
Y357500D01*
X397500Y355000D02*
X398500D01*
X398000Y354500D02*
Y355500D01*
X399500Y355000D02*
X400500D01*
X400000Y354500D02*
Y355500D01*
X401500Y355000D02*
X402500D01*
X402000Y354500D02*
Y355500D01*
X403500Y355000D02*
X404500D01*
X404000Y354500D02*
Y355500D01*
X405500Y355000D02*
X406500D01*
X406000Y354500D02*
Y355500D01*
X407500Y355000D02*
X408500D01*
X408000Y354500D02*
Y355500D01*
X409500Y355000D02*
X410500D01*
X410000Y354500D02*
Y355500D01*
X411500Y355000D02*
X412500D01*
X412000Y354500D02*
Y355500D01*
X411500Y353000D02*
X412500D01*
X412000Y352500D02*
Y353500D01*
X409500Y353000D02*
X410500D01*
X410000Y352500D02*
Y353500D01*
X409500Y351000D02*
X410500D01*
X410000Y350500D02*
Y351500D01*
X411500Y351000D02*
X412500D01*
X412000Y350500D02*
Y351500D01*
X411500Y349000D02*
X412500D01*
X412000Y348500D02*
Y349500D01*
X409500Y349000D02*
X410500D01*
X410000Y348500D02*
Y349500D01*
X409500Y347000D02*
X410500D01*
X410000Y346500D02*
Y347500D01*
X411500Y347000D02*
X412500D01*
X412000Y346500D02*
Y347500D01*
X411500Y345000D02*
X412500D01*
X412000Y344500D02*
Y345500D01*
X409500Y345000D02*
X410500D01*
X410000Y344500D02*
Y345500D01*
X407500Y345000D02*
X408500D01*
X408000Y344500D02*
Y345500D01*
X405500Y345000D02*
X406500D01*
X406000Y344500D02*
Y345500D01*
X405500Y347000D02*
X406500D01*
X406000Y346500D02*
Y347500D01*
X407500Y347000D02*
X408500D01*
X408000Y346500D02*
Y347500D01*
X407500Y349000D02*
X408500D01*
X408000Y348500D02*
Y349500D01*
X405500Y349000D02*
X406500D01*
X406000Y348500D02*
Y349500D01*
X405500Y351000D02*
X406500D01*
X406000Y350500D02*
Y351500D01*
X407500Y351000D02*
X408500D01*
X408000Y350500D02*
Y351500D01*
X407500Y353000D02*
X408500D01*
X408000Y352500D02*
Y353500D01*
X405500Y353000D02*
X406500D01*
X406000Y352500D02*
Y353500D01*
X450500Y296000D02*
X451500D01*
X451000Y295500D02*
Y296500D01*
X452500Y296000D02*
X453500D01*
X453000Y295500D02*
Y296500D01*
X454500Y296000D02*
X455500D01*
X455000Y295500D02*
Y296500D01*
X456500Y296000D02*
X457500D01*
X457000Y295500D02*
Y296500D01*
X458500Y296000D02*
X459500D01*
X459000Y295500D02*
Y296500D01*
X460500Y296000D02*
X461500D01*
X461000Y295500D02*
Y296500D01*
X462500Y296000D02*
X463500D01*
X463000Y295500D02*
Y296500D01*
X464500Y296000D02*
X465500D01*
X465000Y295500D02*
Y296500D01*
X466500Y296000D02*
X467500D01*
X467000Y295500D02*
Y296500D01*
X468500Y296000D02*
X469500D01*
X469000Y295500D02*
Y296500D01*
X470500Y296000D02*
X471500D01*
X471000Y295500D02*
Y296500D01*
X472500Y296000D02*
X473500D01*
X473000Y295500D02*
Y296500D01*
X474500Y296000D02*
X475500D01*
X475000Y295500D02*
Y296500D01*
X476500Y296000D02*
X477500D01*
X477000Y295500D02*
Y296500D01*
X476500Y294000D02*
X477500D01*
X477000Y293500D02*
Y294500D01*
X474500Y294000D02*
X475500D01*
X475000Y293500D02*
Y294500D01*
X472500Y294000D02*
X473500D01*
X473000Y293500D02*
Y294500D01*
X470500Y294000D02*
X471500D01*
X471000Y293500D02*
Y294500D01*
X470500Y292000D02*
X471500D01*
X471000Y291500D02*
Y292500D01*
X472500Y292000D02*
X473500D01*
X473000Y291500D02*
Y292500D01*
X474500Y292000D02*
X475500D01*
X475000Y291500D02*
Y292500D01*
X476500Y292000D02*
X477500D01*
X477000Y291500D02*
Y292500D01*
X476500Y290000D02*
X477500D01*
X477000Y289500D02*
Y290500D01*
X474500Y290000D02*
X475500D01*
X475000Y289500D02*
Y290500D01*
X472500Y290000D02*
X473500D01*
X473000Y289500D02*
Y290500D01*
X470500Y290000D02*
X471500D01*
X471000Y289500D02*
Y290500D01*
X470500Y288000D02*
X471500D01*
X471000Y287500D02*
Y288500D01*
X472500Y288000D02*
X473500D01*
X473000Y287500D02*
Y288500D01*
X474500Y288000D02*
X475500D01*
X475000Y287500D02*
Y288500D01*
X476500Y288000D02*
X477500D01*
X477000Y287500D02*
Y288500D01*
X476500Y286000D02*
X477500D01*
X477000Y285500D02*
Y286500D01*
X474500Y286000D02*
X475500D01*
X475000Y285500D02*
Y286500D01*
X472500Y286000D02*
X473500D01*
X473000Y285500D02*
Y286500D01*
X470500Y286000D02*
X471500D01*
X471000Y285500D02*
Y286500D01*
X416500Y255500D02*
X417500D01*
X417000Y255000D02*
Y256000D01*
X410500Y269000D02*
X411500D01*
X411000Y268500D02*
Y269500D01*
X413000Y263000D02*
X414000D01*
X413500Y262500D02*
Y263500D01*
X408327Y283327D02*
X409327D01*
X408827Y282827D02*
Y283827D01*
X418260Y272500D02*
X419260D01*
X418760Y272000D02*
Y273000D01*
X415000Y279000D02*
X416000D01*
X415500Y278500D02*
Y279500D01*
X422000Y272500D02*
X423000D01*
X422500Y272000D02*
Y273000D01*
X503500Y314000D02*
X504500D01*
X504000Y313500D02*
Y314500D01*
X506000Y314000D02*
X507000D01*
X506500Y313500D02*
Y314500D01*
X508500Y314000D02*
X509500D01*
X509000Y313500D02*
Y314500D01*
X511000Y314000D02*
X512000D01*
X511500Y313500D02*
Y314500D01*
X513500Y314000D02*
X514500D01*
X514000Y313500D02*
Y314500D01*
X516000Y314000D02*
X517000D01*
X516500Y313500D02*
Y314500D01*
X503500Y311500D02*
X504500D01*
X504000Y311000D02*
Y312000D01*
X506000Y311500D02*
X507000D01*
X506500Y311000D02*
Y312000D01*
X508500Y311500D02*
X509500D01*
X509000Y311000D02*
Y312000D01*
X511000Y311500D02*
X512000D01*
X511500Y311000D02*
Y312000D01*
X513500Y311500D02*
X514500D01*
X514000Y311000D02*
Y312000D01*
X516000Y311500D02*
X517000D01*
X516500Y311000D02*
Y312000D01*
X516000Y309000D02*
X517000D01*
X516500Y308500D02*
Y309500D01*
X513500Y309000D02*
X514500D01*
X514000Y308500D02*
Y309500D01*
X511000Y309000D02*
X512000D01*
X511500Y308500D02*
Y309500D01*
X508500Y309000D02*
X509500D01*
X509000Y308500D02*
Y309500D01*
X506000Y309000D02*
X507000D01*
X506500Y308500D02*
Y309500D01*
X503500Y309000D02*
X504500D01*
X504000Y308500D02*
Y309500D01*
X501000Y314000D02*
X502000D01*
X501500Y313500D02*
Y314500D01*
X501000Y311500D02*
X502000D01*
X501500Y311000D02*
Y312000D01*
X501000Y309000D02*
X502000D01*
X501500Y308500D02*
Y309500D01*
X498500Y309000D02*
X499500D01*
X499000Y308500D02*
Y309500D01*
X498500Y311500D02*
X499500D01*
X499000Y311000D02*
Y312000D01*
X498500Y314000D02*
X499500D01*
X499000Y313500D02*
Y314500D01*
X518500Y314000D02*
X519500D01*
X519000Y313500D02*
Y314500D01*
X518500Y311500D02*
X519500D01*
X519000Y311000D02*
Y312000D01*
X518500Y309000D02*
X519500D01*
X519000Y308500D02*
Y309500D01*
X521000Y309000D02*
X522000D01*
X521500Y308500D02*
Y309500D01*
X521000Y311500D02*
X522000D01*
X521500Y311000D02*
Y312000D01*
X521000Y314000D02*
X522000D01*
X521500Y313500D02*
Y314500D01*
X521000Y306500D02*
X522000D01*
X521500Y306000D02*
Y307000D01*
X518500Y306500D02*
X519500D01*
X519000Y306000D02*
Y307000D01*
X516000Y306500D02*
X517000D01*
X516500Y306000D02*
Y307000D01*
X513500Y306500D02*
X514500D01*
X514000Y306000D02*
Y307000D01*
X511000Y306500D02*
X512000D01*
X511500Y306000D02*
Y307000D01*
X508500Y306500D02*
X509500D01*
X509000Y306000D02*
Y307000D01*
X506000Y306500D02*
X507000D01*
X506500Y306000D02*
Y307000D01*
X503500Y306500D02*
X504500D01*
X504000Y306000D02*
Y307000D01*
X501000Y306500D02*
X502000D01*
X501500Y306000D02*
Y307000D01*
X498500Y306500D02*
X499500D01*
X499000Y306000D02*
Y307000D01*
X519500Y252500D02*
X520500D01*
X520000Y252000D02*
Y253000D01*
X517000Y252500D02*
X518000D01*
X517500Y252000D02*
Y253000D01*
X514500Y252500D02*
X515500D01*
X515000Y252000D02*
Y253000D01*
X512000Y252500D02*
X513000D01*
X512500Y252000D02*
Y253000D01*
X509500Y252500D02*
X510500D01*
X510000Y252000D02*
Y253000D01*
X507000Y252500D02*
X508000D01*
X507500Y252000D02*
Y253000D01*
X504500Y252500D02*
X505500D01*
X505000Y252000D02*
Y253000D01*
X502000Y252500D02*
X503000D01*
X502500Y252000D02*
Y253000D01*
X499500Y252500D02*
X500500D01*
X500000Y252000D02*
Y253000D01*
X497000Y252500D02*
X498000D01*
X497500Y252000D02*
Y253000D01*
X494500Y252500D02*
X495500D01*
X495000Y252000D02*
Y253000D01*
X492000Y252500D02*
X493000D01*
X492500Y252000D02*
Y253000D01*
X492000Y255000D02*
X493000D01*
X492500Y254500D02*
Y255500D01*
X494500Y255000D02*
X495500D01*
X495000Y254500D02*
Y255500D01*
X497000Y255000D02*
X498000D01*
X497500Y254500D02*
Y255500D01*
X499500Y255000D02*
X500500D01*
X500000Y254500D02*
Y255500D01*
X502000Y255000D02*
X503000D01*
X502500Y254500D02*
Y255500D01*
X504500Y255000D02*
X505500D01*
X505000Y254500D02*
Y255500D01*
X507000Y255000D02*
X508000D01*
X507500Y254500D02*
Y255500D01*
X509500Y255000D02*
X510500D01*
X510000Y254500D02*
Y255500D01*
X512000Y255000D02*
X513000D01*
X512500Y254500D02*
Y255500D01*
X514500Y255000D02*
X515500D01*
X515000Y254500D02*
Y255500D01*
X517000Y255000D02*
X518000D01*
X517500Y254500D02*
Y255500D01*
X519500Y255000D02*
X520500D01*
X520000Y254500D02*
Y255500D01*
X519500Y257500D02*
X520500D01*
X520000Y257000D02*
Y258000D01*
X517000Y257500D02*
X518000D01*
X517500Y257000D02*
Y258000D01*
X514500Y257500D02*
X515500D01*
X515000Y257000D02*
Y258000D01*
X512000Y257500D02*
X513000D01*
X512500Y257000D02*
Y258000D01*
X509500Y257500D02*
X510500D01*
X510000Y257000D02*
Y258000D01*
X507000Y257500D02*
X508000D01*
X507500Y257000D02*
Y258000D01*
X504500Y257500D02*
X505500D01*
X505000Y257000D02*
Y258000D01*
X502000Y257500D02*
X503000D01*
X502500Y257000D02*
Y258000D01*
X499500Y257500D02*
X500500D01*
X500000Y257000D02*
Y258000D01*
X497000Y257500D02*
X498000D01*
X497500Y257000D02*
Y258000D01*
X494500Y257500D02*
X495500D01*
X495000Y257000D02*
Y258000D01*
X492000Y257500D02*
X493000D01*
X492500Y257000D02*
Y258000D01*
X450500Y276500D02*
X451500D01*
X451000Y276000D02*
Y277000D01*
X452500Y276500D02*
X453500D01*
X453000Y276000D02*
Y277000D01*
X454500Y276500D02*
X455500D01*
X455000Y276000D02*
Y277000D01*
X456500Y276500D02*
X457500D01*
X457000Y276000D02*
Y277000D01*
X458500Y276500D02*
X459500D01*
X459000Y276000D02*
Y277000D01*
X460500Y276500D02*
X461500D01*
X461000Y276000D02*
Y277000D01*
X462500Y276500D02*
X463500D01*
X463000Y276000D02*
Y277000D01*
X464500Y276500D02*
X465500D01*
X465000Y276000D02*
Y277000D01*
X466500Y276500D02*
X467500D01*
X467000Y276000D02*
Y277000D01*
X468500Y276500D02*
X469500D01*
X469000Y276000D02*
Y277000D01*
X450500Y274500D02*
X451500D01*
X451000Y274000D02*
Y275000D01*
X452500Y274500D02*
X453500D01*
X453000Y274000D02*
Y275000D01*
X454500Y274500D02*
X455500D01*
X455000Y274000D02*
Y275000D01*
X456500Y274500D02*
X457500D01*
X457000Y274000D02*
Y275000D01*
X458500Y274500D02*
X459500D01*
X459000Y274000D02*
Y275000D01*
X460500Y274500D02*
X461500D01*
X461000Y274000D02*
Y275000D01*
X462500Y274500D02*
X463500D01*
X463000Y274000D02*
Y275000D01*
X464500Y274500D02*
X465500D01*
X465000Y274000D02*
Y275000D01*
X466500Y274500D02*
X467500D01*
X467000Y274000D02*
Y275000D01*
X468500Y274500D02*
X469500D01*
X469000Y274000D02*
Y275000D01*
X468500Y272500D02*
X469500D01*
X469000Y272000D02*
Y273000D01*
X466500Y272500D02*
X467500D01*
X467000Y272000D02*
Y273000D01*
X464500Y272500D02*
X465500D01*
X465000Y272000D02*
Y273000D01*
X462500Y272500D02*
X463500D01*
X463000Y272000D02*
Y273000D01*
X460500Y272500D02*
X461500D01*
X461000Y272000D02*
Y273000D01*
X456500Y272500D02*
X457500D01*
X457000Y272000D02*
Y273000D01*
X454500Y272500D02*
X455500D01*
X455000Y272000D02*
Y273000D01*
X452500Y272500D02*
X453500D01*
X453000Y272000D02*
Y273000D01*
X450500Y272500D02*
X451500D01*
X451000Y272000D02*
Y273000D01*
X458500Y272500D02*
X459500D01*
X459000Y272000D02*
Y273000D01*
X450500Y270500D02*
X451500D01*
X451000Y270000D02*
Y271000D01*
X450500Y268500D02*
X451500D01*
X451000Y268000D02*
Y269000D01*
X450500Y266500D02*
X451500D01*
X451000Y266000D02*
Y267000D01*
X452500Y270500D02*
X453500D01*
X453000Y270000D02*
Y271000D01*
X452500Y268500D02*
X453500D01*
X453000Y268000D02*
Y269000D01*
X452500Y266500D02*
X453500D01*
X453000Y266000D02*
Y267000D01*
X454500Y266500D02*
X455500D01*
X455000Y266000D02*
Y267000D01*
X454500Y268500D02*
X455500D01*
X455000Y268000D02*
Y269000D01*
X454500Y270500D02*
X455500D01*
X455000Y270000D02*
Y271000D01*
X458500Y270500D02*
X459500D01*
X459000Y270000D02*
Y271000D01*
X460500Y270500D02*
X461500D01*
X461000Y270000D02*
Y271000D01*
X462500Y270500D02*
X463500D01*
X463000Y270000D02*
Y271000D01*
X464500Y270500D02*
X465500D01*
X465000Y270000D02*
Y271000D01*
X466500Y270500D02*
X467500D01*
X467000Y270000D02*
Y271000D01*
X468500Y270500D02*
X469500D01*
X469000Y270000D02*
Y271000D01*
X468500Y268500D02*
X469500D01*
X469000Y268000D02*
Y269000D01*
X466500Y268500D02*
X467500D01*
X467000Y268000D02*
Y269000D01*
X464500Y268500D02*
X465500D01*
X465000Y268000D02*
Y269000D01*
X456500Y270500D02*
X457500D01*
X457000Y270000D02*
Y271000D01*
X456500Y268500D02*
X457500D01*
X457000Y268000D02*
Y269000D01*
X458500Y268500D02*
X459500D01*
X459000Y268000D02*
Y269000D01*
X460500Y268500D02*
X461500D01*
X461000Y268000D02*
Y269000D01*
X456500Y266500D02*
X457500D01*
X457000Y266000D02*
Y267000D01*
X458500Y266500D02*
X459500D01*
X459000Y266000D02*
Y267000D01*
X460500Y266500D02*
X461500D01*
X461000Y266000D02*
Y267000D01*
X462500Y268500D02*
X463500D01*
X463000Y268000D02*
Y269000D01*
X462500Y266500D02*
X463500D01*
X463000Y266000D02*
Y267000D01*
X464500Y266500D02*
X465500D01*
X465000Y266000D02*
Y267000D01*
X466500Y266500D02*
X467500D01*
X467000Y266000D02*
Y267000D01*
X468500Y266500D02*
X469500D01*
X469000Y266000D02*
Y267000D01*
X470500Y276500D02*
X471500D01*
X471000Y276000D02*
Y277000D01*
X470500Y274500D02*
X471500D01*
X471000Y274000D02*
Y275000D01*
X470500Y272500D02*
X471500D01*
X471000Y272000D02*
Y273000D01*
X470500Y270500D02*
X471500D01*
X471000Y270000D02*
Y271000D01*
X470500Y268500D02*
X471500D01*
X471000Y268000D02*
Y269000D01*
X470500Y266500D02*
X471500D01*
X471000Y266000D02*
Y267000D01*
X472500Y276500D02*
X473500D01*
X473000Y276000D02*
Y277000D01*
X472500Y274500D02*
X473500D01*
X473000Y274000D02*
Y275000D01*
X472500Y272500D02*
X473500D01*
X473000Y272000D02*
Y273000D01*
X472500Y270500D02*
X473500D01*
X473000Y270000D02*
Y271000D01*
X472500Y268500D02*
X473500D01*
X473000Y268000D02*
Y269000D01*
X472500Y266500D02*
X473500D01*
X473000Y266000D02*
Y267000D01*
X474500Y276500D02*
X475500D01*
X475000Y276000D02*
Y277000D01*
X474500Y274500D02*
X475500D01*
X475000Y274000D02*
Y275000D01*
X474500Y272500D02*
X475500D01*
X475000Y272000D02*
Y273000D01*
X474500Y270500D02*
X475500D01*
X475000Y270000D02*
Y271000D01*
X474500Y268500D02*
X475500D01*
X475000Y268000D02*
Y269000D01*
X474500Y266500D02*
X475500D01*
X475000Y266000D02*
Y267000D01*
X450500Y286000D02*
X451500D01*
X451000Y285500D02*
Y286500D01*
X452500Y286000D02*
X453500D01*
X453000Y285500D02*
Y286500D01*
X454500Y286000D02*
X455500D01*
X455000Y285500D02*
Y286500D01*
X456500Y286000D02*
X457500D01*
X457000Y285500D02*
Y286500D01*
X458500Y286000D02*
X459500D01*
X459000Y285500D02*
Y286500D01*
X460500Y286000D02*
X461500D01*
X461000Y285500D02*
Y286500D01*
X462500Y286000D02*
X463500D01*
X463000Y285500D02*
Y286500D01*
X464500Y286000D02*
X465500D01*
X465000Y285500D02*
Y286500D01*
X466500Y286000D02*
X467500D01*
X467000Y285500D02*
Y286500D01*
X468500Y286000D02*
X469500D01*
X469000Y285500D02*
Y286500D01*
X468500Y288000D02*
X469500D01*
X469000Y287500D02*
Y288500D01*
X466500Y288000D02*
X467500D01*
X467000Y287500D02*
Y288500D01*
X464500Y288000D02*
X465500D01*
X465000Y287500D02*
Y288500D01*
X462500Y288000D02*
X463500D01*
X463000Y287500D02*
Y288500D01*
X460500Y288000D02*
X461500D01*
X461000Y287500D02*
Y288500D01*
X458500Y288000D02*
X459500D01*
X459000Y287500D02*
Y288500D01*
X456500Y288000D02*
X457500D01*
X457000Y287500D02*
Y288500D01*
X454500Y288000D02*
X455500D01*
X455000Y287500D02*
Y288500D01*
X452500Y288000D02*
X453500D01*
X453000Y287500D02*
Y288500D01*
X450500Y288000D02*
X451500D01*
X451000Y287500D02*
Y288500D01*
X450500Y290000D02*
X451500D01*
X451000Y289500D02*
Y290500D01*
X452500Y290000D02*
X453500D01*
X453000Y289500D02*
Y290500D01*
X454500Y290000D02*
X455500D01*
X455000Y289500D02*
Y290500D01*
X456500Y290000D02*
X457500D01*
X457000Y289500D02*
Y290500D01*
X458500Y290000D02*
X459500D01*
X459000Y289500D02*
Y290500D01*
X462500Y290000D02*
X463500D01*
X463000Y289500D02*
Y290500D01*
X464500Y290000D02*
X465500D01*
X465000Y289500D02*
Y290500D01*
X466500Y290000D02*
X467500D01*
X467000Y289500D02*
Y290500D01*
X468500Y290000D02*
X469500D01*
X469000Y289500D02*
Y290500D01*
X460500Y290000D02*
X461500D01*
X461000Y289500D02*
Y290500D01*
X476500Y276500D02*
X477500D01*
X477000Y276000D02*
Y277000D01*
X476500Y274500D02*
X477500D01*
X477000Y274000D02*
Y275000D01*
X476500Y272500D02*
X477500D01*
X477000Y272000D02*
Y273000D01*
X476500Y270500D02*
X477500D01*
X477000Y270000D02*
Y271000D01*
X476500Y268500D02*
X477500D01*
X477000Y268000D02*
Y269000D01*
X476500Y266500D02*
X477500D01*
X477000Y266000D02*
Y267000D01*
X450500Y292000D02*
X451500D01*
X451000Y291500D02*
Y292500D01*
X452500Y292000D02*
X453500D01*
X453000Y291500D02*
Y292500D01*
X454500Y292000D02*
X455500D01*
X455000Y291500D02*
Y292500D01*
X456500Y292000D02*
X457500D01*
X457000Y291500D02*
Y292500D01*
X458500Y292000D02*
X459500D01*
X459000Y291500D02*
Y292500D01*
X460500Y292000D02*
X461500D01*
X461000Y291500D02*
Y292500D01*
X462500Y292000D02*
X463500D01*
X463000Y291500D02*
Y292500D01*
X464500Y292000D02*
X465500D01*
X465000Y291500D02*
Y292500D01*
X466500Y292000D02*
X467500D01*
X467000Y291500D02*
Y292500D01*
X468500Y292000D02*
X469500D01*
X469000Y291500D02*
Y292500D01*
X468500Y294000D02*
X469500D01*
X469000Y293500D02*
Y294500D01*
X466500Y294000D02*
X467500D01*
X467000Y293500D02*
Y294500D01*
X464500Y294000D02*
X465500D01*
X465000Y293500D02*
Y294500D01*
X462500Y294000D02*
X463500D01*
X463000Y293500D02*
Y294500D01*
X460500Y294000D02*
X461500D01*
X461000Y293500D02*
Y294500D01*
X458500Y294000D02*
X459500D01*
X459000Y293500D02*
Y294500D01*
X456500Y294000D02*
X457500D01*
X457000Y293500D02*
Y294500D01*
X454500Y294000D02*
X455500D01*
X455000Y293500D02*
Y294500D01*
X452500Y294000D02*
X453500D01*
X453000Y293500D02*
Y294500D01*
X450500Y294000D02*
X451500D01*
X451000Y293500D02*
Y294500D01*
X391469Y332968D02*
X392469D01*
X391968Y332469D02*
Y333469D01*
X388000Y292500D02*
X389000D01*
X388500Y292000D02*
Y293000D01*
X390000Y294500D02*
X391000D01*
X390500Y294000D02*
Y295000D01*
X388000Y294500D02*
X389000D01*
X388500Y294000D02*
Y295000D01*
X390000Y292500D02*
X391000D01*
X390500Y292000D02*
Y293000D01*
X401500Y329500D02*
X402500D01*
X402000Y329000D02*
Y330000D01*
X427000Y298000D02*
X428000D01*
X427500Y297500D02*
Y298500D01*
X432500Y264500D02*
X433500D01*
X433000Y264000D02*
Y265000D01*
X432500Y277000D02*
X433500D01*
X433000Y276500D02*
Y277500D01*
X417969Y295532D02*
X418968D01*
X418469Y295031D02*
Y296031D01*
X415000Y283000D02*
X416000D01*
X415500Y282500D02*
Y283500D01*
X402000Y265000D02*
X403000D01*
X402500Y264500D02*
Y265500D01*
X401500Y327500D02*
X402500D01*
X402000Y327000D02*
Y328000D01*
X403500Y329500D02*
X404500D01*
X404000Y329000D02*
Y330000D01*
X403500Y327500D02*
X404500D01*
X404000Y327000D02*
Y328000D01*
X494500Y282500D02*
X495500D01*
X495000Y282000D02*
Y283000D01*
X494500Y284500D02*
X495500D01*
X495000Y284000D02*
Y285000D01*
X494500Y286500D02*
X495500D01*
X495000Y286000D02*
Y287000D01*
X492500Y286500D02*
X493500D01*
X493000Y286000D02*
Y287000D01*
X490500Y286500D02*
X491500D01*
X491000Y286000D02*
Y287000D01*
X492500Y284500D02*
X493500D01*
X493000Y284000D02*
Y285000D01*
X490500Y284500D02*
X491500D01*
X491000Y284000D02*
Y285000D01*
X492500Y282500D02*
X493500D01*
X493000Y282000D02*
Y283000D01*
X490500Y282500D02*
X491500D01*
X491000Y282000D02*
Y283000D01*
X494500Y288500D02*
X495500D01*
X495000Y288000D02*
Y289000D01*
X492500Y288500D02*
X493500D01*
X493000Y288000D02*
Y289000D01*
X490500Y288500D02*
X491500D01*
X491000Y288000D02*
Y289000D01*
X490500Y290500D02*
X491500D01*
X491000Y290000D02*
Y291000D01*
X492500Y290500D02*
X493500D01*
X493000Y290000D02*
Y291000D01*
X494500Y290500D02*
X495500D01*
X495000Y290000D02*
Y291000D01*
X494500Y292500D02*
X495500D01*
X495000Y292000D02*
Y293000D01*
X492500Y292500D02*
X493500D01*
X493000Y292000D02*
Y293000D01*
X490500Y292500D02*
X491500D01*
X491000Y292000D02*
Y293000D01*
X490500Y280500D02*
X491500D01*
X491000Y280000D02*
Y281000D01*
X490500Y278500D02*
X491500D01*
X491000Y278000D02*
Y279000D01*
X492500Y278500D02*
X493500D01*
X493000Y278000D02*
Y279000D01*
X494500Y280500D02*
X495500D01*
X495000Y280000D02*
Y281000D01*
X494500Y278500D02*
X495500D01*
X495000Y278000D02*
Y279000D01*
X492500Y280500D02*
X493500D01*
X493000Y280000D02*
Y281000D01*
X494500Y294500D02*
X495500D01*
X495000Y294000D02*
Y295000D01*
X492500Y294500D02*
X493500D01*
X493000Y294000D02*
Y295000D01*
X490500Y294500D02*
X491500D01*
X491000Y294000D02*
Y295000D01*
X498000Y286000D02*
X499000D01*
X498500Y285500D02*
Y286500D01*
X498000Y284000D02*
X499000D01*
X498500Y283500D02*
Y284500D01*
X498000Y282000D02*
X499000D01*
X498500Y281500D02*
Y282500D01*
X500000Y282000D02*
X501000D01*
X500500Y281500D02*
Y282500D01*
X500000Y284000D02*
X501000D01*
X500500Y283500D02*
Y284500D01*
X500000Y286000D02*
X501000D01*
X500500Y285500D02*
Y286500D01*
X502000Y286000D02*
X503000D01*
X502500Y285500D02*
Y286500D01*
X502000Y284000D02*
X503000D01*
X502500Y283500D02*
Y284500D01*
X502000Y282000D02*
X503000D01*
X502500Y281500D02*
Y282500D01*
X504000Y282000D02*
X505000D01*
X504500Y281500D02*
Y282500D01*
X504000Y284000D02*
X505000D01*
X504500Y283500D02*
Y284500D01*
X504000Y286000D02*
X505000D01*
X504500Y285500D02*
Y286500D01*
X506000Y286000D02*
X507000D01*
X506500Y285500D02*
Y286500D01*
X506000Y284000D02*
X507000D01*
X506500Y283500D02*
Y284500D01*
X506000Y282000D02*
X507000D01*
X506500Y281500D02*
Y282500D01*
X508000Y282000D02*
X509000D01*
X508500Y281500D02*
Y282500D01*
X508000Y284000D02*
X509000D01*
X508500Y283500D02*
Y284500D01*
X508000Y286000D02*
X509000D01*
X508500Y285500D02*
Y286500D01*
X510000Y286000D02*
X511000D01*
X510500Y285500D02*
Y286500D01*
X510000Y284000D02*
X511000D01*
X510500Y283500D02*
Y284500D01*
X510000Y282000D02*
X511000D01*
X510500Y281500D02*
Y282500D01*
X512000Y282000D02*
X513000D01*
X512500Y281500D02*
Y282500D01*
X512000Y284000D02*
X513000D01*
X512500Y283500D02*
Y284500D01*
X512000Y286000D02*
X513000D01*
X512500Y285500D02*
Y286500D01*
X514000Y286000D02*
X515000D01*
X514500Y285500D02*
Y286500D01*
X514000Y284000D02*
X515000D01*
X514500Y283500D02*
Y284500D01*
X514000Y282000D02*
X515000D01*
X514500Y281500D02*
Y282500D01*
X516000Y282000D02*
X517000D01*
X516500Y281500D02*
Y282500D01*
X516000Y284000D02*
X517000D01*
X516500Y283500D02*
Y284500D01*
X516000Y286000D02*
X517000D01*
X516500Y285500D02*
Y286500D01*
X518000Y286000D02*
X519000D01*
X518500Y285500D02*
Y286500D01*
X518000Y284000D02*
X519000D01*
X518500Y283500D02*
Y284500D01*
X518000Y282000D02*
X519000D01*
X518500Y281500D02*
Y282500D01*
%TF.MD5,DFFEBDBEBBF732585CCB28C08E4FB31B*%
M02*
