G04 Layer_Color=16711935*
%FSLAX25Y25*%
%MOIN*%
%TF.FileFunction,Soldermask,Bot*%
%TF.Part,Single*%
G01*
G75*
%TA.AperFunction,ConnectorPad*%
%ADD48C,0.08268*%
%TA.AperFunction,ConnectorPad*%
G04:AMPARAMS|DCode=49|XSize=82.68mil|YSize=82.68mil|CornerRadius=0mil|HoleSize=0mil|Usage=FLASHONLY|Rotation=0.000|XOffset=0mil|YOffset=0mil|HoleType=Round|Shape=Octagon|*
%AMOCTAGOND49*
4,1,8,0.04134,-0.02067,0.04134,0.02067,0.02067,0.04134,-0.02067,0.04134,-0.04134,0.02067,-0.04134,-0.02067,-0.02067,-0.04134,0.02067,-0.04134,0.04134,-0.02067,0.0*
%
%ADD49OCTAGOND49*%

%TA.AperFunction,ViaPad*%
G04:AMPARAMS|DCode=50|XSize=165.48mil|YSize=126.11mil|CornerRadius=33.53mil|HoleSize=0mil|Usage=FLASHONLY|Rotation=0.000|XOffset=0mil|YOffset=0mil|HoleType=Round|Shape=RoundedRectangle|*
%AMROUNDEDRECTD50*
21,1,0.16548,0.05906,0,0,0.0*
21,1,0.09843,0.12611,0,0,0.0*
1,1,0.06706,0.04921,-0.02953*
1,1,0.06706,-0.04921,-0.02953*
1,1,0.06706,-0.04921,0.02953*
1,1,0.06706,0.04921,0.02953*
%
%ADD50ROUNDEDRECTD50*%
%TA.AperFunction,ViaPad*%
%ADD51R,0.11800X0.16800*%
%TA.AperFunction,ViaPad*%
%ADD52O,0.11800X0.16800*%
D48*
X392000Y349500D02*
D03*
D49*
X409500D02*
D03*
D50*
X500658Y324327D02*
D03*
X520342D02*
D03*
Y352673D02*
D03*
X500658D02*
D03*
X451158Y323827D02*
D03*
X470843D02*
D03*
Y352173D02*
D03*
X451158D02*
D03*
Y215827D02*
D03*
X470843D02*
D03*
Y244173D02*
D03*
X451158D02*
D03*
X500658Y215827D02*
D03*
X520342D02*
D03*
Y244173D02*
D03*
X500658D02*
D03*
D51*
X427500Y249000D02*
D03*
D52*
X412000D02*
D03*
X396500D02*
D03*
%TF.MD5,89C852B6AE4A4A342585FA4E661DEC6C*%
M02*
