G04 Layer_Color=65535*
%FSLAX25Y25*%
%MOIN*%
%TF.FileFunction,Legend,Top*%
%TF.Part,Single*%
G01*
G75*
%ADD21C,0.01000*%
%ADD31C,0.00984*%
%ADD32C,0.00787*%
G36*
X403107Y334416D02*
X402610D01*
X404072Y339632D01*
X404569D01*
X403107Y334416D01*
D02*
G37*
G36*
X400584Y334500D02*
X399890D01*
X397941Y339543D01*
X398665D01*
X399973Y335878D01*
Y335873D01*
X399978Y335858D01*
X399988Y335833D01*
X399998Y335804D01*
X400013Y335764D01*
X400028Y335715D01*
X400047Y335666D01*
X400067Y335607D01*
X400106Y335479D01*
X400150Y335341D01*
X400195Y335199D01*
X400239Y335051D01*
Y335056D01*
X400244Y335071D01*
X400249Y335090D01*
X400259Y335120D01*
X400274Y335159D01*
X400283Y335204D01*
X400298Y335253D01*
X400318Y335312D01*
X400357Y335435D01*
X400401Y335573D01*
X400456Y335725D01*
X400510Y335878D01*
X401877Y339543D01*
X402556D01*
X400584Y334500D01*
D02*
G37*
G36*
X390163Y339558D02*
X390202Y339553D01*
X390251Y339548D01*
X390301Y339543D01*
X390409Y339523D01*
X390527Y339494D01*
X390650Y339450D01*
X390768Y339395D01*
X390773D01*
X390783Y339386D01*
X390798Y339381D01*
X390822Y339366D01*
X390876Y339327D01*
X390950Y339277D01*
X391029Y339208D01*
X391112Y339130D01*
X391196Y339031D01*
X391275Y338923D01*
Y338918D01*
X391285Y338908D01*
X391295Y338894D01*
X391309Y338869D01*
X391324Y338839D01*
X391344Y338805D01*
X391363Y338761D01*
X391388Y338716D01*
X391413Y338662D01*
X391437Y338608D01*
X391486Y338480D01*
X391541Y338333D01*
X391585Y338175D01*
Y338170D01*
X391590Y338156D01*
X391595Y338131D01*
X391604Y338096D01*
X391614Y338052D01*
X391624Y337998D01*
X391634Y337934D01*
X391644Y337860D01*
X391654Y337782D01*
X391664Y337688D01*
X391673Y337595D01*
X391683Y337486D01*
X391693Y337373D01*
X391698Y337250D01*
X391703Y337122D01*
Y336985D01*
Y336975D01*
Y336945D01*
Y336901D01*
X391698Y336837D01*
Y336763D01*
X391693Y336675D01*
X391688Y336581D01*
X391678Y336473D01*
X391668Y336360D01*
X391659Y336247D01*
X391624Y336005D01*
X391580Y335769D01*
X391550Y335661D01*
X391516Y335553D01*
Y335548D01*
X391506Y335528D01*
X391496Y335499D01*
X391481Y335464D01*
X391462Y335415D01*
X391437Y335366D01*
X391413Y335307D01*
X391378Y335243D01*
X391304Y335110D01*
X391211Y334967D01*
X391098Y334835D01*
X391034Y334771D01*
X390970Y334712D01*
X390965Y334707D01*
X390955Y334697D01*
X390935Y334682D01*
X390906Y334667D01*
X390871Y334643D01*
X390827Y334618D01*
X390778Y334594D01*
X390724Y334564D01*
X390660Y334534D01*
X390591Y334510D01*
X390517Y334485D01*
X390434Y334461D01*
X390350Y334446D01*
X390256Y334431D01*
X390163Y334421D01*
X390060Y334416D01*
X390025D01*
X389991Y334421D01*
X389937Y334426D01*
X389878Y334431D01*
X389804Y334446D01*
X389725Y334461D01*
X389641Y334480D01*
X389553Y334510D01*
X389459Y334544D01*
X389361Y334584D01*
X389267Y334633D01*
X389174Y334692D01*
X389081Y334761D01*
X388992Y334844D01*
X388913Y334933D01*
X388908Y334943D01*
X388894Y334963D01*
X388869Y335002D01*
X388835Y335056D01*
X388800Y335125D01*
X388756Y335209D01*
X388712Y335312D01*
X388667Y335430D01*
X388618Y335563D01*
X388574Y335715D01*
X388529Y335882D01*
X388495Y336065D01*
X388461Y336271D01*
X388436Y336488D01*
X388421Y336729D01*
X388416Y336985D01*
Y336989D01*
Y336994D01*
Y337024D01*
Y337073D01*
X388421Y337132D01*
Y337211D01*
X388426Y337295D01*
X388431Y337393D01*
X388441Y337501D01*
X388451Y337614D01*
X388461Y337732D01*
X388495Y337969D01*
X388539Y338210D01*
X388569Y338318D01*
X388598Y338426D01*
Y338431D01*
X388608Y338451D01*
X388618Y338480D01*
X388633Y338515D01*
X388652Y338564D01*
X388677Y338613D01*
X388702Y338672D01*
X388736Y338736D01*
X388810Y338874D01*
X388903Y339012D01*
X389017Y339144D01*
X389081Y339208D01*
X389144Y339267D01*
X389149Y339272D01*
X389159Y339282D01*
X389184Y339297D01*
X389208Y339312D01*
X389248Y339336D01*
X389287Y339361D01*
X389341Y339386D01*
X389395Y339415D01*
X389459Y339445D01*
X389528Y339469D01*
X389602Y339494D01*
X389686Y339518D01*
X389769Y339533D01*
X389863Y339548D01*
X389956Y339558D01*
X390060Y339563D01*
X390128D01*
X390163Y339558D01*
D02*
G37*
G36*
X407191Y334500D02*
X406571D01*
Y338441D01*
X406566D01*
X406561Y338431D01*
X406546Y338421D01*
X406532Y338406D01*
X406483Y338362D01*
X406414Y338308D01*
X406330Y338244D01*
X406227Y338170D01*
X406109Y338092D01*
X405981Y338013D01*
X405976D01*
X405966Y338003D01*
X405946Y337993D01*
X405922Y337978D01*
X405887Y337959D01*
X405853Y337939D01*
X405764Y337895D01*
X405666Y337846D01*
X405558Y337791D01*
X405444Y337742D01*
X405336Y337698D01*
Y338293D01*
X405341Y338298D01*
X405361Y338303D01*
X405385Y338318D01*
X405425Y338338D01*
X405469Y338362D01*
X405518Y338392D01*
X405577Y338421D01*
X405641Y338461D01*
X405784Y338544D01*
X405936Y338648D01*
X406089Y338761D01*
X406242Y338884D01*
X406246Y338889D01*
X406256Y338898D01*
X406281Y338918D01*
X406305Y338943D01*
X406335Y338977D01*
X406374Y339012D01*
X406414Y339056D01*
X406458Y339100D01*
X406546Y339204D01*
X406635Y339317D01*
X406719Y339440D01*
X406758Y339499D01*
X406788Y339563D01*
X407191D01*
Y334500D01*
D02*
G37*
G36*
X413193D02*
X412436D01*
X411850Y336025D01*
X409735D01*
X409184Y334500D01*
X408480D01*
X410409Y339543D01*
X411132D01*
X413193Y334500D01*
D02*
G37*
G36*
X387609Y338889D02*
X385587D01*
X385317Y337526D01*
X385322Y337531D01*
X385336Y337541D01*
X385361Y337555D01*
X385395Y337575D01*
X385435Y337600D01*
X385489Y337629D01*
X385543Y337654D01*
X385607Y337688D01*
X385676Y337718D01*
X385750Y337742D01*
X385912Y337796D01*
X385996Y337816D01*
X386084Y337831D01*
X386178Y337841D01*
X386271Y337846D01*
X386301D01*
X386335Y337841D01*
X386384D01*
X386438Y337831D01*
X386507Y337821D01*
X386581Y337806D01*
X386660Y337787D01*
X386743Y337762D01*
X386837Y337732D01*
X386930Y337698D01*
X387024Y337654D01*
X387117Y337600D01*
X387211Y337541D01*
X387299Y337467D01*
X387388Y337388D01*
X387393Y337383D01*
X387408Y337368D01*
X387432Y337339D01*
X387462Y337304D01*
X387496Y337260D01*
X387531Y337206D01*
X387575Y337142D01*
X387619Y337068D01*
X387659Y336989D01*
X387703Y336901D01*
X387737Y336803D01*
X387777Y336699D01*
X387801Y336586D01*
X387826Y336468D01*
X387841Y336340D01*
X387846Y336207D01*
Y336197D01*
Y336178D01*
X387841Y336143D01*
Y336094D01*
X387836Y336035D01*
X387826Y335966D01*
X387811Y335887D01*
X387796Y335804D01*
X387772Y335715D01*
X387747Y335617D01*
X387713Y335518D01*
X387673Y335420D01*
X387629Y335322D01*
X387575Y335218D01*
X387511Y335120D01*
X387442Y335026D01*
X387437Y335021D01*
X387418Y335002D01*
X387393Y334972D01*
X387354Y334933D01*
X387304Y334884D01*
X387245Y334835D01*
X387176Y334780D01*
X387098Y334721D01*
X387004Y334662D01*
X386906Y334608D01*
X386798Y334559D01*
X386680Y334510D01*
X386552Y334471D01*
X386419Y334441D01*
X386271Y334421D01*
X386119Y334416D01*
X386089D01*
X386055Y334421D01*
X386005D01*
X385946Y334426D01*
X385878Y334436D01*
X385804Y334451D01*
X385720Y334466D01*
X385632Y334485D01*
X385543Y334510D01*
X385450Y334539D01*
X385351Y334579D01*
X385258Y334623D01*
X385164Y334672D01*
X385076Y334731D01*
X384992Y334800D01*
X384987Y334805D01*
X384972Y334820D01*
X384953Y334840D01*
X384923Y334869D01*
X384889Y334908D01*
X384854Y334958D01*
X384810Y335012D01*
X384771Y335071D01*
X384726Y335140D01*
X384682Y335218D01*
X384643Y335302D01*
X384603Y335395D01*
X384569Y335494D01*
X384539Y335597D01*
X384515Y335705D01*
X384500Y335823D01*
X385149Y335878D01*
Y335873D01*
X385154Y335858D01*
X385159Y335833D01*
X385164Y335799D01*
X385174Y335759D01*
X385184Y335715D01*
X385218Y335607D01*
X385263Y335494D01*
X385317Y335376D01*
X385390Y335258D01*
X385435Y335209D01*
X385479Y335159D01*
X385484Y335154D01*
X385494Y335149D01*
X385509Y335140D01*
X385528Y335125D01*
X385553Y335105D01*
X385582Y335086D01*
X385661Y335041D01*
X385755Y334997D01*
X385863Y334963D01*
X385986Y334933D01*
X386050Y334928D01*
X386119Y334923D01*
X386163D01*
X386192Y334928D01*
X386232Y334933D01*
X386276Y334943D01*
X386325Y334953D01*
X386379Y334967D01*
X386502Y335007D01*
X386561Y335031D01*
X386625Y335066D01*
X386689Y335105D01*
X386753Y335149D01*
X386817Y335199D01*
X386876Y335258D01*
X386881Y335263D01*
X386891Y335272D01*
X386906Y335292D01*
X386926Y335322D01*
X386950Y335351D01*
X386975Y335395D01*
X387004Y335445D01*
X387034Y335499D01*
X387058Y335558D01*
X387088Y335627D01*
X387112Y335700D01*
X387137Y335779D01*
X387157Y335863D01*
X387172Y335956D01*
X387181Y336050D01*
X387186Y336153D01*
Y336158D01*
Y336178D01*
Y336202D01*
X387181Y336242D01*
X387176Y336286D01*
X387172Y336335D01*
X387162Y336394D01*
X387147Y336458D01*
X387112Y336591D01*
X387088Y336660D01*
X387058Y336729D01*
X387024Y336798D01*
X386985Y336866D01*
X386940Y336930D01*
X386886Y336989D01*
X386881Y336994D01*
X386871Y337004D01*
X386857Y337019D01*
X386832Y337039D01*
X386803Y337063D01*
X386768Y337088D01*
X386724Y337117D01*
X386680Y337147D01*
X386625Y337172D01*
X386566Y337201D01*
X386502Y337226D01*
X386434Y337250D01*
X386355Y337270D01*
X386276Y337285D01*
X386192Y337295D01*
X386104Y337299D01*
X386055D01*
X386025Y337295D01*
X385996D01*
X385922Y337285D01*
X385838Y337265D01*
X385750Y337240D01*
X385656Y337206D01*
X385563Y337162D01*
X385558D01*
X385553Y337157D01*
X385523Y337137D01*
X385479Y337108D01*
X385430Y337068D01*
X385366Y337014D01*
X385307Y336955D01*
X385243Y336886D01*
X385189Y336812D01*
X384608Y336886D01*
X385095Y339479D01*
X387609D01*
Y338889D01*
D02*
G37*
G36*
X491356Y323273D02*
X488500D01*
Y324210D01*
X491356D01*
Y323273D01*
D02*
G37*
G36*
Y214273D02*
X488500D01*
Y215210D01*
X491356D01*
Y214273D01*
D02*
G37*
G36*
X482437Y244162D02*
X484496D01*
Y243299D01*
X482437D01*
Y241225D01*
X481559D01*
Y243299D01*
X479500D01*
Y244162D01*
X481559D01*
Y246221D01*
X482437D01*
Y244162D01*
D02*
G37*
G36*
X396416Y338234D02*
X396465Y338229D01*
X396515Y338224D01*
X396574Y338215D01*
X396638Y338200D01*
X396771Y338165D01*
X396839Y338141D01*
X396913Y338111D01*
X396977Y338077D01*
X397046Y338033D01*
X397105Y337988D01*
X397164Y337934D01*
X397169Y337929D01*
X397179Y337919D01*
X397194Y337905D01*
X397208Y337880D01*
X397233Y337846D01*
X397258Y337806D01*
X397282Y337762D01*
X397312Y337708D01*
X397341Y337644D01*
X397366Y337575D01*
X397390Y337501D01*
X397415Y337418D01*
X397430Y337329D01*
X397445Y337231D01*
X397454Y337122D01*
X397459Y337009D01*
Y334500D01*
X396839D01*
Y336803D01*
Y336807D01*
Y336817D01*
Y336837D01*
Y336862D01*
Y336891D01*
X396834Y336930D01*
X396830Y337009D01*
X396825Y337093D01*
X396815Y337181D01*
X396795Y337265D01*
X396775Y337334D01*
X396771Y337344D01*
X396766Y337363D01*
X396751Y337393D01*
X396726Y337432D01*
X396697Y337472D01*
X396657Y337516D01*
X396613Y337560D01*
X396559Y337600D01*
X396554Y337604D01*
X396529Y337614D01*
X396500Y337634D01*
X396456Y337654D01*
X396402Y337668D01*
X396338Y337688D01*
X396269Y337698D01*
X396190Y337703D01*
X396151D01*
X396126Y337698D01*
X396092Y337693D01*
X396052Y337688D01*
X395964Y337668D01*
X395860Y337639D01*
X395752Y337595D01*
X395698Y337565D01*
X395649Y337531D01*
X395595Y337486D01*
X395545Y337442D01*
X395540Y337437D01*
X395536Y337432D01*
X395521Y337413D01*
X395506Y337393D01*
X395486Y337363D01*
X395467Y337334D01*
X395442Y337290D01*
X395422Y337245D01*
X395398Y337191D01*
X395373Y337127D01*
X395354Y337063D01*
X395334Y336989D01*
X395319Y336906D01*
X395304Y336817D01*
X395299Y336724D01*
X395294Y336620D01*
Y334500D01*
X394675D01*
Y336876D01*
Y336881D01*
Y336896D01*
Y336916D01*
Y336945D01*
X394670Y336980D01*
X394665Y337019D01*
X394655Y337108D01*
X394635Y337211D01*
X394611Y337314D01*
X394571Y337413D01*
X394522Y337496D01*
X394517Y337506D01*
X394493Y337531D01*
X394458Y337560D01*
X394404Y337600D01*
X394335Y337639D01*
X394251Y337668D01*
X394148Y337693D01*
X394030Y337703D01*
X393986D01*
X393937Y337698D01*
X393873Y337688D01*
X393799Y337668D01*
X393715Y337644D01*
X393627Y337609D01*
X393543Y337565D01*
X393533Y337560D01*
X393509Y337541D01*
X393469Y337506D01*
X393420Y337462D01*
X393366Y337408D01*
X393317Y337339D01*
X393267Y337255D01*
X393223Y337162D01*
Y337157D01*
X393218Y337152D01*
X393213Y337132D01*
X393208Y337112D01*
X393199Y337083D01*
X393194Y337053D01*
X393184Y337014D01*
X393174Y336965D01*
X393164Y336916D01*
X393154Y336857D01*
X393149Y336793D01*
X393140Y336724D01*
X393135Y336650D01*
X393130Y336571D01*
X393125Y336488D01*
Y336394D01*
Y334500D01*
X392505D01*
Y338156D01*
X393061D01*
Y337649D01*
X393071Y337654D01*
X393080Y337668D01*
X393090Y337688D01*
X393130Y337737D01*
X393184Y337796D01*
X393248Y337865D01*
X393326Y337939D01*
X393415Y338008D01*
X393518Y338072D01*
X393523D01*
X393533Y338077D01*
X393548Y338087D01*
X393568Y338096D01*
X393597Y338111D01*
X393627Y338126D01*
X393705Y338156D01*
X393804Y338185D01*
X393912Y338215D01*
X394035Y338234D01*
X394168Y338239D01*
X394207D01*
X394237Y338234D01*
X394271D01*
X394310Y338229D01*
X394404Y338219D01*
X394507Y338195D01*
X394620Y338165D01*
X394729Y338126D01*
X394832Y338067D01*
X394837D01*
X394842Y338057D01*
X394876Y338037D01*
X394921Y337998D01*
X394975Y337944D01*
X395034Y337880D01*
X395098Y337801D01*
X395152Y337708D01*
X395196Y337600D01*
X395201Y337604D01*
X395216Y337629D01*
X395240Y337659D01*
X395275Y337698D01*
X395319Y337747D01*
X395373Y337801D01*
X395432Y337860D01*
X395501Y337919D01*
X395580Y337978D01*
X395663Y338037D01*
X395757Y338092D01*
X395860Y338141D01*
X395964Y338180D01*
X396082Y338210D01*
X396200Y338234D01*
X396328Y338239D01*
X396382D01*
X396416Y338234D01*
D02*
G37*
G36*
X409958Y356775D02*
X411331D01*
Y356199D01*
X409958D01*
Y354817D01*
X409373D01*
Y356199D01*
X408000D01*
Y356775D01*
X409373D01*
Y358148D01*
X409958D01*
Y356775D01*
D02*
G37*
G36*
X482437Y352662D02*
X484496D01*
Y351799D01*
X482437D01*
Y349725D01*
X481559D01*
Y351799D01*
X479500D01*
Y352662D01*
X481559D01*
Y354721D01*
X482437D01*
Y352662D01*
D02*
G37*
%LPC*%
G36*
X410753Y339012D02*
Y339007D01*
X410748Y338992D01*
X410743Y338962D01*
X410733Y338928D01*
X410724Y338884D01*
X410714Y338835D01*
X410699Y338775D01*
X410684Y338712D01*
X410665Y338638D01*
X410645Y338564D01*
X410596Y338402D01*
X410542Y338229D01*
X410483Y338047D01*
X409922Y336566D01*
X411644D01*
X411112Y337964D01*
X411107Y337973D01*
X411102Y337993D01*
X411088Y338028D01*
X411073Y338072D01*
X411053Y338126D01*
X411029Y338190D01*
X411004Y338259D01*
X410979Y338333D01*
X410920Y338500D01*
X410861Y338677D01*
X410802Y338849D01*
X410778Y338933D01*
X410753Y339012D01*
D02*
G37*
G36*
X390050Y339051D02*
X390010D01*
X389981Y339046D01*
X389942Y339041D01*
X389902Y339031D01*
X389804Y339007D01*
X389750Y338987D01*
X389696Y338962D01*
X389636Y338933D01*
X389582Y338898D01*
X389523Y338854D01*
X389469Y338805D01*
X389415Y338751D01*
X389366Y338687D01*
X389361Y338682D01*
X389351Y338667D01*
X389336Y338638D01*
X389317Y338593D01*
X389292Y338544D01*
X389267Y338475D01*
X389238Y338397D01*
X389208Y338303D01*
X389179Y338190D01*
X389149Y338067D01*
X389125Y337929D01*
X389100Y337772D01*
X389081Y337604D01*
X389066Y337413D01*
X389056Y337206D01*
X389051Y336985D01*
Y336980D01*
Y336970D01*
Y336955D01*
Y336930D01*
Y336901D01*
Y336866D01*
X389056Y336827D01*
Y336783D01*
X389061Y336684D01*
X389066Y336571D01*
X389076Y336443D01*
X389085Y336311D01*
X389120Y336035D01*
X389144Y335897D01*
X389174Y335764D01*
X389208Y335636D01*
X389248Y335518D01*
X389292Y335415D01*
X389341Y335332D01*
X389346Y335327D01*
X389356Y335312D01*
X389371Y335292D01*
X389395Y335267D01*
X389420Y335238D01*
X389454Y335204D01*
X389494Y335164D01*
X389538Y335130D01*
X389592Y335090D01*
X389646Y335051D01*
X389769Y334987D01*
X389833Y334963D01*
X389907Y334943D01*
X389981Y334928D01*
X390060Y334923D01*
X390079D01*
X390099Y334928D01*
X390128D01*
X390168Y334938D01*
X390207Y334943D01*
X390256Y334958D01*
X390306Y334972D01*
X390365Y334997D01*
X390419Y335021D01*
X390478Y335056D01*
X390537Y335095D01*
X390601Y335144D01*
X390660Y335199D01*
X390719Y335258D01*
X390773Y335332D01*
X390778Y335336D01*
X390788Y335351D01*
X390803Y335376D01*
X390817Y335415D01*
X390842Y335464D01*
X390866Y335528D01*
X390891Y335602D01*
X390921Y335696D01*
X390950Y335799D01*
X390975Y335917D01*
X390999Y336050D01*
X391024Y336202D01*
X391039Y336370D01*
X391053Y336557D01*
X391063Y336763D01*
X391068Y336985D01*
Y336989D01*
Y336999D01*
Y337014D01*
Y337039D01*
Y337068D01*
Y337103D01*
X391063Y337142D01*
Y337186D01*
X391058Y337285D01*
X391053Y337398D01*
X391044Y337526D01*
X391034Y337659D01*
X390999Y337934D01*
X390975Y338072D01*
X390945Y338210D01*
X390911Y338333D01*
X390876Y338451D01*
X390827Y338554D01*
X390778Y338638D01*
X390773Y338643D01*
X390763Y338657D01*
X390748Y338677D01*
X390724Y338702D01*
X390699Y338736D01*
X390665Y338771D01*
X390625Y338805D01*
X390576Y338844D01*
X390527Y338884D01*
X390473Y338918D01*
X390350Y338987D01*
X390281Y339012D01*
X390207Y339031D01*
X390128Y339046D01*
X390050Y339051D01*
D02*
G37*
%LPD*%
D21*
X498500Y354248D02*
G03*
X494752Y350500I0J-3748D01*
G01*
Y326500D02*
G03*
X498500Y322752I3748J0D01*
G01*
X522500D02*
G03*
X526248Y326500I0J3748D01*
G01*
Y350500D02*
G03*
X522500Y354248I-3748J0D01*
G01*
X449000Y353748D02*
G03*
X445252Y350000I0J-3748D01*
G01*
Y326000D02*
G03*
X449000Y322252I3748J0D01*
G01*
X473000D02*
G03*
X476748Y326000I0J3748D01*
G01*
Y350000D02*
G03*
X473000Y353748I-3748J0D01*
G01*
X449000Y245748D02*
G03*
X445252Y242000I0J-3748D01*
G01*
Y218000D02*
G03*
X449000Y214252I3748J0D01*
G01*
X473000D02*
G03*
X476748Y218000I0J3748D01*
G01*
Y242000D02*
G03*
X473000Y245748I-3748J0D01*
G01*
X498500D02*
G03*
X494752Y242000I0J-3748D01*
G01*
Y218000D02*
G03*
X498500Y214252I3748J0D01*
G01*
X522500D02*
G03*
X526248Y218000I0J3748D01*
G01*
Y242000D02*
G03*
X522500Y245748I-3748J0D01*
G01*
X415988Y268531D02*
X427012D01*
X415988Y272468D02*
X427012D01*
X415988Y268531D02*
Y272468D01*
X427012Y268531D02*
Y272468D01*
X490500Y308500D02*
X495000Y304000D01*
X486000D02*
X490500Y308500D01*
Y262500D02*
Y308500D01*
X470000Y267000D02*
Y295000D01*
X442000Y267000D02*
X470000D01*
X442000D02*
Y296000D01*
X470000D01*
Y295000D02*
Y296000D01*
X409500Y341000D02*
Y344500D01*
X392000Y341000D02*
X409500D01*
X392000D02*
Y344500D01*
X526248Y326500D02*
Y350500D01*
X494752Y326500D02*
Y350500D01*
X498500Y354248D02*
X522500D01*
X498500Y322752D02*
X522500D01*
X476748Y326000D02*
Y350000D01*
X445252Y326000D02*
Y350000D01*
X449000Y353748D02*
X473000D01*
X449000Y322252D02*
X473000D01*
X386445Y308795D02*
X389988D01*
X386445D02*
Y319032D01*
X401012Y308795D02*
X404555D01*
Y319032D01*
X412000Y214000D02*
Y220000D01*
X396500Y214000D02*
Y220000D01*
X427500Y214000D02*
Y220000D01*
X388232Y214000D02*
X435476D01*
X417366Y249000D02*
X421697D01*
X435476Y209650D02*
Y249000D01*
X388232Y209630D02*
Y249000D01*
Y209630D02*
X435457D01*
X435476Y209650D01*
X433114Y249000D02*
X435476D01*
X402012D02*
X406343D01*
X388232D02*
X390595D01*
X476748Y218000D02*
Y242000D01*
X445252Y218000D02*
Y242000D01*
X449000Y245748D02*
X473000D01*
X449000Y214252D02*
X473000D01*
X526248Y218000D02*
Y242000D01*
X494752Y218000D02*
Y242000D01*
X498500Y245748D02*
X522500D01*
X498500Y214252D02*
X522500D01*
X407502Y270000D02*
X412500D01*
X413500Y271000D01*
Y272999D01*
X412500Y273999D01*
X407502D01*
X413500Y279997D02*
Y275998D01*
X409501Y279997D01*
X408502D01*
X407502Y278997D01*
Y276998D01*
X408502Y275998D01*
X429500Y287500D02*
Y293498D01*
X432499D01*
X433499Y292498D01*
Y290499D01*
X432499Y289499D01*
X429500D01*
X431499D02*
X433499Y287500D01*
X438497D02*
Y293498D01*
X435498Y290499D01*
X439497D01*
X433499Y284998D02*
X432499Y285998D01*
X430500D01*
X429500Y284998D01*
Y281000D01*
X430500Y280000D01*
X432499D01*
X433499Y281000D01*
X435498Y285998D02*
X439497D01*
Y284998D01*
X435498Y281000D01*
Y280000D01*
X507499Y343998D02*
X505499D01*
X506499D01*
Y339000D01*
X505499Y338000D01*
X504500D01*
X503500Y339000D01*
X513497Y338000D02*
X509498D01*
X513497Y341999D01*
Y342998D01*
X512497Y343998D01*
X510498D01*
X509498Y342998D01*
X459499Y341498D02*
X457499D01*
X458499D01*
Y336500D01*
X457499Y335500D01*
X456500D01*
X455500Y336500D01*
X461498Y340498D02*
X462498Y341498D01*
X464497D01*
X465497Y340498D01*
Y339499D01*
X464497Y338499D01*
X463497D01*
X464497D01*
X465497Y337499D01*
Y336500D01*
X464497Y335500D01*
X462498D01*
X461498Y336500D01*
X432999Y299998D02*
X431999Y300998D01*
X430000D01*
X429000Y299998D01*
Y296000D01*
X430000Y295000D01*
X431999D01*
X432999Y296000D01*
X434998Y299998D02*
X435998Y300998D01*
X437997D01*
X438997Y299998D01*
Y298999D01*
X437997Y297999D01*
X436997D01*
X437997D01*
X438997Y296999D01*
Y296000D01*
X437997Y295000D01*
X435998D01*
X434998Y296000D01*
X406499Y331498D02*
X405499Y332498D01*
X403500D01*
X402500Y331498D01*
Y327500D01*
X403500Y326500D01*
X405499D01*
X406499Y327500D01*
X412497Y332498D02*
X408498D01*
Y329499D01*
X410497Y330499D01*
X411497D01*
X412497Y329499D01*
Y327500D01*
X411497Y326500D01*
X409498D01*
X408498Y327500D01*
X407002Y308000D02*
X411001D01*
X413000Y309999D01*
X411001Y311999D01*
X407002D01*
X413000Y313998D02*
X407002D01*
Y316997D01*
X408002Y317997D01*
X410001D01*
X411001Y316997D01*
Y313998D01*
Y315997D02*
X413000Y317997D01*
Y319996D02*
Y321995D01*
Y320996D01*
X407002D01*
X408002Y319996D01*
X407999Y300998D02*
X406999Y301998D01*
X405000D01*
X404000Y300998D01*
Y297000D01*
X405000Y296000D01*
X406999D01*
X407999Y297000D01*
X412997Y296000D02*
Y301998D01*
X409998Y298999D01*
X413997D01*
X407002Y285000D02*
X413000D01*
Y288999D01*
Y290998D02*
Y292997D01*
Y291998D01*
X407002D01*
X408002Y290998D01*
X407999Y266998D02*
X406999Y267998D01*
X405000D01*
X404000Y266998D01*
Y263000D01*
X405000Y262000D01*
X406999D01*
X407999Y263000D01*
X413997Y262000D02*
X409998D01*
X413997Y265999D01*
Y266998D01*
X412997Y267998D01*
X410998D01*
X409998Y266998D01*
X408000Y226500D02*
Y232498D01*
X410999D01*
X411999Y231498D01*
Y229499D01*
X410999Y228499D01*
X408000D01*
X413998Y226500D02*
X415997D01*
X414998D01*
Y232498D01*
X413998Y231498D01*
X433499Y325498D02*
X432499Y326498D01*
X430500D01*
X429500Y325498D01*
Y321500D01*
X430500Y320500D01*
X432499D01*
X433499Y321500D01*
X435498Y320500D02*
X437497D01*
X436498D01*
Y326498D01*
X435498Y325498D01*
X429500Y342000D02*
X423502D01*
Y344999D01*
X424502Y345999D01*
X426501D01*
X427501Y344999D01*
Y342000D01*
Y343999D02*
X429500Y345999D01*
X424502Y347998D02*
X423502Y348998D01*
Y350997D01*
X424502Y351997D01*
X425501D01*
X426501Y350997D01*
Y349997D01*
Y350997D01*
X427501Y351997D01*
X428500D01*
X429500Y350997D01*
Y348998D01*
X428500Y347998D01*
X421000Y342000D02*
X415002D01*
Y344999D01*
X416002Y345999D01*
X418001D01*
X419001Y344999D01*
Y342000D01*
Y343999D02*
X421000Y345999D01*
Y351997D02*
Y347998D01*
X417001Y351997D01*
X416002D01*
X415002Y350997D01*
Y348998D01*
X416002Y347998D01*
X428502Y305000D02*
X433500D01*
X434500Y306000D01*
Y307999D01*
X433500Y308999D01*
X428502D01*
X434500Y310998D02*
Y312997D01*
Y311998D01*
X428502D01*
X429502Y310998D01*
X458999Y232498D02*
X456999D01*
X457999D01*
Y227500D01*
X456999Y226500D01*
X456000D01*
X455000Y227500D01*
X463997Y226500D02*
Y232498D01*
X460998Y229499D01*
X464997D01*
X510499Y233498D02*
X508499D01*
X509499D01*
Y228500D01*
X508499Y227500D01*
X507500D01*
X506500Y228500D01*
X512498Y227500D02*
X514497D01*
X513498D01*
Y233498D01*
X512498Y232498D01*
D31*
X428882Y276406D02*
G03*
X428882Y276406I-492J0D01*
G01*
X415980Y304071D02*
G03*
X415980Y304071I-492J0D01*
G01*
D32*
X431465Y276543D02*
G03*
X429890Y274969I0J-1575D01*
G01*
X436110Y274969D02*
G03*
X434535Y276543I-1575J-0D01*
G01*
X434535Y264457D02*
G03*
X436110Y266032I0J1575D01*
G01*
X429890D02*
G03*
X431465Y264457I1575J0D01*
G01*
X427543Y284535D02*
G03*
X425969Y286110I-1575J0D01*
G01*
X425969Y279890D02*
G03*
X427543Y281465I-0J1575D01*
G01*
X415457Y281465D02*
G03*
X417031Y279890I1575J-0D01*
G01*
Y286110D02*
G03*
X415457Y284535I0J-1575D01*
G01*
X427543Y299535D02*
G03*
X425969Y301110I-1575J0D01*
G01*
X425969Y294890D02*
G03*
X427543Y296465I-0J1575D01*
G01*
X415457Y296465D02*
G03*
X417031Y294890I1575J-0D01*
G01*
Y301110D02*
G03*
X415457Y299535I0J-1575D01*
G01*
X388957Y327965D02*
G03*
X390531Y326390I1575J0D01*
G01*
X390531Y332610D02*
G03*
X388957Y331035I0J-1575D01*
G01*
X401043Y331035D02*
G03*
X399468Y332610I-1575J0D01*
G01*
Y326390D02*
G03*
X401043Y327965I-0J1575D01*
G01*
X402468Y301500D02*
G03*
X400894Y303075I-1575J0D01*
G01*
X400894Y294925D02*
G03*
X402468Y296500I0J1575D01*
G01*
X388531Y296500D02*
G03*
X390106Y294925I1575J0D01*
G01*
X390106Y303075D02*
G03*
X388531Y301500I0J-1575D01*
G01*
X389957Y263465D02*
G03*
X391531Y261890I1575J0D01*
G01*
X391531Y268110D02*
G03*
X389957Y266535I0J-1575D01*
G01*
X402043Y266535D02*
G03*
X400468Y268110I-1575J0D01*
G01*
Y261890D02*
G03*
X402043Y263465I-0J1575D01*
G01*
X427543Y325035D02*
G03*
X425969Y326610I-1575J0D01*
G01*
X425969Y320390D02*
G03*
X427543Y321965I-0J1575D01*
G01*
X415457Y321965D02*
G03*
X417031Y320390I1575J0D01*
G01*
Y326610D02*
G03*
X415457Y325035I0J-1575D01*
G01*
X429890Y266032D02*
Y268925D01*
X431465Y276543D02*
X434535D01*
X431465Y264457D02*
X434535D01*
X429890Y272075D02*
Y274969D01*
X436110Y272075D02*
Y274969D01*
X436110Y266032D02*
Y268925D01*
X415457Y293610D02*
X419925D01*
X427543Y287390D02*
Y293610D01*
X415457Y287390D02*
Y293610D01*
X423075D02*
X427543D01*
X415457Y287390D02*
X419925D01*
X423075D02*
X427543D01*
X417031Y286110D02*
X419925D01*
X427543Y281465D02*
Y284535D01*
X415457Y281465D02*
Y284535D01*
X423075Y286110D02*
X425969D01*
X423075Y279890D02*
X425969D01*
X417031Y279890D02*
X419925D01*
X417031Y301110D02*
X419925D01*
X427543Y296465D02*
Y299535D01*
X415457Y296465D02*
Y299535D01*
X423075Y301110D02*
X425969D01*
X423075Y294890D02*
X425969D01*
X417031Y294890D02*
X419925D01*
X396575Y326390D02*
X399468D01*
X388957Y327965D02*
Y331035D01*
X401043Y327965D02*
Y331035D01*
X390531Y326390D02*
X393425D01*
X390531Y332610D02*
X393425D01*
X396575Y332610D02*
X399468D01*
X390106Y303075D02*
X393728D01*
X397272D02*
X400894D01*
X397272Y294925D02*
X400894D01*
X402468Y296500D02*
Y301500D01*
X390106Y294925D02*
X393728D01*
X388531Y296500D02*
Y301500D01*
X400528Y291949D02*
X404858D01*
X400528Y273051D02*
X404858D01*
X387142Y291949D02*
X391472D01*
X387142Y273051D02*
X391472D01*
X404858D02*
Y291949D01*
X387142Y273051D02*
Y291949D01*
X397575Y261890D02*
X400468D01*
X389957Y263465D02*
Y266535D01*
X402043Y263465D02*
Y266535D01*
X391531Y261890D02*
X394425D01*
X391531Y268110D02*
X394425D01*
X397575Y268110D02*
X400468D01*
X417031Y326610D02*
X419925D01*
X427543Y321965D02*
Y325035D01*
X415457Y321965D02*
Y325035D01*
X423075Y326610D02*
X425969D01*
X423075Y320390D02*
X425969D01*
X417031Y320390D02*
X419925D01*
X422390Y327957D02*
Y332425D01*
Y340043D02*
X428610D01*
X422390Y327957D02*
X428610D01*
X422390Y335575D02*
Y340043D01*
X428610Y327957D02*
Y332425D01*
Y335575D02*
Y340043D01*
X414390Y327957D02*
Y332425D01*
Y340043D02*
X420610D01*
X414390Y327957D02*
X420610D01*
X414390Y335575D02*
Y340043D01*
X420610Y327957D02*
Y332425D01*
Y335575D02*
Y340043D01*
X416669Y307319D02*
Y309681D01*
X425331Y307319D02*
Y309681D01*
X416669Y307319D02*
X425331D01*
X416669Y309681D02*
X425331D01*
%TF.MD5,7FE1030936E32819AD38D07DEAF6C439*%
M02*
