G04 Layer_Physical_Order=1*
G04 Layer_Color=255*
%FSLAX25Y25*%
%MOIN*%
%TF.FileFunction,Copper,L1,Top,Signal*%
%TF.Part,Single*%
G01*
G75*
%TA.AperFunction,SMDPad*%
%ADD10R,0.02362X0.04331*%
%TA.AperFunction,SMDPad*%
%ADD11R,0.03543X0.09843*%
%TA.AperFunction,SMDPad*%
%ADD12R,0.18898X0.09843*%
%TA.AperFunction,SMDPad*%
%ADD13R,0.03858X0.03661*%
%TA.AperFunction,SMDPad*%
%ADD14R,0.03661X0.03858*%
%TA.AperFunction,SMDPad*%
%ADD15O,0.07874X0.13780*%
%TA.AperFunction,SMDPad*%
%ADD16O,0.02756X0.08268*%
%TA.AperFunction,SMDPad*%
%ADD17O,0.02756X0.07480*%
%TA.AperFunction,SMDPad*%
%ADD18R,0.04567X0.05787*%
%TA.AperFunction,SMDPad*%
%ADD19R,0.05906X0.06299*%
%TA.AperFunction,SMDPad*%
%ADD20R,0.01575X0.03543*%
%ADD21C,0.01000*%
%ADD22C,0.02000*%
%ADD23C,0.03000*%
%TA.AperFunction,ConnectorPad*%
%ADD24C,0.07874*%
%TA.AperFunction,ConnectorPad*%
G04:AMPARAMS|DCode=25|XSize=78.74mil|YSize=78.74mil|CornerRadius=0mil|HoleSize=0mil|Usage=FLASHONLY|Rotation=0.000|XOffset=0mil|YOffset=0mil|HoleType=Round|Shape=Octagon|*
%AMOCTAGOND25*
4,1,8,0.03937,-0.01969,0.03937,0.01969,0.01969,0.03937,-0.01969,0.03937,-0.03937,0.01969,-0.03937,-0.01969,-0.01969,-0.03937,0.01969,-0.03937,0.03937,-0.01969,0.0*
%
%ADD25OCTAGOND25*%

%TA.AperFunction,ViaPad*%
G04:AMPARAMS|DCode=26|XSize=157.48mil|YSize=118.11mil|CornerRadius=29.53mil|HoleSize=0mil|Usage=FLASHONLY|Rotation=0.000|XOffset=0mil|YOffset=0mil|HoleType=Round|Shape=RoundedRectangle|*
%AMROUNDEDRECTD26*
21,1,0.15748,0.05906,0,0,0.0*
21,1,0.09843,0.11811,0,0,0.0*
1,1,0.05906,0.04921,-0.02953*
1,1,0.05906,-0.04921,-0.02953*
1,1,0.05906,-0.04921,0.02953*
1,1,0.05906,0.04921,0.02953*
%
%ADD26ROUNDEDRECTD26*%
%TA.AperFunction,ViaPad*%
%ADD27R,0.11000X0.16000*%
%TA.AperFunction,ViaPad*%
%ADD28O,0.11000X0.16000*%
%TA.AperFunction,ViaPad*%
%ADD29C,0.01800*%
G36*
X529175Y209500D02*
X487500D01*
Y291500D01*
Y358500D01*
Y358675D01*
X529175D01*
Y209500D01*
D02*
G37*
G36*
X418005Y339263D02*
X418020Y339174D01*
X418045Y339095D01*
X418080Y339027D01*
X418125Y338969D01*
X418180Y338922D01*
X418245Y338885D01*
X418320Y338859D01*
X418405Y338843D01*
X418500Y338838D01*
X416500D01*
X416595Y338843D01*
X416680Y338859D01*
X416755Y338885D01*
X416820Y338922D01*
X416875Y338969D01*
X416920Y339027D01*
X416955Y339095D01*
X416980Y339174D01*
X416995Y339263D01*
X417000Y339362D01*
X418000D01*
X418005Y339263D01*
D02*
G37*
G36*
X440684Y350000D02*
Y314000D01*
Y298500D01*
X440746Y298188D01*
X440923Y297923D01*
X441188Y297746D01*
X441500Y297684D01*
Y283664D01*
X437049D01*
X436326Y284388D01*
Y314000D01*
Y346328D01*
X436225Y346836D01*
X435937Y347266D01*
X432766Y350437D01*
X432336Y350725D01*
X431828Y350826D01*
X423672D01*
X423164Y350725D01*
X422734Y350437D01*
X419563Y347266D01*
X419275Y346836D01*
X419174Y346328D01*
Y342911D01*
X416563Y340300D01*
X416275Y339869D01*
X416234Y339662D01*
X414771D01*
Y334401D01*
X420229D01*
Y339662D01*
X420229Y339662D01*
X420229D01*
X420124Y340112D01*
X421154Y341142D01*
X421500Y341382D01*
X421845Y341142D01*
X422875Y340113D01*
X422771Y339662D01*
X422771D01*
X422771Y339662D01*
Y334401D01*
X428229D01*
Y339662D01*
X426766D01*
X426725Y339869D01*
X426437Y340300D01*
X423826Y342911D01*
Y344951D01*
X425049Y346175D01*
X430451D01*
X431674Y344951D01*
Y314000D01*
Y283010D01*
X431775Y282503D01*
X432063Y282073D01*
X434734Y279401D01*
X435164Y279114D01*
X435672Y279013D01*
X441500D01*
Y263000D01*
X441684Y262816D01*
Y259000D01*
Y209500D01*
X441541Y209326D01*
X384326D01*
Y287000D01*
Y358675D01*
X440684D01*
Y350000D01*
D02*
G37*
G36*
X485000Y358500D02*
Y285000D01*
X449500D01*
X449000Y285500D01*
Y289500D01*
Y297000D01*
X447500Y298500D01*
X441500D01*
Y350000D01*
Y358675D01*
X485000D01*
Y358500D01*
D02*
G37*
G36*
X445641Y285093D02*
X445556Y285062D01*
X445481Y285012D01*
X445416Y284941D01*
X445361Y284850D01*
X445316Y284738D01*
X445281Y284607D01*
X445256Y284455D01*
X445241Y284283D01*
X445236Y284091D01*
X444236D01*
X444231Y284283D01*
X444216Y284455D01*
X444191Y284607D01*
X444156Y284738D01*
X444111Y284850D01*
X444056Y284941D01*
X443991Y285012D01*
X443916Y285062D01*
X443831Y285093D01*
X443736Y285103D01*
X445736D01*
X445641Y285093D01*
D02*
G37*
G36*
X426005Y339263D02*
X426020Y339174D01*
X426045Y339095D01*
X426080Y339027D01*
X426125Y338969D01*
X426180Y338922D01*
X426245Y338885D01*
X426320Y338859D01*
X426405Y338843D01*
X426500Y338838D01*
X424500D01*
X424595Y338843D01*
X424680Y338859D01*
X424755Y338885D01*
X424820Y338922D01*
X424875Y338969D01*
X424920Y339027D01*
X424955Y339095D01*
X424980Y339174D01*
X424995Y339263D01*
X425000Y339362D01*
X426000D01*
X426005Y339263D01*
D02*
G37*
G36*
X445241Y278394D02*
X445256Y278222D01*
X445281Y278070D01*
X445316Y277939D01*
X445361Y277827D01*
X445416Y277736D01*
X445481Y277665D01*
X445556Y277615D01*
X445641Y277585D01*
X445736Y277574D01*
X443736D01*
X443831Y277585D01*
X443916Y277615D01*
X443991Y277665D01*
X444056Y277736D01*
X444111Y277827D01*
X444156Y277939D01*
X444191Y278070D01*
X444216Y278222D01*
X444231Y278394D01*
X444236Y278586D01*
X445236D01*
X445241Y278394D01*
D02*
G37*
G36*
X485000Y209500D02*
X442500D01*
Y259000D01*
Y265500D01*
X443500Y266500D01*
X448000D01*
X449000Y267500D01*
Y277000D01*
X450000Y278000D01*
X485000D01*
Y209500D01*
D02*
G37*
%LPC*%
G36*
X421299Y297400D02*
X419068D01*
Y296213D01*
X419074Y296204D01*
X419099Y296174D01*
X419068D01*
Y296083D01*
X419468D01*
X419374Y296077D01*
X419288Y296061D01*
X419213Y296033D01*
X419148Y295995D01*
X419094Y295945D01*
X419068Y295911D01*
Y295071D01*
X421299D01*
Y297400D01*
D02*
G37*
G36*
X417869D02*
X415638D01*
Y295071D01*
X417869D01*
Y295911D01*
X417843Y295945D01*
X417789Y295995D01*
X417724Y296033D01*
X417649Y296061D01*
X417563Y296077D01*
X417469Y296083D01*
X417869D01*
Y296174D01*
X417838D01*
X417863Y296204D01*
X417869Y296213D01*
Y297400D01*
D02*
G37*
G36*
X432400Y272932D02*
X430071D01*
Y270701D01*
X432400D01*
Y272932D01*
D02*
G37*
G36*
X399632Y267929D02*
Y265600D01*
X400850D01*
Y266917D01*
X400867Y266743D01*
X400916Y266587D01*
X400999Y266449D01*
X401114Y266330D01*
X401263Y266229D01*
X401444Y266147D01*
X401659Y266083D01*
X401862Y266045D01*
Y267929D01*
X399632D01*
D02*
G37*
G36*
X417841Y306842D02*
X416653D01*
Y304671D01*
X417841D01*
Y306842D01*
D02*
G37*
G36*
X428500Y270335D02*
X426000D01*
X425298Y270196D01*
X424702Y269798D01*
X423942Y269038D01*
X423545Y268443D01*
X423447Y267953D01*
X423259D01*
Y267160D01*
X423255Y267142D01*
X423259Y267123D01*
Y262023D01*
X427221D01*
Y266665D01*
X427740D01*
X428234Y266171D01*
X428829Y265773D01*
X429531Y265633D01*
X429911D01*
X429981Y265627D01*
X430140Y265599D01*
X430250Y265567D01*
X430271Y265559D01*
Y264838D01*
X431022D01*
X431029Y264836D01*
X431141Y264828D01*
X431145Y264819D01*
X431162Y264752D01*
X431165Y264735D01*
Y264500D01*
X431304Y263798D01*
X431702Y263202D01*
X432298Y262804D01*
X433000Y262665D01*
X433702Y262804D01*
X434298Y263202D01*
X434696Y263798D01*
X434835Y264500D01*
Y264735D01*
X434838Y264752D01*
X434856Y264819D01*
X434860Y264828D01*
X434971Y264836D01*
X434978Y264838D01*
X435729D01*
Y265631D01*
X435733Y265650D01*
X435729Y265668D01*
Y265689D01*
X435731Y265704D01*
X435729Y265711D01*
Y270099D01*
X431101D01*
X431083Y270103D01*
X431064Y270099D01*
X430271D01*
Y270032D01*
X429881Y269839D01*
X429771Y269816D01*
X429202Y270196D01*
X429086Y270219D01*
X428500Y270335D01*
D02*
G37*
G36*
X399753Y278280D02*
X392247D01*
Y271271D01*
X392244Y271240D01*
X392243Y271236D01*
X392221Y271185D01*
X392174Y271099D01*
X392099Y270984D01*
X392007Y270858D01*
X391776Y270592D01*
X391310Y270127D01*
X390802Y269366D01*
X390623Y268468D01*
Y267729D01*
X390338D01*
Y266936D01*
X390334Y266917D01*
X390338Y266899D01*
Y263101D01*
X390334Y263083D01*
X390338Y263064D01*
Y262271D01*
X390623D01*
Y262032D01*
X390802Y261134D01*
X391310Y260373D01*
X393911Y257772D01*
X393809Y257205D01*
X392983Y256764D01*
X392024Y255976D01*
X391236Y255017D01*
X390651Y253923D01*
X390291Y252735D01*
X390170Y251500D01*
Y246500D01*
X390291Y245265D01*
X390651Y244077D01*
X391236Y242983D01*
X392024Y242024D01*
X392983Y241236D01*
X394077Y240651D01*
X395265Y240291D01*
X396500Y240170D01*
X397735Y240291D01*
X398923Y240651D01*
X400017Y241236D01*
X400976Y242024D01*
X401764Y242983D01*
X402349Y244077D01*
X402709Y245265D01*
X402831Y246500D01*
Y251500D01*
X402709Y252735D01*
X402349Y253923D01*
X401764Y255017D01*
X400976Y255976D01*
X400017Y256764D01*
X398978Y257319D01*
X398923Y257482D01*
X398866Y257759D01*
X398845Y257954D01*
Y258500D01*
X398845Y258500D01*
X398667Y259397D01*
X398158Y260158D01*
X398158Y260158D01*
X396708Y261609D01*
X396899Y262071D01*
X398431D01*
Y264400D01*
X396201D01*
Y263260D01*
X395701Y262993D01*
X395599Y263061D01*
Y263064D01*
X395603Y263083D01*
X395599Y263101D01*
Y266899D01*
X395603Y266917D01*
X395599Y266936D01*
Y267385D01*
X395701Y267453D01*
X396201Y267186D01*
Y265600D01*
X398431D01*
Y267929D01*
X396602D01*
X396453Y267929D01*
X396285Y268205D01*
X396251Y268429D01*
X396890Y269016D01*
X397791Y269745D01*
X398155Y270000D01*
X398469Y270189D01*
X398716Y270309D01*
X398878Y270362D01*
X399022Y270381D01*
X399753D01*
Y271175D01*
X399756Y271193D01*
X399753Y271212D01*
Y278280D01*
D02*
G37*
G36*
X422787Y306842D02*
X421600D01*
Y304071D01*
X420400D01*
Y306842D01*
X419041D01*
Y304071D01*
X418441D01*
Y303471D01*
X416653D01*
Y301429D01*
X416653Y301299D01*
X416340Y300929D01*
X415638D01*
Y298600D01*
X421299D01*
Y300799D01*
X421299Y300929D01*
X421495Y301161D01*
X421968Y301134D01*
X421901Y300729D01*
X421901D01*
Y295271D01*
X427162D01*
Y295989D01*
X427500Y296267D01*
X428163Y296399D01*
X428726Y296774D01*
X429101Y297337D01*
X429233Y298000D01*
X429101Y298663D01*
X428726Y299226D01*
X428163Y299601D01*
X427500Y299733D01*
X427162Y300010D01*
Y300729D01*
X425857D01*
Y300969D01*
X425756Y301476D01*
X425469Y301906D01*
X425146Y302228D01*
Y302293D01*
X425150Y302311D01*
X425146Y302330D01*
Y302356D01*
X425148Y302369D01*
X425146Y302375D01*
Y306643D01*
X422787D01*
Y306842D01*
D02*
G37*
G36*
X417869Y285929D02*
X415638D01*
Y284006D01*
X415719Y284009D01*
X415914Y284037D01*
X416086Y284083D01*
X416236Y284147D01*
X416362Y284229D01*
X416466Y284330D01*
X416546Y284449D01*
X416604Y284587D01*
X416638Y284743D01*
X416650Y284917D01*
Y283600D01*
X417869D01*
Y285929D01*
D02*
G37*
G36*
X421299D02*
X419068D01*
Y283600D01*
X421299D01*
Y285929D01*
D02*
G37*
G36*
X417869Y282400D02*
X416650D01*
Y281083D01*
X416638Y281257D01*
X416604Y281413D01*
X416546Y281551D01*
X416466Y281670D01*
X416362Y281771D01*
X416236Y281853D01*
X416086Y281918D01*
X415914Y281963D01*
X415719Y281991D01*
X415638Y281994D01*
Y280071D01*
X417869D01*
Y282400D01*
D02*
G37*
G36*
X431955Y276362D02*
X430071D01*
Y274131D01*
X432400D01*
Y275350D01*
X431083D01*
X431257Y275367D01*
X431413Y275416D01*
X431551Y275499D01*
X431670Y275614D01*
X431771Y275763D01*
X431853Y275944D01*
X431917Y276159D01*
X431955Y276362D01*
D02*
G37*
G36*
X427162Y293229D02*
X421901D01*
Y287771D01*
X423206D01*
Y285729D01*
X421901D01*
Y280271D01*
X423245D01*
X423307Y279961D01*
X423497Y279677D01*
X423328Y279265D01*
X423241Y279177D01*
X422100D01*
Y276012D01*
Y273858D01*
X422669D01*
X422637Y273845D01*
X422608Y273804D01*
X422583Y273736D01*
X422561Y273641D01*
X422542Y273519D01*
X422515Y273193D01*
X422508Y272847D01*
X423681D01*
Y273046D01*
X427221D01*
Y278977D01*
X426566D01*
Y279760D01*
X426563Y279771D01*
X426974Y280271D01*
X427162D01*
Y285729D01*
X425857D01*
Y287771D01*
X427162D01*
Y293229D01*
D02*
G37*
G36*
X435929Y272932D02*
X433600D01*
Y270701D01*
X435929D01*
Y272932D01*
D02*
G37*
G36*
Y276362D02*
X434045D01*
X434083Y276159D01*
X434147Y275944D01*
X434229Y275763D01*
X434330Y275614D01*
X434449Y275499D01*
X434587Y275416D01*
X434743Y275367D01*
X434917Y275350D01*
X433600D01*
Y274131D01*
X435929D01*
Y276362D01*
D02*
G37*
G36*
X421299Y282400D02*
X419068D01*
Y280071D01*
X421299D01*
Y282400D01*
D02*
G37*
G36*
X408000Y285233D02*
X407337Y285101D01*
X406774Y284726D01*
X406399Y284163D01*
X406267Y283500D01*
X406399Y282837D01*
X406774Y282274D01*
X407337Y281899D01*
X407819Y281803D01*
X407848Y281778D01*
X408674Y280951D01*
Y272000D01*
X408775Y271493D01*
X409063Y271063D01*
X410563Y269563D01*
X410993Y269275D01*
X411500Y269175D01*
X415478D01*
X415759Y269165D01*
X415780Y269130D01*
X415826Y269019D01*
X415872Y268847D01*
X415910Y268617D01*
X415925Y268453D01*
Y268159D01*
X415915Y267953D01*
X415779D01*
Y267160D01*
X415775Y267142D01*
X415779Y267123D01*
Y262853D01*
X415775Y262835D01*
X415779Y262816D01*
Y262023D01*
X415885D01*
X415925Y261445D01*
Y260740D01*
X416064Y260038D01*
X416462Y259442D01*
X417702Y258202D01*
X418298Y257804D01*
X419000Y257665D01*
X421200D01*
Y240200D01*
X433800D01*
Y257800D01*
X429509D01*
X429481Y257847D01*
X429435Y257960D01*
X429388Y258134D01*
X429350Y258366D01*
X429335Y258532D01*
Y259000D01*
X429196Y259702D01*
X428798Y260298D01*
X428298Y260798D01*
X427702Y261196D01*
X427000Y261335D01*
X419760D01*
X419595Y261500D01*
Y261818D01*
X419604Y262023D01*
X419741D01*
Y262816D01*
X419745Y262835D01*
X419741Y262853D01*
Y267123D01*
X419745Y267142D01*
X419741Y267160D01*
Y267953D01*
X419635D01*
X419595Y268531D01*
Y272842D01*
X419595Y272847D01*
X420492D01*
X420439Y273641D01*
X420417Y273736D01*
X420392Y273804D01*
X420363Y273845D01*
X420331Y273858D01*
X420900D01*
Y276012D01*
Y279177D01*
X419319D01*
Y278977D01*
X415779D01*
Y273877D01*
X415775Y273858D01*
X415779Y273840D01*
Y273046D01*
X415885D01*
X415922Y272513D01*
X415910Y272383D01*
X415872Y272153D01*
X415826Y271982D01*
X415780Y271869D01*
X415769Y271853D01*
X415356Y271826D01*
X412049D01*
X411326Y272549D01*
Y281500D01*
X411225Y282007D01*
X410937Y282437D01*
X409707Y283667D01*
X409698Y283679D01*
X409601Y284163D01*
X409226Y284726D01*
X408663Y285101D01*
X408000Y285233D01*
D02*
G37*
G36*
X418532Y248400D02*
X412600D01*
Y240028D01*
X413274Y240094D01*
X414500Y240466D01*
X415629Y241069D01*
X416618Y241882D01*
X417431Y242871D01*
X418034Y244001D01*
X418406Y245226D01*
X418532Y246500D01*
Y248400D01*
D02*
G37*
G36*
X411400D02*
X405469D01*
Y246500D01*
X405594Y245226D01*
X405966Y244001D01*
X406569Y242871D01*
X407382Y241882D01*
X408371Y241069D01*
X409501Y240466D01*
X410726Y240094D01*
X411400Y240028D01*
Y248400D01*
D02*
G37*
G36*
X428229Y333599D02*
X422771D01*
Y328338D01*
X422859D01*
X423240Y327838D01*
X423206Y327669D01*
Y326229D01*
X421901D01*
Y322905D01*
X421470Y322681D01*
X421099Y322929D01*
D01*
Y326229D01*
X419794D01*
Y327669D01*
X419761Y327838D01*
X420141Y328338D01*
X420229D01*
Y333599D01*
X414771D01*
Y328338D01*
X416234D01*
X416275Y328131D01*
X416563Y327701D01*
X417143Y327120D01*
Y326229D01*
X415838D01*
Y320771D01*
X419174D01*
Y318500D01*
X419275Y317993D01*
X419563Y317563D01*
X419954Y317171D01*
Y315975D01*
X419775Y315708D01*
X419734Y315501D01*
X416854D01*
Y314000D01*
Y311188D01*
X416850Y311170D01*
X416854Y311151D01*
Y310357D01*
X416367Y310326D01*
X414000D01*
X413493Y310225D01*
X413063Y309937D01*
X411563Y308437D01*
X411275Y308007D01*
X411174Y307500D01*
Y291500D01*
X411275Y290993D01*
X411563Y290563D01*
X412563Y289563D01*
X412993Y289275D01*
X413500Y289175D01*
X415838D01*
Y287771D01*
X421099D01*
Y293229D01*
X415838D01*
Y291826D01*
X414049D01*
X413826Y292049D01*
Y306951D01*
X414549Y307675D01*
X418000D01*
X418507Y307775D01*
X418937Y308063D01*
X419378Y308504D01*
X419665Y308934D01*
X419766Y309441D01*
Y310357D01*
X425146D01*
Y314000D01*
Y314670D01*
X425150Y314689D01*
X425146Y314707D01*
Y315501D01*
X424825D01*
X424784Y315708D01*
X424605Y315975D01*
Y318549D01*
X424504Y319056D01*
X424217Y319486D01*
X423826Y319877D01*
Y320771D01*
X427162D01*
Y326229D01*
X425857D01*
Y327120D01*
X426437Y327701D01*
X426725Y328131D01*
X426766Y328338D01*
X428229D01*
Y333599D01*
D02*
G37*
G36*
X412600Y257972D02*
Y249600D01*
X418532D01*
Y251500D01*
X418406Y252774D01*
X418034Y253999D01*
X417431Y255129D01*
X416618Y256118D01*
X415629Y256931D01*
X414500Y257534D01*
X413274Y257906D01*
X412600Y257972D01*
D02*
G37*
G36*
X411400D02*
X410726Y257906D01*
X409501Y257534D01*
X408371Y256931D01*
X407382Y256118D01*
X406569Y255129D01*
X405966Y253999D01*
X405594Y252774D01*
X405469Y251500D01*
Y249600D01*
X411400D01*
Y257972D01*
D02*
G37*
G36*
X396901Y348900D02*
X392600D01*
Y344599D01*
X393289Y344690D01*
X394490Y345187D01*
X395521Y345979D01*
X396312Y347010D01*
X396810Y348211D01*
X396901Y348900D01*
D02*
G37*
G36*
X391400Y354401D02*
X390711Y354310D01*
X389510Y353813D01*
X388479Y353021D01*
X387687Y351990D01*
X387190Y350789D01*
X387099Y350100D01*
X391400D01*
Y354401D01*
D02*
G37*
G36*
X392600D02*
Y350100D01*
X396901D01*
X396810Y350789D01*
X396312Y351990D01*
X395521Y353021D01*
X394490Y353813D01*
X393289Y354310D01*
X392600Y354401D01*
D02*
G37*
G36*
X397431Y332429D02*
X395201D01*
Y330100D01*
X397431D01*
Y332429D01*
D02*
G37*
G36*
X400862D02*
X398632D01*
Y330100D01*
X400862D01*
Y332429D01*
D02*
G37*
G36*
X391400Y348900D02*
X387099D01*
X387190Y348211D01*
X387687Y347010D01*
X388479Y345979D01*
X389510Y345187D01*
X390711Y344690D01*
X391400Y344599D01*
Y348900D01*
D02*
G37*
G36*
X391968Y335314D02*
X391071Y335135D01*
X390310Y334627D01*
X389802Y333866D01*
X389623Y332968D01*
Y332229D01*
X389338D01*
Y331468D01*
X389335Y331458D01*
X389321Y331175D01*
X389284Y330931D01*
X389222Y330683D01*
X389133Y330428D01*
X389015Y330167D01*
X388868Y329899D01*
X388689Y329624D01*
X388478Y329342D01*
X388385Y329233D01*
X387936Y328784D01*
X387428Y328023D01*
X387249Y327126D01*
Y321000D01*
X387374Y320374D01*
D01*
Y319316D01*
X386080D01*
X386002Y319300D01*
X385921D01*
X385854Y319287D01*
X385780Y319256D01*
X385768Y319254D01*
X385758Y319247D01*
X385560Y319165D01*
X385425Y319030D01*
X385335Y318940D01*
X385335Y318940D01*
X385335Y318940D01*
X385253Y318742D01*
X385246Y318732D01*
X385244Y318720D01*
X385213Y318646D01*
Y318646D01*
X385213Y318646D01*
X385200Y318579D01*
Y318498D01*
X385184Y318420D01*
Y309000D01*
Y302080D01*
X385200Y302002D01*
Y301921D01*
X385213Y301854D01*
X385244Y301780D01*
X385246Y301768D01*
X385253Y301758D01*
X385335Y301560D01*
X385470Y301425D01*
X385560Y301335D01*
X385560Y301335D01*
X385560Y301335D01*
X385758Y301253D01*
X385768Y301246D01*
X385780Y301244D01*
X385854Y301213D01*
X385854D01*
X385854Y301213D01*
X385921Y301200D01*
X386002D01*
X386080Y301184D01*
X388713D01*
Y299600D01*
X391996D01*
Y298400D01*
X388713D01*
Y295106D01*
X391778D01*
X391901Y295054D01*
X392239Y294756D01*
X392247Y294619D01*
X392247Y294619D01*
Y287000D01*
Y286720D01*
X392303D01*
X392309Y286688D01*
X392486Y286423D01*
X392751Y286246D01*
X393063Y286184D01*
X405500D01*
X405812Y286246D01*
X406077Y286423D01*
X406254Y286688D01*
X406316Y287000D01*
Y302500D01*
X406316Y302500D01*
X406254Y302812D01*
X406077Y303077D01*
X406077Y303077D01*
X405816Y303338D01*
Y314000D01*
Y316920D01*
X405798Y317009D01*
X405796Y317099D01*
X405767Y317163D01*
X405754Y317232D01*
X405703Y317307D01*
X405666Y317390D01*
X405616Y317438D01*
X405577Y317496D01*
X405501Y317547D01*
X405436Y317609D01*
X405370Y317634D01*
X405312Y317673D01*
X405223Y317691D01*
X405138Y317723D01*
X404672Y317804D01*
X404602Y317802D01*
X404533Y317816D01*
X404061D01*
X403743Y318202D01*
X403830Y318638D01*
Y320400D01*
X401405D01*
Y321000D01*
X400806D01*
Y325667D01*
X400478Y325602D01*
X399816Y325160D01*
X399396Y325316D01*
D01*
D01*
X399316Y325381D01*
D01*
Y326500D01*
X399374Y326571D01*
X400862D01*
Y328900D01*
X395201D01*
Y327780D01*
X395168Y327743D01*
X395099Y327713D01*
X394599Y328040D01*
Y331399D01*
X394603Y331417D01*
X394599Y331436D01*
Y332229D01*
X394320D01*
X394314Y332319D01*
D01*
Y332968D01*
X394135Y333866D01*
X393627Y334627D01*
X392866Y335135D01*
X391968Y335314D01*
D02*
G37*
G36*
X411868Y354237D02*
X407131D01*
X404763Y351869D01*
Y347131D01*
X407131Y344763D01*
X408175D01*
Y344049D01*
X407563Y343437D01*
X407275Y343007D01*
X407174Y342500D01*
Y321589D01*
X407173Y321574D01*
X406899Y321163D01*
X406767Y320500D01*
X406899Y319837D01*
X407274Y319274D01*
X407837Y318899D01*
X408500Y318767D01*
X409163Y318899D01*
X409726Y319274D01*
X410101Y319837D01*
X410233Y320500D01*
X410101Y321163D01*
X409828Y321572D01*
X409826Y321610D01*
Y341951D01*
X410437Y342563D01*
X410725Y342993D01*
X410825Y343500D01*
Y344763D01*
X411868D01*
X414237Y347131D01*
Y351869D01*
X411868Y354237D01*
D02*
G37*
G36*
X402005Y325667D02*
Y321600D01*
X403830D01*
Y323362D01*
X403646Y324290D01*
X403120Y325077D01*
X402333Y325602D01*
X402005Y325667D01*
D02*
G37*
G36*
X400850Y264400D02*
X399632D01*
Y262071D01*
X401862D01*
Y263955D01*
X401659Y263917D01*
X401444Y263853D01*
X401263Y263771D01*
X401114Y263670D01*
X400999Y263551D01*
X400916Y263413D01*
X400867Y263257D01*
X400850Y263083D01*
Y264400D01*
D02*
G37*
%LPD*%
G36*
X431083Y265650D02*
X434917D01*
X434743Y265638D01*
X434587Y265604D01*
X434449Y265546D01*
X434330Y265466D01*
X434229Y265362D01*
X434147Y265236D01*
X434083Y265086D01*
X434037Y264914D01*
X434009Y264719D01*
X434000Y264500D01*
X432000D01*
X431991Y264719D01*
X431963Y264914D01*
X431917Y265086D01*
X431853Y265236D01*
X431771Y265362D01*
X431670Y265466D01*
X431551Y265546D01*
X431413Y265604D01*
X431257Y265638D01*
X431083Y265650D01*
X431067Y265805D01*
X431021Y265945D01*
X430943Y266067D01*
X430835Y266174D01*
X430695Y266264D01*
X430524Y266337D01*
X430323Y266395D01*
X430090Y266436D01*
X429826Y266460D01*
X429531Y266469D01*
Y268468D01*
X429826Y268477D01*
X430090Y268501D01*
X430323Y268542D01*
X430524Y268600D01*
X430695Y268673D01*
X430835Y268763D01*
X430943Y268870D01*
X431021Y268992D01*
X431067Y269132D01*
X431083Y269287D01*
Y265650D01*
D02*
G37*
G36*
X394727Y263072D02*
X394672Y263041D01*
X394625Y262988D01*
X394583Y262915D01*
X394548Y262820D01*
X394519Y262704D01*
X394497Y262568D01*
X394481Y262410D01*
X394468Y262032D01*
X391469D01*
X391465Y262231D01*
X391440Y262568D01*
X391418Y262704D01*
X391389Y262820D01*
X391354Y262915D01*
X391312Y262988D01*
X391265Y263041D01*
X391210Y263072D01*
X391150Y263083D01*
X394787D01*
X394727Y263072D01*
D02*
G37*
G36*
X418897Y262815D02*
X418868Y262755D01*
X418843Y262655D01*
X418821Y262515D01*
X418802Y262335D01*
X418767Y261555D01*
X418760Y260835D01*
X416760D01*
X416758Y261215D01*
X416652Y262755D01*
X416623Y262815D01*
X416591Y262835D01*
X418929D01*
X418897Y262815D01*
D02*
G37*
G36*
X428510Y258606D02*
X428540Y258264D01*
X428590Y257962D01*
X428660Y257700D01*
X428750Y257479D01*
X428860Y257298D01*
X428990Y257157D01*
X429140Y257056D01*
X429310Y256996D01*
X429500Y256976D01*
X425500D01*
X425690Y256996D01*
X425860Y257056D01*
X426010Y257157D01*
X426140Y257298D01*
X426250Y257479D01*
X426340Y257700D01*
X426410Y257962D01*
X426460Y258264D01*
X426490Y258606D01*
X426500Y258988D01*
X428500D01*
X428510Y258606D01*
D02*
G37*
G36*
X398015Y258042D02*
X398060Y257632D01*
X398134Y257270D01*
X398239Y256956D01*
X398373Y256691D01*
X398538Y256474D01*
X398732Y256305D01*
X398956Y256184D01*
X399210Y256112D01*
X399494Y256088D01*
X393506D01*
X393790Y256112D01*
X394044Y256184D01*
X394268Y256305D01*
X394462Y256474D01*
X394627Y256691D01*
X394761Y256956D01*
X394866Y257270D01*
X394940Y257632D01*
X394985Y258042D01*
X395000Y258500D01*
X398000D01*
X398015Y258042D01*
D02*
G37*
G36*
X398695Y271161D02*
X398408Y271066D01*
X398080Y270907D01*
X397711Y270684D01*
X397301Y270398D01*
X396357Y269634D01*
X395248Y268616D01*
X394633Y268011D01*
X394477Y268098D01*
X394519Y267476D01*
X394548Y267305D01*
X394583Y267165D01*
X394625Y267057D01*
X394672Y266979D01*
X394727Y266933D01*
X394787Y266917D01*
X391150D01*
X391210Y266933D01*
X391265Y266979D01*
X391312Y267057D01*
X391354Y267165D01*
X391389Y267305D01*
X391418Y267476D01*
X391440Y267677D01*
X391465Y268174D01*
X391469Y268468D01*
X393811D01*
X391908Y269529D01*
X392127Y269753D01*
X392645Y270348D01*
X392771Y270521D01*
X392875Y270681D01*
X392956Y270828D01*
X393013Y270963D01*
X393048Y271084D01*
X393059Y271193D01*
X398941D01*
X398695Y271161D01*
D02*
G37*
G36*
X418897Y273838D02*
X418868Y273779D01*
X418843Y273678D01*
X418821Y273538D01*
X418802Y273358D01*
X418767Y272579D01*
X418760Y271859D01*
X417673D01*
X418760Y270500D01*
X417673Y269142D01*
X418760D01*
X418761Y268761D01*
X418868Y267221D01*
X418897Y267161D01*
X418929Y267142D01*
X416591D01*
X416623Y267161D01*
X416652Y267221D01*
X416677Y267321D01*
X416699Y267461D01*
X416718Y267642D01*
X416750Y268361D01*
X416750Y268380D01*
X416720Y268720D01*
X416670Y269020D01*
X416600Y269280D01*
X416510Y269500D01*
X416400Y269680D01*
X416270Y269820D01*
X416120Y269920D01*
X415967Y269974D01*
X415267Y269998D01*
X414894Y270000D01*
Y271000D01*
X415267Y271002D01*
X416045Y271054D01*
X416120Y271080D01*
X416270Y271180D01*
X416400Y271320D01*
X416510Y271500D01*
X416600Y271720D01*
X416670Y271980D01*
X416720Y272280D01*
X416740Y272505D01*
X416652Y273779D01*
X416623Y273838D01*
X416591Y273858D01*
X418929D01*
X418897Y273838D01*
D02*
G37*
G36*
X426242Y267626D02*
X426255Y267435D01*
X426267Y267357D01*
X426282Y267291D01*
X426301Y267237D01*
X426323Y267195D01*
X426348Y267165D01*
X426377Y267147D01*
X426409Y267142D01*
X424071D01*
X424103Y267147D01*
X424132Y267165D01*
X424157Y267195D01*
X424179Y267237D01*
X424198Y267291D01*
X424213Y267357D01*
X424225Y267435D01*
X424233Y267525D01*
X424240Y267740D01*
X426240D01*
X426242Y267626D01*
D02*
G37*
G36*
X409001Y321689D02*
X409021Y321436D01*
X409032Y321368D01*
X409047Y321307D01*
X409064Y321254D01*
X409083Y321209D01*
X409105Y321172D01*
X409130Y321143D01*
X407870D01*
X407895Y321172D01*
X407917Y321209D01*
X407936Y321254D01*
X407953Y321307D01*
X407968Y321368D01*
X407979Y321436D01*
X407995Y321597D01*
X407999Y321689D01*
X408000Y321788D01*
X409000D01*
X409001Y321689D01*
D02*
G37*
G36*
X424029Y321595D02*
X423959Y321657D01*
X423878Y321695D01*
X423787Y321708D01*
X423686Y321697D01*
X423573Y321661D01*
X423451Y321601D01*
X423317Y321516D01*
X423173Y321407D01*
X423019Y321273D01*
X422854Y321115D01*
X422147Y321822D01*
X422315Y321997D01*
X422577Y322315D01*
X422672Y322459D01*
X422742Y322591D01*
X422787Y322713D01*
X422809Y322825D01*
X422805Y322925D01*
X422777Y323016D01*
X422725Y323095D01*
X424029Y321595D01*
D02*
G37*
G36*
X418973Y326225D02*
X418989Y326053D01*
X419014Y325901D01*
X419049Y325769D01*
X419094Y325658D01*
X419148Y325567D01*
X419213Y325496D01*
X419288Y325446D01*
X419374Y325415D01*
X419468Y325405D01*
X417469D01*
X417563Y325415D01*
X417649Y325446D01*
X417724Y325496D01*
X417789Y325567D01*
X417843Y325658D01*
X417888Y325769D01*
X417923Y325901D01*
X417948Y326053D01*
X417964Y326225D01*
X417969Y326417D01*
X418968D01*
X418973Y326225D01*
D02*
G37*
G36*
X424062Y315104D02*
X424070Y315017D01*
X424084Y314940D01*
X424103Y314873D01*
X424128Y314817D01*
X424158Y314771D01*
X424194Y314735D01*
X424235Y314709D01*
X424282Y314694D01*
X424334Y314689D01*
X422784D01*
X422836Y314694D01*
X422883Y314709D01*
X422924Y314735D01*
X422960Y314771D01*
X422990Y314817D01*
X423015Y314873D01*
X423034Y314940D01*
X423048Y315017D01*
X423056Y315104D01*
X423059Y315201D01*
X424059D01*
X424062Y315104D01*
D02*
G37*
G36*
X398500Y325346D02*
Y319000D01*
X399265Y318235D01*
X399354Y317788D01*
X399835Y317068D01*
X400556Y316586D01*
X401405Y316417D01*
X402255Y316586D01*
X402875Y317000D01*
X404533D01*
X405000Y316920D01*
Y314000D01*
Y303000D01*
X405500Y302500D01*
Y287000D01*
X393063D01*
Y294619D01*
X393058Y294644D01*
X393061Y294670D01*
X393053Y294806D01*
X393459Y295291D01*
X393509Y295306D01*
X395079D01*
Y302694D01*
X388913D01*
Y302000D01*
X386080D01*
X386013Y302013D01*
X386000Y302080D01*
Y309000D01*
Y318420D01*
X386013Y318487D01*
X386080Y318500D01*
X387401D01*
X387543Y317788D01*
X388024Y317068D01*
X388745Y316586D01*
X389595Y316417D01*
X390444Y316586D01*
X391165Y317068D01*
X391646Y317788D01*
X391815Y318638D01*
Y320374D01*
X391940Y321000D01*
Y326095D01*
X392036Y326166D01*
X392296Y326332D01*
X392552Y326469D01*
X392625Y326500D01*
X398500D01*
Y325346D01*
D02*
G37*
G36*
X420223Y323016D02*
X420195Y322925D01*
X420191Y322825D01*
X420213Y322713D01*
X420258Y322591D01*
X420328Y322459D01*
X420423Y322315D01*
X420542Y322162D01*
X420685Y321997D01*
X420854Y321822D01*
X420147Y321115D01*
X419981Y321273D01*
X419683Y321516D01*
X419550Y321601D01*
X419427Y321661D01*
X419314Y321697D01*
X419213Y321708D01*
X419122Y321695D01*
X419041Y321657D01*
X418971Y321595D01*
X420275Y323095D01*
X420223Y323016D01*
D02*
G37*
G36*
X426405Y329157D02*
X426320Y329141D01*
X426245Y329115D01*
X426180Y329078D01*
X426125Y329031D01*
X426080Y328973D01*
X426045Y328905D01*
X426020Y328826D01*
X426005Y328737D01*
X426000Y328638D01*
X425000D01*
X424995Y328737D01*
X424980Y328826D01*
X424955Y328905D01*
X424920Y328973D01*
X424875Y329031D01*
X424820Y329078D01*
X424755Y329115D01*
X424680Y329141D01*
X424595Y329157D01*
X424500Y329162D01*
X426500D01*
X426405Y329157D01*
D02*
G37*
G36*
X393472Y332674D02*
X393519Y331976D01*
X393548Y331805D01*
X393583Y331665D01*
X393625Y331557D01*
X393672Y331479D01*
X393727Y331433D01*
X393787Y331417D01*
X390150D01*
X390210Y331433D01*
X390265Y331479D01*
X390312Y331557D01*
X390354Y331665D01*
X390389Y331805D01*
X390418Y331976D01*
X390440Y332177D01*
X390465Y332674D01*
X390469Y332968D01*
X393468D01*
X393472Y332674D01*
D02*
G37*
G36*
X410405Y345577D02*
X410320Y345547D01*
X410245Y345496D01*
X410180Y345425D01*
X410125Y345334D01*
X410080Y345223D01*
X410045Y345091D01*
X410020Y344939D01*
X410005Y344767D01*
X410000Y344575D01*
X409000D01*
X408995Y344767D01*
X408980Y344939D01*
X408955Y345091D01*
X408920Y345223D01*
X408875Y345334D01*
X408820Y345425D01*
X408755Y345496D01*
X408680Y345547D01*
X408595Y345577D01*
X408500Y345587D01*
X410500D01*
X410405Y345577D01*
D02*
G37*
G36*
X425036Y326225D02*
X425051Y326053D01*
X425076Y325901D01*
X425111Y325769D01*
X425156Y325658D01*
X425211Y325567D01*
X425277Y325496D01*
X425351Y325446D01*
X425436Y325415D01*
X425531Y325405D01*
X423531D01*
X423627Y325415D01*
X423711Y325446D01*
X423786Y325496D01*
X423851Y325567D01*
X423907Y325658D01*
X423951Y325769D01*
X423986Y325901D01*
X424012Y326053D01*
X424026Y326225D01*
X424031Y326417D01*
X425032D01*
X425036Y326225D01*
D02*
G37*
G36*
X393787Y327583D02*
X393465Y327568D01*
X393145Y327522D01*
X392827Y327446D01*
X392511Y327340D01*
X392197Y327203D01*
X391885Y327037D01*
X391574Y326839D01*
X391266Y326612D01*
X390960Y326354D01*
X390655Y326065D01*
X388534Y328187D01*
X388841Y328510D01*
X389116Y328833D01*
X389358Y329156D01*
X389568Y329479D01*
X389746Y329802D01*
X389891Y330125D01*
X390004Y330448D01*
X390085Y330771D01*
X390134Y331094D01*
X390150Y331417D01*
X393787Y327583D01*
D02*
G37*
G36*
X418405Y329157D02*
X418320Y329141D01*
X418245Y329115D01*
X418180Y329078D01*
X418125Y329031D01*
X418080Y328973D01*
X418045Y328905D01*
X418020Y328826D01*
X418005Y328737D01*
X418000Y328638D01*
X417000D01*
X416995Y328737D01*
X416980Y328826D01*
X416955Y328905D01*
X416920Y328973D01*
X416875Y329031D01*
X416820Y329078D01*
X416755Y329115D01*
X416680Y329141D01*
X416595Y329157D01*
X416500Y329162D01*
X418500D01*
X418405Y329157D01*
D02*
G37*
G36*
X421503Y315104D02*
X421511Y315017D01*
X421525Y314940D01*
X421544Y314873D01*
X421569Y314817D01*
X421599Y314771D01*
X421635Y314735D01*
X421676Y314709D01*
X421723Y314694D01*
X421775Y314689D01*
X420225D01*
X420277Y314694D01*
X420324Y314709D01*
X420365Y314735D01*
X420401Y314771D01*
X420431Y314817D01*
X420456Y314873D01*
X420475Y314940D01*
X420489Y315017D01*
X420497Y315104D01*
X420500Y315201D01*
X421500D01*
X421503Y315104D01*
D02*
G37*
G36*
X425036Y285725D02*
X425051Y285553D01*
X425076Y285401D01*
X425111Y285269D01*
X425156Y285158D01*
X425211Y285067D01*
X425277Y284996D01*
X425351Y284946D01*
X425436Y284915D01*
X425531Y284905D01*
X423531D01*
X423627Y284915D01*
X423711Y284946D01*
X423786Y284996D01*
X423851Y285067D01*
X423907Y285158D01*
X423951Y285269D01*
X423986Y285401D01*
X424012Y285553D01*
X424026Y285725D01*
X424031Y285917D01*
X425032D01*
X425036Y285725D01*
D02*
G37*
G36*
X425436Y288573D02*
X425351Y288543D01*
X425277Y288493D01*
X425211Y288423D01*
X425156Y288333D01*
X425111Y288223D01*
X425076Y288093D01*
X425051Y287943D01*
X425036Y287773D01*
X425032Y287583D01*
X424031D01*
X424026Y287773D01*
X424012Y287943D01*
X423986Y288093D01*
X423951Y288223D01*
X423907Y288333D01*
X423851Y288423D01*
X423786Y288493D01*
X423711Y288543D01*
X423627Y288573D01*
X423531Y288583D01*
X425531D01*
X425436Y288573D01*
D02*
G37*
G36*
X416662Y289500D02*
X416652Y289595D01*
X416621Y289680D01*
X416571Y289755D01*
X416500Y289820D01*
X416409Y289875D01*
X416297Y289920D01*
X416166Y289955D01*
X416014Y289980D01*
X415842Y289995D01*
X415650Y290000D01*
Y291000D01*
X415842Y291005D01*
X416014Y291020D01*
X416166Y291045D01*
X416297Y291080D01*
X416409Y291125D01*
X416500Y291180D01*
X416571Y291245D01*
X416621Y291320D01*
X416652Y291405D01*
X416662Y291500D01*
Y289500D01*
D02*
G37*
G36*
X425745Y278973D02*
X425760Y278801D01*
X425785Y278649D01*
X425820Y278518D01*
X425865Y278406D01*
X425920Y278315D01*
X425985Y278244D01*
X426060Y278194D01*
X426145Y278163D01*
X426240Y278153D01*
X424240D01*
X424335Y278163D01*
X424420Y278194D01*
X424495Y278244D01*
X424560Y278315D01*
X424615Y278406D01*
X424660Y278518D01*
X424695Y278649D01*
X424720Y278801D01*
X424735Y278973D01*
X424740Y279165D01*
X425740D01*
X425745Y278973D01*
D02*
G37*
G36*
X425436Y281077D02*
X425351Y281058D01*
X425277Y281028D01*
X425211Y280985D01*
X425156Y280929D01*
X425111Y280862D01*
X425076Y280782D01*
X425051Y280690D01*
X425036Y280585D01*
X425032Y280469D01*
X424031D01*
X424026Y280585D01*
X424012Y280690D01*
X423986Y280782D01*
X423951Y280862D01*
X423907Y280929D01*
X423851Y280985D01*
X423786Y281028D01*
X423711Y281058D01*
X423627Y281077D01*
X423531Y281083D01*
X425531D01*
X425436Y281077D01*
D02*
G37*
G36*
X408903Y283453D02*
X408914Y283411D01*
X408932Y283365D01*
X408957Y283316D01*
X408990Y283263D01*
X409030Y283206D01*
X409133Y283082D01*
X409195Y283014D01*
X409265Y282943D01*
X408557Y282236D01*
X408486Y282305D01*
X408294Y282470D01*
X408237Y282510D01*
X408184Y282543D01*
X408135Y282568D01*
X408089Y282586D01*
X408047Y282597D01*
X408009Y282600D01*
X408900Y283491D01*
X408903Y283453D01*
D02*
G37*
G36*
X421723Y302303D02*
X421676Y302279D01*
X421635Y302238D01*
X421599Y302181D01*
X421569Y302108D01*
X421544Y302019D01*
X421525Y301914D01*
X421511Y301792D01*
X421503Y301654D01*
X421500Y301500D01*
X420500D01*
X420497Y301654D01*
X420475Y301914D01*
X420456Y302019D01*
X420431Y302108D01*
X420401Y302181D01*
X420365Y302238D01*
X420324Y302279D01*
X420277Y302303D01*
X420225Y302311D01*
X421775D01*
X421723Y302303D01*
D02*
G37*
G36*
X424282Y302308D02*
X424235Y302296D01*
X424194Y302278D01*
X424158Y302252D01*
X424128Y302219D01*
X424103Y302178D01*
X424084Y302130D01*
X424070Y302074D01*
X424062Y302011D01*
X424059Y301941D01*
X423059D01*
X423056Y302011D01*
X423048Y302074D01*
X423034Y302130D01*
X423015Y302178D01*
X422990Y302219D01*
X422960Y302252D01*
X422924Y302278D01*
X422883Y302296D01*
X422836Y302308D01*
X422784Y302311D01*
X424334D01*
X424282Y302308D01*
D02*
G37*
G36*
X419164Y311159D02*
X419117Y311129D01*
X419076Y311080D01*
X419040Y311010D01*
X419010Y310919D01*
X418985Y310809D01*
X418966Y310680D01*
X418952Y310529D01*
X418941Y310170D01*
X417941D01*
X417938Y310360D01*
X417916Y310680D01*
X417897Y310809D01*
X417872Y310919D01*
X417842Y311010D01*
X417806Y311080D01*
X417765Y311129D01*
X417718Y311159D01*
X417665Y311170D01*
X419216D01*
X419164Y311159D01*
D02*
G37*
G36*
X426348Y298905D02*
X426379Y298820D01*
X426429Y298745D01*
X426500Y298680D01*
X426591Y298625D01*
X426702Y298580D01*
X426753Y298567D01*
X426791Y298583D01*
X426828Y298605D01*
X426857Y298630D01*
Y298541D01*
X426986Y298520D01*
X427158Y298505D01*
X427350Y298500D01*
Y297500D01*
X427158Y297495D01*
X426986Y297480D01*
X426857Y297459D01*
Y297370D01*
X426828Y297395D01*
X426791Y297417D01*
X426753Y297433D01*
X426702Y297420D01*
X426591Y297375D01*
X426500Y297320D01*
X426429Y297255D01*
X426379Y297180D01*
X426348Y297095D01*
X426338Y297000D01*
Y297498D01*
X426311Y297499D01*
X426212Y297500D01*
Y298500D01*
X426311Y298501D01*
X426338Y298503D01*
Y299000D01*
X426348Y298905D01*
D02*
G37*
G36*
X418951Y302311D02*
X419216D01*
X419164Y302301D01*
X419117Y302271D01*
X419076Y302221D01*
X419040Y302151D01*
X419010Y302061D01*
X419009Y302057D01*
X419031Y301990D01*
X419101Y301860D01*
X419191Y301750D01*
X419301Y301660D01*
X419431Y301590D01*
X419581Y301540D01*
X419751Y301510D01*
X419941Y301500D01*
Y300500D01*
X419751Y300490D01*
X419581Y300460D01*
X419431Y300410D01*
X419301Y300340D01*
X419191Y300250D01*
X419101Y300140D01*
X419090Y300119D01*
X419121Y300067D01*
X419186Y299996D01*
X419261Y299946D01*
X419346Y299915D01*
X419441Y299905D01*
X418996D01*
X418981Y299860D01*
X418951Y299690D01*
X418941Y299500D01*
X418671Y299905D01*
X417441D01*
X417536Y299915D01*
X417621Y299946D01*
X417696Y299996D01*
X417761Y300067D01*
X417816Y300158D01*
X417861Y300270D01*
X417896Y300401D01*
X417921Y300553D01*
X417936Y300725D01*
X417941Y300917D01*
X417996D01*
X417941Y301000D01*
X418148Y301311D01*
X417941D01*
X417938Y301501D01*
X417916Y301821D01*
X417897Y301951D01*
X417872Y302061D01*
X417842Y302151D01*
X417806Y302221D01*
X417765Y302271D01*
X417718Y302301D01*
X417665Y302311D01*
X418815D01*
X418941Y302500D01*
X418951Y302311D01*
D02*
G37*
G36*
X425036Y300725D02*
X425051Y300553D01*
X425076Y300401D01*
X425111Y300270D01*
X425156Y300158D01*
X425211Y300067D01*
X425277Y299996D01*
X425351Y299946D01*
X425436Y299915D01*
X425531Y299905D01*
X423531D01*
X423627Y299915D01*
X423711Y299946D01*
X423786Y299996D01*
X423851Y300067D01*
X423907Y300158D01*
X423951Y300270D01*
X423986Y300401D01*
X424012Y300553D01*
X424026Y300725D01*
X424031Y300917D01*
X425032D01*
X425036Y300725D01*
D02*
G37*
D10*
X425240Y264988D02*
D03*
X417760D02*
D03*
Y276012D02*
D03*
X421500D02*
D03*
X425240D02*
D03*
D11*
X444736Y272677D02*
D03*
Y290000D02*
D03*
D12*
X459500D02*
D03*
Y272677D02*
D03*
D13*
X433000Y267469D02*
D03*
Y273532D02*
D03*
X425500Y330968D02*
D03*
Y337032D02*
D03*
X417500Y330968D02*
D03*
Y337032D02*
D03*
D14*
X418469Y290500D02*
D03*
X424532D02*
D03*
X418469Y283000D02*
D03*
X424532D02*
D03*
X418469Y298000D02*
D03*
X424532D02*
D03*
X398031Y329500D02*
D03*
X391968D02*
D03*
X399031Y265000D02*
D03*
X392969D02*
D03*
X418469Y323500D02*
D03*
X424532D02*
D03*
D15*
X395500Y311157D02*
D03*
D16*
Y320606D02*
D03*
D17*
X389595Y321000D02*
D03*
X401405D02*
D03*
D18*
X391996Y299000D02*
D03*
X399004D02*
D03*
D19*
X396000Y290669D02*
D03*
Y274331D02*
D03*
D20*
X421000Y312929D02*
D03*
X423559D02*
D03*
X418441Y304071D02*
D03*
X421000D02*
D03*
X423559D02*
D03*
X418441Y312929D02*
D03*
D21*
X408500Y342500D02*
X409500Y343500D01*
Y349500D01*
X408500Y320500D02*
Y342500D01*
X408000Y283500D02*
X410000Y281500D01*
Y272000D02*
Y281500D01*
Y272000D02*
X411500Y270500D01*
X417760D01*
X418441Y309441D02*
Y312929D01*
X418000Y309000D02*
X418441Y309441D01*
X414000Y309000D02*
X418000D01*
X412500Y307500D02*
X414000Y309000D01*
X412500Y291500D02*
Y307500D01*
Y291500D02*
X413500Y290500D01*
X418469D01*
X424532Y280469D02*
X425240Y279760D01*
X424532Y280469D02*
Y283000D01*
X424532Y283000D01*
Y290500D01*
X418469Y295532D02*
Y298000D01*
X425240Y276012D02*
Y279760D01*
X423559Y301941D02*
X424532Y300969D01*
X423559Y301941D02*
Y304071D01*
X424532Y298000D02*
Y300969D01*
Y298000D02*
X427500D01*
X418441Y301000D02*
Y304071D01*
Y298028D02*
Y301000D01*
X420500D01*
X421000Y301500D01*
Y304071D01*
X435000Y283839D02*
Y346328D01*
X433000Y283010D02*
Y345500D01*
X420500Y346328D02*
X423672Y349500D01*
X420500Y342362D02*
Y346328D01*
X417500Y339362D02*
X420500Y342362D01*
X417500Y337032D02*
Y339362D01*
X444736Y283075D02*
Y290000D01*
X444000Y282339D02*
X444736Y283075D01*
X436500Y282339D02*
X444000D01*
X435000Y283839D02*
X436500Y282339D01*
X422500Y345500D02*
X424500Y347500D01*
X422500Y342362D02*
Y345500D01*
X425500Y337032D02*
Y339362D01*
X422500Y342362D02*
X425500Y339362D01*
X433000Y283010D02*
X435672Y280339D01*
X444000D01*
X444736Y272677D02*
Y279602D01*
X444000Y280339D02*
X444736Y279602D01*
X423672Y349500D02*
X431828D01*
X424500Y347500D02*
X431000D01*
X431828Y349500D02*
X435000Y346328D01*
X431000Y347500D02*
X433000Y345500D01*
X422500Y319135D02*
Y321468D01*
X425500Y328638D02*
Y330968D01*
X424532Y327669D02*
X425500Y328638D01*
X424532Y323500D02*
Y327669D01*
X422500Y321468D02*
X424532Y323500D01*
X420500Y318500D02*
Y321468D01*
X418469Y323500D02*
Y327669D01*
X417500Y328638D02*
X418469Y327669D01*
X417500Y328638D02*
Y330968D01*
X418469Y323500D02*
X420500Y321468D01*
X422694Y319135D02*
X423279Y318549D01*
Y315480D02*
Y318549D01*
X420500Y318500D02*
X421279Y317721D01*
X423279Y315480D02*
X423559Y315201D01*
Y312929D02*
Y315201D01*
X421279Y315480D02*
Y317721D01*
X421000Y315201D02*
X421279Y315480D01*
X421000Y312929D02*
Y315201D01*
D22*
X417760Y270500D02*
Y276012D01*
Y264988D02*
Y270500D01*
X399031Y265000D02*
X402500D01*
X415500Y283000D02*
X418469D01*
X433000Y273532D02*
Y277000D01*
X421500Y272500D02*
Y276012D01*
X433000Y264500D02*
Y267469D01*
X425240Y267740D02*
X426000Y268500D01*
X425240Y264988D02*
Y267740D01*
X426000Y268500D02*
X428500D01*
X429531Y267469D01*
X433000D01*
X427000Y259500D02*
X427500Y259000D01*
Y249000D02*
Y259000D01*
X419000Y259500D02*
X427000D01*
X417760Y260740D02*
X419000Y259500D01*
X417760Y260740D02*
Y264988D01*
D23*
X391968Y329500D02*
Y332968D01*
X389595Y327126D02*
X391968Y329500D01*
X389595Y321000D02*
Y327126D01*
X392969Y262032D02*
X396500Y258500D01*
Y249000D02*
Y258500D01*
X392969Y262032D02*
Y265000D01*
Y268468D01*
X396000Y271500D01*
Y274331D01*
D24*
X392000Y349500D02*
D03*
D25*
X409500D02*
D03*
D26*
X500658Y324327D02*
D03*
X520342D02*
D03*
Y352673D02*
D03*
X500658D02*
D03*
X451158Y323827D02*
D03*
X470843D02*
D03*
Y352173D02*
D03*
X451158D02*
D03*
Y215827D02*
D03*
X470843D02*
D03*
Y244173D02*
D03*
X451158D02*
D03*
X500658Y215827D02*
D03*
X520342D02*
D03*
Y244173D02*
D03*
X500658D02*
D03*
D27*
X427500Y249000D02*
D03*
D28*
X412000D02*
D03*
X396500D02*
D03*
D29*
X518500Y282000D02*
D03*
Y284000D02*
D03*
Y286000D02*
D03*
X516500D02*
D03*
Y284000D02*
D03*
Y282000D02*
D03*
X514500D02*
D03*
Y284000D02*
D03*
Y286000D02*
D03*
X512500D02*
D03*
Y284000D02*
D03*
Y282000D02*
D03*
X510500D02*
D03*
Y284000D02*
D03*
Y286000D02*
D03*
X508500D02*
D03*
Y284000D02*
D03*
Y282000D02*
D03*
X506500D02*
D03*
Y284000D02*
D03*
Y286000D02*
D03*
X504500D02*
D03*
Y284000D02*
D03*
Y282000D02*
D03*
X502500D02*
D03*
Y284000D02*
D03*
Y286000D02*
D03*
X500500D02*
D03*
Y284000D02*
D03*
Y282000D02*
D03*
X498500D02*
D03*
Y284000D02*
D03*
Y286000D02*
D03*
X491000Y294500D02*
D03*
X493000D02*
D03*
X495000D02*
D03*
X493000Y280500D02*
D03*
X495000Y278500D02*
D03*
Y280500D02*
D03*
X493000Y278500D02*
D03*
X491000D02*
D03*
Y280500D02*
D03*
Y292500D02*
D03*
X493000D02*
D03*
X495000D02*
D03*
Y290500D02*
D03*
X493000D02*
D03*
X491000D02*
D03*
Y288500D02*
D03*
X493000D02*
D03*
X495000D02*
D03*
X491000Y282500D02*
D03*
X493000D02*
D03*
X491000Y284500D02*
D03*
X493000D02*
D03*
X491000Y286500D02*
D03*
X493000D02*
D03*
X495000D02*
D03*
Y284500D02*
D03*
Y282500D02*
D03*
X404000Y327500D02*
D03*
Y329500D02*
D03*
X402000Y327500D02*
D03*
X408500Y320500D02*
D03*
X408000Y283500D02*
D03*
X402500Y265000D02*
D03*
X415500Y283000D02*
D03*
X418469Y295532D02*
D03*
X421500Y272500D02*
D03*
X433000Y277000D02*
D03*
Y264500D02*
D03*
X427500Y298000D02*
D03*
X402000Y329500D02*
D03*
X390500Y292500D02*
D03*
X388500Y294500D02*
D03*
X390500D02*
D03*
X388500Y292500D02*
D03*
X391968Y332968D02*
D03*
X477000Y296000D02*
D03*
Y294000D02*
D03*
Y292000D02*
D03*
Y290000D02*
D03*
Y288000D02*
D03*
Y286000D02*
D03*
X475000Y296000D02*
D03*
X473000D02*
D03*
X471000D02*
D03*
X469000D02*
D03*
X465000D02*
D03*
X467000D02*
D03*
X463000D02*
D03*
X461000D02*
D03*
X459000D02*
D03*
X457000D02*
D03*
X455000D02*
D03*
X453000D02*
D03*
X451000D02*
D03*
Y294000D02*
D03*
X453000D02*
D03*
X455000D02*
D03*
X457000D02*
D03*
X459000D02*
D03*
X461000D02*
D03*
X463000D02*
D03*
X465000D02*
D03*
X467000D02*
D03*
X469000D02*
D03*
X471000D02*
D03*
X473000D02*
D03*
X475000D02*
D03*
Y292000D02*
D03*
X473000D02*
D03*
X471000D02*
D03*
X469000D02*
D03*
X467000D02*
D03*
X465000D02*
D03*
X463000D02*
D03*
X461000D02*
D03*
X459000D02*
D03*
X457000D02*
D03*
X455000D02*
D03*
X453000D02*
D03*
X451000D02*
D03*
X477000Y266500D02*
D03*
Y268500D02*
D03*
Y270500D02*
D03*
Y272500D02*
D03*
Y274500D02*
D03*
Y276500D02*
D03*
X461000Y290000D02*
D03*
X473000D02*
D03*
X475000D02*
D03*
X471000D02*
D03*
X469000D02*
D03*
X467000D02*
D03*
X465000D02*
D03*
X463000D02*
D03*
X459000D02*
D03*
X457000D02*
D03*
X455000D02*
D03*
X453000D02*
D03*
X451000D02*
D03*
Y288000D02*
D03*
X453000D02*
D03*
X455000D02*
D03*
X457000D02*
D03*
X459000D02*
D03*
X461000D02*
D03*
X463000D02*
D03*
X465000D02*
D03*
X467000D02*
D03*
X469000D02*
D03*
X471000D02*
D03*
X473000D02*
D03*
X475000D02*
D03*
Y286000D02*
D03*
X473000D02*
D03*
X471000D02*
D03*
X469000D02*
D03*
X467000D02*
D03*
X465000D02*
D03*
X463000D02*
D03*
X461000D02*
D03*
X459000D02*
D03*
X457000D02*
D03*
X455000D02*
D03*
X453000D02*
D03*
X451000D02*
D03*
X475000Y266500D02*
D03*
Y268500D02*
D03*
Y270500D02*
D03*
Y272500D02*
D03*
Y274500D02*
D03*
Y276500D02*
D03*
X473000Y266500D02*
D03*
Y268500D02*
D03*
Y270500D02*
D03*
Y272500D02*
D03*
Y274500D02*
D03*
Y276500D02*
D03*
X471000Y266500D02*
D03*
Y268500D02*
D03*
Y270500D02*
D03*
Y272500D02*
D03*
Y274500D02*
D03*
Y276500D02*
D03*
X469000Y266500D02*
D03*
X467000D02*
D03*
X465000D02*
D03*
X463000D02*
D03*
Y268500D02*
D03*
X461000Y266500D02*
D03*
X459000D02*
D03*
X457000D02*
D03*
X461000Y268500D02*
D03*
X459000D02*
D03*
X457000D02*
D03*
Y270500D02*
D03*
X465000Y268500D02*
D03*
X467000D02*
D03*
X469000D02*
D03*
Y270500D02*
D03*
X467000D02*
D03*
X465000D02*
D03*
X463000D02*
D03*
X461000D02*
D03*
X459000D02*
D03*
X455000D02*
D03*
Y268500D02*
D03*
Y266500D02*
D03*
X453000D02*
D03*
Y268500D02*
D03*
Y270500D02*
D03*
X451000Y266500D02*
D03*
Y268500D02*
D03*
Y270500D02*
D03*
X459000Y272500D02*
D03*
X451000D02*
D03*
X453000D02*
D03*
X455000D02*
D03*
X457000D02*
D03*
X461000D02*
D03*
X463000D02*
D03*
X465000D02*
D03*
X467000D02*
D03*
X469000D02*
D03*
Y274500D02*
D03*
X467000D02*
D03*
X465000D02*
D03*
X463000D02*
D03*
X461000D02*
D03*
X459000D02*
D03*
X457000D02*
D03*
X455000D02*
D03*
X453000D02*
D03*
X451000D02*
D03*
X469000Y276500D02*
D03*
X467000D02*
D03*
X465000D02*
D03*
X463000D02*
D03*
X461000D02*
D03*
X459000D02*
D03*
X457000D02*
D03*
X455000D02*
D03*
X453000D02*
D03*
X451000D02*
D03*
X492500Y257500D02*
D03*
X495000D02*
D03*
X497500D02*
D03*
X500000D02*
D03*
X502500D02*
D03*
X505000D02*
D03*
X507500D02*
D03*
X510000D02*
D03*
X512500D02*
D03*
X515000D02*
D03*
X517500D02*
D03*
X520000D02*
D03*
Y255000D02*
D03*
X517500D02*
D03*
X515000D02*
D03*
X512500D02*
D03*
X510000D02*
D03*
X507500D02*
D03*
X505000D02*
D03*
X502500D02*
D03*
X500000D02*
D03*
X497500D02*
D03*
X495000D02*
D03*
X492500D02*
D03*
Y252500D02*
D03*
X495000D02*
D03*
X497500D02*
D03*
X500000D02*
D03*
X502500D02*
D03*
X505000D02*
D03*
X507500D02*
D03*
X510000D02*
D03*
X512500D02*
D03*
X515000D02*
D03*
X517500D02*
D03*
X520000D02*
D03*
X499000Y306500D02*
D03*
X501500D02*
D03*
X504000D02*
D03*
X506500D02*
D03*
X509000D02*
D03*
X511500D02*
D03*
X514000D02*
D03*
X516500D02*
D03*
X519000D02*
D03*
X521500D02*
D03*
Y314000D02*
D03*
Y311500D02*
D03*
Y309000D02*
D03*
X519000D02*
D03*
Y311500D02*
D03*
Y314000D02*
D03*
X499000D02*
D03*
Y311500D02*
D03*
Y309000D02*
D03*
X501500D02*
D03*
Y311500D02*
D03*
Y314000D02*
D03*
X504000Y309000D02*
D03*
X506500D02*
D03*
X509000D02*
D03*
X511500D02*
D03*
X514000D02*
D03*
X516500D02*
D03*
Y311500D02*
D03*
X514000D02*
D03*
X511500D02*
D03*
X509000D02*
D03*
X506500D02*
D03*
X504000D02*
D03*
X516500Y314000D02*
D03*
X514000D02*
D03*
X511500D02*
D03*
X509000D02*
D03*
X506500D02*
D03*
X504000D02*
D03*
%TF.MD5,D8A6A56D00B04CB75FA563FACC0C3194*%
M02*
