G04 Layer_Color=8388736*
%FSLAX25Y25*%
%MOIN*%
%TF.FileFunction,Soldermask,Top*%
%TF.Part,Single*%
G01*
G75*
%ADD33R,0.09843X0.09843*%
%ADD34R,0.31496X0.11811*%
%ADD35R,0.31496X0.15748*%
%ADD36R,0.23622X0.31496*%
%TA.AperFunction,SMDPad*%
%ADD37R,0.03162X0.05131*%
%TA.AperFunction,SMDPad*%
%ADD38R,0.04343X0.10642*%
%TA.AperFunction,SMDPad*%
%ADD39R,0.19698X0.10642*%
%TA.AperFunction,SMDPad*%
%ADD40R,0.04658X0.04461*%
%TA.AperFunction,SMDPad*%
%ADD41R,0.04461X0.04658*%
%TA.AperFunction,SMDPad*%
%ADD42O,0.08674X0.14579*%
%TA.AperFunction,SMDPad*%
%ADD43O,0.03556X0.09068*%
%TA.AperFunction,SMDPad*%
%ADD44O,0.03556X0.08280*%
%TA.AperFunction,SMDPad*%
%ADD45R,0.05367X0.06587*%
%TA.AperFunction,SMDPad*%
%ADD46R,0.06706X0.07099*%
%TA.AperFunction,SMDPad*%
%ADD47R,0.01969X0.03937*%
%TA.AperFunction,ConnectorPad*%
%ADD48C,0.08268*%
%TA.AperFunction,ConnectorPad*%
G04:AMPARAMS|DCode=49|XSize=82.68mil|YSize=82.68mil|CornerRadius=0mil|HoleSize=0mil|Usage=FLASHONLY|Rotation=0.000|XOffset=0mil|YOffset=0mil|HoleType=Round|Shape=Octagon|*
%AMOCTAGOND49*
4,1,8,0.04134,-0.02067,0.04134,0.02067,0.02067,0.04134,-0.02067,0.04134,-0.04134,0.02067,-0.04134,-0.02067,-0.02067,-0.04134,0.02067,-0.04134,0.04134,-0.02067,0.0*
%
%ADD49OCTAGOND49*%

%TA.AperFunction,ViaPad*%
G04:AMPARAMS|DCode=50|XSize=165.48mil|YSize=126.11mil|CornerRadius=33.53mil|HoleSize=0mil|Usage=FLASHONLY|Rotation=0.000|XOffset=0mil|YOffset=0mil|HoleType=Round|Shape=RoundedRectangle|*
%AMROUNDEDRECTD50*
21,1,0.16548,0.05906,0,0,0.0*
21,1,0.09843,0.12611,0,0,0.0*
1,1,0.06706,0.04921,-0.02953*
1,1,0.06706,-0.04921,-0.02953*
1,1,0.06706,-0.04921,0.02953*
1,1,0.06706,0.04921,0.02953*
%
%ADD50ROUNDEDRECTD50*%
%TA.AperFunction,ViaPad*%
%ADD51R,0.11800X0.16800*%
%TA.AperFunction,ViaPad*%
%ADD52O,0.11800X0.16800*%
D33*
X477921Y272579D02*
D03*
Y291079D02*
D03*
D34*
X460748Y258594D02*
D03*
D35*
X460752Y307626D02*
D03*
D36*
X509311Y267248D02*
D03*
X509189Y300748D02*
D03*
D37*
X425240Y264988D02*
D03*
X417760D02*
D03*
Y276012D02*
D03*
X421500D02*
D03*
X425240D02*
D03*
D38*
X444736Y272677D02*
D03*
Y290000D02*
D03*
D39*
X459500D02*
D03*
Y272677D02*
D03*
D40*
X433000Y267469D02*
D03*
Y273532D02*
D03*
X425500Y330968D02*
D03*
Y337032D02*
D03*
X417500Y330968D02*
D03*
Y337032D02*
D03*
D41*
X418469Y290500D02*
D03*
X424532D02*
D03*
X418469Y283000D02*
D03*
X424532D02*
D03*
X418469Y298000D02*
D03*
X424532D02*
D03*
X398031Y329500D02*
D03*
X391968D02*
D03*
X399031Y265000D02*
D03*
X392969D02*
D03*
X418469Y323500D02*
D03*
X424532D02*
D03*
D42*
X395500Y311157D02*
D03*
D43*
Y320606D02*
D03*
D44*
X389595Y321000D02*
D03*
X401405D02*
D03*
D45*
X391996Y299000D02*
D03*
X399004D02*
D03*
D46*
X396000Y290669D02*
D03*
Y274331D02*
D03*
D47*
X421000Y312929D02*
D03*
X423559D02*
D03*
X418441Y304071D02*
D03*
X421000D02*
D03*
X423559D02*
D03*
X418441Y312929D02*
D03*
D48*
X392000Y349500D02*
D03*
D49*
X409500D02*
D03*
D50*
X500658Y324327D02*
D03*
X520342D02*
D03*
Y352673D02*
D03*
X500658D02*
D03*
X451158Y323827D02*
D03*
X470843D02*
D03*
Y352173D02*
D03*
X451158D02*
D03*
Y215827D02*
D03*
X470843D02*
D03*
Y244173D02*
D03*
X451158D02*
D03*
X500658Y215827D02*
D03*
X520342D02*
D03*
Y244173D02*
D03*
X500658D02*
D03*
D51*
X427500Y249000D02*
D03*
D52*
X412000D02*
D03*
X396500D02*
D03*
%TF.MD5,9D93CF305365992064846730569D9262*%
M02*
