G04 Layer_Physical_Order=1*
G04 Layer_Color=255*
%FSLAX25Y25*%
%MOIN*%
%TF.FileFunction,Copper,L1,Top,Signal*%
%TF.Part,Single*%
G01*
G75*
%TA.AperFunction,SMDPad*%
%ADD10R,0.03661X0.03858*%
%TA.AperFunction,SMDPad*%
%ADD11R,0.03858X0.03661*%
%TA.AperFunction,SMDPad*%
%ADD12R,0.02362X0.03937*%
%TA.AperFunction,SMDPad*%
%ADD13R,0.02362X0.04331*%
%TA.AperFunction,SMDPad*%
%ADD14R,0.01575X0.03543*%
%TA.AperFunction,SMDPad*%
%ADD15R,0.06496X0.09843*%
%TA.AperFunction,SMDPad*%
%ADD16R,0.06496X0.01575*%
%TA.AperFunction,SMDPad*%
%ADD17R,0.02362X0.02559*%
%TA.AperFunction,SMDPad*%
%ADD18R,0.05906X0.06299*%
%TA.AperFunction,SMDPad*%
%ADD19R,0.04567X0.05787*%
%TA.AperFunction,SMDPad*%
%ADD20O,0.02756X0.07480*%
%TA.AperFunction,SMDPad*%
%ADD21O,0.02756X0.08268*%
%TA.AperFunction,SMDPad*%
%ADD22O,0.07874X0.13780*%
%TA.AperFunction,SMDPad*%
%ADD23R,0.18898X0.09843*%
%TA.AperFunction,SMDPad*%
%ADD24R,0.03543X0.09843*%
%ADD25C,0.01000*%
%ADD26C,0.02000*%
%ADD27C,0.03000*%
%TA.AperFunction,ConnectorPad*%
%ADD28C,0.05512*%
%TA.AperFunction,ConnectorPad*%
G04:AMPARAMS|DCode=29|XSize=157.48mil|YSize=157.48mil|CornerRadius=39.37mil|HoleSize=0mil|Usage=FLASHONLY|Rotation=180.000|XOffset=0mil|YOffset=0mil|HoleType=Round|Shape=RoundedRectangle|*
%AMROUNDEDRECTD29*
21,1,0.15748,0.07874,0,0,180.0*
21,1,0.07874,0.15748,0,0,180.0*
1,1,0.07874,-0.03937,0.03937*
1,1,0.07874,0.03937,0.03937*
1,1,0.07874,0.03937,-0.03937*
1,1,0.07874,-0.03937,-0.03937*
%
%ADD29ROUNDEDRECTD29*%
%TA.AperFunction,ViaPad*%
%ADD30O,0.10000X0.14000*%
%TA.AperFunction,ViaPad*%
%ADD31R,0.10000X0.14000*%
%TA.AperFunction,ViaPad*%
G04:AMPARAMS|DCode=32|XSize=157.48mil|YSize=118.11mil|CornerRadius=29.53mil|HoleSize=0mil|Usage=FLASHONLY|Rotation=0.000|XOffset=0mil|YOffset=0mil|HoleType=Round|Shape=RoundedRectangle|*
%AMROUNDEDRECTD32*
21,1,0.15748,0.05906,0,0,0.0*
21,1,0.09843,0.11811,0,0,0.0*
1,1,0.05906,0.04921,-0.02953*
1,1,0.05906,-0.04921,-0.02953*
1,1,0.05906,-0.04921,0.02953*
1,1,0.05906,0.04921,0.02953*
%
%ADD32ROUNDEDRECTD32*%
%TA.AperFunction,ViaPad*%
%ADD33C,0.01800*%
G36*
X445641Y285093D02*
X445556Y285062D01*
X445481Y285012D01*
X445416Y284941D01*
X445361Y284850D01*
X445316Y284738D01*
X445281Y284607D01*
X445256Y284455D01*
X445241Y284283D01*
X445236Y284091D01*
X444236D01*
X444231Y284283D01*
X444216Y284455D01*
X444191Y284607D01*
X444156Y284738D01*
X444111Y284850D01*
X444056Y284941D01*
X443991Y285012D01*
X443916Y285062D01*
X443831Y285093D01*
X443736Y285103D01*
X445736D01*
X445641Y285093D01*
D02*
G37*
G36*
X485000Y358500D02*
Y285000D01*
X449500D01*
X449000Y285500D01*
Y289500D01*
Y297000D01*
X447500Y298500D01*
X441500D01*
Y339500D01*
X436326D01*
Y346328D01*
X436225Y346836D01*
X435937Y347266D01*
X432766Y350437D01*
X432336Y350725D01*
X431828Y350826D01*
X423672D01*
X423164Y350725D01*
X422734Y350437D01*
X419563Y347266D01*
X419275Y346836D01*
X419174Y346328D01*
Y343500D01*
X405249D01*
Y343788D01*
X397153D01*
Y343526D01*
X396500D01*
Y358675D01*
X485000D01*
Y358500D01*
D02*
G37*
G36*
X431674Y344951D02*
Y283010D01*
X431775Y282503D01*
X432063Y282073D01*
X434734Y279401D01*
X435164Y279114D01*
X435672Y279013D01*
X443411D01*
Y278398D01*
X442165D01*
Y266956D01*
X442165Y266956D01*
X442165D01*
X442351Y266505D01*
X441923Y266077D01*
X441746Y265812D01*
X441684Y265500D01*
X441684Y265500D01*
Y259000D01*
Y209500D01*
X441541Y209326D01*
X354326D01*
Y337184D01*
X370500D01*
X370812Y337246D01*
X371077Y337423D01*
X371077Y337423D01*
X372077Y338423D01*
X372254Y338688D01*
X372316Y339000D01*
X372316Y339000D01*
Y340613D01*
X379218D01*
X379236Y340610D01*
X379255Y340613D01*
X380048D01*
Y340875D01*
X385351D01*
X386069Y340157D01*
X385904Y339615D01*
X385837Y339601D01*
X385274Y339226D01*
X384899Y338663D01*
X384767Y338000D01*
X384899Y337337D01*
X385274Y336774D01*
X385837Y336399D01*
X386500Y336267D01*
X387163Y336399D01*
X387726Y336774D01*
X388101Y337337D01*
X388159Y337626D01*
X388341Y337703D01*
X388883Y337414D01*
X388899Y337337D01*
X389274Y336774D01*
X389837Y336399D01*
X390500Y336267D01*
X391163Y336399D01*
X391726Y336774D01*
X392101Y337337D01*
X392233Y338000D01*
X392101Y338663D01*
X391726Y339226D01*
X391211Y339569D01*
X391132Y339856D01*
X391099Y340124D01*
X391850Y340875D01*
X397153D01*
Y340613D01*
X397946D01*
X397965Y340610D01*
X397983Y340613D01*
X405249D01*
Y342684D01*
X418294D01*
X418486Y342222D01*
X416563Y340300D01*
X416275Y339869D01*
X416234Y339662D01*
X414771D01*
Y334401D01*
X420229D01*
Y339662D01*
X420229Y339662D01*
X420229D01*
X420124Y340112D01*
X421154Y341142D01*
X421500Y341382D01*
X421845Y341142D01*
X422875Y340113D01*
X422771Y339662D01*
X422771D01*
X422771Y339662D01*
Y334401D01*
X428229D01*
Y339662D01*
X426766D01*
X426725Y339869D01*
X426437Y340300D01*
X423826Y342911D01*
Y344951D01*
X425049Y346175D01*
X430451D01*
X431674Y344951D01*
D02*
G37*
G36*
X440684Y298500D02*
X440746Y298188D01*
X440923Y297923D01*
X441188Y297746D01*
X441500Y297684D01*
X444000D01*
Y295721D01*
X442165D01*
Y284279D01*
X443411D01*
Y283664D01*
X437049D01*
X436326Y284388D01*
Y338684D01*
X440684D01*
Y298500D01*
D02*
G37*
G36*
X485000Y209500D02*
X442500D01*
Y259000D01*
Y265500D01*
X443500Y266500D01*
X448000D01*
X449000Y267500D01*
Y277000D01*
X450000Y278000D01*
X485000D01*
Y209500D01*
D02*
G37*
G36*
X529175D02*
X487500D01*
Y291500D01*
Y358500D01*
Y358675D01*
X529175D01*
Y209500D01*
D02*
G37*
G36*
X445241Y278394D02*
X445256Y278222D01*
X445281Y278070D01*
X445316Y277939D01*
X445361Y277827D01*
X445416Y277736D01*
X445481Y277665D01*
X445556Y277615D01*
X445641Y277585D01*
X445736Y277574D01*
X443736D01*
X443831Y277585D01*
X443916Y277615D01*
X443991Y277665D01*
X444056Y277736D01*
X444111Y277827D01*
X444156Y277939D01*
X444191Y278070D01*
X444216Y278222D01*
X444231Y278394D01*
X444236Y278586D01*
X445236D01*
X445241Y278394D01*
D02*
G37*
G36*
X380000Y343788D02*
X371952D01*
Y342952D01*
X371500Y342500D01*
Y341000D01*
Y339000D01*
X370500Y338000D01*
X354326D01*
Y358675D01*
X380000D01*
Y343788D01*
D02*
G37*
G36*
X426005Y339263D02*
X426020Y339174D01*
X426045Y339095D01*
X426080Y339027D01*
X426125Y338969D01*
X426180Y338922D01*
X426245Y338885D01*
X426320Y338859D01*
X426405Y338843D01*
X426500Y338838D01*
X424500D01*
X424595Y338843D01*
X424680Y338859D01*
X424755Y338885D01*
X424820Y338922D01*
X424875Y338969D01*
X424920Y339027D01*
X424955Y339095D01*
X424980Y339174D01*
X424995Y339263D01*
X425000Y339362D01*
X426000D01*
X426005Y339263D01*
D02*
G37*
G36*
X418005D02*
X418020Y339174D01*
X418045Y339095D01*
X418080Y339027D01*
X418125Y338969D01*
X418180Y338922D01*
X418245Y338885D01*
X418320Y338859D01*
X418405Y338843D01*
X418500Y338838D01*
X416500D01*
X416595Y338843D01*
X416680Y338859D01*
X416755Y338885D01*
X416820Y338922D01*
X416875Y338969D01*
X416920Y339027D01*
X416955Y339095D01*
X416980Y339174D01*
X416995Y339263D01*
X417000Y339362D01*
X418000D01*
X418005Y339263D01*
D02*
G37*
G36*
X390023Y339186D02*
X390210Y339026D01*
X390266Y338987D01*
X390318Y338956D01*
X390366Y338931D01*
X390411Y338913D01*
X390453Y338903D01*
X390491Y338900D01*
X389600Y338009D01*
X389597Y338047D01*
X389586Y338089D01*
X389569Y338134D01*
X389544Y338182D01*
X389513Y338234D01*
X389474Y338290D01*
X389375Y338411D01*
X389314Y338477D01*
X389247Y338546D01*
X389954Y339253D01*
X390023Y339186D01*
D02*
G37*
G36*
X395684Y343526D02*
X391301D01*
X390794Y343425D01*
X390364Y343138D01*
X388946Y341720D01*
X388600Y341481D01*
X388255Y341720D01*
X386837Y343138D01*
X386407Y343425D01*
X385900Y343526D01*
X381031D01*
X380816Y343788D01*
Y358675D01*
X395684D01*
Y343526D01*
D02*
G37*
G36*
X397965Y341425D02*
X397955Y341478D01*
X397925Y341525D01*
X397875Y341566D01*
X397805Y341602D01*
X397715Y341632D01*
X397605Y341657D01*
X397475Y341676D01*
X397325Y341690D01*
X396965Y341701D01*
Y342701D01*
X397155Y342704D01*
X397475Y342726D01*
X397605Y342745D01*
X397715Y342770D01*
X397805Y342800D01*
X397875Y342836D01*
X397925Y342877D01*
X397955Y342924D01*
X397965Y342976D01*
Y341425D01*
D02*
G37*
G36*
X379246Y342924D02*
X379276Y342877D01*
X379326Y342836D01*
X379396Y342800D01*
X379486Y342770D01*
X379596Y342745D01*
X379726Y342726D01*
X379876Y342712D01*
X380236Y342701D01*
Y341701D01*
X380046Y341698D01*
X379726Y341676D01*
X379596Y341657D01*
X379486Y341632D01*
X379396Y341602D01*
X379326Y341566D01*
X379276Y341525D01*
X379246Y341478D01*
X379236Y341425D01*
Y342976D01*
X379246Y342924D01*
D02*
G37*
G36*
X387765Y338557D02*
X387695Y338486D01*
X387530Y338294D01*
X387490Y338237D01*
X387457Y338184D01*
X387432Y338135D01*
X387414Y338089D01*
X387403Y338047D01*
X387400Y338009D01*
X386509Y338900D01*
X386547Y338903D01*
X386589Y338914D01*
X386635Y338932D01*
X386684Y338957D01*
X386737Y338990D01*
X386794Y339030D01*
X386918Y339133D01*
X386986Y339195D01*
X387057Y339264D01*
X387765Y338557D01*
D02*
G37*
%LPC*%
G36*
X361429Y283432D02*
X359100D01*
Y281201D01*
X361429D01*
Y283432D01*
D02*
G37*
G36*
X357900D02*
X355571D01*
Y281201D01*
X357900D01*
Y283432D01*
D02*
G37*
G36*
X408227Y283279D02*
X406646D01*
Y281600D01*
X408227D01*
Y282256D01*
X407827D01*
X407922Y282266D01*
X408007Y282296D01*
X408082Y282347D01*
X408147Y282417D01*
X408202Y282508D01*
X408227Y282570D01*
Y282646D01*
X408221Y282655D01*
X408197Y282684D01*
X408227D01*
Y283279D01*
D02*
G37*
G36*
X417869Y285929D02*
X415638D01*
Y284006D01*
X415719Y284009D01*
X415914Y284037D01*
X416086Y284083D01*
X416236Y284147D01*
X416362Y284229D01*
X416466Y284330D01*
X416546Y284449D01*
X416604Y284587D01*
X416638Y284743D01*
X416650Y284917D01*
Y283600D01*
X417869D01*
Y285929D01*
D02*
G37*
G36*
X372868Y282900D02*
X371662D01*
Y282500D01*
X371652Y282595D01*
X371621Y282680D01*
X371571Y282755D01*
X371500Y282820D01*
X371409Y282875D01*
X371347Y282900D01*
X371181D01*
X371172Y282895D01*
X371143Y282870D01*
Y282900D01*
X370638D01*
Y280571D01*
X372868D01*
Y282900D01*
D02*
G37*
G36*
X408227Y280400D02*
X406646D01*
Y278720D01*
X408227D01*
Y280400D01*
D02*
G37*
G36*
X368929Y280799D02*
X366600D01*
Y278569D01*
X368929D01*
Y280799D01*
D02*
G37*
G36*
X365400D02*
X363071D01*
Y279556D01*
X362571Y279319D01*
X362195Y279570D01*
X361531Y279702D01*
X361229Y279950D01*
Y280599D01*
X355771D01*
Y275338D01*
X357174D01*
Y274500D01*
X357275Y273993D01*
X357483Y273682D01*
X357460Y273619D01*
X357279Y273182D01*
X357279Y273182D01*
X357279Y273182D01*
Y267645D01*
X361241D01*
Y273182D01*
X360585D01*
Y273740D01*
X360484Y274247D01*
X360197Y274677D01*
X360037Y274838D01*
X360244Y275338D01*
X361229D01*
Y275987D01*
X361531Y276235D01*
X362195Y276367D01*
X362571Y276618D01*
X363071Y276381D01*
Y275138D01*
X365400D01*
Y275143D01*
X365370D01*
X365395Y275172D01*
X365400Y275181D01*
Y275847D01*
X365375Y275909D01*
X365320Y276000D01*
X365255Y276071D01*
X365180Y276121D01*
X365095Y276152D01*
X365000Y276162D01*
X365400D01*
Y277969D01*
Y280799D01*
D02*
G37*
G36*
X376299Y282900D02*
X374068D01*
Y280571D01*
X376299D01*
Y282900D01*
D02*
G37*
G36*
X421299Y282400D02*
X419068D01*
Y280071D01*
X421299D01*
Y282400D01*
D02*
G37*
G36*
Y285929D02*
X419068D01*
Y283600D01*
X421299D01*
Y285929D01*
D02*
G37*
G36*
X357900Y294299D02*
X355571D01*
Y292069D01*
X357900D01*
Y294299D01*
D02*
G37*
G36*
X372841Y292342D02*
X371654D01*
Y290171D01*
X372841D01*
Y291331D01*
X372666D01*
X372718Y291337D01*
X372765Y291355D01*
X372806Y291386D01*
X372841Y291427D01*
Y292342D01*
D02*
G37*
G36*
X361429Y294299D02*
X359100D01*
Y292069D01*
X361429D01*
Y294299D01*
D02*
G37*
G36*
X421299Y297400D02*
X419068D01*
Y296213D01*
X419074Y296204D01*
X419099Y296174D01*
X419068D01*
Y296083D01*
X419468D01*
X419374Y296077D01*
X419288Y296061D01*
X419213Y296033D01*
X419148Y295995D01*
X419094Y295945D01*
X419068Y295911D01*
Y295071D01*
X421299D01*
Y297400D01*
D02*
G37*
G36*
X417869D02*
X415638D01*
Y295071D01*
X417869D01*
Y295911D01*
X417843Y295945D01*
X417789Y295995D01*
X417724Y296033D01*
X417649Y296061D01*
X417563Y296077D01*
X417469Y296083D01*
X417869D01*
Y296174D01*
X417838D01*
X417863Y296204D01*
X417869Y296213D01*
Y297400D01*
D02*
G37*
G36*
X361429Y290868D02*
X359100D01*
Y289662D01*
X359500D01*
X359405Y289652D01*
X359320Y289621D01*
X359245Y289571D01*
X359180Y289500D01*
X359125Y289409D01*
X359100Y289347D01*
Y288638D01*
X361429D01*
Y290868D01*
D02*
G37*
G36*
X405209Y335400D02*
X402100D01*
Y332291D01*
X402481Y332341D01*
X403394Y332719D01*
X404179Y333321D01*
X404781Y334106D01*
X405159Y335019D01*
X405209Y335400D01*
D02*
G37*
G36*
X410000Y339587D02*
X409072Y339464D01*
X408207Y339106D01*
X407464Y338536D01*
X406894Y337793D01*
X406536Y336928D01*
X406413Y336000D01*
X406536Y335072D01*
X406894Y334207D01*
X407464Y333464D01*
X408207Y332894D01*
X409072Y332536D01*
X410000Y332413D01*
X410928Y332536D01*
X411793Y332894D01*
X412536Y333464D01*
X413106Y334207D01*
X413464Y335072D01*
X413587Y336000D01*
X413464Y336928D01*
X413106Y337793D01*
X412536Y338536D01*
X411793Y339106D01*
X410928Y339464D01*
X410000Y339587D01*
D02*
G37*
G36*
X357900Y286862D02*
X355571D01*
Y284631D01*
X357900D01*
Y285838D01*
X357500D01*
X357595Y285848D01*
X357680Y285879D01*
X357755Y285929D01*
X357820Y286000D01*
X357875Y286091D01*
X357900Y286153D01*
Y286862D01*
D02*
G37*
G36*
Y290868D02*
X355571D01*
Y288638D01*
X357900D01*
Y289347D01*
X357875Y289409D01*
X357820Y289500D01*
X357755Y289571D01*
X357680Y289621D01*
X357595Y289652D01*
X357500Y289662D01*
X357900D01*
Y290868D01*
D02*
G37*
G36*
X361429Y286862D02*
X359100D01*
Y286153D01*
X359125Y286091D01*
X359180Y286000D01*
X359245Y285929D01*
X359320Y285879D01*
X359405Y285848D01*
X359500Y285838D01*
X359100D01*
Y284631D01*
X361429D01*
Y286862D01*
D02*
G37*
G36*
X376799Y261929D02*
X374569D01*
Y259600D01*
X376799D01*
Y261929D01*
D02*
G37*
G36*
X373369D02*
X371138D01*
Y259600D01*
X373369D01*
Y261929D01*
D02*
G37*
G36*
X368921Y262555D02*
X367340D01*
Y261854D01*
X367365Y261793D01*
X367420Y261703D01*
X367485Y261633D01*
X367560Y261583D01*
X367645Y261553D01*
X367740Y261543D01*
X367340D01*
Y260187D01*
X368921D01*
Y262555D01*
D02*
G37*
G36*
X400850Y264400D02*
X399632D01*
Y262071D01*
X401862D01*
Y263955D01*
X401659Y263917D01*
X401444Y263853D01*
X401263Y263771D01*
X401114Y263670D01*
X400999Y263551D01*
X400916Y263413D01*
X400867Y263257D01*
X400850Y263083D01*
Y264400D01*
D02*
G37*
G36*
X398431D02*
X396201D01*
Y262071D01*
X398431D01*
Y264400D01*
D02*
G37*
G36*
X376799Y258400D02*
X374569D01*
Y257095D01*
X374969D01*
X374873Y257085D01*
X374788Y257054D01*
X374713Y257004D01*
X374648Y256933D01*
X374593Y256842D01*
X374569Y256780D01*
Y256713D01*
X374581Y256694D01*
X374607Y256664D01*
X374569Y256663D01*
Y256071D01*
X376799D01*
Y258400D01*
D02*
G37*
G36*
X400900Y339709D02*
X400520Y339659D01*
X399606Y339281D01*
X398821Y338679D01*
X398219Y337894D01*
X397841Y336981D01*
X397791Y336600D01*
X400900D01*
Y339709D01*
D02*
G37*
G36*
X402100D02*
Y336600D01*
X405209D01*
X405159Y336981D01*
X404781Y337894D01*
X404179Y338679D01*
X403394Y339281D01*
X402481Y339659D01*
X402100Y339709D01*
D02*
G37*
G36*
X406900Y247900D02*
X401471D01*
Y246500D01*
X401587Y245324D01*
X401930Y244193D01*
X402487Y243150D01*
X403237Y242237D01*
X404150Y241487D01*
X405193Y240930D01*
X406324Y240587D01*
X406900Y240530D01*
Y247900D01*
D02*
G37*
G36*
X373369Y258400D02*
X371138D01*
Y256071D01*
X373369D01*
Y256621D01*
X373348Y256620D01*
X373369Y256647D01*
Y256780D01*
X373343Y256842D01*
X373288Y256933D01*
X373223Y257004D01*
X373148Y257054D01*
X373063Y257085D01*
X372969Y257095D01*
X373369D01*
Y258400D01*
D02*
G37*
G36*
X413529Y247900D02*
X408100D01*
Y240530D01*
X408676Y240587D01*
X409807Y240930D01*
X410850Y241487D01*
X411763Y242237D01*
X412513Y243150D01*
X413070Y244193D01*
X413413Y245324D01*
X413529Y246500D01*
Y247900D01*
D02*
G37*
G36*
X428500Y270335D02*
X427000D01*
X426298Y270196D01*
X425702Y269798D01*
X424942Y269038D01*
X424545Y268443D01*
X424405Y267740D01*
Y267454D01*
X424259D01*
Y266701D01*
X424257Y266693D01*
X424259Y266678D01*
Y266660D01*
X424255Y266642D01*
X424259Y266623D01*
Y261523D01*
X428221D01*
Y265578D01*
X428721Y265845D01*
X428829Y265773D01*
X429531Y265633D01*
X429911D01*
X429981Y265627D01*
X430140Y265599D01*
X430250Y265567D01*
X430271Y265559D01*
Y264838D01*
X431022D01*
X431029Y264836D01*
X431141Y264828D01*
X431145Y264819D01*
X431162Y264752D01*
X431165Y264735D01*
Y264500D01*
X431304Y263798D01*
X431702Y263202D01*
X432298Y262804D01*
X433000Y262665D01*
X433702Y262804D01*
X434298Y263202D01*
X434696Y263798D01*
X434835Y264500D01*
Y264735D01*
X434838Y264752D01*
X434856Y264819D01*
X434860Y264828D01*
X434971Y264836D01*
X434978Y264838D01*
X435729D01*
Y265631D01*
X435733Y265650D01*
X435729Y265668D01*
Y265689D01*
X435731Y265704D01*
X435729Y265711D01*
Y270099D01*
X431101D01*
X431083Y270103D01*
X431064Y270099D01*
X430271D01*
Y270032D01*
X429881Y269839D01*
X429771Y269816D01*
X429202Y270196D01*
X429086Y270219D01*
X428500Y270335D01*
D02*
G37*
G36*
X411008Y283279D02*
X409427D01*
Y282684D01*
X409457D01*
X409432Y282655D01*
X409427Y282646D01*
Y282570D01*
X409452Y282508D01*
X409507Y282417D01*
X409572Y282347D01*
X409647Y282296D01*
X409732Y282266D01*
X409827Y282256D01*
X409427D01*
Y281000D01*
Y278550D01*
X409696Y278221D01*
X409675Y278113D01*
Y277501D01*
X406853D01*
Y273188D01*
X406850Y273169D01*
X406853Y273151D01*
Y272358D01*
X406853Y272358D01*
X406853D01*
X406598Y271972D01*
X406451Y271826D01*
X405500D01*
X404993Y271725D01*
X404563Y271437D01*
X404275Y271007D01*
X404175Y270500D01*
Y262549D01*
X401451Y259825D01*
X399500D01*
X398993Y259725D01*
X398563Y259437D01*
X397063Y257937D01*
X396775Y257507D01*
X396674Y257000D01*
Y239549D01*
X392951Y235825D01*
X370549D01*
X368826Y237549D01*
Y240769D01*
X368831Y240832D01*
X368832Y240843D01*
X369730Y241116D01*
X370738Y241654D01*
X371621Y242379D01*
X372346Y243262D01*
X372884Y244270D01*
X373216Y245363D01*
X373328Y246500D01*
Y250500D01*
X373216Y251637D01*
X372884Y252730D01*
X372346Y253738D01*
X371621Y254621D01*
X370738Y255346D01*
X369730Y255884D01*
X368938Y256125D01*
X368921Y256618D01*
X368921Y256618D01*
X368921Y256618D01*
Y258987D01*
X366740D01*
Y259587D01*
X366140D01*
Y261543D01*
X365740D01*
X365835Y261553D01*
X365920Y261583D01*
X365995Y261633D01*
X366060Y261703D01*
X366115Y261793D01*
X366140Y261854D01*
Y262555D01*
X364559D01*
Y262355D01*
X357279D01*
Y256818D01*
X360790D01*
X360982Y256356D01*
X358063Y253437D01*
X357775Y253007D01*
X357675Y252500D01*
Y250000D01*
X357775Y249493D01*
X358063Y249063D01*
X359563Y247563D01*
X359993Y247275D01*
X360500Y247175D01*
X361672D01*
Y246500D01*
X361784Y245363D01*
X362116Y244270D01*
X362654Y243262D01*
X363379Y242379D01*
X364262Y241654D01*
X365270Y241116D01*
X366168Y240843D01*
X366169Y240832D01*
X366175Y240769D01*
Y237000D01*
X366275Y236493D01*
X366563Y236063D01*
X369063Y233563D01*
X369493Y233275D01*
X370000Y233174D01*
X393500D01*
X394007Y233275D01*
X394437Y233563D01*
X398937Y238063D01*
X399225Y238493D01*
X399325Y239000D01*
Y256451D01*
X400049Y257174D01*
X402000D01*
X402507Y257275D01*
X402937Y257563D01*
X403710Y258335D01*
X403744Y258359D01*
X403750Y258362D01*
X403756Y258359D01*
X403790Y258335D01*
X404063Y258063D01*
X404493Y257775D01*
X405000Y257675D01*
X406992D01*
X407346Y257321D01*
Y257016D01*
X407346Y256921D01*
X407163Y256496D01*
X406324Y256413D01*
X405193Y256070D01*
X404150Y255513D01*
X403237Y254763D01*
X402487Y253850D01*
X401930Y252807D01*
X401587Y251676D01*
X401471Y250500D01*
Y249100D01*
X413529D01*
Y250500D01*
X413413Y251676D01*
X413070Y252807D01*
X412513Y253850D01*
X411763Y254763D01*
X410850Y255513D01*
X409807Y256070D01*
X408676Y256413D01*
X408602Y256420D01*
X408627Y256921D01*
X410492D01*
Y256720D01*
X412073D01*
Y257459D01*
X412048Y257515D01*
X411993Y257598D01*
X411928Y257662D01*
X411853Y257708D01*
X411768Y257735D01*
X411673Y257745D01*
X412073D01*
Y259000D01*
X413273D01*
Y257745D01*
X413673D01*
X413578Y257735D01*
X413493Y257708D01*
X413418Y257662D01*
X413353Y257598D01*
X413298Y257515D01*
X413273Y257459D01*
Y256720D01*
X414854D01*
Y258564D01*
X415354Y258771D01*
X416063Y258063D01*
X416493Y257775D01*
X417000Y257675D01*
X426174D01*
Y256300D01*
X421700D01*
Y240700D01*
X433300D01*
Y256300D01*
X428826D01*
Y257675D01*
X434411D01*
X434426Y257673D01*
X434837Y257399D01*
X435500Y257267D01*
X436163Y257399D01*
X436726Y257774D01*
X437101Y258337D01*
X437233Y259000D01*
X437101Y259663D01*
X436726Y260226D01*
X436163Y260601D01*
X435500Y260733D01*
X434837Y260601D01*
X434428Y260328D01*
X434390Y260326D01*
X417549D01*
X417325Y260549D01*
Y261523D01*
X420741D01*
Y267454D01*
X420085D01*
Y271411D01*
X420087Y271426D01*
X420361Y271837D01*
X420463Y272346D01*
X421900D01*
Y275512D01*
Y278677D01*
X420319D01*
Y278477D01*
X417523D01*
X417206Y278864D01*
X417233Y279000D01*
X417120Y279571D01*
X417385Y280071D01*
X417869D01*
Y282400D01*
X416650D01*
Y281083D01*
X416638Y281257D01*
X416604Y281413D01*
X416546Y281551D01*
X416466Y281670D01*
X416362Y281771D01*
X416236Y281853D01*
X416086Y281918D01*
X415914Y281963D01*
X415719Y281991D01*
X415500Y282000D01*
Y282176D01*
X415138Y281958D01*
X414800Y282026D01*
X414154D01*
Y283080D01*
X411008D01*
Y283279D01*
D02*
G37*
G36*
X427162Y293229D02*
X421901D01*
Y287771D01*
X423206D01*
Y285729D01*
X421901D01*
Y280271D01*
X423245D01*
X423307Y279961D01*
X423594Y279531D01*
X423986Y279139D01*
X423795Y278677D01*
X423100D01*
Y275512D01*
Y272346D01*
X424681D01*
Y272547D01*
X428221D01*
Y278477D01*
X427566D01*
Y278760D01*
X427465Y279267D01*
X427177Y279697D01*
X427053Y279821D01*
X427162Y280271D01*
X427162D01*
X427162Y280271D01*
Y285729D01*
X425857D01*
Y287771D01*
X427162D01*
Y293229D01*
D02*
G37*
G36*
X431955Y276362D02*
X430071D01*
Y274131D01*
X432400D01*
Y275350D01*
X431083D01*
X431257Y275367D01*
X431413Y275416D01*
X431551Y275499D01*
X431670Y275614D01*
X431771Y275763D01*
X431853Y275944D01*
X431917Y276159D01*
X431955Y276362D01*
D02*
G37*
G36*
X368929Y277368D02*
X366600D01*
Y276162D01*
X367000D01*
X366905Y276152D01*
X366820Y276121D01*
X366745Y276071D01*
X366680Y276000D01*
X366625Y275909D01*
X366600Y275847D01*
Y275181D01*
X366605Y275172D01*
X366630Y275143D01*
X366600D01*
Y275138D01*
X368929D01*
Y277368D01*
D02*
G37*
G36*
X435929Y276362D02*
X434045D01*
X434083Y276159D01*
X434147Y275944D01*
X434229Y275763D01*
X434330Y275614D01*
X434449Y275499D01*
X434587Y275416D01*
X434743Y275367D01*
X434917Y275350D01*
X433600D01*
Y274131D01*
X435929D01*
Y276362D01*
D02*
G37*
G36*
X368721Y273182D02*
X364759D01*
Y272276D01*
X364259Y272009D01*
X364250Y272015D01*
X363587Y272147D01*
X362923Y272015D01*
X362361Y271639D01*
X361985Y271077D01*
X361853Y270413D01*
X361985Y269750D01*
X362361Y269188D01*
X362923Y268812D01*
X363587Y268680D01*
X364250Y268812D01*
X364259Y268818D01*
X364759Y268551D01*
Y267645D01*
X368721D01*
Y273182D01*
D02*
G37*
G36*
X399632Y267929D02*
Y265600D01*
X400850D01*
Y266917D01*
X400867Y266743D01*
X400916Y266587D01*
X400999Y266449D01*
X401114Y266330D01*
X401263Y266229D01*
X401444Y266147D01*
X401659Y266083D01*
X401862Y266045D01*
Y267929D01*
X399632D01*
D02*
G37*
G36*
X375900Y279677D02*
X374319D01*
Y279477D01*
X370779D01*
Y273547D01*
X371434D01*
Y268454D01*
X370779D01*
Y262523D01*
X374741D01*
Y263676D01*
X375241Y263943D01*
X375325Y263887D01*
X375988Y263755D01*
X376652Y263887D01*
X377214Y264263D01*
X377590Y264825D01*
X377722Y265488D01*
X377590Y266151D01*
X377214Y266714D01*
X376652Y267090D01*
X375988Y267221D01*
X375325Y267090D01*
X375241Y267034D01*
X374741Y267301D01*
Y268454D01*
X374085D01*
Y272943D01*
X374319Y273346D01*
X375900D01*
Y274091D01*
X375875Y274143D01*
X375870D01*
X375873Y274147D01*
X375820Y274221D01*
X375755Y274281D01*
X375680Y274324D01*
X375595Y274350D01*
X375500Y274359D01*
X375900D01*
Y276512D01*
Y279677D01*
D02*
G37*
G36*
X432400Y272932D02*
X430071D01*
Y270701D01*
X432400D01*
Y272932D01*
D02*
G37*
G36*
X378681Y279677D02*
X377100D01*
Y276512D01*
Y274359D01*
X377500D01*
X377405Y274350D01*
X377320Y274324D01*
X377245Y274281D01*
X377180Y274221D01*
X377127Y274147D01*
X377130Y274143D01*
X377125D01*
X377100Y274091D01*
Y273346D01*
X378420D01*
X378507Y273240D01*
X378639Y272577D01*
X379014Y272014D01*
X379577Y271639D01*
X380240Y271507D01*
X380904Y271639D01*
X381466Y272014D01*
X381841Y272577D01*
X381957Y273156D01*
X382221Y273547D01*
X382221Y273547D01*
X382221Y273547D01*
Y279477D01*
X378681D01*
Y279677D01*
D02*
G37*
G36*
X435929Y272932D02*
X433600D01*
Y270701D01*
X435929D01*
Y272932D01*
D02*
G37*
G36*
X361229Y316099D02*
X355771D01*
Y310838D01*
X357174D01*
Y309500D01*
X357275Y308993D01*
X357563Y308563D01*
X357643Y308483D01*
Y307729D01*
X356338D01*
Y302271D01*
X356952D01*
X357174Y302000D01*
Y300162D01*
X355771D01*
Y294901D01*
X361229D01*
Y300162D01*
X359825D01*
Y301451D01*
X359906Y301531D01*
X360193Y301961D01*
X360255Y302271D01*
X361599D01*
Y307729D01*
X360294D01*
Y308842D01*
X360326Y309000D01*
X360225Y309507D01*
X359937Y309937D01*
X359825Y310049D01*
Y310838D01*
X361229D01*
Y312143D01*
X362271D01*
Y310838D01*
X367729D01*
Y316099D01*
X362271D01*
Y314794D01*
X361229D01*
Y316099D01*
D02*
G37*
G36*
X382229Y318099D02*
X376771D01*
Y314662D01*
X376753Y314637D01*
X376519Y314362D01*
X376096Y313938D01*
X375750Y313699D01*
X375405Y313938D01*
X375023Y314320D01*
X374863Y314492D01*
X374753Y314628D01*
X374729Y314662D01*
Y318099D01*
X369271D01*
Y312838D01*
X372699D01*
X372755Y312798D01*
X373019Y312575D01*
X373425Y312170D01*
Y310729D01*
X370338D01*
Y305744D01*
X369838Y305537D01*
X369666Y305708D01*
X369236Y305995D01*
X368729Y306096D01*
X367662D01*
Y307729D01*
X362401D01*
Y302271D01*
X367662D01*
Y303445D01*
X368180D01*
X369563Y302063D01*
X369993Y301775D01*
X370392Y301696D01*
X370837Y301399D01*
X371466Y301273D01*
X371531Y301228D01*
X371853Y300827D01*
Y296826D01*
X371049D01*
X369406Y298469D01*
X368976Y298756D01*
X368729Y298805D01*
Y300162D01*
X363271D01*
Y294901D01*
X368729D01*
X368729Y294901D01*
Y294901D01*
X369198Y294928D01*
X369563Y294563D01*
X369993Y294275D01*
X370500Y294175D01*
X373000D01*
X373507Y294275D01*
X373937Y294563D01*
X374378Y295004D01*
X374665Y295434D01*
X374750Y295858D01*
X380147D01*
Y300170D01*
X380150Y300189D01*
X380147Y300207D01*
Y301001D01*
X379825D01*
X379784Y301208D01*
X379496Y301638D01*
X378326Y302809D01*
Y305271D01*
X381662D01*
Y310729D01*
X378225D01*
X378200Y310747D01*
X378076Y310853D01*
Y312170D01*
X378442Y312536D01*
X378605Y312687D01*
X378735Y312792D01*
X378801Y312838D01*
X382229D01*
Y318099D01*
D02*
G37*
G36*
X417841Y306842D02*
X416653D01*
Y304671D01*
X417841D01*
Y306842D01*
D02*
G37*
G36*
X422787D02*
X421600D01*
Y304071D01*
X420400D01*
Y306842D01*
X419041D01*
Y304071D01*
X418441D01*
Y303471D01*
X416653D01*
Y301429D01*
X416653Y301299D01*
X416340Y300929D01*
X415638D01*
Y298600D01*
X421299D01*
Y300799D01*
X421299Y300929D01*
X421495Y301161D01*
X421968Y301134D01*
X421901Y300729D01*
X421901D01*
Y295271D01*
X427162D01*
Y295989D01*
X427500Y296267D01*
X428163Y296399D01*
X428726Y296774D01*
X429101Y297337D01*
X429233Y298000D01*
X429101Y298663D01*
X428726Y299226D01*
X428163Y299601D01*
X427500Y299733D01*
X427162Y300010D01*
Y300729D01*
X425857D01*
Y300969D01*
X425756Y301476D01*
X425469Y301906D01*
X425146Y302228D01*
Y302293D01*
X425150Y302311D01*
X425146Y302330D01*
Y302356D01*
X425148Y302369D01*
X425146Y302375D01*
Y306643D01*
X422787D01*
Y306842D01*
D02*
G37*
G36*
X391968Y335314D02*
X391071Y335135D01*
X390310Y334627D01*
X390283Y334586D01*
X390258Y334573D01*
X390120Y334521D01*
X389916Y334465D01*
X389677Y334418D01*
X388111Y334294D01*
X385968D01*
X385461Y334193D01*
X385031Y333906D01*
X383563Y332437D01*
X383275Y332007D01*
X383174Y331500D01*
Y304861D01*
X382675Y304594D01*
X382663Y304601D01*
X382000Y304733D01*
X381337Y304601D01*
X380774Y304226D01*
X380399Y303663D01*
X380267Y303000D01*
X380399Y302337D01*
X380774Y301774D01*
X381337Y301399D01*
X382000Y301267D01*
X382663Y301399D01*
X382675Y301406D01*
X383174Y301139D01*
Y284883D01*
X383167Y284841D01*
X383165Y284835D01*
X383159Y284833D01*
X383117Y284825D01*
X382162D01*
Y286229D01*
X380805D01*
X380756Y286476D01*
X380469Y286906D01*
X380147Y287228D01*
Y287793D01*
X380150Y287811D01*
X380147Y287830D01*
Y292143D01*
X377787D01*
Y292342D01*
X376600D01*
Y291437D01*
X376635Y291391D01*
X376676Y291357D01*
X376723Y291337D01*
X376775Y291331D01*
X376600D01*
Y289571D01*
X375400D01*
Y291331D01*
X375225D01*
X375277Y291337D01*
X375324Y291357D01*
X375365Y291391D01*
X375400Y291437D01*
Y292342D01*
X374041D01*
Y291427D01*
X374076Y291386D01*
X374117Y291355D01*
X374164Y291337D01*
X374216Y291331D01*
X374041D01*
Y289571D01*
X373441D01*
Y288971D01*
X371654D01*
Y288868D01*
X371244Y288585D01*
X371153Y288603D01*
X370500Y288733D01*
X369837Y288601D01*
X369274Y288226D01*
X368899Y287663D01*
X368767Y287000D01*
X368340Y286662D01*
X367325D01*
Y288838D01*
X368729D01*
Y294099D01*
X363271D01*
Y288838D01*
X364674D01*
Y286662D01*
X363271D01*
Y281401D01*
X368729D01*
Y283009D01*
X368858Y283094D01*
X370176Y284413D01*
X370638Y284221D01*
Y284100D01*
X371143D01*
Y284130D01*
X371172Y284105D01*
X371181Y284100D01*
X371347D01*
X371409Y284125D01*
X371500Y284180D01*
X371571Y284245D01*
X371621Y284320D01*
X371652Y284405D01*
X371662Y284500D01*
Y284100D01*
X376299D01*
Y286429D01*
X376305Y286436D01*
X376848Y286379D01*
X376901Y286229D01*
X376901D01*
X376901Y286229D01*
Y280771D01*
X382162D01*
Y282174D01*
X383117D01*
X383159Y282167D01*
X383165Y282165D01*
X383167Y282159D01*
X383174Y282117D01*
Y272089D01*
X383173Y272074D01*
X382899Y271663D01*
X382767Y271000D01*
X382899Y270337D01*
X383172Y269928D01*
X383174Y269890D01*
Y261073D01*
X383162Y261065D01*
X382662Y261332D01*
Y261729D01*
X381922D01*
X381659Y262222D01*
X381823Y262523D01*
X382221D01*
Y268454D01*
X378259D01*
Y262523D01*
X378706D01*
Y261729D01*
X377401D01*
Y256271D01*
X382662D01*
Y257675D01*
X383500D01*
X384007Y257775D01*
X384437Y258063D01*
X384837Y258462D01*
X385297Y258216D01*
X385155Y257500D01*
Y256798D01*
X385131Y256518D01*
X385067Y256136D01*
X384986Y255832D01*
X384935Y255705D01*
X384262Y255346D01*
X383379Y254621D01*
X382654Y253738D01*
X382116Y252730D01*
X381784Y251637D01*
X381672Y250500D01*
Y246500D01*
X381784Y245363D01*
X382116Y244270D01*
X382654Y243262D01*
X383379Y242379D01*
X384262Y241654D01*
X385270Y241116D01*
X386363Y240784D01*
X387500Y240672D01*
X388637Y240784D01*
X389730Y241116D01*
X390738Y241654D01*
X391621Y242379D01*
X392346Y243262D01*
X392884Y244270D01*
X393216Y245363D01*
X393328Y246500D01*
Y250500D01*
X393216Y251637D01*
X392884Y252730D01*
X392346Y253738D01*
X391621Y254621D01*
X390738Y255346D01*
X390065Y255705D01*
X390014Y255832D01*
X389933Y256136D01*
X389869Y256518D01*
X389867Y256550D01*
X390471Y257155D01*
X391500D01*
X392397Y257333D01*
X393158Y257842D01*
X394627Y259310D01*
X395135Y260071D01*
X395314Y260968D01*
Y261961D01*
X395332Y262245D01*
X395335Y262271D01*
X395599D01*
Y263028D01*
X395602Y263037D01*
X395599Y263053D01*
Y263064D01*
X395603Y263083D01*
X395599Y263101D01*
Y266899D01*
X395603Y266917D01*
X395599Y266936D01*
Y267385D01*
X395701Y267453D01*
X396201Y267186D01*
Y265600D01*
X398431D01*
Y267929D01*
X396602D01*
X396453Y267929D01*
X396285Y268205D01*
X396251Y268429D01*
X396890Y269016D01*
X397791Y269745D01*
X398155Y270000D01*
X398469Y270189D01*
X398716Y270309D01*
X398878Y270362D01*
X399022Y270381D01*
X399753D01*
Y271175D01*
X399756Y271193D01*
X399753Y271212D01*
Y278280D01*
X392247D01*
Y271271D01*
X392244Y271240D01*
X392243Y271236D01*
X392221Y271185D01*
X392174Y271099D01*
X392099Y270984D01*
X392007Y270858D01*
X391776Y270592D01*
X391310Y270127D01*
X390802Y269366D01*
X390623Y268468D01*
Y267729D01*
X390338D01*
Y266936D01*
X390334Y266917D01*
X390338Y266899D01*
Y263101D01*
X390334Y263083D01*
X390338Y263064D01*
Y263053D01*
X390335Y263037D01*
X390338Y263028D01*
Y262271D01*
X390338Y262271D01*
X390172Y261877D01*
X390138Y261845D01*
X389500D01*
X389500Y261845D01*
X388603Y261667D01*
X387842Y261158D01*
X386249Y259565D01*
X385788Y259811D01*
X385825Y260000D01*
Y269911D01*
X385827Y269926D01*
X386101Y270337D01*
X386233Y271000D01*
X386101Y271663D01*
X385828Y272072D01*
X385825Y272110D01*
Y283500D01*
Y300710D01*
X385841Y300787D01*
X386080Y301184D01*
X388713D01*
Y299600D01*
X391996D01*
Y298400D01*
X388713D01*
Y295106D01*
X391778D01*
X391901Y295054D01*
X392239Y294756D01*
X392247Y294619D01*
X392247Y294619D01*
Y286720D01*
X392303D01*
X392309Y286688D01*
X392486Y286423D01*
X392751Y286246D01*
X393063Y286184D01*
X405500D01*
X405812Y286246D01*
X406077Y286423D01*
X406254Y286688D01*
X406316Y287000D01*
Y302500D01*
X406316Y302500D01*
X406254Y302812D01*
X406077Y303077D01*
X406077Y303077D01*
X405816Y303338D01*
Y314000D01*
Y316920D01*
X405798Y317009D01*
X405796Y317099D01*
X405767Y317163D01*
X405754Y317232D01*
X405703Y317307D01*
X405666Y317390D01*
X405616Y317438D01*
X405577Y317496D01*
X405501Y317547D01*
X405436Y317609D01*
X405370Y317634D01*
X405312Y317673D01*
X405223Y317691D01*
X405138Y317723D01*
X404672Y317804D01*
X404602Y317802D01*
X404533Y317816D01*
X404061D01*
X403743Y318202D01*
X403830Y318638D01*
Y320400D01*
X401405D01*
Y321000D01*
X400806D01*
Y325667D01*
X400478Y325602D01*
X399816Y325160D01*
X399396Y325316D01*
X399316Y325381D01*
Y326500D01*
X399374Y326571D01*
X400862D01*
Y328900D01*
X395201D01*
Y327780D01*
X395168Y327743D01*
X395099Y327713D01*
X394599Y328040D01*
Y331399D01*
X394603Y331417D01*
X394599Y331436D01*
Y332229D01*
X394320D01*
X394314Y332319D01*
Y332968D01*
X394135Y333866D01*
X393627Y334627D01*
X392866Y335135D01*
X391968Y335314D01*
D02*
G37*
G36*
X361229Y322162D02*
X355771D01*
Y316901D01*
X361229D01*
Y317415D01*
X361729Y317821D01*
X362000Y317767D01*
X362271Y317544D01*
Y316901D01*
X367729D01*
Y322162D01*
X362271D01*
Y321456D01*
X362000Y321233D01*
X361729Y321179D01*
X361229Y321585D01*
Y322162D01*
D02*
G37*
G36*
X397431Y332429D02*
X395201D01*
Y330100D01*
X397431D01*
Y332429D01*
D02*
G37*
G36*
X400900Y335400D02*
X397791D01*
X397841Y335019D01*
X398219Y334106D01*
X398821Y333321D01*
X399332Y332929D01*
X399163Y332429D01*
X398632D01*
Y330100D01*
X400862D01*
Y331916D01*
X400900Y331950D01*
Y335400D01*
D02*
G37*
G36*
X377500Y329733D02*
X376837Y329601D01*
X376274Y329226D01*
X376032Y328864D01*
X375467D01*
X375226Y329226D01*
X374663Y329601D01*
X374000Y329733D01*
X373337Y329601D01*
X372774Y329226D01*
X372399Y328663D01*
X372267Y328000D01*
X372399Y327337D01*
X372774Y326774D01*
X373337Y326399D01*
X373425Y326381D01*
Y324831D01*
X373058Y324464D01*
X372895Y324313D01*
X372764Y324208D01*
X372699Y324162D01*
X369271D01*
Y318901D01*
X374729D01*
Y322338D01*
X374747Y322363D01*
X374981Y322638D01*
X375405Y323061D01*
X375750Y323301D01*
X376096Y323061D01*
X376477Y322680D01*
X376637Y322508D01*
X376747Y322372D01*
X376771Y322338D01*
Y318901D01*
X382229D01*
Y324162D01*
X378801D01*
X378745Y324202D01*
X378481Y324425D01*
X378076Y324831D01*
Y326381D01*
X378163Y326399D01*
X378726Y326774D01*
X379101Y327337D01*
X379233Y328000D01*
X379101Y328663D01*
X378726Y329226D01*
X378163Y329601D01*
X377500Y329733D01*
D02*
G37*
G36*
X402005Y325667D02*
Y321600D01*
X403830D01*
Y323362D01*
X403646Y324290D01*
X403120Y325077D01*
X402333Y325602D01*
X402005Y325667D01*
D02*
G37*
G36*
X428229Y333599D02*
X422771D01*
Y328338D01*
X422859D01*
X423240Y327838D01*
X423206Y327669D01*
Y326229D01*
X421901D01*
Y322905D01*
X421470Y322681D01*
X421099Y322929D01*
Y326229D01*
X419794D01*
Y327669D01*
X419761Y327838D01*
X420141Y328338D01*
X420229D01*
Y333599D01*
X414771D01*
Y328338D01*
X416234D01*
X416275Y328131D01*
X416563Y327701D01*
X417143Y327120D01*
Y326229D01*
X415838D01*
Y320771D01*
X419174D01*
Y318500D01*
X419275Y317993D01*
X419563Y317563D01*
X419954Y317171D01*
Y315975D01*
X419775Y315708D01*
X419734Y315501D01*
X416854D01*
Y311188D01*
X416850Y311170D01*
X416854Y311151D01*
Y310357D01*
X416367Y310326D01*
X414000D01*
X413493Y310225D01*
X413063Y309937D01*
X411563Y308437D01*
X411275Y308007D01*
X411174Y307500D01*
Y291500D01*
X411275Y290993D01*
X411563Y290563D01*
X412563Y289563D01*
X412993Y289275D01*
X413500Y289175D01*
X415838D01*
Y287771D01*
X421099D01*
Y293229D01*
X415838D01*
Y291826D01*
X414049D01*
X413826Y292049D01*
Y306951D01*
X414549Y307675D01*
X418000D01*
X418507Y307775D01*
X418937Y308063D01*
X419378Y308504D01*
X419665Y308934D01*
X419766Y309441D01*
Y310357D01*
X425146D01*
Y314670D01*
X425150Y314689D01*
X425146Y314707D01*
Y315501D01*
X424825D01*
X424784Y315708D01*
X424605Y315975D01*
Y318549D01*
X424504Y319056D01*
X424217Y319486D01*
X423826Y319877D01*
Y320771D01*
X427162D01*
Y326229D01*
X425857D01*
Y327120D01*
X426437Y327701D01*
X426725Y328131D01*
X426766Y328338D01*
X428229D01*
Y333599D01*
D02*
G37*
%LPD*%
G36*
X419265Y267449D02*
X419280Y267277D01*
X419305Y267125D01*
X419340Y266994D01*
X419385Y266882D01*
X419440Y266792D01*
X419505Y266721D01*
X419580Y266670D01*
X419665Y266640D01*
X419760Y266630D01*
X417760D01*
X417855Y266640D01*
X417940Y266670D01*
X418015Y266721D01*
X418080Y266792D01*
X418135Y266882D01*
X418180Y266994D01*
X418215Y267125D01*
X418240Y267277D01*
X418255Y267449D01*
X418260Y267642D01*
X419260D01*
X419265Y267449D01*
D02*
G37*
G36*
X420223Y323016D02*
X420195Y322925D01*
X420191Y322825D01*
X420213Y322713D01*
X420258Y322591D01*
X420328Y322459D01*
X420423Y322315D01*
X420542Y322162D01*
X420685Y321997D01*
X420854Y321822D01*
X420147Y321115D01*
X419981Y321273D01*
X419683Y321516D01*
X419550Y321601D01*
X419427Y321661D01*
X419314Y321697D01*
X419213Y321708D01*
X419122Y321695D01*
X419041Y321657D01*
X418971Y321595D01*
X420275Y323095D01*
X420223Y323016D01*
D02*
G37*
G36*
X427242Y267531D02*
X427282Y266916D01*
X427301Y266817D01*
X427323Y266740D01*
X427348Y266686D01*
X427377Y266652D01*
X427409Y266642D01*
X425071D01*
X425103Y266652D01*
X425132Y266686D01*
X425157Y266740D01*
X425179Y266817D01*
X425198Y266916D01*
X425213Y267037D01*
X425233Y267345D01*
X425240Y267740D01*
X427240D01*
X427242Y267531D01*
D02*
G37*
G36*
X398695Y271161D02*
X398408Y271066D01*
X398080Y270907D01*
X397711Y270684D01*
X397301Y270398D01*
X396357Y269634D01*
X395248Y268616D01*
X394633Y268011D01*
X394477Y268098D01*
X394519Y267476D01*
X394548Y267305D01*
X394583Y267165D01*
X394625Y267057D01*
X394672Y266979D01*
X394727Y266933D01*
X394787Y266917D01*
X391150D01*
X391210Y266933D01*
X391265Y266979D01*
X391312Y267057D01*
X391354Y267165D01*
X391389Y267305D01*
X391418Y267476D01*
X391440Y267677D01*
X391465Y268174D01*
X391469Y268468D01*
X393811D01*
X391908Y269529D01*
X392127Y269753D01*
X392645Y270348D01*
X392771Y270521D01*
X392875Y270681D01*
X392956Y270828D01*
X393013Y270963D01*
X393048Y271084D01*
X393059Y271193D01*
X398941D01*
X398695Y271161D01*
D02*
G37*
G36*
X373265Y268449D02*
X373280Y268277D01*
X373305Y268125D01*
X373340Y267994D01*
X373385Y267882D01*
X373440Y267792D01*
X373505Y267721D01*
X373580Y267670D01*
X373665Y267640D01*
X373760Y267630D01*
X371760D01*
X371855Y267640D01*
X371940Y267670D01*
X372015Y267721D01*
X372080Y267792D01*
X372135Y267882D01*
X372180Y267994D01*
X372215Y268125D01*
X372240Y268277D01*
X372255Y268449D01*
X372260Y268642D01*
X373260D01*
X373265Y268449D01*
D02*
G37*
G36*
X373927Y266393D02*
X373957Y266308D01*
X374008Y266233D01*
X374079Y266168D01*
X374170Y266113D01*
X374281Y266068D01*
X374413Y266033D01*
X374565Y266008D01*
X374737Y265993D01*
X374820Y265991D01*
X375052Y266009D01*
X375120Y266021D01*
X375181Y266035D01*
X375234Y266052D01*
X375279Y266071D01*
X375316Y266093D01*
X375345Y266118D01*
Y264858D01*
X375316Y264883D01*
X375279Y264905D01*
X375234Y264925D01*
X375181Y264941D01*
X375120Y264956D01*
X375052Y264967D01*
X374891Y264983D01*
X374830Y264986D01*
X374737Y264983D01*
X374565Y264968D01*
X374413Y264943D01*
X374281Y264908D01*
X374170Y264863D01*
X374079Y264808D01*
X374008Y264743D01*
X373957Y264668D01*
X373927Y264583D01*
X373917Y264488D01*
Y266488D01*
X373927Y266393D01*
D02*
G37*
G36*
X381145Y263329D02*
X381060Y263311D01*
X380985Y263281D01*
X380920Y263240D01*
X380865Y263186D01*
X380820Y263121D01*
X380785Y263043D01*
X380760Y262954D01*
X380745Y262853D01*
X380740Y262740D01*
X379740D01*
X379735Y262853D01*
X379720Y262954D01*
X379695Y263043D01*
X379660Y263121D01*
X379615Y263186D01*
X379560Y263240D01*
X379495Y263281D01*
X379420Y263311D01*
X379335Y263329D01*
X379240Y263335D01*
X381240D01*
X381145Y263329D01*
D02*
G37*
G36*
X374164Y296662D02*
X374117Y296640D01*
X374076Y296604D01*
X374040Y296553D01*
X374010Y296487D01*
X373985Y296407D01*
X373966Y296312D01*
X373952Y296203D01*
X373944Y296079D01*
X373941Y295941D01*
X372941D01*
X372938Y296079D01*
X372916Y296312D01*
X372897Y296407D01*
X372872Y296487D01*
X372842Y296553D01*
X372806Y296604D01*
X372765Y296640D01*
X372718Y296662D01*
X372666Y296670D01*
X374216D01*
X374164Y296662D01*
D02*
G37*
G36*
X413228Y264311D02*
X414334D01*
X414282Y264301D01*
X414235Y264271D01*
X414194Y264221D01*
X414158Y264151D01*
X414128Y264061D01*
X414103Y263951D01*
X414086Y263833D01*
X414087Y263824D01*
X414099Y263763D01*
X414114Y263711D01*
X414131Y263666D01*
X414150Y263629D01*
X414171Y263600D01*
X414068Y263607D01*
X414059Y263311D01*
X413059D01*
X413056Y263501D01*
X413044Y263674D01*
X412914Y263683D01*
X412941Y263712D01*
X412966Y263748D01*
X412988Y263793D01*
X413007Y263845D01*
X413022Y263903D01*
X413015Y263951D01*
X412990Y264061D01*
X412960Y264151D01*
X412924Y264221D01*
X412883Y264271D01*
X412836Y264301D01*
X412784Y264311D01*
X413059D01*
X413059Y264325D01*
X413228Y264311D01*
D02*
G37*
G36*
X431083Y265650D02*
X434917D01*
X434743Y265638D01*
X434587Y265604D01*
X434449Y265546D01*
X434330Y265466D01*
X434229Y265362D01*
X434147Y265236D01*
X434083Y265086D01*
X434037Y264914D01*
X434009Y264719D01*
X434000Y264500D01*
X432000D01*
X431991Y264719D01*
X431963Y264914D01*
X431917Y265086D01*
X431853Y265236D01*
X431771Y265362D01*
X431670Y265466D01*
X431551Y265546D01*
X431413Y265604D01*
X431257Y265638D01*
X431083Y265650D01*
X431067Y265805D01*
X431021Y265945D01*
X430943Y266067D01*
X430835Y266174D01*
X430695Y266264D01*
X430524Y266337D01*
X430323Y266395D01*
X430090Y266436D01*
X429826Y266460D01*
X429531Y266469D01*
Y268468D01*
X429826Y268477D01*
X430090Y268501D01*
X430323Y268542D01*
X430524Y268600D01*
X430695Y268673D01*
X430835Y268763D01*
X430943Y268870D01*
X431021Y268992D01*
X431067Y269132D01*
X431083Y269287D01*
Y265650D01*
D02*
G37*
G36*
X424029Y321595D02*
X423959Y321657D01*
X423878Y321695D01*
X423787Y321708D01*
X423686Y321697D01*
X423573Y321661D01*
X423451Y321601D01*
X423317Y321516D01*
X423173Y321407D01*
X423019Y321273D01*
X422854Y321115D01*
X422147Y321822D01*
X422315Y321997D01*
X422577Y322315D01*
X422672Y322459D01*
X422742Y322591D01*
X422787Y322713D01*
X422809Y322825D01*
X422805Y322925D01*
X422777Y323016D01*
X422725Y323095D01*
X424029Y321595D01*
D02*
G37*
G36*
X412234Y271941D02*
X412334Y271434D01*
X412622Y271004D01*
X414483Y269143D01*
X414276Y268642D01*
X412787D01*
Y268843D01*
X411600D01*
Y268357D01*
X411630D01*
X411605Y268328D01*
X411600Y268319D01*
Y267989D01*
X411635Y267920D01*
X411676Y267870D01*
X411723Y267841D01*
X411775Y267830D01*
X411600D01*
Y266071D01*
Y263203D01*
X411767Y263000D01*
X411899Y262337D01*
X412274Y261774D01*
X412115Y261280D01*
X410600D01*
X410162Y261643D01*
X410233Y262000D01*
X410101Y262663D01*
X410010Y262799D01*
X410278Y263299D01*
X410400D01*
Y266071D01*
Y267830D01*
X410225D01*
X410277Y267841D01*
X410324Y267870D01*
X410365Y267920D01*
X410400Y267989D01*
Y268319D01*
X410395Y268328D01*
X410370Y268357D01*
X410400D01*
Y268843D01*
X409213D01*
Y268843D01*
X409013Y268642D01*
X407364D01*
X406990Y269143D01*
X407000Y269175D01*
X407507Y269275D01*
X407937Y269563D01*
X409378Y271004D01*
X409665Y271434D01*
X409766Y271941D01*
Y272358D01*
X412234D01*
Y271941D01*
D02*
G37*
G36*
X425036Y300725D02*
X425051Y300553D01*
X425076Y300401D01*
X425111Y300270D01*
X425156Y300158D01*
X425211Y300067D01*
X425277Y299996D01*
X425351Y299946D01*
X425436Y299915D01*
X425531Y299905D01*
X423531D01*
X423627Y299915D01*
X423711Y299946D01*
X423786Y299996D01*
X423851Y300067D01*
X423907Y300158D01*
X423951Y300270D01*
X423986Y300401D01*
X424012Y300553D01*
X424026Y300725D01*
X424031Y300917D01*
X425032D01*
X425036Y300725D01*
D02*
G37*
G36*
X385001Y272189D02*
X385021Y271936D01*
X385033Y271868D01*
X385047Y271807D01*
X385064Y271754D01*
X385083Y271709D01*
X385105Y271672D01*
X385130Y271643D01*
X383870D01*
X383895Y271672D01*
X383917Y271709D01*
X383936Y271754D01*
X383953Y271807D01*
X383967Y271868D01*
X383979Y271936D01*
X383995Y272097D01*
X383999Y272189D01*
X384000Y272288D01*
X385000D01*
X385001Y272189D01*
D02*
G37*
G36*
X409164Y273160D02*
X409117Y273130D01*
X409076Y273079D01*
X409040Y273009D01*
X409010Y272920D01*
X408985Y272810D01*
X408966Y272679D01*
X408952Y272530D01*
X408941Y272169D01*
X407941D01*
X407938Y272359D01*
X407916Y272679D01*
X407897Y272810D01*
X407872Y272920D01*
X407842Y273009D01*
X407806Y273079D01*
X407765Y273130D01*
X407718Y273160D01*
X407665Y273169D01*
X409216D01*
X409164Y273160D01*
D02*
G37*
G36*
X398500Y325346D02*
Y319000D01*
X399265Y318235D01*
X399354Y317788D01*
X399835Y317068D01*
X400556Y316586D01*
X401405Y316417D01*
X402255Y316586D01*
X402875Y317000D01*
X404533D01*
X405000Y316920D01*
Y314000D01*
Y303000D01*
X405500Y302500D01*
Y287000D01*
X393063D01*
Y294619D01*
X393058Y294644D01*
X393061Y294670D01*
X393053Y294806D01*
X393459Y295291D01*
X393509Y295306D01*
X395079D01*
Y302694D01*
X388913D01*
Y302000D01*
X386080D01*
X386013Y302013D01*
X386000Y302080D01*
Y309000D01*
Y318420D01*
X386013Y318487D01*
X386080Y318500D01*
X387401D01*
X387543Y317788D01*
X388024Y317068D01*
X388745Y316586D01*
X389595Y316417D01*
X390444Y316586D01*
X391165Y317068D01*
X391646Y317788D01*
X391815Y318638D01*
Y320374D01*
X391940Y321000D01*
Y326095D01*
X392036Y326166D01*
X392296Y326332D01*
X392552Y326469D01*
X392625Y326500D01*
X398500D01*
Y325346D01*
D02*
G37*
G36*
X414282Y273160D02*
X414235Y273130D01*
X414194Y273079D01*
X414158Y273009D01*
X414128Y272920D01*
X414103Y272810D01*
X414084Y272679D01*
X414070Y272530D01*
X414059Y272169D01*
X413059D01*
X413056Y272359D01*
X413034Y272679D01*
X413015Y272810D01*
X412990Y272920D01*
X412960Y273009D01*
X412924Y273079D01*
X412883Y273130D01*
X412836Y273160D01*
X412784Y273169D01*
X414334D01*
X414282Y273160D01*
D02*
G37*
G36*
X360415Y320437D02*
X360446Y320352D01*
X360496Y320276D01*
X360567Y320212D01*
X360658Y320157D01*
X360770Y320111D01*
X360901Y320076D01*
X361053Y320052D01*
X361074Y320050D01*
X361086Y320051D01*
X361155Y320062D01*
X361215Y320075D01*
X361268Y320091D01*
X361313Y320109D01*
X361350Y320129D01*
X361380Y320152D01*
X362000Y319544D01*
X361336Y318893D01*
X361306Y318919D01*
X361269Y318943D01*
X361224Y318964D01*
X361172Y318982D01*
X361111Y318997D01*
X361043Y319009D01*
X361041Y319009D01*
X360901Y318987D01*
X360770Y318952D01*
X360658Y318906D01*
X360567Y318851D01*
X360496Y318787D01*
X360446Y318711D01*
X360415Y318626D01*
X360405Y318531D01*
Y320532D01*
X360415Y320437D01*
D02*
G37*
G36*
X363095Y320036D02*
X363266Y320031D01*
X363308Y319032D01*
X363209Y319030D01*
X363095Y319021D01*
Y318531D01*
X363085Y318626D01*
X363054Y318711D01*
X363004Y318787D01*
X362933Y318851D01*
X362842Y318906D01*
X362741Y318947D01*
X362731Y318943D01*
X362694Y318919D01*
X362664Y318893D01*
X362563Y318992D01*
X362447Y319011D01*
X362275Y319026D01*
X362083Y319032D01*
Y319463D01*
X362000Y319544D01*
X362083Y319625D01*
Y320031D01*
X362275Y320037D01*
X362447Y320052D01*
X362532Y320065D01*
X362620Y320152D01*
X362650Y320129D01*
X362687Y320109D01*
X362700Y320103D01*
X362731Y320111D01*
X362842Y320157D01*
X362933Y320212D01*
X363004Y320276D01*
X363054Y320352D01*
X363085Y320437D01*
X363095Y320532D01*
Y320036D01*
D02*
G37*
G36*
X385105Y270328D02*
X385083Y270291D01*
X385064Y270246D01*
X385047Y270193D01*
X385033Y270132D01*
X385021Y270064D01*
X385005Y269903D01*
X385001Y269811D01*
X385000Y269712D01*
X384000D01*
X383999Y269811D01*
X383979Y270064D01*
X383967Y270132D01*
X383953Y270193D01*
X383936Y270246D01*
X383917Y270291D01*
X383895Y270328D01*
X383870Y270357D01*
X385130D01*
X385105Y270328D01*
D02*
G37*
G36*
X388541Y331631D02*
X388864Y331605D01*
X389096Y331533D01*
X389305Y331072D01*
X389284Y330931D01*
X389222Y330683D01*
X389133Y330428D01*
X389015Y330167D01*
X388868Y329899D01*
X388689Y329624D01*
X388478Y329342D01*
X388385Y329233D01*
X387936Y328784D01*
X387428Y328023D01*
X387249Y327126D01*
Y321000D01*
X387374Y320374D01*
Y319316D01*
X386080D01*
X385841Y319713D01*
X385825Y319790D01*
Y330951D01*
X386518Y331643D01*
X387994D01*
X388541Y331631D01*
D02*
G37*
G36*
X419365Y271828D02*
X419343Y271791D01*
X419323Y271746D01*
X419307Y271693D01*
X419292Y271632D01*
X419281Y271564D01*
X419265Y271403D01*
X419261Y271311D01*
X419260Y271212D01*
X418260D01*
X418258Y271311D01*
X418239Y271564D01*
X418227Y271632D01*
X418213Y271693D01*
X418196Y271746D01*
X418177Y271791D01*
X418154Y271828D01*
X418130Y271857D01*
X419390D01*
X419365Y271828D01*
D02*
G37*
G36*
X365583Y269413D02*
X365573Y269508D01*
X365543Y269593D01*
X365492Y269668D01*
X365421Y269733D01*
X365330Y269788D01*
X365219Y269833D01*
X365087Y269868D01*
X364935Y269893D01*
X364763Y269908D01*
X364736Y269909D01*
X364523Y269893D01*
X364455Y269881D01*
X364394Y269867D01*
X364341Y269850D01*
X364296Y269830D01*
X364259Y269808D01*
X364229Y269783D01*
Y271043D01*
X364259Y271019D01*
X364296Y270997D01*
X364341Y270977D01*
X364394Y270960D01*
X364455Y270946D01*
X364523Y270934D01*
X364683Y270919D01*
X364717Y270917D01*
X364763Y270918D01*
X364935Y270933D01*
X365087Y270958D01*
X365219Y270993D01*
X365330Y271038D01*
X365421Y271093D01*
X365492Y271158D01*
X365543Y271233D01*
X365573Y271318D01*
X365583Y271413D01*
Y269413D01*
D02*
G37*
G36*
X428005Y256296D02*
X428020Y256124D01*
X428045Y255972D01*
X428080Y255840D01*
X428125Y255729D01*
X428180Y255638D01*
X428245Y255567D01*
X428320Y255517D01*
X428405Y255486D01*
X428500Y255476D01*
X426500D01*
X426595Y255486D01*
X426680Y255517D01*
X426755Y255567D01*
X426820Y255638D01*
X426875Y255729D01*
X426920Y255840D01*
X426955Y255972D01*
X426980Y256124D01*
X426995Y256296D01*
X427000Y256488D01*
X428000D01*
X428005Y256296D01*
D02*
G37*
G36*
X389015Y256928D02*
X389060Y256416D01*
X389134Y255964D01*
X389239Y255573D01*
X389373Y255241D01*
X389537Y254970D01*
X389731Y254759D01*
X389955Y254609D01*
X390209Y254518D01*
X390492Y254488D01*
X384508D01*
X384791Y254518D01*
X385045Y254609D01*
X385269Y254759D01*
X385463Y254970D01*
X385627Y255241D01*
X385761Y255573D01*
X385866Y255964D01*
X385940Y256416D01*
X385985Y256928D01*
X386000Y257500D01*
X389000D01*
X389015Y256928D01*
D02*
G37*
G36*
X418405Y329157D02*
X418320Y329141D01*
X418245Y329115D01*
X418180Y329078D01*
X418125Y329031D01*
X418080Y328973D01*
X418045Y328905D01*
X418020Y328826D01*
X418005Y328737D01*
X418000Y328638D01*
X417000D01*
X416995Y328737D01*
X416980Y328826D01*
X416955Y328905D01*
X416920Y328973D01*
X416875Y329031D01*
X416820Y329078D01*
X416755Y329115D01*
X416680Y329141D01*
X416595Y329157D01*
X416500Y329162D01*
X418500D01*
X418405Y329157D01*
D02*
G37*
G36*
X363905Y257632D02*
X363820Y257602D01*
X363745Y257551D01*
X363680Y257480D01*
X363625Y257389D01*
X363580Y257278D01*
X363545Y257146D01*
X363520Y256994D01*
X363505Y256822D01*
X363500Y256630D01*
X362500D01*
X362495Y256822D01*
X362480Y256994D01*
X362455Y257146D01*
X362420Y257278D01*
X362375Y257389D01*
X362320Y257480D01*
X362255Y257551D01*
X362180Y257602D01*
X362095Y257632D01*
X362000Y257642D01*
X364000D01*
X363905Y257632D01*
D02*
G37*
G36*
X393787Y327583D02*
X393465Y327568D01*
X393145Y327522D01*
X392827Y327446D01*
X392511Y327340D01*
X392197Y327203D01*
X391885Y327037D01*
X391574Y326839D01*
X391266Y326612D01*
X390960Y326354D01*
X390655Y326065D01*
X388534Y328187D01*
X388841Y328510D01*
X389116Y328833D01*
X389358Y329156D01*
X389568Y329479D01*
X389746Y329802D01*
X389891Y330125D01*
X390004Y330448D01*
X390085Y330771D01*
X390134Y331094D01*
X390150Y331417D01*
X393787Y327583D01*
D02*
G37*
G36*
X362509Y247500D02*
X362498Y247595D01*
X362468Y247680D01*
X362418Y247755D01*
X362347Y247820D01*
X362256Y247875D01*
X362144Y247920D01*
X362013Y247955D01*
X361861Y247980D01*
X361689Y247995D01*
X361497Y248000D01*
Y249000D01*
X361689Y249005D01*
X361861Y249020D01*
X362013Y249045D01*
X362144Y249080D01*
X362256Y249125D01*
X362347Y249180D01*
X362418Y249245D01*
X362468Y249320D01*
X362498Y249405D01*
X362509Y249500D01*
Y247500D01*
D02*
G37*
G36*
X359005Y300158D02*
X359020Y299986D01*
X359045Y299834D01*
X359080Y299703D01*
X359125Y299591D01*
X359180Y299500D01*
X359245Y299429D01*
X359320Y299379D01*
X359405Y299348D01*
X359500Y299338D01*
X357500D01*
X357595Y299348D01*
X357680Y299379D01*
X357755Y299429D01*
X357820Y299500D01*
X357875Y299591D01*
X357920Y299703D01*
X357955Y299834D01*
X357980Y299986D01*
X357995Y300158D01*
X358000Y300350D01*
X359000D01*
X359005Y300158D01*
D02*
G37*
G36*
X418951Y302311D02*
X419216D01*
X419164Y302301D01*
X419117Y302271D01*
X419076Y302221D01*
X419040Y302151D01*
X419010Y302061D01*
X419009Y302057D01*
X419031Y301990D01*
X419101Y301860D01*
X419191Y301750D01*
X419301Y301660D01*
X419431Y301590D01*
X419581Y301540D01*
X419751Y301510D01*
X419941Y301500D01*
Y300500D01*
X419751Y300490D01*
X419581Y300460D01*
X419431Y300410D01*
X419301Y300340D01*
X419191Y300250D01*
X419101Y300140D01*
X419090Y300119D01*
X419121Y300067D01*
X419186Y299996D01*
X419261Y299946D01*
X419346Y299915D01*
X419441Y299905D01*
X418996D01*
X418981Y299860D01*
X418951Y299690D01*
X418941Y299500D01*
X418671Y299905D01*
X417441D01*
X417536Y299915D01*
X417621Y299946D01*
X417696Y299996D01*
X417761Y300067D01*
X417816Y300158D01*
X417861Y300270D01*
X417896Y300401D01*
X417921Y300553D01*
X417936Y300725D01*
X417941Y300917D01*
X417996D01*
X417941Y301000D01*
X418148Y301311D01*
X417941D01*
X417938Y301501D01*
X417916Y301821D01*
X417897Y301951D01*
X417872Y302061D01*
X417842Y302151D01*
X417806Y302221D01*
X417765Y302271D01*
X417718Y302301D01*
X417665Y302311D01*
X418815D01*
X418941Y302500D01*
X418951Y302311D01*
D02*
G37*
G36*
X426348Y298905D02*
X426379Y298820D01*
X426429Y298745D01*
X426500Y298680D01*
X426591Y298625D01*
X426702Y298580D01*
X426753Y298567D01*
X426791Y298583D01*
X426828Y298605D01*
X426857Y298630D01*
Y298541D01*
X426986Y298520D01*
X427158Y298505D01*
X427350Y298500D01*
Y297500D01*
X427158Y297495D01*
X426986Y297480D01*
X426857Y297459D01*
Y297370D01*
X426828Y297395D01*
X426791Y297417D01*
X426753Y297433D01*
X426702Y297420D01*
X426591Y297375D01*
X426500Y297320D01*
X426429Y297255D01*
X426379Y297180D01*
X426348Y297095D01*
X426338Y297000D01*
Y297498D01*
X426311Y297499D01*
X426212Y297500D01*
Y298500D01*
X426311Y298501D01*
X426338Y298503D01*
Y299000D01*
X426348Y298905D01*
D02*
G37*
G36*
X368403Y241611D02*
X368318Y241579D01*
X368244Y241524D01*
X368179Y241448D01*
X368124Y241351D01*
X368080Y241231D01*
X368045Y241090D01*
X368020Y240927D01*
X368005Y240742D01*
X368000Y240536D01*
X367000D01*
X366995Y240742D01*
X366980Y240927D01*
X366955Y241090D01*
X366920Y241231D01*
X366876Y241351D01*
X366821Y241448D01*
X366756Y241524D01*
X366682Y241579D01*
X366597Y241611D01*
X366503Y241622D01*
X368497D01*
X368403Y241611D01*
D02*
G37*
G36*
X426405Y329157D02*
X426320Y329141D01*
X426245Y329115D01*
X426180Y329078D01*
X426125Y329031D01*
X426080Y328973D01*
X426045Y328905D01*
X426020Y328826D01*
X426005Y328737D01*
X426000Y328638D01*
X425000D01*
X424995Y328737D01*
X424980Y328826D01*
X424955Y328905D01*
X424920Y328973D01*
X424875Y329031D01*
X424820Y329078D01*
X424755Y329115D01*
X424680Y329141D01*
X424595Y329157D01*
X424500Y329162D01*
X426500D01*
X426405Y329157D01*
D02*
G37*
G36*
X408170Y258000D02*
X408159Y258095D01*
X408129Y258180D01*
X408079Y258255D01*
X408008Y258320D01*
X407917Y258375D01*
X407805Y258420D01*
X407674Y258455D01*
X407522Y258480D01*
X407350Y258495D01*
X407158Y258500D01*
Y259500D01*
X407350Y259505D01*
X407522Y259520D01*
X407674Y259545D01*
X407805Y259580D01*
X407917Y259625D01*
X408008Y259680D01*
X408079Y259745D01*
X408129Y259820D01*
X408159Y259905D01*
X408170Y260000D01*
Y258000D01*
D02*
G37*
G36*
X394727Y263062D02*
X394672Y262998D01*
X394625Y262893D01*
X394583Y262745D01*
X394548Y262554D01*
X394519Y262322D01*
X394481Y261730D01*
X394468Y260968D01*
X391469D01*
X391465Y261370D01*
X391389Y262554D01*
X391354Y262745D01*
X391312Y262893D01*
X391265Y262998D01*
X391210Y263062D01*
X391150Y263083D01*
X394787D01*
X394727Y263062D01*
D02*
G37*
G36*
X380537Y261727D02*
X380552Y261557D01*
X380576Y261407D01*
X380611Y261277D01*
X380657Y261167D01*
X380712Y261077D01*
X380777Y261007D01*
X380852Y260957D01*
X380937Y260927D01*
X381031Y260917D01*
X379031D01*
X379127Y260927D01*
X379211Y260957D01*
X379287Y261007D01*
X379351Y261077D01*
X379406Y261167D01*
X379451Y261277D01*
X379486Y261407D01*
X379511Y261557D01*
X379526Y261727D01*
X379532Y261917D01*
X380532D01*
X380537Y261727D01*
D02*
G37*
G36*
X367911Y298436D02*
X367928Y298352D01*
X367956Y298276D01*
X367995Y298212D01*
X368046Y298156D01*
X368108Y298112D01*
X368181Y298077D01*
X368266Y298052D01*
X368361Y298037D01*
X368468Y298031D01*
Y297031D01*
X368361Y297026D01*
X368266Y297011D01*
X368181Y296987D01*
X368108Y296952D01*
X368046Y296906D01*
X367995Y296851D01*
X367956Y296786D01*
X367928Y296711D01*
X367911Y296626D01*
X367905Y296532D01*
Y298532D01*
X367911Y298436D01*
D02*
G37*
G36*
X409164Y264301D02*
X409117Y264271D01*
X409076Y264221D01*
X409040Y264151D01*
X409010Y264061D01*
X408985Y263951D01*
X408966Y263821D01*
X408952Y263671D01*
X408941Y263316D01*
X408942Y263225D01*
X408964Y262974D01*
X408977Y262906D01*
X408993Y262845D01*
X409012Y262793D01*
X409034Y262748D01*
X409059Y262712D01*
X409087Y262683D01*
X407829Y262600D01*
X407850Y262629D01*
X407869Y262666D01*
X407886Y262711D01*
X407901Y262763D01*
X407913Y262824D01*
X407923Y262892D01*
X407936Y263053D01*
X407941Y263245D01*
X408772Y263311D01*
X407941D01*
X407938Y263501D01*
X407916Y263821D01*
X407897Y263951D01*
X407872Y264061D01*
X407842Y264151D01*
X407806Y264221D01*
X407765Y264271D01*
X407718Y264301D01*
X407665Y264311D01*
X409216D01*
X409164Y264301D01*
D02*
G37*
G36*
X377883Y323863D02*
X378246Y323555D01*
X378408Y323442D01*
X378556Y323356D01*
X378691Y323298D01*
X378812Y323267D01*
X378920Y323264D01*
X379014Y323287D01*
X379096Y323338D01*
X377595Y322034D01*
X377655Y322107D01*
X377685Y322194D01*
X377686Y322297D01*
X377658Y322416D01*
X377601Y322550D01*
X377515Y322699D01*
X377399Y322863D01*
X377254Y323043D01*
X376876Y323449D01*
X377681Y324057D01*
X377883Y323863D01*
D02*
G37*
G36*
X374624Y323449D02*
X374421Y323238D01*
X374101Y322863D01*
X373986Y322699D01*
X373899Y322550D01*
X373842Y322416D01*
X373814Y322297D01*
X373815Y322194D01*
X373845Y322107D01*
X373905Y322034D01*
X372405Y323338D01*
X372486Y323287D01*
X372580Y323264D01*
X372688Y323267D01*
X372809Y323298D01*
X372944Y323356D01*
X373092Y323442D01*
X373254Y323555D01*
X373429Y323695D01*
X373819Y324057D01*
X374624Y323449D01*
D02*
G37*
G36*
X434857Y258370D02*
X434828Y258395D01*
X434791Y258417D01*
X434746Y258436D01*
X434693Y258453D01*
X434632Y258468D01*
X434564Y258479D01*
X434403Y258495D01*
X434311Y258499D01*
X434212Y258500D01*
Y259500D01*
X434311Y259501D01*
X434564Y259521D01*
X434632Y259532D01*
X434693Y259547D01*
X434746Y259564D01*
X434791Y259583D01*
X434828Y259605D01*
X434857Y259630D01*
Y258370D01*
D02*
G37*
G36*
X381848Y259905D02*
X381879Y259820D01*
X381929Y259745D01*
X382000Y259680D01*
X382091Y259625D01*
X382203Y259580D01*
X382334Y259545D01*
X382486Y259520D01*
X382658Y259505D01*
X382850Y259500D01*
Y258500D01*
X382658Y258495D01*
X382486Y258480D01*
X382334Y258455D01*
X382203Y258420D01*
X382091Y258375D01*
X382000Y258320D01*
X381929Y258255D01*
X381879Y258180D01*
X381848Y258095D01*
X381838Y258000D01*
Y260000D01*
X381848Y259905D01*
D02*
G37*
G36*
X405037Y260816D02*
X404938Y260674D01*
X404867Y260533D01*
X404825Y260391D01*
X404811Y260250D01*
X404825Y260109D01*
X404867Y259967D01*
X404938Y259826D01*
X405037Y259684D01*
X405164Y259543D01*
X404457Y258836D01*
X404316Y258963D01*
X404174Y259062D01*
X404033Y259133D01*
X403891Y259175D01*
X403750Y259189D01*
X403609Y259175D01*
X403467Y259133D01*
X403326Y259062D01*
X403184Y258963D01*
X403043Y258836D01*
X403750Y260250D01*
X405164Y260957D01*
X405037Y260816D01*
D02*
G37*
G36*
X418973Y326225D02*
X418989Y326053D01*
X419014Y325901D01*
X419049Y325769D01*
X419094Y325658D01*
X419148Y325567D01*
X419213Y325496D01*
X419288Y325446D01*
X419374Y325415D01*
X419468Y325405D01*
X417469D01*
X417563Y325415D01*
X417649Y325446D01*
X417724Y325496D01*
X417789Y325567D01*
X417843Y325658D01*
X417888Y325769D01*
X417923Y325901D01*
X417948Y326053D01*
X417964Y326225D01*
X417969Y326417D01*
X418968D01*
X418973Y326225D01*
D02*
G37*
G36*
X425036D02*
X425051Y326053D01*
X425076Y325901D01*
X425111Y325769D01*
X425156Y325658D01*
X425211Y325567D01*
X425277Y325496D01*
X425351Y325446D01*
X425436Y325415D01*
X425531Y325405D01*
X423531D01*
X423627Y325415D01*
X423711Y325446D01*
X423786Y325496D01*
X423851Y325567D01*
X423907Y325658D01*
X423951Y325769D01*
X423986Y325901D01*
X424012Y326053D01*
X424026Y326225D01*
X424031Y326417D01*
X425032D01*
X425036Y326225D01*
D02*
G37*
G36*
X424062Y315104D02*
X424070Y315017D01*
X424084Y314940D01*
X424103Y314873D01*
X424128Y314817D01*
X424158Y314771D01*
X424194Y314735D01*
X424235Y314709D01*
X424282Y314694D01*
X424334Y314689D01*
X422784D01*
X422836Y314694D01*
X422883Y314709D01*
X422924Y314735D01*
X422960Y314771D01*
X422990Y314817D01*
X423015Y314873D01*
X423034Y314940D01*
X423048Y315017D01*
X423056Y315104D01*
X423059Y315201D01*
X424059D01*
X424062Y315104D01*
D02*
G37*
G36*
X424282Y302308D02*
X424235Y302296D01*
X424194Y302278D01*
X424158Y302252D01*
X424128Y302219D01*
X424103Y302178D01*
X424084Y302130D01*
X424070Y302074D01*
X424062Y302011D01*
X424059Y301941D01*
X423059D01*
X423056Y302011D01*
X423048Y302074D01*
X423034Y302130D01*
X423015Y302178D01*
X422990Y302219D01*
X422960Y302252D01*
X422924Y302278D01*
X422883Y302296D01*
X422836Y302308D01*
X422784Y302311D01*
X424334D01*
X424282Y302308D01*
D02*
G37*
G36*
X421723Y302303D02*
X421676Y302279D01*
X421635Y302238D01*
X421599Y302181D01*
X421569Y302108D01*
X421544Y302019D01*
X421525Y301914D01*
X421511Y301792D01*
X421503Y301654D01*
X421500Y301500D01*
X420500D01*
X420497Y301654D01*
X420475Y301914D01*
X420456Y302019D01*
X420431Y302108D01*
X420401Y302181D01*
X420365Y302238D01*
X420324Y302279D01*
X420277Y302303D01*
X420225Y302311D01*
X421775D01*
X421723Y302303D01*
D02*
G37*
G36*
X416662Y289500D02*
X416652Y289595D01*
X416621Y289680D01*
X416571Y289755D01*
X416500Y289820D01*
X416409Y289875D01*
X416297Y289920D01*
X416166Y289955D01*
X416014Y289980D01*
X415842Y289995D01*
X415650Y290000D01*
Y291000D01*
X415842Y291005D01*
X416014Y291020D01*
X416166Y291045D01*
X416297Y291080D01*
X416409Y291125D01*
X416500Y291180D01*
X416571Y291245D01*
X416621Y291320D01*
X416652Y291405D01*
X416662Y291500D01*
Y289500D01*
D02*
G37*
G36*
X385000Y303000D02*
X384000Y301500D01*
X383990Y301690D01*
X383960Y301860D01*
X383910Y302010D01*
X383840Y302140D01*
X383750Y302250D01*
X383640Y302340D01*
X383510Y302410D01*
X383360Y302460D01*
X383190Y302490D01*
X383122Y302494D01*
X382936Y302479D01*
X382868Y302467D01*
X382807Y302453D01*
X382754Y302436D01*
X382709Y302417D01*
X382672Y302395D01*
X382643Y302370D01*
Y303630D01*
X382672Y303605D01*
X382709Y303583D01*
X382754Y303564D01*
X382807Y303547D01*
X382868Y303533D01*
X382936Y303521D01*
X383097Y303505D01*
X383098Y303505D01*
X383190Y303510D01*
X383360Y303540D01*
X383510Y303590D01*
X383640Y303660D01*
X383750Y303750D01*
X383840Y303860D01*
X383910Y303990D01*
X383960Y304140D01*
X383990Y304310D01*
X384000Y304500D01*
X385000Y303000D01*
D02*
G37*
G36*
X366848Y305676D02*
X366879Y305591D01*
X366929Y305516D01*
X367000Y305451D01*
X367091Y305396D01*
X367202Y305351D01*
X367334Y305316D01*
X367486Y305291D01*
X367658Y305276D01*
X367850Y305271D01*
Y304271D01*
X367658Y304266D01*
X367486Y304251D01*
X367334Y304226D01*
X367202Y304191D01*
X367091Y304146D01*
X367000Y304091D01*
X366929Y304026D01*
X366879Y303951D01*
X366848Y303866D01*
X366838Y303771D01*
Y305771D01*
X366848Y305676D01*
D02*
G37*
G36*
X374723Y307516D02*
X374695Y307425D01*
X374692Y307325D01*
X374713Y307213D01*
X374758Y307091D01*
X374828Y306959D01*
X374923Y306815D01*
X375042Y306662D01*
X375185Y306497D01*
X375354Y306322D01*
X374646Y305615D01*
X374481Y305773D01*
X374183Y306016D01*
X374049Y306101D01*
X373927Y306161D01*
X373815Y306197D01*
X373713Y306208D01*
X373622Y306195D01*
X373541Y306157D01*
X373471Y306095D01*
X374775Y307595D01*
X374723Y307516D01*
D02*
G37*
G36*
X385000Y283500D02*
X384000Y282000D01*
X383990Y282190D01*
X383960Y282360D01*
X383910Y282510D01*
X383840Y282640D01*
X383750Y282750D01*
X383640Y282840D01*
X383510Y282910D01*
X383360Y282960D01*
X383190Y282990D01*
X383000Y283000D01*
Y284000D01*
X383190Y284010D01*
X383360Y284040D01*
X383510Y284090D01*
X383640Y284160D01*
X383750Y284250D01*
X383840Y284360D01*
X383910Y284490D01*
X383960Y284640D01*
X383990Y284810D01*
X384000Y285000D01*
X385000Y283500D01*
D02*
G37*
G36*
X359473Y307725D02*
X359489Y307553D01*
X359513Y307401D01*
X359548Y307270D01*
X359594Y307158D01*
X359648Y307067D01*
X359714Y306996D01*
X359788Y306946D01*
X359874Y306915D01*
X359968Y306905D01*
X357968D01*
X358064Y306915D01*
X358149Y306946D01*
X358224Y306996D01*
X358289Y307067D01*
X358344Y307158D01*
X358388Y307270D01*
X358423Y307401D01*
X358449Y307553D01*
X358464Y307725D01*
X358469Y307917D01*
X359469D01*
X359473Y307725D01*
D02*
G37*
G36*
X378529Y306095D02*
X378459Y306157D01*
X378378Y306195D01*
X378287Y306208D01*
X378186Y306197D01*
X378073Y306161D01*
X377951Y306101D01*
X377817Y306016D01*
X377673Y305907D01*
X377519Y305773D01*
X377354Y305615D01*
X376646Y306322D01*
X376815Y306497D01*
X377077Y306815D01*
X377172Y306959D01*
X377242Y307091D01*
X377287Y307213D01*
X377309Y307325D01*
X377305Y307425D01*
X377277Y307516D01*
X377225Y307595D01*
X378529Y306095D01*
D02*
G37*
G36*
X367920Y284531D02*
Y283531D01*
X367920Y283526D01*
X367919Y283511D01*
X367917Y283032D01*
Y285032D01*
X367920Y284531D01*
D02*
G37*
G36*
X381348Y284405D02*
X381379Y284320D01*
X381429Y284245D01*
X381500Y284180D01*
X381591Y284125D01*
X381702Y284080D01*
X381834Y284045D01*
X381986Y284020D01*
X382158Y284005D01*
X382350Y284000D01*
Y283000D01*
X382158Y282995D01*
X381986Y282980D01*
X381834Y282955D01*
X381702Y282920D01*
X381591Y282875D01*
X381500Y282820D01*
X381429Y282755D01*
X381379Y282680D01*
X381348Y282595D01*
X381338Y282500D01*
Y284500D01*
X381348Y284405D01*
D02*
G37*
G36*
X425036Y285725D02*
X425051Y285553D01*
X425076Y285401D01*
X425111Y285269D01*
X425156Y285158D01*
X425211Y285067D01*
X425277Y284996D01*
X425351Y284946D01*
X425436Y284915D01*
X425531Y284905D01*
X423531D01*
X423627Y284915D01*
X423711Y284946D01*
X423786Y284996D01*
X423851Y285067D01*
X423907Y285158D01*
X423951Y285269D01*
X423986Y285401D01*
X424012Y285553D01*
X424026Y285725D01*
X424031Y285917D01*
X425032D01*
X425036Y285725D01*
D02*
G37*
G36*
X425436Y288573D02*
X425351Y288543D01*
X425277Y288493D01*
X425211Y288423D01*
X425156Y288333D01*
X425111Y288223D01*
X425076Y288093D01*
X425051Y287943D01*
X425036Y287773D01*
X425032Y287583D01*
X424031D01*
X424026Y287773D01*
X424012Y287943D01*
X423986Y288093D01*
X423951Y288223D01*
X423907Y288333D01*
X423851Y288423D01*
X423786Y288493D01*
X423711Y288543D01*
X423627Y288573D01*
X423531Y288583D01*
X425531D01*
X425436Y288573D01*
D02*
G37*
G36*
X379271Y287803D02*
X379214Y287779D01*
X379164Y287738D01*
X379120Y287681D01*
X379084Y287608D01*
X379053Y287519D01*
X379030Y287414D01*
X379013Y287292D01*
X379003Y287154D01*
X379000Y287000D01*
X378000D01*
X377998Y287154D01*
X377980Y287414D01*
X377965Y287519D01*
X377946Y287608D01*
X377922Y287681D01*
X377894Y287738D01*
X377861Y287779D01*
X377825Y287803D01*
X377784Y287811D01*
X379334D01*
X379271Y287803D01*
D02*
G37*
G36*
X359874Y303077D02*
X359788Y303058D01*
X359714Y303028D01*
X359648Y302985D01*
X359594Y302929D01*
X359548Y302862D01*
X359513Y302782D01*
X359489Y302690D01*
X359473Y302585D01*
X359469Y302468D01*
X358469D01*
X358464Y302585D01*
X358449Y302690D01*
X358423Y302782D01*
X358388Y302862D01*
X358344Y302929D01*
X358289Y302985D01*
X358224Y303028D01*
X358149Y303058D01*
X358064Y303077D01*
X357968Y303083D01*
X359968D01*
X359874Y303077D01*
D02*
G37*
G36*
X366905Y289652D02*
X366820Y289621D01*
X366745Y289571D01*
X366680Y289500D01*
X366625Y289409D01*
X366580Y289298D01*
X366545Y289166D01*
X366520Y289014D01*
X366505Y288842D01*
X366500Y288650D01*
X365500D01*
X365495Y288842D01*
X365480Y289014D01*
X365455Y289166D01*
X365420Y289298D01*
X365375Y289409D01*
X365320Y289500D01*
X365255Y289571D01*
X365180Y289621D01*
X365095Y289652D01*
X365000Y289662D01*
X367000D01*
X366905Y289652D01*
D02*
G37*
G36*
X370857Y302370D02*
X370831Y302395D01*
X370802Y302417D01*
X370772Y302436D01*
X370739Y302453D01*
X370704Y302467D01*
X370668Y302479D01*
X370629Y302488D01*
X370588Y302495D01*
X370545Y302499D01*
X370500Y302500D01*
Y303500D01*
X370545Y303501D01*
X370588Y303505D01*
X370629Y303512D01*
X370668Y303521D01*
X370704Y303533D01*
X370739Y303547D01*
X370772Y303564D01*
X370802Y303583D01*
X370831Y303605D01*
X370857Y303630D01*
Y302370D01*
D02*
G37*
G36*
X374164Y287801D02*
X374117Y287771D01*
X374076Y287721D01*
X374040Y287651D01*
X374010Y287561D01*
X373985Y287451D01*
X373966Y287321D01*
X373952Y287171D01*
X373941Y286811D01*
X372941D01*
X372938Y287001D01*
X372916Y287321D01*
X372897Y287451D01*
X372872Y287561D01*
X372842Y287651D01*
X372806Y287721D01*
X372765Y287771D01*
X372718Y287801D01*
X372666Y287811D01*
X374216D01*
X374164Y287801D01*
D02*
G37*
G36*
X373946Y286225D02*
X373961Y286053D01*
X373986Y285901D01*
X374021Y285770D01*
X374066Y285658D01*
X374121Y285567D01*
X374186Y285496D01*
X374261Y285446D01*
X374346Y285415D01*
X374441Y285405D01*
X372441D01*
X372536Y285415D01*
X372621Y285446D01*
X372696Y285496D01*
X372761Y285567D01*
X372816Y285658D01*
X372861Y285770D01*
X372896Y285901D01*
X372921Y286053D01*
X372936Y286225D01*
X372941Y286417D01*
X373941D01*
X373946Y286225D01*
D02*
G37*
G36*
X390909Y333480D02*
X391032Y333489D01*
X391101Y333501D01*
X391161Y333515D01*
X391214Y333532D01*
X391259Y333552D01*
X391296Y333574D01*
X391326Y333598D01*
Y332968D01*
X393468D01*
X393472Y332674D01*
X393519Y331976D01*
X393548Y331805D01*
X393583Y331665D01*
X393625Y331557D01*
X393672Y331479D01*
X393727Y331433D01*
X393787Y331417D01*
X390150D01*
X390210Y331433D01*
X390265Y331479D01*
X390312Y331557D01*
X390354Y331665D01*
X390389Y331805D01*
X390418Y331976D01*
X390439Y332168D01*
X390371Y332193D01*
X390102Y332266D01*
X389789Y332328D01*
X389431Y332379D01*
X388582Y332446D01*
X387554Y332469D01*
Y333469D01*
X388090Y333474D01*
X389789Y333609D01*
X390102Y333671D01*
X390371Y333744D01*
X390595Y333828D01*
X390774Y333923D01*
X390909Y334030D01*
Y333480D01*
D02*
G37*
G36*
X380036Y285861D02*
X380051Y285766D01*
X380077Y285681D01*
X380112Y285608D01*
X380156Y285546D01*
X380211Y285495D01*
X380276Y285456D01*
X380351Y285428D01*
X380436Y285411D01*
X380532Y285405D01*
X378532D01*
X378626Y285411D01*
X378712Y285428D01*
X378786Y285456D01*
X378852Y285495D01*
X378906Y285546D01*
X378952Y285608D01*
X378987Y285681D01*
X379012Y285766D01*
X379027Y285861D01*
X379031Y285968D01*
X380031D01*
X380036Y285861D01*
D02*
G37*
G36*
X366505Y286658D02*
X366520Y286486D01*
X366545Y286334D01*
X366580Y286203D01*
X366625Y286091D01*
X366680Y286000D01*
X366745Y285929D01*
X366820Y285879D01*
X366905Y285848D01*
X367000Y285838D01*
X365000D01*
X365095Y285848D01*
X365180Y285879D01*
X365255Y285929D01*
X365320Y286000D01*
X365375Y286091D01*
X365420Y286203D01*
X365455Y286334D01*
X365480Y286486D01*
X365495Y286658D01*
X365500Y286850D01*
X366500D01*
X366505Y286658D01*
D02*
G37*
G36*
X370766Y286140D02*
X370754Y286134D01*
X370735Y286120D01*
X370710Y286099D01*
X370593Y285992D01*
X370342Y285747D01*
X369343Y286161D01*
X369412Y286233D01*
X369524Y286365D01*
X369567Y286426D01*
X369601Y286483D01*
X369627Y286537D01*
X369645Y286587D01*
X369654Y286634D01*
X369654Y286677D01*
X369646Y286717D01*
X370766Y286140D01*
D02*
G37*
G36*
X359405Y276152D02*
X359320Y276121D01*
X359245Y276071D01*
X359180Y276000D01*
X359125Y275909D01*
X359080Y275798D01*
X359045Y275666D01*
X359020Y275514D01*
X359005Y275342D01*
X359000Y275150D01*
X358000D01*
X357995Y275342D01*
X357980Y275514D01*
X357955Y275666D01*
X357920Y275798D01*
X357875Y275909D01*
X357820Y276000D01*
X357755Y276071D01*
X357680Y276121D01*
X357595Y276152D01*
X357500Y276162D01*
X359500D01*
X359405Y276152D01*
D02*
G37*
G36*
X379096Y313662D02*
X379014Y313713D01*
X378920Y313737D01*
X378812Y313733D01*
X378691Y313702D01*
X378556Y313644D01*
X378408Y313558D01*
X378246Y313445D01*
X378071Y313305D01*
X377681Y312943D01*
X376876Y313551D01*
X377079Y313762D01*
X377399Y314137D01*
X377515Y314301D01*
X377601Y314451D01*
X377658Y314584D01*
X377686Y314703D01*
X377685Y314806D01*
X377655Y314893D01*
X377595Y314966D01*
X379096Y313662D01*
D02*
G37*
G36*
X411503Y277499D02*
X411525Y277179D01*
X411544Y277049D01*
X411569Y276939D01*
X411599Y276849D01*
X411635Y276779D01*
X411676Y276729D01*
X411723Y276699D01*
X411775Y276689D01*
X410225D01*
X410277Y276699D01*
X410324Y276729D01*
X410365Y276779D01*
X410401Y276849D01*
X410431Y276939D01*
X410456Y277049D01*
X410475Y277179D01*
X410489Y277329D01*
X410500Y277689D01*
X411500D01*
X411503Y277499D01*
D02*
G37*
G36*
X373845Y314893D02*
X373815Y314806D01*
X373814Y314703D01*
X373842Y314584D01*
X373899Y314451D01*
X373986Y314301D01*
X374101Y314137D01*
X374246Y313957D01*
X374624Y313551D01*
X373819Y312943D01*
X373617Y313138D01*
X373254Y313445D01*
X373092Y313558D01*
X372944Y313644D01*
X372809Y313702D01*
X372688Y313733D01*
X372580Y313737D01*
X372486Y313713D01*
X372405Y313662D01*
X373905Y314966D01*
X373845Y314893D01*
D02*
G37*
G36*
X360415Y278873D02*
X360446Y278788D01*
X360496Y278713D01*
X360567Y278648D01*
X360658Y278593D01*
X360770Y278549D01*
X360798Y278541D01*
X360822Y278552D01*
X360859Y278574D01*
X360889Y278598D01*
Y278517D01*
X360901Y278514D01*
X361053Y278488D01*
X361225Y278473D01*
X361417Y278468D01*
Y277468D01*
X361225Y277464D01*
X361053Y277449D01*
X360901Y277424D01*
X360889Y277420D01*
Y277339D01*
X360859Y277363D01*
X360822Y277385D01*
X360798Y277396D01*
X360770Y277389D01*
X360658Y277344D01*
X360567Y277289D01*
X360496Y277223D01*
X360446Y277149D01*
X360415Y277063D01*
X360405Y276969D01*
Y277465D01*
X360343Y277467D01*
X360243Y277468D01*
Y278468D01*
X360343Y278470D01*
X360405Y278475D01*
Y278969D01*
X360415Y278873D01*
D02*
G37*
G36*
X376503Y300385D02*
X376511Y300344D01*
X376525Y300308D01*
X376544Y300276D01*
X376569Y300249D01*
X376599Y300228D01*
X376635Y300211D01*
X376676Y300199D01*
X376723Y300191D01*
X376775Y300189D01*
X375225D01*
X375277Y300191D01*
X375324Y300199D01*
X375365Y300211D01*
X375401Y300228D01*
X375431Y300249D01*
X375456Y300276D01*
X375475Y300308D01*
X375489Y300344D01*
X375497Y300385D01*
X375500Y300431D01*
X376500D01*
X376503Y300385D01*
D02*
G37*
G36*
X419261Y273689D02*
X419281Y273436D01*
X419292Y273368D01*
X419295Y273358D01*
X419760D01*
X419665Y273350D01*
X419580Y273324D01*
X419505Y273281D01*
X419440Y273221D01*
X419387Y273147D01*
X419390Y273143D01*
X419384D01*
X419340Y273049D01*
X419305Y272938D01*
X419280Y272809D01*
X419265Y272663D01*
X419260Y272500D01*
X418260D01*
X418255Y272663D01*
X418240Y272809D01*
X418215Y272938D01*
X418180Y273049D01*
X418135Y273143D01*
X418130D01*
X418133Y273147D01*
X418080Y273221D01*
X418015Y273281D01*
X417940Y273324D01*
X417855Y273350D01*
X417760Y273358D01*
X418225D01*
X418227Y273368D01*
X418239Y273436D01*
X418255Y273597D01*
X418258Y273689D01*
X418260Y273788D01*
X419260D01*
X419261Y273689D01*
D02*
G37*
G36*
X359765Y273180D02*
X359780Y273010D01*
X359805Y272860D01*
X359840Y272730D01*
X359885Y272620D01*
X359940Y272530D01*
X360005Y272460D01*
X360080Y272410D01*
X360165Y272380D01*
X360260Y272370D01*
X358260D01*
X358355Y272380D01*
X358440Y272410D01*
X358515Y272460D01*
X358580Y272530D01*
X358635Y272620D01*
X358680Y272730D01*
X358715Y272860D01*
X358740Y273010D01*
X358755Y273180D01*
X358760Y273370D01*
X359760D01*
X359765Y273180D01*
D02*
G37*
G36*
X373665Y274348D02*
X373580Y274319D01*
X373505Y274269D01*
X373440Y274199D01*
X373385Y274109D01*
X373340Y273998D01*
X373305Y273868D01*
X373280Y273719D01*
X373265Y273549D01*
X373260Y273358D01*
X372260D01*
X372255Y273549D01*
X372240Y273719D01*
X372215Y273868D01*
X372180Y273998D01*
X372135Y274109D01*
X372080Y274199D01*
X372015Y274269D01*
X371940Y274319D01*
X371855Y274348D01*
X371760Y274359D01*
X373760D01*
X373665Y274348D01*
D02*
G37*
G36*
X421503Y315104D02*
X421511Y315017D01*
X421525Y314940D01*
X421544Y314873D01*
X421569Y314817D01*
X421599Y314771D01*
X421635Y314735D01*
X421676Y314709D01*
X421723Y314694D01*
X421775Y314689D01*
X420225D01*
X420277Y314694D01*
X420324Y314709D01*
X420365Y314735D01*
X420401Y314771D01*
X420431Y314817D01*
X420456Y314873D01*
X420475Y314940D01*
X420489Y315017D01*
X420497Y315104D01*
X420500Y315201D01*
X421500D01*
X421503Y315104D01*
D02*
G37*
G36*
X380741Y274429D02*
X380747Y274359D01*
X381240D01*
X381145Y274348D01*
X381060Y274319D01*
X380985Y274269D01*
X380920Y274199D01*
X380865Y274109D01*
X380820Y273998D01*
X380813Y273973D01*
X380823Y273950D01*
X380845Y273912D01*
X380870Y273883D01*
X380789D01*
X380785Y273868D01*
X380760Y273719D01*
X380745Y273549D01*
X380740Y273358D01*
X379740D01*
X379735Y273549D01*
X379720Y273719D01*
X379695Y273868D01*
X379691Y273883D01*
X379610D01*
X379635Y273912D01*
X379657Y273950D01*
X379667Y273973D01*
X379660Y273998D01*
X379615Y274109D01*
X379560Y274199D01*
X379495Y274269D01*
X379420Y274319D01*
X379335Y274348D01*
X379240Y274359D01*
X379736D01*
X379739Y274429D01*
X379740Y274529D01*
X380740D01*
X380741Y274429D01*
D02*
G37*
G36*
X426745Y278473D02*
X426760Y278301D01*
X426785Y278149D01*
X426820Y278017D01*
X426865Y277906D01*
X426920Y277815D01*
X426985Y277744D01*
X427060Y277694D01*
X427145Y277663D01*
X427240Y277653D01*
X425240D01*
X425335Y277663D01*
X425420Y277694D01*
X425495Y277744D01*
X425560Y277815D01*
X425615Y277906D01*
X425660Y278017D01*
X425695Y278149D01*
X425720Y278301D01*
X425735Y278473D01*
X425740Y278665D01*
X426740D01*
X426745Y278473D01*
D02*
G37*
G36*
X425436Y281077D02*
X425351Y281058D01*
X425277Y281028D01*
X425211Y280985D01*
X425156Y280929D01*
X425111Y280862D01*
X425076Y280782D01*
X425051Y280690D01*
X425036Y280585D01*
X425032Y280469D01*
X424031D01*
X424026Y280585D01*
X424012Y280690D01*
X423986Y280782D01*
X423951Y280862D01*
X423907Y280929D01*
X423851Y280985D01*
X423786Y281028D01*
X423711Y281058D01*
X423627Y281077D01*
X423531Y281083D01*
X425531D01*
X425436Y281077D01*
D02*
G37*
G36*
X359405Y311652D02*
X359320Y311621D01*
X359245Y311571D01*
X359180Y311500D01*
X359125Y311409D01*
X359080Y311297D01*
X359045Y311166D01*
X359020Y311014D01*
X359005Y310842D01*
X359000Y310650D01*
X358000D01*
X357995Y310842D01*
X357980Y311014D01*
X357955Y311166D01*
X357920Y311297D01*
X357875Y311409D01*
X357820Y311500D01*
X357755Y311571D01*
X357680Y311621D01*
X357595Y311652D01*
X357500Y311662D01*
X359500D01*
X359405Y311652D01*
D02*
G37*
G36*
X419164Y311159D02*
X419117Y311129D01*
X419076Y311080D01*
X419040Y311010D01*
X419010Y310919D01*
X418985Y310809D01*
X418966Y310680D01*
X418952Y310529D01*
X418941Y310170D01*
X417941D01*
X417938Y310360D01*
X417916Y310680D01*
X417897Y310809D01*
X417872Y310919D01*
X417842Y311010D01*
X417806Y311080D01*
X417765Y311129D01*
X417718Y311159D01*
X417665Y311170D01*
X419216D01*
X419164Y311159D01*
D02*
G37*
G36*
X377325Y310421D02*
X377700Y310101D01*
X377864Y309985D01*
X378013Y309899D01*
X378147Y309842D01*
X378266Y309814D01*
X378369Y309815D01*
X378456Y309845D01*
X378529Y309905D01*
X377225Y308404D01*
X377276Y308486D01*
X377299Y308580D01*
X377296Y308688D01*
X377265Y308809D01*
X377207Y308944D01*
X377121Y309092D01*
X377008Y309254D01*
X376868Y309429D01*
X376506Y309819D01*
X377114Y310624D01*
X377325Y310421D01*
D02*
G37*
G36*
X375245Y310727D02*
X375232Y310557D01*
X375208Y310407D01*
X375176Y310277D01*
X375134Y310167D01*
X375083Y310077D01*
X375023Y310007D01*
X374954Y309957D01*
X374875Y309927D01*
X374787Y309917D01*
X373750D01*
X373845Y309927D01*
X373930Y309957D01*
X374005Y310007D01*
X374070Y310077D01*
X374125Y310167D01*
X374170Y310277D01*
X374205Y310407D01*
X374230Y310557D01*
X374245Y310727D01*
X374250Y310917D01*
X375250D01*
X375245Y310727D01*
D02*
G37*
G36*
X413341Y281605D02*
X413372Y281520D01*
X413423Y281445D01*
X413494Y281380D01*
X413585Y281325D01*
X413696Y281280D01*
X413828Y281245D01*
X413979Y281220D01*
X414151Y281205D01*
X414342Y281200D01*
Y280200D01*
X414152Y280195D01*
X413982Y280181D01*
X413832Y280158D01*
X413702Y280125D01*
X413592Y280083D01*
X413502Y280032D01*
X413432Y279971D01*
X413382Y279901D01*
X413352Y279821D01*
X413342Y279732D01*
X413330Y281700D01*
X413341Y281605D01*
D02*
G37*
G36*
X360415Y314373D02*
X360446Y314288D01*
X360496Y314213D01*
X360567Y314148D01*
X360658Y314093D01*
X360770Y314049D01*
X360901Y314014D01*
X361053Y313988D01*
X361225Y313973D01*
X361417Y313968D01*
Y312968D01*
X361225Y312964D01*
X361053Y312948D01*
X360901Y312924D01*
X360770Y312889D01*
X360658Y312843D01*
X360567Y312789D01*
X360496Y312723D01*
X360446Y312649D01*
X360415Y312563D01*
X360405Y312469D01*
Y314469D01*
X360415Y314373D01*
D02*
G37*
G36*
X363095Y312469D02*
X363085Y312563D01*
X363054Y312649D01*
X363004Y312723D01*
X362933Y312789D01*
X362842Y312843D01*
X362731Y312889D01*
X362599Y312924D01*
X362447Y312948D01*
X362275Y312964D01*
X362083Y312968D01*
Y313968D01*
X362275Y313973D01*
X362447Y313988D01*
X362599Y314014D01*
X362731Y314049D01*
X362842Y314093D01*
X362933Y314148D01*
X363004Y314213D01*
X363054Y314288D01*
X363085Y314373D01*
X363095Y314469D01*
Y312469D01*
D02*
G37*
G36*
X415502Y280340D02*
X415515Y280170D01*
X415527Y280100D01*
X415542Y280039D01*
X415560Y279988D01*
X415582Y279948D01*
X415607Y279917D01*
X415635Y279896D01*
X415667Y279884D01*
X414634Y279245D01*
X414500Y280288D01*
X415500Y280440D01*
X415502Y280340D01*
D02*
G37*
G36*
X379062Y300604D02*
X379070Y300517D01*
X379084Y300440D01*
X379103Y300373D01*
X379128Y300317D01*
X379158Y300271D01*
X379194Y300235D01*
X379235Y300209D01*
X379282Y300194D01*
X379334Y300189D01*
X377784D01*
X377836Y300194D01*
X377883Y300209D01*
X377924Y300235D01*
X377960Y300271D01*
X377990Y300317D01*
X378015Y300373D01*
X378034Y300440D01*
X378048Y300517D01*
X378056Y300604D01*
X378059Y300701D01*
X379059D01*
X379062Y300604D01*
D02*
G37*
G36*
X413078Y279728D02*
X412993Y279715D01*
X412918Y279692D01*
X412853Y279661D01*
X412798Y279621D01*
X412753Y279572D01*
X412718Y279514D01*
X412693Y279447D01*
X412678Y279371D01*
X412673Y279286D01*
X411673D01*
X411668Y279371D01*
X411653Y279447D01*
X411628Y279514D01*
X411593Y279572D01*
X411548Y279621D01*
X411493Y279661D01*
X411428Y279692D01*
X411353Y279715D01*
X411268Y279728D01*
X411173Y279732D01*
X413173D01*
X413078Y279728D01*
D02*
G37*
D10*
X358968Y305000D02*
D03*
X365032D02*
D03*
X380031Y259000D02*
D03*
X373969D02*
D03*
X373468Y283500D02*
D03*
X379532D02*
D03*
X372969Y308000D02*
D03*
X379031D02*
D03*
X424532Y323500D02*
D03*
X418469D02*
D03*
X392969Y265000D02*
D03*
X399031D02*
D03*
X391968Y329500D02*
D03*
X398031D02*
D03*
X424532Y298000D02*
D03*
X418469D02*
D03*
X424532Y283000D02*
D03*
X418469D02*
D03*
X424532Y290500D02*
D03*
X418469D02*
D03*
D11*
X358500Y297532D02*
D03*
Y291469D02*
D03*
X365000Y319531D02*
D03*
Y313469D02*
D03*
X358500Y313469D02*
D03*
Y319531D02*
D03*
Y284032D02*
D03*
Y277969D02*
D03*
X366000Y297532D02*
D03*
Y291469D02*
D03*
Y277969D02*
D03*
Y284032D02*
D03*
X372000Y315469D02*
D03*
Y321532D02*
D03*
X379500Y315469D02*
D03*
Y321532D02*
D03*
X417500Y337032D02*
D03*
Y330968D02*
D03*
X425500Y337032D02*
D03*
Y330968D02*
D03*
X433000Y273532D02*
D03*
Y267469D02*
D03*
D12*
X359260Y259587D02*
D03*
X363000D02*
D03*
X366740D02*
D03*
Y270413D02*
D03*
X359260D02*
D03*
D13*
X380240Y265488D02*
D03*
X372760D02*
D03*
Y276512D02*
D03*
X376500D02*
D03*
X380240D02*
D03*
X426240Y275512D02*
D03*
X422500D02*
D03*
X418760D02*
D03*
Y264488D02*
D03*
X426240D02*
D03*
D14*
X373441Y289571D02*
D03*
X376000D02*
D03*
X378559D02*
D03*
Y298429D02*
D03*
X376000D02*
D03*
X373441D02*
D03*
X408441Y266071D02*
D03*
X411000D02*
D03*
X413559D02*
D03*
Y274929D02*
D03*
X411000D02*
D03*
X408441D02*
D03*
X418441Y312929D02*
D03*
X423559Y304071D02*
D03*
X421000D02*
D03*
X418441D02*
D03*
X423559Y312929D02*
D03*
X421000D02*
D03*
D15*
X376000Y348894D02*
D03*
X401200D02*
D03*
D16*
X376000Y342201D02*
D03*
X401201D02*
D03*
D17*
X412673Y259000D02*
D03*
X409327D02*
D03*
X408827Y281000D02*
D03*
X412173D02*
D03*
D18*
X396000Y274331D02*
D03*
Y290669D02*
D03*
D19*
X399004Y299000D02*
D03*
X391996D02*
D03*
D20*
X401405Y321000D02*
D03*
X389595D02*
D03*
D21*
X395500Y320606D02*
D03*
D22*
Y311157D02*
D03*
D23*
X459500Y272677D02*
D03*
Y290000D02*
D03*
D24*
X444736D02*
D03*
Y272677D02*
D03*
D25*
X417000Y259000D02*
X435500D01*
X427500Y248500D02*
Y258626D01*
X384500Y303000D02*
Y331500D01*
Y283500D02*
Y303000D01*
X382000D02*
X384500D01*
X365032Y304771D02*
X368729D01*
X370500Y303000D02*
X371500D01*
X368729Y304771D02*
X370500Y303000D01*
X365032Y304771D02*
Y305000D01*
X358500Y319531D02*
X365000D01*
X363587Y270413D02*
X366740D01*
X358500Y309500D02*
X359000Y309000D01*
X358968Y305000D02*
Y308968D01*
X358500Y309500D02*
Y313469D01*
X365000D01*
X358500Y302000D02*
X358968Y302468D01*
X358500Y297532D02*
Y302000D01*
X358968Y302468D02*
Y305000D01*
X358500Y284032D02*
Y291469D01*
X360500Y248500D02*
X367500D01*
X359000Y250000D02*
X360500Y248500D01*
X359000Y250000D02*
Y252500D01*
X363000Y256500D01*
Y259587D01*
X373969Y256031D02*
Y259000D01*
X366740Y259587D02*
Y263260D01*
X358500Y274500D02*
X359260Y273740D01*
Y270413D02*
Y273740D01*
X358500Y274500D02*
Y277969D01*
X384500Y271000D02*
Y283500D01*
Y260000D02*
Y271000D01*
X358500Y277969D02*
X361531D01*
X408441Y262059D02*
X408500Y262000D01*
X408441Y262059D02*
Y266071D01*
X372760Y265488D02*
X375988D01*
X370500Y286611D02*
Y287000D01*
X367920Y284032D02*
X370500Y286611D01*
X366000Y284032D02*
X367920D01*
X380240Y273240D02*
Y276512D01*
X373441Y295941D02*
Y298429D01*
X373000Y295500D02*
X373441Y295941D01*
X370500Y295500D02*
X373000D01*
X368468Y297532D02*
X370500Y295500D01*
X366000Y297532D02*
X368468D01*
X366000Y284032D02*
Y291469D01*
Y274500D02*
Y277969D01*
X376500Y273500D02*
Y276512D01*
X372760Y265488D02*
Y276512D01*
X379532Y283500D02*
X384500D01*
X383500Y259000D02*
X384500Y260000D01*
X380031Y259000D02*
X383500D01*
X380031Y262531D02*
X380240Y262740D01*
X380031Y259000D02*
Y262531D01*
X380240Y262740D02*
Y265488D01*
X385968Y332968D02*
X391968D01*
X384500Y331500D02*
X385968Y332968D01*
X370500Y283500D02*
X373468D01*
X373441Y283528D02*
X373468Y283500D01*
X373441Y283528D02*
Y289571D01*
Y291941D01*
X374000Y292500D01*
X375500D01*
X376000Y292000D01*
Y289571D02*
Y292000D01*
X378500Y289512D02*
X378559Y289571D01*
X378500Y287000D02*
Y289512D01*
Y287000D02*
X379532Y285968D01*
Y283500D02*
Y285968D01*
X391301Y342201D02*
X401201D01*
X389600Y340500D02*
X391301Y342201D01*
X389600Y338900D02*
X390500Y338000D01*
X389600Y338900D02*
Y340500D01*
X374750Y324282D02*
Y327500D01*
X372000Y321532D02*
X374750Y324282D01*
X387600Y339100D02*
Y340500D01*
X386500Y338000D02*
X387600Y339100D01*
X385900Y342201D02*
X387600Y340500D01*
X376000Y342201D02*
X385900D01*
X376750Y324282D02*
X379500Y321532D01*
X376750Y324282D02*
Y327500D01*
X374750Y309782D02*
Y312719D01*
X372000Y315469D02*
X374750Y312719D01*
X372969Y308000D02*
X374750Y309782D01*
X376750Y312719D02*
X379500Y315469D01*
X376750Y310281D02*
Y312719D01*
Y310281D02*
X379031Y308000D01*
X376000Y298429D02*
Y300431D01*
X375000Y301431D02*
X376000Y300431D01*
X375000Y301431D02*
Y305968D01*
X378559Y298429D02*
Y300701D01*
X377000Y302260D02*
X378559Y300701D01*
X377000Y302260D02*
Y305968D01*
X379031Y308000D01*
X372969D02*
X375000Y305968D01*
X370000Y234500D02*
X393500D01*
X367500Y237000D02*
X370000Y234500D01*
X367500Y237000D02*
Y248500D01*
X414000Y255500D02*
X417000D01*
X412673Y256827D02*
X414000Y255500D01*
X412673Y256827D02*
Y259000D01*
X403750Y260250D02*
X405500Y262000D01*
X402000Y258500D02*
X403750Y260250D01*
X405000Y259000D01*
X409327D01*
X393500Y234500D02*
X398000Y239000D01*
Y257000D01*
X399500Y258500D01*
X402000D01*
X405500Y262000D02*
Y270500D01*
X407000D01*
X408441Y271941D01*
Y274929D01*
X426240Y275512D02*
Y278760D01*
X411000Y266071D02*
Y269000D01*
X413559Y263059D02*
Y266071D01*
X416000Y260000D02*
X417000Y259000D01*
X416000Y260000D02*
Y269500D01*
X413559Y271941D02*
X416000Y269500D01*
X413559Y271941D02*
Y274929D01*
X408827Y281000D02*
Y283327D01*
X418760Y272500D02*
Y275512D01*
Y264488D02*
Y272500D01*
X412173Y279286D02*
Y280700D01*
X414800D01*
X415000Y279500D02*
X415500Y279000D01*
X415000Y279500D02*
Y280500D01*
X414800Y280700D02*
X415000Y280500D01*
X412173Y280700D02*
Y281000D01*
X411000Y274929D02*
Y278113D01*
X412173Y279286D01*
X421000Y312929D02*
Y315201D01*
X421279Y315480D01*
Y317721D01*
X423559Y312929D02*
Y315201D01*
X423279Y315480D02*
X423559Y315201D01*
X420500Y318500D02*
X421279Y317721D01*
X423279Y315480D02*
Y318549D01*
X422694Y319135D02*
X423279Y318549D01*
X418469Y323500D02*
X420500Y321468D01*
X417500Y328638D02*
Y330968D01*
Y328638D02*
X418469Y327669D01*
Y323500D02*
Y327669D01*
X420500Y318500D02*
Y321468D01*
X422500D02*
X424532Y323500D01*
Y327669D01*
X425500Y328638D01*
Y330968D01*
X422500Y319135D02*
Y321468D01*
X431000Y347500D02*
X433000Y345500D01*
X431828Y349500D02*
X435000Y346328D01*
X424500Y347500D02*
X431000D01*
X423672Y349500D02*
X431828D01*
X444000Y280339D02*
X444736Y279602D01*
Y272677D02*
Y279602D01*
X435672Y280339D02*
X444000D01*
X433000Y283010D02*
X435672Y280339D01*
X422500Y342362D02*
X425500Y339362D01*
Y337032D02*
Y339362D01*
X422500Y342362D02*
Y345500D01*
X424500Y347500D01*
X435000Y283839D02*
X436500Y282339D01*
X444000D01*
X444736Y283075D01*
Y290000D01*
X417500Y337032D02*
Y339362D01*
X420500Y342362D01*
Y346328D01*
X423672Y349500D01*
X433000Y283010D02*
Y345500D01*
X435000Y283839D02*
Y346328D01*
X421000Y301500D02*
Y304071D01*
X420500Y301000D02*
X421000Y301500D01*
X418441Y301000D02*
X420500D01*
X418441Y298028D02*
Y301000D01*
Y304071D01*
X424532Y298000D02*
X427500D01*
X424532D02*
Y300969D01*
X423559Y301941D02*
Y304071D01*
Y301941D02*
X424532Y300969D01*
X418469Y295532D02*
Y298000D01*
X424532Y283000D02*
Y290500D01*
X424532Y283000D02*
X424532Y283000D01*
X424532Y280469D02*
Y283000D01*
Y280469D02*
X426240Y278760D01*
X413500Y290500D02*
X418469D01*
X412500Y291500D02*
X413500Y290500D01*
X412500Y291500D02*
Y307500D01*
X414000Y309000D01*
X418000D01*
X418441Y309441D01*
Y312929D01*
D26*
X426240Y264488D02*
Y267740D01*
X427000Y268500D02*
X428500D01*
X426240Y267740D02*
X427000Y268500D01*
X429531Y267469D02*
X433000D01*
X428500Y268500D02*
X429531Y267469D01*
X433000Y264500D02*
Y267469D01*
Y273532D02*
Y277000D01*
X415500Y283000D02*
X418469D01*
X399031Y265000D02*
X402500D01*
D27*
X392969Y260968D02*
Y265000D01*
X391500Y259500D02*
X392969Y260968D01*
X389500Y259500D02*
X391500D01*
X387500Y257500D02*
X389500Y259500D01*
X387500Y248500D02*
Y257500D01*
X396000Y271500D02*
Y274331D01*
X392969Y268468D02*
X396000Y271500D01*
X392969Y265000D02*
Y268468D01*
X389595Y321000D02*
Y327126D01*
X391968Y329500D01*
Y332968D01*
D28*
X410000Y336000D02*
D03*
X401500D02*
D03*
D29*
X362500Y347500D02*
D03*
D30*
X367500Y248500D02*
D03*
X387500D02*
D03*
X407500D02*
D03*
D31*
X427500D02*
D03*
D32*
X500658Y244173D02*
D03*
X520342D02*
D03*
Y215827D02*
D03*
X500658D02*
D03*
X451158Y244173D02*
D03*
X470843D02*
D03*
Y215827D02*
D03*
X451158D02*
D03*
Y352173D02*
D03*
X470843D02*
D03*
Y323827D02*
D03*
X451158D02*
D03*
X500658Y352673D02*
D03*
X520342D02*
D03*
Y324327D02*
D03*
X500658D02*
D03*
D33*
X435500Y259000D02*
D03*
X388500Y353000D02*
D03*
X387000Y330500D02*
D03*
X438500Y332500D02*
D03*
X382000Y303000D02*
D03*
X371500D02*
D03*
X362000Y319500D02*
D03*
X363587Y270413D02*
D03*
X358500Y287750D02*
D03*
X374000Y256000D02*
D03*
X366740Y263260D02*
D03*
X361531Y277969D02*
D03*
X384500Y271000D02*
D03*
X408500Y262000D02*
D03*
X375988Y265488D02*
D03*
X370500Y287000D02*
D03*
X380240Y273240D02*
D03*
X366000Y274500D02*
D03*
X376500Y273500D02*
D03*
X404000Y345000D02*
D03*
X402000D02*
D03*
X400000D02*
D03*
X398000D02*
D03*
Y347000D02*
D03*
X400000D02*
D03*
X402000D02*
D03*
X404000D02*
D03*
Y349000D02*
D03*
X402000D02*
D03*
X400000D02*
D03*
X398000D02*
D03*
Y351000D02*
D03*
X400000D02*
D03*
X402000D02*
D03*
X404000D02*
D03*
Y353000D02*
D03*
X402000D02*
D03*
X400000D02*
D03*
X398000D02*
D03*
X370500Y283500D02*
D03*
X390500Y338000D02*
D03*
X386500D02*
D03*
X374000Y328000D02*
D03*
X377500D02*
D03*
X372500Y346500D02*
D03*
X374500D02*
D03*
X376500D02*
D03*
X378500D02*
D03*
Y348500D02*
D03*
X376500D02*
D03*
X374500D02*
D03*
X372500D02*
D03*
Y350500D02*
D03*
Y352500D02*
D03*
X374500Y350500D02*
D03*
X376500D02*
D03*
X378500D02*
D03*
Y352500D02*
D03*
X376500D02*
D03*
X374500D02*
D03*
X372500Y354500D02*
D03*
Y356500D02*
D03*
X374500Y354500D02*
D03*
X376500D02*
D03*
X374500Y356500D02*
D03*
X376500D02*
D03*
X378500D02*
D03*
Y354500D02*
D03*
X414000Y345000D02*
D03*
Y347000D02*
D03*
Y349000D02*
D03*
Y351000D02*
D03*
Y353000D02*
D03*
Y355000D02*
D03*
Y357000D02*
D03*
X412000D02*
D03*
X410000D02*
D03*
X408000D02*
D03*
X406000D02*
D03*
X404000D02*
D03*
X402000D02*
D03*
X400000D02*
D03*
X398000D02*
D03*
Y355000D02*
D03*
X400000D02*
D03*
X402000D02*
D03*
X404000D02*
D03*
X406000D02*
D03*
X408000D02*
D03*
X410000D02*
D03*
X412000D02*
D03*
Y353000D02*
D03*
X410000D02*
D03*
Y351000D02*
D03*
X412000D02*
D03*
Y349000D02*
D03*
X410000D02*
D03*
Y347000D02*
D03*
X412000D02*
D03*
Y345000D02*
D03*
X410000D02*
D03*
X408000D02*
D03*
X406000D02*
D03*
Y347000D02*
D03*
X408000D02*
D03*
Y349000D02*
D03*
X406000D02*
D03*
Y351000D02*
D03*
X408000D02*
D03*
Y353000D02*
D03*
X406000D02*
D03*
X451000Y296000D02*
D03*
X453000D02*
D03*
X455000D02*
D03*
X457000D02*
D03*
X459000D02*
D03*
X461000D02*
D03*
X463000D02*
D03*
X465000D02*
D03*
X467000D02*
D03*
X469000D02*
D03*
X471000D02*
D03*
X473000D02*
D03*
X475000D02*
D03*
X477000D02*
D03*
Y294000D02*
D03*
X475000D02*
D03*
X473000D02*
D03*
X471000D02*
D03*
Y292000D02*
D03*
X473000D02*
D03*
X475000D02*
D03*
X477000D02*
D03*
Y290000D02*
D03*
X475000D02*
D03*
X473000D02*
D03*
X471000D02*
D03*
Y288000D02*
D03*
X473000D02*
D03*
X475000D02*
D03*
X477000D02*
D03*
Y286000D02*
D03*
X475000D02*
D03*
X473000D02*
D03*
X471000D02*
D03*
X417000Y255500D02*
D03*
X411000Y269000D02*
D03*
X413500Y263000D02*
D03*
X408827Y283327D02*
D03*
X418760Y272500D02*
D03*
X415500Y279000D02*
D03*
X422500Y272500D02*
D03*
X504000Y314000D02*
D03*
X506500D02*
D03*
X509000D02*
D03*
X511500D02*
D03*
X514000D02*
D03*
X516500D02*
D03*
X504000Y311500D02*
D03*
X506500D02*
D03*
X509000D02*
D03*
X511500D02*
D03*
X514000D02*
D03*
X516500D02*
D03*
Y309000D02*
D03*
X514000D02*
D03*
X511500D02*
D03*
X509000D02*
D03*
X506500D02*
D03*
X504000D02*
D03*
X501500Y314000D02*
D03*
Y311500D02*
D03*
Y309000D02*
D03*
X499000D02*
D03*
Y311500D02*
D03*
Y314000D02*
D03*
X519000D02*
D03*
Y311500D02*
D03*
Y309000D02*
D03*
X521500D02*
D03*
Y311500D02*
D03*
Y314000D02*
D03*
Y306500D02*
D03*
X519000D02*
D03*
X516500D02*
D03*
X514000D02*
D03*
X511500D02*
D03*
X509000D02*
D03*
X506500D02*
D03*
X504000D02*
D03*
X501500D02*
D03*
X499000D02*
D03*
X520000Y252500D02*
D03*
X517500D02*
D03*
X515000D02*
D03*
X512500D02*
D03*
X510000D02*
D03*
X507500D02*
D03*
X505000D02*
D03*
X502500D02*
D03*
X500000D02*
D03*
X497500D02*
D03*
X495000D02*
D03*
X492500D02*
D03*
Y255000D02*
D03*
X495000D02*
D03*
X497500D02*
D03*
X500000D02*
D03*
X502500D02*
D03*
X505000D02*
D03*
X507500D02*
D03*
X510000D02*
D03*
X512500D02*
D03*
X515000D02*
D03*
X517500D02*
D03*
X520000D02*
D03*
Y257500D02*
D03*
X517500D02*
D03*
X515000D02*
D03*
X512500D02*
D03*
X510000D02*
D03*
X507500D02*
D03*
X505000D02*
D03*
X502500D02*
D03*
X500000D02*
D03*
X497500D02*
D03*
X495000D02*
D03*
X492500D02*
D03*
X451000Y276500D02*
D03*
X453000D02*
D03*
X455000D02*
D03*
X457000D02*
D03*
X459000D02*
D03*
X461000D02*
D03*
X463000D02*
D03*
X465000D02*
D03*
X467000D02*
D03*
X469000D02*
D03*
X451000Y274500D02*
D03*
X453000D02*
D03*
X455000D02*
D03*
X457000D02*
D03*
X459000D02*
D03*
X461000D02*
D03*
X463000D02*
D03*
X465000D02*
D03*
X467000D02*
D03*
X469000D02*
D03*
Y272500D02*
D03*
X467000D02*
D03*
X465000D02*
D03*
X463000D02*
D03*
X461000D02*
D03*
X457000D02*
D03*
X455000D02*
D03*
X453000D02*
D03*
X451000D02*
D03*
X459000D02*
D03*
X451000Y270500D02*
D03*
Y268500D02*
D03*
Y266500D02*
D03*
X453000Y270500D02*
D03*
Y268500D02*
D03*
Y266500D02*
D03*
X455000D02*
D03*
Y268500D02*
D03*
Y270500D02*
D03*
X459000D02*
D03*
X461000D02*
D03*
X463000D02*
D03*
X465000D02*
D03*
X467000D02*
D03*
X469000D02*
D03*
Y268500D02*
D03*
X467000D02*
D03*
X465000D02*
D03*
X457000Y270500D02*
D03*
Y268500D02*
D03*
X459000D02*
D03*
X461000D02*
D03*
X457000Y266500D02*
D03*
X459000D02*
D03*
X461000D02*
D03*
X463000Y268500D02*
D03*
Y266500D02*
D03*
X465000D02*
D03*
X467000D02*
D03*
X469000D02*
D03*
X471000Y276500D02*
D03*
Y274500D02*
D03*
Y272500D02*
D03*
Y270500D02*
D03*
Y268500D02*
D03*
Y266500D02*
D03*
X473000Y276500D02*
D03*
Y274500D02*
D03*
Y272500D02*
D03*
Y270500D02*
D03*
Y268500D02*
D03*
Y266500D02*
D03*
X475000Y276500D02*
D03*
Y274500D02*
D03*
Y272500D02*
D03*
Y270500D02*
D03*
Y268500D02*
D03*
Y266500D02*
D03*
X451000Y286000D02*
D03*
X453000D02*
D03*
X455000D02*
D03*
X457000D02*
D03*
X459000D02*
D03*
X461000D02*
D03*
X463000D02*
D03*
X465000D02*
D03*
X467000D02*
D03*
X469000D02*
D03*
Y288000D02*
D03*
X467000D02*
D03*
X465000D02*
D03*
X463000D02*
D03*
X461000D02*
D03*
X459000D02*
D03*
X457000D02*
D03*
X455000D02*
D03*
X453000D02*
D03*
X451000D02*
D03*
Y290000D02*
D03*
X453000D02*
D03*
X455000D02*
D03*
X457000D02*
D03*
X459000D02*
D03*
X463000D02*
D03*
X465000D02*
D03*
X467000D02*
D03*
X469000D02*
D03*
X461000D02*
D03*
X477000Y276500D02*
D03*
Y274500D02*
D03*
Y272500D02*
D03*
Y270500D02*
D03*
Y268500D02*
D03*
Y266500D02*
D03*
X451000Y292000D02*
D03*
X453000D02*
D03*
X455000D02*
D03*
X457000D02*
D03*
X459000D02*
D03*
X461000D02*
D03*
X463000D02*
D03*
X465000D02*
D03*
X467000D02*
D03*
X469000D02*
D03*
Y294000D02*
D03*
X467000D02*
D03*
X465000D02*
D03*
X463000D02*
D03*
X461000D02*
D03*
X459000D02*
D03*
X457000D02*
D03*
X455000D02*
D03*
X453000D02*
D03*
X451000D02*
D03*
X391968Y332968D02*
D03*
X388500Y292500D02*
D03*
X390500Y294500D02*
D03*
X388500D02*
D03*
X390500Y292500D02*
D03*
X402000Y329500D02*
D03*
X427500Y298000D02*
D03*
X433000Y264500D02*
D03*
Y277000D02*
D03*
X418469Y295532D02*
D03*
X415500Y283000D02*
D03*
X402500Y265000D02*
D03*
X402000Y327500D02*
D03*
X404000Y329500D02*
D03*
Y327500D02*
D03*
X495000Y282500D02*
D03*
Y284500D02*
D03*
Y286500D02*
D03*
X493000D02*
D03*
X491000D02*
D03*
X493000Y284500D02*
D03*
X491000D02*
D03*
X493000Y282500D02*
D03*
X491000D02*
D03*
X495000Y288500D02*
D03*
X493000D02*
D03*
X491000D02*
D03*
Y290500D02*
D03*
X493000D02*
D03*
X495000D02*
D03*
Y292500D02*
D03*
X493000D02*
D03*
X491000D02*
D03*
Y280500D02*
D03*
Y278500D02*
D03*
X493000D02*
D03*
X495000Y280500D02*
D03*
Y278500D02*
D03*
X493000Y280500D02*
D03*
X495000Y294500D02*
D03*
X493000D02*
D03*
X491000D02*
D03*
X498500Y286000D02*
D03*
Y284000D02*
D03*
Y282000D02*
D03*
X500500D02*
D03*
Y284000D02*
D03*
Y286000D02*
D03*
X502500D02*
D03*
Y284000D02*
D03*
Y282000D02*
D03*
X504500D02*
D03*
Y284000D02*
D03*
Y286000D02*
D03*
X506500D02*
D03*
Y284000D02*
D03*
Y282000D02*
D03*
X508500D02*
D03*
Y284000D02*
D03*
Y286000D02*
D03*
X510500D02*
D03*
Y284000D02*
D03*
Y282000D02*
D03*
X512500D02*
D03*
Y284000D02*
D03*
Y286000D02*
D03*
X514500D02*
D03*
Y284000D02*
D03*
Y282000D02*
D03*
X516500D02*
D03*
Y284000D02*
D03*
Y286000D02*
D03*
X518500D02*
D03*
Y284000D02*
D03*
Y282000D02*
D03*
%TF.MD5,AD8C0EE9D41B28992224DE7256095401*%
M02*
