G04 Layer_Color=255*
%FSLAX25Y25*%
%MOIN*%
%TF.FileFunction,Pads,Bot*%
%TF.Part,Single*%
G01*
G75*
%TA.AperFunction,ConnectorPad*%
%ADD28C,0.05512*%
%TA.AperFunction,ConnectorPad*%
G04:AMPARAMS|DCode=29|XSize=157.48mil|YSize=157.48mil|CornerRadius=39.37mil|HoleSize=0mil|Usage=FLASHONLY|Rotation=180.000|XOffset=0mil|YOffset=0mil|HoleType=Round|Shape=RoundedRectangle|*
%AMROUNDEDRECTD29*
21,1,0.15748,0.07874,0,0,180.0*
21,1,0.07874,0.15748,0,0,180.0*
1,1,0.07874,-0.03937,0.03937*
1,1,0.07874,0.03937,0.03937*
1,1,0.07874,0.03937,-0.03937*
1,1,0.07874,-0.03937,-0.03937*
%
%ADD29ROUNDEDRECTD29*%
%TA.AperFunction,ViaPad*%
%ADD30O,0.10000X0.14000*%
%TA.AperFunction,ViaPad*%
%ADD31R,0.10000X0.14000*%
%TA.AperFunction,ViaPad*%
G04:AMPARAMS|DCode=32|XSize=157.48mil|YSize=118.11mil|CornerRadius=29.53mil|HoleSize=0mil|Usage=FLASHONLY|Rotation=0.000|XOffset=0mil|YOffset=0mil|HoleType=Round|Shape=RoundedRectangle|*
%AMROUNDEDRECTD32*
21,1,0.15748,0.05906,0,0,0.0*
21,1,0.09843,0.11811,0,0,0.0*
1,1,0.05906,0.04921,-0.02953*
1,1,0.05906,-0.04921,-0.02953*
1,1,0.05906,-0.04921,0.02953*
1,1,0.05906,0.04921,0.02953*
%
%ADD32ROUNDEDRECTD32*%
D28*
X410000Y336000D02*
D03*
X401500D02*
D03*
D29*
X362500Y347500D02*
D03*
D30*
X367500Y248500D02*
D03*
X387500D02*
D03*
X407500D02*
D03*
D31*
X427500D02*
D03*
D32*
X500658Y244173D02*
D03*
X520342D02*
D03*
Y215827D02*
D03*
X500658D02*
D03*
X451158Y244173D02*
D03*
X470843D02*
D03*
Y215827D02*
D03*
X451158D02*
D03*
Y352173D02*
D03*
X470843D02*
D03*
Y323827D02*
D03*
X451158D02*
D03*
X500658Y352673D02*
D03*
X520342D02*
D03*
Y324327D02*
D03*
X500658D02*
D03*
%TF.MD5,89E05C56C30EF05AD301018929CB6B0C*%
M02*
