G04 Layer_Physical_Order=2*
G04 Layer_Color=16711680*
%FSLAX25Y25*%
%MOIN*%
%TF.FileFunction,Copper,L2,Bot,Signal*%
%TF.Part,Single*%
G01*
G75*
%ADD21C,0.01000*%
%ADD23C,0.03000*%
%TA.AperFunction,ConnectorPad*%
%ADD24C,0.07874*%
%TA.AperFunction,ConnectorPad*%
G04:AMPARAMS|DCode=25|XSize=78.74mil|YSize=78.74mil|CornerRadius=0mil|HoleSize=0mil|Usage=FLASHONLY|Rotation=0.000|XOffset=0mil|YOffset=0mil|HoleType=Round|Shape=Octagon|*
%AMOCTAGOND25*
4,1,8,0.03937,-0.01969,0.03937,0.01969,0.01969,0.03937,-0.01969,0.03937,-0.03937,0.01969,-0.03937,-0.01969,-0.01969,-0.03937,0.01969,-0.03937,0.03937,-0.01969,0.0*
%
%ADD25OCTAGOND25*%

%TA.AperFunction,ViaPad*%
G04:AMPARAMS|DCode=26|XSize=157.48mil|YSize=118.11mil|CornerRadius=29.53mil|HoleSize=0mil|Usage=FLASHONLY|Rotation=0.000|XOffset=0mil|YOffset=0mil|HoleType=Round|Shape=RoundedRectangle|*
%AMROUNDEDRECTD26*
21,1,0.15748,0.05906,0,0,0.0*
21,1,0.09843,0.11811,0,0,0.0*
1,1,0.05906,0.04921,-0.02953*
1,1,0.05906,-0.04921,-0.02953*
1,1,0.05906,-0.04921,0.02953*
1,1,0.05906,0.04921,0.02953*
%
%ADD26ROUNDEDRECTD26*%
%TA.AperFunction,ViaPad*%
%ADD27R,0.11000X0.16000*%
%TA.AperFunction,ViaPad*%
%ADD28O,0.11000X0.16000*%
%TA.AperFunction,ViaPad*%
%ADD29C,0.01800*%
%ADD30C,0.05000*%
G36*
X529175Y209500D02*
X487500D01*
Y358675D01*
X529175D01*
Y209500D01*
D02*
G37*
G36*
X485000Y284856D02*
X484645Y284504D01*
X442000Y284978D01*
Y358675D01*
X485000D01*
Y284856D01*
D02*
G37*
G36*
X441184Y284978D02*
X441215Y284826D01*
X441243Y284674D01*
X441246Y284670D01*
X441246Y284666D01*
X441332Y284537D01*
X441417Y284407D01*
X441421Y284405D01*
X441423Y284401D01*
X441551Y284315D01*
X441679Y284228D01*
X441684Y284227D01*
X441688Y284224D01*
X441839Y284194D01*
X441991Y284162D01*
X442500Y284156D01*
Y278816D01*
X442188Y278754D01*
X441923Y278577D01*
X441746Y278312D01*
X441684Y278000D01*
Y209500D01*
X441541Y209326D01*
X384326D01*
Y330500D01*
Y358675D01*
X441184D01*
Y284978D01*
D02*
G37*
G36*
X485000Y209500D02*
X442500D01*
Y278000D01*
X485000D01*
Y209500D01*
D02*
G37*
%LPC*%
G36*
X418532Y248400D02*
X412600D01*
Y244001D01*
X416905D01*
X416448Y243220D01*
X415678Y241685D01*
X415365Y240932D01*
X415364Y240928D01*
X415629Y241069D01*
X416618Y241882D01*
X417431Y242871D01*
X418034Y244001D01*
X418406Y245226D01*
X418532Y246500D01*
Y248400D01*
D02*
G37*
G36*
X415364Y257072D02*
X415365Y257068D01*
X416039Y255552D01*
X416448Y254780D01*
X416905Y253999D01*
X412600D01*
Y249600D01*
X418532D01*
Y251500D01*
X418406Y252774D01*
X418034Y253999D01*
X417431Y255129D01*
X416618Y256118D01*
X415629Y256931D01*
X415364Y257072D01*
D02*
G37*
G36*
X408636Y257072D02*
X408371Y256931D01*
X407382Y256118D01*
X406569Y255129D01*
X405966Y253999D01*
X405594Y252774D01*
X405469Y251500D01*
Y249600D01*
X411400D01*
Y253999D01*
X407095D01*
X407552Y254780D01*
X408322Y256315D01*
X408635Y257068D01*
X408636Y257072D01*
D02*
G37*
G36*
X396500Y257831D02*
X395265Y257709D01*
X394077Y257349D01*
X392983Y256764D01*
X392024Y255976D01*
X391236Y255017D01*
X390651Y253923D01*
X390291Y252735D01*
X390170Y251500D01*
Y246500D01*
X390291Y245265D01*
X390651Y244077D01*
X391236Y242983D01*
X392024Y242024D01*
X392983Y241236D01*
X394077Y240651D01*
X395265Y240291D01*
X396500Y240170D01*
X397735Y240291D01*
X398923Y240651D01*
X400017Y241236D01*
X400976Y242024D01*
X401764Y242983D01*
X402349Y244077D01*
X402709Y245265D01*
X402831Y246500D01*
Y251500D01*
X402709Y252735D01*
X402349Y253923D01*
X401764Y255017D01*
X400976Y255976D01*
X400017Y256764D01*
X398923Y257349D01*
X397735Y257709D01*
X396500Y257831D01*
D02*
G37*
G36*
X433800Y257800D02*
X421200D01*
Y240200D01*
X433800D01*
Y257800D01*
D02*
G37*
G36*
X411400Y248400D02*
X405469D01*
Y246500D01*
X405594Y245226D01*
X405966Y244001D01*
X406569Y242871D01*
X407382Y241882D01*
X408371Y241069D01*
X408636Y240928D01*
X408635Y240932D01*
X407961Y242448D01*
X407552Y243220D01*
X407095Y244001D01*
X411400D01*
Y248400D01*
D02*
G37*
G36*
X411868Y354237D02*
X407131D01*
X404763Y351869D01*
Y347131D01*
X407131Y344763D01*
X411868D01*
X414237Y347131D01*
Y351869D01*
X411868Y354237D01*
D02*
G37*
G36*
X396901Y348900D02*
X392600D01*
Y344599D01*
X393289Y344690D01*
X394490Y345187D01*
X395521Y345979D01*
X396312Y347010D01*
X396810Y348211D01*
X396901Y348900D01*
D02*
G37*
G36*
X392600Y354401D02*
Y350100D01*
X396901D01*
X396810Y350789D01*
X396312Y351990D01*
X395521Y353021D01*
X394490Y353813D01*
X393289Y354310D01*
X392600Y354401D01*
D02*
G37*
G36*
X391400D02*
X390711Y354310D01*
X389510Y353813D01*
X388479Y353021D01*
X387687Y351990D01*
X387190Y350789D01*
X387099Y350100D01*
X391400D01*
Y354401D01*
D02*
G37*
G36*
Y348900D02*
X387099D01*
X387190Y348211D01*
X387687Y347010D01*
X388479Y345979D01*
X389510Y345187D01*
X390711Y344690D01*
X391400Y344599D01*
Y348900D01*
D02*
G37*
G36*
X408500Y322233D02*
X407837Y322101D01*
X407274Y321726D01*
X406899Y321163D01*
X406767Y320500D01*
X406770Y320482D01*
X406674Y320000D01*
Y284589D01*
X406673Y284574D01*
X406399Y284163D01*
X406267Y283500D01*
X406399Y282837D01*
X406774Y282274D01*
X407337Y281899D01*
X408000Y281767D01*
X408663Y281899D01*
X409226Y282274D01*
X409601Y282837D01*
X409733Y283500D01*
X409601Y284163D01*
X409328Y284572D01*
X409326Y284610D01*
Y319007D01*
X409726Y319274D01*
X410101Y319837D01*
X410233Y320500D01*
X410101Y321163D01*
X409726Y321726D01*
X409163Y322101D01*
X408500Y322233D01*
D02*
G37*
G36*
X424031Y335314D02*
X391968D01*
X391071Y335135D01*
X390310Y334627D01*
X389802Y333866D01*
X389623Y332968D01*
X389802Y332071D01*
X390310Y331310D01*
X391071Y330802D01*
X391968Y330623D01*
X423060D01*
X425155Y328529D01*
Y298000D01*
Y270000D01*
X425333Y269103D01*
X425842Y268342D01*
X431342Y262842D01*
X432103Y262333D01*
X433000Y262155D01*
X433897Y262333D01*
X434658Y262842D01*
X435167Y263603D01*
X435345Y264500D01*
X435167Y265397D01*
X434658Y266158D01*
X429845Y270971D01*
Y298000D01*
Y329500D01*
X429667Y330397D01*
X429598Y330500D01*
X429158Y331158D01*
X425690Y334627D01*
X424929Y335135D01*
X424031Y335314D01*
D02*
G37*
%LPD*%
G36*
X408667Y319616D02*
X408635Y319604D01*
X408607Y319583D01*
X408582Y319552D01*
X408560Y319512D01*
X408542Y319461D01*
X408527Y319401D01*
X408515Y319330D01*
X408507Y319250D01*
X408500Y319060D01*
X407500Y319212D01*
X407634Y320255D01*
X408667Y319616D01*
D02*
G37*
G36*
X408501Y284689D02*
X408521Y284436D01*
X408532Y284368D01*
X408547Y284307D01*
X408564Y284254D01*
X408583Y284209D01*
X408605Y284172D01*
X408630Y284143D01*
X407370D01*
X407395Y284172D01*
X407417Y284209D01*
X407436Y284254D01*
X407453Y284307D01*
X407468Y284368D01*
X407479Y284436D01*
X407495Y284597D01*
X407499Y284689D01*
X407500Y284788D01*
X408500D01*
X408501Y284689D01*
D02*
G37*
D21*
X408000Y320000D02*
X408500Y320500D01*
X408000Y283500D02*
Y320000D01*
D23*
X427500Y270000D02*
X433000Y264500D01*
X427500Y270000D02*
Y298000D01*
Y329500D01*
X424031Y332968D02*
X427500Y329500D01*
X391968Y332968D02*
X424031D01*
D24*
X392000Y349500D02*
D03*
D25*
X409500D02*
D03*
D26*
X500658Y324327D02*
D03*
X520342D02*
D03*
Y352673D02*
D03*
X500658D02*
D03*
X451158Y323827D02*
D03*
X470843D02*
D03*
Y352173D02*
D03*
X451158D02*
D03*
Y215827D02*
D03*
X470843D02*
D03*
Y244173D02*
D03*
X451158D02*
D03*
X500658Y215827D02*
D03*
X520342D02*
D03*
Y244173D02*
D03*
X500658D02*
D03*
D27*
X427500Y249000D02*
D03*
D28*
X412000D02*
D03*
X396500D02*
D03*
D29*
X518500Y282000D02*
D03*
Y284000D02*
D03*
Y286000D02*
D03*
X516500D02*
D03*
Y284000D02*
D03*
Y282000D02*
D03*
X514500D02*
D03*
Y284000D02*
D03*
Y286000D02*
D03*
X512500D02*
D03*
Y284000D02*
D03*
Y282000D02*
D03*
X510500D02*
D03*
Y284000D02*
D03*
Y286000D02*
D03*
X508500D02*
D03*
Y284000D02*
D03*
Y282000D02*
D03*
X506500D02*
D03*
Y284000D02*
D03*
Y286000D02*
D03*
X504500D02*
D03*
Y284000D02*
D03*
Y282000D02*
D03*
X502500D02*
D03*
Y284000D02*
D03*
Y286000D02*
D03*
X500500D02*
D03*
Y284000D02*
D03*
Y282000D02*
D03*
X498500D02*
D03*
Y284000D02*
D03*
Y286000D02*
D03*
X491000Y294500D02*
D03*
X493000D02*
D03*
X495000D02*
D03*
X493000Y280500D02*
D03*
X495000Y278500D02*
D03*
Y280500D02*
D03*
X493000Y278500D02*
D03*
X491000D02*
D03*
Y280500D02*
D03*
Y292500D02*
D03*
X493000D02*
D03*
X495000D02*
D03*
Y290500D02*
D03*
X493000D02*
D03*
X491000D02*
D03*
Y288500D02*
D03*
X493000D02*
D03*
X495000D02*
D03*
X491000Y282500D02*
D03*
X493000D02*
D03*
X491000Y284500D02*
D03*
X493000D02*
D03*
X491000Y286500D02*
D03*
X493000D02*
D03*
X495000D02*
D03*
Y284500D02*
D03*
Y282500D02*
D03*
X404000Y327500D02*
D03*
Y329500D02*
D03*
X402000Y327500D02*
D03*
X408500Y320500D02*
D03*
X408000Y283500D02*
D03*
X402500Y265000D02*
D03*
X415500Y283000D02*
D03*
X418469Y295532D02*
D03*
X421500Y272500D02*
D03*
X433000Y277000D02*
D03*
Y264500D02*
D03*
X427500Y298000D02*
D03*
X402000Y329500D02*
D03*
X390500Y292500D02*
D03*
X388500Y294500D02*
D03*
X390500D02*
D03*
X388500Y292500D02*
D03*
X391968Y332968D02*
D03*
X477000Y296000D02*
D03*
Y294000D02*
D03*
Y292000D02*
D03*
Y290000D02*
D03*
Y288000D02*
D03*
Y286000D02*
D03*
X475000Y296000D02*
D03*
X473000D02*
D03*
X471000D02*
D03*
X469000D02*
D03*
X465000D02*
D03*
X467000D02*
D03*
X463000D02*
D03*
X461000D02*
D03*
X459000D02*
D03*
X457000D02*
D03*
X455000D02*
D03*
X453000D02*
D03*
X451000D02*
D03*
Y294000D02*
D03*
X453000D02*
D03*
X455000D02*
D03*
X457000D02*
D03*
X459000D02*
D03*
X461000D02*
D03*
X463000D02*
D03*
X465000D02*
D03*
X467000D02*
D03*
X469000D02*
D03*
X471000D02*
D03*
X473000D02*
D03*
X475000D02*
D03*
Y292000D02*
D03*
X473000D02*
D03*
X471000D02*
D03*
X469000D02*
D03*
X467000D02*
D03*
X465000D02*
D03*
X463000D02*
D03*
X461000D02*
D03*
X459000D02*
D03*
X457000D02*
D03*
X455000D02*
D03*
X453000D02*
D03*
X451000D02*
D03*
X477000Y266500D02*
D03*
Y268500D02*
D03*
Y270500D02*
D03*
Y272500D02*
D03*
Y274500D02*
D03*
Y276500D02*
D03*
X461000Y290000D02*
D03*
X473000D02*
D03*
X475000D02*
D03*
X471000D02*
D03*
X469000D02*
D03*
X467000D02*
D03*
X465000D02*
D03*
X463000D02*
D03*
X459000D02*
D03*
X457000D02*
D03*
X455000D02*
D03*
X453000D02*
D03*
X451000D02*
D03*
Y288000D02*
D03*
X453000D02*
D03*
X455000D02*
D03*
X457000D02*
D03*
X459000D02*
D03*
X461000D02*
D03*
X463000D02*
D03*
X465000D02*
D03*
X467000D02*
D03*
X469000D02*
D03*
X471000D02*
D03*
X473000D02*
D03*
X475000D02*
D03*
Y286000D02*
D03*
X473000D02*
D03*
X471000D02*
D03*
X469000D02*
D03*
X467000D02*
D03*
X465000D02*
D03*
X463000D02*
D03*
X461000D02*
D03*
X459000D02*
D03*
X457000D02*
D03*
X455000D02*
D03*
X453000D02*
D03*
X451000D02*
D03*
X475000Y266500D02*
D03*
Y268500D02*
D03*
Y270500D02*
D03*
Y272500D02*
D03*
Y274500D02*
D03*
Y276500D02*
D03*
X473000Y266500D02*
D03*
Y268500D02*
D03*
Y270500D02*
D03*
Y272500D02*
D03*
Y274500D02*
D03*
Y276500D02*
D03*
X471000Y266500D02*
D03*
Y268500D02*
D03*
Y270500D02*
D03*
Y272500D02*
D03*
Y274500D02*
D03*
Y276500D02*
D03*
X469000Y266500D02*
D03*
X467000D02*
D03*
X465000D02*
D03*
X463000D02*
D03*
Y268500D02*
D03*
X461000Y266500D02*
D03*
X459000D02*
D03*
X457000D02*
D03*
X461000Y268500D02*
D03*
X459000D02*
D03*
X457000D02*
D03*
Y270500D02*
D03*
X465000Y268500D02*
D03*
X467000D02*
D03*
X469000D02*
D03*
Y270500D02*
D03*
X467000D02*
D03*
X465000D02*
D03*
X463000D02*
D03*
X461000D02*
D03*
X459000D02*
D03*
X455000D02*
D03*
Y268500D02*
D03*
Y266500D02*
D03*
X453000D02*
D03*
Y268500D02*
D03*
Y270500D02*
D03*
X451000Y266500D02*
D03*
Y268500D02*
D03*
Y270500D02*
D03*
X459000Y272500D02*
D03*
X451000D02*
D03*
X453000D02*
D03*
X455000D02*
D03*
X457000D02*
D03*
X461000D02*
D03*
X463000D02*
D03*
X465000D02*
D03*
X467000D02*
D03*
X469000D02*
D03*
Y274500D02*
D03*
X467000D02*
D03*
X465000D02*
D03*
X463000D02*
D03*
X461000D02*
D03*
X459000D02*
D03*
X457000D02*
D03*
X455000D02*
D03*
X453000D02*
D03*
X451000D02*
D03*
X469000Y276500D02*
D03*
X467000D02*
D03*
X465000D02*
D03*
X463000D02*
D03*
X461000D02*
D03*
X459000D02*
D03*
X457000D02*
D03*
X455000D02*
D03*
X453000D02*
D03*
X451000D02*
D03*
X492500Y257500D02*
D03*
X495000D02*
D03*
X497500D02*
D03*
X500000D02*
D03*
X502500D02*
D03*
X505000D02*
D03*
X507500D02*
D03*
X510000D02*
D03*
X512500D02*
D03*
X515000D02*
D03*
X517500D02*
D03*
X520000D02*
D03*
Y255000D02*
D03*
X517500D02*
D03*
X515000D02*
D03*
X512500D02*
D03*
X510000D02*
D03*
X507500D02*
D03*
X505000D02*
D03*
X502500D02*
D03*
X500000D02*
D03*
X497500D02*
D03*
X495000D02*
D03*
X492500D02*
D03*
Y252500D02*
D03*
X495000D02*
D03*
X497500D02*
D03*
X500000D02*
D03*
X502500D02*
D03*
X505000D02*
D03*
X507500D02*
D03*
X510000D02*
D03*
X512500D02*
D03*
X515000D02*
D03*
X517500D02*
D03*
X520000D02*
D03*
X499000Y306500D02*
D03*
X501500D02*
D03*
X504000D02*
D03*
X506500D02*
D03*
X509000D02*
D03*
X511500D02*
D03*
X514000D02*
D03*
X516500D02*
D03*
X519000D02*
D03*
X521500D02*
D03*
Y314000D02*
D03*
Y311500D02*
D03*
Y309000D02*
D03*
X519000D02*
D03*
Y311500D02*
D03*
Y314000D02*
D03*
X499000D02*
D03*
Y311500D02*
D03*
Y309000D02*
D03*
X501500D02*
D03*
Y311500D02*
D03*
Y314000D02*
D03*
X504000Y309000D02*
D03*
X506500D02*
D03*
X509000D02*
D03*
X511500D02*
D03*
X514000D02*
D03*
X516500D02*
D03*
Y311500D02*
D03*
X514000D02*
D03*
X511500D02*
D03*
X509000D02*
D03*
X506500D02*
D03*
X504000D02*
D03*
X516500Y314000D02*
D03*
X514000D02*
D03*
X511500D02*
D03*
X509000D02*
D03*
X506500D02*
D03*
X504000D02*
D03*
D30*
X412000Y230500D02*
Y249000D01*
Y266000D01*
%TF.MD5,5A8DFF58538B4712DBEFA1AEF5650CFE*%
M02*
