G04 Layer_Color=0*
%FSLAX25Y25*%
%MOIN*%
%TF.FileFunction,PTH,Drill*%
%TF.Part,Single*%
G01*
G75*
%TA.AperFunction,ViaDrill*%
%ADD26C,0.01000*%
D26*
X277000Y287000D02*
D03*
X275000D02*
D03*
X279000D02*
D03*
X281000D02*
D03*
X287500Y289500D02*
D03*
X289500D02*
D03*
X291500D02*
D03*
X293500D02*
D03*
X295500D02*
D03*
X275000Y284000D02*
D03*
X277000D02*
D03*
X275000Y282000D02*
D03*
X277000D02*
D03*
X281000Y289000D02*
D03*
X277000Y280000D02*
D03*
X292000D02*
D03*
X275000D02*
D03*
X295500Y284000D02*
D03*
X297500D02*
D03*
X299500D02*
D03*
X275000Y289000D02*
D03*
X277000D02*
D03*
X279000D02*
D03*
X295500Y282000D02*
D03*
X297500D02*
D03*
X299500D02*
D03*
X292000Y278000D02*
D03*
X274000D02*
D03*
X277000D02*
D03*
X279000D02*
D03*
X295500D02*
D03*
X299500D02*
D03*
X297500D02*
D03*
Y280000D02*
D03*
X299500D02*
D03*
X295500D02*
D03*
X284500Y278000D02*
D03*
Y280000D02*
D03*
Y282000D02*
D03*
Y284000D02*
D03*
X286500D02*
D03*
Y282000D02*
D03*
Y280000D02*
D03*
Y278000D02*
D03*
%TF.MD5,902F126FE6545C76FE888D39CC6B2A73*%
M02*
