G04 Layer_Color=0*
%FSLAX25Y25*%
%MOIN*%
%TF.FileFunction,PTH,Drill*%
%TF.Part,Single*%
G01*
G75*
%TA.AperFunction,ViaDrill*%
%ADD26C,0.01000*%
D26*
X277000Y280000D02*
D03*
X292000D02*
D03*
X274000D02*
D03*
X295500Y284000D02*
D03*
X297500D02*
D03*
X299500D02*
D03*
X293000Y293000D02*
D03*
X275000Y289000D02*
D03*
X277000D02*
D03*
X279000D02*
D03*
Y291000D02*
D03*
X275000D02*
D03*
X277000D02*
D03*
X275000Y293000D02*
D03*
X277000D02*
D03*
X279000D02*
D03*
X295500Y282000D02*
D03*
X297500D02*
D03*
X299500D02*
D03*
X292000Y278000D02*
D03*
X291000Y293000D02*
D03*
X289000D02*
D03*
X287000D02*
D03*
X285000D02*
D03*
X283000D02*
D03*
X281000D02*
D03*
X274000Y278000D02*
D03*
X277000D02*
D03*
X279000D02*
D03*
X295500D02*
D03*
X299500D02*
D03*
X297500D02*
D03*
Y280000D02*
D03*
X299500D02*
D03*
X295500D02*
D03*
X284500Y278000D02*
D03*
Y280000D02*
D03*
Y282000D02*
D03*
Y284000D02*
D03*
X286500D02*
D03*
Y282000D02*
D03*
Y280000D02*
D03*
Y278000D02*
D03*
X302500Y288500D02*
D03*
X300500D02*
D03*
X298500D02*
D03*
X296500D02*
D03*
Y293500D02*
D03*
X302500D02*
D03*
X300500D02*
D03*
X298500D02*
D03*
%TF.MD5,DBB64B2ABF5BEB6CB7A57374BC789A8A*%
M02*
