G04 Layer_Color=128*
%FSLAX25Y25*%
%MOIN*%
%TF.FileFunction,Drillmap*%
%TF.Part,Single*%
G01*
G75*
%ADD27C,0.00500*%
D27*
X276500Y287000D02*
X277500D01*
X277000Y286500D02*
Y287500D01*
X274500Y287000D02*
X275500D01*
X275000Y286500D02*
Y287500D01*
X278500Y287000D02*
X279500D01*
X279000Y286500D02*
Y287500D01*
X280500Y287000D02*
X281500D01*
X281000Y286500D02*
Y287500D01*
X287000Y289500D02*
X288000D01*
X287500Y289000D02*
Y290000D01*
X289000Y289500D02*
X290000D01*
X289500Y289000D02*
Y290000D01*
X291000Y289500D02*
X292000D01*
X291500Y289000D02*
Y290000D01*
X293000Y289500D02*
X294000D01*
X293500Y289000D02*
Y290000D01*
X295000Y289500D02*
X296000D01*
X295500Y289000D02*
Y290000D01*
X274500Y284000D02*
X275500D01*
X275000Y283500D02*
Y284500D01*
X276500Y284000D02*
X277500D01*
X277000Y283500D02*
Y284500D01*
X274500Y282000D02*
X275500D01*
X275000Y281500D02*
Y282500D01*
X276500Y282000D02*
X277500D01*
X277000Y281500D02*
Y282500D01*
X280500Y289000D02*
X281500D01*
X281000Y288500D02*
Y289500D01*
X276500Y280000D02*
X277500D01*
X277000Y279500D02*
Y280500D01*
X291500Y280000D02*
X292500D01*
X292000Y279500D02*
Y280500D01*
X274500Y280000D02*
X275500D01*
X275000Y279500D02*
Y280500D01*
X295000Y284000D02*
X296000D01*
X295500Y283500D02*
Y284500D01*
X297000Y284000D02*
X298000D01*
X297500Y283500D02*
Y284500D01*
X299000Y284000D02*
X300000D01*
X299500Y283500D02*
Y284500D01*
X274500Y289000D02*
X275500D01*
X275000Y288500D02*
Y289500D01*
X276500Y289000D02*
X277500D01*
X277000Y288500D02*
Y289500D01*
X278500Y289000D02*
X279500D01*
X279000Y288500D02*
Y289500D01*
X295000Y282000D02*
X296000D01*
X295500Y281500D02*
Y282500D01*
X297000Y282000D02*
X298000D01*
X297500Y281500D02*
Y282500D01*
X299000Y282000D02*
X300000D01*
X299500Y281500D02*
Y282500D01*
X291500Y278000D02*
X292500D01*
X292000Y277500D02*
Y278500D01*
X273500Y278000D02*
X274500D01*
X274000Y277500D02*
Y278500D01*
X276500Y278000D02*
X277500D01*
X277000Y277500D02*
Y278500D01*
X278500Y278000D02*
X279500D01*
X279000Y277500D02*
Y278500D01*
X295000Y278000D02*
X296000D01*
X295500Y277500D02*
Y278500D01*
X299000Y278000D02*
X300000D01*
X299500Y277500D02*
Y278500D01*
X297000Y278000D02*
X298000D01*
X297500Y277500D02*
Y278500D01*
X297000Y280000D02*
X298000D01*
X297500Y279500D02*
Y280500D01*
X299000Y280000D02*
X300000D01*
X299500Y279500D02*
Y280500D01*
X295000Y280000D02*
X296000D01*
X295500Y279500D02*
Y280500D01*
X284000Y278000D02*
X285000D01*
X284500Y277500D02*
Y278500D01*
X284000Y280000D02*
X285000D01*
X284500Y279500D02*
Y280500D01*
X284000Y282000D02*
X285000D01*
X284500Y281500D02*
Y282500D01*
X284000Y284000D02*
X285000D01*
X284500Y283500D02*
Y284500D01*
X286000Y284000D02*
X287000D01*
X286500Y283500D02*
Y284500D01*
X286000Y282000D02*
X287000D01*
X286500Y281500D02*
Y282500D01*
X286000Y280000D02*
X287000D01*
X286500Y279500D02*
Y280500D01*
X286000Y278000D02*
X287000D01*
X286500Y277500D02*
Y278500D01*
%TF.MD5,0A6FA8B6B108C0CFAD6A871C5D5058AB*%
M02*
