G04 Layer_Physical_Order=1*
G04 Layer_Color=255*
%FSLAX25Y25*%
%MOIN*%
%TF.FileFunction,Copper,L1,Top,Signal*%
%TF.Part,Single*%
G01*
G75*
%TA.AperFunction,SMDPad*%
%ADD10R,0.03661X0.03858*%
%TA.AperFunction,ViaPad*%
%ADD11C,0.01800*%
G36*
X303993Y288000D02*
X293000D01*
X292500Y287500D01*
X291000Y286000D01*
X283500D01*
X282677Y285177D01*
Y276916D01*
X275984D01*
X275477Y276815D01*
X275047Y276528D01*
X274760Y276098D01*
X274659Y275590D01*
Y273416D01*
X272979D01*
Y275590D01*
Y291674D01*
X303993D01*
Y288000D01*
D02*
G37*
G36*
Y276916D02*
X293701D01*
X293194Y276815D01*
X292763Y276528D01*
X292476Y276098D01*
X292375Y275590D01*
Y273325D01*
X290696D01*
Y275590D01*
X290595Y276098D01*
X290307Y276528D01*
X289877Y276815D01*
X289370Y276916D01*
X283493D01*
Y284839D01*
X283838Y285184D01*
X291000D01*
X291000Y285184D01*
X291312Y285246D01*
X291577Y285423D01*
X293077Y286923D01*
X293077Y286923D01*
X293338Y287184D01*
X303993D01*
Y276916D01*
D02*
G37*
D10*
X279969Y281000D02*
D03*
X286032D02*
D03*
D11*
X277000Y287000D02*
D03*
X275000D02*
D03*
X279000D02*
D03*
X281000D02*
D03*
X287500Y289500D02*
D03*
X289500D02*
D03*
X291500D02*
D03*
X293500D02*
D03*
X295500D02*
D03*
X275000Y284000D02*
D03*
X277000D02*
D03*
X275000Y282000D02*
D03*
X277000D02*
D03*
X281000Y289000D02*
D03*
X277000Y280000D02*
D03*
X292000D02*
D03*
X275000D02*
D03*
X295500Y284000D02*
D03*
X297500D02*
D03*
X299500D02*
D03*
X275000Y289000D02*
D03*
X277000D02*
D03*
X279000D02*
D03*
X295500Y282000D02*
D03*
X297500D02*
D03*
X299500D02*
D03*
X292000Y278000D02*
D03*
X274000D02*
D03*
X277000D02*
D03*
X279000D02*
D03*
X295500D02*
D03*
X299500D02*
D03*
X297500D02*
D03*
Y280000D02*
D03*
X299500D02*
D03*
X295500D02*
D03*
X284500Y278000D02*
D03*
Y280000D02*
D03*
Y282000D02*
D03*
Y284000D02*
D03*
X286500D02*
D03*
Y282000D02*
D03*
Y280000D02*
D03*
Y278000D02*
D03*
%TF.MD5,FEBBFE5A26E43DAD30AFBD0E1748564D*%
M02*
