G04 Layer_Color=128*
%FSLAX25Y25*%
%MOIN*%
%TF.FileFunction,Drillmap*%
%TF.Part,Single*%
G01*
G75*
%ADD27C,0.00500*%
D27*
X276500Y280000D02*
X277500D01*
X277000Y279500D02*
Y280500D01*
X291500Y280000D02*
X292500D01*
X292000Y279500D02*
Y280500D01*
X273500Y280000D02*
X274500D01*
X274000Y279500D02*
Y280500D01*
X295000Y284000D02*
X296000D01*
X295500Y283500D02*
Y284500D01*
X297000Y284000D02*
X298000D01*
X297500Y283500D02*
Y284500D01*
X299000Y284000D02*
X300000D01*
X299500Y283500D02*
Y284500D01*
X292500Y293000D02*
X293500D01*
X293000Y292500D02*
Y293500D01*
X274500Y289000D02*
X275500D01*
X275000Y288500D02*
Y289500D01*
X276500Y289000D02*
X277500D01*
X277000Y288500D02*
Y289500D01*
X278500Y289000D02*
X279500D01*
X279000Y288500D02*
Y289500D01*
X278500Y291000D02*
X279500D01*
X279000Y290500D02*
Y291500D01*
X274500Y291000D02*
X275500D01*
X275000Y290500D02*
Y291500D01*
X276500Y291000D02*
X277500D01*
X277000Y290500D02*
Y291500D01*
X274500Y293000D02*
X275500D01*
X275000Y292500D02*
Y293500D01*
X276500Y293000D02*
X277500D01*
X277000Y292500D02*
Y293500D01*
X278500Y293000D02*
X279500D01*
X279000Y292500D02*
Y293500D01*
X295000Y282000D02*
X296000D01*
X295500Y281500D02*
Y282500D01*
X297000Y282000D02*
X298000D01*
X297500Y281500D02*
Y282500D01*
X299000Y282000D02*
X300000D01*
X299500Y281500D02*
Y282500D01*
X291500Y278000D02*
X292500D01*
X292000Y277500D02*
Y278500D01*
X290500Y293000D02*
X291500D01*
X291000Y292500D02*
Y293500D01*
X288500Y293000D02*
X289500D01*
X289000Y292500D02*
Y293500D01*
X286500Y293000D02*
X287500D01*
X287000Y292500D02*
Y293500D01*
X284500Y293000D02*
X285500D01*
X285000Y292500D02*
Y293500D01*
X282500Y293000D02*
X283500D01*
X283000Y292500D02*
Y293500D01*
X280500Y293000D02*
X281500D01*
X281000Y292500D02*
Y293500D01*
X273500Y278000D02*
X274500D01*
X274000Y277500D02*
Y278500D01*
X276500Y278000D02*
X277500D01*
X277000Y277500D02*
Y278500D01*
X278500Y278000D02*
X279500D01*
X279000Y277500D02*
Y278500D01*
X295000Y278000D02*
X296000D01*
X295500Y277500D02*
Y278500D01*
X299000Y278000D02*
X300000D01*
X299500Y277500D02*
Y278500D01*
X297000Y278000D02*
X298000D01*
X297500Y277500D02*
Y278500D01*
X297000Y280000D02*
X298000D01*
X297500Y279500D02*
Y280500D01*
X299000Y280000D02*
X300000D01*
X299500Y279500D02*
Y280500D01*
X295000Y280000D02*
X296000D01*
X295500Y279500D02*
Y280500D01*
X284000Y278000D02*
X285000D01*
X284500Y277500D02*
Y278500D01*
X284000Y280000D02*
X285000D01*
X284500Y279500D02*
Y280500D01*
X284000Y282000D02*
X285000D01*
X284500Y281500D02*
Y282500D01*
X284000Y284000D02*
X285000D01*
X284500Y283500D02*
Y284500D01*
X286000Y284000D02*
X287000D01*
X286500Y283500D02*
Y284500D01*
X286000Y282000D02*
X287000D01*
X286500Y281500D02*
Y282500D01*
X286000Y280000D02*
X287000D01*
X286500Y279500D02*
Y280500D01*
X286000Y278000D02*
X287000D01*
X286500Y277500D02*
Y278500D01*
X302000Y288500D02*
X303000D01*
X302500Y288000D02*
Y289000D01*
X300000Y288500D02*
X301000D01*
X300500Y288000D02*
Y289000D01*
X298000Y288500D02*
X299000D01*
X298500Y288000D02*
Y289000D01*
X296000Y288500D02*
X297000D01*
X296500Y288000D02*
Y289000D01*
X296000Y293500D02*
X297000D01*
X296500Y293000D02*
Y294000D01*
X302000Y293500D02*
X303000D01*
X302500Y293000D02*
Y294000D01*
X300000Y293500D02*
X301000D01*
X300500Y293000D02*
Y294000D01*
X298000Y293500D02*
X299000D01*
X298500Y293000D02*
Y294000D01*
%TF.MD5,EFB4592F5742589B9D25FCC07D6086C2*%
M02*
