G04 Layer_Color=65535*
%FSLAX25Y25*%
%MOIN*%
%TF.FileFunction,Legend,Top*%
%TF.Part,Single*%
G01*
G75*
%ADD13C,0.00787*%
G36*
X287676Y287401D02*
X287801Y287366D01*
X288145Y287194D01*
X288235Y287138D01*
X288321Y287061D01*
X288368Y287001D01*
X288398Y286897D01*
Y286811D01*
X288342Y286734D01*
X288261Y286687D01*
X288158Y286644D01*
X288033Y286601D01*
X287895Y286592D01*
X287771Y286562D01*
X287685Y286519D01*
X287581Y286485D01*
X287500Y286459D01*
X287362Y286455D01*
X287255Y286468D01*
X287181Y286459D01*
X287117Y286437D01*
X287091Y286369D01*
X287100Y286244D01*
X287134Y286175D01*
X287203Y286093D01*
X287328Y285956D01*
X287392Y285896D01*
X287517Y285831D01*
X287581Y285801D01*
X287663Y285767D01*
X287762D01*
X287852Y285788D01*
X287925Y285801D01*
X288011Y285831D01*
X288093Y285853D01*
X288149D01*
X288153Y285827D01*
X288123Y285797D01*
X288072Y285758D01*
X287981Y285715D01*
X287887Y285663D01*
X287796Y285629D01*
X287706Y285608D01*
X287577Y285612D01*
X287444Y285642D01*
X287336Y285698D01*
X287212Y285775D01*
X287100Y285874D01*
X287018Y285926D01*
X286962Y285982D01*
X286911Y286050D01*
X286876Y286076D01*
X286803Y286257D01*
X286739Y286407D01*
X286700Y286536D01*
X286687Y286631D01*
X286696Y286738D01*
X286717Y286850D01*
X286739Y286949D01*
X286769Y287014D01*
X286799Y287087D01*
X286825Y287121D01*
X286876Y287168D01*
X286919Y287173D01*
X286992Y287276D01*
X287074Y287349D01*
X287164Y287392D01*
X287272Y287414D01*
X287405D01*
X287521Y287418D01*
X287676Y287401D01*
D02*
G37*
G36*
X302477D02*
X302601Y287366D01*
X302945Y287194D01*
X303036Y287138D01*
X303122Y287061D01*
X303169Y287001D01*
X303199Y286897D01*
Y286811D01*
X303143Y286734D01*
X303061Y286687D01*
X302958Y286644D01*
X302834Y286601D01*
X302696Y286592D01*
X302571Y286562D01*
X302485Y286519D01*
X302382Y286485D01*
X302300Y286459D01*
X302163Y286455D01*
X302055Y286468D01*
X301982Y286459D01*
X301918Y286437D01*
X301892Y286369D01*
X301900Y286244D01*
X301935Y286175D01*
X302004Y286093D01*
X302128Y285956D01*
X302193Y285896D01*
X302318Y285831D01*
X302382Y285801D01*
X302464Y285767D01*
X302563D01*
X302653Y285788D01*
X302726Y285801D01*
X302812Y285831D01*
X302894Y285853D01*
X302950D01*
X302954Y285827D01*
X302924Y285797D01*
X302872Y285758D01*
X302782Y285715D01*
X302687Y285663D01*
X302597Y285629D01*
X302507Y285608D01*
X302378Y285612D01*
X302244Y285642D01*
X302137Y285698D01*
X302012Y285775D01*
X301900Y285874D01*
X301819Y285926D01*
X301763Y285982D01*
X301711Y286050D01*
X301677Y286076D01*
X301604Y286257D01*
X301539Y286407D01*
X301501Y286536D01*
X301488Y286631D01*
X301496Y286738D01*
X301518Y286850D01*
X301539Y286949D01*
X301569Y287014D01*
X301599Y287087D01*
X301625Y287121D01*
X301677Y287168D01*
X301720Y287173D01*
X301793Y287276D01*
X301875Y287349D01*
X301965Y287392D01*
X302072Y287414D01*
X302206D01*
X302322Y287418D01*
X302477Y287401D01*
D02*
G37*
G36*
X297437Y286498D02*
X297420Y286450D01*
X297373Y286442D01*
X297347Y286502D01*
X297394Y286528D01*
X297437Y286498D01*
D02*
G37*
G36*
X299445D02*
X299428Y286450D01*
X299381Y286442D01*
X299355Y286502D01*
X299402Y286528D01*
X299445Y286498D01*
D02*
G37*
G36*
X294616Y286837D02*
X294608Y286794D01*
X294560Y286807D01*
X294556Y286837D01*
X294603Y286880D01*
X294616Y286837D01*
D02*
G37*
G36*
X297553Y285156D02*
X297549Y285109D01*
X297506Y285117D01*
X297480Y285143D01*
X297523Y285177D01*
X297553Y285156D01*
D02*
G37*
G36*
X286485Y287078D02*
X286446Y287018D01*
X286373Y287027D01*
X286365Y287082D01*
X286416Y287104D01*
X286485Y287078D01*
D02*
G37*
G36*
X283028Y286902D02*
X283036Y286850D01*
X282993Y286833D01*
X282937Y286872D01*
X282976Y286941D01*
X283028Y286902D01*
D02*
G37*
G36*
X299561Y285156D02*
X299557Y285109D01*
X299514Y285117D01*
X299488Y285143D01*
X299531Y285177D01*
X299561Y285156D01*
D02*
G37*
G36*
X299935Y287663D02*
X300021Y287641D01*
X300069Y287538D01*
X300086Y287439D01*
X300112Y287396D01*
X300193Y287401D01*
X300275Y287439D01*
X300490Y287469D01*
X300580Y287461D01*
X300679Y287431D01*
X300735Y287401D01*
X300804Y287366D01*
X300886Y287297D01*
X300985Y287134D01*
X301010Y287044D01*
X301045Y286945D01*
X301066Y286859D01*
X301083Y286781D01*
X301101Y286700D01*
X301114Y286592D01*
X301092Y286485D01*
X301062Y286386D01*
X300980Y286201D01*
X300903Y286128D01*
X300847Y286089D01*
X300774Y286055D01*
X300692Y286020D01*
X300602Y286003D01*
X300413D01*
X300331Y286020D01*
X300275Y286037D01*
X300228Y286098D01*
X300202Y286154D01*
X300198Y286210D01*
X300202Y286240D01*
X300228Y286283D01*
X300275D01*
X300305Y286257D01*
Y286201D01*
X300314Y286123D01*
X300413Y286072D01*
X300503D01*
X300559Y286081D01*
X300675Y286123D01*
X300735Y286179D01*
X300821Y286296D01*
X300860Y286424D01*
X300886Y286554D01*
Y286627D01*
X300838Y286708D01*
X300817Y286781D01*
X300813Y286867D01*
X300774Y286923D01*
X300739Y286992D01*
X300705Y287044D01*
X300645Y287087D01*
X300585Y287104D01*
X300503Y287130D01*
X300417Y287121D01*
X300309Y287039D01*
X300245Y286975D01*
X300215Y286902D01*
X300193Y286829D01*
X300180Y286734D01*
X300193Y286683D01*
X300137Y286631D01*
X300094Y286596D01*
X300056Y286554D01*
X300039Y286502D01*
Y286416D01*
X300026Y286334D01*
Y286270D01*
X300013Y286197D01*
X300017Y286123D01*
X300000Y286072D01*
X299978Y286007D01*
X299944Y285801D01*
X299918Y285672D01*
X299905Y285590D01*
X299884Y285487D01*
X299871Y285362D01*
X299819Y285246D01*
X299815Y285160D01*
X299781Y285066D01*
X299750Y284980D01*
X299729Y284864D01*
X299703Y284765D01*
X299690Y284674D01*
X299686Y284580D01*
X299690Y284464D01*
X299694Y284399D01*
X299720Y284339D01*
X299707Y284283D01*
X299647Y284231D01*
X299621Y284201D01*
X299566Y284266D01*
X299548Y284352D01*
X299544Y284429D01*
Y284541D01*
X299548Y284627D01*
X299561Y284709D01*
X299553Y284803D01*
X299570Y284829D01*
X299600Y284907D01*
X299630Y285005D01*
X299656Y285066D01*
X299677Y285156D01*
X299703Y285233D01*
X299733Y285307D01*
X299694Y285405D01*
X299690Y285522D01*
Y285612D01*
X299694Y285676D01*
X299677Y285780D01*
X299690Y285960D01*
X299733Y286033D01*
X299707Y286149D01*
X299729Y286274D01*
Y286382D01*
X299742Y286472D01*
X299729Y286575D01*
X299733Y286644D01*
X299707Y286717D01*
X299669Y286747D01*
X299686Y286811D01*
X299720Y286880D01*
X299729Y286966D01*
X299707Y287044D01*
Y287108D01*
X299686Y287168D01*
X299596Y287306D01*
X299561Y287478D01*
X299557Y287534D01*
Y287585D01*
X299596Y287646D01*
X299656Y287715D01*
X299750D01*
X299935Y287663D01*
D02*
G37*
G36*
X283582Y285616D02*
Y285573D01*
X283544Y285569D01*
X283496Y285603D01*
X283544Y285663D01*
X283582Y285616D01*
D02*
G37*
G36*
X282267Y289159D02*
X282344Y289086D01*
X282408Y289004D01*
X282464Y288987D01*
X282576Y288957D01*
X282649Y288871D01*
X282727Y288721D01*
X282856Y288583D01*
X282993Y288476D01*
X283097Y288355D01*
X283144Y288218D01*
X283217Y288110D01*
X283225Y287968D01*
X283251Y287831D01*
X283363Y287676D01*
X283436Y287585D01*
X283488Y287456D01*
X283587Y287328D01*
X283677Y287444D01*
X283763Y287594D01*
X283793Y287710D01*
X283879Y287813D01*
X283905Y287895D01*
X283913Y288020D01*
X283944Y288110D01*
X283978Y288196D01*
X284051Y288278D01*
X284120Y288308D01*
X284159Y288377D01*
X284236Y288476D01*
X284309Y288549D01*
X284391Y288695D01*
X284447Y288798D01*
Y288918D01*
X284421Y289017D01*
X284451Y289108D01*
X284516Y289138D01*
X284606Y289129D01*
X284645Y289065D01*
X284713Y289017D01*
X284769Y288974D01*
X284817Y288923D01*
X284804Y288876D01*
X284761Y288845D01*
X284743Y288759D01*
X284687Y288673D01*
X284597Y288549D01*
X284520Y288433D01*
X284485Y288359D01*
X284382Y288243D01*
X284361Y288188D01*
X284296Y288136D01*
X284223Y287998D01*
X284128Y287899D01*
X284103Y287783D01*
X284034Y287663D01*
X283952Y287598D01*
X283879Y287530D01*
X283815Y287439D01*
X283763Y287349D01*
X283737Y287229D01*
X283741Y287138D01*
X283832Y287095D01*
X283853Y287035D01*
X283905Y287005D01*
X283939Y286915D01*
X283995Y286842D01*
X284068Y286773D01*
X284111Y286687D01*
X284223Y286579D01*
X284331Y286446D01*
X284391Y286338D01*
X284468Y286291D01*
X284546Y286171D01*
X284636Y286072D01*
X284778Y285861D01*
X284829Y285715D01*
X284782Y285655D01*
X284692Y285672D01*
X284576Y285762D01*
X284477Y285857D01*
X284386Y285982D01*
X284331Y286072D01*
X284275Y286136D01*
X284232Y286192D01*
X284253Y286257D01*
X284176Y286364D01*
X284103Y286472D01*
X283995Y286528D01*
X283978Y286631D01*
X283905Y286734D01*
X283819Y286824D01*
X283806Y286915D01*
X283699Y287001D01*
X283587Y287057D01*
X283518Y287027D01*
X283484Y286988D01*
X283428Y286893D01*
X283324Y286769D01*
X283299Y286687D01*
X283243Y286601D01*
X283204Y286579D01*
X283152Y286489D01*
X283101Y286485D01*
X283062Y286394D01*
X283023Y286304D01*
X282929Y286201D01*
X282903Y286123D01*
X282847Y286042D01*
X282744Y285964D01*
X282636Y285913D01*
X282602Y285823D01*
X282568Y285732D01*
X282512Y285659D01*
X282477Y285552D01*
X282400Y285500D01*
X282292D01*
X282284Y285582D01*
X282314Y285681D01*
X282365Y285788D01*
X282400Y285848D01*
X282391Y285926D01*
X282490Y286033D01*
X282533Y286119D01*
X282555Y286214D01*
X282576Y286296D01*
X282611Y286390D01*
X282658Y286459D01*
X282718Y286528D01*
X282765Y286541D01*
X282839Y286554D01*
X282907Y286588D01*
X282963Y286644D01*
X283028Y286670D01*
X283092Y286734D01*
X283135Y286816D01*
X283208Y286893D01*
X283251Y286966D01*
X283299Y287057D01*
X283354Y287121D01*
X283428Y287160D01*
X283496Y287220D01*
X283458Y287284D01*
X283432Y287358D01*
X283367Y287431D01*
X283277Y287508D01*
X283170Y287629D01*
X283015Y287710D01*
X282903Y287775D01*
X282839Y287865D01*
X282783Y287985D01*
X282727Y288058D01*
X282701Y288127D01*
X282624Y288183D01*
X282572Y288265D01*
X282546Y288321D01*
X282512Y288411D01*
X282447Y288458D01*
X282408Y288510D01*
X282421Y288544D01*
X282361Y288609D01*
X282327Y288673D01*
X282232Y288725D01*
X282133Y288738D01*
X282047Y288790D01*
X282013Y288863D01*
X282000Y288944D01*
X282021Y288992D01*
X282047Y289116D01*
X282159Y289198D01*
X282267Y289159D01*
D02*
G37*
G36*
X295119Y289602D02*
X295317Y289585D01*
X295412Y289546D01*
X295493Y289512D01*
X295575Y289447D01*
X295674Y289357D01*
X295730Y289250D01*
X295794Y289138D01*
X295846Y288987D01*
Y288893D01*
X295898Y288777D01*
X295893Y288648D01*
X295906Y288583D01*
X295893Y288454D01*
X295867Y288338D01*
X295850Y288209D01*
X295846Y288089D01*
X295820Y287985D01*
X295769Y287861D01*
X295687Y287757D01*
X295601Y287702D01*
X295511Y287629D01*
X295425Y287581D01*
X295343Y287525D01*
Y287414D01*
X295369Y287323D01*
X295403Y287233D01*
X295425Y287151D01*
X295506Y286949D01*
X295631Y286738D01*
X295687Y286644D01*
X295739Y286523D01*
X295825Y286369D01*
X295867Y286274D01*
X295949Y286162D01*
X295988Y286033D01*
X296040Y285921D01*
X296113Y285801D01*
X296173Y285702D01*
X296267Y285590D01*
X296379Y285487D01*
X296461Y285401D01*
X296517Y285324D01*
X296543Y285289D01*
X296551Y285246D01*
X296530Y285233D01*
X296487D01*
X296439Y285259D01*
X296379Y285294D01*
X296224Y285405D01*
X296117Y285500D01*
X296005Y285642D01*
X295919Y285762D01*
X295846Y285887D01*
X295756Y285982D01*
X295631Y286136D01*
X295489Y286274D01*
X295356Y286390D01*
X295257Y286523D01*
X295106Y286695D01*
X294999Y286859D01*
X294887Y287001D01*
X294780Y287130D01*
X294651Y287237D01*
X294517Y287319D01*
X294384D01*
X294380Y287233D01*
X294337Y287095D01*
X294302Y286880D01*
X294298Y286751D01*
X294264Y286635D01*
X294221Y286334D01*
X294212Y286158D01*
Y286050D01*
X294195Y285805D01*
Y285749D01*
X294221Y285702D01*
X294268Y285646D01*
X294298Y285573D01*
X294281Y285526D01*
X294251Y285491D01*
X294199Y285466D01*
X294143Y285478D01*
X294105Y285509D01*
X294074Y285556D01*
X294001Y285676D01*
X293993Y285823D01*
Y285999D01*
X294001Y286278D01*
X294031Y286394D01*
X294044Y286463D01*
Y286609D01*
X294066Y286691D01*
X294083Y286781D01*
X294087Y286876D01*
X294117Y287001D01*
X294126Y287138D01*
X294156Y287284D01*
X294165Y287444D01*
X294195Y287543D01*
X294203Y287654D01*
Y287792D01*
X294221Y287934D01*
X294225Y288080D01*
X294285Y288390D01*
X294302Y288506D01*
Y288617D01*
X294311Y288777D01*
X294350Y288884D01*
X294384Y288987D01*
X294362Y289090D01*
X294384Y289198D01*
X294341Y289310D01*
X294358Y289404D01*
X294401Y289490D01*
X294526Y289499D01*
X294655Y289585D01*
X294771Y289602D01*
X294939Y289611D01*
X295119Y289602D01*
D02*
G37*
G36*
X296732Y287594D02*
X296788Y287551D01*
X296839Y287508D01*
X296904D01*
X296951Y287461D01*
X296994Y287431D01*
X297033Y287396D01*
Y287345D01*
X297011Y287319D01*
X296951Y287284D01*
X296912Y287250D01*
X296891Y287181D01*
X296882Y287082D01*
X296848Y286988D01*
X296869Y286902D01*
X296844Y286833D01*
X296835Y286738D01*
X296826Y286635D01*
Y286532D01*
X296835Y286407D01*
X296826Y286317D01*
Y286214D01*
X296844Y286136D01*
X296869Y286059D01*
X296844Y285969D01*
X296874Y285891D01*
Y285754D01*
X296882Y285702D01*
X296904Y285620D01*
X296912Y285539D01*
X296934Y285483D01*
Y285427D01*
X296955Y285375D01*
X296930Y285324D01*
X296891Y285307D01*
X296869Y285324D01*
X296844Y285380D01*
X296826Y285448D01*
X296814Y285500D01*
X296783Y285556D01*
Y285612D01*
X296745Y285702D01*
Y285784D01*
X296732Y285844D01*
Y285926D01*
X296710Y285999D01*
X296702Y286175D01*
X296689Y286222D01*
X296685Y286338D01*
X296689Y286416D01*
X296685Y286498D01*
Y286571D01*
X296654Y286631D01*
X296603Y286657D01*
X296568Y286695D01*
X296534Y286811D01*
X296525Y286876D01*
Y287108D01*
X296534Y287207D01*
X296517Y287315D01*
X296513Y287388D01*
X296487Y287452D01*
X296513Y287525D01*
X296547Y287577D01*
X296594Y287594D01*
X296659Y287616D01*
X296732Y287594D01*
D02*
G37*
G36*
X291529Y285758D02*
X291503Y285719D01*
X291473Y285711D01*
X291451Y285758D01*
X291499Y285805D01*
X291529Y285758D01*
D02*
G37*
G36*
X302902Y285921D02*
X302864Y285896D01*
X302834Y285921D01*
X302851Y285964D01*
X302894D01*
X302902Y285921D01*
D02*
G37*
G36*
X297927Y287663D02*
X298013Y287641D01*
X298060Y287538D01*
X298078Y287439D01*
X298103Y287396D01*
X298185Y287401D01*
X298267Y287439D01*
X298482Y287469D01*
X298572Y287461D01*
X298671Y287431D01*
X298727Y287401D01*
X298796Y287366D01*
X298878Y287297D01*
X298976Y287134D01*
X299002Y287044D01*
X299037Y286945D01*
X299058Y286859D01*
X299075Y286781D01*
X299093Y286700D01*
X299105Y286592D01*
X299084Y286485D01*
X299054Y286386D01*
X298972Y286201D01*
X298895Y286128D01*
X298839Y286089D01*
X298766Y286055D01*
X298684Y286020D01*
X298594Y286003D01*
X298405D01*
X298323Y286020D01*
X298267Y286037D01*
X298220Y286098D01*
X298194Y286154D01*
X298189Y286210D01*
X298194Y286240D01*
X298220Y286283D01*
X298267D01*
X298297Y286257D01*
Y286201D01*
X298306Y286123D01*
X298405Y286072D01*
X298495D01*
X298551Y286081D01*
X298667Y286123D01*
X298727Y286179D01*
X298813Y286296D01*
X298852Y286424D01*
X298878Y286554D01*
Y286627D01*
X298830Y286708D01*
X298809Y286781D01*
X298804Y286867D01*
X298766Y286923D01*
X298731Y286992D01*
X298697Y287044D01*
X298637Y287087D01*
X298576Y287104D01*
X298495Y287130D01*
X298409Y287121D01*
X298301Y287039D01*
X298237Y286975D01*
X298207Y286902D01*
X298185Y286829D01*
X298172Y286734D01*
X298185Y286683D01*
X298129Y286631D01*
X298086Y286596D01*
X298048Y286554D01*
X298030Y286502D01*
Y286416D01*
X298018Y286334D01*
Y286270D01*
X298005Y286197D01*
X298009Y286123D01*
X297992Y286072D01*
X297970Y286007D01*
X297936Y285801D01*
X297910Y285672D01*
X297897Y285590D01*
X297876Y285487D01*
X297863Y285362D01*
X297811Y285246D01*
X297807Y285160D01*
X297772Y285066D01*
X297742Y284980D01*
X297721Y284864D01*
X297695Y284765D01*
X297682Y284674D01*
X297678Y284580D01*
X297682Y284464D01*
X297686Y284399D01*
X297712Y284339D01*
X297699Y284283D01*
X297639Y284231D01*
X297613Y284201D01*
X297557Y284266D01*
X297540Y284352D01*
X297536Y284429D01*
Y284541D01*
X297540Y284627D01*
X297553Y284709D01*
X297545Y284803D01*
X297562Y284829D01*
X297592Y284907D01*
X297622Y285005D01*
X297648Y285066D01*
X297669Y285156D01*
X297695Y285233D01*
X297725Y285307D01*
X297686Y285405D01*
X297682Y285522D01*
Y285612D01*
X297686Y285676D01*
X297669Y285780D01*
X297682Y285960D01*
X297725Y286033D01*
X297699Y286149D01*
X297721Y286274D01*
Y286382D01*
X297734Y286472D01*
X297721Y286575D01*
X297725Y286644D01*
X297699Y286717D01*
X297661Y286747D01*
X297678Y286811D01*
X297712Y286880D01*
X297721Y286966D01*
X297699Y287044D01*
Y287108D01*
X297678Y287168D01*
X297587Y287306D01*
X297553Y287478D01*
X297549Y287534D01*
Y287585D01*
X297587Y287646D01*
X297648Y287715D01*
X297742D01*
X297927Y287663D01*
D02*
G37*
G36*
X290510Y287590D02*
X290574Y287551D01*
X290634Y287504D01*
X290699Y287439D01*
X290729Y287396D01*
X290755Y287328D01*
X290815Y287297D01*
X290880Y287315D01*
X290961Y287328D01*
X291043Y287353D01*
X291120Y287375D01*
X291224Y287388D01*
X291305Y287401D01*
X291387Y287370D01*
X291430Y287323D01*
X291469Y287237D01*
X291494Y287181D01*
X291507Y287095D01*
X291537Y287039D01*
X291580Y286971D01*
X291611Y286876D01*
X291619Y286790D01*
X291623Y286700D01*
X291641Y286609D01*
X291645Y286519D01*
X291671Y286437D01*
X291675Y286360D01*
Y286274D01*
X291688Y286192D01*
X291718Y286111D01*
X291731Y286025D01*
X291774Y285960D01*
X291800Y285896D01*
Y285840D01*
X291774Y285810D01*
X291744Y285788D01*
X291684Y285792D01*
X291632Y285840D01*
X291615Y285896D01*
X291606Y285973D01*
Y286037D01*
X291585Y286119D01*
X291580Y286205D01*
Y286278D01*
X291555Y286360D01*
X291550Y286450D01*
X291507Y286592D01*
X291494Y286807D01*
X291443Y286953D01*
X291374Y287018D01*
X291288Y287057D01*
X291254Y287104D01*
X291193Y287134D01*
X291099Y287104D01*
X291034Y287078D01*
X290974Y287014D01*
X290914Y286945D01*
X290837Y286833D01*
X290806Y286764D01*
X290789Y286700D01*
X290776Y286635D01*
X290729Y286575D01*
X290673Y286506D01*
X290652Y286412D01*
X290647Y286304D01*
Y286197D01*
X290634Y286068D01*
X290630Y285947D01*
Y285840D01*
X290634Y285736D01*
X290656Y285646D01*
X290677Y285573D01*
X290682Y285500D01*
X290652Y285470D01*
X290630Y285436D01*
X290574Y285423D01*
X290518D01*
X290484Y285453D01*
X290454Y285487D01*
X290424Y285582D01*
X290406Y285663D01*
X290381Y285835D01*
Y285896D01*
X290368Y285969D01*
X290359Y286068D01*
Y286175D01*
X290346Y286278D01*
Y286356D01*
X290342Y286437D01*
X290320Y286523D01*
Y286631D01*
X290316Y286725D01*
Y287095D01*
X290290Y287164D01*
X290256Y287220D01*
X290234Y287267D01*
X290213Y287328D01*
X290204Y287401D01*
X290213Y287452D01*
X290239Y287508D01*
X290273Y287543D01*
X290342Y287590D01*
X290424Y287598D01*
X290510Y287590D01*
D02*
G37*
G36*
X288102Y285921D02*
X288063Y285896D01*
X288033Y285921D01*
X288050Y285964D01*
X288093D01*
X288102Y285921D01*
D02*
G37*
G36*
X289108Y287332D02*
X289207Y287289D01*
X289215Y287229D01*
X289263Y287151D01*
Y287031D01*
X289297Y286996D01*
X289332Y286992D01*
X289379Y287001D01*
X289439Y287048D01*
X289516Y287100D01*
X289607Y287138D01*
X289684Y287181D01*
X289774Y287194D01*
X289869Y287220D01*
X289921D01*
X289994Y287194D01*
X290019Y287151D01*
Y287112D01*
X289977Y287100D01*
X289921Y287108D01*
X289869D01*
X289792Y287095D01*
X289693Y287039D01*
X289645Y286975D01*
X289551Y286932D01*
X289512Y286885D01*
X289430Y286816D01*
X289396Y286743D01*
X289374Y286674D01*
Y286588D01*
X289349Y286519D01*
X289323Y286450D01*
X289301Y286369D01*
X289297Y286287D01*
Y286098D01*
X289288Y286012D01*
X289267Y285926D01*
X289258Y285844D01*
X289250Y285754D01*
Y285672D01*
X289207Y285582D01*
X289151Y285534D01*
X289073Y285509D01*
X289022Y285500D01*
X288975Y285509D01*
X288932Y285556D01*
X288910Y285612D01*
X288889Y285668D01*
X288893Y285736D01*
X288889Y285831D01*
Y285969D01*
X288880Y286033D01*
X288889Y286106D01*
X288893Y286205D01*
Y286283D01*
X288906Y286382D01*
X288910Y286476D01*
X288906Y286584D01*
Y286674D01*
X288893Y286747D01*
X288889Y286811D01*
X288837Y286893D01*
X288794Y286962D01*
X288773Y287031D01*
X288768Y287108D01*
X288777Y287181D01*
X288807Y287233D01*
X288854Y287272D01*
X288936Y287297D01*
X289026Y287345D01*
X289108Y287332D01*
D02*
G37*
G36*
X284510Y291000D02*
X283903D01*
X282201Y295408D01*
X282833D01*
X283977Y292204D01*
Y292200D01*
X283981Y292187D01*
X283989Y292165D01*
X283998Y292140D01*
X284011Y292105D01*
X284024Y292062D01*
X284041Y292019D01*
X284058Y291968D01*
X284093Y291856D01*
X284131Y291735D01*
X284170Y291611D01*
X284209Y291482D01*
Y291486D01*
X284213Y291499D01*
X284217Y291516D01*
X284226Y291542D01*
X284239Y291576D01*
X284247Y291615D01*
X284260Y291658D01*
X284278Y291709D01*
X284312Y291817D01*
X284351Y291937D01*
X284398Y292071D01*
X284445Y292204D01*
X285641Y295408D01*
X286234D01*
X284510Y291000D01*
D02*
G37*
G36*
X288139Y292324D02*
X286475D01*
Y292870D01*
X288139D01*
Y292324D01*
D02*
G37*
G36*
X290917Y295403D02*
X290973D01*
X291037Y295399D01*
X291102Y295395D01*
X291248Y295377D01*
X291398Y295356D01*
X291540Y295326D01*
X291605Y295309D01*
X291665Y295287D01*
X291669D01*
X291678Y295283D01*
X291695Y295274D01*
X291717Y295266D01*
X291742Y295248D01*
X291772Y295231D01*
X291841Y295188D01*
X291919Y295132D01*
X292000Y295059D01*
X292082Y294969D01*
X292155Y294866D01*
X292159Y294861D01*
X292164Y294853D01*
X292172Y294836D01*
X292185Y294814D01*
X292198Y294784D01*
X292215Y294750D01*
X292232Y294715D01*
X292250Y294672D01*
X292280Y294573D01*
X292310Y294461D01*
X292331Y294337D01*
X292340Y294272D01*
Y294203D01*
Y294199D01*
Y294182D01*
Y294156D01*
X292336Y294126D01*
X292331Y294083D01*
X292323Y294040D01*
X292314Y293984D01*
X292301Y293928D01*
X292284Y293868D01*
X292267Y293804D01*
X292241Y293739D01*
X292211Y293670D01*
X292177Y293606D01*
X292134Y293537D01*
X292091Y293473D01*
X292035Y293412D01*
X292030Y293408D01*
X292022Y293399D01*
X292005Y293382D01*
X291979Y293361D01*
X291944Y293335D01*
X291906Y293305D01*
X291858Y293275D01*
X291803Y293240D01*
X291742Y293206D01*
X291673Y293172D01*
X291596Y293137D01*
X291510Y293103D01*
X291420Y293073D01*
X291321Y293047D01*
X291213Y293021D01*
X291097Y293004D01*
X291102D01*
X291106Y293000D01*
X291119Y292991D01*
X291136Y292987D01*
X291179Y292961D01*
X291231Y292935D01*
X291286Y292901D01*
X291342Y292866D01*
X291398Y292823D01*
X291450Y292785D01*
X291454Y292780D01*
X291463Y292776D01*
X291476Y292759D01*
X291493Y292741D01*
X291514Y292720D01*
X291540Y292690D01*
X291570Y292660D01*
X291605Y292621D01*
X291678Y292535D01*
X291759Y292436D01*
X291845Y292320D01*
X291932Y292195D01*
X292693Y291000D01*
X291966D01*
X291381Y291916D01*
X291377Y291920D01*
X291368Y291933D01*
X291355Y291955D01*
X291338Y291980D01*
X291317Y292015D01*
X291291Y292054D01*
X291235Y292140D01*
X291166Y292238D01*
X291097Y292337D01*
X291024Y292436D01*
X290994Y292479D01*
X290960Y292522D01*
Y292527D01*
X290951Y292531D01*
X290934Y292557D01*
X290899Y292595D01*
X290861Y292638D01*
X290813Y292686D01*
X290766Y292733D01*
X290715Y292780D01*
X290663Y292815D01*
X290659Y292819D01*
X290641Y292828D01*
X290616Y292845D01*
X290581Y292862D01*
X290543Y292883D01*
X290500Y292901D01*
X290452Y292922D01*
X290401Y292935D01*
X290396D01*
X290384Y292939D01*
X290358Y292944D01*
X290323Y292948D01*
X290280D01*
X290224Y292952D01*
X290156Y292956D01*
X289403D01*
Y291000D01*
X288818D01*
Y295408D01*
X290869D01*
X290917Y295403D01*
D02*
G37*
G36*
X293729Y291000D02*
X293187D01*
Y294195D01*
X293729D01*
Y291000D01*
D02*
G37*
G36*
X275720Y289053D02*
X273534D01*
Y287807D01*
X275425D01*
Y287331D01*
X273534D01*
Y285500D01*
X273000D01*
Y289528D01*
X275720D01*
Y289053D01*
D02*
G37*
G36*
X302273Y294264D02*
X302299D01*
X302329Y294259D01*
X302398Y294247D01*
X302484Y294225D01*
X302578Y294195D01*
X302677Y294152D01*
X302785Y294092D01*
X302591Y293589D01*
X302583Y293593D01*
X302557Y293606D01*
X302518Y293627D01*
X302467Y293649D01*
X302406Y293670D01*
X302342Y293692D01*
X302269Y293705D01*
X302196Y293709D01*
X302166D01*
X302131Y293705D01*
X302088Y293696D01*
X302041Y293683D01*
X301989Y293662D01*
X301933Y293636D01*
X301877Y293601D01*
X301873Y293597D01*
X301856Y293580D01*
X301830Y293559D01*
X301800Y293524D01*
X301766Y293481D01*
X301731Y293429D01*
X301701Y293374D01*
X301675Y293305D01*
Y293301D01*
X301671Y293292D01*
X301667Y293275D01*
X301662Y293253D01*
X301654Y293227D01*
X301649Y293197D01*
X301641Y293159D01*
X301632Y293120D01*
X301615Y293025D01*
X301602Y292918D01*
X301594Y292797D01*
X301589Y292673D01*
Y291000D01*
X301047D01*
Y294195D01*
X301533D01*
Y293709D01*
X301538Y293713D01*
X301542Y293722D01*
X301551Y293739D01*
X301564Y293765D01*
X301581Y293791D01*
X301602Y293821D01*
X301645Y293894D01*
X301697Y293967D01*
X301757Y294040D01*
X301817Y294105D01*
X301847Y294135D01*
X301877Y294156D01*
X301886Y294161D01*
X301907Y294173D01*
X301938Y294191D01*
X301981Y294212D01*
X302032Y294234D01*
X302092Y294251D01*
X302157Y294264D01*
X302226Y294268D01*
X302252D01*
X302273Y294264D01*
D02*
G37*
G36*
X293729Y294784D02*
X293187D01*
Y295408D01*
X293729D01*
Y294784D01*
D02*
G37*
G36*
X295694Y294264D02*
X295733D01*
X295776Y294259D01*
X295823Y294255D01*
X295926Y294242D01*
X296034Y294221D01*
X296150Y294195D01*
X296257Y294156D01*
X296262D01*
X296270Y294152D01*
X296283Y294143D01*
X296305Y294135D01*
X296356Y294113D01*
X296416Y294079D01*
X296485Y294036D01*
X296558Y293988D01*
X296623Y293928D01*
X296679Y293864D01*
X296683Y293855D01*
X296700Y293829D01*
X296726Y293791D01*
X296756Y293735D01*
X296786Y293662D01*
X296816Y293580D01*
X296846Y293481D01*
X296868Y293374D01*
X296339Y293301D01*
Y293305D01*
Y293313D01*
X296335Y293326D01*
X296330Y293339D01*
X296318Y293387D01*
X296300Y293442D01*
X296270Y293503D01*
X296236Y293567D01*
X296188Y293627D01*
X296128Y293683D01*
X296120Y293688D01*
X296098Y293705D01*
X296055Y293726D01*
X296004Y293756D01*
X295935Y293782D01*
X295849Y293804D01*
X295750Y293821D01*
X295638Y293825D01*
X295578D01*
X295548Y293821D01*
X295513D01*
X295432Y293808D01*
X295346Y293795D01*
X295260Y293774D01*
X295178Y293743D01*
X295144Y293722D01*
X295109Y293700D01*
X295101Y293696D01*
X295083Y293679D01*
X295058Y293653D01*
X295032Y293619D01*
X295002Y293576D01*
X294976Y293524D01*
X294959Y293468D01*
X294950Y293408D01*
Y293404D01*
Y293391D01*
X294954Y293369D01*
X294959Y293348D01*
X294967Y293318D01*
X294976Y293283D01*
X294993Y293253D01*
X295015Y293219D01*
X295019Y293215D01*
X295027Y293206D01*
X295045Y293189D01*
X295066Y293167D01*
X295092Y293146D01*
X295131Y293120D01*
X295169Y293098D01*
X295221Y293073D01*
X295225D01*
X295238Y293068D01*
X295268Y293055D01*
X295286Y293051D01*
X295311Y293042D01*
X295341Y293034D01*
X295372Y293025D01*
X295414Y293017D01*
X295458Y293004D01*
X295509Y292987D01*
X295565Y292974D01*
X295630Y292956D01*
X295698Y292935D01*
X295707D01*
X295724Y292926D01*
X295754Y292922D01*
X295793Y292909D01*
X295840Y292896D01*
X295892Y292879D01*
X295952Y292862D01*
X296017Y292845D01*
X296146Y292806D01*
X296279Y292763D01*
X296343Y292741D01*
X296399Y292720D01*
X296451Y292699D01*
X296498Y292681D01*
X296502D01*
X296507Y292677D01*
X296520Y292673D01*
X296537Y292664D01*
X296575Y292643D01*
X296627Y292613D01*
X296687Y292569D01*
X296743Y292522D01*
X296803Y292466D01*
X296855Y292397D01*
X296859Y292389D01*
X296877Y292363D01*
X296898Y292324D01*
X296924Y292273D01*
X296945Y292204D01*
X296967Y292127D01*
X296984Y292036D01*
X296988Y291937D01*
Y291933D01*
Y291925D01*
Y291912D01*
X296984Y291890D01*
Y291869D01*
X296980Y291839D01*
X296967Y291774D01*
X296950Y291692D01*
X296919Y291606D01*
X296881Y291516D01*
X296829Y291426D01*
Y291421D01*
X296821Y291417D01*
X296812Y291404D01*
X296799Y291387D01*
X296765Y291344D01*
X296713Y291288D01*
X296649Y291228D01*
X296571Y291168D01*
X296477Y291108D01*
X296373Y291056D01*
X296369D01*
X296360Y291052D01*
X296343Y291043D01*
X296322Y291034D01*
X296292Y291026D01*
X296262Y291017D01*
X296223Y291004D01*
X296180Y290991D01*
X296128Y290979D01*
X296077Y290970D01*
X295965Y290948D01*
X295836Y290931D01*
X295698Y290927D01*
X295638D01*
X295595Y290931D01*
X295544Y290935D01*
X295483Y290940D01*
X295419Y290948D01*
X295346Y290961D01*
X295191Y290991D01*
X295113Y291013D01*
X295036Y291034D01*
X294959Y291065D01*
X294881Y291099D01*
X294812Y291138D01*
X294748Y291185D01*
X294744Y291189D01*
X294735Y291198D01*
X294718Y291211D01*
X294696Y291232D01*
X294671Y291262D01*
X294640Y291292D01*
X294606Y291331D01*
X294576Y291378D01*
X294537Y291430D01*
X294503Y291486D01*
X294468Y291546D01*
X294434Y291615D01*
X294404Y291692D01*
X294378Y291774D01*
X294352Y291860D01*
X294335Y291950D01*
X294868Y292036D01*
Y292032D01*
X294873Y292023D01*
Y292006D01*
X294877Y291985D01*
X294886Y291955D01*
X294894Y291925D01*
X294916Y291851D01*
X294950Y291770D01*
X294993Y291688D01*
X295049Y291611D01*
X295118Y291537D01*
X295122D01*
X295126Y291529D01*
X295139Y291520D01*
X295157Y291512D01*
X295178Y291499D01*
X295204Y291486D01*
X295234Y291469D01*
X295268Y291456D01*
X295307Y291439D01*
X295350Y291421D01*
X295449Y291396D01*
X295565Y291378D01*
X295694Y291370D01*
X295728D01*
X295754Y291374D01*
X295784D01*
X295823Y291378D01*
X295905Y291387D01*
X295995Y291408D01*
X296085Y291434D01*
X296171Y291469D01*
X296214Y291494D01*
X296249Y291520D01*
X296253D01*
X296257Y291529D01*
X296279Y291546D01*
X296309Y291581D01*
X296343Y291623D01*
X296373Y291675D01*
X296404Y291735D01*
X296425Y291804D01*
X296434Y291839D01*
Y291877D01*
Y291881D01*
Y291886D01*
X296429Y291907D01*
X296425Y291942D01*
X296412Y291985D01*
X296395Y292032D01*
X296365Y292079D01*
X296326Y292127D01*
X296270Y292170D01*
X296266Y292174D01*
X296244Y292182D01*
X296232Y292191D01*
X296210Y292200D01*
X296188Y292208D01*
X296158Y292221D01*
X296124Y292234D01*
X296085Y292247D01*
X296042Y292264D01*
X295991Y292277D01*
X295931Y292294D01*
X295866Y292316D01*
X295793Y292333D01*
X295715Y292354D01*
X295707D01*
X295690Y292363D01*
X295660Y292367D01*
X295621Y292380D01*
X295569Y292393D01*
X295518Y292406D01*
X295453Y292423D01*
X295389Y292445D01*
X295255Y292483D01*
X295118Y292527D01*
X295053Y292548D01*
X294993Y292569D01*
X294937Y292591D01*
X294890Y292613D01*
X294886D01*
X294881Y292617D01*
X294868Y292625D01*
X294851Y292634D01*
X294812Y292660D01*
X294761Y292694D01*
X294705Y292737D01*
X294649Y292789D01*
X294593Y292849D01*
X294542Y292918D01*
Y292922D01*
X294537Y292926D01*
X294524Y292952D01*
X294503Y292991D01*
X294486Y293042D01*
X294464Y293107D01*
X294443Y293180D01*
X294430Y293257D01*
X294426Y293343D01*
Y293348D01*
Y293352D01*
Y293365D01*
Y293382D01*
X294430Y293421D01*
X294438Y293473D01*
X294447Y293533D01*
X294464Y293601D01*
X294490Y293670D01*
X294520Y293739D01*
Y293743D01*
X294524Y293748D01*
X294537Y293769D01*
X294559Y293804D01*
X294589Y293847D01*
X294628Y293894D01*
X294675Y293946D01*
X294726Y293997D01*
X294787Y294044D01*
X294791Y294049D01*
X294812Y294062D01*
X294838Y294075D01*
X294877Y294096D01*
X294929Y294122D01*
X294985Y294148D01*
X295053Y294173D01*
X295131Y294199D01*
X295135D01*
X295139Y294203D01*
X295152Y294208D01*
X295169Y294212D01*
X295212Y294221D01*
X295273Y294234D01*
X295341Y294247D01*
X295423Y294259D01*
X295509Y294264D01*
X295599Y294268D01*
X295664D01*
X295694Y294264D01*
D02*
G37*
G36*
X277590Y288483D02*
X277629Y288479D01*
X277681Y288475D01*
X277744Y288467D01*
X277806Y288455D01*
X277881Y288436D01*
X277956Y288416D01*
X278034Y288388D01*
X278117Y288357D01*
X278199Y288318D01*
X278282Y288275D01*
X278361Y288220D01*
X278439Y288161D01*
X278514Y288090D01*
X278518Y288086D01*
X278530Y288070D01*
X278549Y288051D01*
X278573Y288019D01*
X278604Y287976D01*
X278636Y287929D01*
X278671Y287874D01*
X278706Y287807D01*
X278742Y287732D01*
X278777Y287650D01*
X278808Y287563D01*
X278840Y287465D01*
X278864Y287359D01*
X278883Y287249D01*
X278895Y287127D01*
X278899Y287001D01*
Y286993D01*
Y286978D01*
Y286946D01*
X278895Y286907D01*
Y286860D01*
X278891Y286805D01*
X278883Y286746D01*
X278879Y286679D01*
X278860Y286538D01*
X278828Y286388D01*
X278785Y286243D01*
X278761Y286176D01*
X278730Y286113D01*
Y286109D01*
X278722Y286097D01*
X278714Y286082D01*
X278698Y286062D01*
X278683Y286034D01*
X278659Y286003D01*
X278604Y285928D01*
X278533Y285850D01*
X278451Y285763D01*
X278349Y285685D01*
X278235Y285610D01*
X278231D01*
X278219Y285602D01*
X278203Y285594D01*
X278180Y285582D01*
X278148Y285571D01*
X278113Y285555D01*
X278074Y285539D01*
X278027Y285524D01*
X277975Y285504D01*
X277920Y285488D01*
X277802Y285461D01*
X277673Y285441D01*
X277602Y285437D01*
X277531Y285433D01*
X277504D01*
X277472Y285437D01*
X277429Y285441D01*
X277378Y285445D01*
X277319Y285453D01*
X277252Y285465D01*
X277182Y285484D01*
X277103Y285504D01*
X277024Y285527D01*
X276942Y285563D01*
X276859Y285598D01*
X276777Y285645D01*
X276694Y285697D01*
X276620Y285755D01*
X276545Y285826D01*
X276541Y285830D01*
X276529Y285846D01*
X276509Y285865D01*
X276486Y285901D01*
X276458Y285940D01*
X276427Y285991D01*
X276392Y286046D01*
X276356Y286117D01*
X276321Y286192D01*
X276286Y286274D01*
X276254Y286368D01*
X276226Y286471D01*
X276203Y286581D01*
X276183Y286699D01*
X276171Y286824D01*
X276168Y286958D01*
Y286962D01*
Y286966D01*
Y286978D01*
Y286993D01*
X276171Y287037D01*
X276175Y287092D01*
X276183Y287158D01*
X276191Y287237D01*
X276207Y287323D01*
X276223Y287414D01*
X276246Y287508D01*
X276278Y287610D01*
X276313Y287709D01*
X276356Y287807D01*
X276407Y287905D01*
X276466Y287996D01*
X276537Y288082D01*
X276616Y288161D01*
X276620Y288164D01*
X276631Y288176D01*
X276655Y288192D01*
X276682Y288212D01*
X276718Y288235D01*
X276765Y288263D01*
X276816Y288294D01*
X276871Y288326D01*
X276934Y288353D01*
X277005Y288385D01*
X277079Y288412D01*
X277162Y288436D01*
X277248Y288455D01*
X277339Y288471D01*
X277433Y288483D01*
X277531Y288487D01*
X277559D01*
X277590Y288483D01*
D02*
G37*
G36*
X280528Y295420D02*
X280575D01*
X280627Y295416D01*
X280687Y295408D01*
X280756Y295395D01*
X280833Y295382D01*
X280911Y295360D01*
X280992Y295339D01*
X281078Y295309D01*
X281160Y295274D01*
X281246Y295235D01*
X281323Y295188D01*
X281401Y295132D01*
X281474Y295072D01*
X281478Y295068D01*
X281491Y295055D01*
X281508Y295038D01*
X281530Y295008D01*
X281560Y294973D01*
X281590Y294935D01*
X281624Y294887D01*
X281659Y294831D01*
X281693Y294771D01*
X281728Y294702D01*
X281758Y294634D01*
X281788Y294556D01*
X281809Y294474D01*
X281826Y294384D01*
X281839Y294294D01*
X281844Y294199D01*
Y294195D01*
Y294186D01*
Y294173D01*
Y294156D01*
X281839Y294130D01*
Y294105D01*
X281831Y294036D01*
X281818Y293958D01*
X281796Y293868D01*
X281771Y293774D01*
X281732Y293679D01*
Y293675D01*
X281728Y293666D01*
X281719Y293653D01*
X281710Y293636D01*
X281698Y293610D01*
X281685Y293584D01*
X281646Y293515D01*
X281599Y293438D01*
X281534Y293343D01*
X281461Y293245D01*
X281371Y293141D01*
X281366Y293137D01*
X281358Y293128D01*
X281345Y293111D01*
X281323Y293090D01*
X281293Y293060D01*
X281263Y293025D01*
X281220Y292987D01*
X281173Y292939D01*
X281121Y292888D01*
X281057Y292828D01*
X280992Y292763D01*
X280915Y292694D01*
X280833Y292621D01*
X280743Y292539D01*
X280644Y292458D01*
X280541Y292367D01*
X280537Y292363D01*
X280519Y292350D01*
X280493Y292329D01*
X280463Y292303D01*
X280425Y292268D01*
X280382Y292230D01*
X280278Y292144D01*
X280175Y292054D01*
X280072Y291963D01*
X280025Y291920D01*
X279982Y291877D01*
X279943Y291843D01*
X279913Y291813D01*
X279909Y291808D01*
X279891Y291787D01*
X279866Y291757D01*
X279831Y291722D01*
X279797Y291675D01*
X279758Y291628D01*
X279719Y291576D01*
X279685Y291520D01*
X281848D01*
Y291000D01*
X278937D01*
Y291004D01*
Y291009D01*
Y291034D01*
Y291069D01*
X278941Y291120D01*
X278950Y291176D01*
X278958Y291241D01*
X278976Y291305D01*
X278997Y291374D01*
Y291378D01*
X279001Y291387D01*
X279010Y291404D01*
X279019Y291426D01*
X279031Y291452D01*
X279044Y291482D01*
X279083Y291559D01*
X279135Y291649D01*
X279195Y291748D01*
X279268Y291851D01*
X279354Y291959D01*
X279358Y291963D01*
X279367Y291972D01*
X279380Y291989D01*
X279401Y292010D01*
X279427Y292036D01*
X279457Y292071D01*
X279492Y292109D01*
X279535Y292152D01*
X279582Y292195D01*
X279633Y292247D01*
X279694Y292303D01*
X279754Y292363D01*
X279823Y292423D01*
X279896Y292488D01*
X279977Y292557D01*
X280059Y292625D01*
X280068Y292634D01*
X280089Y292651D01*
X280128Y292681D01*
X280175Y292724D01*
X280236Y292772D01*
X280300Y292832D01*
X280373Y292896D01*
X280451Y292965D01*
X280614Y293116D01*
X280773Y293270D01*
X280846Y293348D01*
X280915Y293425D01*
X280979Y293494D01*
X281031Y293563D01*
X281035Y293567D01*
X281044Y293580D01*
X281057Y293597D01*
X281070Y293623D01*
X281091Y293653D01*
X281113Y293688D01*
X281134Y293730D01*
X281160Y293774D01*
X281207Y293872D01*
X281250Y293980D01*
X281263Y294040D01*
X281276Y294096D01*
X281285Y294156D01*
X281289Y294212D01*
Y294216D01*
Y294225D01*
Y294242D01*
X281285Y294268D01*
X281280Y294294D01*
X281276Y294324D01*
X281259Y294401D01*
X281233Y294487D01*
X281190Y294578D01*
X281164Y294621D01*
X281134Y294668D01*
X281100Y294711D01*
X281057Y294754D01*
X281052Y294758D01*
X281048Y294762D01*
X281031Y294775D01*
X281014Y294788D01*
X280992Y294806D01*
X280962Y294823D01*
X280932Y294844D01*
X280893Y294866D01*
X280855Y294887D01*
X280807Y294909D01*
X280704Y294943D01*
X280588Y294969D01*
X280524Y294973D01*
X280455Y294977D01*
X280416D01*
X280390Y294973D01*
X280356Y294969D01*
X280317Y294965D01*
X280274Y294956D01*
X280231Y294947D01*
X280128Y294922D01*
X280025Y294879D01*
X279973Y294853D01*
X279922Y294818D01*
X279874Y294784D01*
X279827Y294741D01*
X279823Y294737D01*
X279818Y294732D01*
X279805Y294715D01*
X279793Y294698D01*
X279775Y294676D01*
X279754Y294646D01*
X279732Y294612D01*
X279711Y294573D01*
X279689Y294530D01*
X279668Y294483D01*
X279651Y294427D01*
X279629Y294371D01*
X279616Y294311D01*
X279603Y294242D01*
X279599Y294173D01*
X279595Y294096D01*
X279040Y294152D01*
Y294161D01*
X279044Y294178D01*
X279049Y294212D01*
X279053Y294255D01*
X279066Y294307D01*
X279079Y294367D01*
X279096Y294431D01*
X279113Y294504D01*
X279139Y294578D01*
X279169Y294655D01*
X279204Y294732D01*
X279242Y294814D01*
X279290Y294892D01*
X279341Y294965D01*
X279401Y295033D01*
X279466Y295098D01*
X279470Y295102D01*
X279483Y295111D01*
X279504Y295128D01*
X279535Y295149D01*
X279573Y295175D01*
X279616Y295201D01*
X279672Y295231D01*
X279732Y295261D01*
X279801Y295291D01*
X279874Y295321D01*
X279956Y295347D01*
X280046Y295373D01*
X280141Y295395D01*
X280244Y295412D01*
X280352Y295420D01*
X280468Y295425D01*
X280498D01*
X280528Y295420D01*
D02*
G37*
G36*
X296964Y288656D02*
X296998Y288609D01*
X296986Y288566D01*
X296934Y288510D01*
X296895Y288450D01*
Y288394D01*
X296925Y288342D01*
X296955Y288304D01*
Y288218D01*
X296925Y288144D01*
X296878Y288084D01*
X296818Y288037D01*
X296740Y288033D01*
X296654Y288037D01*
X296607Y288067D01*
X296547Y288110D01*
X296495Y288170D01*
X296427Y288252D01*
X296396Y288329D01*
X296388Y288390D01*
X296396Y288445D01*
X296427Y288510D01*
X296469Y288557D01*
X296551Y288605D01*
X296624Y288617D01*
X296732Y288630D01*
X296839Y288656D01*
X296912Y288665D01*
X296964Y288656D01*
D02*
G37*
G36*
X283518Y288540D02*
X283475Y288489D01*
X283440Y288549D01*
X283488Y288617D01*
X283518Y288540D01*
D02*
G37*
G36*
X303908Y287332D02*
X304007Y287289D01*
X304016Y287229D01*
X304063Y287151D01*
Y287031D01*
X304098Y286996D01*
X304132Y286992D01*
X304179Y287001D01*
X304240Y287048D01*
X304317Y287100D01*
X304407Y287138D01*
X304485Y287181D01*
X304575Y287194D01*
X304670Y287220D01*
X304721D01*
X304794Y287194D01*
X304820Y287151D01*
Y287112D01*
X304777Y287100D01*
X304721Y287108D01*
X304670D01*
X304592Y287095D01*
X304493Y287039D01*
X304446Y286975D01*
X304351Y286932D01*
X304313Y286885D01*
X304231Y286816D01*
X304197Y286743D01*
X304175Y286674D01*
Y286588D01*
X304149Y286519D01*
X304123Y286450D01*
X304102Y286369D01*
X304098Y286287D01*
Y286098D01*
X304089Y286012D01*
X304068Y285926D01*
X304059Y285844D01*
X304050Y285754D01*
Y285672D01*
X304007Y285582D01*
X303952Y285534D01*
X303874Y285509D01*
X303822Y285500D01*
X303775Y285509D01*
X303732Y285556D01*
X303711Y285612D01*
X303689Y285668D01*
X303694Y285736D01*
X303689Y285831D01*
Y285969D01*
X303681Y286033D01*
X303689Y286106D01*
X303694Y286205D01*
Y286283D01*
X303706Y286382D01*
X303711Y286476D01*
X303706Y286584D01*
Y286674D01*
X303694Y286747D01*
X303689Y286811D01*
X303638Y286893D01*
X303595Y286962D01*
X303573Y287031D01*
X303569Y287108D01*
X303577Y287181D01*
X303608Y287233D01*
X303655Y287272D01*
X303736Y287297D01*
X303827Y287345D01*
X303908Y287332D01*
D02*
G37*
G36*
X285573Y288200D02*
X285638Y288175D01*
X285702Y288127D01*
X285728Y288089D01*
X285775Y288033D01*
X285793Y287985D01*
X285836Y287912D01*
X285848Y287878D01*
X285840Y287792D01*
X285818Y287727D01*
X285810Y287654D01*
X285780Y287598D01*
X285793Y287543D01*
X285840Y287508D01*
X285922Y287491D01*
X285999Y287499D01*
X286223D01*
X286287Y287491D01*
X286399Y287482D01*
X286485Y287461D01*
X286524Y287452D01*
X286575Y287435D01*
X286567Y287392D01*
X286524Y287362D01*
X286446Y287345D01*
X286365Y287340D01*
X286274Y287319D01*
X286192D01*
X286102Y287310D01*
X285986Y287284D01*
X285922Y287306D01*
X285840Y287280D01*
X285775Y287237D01*
X285750Y287190D01*
Y287134D01*
X285741Y287044D01*
X285719Y287001D01*
Y286928D01*
X285702Y286850D01*
X285668Y286738D01*
X285659Y286639D01*
Y286265D01*
X285664Y286175D01*
X285659Y286063D01*
X285633Y285977D01*
X285629Y285913D01*
X285621Y285797D01*
X285642Y285599D01*
X285664Y285547D01*
X285702Y285470D01*
X285763Y285427D01*
X285870Y285384D01*
X285934Y285392D01*
X286064D01*
X286029Y285345D01*
X285926Y285307D01*
X285788D01*
X285702Y285324D01*
X285612Y285354D01*
X285526Y285405D01*
X285440Y285436D01*
X285350Y285526D01*
X285307Y285620D01*
X285298Y285732D01*
X285277Y285840D01*
X285255Y285913D01*
X285264Y286029D01*
Y286145D01*
X285255Y286240D01*
X285272Y286321D01*
X285242Y286437D01*
X285229Y286566D01*
X285225Y286674D01*
X285229Y286769D01*
X285255Y286876D01*
Y287254D01*
X285173Y287242D01*
X285100Y287216D01*
X285014Y287186D01*
X284954Y287143D01*
X284898Y287134D01*
X284864Y287138D01*
X284838Y287168D01*
Y287198D01*
X284851Y287250D01*
X284881Y287284D01*
X284946Y287319D01*
X285010Y287310D01*
X285087Y287328D01*
X285165Y287340D01*
X285255Y287349D01*
X285268Y287401D01*
X285255Y287482D01*
X285268Y287581D01*
X285272Y287706D01*
X285268Y287788D01*
X285255Y287861D01*
X285234Y287934D01*
Y287998D01*
X285268Y288071D01*
X285350Y288110D01*
X285410Y288175D01*
X285500Y288209D01*
X285573Y288200D01*
D02*
G37*
G36*
X296702Y288716D02*
X296654Y288691D01*
X296607Y288699D01*
X296620Y288751D01*
X296659Y288772D01*
X296702Y288716D01*
D02*
G37*
G36*
X299001Y294264D02*
X299048Y294259D01*
X299100Y294255D01*
X299164Y294247D01*
X299237Y294229D01*
X299310Y294212D01*
X299392Y294191D01*
X299478Y294161D01*
X299564Y294126D01*
X299650Y294083D01*
X299740Y294032D01*
X299826Y293976D01*
X299908Y293907D01*
X299985Y293829D01*
X299990Y293825D01*
X300003Y293808D01*
X300024Y293782D01*
X300050Y293748D01*
X300080Y293705D01*
X300114Y293649D01*
X300153Y293584D01*
X300192Y293511D01*
X300226Y293429D01*
X300265Y293335D01*
X300299Y293236D01*
X300329Y293124D01*
X300355Y293008D01*
X300377Y292879D01*
X300390Y292746D01*
X300394Y292600D01*
Y292591D01*
Y292578D01*
Y292565D01*
Y292544D01*
Y292518D01*
X300390Y292492D01*
Y292458D01*
X298003D01*
Y292453D01*
Y292436D01*
X298007Y292406D01*
X298012Y292372D01*
X298020Y292329D01*
X298029Y292277D01*
X298038Y292221D01*
X298050Y292157D01*
X298089Y292028D01*
X298115Y291959D01*
X298141Y291894D01*
X298175Y291830D01*
X298210Y291765D01*
X298253Y291705D01*
X298300Y291649D01*
X298304Y291645D01*
X298313Y291636D01*
X298326Y291623D01*
X298347Y291606D01*
X298373Y291585D01*
X298407Y291559D01*
X298442Y291537D01*
X298485Y291512D01*
X298532Y291482D01*
X298579Y291460D01*
X298635Y291434D01*
X298695Y291413D01*
X298760Y291396D01*
X298824Y291383D01*
X298898Y291374D01*
X298971Y291370D01*
X299001D01*
X299022Y291374D01*
X299048D01*
X299074Y291378D01*
X299147Y291391D01*
X299224Y291408D01*
X299310Y291434D01*
X299396Y291473D01*
X299478Y291525D01*
X299482D01*
X299487Y291533D01*
X299512Y291555D01*
X299551Y291593D01*
X299598Y291649D01*
X299654Y291718D01*
X299710Y291804D01*
X299736Y291856D01*
X299762Y291912D01*
X299788Y291968D01*
X299813Y292032D01*
X300372Y291959D01*
Y291955D01*
X300368Y291937D01*
X300360Y291912D01*
X300347Y291877D01*
X300334Y291834D01*
X300312Y291787D01*
X300291Y291735D01*
X300265Y291679D01*
X300231Y291619D01*
X300196Y291555D01*
X300157Y291490D01*
X300110Y291426D01*
X300063Y291366D01*
X300007Y291305D01*
X299947Y291245D01*
X299882Y291194D01*
X299878Y291189D01*
X299865Y291181D01*
X299848Y291168D01*
X299818Y291150D01*
X299783Y291133D01*
X299740Y291108D01*
X299689Y291086D01*
X299633Y291060D01*
X299573Y291034D01*
X299504Y291013D01*
X299426Y290987D01*
X299349Y290970D01*
X299259Y290953D01*
X299168Y290940D01*
X299074Y290931D01*
X298971Y290927D01*
X298940D01*
X298902Y290931D01*
X298854Y290935D01*
X298794Y290940D01*
X298726Y290948D01*
X298652Y290961D01*
X298571Y290983D01*
X298480Y291004D01*
X298390Y291030D01*
X298300Y291069D01*
X298205Y291108D01*
X298115Y291159D01*
X298025Y291215D01*
X297939Y291280D01*
X297857Y291357D01*
X297853Y291361D01*
X297840Y291378D01*
X297818Y291400D01*
X297792Y291439D01*
X297762Y291482D01*
X297728Y291533D01*
X297689Y291598D01*
X297655Y291671D01*
X297616Y291753D01*
X297577Y291843D01*
X297543Y291942D01*
X297513Y292049D01*
X297487Y292165D01*
X297466Y292294D01*
X297453Y292428D01*
X297448Y292569D01*
Y292574D01*
Y292578D01*
Y292604D01*
X297453Y292647D01*
X297457Y292703D01*
X297461Y292772D01*
X297470Y292849D01*
X297483Y292935D01*
X297500Y293030D01*
X297521Y293124D01*
X297547Y293227D01*
X297582Y293331D01*
X297625Y293438D01*
X297672Y293541D01*
X297724Y293640D01*
X297788Y293735D01*
X297861Y293821D01*
X297866Y293825D01*
X297883Y293842D01*
X297904Y293864D01*
X297939Y293890D01*
X297977Y293924D01*
X298029Y293963D01*
X298085Y294001D01*
X298154Y294044D01*
X298227Y294087D01*
X298308Y294126D01*
X298399Y294165D01*
X298493Y294199D01*
X298597Y294225D01*
X298704Y294251D01*
X298820Y294264D01*
X298940Y294268D01*
X298971D01*
X299001Y294264D01*
D02*
G37*
G36*
X277621Y291000D02*
X277079D01*
Y294444D01*
X277075D01*
X277071Y294436D01*
X277058Y294427D01*
X277045Y294414D01*
X277002Y294375D01*
X276942Y294328D01*
X276869Y294272D01*
X276778Y294208D01*
X276675Y294139D01*
X276563Y294070D01*
X276559D01*
X276550Y294062D01*
X276533Y294053D01*
X276512Y294040D01*
X276482Y294023D01*
X276451Y294006D01*
X276374Y293967D01*
X276288Y293924D01*
X276193Y293877D01*
X276095Y293834D01*
X276000Y293795D01*
Y294315D01*
X276004Y294320D01*
X276022Y294324D01*
X276043Y294337D01*
X276077Y294354D01*
X276116Y294375D01*
X276159Y294401D01*
X276211Y294427D01*
X276267Y294461D01*
X276391Y294535D01*
X276525Y294625D01*
X276658Y294724D01*
X276791Y294831D01*
X276796Y294836D01*
X276804Y294844D01*
X276826Y294861D01*
X276847Y294883D01*
X276873Y294913D01*
X276907Y294943D01*
X276942Y294982D01*
X276980Y295021D01*
X277058Y295111D01*
X277135Y295210D01*
X277208Y295317D01*
X277243Y295369D01*
X277269Y295425D01*
X277621D01*
Y291000D01*
D02*
G37*
G36*
X280593Y288483D02*
X280616D01*
X280644Y288479D01*
X280707Y288467D01*
X280785Y288447D01*
X280872Y288420D01*
X280962Y288381D01*
X281060Y288326D01*
X280884Y287866D01*
X280876Y287870D01*
X280852Y287882D01*
X280817Y287901D01*
X280770Y287921D01*
X280715Y287941D01*
X280656Y287960D01*
X280589Y287972D01*
X280522Y287976D01*
X280494D01*
X280463Y287972D01*
X280424Y287964D01*
X280381Y287952D01*
X280333Y287933D01*
X280282Y287909D01*
X280231Y287878D01*
X280227Y287874D01*
X280211Y287858D01*
X280188Y287838D01*
X280160Y287807D01*
X280129Y287768D01*
X280098Y287720D01*
X280070Y287669D01*
X280047Y287607D01*
Y287603D01*
X280043Y287595D01*
X280039Y287579D01*
X280035Y287559D01*
X280027Y287536D01*
X280023Y287508D01*
X280015Y287473D01*
X280007Y287438D01*
X279992Y287351D01*
X279980Y287253D01*
X279972Y287143D01*
X279968Y287029D01*
Y285500D01*
X279473D01*
Y288420D01*
X279917D01*
Y287976D01*
X279921Y287980D01*
X279925Y287988D01*
X279932Y288003D01*
X279944Y288027D01*
X279960Y288051D01*
X279980Y288078D01*
X280019Y288145D01*
X280066Y288212D01*
X280121Y288279D01*
X280176Y288337D01*
X280204Y288365D01*
X280231Y288385D01*
X280239Y288388D01*
X280259Y288400D01*
X280286Y288416D01*
X280326Y288436D01*
X280373Y288455D01*
X280428Y288471D01*
X280487Y288483D01*
X280550Y288487D01*
X280573D01*
X280593Y288483D01*
D02*
G37*
%LPC*%
G36*
X277531Y288078D02*
X277496D01*
X277468Y288074D01*
X277437Y288070D01*
X277402Y288062D01*
X277362Y288054D01*
X277315Y288043D01*
X277268Y288027D01*
X277221Y288011D01*
X277170Y287988D01*
X277119Y287960D01*
X277064Y287929D01*
X277016Y287889D01*
X276965Y287850D01*
X276918Y287799D01*
X276914Y287795D01*
X276906Y287787D01*
X276895Y287772D01*
X276879Y287748D01*
X276863Y287717D01*
X276840Y287681D01*
X276820Y287638D01*
X276796Y287591D01*
X276773Y287532D01*
X276753Y287473D01*
X276730Y287402D01*
X276714Y287327D01*
X276698Y287245D01*
X276686Y287155D01*
X276678Y287060D01*
X276675Y286958D01*
Y286950D01*
Y286934D01*
Y286903D01*
X276678Y286868D01*
X276682Y286821D01*
X276686Y286766D01*
X276694Y286706D01*
X276706Y286644D01*
X276733Y286506D01*
X276753Y286435D01*
X276777Y286365D01*
X276804Y286298D01*
X276840Y286235D01*
X276875Y286172D01*
X276918Y286117D01*
X276922Y286113D01*
X276930Y286105D01*
X276942Y286089D01*
X276961Y286074D01*
X276985Y286054D01*
X277016Y286031D01*
X277048Y286003D01*
X277087Y285980D01*
X277130Y285952D01*
X277174Y285924D01*
X277225Y285901D01*
X277280Y285881D01*
X277339Y285865D01*
X277398Y285850D01*
X277465Y285842D01*
X277531Y285838D01*
X277567D01*
X277594Y285842D01*
X277626Y285846D01*
X277661Y285854D01*
X277700Y285862D01*
X277747Y285873D01*
X277795Y285889D01*
X277842Y285905D01*
X277893Y285928D01*
X277948Y285956D01*
X277999Y285987D01*
X278050Y286027D01*
X278097Y286070D01*
X278144Y286117D01*
X278148Y286121D01*
X278156Y286129D01*
X278168Y286149D01*
X278184Y286172D01*
X278203Y286199D01*
X278223Y286239D01*
X278246Y286282D01*
X278270Y286329D01*
X278290Y286388D01*
X278313Y286451D01*
X278333Y286522D01*
X278353Y286596D01*
X278368Y286683D01*
X278380Y286773D01*
X278388Y286872D01*
X278392Y286974D01*
Y286982D01*
Y286997D01*
Y287025D01*
X278388Y287064D01*
X278384Y287107D01*
X278380Y287158D01*
X278372Y287217D01*
X278361Y287280D01*
X278333Y287414D01*
X278313Y287481D01*
X278286Y287547D01*
X278258Y287614D01*
X278227Y287681D01*
X278188Y287740D01*
X278144Y287795D01*
X278140Y287799D01*
X278133Y287807D01*
X278121Y287823D01*
X278101Y287838D01*
X278078Y287862D01*
X278046Y287885D01*
X278015Y287909D01*
X277975Y287937D01*
X277932Y287964D01*
X277885Y287988D01*
X277783Y288035D01*
X277724Y288051D01*
X277661Y288066D01*
X277598Y288074D01*
X277531Y288078D01*
D02*
G37*
G36*
X295046Y289271D02*
X294999Y289245D01*
X294956Y289250D01*
X294775Y289189D01*
X294741Y289134D01*
X294715Y289060D01*
X294694Y288966D01*
X294672Y288841D01*
Y288734D01*
X294603Y288424D01*
X294543Y288274D01*
X294504Y288144D01*
X294496Y288003D01*
X294504Y287934D01*
X294496Y287835D01*
X294556Y287788D01*
X294642Y287766D01*
X294719Y287809D01*
X294861Y287843D01*
X295046Y287878D01*
X295145Y287947D01*
X295253Y288033D01*
X295287Y288123D01*
X295270Y288179D01*
X295287Y288235D01*
Y288342D01*
X295296Y288445D01*
X295364Y288579D01*
X295326Y288703D01*
X295352Y288828D01*
X295326Y288880D01*
Y289103D01*
X295261Y289194D01*
X295145Y289228D01*
X295046Y289271D01*
D02*
G37*
G36*
X298940Y293825D02*
X298906D01*
X298880Y293821D01*
X298846Y293816D01*
X298807Y293812D01*
X298768Y293804D01*
X298721Y293795D01*
X298622Y293765D01*
X298571Y293743D01*
X298519Y293718D01*
X298463Y293688D01*
X298412Y293657D01*
X298360Y293614D01*
X298313Y293571D01*
X298308Y293567D01*
X298300Y293559D01*
X298291Y293546D01*
X298274Y293524D01*
X298253Y293498D01*
X298231Y293468D01*
X298210Y293434D01*
X298184Y293391D01*
X298158Y293348D01*
X298132Y293296D01*
X298111Y293240D01*
X298089Y293180D01*
X298068Y293116D01*
X298055Y293051D01*
X298042Y292978D01*
X298033Y292901D01*
X299822D01*
Y292905D01*
Y292918D01*
X299818Y292939D01*
X299813Y292965D01*
X299809Y293000D01*
X299800Y293038D01*
X299783Y293128D01*
X299753Y293227D01*
X299719Y293326D01*
X299672Y293421D01*
X299646Y293468D01*
X299616Y293507D01*
X299611Y293511D01*
X299603Y293520D01*
X299590Y293537D01*
X299568Y293559D01*
X299542Y293580D01*
X299512Y293606D01*
X299474Y293636D01*
X299435Y293666D01*
X299388Y293696D01*
X299336Y293726D01*
X299280Y293752D01*
X299220Y293774D01*
X299155Y293795D01*
X299087Y293812D01*
X299018Y293821D01*
X298940Y293825D01*
D02*
G37*
G36*
X290887Y294922D02*
X289403D01*
Y293460D01*
X290719D01*
X290753Y293464D01*
X290792D01*
X290835Y293468D01*
X290882D01*
X290981Y293481D01*
X291084Y293494D01*
X291188Y293515D01*
X291278Y293541D01*
X291282D01*
X291286Y293546D01*
X291317Y293559D01*
X291355Y293576D01*
X291403Y293606D01*
X291459Y293640D01*
X291514Y293688D01*
X291570Y293739D01*
X291618Y293804D01*
Y293808D01*
X291622Y293812D01*
X291635Y293838D01*
X291656Y293872D01*
X291678Y293924D01*
X291699Y293984D01*
X291721Y294049D01*
X291734Y294126D01*
X291738Y294203D01*
Y294208D01*
Y294216D01*
Y294234D01*
X291734Y294255D01*
X291729Y294281D01*
X291725Y294315D01*
X291708Y294384D01*
X291682Y294466D01*
X291643Y294552D01*
X291618Y294599D01*
X291587Y294638D01*
X291549Y294681D01*
X291510Y294720D01*
X291506Y294724D01*
X291501Y294728D01*
X291484Y294737D01*
X291467Y294750D01*
X291441Y294767D01*
X291411Y294784D01*
X291377Y294801D01*
X291334Y294823D01*
X291286Y294840D01*
X291235Y294857D01*
X291179Y294874D01*
X291114Y294892D01*
X291041Y294904D01*
X290968Y294913D01*
X290887Y294922D01*
D02*
G37*
G36*
X287538Y287121D02*
X287444D01*
X287362Y287095D01*
X287276Y287061D01*
X287203Y287005D01*
X287156Y286983D01*
X287113Y286928D01*
X287130Y286893D01*
X287169Y286897D01*
X287237Y286893D01*
X287349D01*
X287444Y286867D01*
X287543D01*
X287650Y286872D01*
X287749Y286897D01*
X287831Y286919D01*
X287844Y286983D01*
X287796Y287035D01*
X287719Y287074D01*
X287633Y287108D01*
X287538Y287121D01*
D02*
G37*
G36*
X302339D02*
X302244D01*
X302163Y287095D01*
X302077Y287061D01*
X302004Y287005D01*
X301956Y286983D01*
X301913Y286928D01*
X301930Y286893D01*
X301969Y286897D01*
X302038Y286893D01*
X302150D01*
X302244Y286867D01*
X302343D01*
X302451Y286872D01*
X302550Y286897D01*
X302631Y286919D01*
X302644Y286983D01*
X302597Y287035D01*
X302520Y287074D01*
X302434Y287108D01*
X302339Y287121D01*
D02*
G37*
%LPD*%
G36*
X295313Y288785D02*
Y288742D01*
X295261Y288716D01*
X295235Y288755D01*
X295261Y288807D01*
X295313Y288785D01*
D02*
G37*
D13*
X289043Y282535D02*
G03*
X287469Y284110I-1575J0D01*
G01*
X287469Y277890D02*
G03*
X289043Y279465I-0J1575D01*
G01*
X276957Y279465D02*
G03*
X278532Y277890I1575J-0D01*
G01*
Y284110D02*
G03*
X276957Y282535I0J-1575D01*
G01*
X278532Y284110D02*
X281425D01*
X289043Y279465D02*
Y282535D01*
X276957Y279465D02*
Y282535D01*
X284575Y284110D02*
X287469D01*
X284575Y277890D02*
X287469D01*
X278532Y277890D02*
X281425D01*
%TF.MD5,3128B5A01B053E488C9F90C6DA18C551*%
M02*
