G04 Layer_Physical_Order=2*
G04 Layer_Color=16711680*
%FSLAX25Y25*%
%MOIN*%
%TF.FileFunction,Copper,L2,Bot,Signal*%
%TF.Part,Single*%
G01*
G75*
%TA.AperFunction,ViaPad*%
%ADD11C,0.01800*%
%TA.AperFunction,ConnectorPad*%
%ADD12R,0.08425X0.03150*%
G36*
X303993Y276916D02*
X293701D01*
X293194Y276815D01*
X292763Y276528D01*
X292476Y276098D01*
X292375Y275590D01*
Y273325D01*
X290696D01*
Y275590D01*
X290595Y276098D01*
X290307Y276528D01*
X289877Y276815D01*
X289370Y276916D01*
X283316D01*
Y290000D01*
Y290162D01*
X283338Y290184D01*
X303993D01*
Y276916D01*
D02*
G37*
G36*
Y291351D02*
X294771D01*
Y291000D01*
X283338D01*
X283338Y291000D01*
X283338Y291000D01*
X283000D01*
X282750Y290750D01*
X282739Y290739D01*
X282739Y290739D01*
X282739Y290739D01*
X282739Y290739D01*
X282739Y290739D01*
X282500Y290500D01*
Y290162D01*
X282500Y290162D01*
X282500Y290162D01*
Y290162D01*
Y290000D01*
Y276916D01*
X275590D01*
X275083Y276815D01*
X274653Y276528D01*
X274366Y276098D01*
X274265Y275590D01*
Y273416D01*
X272979D01*
Y275590D01*
Y295525D01*
X303993D01*
Y291351D01*
D02*
G37*
D11*
X277000Y280000D02*
D03*
X292000D02*
D03*
X274000D02*
D03*
X295500Y284000D02*
D03*
X297500D02*
D03*
X299500D02*
D03*
X293000Y293000D02*
D03*
X275000Y289000D02*
D03*
X277000D02*
D03*
X279000D02*
D03*
Y291000D02*
D03*
X275000D02*
D03*
X277000D02*
D03*
X275000Y293000D02*
D03*
X277000D02*
D03*
X279000D02*
D03*
X295500Y282000D02*
D03*
X297500D02*
D03*
X299500D02*
D03*
X292000Y278000D02*
D03*
X291000Y293000D02*
D03*
X289000D02*
D03*
X287000D02*
D03*
X285000D02*
D03*
X283000D02*
D03*
X281000D02*
D03*
X274000Y278000D02*
D03*
X277000D02*
D03*
X279000D02*
D03*
X295500D02*
D03*
X299500D02*
D03*
X297500D02*
D03*
Y280000D02*
D03*
X299500D02*
D03*
X295500D02*
D03*
X284500Y278000D02*
D03*
Y280000D02*
D03*
Y282000D02*
D03*
Y284000D02*
D03*
X286500D02*
D03*
Y282000D02*
D03*
Y280000D02*
D03*
Y278000D02*
D03*
X302500Y288500D02*
D03*
X300500D02*
D03*
X298500D02*
D03*
X296500D02*
D03*
Y293500D02*
D03*
X302500D02*
D03*
X300500D02*
D03*
X298500D02*
D03*
D12*
X299783Y293701D02*
D03*
Y288976D02*
D03*
%TF.MD5,2C9AB1BB3636BDD080C053BCBFF2127D*%
M02*
