G04 Layer_Color=2752767*
%FSLAX25Y25*%
%MOIN*%
%TF.FileFunction,Drawing*%
%TF.Part,Single*%
G01*
G75*
%ADD27C,0.00500*%
D27*
X275000Y278000D02*
Y282000D01*
X279000D01*
Y278000D01*
X275000D01*
X290000D02*
Y282000D01*
X294000D01*
Y278000D01*
X290000D01*
X272000D02*
Y282000D01*
X276000D01*
Y278000D01*
X272000D01*
X293500Y282000D02*
Y286000D01*
X297500D01*
Y282000D01*
X293500D01*
X295500D02*
Y286000D01*
X299500D01*
Y282000D01*
X295500D01*
X297500D02*
Y286000D01*
X301500D01*
Y282000D01*
X297500D01*
X291000Y291000D02*
Y295000D01*
X295000D01*
Y291000D01*
X291000D01*
X273000Y287000D02*
Y291000D01*
X277000D01*
Y287000D01*
X273000D01*
X275000D02*
Y291000D01*
X279000D01*
Y287000D01*
X275000D01*
X277000D02*
Y291000D01*
X281000D01*
Y287000D01*
X277000D01*
Y289000D02*
Y293000D01*
X281000D01*
Y289000D01*
X277000D01*
X273000D02*
Y293000D01*
X277000D01*
Y289000D01*
X273000D01*
X275000D02*
Y293000D01*
X279000D01*
Y289000D01*
X275000D01*
X273000Y291000D02*
Y295000D01*
X277000D01*
Y291000D01*
X273000D01*
X275000D02*
Y295000D01*
X279000D01*
Y291000D01*
X275000D01*
X277000D02*
Y295000D01*
X281000D01*
Y291000D01*
X277000D01*
X293500Y280000D02*
Y284000D01*
X297500D01*
Y280000D01*
X293500D01*
X295500D02*
Y284000D01*
X299500D01*
Y280000D01*
X295500D01*
X297500D02*
Y284000D01*
X301500D01*
Y280000D01*
X297500D01*
X290000Y276000D02*
Y280000D01*
X294000D01*
Y276000D01*
X290000D01*
X289000Y291000D02*
Y295000D01*
X293000D01*
Y291000D01*
X289000D01*
X287000D02*
Y295000D01*
X291000D01*
Y291000D01*
X287000D01*
X285000D02*
Y295000D01*
X289000D01*
Y291000D01*
X285000D01*
X283000D02*
Y295000D01*
X287000D01*
Y291000D01*
X283000D01*
X281000D02*
Y295000D01*
X285000D01*
Y291000D01*
X281000D01*
X279000D02*
Y295000D01*
X283000D01*
Y291000D01*
X279000D01*
X272000Y276000D02*
Y280000D01*
X276000D01*
Y276000D01*
X272000D01*
X275000D02*
Y280000D01*
X279000D01*
Y276000D01*
X275000D01*
X277000D02*
Y280000D01*
X281000D01*
Y276000D01*
X277000D01*
X293500D02*
Y280000D01*
X297500D01*
Y276000D01*
X293500D01*
X297500D02*
Y280000D01*
X301500D01*
Y276000D01*
X297500D01*
X295500D02*
Y280000D01*
X299500D01*
Y276000D01*
X295500D01*
Y278000D02*
Y282000D01*
X299500D01*
Y278000D01*
X295500D01*
X297500D02*
Y282000D01*
X301500D01*
Y278000D01*
X297500D01*
X293500D02*
Y282000D01*
X297500D01*
Y278000D01*
X293500D01*
X282500Y276000D02*
Y280000D01*
X286500D01*
Y276000D01*
X282500D01*
Y278000D02*
Y282000D01*
X286500D01*
Y278000D01*
X282500D01*
Y280000D02*
Y284000D01*
X286500D01*
Y280000D01*
X282500D01*
Y282000D02*
Y286000D01*
X286500D01*
Y282000D01*
X282500D01*
X284500D02*
Y286000D01*
X288500D01*
Y282000D01*
X284500D01*
Y280000D02*
Y284000D01*
X288500D01*
Y280000D01*
X284500D01*
Y278000D02*
Y282000D01*
X288500D01*
Y278000D01*
X284500D01*
Y276000D02*
Y280000D01*
X288500D01*
Y276000D01*
X284500D01*
X300500Y286500D02*
Y290500D01*
X304500D01*
Y286500D01*
X300500D01*
X298500D02*
Y290500D01*
X302500D01*
Y286500D01*
X298500D01*
X296500D02*
Y290500D01*
X300500D01*
Y286500D01*
X296500D01*
X294500D02*
Y290500D01*
X298500D01*
Y286500D01*
X294500D01*
Y291500D02*
Y295500D01*
X298500D01*
Y291500D01*
X294500D01*
X300500D02*
Y295500D01*
X304500D01*
Y291500D01*
X300500D01*
X298500D02*
Y295500D01*
X302500D01*
Y291500D01*
X298500D01*
X296500D02*
Y295500D01*
X300500D01*
Y291500D01*
X296500D01*
%TF.MD5,21C12908BE1591CA9A0BB96C4ED9FB3C*%
M02*
