G04 Layer_Color=255*
%FSLAX25Y25*%
%MOIN*%
%TF.FileFunction,Pads,Top*%
%TF.Part,Single*%
G01*
G75*
%TA.AperFunction,SMDPad*%
%ADD10R,0.03661X0.03858*%
%TA.AperFunction,SMDPad*%
%ADD11R,0.02559X0.02362*%
%TA.AperFunction,SMDPad*%
%ADD12R,0.03543X0.01575*%
%TA.AperFunction,SMDPad*%
%ADD13R,0.02362X0.02559*%
%TA.AperFunction,SMDPad*%
%ADD14R,0.04921X0.03937*%
%TA.AperFunction,SMDPad*%
%ADD15R,0.03937X0.04921*%
%TA.AperFunction,SMDPad*%
%ADD16R,0.01575X0.03543*%
%TA.AperFunction,SMDPad*%
%ADD17R,0.01950X0.01378*%
%TA.AperFunction,SMDPad*%
%ADD18R,0.04331X0.02756*%
%TA.AperFunction,SMDPad*%
%ADD19R,0.04567X0.05787*%
%TA.AperFunction,SMDPad*%
%ADD20R,0.03150X0.00984*%
%TA.AperFunction,SMDPad*%
%ADD21R,0.02362X0.04724*%
%TA.AperFunction,SMDPad*%
%ADD22R,0.03858X0.03661*%
%TA.AperFunction,SMDPad*%
%ADD23R,0.14567X0.03858*%
%TA.AperFunction,ConnectorPad*%
%ADD24C,0.03937*%
%TA.AperFunction,ConnectorPad*%
%ADD30C,0.42520*%
%TA.AperFunction,ConnectorPad*%
%ADD31C,0.19685*%
D10*
X48531Y99500D02*
D03*
X42469D02*
D03*
X42469Y107000D02*
D03*
X48531D02*
D03*
X42469Y114500D02*
D03*
X48531D02*
D03*
X99532Y124500D02*
D03*
X93468D02*
D03*
X31032Y90000D02*
D03*
X24969D02*
D03*
X93532Y25000D02*
D03*
X87468D02*
D03*
X31032Y82500D02*
D03*
X24969D02*
D03*
D11*
X34500Y102173D02*
D03*
Y98827D02*
D03*
Y111173D02*
D03*
Y107827D02*
D03*
X148000Y120673D02*
D03*
Y117327D02*
D03*
Y106173D02*
D03*
Y102827D02*
D03*
X81500Y131673D02*
D03*
Y128327D02*
D03*
X75500Y131673D02*
D03*
Y128327D02*
D03*
X100500Y139173D02*
D03*
Y135827D02*
D03*
X110500Y61673D02*
D03*
Y58327D02*
D03*
X75500Y26173D02*
D03*
Y22827D02*
D03*
X81000Y26173D02*
D03*
Y22827D02*
D03*
X75500Y36827D02*
D03*
Y40173D02*
D03*
X94000Y36827D02*
D03*
Y40173D02*
D03*
X145000Y58327D02*
D03*
Y61673D02*
D03*
D12*
X28429Y97941D02*
D03*
Y103059D02*
D03*
X19571Y100500D02*
D03*
X28429Y108441D02*
D03*
Y113559D02*
D03*
X19571Y111000D02*
D03*
X124429Y60000D02*
D03*
X115571Y57441D02*
D03*
Y62559D02*
D03*
D13*
X34673Y117500D02*
D03*
X31327D02*
D03*
X120827Y103000D02*
D03*
X124173D02*
D03*
X122173Y122000D02*
D03*
X118827D02*
D03*
X78673Y137500D02*
D03*
X75327D02*
D03*
D14*
X86807Y114500D02*
D03*
X75193D02*
D03*
Y122000D02*
D03*
X86807D02*
D03*
D15*
X104000Y106693D02*
D03*
Y118307D02*
D03*
D16*
X117941Y116929D02*
D03*
X120500D02*
D03*
X123059D02*
D03*
Y108071D02*
D03*
X120500D02*
D03*
X117941D02*
D03*
D17*
X141939Y116440D02*
D03*
Y119000D02*
D03*
Y121560D02*
D03*
X134061D02*
D03*
Y119000D02*
D03*
Y116440D02*
D03*
Y107060D02*
D03*
Y104500D02*
D03*
Y101940D02*
D03*
X141939D02*
D03*
Y104500D02*
D03*
Y107060D02*
D03*
X138939Y57440D02*
D03*
Y60000D02*
D03*
Y62560D02*
D03*
X131061D02*
D03*
Y60000D02*
D03*
Y57440D02*
D03*
D18*
X138000Y120961D02*
D03*
X138001Y117041D02*
D03*
X138000Y102539D02*
D03*
X137999Y106459D02*
D03*
X135000Y61961D02*
D03*
X135001Y58041D02*
D03*
D19*
X94004Y144000D02*
D03*
X86996D02*
D03*
X131496Y49000D02*
D03*
X138504D02*
D03*
D20*
X94661Y130547D02*
D03*
Y132516D02*
D03*
Y134484D02*
D03*
Y136453D02*
D03*
X87339Y130547D02*
D03*
Y132516D02*
D03*
Y134484D02*
D03*
Y136453D02*
D03*
X89161Y32047D02*
D03*
Y34016D02*
D03*
Y35984D02*
D03*
Y37953D02*
D03*
X81839Y32047D02*
D03*
Y34016D02*
D03*
Y35984D02*
D03*
Y37953D02*
D03*
D21*
X91000Y133500D02*
D03*
X85500Y35000D02*
D03*
D22*
X124000Y128469D02*
D03*
Y134531D02*
D03*
X118000Y30468D02*
D03*
Y36531D02*
D03*
D23*
X112000Y128835D02*
D03*
Y138165D02*
D03*
X105500Y29835D02*
D03*
Y39165D02*
D03*
D24*
X111000Y118500D02*
D03*
X154500Y97500D02*
D03*
X126500Y42000D02*
D03*
D30*
X86201Y86201D02*
D03*
D31*
X59183Y39405D02*
D03*
X140236Y86201D02*
D03*
X59183Y132997D02*
D03*
%TF.MD5,731B24190B6C6E21C076AAB8DE1C794F*%
M02*
