G04 Layer_Physical_Order=1*
G04 Layer_Color=255*
%FSLAX25Y25*%
%MOIN*%
%TF.FileFunction,Copper,L1,Top,Signal*%
%TF.Part,Single*%
G01*
G75*
%TA.AperFunction,SMDPad*%
%ADD10R,0.03661X0.03858*%
%TA.AperFunction,SMDPad*%
%ADD11R,0.02559X0.02362*%
%TA.AperFunction,SMDPad*%
%ADD12R,0.03543X0.01575*%
%TA.AperFunction,SMDPad*%
%ADD13R,0.02362X0.02559*%
%TA.AperFunction,SMDPad*%
%ADD14R,0.04921X0.03937*%
%TA.AperFunction,SMDPad*%
%ADD15R,0.03937X0.04921*%
%TA.AperFunction,SMDPad*%
%ADD16R,0.01575X0.03543*%
%TA.AperFunction,SMDPad*%
%ADD17R,0.01950X0.01378*%
%TA.AperFunction,SMDPad*%
%ADD18R,0.04331X0.02756*%
%TA.AperFunction,SMDPad*%
%ADD19R,0.04567X0.05787*%
%TA.AperFunction,SMDPad*%
%ADD20R,0.03150X0.00984*%
%TA.AperFunction,SMDPad*%
%ADD21R,0.02362X0.04724*%
%TA.AperFunction,SMDPad*%
%ADD22R,0.03858X0.03661*%
%TA.AperFunction,SMDPad*%
%ADD23R,0.14567X0.03858*%
%TA.AperFunction,ConnectorPad*%
%ADD24C,0.03937*%
%ADD25C,0.05000*%
%ADD26C,0.01000*%
%ADD27C,0.04000*%
%ADD28R,0.03988X0.01375*%
%ADD29R,0.04386X0.01380*%
%TA.AperFunction,ConnectorPad*%
%ADD30C,0.42520*%
%TA.AperFunction,ConnectorPad*%
%ADD31C,0.19685*%
%TA.AperFunction,ViaPad*%
%ADD32C,0.01800*%
G36*
X91554Y167870D02*
X96884Y167345D01*
X102168Y166472D01*
X107384Y165256D01*
X112509Y163701D01*
X117521Y161815D01*
X122400Y159605D01*
X127123Y157080D01*
X131671Y154252D01*
X136024Y151132D01*
X140164Y147734D01*
X144073Y144073D01*
X147734Y140164D01*
X151132Y136024D01*
X154252Y131671D01*
X157080Y127123D01*
X159605Y122400D01*
X161815Y117521D01*
X163701Y112509D01*
X165256Y107384D01*
X166472Y102168D01*
X167345Y96884D01*
X167870Y91554D01*
X168045Y86201D01*
X167870Y80848D01*
X167345Y75518D01*
X166472Y70234D01*
X165256Y65018D01*
X163701Y59893D01*
X161815Y54880D01*
X159605Y50002D01*
X157080Y45279D01*
X154252Y40731D01*
X151132Y36377D01*
X147734Y32237D01*
X144073Y28328D01*
X140164Y24667D01*
X136024Y21269D01*
X131671Y18150D01*
X127123Y15322D01*
X122400Y12797D01*
X117521Y10587D01*
X112509Y8700D01*
X107384Y7145D01*
X102168Y5929D01*
X96884Y5057D01*
X91554Y4532D01*
X86201Y4357D01*
X80848Y4532D01*
X75518Y5057D01*
X70234Y5929D01*
X65018Y7145D01*
X59893Y8700D01*
X54880Y10587D01*
X50002Y12797D01*
X45279Y15322D01*
X40731Y18150D01*
X36377Y21269D01*
X32237Y24667D01*
X28328Y28328D01*
X24667Y32237D01*
X21269Y36377D01*
X18150Y40731D01*
X15322Y45279D01*
X12797Y50002D01*
X10587Y54880D01*
X8700Y59893D01*
X7145Y65018D01*
X5929Y70234D01*
X5057Y75518D01*
X4532Y80848D01*
X4357Y86201D01*
X4532Y91554D01*
X5057Y96884D01*
X5929Y102168D01*
X7145Y107384D01*
X8700Y112509D01*
X10587Y117521D01*
X12797Y122400D01*
X15322Y127123D01*
X18150Y131671D01*
X21269Y136024D01*
X24667Y140164D01*
X28328Y144073D01*
X32237Y147734D01*
X36377Y151132D01*
X40731Y154252D01*
X45279Y157080D01*
X50002Y159605D01*
X54880Y161815D01*
X59893Y163701D01*
X65018Y165256D01*
X70234Y166472D01*
X75518Y167345D01*
X80848Y167870D01*
X86201Y168045D01*
X91554Y167870D01*
D02*
G37*
%LPC*%
G36*
X59683Y50241D02*
Y39905D01*
X70020D01*
X69925Y41106D01*
X69527Y42766D01*
X68874Y44342D01*
X67982Y45798D01*
X66874Y47095D01*
X65576Y48204D01*
X64121Y49095D01*
X62544Y49749D01*
X60884Y50147D01*
X59683Y50241D01*
D02*
G37*
G36*
X22093Y102037D02*
X17049D01*
Y98963D01*
X18294D01*
X18296Y98939D01*
Y96429D01*
X18393Y95941D01*
X18670Y95528D01*
X20599Y93599D01*
X21012Y93322D01*
X21500Y93226D01*
X56972D01*
X58726Y91472D01*
Y67586D01*
X58723Y67558D01*
X58446Y67144D01*
X58318Y66500D01*
X58446Y65856D01*
X58810Y65310D01*
X59356Y64946D01*
X60000Y64818D01*
X60644Y64946D01*
X61190Y65310D01*
X61554Y65856D01*
X61682Y66500D01*
X61554Y67144D01*
X61278Y67557D01*
X61274Y67608D01*
Y92000D01*
X61177Y92488D01*
X60901Y92901D01*
X58401Y95401D01*
X57988Y95678D01*
X57500Y95775D01*
X22028D01*
X20845Y96957D01*
Y98939D01*
X20847Y98963D01*
X22093D01*
Y102037D01*
D02*
G37*
G36*
X36604Y119529D02*
X29396D01*
Y118777D01*
X29372Y118774D01*
X26500D01*
X26012Y118677D01*
X25599Y118401D01*
X23599Y116401D01*
X23323Y115988D01*
X23225Y115500D01*
Y109500D01*
X23323Y109012D01*
X23599Y108599D01*
X24658Y107540D01*
X25071Y107264D01*
X25559Y107167D01*
X25526Y106685D01*
X25512Y106677D01*
X25099Y106401D01*
X24099Y105401D01*
X23822Y104988D01*
X23726Y104500D01*
Y101000D01*
X23822Y100512D01*
X24099Y100099D01*
X24599Y99599D01*
X25012Y99322D01*
X25500Y99225D01*
X25907D01*
Y96403D01*
X30951D01*
Y99478D01*
X29774D01*
Y99500D01*
X29678Y99988D01*
X29401Y100401D01*
X28781Y101022D01*
X28988Y101522D01*
X30175D01*
X30189Y101519D01*
X30202Y101522D01*
X30676D01*
X30926Y101272D01*
X31339Y100996D01*
X31827Y100899D01*
X32443D01*
X32471Y100896D01*
Y96896D01*
X36529D01*
Y97550D01*
X36553Y97552D01*
X37827D01*
X38315Y97649D01*
X38728Y97926D01*
X39028Y98225D01*
X39864D01*
X39888Y98223D01*
Y96821D01*
X45049D01*
Y102179D01*
X39888D01*
Y100777D01*
X39864Y100775D01*
X38500D01*
X38012Y100678D01*
X37599Y100401D01*
X37299Y100101D01*
X36553D01*
X36529Y100103D01*
Y104104D01*
X35561D01*
X35401Y104599D01*
Y104599D01*
X35677Y105012D01*
X35774Y105500D01*
Y105872D01*
X35777Y105896D01*
X36529D01*
Y106461D01*
X37029Y106668D01*
X37599Y106099D01*
X38012Y105823D01*
X38500Y105726D01*
X39864D01*
X39888Y105723D01*
Y104321D01*
X45049D01*
Y109610D01*
X45500Y109708D01*
X45951Y109610D01*
Y104321D01*
X51112D01*
Y109679D01*
X49808D01*
X49806Y109706D01*
Y109968D01*
X49709Y110456D01*
X49433Y110870D01*
X49194Y111109D01*
X49385Y111571D01*
X51362D01*
Y114000D01*
X45701D01*
Y112275D01*
X45049D01*
Y117179D01*
X43661D01*
X43646Y117253D01*
X43370Y117667D01*
X42636Y118401D01*
X42222Y118677D01*
X41734Y118774D01*
X36628D01*
X36604Y118777D01*
Y119529D01*
D02*
G37*
G36*
X58683Y50241D02*
X57482Y50147D01*
X55822Y49749D01*
X54246Y49095D01*
X52790Y48204D01*
X51493Y47095D01*
X50384Y45798D01*
X49492Y44342D01*
X48839Y42766D01*
X48441Y41106D01*
X48346Y39905D01*
X58683D01*
Y50241D01*
D02*
G37*
G36*
X15500Y112682D02*
X14856Y112554D01*
X14310Y112190D01*
X13946Y111644D01*
X13818Y111000D01*
X13946Y110356D01*
X14310Y109810D01*
X14856Y109446D01*
X15500Y109318D01*
X16144Y109446D01*
X16556Y109722D01*
X17049Y109588D01*
Y109463D01*
X17798D01*
X17811Y109460D01*
X17825Y109463D01*
X22093D01*
Y112537D01*
X17825D01*
X17811Y112540D01*
X17798Y112537D01*
X17049D01*
Y112341D01*
X16558Y112277D01*
X16144Y112554D01*
X15500Y112682D01*
D02*
G37*
G36*
X86307Y121500D02*
X83346D01*
Y119032D01*
X86307D01*
Y121500D01*
D02*
G37*
G36*
X27549Y92679D02*
X22388D01*
Y91277D01*
X22364Y91274D01*
X20000D01*
X19512Y91177D01*
X19099Y90901D01*
X17599Y89401D01*
X17323Y88988D01*
X17225Y88500D01*
Y66500D01*
X17323Y66012D01*
X17599Y65599D01*
X19830Y63367D01*
X19848Y63345D01*
X19946Y62856D01*
X20310Y62310D01*
X20856Y61946D01*
X21500Y61818D01*
X22144Y61946D01*
X22690Y62310D01*
X23054Y62856D01*
X23182Y63500D01*
X23054Y64144D01*
X22690Y64690D01*
X22144Y65054D01*
X21657Y65151D01*
X21618Y65185D01*
X19774Y67028D01*
Y87972D01*
X20528Y88726D01*
X22364D01*
X22388Y88723D01*
Y87321D01*
X27549D01*
Y92679D01*
D02*
G37*
G36*
X78404Y124718D02*
X71982D01*
Y122000D01*
Y119281D01*
X78404D01*
Y122000D01*
Y124718D01*
D02*
G37*
G36*
X92968Y122000D02*
X87307D01*
Y119032D01*
X90268D01*
Y121257D01*
X90638Y121571D01*
X90768Y121571D01*
X92968D01*
Y122000D01*
D02*
G37*
G36*
X51362Y117429D02*
X49031D01*
Y115000D01*
X51362D01*
Y117429D01*
D02*
G37*
G36*
X78404Y117218D02*
X71982D01*
Y111782D01*
X78404D01*
Y117218D01*
D02*
G37*
G36*
X33612Y92679D02*
X28451D01*
Y87321D01*
X33612D01*
Y88723D01*
X33636Y88726D01*
X46972D01*
X50226Y85472D01*
Y65087D01*
X50223Y65058D01*
X49946Y64644D01*
X49818Y64000D01*
X49946Y63356D01*
X50310Y62810D01*
X50856Y62446D01*
X51500Y62318D01*
X52144Y62446D01*
X52690Y62810D01*
X53054Y63356D01*
X53182Y64000D01*
X53054Y64644D01*
X52779Y65057D01*
X52775Y65108D01*
Y86000D01*
X52678Y86488D01*
X52401Y86901D01*
X48401Y90901D01*
X47988Y91177D01*
X47500Y91274D01*
X33636D01*
X33612Y91277D01*
Y92679D01*
D02*
G37*
G36*
X90280Y147894D02*
X87496D01*
Y144000D01*
X86996D01*
Y143500D01*
X83713D01*
Y140106D01*
X86597D01*
X86804Y139606D01*
X86437Y139240D01*
X86161Y138826D01*
X86064Y138339D01*
Y137719D01*
X86062Y137695D01*
X85014D01*
Y136942D01*
X84552Y136750D01*
X82901Y138401D01*
X82488Y138678D01*
X82000Y138775D01*
X80628D01*
X80604Y138777D01*
Y139530D01*
X73396D01*
Y139442D01*
X72896Y139104D01*
X72500Y139182D01*
X71856Y139054D01*
X71310Y138690D01*
X70946Y138144D01*
X70818Y137500D01*
X70946Y136856D01*
X71310Y136310D01*
X71856Y135946D01*
X72500Y135818D01*
X72896Y135896D01*
X73396Y135558D01*
Y135470D01*
X80604D01*
Y136223D01*
X80628Y136225D01*
X81472D01*
X83638Y134059D01*
X83386Y133604D01*
X79470D01*
Y132950D01*
X79447Y132948D01*
X77557D01*
X77530Y132950D01*
Y133604D01*
X73470D01*
Y130508D01*
X73220D01*
Y129000D01*
X77780D01*
Y130399D01*
X79220D01*
Y129000D01*
X83780D01*
Y130420D01*
X84161Y130496D01*
X84514Y130731D01*
X84959Y130613D01*
X85014Y130590D01*
Y129305D01*
X89663D01*
Y133242D01*
Y137216D01*
D01*
Y137695D01*
X90079Y137899D01*
X97110D01*
X97317Y137399D01*
X96446Y136527D01*
X96280Y136279D01*
X96222Y135986D01*
Y135975D01*
X93000D01*
X92707Y135917D01*
X92459Y135751D01*
X92443Y135726D01*
X92337D01*
Y135568D01*
X92294Y135503D01*
X92235Y135211D01*
Y134000D01*
X92294Y133707D01*
X92337Y133643D01*
Y133592D01*
X92294Y133528D01*
X92235Y133235D01*
Y131789D01*
X92294Y131497D01*
X92337Y131432D01*
Y129305D01*
X94499D01*
X94661Y129273D01*
X95925D01*
X96235Y128962D01*
Y128887D01*
Y127429D01*
Y122000D01*
X93968D01*
Y121571D01*
X95642D01*
X95835Y121343D01*
X95833Y121327D01*
X95622Y120991D01*
X95589Y120986D01*
X94920Y120709D01*
X94346Y120268D01*
X92497Y118420D01*
X91404Y117327D01*
X91345Y117288D01*
X91276Y117274D01*
X86807D01*
X86388Y117218D01*
X83596D01*
Y111782D01*
X83735D01*
Y111763D01*
X83762Y111631D01*
X83783Y111498D01*
X83822Y111391D01*
X83830Y111379D01*
X83833Y111364D01*
X83856Y111309D01*
X83946Y110856D01*
X84310Y110310D01*
X84437Y110226D01*
X84437Y110226D01*
X84856Y109946D01*
X85500Y109818D01*
X86144Y109946D01*
X86437Y110142D01*
X86500Y110168D01*
X86563Y110142D01*
X86856Y109946D01*
X87500Y109818D01*
X88144Y109946D01*
X88270Y110030D01*
X88270Y110030D01*
X88690Y110310D01*
X89054Y110856D01*
X89173Y111450D01*
X89178Y111461D01*
X89189Y111497D01*
X89210Y111528D01*
X89214Y111539D01*
X89336Y111687D01*
X89346Y111694D01*
X89371Y111719D01*
X89407Y111723D01*
X89419Y111726D01*
X92500D01*
X93218Y111821D01*
X93887Y112098D01*
X94461Y112539D01*
X97456Y115533D01*
X98493D01*
X100047Y115503D01*
X100963Y115434D01*
X101273Y115392D01*
X101281Y115390D01*
Y115096D01*
X102030D01*
X102043Y115094D01*
X102057Y115096D01*
X102066D01*
X102079Y115095D01*
X102086Y115096D01*
X105235D01*
Y109918D01*
X105160Y109904D01*
X99046D01*
X98753Y109845D01*
X98506Y109680D01*
X98340Y109432D01*
X98282Y109139D01*
Y105205D01*
X98274Y105169D01*
Y105153D01*
X98268Y105138D01*
X98258Y105125D01*
X98244Y105118D01*
X98217Y105096D01*
X98213Y105094D01*
X97907Y104930D01*
X97872Y104919D01*
X97841Y104903D01*
X97812Y104922D01*
X97778Y104936D01*
X97229Y105303D01*
X94642Y106579D01*
X91957Y107490D01*
X91957D01*
X91910Y107506D01*
X89080Y108069D01*
X86201Y108258D01*
X83322Y108069D01*
X80492Y107506D01*
X77807Y106595D01*
X77807Y106595D01*
X77760Y106579D01*
X75217Y105325D01*
X75217Y105325D01*
X75172Y105303D01*
X72773Y103700D01*
X70604Y101797D01*
X68702Y99628D01*
X67708Y98141D01*
X67210Y98092D01*
X64901Y100401D01*
X64488Y100678D01*
X64000Y100775D01*
X51136D01*
X51112Y100777D01*
Y102179D01*
X45951D01*
Y96821D01*
X51112D01*
Y98223D01*
X51136Y98225D01*
X63472D01*
X66230Y95468D01*
X65823Y94642D01*
X64911Y91957D01*
Y91957D01*
X64895Y91910D01*
X64332Y89080D01*
X64144Y86201D01*
X64332Y83322D01*
X64705Y81447D01*
X64705Y81403D01*
X64705Y81403D01*
X64705Y81403D01*
Y81379D01*
X64676Y81350D01*
X64647Y81334D01*
X64617Y81310D01*
X64581Y81291D01*
X64553Y81267D01*
X64536Y81247D01*
X64525Y81240D01*
X64525Y81240D01*
X64467Y81200D01*
X64446Y81169D01*
X64416Y81145D01*
X64363Y81046D01*
X64301Y80952D01*
X64293Y80915D01*
X64275Y80882D01*
X64267Y80799D01*
X64257Y80774D01*
X64250Y80738D01*
Y80697D01*
X64243Y80660D01*
Y80625D01*
X64235Y80589D01*
Y77871D01*
Y59126D01*
X64235Y59123D01*
Y59094D01*
X64140Y58950D01*
X63899Y58690D01*
X63475Y58775D01*
X46028D01*
X43275Y61528D01*
Y80016D01*
X43178Y80503D01*
X42901Y80917D01*
X40417Y83401D01*
X40003Y83678D01*
X39516Y83775D01*
X33636D01*
X33612Y83777D01*
Y85179D01*
X28451D01*
Y79821D01*
X33612D01*
Y81223D01*
X33636Y81226D01*
X38988D01*
X40725Y79488D01*
Y74730D01*
X40264Y74539D01*
X37901Y76901D01*
X37488Y77178D01*
X37000Y77275D01*
X27028D01*
X26243Y78059D01*
Y79797D01*
X26245Y79821D01*
X27549D01*
Y85179D01*
X22388D01*
Y79821D01*
X23692D01*
X23694Y79797D01*
Y77531D01*
X23791Y77044D01*
X24067Y76630D01*
X25599Y75099D01*
X26012Y74822D01*
X26500Y74726D01*
X36472D01*
X38976Y72222D01*
Y60275D01*
X39072Y59787D01*
X39349Y59374D01*
X43874Y54849D01*
X44287Y54572D01*
X44775Y54475D01*
X62222D01*
X74093Y42604D01*
X73906Y42104D01*
X73470D01*
Y38242D01*
Y34896D01*
X77530D01*
Y34896D01*
X77929Y34849D01*
X77976Y34725D01*
X78013Y34272D01*
X77823Y33988D01*
X77725Y33500D01*
Y30000D01*
X77823Y29512D01*
X78099Y29099D01*
X78711Y28487D01*
X78970Y28104D01*
X78970D01*
X78970Y28104D01*
Y27450D01*
X78947Y27448D01*
X77557D01*
X77530Y27450D01*
Y28104D01*
X73470D01*
Y24242D01*
Y21440D01*
X73426Y21396D01*
X73363Y21383D01*
X73294Y21354D01*
X73283Y21352D01*
X73273Y21346D01*
X73088Y21269D01*
X72877Y21058D01*
X72800Y20872D01*
X72794Y20863D01*
X72791Y20852D01*
X72763Y20782D01*
X72750Y20719D01*
Y20644D01*
X72735Y20570D01*
Y13575D01*
X72750Y13501D01*
Y13426D01*
X72779Y13357D01*
X72794Y13283D01*
X72800Y13273D01*
X72817Y13231D01*
X72817Y13231D01*
X72853Y13178D01*
X72864Y13150D01*
X72870Y13141D01*
X72891Y13120D01*
X72983Y12983D01*
X72983Y12983D01*
X73120Y12891D01*
X73141Y12870D01*
X73150Y12864D01*
X73178Y12853D01*
X73231Y12817D01*
X73273Y12800D01*
X73283Y12794D01*
X73356Y12779D01*
X73426Y12750D01*
X73501Y12750D01*
X73575Y12735D01*
X95425D01*
X95499Y12750D01*
X95574D01*
X95643Y12779D01*
X95717Y12794D01*
X95727Y12800D01*
X95769Y12817D01*
X95769Y12817D01*
X95822Y12853D01*
X95850Y12864D01*
X95859Y12870D01*
X95880Y12891D01*
X96017Y12983D01*
X96017Y12983D01*
X96109Y13120D01*
X96130Y13141D01*
X96136Y13150D01*
X96147Y13178D01*
X96183Y13231D01*
X96200Y13273D01*
X96206Y13283D01*
X96221Y13356D01*
X96250Y13426D01*
X96250Y13501D01*
X96265Y13575D01*
Y22321D01*
X96206Y22614D01*
X96112Y22755D01*
Y23345D01*
X96142Y23424D01*
X96140Y23487D01*
X96153Y23549D01*
X96135Y23635D01*
X96132Y23723D01*
X96118Y23754D01*
Y23796D01*
X96112Y23827D01*
Y26160D01*
X96125Y26223D01*
X96188Y26235D01*
X133500D01*
X133793Y26294D01*
X134041Y26459D01*
X152541Y44959D01*
X158541Y50959D01*
X158706Y51207D01*
X158765Y51500D01*
Y65500D01*
X158765Y82453D01*
Y121436D01*
X158753Y121496D01*
X158753Y121497D01*
X158752Y121503D01*
X158753Y121510D01*
X158752Y121524D01*
X158747Y121548D01*
X158745Y121610D01*
X158733Y121659D01*
X158723Y121708D01*
X158700Y121765D01*
X158695Y121790D01*
X158690Y121802D01*
X158686Y121808D01*
X158684Y121814D01*
X158684Y121815D01*
X158669Y121875D01*
X156227Y127248D01*
X156192Y127297D01*
X156192Y127297D01*
X156186Y127310D01*
X156178Y127321D01*
X156152Y127378D01*
X156117Y127427D01*
X156117Y127427D01*
X156083Y127478D01*
X156039Y127522D01*
X156031Y127534D01*
X156021Y127543D01*
X155988Y127594D01*
X151541Y132041D01*
X147094Y136487D01*
X147031Y136529D01*
X146978Y136583D01*
X146909Y136611D01*
X146846Y136653D01*
X146842Y136654D01*
X146721Y136704D01*
X146721Y136704D01*
X146717Y136706D01*
X146644Y136721D01*
X146574Y136750D01*
X146499Y136750D01*
X146425Y136765D01*
X135765D01*
Y142500D01*
X135706Y142793D01*
X135541Y143041D01*
X131041Y147541D01*
X130793Y147706D01*
X130500Y147765D01*
X91500D01*
X91207Y147706D01*
X91127Y147685D01*
X90970Y147644D01*
Y147644D01*
X90780Y147437D01*
X90280Y147632D01*
Y147894D01*
D02*
G37*
G36*
X58683Y38905D02*
X48346D01*
X48441Y37703D01*
X48839Y36044D01*
X49492Y34467D01*
X50384Y33012D01*
X51493Y31714D01*
X52790Y30606D01*
X54246Y29714D01*
X55822Y29061D01*
X57482Y28663D01*
X58683Y28568D01*
Y38905D01*
D02*
G37*
G36*
X48031Y117429D02*
X45701D01*
Y115000D01*
X48031D01*
Y117429D01*
D02*
G37*
G36*
X86496Y147894D02*
X83713D01*
Y144500D01*
X86496D01*
Y147894D01*
D02*
G37*
G36*
X70020Y38905D02*
X59683D01*
Y28568D01*
X60884Y28663D01*
X62544Y29061D01*
X64121Y29714D01*
X65576Y30606D01*
X66874Y31714D01*
X67982Y33012D01*
X68874Y34467D01*
X69527Y36044D01*
X69925Y37703D01*
X70020Y38905D01*
D02*
G37*
%LPD*%
G36*
X123491Y63600D02*
X123453Y63597D01*
X123411Y63586D01*
X123365Y63568D01*
X123316Y63543D01*
X123263Y63510D01*
X123206Y63470D01*
X123082Y63367D01*
X123014Y63305D01*
X122943Y63235D01*
X122236Y63943D01*
X122305Y64014D01*
X122470Y64206D01*
X122510Y64263D01*
X122543Y64316D01*
X122568Y64365D01*
X122586Y64411D01*
X122597Y64453D01*
X122600Y64491D01*
X123491Y63600D01*
D02*
G37*
G36*
X25874Y80585D02*
X25789Y80554D01*
X25714Y80504D01*
X25648Y80433D01*
X25594Y80342D01*
X25548Y80231D01*
X25513Y80099D01*
X25488Y79947D01*
X25473Y79775D01*
X25469Y79583D01*
X24468D01*
X24464Y79775D01*
X24449Y79947D01*
X24423Y80099D01*
X24388Y80231D01*
X24343Y80342D01*
X24288Y80433D01*
X24224Y80504D01*
X24148Y80554D01*
X24063Y80585D01*
X23968Y80595D01*
X25969D01*
X25874Y80585D01*
D02*
G37*
G36*
X21014Y64695D02*
X21206Y64530D01*
X21263Y64490D01*
X21316Y64457D01*
X21365Y64432D01*
X21411Y64414D01*
X21453Y64403D01*
X21491Y64400D01*
X20600Y63509D01*
X20597Y63547D01*
X20586Y63589D01*
X20568Y63635D01*
X20543Y63684D01*
X20510Y63737D01*
X20470Y63794D01*
X20367Y63918D01*
X20305Y63986D01*
X20235Y64057D01*
X20943Y64764D01*
X21014Y64695D01*
D02*
G37*
G36*
X52001Y65189D02*
X52021Y64936D01*
X52033Y64868D01*
X52047Y64807D01*
X52064Y64754D01*
X52083Y64709D01*
X52105Y64672D01*
X52130Y64643D01*
X50870D01*
X50895Y64672D01*
X50917Y64709D01*
X50936Y64754D01*
X50953Y64807D01*
X50968Y64868D01*
X50979Y64936D01*
X50995Y65097D01*
X50999Y65189D01*
X51000Y65288D01*
X52000D01*
X52001Y65189D01*
D02*
G37*
G36*
X60501Y67689D02*
X60521Y67436D01*
X60532Y67368D01*
X60547Y67307D01*
X60564Y67254D01*
X60583Y67209D01*
X60605Y67172D01*
X60630Y67143D01*
X59370D01*
X59395Y67172D01*
X59417Y67209D01*
X59436Y67254D01*
X59453Y67307D01*
X59468Y67368D01*
X59479Y67436D01*
X59495Y67597D01*
X59499Y67689D01*
X59500Y67788D01*
X60500D01*
X60501Y67689D01*
D02*
G37*
G36*
X129883Y65326D02*
D01*
X129883D01*
X129932Y65294D01*
X130006Y65279D01*
X130076Y65250D01*
X130076D01*
X130076Y65250D01*
X130151D01*
X130151Y65250D01*
X130151D01*
X130225Y65235D01*
X132500D01*
Y64725D01*
X132500Y64725D01*
D01*
X132446Y64644D01*
X132380Y64316D01*
X132335Y64089D01*
X132085D01*
Y62000D01*
X131000D01*
X130500Y61500D01*
X129086D01*
Y61274D01*
X126951D01*
Y61537D01*
X126202D01*
X126189Y61540D01*
X126175Y61537D01*
X122993D01*
X122802Y61999D01*
X123633Y62831D01*
X123655Y62848D01*
X124144Y62946D01*
X124690Y63310D01*
X125054Y63856D01*
X125182Y64500D01*
X125136Y64735D01*
X125546Y65235D01*
X126775D01*
X126848Y65250D01*
X126848D01*
X126849Y65250D01*
X126924D01*
X126924Y65250D01*
X126924D01*
X126994Y65279D01*
X127068Y65294D01*
X127117Y65326D01*
X127117D01*
D01*
X127500Y65403D01*
X127883Y65326D01*
X127932Y65294D01*
X128006Y65279D01*
X128076Y65250D01*
X128076D01*
X128076Y65250D01*
X128151D01*
X128152Y65250D01*
X128152D01*
X128225Y65235D01*
X128775D01*
X128848Y65250D01*
X128849D01*
X128849Y65250D01*
X128924D01*
X128924Y65250D01*
X128924D01*
X128994Y65279D01*
X129068Y65294D01*
X129117Y65326D01*
X129500Y65403D01*
D01*
D01*
X129883Y65326D01*
D02*
G37*
G36*
X32848Y83405D02*
X32879Y83320D01*
X32929Y83245D01*
X33000Y83180D01*
X33091Y83125D01*
X33202Y83080D01*
X33334Y83045D01*
X33486Y83020D01*
X33658Y83005D01*
X33850Y83000D01*
Y82000D01*
X33658Y81995D01*
X33486Y81980D01*
X33334Y81955D01*
X33202Y81920D01*
X33091Y81875D01*
X33000Y81820D01*
X32929Y81755D01*
X32879Y81680D01*
X32848Y81595D01*
X32838Y81500D01*
Y83500D01*
X32848Y83405D01*
D02*
G37*
G36*
X125340Y103655D02*
X125371Y103570D01*
X125421Y103495D01*
X125492Y103430D01*
X125583Y103375D01*
X125695Y103330D01*
X125826Y103295D01*
X125978Y103270D01*
X126150Y103255D01*
X126342Y103250D01*
Y102250D01*
X126150Y102245D01*
X125978Y102230D01*
X125826Y102205D01*
X125695Y102170D01*
X125583Y102125D01*
X125492Y102070D01*
X125421Y102005D01*
X125371Y101930D01*
X125340Y101845D01*
X125330Y101750D01*
Y103750D01*
X125340Y103655D01*
D02*
G37*
G36*
X33233Y101173D02*
X33222Y101268D01*
X33193Y101353D01*
X33143Y101428D01*
X33073Y101493D01*
X32983Y101548D01*
X32873Y101593D01*
X32743Y101628D01*
X32592Y101653D01*
X32423Y101668D01*
X32232Y101673D01*
Y102673D01*
X32423Y102678D01*
X32592Y102693D01*
X32743Y102718D01*
X32873Y102753D01*
X32983Y102798D01*
X33073Y102853D01*
X33143Y102918D01*
X33193Y102993D01*
X33222Y103078D01*
X33233Y103173D01*
Y101173D01*
D02*
G37*
G36*
X20476Y99726D02*
X20391Y99696D01*
X20316Y99646D01*
X20251Y99575D01*
X20196Y99484D01*
X20151Y99372D01*
X20116Y99241D01*
X20091Y99089D01*
X20076Y98917D01*
X20071Y98725D01*
X19071D01*
X19066Y98917D01*
X19051Y99089D01*
X19026Y99241D01*
X18991Y99372D01*
X18946Y99484D01*
X18891Y99575D01*
X18826Y99646D01*
X18751Y99696D01*
X18666Y99726D01*
X18571Y99737D01*
X20571D01*
X20476Y99726D01*
D02*
G37*
G36*
X121332Y105078D02*
X121347Y104908D01*
X121372Y104757D01*
X121407Y104628D01*
X121452Y104517D01*
X121507Y104428D01*
X121572Y104358D01*
X121647Y104307D01*
X121732Y104278D01*
X121827Y104268D01*
X121329D01*
X121342Y104105D01*
X121354Y104031D01*
X121369Y103964D01*
X121387Y103905D01*
X121409Y103855D01*
X121434Y103812D01*
X121463Y103778D01*
X121494Y103752D01*
X120258Y103509D01*
X120271Y103534D01*
X120283Y103567D01*
X120293Y103608D01*
X120302Y103658D01*
X120316Y103784D01*
X120324Y103943D01*
X120327Y104137D01*
X120867Y104268D01*
X119827D01*
X119922Y104278D01*
X120007Y104307D01*
X120082Y104358D01*
X120147Y104428D01*
X120202Y104517D01*
X120247Y104628D01*
X120282Y104757D01*
X120307Y104908D01*
X120322Y105078D01*
X120327Y105268D01*
X121327D01*
X121332Y105078D01*
D02*
G37*
G36*
X140214Y100501D02*
X140235D01*
Y98500D01*
X140294Y98207D01*
X140459Y97959D01*
X140707Y97794D01*
X141000Y97735D01*
X150000D01*
Y75000D01*
X130500D01*
Y90500D01*
Y102628D01*
X131000Y102917D01*
X131500Y102818D01*
X131824Y102882D01*
X131904Y102898D01*
X131904Y102898D01*
X132144Y102946D01*
X132291Y103044D01*
X132291Y103044D01*
X132754Y103061D01*
X135786D01*
Y103902D01*
X140214D01*
Y100501D01*
D02*
G37*
G36*
X30196Y103782D02*
X30219Y103735D01*
X30257Y103694D01*
X30309Y103658D01*
X30377Y103628D01*
X30460Y103603D01*
X30557Y103584D01*
X30670Y103570D01*
X30798Y103562D01*
X30941Y103559D01*
Y102559D01*
X30798Y102556D01*
X30557Y102534D01*
X30460Y102515D01*
X30377Y102490D01*
X30309Y102460D01*
X30257Y102424D01*
X30219Y102383D01*
X30196Y102336D01*
X30189Y102284D01*
Y103834D01*
X30196Y103782D01*
D02*
G37*
G36*
X35766Y99732D02*
X35796Y99647D01*
X35847Y99572D01*
X35917Y99507D01*
X36009Y99452D01*
X36120Y99407D01*
X36251Y99372D01*
X36403Y99347D01*
X36575Y99332D01*
X36768Y99327D01*
Y98327D01*
X36575Y98322D01*
X36403Y98307D01*
X36251Y98282D01*
X36120Y98247D01*
X36009Y98202D01*
X35917Y98147D01*
X35847Y98082D01*
X35796Y98007D01*
X35766Y97922D01*
X35756Y97827D01*
Y99827D01*
X35766Y99732D01*
D02*
G37*
G36*
X32848Y90905D02*
X32879Y90820D01*
X32929Y90745D01*
X33000Y90680D01*
X33091Y90625D01*
X33202Y90580D01*
X33334Y90545D01*
X33486Y90520D01*
X33658Y90505D01*
X33850Y90500D01*
Y89500D01*
X33658Y89495D01*
X33486Y89480D01*
X33334Y89455D01*
X33202Y89420D01*
X33091Y89375D01*
X33000Y89320D01*
X32929Y89255D01*
X32879Y89180D01*
X32848Y89095D01*
X32838Y89000D01*
Y91000D01*
X32848Y90905D01*
D02*
G37*
G36*
X23162Y89000D02*
X23152Y89095D01*
X23121Y89180D01*
X23071Y89255D01*
X23000Y89320D01*
X22909Y89375D01*
X22797Y89420D01*
X22666Y89455D01*
X22514Y89480D01*
X22342Y89495D01*
X22150Y89500D01*
Y90500D01*
X22342Y90505D01*
X22514Y90520D01*
X22666Y90545D01*
X22797Y90580D01*
X22909Y90625D01*
X23000Y90680D01*
X23071Y90745D01*
X23121Y90820D01*
X23152Y90905D01*
X23162Y91000D01*
Y89000D01*
D02*
G37*
G36*
X29005Y99349D02*
X29020Y99214D01*
X29045Y99094D01*
X29080Y98991D01*
X29125Y98903D01*
X29180Y98832D01*
X29245Y98776D01*
X29320Y98736D01*
X29405Y98712D01*
X29500Y98704D01*
X27500D01*
X27595Y98712D01*
X27680Y98736D01*
X27755Y98776D01*
X27820Y98832D01*
X27875Y98903D01*
X27920Y98991D01*
X27955Y99094D01*
X27980Y99214D01*
X27995Y99349D01*
X28000Y99500D01*
X29000D01*
X29005Y99349D01*
D02*
G37*
G36*
X50348Y100405D02*
X50379Y100320D01*
X50429Y100245D01*
X50500Y100180D01*
X50591Y100125D01*
X50703Y100080D01*
X50834Y100045D01*
X50986Y100020D01*
X51158Y100005D01*
X51350Y100000D01*
Y99000D01*
X51158Y98995D01*
X50986Y98980D01*
X50834Y98955D01*
X50703Y98920D01*
X50591Y98875D01*
X50500Y98820D01*
X50429Y98755D01*
X50379Y98680D01*
X50348Y98595D01*
X50338Y98500D01*
Y100500D01*
X50348Y100405D01*
D02*
G37*
G36*
X40662Y98500D02*
X40652Y98595D01*
X40621Y98680D01*
X40571Y98755D01*
X40500Y98820D01*
X40409Y98875D01*
X40297Y98920D01*
X40166Y98955D01*
X40014Y98980D01*
X39842Y98995D01*
X39650Y99000D01*
Y100000D01*
X39842Y100005D01*
X40014Y100020D01*
X40166Y100045D01*
X40297Y100080D01*
X40409Y100125D01*
X40500Y100180D01*
X40571Y100245D01*
X40621Y100320D01*
X40652Y100405D01*
X40662Y100500D01*
Y98500D01*
D02*
G37*
G36*
X92733Y39004D02*
X92722Y39098D01*
X92693Y39183D01*
X92642Y39257D01*
X92572Y39322D01*
X92483Y39376D01*
X92373Y39421D01*
X92242Y39455D01*
X92093Y39480D01*
X91922Y39495D01*
X91733Y39500D01*
Y40500D01*
X91922Y40505D01*
X92093Y40520D01*
X92242Y40545D01*
X92373Y40580D01*
X92483Y40625D01*
X92572Y40680D01*
X92642Y40745D01*
X92693Y40820D01*
X92722Y40905D01*
X92733Y41000D01*
Y39004D01*
D02*
G37*
G36*
X82344Y39164D02*
X82359Y39008D01*
X82384Y38870D01*
X82419Y38751D01*
X82464Y38650D01*
X82519Y38568D01*
X82584Y38504D01*
X82659Y38458D01*
X82744Y38430D01*
X82839Y38421D01*
X80839D01*
X80934Y38430D01*
X81019Y38458D01*
X81094Y38504D01*
X81159Y38568D01*
X81214Y38650D01*
X81259Y38751D01*
X81294Y38870D01*
X81319Y39008D01*
X81334Y39164D01*
X81339Y39339D01*
X82339D01*
X82344Y39164D01*
D02*
G37*
G36*
X76005Y42150D02*
X76020Y41978D01*
X76045Y41826D01*
X76080Y41695D01*
X76125Y41583D01*
X76180Y41492D01*
X76245Y41421D01*
X76320Y41371D01*
X76405Y41340D01*
X76500Y41330D01*
X74500D01*
X74595Y41340D01*
X74680Y41371D01*
X74755Y41421D01*
X74820Y41492D01*
X74875Y41583D01*
X74920Y41695D01*
X74955Y41826D01*
X74980Y41978D01*
X74995Y42150D01*
X75000Y42342D01*
X76000D01*
X76005Y42150D01*
D02*
G37*
G36*
X146500Y55500D02*
X146000Y55000D01*
X145500Y54500D01*
X138500D01*
X138000Y55000D01*
Y58500D01*
X142500D01*
X143500Y59500D01*
X146500D01*
Y55500D01*
D02*
G37*
G36*
X100471Y42727D02*
X100280Y42265D01*
X97000D01*
X97000Y42265D01*
X96707Y42206D01*
X96530Y42088D01*
X96030Y42104D01*
X96030Y42104D01*
X96030Y42104D01*
X91970D01*
Y41277D01*
X91943Y41274D01*
X82500D01*
X82012Y41177D01*
X81599Y40901D01*
X80937Y40240D01*
X80661Y39826D01*
X80564Y39339D01*
Y39195D01*
X79514D01*
Y37910D01*
X79459Y37887D01*
X79014Y37769D01*
X78661Y38004D01*
X78173Y38101D01*
X77553D01*
X77530Y38103D01*
Y39856D01*
Y42104D01*
X76777D01*
X76775Y42128D01*
D01*
Y43000D01*
X76678Y43488D01*
X76401Y43901D01*
X76039Y44264D01*
X76230Y44725D01*
X98472D01*
X100471Y42727D01*
D02*
G37*
G36*
X113500Y39258D02*
X113241Y39206D01*
X112993Y39041D01*
X112827Y38793D01*
X112769Y38500D01*
Y37251D01*
X97986D01*
X97694Y37193D01*
X97445Y37027D01*
X96183Y35765D01*
X96030D01*
X95737Y35706D01*
X95668Y35660D01*
X91970D01*
X91941Y35654D01*
X91911Y35658D01*
X91426Y35620D01*
X91311Y35587D01*
X91194Y35564D01*
X91168Y35547D01*
X91139Y35539D01*
X91098Y35507D01*
X87500D01*
Y36711D01*
X91486D01*
Y38204D01*
X91970Y38242D01*
X91970Y38242D01*
X91970Y38242D01*
X96030D01*
Y40530D01*
X97000Y41500D01*
X113500D01*
Y39258D01*
D02*
G37*
G36*
X76777Y27078D02*
X76807Y26993D01*
X76858Y26918D01*
X76928Y26853D01*
X77017Y26798D01*
X77127Y26753D01*
X77258Y26718D01*
X77407Y26693D01*
X77578Y26678D01*
X77767Y26673D01*
Y25673D01*
X77578Y25668D01*
X77407Y25653D01*
X77258Y25628D01*
X77127Y25593D01*
X77017Y25548D01*
X76928Y25493D01*
X76858Y25428D01*
X76807Y25353D01*
X76777Y25268D01*
X76767Y25173D01*
Y27173D01*
X76777Y27078D01*
D02*
G37*
G36*
X90359Y38723D02*
X90444Y38663D01*
X90567Y38524D01*
X90726Y38225D01*
X90721Y38204D01*
Y37475D01*
X87500D01*
X87207Y37417D01*
X86959Y37251D01*
X86943Y37226D01*
X86837D01*
Y37068D01*
X86794Y37003D01*
X86735Y36711D01*
Y35507D01*
X86794Y35214D01*
X86819Y35176D01*
X86725Y35035D01*
X86666Y34742D01*
Y33289D01*
X86725Y32997D01*
X86827Y32843D01*
X86794Y32793D01*
X86735Y32500D01*
Y31638D01*
Y31000D01*
X86794Y30707D01*
X86959Y30459D01*
X87207Y30294D01*
X87500Y30235D01*
X87683D01*
X89527Y28391D01*
X90951Y26968D01*
Y26695D01*
Y22321D01*
X95500D01*
Y14000D01*
Y13575D01*
X95494Y13566D01*
X95476Y13524D01*
X95434Y13506D01*
X95425Y13500D01*
X95349D01*
X73575D01*
X73566Y13506D01*
X73524Y13524D01*
X73506Y13566D01*
X73500Y13575D01*
Y13651D01*
Y20570D01*
X73513Y20633D01*
X73575Y20646D01*
X75000D01*
Y22827D01*
X75500D01*
Y23327D01*
X77780D01*
Y24899D01*
X78720D01*
Y23327D01*
X83280D01*
Y25008D01*
X83030D01*
Y28104D01*
X82254D01*
X82178Y28488D01*
X81901Y28901D01*
X80497Y30305D01*
X80704Y30805D01*
X84163D01*
Y31638D01*
Y34742D01*
Y38726D01*
X90354D01*
X90359Y38723D01*
D02*
G37*
G36*
X79744Y25173D02*
X79734Y25268D01*
X79704Y25353D01*
X79653Y25428D01*
X79583Y25493D01*
X79492Y25548D01*
X79380Y25593D01*
X79249Y25628D01*
X79097Y25653D01*
X78925Y25668D01*
X78733Y25673D01*
Y26673D01*
X78925Y26678D01*
X79097Y26693D01*
X79249Y26718D01*
X79380Y26753D01*
X79492Y26798D01*
X79583Y26853D01*
X79653Y26918D01*
X79704Y26993D01*
X79734Y27078D01*
X79744Y27173D01*
Y25173D01*
D02*
G37*
G36*
X76766Y37732D02*
X76796Y37647D01*
X76847Y37572D01*
X76917Y37507D01*
X77008Y37452D01*
X77120Y37407D01*
X77251Y37372D01*
X77403Y37347D01*
X77575Y37332D01*
X77767Y37327D01*
Y36327D01*
X77575Y36322D01*
X77403Y36307D01*
X77251Y36282D01*
X77120Y36247D01*
X77008Y36202D01*
X76917Y36147D01*
X76847Y36082D01*
X76796Y36007D01*
X76766Y35922D01*
X76755Y35827D01*
Y37827D01*
X76766Y37732D01*
D02*
G37*
G36*
X81505Y27873D02*
X81520Y27759D01*
X81545Y27659D01*
X81580Y27571D01*
X81625Y27498D01*
X81680Y27437D01*
X81745Y27391D01*
X81820Y27357D01*
X81905Y27337D01*
X82000Y27330D01*
X80000D01*
X80095Y27337D01*
X80180Y27357D01*
X80255Y27391D01*
X80320Y27437D01*
X80375Y27498D01*
X80420Y27571D01*
X80455Y27659D01*
X80480Y27759D01*
X80495Y27873D01*
X80500Y28000D01*
X81500D01*
X81505Y27873D01*
D02*
G37*
G36*
X113811Y56665D02*
X113809Y56718D01*
X113801Y56765D01*
X113788Y56806D01*
X113771Y56842D01*
X113748Y56872D01*
X113720Y56897D01*
X113688Y56916D01*
X113650Y56930D01*
X113607Y56938D01*
X113559Y56941D01*
Y57941D01*
X113607Y57944D01*
X113650Y57952D01*
X113688Y57966D01*
X113720Y57985D01*
X113748Y58010D01*
X113771Y58040D01*
X113788Y58076D01*
X113801Y58117D01*
X113809Y58164D01*
X113811Y58216D01*
Y56665D01*
D02*
G37*
G36*
X111772Y62578D02*
X111784Y62493D01*
X111804Y62418D01*
X111832Y62353D01*
X111869Y62298D01*
X111914Y62253D01*
X111966Y62218D01*
X112027Y62193D01*
X112096Y62178D01*
X112173Y62173D01*
Y61173D01*
X112096Y61168D01*
X112027Y61153D01*
X111966Y61128D01*
X111914Y61093D01*
X111869Y61048D01*
X111832Y60993D01*
X111804Y60928D01*
X111784Y60853D01*
X111772Y60768D01*
X111767Y60673D01*
Y62673D01*
X111772Y62578D01*
D02*
G37*
G36*
X143733Y60673D02*
X143722Y60768D01*
X143693Y60853D01*
X143642Y60928D01*
X143572Y60993D01*
X143482Y61048D01*
X143372Y61093D01*
X143243Y61128D01*
X143093Y61153D01*
X142922Y61168D01*
X142733Y61173D01*
Y62173D01*
X142922Y62178D01*
X143093Y62193D01*
X143243Y62218D01*
X143372Y62253D01*
X143482Y62298D01*
X143572Y62353D01*
X143642Y62418D01*
X143693Y62493D01*
X143722Y62578D01*
X143733Y62673D01*
Y60673D01*
D02*
G37*
G36*
X141000Y65476D02*
Y62302D01*
X140137Y61439D01*
X139916D01*
X139902Y61442D01*
X139889Y61439D01*
X137214D01*
Y60500D01*
X132786D01*
Y61700D01*
X132791Y61707D01*
X132849Y62000D01*
Y63530D01*
X132876Y63548D01*
X132918Y63611D01*
X132971Y63664D01*
X133000Y63734D01*
X133042Y63796D01*
X133056Y63870D01*
X133085Y63940D01*
X133174Y64383D01*
X133206Y64432D01*
X133221Y64506D01*
X133250Y64576D01*
Y64651D01*
X133265Y64725D01*
Y65235D01*
X139646D01*
X139939Y65294D01*
X140187Y65459D01*
X140541Y65813D01*
X140633Y65822D01*
X141000Y65476D01*
D02*
G37*
G36*
X145505Y63650D02*
X145520Y63478D01*
X145540Y63357D01*
X145630D01*
X145605Y63328D01*
X145583Y63291D01*
X145565Y63250D01*
X145580Y63195D01*
X145625Y63083D01*
X145680Y62992D01*
X145745Y62921D01*
X145820Y62871D01*
X145905Y62840D01*
X146000Y62830D01*
X145502D01*
X145501Y62811D01*
X145500Y62712D01*
X144500Y62712D01*
X144499Y62811D01*
X144497Y62830D01*
X144000D01*
X144095Y62840D01*
X144180Y62871D01*
X144255Y62921D01*
X144320Y62992D01*
X144375Y63083D01*
X144420Y63195D01*
X144435Y63249D01*
X144417Y63291D01*
X144395Y63328D01*
X144370Y63357D01*
X144460D01*
X144480Y63478D01*
X144495Y63650D01*
X144500Y63842D01*
X145500D01*
X145505Y63650D01*
D02*
G37*
G36*
X113811Y61784D02*
X113804Y61836D01*
X113781Y61883D01*
X113743Y61924D01*
X113691Y61960D01*
X113623Y61990D01*
X113540Y62015D01*
X113443Y62034D01*
X113330Y62048D01*
X113202Y62056D01*
X113059Y62059D01*
Y63059D01*
X113202Y63062D01*
X113443Y63084D01*
X113540Y63103D01*
X113623Y63128D01*
X113691Y63158D01*
X113743Y63194D01*
X113781Y63235D01*
X113804Y63282D01*
X113811Y63335D01*
Y61784D01*
D02*
G37*
G36*
X139908Y60643D02*
X139926Y60613D01*
X139956Y60587D01*
X139998Y60564D01*
X140051Y60544D01*
X140117Y60528D01*
X140195Y60516D01*
X140285Y60507D01*
X140500Y60500D01*
Y59500D01*
X140386Y59498D01*
X140195Y59484D01*
X140117Y59472D01*
X140051Y59456D01*
X139998Y59436D01*
X139956Y59413D01*
X139926Y59387D01*
X139908Y59357D01*
X139902Y59323D01*
Y60677D01*
X139908Y60643D01*
D02*
G37*
G36*
X111777Y59232D02*
X111804Y59147D01*
X111849Y59072D01*
X111912Y59007D01*
X111994Y58952D01*
X112094Y58907D01*
X112211Y58872D01*
X112347Y58847D01*
X112501Y58832D01*
X112673Y58827D01*
Y57827D01*
X112501Y57822D01*
X112347Y57807D01*
X112211Y57782D01*
X112094Y57747D01*
X111994Y57702D01*
X111912Y57647D01*
X111849Y57582D01*
X111804Y57507D01*
X111777Y57422D01*
X111767Y57327D01*
Y59327D01*
X111777Y59232D01*
D02*
G37*
G36*
X117341Y58164D02*
X117370Y58117D01*
X117420Y58076D01*
X117490Y58040D01*
X117580Y58010D01*
X117691Y57985D01*
X117821Y57966D01*
X117971Y57952D01*
X118331Y57941D01*
Y56941D01*
X118140Y56938D01*
X117821Y56916D01*
X117691Y56897D01*
X117580Y56872D01*
X117490Y56842D01*
X117420Y56806D01*
X117370Y56765D01*
X117341Y56718D01*
X117331Y56665D01*
Y58216D01*
X117341Y58164D01*
D02*
G37*
G36*
X126199Y60723D02*
X126229Y60676D01*
X126279Y60635D01*
X126349Y60599D01*
X126439Y60569D01*
X126549Y60544D01*
X126679Y60525D01*
X126829Y60511D01*
X127189Y60500D01*
Y60293D01*
X127500Y60500D01*
X129000Y59500D01*
X128810Y59490D01*
X128640Y59460D01*
X128490Y59410D01*
X128360Y59340D01*
X128250Y59250D01*
X128160Y59140D01*
X128090Y59010D01*
X128040Y58860D01*
X128010Y58690D01*
X128000Y58500D01*
X127000D01*
X126990Y58690D01*
X126960Y58860D01*
X126910Y59010D01*
X126840Y59140D01*
X126750Y59250D01*
X126640Y59340D01*
X126510Y59410D01*
X126443Y59432D01*
X126439Y59431D01*
X126349Y59401D01*
X126279Y59365D01*
X126229Y59324D01*
X126199Y59277D01*
X126189Y59225D01*
Y59490D01*
X126000Y59500D01*
X126189Y59626D01*
Y60775D01*
X126199Y60723D01*
D02*
G37*
G36*
X130098Y59323D02*
X130088Y59357D01*
X130058Y59387D01*
X130008Y59413D01*
X129938Y59436D01*
X129848Y59456D01*
X129738Y59472D01*
X129458Y59493D01*
X129098Y59500D01*
Y60500D01*
X129288Y60502D01*
X129848Y60544D01*
X129938Y60564D01*
X130008Y60587D01*
X130058Y60613D01*
X130088Y60643D01*
X130098Y60677D01*
Y59323D01*
D02*
G37*
G36*
X135500Y59547D02*
X137214Y59515D01*
Y56001D01*
X137235D01*
Y55000D01*
X137235Y55000D01*
X137294Y54707D01*
X137459Y54459D01*
X137959Y53959D01*
X138000Y53932D01*
Y52644D01*
X135470D01*
Y45356D01*
X138000D01*
Y42081D01*
X129183Y33265D01*
X96500D01*
X96207Y33206D01*
X95959Y33041D01*
X95793Y32793D01*
X95735Y32500D01*
X95660D01*
X95660Y32500D01*
X93575D01*
X93506Y32514D01*
X93447Y32553D01*
X93000Y33000D01*
X91562D01*
X91492Y33014D01*
X91486Y33018D01*
Y33289D01*
X87431D01*
Y34742D01*
X91486D01*
Y34848D01*
X91488Y34849D01*
X91518Y34852D01*
X91561Y34863D01*
X91970Y34896D01*
X91970Y34896D01*
X96030D01*
Y34985D01*
X96105Y35000D01*
X96500D01*
X97933Y36433D01*
X97992Y36472D01*
X98062Y36486D01*
X113533D01*
Y37000D01*
Y38425D01*
Y38500D01*
X113609D01*
X113649Y38508D01*
X113719Y38537D01*
X113793Y38552D01*
X113855Y38593D01*
X113925Y38622D01*
X113978Y38675D01*
X114041Y38717D01*
X114083Y38780D01*
X114136Y38833D01*
X114165Y38903D01*
D01*
X114207Y38965D01*
X114221Y39039D01*
X114250Y39109D01*
Y39184D01*
X114265Y39258D01*
Y41500D01*
X114207Y41793D01*
X114041Y42041D01*
X113793Y42206D01*
X113500Y42265D01*
X101620D01*
X101236Y42727D01*
X101178Y43019D01*
X101012Y43267D01*
X99013Y45266D01*
X99000Y45275D01*
Y45500D01*
X98490Y46010D01*
X98697Y46510D01*
X98925D01*
X99189Y46457D01*
X99414Y46307D01*
X101987Y43734D01*
X102235Y43568D01*
X102528Y43510D01*
X116925D01*
X117189Y43457D01*
X117414Y43307D01*
X118307Y42414D01*
X118457Y42189D01*
X118510Y41925D01*
Y40393D01*
X118525Y40317D01*
X118525Y40240D01*
X118539Y40172D01*
X118567Y40106D01*
X118568Y40100D01*
X118572Y40095D01*
X118596Y40037D01*
X118620Y39978D01*
X118622Y39972D01*
X118625Y39966D01*
X118652Y39901D01*
X118654Y39898D01*
X118691Y39843D01*
X118746Y39789D01*
X118789Y39724D01*
X119040Y39476D01*
X119105Y39433D01*
X119160Y39379D01*
X119189Y39360D01*
X119218Y39342D01*
X119284Y39315D01*
X119289Y39312D01*
X119296Y39310D01*
X119354Y39287D01*
X119413Y39263D01*
X119419Y39259D01*
X119425Y39258D01*
X119491Y39231D01*
X119558Y39218D01*
X119636Y39219D01*
X119712Y39204D01*
X120670Y39215D01*
X122351Y39234D01*
X122419Y39248D01*
X122420Y39248D01*
X122421Y39248D01*
X122427Y39249D01*
X122500Y39250D01*
X122568Y39264D01*
X122632Y39292D01*
X122705Y39306D01*
X122708Y39309D01*
X122713Y39310D01*
X122774Y39351D01*
X122838Y39378D01*
X122838Y39378D01*
X122881Y39407D01*
X122933Y39459D01*
X122953Y39472D01*
X122954Y39473D01*
X122956Y39476D01*
X122959Y39478D01*
X122971Y39496D01*
X123092Y39618D01*
X123122Y39662D01*
X123172Y39783D01*
X123214Y39856D01*
X123214Y39856D01*
X123219Y39896D01*
X123236Y39938D01*
X123238Y39949D01*
Y39949D01*
X123238Y39949D01*
X123250Y40008D01*
X123250Y40083D01*
X123265Y40157D01*
Y47958D01*
Y57595D01*
X123257Y57632D01*
X123261Y57670D01*
X123228Y57777D01*
X123206Y57888D01*
X123185Y57919D01*
X123174Y57955D01*
X123169Y57963D01*
X123243Y58252D01*
X123365Y58436D01*
X123399Y58463D01*
X125825D01*
X125946Y57856D01*
X126310Y57310D01*
X126856Y56946D01*
X127500Y56818D01*
X128144Y56946D01*
X128690Y57310D01*
X128785Y57454D01*
X129054Y57856D01*
X129054Y57856D01*
X129113Y58153D01*
X129119Y58164D01*
X129312Y58516D01*
X129666Y58561D01*
X130085D01*
X130098Y58558D01*
X130112Y58561D01*
X132786D01*
Y59241D01*
Y59735D01*
X135500D01*
Y59547D01*
D02*
G37*
G36*
X146745Y119673D02*
X146734Y119768D01*
X146704Y119853D01*
X146653Y119928D01*
X146582Y119993D01*
X146492Y120048D01*
X146380Y120093D01*
X146249Y120128D01*
X146097Y120153D01*
X145925Y120168D01*
X145732Y120173D01*
Y121173D01*
X145925Y121178D01*
X146097Y121193D01*
X146249Y121218D01*
X146380Y121253D01*
X146492Y121298D01*
X146582Y121353D01*
X146653Y121418D01*
X146704Y121493D01*
X146734Y121578D01*
X146745Y121673D01*
Y119673D01*
D02*
G37*
G36*
X133098Y119519D02*
X133239Y119505D01*
X133331Y119501D01*
X133431Y119500D01*
Y118500D01*
X133331Y118499D01*
X133098Y118481D01*
Y118323D01*
X133088Y118357D01*
X133060Y118387D01*
X133012Y118413D01*
X132945Y118436D01*
X132917Y118443D01*
X132897Y118436D01*
X132852Y118417D01*
X132815Y118395D01*
X132785Y118370D01*
Y118467D01*
X132754Y118472D01*
X132487Y118493D01*
X132143Y118500D01*
Y119500D01*
X132324Y119502D01*
X132785Y119538D01*
Y119630D01*
X132815Y119605D01*
X132852Y119583D01*
X132897Y119564D01*
X132917Y119557D01*
X132945Y119564D01*
X133012Y119587D01*
X133060Y119613D01*
X133088Y119643D01*
X133098Y119677D01*
Y119519D01*
D02*
G37*
G36*
X123562Y119298D02*
X123584Y119057D01*
X123603Y118960D01*
X123628Y118877D01*
X123658Y118809D01*
X123694Y118756D01*
X123735Y118719D01*
X123782Y118696D01*
X123834Y118689D01*
X122284D01*
X122336Y118696D01*
X122383Y118719D01*
X122424Y118756D01*
X122460Y118809D01*
X122490Y118877D01*
X122515Y118960D01*
X122534Y119057D01*
X122548Y119170D01*
X122556Y119298D01*
X122559Y119441D01*
X123559D01*
X123562Y119298D01*
D02*
G37*
G36*
X139688Y127397D02*
X139917Y127000D01*
X139818Y126500D01*
X139946Y125856D01*
X140000Y125775D01*
Y125225D01*
X139946Y125144D01*
X139818Y124500D01*
X139946Y123856D01*
X140000Y123775D01*
Y123089D01*
X135085D01*
Y120439D01*
X132959D01*
X132787Y120554D01*
X132143Y120682D01*
X131502Y120555D01*
X131499Y120554D01*
X131265Y120398D01*
X130765Y120665D01*
Y120919D01*
X130765Y120919D01*
X130707Y121211D01*
X130602Y121368D01*
X130595Y121384D01*
X130553Y121447D01*
X130500Y121500D01*
Y121575D01*
Y125925D01*
D01*
Y126000D01*
X130518D01*
X130532Y126021D01*
X130541Y126027D01*
X130583Y126090D01*
D01*
X130636Y126143D01*
X130665Y126213D01*
X130707Y126275D01*
X130721Y126349D01*
X130750Y126419D01*
Y126494D01*
X130765Y126568D01*
Y127500D01*
X139582D01*
X139688Y127397D01*
D02*
G37*
G36*
X119732Y120729D02*
X119647Y120718D01*
X119572Y120700D01*
X119507Y120675D01*
X119452Y120642D01*
X119407Y120602D01*
X119372Y120555D01*
X119347Y120501D01*
X119332Y120439D01*
X119327Y120370D01*
X118327D01*
X118322Y120439D01*
X118307Y120501D01*
X118282Y120555D01*
X118247Y120602D01*
X118202Y120642D01*
X118147Y120675D01*
X118082Y120700D01*
X118007Y120718D01*
X117922Y120729D01*
X117827Y120732D01*
X119827D01*
X119732Y120729D01*
D02*
G37*
G36*
X122778Y121328D02*
X122756Y121291D01*
X122737Y121246D01*
X122720Y121193D01*
X122706Y121132D01*
X122694Y121064D01*
X122678Y120903D01*
X122675Y120811D01*
X122673Y120732D01*
X123173D01*
X123078Y120728D01*
X122993Y120716D01*
X122918Y120696D01*
X122853Y120668D01*
X122798Y120631D01*
X122753Y120586D01*
X122718Y120534D01*
X122693Y120473D01*
X122678Y120404D01*
X122673Y120327D01*
X121673D01*
X121668Y120404D01*
X121653Y120473D01*
X121628Y120534D01*
X121593Y120586D01*
X121548Y120631D01*
X121493Y120668D01*
X121428Y120696D01*
X121353Y120716D01*
X121268Y120728D01*
X121173Y120732D01*
X121673D01*
X121672Y120811D01*
X121652Y121064D01*
X121641Y121132D01*
X121626Y121193D01*
X121609Y121246D01*
X121590Y121291D01*
X121568Y121328D01*
X121543Y121357D01*
X122803D01*
X122778Y121328D01*
D02*
G37*
G36*
X121003Y118695D02*
X121011Y118694D01*
X121025Y118693D01*
X121135Y118690D01*
X121275Y118689D01*
X119725D01*
X120000Y118697D01*
X121000D01*
X121003Y118695D01*
D02*
G37*
G36*
X93500Y117688D02*
Y112765D01*
X93018Y112566D01*
X92450Y112491D01*
X89368D01*
X89331Y112484D01*
X89293Y112487D01*
X89186Y112455D01*
X89075Y112433D01*
X89044Y112412D01*
X89008Y112401D01*
X88921Y112329D01*
X88827Y112267D01*
X88806Y112235D01*
X88777Y112211D01*
X88591Y111985D01*
X88573Y111952D01*
X88547Y111925D01*
X88503Y111821D01*
X88451Y111722D01*
X88447Y111684D01*
X88432Y111649D01*
X88334Y111154D01*
X88138Y110862D01*
X87845Y110666D01*
X87500Y110597D01*
X87155Y110666D01*
X86925Y110819D01*
X86649Y110934D01*
X86351D01*
X86075Y110820D01*
X85846Y110666D01*
X85500Y110597D01*
X85154Y110666D01*
X84862Y110862D01*
X84666Y111155D01*
X84591Y111532D01*
X84540Y111656D01*
X84500Y111763D01*
Y116454D01*
X86388D01*
X86437Y116464D01*
X86487Y116460D01*
X86857Y116509D01*
X91351D01*
X91644Y116567D01*
X91892Y116733D01*
X91892Y116733D01*
X93038Y117879D01*
X93500Y117688D01*
D02*
G37*
G36*
X42974Y116700D02*
X42988Y116640D01*
X43014Y116588D01*
X43049Y116543D01*
X43093Y116504D01*
X43148Y116473D01*
X43213Y116448D01*
X43288Y116431D01*
X43374Y116421D01*
X43468Y116417D01*
X41469D01*
X41563Y116421D01*
X41649Y116431D01*
X41723Y116448D01*
X41789Y116473D01*
X41844Y116504D01*
X41888Y116543D01*
X41923Y116588D01*
X41949Y116640D01*
X41963Y116700D01*
X41969Y116766D01*
X42968D01*
X42974Y116700D01*
D02*
G37*
G36*
X102043Y115858D02*
X102004Y115944D01*
X101883Y116020D01*
X101683Y116087D01*
X101403Y116146D01*
X101043Y116195D01*
X100083Y116267D01*
X98044Y116307D01*
Y120307D01*
X98804Y120312D01*
X101403Y120469D01*
X101683Y120527D01*
X101883Y120594D01*
X102004Y120670D01*
X102043Y120756D01*
Y115858D01*
D02*
G37*
G36*
X142908Y119643D02*
X142926Y119613D01*
X142956Y119587D01*
X142998Y119564D01*
X143052Y119544D01*
X143117Y119528D01*
X143195Y119516D01*
X143285Y119507D01*
X143500Y119500D01*
Y118500D01*
X143386Y118498D01*
X143195Y118484D01*
X143117Y118472D01*
X143052Y118456D01*
X142998Y118436D01*
X142956Y118413D01*
X142926Y118387D01*
X142908Y118357D01*
X142902Y118323D01*
Y119677D01*
X142908Y119643D01*
D02*
G37*
G36*
X35840Y118405D02*
X35871Y118320D01*
X35921Y118245D01*
X35992Y118180D01*
X36083Y118125D01*
X36195Y118080D01*
X36326Y118045D01*
X36478Y118020D01*
X36650Y118005D01*
X36842Y118000D01*
Y117000D01*
X36650Y116995D01*
X36478Y116980D01*
X36326Y116955D01*
X36195Y116920D01*
X36083Y116875D01*
X35992Y116820D01*
X35921Y116755D01*
X35871Y116680D01*
X35840Y116595D01*
X35830Y116500D01*
Y118500D01*
X35840Y118405D01*
D02*
G37*
G36*
X30170Y116500D02*
X30160Y116595D01*
X30129Y116680D01*
X30079Y116755D01*
X30008Y116820D01*
X29917Y116875D01*
X29805Y116920D01*
X29674Y116955D01*
X29522Y116980D01*
X29350Y116995D01*
X29158Y117000D01*
Y118000D01*
X29350Y118005D01*
X29522Y118020D01*
X29674Y118045D01*
X29805Y118080D01*
X29917Y118125D01*
X30008Y118180D01*
X30079Y118245D01*
X30129Y118320D01*
X30160Y118405D01*
X30170Y118500D01*
Y116500D01*
D02*
G37*
G36*
X79840Y138405D02*
X79871Y138320D01*
X79921Y138245D01*
X79992Y138180D01*
X80083Y138125D01*
X80195Y138080D01*
X80326Y138045D01*
X80478Y138020D01*
X80650Y138005D01*
X80842Y138000D01*
Y137000D01*
X80650Y136995D01*
X80478Y136980D01*
X80326Y136955D01*
X80195Y136920D01*
X80083Y136875D01*
X79992Y136820D01*
X79921Y136755D01*
X79871Y136680D01*
X79840Y136595D01*
X79830Y136500D01*
Y138500D01*
X79840Y138405D01*
D02*
G37*
G36*
X120000Y134500D02*
X97500D01*
X97000Y134000D01*
X93000D01*
Y135211D01*
X96986D01*
Y135986D01*
X98045Y137045D01*
X98470Y137242D01*
Y137242D01*
X98470Y137242D01*
X102530D01*
Y137530D01*
X103000Y138000D01*
Y140000D01*
X103500Y140500D01*
X120000D01*
Y134500D01*
D02*
G37*
G36*
X135000Y142500D02*
Y136000D01*
X146349D01*
X146425D01*
X146428Y135998D01*
X146549Y135948D01*
X146553Y135947D01*
X151000Y131500D01*
X155447Y127053D01*
X155481Y127002D01*
X155490Y126993D01*
X155496Y126981D01*
X155531Y126931D01*
X157973Y121559D01*
X157983Y121510D01*
X157988Y121497D01*
X157989Y121484D01*
X158000Y121436D01*
Y82453D01*
D01*
X158000Y65500D01*
Y51500D01*
X152000Y45500D01*
X133500Y27000D01*
X96112D01*
X95820Y26942D01*
X95572Y26776D01*
X95406Y26528D01*
X95347Y26235D01*
Y23752D01*
X95347Y23752D01*
X95368Y23647D01*
X95368Y23596D01*
X95388Y23549D01*
X95149Y23166D01*
X95043Y23089D01*
X95034Y23086D01*
X91716D01*
Y26968D01*
X91716Y26968D01*
X91657Y27260D01*
X91492Y27509D01*
X90068Y28932D01*
X89000Y30000D01*
X88224Y30776D01*
X87976Y30942D01*
X87932Y31000D01*
X87500D01*
Y32500D01*
X87800D01*
X87805Y32525D01*
X90914D01*
X90946Y32477D01*
X91008Y32435D01*
X91062Y32382D01*
X91067Y32378D01*
X91137Y32349D01*
X91194Y32311D01*
X91261Y32298D01*
X91265Y32296D01*
X91269Y32293D01*
X91273Y32293D01*
X91343Y32264D01*
X91412Y32250D01*
X91488D01*
X91562Y32235D01*
X92683D01*
X92906Y32013D01*
X92969Y31971D01*
X93022Y31917D01*
X93081Y31878D01*
X93151Y31849D01*
X93154Y31847D01*
X93158Y31846D01*
X93279Y31796D01*
X93283Y31793D01*
X93287Y31793D01*
X93357Y31764D01*
X93426Y31750D01*
X93501D01*
X93575Y31735D01*
X95660D01*
X95660Y31735D01*
X95735D01*
X95809Y31750D01*
X95885D01*
X95954Y31779D01*
X96028Y31793D01*
X96091Y31835D01*
X96160Y31864D01*
X96213Y31917D01*
X96276Y31959D01*
X96318Y32022D01*
X96371Y32075D01*
X96400Y32145D01*
X96442Y32207D01*
X96456Y32281D01*
X96485Y32351D01*
X96513Y32487D01*
X96575Y32500D01*
X129183D01*
X129183Y32500D01*
X129183Y32500D01*
X129500D01*
X129641Y32669D01*
X129724Y32724D01*
X133041Y36041D01*
X138541Y41541D01*
X138707Y41789D01*
X138765Y42081D01*
Y42159D01*
X139227Y42543D01*
X139519Y42602D01*
X139767Y42767D01*
X150541Y53541D01*
X150707Y53789D01*
X150765Y54081D01*
Y74235D01*
X150707Y74528D01*
X150646Y74618D01*
X150707Y74707D01*
X150765Y75000D01*
Y84971D01*
X150862Y86201D01*
X150799Y87000D01*
X150827Y87031D01*
Y104491D01*
X151471Y104619D01*
X152016Y104984D01*
X152381Y105529D01*
X152509Y106173D01*
X152381Y106817D01*
X152016Y107363D01*
X151471Y107728D01*
X150827Y107856D01*
X150530Y107797D01*
X150030Y108104D01*
Y108104D01*
X150030Y108104D01*
X145970D01*
Y107450D01*
X145947Y107448D01*
X145673D01*
X145185Y107351D01*
X144772Y107074D01*
X143637Y105939D01*
X140214D01*
Y104667D01*
X135786D01*
Y108499D01*
X135765D01*
Y108546D01*
Y110000D01*
X135706Y110293D01*
X135655Y110370D01*
X135638Y110395D01*
X135568Y110500D01*
X135625Y110744D01*
X135731Y111000D01*
X139265D01*
X139557Y111058D01*
X139805Y111224D01*
X139805Y111224D01*
X140541Y111959D01*
X140707Y112207D01*
X140765Y112500D01*
X143000D01*
Y112735D01*
X149500D01*
X149793Y112794D01*
X150041Y112959D01*
X150206Y113207D01*
X150265Y113500D01*
Y118500D01*
X150206Y118793D01*
X150041Y119041D01*
X150030Y119048D01*
Y122604D01*
X149998D01*
X149680Y122991D01*
X149682Y123000D01*
X149554Y123644D01*
X149190Y124190D01*
X148644Y124554D01*
X148000Y124682D01*
Y127000D01*
X147500Y127500D01*
X144816D01*
X144690Y127690D01*
X144144Y128054D01*
X143500Y128182D01*
X142856Y128054D01*
X142500Y127816D01*
X142144Y128054D01*
X141500Y128182D01*
X140856Y128054D01*
X140420Y127763D01*
X140350Y127779D01*
X140282Y127857D01*
X140223Y127943D01*
X140118Y128046D01*
X139996Y128126D01*
X139875Y128207D01*
X139871Y128207D01*
X139868Y128209D01*
X139725Y128236D01*
X139582Y128265D01*
X130765D01*
Y129500D01*
X130707Y129793D01*
X130541Y130041D01*
X130293Y130207D01*
X130000Y130265D01*
X126679D01*
Y131049D01*
X121321D01*
Y130265D01*
X120034D01*
Y131514D01*
X103966D01*
Y131500D01*
X97277D01*
X96986Y131694D01*
Y131789D01*
X96615D01*
X96453Y131822D01*
X94661D01*
X94499Y131789D01*
X93000D01*
Y133235D01*
X97000D01*
X97000Y133235D01*
X97293Y133293D01*
X97541Y133459D01*
X97817Y133735D01*
X120000D01*
X120293Y133793D01*
X120541Y133959D01*
X120706Y134207D01*
X120765Y134500D01*
Y140500D01*
X120706Y140793D01*
X120541Y141041D01*
X120293Y141207D01*
X120000Y141265D01*
X119235D01*
X119000Y141500D01*
X118765Y141265D01*
X103500D01*
X103500Y141265D01*
X103207Y141207D01*
X103030Y141088D01*
X102530Y141104D01*
X102530Y141104D01*
X102530Y141104D01*
X98470D01*
Y141000D01*
X91500D01*
Y147000D01*
X130500D01*
X135000Y142500D01*
D02*
G37*
G36*
X99244Y138173D02*
X99234Y138268D01*
X99204Y138353D01*
X99153Y138428D01*
X99082Y138493D01*
X98992Y138548D01*
X98880Y138593D01*
X98749Y138628D01*
X98597Y138653D01*
X98425Y138668D01*
X98233Y138673D01*
Y139673D01*
X98425Y139678D01*
X98597Y139693D01*
X98749Y139718D01*
X98880Y139753D01*
X98992Y139798D01*
X99082Y139853D01*
X99153Y139918D01*
X99204Y139993D01*
X99234Y140078D01*
X99244Y140173D01*
Y138173D01*
D02*
G37*
G36*
X74170Y136500D02*
X74160Y136595D01*
X74129Y136680D01*
X74079Y136755D01*
X74008Y136820D01*
X73917Y136875D01*
X73805Y136920D01*
X73674Y136955D01*
X73522Y136980D01*
X73487Y136983D01*
X73436Y136979D01*
X73368Y136968D01*
X73307Y136953D01*
X73254Y136936D01*
X73209Y136917D01*
X73172Y136895D01*
X73143Y136870D01*
Y138130D01*
X73172Y138105D01*
X73209Y138083D01*
X73254Y138064D01*
X73307Y138047D01*
X73368Y138032D01*
X73436Y138021D01*
X73481Y138016D01*
X73522Y138020D01*
X73674Y138045D01*
X73805Y138080D01*
X73917Y138125D01*
X74008Y138180D01*
X74079Y138245D01*
X74129Y138320D01*
X74160Y138405D01*
X74170Y138500D01*
Y136500D01*
D02*
G37*
G36*
X87844Y137741D02*
X87859Y137569D01*
X87884Y137417D01*
X87919Y137285D01*
X87964Y137174D01*
X88019Y137083D01*
X88084Y137012D01*
X88159Y136961D01*
X88244Y136931D01*
X88339Y136921D01*
X86339D01*
X86434Y136931D01*
X86519Y136961D01*
X86594Y137012D01*
X86659Y137083D01*
X86714Y137174D01*
X86759Y137285D01*
X86794Y137417D01*
X86819Y137569D01*
X86834Y137741D01*
X86839Y137933D01*
X87839D01*
X87844Y137741D01*
D02*
G37*
G36*
X117000Y129500D02*
X129925D01*
X129988Y129488D01*
X130000Y129425D01*
Y128265D01*
X130058Y127972D01*
X130118Y127882D01*
X130058Y127793D01*
X130000Y127500D01*
Y126568D01*
X130000Y126568D01*
X130000Y126568D01*
X129959Y126541D01*
X129794Y126293D01*
X129735Y126000D01*
Y121500D01*
X129735Y121500D01*
X129794Y121207D01*
X129959Y120959D01*
X129966Y120943D01*
X129986Y120913D01*
X130000Y120843D01*
Y120665D01*
X130022Y120555D01*
X130033Y120443D01*
X130051Y120410D01*
X130058Y120372D01*
X130121Y120279D01*
X130174Y120180D01*
X130203Y120156D01*
X130224Y120124D01*
X130282Y120085D01*
X130544Y119821D01*
X130588Y119644D01*
X130460Y119000D01*
X130575Y118425D01*
X130588Y118356D01*
X130953Y117810D01*
X131499Y117446D01*
X132143Y117318D01*
X132787Y117446D01*
X132959Y117561D01*
X135786D01*
Y118560D01*
D01*
D01*
X136000Y118735D01*
X140214D01*
Y115001D01*
X140214Y115001D01*
X140214D01*
X140214Y115000D01*
X140000Y114771D01*
Y114663D01*
X141166D01*
Y114735D01*
X141683D01*
X142235Y114183D01*
Y113500D01*
X142042Y113265D01*
X140765D01*
X140691Y113250D01*
X140615D01*
X140546Y113221D01*
X140472Y113207D01*
X140409Y113165D01*
X140340Y113136D01*
X140287Y113083D01*
X140224Y113041D01*
X140182Y112978D01*
X140129Y112925D01*
X140100Y112855D01*
X140058Y112793D01*
X140043Y112719D01*
X140015Y112649D01*
X140000Y112575D01*
D01*
X139986Y112506D01*
X139947Y112447D01*
D01*
X139947Y112447D01*
X139318Y111818D01*
D01*
D01*
X139259Y111778D01*
X139189Y111765D01*
X135731D01*
X135438Y111706D01*
X135190Y111541D01*
X134764Y111456D01*
D01*
X134592Y111489D01*
X134094Y111987D01*
X134031Y112029D01*
X133978Y112083D01*
X133919Y112122D01*
X133850Y112151D01*
X133846Y112153D01*
X133842Y112154D01*
X133721Y112204D01*
X133717Y112206D01*
X133713Y112207D01*
X133643Y112236D01*
X133574Y112250D01*
X133499D01*
X133425Y112265D01*
X129075D01*
X129001Y112250D01*
X128926Y112250D01*
X128860Y112237D01*
X128860Y112237D01*
X128860D01*
X128790Y112208D01*
X128783Y112206D01*
X128777Y112202D01*
X128737Y112186D01*
X128707Y112180D01*
X128682Y112163D01*
X128584Y112123D01*
X128584Y112123D01*
X128584Y112123D01*
X128509Y112047D01*
X128459Y112014D01*
X128426Y111965D01*
X128373Y111912D01*
X128373Y111912D01*
X128373Y111912D01*
X128364Y111898D01*
X128335Y111829D01*
X128294Y111766D01*
X128279Y111692D01*
X128250Y111623D01*
Y111547D01*
X128235Y111474D01*
Y111000D01*
X128179D01*
X127735Y110635D01*
X127657Y110651D01*
X127618Y110685D01*
X127302Y111000D01*
X124401Y113901D01*
X124392Y113908D01*
X124543Y114408D01*
X124597D01*
Y118675D01*
X124599Y118689D01*
X124597Y118702D01*
Y119451D01*
X124332D01*
X124237Y119929D01*
X124104Y120126D01*
Y124030D01*
X116896D01*
Y123254D01*
X116512Y123178D01*
X116099Y122901D01*
X115500Y122302D01*
X114599Y121401D01*
X114322Y120988D01*
X114225Y120500D01*
Y107000D01*
Y98500D01*
X114322Y98012D01*
X114599Y97599D01*
X117099Y95099D01*
X117512Y94823D01*
X118000Y94726D01*
X129735D01*
Y90500D01*
Y87781D01*
X129611Y86201D01*
X129735Y84621D01*
Y75000D01*
X129794Y74707D01*
X129959Y74459D01*
X130200Y74298D01*
X130207Y74294D01*
X130500Y74235D01*
X150000D01*
Y74160D01*
Y63000D01*
Y54081D01*
X139227Y43308D01*
X138765Y43499D01*
Y45356D01*
X138707Y45649D01*
X138541Y45897D01*
X138293Y46063D01*
X138000Y46121D01*
X136235D01*
Y51879D01*
X138000D01*
X138293Y51937D01*
X138541Y52103D01*
X138707Y52351D01*
X138765Y52644D01*
Y53735D01*
X145500D01*
X145500Y53735D01*
X145793Y53794D01*
X146041Y53959D01*
X147041Y54959D01*
X147206Y55207D01*
X147265Y55500D01*
Y59500D01*
X147206Y59793D01*
X147041Y60041D01*
X147029Y60048D01*
Y63000D01*
Y63604D01*
X146998D01*
X146680Y63991D01*
X146682Y64000D01*
X146554Y64644D01*
X146190Y65190D01*
X145644Y65554D01*
X145000Y65682D01*
X144356Y65554D01*
X143810Y65190D01*
X143446Y64644D01*
X143318Y64000D01*
X143319Y63991D01*
X143002Y63604D01*
X142971D01*
Y63000D01*
Y62950D01*
X142943Y62948D01*
X142173D01*
X142151Y62943D01*
X142082Y63000D01*
X141765D01*
Y63261D01*
Y65476D01*
X141762Y65488D01*
X141764Y65499D01*
X141733Y65634D01*
X141707Y65769D01*
X141700Y65779D01*
X141698Y65790D01*
X141618Y65902D01*
X141541Y66017D01*
X141531Y66023D01*
X141525Y66033D01*
X141158Y66378D01*
X141135Y66392D01*
X141119Y66413D01*
X141009Y66471D01*
X140905Y66537D01*
X140879Y66541D01*
X140855Y66554D01*
X140733Y66566D01*
X140611Y66586D01*
X140585Y66580D01*
X140558Y66583D01*
X140466Y66574D01*
X140358Y66541D01*
X140248Y66519D01*
X140217Y66498D01*
X140180Y66487D01*
X140094Y66416D01*
X140000Y66354D01*
X139700Y66053D01*
X139641Y66014D01*
X139571Y66000D01*
X133265D01*
X132972Y65942D01*
X132882Y65882D01*
X132793Y65942D01*
X132500Y66000D01*
X130225D01*
D01*
X130225D01*
X130225Y66000D01*
X130225Y66000D01*
D01*
X130144Y66054D01*
X129649Y66153D01*
D01*
X129649D01*
X129500Y66182D01*
X129351Y66153D01*
X129351D01*
X128856Y66054D01*
X128775Y66000D01*
X128775Y66000D01*
X128225D01*
X128225Y66000D01*
X128225Y66000D01*
X128144Y66054D01*
X127500Y66182D01*
X127351Y66153D01*
X127351D01*
X126856Y66054D01*
X126775Y66000D01*
X126775Y66000D01*
X125546D01*
X125509Y65993D01*
X125471Y65996D01*
X125363Y65964D01*
X125253Y65942D01*
X125222Y65921D01*
X125185Y65910D01*
X125159Y65888D01*
X124906Y65781D01*
X124524Y65800D01*
X124144Y66054D01*
X123500Y66182D01*
X122856Y66054D01*
X122476Y65800D01*
X122094Y65781D01*
X121841Y65888D01*
X121815Y65910D01*
X121778Y65921D01*
X121747Y65942D01*
X121637Y65964D01*
X121529Y65996D01*
X121491Y65993D01*
X121454Y66000D01*
X117075D01*
X117013Y66013D01*
X117000Y66075D01*
Y81735D01*
X116942Y82028D01*
X116776Y82276D01*
X116528Y82442D01*
X116235Y82500D01*
X108466D01*
X108455Y82503D01*
X108419Y82507D01*
X108393Y82533D01*
X108383Y82539D01*
X108037Y82961D01*
X108033Y82972D01*
X108013Y83002D01*
X108016Y83038D01*
X108015Y83050D01*
X108069Y83322D01*
X108258Y86201D01*
X108069Y89080D01*
X107506Y91910D01*
X106595Y94594D01*
X106595Y94594D01*
X106579Y94642D01*
X106000Y95815D01*
Y103482D01*
X106719D01*
Y107000D01*
Y109904D01*
X106000D01*
Y115096D01*
X106719D01*
Y121518D01*
X102086D01*
X102079Y121520D01*
X102066Y121518D01*
X102057D01*
X102043Y121520D01*
X102030Y121518D01*
X101281D01*
Y121227D01*
X98856Y121081D01*
X97562D01*
X97545Y121086D01*
X97452Y121134D01*
X97173Y121410D01*
X97124Y121471D01*
X97118Y121580D01*
X97121Y121594D01*
X97117Y121614D01*
X97117Y121727D01*
X97109Y121747D01*
X97108Y121769D01*
X97071Y121844D01*
X97063Y121887D01*
X97043Y121936D01*
X97021Y121968D01*
X97015Y122000D01*
X97000D01*
Y122075D01*
Y128962D01*
Y128962D01*
X96942Y129255D01*
X96776Y129503D01*
X96505Y129774D01*
X96522Y129944D01*
X96668Y130280D01*
X97000Y130291D01*
Y130500D01*
X103382D01*
X110302Y130727D01*
X110305Y130721D01*
X110978Y130749D01*
X117000D01*
Y129500D01*
D02*
G37*
G36*
X143845Y127334D02*
X144138Y127138D01*
X144180Y127075D01*
X144234Y127022D01*
X144275Y126959D01*
X144338Y126917D01*
X144391Y126864D01*
X144461Y126835D01*
X144524Y126794D01*
X144597Y126779D01*
X144667Y126750D01*
X144742D01*
X144816Y126735D01*
X147183D01*
X147235Y126683D01*
Y124682D01*
X147250Y124608D01*
Y124533D01*
X147266Y124494D01*
X146810Y124190D01*
X146446Y123644D01*
X146318Y123000D01*
X146319Y122991D01*
X146002Y122604D01*
X145970D01*
Y121950D01*
X145947Y121948D01*
X145173D01*
X144685Y121851D01*
X144272Y121574D01*
X143137Y120439D01*
X142915D01*
X142902Y120442D01*
X142888Y120439D01*
X140214D01*
Y119500D01*
X136000D01*
X135786Y119964D01*
Y120139D01*
X135791Y120146D01*
X135849Y120439D01*
Y122324D01*
X140000D01*
X140293Y122382D01*
X140541Y122548D01*
X140707Y122796D01*
X140765Y123089D01*
Y123775D01*
X140750Y123849D01*
Y123924D01*
X140721Y123994D01*
X140707Y124068D01*
X140674Y124117D01*
X140597Y124500D01*
X140674Y124883D01*
X140707Y124932D01*
X140721Y125006D01*
X140750Y125076D01*
Y125151D01*
X140765Y125225D01*
Y125775D01*
X140750Y125849D01*
Y125924D01*
X140721Y125994D01*
X140707Y126068D01*
X140674Y126117D01*
X140597Y126500D01*
X140667Y126851D01*
Y126976D01*
X140672Y127056D01*
X140696Y127065D01*
X140824Y127113D01*
X140833Y127122D01*
X140845Y127127D01*
X141155Y127334D01*
X141500Y127403D01*
X141845Y127334D01*
X142075Y127181D01*
X142351Y127066D01*
X142649D01*
X142925Y127180D01*
X143155Y127334D01*
X143500Y127403D01*
X143845Y127334D01*
D02*
G37*
G36*
X148505Y122650D02*
X148520Y122478D01*
X148540Y122357D01*
X148630D01*
X148605Y122328D01*
X148583Y122291D01*
X148565Y122250D01*
X148580Y122195D01*
X148625Y122083D01*
X148680Y121992D01*
X148745Y121921D01*
X148820Y121871D01*
X148905Y121841D01*
X149000Y121830D01*
X148502D01*
X148501Y121811D01*
X148500Y121712D01*
X147500D01*
X147499Y121811D01*
X147497Y121830D01*
X147000D01*
X147095Y121841D01*
X147180Y121871D01*
X147255Y121921D01*
X147320Y121992D01*
X147375Y122083D01*
X147420Y122195D01*
X147435Y122250D01*
X147417Y122291D01*
X147395Y122328D01*
X147370Y122357D01*
X147460D01*
X147480Y122478D01*
X147495Y122650D01*
X147500Y122842D01*
X148500D01*
X148505Y122650D01*
D02*
G37*
G36*
X117670Y121000D02*
X117663Y121095D01*
X117643Y121180D01*
X117609Y121255D01*
X117562Y121320D01*
X117502Y121375D01*
X117429Y121420D01*
X117341Y121455D01*
X117241Y121480D01*
X117127Y121495D01*
X117000Y121500D01*
Y122500D01*
X117127Y122505D01*
X117241Y122520D01*
X117341Y122545D01*
X117429Y122580D01*
X117502Y122625D01*
X117562Y122680D01*
X117609Y122745D01*
X117643Y122820D01*
X117663Y122905D01*
X117670Y123000D01*
Y121000D01*
D02*
G37*
G36*
X82777Y132578D02*
X82804Y132493D01*
X82849Y132418D01*
X82912Y132353D01*
X82994Y132298D01*
X83094Y132253D01*
X83211Y132218D01*
X83347Y132193D01*
X83501Y132178D01*
X83673Y132173D01*
Y131173D01*
X83501Y131168D01*
X83347Y131153D01*
X83211Y131128D01*
X83094Y131093D01*
X82994Y131048D01*
X82912Y130993D01*
X82849Y130928D01*
X82804Y130853D01*
X82777Y130768D01*
X82767Y130673D01*
Y132673D01*
X82777Y132578D01*
D02*
G37*
G36*
X80244Y130673D02*
X80234Y130768D01*
X80204Y130853D01*
X80153Y130928D01*
X80082Y130993D01*
X79992Y131048D01*
X79880Y131093D01*
X79749Y131128D01*
X79597Y131153D01*
X79425Y131168D01*
X79233Y131173D01*
Y132173D01*
X79425Y132178D01*
X79597Y132193D01*
X79749Y132218D01*
X79880Y132253D01*
X79992Y132298D01*
X80082Y132353D01*
X80153Y132418D01*
X80204Y132493D01*
X80234Y132578D01*
X80244Y132673D01*
Y130673D01*
D02*
G37*
G36*
X76777Y132578D02*
X76807Y132493D01*
X76858Y132418D01*
X76928Y132353D01*
X77017Y132298D01*
X77127Y132253D01*
X77258Y132218D01*
X77407Y132193D01*
X77578Y132178D01*
X77767Y132173D01*
Y131173D01*
X77578Y131168D01*
X77407Y131153D01*
X77258Y131128D01*
X77127Y131093D01*
X77017Y131048D01*
X76928Y130993D01*
X76858Y130928D01*
X76807Y130853D01*
X76777Y130768D01*
X76767Y130673D01*
Y132673D01*
X76777Y132578D01*
D02*
G37*
G36*
X118664Y115159D02*
X118617Y115129D01*
X118576Y115079D01*
X118540Y115009D01*
X118510Y114919D01*
X118485Y114810D01*
X118466Y114680D01*
X118452Y114530D01*
X118441Y114170D01*
X117441D01*
X117438Y114359D01*
X117416Y114680D01*
X117397Y114810D01*
X117372Y114919D01*
X117342Y115009D01*
X117306Y115079D01*
X117265Y115129D01*
X117218Y115159D01*
X117166Y115170D01*
X118716D01*
X118664Y115159D01*
D02*
G37*
G36*
X40662Y106000D02*
X40652Y106095D01*
X40621Y106180D01*
X40571Y106255D01*
X40500Y106320D01*
X40409Y106375D01*
X40297Y106420D01*
X40166Y106455D01*
X40014Y106480D01*
X39842Y106495D01*
X39650Y106500D01*
Y107500D01*
X39842Y107505D01*
X40014Y107520D01*
X40166Y107545D01*
X40297Y107580D01*
X40409Y107625D01*
X40500Y107680D01*
X40571Y107745D01*
X40621Y107820D01*
X40652Y107905D01*
X40662Y108000D01*
Y106000D01*
D02*
G37*
G36*
X35405Y106659D02*
X35320Y106629D01*
X35245Y106579D01*
X35180Y106508D01*
X35125Y106417D01*
X35080Y106305D01*
X35045Y106174D01*
X35020Y106022D01*
X35005Y105850D01*
X35000Y105658D01*
X34000D01*
X33995Y105850D01*
X33980Y106022D01*
X33955Y106174D01*
X33920Y106305D01*
X33875Y106417D01*
X33820Y106508D01*
X33755Y106579D01*
X33680Y106629D01*
X33595Y106659D01*
X33500Y106670D01*
X35500D01*
X35405Y106659D01*
D02*
G37*
G36*
X149277Y107078D02*
X149308Y106993D01*
X149357Y106918D01*
X149427Y106853D01*
X149518Y106798D01*
X149627Y106753D01*
X149758Y106718D01*
X149897Y106695D01*
X149959Y106706D01*
X150020Y106720D01*
X150072Y106737D01*
X150117Y106756D01*
X150155Y106779D01*
X150184Y106803D01*
Y106675D01*
X150268Y106673D01*
Y105673D01*
X150184Y105671D01*
Y105543D01*
X150155Y105568D01*
X150117Y105590D01*
X150072Y105610D01*
X150020Y105626D01*
X149959Y105641D01*
X149897Y105651D01*
X149758Y105628D01*
X149627Y105593D01*
X149518Y105548D01*
X149427Y105493D01*
X149357Y105428D01*
X149308Y105353D01*
X149277Y105268D01*
X149267Y105173D01*
Y107173D01*
X149277Y107078D01*
D02*
G37*
G36*
X123833Y108976D02*
X123863Y108891D01*
X123914Y108816D01*
X123984Y108751D01*
X124075Y108696D01*
X124187Y108651D01*
X124318Y108616D01*
X124470Y108591D01*
X124642Y108576D01*
X124834Y108571D01*
Y107571D01*
X124642Y107566D01*
X124470Y107551D01*
X124318Y107526D01*
X124187Y107491D01*
X124075Y107446D01*
X123984Y107391D01*
X123914Y107326D01*
X123863Y107251D01*
X123833Y107166D01*
X123822Y107071D01*
Y109071D01*
X123833Y108976D01*
D02*
G37*
G36*
X133494Y111486D02*
X133553Y111447D01*
X134947Y110053D01*
X134986Y109994D01*
X135000Y109925D01*
X135000Y109925D01*
X135000Y109925D01*
Y108749D01*
X134561D01*
Y107060D01*
X134061D01*
Y106560D01*
X132086D01*
Y106500D01*
X129000D01*
Y108275D01*
X129054Y108356D01*
X129182Y109000D01*
X129054Y109644D01*
X129000Y109725D01*
Y111474D01*
X129009Y111487D01*
X129075Y111500D01*
X133425D01*
X133494Y111486D01*
D02*
G37*
G36*
X121223Y106308D02*
X121176Y106299D01*
X121135Y106283D01*
X121099Y106261D01*
X121069Y106233D01*
X121044Y106199D01*
X121025Y106159D01*
X121011Y106112D01*
X121003Y106059D01*
X121000Y106000D01*
X120000D01*
X119997Y106059D01*
X119989Y106112D01*
X119975Y106159D01*
X119956Y106199D01*
X119931Y106233D01*
X119901Y106261D01*
X119865Y106283D01*
X119824Y106299D01*
X119777Y106308D01*
X119725Y106311D01*
X121275D01*
X121223Y106308D01*
D02*
G37*
G36*
X146745Y105173D02*
X146734Y105268D01*
X146704Y105353D01*
X146653Y105428D01*
X146582Y105493D01*
X146492Y105548D01*
X146380Y105593D01*
X146249Y105628D01*
X146097Y105653D01*
X145925Y105668D01*
X145732Y105673D01*
Y106673D01*
X145925Y106678D01*
X146097Y106693D01*
X146249Y106718D01*
X146380Y106753D01*
X146492Y106798D01*
X146582Y106853D01*
X146653Y106918D01*
X146704Y106993D01*
X146734Y107078D01*
X146745Y107173D01*
Y105173D01*
D02*
G37*
G36*
X128357Y103870D02*
X128328Y103895D01*
X128291Y103917D01*
X128246Y103936D01*
X128193Y103953D01*
X128132Y103967D01*
X128064Y103979D01*
X127903Y103995D01*
X127811Y103999D01*
X127712Y104000D01*
Y105000D01*
X127811Y105001D01*
X128064Y105021D01*
X128132Y105033D01*
X128193Y105047D01*
X128246Y105064D01*
X128291Y105083D01*
X128328Y105105D01*
X128357Y105130D01*
Y103870D01*
D02*
G37*
G36*
X142912Y105143D02*
X142942Y105113D01*
X142992Y105087D01*
X143062Y105064D01*
X143152Y105044D01*
X143262Y105028D01*
X143542Y105007D01*
X143902Y105000D01*
Y104000D01*
X143712Y103998D01*
X143152Y103956D01*
X143062Y103936D01*
X142992Y103913D01*
X142942Y103887D01*
X142912Y103857D01*
X142902Y103823D01*
Y105177D01*
X142912Y105143D01*
D02*
G37*
G36*
X133098Y103823D02*
X133088Y103857D01*
X133058Y103887D01*
X133008Y103913D01*
X132938Y103936D01*
X132848Y103956D01*
X132738Y103972D01*
X132458Y103993D01*
X132098Y104000D01*
Y105000D01*
X132288Y105002D01*
X132848Y105044D01*
X132938Y105064D01*
X133008Y105087D01*
X133058Y105113D01*
X133088Y105143D01*
X133098Y105177D01*
Y103823D01*
D02*
G37*
G36*
X150000Y98500D02*
X141000D01*
Y103061D01*
X143664D01*
Y103226D01*
X144000D01*
X144488Y103323D01*
X144901Y103599D01*
X145492Y104190D01*
X145970Y104242D01*
X145970Y104242D01*
X145970Y104242D01*
X150000D01*
Y98500D01*
D02*
G37*
G36*
X105731Y109069D02*
X105954Y108929D01*
Y104238D01*
X105707Y104189D01*
X105459Y104023D01*
X105294Y103775D01*
X105235Y103482D01*
Y95815D01*
X105240Y95791D01*
X105237Y95766D01*
X105269Y95645D01*
X105294Y95523D01*
X105308Y95502D01*
X105314Y95477D01*
X105871Y94348D01*
X106766Y91711D01*
X107006Y90505D01*
X107309Y88980D01*
X107492Y86201D01*
X107309Y83422D01*
X107255Y83149D01*
Y83111D01*
X107244Y83075D01*
X107255Y82963D01*
Y82851D01*
X107270Y82816D01*
X107273Y82778D01*
X107326Y82679D01*
X107369Y82575D01*
X107396Y82548D01*
X107414Y82515D01*
X107824Y82015D01*
X107854Y81991D01*
X107875Y81959D01*
X107968Y81897D01*
X108055Y81826D01*
X108091Y81815D01*
X108123Y81793D01*
X108233Y81772D01*
X108341Y81739D01*
X108378Y81743D01*
X108415Y81735D01*
X116235D01*
Y66000D01*
X116294Y65707D01*
X116459Y65459D01*
X116707Y65294D01*
X117000Y65235D01*
X121454D01*
X121864Y64735D01*
X121849Y64657D01*
X121815Y64618D01*
X120099Y62901D01*
X119823Y62488D01*
X119726Y62000D01*
Y59028D01*
X119413Y58715D01*
X118093D01*
Y58978D01*
X117344D01*
X117331Y58981D01*
X117317Y58978D01*
X113855D01*
X113848Y58980D01*
X113836Y58978D01*
X113825D01*
X113824Y58978D01*
X113574Y59228D01*
X113161Y59504D01*
X112779Y59580D01*
Y60280D01*
X112799Y60772D01*
X113279Y60772D01*
X115071D01*
Y62559D01*
Y64346D01*
X112799D01*
Y64346D01*
X112779Y63854D01*
X112299Y63854D01*
X111000D01*
Y61673D01*
X110500D01*
Y61173D01*
X108221D01*
Y59492D01*
X108470D01*
Y56396D01*
X112530D01*
X112530Y56396D01*
Y56396D01*
X112530Y56396D01*
X112996Y56314D01*
X113049Y56278D01*
Y55904D01*
X113798D01*
X113811Y55901D01*
X113825Y55904D01*
X113836D01*
X113848Y55902D01*
X113855Y55904D01*
X117317D01*
X117331Y55901D01*
X117344Y55904D01*
X118093D01*
Y56166D01*
X119941D01*
X120429Y56264D01*
X120842Y56540D01*
X121901Y57599D01*
X122376Y57454D01*
X122500Y57362D01*
Y40157D01*
X122488Y40098D01*
X122488Y40098D01*
X122486Y40087D01*
X122456Y40043D01*
X122413Y40014D01*
X122412Y40013D01*
X122410Y40012D01*
X122342Y39998D01*
X119703Y39969D01*
X119636Y39982D01*
X119578Y40020D01*
X119327Y40268D01*
X119288Y40325D01*
X119274Y40393D01*
Y42000D01*
X119177Y42488D01*
X118901Y42901D01*
X117901Y43901D01*
X117488Y44177D01*
X117000Y44275D01*
X102528D01*
X99901Y46901D01*
X99488Y47177D01*
X99000Y47275D01*
X75503D01*
X74139Y48639D01*
X65000Y57777D01*
X64804Y57973D01*
X64772Y58144D01*
X64775Y58438D01*
X64866Y58619D01*
X64868Y58621D01*
X64898Y58693D01*
X64942Y58758D01*
X64956Y58829D01*
X64984Y58895D01*
X64985Y58974D01*
X65000Y59051D01*
Y77871D01*
Y80589D01*
X65007Y80625D01*
Y80660D01*
X65038Y80676D01*
X65066Y80699D01*
X65101Y80714D01*
X65121Y80727D01*
X65145Y80737D01*
X65145Y80737D01*
X65145Y80737D01*
X65250Y80843D01*
X65356Y80948D01*
X65356Y80948D01*
X65356Y80948D01*
X65414Y81088D01*
X65470Y81224D01*
Y81224D01*
X65470Y81224D01*
Y81403D01*
X65470Y81522D01*
X65470Y81522D01*
Y81522D01*
X65092Y83422D01*
X64910Y86201D01*
X65092Y88980D01*
X65636Y91711D01*
X66531Y94348D01*
X67763Y96846D01*
X69310Y99162D01*
X71146Y101256D01*
X73240Y103092D01*
X75555Y104639D01*
X78053Y105871D01*
X80690Y106766D01*
X83422Y107309D01*
X86201Y107492D01*
X88980Y107309D01*
X90404Y107026D01*
X91711Y106766D01*
X94348Y105871D01*
X95114Y105493D01*
X96846Y104639D01*
X97416Y104259D01*
X97519Y104216D01*
X97619Y104163D01*
X97656Y104159D01*
X97691Y104144D01*
X97804D01*
X97916Y104133D01*
X97952Y104144D01*
X97990D01*
X98093Y104187D01*
X98201Y104220D01*
X98642Y104456D01*
X98729Y104527D01*
X98753Y104543D01*
Y104553D01*
X98815Y104594D01*
X98836Y104625D01*
X98865Y104649D01*
X98918Y104748D01*
X98981Y104842D01*
X98988Y104879D01*
X99006Y104912D01*
X99014Y104996D01*
X99024Y105020D01*
X99032Y105056D01*
Y105097D01*
X99039Y105134D01*
Y105169D01*
X99046Y105205D01*
Y109063D01*
Y109139D01*
X105235D01*
X105469Y109185D01*
X105731Y109069D01*
D02*
G37*
G36*
X129672Y105105D02*
X129709Y105083D01*
X129754Y105064D01*
X129807Y105047D01*
X129868Y105033D01*
X129936Y105021D01*
X130097Y105005D01*
X130189Y105001D01*
X130288Y105000D01*
Y104000D01*
X130189Y103999D01*
X129936Y103979D01*
X129868Y103967D01*
X129807Y103953D01*
X129754Y103936D01*
X129709Y103917D01*
X129672Y103895D01*
X129643Y103870D01*
Y105130D01*
X129672Y105105D01*
D02*
G37*
G36*
X16172Y111605D02*
X16209Y111583D01*
X16254Y111564D01*
X16307Y111547D01*
X16368Y111532D01*
X16436Y111521D01*
X16597Y111505D01*
X16689Y111501D01*
X16788Y111500D01*
Y110500D01*
X16689Y110499D01*
X16436Y110479D01*
X16368Y110468D01*
X16307Y110453D01*
X16254Y110436D01*
X16209Y110417D01*
X16172Y110395D01*
X16143Y110370D01*
Y111630D01*
X16172Y111605D01*
D02*
G37*
G36*
X17811Y110225D02*
X17801Y110277D01*
X17771Y110324D01*
X17721Y110365D01*
X17651Y110401D01*
X17561Y110431D01*
X17451Y110456D01*
X17321Y110475D01*
X17171Y110489D01*
X16811Y110500D01*
Y111500D01*
X17001Y111503D01*
X17321Y111525D01*
X17451Y111544D01*
X17561Y111569D01*
X17651Y111599D01*
X17721Y111635D01*
X17771Y111676D01*
X17801Y111723D01*
X17811Y111775D01*
Y110225D01*
D02*
G37*
G36*
X117453Y112573D02*
X117941Y112476D01*
X119197D01*
X119574Y112099D01*
X119987Y111822D01*
X120475Y111725D01*
X122972D01*
X123198Y111500D01*
X123643Y111055D01*
X123452Y110592D01*
X119728D01*
Y110843D01*
X118441D01*
Y108071D01*
Y105299D01*
X118507D01*
X118896Y105029D01*
Y100970D01*
X121992D01*
Y100721D01*
X123673D01*
Y103000D01*
X124673D01*
Y100721D01*
X126354D01*
Y103161D01*
X126854Y103428D01*
X127012Y103323D01*
X127500Y103226D01*
X127913D01*
X127942Y103223D01*
X128356Y102946D01*
X129000Y102818D01*
X129269Y102871D01*
X129348Y102848D01*
X129358Y102845D01*
D01*
D01*
X129403Y102818D01*
D01*
X129735Y102454D01*
Y97275D01*
X118528D01*
X116774Y99028D01*
Y105299D01*
X117441D01*
Y108071D01*
Y110843D01*
X116774D01*
Y111500D01*
Y112425D01*
X117274Y112692D01*
X117453Y112573D01*
D02*
G37*
G36*
X149500Y113500D02*
X143000D01*
Y114500D01*
X142000Y115500D01*
X141000D01*
Y117500D01*
X143500D01*
X143561Y117561D01*
X143664D01*
Y117664D01*
X143781Y117781D01*
X143988Y117823D01*
X144401Y118099D01*
X144802Y118500D01*
X149500D01*
Y113500D01*
D02*
G37*
G36*
X30199Y114282D02*
X30229Y114235D01*
X30279Y114194D01*
X30349Y114158D01*
X30439Y114128D01*
X30549Y114103D01*
X30679Y114084D01*
X30829Y114070D01*
X31189Y114059D01*
Y113059D01*
X30999Y113056D01*
X30679Y113034D01*
X30549Y113015D01*
X30439Y112990D01*
X30349Y112960D01*
X30279Y112924D01*
X30229Y112883D01*
X30199Y112836D01*
X30189Y112784D01*
Y114334D01*
X30199Y114282D01*
D02*
G37*
G36*
X49036Y109727D02*
X49051Y109557D01*
X49077Y109407D01*
X49112Y109277D01*
X49156Y109167D01*
X49211Y109077D01*
X49277Y109007D01*
X49352Y108957D01*
X49437Y108927D01*
X49531Y108917D01*
X47532D01*
X47627Y108927D01*
X47712Y108957D01*
X47787Y109007D01*
X47851Y109077D01*
X47907Y109167D01*
X47951Y109277D01*
X47987Y109407D01*
X48011Y109557D01*
X48026Y109727D01*
X48031Y109917D01*
X49031D01*
X49036Y109727D01*
D02*
G37*
G36*
X26669Y107666D02*
X26660Y107718D01*
X26629Y107765D01*
X26579Y107806D01*
X26509Y107842D01*
X26419Y107872D01*
X26309Y107897D01*
X26180Y107916D01*
X26030Y107930D01*
X25670Y107941D01*
Y108941D01*
X25859Y108944D01*
X26180Y108966D01*
X26309Y108985D01*
X26419Y109010D01*
X26509Y109040D01*
X26579Y109076D01*
X26629Y109117D01*
X26660Y109164D01*
X26669Y109216D01*
Y107666D01*
D02*
G37*
G36*
X35761Y112078D02*
X35778Y111993D01*
X35807Y111918D01*
X35847Y111853D01*
X35898Y111798D01*
X35961Y111753D01*
X36035Y111718D01*
X36121Y111693D01*
X36218Y111678D01*
X36327Y111673D01*
Y110673D01*
X36218Y110668D01*
X36121Y110653D01*
X36035Y110628D01*
X35961Y110593D01*
X35898Y110548D01*
X35847Y110493D01*
X35807Y110428D01*
X35778Y110353D01*
X35761Y110268D01*
X35756Y110173D01*
Y112173D01*
X35761Y112078D01*
D02*
G37*
G36*
X127014Y110195D02*
X127206Y110030D01*
X127263Y109990D01*
X127316Y109957D01*
X127365Y109932D01*
X127411Y109914D01*
X127453Y109903D01*
X127491Y109900D01*
X126600Y109009D01*
X126597Y109047D01*
X126586Y109089D01*
X126568Y109135D01*
X126543Y109184D01*
X126510Y109237D01*
X126470Y109294D01*
X126367Y109418D01*
X126305Y109486D01*
X126235Y109557D01*
X126943Y110265D01*
X127014Y110195D01*
D02*
G37*
%LPC*%
G36*
X80500Y22327D02*
X78720D01*
Y20646D01*
X80500D01*
Y22327D01*
D02*
G37*
G36*
X77780D02*
X76000D01*
Y20646D01*
X77780D01*
Y22327D01*
D02*
G37*
G36*
X118342Y62059D02*
X118331D01*
Y62000D01*
X118140Y61998D01*
X117857Y61977D01*
Y61870D01*
X117828Y61895D01*
X117791Y61917D01*
X117746Y61936D01*
X117693Y61953D01*
X117662Y61960D01*
X117580Y61946D01*
X117490Y61922D01*
X117420Y61894D01*
X117370Y61861D01*
X117341Y61825D01*
X117331Y61784D01*
Y61998D01*
X117311Y61999D01*
X117212Y62000D01*
Y62059D01*
X116071D01*
Y60772D01*
X118342D01*
Y62059D01*
D02*
G37*
G36*
X83280Y22327D02*
X81500D01*
Y20646D01*
X83280D01*
Y22327D01*
D02*
G37*
G36*
X118342Y64346D02*
X116071D01*
Y63059D01*
X117331D01*
Y63335D01*
X117341Y63271D01*
X117370Y63214D01*
X117420Y63164D01*
X117490Y63120D01*
X117580Y63084D01*
X117670Y63059D01*
X117731D01*
X117746Y63064D01*
X117791Y63083D01*
X117828Y63105D01*
X117857Y63130D01*
Y63059D01*
X118342D01*
Y64346D01*
D02*
G37*
G36*
X133561Y108749D02*
X132086D01*
Y107560D01*
X133561D01*
Y108749D01*
D02*
G37*
G36*
X110000Y63854D02*
X108221D01*
Y62173D01*
X110000D01*
Y63854D01*
D02*
G37*
%LPD*%
D10*
X48531Y99500D02*
D03*
X42469D02*
D03*
X42469Y107000D02*
D03*
X48531D02*
D03*
X42469Y114500D02*
D03*
X48531D02*
D03*
X99532Y124500D02*
D03*
X93468D02*
D03*
X31032Y90000D02*
D03*
X24969D02*
D03*
X93532Y25000D02*
D03*
X87468D02*
D03*
X31032Y82500D02*
D03*
X24969D02*
D03*
D11*
X34500Y102173D02*
D03*
Y98827D02*
D03*
Y111173D02*
D03*
Y107827D02*
D03*
X148000Y120673D02*
D03*
Y117327D02*
D03*
Y106173D02*
D03*
Y102827D02*
D03*
X81500Y131673D02*
D03*
Y128327D02*
D03*
X75500Y131673D02*
D03*
Y128327D02*
D03*
X100500Y139173D02*
D03*
Y135827D02*
D03*
X110500Y61673D02*
D03*
Y58327D02*
D03*
X75500Y26173D02*
D03*
Y22827D02*
D03*
X81000Y26173D02*
D03*
Y22827D02*
D03*
X75500Y36827D02*
D03*
Y40173D02*
D03*
X94000Y36827D02*
D03*
Y40173D02*
D03*
X145000Y58327D02*
D03*
Y61673D02*
D03*
D12*
X28429Y97941D02*
D03*
Y103059D02*
D03*
X19571Y100500D02*
D03*
X28429Y108441D02*
D03*
Y113559D02*
D03*
X19571Y111000D02*
D03*
X124429Y60000D02*
D03*
X115571Y57441D02*
D03*
Y62559D02*
D03*
D13*
X34673Y117500D02*
D03*
X31327D02*
D03*
X120827Y103000D02*
D03*
X124173D02*
D03*
X122173Y122000D02*
D03*
X118827D02*
D03*
X78673Y137500D02*
D03*
X75327D02*
D03*
D14*
X86807Y114500D02*
D03*
X75193D02*
D03*
Y122000D02*
D03*
X86807D02*
D03*
D15*
X104000Y106693D02*
D03*
Y118307D02*
D03*
D16*
X117941Y116929D02*
D03*
X120500D02*
D03*
X123059D02*
D03*
Y108071D02*
D03*
X120500D02*
D03*
X117941D02*
D03*
D17*
X141939Y116440D02*
D03*
Y119000D02*
D03*
Y121560D02*
D03*
X134061D02*
D03*
Y119000D02*
D03*
Y116440D02*
D03*
Y107060D02*
D03*
Y104500D02*
D03*
Y101940D02*
D03*
X141939D02*
D03*
Y104500D02*
D03*
Y107060D02*
D03*
X138939Y57440D02*
D03*
Y60000D02*
D03*
Y62560D02*
D03*
X131061D02*
D03*
Y60000D02*
D03*
Y57440D02*
D03*
D18*
X138000Y120961D02*
D03*
X138001Y117041D02*
D03*
X138000Y102539D02*
D03*
X137999Y106459D02*
D03*
X135000Y61961D02*
D03*
X135001Y58041D02*
D03*
D19*
X94004Y144000D02*
D03*
X86996D02*
D03*
X131496Y49000D02*
D03*
X138504D02*
D03*
D20*
X94661Y130547D02*
D03*
Y132516D02*
D03*
Y134484D02*
D03*
Y136453D02*
D03*
X87339Y130547D02*
D03*
Y132516D02*
D03*
Y134484D02*
D03*
Y136453D02*
D03*
X89161Y32047D02*
D03*
Y34016D02*
D03*
Y35984D02*
D03*
Y37953D02*
D03*
X81839Y32047D02*
D03*
Y34016D02*
D03*
Y35984D02*
D03*
Y37953D02*
D03*
D21*
X91000Y133500D02*
D03*
X85500Y35000D02*
D03*
D22*
X124000Y128469D02*
D03*
Y134531D02*
D03*
X118000Y30468D02*
D03*
Y36531D02*
D03*
D23*
X112000Y128835D02*
D03*
Y138165D02*
D03*
X105500Y29835D02*
D03*
Y39165D02*
D03*
D24*
X111000Y118500D02*
D03*
X154500Y97500D02*
D03*
X126500Y42000D02*
D03*
D25*
X48278Y39405D02*
X59183D01*
Y21183D02*
Y39405D01*
D26*
X77299Y86201D02*
X86201D01*
X64000Y99500D02*
X77299Y86201D01*
X48531Y99500D02*
X64000D01*
X19571Y96429D02*
Y100500D01*
Y96429D02*
X21500Y94500D01*
X57500D01*
X15500Y111000D02*
X19571D01*
X148000Y120673D02*
Y123000D01*
X57500Y94500D02*
X60000Y92000D01*
Y66500D02*
Y92000D01*
X42469Y114500D02*
Y116766D01*
X41734Y117500D02*
X42469Y116766D01*
X34673Y117500D02*
X41734D01*
X24500Y115500D02*
X26500Y117500D01*
X31327D01*
X24500Y109500D02*
Y115500D01*
Y109500D02*
X25559Y108441D01*
X28429D01*
X38500Y107000D02*
X42469D01*
X37500Y108000D02*
X38500Y107000D01*
X37500Y108000D02*
Y110000D01*
X36327Y111173D02*
X37500Y110000D01*
X34500Y111173D02*
X36327D01*
X48531Y107000D02*
Y109968D01*
X47500Y111000D02*
X48531Y109968D01*
X39500Y111000D02*
X47500D01*
X36500Y114000D02*
X39500Y111000D01*
X32000Y114000D02*
X36500D01*
X31559Y113559D02*
X32000Y114000D01*
X28429Y113559D02*
X31559D01*
X25500Y100500D02*
X27500D01*
X25000Y101000D02*
X25500Y100500D01*
X25000Y101000D02*
Y104500D01*
X27500Y100500D02*
X28500Y99500D01*
X28429Y97941D02*
X28500Y98012D01*
Y99500D01*
X25000Y104500D02*
X26000Y105500D01*
X34500D01*
X34500Y105500D01*
Y107827D01*
X28429Y103059D02*
X30941D01*
X31827Y102173D01*
X34500D01*
X37827Y98827D02*
X38500Y99500D01*
X34500Y98827D02*
X37827D01*
X38500Y99500D02*
X42469D01*
X117000Y122000D02*
X118827D01*
X115500Y120500D02*
X117000Y122000D01*
X115500Y98500D02*
Y120500D01*
Y98500D02*
X118000Y96000D01*
X120475Y113000D02*
X123500D01*
X127500Y109000D01*
X124929Y108071D02*
X127000Y106000D01*
X123059Y108071D02*
X124929D01*
X132143Y119000D02*
X134061D01*
X127000Y105000D02*
Y106000D01*
Y105000D02*
X127500Y104500D01*
X124173Y102750D02*
X126750D01*
X128000Y99500D02*
Y101500D01*
X126750Y102750D02*
X128000Y101500D01*
X124173Y102750D02*
Y103000D01*
X120500Y106000D02*
X120827Y105673D01*
Y103000D02*
Y105673D01*
X118000Y96000D02*
X132000D01*
X141939Y119000D02*
X143500D01*
X145173Y120673D01*
X148000D01*
X148000Y120673D01*
X148000Y106173D02*
X150827D01*
X145673D02*
X148000D01*
X144000Y104500D02*
X145673Y106173D01*
X141939Y104500D02*
X144000D01*
X118827Y120370D02*
Y122000D01*
X123059Y116929D02*
Y119441D01*
X122173Y120327D02*
Y122000D01*
Y120327D02*
X123059Y119441D01*
X127500Y104500D02*
X129000D01*
X134061D01*
X120500Y106000D02*
Y108071D01*
X118827Y120370D02*
X120500Y118697D01*
Y116929D02*
Y118697D01*
X88173Y139173D02*
X100500D01*
X87339Y138339D02*
X88173Y139173D01*
X87339Y136453D02*
Y138339D01*
X94661Y130547D02*
X96453D01*
X97500Y129500D01*
X84516Y132516D02*
X87339D01*
X75500Y131673D02*
X81500D01*
X83673D01*
X84516Y132516D01*
X85016Y134484D02*
X87339D01*
X78673Y137500D02*
X82000D01*
X85016Y134484D01*
X72500Y137500D02*
X75327D01*
X119725Y113750D02*
X120475Y113000D01*
X117941Y113750D02*
X119725D01*
X117941D02*
Y116929D01*
X127500Y58500D02*
Y60000D01*
X124429D02*
X127500D01*
X131061D01*
X138939D02*
X140500D01*
X142173Y61673D01*
X145000D01*
Y64000D01*
X145000Y64000D02*
X145000Y64000D01*
X115630Y62500D02*
X118500D01*
X115571Y57441D02*
X119941D01*
X121000Y58500D01*
Y62000D01*
X123500Y64500D01*
X113059Y62559D02*
X115571D01*
X110500Y61673D02*
X112173D01*
X113059Y62559D01*
X110500Y58327D02*
X112673D01*
X113559Y57441D02*
X115571D01*
X112673Y58327D02*
X113559Y57441D01*
X93827Y40000D02*
X94000Y40173D01*
X82500Y40000D02*
X93827D01*
X81839Y39339D02*
X82500Y40000D01*
X81839Y37953D02*
Y39339D01*
X118000Y36531D02*
Y42000D01*
X117000Y43000D02*
X118000Y42000D01*
X102000Y43000D02*
X117000D01*
X99000Y46000D02*
X102000Y43000D01*
X79016Y35984D02*
X81839D01*
X75500Y26173D02*
X81000D01*
Y28000D01*
X79000Y30000D02*
X81000Y28000D01*
X75500Y36827D02*
X78173D01*
X79016Y35984D01*
X24969Y77531D02*
X26500Y76000D01*
X24969Y77531D02*
Y82500D01*
X20000Y90000D02*
X24969D01*
X18500Y88500D02*
X20000Y90000D01*
X18500Y66500D02*
Y88500D01*
Y66500D02*
X21500Y63500D01*
X42000Y61000D02*
X45500Y57500D01*
X42000Y61000D02*
Y80016D01*
X39516Y82500D02*
X42000Y80016D01*
X31032Y82500D02*
X39516D01*
X40250Y60275D02*
X44775Y55750D01*
X40250Y60275D02*
Y72750D01*
X37000Y76000D02*
X40250Y72750D01*
X26500Y76000D02*
X37000D01*
X75500Y40173D02*
Y43000D01*
X44775Y55750D02*
X62750D01*
X75500Y43000D01*
X45500Y57500D02*
X63475D01*
X74975Y46000D01*
X99000D01*
X31032Y90000D02*
X47500D01*
X51500Y86000D01*
Y64000D02*
Y86000D01*
X79000Y30000D02*
Y33500D01*
X79516Y34016D01*
X81839D01*
D27*
X96307Y118307D02*
X103000D01*
X92500Y114500D02*
X96307Y118307D01*
X86807Y114500D02*
X92500D01*
D28*
X135118Y116437D02*
D03*
X140882Y107063D02*
D03*
X132118Y57437D02*
D03*
D29*
X140430Y121562D02*
D03*
X135569Y101939D02*
D03*
X137430Y62562D02*
D03*
D30*
X86201Y86201D02*
D03*
D31*
X59183Y39405D02*
D03*
X140236Y86201D02*
D03*
X59183Y132997D02*
D03*
D32*
X15500Y111000D02*
D03*
X148000Y123000D02*
D03*
X60000Y66500D02*
D03*
X92000Y50500D02*
D03*
X80000D02*
D03*
X82000D02*
D03*
X84000D02*
D03*
X86000D02*
D03*
X88000D02*
D03*
X90000D02*
D03*
X94000D02*
D03*
X96000D02*
D03*
X98000Y52500D02*
D03*
Y54500D02*
D03*
Y56500D02*
D03*
Y58500D02*
D03*
Y60500D02*
D03*
Y62500D02*
D03*
X96000Y52500D02*
D03*
Y54500D02*
D03*
Y56500D02*
D03*
Y58500D02*
D03*
Y60500D02*
D03*
Y62500D02*
D03*
X94000D02*
D03*
X92000D02*
D03*
X90000D02*
D03*
X86000D02*
D03*
X88000D02*
D03*
X84000D02*
D03*
X82000D02*
D03*
X80000D02*
D03*
Y60500D02*
D03*
X82000D02*
D03*
X84000D02*
D03*
X86000D02*
D03*
X88000D02*
D03*
X90000D02*
D03*
X94000Y52500D02*
D03*
Y54500D02*
D03*
Y56500D02*
D03*
X92000Y60500D02*
D03*
X94000D02*
D03*
Y58500D02*
D03*
X114500Y67500D02*
D03*
X112000D02*
D03*
X109500D02*
D03*
X107000D02*
D03*
X104500D02*
D03*
X102000D02*
D03*
X99500D02*
D03*
X96500Y69500D02*
D03*
X99500D02*
D03*
X102000D02*
D03*
X99500Y80000D02*
D03*
X93500D02*
D03*
X121000Y103000D02*
D03*
X75500Y128000D02*
D03*
X77500D02*
D03*
X79500D02*
D03*
X81500D02*
D03*
X85500Y111500D02*
D03*
X87500D02*
D03*
X85500Y113500D02*
D03*
X87500D02*
D03*
X146500Y92500D02*
D03*
X144500D02*
D03*
X142500D02*
D03*
X140500D02*
D03*
X138500D02*
D03*
X74000Y113500D02*
D03*
X76000D02*
D03*
Y115500D02*
D03*
X74000D02*
D03*
Y121000D02*
D03*
X76000D02*
D03*
Y123000D02*
D03*
X74000D02*
D03*
X143500Y124500D02*
D03*
Y126500D02*
D03*
X141500Y124500D02*
D03*
Y126500D02*
D03*
X137000Y121000D02*
D03*
X136500Y126500D02*
D03*
Y124500D02*
D03*
X138500D02*
D03*
Y126500D02*
D03*
X127500Y109000D02*
D03*
X132143Y119000D02*
D03*
X130000Y110000D02*
D03*
Y108000D02*
D03*
X128000Y99500D02*
D03*
X144000Y114500D02*
D03*
X146000D02*
D03*
X144000Y116500D02*
D03*
X146000D02*
D03*
X150827Y106173D02*
D03*
X137000Y106000D02*
D03*
X139000D02*
D03*
Y108000D02*
D03*
X141000D02*
D03*
X137000D02*
D03*
X132000Y110000D02*
D03*
Y108000D02*
D03*
X145500Y99500D02*
D03*
Y101500D02*
D03*
X143500Y99500D02*
D03*
Y101500D02*
D03*
X129000Y104500D02*
D03*
X122173Y122000D02*
D03*
X67000Y131000D02*
D03*
Y133000D02*
D03*
Y135000D02*
D03*
Y137000D02*
D03*
X65000D02*
D03*
Y131000D02*
D03*
Y129000D02*
D03*
Y127000D02*
D03*
X63000D02*
D03*
X65000Y139000D02*
D03*
X63000D02*
D03*
X154500Y121500D02*
D03*
Y123500D02*
D03*
X152500D02*
D03*
Y121500D02*
D03*
Y119500D02*
D03*
X154500D02*
D03*
X72500Y137500D02*
D03*
X86000Y77500D02*
D03*
X88500D02*
D03*
X91000D02*
D03*
X93500D02*
D03*
X96500D02*
D03*
X99500D02*
D03*
X102000D02*
D03*
X104500D02*
D03*
X107000D02*
D03*
X109500D02*
D03*
Y80000D02*
D03*
X107000D02*
D03*
X104500D02*
D03*
X102000D02*
D03*
X96500D02*
D03*
X131000Y73000D02*
D03*
X133000D02*
D03*
X135000D02*
D03*
X139000D02*
D03*
X137000D02*
D03*
X139000Y71000D02*
D03*
X137000D02*
D03*
X135000D02*
D03*
X133000D02*
D03*
X131000D02*
D03*
Y69000D02*
D03*
X133000D02*
D03*
X135000D02*
D03*
X137000D02*
D03*
X139000D02*
D03*
Y67000D02*
D03*
X137000D02*
D03*
X135000D02*
D03*
X133000D02*
D03*
X131000D02*
D03*
X112000Y80000D02*
D03*
X114500D02*
D03*
Y77500D02*
D03*
X112000D02*
D03*
X114500Y75000D02*
D03*
X112000D02*
D03*
X109500D02*
D03*
X107000D02*
D03*
X104500D02*
D03*
X102000D02*
D03*
X99500D02*
D03*
X96500D02*
D03*
X93500D02*
D03*
X91000D02*
D03*
X88500D02*
D03*
X86000D02*
D03*
Y72000D02*
D03*
X88500D02*
D03*
X91000D02*
D03*
X93500D02*
D03*
X96500D02*
D03*
X99500D02*
D03*
X102000D02*
D03*
X104500D02*
D03*
X107000D02*
D03*
X109500D02*
D03*
X112000D02*
D03*
X114500D02*
D03*
Y69500D02*
D03*
X112000D02*
D03*
X109500D02*
D03*
X107000D02*
D03*
X104500D02*
D03*
X129500Y64500D02*
D03*
X127500D02*
D03*
Y62500D02*
D03*
X129500D02*
D03*
X142500Y55500D02*
D03*
X140500D02*
D03*
X142500Y57500D02*
D03*
X140500D02*
D03*
X136000Y62000D02*
D03*
X134000D02*
D03*
X138000Y64000D02*
D03*
X136000D02*
D03*
X134000D02*
D03*
X127500Y58500D02*
D03*
X145000Y64000D02*
D03*
X118500Y62500D02*
D03*
X123500Y64500D02*
D03*
X115000Y53500D02*
D03*
X113000D02*
D03*
X111000D02*
D03*
X109000D02*
D03*
X115000Y51500D02*
D03*
X113000D02*
D03*
X111000D02*
D03*
X109000D02*
D03*
X107000Y53500D02*
D03*
Y51500D02*
D03*
Y49500D02*
D03*
X109000D02*
D03*
X111000D02*
D03*
X113000D02*
D03*
X115000D02*
D03*
Y47500D02*
D03*
X113000D02*
D03*
X111000D02*
D03*
X109000D02*
D03*
X107000D02*
D03*
X115000Y45500D02*
D03*
X113000D02*
D03*
X111000D02*
D03*
X109000D02*
D03*
X107000D02*
D03*
X137500Y50000D02*
D03*
X139500D02*
D03*
X141500D02*
D03*
X137500Y48000D02*
D03*
X139500D02*
D03*
X141500D02*
D03*
X85500Y37500D02*
D03*
Y35500D02*
D03*
Y33500D02*
D03*
Y31500D02*
D03*
X94500Y18500D02*
D03*
X92500D02*
D03*
Y16500D02*
D03*
X94500D02*
D03*
X90500Y18500D02*
D03*
Y16500D02*
D03*
X88500D02*
D03*
X117000Y53500D02*
D03*
Y51500D02*
D03*
Y49500D02*
D03*
Y47500D02*
D03*
Y45500D02*
D03*
X88500Y18500D02*
D03*
X86500D02*
D03*
Y16500D02*
D03*
X84500D02*
D03*
Y18500D02*
D03*
X82500D02*
D03*
Y16500D02*
D03*
X80500D02*
D03*
Y18500D02*
D03*
X21500Y63500D02*
D03*
X51500Y64000D02*
D03*
X94000Y43500D02*
D03*
X92000D02*
D03*
X90000D02*
D03*
X88000D02*
D03*
X86000D02*
D03*
X84000D02*
D03*
X82000D02*
D03*
X80000D02*
D03*
X78000D02*
D03*
X80000Y41500D02*
D03*
X96000Y43500D02*
D03*
X98000D02*
D03*
X92000Y56500D02*
D03*
X90000D02*
D03*
X88000D02*
D03*
X86000D02*
D03*
X84000D02*
D03*
X82000D02*
D03*
X80000D02*
D03*
Y54500D02*
D03*
X82000D02*
D03*
X84000D02*
D03*
X86000D02*
D03*
X88000D02*
D03*
X90000D02*
D03*
X92000D02*
D03*
Y52500D02*
D03*
X90000D02*
D03*
X88000D02*
D03*
X86000D02*
D03*
X84000D02*
D03*
X82000D02*
D03*
X80000D02*
D03*
Y58500D02*
D03*
X82000D02*
D03*
X84000D02*
D03*
X86000D02*
D03*
X88000D02*
D03*
X90000D02*
D03*
X92000D02*
D03*
X157000Y83500D02*
D03*
X155000D02*
D03*
X153000D02*
D03*
X157000Y85500D02*
D03*
X155000D02*
D03*
X153000D02*
D03*
Y87500D02*
D03*
X155000D02*
D03*
X157000D02*
D03*
Y89500D02*
D03*
X155000D02*
D03*
X153000D02*
D03*
X12000Y65500D02*
D03*
X14000D02*
D03*
Y63500D02*
D03*
X12000D02*
D03*
X130000Y31500D02*
D03*
X132500D02*
D03*
X130000Y29500D02*
D03*
X132500D02*
D03*
X135000Y31500D02*
D03*
%TF.MD5,47599DA4A01F5E671325438B218799F1*%
M02*
