G04 Layer_Color=0*
%FSLAX25Y25*%
%MOIN*%
%TF.FileFunction,PTH,Drill*%
%TF.Part,Single*%
G01*
G75*
%TA.AperFunction,OtherDrill*%
%ADD74C,0.09843*%
%TA.AperFunction,ViaDrill*%
%ADD75C,0.01000*%
D74*
X86201Y86201D02*
D03*
X59183Y39405D02*
D03*
X140236Y86201D02*
D03*
X59183Y132997D02*
D03*
D75*
X15500Y111000D02*
D03*
X148000Y123000D02*
D03*
X60000Y66500D02*
D03*
X92000Y50500D02*
D03*
X80000D02*
D03*
X82000D02*
D03*
X84000D02*
D03*
X86000D02*
D03*
X88000D02*
D03*
X90000D02*
D03*
X94000D02*
D03*
X96000D02*
D03*
X98000Y52500D02*
D03*
Y54500D02*
D03*
Y56500D02*
D03*
Y58500D02*
D03*
Y60500D02*
D03*
Y62500D02*
D03*
X96000Y52500D02*
D03*
Y54500D02*
D03*
Y56500D02*
D03*
Y58500D02*
D03*
Y60500D02*
D03*
Y62500D02*
D03*
X94000D02*
D03*
X92000D02*
D03*
X90000D02*
D03*
X86000D02*
D03*
X88000D02*
D03*
X84000D02*
D03*
X82000D02*
D03*
X80000D02*
D03*
Y60500D02*
D03*
X82000D02*
D03*
X84000D02*
D03*
X86000D02*
D03*
X88000D02*
D03*
X90000D02*
D03*
X94000Y52500D02*
D03*
Y54500D02*
D03*
Y56500D02*
D03*
X92000Y60500D02*
D03*
X94000D02*
D03*
Y58500D02*
D03*
X114500Y67500D02*
D03*
X112000D02*
D03*
X109500D02*
D03*
X107000D02*
D03*
X104500D02*
D03*
X102000D02*
D03*
X99500D02*
D03*
X96500Y69500D02*
D03*
X99500D02*
D03*
X102000D02*
D03*
X99500Y80000D02*
D03*
X93500D02*
D03*
X121000Y103000D02*
D03*
X75500Y128000D02*
D03*
X77500D02*
D03*
X79500D02*
D03*
X81500D02*
D03*
X85500Y111500D02*
D03*
X87500D02*
D03*
X85500Y113500D02*
D03*
X87500D02*
D03*
X146500Y92500D02*
D03*
X144500D02*
D03*
X142500D02*
D03*
X140500D02*
D03*
X138500D02*
D03*
X74000Y113500D02*
D03*
X76000D02*
D03*
Y115500D02*
D03*
X74000D02*
D03*
Y121000D02*
D03*
X76000D02*
D03*
Y123000D02*
D03*
X74000D02*
D03*
X143500Y124500D02*
D03*
Y126500D02*
D03*
X141500Y124500D02*
D03*
Y126500D02*
D03*
X137000Y121000D02*
D03*
X136500Y126500D02*
D03*
Y124500D02*
D03*
X138500D02*
D03*
Y126500D02*
D03*
X127500Y109000D02*
D03*
X132143Y119000D02*
D03*
X130000Y110000D02*
D03*
Y108000D02*
D03*
X128000Y99500D02*
D03*
X144000Y114500D02*
D03*
X146000D02*
D03*
X144000Y116500D02*
D03*
X146000D02*
D03*
X150827Y106173D02*
D03*
X137000Y106000D02*
D03*
X139000D02*
D03*
Y108000D02*
D03*
X141000D02*
D03*
X137000D02*
D03*
X132000Y110000D02*
D03*
Y108000D02*
D03*
X145500Y99500D02*
D03*
Y101500D02*
D03*
X143500Y99500D02*
D03*
Y101500D02*
D03*
X129000Y104500D02*
D03*
X122173Y122000D02*
D03*
X67000Y131000D02*
D03*
Y133000D02*
D03*
Y135000D02*
D03*
Y137000D02*
D03*
X65000D02*
D03*
Y131000D02*
D03*
Y129000D02*
D03*
Y127000D02*
D03*
X63000D02*
D03*
X65000Y139000D02*
D03*
X63000D02*
D03*
X154500Y121500D02*
D03*
Y123500D02*
D03*
X152500D02*
D03*
Y121500D02*
D03*
Y119500D02*
D03*
X154500D02*
D03*
X72500Y137500D02*
D03*
X86000Y77500D02*
D03*
X88500D02*
D03*
X91000D02*
D03*
X93500D02*
D03*
X96500D02*
D03*
X99500D02*
D03*
X102000D02*
D03*
X104500D02*
D03*
X107000D02*
D03*
X109500D02*
D03*
Y80000D02*
D03*
X107000D02*
D03*
X104500D02*
D03*
X102000D02*
D03*
X96500D02*
D03*
X131000Y73000D02*
D03*
X133000D02*
D03*
X135000D02*
D03*
X139000D02*
D03*
X137000D02*
D03*
X139000Y71000D02*
D03*
X137000D02*
D03*
X135000D02*
D03*
X133000D02*
D03*
X131000D02*
D03*
Y69000D02*
D03*
X133000D02*
D03*
X135000D02*
D03*
X137000D02*
D03*
X139000D02*
D03*
Y67000D02*
D03*
X137000D02*
D03*
X135000D02*
D03*
X133000D02*
D03*
X131000D02*
D03*
X112000Y80000D02*
D03*
X114500D02*
D03*
Y77500D02*
D03*
X112000D02*
D03*
X114500Y75000D02*
D03*
X112000D02*
D03*
X109500D02*
D03*
X107000D02*
D03*
X104500D02*
D03*
X102000D02*
D03*
X99500D02*
D03*
X96500D02*
D03*
X93500D02*
D03*
X91000D02*
D03*
X88500D02*
D03*
X86000D02*
D03*
Y72000D02*
D03*
X88500D02*
D03*
X91000D02*
D03*
X93500D02*
D03*
X96500D02*
D03*
X99500D02*
D03*
X102000D02*
D03*
X104500D02*
D03*
X107000D02*
D03*
X109500D02*
D03*
X112000D02*
D03*
X114500D02*
D03*
Y69500D02*
D03*
X112000D02*
D03*
X109500D02*
D03*
X107000D02*
D03*
X104500D02*
D03*
X129500Y64500D02*
D03*
X127500D02*
D03*
Y62500D02*
D03*
X129500D02*
D03*
X142500Y55500D02*
D03*
X140500D02*
D03*
X142500Y57500D02*
D03*
X140500D02*
D03*
X136000Y62000D02*
D03*
X134000D02*
D03*
X138000Y64000D02*
D03*
X136000D02*
D03*
X134000D02*
D03*
X127500Y58500D02*
D03*
X145000Y64000D02*
D03*
X118500Y62500D02*
D03*
X123500Y64500D02*
D03*
X115000Y53500D02*
D03*
X113000D02*
D03*
X111000D02*
D03*
X109000D02*
D03*
X115000Y51500D02*
D03*
X113000D02*
D03*
X111000D02*
D03*
X109000D02*
D03*
X107000Y53500D02*
D03*
Y51500D02*
D03*
Y49500D02*
D03*
X109000D02*
D03*
X111000D02*
D03*
X113000D02*
D03*
X115000D02*
D03*
Y47500D02*
D03*
X113000D02*
D03*
X111000D02*
D03*
X109000D02*
D03*
X107000D02*
D03*
X115000Y45500D02*
D03*
X113000D02*
D03*
X111000D02*
D03*
X109000D02*
D03*
X107000D02*
D03*
X137500Y50000D02*
D03*
X139500D02*
D03*
X141500D02*
D03*
X137500Y48000D02*
D03*
X139500D02*
D03*
X141500D02*
D03*
X85500Y37500D02*
D03*
Y35500D02*
D03*
Y33500D02*
D03*
Y31500D02*
D03*
X94500Y18500D02*
D03*
X92500D02*
D03*
Y16500D02*
D03*
X94500D02*
D03*
X90500Y18500D02*
D03*
Y16500D02*
D03*
X88500D02*
D03*
X117000Y53500D02*
D03*
Y51500D02*
D03*
Y49500D02*
D03*
Y47500D02*
D03*
Y45500D02*
D03*
X88500Y18500D02*
D03*
X86500D02*
D03*
Y16500D02*
D03*
X84500D02*
D03*
Y18500D02*
D03*
X82500D02*
D03*
Y16500D02*
D03*
X80500D02*
D03*
Y18500D02*
D03*
X21500Y63500D02*
D03*
X51500Y64000D02*
D03*
X94000Y43500D02*
D03*
X92000D02*
D03*
X90000D02*
D03*
X88000D02*
D03*
X86000D02*
D03*
X84000D02*
D03*
X82000D02*
D03*
X80000D02*
D03*
X78000D02*
D03*
X80000Y41500D02*
D03*
X96000Y43500D02*
D03*
X98000D02*
D03*
X92000Y56500D02*
D03*
X90000D02*
D03*
X88000D02*
D03*
X86000D02*
D03*
X84000D02*
D03*
X82000D02*
D03*
X80000D02*
D03*
Y54500D02*
D03*
X82000D02*
D03*
X84000D02*
D03*
X86000D02*
D03*
X88000D02*
D03*
X90000D02*
D03*
X92000D02*
D03*
Y52500D02*
D03*
X90000D02*
D03*
X88000D02*
D03*
X86000D02*
D03*
X84000D02*
D03*
X82000D02*
D03*
X80000D02*
D03*
Y58500D02*
D03*
X82000D02*
D03*
X84000D02*
D03*
X86000D02*
D03*
X88000D02*
D03*
X90000D02*
D03*
X92000D02*
D03*
X157000Y83500D02*
D03*
X155000D02*
D03*
X153000D02*
D03*
X157000Y85500D02*
D03*
X155000D02*
D03*
X153000D02*
D03*
Y87500D02*
D03*
X155000D02*
D03*
X157000D02*
D03*
Y89500D02*
D03*
X155000D02*
D03*
X153000D02*
D03*
X12000Y65500D02*
D03*
X14000D02*
D03*
Y63500D02*
D03*
X12000D02*
D03*
X130000Y31500D02*
D03*
X132500D02*
D03*
X130000Y29500D02*
D03*
X132500D02*
D03*
X135000Y31500D02*
D03*
%TF.MD5,22CBF35D2A3BE1F383A2C3AA465608BD*%
M02*
