G04 Layer_Color=8388736*
%FSLAX25Y25*%
%MOIN*%
%TF.FileFunction,Soldermask,Top*%
%TF.Part,Single*%
G01*
G75*
%ADD50R,0.11811X0.11811*%
%TA.AperFunction,SMDPad*%
%ADD51R,0.04461X0.04658*%
%TA.AperFunction,SMDPad*%
%ADD52R,0.02959X0.02762*%
%TA.AperFunction,SMDPad*%
%ADD53R,0.03937X0.01969*%
%TA.AperFunction,SMDPad*%
%ADD54R,0.02762X0.02959*%
%TA.AperFunction,SMDPad*%
%ADD55R,0.05721X0.04737*%
%TA.AperFunction,SMDPad*%
%ADD56R,0.04737X0.05721*%
%TA.AperFunction,SMDPad*%
%ADD57R,0.01969X0.03937*%
%TA.AperFunction,SMDPad*%
%ADD58R,0.02186X0.01614*%
%TA.AperFunction,SMDPad*%
%ADD59R,0.04567X0.02992*%
%TA.AperFunction,SMDPad*%
%ADD60R,0.05367X0.06587*%
%TA.AperFunction,SMDPad*%
%ADD61R,0.03228X0.01063*%
%TA.AperFunction,SMDPad*%
%ADD62R,0.02441X0.04803*%
%TA.AperFunction,SMDPad*%
%ADD63R,0.04658X0.04461*%
%TA.AperFunction,SMDPad*%
%ADD64R,0.14961X0.04252*%
%TA.AperFunction,ConnectorPad*%
%ADD65C,0.04331*%
%TA.AperFunction,ConnectorPad*%
%ADD66C,0.42913*%
%TA.AperFunction,ConnectorPad*%
%ADD67C,0.20079*%
G36*
X100109Y156681D02*
X100227Y156666D01*
X100345Y156637D01*
X100352D01*
X100374Y156629D01*
X100396Y156614D01*
X100433Y156600D01*
X100514Y156555D01*
X100596Y156496D01*
X100603Y156489D01*
X100610Y156482D01*
X100655Y156437D01*
X100699Y156371D01*
X100743Y156282D01*
Y156275D01*
X100751Y156260D01*
X100758Y156238D01*
X100773Y156209D01*
X100788Y156120D01*
X100795Y156017D01*
Y156009D01*
Y155994D01*
Y155972D01*
Y155943D01*
X100780Y155869D01*
X100765Y155788D01*
Y155780D01*
X100758Y155751D01*
X100743Y155714D01*
X100721Y155670D01*
X100699Y155611D01*
X100662Y155552D01*
X100625Y155493D01*
X100574Y155434D01*
X100566Y155426D01*
X100551Y155411D01*
X100522Y155382D01*
X100485Y155345D01*
X100441Y155301D01*
X100382Y155256D01*
X100256Y155168D01*
X100249Y155160D01*
X100227Y155153D01*
X100190Y155131D01*
X100138Y155102D01*
X100079Y155072D01*
X100013Y155042D01*
X99858Y154983D01*
X99850D01*
X99821Y154969D01*
X99777Y154954D01*
X99725Y154939D01*
X99658Y154917D01*
X99585Y154902D01*
X99422Y154858D01*
X99415D01*
X99385Y154850D01*
X99341Y154843D01*
X99289Y154828D01*
X99230Y154814D01*
X99157Y154799D01*
X99009Y154777D01*
X98980D01*
X98935Y154769D01*
X98891Y154762D01*
X98780Y154755D01*
X98662Y154740D01*
X98655Y154733D01*
X98647Y154696D01*
X98625Y154644D01*
X98603Y154578D01*
Y154570D01*
Y154563D01*
X98596Y154518D01*
X98588Y154459D01*
X98581Y154386D01*
Y154378D01*
Y154349D01*
X98588Y154312D01*
X98603Y154268D01*
X98618Y154216D01*
X98647Y154164D01*
X98692Y154113D01*
X98743Y154061D01*
X98751Y154053D01*
X98773Y154046D01*
X98810Y154024D01*
X98861Y154009D01*
X98928Y153987D01*
X99009Y153965D01*
X99098Y153958D01*
X99201Y153950D01*
X99260D01*
X99304Y153958D01*
X99408Y153965D01*
X99526Y153987D01*
X99533D01*
X99555Y153995D01*
X99585Y154002D01*
X99621Y154017D01*
X99710Y154046D01*
X99813Y154083D01*
X99821D01*
X99835Y154090D01*
X99865Y154105D01*
X99902Y154120D01*
X99983Y154164D01*
X100072Y154209D01*
X100079D01*
X100094Y154223D01*
X100116Y154238D01*
X100145Y154253D01*
X100219Y154297D01*
X100293Y154349D01*
X100301Y154356D01*
X100315Y154364D01*
X100345Y154378D01*
X100374Y154400D01*
X100455Y154452D01*
X100537Y154496D01*
X100544D01*
X100559Y154504D01*
X100581Y154518D01*
X100610Y154526D01*
X100677Y154548D01*
X100751Y154555D01*
X100765D01*
X100795Y154548D01*
X100832Y154541D01*
X100861Y154511D01*
X100869Y154504D01*
X100876Y154481D01*
X100883Y154452D01*
Y154415D01*
Y154408D01*
Y154400D01*
Y154356D01*
Y154341D01*
Y154319D01*
Y154312D01*
X100876Y154304D01*
X100869Y154260D01*
X100847Y154201D01*
X100810Y154127D01*
Y154120D01*
X100802Y154113D01*
X100773Y154076D01*
X100728Y154024D01*
X100670Y153972D01*
X100662D01*
X100655Y153958D01*
X100633Y153943D01*
X100603Y153928D01*
X100529Y153869D01*
X100433Y153810D01*
X100323Y153744D01*
X100190Y153670D01*
X100057Y153603D01*
X99909Y153552D01*
X99902D01*
X99895Y153544D01*
X99872D01*
X99843Y153537D01*
X99762Y153515D01*
X99658Y153493D01*
X99533Y153471D01*
X99393Y153456D01*
X99238Y153441D01*
X99075Y153434D01*
X99016D01*
X98950Y153441D01*
X98869Y153448D01*
X98847D01*
X98825Y153456D01*
X98795D01*
X98721Y153471D01*
X98633Y153485D01*
X98625D01*
X98611Y153493D01*
X98588D01*
X98551Y153507D01*
X98478Y153530D01*
X98382Y153566D01*
X98374D01*
X98360Y153581D01*
X98337Y153596D01*
X98308Y153611D01*
X98242Y153662D01*
X98168Y153729D01*
X98160Y153736D01*
X98153Y153751D01*
X98131Y153773D01*
X98116Y153803D01*
X98064Y153876D01*
X98013Y153980D01*
Y153987D01*
X98005Y154009D01*
X97998Y154039D01*
X97983Y154083D01*
X97976Y154135D01*
X97961Y154194D01*
X97954Y154260D01*
Y154334D01*
Y154341D01*
Y154364D01*
Y154400D01*
X97961Y154445D01*
Y154504D01*
X97976Y154563D01*
X97998Y154710D01*
X97991D01*
X97968Y154718D01*
X97939Y154733D01*
X97909Y154755D01*
X97902Y154762D01*
X97895Y154784D01*
X97880Y154828D01*
X97873Y154880D01*
Y154887D01*
Y154910D01*
X97880Y154932D01*
Y154969D01*
X97909Y155057D01*
X97924Y155102D01*
X97954Y155138D01*
X97961Y155146D01*
X97968Y155153D01*
X98013Y155197D01*
X98079Y155242D01*
X98123Y155264D01*
X98168Y155279D01*
Y155286D01*
X98175Y155293D01*
X98197Y155338D01*
X98242Y155404D01*
X98293Y155493D01*
X98300Y155500D01*
X98308Y155515D01*
X98323Y155544D01*
X98352Y155581D01*
X98411Y155670D01*
X98492Y155780D01*
X98500Y155788D01*
X98514Y155810D01*
X98544Y155840D01*
X98574Y155884D01*
X98662Y155980D01*
X98773Y156098D01*
X98780Y156105D01*
X98802Y156127D01*
X98832Y156157D01*
X98876Y156194D01*
X98920Y156238D01*
X98980Y156290D01*
X99112Y156393D01*
X99120Y156400D01*
X99149Y156415D01*
X99186Y156437D01*
X99238Y156467D01*
X99297Y156504D01*
X99363Y156541D01*
X99518Y156607D01*
X99526Y156614D01*
X99555Y156622D01*
X99599Y156637D01*
X99658Y156651D01*
X99732Y156666D01*
X99806Y156673D01*
X99895Y156688D01*
X100057D01*
X100109Y156681D01*
D02*
G37*
G36*
X76065Y158887D02*
X76116Y158880D01*
X76131D01*
X76168Y158873D01*
X76219Y158858D01*
X76271Y158843D01*
X76279D01*
X76286Y158836D01*
X76323Y158828D01*
X76375Y158814D01*
X76441Y158799D01*
X76456D01*
X76500Y158791D01*
X76552Y158784D01*
X76707D01*
X76758Y158791D01*
X76773D01*
X76803Y158799D01*
X76854D01*
X76913Y158806D01*
X76928D01*
X76972Y158814D01*
X77164D01*
X77201Y158821D01*
X77563D01*
X77659Y158814D01*
X77747D01*
X77836Y158799D01*
X77939Y158784D01*
X77947D01*
X77961Y158777D01*
X77991D01*
X78035Y158769D01*
X78124Y158747D01*
X78234Y158710D01*
X78242D01*
X78264Y158703D01*
X78293Y158695D01*
X78330Y158681D01*
X78419Y158636D01*
X78515Y158577D01*
X78522D01*
X78537Y158563D01*
X78559Y158548D01*
X78596Y158526D01*
X78670Y158459D01*
X78751Y158378D01*
X78758Y158371D01*
X78766Y158356D01*
X78788Y158334D01*
X78810Y158297D01*
X78832Y158253D01*
X78854Y158208D01*
X78899Y158090D01*
X78906Y158076D01*
X78913Y158039D01*
X78928Y157994D01*
X78935Y157935D01*
Y157928D01*
X78943Y157898D01*
Y157854D01*
Y157810D01*
Y157802D01*
Y157773D01*
X78935Y157729D01*
X78928Y157677D01*
X78913Y157611D01*
X78899Y157537D01*
X78869Y157463D01*
X78832Y157382D01*
X78825Y157375D01*
X78810Y157338D01*
X78780Y157293D01*
X78743Y157234D01*
X78692Y157160D01*
X78633Y157087D01*
X78566Y157006D01*
X78493Y156924D01*
X78485Y156917D01*
X78456Y156887D01*
X78411Y156851D01*
X78352Y156799D01*
X78279Y156740D01*
X78197Y156673D01*
X78101Y156600D01*
X77998Y156533D01*
X77991D01*
X77976Y156518D01*
X77954Y156504D01*
X77924Y156489D01*
X77843Y156437D01*
X77740Y156378D01*
X77732D01*
X77718Y156363D01*
X77688Y156349D01*
X77651Y156326D01*
X77555Y156282D01*
X77452Y156223D01*
X77445D01*
X77430Y156209D01*
X77400Y156194D01*
X77371Y156179D01*
X77290Y156135D01*
X77201Y156090D01*
X77194D01*
X77186Y156083D01*
X77142Y156053D01*
X77090Y156024D01*
X77046Y155994D01*
X77053D01*
X77068Y155987D01*
X77090Y155972D01*
X77127Y155957D01*
X77209Y155913D01*
X77297Y155869D01*
X77304D01*
X77319Y155854D01*
X77341Y155840D01*
X77378Y155825D01*
X77459Y155773D01*
X77548Y155707D01*
X77555Y155699D01*
X77570Y155692D01*
X77600Y155670D01*
X77629Y155648D01*
X77718Y155574D01*
X77814Y155485D01*
X77821Y155478D01*
X77836Y155463D01*
X77865Y155434D01*
X77902Y155397D01*
X77939Y155345D01*
X77991Y155293D01*
X78094Y155160D01*
X78101Y155153D01*
X78116Y155124D01*
X78146Y155087D01*
X78190Y155035D01*
X78234Y154961D01*
X78286Y154887D01*
X78338Y154799D01*
X78397Y154703D01*
X78404Y154688D01*
X78426Y154659D01*
X78456Y154600D01*
X78493Y154533D01*
X78544Y154437D01*
X78596Y154334D01*
X78662Y154216D01*
X78721Y154090D01*
X78729Y154076D01*
X78743Y154039D01*
X78751Y153980D01*
X78758Y153913D01*
Y153899D01*
Y153869D01*
X78743Y153817D01*
X78729Y153758D01*
X78721Y153744D01*
X78707Y153714D01*
X78685Y153670D01*
X78648Y153626D01*
X78640Y153618D01*
X78611Y153589D01*
X78574Y153559D01*
X78522Y153530D01*
X78507Y153522D01*
X78478Y153515D01*
X78434Y153507D01*
X78374Y153500D01*
X78352D01*
X78330Y153507D01*
X78301Y153515D01*
X78234Y153537D01*
X78197Y153559D01*
X78161Y153589D01*
Y153596D01*
X78146Y153603D01*
X78131Y153626D01*
X78109Y153655D01*
X78065Y153729D01*
X78005Y153825D01*
Y153832D01*
X77991Y153854D01*
X77976Y153884D01*
X77961Y153921D01*
X77939Y153972D01*
X77910Y154031D01*
X77851Y154164D01*
Y154172D01*
X77836Y154201D01*
X77821Y154238D01*
X77799Y154282D01*
X77769Y154341D01*
X77732Y154408D01*
X77651Y154548D01*
X77644Y154555D01*
X77629Y154585D01*
X77607Y154622D01*
X77570Y154673D01*
X77526Y154733D01*
X77482Y154799D01*
X77371Y154939D01*
X77363Y154946D01*
X77341Y154969D01*
X77312Y155006D01*
X77275Y155050D01*
X77223Y155102D01*
X77164Y155160D01*
X77039Y155264D01*
X77031Y155271D01*
X77009Y155286D01*
X76972Y155308D01*
X76928Y155338D01*
X76876Y155375D01*
X76810Y155411D01*
X76677Y155478D01*
X76670Y155485D01*
X76648Y155493D01*
X76611Y155507D01*
X76559Y155522D01*
X76507Y155537D01*
X76441Y155544D01*
X76375Y155559D01*
X76183D01*
X76116Y155552D01*
X76050Y155537D01*
X76035D01*
X75998Y155529D01*
X75939Y155522D01*
X75880Y155507D01*
X75873D01*
X75865Y155515D01*
X75821Y155537D01*
X75762Y155574D01*
X75718Y155633D01*
Y155640D01*
X75710Y155648D01*
X75696Y155692D01*
X75681Y155758D01*
X75673Y155840D01*
Y155884D01*
X75386Y154762D01*
Y154755D01*
X75378Y154718D01*
X75363Y154673D01*
X75341Y154607D01*
Y154600D01*
X75334Y154592D01*
X75327Y154548D01*
X75304Y154489D01*
X75282Y154408D01*
Y154400D01*
X75275Y154386D01*
Y154364D01*
X75260Y154334D01*
X75245Y154260D01*
X75216Y154172D01*
Y154164D01*
X75208Y154149D01*
Y154127D01*
X75201Y154098D01*
X75179Y154024D01*
X75157Y153943D01*
Y153935D01*
X75149Y153928D01*
X75142Y153884D01*
X75120Y153817D01*
X75105Y153751D01*
Y153736D01*
X75090Y153707D01*
X75083Y153662D01*
X75068Y153626D01*
X75061Y153611D01*
X75031Y153574D01*
X74987Y153530D01*
X74935Y153493D01*
X74921Y153485D01*
X74891Y153471D01*
X74840Y153448D01*
X74773Y153441D01*
X74751D01*
X74721Y153448D01*
X74692Y153456D01*
X74618Y153478D01*
X74589Y153500D01*
X74559Y153530D01*
Y153537D01*
X74552Y153544D01*
X74529Y153589D01*
X74507Y153655D01*
X74500Y153744D01*
Y153751D01*
Y153773D01*
Y153810D01*
Y153847D01*
Y153854D01*
X74507Y153876D01*
X74515Y153913D01*
X74522Y153950D01*
Y153958D01*
X74529Y153987D01*
X74544Y154031D01*
X74559Y154090D01*
X74574Y154164D01*
X74596Y154253D01*
X74625Y154349D01*
X74655Y154459D01*
X74685Y154578D01*
X74714Y154703D01*
X74788Y154976D01*
X74862Y155271D01*
X74943Y155566D01*
Y155574D01*
X74950Y155603D01*
X74965Y155648D01*
X74980Y155707D01*
X75002Y155773D01*
X75024Y155862D01*
X75046Y155957D01*
X75076Y156068D01*
X75112Y156186D01*
X75142Y156312D01*
X75216Y156585D01*
X75290Y156880D01*
X75363Y157183D01*
Y157190D01*
X75371Y157205D01*
Y157220D01*
X75378Y157249D01*
X75400Y157316D01*
X75415Y157389D01*
Y157397D01*
X75423Y157404D01*
X75430Y157448D01*
X75445Y157507D01*
X75459Y157581D01*
Y157589D01*
X75467Y157596D01*
X75474Y157640D01*
X75481Y157699D01*
X75496Y157773D01*
Y157780D01*
Y157788D01*
X75504Y157810D01*
Y157839D01*
X75511Y157906D01*
Y157987D01*
Y157994D01*
Y158002D01*
Y158039D01*
X75504Y158083D01*
X75496Y158135D01*
Y158149D01*
Y158179D01*
X75489Y158231D01*
Y158290D01*
Y158297D01*
Y158304D01*
Y158341D01*
X75496Y158393D01*
X75511Y158459D01*
Y158467D01*
X75518Y158496D01*
X75533Y158533D01*
X75548Y158585D01*
X75592Y158688D01*
X75622Y158740D01*
X75659Y158784D01*
X75666Y158791D01*
X75681Y158799D01*
X75703Y158821D01*
X75732Y158843D01*
X75777Y158858D01*
X75828Y158880D01*
X75895Y158887D01*
X75961Y158895D01*
X76013D01*
X76065Y158887D01*
D02*
G37*
G36*
X87703Y158201D02*
X87754Y158194D01*
X87806Y158164D01*
X87821Y158157D01*
X87850Y158135D01*
X87887Y158105D01*
X87917Y158061D01*
X87924Y158054D01*
X87939Y158024D01*
X87961Y157980D01*
X87983Y157921D01*
X87991Y157906D01*
X87998Y157869D01*
X88005Y157817D01*
Y157751D01*
Y157744D01*
Y157736D01*
Y157699D01*
X87998Y157648D01*
X87991Y157596D01*
X87725Y156592D01*
X87732D01*
X87754Y156600D01*
X87791Y156607D01*
X87843Y156614D01*
X87946Y156629D01*
X88064Y156651D01*
X88072D01*
X88094Y156659D01*
X88124Y156666D01*
X88160Y156673D01*
X88264Y156688D01*
X88374Y156710D01*
X88382D01*
X88404Y156718D01*
X88433Y156725D01*
X88470Y156732D01*
X88559Y156747D01*
X88655Y156769D01*
X88662D01*
X88677Y156777D01*
X88699D01*
X88729Y156784D01*
X88795Y156799D01*
X88862Y156814D01*
X88869D01*
X88876Y156821D01*
X88913Y156828D01*
X88965Y156836D01*
X89009Y156851D01*
X89016D01*
X89046Y156858D01*
X89075Y156865D01*
X89142D01*
X89179Y156858D01*
X89223Y156851D01*
X89231D01*
X89260Y156843D01*
X89289Y156836D01*
X89326Y156821D01*
X89334D01*
X89356Y156806D01*
X89378Y156791D01*
X89400Y156762D01*
X89408Y156755D01*
X89415Y156732D01*
X89422Y156703D01*
X89430Y156659D01*
Y156651D01*
Y156644D01*
X89422Y156607D01*
X89415Y156555D01*
X89393Y156504D01*
X89385Y156496D01*
X89371Y156467D01*
X89341Y156430D01*
X89304Y156393D01*
X89297Y156386D01*
X89267Y156363D01*
X89231Y156334D01*
X89179Y156312D01*
X89164Y156304D01*
X89135Y156297D01*
X89098Y156282D01*
X89046Y156267D01*
X89039D01*
X89009Y156260D01*
X88957Y156253D01*
X88898Y156238D01*
X88884D01*
X88839Y156223D01*
X88780Y156209D01*
X88699Y156186D01*
X88677D01*
X88655Y156179D01*
X88633Y156172D01*
X88559Y156157D01*
X88470Y156135D01*
X88463D01*
X88448Y156127D01*
X88426D01*
X88397Y156120D01*
X88323Y156098D01*
X88242Y156083D01*
X88234D01*
X88212Y156076D01*
X88182Y156068D01*
X88146Y156061D01*
X88057Y156031D01*
X87961Y156009D01*
X87954D01*
X87939Y156002D01*
X87917D01*
X87895Y155994D01*
X87828Y155980D01*
X87762Y155965D01*
X87747D01*
X87718Y155957D01*
X87673Y155950D01*
X87629Y155943D01*
X87599D01*
X87570Y155935D01*
X87548D01*
Y155928D01*
X87533Y155898D01*
X87518Y155862D01*
X87504Y155810D01*
X87481Y155751D01*
X87467Y155684D01*
X87422Y155537D01*
Y155529D01*
X87415Y155500D01*
X87408Y155463D01*
X87393Y155419D01*
X87385Y155360D01*
X87371Y155301D01*
X87341Y155168D01*
Y155160D01*
X87334Y155138D01*
Y155109D01*
X87326Y155065D01*
X87304Y154969D01*
X87290Y154865D01*
Y154858D01*
Y154843D01*
X87282Y154821D01*
Y154791D01*
X87275Y154725D01*
Y154659D01*
Y154651D01*
Y154644D01*
Y154600D01*
X87282Y154541D01*
X87290Y154474D01*
Y154467D01*
X87297Y154459D01*
X87304Y154422D01*
X87326Y154371D01*
X87356Y154319D01*
X87363Y154312D01*
X87385Y154282D01*
X87422Y154245D01*
X87474Y154216D01*
X87489Y154209D01*
X87526Y154201D01*
X87585Y154186D01*
X87659Y154179D01*
X87688D01*
X87725Y154186D01*
X87777Y154194D01*
X87828Y154201D01*
X87895Y154223D01*
X87961Y154245D01*
X88028Y154282D01*
X88035Y154290D01*
X88057Y154304D01*
X88094Y154327D01*
X88138Y154356D01*
X88190Y154393D01*
X88249Y154437D01*
X88374Y154541D01*
X88382Y154548D01*
X88404Y154570D01*
X88433Y154600D01*
X88478Y154644D01*
X88529Y154696D01*
X88581Y154762D01*
X88692Y154895D01*
X88699Y154902D01*
X88714Y154924D01*
X88743Y154961D01*
X88780Y155013D01*
X88825Y155065D01*
X88869Y155131D01*
X88965Y155256D01*
X88972Y155264D01*
X88994Y155293D01*
X89031Y155315D01*
X89075Y155323D01*
X89090D01*
X89127Y155315D01*
X89135D01*
X89149Y155308D01*
X89186Y155286D01*
X89194D01*
X89201Y155279D01*
X89231Y155242D01*
X89238Y155234D01*
X89245Y155219D01*
X89253Y155205D01*
Y155175D01*
Y155168D01*
Y155160D01*
Y155131D01*
Y155124D01*
X89245Y155094D01*
X89231Y155050D01*
X89208Y154991D01*
X89186Y154924D01*
X89157Y154850D01*
X89075Y154681D01*
X89068Y154673D01*
X89053Y154644D01*
X89031Y154600D01*
X89002Y154541D01*
X88965Y154474D01*
X88920Y154400D01*
X88832Y154238D01*
X88825Y154223D01*
X88802Y154186D01*
X88766Y154142D01*
X88714Y154083D01*
X88699Y154068D01*
X88670Y154039D01*
X88625Y153987D01*
X88566Y153935D01*
X88551Y153921D01*
X88515Y153891D01*
X88456Y153854D01*
X88389Y153803D01*
X88382D01*
X88374Y153795D01*
X88337Y153766D01*
X88286Y153729D01*
X88227Y153692D01*
X88219D01*
X88205Y153677D01*
X88175Y153662D01*
X88138Y153648D01*
X88094Y153626D01*
X88042Y153611D01*
X87924Y153574D01*
X87917D01*
X87895Y153566D01*
X87865D01*
X87828Y153559D01*
X87725Y153552D01*
X87614Y153544D01*
X87577D01*
X87533Y153552D01*
X87474D01*
X87415Y153566D01*
X87341Y153581D01*
X87275Y153596D01*
X87201Y153626D01*
X87194Y153633D01*
X87172Y153640D01*
X87142Y153662D01*
X87098Y153684D01*
X87002Y153758D01*
X86898Y153854D01*
X86891Y153862D01*
X86876Y153884D01*
X86854Y153913D01*
X86825Y153950D01*
X86795Y154002D01*
X86766Y154061D01*
X86707Y154194D01*
Y154201D01*
X86699Y154231D01*
X86692Y154268D01*
X86677Y154319D01*
X86670Y154378D01*
X86655Y154452D01*
X86647Y154607D01*
Y154622D01*
Y154659D01*
X86655Y154718D01*
Y154799D01*
X86662Y154895D01*
X86677Y154998D01*
X86692Y155116D01*
X86714Y155234D01*
Y155242D01*
Y155249D01*
X86729Y155293D01*
X86736Y155352D01*
X86758Y155434D01*
X86780Y155529D01*
X86803Y155633D01*
X86854Y155854D01*
X86839D01*
X86795Y155862D01*
X86736Y155869D01*
X86670Y155884D01*
X86662D01*
X86655Y155891D01*
X86611Y155898D01*
X86551Y155921D01*
X86493Y155950D01*
X86478Y155957D01*
X86448Y155980D01*
X86404Y156009D01*
X86360Y156053D01*
X86352Y156068D01*
X86338Y156098D01*
X86323Y156142D01*
X86315Y156201D01*
Y156209D01*
Y156223D01*
X86323Y156245D01*
X86330Y156282D01*
Y156290D01*
X86338Y156312D01*
X86352Y156341D01*
X86367Y156378D01*
X86374Y156386D01*
X86389Y156408D01*
X86411Y156437D01*
X86441Y156459D01*
X86448Y156467D01*
X86470Y156482D01*
X86500Y156489D01*
X86537Y156496D01*
X87024D01*
X87053Y156504D01*
X87083Y156518D01*
X87105Y156555D01*
X87112Y156563D01*
X87120Y156592D01*
X87135Y156629D01*
X87149Y156673D01*
Y156681D01*
X87157Y156710D01*
X87164Y156747D01*
X87179Y156799D01*
X87201Y156910D01*
X87230Y157028D01*
Y157035D01*
X87238Y157057D01*
X87245Y157079D01*
X87260Y157116D01*
X87282Y157205D01*
X87304Y157286D01*
Y157293D01*
X87312Y157308D01*
X87319Y157352D01*
X87334Y157404D01*
X87349Y157463D01*
Y157478D01*
X87356Y157500D01*
X87363Y157537D01*
Y157566D01*
Y157574D01*
Y157596D01*
X87356Y157655D01*
Y157662D01*
Y157685D01*
Y157721D01*
Y157773D01*
Y157810D01*
Y157817D01*
Y157832D01*
Y157854D01*
X87363Y157884D01*
Y157891D01*
X87371Y157921D01*
X87385Y157965D01*
X87400Y158017D01*
X87408Y158031D01*
X87415Y158061D01*
X87445Y158105D01*
X87474Y158149D01*
X87489Y158157D01*
X87518Y158179D01*
X87570Y158201D01*
X87644Y158208D01*
X87659D01*
X87703Y158201D01*
D02*
G37*
G36*
X81666Y156681D02*
X81784Y156666D01*
X81902Y156637D01*
X81910D01*
X81932Y156629D01*
X81954Y156614D01*
X81991Y156600D01*
X82072Y156555D01*
X82153Y156496D01*
X82160Y156489D01*
X82168Y156482D01*
X82212Y156437D01*
X82256Y156371D01*
X82301Y156282D01*
Y156275D01*
X82308Y156260D01*
X82315Y156238D01*
X82330Y156209D01*
X82345Y156120D01*
X82352Y156017D01*
Y156009D01*
Y155994D01*
Y155972D01*
Y155943D01*
X82338Y155869D01*
X82323Y155788D01*
Y155780D01*
X82315Y155751D01*
X82301Y155714D01*
X82279Y155670D01*
X82256Y155611D01*
X82219Y155552D01*
X82183Y155493D01*
X82131Y155434D01*
X82124Y155426D01*
X82109Y155411D01*
X82079Y155382D01*
X82042Y155345D01*
X81998Y155301D01*
X81939Y155256D01*
X81814Y155168D01*
X81806Y155160D01*
X81784Y155153D01*
X81747Y155131D01*
X81695Y155102D01*
X81637Y155072D01*
X81570Y155042D01*
X81415Y154983D01*
X81408D01*
X81378Y154969D01*
X81334Y154954D01*
X81282Y154939D01*
X81216Y154917D01*
X81142Y154902D01*
X80980Y154858D01*
X80972D01*
X80943Y154850D01*
X80898Y154843D01*
X80847Y154828D01*
X80788Y154814D01*
X80714Y154799D01*
X80566Y154777D01*
X80537D01*
X80493Y154769D01*
X80448Y154762D01*
X80338Y154755D01*
X80220Y154740D01*
X80212Y154733D01*
X80205Y154696D01*
X80183Y154644D01*
X80160Y154578D01*
Y154570D01*
Y154563D01*
X80153Y154518D01*
X80146Y154459D01*
X80138Y154386D01*
Y154378D01*
Y154349D01*
X80146Y154312D01*
X80160Y154268D01*
X80175Y154216D01*
X80205Y154164D01*
X80249Y154113D01*
X80301Y154061D01*
X80308Y154053D01*
X80330Y154046D01*
X80367Y154024D01*
X80419Y154009D01*
X80485Y153987D01*
X80566Y153965D01*
X80655Y153958D01*
X80758Y153950D01*
X80817D01*
X80862Y153958D01*
X80965Y153965D01*
X81083Y153987D01*
X81090D01*
X81112Y153995D01*
X81142Y154002D01*
X81179Y154017D01*
X81267Y154046D01*
X81371Y154083D01*
X81378D01*
X81393Y154090D01*
X81422Y154105D01*
X81459Y154120D01*
X81541Y154164D01*
X81629Y154209D01*
X81637D01*
X81651Y154223D01*
X81673Y154238D01*
X81703Y154253D01*
X81777Y154297D01*
X81850Y154349D01*
X81858Y154356D01*
X81873Y154364D01*
X81902Y154378D01*
X81932Y154400D01*
X82013Y154452D01*
X82094Y154496D01*
X82101D01*
X82116Y154504D01*
X82138Y154518D01*
X82168Y154526D01*
X82234Y154548D01*
X82308Y154555D01*
X82323D01*
X82352Y154548D01*
X82389Y154541D01*
X82419Y154511D01*
X82426Y154504D01*
X82433Y154481D01*
X82441Y154452D01*
Y154415D01*
Y154408D01*
Y154400D01*
Y154356D01*
Y154341D01*
Y154319D01*
Y154312D01*
X82433Y154304D01*
X82426Y154260D01*
X82404Y154201D01*
X82367Y154127D01*
Y154120D01*
X82360Y154113D01*
X82330Y154076D01*
X82286Y154024D01*
X82227Y153972D01*
X82219D01*
X82212Y153958D01*
X82190Y153943D01*
X82160Y153928D01*
X82087Y153869D01*
X81991Y153810D01*
X81880Y153744D01*
X81747Y153670D01*
X81614Y153603D01*
X81467Y153552D01*
X81459D01*
X81452Y153544D01*
X81430D01*
X81400Y153537D01*
X81319Y153515D01*
X81216Y153493D01*
X81090Y153471D01*
X80950Y153456D01*
X80795Y153441D01*
X80633Y153434D01*
X80574D01*
X80507Y153441D01*
X80426Y153448D01*
X80404D01*
X80382Y153456D01*
X80352D01*
X80278Y153471D01*
X80190Y153485D01*
X80183D01*
X80168Y153493D01*
X80146D01*
X80109Y153507D01*
X80035Y153530D01*
X79939Y153566D01*
X79932D01*
X79917Y153581D01*
X79895Y153596D01*
X79865Y153611D01*
X79799Y153662D01*
X79725Y153729D01*
X79718Y153736D01*
X79710Y153751D01*
X79688Y153773D01*
X79673Y153803D01*
X79622Y153876D01*
X79570Y153980D01*
Y153987D01*
X79563Y154009D01*
X79555Y154039D01*
X79540Y154083D01*
X79533Y154135D01*
X79518Y154194D01*
X79511Y154260D01*
Y154334D01*
Y154341D01*
Y154364D01*
Y154400D01*
X79518Y154445D01*
Y154504D01*
X79533Y154563D01*
X79555Y154710D01*
X79548D01*
X79526Y154718D01*
X79496Y154733D01*
X79467Y154755D01*
X79459Y154762D01*
X79452Y154784D01*
X79437Y154828D01*
X79430Y154880D01*
Y154887D01*
Y154910D01*
X79437Y154932D01*
Y154969D01*
X79467Y155057D01*
X79482Y155102D01*
X79511Y155138D01*
X79518Y155146D01*
X79526Y155153D01*
X79570Y155197D01*
X79637Y155242D01*
X79681Y155264D01*
X79725Y155279D01*
Y155286D01*
X79732Y155293D01*
X79755Y155338D01*
X79799Y155404D01*
X79851Y155493D01*
X79858Y155500D01*
X79865Y155515D01*
X79880Y155544D01*
X79909Y155581D01*
X79969Y155670D01*
X80050Y155780D01*
X80057Y155788D01*
X80072Y155810D01*
X80101Y155840D01*
X80131Y155884D01*
X80220Y155980D01*
X80330Y156098D01*
X80338Y156105D01*
X80360Y156127D01*
X80389Y156157D01*
X80433Y156194D01*
X80478Y156238D01*
X80537Y156290D01*
X80670Y156393D01*
X80677Y156400D01*
X80707Y156415D01*
X80743Y156437D01*
X80795Y156467D01*
X80854Y156504D01*
X80921Y156541D01*
X81076Y156607D01*
X81083Y156614D01*
X81112Y156622D01*
X81157Y156637D01*
X81216Y156651D01*
X81290Y156666D01*
X81363Y156673D01*
X81452Y156688D01*
X81614D01*
X81666Y156681D01*
D02*
G37*
G36*
X107193Y152880D02*
X107230Y152865D01*
X107267Y152836D01*
X107275Y152828D01*
X107289Y152799D01*
X107304Y152755D01*
X107311Y152703D01*
Y152696D01*
Y152666D01*
X107304Y152622D01*
X107289Y152577D01*
Y152570D01*
X107275Y152541D01*
X107260Y152496D01*
X107230Y152459D01*
X107223Y152452D01*
X107208Y152422D01*
X107179Y152393D01*
X107142Y152364D01*
X107134Y152356D01*
X107112Y152349D01*
X107075Y152334D01*
X107031Y152327D01*
X106544D01*
X106419Y152319D01*
X106286D01*
X106145Y152312D01*
X106079D01*
X106005Y152304D01*
X105917D01*
X105799Y152297D01*
X105673D01*
X105533Y152290D01*
X105171D01*
X105068Y152297D01*
X104943D01*
X104817Y152304D01*
X104684Y152312D01*
X104625D01*
X104551Y152319D01*
X104352D01*
X104234Y152327D01*
X103954D01*
X103924Y152334D01*
X103880Y152356D01*
X103843Y152393D01*
X103835Y152408D01*
X103821Y152437D01*
X103806Y152489D01*
X103799Y152548D01*
Y152555D01*
Y152585D01*
X103806Y152622D01*
X103821Y152666D01*
X103828Y152673D01*
X103835Y152703D01*
X103858Y152740D01*
X103887Y152777D01*
X103894Y152784D01*
X103917Y152806D01*
X103946Y152836D01*
X103990Y152858D01*
X104005Y152865D01*
X104035Y152873D01*
X104086Y152880D01*
X104153Y152887D01*
X104382D01*
X104470Y152880D01*
X104662Y152873D01*
X104706D01*
X104765Y152865D01*
X104839D01*
X104928Y152858D01*
X105024D01*
X105134Y152851D01*
X105954D01*
X106050Y152858D01*
X106101D01*
X106138Y152865D01*
X106234D01*
X106330Y152873D01*
X106500D01*
X106596Y152880D01*
X106640D01*
X106669Y152887D01*
X107164D01*
X107193Y152880D01*
D02*
G37*
G36*
X92396Y157020D02*
X92463Y157013D01*
X92537Y156991D01*
X92618Y156969D01*
X92699Y156932D01*
X92773Y156887D01*
X92780Y156880D01*
X92802Y156865D01*
X92839Y156828D01*
X92884Y156784D01*
X92935Y156732D01*
X92987Y156666D01*
X93039Y156592D01*
X93083Y156504D01*
X93090Y156489D01*
X93112Y156452D01*
X93134Y156408D01*
X93157Y156349D01*
X93164Y156334D01*
X93179Y156304D01*
X93201Y156253D01*
X93216Y156186D01*
X93223Y156172D01*
X93230Y156135D01*
X93238Y156076D01*
X93253Y156009D01*
Y156002D01*
Y155994D01*
X93260Y155972D01*
Y155943D01*
X93267Y155876D01*
Y155788D01*
Y155773D01*
Y155736D01*
X93260Y155684D01*
Y155611D01*
X93245Y155522D01*
X93230Y155426D01*
X93208Y155323D01*
X93179Y155212D01*
X93171Y155197D01*
X93164Y155160D01*
X93142Y155102D01*
X93112Y155028D01*
X93076Y154939D01*
X93031Y154843D01*
X92980Y154740D01*
X92921Y154637D01*
X92913Y154622D01*
X92891Y154592D01*
X92854Y154533D01*
X92810Y154467D01*
X92751Y154386D01*
X92684Y154297D01*
X92611Y154201D01*
X92522Y154105D01*
X92515Y154098D01*
X92485Y154061D01*
X92433Y154017D01*
X92374Y153958D01*
X92293Y153884D01*
X92205Y153810D01*
X92109Y153729D01*
X92005Y153648D01*
X91998Y153640D01*
X91969Y153626D01*
X91932Y153596D01*
X91880Y153566D01*
X91813Y153537D01*
X91747Y153500D01*
X91666Y153463D01*
X91577Y153434D01*
X91570D01*
X91533Y153419D01*
X91489Y153411D01*
X91422Y153397D01*
X91348Y153382D01*
X91260Y153375D01*
X91157Y153360D01*
X91009D01*
X90957Y153367D01*
X90891D01*
X90817Y153375D01*
X90736Y153389D01*
X90574Y153434D01*
X90566D01*
X90544Y153448D01*
X90507Y153463D01*
X90456Y153485D01*
X90352Y153544D01*
X90241Y153633D01*
X90234Y153640D01*
X90219Y153655D01*
X90197Y153684D01*
X90168Y153729D01*
X90138Y153773D01*
X90101Y153832D01*
X90042Y153958D01*
Y153965D01*
X90035Y153995D01*
X90020Y154031D01*
X90013Y154083D01*
X89998Y154149D01*
X89983Y154216D01*
X89976Y154297D01*
Y154386D01*
Y154393D01*
Y154422D01*
Y154467D01*
X89983Y154526D01*
X89991Y154600D01*
X89998Y154681D01*
X90013Y154769D01*
X90035Y154865D01*
Y154873D01*
X90050Y154902D01*
X90057Y154946D01*
X90079Y155006D01*
X90101Y155079D01*
X90131Y155153D01*
X90205Y155330D01*
X90212Y155345D01*
X90227Y155375D01*
X90249Y155419D01*
X90286Y155485D01*
X90323Y155559D01*
X90374Y155640D01*
X90433Y155729D01*
X90500Y155825D01*
X90507Y155840D01*
X90529Y155869D01*
X90574Y155913D01*
X90625Y155980D01*
X90684Y156053D01*
X90758Y156135D01*
X90847Y156223D01*
X90935Y156312D01*
X90950Y156326D01*
X90979Y156356D01*
X91039Y156400D01*
X91105Y156459D01*
X91194Y156526D01*
X91297Y156607D01*
X91408Y156681D01*
X91533Y156762D01*
X91540Y156769D01*
X91570Y156784D01*
X91622Y156806D01*
X91695Y156836D01*
X91703D01*
X91717Y156843D01*
X91740Y156851D01*
X91769Y156858D01*
X91836Y156873D01*
X91924Y156880D01*
X91932Y156887D01*
X91954Y156902D01*
X91983Y156924D01*
X92027Y156954D01*
X92079Y156983D01*
X92146Y157006D01*
X92219Y157020D01*
X92301Y157028D01*
X92345D01*
X92396Y157020D01*
D02*
G37*
G36*
X95186Y157064D02*
X95260Y157050D01*
X95334Y157013D01*
X95341D01*
X95349Y157006D01*
X95378Y156969D01*
X95407Y156917D01*
X95422Y156880D01*
Y156836D01*
Y156828D01*
Y156821D01*
X95415Y156799D01*
Y156791D01*
X95407Y156784D01*
X95393Y156740D01*
X95230Y156363D01*
X95238Y156371D01*
X95260Y156386D01*
X95289Y156408D01*
X95326Y156437D01*
X95378Y156474D01*
X95430Y156511D01*
X95548Y156600D01*
X95555Y156607D01*
X95577Y156622D01*
X95607Y156644D01*
X95651Y156673D01*
X95703Y156703D01*
X95754Y156740D01*
X95880Y156814D01*
X95887Y156821D01*
X95909Y156828D01*
X95946Y156851D01*
X95983Y156873D01*
X96035Y156895D01*
X96094Y156917D01*
X96219Y156969D01*
X96227D01*
X96249Y156976D01*
X96286Y156991D01*
X96330Y156998D01*
X96382Y157013D01*
X96441Y157020D01*
X96566Y157028D01*
X96625D01*
X96684Y157020D01*
X96766Y157006D01*
X96854Y156983D01*
X96943Y156947D01*
X97024Y156902D01*
X97105Y156843D01*
X97112Y156836D01*
X97135Y156806D01*
X97164Y156762D01*
X97201Y156703D01*
X97238Y156622D01*
X97267Y156526D01*
X97289Y156408D01*
X97297Y156275D01*
Y156267D01*
Y156238D01*
X97289Y156186D01*
Y156127D01*
X97275Y156053D01*
X97260Y155965D01*
X97245Y155869D01*
X97216Y155766D01*
Y155751D01*
X97201Y155714D01*
X97186Y155662D01*
X97164Y155588D01*
X97135Y155493D01*
X97105Y155389D01*
X97068Y155279D01*
X97024Y155160D01*
X97016Y155146D01*
X97002Y155102D01*
X96979Y155042D01*
X96950Y154954D01*
X96913Y154850D01*
X96869Y154740D01*
X96825Y154614D01*
X96773Y154481D01*
Y154474D01*
X96766Y154467D01*
X96751Y154422D01*
X96729Y154349D01*
X96692Y154260D01*
X96655Y154149D01*
X96618Y154024D01*
X96574Y153899D01*
X96529Y153758D01*
Y153751D01*
X96522Y153744D01*
X96507Y153699D01*
X96485Y153640D01*
X96456Y153589D01*
X96448Y153581D01*
X96433Y153552D01*
X96411Y153515D01*
X96382Y153485D01*
X96374Y153478D01*
X96352Y153463D01*
X96315Y153448D01*
X96271Y153434D01*
X96264D01*
X96234Y153426D01*
X96182Y153419D01*
X96123Y153411D01*
X96079D01*
X96050Y153419D01*
X95983Y153434D01*
X95946Y153448D01*
X95924Y153463D01*
X95917Y153471D01*
X95902Y153500D01*
X95880Y153544D01*
X95872Y153618D01*
Y153626D01*
Y153640D01*
Y153655D01*
X95880Y153684D01*
X95887Y153766D01*
X95902Y153862D01*
Y153869D01*
X95909Y153891D01*
X95917Y153921D01*
X95924Y153958D01*
X95932Y154002D01*
X95946Y154061D01*
X95983Y154179D01*
Y154186D01*
X95991Y154209D01*
X96005Y154245D01*
X96020Y154290D01*
X96042Y154349D01*
X96064Y154415D01*
X96116Y154555D01*
Y154563D01*
X96131Y154592D01*
X96145Y154629D01*
X96168Y154681D01*
X96190Y154740D01*
X96219Y154806D01*
X96278Y154954D01*
Y154961D01*
X96293Y154983D01*
X96301Y155013D01*
X96323Y155057D01*
X96337Y155109D01*
X96360Y155168D01*
X96411Y155286D01*
Y155293D01*
X96426Y155315D01*
X96433Y155345D01*
X96448Y155389D01*
X96492Y155485D01*
X96529Y155603D01*
Y155611D01*
X96537Y155633D01*
X96544Y155662D01*
X96559Y155699D01*
X96588Y155795D01*
X96610Y155898D01*
Y155906D01*
X96618Y155921D01*
X96625Y155950D01*
X96633Y155987D01*
X96640Y156068D01*
X96647Y156157D01*
Y156164D01*
Y156179D01*
X96640Y156223D01*
X96625Y156282D01*
X96596Y156349D01*
Y156356D01*
X96588Y156363D01*
X96559Y156393D01*
X96500Y156422D01*
X96463Y156437D01*
X96374D01*
X96337Y156430D01*
X96249Y156415D01*
X96145Y156378D01*
X96138D01*
X96123Y156371D01*
X96094Y156356D01*
X96057Y156334D01*
X95961Y156282D01*
X95850Y156216D01*
X95843Y156209D01*
X95821Y156201D01*
X95791Y156179D01*
X95754Y156149D01*
X95703Y156113D01*
X95651Y156076D01*
X95533Y155987D01*
X95526Y155980D01*
X95503Y155965D01*
X95474Y155943D01*
X95437Y155906D01*
X95334Y155825D01*
X95223Y155729D01*
X95208Y155714D01*
X95179Y155684D01*
X95127Y155640D01*
X95075Y155596D01*
X95061Y155588D01*
X95031Y155566D01*
X94987Y155537D01*
X94935Y155515D01*
X94928Y155500D01*
X94906Y155456D01*
X94869Y155389D01*
X94824Y155301D01*
Y155293D01*
X94817Y155279D01*
X94802Y155249D01*
X94795Y155212D01*
X94773Y155168D01*
X94758Y155124D01*
X94714Y155006D01*
Y154998D01*
X94706Y154976D01*
X94692Y154946D01*
X94684Y154910D01*
X94670Y154858D01*
X94647Y154806D01*
X94611Y154681D01*
Y154673D01*
X94603Y154651D01*
X94596Y154622D01*
X94588Y154585D01*
X94559Y154481D01*
X94537Y154371D01*
Y154356D01*
X94522Y154327D01*
X94515Y154275D01*
X94500Y154223D01*
Y154209D01*
X94492Y154179D01*
X94485Y154135D01*
X94478Y154076D01*
Y154061D01*
X94470Y154024D01*
X94463Y153965D01*
X94448Y153899D01*
Y153891D01*
Y153884D01*
X94433Y153840D01*
X94419Y153773D01*
X94397Y153692D01*
Y153684D01*
X94382Y153655D01*
X94367Y153618D01*
X94337Y153581D01*
X94330Y153574D01*
X94315Y153559D01*
X94286Y153544D01*
X94256Y153522D01*
X94249D01*
X94234Y153515D01*
X94205Y153507D01*
X94175Y153500D01*
X94072D01*
X94042Y153507D01*
X93968Y153522D01*
X93895Y153559D01*
X93880Y153574D01*
X93865Y153589D01*
X93850Y153611D01*
X93836Y153648D01*
X93821Y153684D01*
X93814Y153736D01*
X93806Y153803D01*
Y153810D01*
Y153832D01*
Y153869D01*
Y153906D01*
Y153913D01*
X93814Y153943D01*
X93821Y153987D01*
X93836Y154031D01*
Y154039D01*
Y154046D01*
X93850Y154090D01*
X93865Y154157D01*
X93880Y154238D01*
X93902Y154334D01*
X93932Y154430D01*
X93983Y154644D01*
Y154659D01*
X93998Y154688D01*
X94013Y154740D01*
X94028Y154806D01*
X94050Y154887D01*
X94079Y154969D01*
X94131Y155146D01*
X94138Y155153D01*
X94146Y155183D01*
X94160Y155234D01*
X94182Y155293D01*
X94205Y155360D01*
X94234Y155434D01*
X94286Y155588D01*
Y155596D01*
X94301Y155625D01*
X94315Y155662D01*
X94330Y155721D01*
X94360Y155780D01*
X94382Y155847D01*
X94441Y156002D01*
X94448Y156009D01*
X94455Y156039D01*
X94470Y156083D01*
X94492Y156135D01*
X94515Y156201D01*
X94544Y156275D01*
X94611Y156437D01*
X94618Y156445D01*
X94625Y156474D01*
X94647Y156518D01*
X94670Y156585D01*
X94699Y156659D01*
X94729Y156740D01*
X94766Y156836D01*
X94802Y156932D01*
X94810Y156939D01*
X94824Y156969D01*
X94861Y156998D01*
X94913Y157028D01*
X94920D01*
X94928Y157035D01*
X94972Y157050D01*
X95031Y157064D01*
X95105Y157072D01*
X95157D01*
X95186Y157064D01*
D02*
G37*
G36*
X117289Y158710D02*
X117348Y158695D01*
X117407Y158666D01*
X117415Y158659D01*
X117444Y158629D01*
X117452Y158600D01*
X117466Y158570D01*
X117474Y158526D01*
Y158474D01*
Y158467D01*
Y158445D01*
X117466Y158408D01*
X117459Y158371D01*
X117444Y158319D01*
X117422Y158275D01*
X117393Y158223D01*
X117356Y158179D01*
X117348Y158171D01*
X117333Y158164D01*
X117311Y158142D01*
X117274Y158127D01*
X117230Y158105D01*
X117178Y158083D01*
X117120Y158076D01*
X117053Y158068D01*
X116706D01*
X116566Y158061D01*
X116411D01*
X116241Y158054D01*
X116057D01*
X115865Y158046D01*
X115666Y158039D01*
X115459Y158031D01*
X115046Y158002D01*
X114640Y157972D01*
Y157965D01*
X114625Y157943D01*
X114610Y157913D01*
X114595Y157869D01*
X114566Y157817D01*
X114544Y157751D01*
X114507Y157677D01*
X114478Y157589D01*
X114441Y157500D01*
X114404Y157397D01*
X114322Y157175D01*
X114241Y156932D01*
X114167Y156673D01*
X114175D01*
X114190Y156681D01*
X114219Y156695D01*
X114256Y156710D01*
X114300Y156725D01*
X114352Y156747D01*
X114418Y156762D01*
X114485Y156784D01*
X114640Y156828D01*
X114817Y156858D01*
X115009Y156887D01*
X115216Y156895D01*
X115289D01*
X115341Y156887D01*
X115400Y156880D01*
X115474Y156873D01*
X115555Y156858D01*
X115644Y156843D01*
X115828Y156784D01*
X115931Y156755D01*
X116027Y156710D01*
X116131Y156659D01*
X116226Y156600D01*
X116315Y156533D01*
X116404Y156452D01*
X116411Y156445D01*
X116426Y156430D01*
X116448Y156408D01*
X116477Y156371D01*
X116507Y156334D01*
X116551Y156282D01*
X116588Y156223D01*
X116632Y156157D01*
X116714Y156009D01*
X116787Y155832D01*
X116817Y155736D01*
X116839Y155640D01*
X116854Y155537D01*
X116861Y155426D01*
Y155419D01*
Y155389D01*
X116854Y155345D01*
Y155286D01*
X116839Y155212D01*
X116824Y155124D01*
X116809Y155035D01*
X116780Y154932D01*
X116743Y154821D01*
X116706Y154710D01*
X116647Y154592D01*
X116588Y154474D01*
X116514Y154356D01*
X116426Y154238D01*
X116330Y154127D01*
X116212Y154024D01*
X116204Y154017D01*
X116182Y154002D01*
X116145Y153972D01*
X116094Y153935D01*
X116027Y153899D01*
X115946Y153854D01*
X115858Y153803D01*
X115747Y153751D01*
X115629Y153699D01*
X115496Y153648D01*
X115356Y153603D01*
X115201Y153566D01*
X115031Y153530D01*
X114854Y153500D01*
X114662Y153485D01*
X114463Y153478D01*
X114389D01*
X114337Y153485D01*
X114271Y153493D01*
X114197Y153500D01*
X114116Y153507D01*
X114020Y153522D01*
X113821Y153566D01*
X113607Y153633D01*
X113496Y153670D01*
X113393Y153721D01*
X113289Y153773D01*
X113186Y153840D01*
X113179Y153847D01*
X113164Y153854D01*
X113142Y153876D01*
X113105Y153906D01*
X113024Y153972D01*
X112928Y154068D01*
X112832Y154179D01*
X112750Y154304D01*
X112714Y154371D01*
X112691Y154437D01*
X112677Y154511D01*
X112669Y154578D01*
Y154585D01*
Y154607D01*
X112677Y154637D01*
X112684Y154673D01*
X112706Y154769D01*
X112728Y154814D01*
X112758Y154865D01*
X112765Y154873D01*
X112773Y154887D01*
X112817Y154932D01*
X112891Y154969D01*
X112935Y154983D01*
X112979Y154991D01*
X113024D01*
X113068Y154983D01*
X113119Y154976D01*
X113171Y154954D01*
X113223Y154932D01*
X113267Y154895D01*
X113297Y154850D01*
X113304Y154843D01*
X113311Y154821D01*
X113334Y154784D01*
X113363Y154733D01*
X113400Y154673D01*
X113444Y154607D01*
X113503Y154541D01*
X113577Y154474D01*
X113658Y154400D01*
X113747Y154334D01*
X113857Y154268D01*
X113976Y154209D01*
X114109Y154164D01*
X114256Y154120D01*
X114426Y154098D01*
X114603Y154090D01*
X114669D01*
X114721Y154098D01*
X114780Y154105D01*
X114847Y154113D01*
X114920Y154127D01*
X115001Y154142D01*
X115186Y154186D01*
X115370Y154260D01*
X115466Y154304D01*
X115562Y154356D01*
X115651Y154422D01*
X115732Y154489D01*
X115739Y154496D01*
X115754Y154504D01*
X115769Y154526D01*
X115798Y154555D01*
X115835Y154600D01*
X115872Y154637D01*
X115954Y154747D01*
X116027Y154880D01*
X116101Y155028D01*
X116131Y155102D01*
X116145Y155190D01*
X116160Y155271D01*
X116167Y155360D01*
Y155367D01*
Y155375D01*
Y155397D01*
X116160Y155426D01*
X116153Y155500D01*
X116138Y155596D01*
X116101Y155699D01*
X116057Y155810D01*
X115990Y155913D01*
X115902Y156017D01*
X115887Y156031D01*
X115850Y156061D01*
X115791Y156098D01*
X115702Y156149D01*
X115585Y156194D01*
X115444Y156238D01*
X115267Y156267D01*
X115171Y156275D01*
X115016D01*
X114957Y156267D01*
X114869Y156260D01*
X114765Y156238D01*
X114640Y156216D01*
X114500Y156179D01*
X114337Y156135D01*
X114330D01*
X114322Y156127D01*
X114278Y156120D01*
X114212Y156098D01*
X114131Y156076D01*
X114042Y156053D01*
X113946Y156039D01*
X113857Y156024D01*
X113776Y156017D01*
X113754D01*
X113732Y156024D01*
X113710Y156031D01*
X113636Y156053D01*
X113607Y156076D01*
X113570Y156105D01*
Y156113D01*
X113555Y156120D01*
X113540Y156142D01*
X113525Y156172D01*
X113496Y156238D01*
X113488Y156282D01*
X113481Y156326D01*
Y156334D01*
Y156371D01*
X113488Y156422D01*
X113503Y156504D01*
X113525Y156614D01*
X113540Y156681D01*
X113555Y156747D01*
X113577Y156828D01*
X113599Y156917D01*
X113629Y157013D01*
X113658Y157116D01*
Y157124D01*
X113666Y157138D01*
X113673Y157168D01*
X113688Y157212D01*
X113703Y157256D01*
X113725Y157316D01*
X113762Y157441D01*
X113813Y157574D01*
X113865Y157714D01*
X113924Y157847D01*
X113976Y157965D01*
X113983Y157980D01*
X113998Y158009D01*
X114027Y158061D01*
X114064Y158120D01*
X114153Y158260D01*
X114197Y158326D01*
X114249Y158386D01*
X114256Y158393D01*
X114271Y158408D01*
X114293Y158437D01*
X114330Y158467D01*
X114404Y158526D01*
X114448Y158548D01*
X114485Y158563D01*
X114492D01*
X114514Y158570D01*
X114536D01*
X114566Y158577D01*
X114610D01*
X114655Y158585D01*
X114714Y158592D01*
X114787Y158600D01*
X114876Y158607D01*
X114972Y158614D01*
X115090Y158622D01*
X115223Y158629D01*
X115370Y158644D01*
X115540Y158651D01*
X115585D01*
X115636Y158659D01*
X115702D01*
X115784Y158666D01*
X115880Y158673D01*
X115990Y158681D01*
X116108Y158688D01*
X116234D01*
X116367Y158695D01*
X116647Y158710D01*
X116935Y158718D01*
X117260D01*
X117289Y158710D01*
D02*
G37*
G36*
X102433Y156947D02*
X102485Y156939D01*
X102537Y156910D01*
X102551Y156902D01*
X102574Y156880D01*
X102603Y156851D01*
X102633Y156799D01*
X102640Y156784D01*
X102655Y156755D01*
X102670Y156703D01*
X102677Y156644D01*
Y156629D01*
X102684Y156592D01*
X102692Y156533D01*
Y156467D01*
Y156459D01*
Y156437D01*
Y156400D01*
X102684Y156356D01*
Y156349D01*
Y156319D01*
Y156290D01*
Y156260D01*
X102692Y156267D01*
X102699Y156275D01*
X102721Y156297D01*
X102751Y156326D01*
X102817Y156393D01*
X102898Y156467D01*
X102906Y156474D01*
X102920Y156489D01*
X102943Y156504D01*
X102972Y156533D01*
X103046Y156600D01*
X103134Y156666D01*
X103142Y156673D01*
X103156Y156681D01*
X103186Y156695D01*
X103216Y156718D01*
X103304Y156769D01*
X103408Y156814D01*
X103415D01*
X103430Y156821D01*
X103459Y156836D01*
X103496Y156843D01*
X103592Y156865D01*
X103703Y156873D01*
X103740D01*
X103777Y156865D01*
X103821Y156858D01*
X103828D01*
X103858Y156851D01*
X103894Y156843D01*
X103939Y156828D01*
X103954D01*
X103983Y156821D01*
X104035Y156806D01*
X104086Y156784D01*
X104094D01*
X104101Y156777D01*
X104138Y156762D01*
X104190Y156732D01*
X104241Y156695D01*
X104249Y156688D01*
X104263Y156681D01*
X104308Y156637D01*
X104374Y156563D01*
X104433Y156474D01*
X104441Y156467D01*
X104448Y156452D01*
X104463Y156422D01*
X104478Y156393D01*
X104500Y156304D01*
X104515Y156253D01*
Y156201D01*
Y156194D01*
Y156164D01*
X104507Y156127D01*
X104492Y156083D01*
Y156076D01*
X104478Y156046D01*
X104463Y156009D01*
X104433Y155972D01*
X104426Y155965D01*
X104411Y155943D01*
X104382Y155913D01*
X104345Y155884D01*
X104337Y155876D01*
X104315Y155869D01*
X104286Y155862D01*
X104241Y155854D01*
X104227D01*
X104197Y155862D01*
X104146Y155869D01*
X104086Y155884D01*
X104072Y155891D01*
X104042Y155906D01*
X103990Y155928D01*
X103946Y155965D01*
X103939D01*
X103931Y155980D01*
X103909Y155994D01*
X103887Y156017D01*
Y156024D01*
X103872Y156046D01*
X103843Y156098D01*
Y156105D01*
X103828Y156127D01*
X103799Y156172D01*
Y156179D01*
X103791Y156194D01*
X103784Y156209D01*
X103769Y156216D01*
X103762Y156223D01*
X103658D01*
X103621Y156216D01*
X103577Y156209D01*
X103525Y156201D01*
X103466Y156186D01*
X103408Y156157D01*
X103341Y156127D01*
X103334Y156120D01*
X103312Y156113D01*
X103282Y156090D01*
X103245Y156068D01*
X103142Y155994D01*
X103031Y155906D01*
X103024Y155898D01*
X103009Y155884D01*
X102979Y155854D01*
X102950Y155817D01*
X102861Y155729D01*
X102773Y155618D01*
X102765Y155611D01*
X102751Y155596D01*
X102728Y155566D01*
X102706Y155529D01*
X102633Y155441D01*
X102566Y155345D01*
Y155330D01*
X102551Y155293D01*
X102537Y155234D01*
X102522Y155160D01*
X102492Y155065D01*
X102470Y154961D01*
X102433Y154850D01*
X102404Y154725D01*
X102396Y154710D01*
X102389Y154666D01*
X102374Y154607D01*
X102352Y154518D01*
X102323Y154415D01*
X102293Y154304D01*
X102264Y154179D01*
X102234Y154046D01*
Y153958D01*
Y153950D01*
Y153935D01*
Y153913D01*
Y153891D01*
Y153817D01*
X102227Y153736D01*
Y153729D01*
Y153721D01*
X102219Y153670D01*
X102205Y153603D01*
X102182Y153537D01*
X102175Y153530D01*
X102153Y153507D01*
X102123Y153485D01*
X102072Y153456D01*
X102057Y153448D01*
X102020Y153441D01*
X101968Y153426D01*
X101902Y153419D01*
X101880D01*
X101850Y153426D01*
X101813Y153434D01*
X101740Y153463D01*
X101703Y153485D01*
X101673Y153515D01*
Y153522D01*
X101658Y153530D01*
X101651Y153552D01*
X101636Y153581D01*
X101614Y153648D01*
X101599Y153736D01*
Y153751D01*
Y153780D01*
X101607Y153817D01*
X101614Y153862D01*
Y153876D01*
X101621Y153906D01*
X101636Y153958D01*
X101651Y154024D01*
X101666Y154105D01*
X101681Y154201D01*
X101703Y154304D01*
X101725Y154415D01*
Y154430D01*
X101732Y154467D01*
X101747Y154526D01*
X101762Y154607D01*
X101777Y154696D01*
X101799Y154799D01*
X101843Y155020D01*
Y155035D01*
X101858Y155072D01*
X101865Y155131D01*
X101887Y155212D01*
X101902Y155308D01*
X101924Y155404D01*
X101968Y155625D01*
Y155640D01*
X101983Y155677D01*
X101990Y155736D01*
X102005Y155810D01*
X102027Y155891D01*
X102042Y155987D01*
X102079Y156172D01*
Y156179D01*
Y156194D01*
X102072Y156231D01*
Y156238D01*
Y156253D01*
Y156297D01*
Y156304D01*
Y156319D01*
Y156341D01*
Y156363D01*
X102079Y156437D01*
X102086Y156518D01*
Y156526D01*
Y156541D01*
X102101Y156585D01*
X102109Y156651D01*
X102131Y156718D01*
Y156725D01*
X102138Y156740D01*
X102146Y156762D01*
X102153Y156791D01*
X102182Y156858D01*
X102197Y156880D01*
X102212Y156902D01*
X102219Y156910D01*
X102249Y156932D01*
X102301Y156947D01*
X102374Y156954D01*
X102389D01*
X102433Y156947D01*
D02*
G37*
G36*
X85098Y156976D02*
X85186Y156969D01*
X85208D01*
X85230Y156961D01*
X85260D01*
X85334Y156947D01*
X85415Y156924D01*
X85422D01*
X85430Y156917D01*
X85474Y156895D01*
X85533Y156858D01*
X85585Y156806D01*
X85599Y156791D01*
X85622Y156755D01*
X85644Y156688D01*
X85659Y156600D01*
Y156592D01*
Y156570D01*
X85651Y156541D01*
X85644Y156496D01*
Y156489D01*
X85636Y156459D01*
X85629Y156415D01*
X85614Y156371D01*
X85607Y156363D01*
X85599Y156334D01*
X85577Y156297D01*
X85555Y156260D01*
X85548Y156253D01*
X85533Y156238D01*
X85504Y156223D01*
X85467Y156216D01*
X85452D01*
X85422Y156223D01*
X85371Y156231D01*
X85326Y156245D01*
X85319Y156253D01*
X85297Y156267D01*
X85267Y156290D01*
X85230Y156312D01*
X85223Y156319D01*
X85208Y156334D01*
X85179Y156356D01*
X85142Y156378D01*
X85135Y156386D01*
X85112Y156400D01*
X85075Y156408D01*
X85031Y156415D01*
X84980D01*
X84913Y156400D01*
X84839Y156386D01*
X84832D01*
X84817Y156378D01*
X84795Y156371D01*
X84773Y156363D01*
X84699Y156341D01*
X84611Y156304D01*
X84603D01*
X84588Y156297D01*
X84566Y156282D01*
X84544Y156267D01*
X84470Y156231D01*
X84389Y156179D01*
X84382D01*
X84374Y156164D01*
X84330Y156135D01*
X84264Y156090D01*
X84197Y156039D01*
X84183Y156024D01*
X84146Y155994D01*
X84101Y155950D01*
X84050Y155898D01*
X84042Y155891D01*
X84028Y155862D01*
X84005Y155817D01*
X83998Y155773D01*
Y155766D01*
X84005Y155736D01*
X84013Y155707D01*
X84035Y155670D01*
X84042Y155662D01*
X84065Y155648D01*
X84094Y155633D01*
X84138Y155611D01*
X84146D01*
X84153Y155603D01*
X84190Y155581D01*
X84249Y155552D01*
X84315Y155522D01*
X84323D01*
X84330Y155515D01*
X84382Y155493D01*
X84448Y155463D01*
X84522Y155434D01*
X84529D01*
X84544Y155426D01*
X84559Y155419D01*
X84588Y155404D01*
X84655Y155375D01*
X84729Y155345D01*
X84736D01*
X84743Y155338D01*
X84788Y155323D01*
X84839Y155301D01*
X84898Y155271D01*
X84906D01*
X84913Y155264D01*
X84957Y155242D01*
X85009Y155205D01*
X85068Y155168D01*
X85075D01*
X85083Y155160D01*
X85112Y155138D01*
X85157Y155109D01*
X85201Y155065D01*
X85208Y155057D01*
X85230Y155028D01*
X85260Y154991D01*
X85282Y154939D01*
X85290Y154924D01*
X85297Y154887D01*
X85304Y154836D01*
X85312Y154769D01*
Y154762D01*
Y154740D01*
Y154710D01*
X85304Y154673D01*
Y154666D01*
X85297Y154644D01*
X85290Y154614D01*
X85282Y154570D01*
Y154563D01*
X85275Y154533D01*
X85267Y154496D01*
X85245Y154445D01*
X85238Y154430D01*
X85230Y154400D01*
X85208Y154349D01*
X85186Y154297D01*
X85179Y154290D01*
X85172Y154260D01*
X85149Y154216D01*
X85127Y154172D01*
X85120Y154164D01*
X85112Y154142D01*
X85090Y154120D01*
X85075Y154105D01*
X85068Y154098D01*
X85053Y154083D01*
X85024Y154061D01*
X84980Y154024D01*
X84935Y153987D01*
X84876Y153950D01*
X84743Y153862D01*
X84736Y153854D01*
X84714Y153847D01*
X84670Y153825D01*
X84625Y153795D01*
X84559Y153766D01*
X84492Y153729D01*
X84345Y153662D01*
X84338D01*
X84308Y153648D01*
X84271Y153633D01*
X84219Y153618D01*
X84160Y153596D01*
X84087Y153574D01*
X83939Y153537D01*
X83932D01*
X83902Y153530D01*
X83865Y153522D01*
X83814Y153515D01*
X83754Y153507D01*
X83696Y153500D01*
X83563Y153493D01*
X83548D01*
X83504Y153500D01*
X83445Y153507D01*
X83371Y153522D01*
X83363D01*
X83356Y153530D01*
X83312Y153544D01*
X83245Y153566D01*
X83179Y153603D01*
X83164Y153611D01*
X83127Y153640D01*
X83083Y153684D01*
X83031Y153729D01*
X83024Y153744D01*
X83002Y153773D01*
X82980Y153825D01*
X82972Y153876D01*
Y153884D01*
Y153899D01*
X82980Y153928D01*
X82994Y153958D01*
X83002Y153965D01*
X83009Y153987D01*
X83046Y154039D01*
X83053Y154046D01*
X83068Y154061D01*
X83120Y154098D01*
X83127Y154105D01*
X83142Y154113D01*
X83164Y154120D01*
X83186Y154127D01*
X83201D01*
X83238Y154120D01*
X83245D01*
X83253Y154113D01*
X83290Y154105D01*
X83297D01*
X83312Y154098D01*
X83356Y154090D01*
X83385D01*
X83415Y154083D01*
X83511D01*
X83563Y154090D01*
X83614D01*
X83673Y154098D01*
X83821Y154120D01*
X83828D01*
X83858Y154127D01*
X83895Y154135D01*
X83946Y154142D01*
X84005Y154157D01*
X84072Y154172D01*
X84212Y154209D01*
X84219D01*
X84242Y154216D01*
X84279Y154231D01*
X84323Y154245D01*
X84419Y154290D01*
X84522Y154341D01*
X84529D01*
X84544Y154356D01*
X84588Y154386D01*
X84640Y154437D01*
X84662Y154467D01*
X84670Y154496D01*
Y154504D01*
X84677Y154526D01*
X84684Y154570D01*
Y154578D01*
X84677Y154607D01*
X84662Y154644D01*
X84625Y154681D01*
X84618Y154688D01*
X84588Y154718D01*
X84537Y154755D01*
X84478Y154791D01*
X84470D01*
X84463Y154799D01*
X84419Y154821D01*
X84360Y154850D01*
X84279Y154880D01*
X84271D01*
X84264Y154887D01*
X84219Y154910D01*
X84153Y154932D01*
X84087Y154961D01*
X83969Y155013D01*
X83961D01*
X83954Y155020D01*
X83909Y155035D01*
X83851Y155065D01*
X83784Y155102D01*
X83777D01*
X83769Y155109D01*
X83732Y155138D01*
X83673Y155175D01*
X83614Y155219D01*
X83600Y155234D01*
X83570Y155264D01*
X83526Y155315D01*
X83482Y155375D01*
Y155382D01*
X83474Y155389D01*
X83452Y155441D01*
X83422Y155507D01*
X83393Y155588D01*
Y155596D01*
X83385Y155618D01*
X83378Y155655D01*
X83371Y155692D01*
Y155699D01*
Y155721D01*
X83363Y155758D01*
Y155795D01*
Y155803D01*
Y155810D01*
X83371Y155862D01*
X83385Y155928D01*
X83422Y156009D01*
Y156017D01*
X83437Y156031D01*
X83452Y156053D01*
X83467Y156083D01*
X83526Y156157D01*
X83592Y156245D01*
X83600Y156253D01*
X83614Y156267D01*
X83636Y156290D01*
X83666Y156319D01*
X83740Y156386D01*
X83836Y156467D01*
X83843Y156474D01*
X83858Y156489D01*
X83887Y156504D01*
X83924Y156533D01*
X84013Y156592D01*
X84116Y156651D01*
X84123D01*
X84131Y156666D01*
X84183Y156695D01*
X84242Y156740D01*
X84315Y156784D01*
X84323D01*
X84330Y156799D01*
X84382Y156821D01*
X84448Y156858D01*
X84522Y156887D01*
X84529D01*
X84537Y156895D01*
X84588Y156910D01*
X84655Y156932D01*
X84729Y156954D01*
X84736D01*
X84751Y156961D01*
X84773D01*
X84803Y156969D01*
X84869Y156976D01*
X84957Y156983D01*
X85024D01*
X85098Y156976D01*
D02*
G37*
G36*
X110780Y158703D02*
X110839Y158695D01*
X110906Y158688D01*
X110987Y158681D01*
X111068Y158666D01*
X111252Y158622D01*
X111452Y158555D01*
X111548Y158511D01*
X111644Y158459D01*
X111740Y158400D01*
X111828Y158334D01*
X111835Y158326D01*
X111850Y158319D01*
X111872Y158297D01*
X111902Y158267D01*
X111939Y158231D01*
X111976Y158186D01*
X112064Y158083D01*
X112145Y157943D01*
X112219Y157788D01*
X112249Y157699D01*
X112271Y157603D01*
X112286Y157507D01*
X112293Y157404D01*
Y157397D01*
Y157382D01*
Y157360D01*
X112286Y157330D01*
X112278Y157249D01*
X112256Y157146D01*
X112219Y157028D01*
X112168Y156902D01*
X112094Y156769D01*
X111998Y156644D01*
X111983Y156629D01*
X111946Y156592D01*
X111872Y156533D01*
X111784Y156459D01*
X111666Y156378D01*
X111518Y156290D01*
X111348Y156216D01*
X111156Y156142D01*
X111171Y156135D01*
X111208Y156120D01*
X111260Y156090D01*
X111334Y156046D01*
X111407Y155987D01*
X111489Y155913D01*
X111570Y155832D01*
X111644Y155729D01*
X111651Y155714D01*
X111673Y155677D01*
X111703Y155625D01*
X111740Y155552D01*
X111776Y155463D01*
X111806Y155367D01*
X111828Y155264D01*
X111835Y155160D01*
Y155153D01*
Y155131D01*
Y155087D01*
X111828Y155035D01*
X111821Y154969D01*
X111806Y154895D01*
X111784Y154814D01*
X111762Y154725D01*
X111732Y154629D01*
X111695Y154533D01*
X111644Y154430D01*
X111592Y154327D01*
X111525Y154231D01*
X111444Y154127D01*
X111356Y154031D01*
X111252Y153943D01*
X111245Y153935D01*
X111223Y153921D01*
X111193Y153899D01*
X111149Y153869D01*
X111090Y153832D01*
X111016Y153795D01*
X110935Y153751D01*
X110846Y153714D01*
X110743Y153670D01*
X110625Y153626D01*
X110500Y153589D01*
X110367Y153552D01*
X110227Y153522D01*
X110072Y153500D01*
X109909Y153485D01*
X109739Y153478D01*
X109666D01*
X109614Y153485D01*
X109555D01*
X109481Y153500D01*
X109393Y153507D01*
X109304Y153522D01*
X109097Y153566D01*
X108869Y153626D01*
X108640Y153714D01*
X108522Y153773D01*
X108404Y153832D01*
X108396Y153840D01*
X108382Y153847D01*
X108345Y153869D01*
X108308Y153899D01*
X108212Y153965D01*
X108101Y154061D01*
X107990Y154172D01*
X107895Y154304D01*
X107858Y154371D01*
X107828Y154437D01*
X107806Y154511D01*
X107799Y154585D01*
Y154592D01*
Y154607D01*
X107806Y154637D01*
X107813Y154666D01*
X107843Y154747D01*
X107865Y154791D01*
X107895Y154836D01*
X107902Y154843D01*
X107909Y154850D01*
X107931Y154873D01*
X107961Y154895D01*
X108035Y154932D01*
X108079Y154939D01*
X108123Y154946D01*
X108160D01*
X108204Y154939D01*
X108249Y154932D01*
X108300Y154910D01*
X108352Y154887D01*
X108396Y154850D01*
X108433Y154799D01*
X108441Y154791D01*
X108455Y154769D01*
X108477Y154733D01*
X108514Y154688D01*
X108559Y154637D01*
X108610Y154570D01*
X108677Y154511D01*
X108751Y154445D01*
X108839Y154371D01*
X108935Y154312D01*
X109046Y154253D01*
X109171Y154194D01*
X109304Y154149D01*
X109444Y154113D01*
X109599Y154090D01*
X109769Y154083D01*
X109828D01*
X109880Y154090D01*
X109931D01*
X109990Y154098D01*
X110138Y154120D01*
X110300Y154157D01*
X110470Y154201D01*
X110625Y154275D01*
X110773Y154371D01*
X110780D01*
X110787Y154386D01*
X110832Y154422D01*
X110891Y154489D01*
X110957Y154578D01*
X111024Y154681D01*
X111075Y154806D01*
X111120Y154954D01*
X111127Y155028D01*
X111134Y155109D01*
Y155116D01*
Y155146D01*
X111127Y155190D01*
X111120Y155242D01*
X111097Y155308D01*
X111075Y155367D01*
X111038Y155434D01*
X110994Y155500D01*
X110987Y155507D01*
X110972Y155529D01*
X110942Y155559D01*
X110898Y155596D01*
X110846Y155633D01*
X110795Y155670D01*
X110728Y155699D01*
X110655Y155729D01*
X110647D01*
X110618Y155736D01*
X110566Y155751D01*
X110492Y155758D01*
X110389Y155773D01*
X110264Y155780D01*
X110116Y155788D01*
X109909D01*
X109880Y155795D01*
X109850Y155803D01*
X109776Y155832D01*
X109739Y155854D01*
X109703Y155884D01*
Y155891D01*
X109688Y155898D01*
X109680Y155921D01*
X109666Y155950D01*
X109636Y156017D01*
X109629Y156061D01*
X109621Y156105D01*
Y156113D01*
Y156127D01*
X109629Y156142D01*
X109636Y156172D01*
X109666Y156238D01*
X109688Y156275D01*
X109725Y156312D01*
X109732Y156319D01*
X109747Y156326D01*
X109769Y156341D01*
X109806Y156363D01*
X109843Y156378D01*
X109895Y156393D01*
X109953Y156400D01*
X110020Y156408D01*
X110197D01*
X110293Y156400D01*
X110544Y156378D01*
X110559D01*
X110581Y156386D01*
X110610Y156393D01*
X110662Y156408D01*
X110728Y156430D01*
X110810Y156459D01*
X110920Y156504D01*
X110928D01*
X110935Y156511D01*
X110972Y156526D01*
X111031Y156555D01*
X111105Y156600D01*
X111179Y156644D01*
X111260Y156703D01*
X111341Y156777D01*
X111415Y156851D01*
X111422Y156858D01*
X111444Y156887D01*
X111474Y156932D01*
X111511Y156991D01*
X111540Y157064D01*
X111570Y157153D01*
X111592Y157242D01*
X111599Y157345D01*
Y157352D01*
Y157360D01*
X111592Y157397D01*
X111584Y157456D01*
X111562Y157529D01*
X111533Y157618D01*
X111481Y157707D01*
X111415Y157795D01*
X111319Y157876D01*
X111304Y157884D01*
X111267Y157913D01*
X111208Y157950D01*
X111120Y157987D01*
X111016Y158031D01*
X110891Y158061D01*
X110743Y158090D01*
X110581Y158098D01*
X110507D01*
X110455Y158090D01*
X110389Y158083D01*
X110315Y158068D01*
X110227Y158054D01*
X110138Y158031D01*
X110042Y158002D01*
X109946Y157965D01*
X109843Y157921D01*
X109747Y157869D01*
X109651Y157802D01*
X109555Y157729D01*
X109466Y157648D01*
X109385Y157552D01*
X109378Y157544D01*
X109363Y157529D01*
X109341Y157500D01*
X109311Y157478D01*
X109267Y157448D01*
X109215Y157419D01*
X109164Y157404D01*
X109097Y157397D01*
X109075D01*
X109053Y157404D01*
X109016D01*
X108942Y157433D01*
X108906Y157448D01*
X108869Y157478D01*
Y157485D01*
X108854Y157493D01*
X108824Y157537D01*
X108795Y157603D01*
X108788Y157648D01*
X108780Y157699D01*
Y157707D01*
Y157714D01*
X108788Y157751D01*
X108810Y157817D01*
X108854Y157898D01*
X108883Y157950D01*
X108920Y158002D01*
X108965Y158054D01*
X109024Y158113D01*
X109090Y158171D01*
X109164Y158238D01*
X109252Y158297D01*
X109356Y158363D01*
X109363Y158371D01*
X109385Y158378D01*
X109415Y158393D01*
X109459Y158415D01*
X109511Y158445D01*
X109577Y158474D01*
X109651Y158504D01*
X109739Y158540D01*
X109828Y158570D01*
X109931Y158600D01*
X110153Y158659D01*
X110396Y158695D01*
X110529Y158710D01*
X110728D01*
X110780Y158703D01*
D02*
G37*
%LPC*%
G36*
X81430Y156127D02*
X81400D01*
X81371Y156120D01*
X81334D01*
X81231Y156090D01*
X81179Y156076D01*
X81120Y156046D01*
X81112D01*
X81098Y156031D01*
X81068Y156017D01*
X81031Y155987D01*
X80935Y155928D01*
X80832Y155840D01*
X80825Y155832D01*
X80810Y155817D01*
X80788Y155795D01*
X80751Y155758D01*
X80677Y155677D01*
X80596Y155574D01*
X80589Y155566D01*
X80581Y155552D01*
X80559Y155522D01*
X80537Y155493D01*
X80485Y155404D01*
X80433Y155315D01*
X80448D01*
X80478Y155323D01*
X80529D01*
X80589Y155330D01*
X80662Y155345D01*
X80743Y155352D01*
X80906Y155382D01*
X80913D01*
X80943Y155389D01*
X80987Y155404D01*
X81039Y155419D01*
X81157Y155456D01*
X81282Y155507D01*
X81290D01*
X81312Y155522D01*
X81341Y155537D01*
X81378Y155559D01*
X81459Y155611D01*
X81541Y155670D01*
X81548Y155677D01*
X81555Y155684D01*
X81592Y155729D01*
X81637Y155795D01*
X81666Y155869D01*
X81673Y155876D01*
Y155898D01*
Y155906D01*
Y155935D01*
Y155943D01*
Y155950D01*
X81666Y155987D01*
X81644Y156039D01*
X81600Y156076D01*
X81585Y156083D01*
X81555Y156105D01*
X81504Y156120D01*
X81430Y156127D01*
D02*
G37*
G36*
X92374Y156393D02*
X92367Y156386D01*
X92360Y156363D01*
X92315Y156304D01*
X92308Y156297D01*
X92293Y156282D01*
X92264Y156260D01*
X92219Y156238D01*
X92205Y156231D01*
X92175Y156223D01*
X92116Y156201D01*
X92042Y156179D01*
X92020D01*
X91998Y156172D01*
X91969Y156164D01*
X91924Y156157D01*
X91873Y156149D01*
X91754Y156135D01*
X91747D01*
X91732Y156127D01*
X91710Y156120D01*
X91681Y156105D01*
X91600Y156068D01*
X91511Y156017D01*
X91504D01*
X91489Y156002D01*
X91467Y155987D01*
X91437Y155965D01*
X91363Y155898D01*
X91275Y155825D01*
X91267Y155817D01*
X91253Y155803D01*
X91230Y155780D01*
X91208Y155751D01*
X91135Y155677D01*
X91053Y155581D01*
X91046Y155574D01*
X91039Y155559D01*
X91016Y155537D01*
X90994Y155500D01*
X90928Y155419D01*
X90861Y155315D01*
Y155308D01*
X90847Y155293D01*
X90832Y155264D01*
X90810Y155234D01*
X90766Y155146D01*
X90714Y155050D01*
Y155042D01*
X90706Y155028D01*
X90692Y155006D01*
X90684Y154976D01*
X90655Y154902D01*
X90633Y154821D01*
Y154806D01*
X90618Y154769D01*
X90610Y154725D01*
X90603Y154666D01*
Y154651D01*
Y154622D01*
X90596Y154578D01*
Y154526D01*
Y154518D01*
Y154504D01*
Y154481D01*
X90603Y154452D01*
X90610Y154386D01*
X90625Y154304D01*
Y154297D01*
X90633Y154290D01*
X90647Y154245D01*
X90677Y154186D01*
X90721Y154127D01*
X90736Y154113D01*
X90766Y154083D01*
X90825Y154046D01*
X90891Y154009D01*
X90898D01*
X90913Y154002D01*
X90935Y153995D01*
X90965D01*
X91039Y153980D01*
X91142Y153972D01*
X91186D01*
X91238Y153980D01*
X91304Y153987D01*
X91385Y154002D01*
X91467Y154031D01*
X91555Y154061D01*
X91644Y154105D01*
X91651Y154113D01*
X91681Y154127D01*
X91725Y154164D01*
X91784Y154201D01*
X91850Y154253D01*
X91924Y154312D01*
X91991Y154378D01*
X92064Y154452D01*
X92072Y154459D01*
X92094Y154489D01*
X92131Y154533D01*
X92175Y154592D01*
X92219Y154659D01*
X92271Y154733D01*
X92367Y154902D01*
X92374Y154910D01*
X92389Y154939D01*
X92411Y154991D01*
X92433Y155042D01*
X92463Y155109D01*
X92492Y155183D01*
X92544Y155338D01*
Y155345D01*
X92551Y155360D01*
Y155382D01*
X92559Y155411D01*
X92581Y155493D01*
X92596Y155574D01*
Y155581D01*
X92603Y155596D01*
Y155611D01*
X92611Y155640D01*
X92618Y155707D01*
Y155780D01*
Y155788D01*
Y155795D01*
X92611Y155832D01*
X92603Y155891D01*
X92581Y155950D01*
Y155957D01*
X92574Y155965D01*
X92559Y156002D01*
X92537Y156061D01*
X92500Y156135D01*
X92492Y156142D01*
X92478Y156172D01*
X92463Y156216D01*
X92433Y156260D01*
X92426Y156275D01*
X92419Y156304D01*
X92396Y156341D01*
X92374Y156393D01*
D02*
G37*
G36*
X77415Y158142D02*
X77216D01*
X77149Y158135D01*
X77076D01*
X76987Y158127D01*
X76795Y158105D01*
X76780D01*
X76751Y158098D01*
X76699Y158090D01*
X76633Y158083D01*
X76559Y158061D01*
X76471Y158046D01*
X76279Y157987D01*
X76271Y157972D01*
X76264Y157935D01*
X76242Y157869D01*
X76212Y157773D01*
Y157766D01*
X76205Y157751D01*
X76197Y157721D01*
X76190Y157685D01*
X76175Y157640D01*
X76161Y157589D01*
X76124Y157463D01*
Y157456D01*
X76116Y157433D01*
X76101Y157397D01*
X76094Y157352D01*
X76072Y157301D01*
X76057Y157234D01*
X76013Y157094D01*
Y157087D01*
X76006Y157064D01*
X75991Y157020D01*
X75983Y156976D01*
X75961Y156917D01*
X75946Y156851D01*
X75902Y156703D01*
Y156695D01*
X75895Y156666D01*
X75880Y156629D01*
X75865Y156578D01*
X75850Y156518D01*
X75828Y156459D01*
X75792Y156319D01*
Y156312D01*
X75784Y156290D01*
X75777Y156253D01*
X75762Y156209D01*
X75732Y156105D01*
X75698Y155996D01*
X75710Y156002D01*
X75747Y156046D01*
X75814Y156098D01*
X75910Y156149D01*
X75917D01*
X75932Y156164D01*
X75961Y156179D01*
X76006Y156194D01*
X76050Y156216D01*
X76109Y156238D01*
X76234Y156290D01*
X76242D01*
X76256Y156297D01*
X76286Y156312D01*
X76330Y156326D01*
X76382Y156349D01*
X76434Y156371D01*
X76500Y156400D01*
X76574Y156430D01*
X76581Y156437D01*
X76611Y156445D01*
X76648Y156467D01*
X76707Y156496D01*
X76766Y156526D01*
X76840Y156563D01*
X77002Y156644D01*
X77009Y156651D01*
X77039Y156666D01*
X77083Y156688D01*
X77142Y156718D01*
X77209Y156755D01*
X77282Y156799D01*
X77445Y156895D01*
X77452Y156902D01*
X77482Y156917D01*
X77526Y156947D01*
X77585Y156983D01*
X77644Y157028D01*
X77710Y157072D01*
X77851Y157175D01*
X77858Y157183D01*
X77880Y157197D01*
X77910Y157227D01*
X77954Y157271D01*
X78050Y157360D01*
X78138Y157470D01*
X78146Y157478D01*
X78153Y157493D01*
X78175Y157522D01*
X78197Y157559D01*
X78234Y157655D01*
X78242Y157699D01*
X78249Y157751D01*
Y157758D01*
Y157773D01*
X78242Y157795D01*
X78234Y157825D01*
X78212Y157891D01*
X78183Y157928D01*
X78153Y157957D01*
X78146Y157965D01*
X78138Y157972D01*
X78116Y157987D01*
X78094Y158002D01*
X78020Y158039D01*
X77924Y158076D01*
X77917D01*
X77902Y158083D01*
X77873Y158090D01*
X77836Y158098D01*
X77784Y158105D01*
X77732Y158113D01*
X77614Y158127D01*
X77585D01*
X77555Y158135D01*
X77518D01*
X77415Y158142D01*
D02*
G37*
G36*
X99872Y156127D02*
X99843D01*
X99813Y156120D01*
X99777D01*
X99673Y156090D01*
X99621Y156076D01*
X99563Y156046D01*
X99555D01*
X99540Y156031D01*
X99511Y156017D01*
X99474Y155987D01*
X99378Y155928D01*
X99275Y155840D01*
X99267Y155832D01*
X99252Y155817D01*
X99230Y155795D01*
X99194Y155758D01*
X99120Y155677D01*
X99038Y155574D01*
X99031Y155566D01*
X99024Y155552D01*
X99002Y155522D01*
X98980Y155493D01*
X98928Y155404D01*
X98876Y155315D01*
X98891D01*
X98920Y155323D01*
X98972D01*
X99031Y155330D01*
X99105Y155345D01*
X99186Y155352D01*
X99348Y155382D01*
X99356D01*
X99385Y155389D01*
X99430Y155404D01*
X99481Y155419D01*
X99599Y155456D01*
X99725Y155507D01*
X99732D01*
X99754Y155522D01*
X99784Y155537D01*
X99821Y155559D01*
X99902Y155611D01*
X99983Y155670D01*
X99990Y155677D01*
X99998Y155684D01*
X100035Y155729D01*
X100079Y155795D01*
X100109Y155869D01*
X100116Y155876D01*
Y155898D01*
Y155906D01*
Y155935D01*
Y155943D01*
Y155950D01*
X100109Y155987D01*
X100086Y156039D01*
X100042Y156076D01*
X100027Y156083D01*
X99998Y156105D01*
X99946Y156120D01*
X99872Y156127D01*
D02*
G37*
G36*
X75698Y155996D02*
X75696Y155994D01*
Y155987D01*
X75698Y155996D01*
D02*
G37*
%LPD*%
D50*
X86094Y55905D02*
D03*
D51*
X48531Y99500D02*
D03*
X42469D02*
D03*
X42469Y107000D02*
D03*
X48531D02*
D03*
X42469Y114500D02*
D03*
X48531D02*
D03*
X99532Y124500D02*
D03*
X93468D02*
D03*
X31032Y90000D02*
D03*
X24969D02*
D03*
X93532Y25000D02*
D03*
X87468D02*
D03*
X31032Y82500D02*
D03*
X24969D02*
D03*
D52*
X34500Y102173D02*
D03*
Y98827D02*
D03*
Y111173D02*
D03*
Y107827D02*
D03*
X148000Y120673D02*
D03*
Y117327D02*
D03*
Y106173D02*
D03*
Y102827D02*
D03*
X81500Y131673D02*
D03*
Y128327D02*
D03*
X75500Y131673D02*
D03*
Y128327D02*
D03*
X100500Y139173D02*
D03*
Y135827D02*
D03*
X110500Y61673D02*
D03*
Y58327D02*
D03*
X75500Y26173D02*
D03*
Y22827D02*
D03*
X81000Y26173D02*
D03*
Y22827D02*
D03*
X75500Y36827D02*
D03*
Y40173D02*
D03*
X94000Y36827D02*
D03*
Y40173D02*
D03*
X145000Y58327D02*
D03*
Y61673D02*
D03*
D53*
X28429Y97941D02*
D03*
Y103059D02*
D03*
X19571Y100500D02*
D03*
X28429Y108441D02*
D03*
Y113559D02*
D03*
X19571Y111000D02*
D03*
X124429Y60000D02*
D03*
X115571Y57441D02*
D03*
Y62559D02*
D03*
D54*
X34673Y117500D02*
D03*
X31327D02*
D03*
X120827Y103000D02*
D03*
X124173D02*
D03*
X122173Y122000D02*
D03*
X118827D02*
D03*
X78673Y137500D02*
D03*
X75327D02*
D03*
D55*
X86807Y114500D02*
D03*
X75193D02*
D03*
Y122000D02*
D03*
X86807D02*
D03*
D56*
X104000Y106693D02*
D03*
Y118307D02*
D03*
D57*
X117941Y116929D02*
D03*
X120500D02*
D03*
X123059D02*
D03*
Y108071D02*
D03*
X120500D02*
D03*
X117941D02*
D03*
D58*
X141939Y116440D02*
D03*
Y119000D02*
D03*
Y121560D02*
D03*
X134061D02*
D03*
Y119000D02*
D03*
Y116440D02*
D03*
Y107060D02*
D03*
Y104500D02*
D03*
Y101940D02*
D03*
X141939D02*
D03*
Y104500D02*
D03*
Y107060D02*
D03*
X138939Y57440D02*
D03*
Y60000D02*
D03*
Y62560D02*
D03*
X131061D02*
D03*
Y60000D02*
D03*
Y57440D02*
D03*
D59*
X138000Y120961D02*
D03*
X138001Y117041D02*
D03*
X138000Y102539D02*
D03*
X137999Y106459D02*
D03*
X135000Y61961D02*
D03*
X135001Y58041D02*
D03*
D60*
X94004Y144000D02*
D03*
X86996D02*
D03*
X131496Y49000D02*
D03*
X138504D02*
D03*
D61*
X94661Y130547D02*
D03*
Y132516D02*
D03*
Y134484D02*
D03*
Y136453D02*
D03*
X87339Y130547D02*
D03*
Y132516D02*
D03*
Y134484D02*
D03*
Y136453D02*
D03*
X89161Y32047D02*
D03*
Y34016D02*
D03*
Y35984D02*
D03*
Y37953D02*
D03*
X81839Y32047D02*
D03*
Y34016D02*
D03*
Y35984D02*
D03*
Y37953D02*
D03*
D62*
X91000Y133500D02*
D03*
X85500Y35000D02*
D03*
D63*
X124000Y128469D02*
D03*
Y134531D02*
D03*
X118000Y30468D02*
D03*
Y36531D02*
D03*
D64*
X112000Y128835D02*
D03*
Y138165D02*
D03*
X105500Y29835D02*
D03*
Y39165D02*
D03*
D65*
X111000Y118500D02*
D03*
X154500Y97500D02*
D03*
X126500Y42000D02*
D03*
D66*
X86201Y86201D02*
D03*
D67*
X59183Y39405D02*
D03*
X140236Y86201D02*
D03*
X59183Y132997D02*
D03*
%TF.MD5,960ABD541EF4DA3EC06CD67AE96EC9BD*%
M02*
