G04 Layer_Physical_Order=2*
G04 Layer_Color=32768*
%FSLAX25Y25*%
%MOIN*%
%TF.FileFunction,Copper,L2,Inr,Plane*%
%TF.Part,Single*%
G01*
G75*
%ADD26C,0.01000*%
%ADD27C,0.04000*%
%TA.AperFunction,ConnectorPad*%
%ADD33C,0.12843*%
%TA.AperFunction,ViaPad*%
%ADD34C,0.04000*%
D26*
X84584Y91720D02*
X170416D01*
X28539Y147765D02*
X84584Y91720D01*
X74305Y101805D02*
X74500D01*
X67500Y95000D02*
X74305Y101805D01*
X67500Y49500D02*
Y95000D01*
Y49500D02*
X78000Y39000D01*
X83000D01*
X85000Y41000D01*
X118500D01*
X120500Y43000D01*
Y91720D01*
D27*
X86201Y1850D02*
G03*
X170551Y86201I0J84350D01*
G01*
D02*
G03*
X86201Y170551I-84350J0D01*
G01*
D02*
G03*
X1850Y86201I0J-84350D01*
G01*
D02*
G03*
X86201Y1850I84350J0D01*
G01*
D33*
Y86201D02*
D03*
X59183Y39405D02*
D03*
X140236Y86201D02*
D03*
D34*
X15500Y111000D02*
D03*
X148000Y123000D02*
D03*
X60000Y66500D02*
D03*
X121000Y103000D02*
D03*
X85500Y111500D02*
D03*
X87500D02*
D03*
X85500Y113500D02*
D03*
X87500D02*
D03*
X146500Y92500D02*
D03*
X144500D02*
D03*
X142500D02*
D03*
X140500D02*
D03*
X138500D02*
D03*
X74000Y113500D02*
D03*
X76000D02*
D03*
Y115500D02*
D03*
X74000D02*
D03*
Y121000D02*
D03*
X76000D02*
D03*
Y123000D02*
D03*
X74000D02*
D03*
X143500Y124500D02*
D03*
Y126500D02*
D03*
X141500Y124500D02*
D03*
Y126500D02*
D03*
X137000Y121000D02*
D03*
X136500Y126500D02*
D03*
Y124500D02*
D03*
X138500D02*
D03*
Y126500D02*
D03*
X127500Y109000D02*
D03*
X132143Y119000D02*
D03*
X130000Y110000D02*
D03*
Y108000D02*
D03*
X144000Y114500D02*
D03*
X146000D02*
D03*
X144000Y116500D02*
D03*
X146000D02*
D03*
X150827Y106173D02*
D03*
X137000Y106000D02*
D03*
X139000D02*
D03*
Y108000D02*
D03*
X141000D02*
D03*
X137000D02*
D03*
X132000Y110000D02*
D03*
Y108000D02*
D03*
X145500Y99500D02*
D03*
Y101500D02*
D03*
X143500Y99500D02*
D03*
Y101500D02*
D03*
X129000Y104500D02*
D03*
X122173Y122000D02*
D03*
X154500Y121500D02*
D03*
Y123500D02*
D03*
X152500D02*
D03*
Y121500D02*
D03*
Y119500D02*
D03*
X154500D02*
D03*
X72500Y137500D02*
D03*
X129500Y64500D02*
D03*
X127500D02*
D03*
Y62500D02*
D03*
X129500D02*
D03*
X142500Y55500D02*
D03*
X140500D02*
D03*
X142500Y57500D02*
D03*
X140500D02*
D03*
X136000Y62000D02*
D03*
X134000D02*
D03*
X138000Y64000D02*
D03*
X136000D02*
D03*
X134000D02*
D03*
X127500Y58500D02*
D03*
X145000Y64000D02*
D03*
X123500Y64500D02*
D03*
X21500Y63500D02*
D03*
X51500Y64000D02*
D03*
X157000Y83500D02*
D03*
X155000D02*
D03*
X153000D02*
D03*
X157000Y85500D02*
D03*
X155000D02*
D03*
X153000D02*
D03*
Y87500D02*
D03*
X155000D02*
D03*
X157000D02*
D03*
Y89500D02*
D03*
X155000D02*
D03*
X153000D02*
D03*
X12000Y65500D02*
D03*
X14000D02*
D03*
Y63500D02*
D03*
X12000D02*
D03*
X130000Y31500D02*
D03*
X132500D02*
D03*
X130000Y29500D02*
D03*
X132500D02*
D03*
X135000Y31500D02*
D03*
%TF.MD5,6408018FEA1E1F26F63F62EEF3CCBA76*%
M02*
