G04 Layer_Color=128*
%FSLAX25Y25*%
%MOIN*%
%TF.FileFunction,Drillmap*%
%TF.Part,Single*%
G01*
G75*
%ADD76C,0.00500*%
D76*
X81279Y86201D02*
X91122D01*
X86201Y81279D02*
Y91122D01*
X54262Y39405D02*
X64104D01*
X59183Y34484D02*
Y44326D01*
X135315Y86201D02*
X145158D01*
X140236Y81279D02*
Y91122D01*
X54262Y132997D02*
X64104D01*
X59183Y128076D02*
Y137918D01*
X15000Y111000D02*
X16000D01*
X15500Y110500D02*
Y111500D01*
X147500Y123000D02*
X148500D01*
X148000Y122500D02*
Y123500D01*
X59500Y66500D02*
X60500D01*
X60000Y66000D02*
Y67000D01*
X91500Y50500D02*
X92500D01*
X92000Y50000D02*
Y51000D01*
X79500Y50500D02*
X80500D01*
X80000Y50000D02*
Y51000D01*
X81500Y50500D02*
X82500D01*
X82000Y50000D02*
Y51000D01*
X83500Y50500D02*
X84500D01*
X84000Y50000D02*
Y51000D01*
X85500Y50500D02*
X86500D01*
X86000Y50000D02*
Y51000D01*
X87500Y50500D02*
X88500D01*
X88000Y50000D02*
Y51000D01*
X89500Y50500D02*
X90500D01*
X90000Y50000D02*
Y51000D01*
X93500Y50500D02*
X94500D01*
X94000Y50000D02*
Y51000D01*
X95500Y50500D02*
X96500D01*
X96000Y50000D02*
Y51000D01*
X97500Y52500D02*
X98500D01*
X98000Y52000D02*
Y53000D01*
X97500Y54500D02*
X98500D01*
X98000Y54000D02*
Y55000D01*
X97500Y56500D02*
X98500D01*
X98000Y56000D02*
Y57000D01*
X97500Y58500D02*
X98500D01*
X98000Y58000D02*
Y59000D01*
X97500Y60500D02*
X98500D01*
X98000Y60000D02*
Y61000D01*
X97500Y62500D02*
X98500D01*
X98000Y62000D02*
Y63000D01*
X95500Y52500D02*
X96500D01*
X96000Y52000D02*
Y53000D01*
X95500Y54500D02*
X96500D01*
X96000Y54000D02*
Y55000D01*
X95500Y56500D02*
X96500D01*
X96000Y56000D02*
Y57000D01*
X95500Y58500D02*
X96500D01*
X96000Y58000D02*
Y59000D01*
X95500Y60500D02*
X96500D01*
X96000Y60000D02*
Y61000D01*
X95500Y62500D02*
X96500D01*
X96000Y62000D02*
Y63000D01*
X93500Y62500D02*
X94500D01*
X94000Y62000D02*
Y63000D01*
X91500Y62500D02*
X92500D01*
X92000Y62000D02*
Y63000D01*
X89500Y62500D02*
X90500D01*
X90000Y62000D02*
Y63000D01*
X85500Y62500D02*
X86500D01*
X86000Y62000D02*
Y63000D01*
X87500Y62500D02*
X88500D01*
X88000Y62000D02*
Y63000D01*
X83500Y62500D02*
X84500D01*
X84000Y62000D02*
Y63000D01*
X81500Y62500D02*
X82500D01*
X82000Y62000D02*
Y63000D01*
X79500Y62500D02*
X80500D01*
X80000Y62000D02*
Y63000D01*
X79500Y60500D02*
X80500D01*
X80000Y60000D02*
Y61000D01*
X81500Y60500D02*
X82500D01*
X82000Y60000D02*
Y61000D01*
X83500Y60500D02*
X84500D01*
X84000Y60000D02*
Y61000D01*
X85500Y60500D02*
X86500D01*
X86000Y60000D02*
Y61000D01*
X87500Y60500D02*
X88500D01*
X88000Y60000D02*
Y61000D01*
X89500Y60500D02*
X90500D01*
X90000Y60000D02*
Y61000D01*
X93500Y52500D02*
X94500D01*
X94000Y52000D02*
Y53000D01*
X93500Y54500D02*
X94500D01*
X94000Y54000D02*
Y55000D01*
X93500Y56500D02*
X94500D01*
X94000Y56000D02*
Y57000D01*
X91500Y60500D02*
X92500D01*
X92000Y60000D02*
Y61000D01*
X93500Y60500D02*
X94500D01*
X94000Y60000D02*
Y61000D01*
X93500Y58500D02*
X94500D01*
X94000Y58000D02*
Y59000D01*
X114000Y67500D02*
X115000D01*
X114500Y67000D02*
Y68000D01*
X111500Y67500D02*
X112500D01*
X112000Y67000D02*
Y68000D01*
X109000Y67500D02*
X110000D01*
X109500Y67000D02*
Y68000D01*
X106500Y67500D02*
X107500D01*
X107000Y67000D02*
Y68000D01*
X104000Y67500D02*
X105000D01*
X104500Y67000D02*
Y68000D01*
X101500Y67500D02*
X102500D01*
X102000Y67000D02*
Y68000D01*
X99000Y67500D02*
X100000D01*
X99500Y67000D02*
Y68000D01*
X96000Y69500D02*
X97000D01*
X96500Y69000D02*
Y70000D01*
X99000Y69500D02*
X100000D01*
X99500Y69000D02*
Y70000D01*
X101500Y69500D02*
X102500D01*
X102000Y69000D02*
Y70000D01*
X99000Y80000D02*
X100000D01*
X99500Y79500D02*
Y80500D01*
X93000Y80000D02*
X94000D01*
X93500Y79500D02*
Y80500D01*
X120500Y103000D02*
X121500D01*
X121000Y102500D02*
Y103500D01*
X75000Y128000D02*
X76000D01*
X75500Y127500D02*
Y128500D01*
X77000Y128000D02*
X78000D01*
X77500Y127500D02*
Y128500D01*
X79000Y128000D02*
X80000D01*
X79500Y127500D02*
Y128500D01*
X81000Y128000D02*
X82000D01*
X81500Y127500D02*
Y128500D01*
X85000Y111500D02*
X86000D01*
X85500Y111000D02*
Y112000D01*
X87000Y111500D02*
X88000D01*
X87500Y111000D02*
Y112000D01*
X85000Y113500D02*
X86000D01*
X85500Y113000D02*
Y114000D01*
X87000Y113500D02*
X88000D01*
X87500Y113000D02*
Y114000D01*
X146000Y92500D02*
X147000D01*
X146500Y92000D02*
Y93000D01*
X144000Y92500D02*
X145000D01*
X144500Y92000D02*
Y93000D01*
X142000Y92500D02*
X143000D01*
X142500Y92000D02*
Y93000D01*
X140000Y92500D02*
X141000D01*
X140500Y92000D02*
Y93000D01*
X138000Y92500D02*
X139000D01*
X138500Y92000D02*
Y93000D01*
X73500Y113500D02*
X74500D01*
X74000Y113000D02*
Y114000D01*
X75500Y113500D02*
X76500D01*
X76000Y113000D02*
Y114000D01*
X75500Y115500D02*
X76500D01*
X76000Y115000D02*
Y116000D01*
X73500Y115500D02*
X74500D01*
X74000Y115000D02*
Y116000D01*
X73500Y121000D02*
X74500D01*
X74000Y120500D02*
Y121500D01*
X75500Y121000D02*
X76500D01*
X76000Y120500D02*
Y121500D01*
X75500Y123000D02*
X76500D01*
X76000Y122500D02*
Y123500D01*
X73500Y123000D02*
X74500D01*
X74000Y122500D02*
Y123500D01*
X143000Y124500D02*
X144000D01*
X143500Y124000D02*
Y125000D01*
X143000Y126500D02*
X144000D01*
X143500Y126000D02*
Y127000D01*
X141000Y124500D02*
X142000D01*
X141500Y124000D02*
Y125000D01*
X141000Y126500D02*
X142000D01*
X141500Y126000D02*
Y127000D01*
X136500Y121000D02*
X137500D01*
X137000Y120500D02*
Y121500D01*
X136000Y126500D02*
X137000D01*
X136500Y126000D02*
Y127000D01*
X136000Y124500D02*
X137000D01*
X136500Y124000D02*
Y125000D01*
X138000Y124500D02*
X139000D01*
X138500Y124000D02*
Y125000D01*
X138000Y126500D02*
X139000D01*
X138500Y126000D02*
Y127000D01*
X127000Y109000D02*
X128000D01*
X127500Y108500D02*
Y109500D01*
X131643Y119000D02*
X132643D01*
X132143Y118500D02*
Y119500D01*
X129500Y110000D02*
X130500D01*
X130000Y109500D02*
Y110500D01*
X129500Y108000D02*
X130500D01*
X130000Y107500D02*
Y108500D01*
X127500Y99500D02*
X128500D01*
X128000Y99000D02*
Y100000D01*
X143500Y114500D02*
X144500D01*
X144000Y114000D02*
Y115000D01*
X145500Y114500D02*
X146500D01*
X146000Y114000D02*
Y115000D01*
X143500Y116500D02*
X144500D01*
X144000Y116000D02*
Y117000D01*
X145500Y116500D02*
X146500D01*
X146000Y116000D02*
Y117000D01*
X150327Y106173D02*
X151327D01*
X150827Y105673D02*
Y106673D01*
X136500Y106000D02*
X137500D01*
X137000Y105500D02*
Y106500D01*
X138500Y106000D02*
X139500D01*
X139000Y105500D02*
Y106500D01*
X138500Y108000D02*
X139500D01*
X139000Y107500D02*
Y108500D01*
X140500Y108000D02*
X141500D01*
X141000Y107500D02*
Y108500D01*
X136500Y108000D02*
X137500D01*
X137000Y107500D02*
Y108500D01*
X131500Y110000D02*
X132500D01*
X132000Y109500D02*
Y110500D01*
X131500Y108000D02*
X132500D01*
X132000Y107500D02*
Y108500D01*
X145000Y99500D02*
X146000D01*
X145500Y99000D02*
Y100000D01*
X145000Y101500D02*
X146000D01*
X145500Y101000D02*
Y102000D01*
X143000Y99500D02*
X144000D01*
X143500Y99000D02*
Y100000D01*
X143000Y101500D02*
X144000D01*
X143500Y101000D02*
Y102000D01*
X128500Y104500D02*
X129500D01*
X129000Y104000D02*
Y105000D01*
X121673Y122000D02*
X122673D01*
X122173Y121500D02*
Y122500D01*
X66500Y131000D02*
X67500D01*
X67000Y130500D02*
Y131500D01*
X66500Y133000D02*
X67500D01*
X67000Y132500D02*
Y133500D01*
X66500Y135000D02*
X67500D01*
X67000Y134500D02*
Y135500D01*
X66500Y137000D02*
X67500D01*
X67000Y136500D02*
Y137500D01*
X64500Y137000D02*
X65500D01*
X65000Y136500D02*
Y137500D01*
X64500Y131000D02*
X65500D01*
X65000Y130500D02*
Y131500D01*
X64500Y129000D02*
X65500D01*
X65000Y128500D02*
Y129500D01*
X64500Y127000D02*
X65500D01*
X65000Y126500D02*
Y127500D01*
X62500Y127000D02*
X63500D01*
X63000Y126500D02*
Y127500D01*
X64500Y139000D02*
X65500D01*
X65000Y138500D02*
Y139500D01*
X62500Y139000D02*
X63500D01*
X63000Y138500D02*
Y139500D01*
X154000Y121500D02*
X155000D01*
X154500Y121000D02*
Y122000D01*
X154000Y123500D02*
X155000D01*
X154500Y123000D02*
Y124000D01*
X152000Y123500D02*
X153000D01*
X152500Y123000D02*
Y124000D01*
X152000Y121500D02*
X153000D01*
X152500Y121000D02*
Y122000D01*
X152000Y119500D02*
X153000D01*
X152500Y119000D02*
Y120000D01*
X154000Y119500D02*
X155000D01*
X154500Y119000D02*
Y120000D01*
X72000Y137500D02*
X73000D01*
X72500Y137000D02*
Y138000D01*
X85500Y77500D02*
X86500D01*
X86000Y77000D02*
Y78000D01*
X88000Y77500D02*
X89000D01*
X88500Y77000D02*
Y78000D01*
X90500Y77500D02*
X91500D01*
X91000Y77000D02*
Y78000D01*
X93000Y77500D02*
X94000D01*
X93500Y77000D02*
Y78000D01*
X96000Y77500D02*
X97000D01*
X96500Y77000D02*
Y78000D01*
X99000Y77500D02*
X100000D01*
X99500Y77000D02*
Y78000D01*
X101500Y77500D02*
X102500D01*
X102000Y77000D02*
Y78000D01*
X104000Y77500D02*
X105000D01*
X104500Y77000D02*
Y78000D01*
X106500Y77500D02*
X107500D01*
X107000Y77000D02*
Y78000D01*
X109000Y77500D02*
X110000D01*
X109500Y77000D02*
Y78000D01*
X109000Y80000D02*
X110000D01*
X109500Y79500D02*
Y80500D01*
X106500Y80000D02*
X107500D01*
X107000Y79500D02*
Y80500D01*
X104000Y80000D02*
X105000D01*
X104500Y79500D02*
Y80500D01*
X101500Y80000D02*
X102500D01*
X102000Y79500D02*
Y80500D01*
X96000Y80000D02*
X97000D01*
X96500Y79500D02*
Y80500D01*
X130500Y73000D02*
X131500D01*
X131000Y72500D02*
Y73500D01*
X132500Y73000D02*
X133500D01*
X133000Y72500D02*
Y73500D01*
X134500Y73000D02*
X135500D01*
X135000Y72500D02*
Y73500D01*
X138500Y73000D02*
X139500D01*
X139000Y72500D02*
Y73500D01*
X136500Y73000D02*
X137500D01*
X137000Y72500D02*
Y73500D01*
X138500Y71000D02*
X139500D01*
X139000Y70500D02*
Y71500D01*
X136500Y71000D02*
X137500D01*
X137000Y70500D02*
Y71500D01*
X134500Y71000D02*
X135500D01*
X135000Y70500D02*
Y71500D01*
X132500Y71000D02*
X133500D01*
X133000Y70500D02*
Y71500D01*
X130500Y71000D02*
X131500D01*
X131000Y70500D02*
Y71500D01*
X130500Y69000D02*
X131500D01*
X131000Y68500D02*
Y69500D01*
X132500Y69000D02*
X133500D01*
X133000Y68500D02*
Y69500D01*
X134500Y69000D02*
X135500D01*
X135000Y68500D02*
Y69500D01*
X136500Y69000D02*
X137500D01*
X137000Y68500D02*
Y69500D01*
X138500Y69000D02*
X139500D01*
X139000Y68500D02*
Y69500D01*
X138500Y67000D02*
X139500D01*
X139000Y66500D02*
Y67500D01*
X136500Y67000D02*
X137500D01*
X137000Y66500D02*
Y67500D01*
X134500Y67000D02*
X135500D01*
X135000Y66500D02*
Y67500D01*
X132500Y67000D02*
X133500D01*
X133000Y66500D02*
Y67500D01*
X130500Y67000D02*
X131500D01*
X131000Y66500D02*
Y67500D01*
X111500Y80000D02*
X112500D01*
X112000Y79500D02*
Y80500D01*
X114000Y80000D02*
X115000D01*
X114500Y79500D02*
Y80500D01*
X114000Y77500D02*
X115000D01*
X114500Y77000D02*
Y78000D01*
X111500Y77500D02*
X112500D01*
X112000Y77000D02*
Y78000D01*
X114000Y75000D02*
X115000D01*
X114500Y74500D02*
Y75500D01*
X111500Y75000D02*
X112500D01*
X112000Y74500D02*
Y75500D01*
X109000Y75000D02*
X110000D01*
X109500Y74500D02*
Y75500D01*
X106500Y75000D02*
X107500D01*
X107000Y74500D02*
Y75500D01*
X104000Y75000D02*
X105000D01*
X104500Y74500D02*
Y75500D01*
X101500Y75000D02*
X102500D01*
X102000Y74500D02*
Y75500D01*
X99000Y75000D02*
X100000D01*
X99500Y74500D02*
Y75500D01*
X96000Y75000D02*
X97000D01*
X96500Y74500D02*
Y75500D01*
X93000Y75000D02*
X94000D01*
X93500Y74500D02*
Y75500D01*
X90500Y75000D02*
X91500D01*
X91000Y74500D02*
Y75500D01*
X88000Y75000D02*
X89000D01*
X88500Y74500D02*
Y75500D01*
X85500Y75000D02*
X86500D01*
X86000Y74500D02*
Y75500D01*
X85500Y72000D02*
X86500D01*
X86000Y71500D02*
Y72500D01*
X88000Y72000D02*
X89000D01*
X88500Y71500D02*
Y72500D01*
X90500Y72000D02*
X91500D01*
X91000Y71500D02*
Y72500D01*
X93000Y72000D02*
X94000D01*
X93500Y71500D02*
Y72500D01*
X96000Y72000D02*
X97000D01*
X96500Y71500D02*
Y72500D01*
X99000Y72000D02*
X100000D01*
X99500Y71500D02*
Y72500D01*
X101500Y72000D02*
X102500D01*
X102000Y71500D02*
Y72500D01*
X104000Y72000D02*
X105000D01*
X104500Y71500D02*
Y72500D01*
X106500Y72000D02*
X107500D01*
X107000Y71500D02*
Y72500D01*
X109000Y72000D02*
X110000D01*
X109500Y71500D02*
Y72500D01*
X111500Y72000D02*
X112500D01*
X112000Y71500D02*
Y72500D01*
X114000Y72000D02*
X115000D01*
X114500Y71500D02*
Y72500D01*
X114000Y69500D02*
X115000D01*
X114500Y69000D02*
Y70000D01*
X111500Y69500D02*
X112500D01*
X112000Y69000D02*
Y70000D01*
X109000Y69500D02*
X110000D01*
X109500Y69000D02*
Y70000D01*
X106500Y69500D02*
X107500D01*
X107000Y69000D02*
Y70000D01*
X104000Y69500D02*
X105000D01*
X104500Y69000D02*
Y70000D01*
X129000Y64500D02*
X130000D01*
X129500Y64000D02*
Y65000D01*
X127000Y64500D02*
X128000D01*
X127500Y64000D02*
Y65000D01*
X127000Y62500D02*
X128000D01*
X127500Y62000D02*
Y63000D01*
X129000Y62500D02*
X130000D01*
X129500Y62000D02*
Y63000D01*
X142000Y55500D02*
X143000D01*
X142500Y55000D02*
Y56000D01*
X140000Y55500D02*
X141000D01*
X140500Y55000D02*
Y56000D01*
X142000Y57500D02*
X143000D01*
X142500Y57000D02*
Y58000D01*
X140000Y57500D02*
X141000D01*
X140500Y57000D02*
Y58000D01*
X135500Y62000D02*
X136500D01*
X136000Y61500D02*
Y62500D01*
X133500Y62000D02*
X134500D01*
X134000Y61500D02*
Y62500D01*
X137500Y64000D02*
X138500D01*
X138000Y63500D02*
Y64500D01*
X135500Y64000D02*
X136500D01*
X136000Y63500D02*
Y64500D01*
X133500Y64000D02*
X134500D01*
X134000Y63500D02*
Y64500D01*
X127000Y58500D02*
X128000D01*
X127500Y58000D02*
Y59000D01*
X144500Y64000D02*
X145500D01*
X145000Y63500D02*
Y64500D01*
X118000Y62500D02*
X119000D01*
X118500Y62000D02*
Y63000D01*
X123000Y64500D02*
X124000D01*
X123500Y64000D02*
Y65000D01*
X114500Y53500D02*
X115500D01*
X115000Y53000D02*
Y54000D01*
X112500Y53500D02*
X113500D01*
X113000Y53000D02*
Y54000D01*
X110500Y53500D02*
X111500D01*
X111000Y53000D02*
Y54000D01*
X108500Y53500D02*
X109500D01*
X109000Y53000D02*
Y54000D01*
X114500Y51500D02*
X115500D01*
X115000Y51000D02*
Y52000D01*
X112500Y51500D02*
X113500D01*
X113000Y51000D02*
Y52000D01*
X110500Y51500D02*
X111500D01*
X111000Y51000D02*
Y52000D01*
X108500Y51500D02*
X109500D01*
X109000Y51000D02*
Y52000D01*
X106500Y53500D02*
X107500D01*
X107000Y53000D02*
Y54000D01*
X106500Y51500D02*
X107500D01*
X107000Y51000D02*
Y52000D01*
X106500Y49500D02*
X107500D01*
X107000Y49000D02*
Y50000D01*
X108500Y49500D02*
X109500D01*
X109000Y49000D02*
Y50000D01*
X110500Y49500D02*
X111500D01*
X111000Y49000D02*
Y50000D01*
X112500Y49500D02*
X113500D01*
X113000Y49000D02*
Y50000D01*
X114500Y49500D02*
X115500D01*
X115000Y49000D02*
Y50000D01*
X114500Y47500D02*
X115500D01*
X115000Y47000D02*
Y48000D01*
X112500Y47500D02*
X113500D01*
X113000Y47000D02*
Y48000D01*
X110500Y47500D02*
X111500D01*
X111000Y47000D02*
Y48000D01*
X108500Y47500D02*
X109500D01*
X109000Y47000D02*
Y48000D01*
X106500Y47500D02*
X107500D01*
X107000Y47000D02*
Y48000D01*
X114500Y45500D02*
X115500D01*
X115000Y45000D02*
Y46000D01*
X112500Y45500D02*
X113500D01*
X113000Y45000D02*
Y46000D01*
X110500Y45500D02*
X111500D01*
X111000Y45000D02*
Y46000D01*
X108500Y45500D02*
X109500D01*
X109000Y45000D02*
Y46000D01*
X106500Y45500D02*
X107500D01*
X107000Y45000D02*
Y46000D01*
X137000Y50000D02*
X138000D01*
X137500Y49500D02*
Y50500D01*
X139000Y50000D02*
X140000D01*
X139500Y49500D02*
Y50500D01*
X141000Y50000D02*
X142000D01*
X141500Y49500D02*
Y50500D01*
X137000Y48000D02*
X138000D01*
X137500Y47500D02*
Y48500D01*
X139000Y48000D02*
X140000D01*
X139500Y47500D02*
Y48500D01*
X141000Y48000D02*
X142000D01*
X141500Y47500D02*
Y48500D01*
X85000Y37500D02*
X86000D01*
X85500Y37000D02*
Y38000D01*
X85000Y35500D02*
X86000D01*
X85500Y35000D02*
Y36000D01*
X85000Y33500D02*
X86000D01*
X85500Y33000D02*
Y34000D01*
X85000Y31500D02*
X86000D01*
X85500Y31000D02*
Y32000D01*
X94000Y18500D02*
X95000D01*
X94500Y18000D02*
Y19000D01*
X92000Y18500D02*
X93000D01*
X92500Y18000D02*
Y19000D01*
X92000Y16500D02*
X93000D01*
X92500Y16000D02*
Y17000D01*
X94000Y16500D02*
X95000D01*
X94500Y16000D02*
Y17000D01*
X90000Y18500D02*
X91000D01*
X90500Y18000D02*
Y19000D01*
X90000Y16500D02*
X91000D01*
X90500Y16000D02*
Y17000D01*
X88000Y16500D02*
X89000D01*
X88500Y16000D02*
Y17000D01*
X116500Y53500D02*
X117500D01*
X117000Y53000D02*
Y54000D01*
X116500Y51500D02*
X117500D01*
X117000Y51000D02*
Y52000D01*
X116500Y49500D02*
X117500D01*
X117000Y49000D02*
Y50000D01*
X116500Y47500D02*
X117500D01*
X117000Y47000D02*
Y48000D01*
X116500Y45500D02*
X117500D01*
X117000Y45000D02*
Y46000D01*
X88000Y18500D02*
X89000D01*
X88500Y18000D02*
Y19000D01*
X86000Y18500D02*
X87000D01*
X86500Y18000D02*
Y19000D01*
X86000Y16500D02*
X87000D01*
X86500Y16000D02*
Y17000D01*
X84000Y16500D02*
X85000D01*
X84500Y16000D02*
Y17000D01*
X84000Y18500D02*
X85000D01*
X84500Y18000D02*
Y19000D01*
X82000Y18500D02*
X83000D01*
X82500Y18000D02*
Y19000D01*
X82000Y16500D02*
X83000D01*
X82500Y16000D02*
Y17000D01*
X80000Y16500D02*
X81000D01*
X80500Y16000D02*
Y17000D01*
X80000Y18500D02*
X81000D01*
X80500Y18000D02*
Y19000D01*
X21000Y63500D02*
X22000D01*
X21500Y63000D02*
Y64000D01*
X51000D02*
X52000D01*
X51500Y63500D02*
Y64500D01*
X93500Y43500D02*
X94500D01*
X94000Y43000D02*
Y44000D01*
X91500Y43500D02*
X92500D01*
X92000Y43000D02*
Y44000D01*
X89500Y43500D02*
X90500D01*
X90000Y43000D02*
Y44000D01*
X87500Y43500D02*
X88500D01*
X88000Y43000D02*
Y44000D01*
X85500Y43500D02*
X86500D01*
X86000Y43000D02*
Y44000D01*
X83500Y43500D02*
X84500D01*
X84000Y43000D02*
Y44000D01*
X81500Y43500D02*
X82500D01*
X82000Y43000D02*
Y44000D01*
X79500Y43500D02*
X80500D01*
X80000Y43000D02*
Y44000D01*
X77500Y43500D02*
X78500D01*
X78000Y43000D02*
Y44000D01*
X79500Y41500D02*
X80500D01*
X80000Y41000D02*
Y42000D01*
X95500Y43500D02*
X96500D01*
X96000Y43000D02*
Y44000D01*
X97500Y43500D02*
X98500D01*
X98000Y43000D02*
Y44000D01*
X91500Y56500D02*
X92500D01*
X92000Y56000D02*
Y57000D01*
X89500Y56500D02*
X90500D01*
X90000Y56000D02*
Y57000D01*
X87500Y56500D02*
X88500D01*
X88000Y56000D02*
Y57000D01*
X85500Y56500D02*
X86500D01*
X86000Y56000D02*
Y57000D01*
X83500Y56500D02*
X84500D01*
X84000Y56000D02*
Y57000D01*
X81500Y56500D02*
X82500D01*
X82000Y56000D02*
Y57000D01*
X79500Y56500D02*
X80500D01*
X80000Y56000D02*
Y57000D01*
X79500Y54500D02*
X80500D01*
X80000Y54000D02*
Y55000D01*
X81500Y54500D02*
X82500D01*
X82000Y54000D02*
Y55000D01*
X83500Y54500D02*
X84500D01*
X84000Y54000D02*
Y55000D01*
X85500Y54500D02*
X86500D01*
X86000Y54000D02*
Y55000D01*
X87500Y54500D02*
X88500D01*
X88000Y54000D02*
Y55000D01*
X89500Y54500D02*
X90500D01*
X90000Y54000D02*
Y55000D01*
X91500Y54500D02*
X92500D01*
X92000Y54000D02*
Y55000D01*
X91500Y52500D02*
X92500D01*
X92000Y52000D02*
Y53000D01*
X89500Y52500D02*
X90500D01*
X90000Y52000D02*
Y53000D01*
X87500Y52500D02*
X88500D01*
X88000Y52000D02*
Y53000D01*
X85500Y52500D02*
X86500D01*
X86000Y52000D02*
Y53000D01*
X83500Y52500D02*
X84500D01*
X84000Y52000D02*
Y53000D01*
X81500Y52500D02*
X82500D01*
X82000Y52000D02*
Y53000D01*
X79500Y52500D02*
X80500D01*
X80000Y52000D02*
Y53000D01*
X79500Y58500D02*
X80500D01*
X80000Y58000D02*
Y59000D01*
X81500Y58500D02*
X82500D01*
X82000Y58000D02*
Y59000D01*
X83500Y58500D02*
X84500D01*
X84000Y58000D02*
Y59000D01*
X85500Y58500D02*
X86500D01*
X86000Y58000D02*
Y59000D01*
X87500Y58500D02*
X88500D01*
X88000Y58000D02*
Y59000D01*
X89500Y58500D02*
X90500D01*
X90000Y58000D02*
Y59000D01*
X91500Y58500D02*
X92500D01*
X92000Y58000D02*
Y59000D01*
X156500Y83500D02*
X157500D01*
X157000Y83000D02*
Y84000D01*
X154500Y83500D02*
X155500D01*
X155000Y83000D02*
Y84000D01*
X152500Y83500D02*
X153500D01*
X153000Y83000D02*
Y84000D01*
X156500Y85500D02*
X157500D01*
X157000Y85000D02*
Y86000D01*
X154500Y85500D02*
X155500D01*
X155000Y85000D02*
Y86000D01*
X152500Y85500D02*
X153500D01*
X153000Y85000D02*
Y86000D01*
X152500Y87500D02*
X153500D01*
X153000Y87000D02*
Y88000D01*
X154500Y87500D02*
X155500D01*
X155000Y87000D02*
Y88000D01*
X156500Y87500D02*
X157500D01*
X157000Y87000D02*
Y88000D01*
X156500Y89500D02*
X157500D01*
X157000Y89000D02*
Y90000D01*
X154500Y89500D02*
X155500D01*
X155000Y89000D02*
Y90000D01*
X152500Y89500D02*
X153500D01*
X153000Y89000D02*
Y90000D01*
X11500Y65500D02*
X12500D01*
X12000Y65000D02*
Y66000D01*
X13500Y65500D02*
X14500D01*
X14000Y65000D02*
Y66000D01*
X13500Y63500D02*
X14500D01*
X14000Y63000D02*
Y64000D01*
X11500Y63500D02*
X12500D01*
X12000Y63000D02*
Y64000D01*
X129500Y31500D02*
X130500D01*
X130000Y31000D02*
Y32000D01*
X132000Y31500D02*
X133000D01*
X132500Y31000D02*
Y32000D01*
X129500Y29500D02*
X130500D01*
X130000Y29000D02*
Y30000D01*
X132000Y29500D02*
X133000D01*
X132500Y29000D02*
Y30000D01*
X134500Y31500D02*
X135500D01*
X135000Y31000D02*
Y32000D01*
%TF.MD5,02E94B5893FB5F0EE07050B47C70B862*%
M02*
