G04 Layer_Color=128*
%FSLAX25Y25*%
%MOIN*%
%TF.FileFunction,Drillmap*%
%TF.Part,Single*%
G01*
G75*
%ADD84C,0.00500*%
D84*
X342720Y265000D02*
X345082D01*
X343901Y263819D02*
Y266181D01*
X342720Y260000D02*
X345082D01*
X343901Y258819D02*
Y261181D01*
X337720Y265000D02*
X340082D01*
X338901Y263819D02*
Y266181D01*
X337720Y260000D02*
X340082D01*
X338901Y258819D02*
Y261181D01*
X394220Y256000D02*
X396582D01*
X395401Y254819D02*
Y257181D01*
X389220Y256000D02*
X391582D01*
X390401Y254819D02*
Y257181D01*
X394220Y261000D02*
X396582D01*
X395401Y259819D02*
Y262181D01*
X389220Y261000D02*
X391582D01*
X390401Y259819D02*
Y262181D01*
X394220Y266000D02*
X396582D01*
X395401Y264819D02*
Y267181D01*
X389220Y266000D02*
X391582D01*
X390401Y264819D02*
Y267181D01*
X325516Y283500D02*
X328272D01*
X326894Y282122D02*
Y284878D01*
X320516Y283500D02*
X323272D01*
X321894Y282122D02*
Y284878D01*
X421032Y293000D02*
X425756D01*
X423394Y290638D02*
Y295362D01*
X414032Y293000D02*
X418756D01*
X416394Y290638D02*
Y295362D01*
X407031Y293000D02*
X411756D01*
X409394Y290638D02*
Y295362D01*
X400032Y293000D02*
X404756D01*
X402394Y290638D02*
Y295362D01*
X403000Y264000D02*
X404000D01*
X403500Y263500D02*
Y264500D01*
X419173Y281327D02*
X420173D01*
X419673Y280827D02*
Y281827D01*
X415980Y266520D02*
X416980D01*
X416480Y266020D02*
Y267020D01*
X402000Y275000D02*
X403000D01*
X402500Y274500D02*
Y275500D01*
X420500Y284673D02*
X421500D01*
X421000Y284173D02*
Y285173D01*
X372779Y265534D02*
X373780D01*
X373280Y265034D02*
Y266034D01*
X384904Y263596D02*
X385904D01*
X385404Y263096D02*
Y264096D01*
X343000Y280000D02*
X344000D01*
X343500Y279500D02*
Y280500D01*
X345000Y280000D02*
X346000D01*
X345500Y279500D02*
Y280500D01*
X345000Y282000D02*
X346000D01*
X345500Y281500D02*
Y282500D01*
X343000Y282000D02*
X344000D01*
X343500Y281500D02*
Y282500D01*
X360500Y267000D02*
X361500D01*
X361000Y266500D02*
Y267500D01*
X344000Y253500D02*
X345000D01*
X344500Y253000D02*
Y254000D01*
X379000Y252500D02*
X380000D01*
X379500Y252000D02*
Y253000D01*
Y259000D02*
X380500D01*
X380000Y258500D02*
Y259500D01*
X371000Y275000D02*
X372000D01*
X371500Y274500D02*
Y275500D01*
X355500Y247500D02*
X356500D01*
X356000Y247000D02*
Y248000D01*
X350000Y252173D02*
X351000D01*
X350500Y251673D02*
Y252673D01*
X367500Y255000D02*
X368500D01*
X368000Y254500D02*
Y255500D01*
X359500Y256000D02*
X360500D01*
X360000Y255500D02*
Y256500D01*
X345500Y251000D02*
X346500D01*
X346000Y250500D02*
Y251500D01*
X355602Y255102D02*
X356602D01*
X356102Y254602D02*
Y255602D01*
X351000Y258500D02*
X352000D01*
X351500Y258000D02*
Y259000D01*
X351000Y261500D02*
X352000D01*
X351500Y261000D02*
Y262000D01*
X354673Y267000D02*
X355673D01*
X355173Y266500D02*
Y267500D01*
X349000Y264000D02*
X350000D01*
X349500Y263500D02*
Y264500D01*
X349921Y271421D02*
X350921D01*
X350421Y270921D02*
Y271921D01*
X358000Y272500D02*
X359000D01*
X358500Y272000D02*
Y273000D01*
X365000Y246000D02*
X366000D01*
X365500Y245500D02*
Y246500D01*
X367000Y250000D02*
X368000D01*
X367500Y249500D02*
Y250500D01*
X373500Y248500D02*
X374500D01*
X374000Y248000D02*
Y249000D01*
X385000Y260500D02*
X386000D01*
X385500Y260000D02*
Y261000D01*
X373740Y252240D02*
X374740D01*
X374240Y251740D02*
Y252740D01*
X386000Y248000D02*
X387000D01*
X386500Y247500D02*
Y248500D01*
X370500Y263000D02*
X371500D01*
X371000Y262500D02*
Y263500D01*
X382059Y252941D02*
X383059D01*
X382559Y252441D02*
Y253441D01*
X375941Y269059D02*
X376941D01*
X376441Y268559D02*
Y269559D01*
X338000Y271000D02*
X339000D01*
X338500Y270500D02*
Y271500D01*
X328327Y268827D02*
X329327D01*
X328827Y268327D02*
Y269327D01*
X333500Y275000D02*
X334500D01*
X334000Y274500D02*
Y275500D01*
X332000Y280500D02*
X333000D01*
X332500Y280000D02*
Y281000D01*
X332000Y283500D02*
X333000D01*
X332500Y283000D02*
Y284000D01*
X405500Y283000D02*
X406500D01*
X406000Y282500D02*
Y283500D01*
X409500Y283000D02*
X410500D01*
X410000Y282500D02*
Y283500D01*
X388000Y295500D02*
X389000D01*
X388500Y295000D02*
Y296000D01*
X388000Y293000D02*
X389000D01*
X388500Y292500D02*
Y293500D01*
X386000Y293000D02*
X387000D01*
X386500Y292500D02*
Y293500D01*
X384000Y293000D02*
X385000D01*
X384500Y292500D02*
Y293500D01*
X382000Y293000D02*
X383000D01*
X382500Y292500D02*
Y293500D01*
X386000Y295500D02*
X387000D01*
X386500Y295000D02*
Y296000D01*
X384000Y295500D02*
X385000D01*
X384500Y295000D02*
Y296000D01*
X382000Y295500D02*
X383000D01*
X382500Y295000D02*
Y296000D01*
X365500Y295500D02*
X366500D01*
X366000Y295000D02*
Y296000D01*
X368000Y295500D02*
X369000D01*
X368500Y295000D02*
Y296000D01*
X365500Y293000D02*
X366500D01*
X366000Y292500D02*
Y293500D01*
X368000Y293000D02*
X369000D01*
X368500Y292500D02*
Y293500D01*
X321500Y278500D02*
X322500D01*
X322000Y278000D02*
Y279000D01*
X323827Y274827D02*
X324827D01*
X324327Y274327D02*
Y275327D01*
X391000Y282000D02*
X392000D01*
X391500Y281500D02*
Y282500D01*
X341000Y280000D02*
X342000D01*
X341500Y279500D02*
Y280500D01*
X347000Y280000D02*
X348000D01*
X347500Y279500D02*
Y280500D01*
X349000Y280000D02*
X350000D01*
X349500Y279500D02*
Y280500D01*
X349000Y282000D02*
X350000D01*
X349500Y281500D02*
Y282500D01*
X347000Y282000D02*
X348000D01*
X347500Y281500D02*
Y282500D01*
X341000Y282000D02*
X342000D01*
X341500Y281500D02*
Y282500D01*
X341000Y284000D02*
X342000D01*
X341500Y283500D02*
Y284500D01*
X343000Y284000D02*
X344000D01*
X343500Y283500D02*
Y284500D01*
X347000Y284000D02*
X348000D01*
X347500Y283500D02*
Y284500D01*
X345000Y284000D02*
X346000D01*
X345500Y283500D02*
Y284500D01*
X345000Y286000D02*
X346000D01*
X345500Y285500D02*
Y286500D01*
X343000Y286000D02*
X344000D01*
X343500Y285500D02*
Y286500D01*
X341000Y286000D02*
X342000D01*
X341500Y285500D02*
Y286500D01*
X341000Y288000D02*
X342000D01*
X341500Y287500D02*
Y288500D01*
X343000Y288000D02*
X344000D01*
X343500Y287500D02*
Y288500D01*
X345000Y288000D02*
X346000D01*
X345500Y287500D02*
Y288500D01*
X345000Y290000D02*
X346000D01*
X345500Y289500D02*
Y290500D01*
X343000Y290000D02*
X344000D01*
X343500Y289500D02*
Y290500D01*
X341000Y290000D02*
X342000D01*
X341500Y289500D02*
Y290500D01*
X324000Y298500D02*
X325000D01*
X324500Y298000D02*
Y299000D01*
X316000Y298500D02*
X317000D01*
X316500Y298000D02*
Y299000D01*
X318000Y298500D02*
X319000D01*
X318500Y298000D02*
Y299000D01*
X320000Y298500D02*
X321000D01*
X320500Y298000D02*
Y299000D01*
X322000Y298500D02*
X323000D01*
X322500Y298000D02*
Y299000D01*
X322000Y300500D02*
X323000D01*
X322500Y300000D02*
Y301000D01*
X320000Y300500D02*
X321000D01*
X320500Y300000D02*
Y301000D01*
X318000Y300500D02*
X319000D01*
X318500Y300000D02*
Y301000D01*
X316000Y300500D02*
X317000D01*
X316500Y300000D02*
Y301000D01*
X316000Y302500D02*
X317000D01*
X316500Y302000D02*
Y303000D01*
X318000Y302500D02*
X319000D01*
X318500Y302000D02*
Y303000D01*
X320000Y302500D02*
X321000D01*
X320500Y302000D02*
Y303000D01*
X322000Y302500D02*
X323000D01*
X322500Y302000D02*
Y303000D01*
X322000Y304500D02*
X323000D01*
X322500Y304000D02*
Y305000D01*
X320000Y304500D02*
X321000D01*
X320500Y304000D02*
Y305000D01*
X318000Y304500D02*
X319000D01*
X318500Y304000D02*
Y305000D01*
X316000Y304500D02*
X317000D01*
X316500Y304000D02*
Y305000D01*
X337500Y295500D02*
X338500D01*
X338000Y295000D02*
Y296000D01*
X342000Y298000D02*
X343000D01*
X342500Y297500D02*
Y298500D01*
X356000Y284500D02*
X357000D01*
X356500Y284000D02*
Y285000D01*
X352000Y298000D02*
X353000D01*
X352500Y297500D02*
Y298500D01*
X358000Y274500D02*
X359000D01*
X358500Y274000D02*
Y275000D01*
X360000Y274500D02*
X361000D01*
X360500Y274000D02*
Y275000D01*
X360000Y272500D02*
X361000D01*
X360500Y272000D02*
Y273000D01*
X360000Y278500D02*
X361000D01*
X360500Y278000D02*
Y279000D01*
X358000Y278500D02*
X359000D01*
X358500Y278000D02*
Y279000D01*
X358000Y280500D02*
X359000D01*
X358500Y280000D02*
Y281000D01*
X360000Y280500D02*
X361000D01*
X360500Y280000D02*
Y281000D01*
X360000Y288000D02*
X361000D01*
X360500Y287500D02*
Y288500D01*
X358000Y288000D02*
X359000D01*
X358500Y287500D02*
Y288500D01*
X358000Y290000D02*
X359000D01*
X358500Y289500D02*
Y290500D01*
X360000Y290000D02*
X361000D01*
X360500Y289500D02*
Y290500D01*
%TF.MD5,E25820DC89CFDAC395BFC00F17B56643*%
M02*
