G04 Layer_Color=0*
%FSLAX25Y25*%
%MOIN*%
%TF.FileFunction,PTH,Drill*%
%TF.Part,Single*%
G01*
G75*
%TA.AperFunction,ComponentDrill*%
%ADD79C,0.02362*%
%TA.AperFunction,ComponentDrill*%
%ADD80C,0.02362*%
%TA.AperFunction,OtherDrill*%
%ADD81C,0.02756*%
%TA.AperFunction,OtherDrill*%
%ADD82C,0.04724*%
%TA.AperFunction,ViaDrill*%
%ADD83C,0.01000*%
D79*
X343901Y265000D02*
D03*
Y260000D02*
D03*
X338901Y265000D02*
D03*
Y260000D02*
D03*
D80*
X395401Y256000D02*
D03*
X390401D02*
D03*
X395401Y261000D02*
D03*
X390401D02*
D03*
X395401Y266000D02*
D03*
X390401D02*
D03*
D81*
X326894Y283500D02*
D03*
X321894D02*
D03*
D82*
X423394Y293000D02*
D03*
X416394D02*
D03*
X409394D02*
D03*
X402394D02*
D03*
D83*
X403500Y264000D02*
D03*
X419673Y281327D02*
D03*
X416480Y266520D02*
D03*
X402500Y275000D02*
D03*
X421000Y284673D02*
D03*
X373280Y265534D02*
D03*
X385404Y263596D02*
D03*
X343500Y280000D02*
D03*
X345500D02*
D03*
Y282000D02*
D03*
X343500D02*
D03*
X361000Y267000D02*
D03*
X344500Y253500D02*
D03*
X379500Y252500D02*
D03*
X380000Y259000D02*
D03*
X371500Y275000D02*
D03*
X356000Y247500D02*
D03*
X350500Y252173D02*
D03*
X368000Y255000D02*
D03*
X360000Y256000D02*
D03*
X346000Y251000D02*
D03*
X356102Y255102D02*
D03*
X351500Y258500D02*
D03*
Y261500D02*
D03*
X355173Y267000D02*
D03*
X349500Y264000D02*
D03*
X350421Y271421D02*
D03*
X358500Y272500D02*
D03*
X365500Y246000D02*
D03*
X367500Y250000D02*
D03*
X374000Y248500D02*
D03*
X385500Y260500D02*
D03*
X374240Y252240D02*
D03*
X386500Y248000D02*
D03*
X371000Y263000D02*
D03*
X382559Y252941D02*
D03*
X376441Y269059D02*
D03*
X338500Y271000D02*
D03*
X328827Y268827D02*
D03*
X334000Y275000D02*
D03*
X332500Y280500D02*
D03*
Y283500D02*
D03*
X406000Y283000D02*
D03*
X410000D02*
D03*
X388500Y295500D02*
D03*
Y293000D02*
D03*
X386500D02*
D03*
X384500D02*
D03*
X382500D02*
D03*
X386500Y295500D02*
D03*
X384500D02*
D03*
X382500D02*
D03*
X366000D02*
D03*
X368500D02*
D03*
X366000Y293000D02*
D03*
X368500D02*
D03*
X322000Y278500D02*
D03*
X324327Y274827D02*
D03*
X391500Y282000D02*
D03*
X341500Y280000D02*
D03*
X347500D02*
D03*
X349500D02*
D03*
Y282000D02*
D03*
X347500D02*
D03*
X341500D02*
D03*
Y284000D02*
D03*
X343500D02*
D03*
X347500D02*
D03*
X345500D02*
D03*
Y286000D02*
D03*
X343500D02*
D03*
X341500D02*
D03*
Y288000D02*
D03*
X343500D02*
D03*
X345500D02*
D03*
Y290000D02*
D03*
X343500D02*
D03*
X341500D02*
D03*
X324500Y298500D02*
D03*
X316500D02*
D03*
X318500D02*
D03*
X320500D02*
D03*
X322500D02*
D03*
Y300500D02*
D03*
X320500D02*
D03*
X318500D02*
D03*
X316500D02*
D03*
Y302500D02*
D03*
X318500D02*
D03*
X320500D02*
D03*
X322500D02*
D03*
Y304500D02*
D03*
X320500D02*
D03*
X318500D02*
D03*
X316500D02*
D03*
X338000Y295500D02*
D03*
X342500Y298000D02*
D03*
X356500Y284500D02*
D03*
X352500Y298000D02*
D03*
X358500Y274500D02*
D03*
X360500D02*
D03*
Y272500D02*
D03*
Y278500D02*
D03*
X358500D02*
D03*
Y280500D02*
D03*
X360500D02*
D03*
Y288000D02*
D03*
X358500D02*
D03*
Y290000D02*
D03*
X360500D02*
D03*
%TF.MD5,E88E006F8835865C32E8E3B773E524C7*%
M02*
