G04 Layer_Physical_Order=3*
G04 Layer_Color=128*
%FSLAX25Y25*%
%MOIN*%
%TF.FileFunction,Copper,L3,Inr,Plane*%
%TF.Part,Single*%
G01*
G75*
%ADD30C,0.01000*%
%ADD38C,0.04000*%
%TA.AperFunction,ViaPad*%
%ADD43C,0.05362*%
%TA.AperFunction,ConnectorPad*%
%ADD44C,0.05953*%
%TA.AperFunction,ConnectorPad*%
%ADD45C,0.07724*%
%TA.AperFunction,ViaPad*%
%ADD46C,0.04000*%
%ADD47R,0.03500X0.03000*%
%ADD48R,0.03500X0.03500*%
D30*
X338500Y250277D02*
Y254500D01*
X336500Y263000D02*
Y269500D01*
X315500Y292500D02*
X325500D01*
X331000Y298000D01*
Y299000D01*
X332000Y300000D01*
X335500D01*
X336000Y299500D01*
Y293000D02*
Y299500D01*
X324020Y277500D02*
X328000D01*
X322500Y275980D02*
X324020Y277500D01*
X322500Y274000D02*
Y275980D01*
X411419Y261000D02*
X414057Y258362D01*
X402000Y261000D02*
X411419D01*
X401000Y262000D02*
X402000Y261000D01*
X401000Y262000D02*
Y265000D01*
X402000Y266000D01*
X418000Y287500D02*
X428500D01*
X416500Y286000D02*
X418000Y287500D01*
X416500Y274500D02*
Y286000D01*
X410500Y268500D02*
X416500Y274500D01*
X405500Y268500D02*
X410500D01*
X403000Y266000D02*
X405500Y268500D01*
X402000Y266000D02*
X403000D01*
X336500Y256500D02*
Y263000D01*
Y256500D02*
X338500Y254500D01*
X354000D01*
X362000Y262500D01*
X365000D01*
X365500Y263000D01*
Y267000D01*
X366500Y268000D01*
X371000D01*
X374000D01*
X375000Y267000D01*
X377000D01*
X378000Y268000D01*
Y272000D01*
X376721Y273279D02*
X378000Y272000D01*
X369000Y273279D02*
X376721D01*
X359000Y264500D02*
Y270529D01*
X352000Y257500D02*
X359000Y264500D01*
X342500Y257500D02*
X352000D01*
X341500Y258500D02*
X342500Y257500D01*
X341500Y258500D02*
Y262000D01*
X340500Y263000D02*
X341500Y262000D01*
X336500Y263000D02*
X340500D01*
X350750Y268750D02*
X352221Y270221D01*
X331500Y273500D02*
X335500Y269500D01*
X341500D01*
X342500Y270500D01*
X348500D01*
X354500D02*
X354529Y270529D01*
X366250D01*
X369000Y273279D01*
Y279500D01*
X393500Y284000D02*
Y299000D01*
X348500Y291000D02*
X350000Y289500D01*
Y284000D02*
Y289500D01*
Y284000D02*
X351500Y282500D01*
Y273500D02*
Y282500D01*
X348500Y273500D02*
X351500D01*
X348500Y271000D02*
Y273500D01*
Y271000D02*
X350750Y268750D01*
X352221Y270221D02*
X354500D01*
Y283510D01*
X353500Y284510D02*
X354500Y283510D01*
X353500Y284510D02*
Y291000D01*
X361500D01*
X367000Y284500D02*
X382500D01*
X366000Y285500D02*
X367000Y284500D01*
X366000Y285500D02*
Y290500D01*
X361500Y295000D02*
X366000Y290500D01*
X352000Y295000D02*
X361500D01*
X350500Y296500D02*
X352000Y295000D01*
X341500Y296500D02*
X350500D01*
X338000Y293000D02*
X341500Y296500D01*
X331500Y293000D02*
X338000D01*
X329000Y290500D02*
X331500Y293000D01*
X329000Y278500D02*
Y290500D01*
X328000Y277500D02*
X329000Y278500D01*
X322500Y274000D02*
X323500Y273000D01*
X331000D01*
X332000Y274000D01*
Y286500D01*
X335500Y290000D01*
X338500D01*
X341000Y292500D01*
X347000D01*
X348500Y291000D01*
X361500D02*
X362500Y290000D01*
Y284000D02*
Y290000D01*
Y284000D02*
X367000Y279500D01*
X392500D01*
X393500Y280500D01*
Y284000D01*
X393000Y284500D02*
X393500Y284000D01*
X382500Y284500D02*
X393000D01*
D38*
X313498Y298001D02*
G03*
X429461Y297721I57981J-281D01*
G01*
Y299000D02*
G03*
X428960Y299501I-501J0D01*
G01*
X361502Y307500D02*
G03*
X361000Y308001I-501J0D01*
G01*
X336970Y332543D02*
G03*
X336469Y333045I-501J0D01*
G01*
X328043D02*
G03*
X327542Y332536I0J-501D01*
G01*
X327542D02*
G03*
X327542Y332539I-4042J-35D01*
G01*
X327542Y332500D02*
G03*
X327542Y332536I-4042J0D01*
G01*
X324377Y328554D02*
G03*
X327542Y332500I-877J3946D01*
G01*
X324377Y328554D02*
G03*
X323984Y328065I109J-490D01*
G01*
X314000Y308001D02*
G03*
X313498Y307500I0J-501D01*
G01*
X429461Y297721D02*
Y299000D01*
X361502Y299501D02*
X428960D01*
X361502D02*
Y307500D01*
X336970Y308001D02*
X361000D01*
X336970D02*
Y332543D01*
X328043Y333045D02*
X336469D01*
X327542Y332539D02*
X327542Y332536D01*
X323984Y308001D02*
Y328065D01*
X314000Y308001D02*
X323984D01*
X313498Y297999D02*
Y307500D01*
D43*
X343901Y265000D02*
D03*
Y260000D02*
D03*
X338901Y265000D02*
D03*
X395401Y256000D02*
D03*
X390401D02*
D03*
Y261000D02*
D03*
X395401Y266000D02*
D03*
X390401D02*
D03*
D44*
X326894Y283500D02*
D03*
X321894D02*
D03*
D45*
X423394Y293000D02*
D03*
X416394D02*
D03*
X409394D02*
D03*
X402394D02*
D03*
D46*
X349500Y264000D02*
D03*
X351500Y261500D02*
D03*
X332000Y261000D02*
D03*
X333299Y280701D02*
D03*
X333500Y283500D02*
D03*
X332500Y272827D02*
D03*
X339000Y298000D02*
D03*
X370000Y273000D02*
D03*
X390000Y292500D02*
D03*
X392000D02*
D03*
X394000D02*
D03*
X396000D02*
D03*
X394000Y296500D02*
D03*
X392000D02*
D03*
X396000D02*
D03*
X371500Y256000D02*
D03*
X379390Y254340D02*
D03*
X379673Y245000D02*
D03*
X346000Y251000D02*
D03*
X402500Y275000D02*
D03*
X421000Y284673D02*
D03*
X373280Y265534D02*
D03*
X385404Y263596D02*
D03*
X361000Y267000D02*
D03*
X344000Y253500D02*
D03*
X380000Y259000D02*
D03*
X350500Y252173D02*
D03*
X368000Y255000D02*
D03*
X360000Y256000D02*
D03*
X356102Y255102D02*
D03*
X351500Y258500D02*
D03*
X355173Y267000D02*
D03*
X358500Y272500D02*
D03*
X367500Y250000D02*
D03*
X374000Y248500D02*
D03*
X385500Y260500D02*
D03*
X374240Y252240D02*
D03*
X386500Y248000D02*
D03*
X382559Y252941D02*
D03*
X327500Y268500D02*
D03*
X406000Y283000D02*
D03*
X410000D02*
D03*
X390000Y296500D02*
D03*
X396000Y294500D02*
D03*
X394000D02*
D03*
X392000D02*
D03*
X390000D02*
D03*
X358500Y296000D02*
D03*
X356500D02*
D03*
X360500D02*
D03*
X362500Y295909D02*
D03*
X322000Y278500D02*
D03*
X316500Y301000D02*
D03*
Y303000D02*
D03*
X320500D02*
D03*
Y305000D02*
D03*
X316500D02*
D03*
X338000Y295500D02*
D03*
X342500Y298000D02*
D03*
X356500Y284500D02*
D03*
X352500Y298000D02*
D03*
X358500Y274500D02*
D03*
X360500D02*
D03*
Y272500D02*
D03*
X358500Y290000D02*
D03*
X360500D02*
D03*
X318500Y297000D02*
D03*
X320500D02*
D03*
X322500D02*
D03*
X326500D02*
D03*
X324500D02*
D03*
Y299000D02*
D03*
X322500D02*
D03*
X320500D02*
D03*
X318500D02*
D03*
X322500Y301000D02*
D03*
Y303000D02*
D03*
Y305000D02*
D03*
X320500Y301000D02*
D03*
X318500D02*
D03*
Y303000D02*
D03*
Y305000D02*
D03*
X316500Y299000D02*
D03*
X325500Y291000D02*
D03*
X316500Y297000D02*
D03*
X413839Y264094D02*
D03*
D47*
X341250Y263000D02*
D03*
D48*
X392750Y263750D02*
D03*
%TF.MD5,50D9796AB3F80E0988A0BBB4D1D8196A*%
M02*
