G04 Layer_Color=65535*
%FSLAX25Y25*%
%MOIN*%
%TF.FileFunction,Legend,Top*%
%TF.Part,Single*%
G01*
G75*
%ADD48C,0.00984*%
%ADD49C,0.00787*%
%ADD50C,0.00394*%
%ADD51C,0.00866*%
%ADD52R,0.02000X0.02000*%
G36*
X354000Y262905D02*
X352450Y262310D01*
Y260160D01*
X354000Y259600D01*
Y258885D01*
X348875Y260845D01*
Y261580D01*
X354000Y263675D01*
Y262905D01*
D02*
G37*
G36*
X352530Y258330D02*
X352590Y258325D01*
X352660Y258320D01*
X352735Y258315D01*
X352895Y258295D01*
X353060Y258270D01*
X353220Y258230D01*
X353295Y258205D01*
X353365Y258175D01*
X353370D01*
X353380Y258170D01*
X353400Y258160D01*
X353420Y258145D01*
X353450Y258130D01*
X353485Y258110D01*
X353565Y258055D01*
X353650Y257985D01*
X353740Y257900D01*
X353825Y257800D01*
X353900Y257680D01*
Y257675D01*
X353910Y257665D01*
X353915Y257645D01*
X353930Y257620D01*
X353945Y257590D01*
X353960Y257550D01*
X353975Y257505D01*
X353990Y257455D01*
X354010Y257400D01*
X354025Y257340D01*
X354055Y257205D01*
X354075Y257055D01*
X354085Y256890D01*
Y256880D01*
Y256860D01*
X354080Y256825D01*
Y256780D01*
X354075Y256725D01*
X354065Y256660D01*
X354055Y256585D01*
X354035Y256510D01*
X354015Y256425D01*
X353990Y256340D01*
X353960Y256255D01*
X353920Y256170D01*
X353880Y256085D01*
X353825Y256005D01*
X353770Y255925D01*
X353700Y255855D01*
X353695Y255850D01*
X353680Y255840D01*
X353660Y255820D01*
X353630Y255800D01*
X353585Y255775D01*
X353540Y255745D01*
X353480Y255710D01*
X353410Y255680D01*
X353335Y255645D01*
X353250Y255615D01*
X353155Y255585D01*
X353050Y255560D01*
X352940Y255540D01*
X352820Y255525D01*
X352690Y255515D01*
X352550D01*
X352465Y256125D01*
X352490D01*
X352520Y256130D01*
X352560D01*
X352605Y256135D01*
X352660Y256140D01*
X352720Y256150D01*
X352785Y256160D01*
X352915Y256185D01*
X353050Y256225D01*
X353110Y256250D01*
X353170Y256275D01*
X353220Y256305D01*
X353265Y256340D01*
X353275Y256350D01*
X353300Y256375D01*
X353335Y256420D01*
X353370Y256485D01*
X353410Y256560D01*
X353445Y256655D01*
X353470Y256765D01*
X353475Y256820D01*
X353480Y256885D01*
Y256890D01*
Y256895D01*
Y256910D01*
Y256930D01*
X353475Y256975D01*
X353465Y257035D01*
X353450Y257105D01*
X353430Y257180D01*
X353405Y257255D01*
X353365Y257325D01*
X353360Y257335D01*
X353345Y257355D01*
X353320Y257385D01*
X353280Y257425D01*
X353235Y257470D01*
X353185Y257510D01*
X353120Y257550D01*
X353050Y257580D01*
X353040Y257585D01*
X353010Y257590D01*
X352990Y257600D01*
X352960Y257605D01*
X352930Y257610D01*
X352890Y257620D01*
X352850Y257625D01*
X352800Y257630D01*
X352750Y257640D01*
X352690Y257645D01*
X352630Y257650D01*
X352560D01*
X352485Y257655D01*
X348875D01*
Y258335D01*
X352475D01*
X352530Y258330D01*
D02*
G37*
G36*
X329045Y300500D02*
X328460D01*
Y300960D01*
X328455Y300955D01*
X328445Y300935D01*
X328425Y300910D01*
X328395Y300875D01*
X328355Y300835D01*
X328310Y300790D01*
X328260Y300740D01*
X328195Y300690D01*
X328130Y300635D01*
X328050Y300590D01*
X327965Y300540D01*
X327870Y300500D01*
X327770Y300465D01*
X327660Y300440D01*
X327545Y300420D01*
X327420Y300415D01*
X327375D01*
X327345Y300420D01*
X327305Y300425D01*
X327260Y300430D01*
X327210Y300435D01*
X327150Y300445D01*
X327025Y300475D01*
X326885Y300520D01*
X326815Y300545D01*
X326745Y300580D01*
X326670Y300615D01*
X326600Y300660D01*
X326595Y300665D01*
X326585Y300670D01*
X326565Y300685D01*
X326540Y300705D01*
X326510Y300730D01*
X326470Y300760D01*
X326430Y300795D01*
X326390Y300835D01*
X326345Y300885D01*
X326295Y300935D01*
X326200Y301050D01*
X326110Y301185D01*
X326025Y301340D01*
Y301345D01*
X326015Y301360D01*
X326005Y301385D01*
X325995Y301420D01*
X325980Y301460D01*
X325960Y301510D01*
X325945Y301565D01*
X325925Y301630D01*
X325905Y301705D01*
X325890Y301780D01*
X325870Y301865D01*
X325855Y301950D01*
X325835Y302145D01*
X325825Y302350D01*
Y302355D01*
Y302375D01*
Y302405D01*
X325830Y302445D01*
Y302495D01*
X325835Y302550D01*
X325840Y302615D01*
X325850Y302685D01*
X325860Y302760D01*
X325870Y302845D01*
X325905Y303015D01*
X325950Y303190D01*
X326010Y303360D01*
Y303365D01*
X326020Y303380D01*
X326030Y303405D01*
X326045Y303435D01*
X326065Y303475D01*
X326090Y303515D01*
X326150Y303620D01*
X326225Y303730D01*
X326320Y303845D01*
X326435Y303955D01*
X326500Y304010D01*
X326565Y304055D01*
X326570Y304060D01*
X326580Y304065D01*
X326600Y304080D01*
X326630Y304095D01*
X326665Y304110D01*
X326705Y304135D01*
X326755Y304155D01*
X326805Y304180D01*
X326865Y304200D01*
X326930Y304225D01*
X327070Y304260D01*
X327225Y304290D01*
X327305Y304295D01*
X327390Y304300D01*
X327445D01*
X327475Y304295D01*
X327510D01*
X327590Y304280D01*
X327685Y304265D01*
X327785Y304240D01*
X327885Y304205D01*
X327985Y304155D01*
X327990D01*
X327995Y304150D01*
X328010Y304140D01*
X328030Y304130D01*
X328080Y304100D01*
X328140Y304055D01*
X328205Y304005D01*
X328280Y303940D01*
X328350Y303870D01*
X328415Y303790D01*
Y305625D01*
X329045D01*
Y300500D01*
D02*
G37*
G36*
X335000Y270000D02*
X331156D01*
Y270510D01*
X334546D01*
Y272400D01*
X335000D01*
Y270000D01*
D02*
G37*
G36*
Y282964D02*
X331985Y280946D01*
X335000D01*
Y280459D01*
X331156D01*
Y280980D01*
X334175Y283001D01*
X331156D01*
Y283489D01*
X335000D01*
Y282964D01*
D02*
G37*
G36*
X333170Y279761D02*
X333215D01*
X333264Y279757D01*
X333320Y279754D01*
X333380Y279746D01*
X333440Y279739D01*
X333571Y279720D01*
X333706Y279694D01*
X333838Y279660D01*
X333841D01*
X333853Y279656D01*
X333871Y279649D01*
X333894Y279641D01*
X333924Y279630D01*
X333958Y279619D01*
X333995Y279604D01*
X334033Y279589D01*
X334122Y279551D01*
X334216Y279506D01*
X334310Y279454D01*
X334396Y279398D01*
X334400D01*
X334407Y279390D01*
X334419Y279382D01*
X334434Y279371D01*
X334471Y279338D01*
X334524Y279296D01*
X334580Y279244D01*
X334636Y279184D01*
X334693Y279120D01*
X334745Y279049D01*
Y279045D01*
X334749Y279041D01*
X334756Y279030D01*
X334768Y279015D01*
X334775Y278996D01*
X334790Y278974D01*
X334816Y278921D01*
X334846Y278854D01*
X334880Y278775D01*
X334910Y278685D01*
X334936Y278588D01*
Y278584D01*
X334940Y278576D01*
X334944Y278561D01*
X334947Y278539D01*
X334951Y278516D01*
X334955Y278486D01*
X334963Y278449D01*
X334966Y278411D01*
X334974Y278366D01*
X334981Y278321D01*
X334989Y278216D01*
X334996Y278100D01*
X335000Y277973D01*
Y276585D01*
X331156D01*
Y277909D01*
Y277912D01*
Y277927D01*
Y277950D01*
Y277984D01*
Y278021D01*
X331160Y278063D01*
Y278111D01*
X331164Y278160D01*
X331171Y278273D01*
X331179Y278385D01*
X331194Y278494D01*
X331201Y278546D01*
X331212Y278591D01*
Y278595D01*
X331216Y278606D01*
X331220Y278625D01*
X331227Y278647D01*
X331235Y278678D01*
X331246Y278708D01*
X331261Y278745D01*
X331276Y278786D01*
X331314Y278876D01*
X331363Y278970D01*
X331419Y279067D01*
X331490Y279157D01*
X331494Y279161D01*
X331501Y279172D01*
X331516Y279187D01*
X331535Y279206D01*
X331561Y279233D01*
X331591Y279262D01*
X331629Y279292D01*
X331666Y279330D01*
X331711Y279364D01*
X331764Y279401D01*
X331816Y279439D01*
X331873Y279476D01*
X331936Y279514D01*
X332004Y279548D01*
X332146Y279611D01*
X332150D01*
X332165Y279619D01*
X332188Y279626D01*
X332218Y279634D01*
X332255Y279649D01*
X332300Y279660D01*
X332352Y279675D01*
X332409Y279690D01*
X332472Y279701D01*
X332544Y279716D01*
X332619Y279731D01*
X332698Y279743D01*
X332784Y279750D01*
X332870Y279757D01*
X333057Y279765D01*
X333133D01*
X333170Y279761D01*
D02*
G37*
G36*
X335000Y273015D02*
X331156D01*
Y275794D01*
X331610D01*
Y273525D01*
X332784D01*
Y275651D01*
X333238D01*
Y273525D01*
X334546D01*
Y275884D01*
X335000D01*
Y273015D01*
D02*
G37*
G36*
X329095Y320496D02*
X329150Y320492D01*
X329209Y320488D01*
X329279Y320480D01*
X329354Y320469D01*
X329437Y320457D01*
X329523Y320441D01*
X329613Y320421D01*
X329708Y320398D01*
X329802Y320370D01*
X329900Y320335D01*
X329995Y320300D01*
X330093Y320256D01*
X330101Y320252D01*
X330117Y320245D01*
X330140Y320229D01*
X330175Y320209D01*
X330219Y320186D01*
X330266Y320154D01*
X330321Y320119D01*
X330380Y320076D01*
X330439Y320028D01*
X330502Y319973D01*
X330564Y319918D01*
X330627Y319851D01*
X330690Y319785D01*
X330749Y319710D01*
X330800Y319632D01*
X330851Y319549D01*
X330855Y319545D01*
X330863Y319529D01*
X330875Y319502D01*
X330891Y319466D01*
X330910Y319423D01*
X330930Y319372D01*
X330954Y319309D01*
X330977Y319242D01*
X330997Y319168D01*
X331020Y319085D01*
X331040Y318999D01*
X331060Y318904D01*
X331075Y318806D01*
X331087Y318704D01*
X331095Y318594D01*
X331099Y318484D01*
Y318480D01*
Y318464D01*
Y318441D01*
X331095Y318409D01*
Y318374D01*
X331091Y318327D01*
X331087Y318276D01*
X331079Y318221D01*
X331071Y318162D01*
X331064Y318099D01*
X331036Y317969D01*
X331001Y317831D01*
X330954Y317698D01*
Y317694D01*
X330946Y317682D01*
X330938Y317663D01*
X330926Y317639D01*
X330914Y317612D01*
X330895Y317576D01*
X330851Y317497D01*
X330796Y317407D01*
X330730Y317317D01*
X330651Y317226D01*
X330561Y317144D01*
X330557Y317140D01*
X330549Y317136D01*
X330533Y317124D01*
X330513Y317108D01*
X330490Y317093D01*
X330458Y317073D01*
X330423Y317053D01*
X330384Y317030D01*
X330341Y317002D01*
X330289Y316979D01*
X330234Y316955D01*
X330175Y316928D01*
X330113Y316904D01*
X330046Y316880D01*
X329975Y316857D01*
X329900Y316837D01*
X329771Y317317D01*
X329775D01*
X329782Y317321D01*
X329802Y317325D01*
X329822Y317332D01*
X329845Y317340D01*
X329877Y317352D01*
X329947Y317380D01*
X330022Y317411D01*
X330105Y317450D01*
X330183Y317494D01*
X330254Y317545D01*
X330258D01*
X330262Y317552D01*
X330282Y317568D01*
X330317Y317600D01*
X330356Y317643D01*
X330399Y317698D01*
X330447Y317765D01*
X330494Y317839D01*
X330537Y317930D01*
Y317934D01*
X330541Y317942D01*
X330549Y317953D01*
X330553Y317973D01*
X330561Y317997D01*
X330572Y318024D01*
X330580Y318056D01*
X330592Y318091D01*
X330608Y318173D01*
X330627Y318268D01*
X330639Y318374D01*
X330643Y318484D01*
Y318488D01*
Y318500D01*
Y318519D01*
Y318547D01*
X330639Y318578D01*
Y318614D01*
X330635Y318653D01*
X330627Y318700D01*
X330616Y318798D01*
X330596Y318904D01*
X330568Y319015D01*
X330529Y319117D01*
Y319121D01*
X330525Y319128D01*
X330517Y319140D01*
X330509Y319160D01*
X330498Y319183D01*
X330486Y319207D01*
X330451Y319270D01*
X330407Y319337D01*
X330360Y319408D01*
X330301Y319478D01*
X330234Y319545D01*
X330226Y319553D01*
X330203Y319572D01*
X330168Y319600D01*
X330117Y319635D01*
X330058Y319679D01*
X329991Y319718D01*
X329916Y319761D01*
X329837Y319796D01*
X329834D01*
X329822Y319804D01*
X329802Y319812D01*
X329771Y319820D01*
X329739Y319832D01*
X329696Y319844D01*
X329649Y319859D01*
X329598Y319871D01*
X329539Y319887D01*
X329476Y319903D01*
X329409Y319914D01*
X329338Y319926D01*
X329189Y319942D01*
X329028Y319950D01*
X328977D01*
X328938Y319946D01*
X328890D01*
X328839Y319938D01*
X328780Y319934D01*
X328713Y319926D01*
X328643Y319918D01*
X328572Y319903D01*
X328419Y319871D01*
X328269Y319824D01*
X328195Y319796D01*
X328124Y319765D01*
X328120Y319761D01*
X328108Y319757D01*
X328089Y319745D01*
X328065Y319730D01*
X328034Y319710D01*
X328002Y319687D01*
X327963Y319659D01*
X327920Y319627D01*
X327876Y319592D01*
X327833Y319553D01*
X327790Y319510D01*
X327743Y319459D01*
X327699Y319408D01*
X327660Y319352D01*
X327621Y319290D01*
X327586Y319227D01*
Y319223D01*
X327578Y319211D01*
X327570Y319191D01*
X327558Y319164D01*
X327546Y319132D01*
X327531Y319093D01*
X327515Y319050D01*
X327499Y318999D01*
X327483Y318948D01*
X327468Y318889D01*
X327440Y318759D01*
X327420Y318621D01*
X327417Y318551D01*
X327413Y318476D01*
Y318472D01*
Y318460D01*
Y318441D01*
X327417Y318417D01*
Y318386D01*
X327420Y318350D01*
X327424Y318307D01*
X327428Y318260D01*
X327444Y318158D01*
X327468Y318044D01*
X327499Y317922D01*
X327542Y317800D01*
Y317796D01*
X327550Y317784D01*
X327554Y317769D01*
X327566Y317745D01*
X327578Y317718D01*
X327593Y317686D01*
X327629Y317612D01*
X327672Y317533D01*
X327719Y317450D01*
X327774Y317368D01*
X327829Y317297D01*
X328580D01*
Y318480D01*
X329055D01*
Y316774D01*
X327558D01*
X327554Y316778D01*
X327546Y316790D01*
X327527Y316814D01*
X327507Y316841D01*
X327480Y316877D01*
X327452Y316920D01*
X327420Y316971D01*
X327385Y317022D01*
X327346Y317081D01*
X327307Y317144D01*
X327232Y317281D01*
X327157Y317431D01*
X327090Y317588D01*
Y317592D01*
X327082Y317607D01*
X327075Y317627D01*
X327067Y317659D01*
X327055Y317698D01*
X327039Y317741D01*
X327028Y317792D01*
X327012Y317851D01*
X326996Y317914D01*
X326984Y317981D01*
X326969Y318052D01*
X326957Y318126D01*
X326941Y318280D01*
X326933Y318445D01*
Y318453D01*
Y318472D01*
Y318504D01*
X326937Y318543D01*
X326941Y318598D01*
X326945Y318657D01*
X326953Y318728D01*
X326965Y318802D01*
X326976Y318885D01*
X326996Y318967D01*
X327016Y319058D01*
X327039Y319152D01*
X327067Y319246D01*
X327102Y319341D01*
X327141Y319431D01*
X327185Y319525D01*
X327189Y319529D01*
X327197Y319545D01*
X327212Y319572D01*
X327232Y319604D01*
X327259Y319643D01*
X327291Y319690D01*
X327330Y319742D01*
X327373Y319796D01*
X327420Y319855D01*
X327476Y319914D01*
X327538Y319977D01*
X327601Y320036D01*
X327672Y320095D01*
X327751Y320154D01*
X327833Y320205D01*
X327920Y320256D01*
X327923Y320260D01*
X327943Y320268D01*
X327967Y320280D01*
X328006Y320296D01*
X328049Y320311D01*
X328104Y320335D01*
X328167Y320355D01*
X328234Y320378D01*
X328313Y320402D01*
X328395Y320421D01*
X328485Y320445D01*
X328580Y320461D01*
X328678Y320476D01*
X328780Y320488D01*
X328886Y320496D01*
X328996Y320500D01*
X329055D01*
X329095Y320496D01*
D02*
G37*
G36*
X331028Y315446D02*
X327865Y313328D01*
X331028D01*
Y312817D01*
X327000D01*
Y313367D01*
X330160Y315481D01*
X327000D01*
Y315992D01*
X331028D01*
Y315446D01*
D02*
G37*
G36*
Y310537D02*
Y310533D01*
Y310518D01*
Y310494D01*
Y310459D01*
Y310420D01*
X331024Y310376D01*
Y310325D01*
X331020Y310274D01*
X331013Y310156D01*
X331005Y310038D01*
X330989Y309924D01*
X330981Y309869D01*
X330969Y309822D01*
Y309818D01*
X330965Y309806D01*
X330961Y309787D01*
X330954Y309763D01*
X330946Y309732D01*
X330934Y309700D01*
X330918Y309661D01*
X330903Y309618D01*
X330863Y309524D01*
X330812Y309425D01*
X330753Y309323D01*
X330679Y309229D01*
X330675Y309225D01*
X330667Y309213D01*
X330651Y309197D01*
X330631Y309178D01*
X330604Y309150D01*
X330572Y309119D01*
X330533Y309087D01*
X330494Y309048D01*
X330447Y309013D01*
X330392Y308973D01*
X330337Y308934D01*
X330278Y308895D01*
X330211Y308855D01*
X330140Y308820D01*
X329991Y308753D01*
X329987D01*
X329971Y308745D01*
X329947Y308737D01*
X329916Y308730D01*
X329877Y308714D01*
X329830Y308702D01*
X329775Y308686D01*
X329716Y308671D01*
X329649Y308659D01*
X329574Y308643D01*
X329496Y308628D01*
X329413Y308616D01*
X329323Y308608D01*
X329232Y308600D01*
X329036Y308592D01*
X328957D01*
X328918Y308596D01*
X328871D01*
X328820Y308600D01*
X328761Y308604D01*
X328698Y308612D01*
X328635Y308620D01*
X328497Y308639D01*
X328356Y308667D01*
X328218Y308702D01*
X328214D01*
X328203Y308706D01*
X328183Y308714D01*
X328159Y308722D01*
X328128Y308734D01*
X328093Y308745D01*
X328053Y308761D01*
X328014Y308777D01*
X327920Y308816D01*
X327821Y308863D01*
X327723Y308918D01*
X327633Y308977D01*
X327629D01*
X327621Y308985D01*
X327609Y308993D01*
X327593Y309005D01*
X327554Y309040D01*
X327499Y309083D01*
X327440Y309138D01*
X327381Y309201D01*
X327322Y309268D01*
X327267Y309343D01*
Y309347D01*
X327263Y309351D01*
X327256Y309362D01*
X327244Y309378D01*
X327236Y309398D01*
X327220Y309421D01*
X327193Y309476D01*
X327161Y309547D01*
X327126Y309630D01*
X327094Y309724D01*
X327067Y309826D01*
Y309830D01*
X327063Y309838D01*
X327059Y309854D01*
X327055Y309877D01*
X327051Y309901D01*
X327047Y309932D01*
X327039Y309971D01*
X327035Y310011D01*
X327028Y310058D01*
X327020Y310105D01*
X327012Y310215D01*
X327004Y310337D01*
X327000Y310471D01*
Y311925D01*
X331028D01*
Y310537D01*
D02*
G37*
G36*
X323670Y304295D02*
X323725Y304290D01*
X323785Y304285D01*
X323860Y304275D01*
X323945Y304255D01*
X324030Y304235D01*
X324125Y304210D01*
X324225Y304175D01*
X324325Y304135D01*
X324425Y304085D01*
X324530Y304025D01*
X324630Y303960D01*
X324725Y303880D01*
X324815Y303790D01*
X324820Y303785D01*
X324835Y303765D01*
X324860Y303735D01*
X324890Y303695D01*
X324925Y303645D01*
X324965Y303580D01*
X325010Y303505D01*
X325055Y303420D01*
X325095Y303325D01*
X325140Y303215D01*
X325180Y303100D01*
X325215Y302970D01*
X325245Y302835D01*
X325270Y302685D01*
X325285Y302530D01*
X325290Y302360D01*
Y302350D01*
Y302335D01*
Y302320D01*
Y302295D01*
Y302265D01*
X325285Y302235D01*
Y302195D01*
X322510D01*
Y302190D01*
Y302170D01*
X322515Y302135D01*
X322520Y302095D01*
X322530Y302045D01*
X322540Y301985D01*
X322550Y301920D01*
X322565Y301845D01*
X322610Y301695D01*
X322640Y301615D01*
X322670Y301540D01*
X322710Y301465D01*
X322750Y301390D01*
X322800Y301320D01*
X322855Y301255D01*
X322860Y301250D01*
X322870Y301240D01*
X322885Y301225D01*
X322910Y301205D01*
X322940Y301180D01*
X322980Y301150D01*
X323020Y301125D01*
X323070Y301095D01*
X323125Y301060D01*
X323180Y301035D01*
X323245Y301005D01*
X323315Y300980D01*
X323390Y300960D01*
X323465Y300945D01*
X323550Y300935D01*
X323635Y300930D01*
X323670D01*
X323695Y300935D01*
X323725D01*
X323755Y300940D01*
X323840Y300955D01*
X323930Y300975D01*
X324030Y301005D01*
X324130Y301050D01*
X324225Y301110D01*
X324230D01*
X324235Y301120D01*
X324265Y301145D01*
X324310Y301190D01*
X324365Y301255D01*
X324430Y301335D01*
X324495Y301435D01*
X324525Y301495D01*
X324555Y301560D01*
X324585Y301625D01*
X324615Y301700D01*
X325265Y301615D01*
Y301610D01*
X325260Y301590D01*
X325250Y301560D01*
X325235Y301520D01*
X325220Y301470D01*
X325195Y301415D01*
X325170Y301355D01*
X325140Y301290D01*
X325100Y301220D01*
X325060Y301145D01*
X325015Y301070D01*
X324960Y300995D01*
X324905Y300925D01*
X324840Y300855D01*
X324770Y300785D01*
X324695Y300725D01*
X324690Y300720D01*
X324675Y300710D01*
X324655Y300695D01*
X324620Y300675D01*
X324580Y300655D01*
X324530Y300625D01*
X324470Y300600D01*
X324405Y300570D01*
X324335Y300540D01*
X324255Y300515D01*
X324165Y300485D01*
X324075Y300465D01*
X323970Y300445D01*
X323865Y300430D01*
X323755Y300420D01*
X323635Y300415D01*
X323600D01*
X323555Y300420D01*
X323500Y300425D01*
X323430Y300430D01*
X323350Y300440D01*
X323265Y300455D01*
X323170Y300480D01*
X323065Y300505D01*
X322960Y300535D01*
X322855Y300580D01*
X322745Y300625D01*
X322640Y300685D01*
X322535Y300750D01*
X322435Y300825D01*
X322340Y300915D01*
X322335Y300920D01*
X322320Y300940D01*
X322295Y300965D01*
X322265Y301010D01*
X322230Y301060D01*
X322190Y301120D01*
X322145Y301195D01*
X322105Y301280D01*
X322060Y301375D01*
X322015Y301480D01*
X321975Y301595D01*
X321940Y301720D01*
X321910Y301855D01*
X321885Y302005D01*
X321870Y302160D01*
X321865Y302325D01*
Y302330D01*
Y302335D01*
Y302365D01*
X321870Y302415D01*
X321875Y302480D01*
X321880Y302560D01*
X321890Y302650D01*
X321905Y302750D01*
X321925Y302860D01*
X321950Y302970D01*
X321980Y303090D01*
X322020Y303210D01*
X322070Y303335D01*
X322125Y303455D01*
X322185Y303570D01*
X322260Y303680D01*
X322345Y303780D01*
X322350Y303785D01*
X322370Y303805D01*
X322395Y303830D01*
X322435Y303860D01*
X322480Y303900D01*
X322540Y303945D01*
X322605Y303990D01*
X322685Y304040D01*
X322770Y304090D01*
X322865Y304135D01*
X322970Y304180D01*
X323080Y304220D01*
X323200Y304250D01*
X323325Y304280D01*
X323460Y304295D01*
X323600Y304300D01*
X323635D01*
X323670Y304295D01*
D02*
G37*
G36*
X331540Y305640D02*
X331580D01*
X331620Y305635D01*
X331670Y305630D01*
X331725Y305625D01*
X331845Y305600D01*
X331970Y305570D01*
X332105Y305525D01*
X332240Y305465D01*
X332245D01*
X332255Y305455D01*
X332275Y305445D01*
X332300Y305430D01*
X332330Y305415D01*
X332360Y305390D01*
X332440Y305335D01*
X332530Y305265D01*
X332620Y305180D01*
X332705Y305080D01*
X332780Y304970D01*
Y304965D01*
X332790Y304955D01*
X332800Y304940D01*
X332810Y304915D01*
X332825Y304890D01*
X332840Y304855D01*
X332875Y304770D01*
X332910Y304675D01*
X332940Y304560D01*
X332960Y304440D01*
X332970Y304310D01*
Y304305D01*
Y304295D01*
Y304280D01*
X332965Y304255D01*
Y304225D01*
X332960Y304190D01*
X332950Y304110D01*
X332925Y304015D01*
X332895Y303915D01*
X332850Y303810D01*
X332790Y303705D01*
Y303700D01*
X332780Y303695D01*
X332770Y303680D01*
X332755Y303660D01*
X332715Y303610D01*
X332655Y303550D01*
X332580Y303480D01*
X332490Y303410D01*
X332385Y303340D01*
X332260Y303275D01*
X332265D01*
X332280Y303270D01*
X332305Y303265D01*
X332335Y303255D01*
X332375Y303240D01*
X332415Y303225D01*
X332520Y303180D01*
X332630Y303125D01*
X332750Y303045D01*
X332865Y302955D01*
X332915Y302900D01*
X332965Y302840D01*
X332970Y302835D01*
X332975Y302825D01*
X332990Y302805D01*
X333005Y302780D01*
X333025Y302750D01*
X333045Y302710D01*
X333070Y302665D01*
X333095Y302615D01*
X333115Y302555D01*
X333140Y302495D01*
X333160Y302425D01*
X333180Y302355D01*
X333210Y302195D01*
X333215Y302105D01*
X333220Y302015D01*
Y302010D01*
Y301985D01*
X333215Y301950D01*
Y301905D01*
X333205Y301845D01*
X333195Y301780D01*
X333180Y301705D01*
X333160Y301620D01*
X333135Y301535D01*
X333100Y301445D01*
X333060Y301350D01*
X333015Y301255D01*
X332955Y301160D01*
X332890Y301060D01*
X332815Y300970D01*
X332730Y300880D01*
X332725Y300875D01*
X332710Y300860D01*
X332680Y300835D01*
X332640Y300810D01*
X332595Y300770D01*
X332535Y300735D01*
X332470Y300690D01*
X332390Y300650D01*
X332305Y300605D01*
X332210Y300560D01*
X332110Y300525D01*
X332000Y300490D01*
X331885Y300460D01*
X331760Y300435D01*
X331630Y300420D01*
X331490Y300415D01*
X331460D01*
X331425Y300420D01*
X331380D01*
X331320Y300425D01*
X331255Y300435D01*
X331180Y300450D01*
X331095Y300465D01*
X331010Y300485D01*
X330920Y300515D01*
X330825Y300545D01*
X330735Y300585D01*
X330640Y300630D01*
X330545Y300685D01*
X330455Y300745D01*
X330370Y300815D01*
X330365Y300820D01*
X330350Y300835D01*
X330330Y300855D01*
X330300Y300890D01*
X330265Y300930D01*
X330225Y300975D01*
X330185Y301030D01*
X330140Y301095D01*
X330095Y301165D01*
X330050Y301245D01*
X330010Y301330D01*
X329970Y301425D01*
X329935Y301525D01*
X329905Y301630D01*
X329880Y301740D01*
X329865Y301860D01*
X330495Y301945D01*
Y301940D01*
X330500Y301920D01*
X330505Y301895D01*
X330515Y301855D01*
X330525Y301815D01*
X330540Y301760D01*
X330560Y301705D01*
X330580Y301645D01*
X330630Y301520D01*
X330695Y301390D01*
X330770Y301270D01*
X330815Y301220D01*
X330860Y301170D01*
X330865D01*
X330870Y301160D01*
X330885Y301150D01*
X330905Y301135D01*
X330930Y301115D01*
X330960Y301095D01*
X331035Y301055D01*
X331130Y301010D01*
X331240Y300970D01*
X331360Y300945D01*
X331425Y300940D01*
X331495Y300935D01*
X331540D01*
X331570Y300940D01*
X331610Y300945D01*
X331650Y300950D01*
X331700Y300960D01*
X331755Y300975D01*
X331875Y301010D01*
X331935Y301035D01*
X332000Y301065D01*
X332065Y301100D01*
X332125Y301140D01*
X332185Y301185D01*
X332245Y301240D01*
X332250Y301245D01*
X332260Y301255D01*
X332275Y301270D01*
X332295Y301295D01*
X332315Y301325D01*
X332340Y301360D01*
X332370Y301400D01*
X332400Y301450D01*
X332425Y301500D01*
X332455Y301560D01*
X332505Y301690D01*
X332520Y301760D01*
X332535Y301835D01*
X332545Y301915D01*
X332550Y302000D01*
Y302005D01*
Y302020D01*
Y302040D01*
X332545Y302075D01*
X332540Y302110D01*
X332535Y302155D01*
X332525Y302200D01*
X332515Y302255D01*
X332480Y302365D01*
X332460Y302425D01*
X332430Y302485D01*
X332395Y302545D01*
X332360Y302605D01*
X332315Y302660D01*
X332265Y302715D01*
X332260Y302720D01*
X332250Y302725D01*
X332235Y302740D01*
X332215Y302760D01*
X332185Y302780D01*
X332150Y302805D01*
X332115Y302830D01*
X332070Y302855D01*
X332020Y302880D01*
X331965Y302905D01*
X331840Y302950D01*
X331700Y302985D01*
X331625Y302990D01*
X331545Y302995D01*
X331515D01*
X331475Y302990D01*
X331425Y302985D01*
X331360Y302980D01*
X331285Y302970D01*
X331200Y302950D01*
X331105Y302930D01*
X331175Y303480D01*
X331185D01*
X331210Y303475D01*
X331245Y303470D01*
X331315D01*
X331345Y303475D01*
X331380D01*
X331420Y303480D01*
X331465Y303490D01*
X331515Y303495D01*
X331630Y303520D01*
X331750Y303560D01*
X331875Y303610D01*
X332000Y303680D01*
X332005Y303685D01*
X332015Y303690D01*
X332030Y303700D01*
X332050Y303720D01*
X332075Y303740D01*
X332105Y303770D01*
X332130Y303800D01*
X332165Y303840D01*
X332195Y303880D01*
X332220Y303930D01*
X332250Y303985D01*
X332275Y304040D01*
X332295Y304105D01*
X332310Y304175D01*
X332320Y304245D01*
X332325Y304325D01*
Y304330D01*
Y304340D01*
Y304360D01*
X332320Y304385D01*
Y304415D01*
X332315Y304450D01*
X332295Y304530D01*
X332270Y304620D01*
X332225Y304715D01*
X332170Y304810D01*
X332130Y304855D01*
X332090Y304900D01*
X332085Y304905D01*
X332080Y304910D01*
X332065Y304920D01*
X332050Y304935D01*
X331995Y304975D01*
X331925Y305015D01*
X331840Y305055D01*
X331735Y305095D01*
X331615Y305120D01*
X331555Y305130D01*
X331450D01*
X331425Y305125D01*
X331390D01*
X331355Y305120D01*
X331270Y305100D01*
X331170Y305075D01*
X331070Y305030D01*
X330965Y304975D01*
X330915Y304935D01*
X330870Y304895D01*
X330865Y304890D01*
X330860Y304885D01*
X330845Y304870D01*
X330830Y304850D01*
X330810Y304830D01*
X330790Y304800D01*
X330765Y304765D01*
X330740Y304725D01*
X330715Y304675D01*
X330685Y304625D01*
X330660Y304570D01*
X330635Y304505D01*
X330615Y304440D01*
X330590Y304365D01*
X330575Y304290D01*
X330560Y304205D01*
X329930Y304315D01*
Y304320D01*
X329935Y304345D01*
X329945Y304375D01*
X329955Y304420D01*
X329970Y304470D01*
X329990Y304535D01*
X330010Y304600D01*
X330040Y304675D01*
X330070Y304750D01*
X330110Y304830D01*
X330150Y304915D01*
X330200Y304995D01*
X330250Y305075D01*
X330310Y305155D01*
X330380Y305225D01*
X330450Y305295D01*
X330455Y305300D01*
X330470Y305310D01*
X330490Y305325D01*
X330525Y305350D01*
X330565Y305375D01*
X330610Y305405D01*
X330670Y305440D01*
X330730Y305470D01*
X330800Y305505D01*
X330880Y305535D01*
X330965Y305565D01*
X331055Y305590D01*
X331150Y305615D01*
X331250Y305630D01*
X331360Y305640D01*
X331470Y305645D01*
X331510D01*
X331540Y305640D01*
D02*
G37*
G36*
X337000Y304960D02*
X334945D01*
X334670Y303575D01*
X334675Y303580D01*
X334690Y303590D01*
X334715Y303605D01*
X334750Y303625D01*
X334790Y303650D01*
X334845Y303680D01*
X334900Y303705D01*
X334965Y303740D01*
X335035Y303770D01*
X335110Y303795D01*
X335275Y303850D01*
X335360Y303870D01*
X335450Y303885D01*
X335545Y303895D01*
X335640Y303900D01*
X335670D01*
X335705Y303895D01*
X335755D01*
X335810Y303885D01*
X335880Y303875D01*
X335955Y303860D01*
X336035Y303840D01*
X336120Y303815D01*
X336215Y303785D01*
X336310Y303750D01*
X336405Y303705D01*
X336500Y303650D01*
X336595Y303590D01*
X336685Y303515D01*
X336775Y303435D01*
X336780Y303430D01*
X336795Y303415D01*
X336820Y303385D01*
X336850Y303350D01*
X336885Y303305D01*
X336920Y303250D01*
X336965Y303185D01*
X337010Y303110D01*
X337050Y303030D01*
X337095Y302940D01*
X337130Y302840D01*
X337170Y302735D01*
X337195Y302620D01*
X337220Y302500D01*
X337235Y302370D01*
X337240Y302235D01*
Y302225D01*
Y302205D01*
X337235Y302170D01*
Y302120D01*
X337230Y302060D01*
X337220Y301990D01*
X337205Y301910D01*
X337190Y301825D01*
X337165Y301735D01*
X337140Y301635D01*
X337105Y301535D01*
X337065Y301435D01*
X337020Y301335D01*
X336965Y301230D01*
X336900Y301130D01*
X336830Y301035D01*
X336825Y301030D01*
X336805Y301010D01*
X336780Y300980D01*
X336740Y300940D01*
X336690Y300890D01*
X336630Y300840D01*
X336560Y300785D01*
X336480Y300725D01*
X336385Y300665D01*
X336285Y300610D01*
X336175Y300560D01*
X336055Y300510D01*
X335925Y300470D01*
X335790Y300440D01*
X335640Y300420D01*
X335485Y300415D01*
X335455D01*
X335420Y300420D01*
X335370D01*
X335310Y300425D01*
X335240Y300435D01*
X335165Y300450D01*
X335080Y300465D01*
X334990Y300485D01*
X334900Y300510D01*
X334805Y300540D01*
X334705Y300580D01*
X334610Y300625D01*
X334515Y300675D01*
X334425Y300735D01*
X334340Y300805D01*
X334335Y300810D01*
X334320Y300825D01*
X334300Y300845D01*
X334270Y300875D01*
X334235Y300915D01*
X334200Y300965D01*
X334155Y301020D01*
X334115Y301080D01*
X334070Y301150D01*
X334025Y301230D01*
X333985Y301315D01*
X333945Y301410D01*
X333910Y301510D01*
X333880Y301615D01*
X333855Y301725D01*
X333840Y301845D01*
X334500Y301900D01*
Y301895D01*
X334505Y301880D01*
X334510Y301855D01*
X334515Y301820D01*
X334525Y301780D01*
X334535Y301735D01*
X334570Y301625D01*
X334615Y301510D01*
X334670Y301390D01*
X334745Y301270D01*
X334790Y301220D01*
X334835Y301170D01*
X334840Y301165D01*
X334850Y301160D01*
X334865Y301150D01*
X334885Y301135D01*
X334910Y301115D01*
X334940Y301095D01*
X335020Y301050D01*
X335115Y301005D01*
X335225Y300970D01*
X335350Y300940D01*
X335415Y300935D01*
X335485Y300930D01*
X335530D01*
X335560Y300935D01*
X335600Y300940D01*
X335645Y300950D01*
X335695Y300960D01*
X335750Y300975D01*
X335875Y301015D01*
X335935Y301040D01*
X336000Y301075D01*
X336065Y301115D01*
X336130Y301160D01*
X336195Y301210D01*
X336255Y301270D01*
X336260Y301275D01*
X336270Y301285D01*
X336285Y301305D01*
X336305Y301335D01*
X336330Y301365D01*
X336355Y301410D01*
X336385Y301460D01*
X336415Y301515D01*
X336440Y301575D01*
X336470Y301645D01*
X336495Y301720D01*
X336520Y301800D01*
X336540Y301885D01*
X336555Y301980D01*
X336565Y302075D01*
X336570Y302180D01*
Y302185D01*
Y302205D01*
Y302230D01*
X336565Y302270D01*
X336560Y302315D01*
X336555Y302365D01*
X336545Y302425D01*
X336530Y302490D01*
X336495Y302625D01*
X336470Y302695D01*
X336440Y302765D01*
X336405Y302835D01*
X336365Y302905D01*
X336320Y302970D01*
X336265Y303030D01*
X336260Y303035D01*
X336250Y303045D01*
X336235Y303060D01*
X336210Y303080D01*
X336180Y303105D01*
X336145Y303130D01*
X336100Y303160D01*
X336055Y303190D01*
X336000Y303215D01*
X335940Y303245D01*
X335875Y303270D01*
X335805Y303295D01*
X335725Y303315D01*
X335645Y303330D01*
X335560Y303340D01*
X335470Y303345D01*
X335420D01*
X335390Y303340D01*
X335360D01*
X335285Y303330D01*
X335200Y303310D01*
X335110Y303285D01*
X335015Y303250D01*
X334920Y303205D01*
X334915D01*
X334910Y303200D01*
X334880Y303180D01*
X334835Y303150D01*
X334785Y303110D01*
X334720Y303055D01*
X334660Y302995D01*
X334595Y302925D01*
X334540Y302850D01*
X333950Y302925D01*
X334445Y305560D01*
X337000D01*
Y304960D01*
D02*
G37*
G36*
X319440Y305620D02*
X319505D01*
X319580Y305615D01*
X319655Y305610D01*
X319825Y305590D01*
X320000Y305565D01*
X320165Y305530D01*
X320240Y305510D01*
X320310Y305485D01*
X320315D01*
X320325Y305480D01*
X320345Y305470D01*
X320370Y305460D01*
X320400Y305440D01*
X320435Y305420D01*
X320515Y305370D01*
X320605Y305305D01*
X320700Y305220D01*
X320795Y305115D01*
X320880Y304995D01*
X320885Y304990D01*
X320890Y304980D01*
X320900Y304960D01*
X320915Y304935D01*
X320930Y304900D01*
X320950Y304860D01*
X320970Y304820D01*
X320990Y304770D01*
X321025Y304655D01*
X321060Y304525D01*
X321085Y304380D01*
X321095Y304305D01*
Y304225D01*
Y304220D01*
Y304200D01*
Y304170D01*
X321090Y304135D01*
X321085Y304085D01*
X321075Y304035D01*
X321065Y303970D01*
X321050Y303905D01*
X321030Y303835D01*
X321010Y303760D01*
X320980Y303685D01*
X320945Y303605D01*
X320905Y303530D01*
X320855Y303450D01*
X320805Y303375D01*
X320740Y303305D01*
X320735Y303300D01*
X320725Y303290D01*
X320705Y303270D01*
X320675Y303245D01*
X320635Y303215D01*
X320590Y303180D01*
X320535Y303145D01*
X320470Y303105D01*
X320400Y303065D01*
X320320Y303025D01*
X320230Y302985D01*
X320130Y302945D01*
X320025Y302910D01*
X319910Y302880D01*
X319785Y302850D01*
X319650Y302830D01*
X319655D01*
X319660Y302825D01*
X319675Y302815D01*
X319695Y302810D01*
X319745Y302780D01*
X319805Y302750D01*
X319870Y302710D01*
X319935Y302670D01*
X320000Y302620D01*
X320060Y302575D01*
X320065Y302570D01*
X320075Y302565D01*
X320090Y302545D01*
X320110Y302525D01*
X320135Y302500D01*
X320165Y302465D01*
X320200Y302430D01*
X320240Y302385D01*
X320325Y302285D01*
X320420Y302170D01*
X320520Y302035D01*
X320620Y301890D01*
X321505Y300500D01*
X320660D01*
X319980Y301565D01*
X319975Y301570D01*
X319965Y301585D01*
X319950Y301610D01*
X319930Y301640D01*
X319905Y301680D01*
X319875Y301725D01*
X319810Y301825D01*
X319730Y301940D01*
X319650Y302055D01*
X319565Y302170D01*
X319530Y302220D01*
X319490Y302270D01*
Y302275D01*
X319480Y302280D01*
X319460Y302310D01*
X319420Y302355D01*
X319375Y302405D01*
X319320Y302460D01*
X319265Y302515D01*
X319205Y302570D01*
X319145Y302610D01*
X319140Y302615D01*
X319120Y302625D01*
X319090Y302645D01*
X319050Y302665D01*
X319005Y302690D01*
X318955Y302710D01*
X318900Y302735D01*
X318840Y302750D01*
X318835D01*
X318820Y302755D01*
X318790Y302760D01*
X318750Y302765D01*
X318700D01*
X318635Y302770D01*
X318555Y302775D01*
X317680D01*
Y300500D01*
X317000D01*
Y305625D01*
X319385D01*
X319440Y305620D01*
D02*
G37*
G36*
X331610Y285829D02*
X335000D01*
Y285319D01*
X331610D01*
Y284051D01*
X331156D01*
Y287100D01*
X331610D01*
Y285829D01*
D02*
G37*
G36*
X378977Y243000D02*
X378467D01*
Y246844D01*
X378977D01*
Y243000D01*
D02*
G37*
G36*
X375977Y246840D02*
X376026D01*
X376075Y246836D01*
X376187Y246829D01*
X376300Y246821D01*
X376409Y246806D01*
X376461Y246799D01*
X376506Y246788D01*
X376510D01*
X376521Y246784D01*
X376540Y246780D01*
X376562Y246773D01*
X376592Y246765D01*
X376623Y246754D01*
X376660Y246739D01*
X376701Y246724D01*
X376791Y246686D01*
X376885Y246638D01*
X376982Y246581D01*
X377073Y246510D01*
X377076Y246506D01*
X377087Y246499D01*
X377102Y246484D01*
X377121Y246465D01*
X377148Y246439D01*
X377178Y246409D01*
X377207Y246371D01*
X377245Y246334D01*
X377279Y246289D01*
X377316Y246236D01*
X377354Y246184D01*
X377391Y246128D01*
X377429Y246064D01*
X377463Y245996D01*
X377526Y245854D01*
Y245850D01*
X377534Y245835D01*
X377541Y245813D01*
X377549Y245782D01*
X377564Y245745D01*
X377575Y245700D01*
X377590Y245648D01*
X377605Y245591D01*
X377616Y245528D01*
X377631Y245456D01*
X377646Y245381D01*
X377658Y245303D01*
X377665Y245216D01*
X377673Y245130D01*
X377680Y244942D01*
Y244939D01*
Y244924D01*
Y244901D01*
Y244867D01*
X377676Y244830D01*
Y244785D01*
X377673Y244736D01*
X377669Y244680D01*
X377661Y244620D01*
X377654Y244560D01*
X377635Y244429D01*
X377609Y244294D01*
X377575Y244163D01*
Y244159D01*
X377571Y244147D01*
X377564Y244129D01*
X377556Y244106D01*
X377545Y244076D01*
X377534Y244042D01*
X377519Y244005D01*
X377504Y243968D01*
X377466Y243878D01*
X377421Y243784D01*
X377369Y243690D01*
X377312Y243604D01*
Y243600D01*
X377305Y243593D01*
X377297Y243581D01*
X377286Y243566D01*
X377253Y243529D01*
X377211Y243476D01*
X377159Y243420D01*
X377099Y243364D01*
X377035Y243307D01*
X376964Y243255D01*
X376960D01*
X376956Y243251D01*
X376945Y243244D01*
X376930Y243232D01*
X376911Y243225D01*
X376889Y243210D01*
X376836Y243184D01*
X376769Y243154D01*
X376690Y243120D01*
X376600Y243090D01*
X376502Y243064D01*
X376499D01*
X376491Y243060D01*
X376476Y243056D01*
X376454Y243053D01*
X376431Y243049D01*
X376401Y243045D01*
X376364Y243038D01*
X376326Y243034D01*
X376281Y243026D01*
X376236Y243019D01*
X376131Y243011D01*
X376015Y243004D01*
X375887Y243000D01*
X374500D01*
Y246844D01*
X375936D01*
X375977Y246840D01*
D02*
G37*
G36*
X395129Y250907D02*
X395178Y250904D01*
X395234Y250896D01*
X395298Y250885D01*
X395369Y250874D01*
X395440Y250859D01*
X395519Y250840D01*
X395601Y250814D01*
X395680Y250787D01*
X395762Y250754D01*
X395845Y250712D01*
X395924Y250668D01*
X395999Y250615D01*
X396003Y250611D01*
X396018Y250600D01*
X396036Y250585D01*
X396062Y250563D01*
X396096Y250533D01*
X396130Y250495D01*
X396171Y250450D01*
X396216Y250401D01*
X396261Y250345D01*
X396306Y250285D01*
X396351Y250218D01*
X396396Y250143D01*
X396441Y250064D01*
X396482Y249977D01*
X396516Y249887D01*
X396550Y249790D01*
X396047Y249674D01*
Y249677D01*
X396040Y249693D01*
X396033Y249715D01*
X396021Y249741D01*
X396010Y249775D01*
X395991Y249816D01*
X395972Y249857D01*
X395950Y249906D01*
X395894Y250004D01*
X395826Y250105D01*
X395747Y250199D01*
X395703Y250244D01*
X395657Y250281D01*
X395654Y250285D01*
X395646Y250289D01*
X395631Y250300D01*
X395613Y250311D01*
X395586Y250326D01*
X395556Y250341D01*
X395522Y250360D01*
X395481Y250379D01*
X395440Y250397D01*
X395391Y250416D01*
X395339Y250431D01*
X395283Y250446D01*
X395159Y250469D01*
X395091Y250472D01*
X395020Y250476D01*
X394979D01*
X394945Y250472D01*
X394907Y250469D01*
X394863Y250465D01*
X394814Y250458D01*
X394761Y250450D01*
X394641Y250424D01*
X394581Y250409D01*
X394517Y250386D01*
X394458Y250360D01*
X394394Y250334D01*
X394334Y250300D01*
X394278Y250262D01*
X394274Y250259D01*
X394266Y250251D01*
X394251Y250240D01*
X394229Y250225D01*
X394206Y250202D01*
X394176Y250176D01*
X394146Y250146D01*
X394116Y250113D01*
X394079Y250071D01*
X394045Y250030D01*
X394011Y249981D01*
X393977Y249929D01*
X393944Y249876D01*
X393914Y249816D01*
X393887Y249756D01*
X393861Y249689D01*
Y249685D01*
X393858Y249674D01*
X393850Y249655D01*
X393843Y249629D01*
X393835Y249595D01*
X393824Y249557D01*
X393812Y249513D01*
X393801Y249464D01*
X393790Y249411D01*
X393779Y249351D01*
X393760Y249227D01*
X393745Y249093D01*
X393741Y248954D01*
Y248950D01*
Y248931D01*
Y248905D01*
X393745Y248871D01*
Y248830D01*
X393749Y248778D01*
X393753Y248725D01*
X393760Y248661D01*
X393767Y248598D01*
X393775Y248530D01*
X393801Y248384D01*
X393835Y248237D01*
X393884Y248095D01*
Y248091D01*
X393891Y248080D01*
X393899Y248061D01*
X393910Y248035D01*
X393925Y248005D01*
X393944Y247971D01*
X393992Y247892D01*
X394056Y247802D01*
X394131Y247712D01*
X394221Y247626D01*
X394274Y247589D01*
X394326Y247551D01*
X394330Y247548D01*
X394341Y247544D01*
X394356Y247536D01*
X394379Y247525D01*
X394405Y247510D01*
X394439Y247495D01*
X394476Y247480D01*
X394521Y247461D01*
X394566Y247446D01*
X394619Y247428D01*
X394727Y247401D01*
X394851Y247379D01*
X394915Y247375D01*
X394979Y247371D01*
X395020D01*
X395050Y247375D01*
X395088Y247379D01*
X395129Y247382D01*
X395178Y247390D01*
X395230Y247401D01*
X395342Y247431D01*
X395403Y247450D01*
X395466Y247473D01*
X395526Y247502D01*
X395586Y247536D01*
X395646Y247574D01*
X395703Y247615D01*
X395706Y247619D01*
X395714Y247626D01*
X395732Y247641D01*
X395751Y247660D01*
X395774Y247686D01*
X395804Y247720D01*
X395834Y247758D01*
X395864Y247799D01*
X395898Y247848D01*
X395931Y247904D01*
X395965Y247964D01*
X395999Y248027D01*
X396029Y248099D01*
X396055Y248178D01*
X396081Y248260D01*
X396104Y248346D01*
X396614Y248219D01*
Y248211D01*
X396606Y248193D01*
X396595Y248159D01*
X396584Y248117D01*
X396565Y248065D01*
X396543Y248005D01*
X396513Y247937D01*
X396482Y247866D01*
X396445Y247787D01*
X396404Y247709D01*
X396355Y247630D01*
X396303Y247551D01*
X396242Y247473D01*
X396182Y247397D01*
X396111Y247326D01*
X396036Y247263D01*
X396033Y247259D01*
X396018Y247248D01*
X395995Y247233D01*
X395961Y247210D01*
X395920Y247187D01*
X395871Y247161D01*
X395815Y247131D01*
X395755Y247101D01*
X395684Y247067D01*
X395605Y247041D01*
X395522Y247011D01*
X395432Y246989D01*
X395335Y246966D01*
X395237Y246951D01*
X395129Y246940D01*
X395020Y246936D01*
X394960D01*
X394915Y246940D01*
X394863Y246944D01*
X394802Y246951D01*
X394735Y246959D01*
X394660Y246966D01*
X394581Y246981D01*
X394499Y246996D01*
X394416Y247019D01*
X394330Y247041D01*
X394248Y247071D01*
X394161Y247105D01*
X394082Y247143D01*
X394007Y247187D01*
X394004Y247191D01*
X393992Y247199D01*
X393970Y247214D01*
X393944Y247236D01*
X393910Y247259D01*
X393876Y247292D01*
X393835Y247330D01*
X393790Y247375D01*
X393741Y247424D01*
X393692Y247476D01*
X393644Y247536D01*
X393595Y247604D01*
X393550Y247675D01*
X393501Y247750D01*
X393460Y247832D01*
X393419Y247919D01*
X393415Y247926D01*
X393411Y247941D01*
X393400Y247968D01*
X393389Y248001D01*
X393374Y248046D01*
X393355Y248099D01*
X393336Y248159D01*
X393318Y248226D01*
X393299Y248301D01*
X393280Y248380D01*
X393265Y248466D01*
X393246Y248556D01*
X393235Y248650D01*
X393224Y248747D01*
X393220Y248849D01*
X393216Y248950D01*
Y248957D01*
Y248976D01*
Y249010D01*
X393220Y249051D01*
X393224Y249104D01*
X393228Y249164D01*
X393235Y249231D01*
X393246Y249306D01*
X393257Y249385D01*
X393272Y249467D01*
X393291Y249557D01*
X393314Y249644D01*
X393340Y249734D01*
X393370Y249824D01*
X393404Y249910D01*
X393445Y249996D01*
X393449Y250000D01*
X393456Y250015D01*
X393467Y250041D01*
X393486Y250071D01*
X393513Y250109D01*
X393539Y250150D01*
X393572Y250199D01*
X393614Y250251D01*
X393655Y250304D01*
X393704Y250360D01*
X393760Y250416D01*
X393816Y250472D01*
X393880Y250529D01*
X393948Y250581D01*
X394019Y250634D01*
X394097Y250679D01*
X394101Y250682D01*
X394116Y250690D01*
X394139Y250701D01*
X394173Y250716D01*
X394210Y250731D01*
X394259Y250754D01*
X394311Y250773D01*
X394375Y250795D01*
X394439Y250817D01*
X394510Y250836D01*
X394589Y250859D01*
X394671Y250874D01*
X394758Y250889D01*
X394844Y250900D01*
X394937Y250907D01*
X395031Y250911D01*
X395088D01*
X395129Y250907D01*
D02*
G37*
G36*
X383530Y243000D02*
X383039D01*
Y246217D01*
X381918Y243000D01*
X381460D01*
X380346Y246274D01*
Y243000D01*
X379855D01*
Y246844D01*
X380620D01*
X381531Y244121D01*
Y244117D01*
X381539Y244106D01*
X381542Y244084D01*
X381554Y244057D01*
X381561Y244027D01*
X381576Y243990D01*
X381588Y243949D01*
X381603Y243907D01*
X381632Y243814D01*
X381663Y243720D01*
X381693Y243630D01*
X381704Y243589D01*
X381715Y243551D01*
Y243555D01*
X381719Y243563D01*
X381722Y243574D01*
X381726Y243589D01*
X381734Y243611D01*
X381745Y243637D01*
X381752Y243671D01*
X381768Y243709D01*
X381779Y243746D01*
X381794Y243795D01*
X381813Y243844D01*
X381831Y243900D01*
X381850Y243960D01*
X381873Y244024D01*
X381895Y244091D01*
X381921Y244166D01*
X382844Y246844D01*
X383530D01*
Y243000D01*
D02*
G37*
G36*
X421500Y276471D02*
X418496D01*
Y276467D01*
X418504Y276464D01*
X418511Y276452D01*
X418523Y276441D01*
X418556Y276404D01*
X418598Y276351D01*
X418646Y276288D01*
X418703Y276209D01*
X418762Y276119D01*
X418822Y276021D01*
Y276017D01*
X418830Y276010D01*
X418837Y275995D01*
X418849Y275976D01*
X418864Y275950D01*
X418879Y275924D01*
X418913Y275856D01*
X418950Y275781D01*
X418991Y275699D01*
X419029Y275612D01*
X419063Y275530D01*
X418609D01*
X418605Y275534D01*
X418601Y275549D01*
X418590Y275568D01*
X418575Y275598D01*
X418556Y275631D01*
X418534Y275669D01*
X418511Y275714D01*
X418481Y275763D01*
X418418Y275871D01*
X418339Y275988D01*
X418253Y276104D01*
X418159Y276220D01*
X418155Y276224D01*
X418148Y276231D01*
X418132Y276250D01*
X418114Y276269D01*
X418087Y276291D01*
X418061Y276321D01*
X418027Y276351D01*
X417994Y276385D01*
X417915Y276452D01*
X417829Y276520D01*
X417735Y276584D01*
X417690Y276614D01*
X417641Y276636D01*
Y276944D01*
X421500D01*
Y276471D01*
D02*
G37*
G36*
X421796Y274596D02*
X421793Y274592D01*
X421789Y274577D01*
X421781Y274555D01*
X421766Y274525D01*
X421751Y274487D01*
X421733Y274443D01*
X421710Y274394D01*
X421680Y274338D01*
X421650Y274277D01*
X421616Y274214D01*
X421579Y274146D01*
X421534Y274075D01*
X421489Y274000D01*
X421440Y273925D01*
X421384Y273850D01*
X421327Y273771D01*
X421331Y273767D01*
X421339Y273752D01*
X421350Y273730D01*
X421365Y273696D01*
X421384Y273655D01*
X421403Y273610D01*
X421425Y273554D01*
X421444Y273494D01*
X421466Y273426D01*
X421489Y273351D01*
X421508Y273276D01*
X421526Y273194D01*
X421541Y273108D01*
X421553Y273014D01*
X421560Y272924D01*
X421564Y272826D01*
Y272819D01*
Y272804D01*
Y272774D01*
X421560Y272740D01*
X421556Y272691D01*
X421549Y272639D01*
X421541Y272579D01*
X421534Y272511D01*
X421519Y272440D01*
X421504Y272365D01*
X421481Y272290D01*
X421459Y272207D01*
X421429Y272125D01*
X421395Y272042D01*
X421357Y271960D01*
X421313Y271881D01*
X421309Y271878D01*
X421301Y271863D01*
X421286Y271840D01*
X421268Y271810D01*
X421241Y271776D01*
X421208Y271735D01*
X421174Y271690D01*
X421129Y271641D01*
X421084Y271589D01*
X421031Y271536D01*
X420971Y271480D01*
X420907Y271427D01*
X420840Y271375D01*
X420769Y271322D01*
X420690Y271274D01*
X420608Y271229D01*
X420604Y271225D01*
X420585Y271217D01*
X420563Y271206D01*
X420529Y271195D01*
X420484Y271176D01*
X420431Y271158D01*
X420375Y271135D01*
X420307Y271116D01*
X420236Y271094D01*
X420154Y271071D01*
X420071Y271053D01*
X419981Y271038D01*
X419887Y271023D01*
X419786Y271011D01*
X419685Y271004D01*
X419580Y271000D01*
X419524D01*
X419483Y271004D01*
X419434Y271007D01*
X419374Y271011D01*
X419310Y271019D01*
X419235Y271030D01*
X419160Y271041D01*
X419077Y271056D01*
X418991Y271075D01*
X418901Y271097D01*
X418811Y271124D01*
X418721Y271154D01*
X418635Y271187D01*
X418545Y271229D01*
X418541Y271233D01*
X418523Y271240D01*
X418500Y271251D01*
X418466Y271270D01*
X418429Y271296D01*
X418384Y271326D01*
X418335Y271360D01*
X418279Y271397D01*
X418223Y271443D01*
X418166Y271491D01*
X418106Y271544D01*
X418046Y271604D01*
X417990Y271668D01*
X417934Y271735D01*
X417881Y271806D01*
X417833Y271885D01*
X417829Y271889D01*
X417821Y271904D01*
X417810Y271926D01*
X417795Y271960D01*
X417776Y272001D01*
X417754Y272046D01*
X417735Y272102D01*
X417709Y272166D01*
X417686Y272234D01*
X417667Y272305D01*
X417645Y272384D01*
X417626Y272466D01*
X417611Y272556D01*
X417600Y272646D01*
X417592Y272740D01*
X417589Y272837D01*
Y272845D01*
Y272860D01*
Y272890D01*
X417592Y272927D01*
X417596Y272972D01*
X417604Y273029D01*
X417611Y273089D01*
X417619Y273156D01*
X417634Y273231D01*
X417653Y273306D01*
X417671Y273385D01*
X417697Y273467D01*
X417724Y273550D01*
X417761Y273633D01*
X417799Y273715D01*
X417844Y273797D01*
X417847Y273801D01*
X417855Y273816D01*
X417870Y273839D01*
X417889Y273869D01*
X417915Y273903D01*
X417949Y273944D01*
X417982Y273989D01*
X418027Y274041D01*
X418073Y274090D01*
X418129Y274146D01*
X418185Y274199D01*
X418249Y274255D01*
X418316Y274307D01*
X418391Y274356D01*
X418470Y274405D01*
X418552Y274450D01*
X418556Y274454D01*
X418571Y274461D01*
X418598Y274472D01*
X418631Y274484D01*
X418676Y274502D01*
X418725Y274521D01*
X418785Y274540D01*
X418849Y274563D01*
X418924Y274585D01*
X419002Y274604D01*
X419085Y274623D01*
X419175Y274641D01*
X419269Y274653D01*
X419370Y274664D01*
X419471Y274671D01*
X419576Y274675D01*
X419621D01*
X419655Y274671D01*
X419700D01*
X419745Y274668D01*
X419801Y274664D01*
X419861Y274656D01*
X419925Y274649D01*
X419992Y274641D01*
X420139Y274615D01*
X420285Y274577D01*
X420431Y274529D01*
X420435D01*
X420446Y274521D01*
X420469Y274514D01*
X420495Y274502D01*
X420529Y274487D01*
X420566Y274469D01*
X420608Y274446D01*
X420656Y274420D01*
X420757Y274360D01*
X420866Y274285D01*
X420979Y274195D01*
X421088Y274094D01*
X421091Y274097D01*
X421099Y274109D01*
X421110Y274128D01*
X421129Y274154D01*
X421147Y274187D01*
X421170Y274221D01*
X421196Y274262D01*
X421222Y274311D01*
X421282Y274412D01*
X421339Y274521D01*
X421395Y274638D01*
X421444Y274750D01*
X421796Y274596D01*
D02*
G37*
G36*
X408992Y258615D02*
X410039D01*
Y258176D01*
X408992D01*
Y257122D01*
X408546D01*
Y258176D01*
X407500D01*
Y258615D01*
X408546D01*
Y259661D01*
X408992D01*
Y258615D01*
D02*
G37*
G36*
X390869Y247454D02*
X392759D01*
Y247000D01*
X390359D01*
Y250844D01*
X390869D01*
Y247454D01*
D02*
G37*
G36*
X327324Y287492D02*
X328378D01*
Y287046D01*
X327324D01*
Y286000D01*
X326885D01*
Y287046D01*
X325839D01*
Y287492D01*
X326885D01*
Y288539D01*
X327324D01*
Y287492D01*
D02*
G37*
G36*
X333807Y290865D02*
X333841Y290854D01*
X333882Y290843D01*
X333935Y290824D01*
X333995Y290801D01*
X334063Y290771D01*
X334134Y290741D01*
X334212Y290704D01*
X334291Y290663D01*
X334370Y290614D01*
X334449Y290561D01*
X334527Y290501D01*
X334602Y290441D01*
X334674Y290370D01*
X334737Y290295D01*
X334741Y290291D01*
X334752Y290276D01*
X334768Y290254D01*
X334790Y290220D01*
X334812Y290179D01*
X334839Y290130D01*
X334869Y290074D01*
X334899Y290014D01*
X334932Y289943D01*
X334959Y289864D01*
X334989Y289781D01*
X335011Y289691D01*
X335034Y289594D01*
X335049Y289496D01*
X335060Y289387D01*
X335064Y289279D01*
Y289271D01*
Y289252D01*
Y289219D01*
X335060Y289174D01*
X335056Y289121D01*
X335049Y289061D01*
X335041Y288994D01*
X335034Y288919D01*
X335019Y288840D01*
X335004Y288757D01*
X334981Y288675D01*
X334959Y288589D01*
X334929Y288506D01*
X334895Y288420D01*
X334858Y288341D01*
X334812Y288266D01*
X334809Y288263D01*
X334801Y288251D01*
X334786Y288229D01*
X334764Y288203D01*
X334741Y288169D01*
X334707Y288135D01*
X334670Y288094D01*
X334625Y288049D01*
X334576Y288000D01*
X334524Y287951D01*
X334464Y287902D01*
X334396Y287854D01*
X334325Y287809D01*
X334250Y287760D01*
X334168Y287719D01*
X334081Y287678D01*
X334074Y287674D01*
X334059Y287670D01*
X334033Y287659D01*
X333999Y287648D01*
X333954Y287632D01*
X333901Y287614D01*
X333841Y287595D01*
X333774Y287576D01*
X333699Y287558D01*
X333620Y287539D01*
X333534Y287524D01*
X333444Y287505D01*
X333350Y287494D01*
X333253Y287483D01*
X333151Y287479D01*
X333050Y287475D01*
X332990D01*
X332949Y287479D01*
X332896Y287483D01*
X332836Y287486D01*
X332769Y287494D01*
X332694Y287505D01*
X332615Y287516D01*
X332533Y287531D01*
X332442Y287550D01*
X332356Y287573D01*
X332266Y287599D01*
X332176Y287629D01*
X332090Y287663D01*
X332004Y287704D01*
X332000Y287707D01*
X331985Y287715D01*
X331959Y287726D01*
X331929Y287745D01*
X331891Y287771D01*
X331850Y287797D01*
X331801Y287831D01*
X331749Y287873D01*
X331696Y287914D01*
X331640Y287963D01*
X331584Y288019D01*
X331527Y288075D01*
X331471Y288139D01*
X331419Y288206D01*
X331366Y288278D01*
X331321Y288356D01*
X331317Y288360D01*
X331310Y288375D01*
X331299Y288398D01*
X331284Y288431D01*
X331269Y288469D01*
X331246Y288517D01*
X331227Y288570D01*
X331205Y288634D01*
X331183Y288698D01*
X331164Y288769D01*
X331141Y288847D01*
X331126Y288930D01*
X331111Y289016D01*
X331100Y289103D01*
X331093Y289196D01*
X331089Y289290D01*
Y289298D01*
Y289316D01*
Y289346D01*
X331093Y289387D01*
X331096Y289436D01*
X331104Y289493D01*
X331115Y289556D01*
X331126Y289628D01*
X331141Y289699D01*
X331160Y289777D01*
X331186Y289860D01*
X331212Y289939D01*
X331246Y290021D01*
X331288Y290104D01*
X331332Y290182D01*
X331385Y290258D01*
X331389Y290261D01*
X331400Y290276D01*
X331415Y290295D01*
X331437Y290321D01*
X331468Y290355D01*
X331505Y290389D01*
X331550Y290430D01*
X331599Y290475D01*
X331655Y290520D01*
X331715Y290565D01*
X331783Y290610D01*
X331857Y290655D01*
X331936Y290700D01*
X332023Y290741D01*
X332113Y290775D01*
X332210Y290809D01*
X332326Y290306D01*
X332323D01*
X332308Y290299D01*
X332285Y290291D01*
X332259Y290280D01*
X332225Y290269D01*
X332184Y290250D01*
X332142Y290231D01*
X332094Y290209D01*
X331996Y290153D01*
X331895Y290085D01*
X331801Y290006D01*
X331756Y289961D01*
X331719Y289916D01*
X331715Y289913D01*
X331711Y289905D01*
X331700Y289890D01*
X331689Y289871D01*
X331674Y289845D01*
X331659Y289815D01*
X331640Y289781D01*
X331621Y289740D01*
X331603Y289699D01*
X331584Y289650D01*
X331569Y289598D01*
X331554Y289541D01*
X331531Y289418D01*
X331527Y289350D01*
X331524Y289279D01*
Y289275D01*
Y289260D01*
Y289237D01*
X331527Y289204D01*
X331531Y289166D01*
X331535Y289121D01*
X331542Y289072D01*
X331550Y289020D01*
X331576Y288900D01*
X331591Y288840D01*
X331614Y288776D01*
X331640Y288716D01*
X331666Y288652D01*
X331700Y288593D01*
X331737Y288536D01*
X331741Y288532D01*
X331749Y288525D01*
X331760Y288510D01*
X331775Y288488D01*
X331798Y288465D01*
X331824Y288435D01*
X331854Y288405D01*
X331888Y288375D01*
X331929Y288337D01*
X331970Y288304D01*
X332019Y288270D01*
X332071Y288236D01*
X332124Y288203D01*
X332184Y288173D01*
X332244Y288146D01*
X332311Y288120D01*
X332315D01*
X332326Y288116D01*
X332345Y288109D01*
X332371Y288101D01*
X332405Y288094D01*
X332442Y288083D01*
X332488Y288071D01*
X332536Y288060D01*
X332589Y288049D01*
X332649Y288037D01*
X332772Y288019D01*
X332908Y288004D01*
X333046Y288000D01*
X333095D01*
X333129Y288004D01*
X333170D01*
X333223Y288007D01*
X333275Y288011D01*
X333339Y288019D01*
X333402Y288026D01*
X333470Y288034D01*
X333616Y288060D01*
X333763Y288094D01*
X333905Y288142D01*
X333909D01*
X333920Y288150D01*
X333939Y288158D01*
X333965Y288169D01*
X333995Y288184D01*
X334029Y288203D01*
X334107Y288251D01*
X334197Y288315D01*
X334288Y288390D01*
X334374Y288480D01*
X334411Y288532D01*
X334449Y288585D01*
X334453Y288589D01*
X334456Y288600D01*
X334464Y288615D01*
X334475Y288637D01*
X334490Y288664D01*
X334505Y288698D01*
X334520Y288735D01*
X334539Y288780D01*
X334554Y288825D01*
X334573Y288878D01*
X334599Y288986D01*
X334621Y289110D01*
X334625Y289174D01*
X334629Y289237D01*
Y289241D01*
Y289256D01*
Y289279D01*
X334625Y289309D01*
X334621Y289346D01*
X334617Y289387D01*
X334610Y289436D01*
X334599Y289489D01*
X334569Y289601D01*
X334550Y289661D01*
X334527Y289725D01*
X334497Y289785D01*
X334464Y289845D01*
X334426Y289905D01*
X334385Y289961D01*
X334381Y289965D01*
X334374Y289972D01*
X334359Y289991D01*
X334340Y290010D01*
X334314Y290033D01*
X334280Y290062D01*
X334243Y290092D01*
X334201Y290123D01*
X334153Y290156D01*
X334096Y290190D01*
X334036Y290224D01*
X333973Y290258D01*
X333901Y290287D01*
X333822Y290314D01*
X333740Y290340D01*
X333654Y290363D01*
X333781Y290873D01*
X333789D01*
X333807Y290865D01*
D02*
G37*
G36*
X387978Y250840D02*
X388026D01*
X388075Y250836D01*
X388188Y250829D01*
X388300Y250821D01*
X388409Y250806D01*
X388461Y250799D01*
X388506Y250787D01*
X388510D01*
X388521Y250784D01*
X388540Y250780D01*
X388562Y250773D01*
X388593Y250765D01*
X388622Y250754D01*
X388660Y250739D01*
X388701Y250724D01*
X388791Y250686D01*
X388885Y250638D01*
X388983Y250581D01*
X389072Y250510D01*
X389076Y250506D01*
X389088Y250499D01*
X389103Y250484D01*
X389121Y250465D01*
X389147Y250439D01*
X389177Y250409D01*
X389208Y250371D01*
X389245Y250334D01*
X389279Y250289D01*
X389316Y250236D01*
X389354Y250184D01*
X389391Y250128D01*
X389429Y250064D01*
X389462Y249996D01*
X389526Y249854D01*
Y249850D01*
X389534Y249835D01*
X389541Y249813D01*
X389549Y249782D01*
X389564Y249745D01*
X389575Y249700D01*
X389590Y249647D01*
X389605Y249591D01*
X389616Y249528D01*
X389631Y249456D01*
X389646Y249381D01*
X389657Y249303D01*
X389665Y249216D01*
X389672Y249130D01*
X389680Y248942D01*
Y248939D01*
Y248924D01*
Y248901D01*
Y248868D01*
X389676Y248830D01*
Y248785D01*
X389672Y248736D01*
X389669Y248680D01*
X389661Y248620D01*
X389654Y248560D01*
X389635Y248429D01*
X389609Y248294D01*
X389575Y248163D01*
Y248159D01*
X389571Y248148D01*
X389564Y248129D01*
X389556Y248106D01*
X389545Y248076D01*
X389534Y248042D01*
X389519Y248005D01*
X389504Y247968D01*
X389466Y247878D01*
X389421Y247784D01*
X389369Y247690D01*
X389313Y247604D01*
Y247600D01*
X389305Y247592D01*
X389298Y247581D01*
X389286Y247566D01*
X389252Y247529D01*
X389211Y247476D01*
X389159Y247420D01*
X389099Y247364D01*
X389035Y247307D01*
X388964Y247255D01*
X388960D01*
X388956Y247251D01*
X388945Y247244D01*
X388930Y247233D01*
X388911Y247225D01*
X388889Y247210D01*
X388836Y247184D01*
X388769Y247154D01*
X388690Y247120D01*
X388600Y247090D01*
X388503Y247064D01*
X388499D01*
X388491Y247060D01*
X388476Y247056D01*
X388454Y247053D01*
X388431Y247049D01*
X388401Y247045D01*
X388364Y247038D01*
X388326Y247034D01*
X388281Y247026D01*
X388236Y247019D01*
X388131Y247011D01*
X388015Y247004D01*
X387888Y247000D01*
X386500D01*
Y250844D01*
X387936D01*
X387978Y250840D01*
D02*
G37*
%LPC*%
G36*
X419576Y274150D02*
X419531D01*
X419497Y274146D01*
X419456D01*
X419411Y274143D01*
X419359Y274135D01*
X419299Y274131D01*
X419239Y274120D01*
X419171Y274113D01*
X419036Y274082D01*
X418897Y274041D01*
X418830Y274019D01*
X418762Y273989D01*
X418759D01*
X418748Y273981D01*
X418729Y273974D01*
X418706Y273959D01*
X418676Y273944D01*
X418643Y273921D01*
X418564Y273872D01*
X418477Y273805D01*
X418388Y273726D01*
X418301Y273633D01*
X418223Y273524D01*
X418219Y273520D01*
X418215Y273509D01*
X418204Y273494D01*
X418192Y273471D01*
X418178Y273441D01*
X418162Y273408D01*
X418144Y273370D01*
X418125Y273325D01*
X418106Y273276D01*
X418087Y273224D01*
X418073Y273167D01*
X418057Y273108D01*
X418035Y272980D01*
X418031Y272913D01*
X418027Y272841D01*
Y272834D01*
Y272815D01*
X418031Y272785D01*
X418035Y272747D01*
X418039Y272699D01*
X418046Y272642D01*
X418061Y272579D01*
X418076Y272511D01*
X418095Y272436D01*
X418121Y272361D01*
X418155Y272283D01*
X418192Y272204D01*
X418237Y272121D01*
X418290Y272046D01*
X418350Y271968D01*
X418418Y271896D01*
X418421Y271892D01*
X418436Y271881D01*
X418459Y271863D01*
X418489Y271840D01*
X418530Y271810D01*
X418582Y271780D01*
X418643Y271746D01*
X418710Y271712D01*
X418785Y271675D01*
X418871Y271641D01*
X418969Y271611D01*
X419074Y271585D01*
X419186Y271559D01*
X419310Y271540D01*
X419441Y271529D01*
X419580Y271525D01*
X419614D01*
X419651Y271529D01*
X419704Y271533D01*
X419768Y271536D01*
X419839Y271544D01*
X419917Y271555D01*
X420004Y271570D01*
X420097Y271589D01*
X420191Y271615D01*
X420285Y271645D01*
X420382Y271679D01*
X420476Y271724D01*
X420566Y271773D01*
X420652Y271829D01*
X420731Y271892D01*
X420735Y271896D01*
X420750Y271911D01*
X420769Y271930D01*
X420795Y271960D01*
X420825Y271997D01*
X420859Y272039D01*
X420892Y272091D01*
X420930Y272151D01*
X420967Y272215D01*
X421001Y272286D01*
X421035Y272365D01*
X421065Y272451D01*
X421091Y272537D01*
X421110Y272635D01*
X421125Y272736D01*
X421129Y272841D01*
Y272845D01*
Y272852D01*
Y272867D01*
Y272886D01*
X421125Y272913D01*
Y272942D01*
X421117Y273010D01*
X421103Y273089D01*
X421088Y273175D01*
X421061Y273265D01*
X421028Y273355D01*
Y273351D01*
X421020Y273344D01*
X421012Y273333D01*
X421001Y273314D01*
X420990Y273291D01*
X420975Y273265D01*
X420941Y273201D01*
X420907Y273126D01*
X420870Y273044D01*
X420836Y272950D01*
X420810Y272852D01*
X420439Y272976D01*
Y272980D01*
X420446Y272995D01*
X420450Y273018D01*
X420461Y273051D01*
X420476Y273085D01*
X420491Y273130D01*
X420510Y273179D01*
X420533Y273231D01*
X420581Y273347D01*
X420645Y273467D01*
X420720Y273587D01*
X420806Y273700D01*
X420802Y273704D01*
X420787Y273719D01*
X420761Y273741D01*
X420731Y273771D01*
X420686Y273805D01*
X420634Y273843D01*
X420570Y273884D01*
X420499Y273925D01*
X420416Y273966D01*
X420326Y274008D01*
X420225Y274045D01*
X420116Y274079D01*
X419996Y274109D01*
X419865Y274131D01*
X419726Y274146D01*
X419576Y274150D01*
D02*
G37*
G36*
X330553Y311390D02*
X327476D01*
Y310533D01*
Y310530D01*
Y310514D01*
Y310494D01*
Y310467D01*
X327480Y310435D01*
Y310396D01*
X327483Y310353D01*
Y310306D01*
X327491Y310203D01*
X327507Y310101D01*
X327523Y309999D01*
X327535Y309952D01*
X327546Y309909D01*
Y309905D01*
X327550Y309897D01*
X327554Y309885D01*
X327562Y309869D01*
X327578Y309830D01*
X327601Y309779D01*
X327633Y309720D01*
X327668Y309661D01*
X327711Y309602D01*
X327759Y309547D01*
X327762Y309543D01*
X327766Y309539D01*
X327778Y309527D01*
X327794Y309516D01*
X327814Y309500D01*
X327833Y309480D01*
X327892Y309437D01*
X327967Y309390D01*
X328053Y309339D01*
X328151Y309292D01*
X328266Y309248D01*
X328269D01*
X328281Y309244D01*
X328297Y309237D01*
X328324Y309233D01*
X328356Y309225D01*
X328391Y309213D01*
X328434Y309205D01*
X328485Y309193D01*
X328537Y309186D01*
X328596Y309178D01*
X328662Y309166D01*
X328729Y309158D01*
X328804Y309150D01*
X328878Y309146D01*
X329044Y309142D01*
X329103D01*
X329146Y309146D01*
X329201Y309150D01*
X329260Y309154D01*
X329327Y309158D01*
X329401Y309170D01*
X329476Y309178D01*
X329555Y309193D01*
X329716Y309229D01*
X329794Y309252D01*
X329873Y309280D01*
X329944Y309315D01*
X330010Y309351D01*
X330014Y309354D01*
X330026Y309358D01*
X330042Y309370D01*
X330065Y309386D01*
X330093Y309409D01*
X330124Y309433D01*
X330195Y309492D01*
X330274Y309567D01*
X330348Y309653D01*
X330415Y309752D01*
X330447Y309803D01*
X330470Y309858D01*
Y309861D01*
X330474Y309869D01*
X330478Y309881D01*
X330482Y309897D01*
X330490Y309920D01*
X330498Y309948D01*
X330506Y309983D01*
X330513Y310023D01*
X330517Y310070D01*
X330525Y310117D01*
X330533Y310176D01*
X330541Y310239D01*
X330545Y310306D01*
X330549Y310380D01*
X330553Y310459D01*
Y310545D01*
Y311390D01*
D02*
G37*
G36*
X333050Y279240D02*
X332994D01*
X332952Y279236D01*
X332900Y279233D01*
X332844Y279229D01*
X332780Y279225D01*
X332709Y279214D01*
X332638Y279206D01*
X332562Y279191D01*
X332409Y279157D01*
X332334Y279135D01*
X332259Y279109D01*
X332191Y279075D01*
X332127Y279041D01*
X332124Y279037D01*
X332113Y279034D01*
X332098Y279023D01*
X332075Y279008D01*
X332049Y278985D01*
X332019Y278962D01*
X331951Y278906D01*
X331876Y278835D01*
X331805Y278752D01*
X331741Y278659D01*
X331711Y278610D01*
X331689Y278557D01*
Y278554D01*
X331685Y278546D01*
X331681Y278535D01*
X331678Y278520D01*
X331670Y278498D01*
X331663Y278471D01*
X331655Y278437D01*
X331647Y278400D01*
X331644Y278355D01*
X331636Y278310D01*
X331629Y278254D01*
X331621Y278194D01*
X331617Y278130D01*
X331614Y278059D01*
X331610Y277984D01*
Y277901D01*
Y277095D01*
X334546D01*
Y277912D01*
Y277916D01*
Y277931D01*
Y277950D01*
Y277976D01*
X334542Y278006D01*
Y278044D01*
X334539Y278085D01*
Y278130D01*
X334531Y278227D01*
X334516Y278325D01*
X334501Y278422D01*
X334490Y278467D01*
X334479Y278509D01*
Y278513D01*
X334475Y278520D01*
X334471Y278531D01*
X334464Y278546D01*
X334449Y278584D01*
X334426Y278632D01*
X334396Y278689D01*
X334363Y278745D01*
X334321Y278801D01*
X334276Y278854D01*
X334273Y278857D01*
X334269Y278861D01*
X334258Y278872D01*
X334243Y278884D01*
X334224Y278899D01*
X334205Y278918D01*
X334149Y278959D01*
X334078Y279004D01*
X333995Y279052D01*
X333901Y279098D01*
X333792Y279139D01*
X333789D01*
X333777Y279142D01*
X333763Y279150D01*
X333736Y279154D01*
X333706Y279161D01*
X333672Y279172D01*
X333631Y279180D01*
X333582Y279191D01*
X333534Y279199D01*
X333477Y279206D01*
X333414Y279218D01*
X333350Y279225D01*
X333279Y279233D01*
X333208Y279236D01*
X333050Y279240D01*
D02*
G37*
G36*
X319405Y305060D02*
X317680D01*
Y303360D01*
X319210D01*
X319250Y303365D01*
X319295D01*
X319345Y303370D01*
X319400D01*
X319515Y303385D01*
X319635Y303400D01*
X319755Y303425D01*
X319860Y303455D01*
X319865D01*
X319870Y303460D01*
X319905Y303475D01*
X319950Y303495D01*
X320005Y303530D01*
X320070Y303570D01*
X320135Y303625D01*
X320200Y303685D01*
X320255Y303760D01*
Y303765D01*
X320260Y303770D01*
X320275Y303800D01*
X320300Y303840D01*
X320325Y303900D01*
X320350Y303970D01*
X320375Y304045D01*
X320390Y304135D01*
X320395Y304225D01*
Y304230D01*
Y304240D01*
Y304260D01*
X320390Y304285D01*
X320385Y304315D01*
X320380Y304355D01*
X320360Y304435D01*
X320330Y304530D01*
X320285Y304630D01*
X320255Y304685D01*
X320220Y304730D01*
X320175Y304780D01*
X320130Y304825D01*
X320125Y304830D01*
X320120Y304835D01*
X320100Y304845D01*
X320080Y304860D01*
X320050Y304880D01*
X320015Y304900D01*
X319975Y304920D01*
X319925Y304945D01*
X319870Y304965D01*
X319810Y304985D01*
X319745Y305005D01*
X319670Y305025D01*
X319585Y305040D01*
X319500Y305050D01*
X319405Y305060D01*
D02*
G37*
G36*
X351900Y262100D02*
X350480Y261560D01*
X350470Y261555D01*
X350450Y261550D01*
X350415Y261535D01*
X350370Y261520D01*
X350315Y261500D01*
X350250Y261475D01*
X350180Y261450D01*
X350105Y261425D01*
X349935Y261365D01*
X349755Y261305D01*
X349580Y261245D01*
X349495Y261220D01*
X349415Y261195D01*
X349420D01*
X349435Y261190D01*
X349465Y261185D01*
X349500Y261175D01*
X349545Y261165D01*
X349595Y261155D01*
X349655Y261140D01*
X349720Y261125D01*
X349795Y261105D01*
X349870Y261085D01*
X350035Y261035D01*
X350210Y260980D01*
X350395Y260920D01*
X351900Y260350D01*
Y262100D01*
D02*
G37*
G36*
X387899Y250390D02*
X387010D01*
Y247454D01*
X387891D01*
X387921Y247458D01*
X387959D01*
X388000Y247461D01*
X388045D01*
X388142Y247469D01*
X388240Y247484D01*
X388337Y247499D01*
X388383Y247510D01*
X388424Y247521D01*
X388427D01*
X388435Y247525D01*
X388446Y247529D01*
X388461Y247536D01*
X388499Y247551D01*
X388547Y247574D01*
X388604Y247604D01*
X388660Y247638D01*
X388716Y247679D01*
X388769Y247724D01*
X388773Y247727D01*
X388776Y247731D01*
X388788Y247743D01*
X388799Y247758D01*
X388814Y247776D01*
X388832Y247795D01*
X388874Y247851D01*
X388919Y247922D01*
X388967Y248005D01*
X389013Y248099D01*
X389054Y248207D01*
Y248211D01*
X389057Y248222D01*
X389065Y248237D01*
X389069Y248264D01*
X389076Y248294D01*
X389088Y248327D01*
X389095Y248369D01*
X389106Y248417D01*
X389114Y248466D01*
X389121Y248522D01*
X389132Y248586D01*
X389140Y248650D01*
X389147Y248721D01*
X389151Y248793D01*
X389155Y248950D01*
Y248957D01*
Y248976D01*
Y249006D01*
X389151Y249047D01*
X389147Y249100D01*
X389144Y249156D01*
X389140Y249220D01*
X389129Y249291D01*
X389121Y249362D01*
X389106Y249437D01*
X389072Y249591D01*
X389050Y249666D01*
X389024Y249741D01*
X388990Y249809D01*
X388956Y249872D01*
X388952Y249876D01*
X388949Y249887D01*
X388937Y249903D01*
X388923Y249925D01*
X388900Y249951D01*
X388878Y249981D01*
X388821Y250049D01*
X388750Y250124D01*
X388667Y250195D01*
X388574Y250259D01*
X388525Y250289D01*
X388473Y250311D01*
X388469D01*
X388461Y250315D01*
X388450Y250319D01*
X388435Y250323D01*
X388412Y250330D01*
X388386Y250338D01*
X388352Y250345D01*
X388315Y250353D01*
X388270Y250356D01*
X388225Y250364D01*
X388169Y250371D01*
X388109Y250379D01*
X388045Y250382D01*
X387974Y250386D01*
X387899Y250390D01*
D02*
G37*
G36*
X327450Y303780D02*
X327410D01*
X327380Y303775D01*
X327345Y303770D01*
X327305Y303760D01*
X327205Y303735D01*
X327150Y303720D01*
X327095Y303695D01*
X327035Y303670D01*
X326980Y303635D01*
X326920Y303595D01*
X326860Y303550D01*
X326805Y303495D01*
X326750Y303435D01*
X326745Y303430D01*
X326740Y303420D01*
X326725Y303400D01*
X326705Y303370D01*
X326685Y303335D01*
X326660Y303285D01*
X326635Y303235D01*
X326610Y303170D01*
X326585Y303100D01*
X326560Y303020D01*
X326535Y302930D01*
X326515Y302830D01*
X326495Y302725D01*
X326480Y302610D01*
X326475Y302485D01*
X326470Y302350D01*
Y302340D01*
Y302320D01*
Y302280D01*
X326475Y302235D01*
X326480Y302175D01*
X326485Y302105D01*
X326495Y302030D01*
X326510Y301950D01*
X326545Y301775D01*
X326570Y301685D01*
X326595Y301595D01*
X326630Y301510D01*
X326670Y301430D01*
X326715Y301350D01*
X326770Y301280D01*
X326775Y301275D01*
X326785Y301265D01*
X326800Y301250D01*
X326825Y301225D01*
X326850Y301200D01*
X326885Y301170D01*
X326925Y301140D01*
X326970Y301105D01*
X327075Y301040D01*
X327195Y300985D01*
X327260Y300960D01*
X327330Y300945D01*
X327405Y300935D01*
X327480Y300930D01*
X327520D01*
X327550Y300935D01*
X327585Y300940D01*
X327625Y300950D01*
X327720Y300970D01*
X327830Y301010D01*
X327890Y301040D01*
X327950Y301070D01*
X328010Y301110D01*
X328065Y301155D01*
X328125Y301205D01*
X328180Y301265D01*
X328185Y301270D01*
X328195Y301280D01*
X328205Y301300D01*
X328225Y301330D01*
X328245Y301365D01*
X328270Y301410D01*
X328300Y301460D01*
X328325Y301520D01*
X328350Y301590D01*
X328380Y301665D01*
X328405Y301750D01*
X328425Y301845D01*
X328445Y301945D01*
X328460Y302055D01*
X328465Y302175D01*
X328470Y302300D01*
Y302310D01*
Y302335D01*
Y302375D01*
X328465Y302425D01*
X328460Y302485D01*
X328455Y302560D01*
X328445Y302640D01*
X328435Y302725D01*
X328400Y302910D01*
X328375Y303000D01*
X328345Y303095D01*
X328310Y303185D01*
X328275Y303270D01*
X328225Y303350D01*
X328175Y303420D01*
X328170Y303425D01*
X328160Y303435D01*
X328145Y303455D01*
X328120Y303475D01*
X328095Y303505D01*
X328060Y303535D01*
X328020Y303565D01*
X327975Y303600D01*
X327925Y303635D01*
X327870Y303665D01*
X327745Y303725D01*
X327675Y303745D01*
X327605Y303765D01*
X327530Y303775D01*
X327450Y303780D01*
D02*
G37*
G36*
X375899Y246390D02*
X375010D01*
Y243454D01*
X375891D01*
X375921Y243458D01*
X375959D01*
X376000Y243461D01*
X376045D01*
X376143Y243469D01*
X376240Y243484D01*
X376338Y243499D01*
X376382Y243510D01*
X376424Y243521D01*
X376428D01*
X376435Y243525D01*
X376446Y243529D01*
X376461Y243536D01*
X376499Y243551D01*
X376548Y243574D01*
X376604Y243604D01*
X376660Y243637D01*
X376716Y243679D01*
X376769Y243724D01*
X376772Y243727D01*
X376776Y243731D01*
X376787Y243742D01*
X376799Y243758D01*
X376814Y243776D01*
X376833Y243795D01*
X376874Y243851D01*
X376919Y243922D01*
X376968Y244005D01*
X377012Y244099D01*
X377054Y244208D01*
Y244211D01*
X377058Y244222D01*
X377065Y244237D01*
X377069Y244264D01*
X377076Y244294D01*
X377087Y244327D01*
X377095Y244369D01*
X377106Y244418D01*
X377114Y244466D01*
X377121Y244523D01*
X377133Y244586D01*
X377140Y244650D01*
X377148Y244721D01*
X377151Y244793D01*
X377155Y244950D01*
Y244957D01*
Y244976D01*
Y245006D01*
X377151Y245047D01*
X377148Y245100D01*
X377144Y245156D01*
X377140Y245220D01*
X377129Y245291D01*
X377121Y245362D01*
X377106Y245438D01*
X377073Y245591D01*
X377050Y245666D01*
X377024Y245741D01*
X376990Y245809D01*
X376956Y245872D01*
X376953Y245876D01*
X376949Y245887D01*
X376938Y245902D01*
X376922Y245925D01*
X376900Y245951D01*
X376877Y245981D01*
X376821Y246049D01*
X376750Y246124D01*
X376667Y246195D01*
X376574Y246259D01*
X376525Y246289D01*
X376472Y246311D01*
X376469D01*
X376461Y246315D01*
X376450Y246319D01*
X376435Y246322D01*
X376413Y246330D01*
X376386Y246338D01*
X376353Y246345D01*
X376315Y246353D01*
X376270Y246356D01*
X376225Y246364D01*
X376169Y246371D01*
X376109Y246379D01*
X376045Y246382D01*
X375974Y246386D01*
X375899Y246390D01*
D02*
G37*
G36*
X323600Y303785D02*
X323560D01*
X323530Y303780D01*
X323490Y303775D01*
X323445Y303770D01*
X323400Y303760D01*
X323345Y303750D01*
X323230Y303715D01*
X323170Y303690D01*
X323110Y303660D01*
X323045Y303625D01*
X322985Y303590D01*
X322925Y303540D01*
X322870Y303490D01*
X322865Y303485D01*
X322855Y303475D01*
X322845Y303460D01*
X322825Y303435D01*
X322800Y303405D01*
X322775Y303370D01*
X322750Y303330D01*
X322720Y303280D01*
X322690Y303230D01*
X322660Y303170D01*
X322635Y303105D01*
X322610Y303035D01*
X322585Y302960D01*
X322570Y302885D01*
X322555Y302800D01*
X322545Y302710D01*
X324625D01*
Y302715D01*
Y302730D01*
X324620Y302755D01*
X324615Y302785D01*
X324610Y302825D01*
X324600Y302870D01*
X324580Y302975D01*
X324545Y303090D01*
X324505Y303205D01*
X324450Y303315D01*
X324420Y303370D01*
X324385Y303415D01*
X324380Y303420D01*
X324370Y303430D01*
X324355Y303450D01*
X324330Y303475D01*
X324300Y303500D01*
X324265Y303530D01*
X324220Y303565D01*
X324175Y303600D01*
X324120Y303635D01*
X324060Y303670D01*
X323995Y303700D01*
X323925Y303725D01*
X323850Y303750D01*
X323770Y303770D01*
X323690Y303780D01*
X323600Y303785D01*
D02*
G37*
%LPD*%
D48*
X391063Y280512D02*
G03*
X391063Y280512I-492J0D01*
G01*
X371716Y241413D02*
G03*
X371716Y241413I-492J0D01*
G01*
X374980Y249571D02*
G03*
X374980Y249571I-492J0D01*
G01*
Y263071D02*
G03*
X374980Y263071I-492J0D01*
G01*
X334968Y294342D02*
G03*
X334968Y294342I-492J0D01*
G01*
D49*
X354602Y254339D02*
G03*
X353736Y253472I0J-866D01*
G01*
X358264D02*
G03*
X357398Y254339I-866J0D01*
G01*
X353736Y247528D02*
G03*
X354602Y246661I866J0D01*
G01*
X357398D02*
G03*
X358264Y247528I0J866D01*
G01*
X372398Y254661D02*
G03*
X373264Y255528I0J866D01*
G01*
X368736D02*
G03*
X369602Y254661I866J0D01*
G01*
X373264Y261472D02*
G03*
X372398Y262339I-866J0D01*
G01*
X369602D02*
G03*
X368736Y261472I0J-866D01*
G01*
X372398Y264161D02*
G03*
X373264Y265028I0J866D01*
G01*
X368736D02*
G03*
X369602Y264161I866J0D01*
G01*
X373264Y270972D02*
G03*
X372398Y271839I-866J0D01*
G01*
X369602D02*
G03*
X368736Y270972I0J-866D01*
G01*
X351898Y246661D02*
G03*
X352764Y247528I0J866D01*
G01*
X348236D02*
G03*
X349102Y246661I866J0D01*
G01*
X352764Y253472D02*
G03*
X351898Y254339I-866J0D01*
G01*
X349102D02*
G03*
X348236Y253472I0J-866D01*
G01*
X358661Y265602D02*
G03*
X359528Y264736I866J0D01*
G01*
Y269264D02*
G03*
X358661Y268398I0J-866D01*
G01*
X365472Y264736D02*
G03*
X366339Y265602I0J866D01*
G01*
Y268398D02*
G03*
X365472Y269264I-866J0D01*
G01*
X396000Y282531D02*
G03*
X397575Y284106I0J1575D01*
G01*
X389425Y284106D02*
G03*
X391000Y282531I1575J0D01*
G01*
X391000Y296468D02*
G03*
X389425Y294894I0J-1575D01*
G01*
X397575Y294894D02*
G03*
X396000Y296468I-1575J0D01*
G01*
X323602Y299339D02*
G03*
X322736Y298472I0J-866D01*
G01*
X327264D02*
G03*
X326398Y299339I-866J0D01*
G01*
X322736Y292528D02*
G03*
X323602Y291661I866J0D01*
G01*
X326398D02*
G03*
X327264Y292528I0J866D01*
G01*
X318102Y299339D02*
G03*
X317236Y298472I0J-866D01*
G01*
X321764D02*
G03*
X320898Y299339I-866J0D01*
G01*
X317236Y292528D02*
G03*
X318102Y291661I866J0D01*
G01*
X320898D02*
G03*
X321764Y292528I0J866D01*
G01*
X329102Y299339D02*
G03*
X328236Y298472I0J-866D01*
G01*
X332764D02*
G03*
X331898Y299339I-866J0D01*
G01*
X328236Y292528D02*
G03*
X329102Y291661I866J0D01*
G01*
X331898D02*
G03*
X332764Y292528I0J866D01*
G01*
X338661Y300102D02*
G03*
X339528Y299236I866J0D01*
G01*
Y303764D02*
G03*
X338661Y302898I0J-866D01*
G01*
X345472Y299236D02*
G03*
X346339Y300102I0J866D01*
G01*
Y302898D02*
G03*
X345472Y303764I-866J0D01*
G01*
X354839Y302898D02*
G03*
X353972Y303764I-866J0D01*
G01*
Y299236D02*
G03*
X354839Y300102I0J866D01*
G01*
X348028Y303764D02*
G03*
X347161Y302898I0J-866D01*
G01*
Y300102D02*
G03*
X348028Y299236I866J0D01*
G01*
X361035Y270457D02*
G03*
X362610Y272031I0J1575D01*
G01*
X356390Y272031D02*
G03*
X357965Y270457I1575J0D01*
G01*
X357965Y282543D02*
G03*
X356390Y280968I0J-1575D01*
G01*
X362610D02*
G03*
X361035Y282543I-1575J-0D01*
G01*
X357965Y298043D02*
G03*
X356390Y296468I0J-1575D01*
G01*
X362610Y296468D02*
G03*
X361035Y298043I-1575J-0D01*
G01*
X361035Y285957D02*
G03*
X362610Y287531I0J1575D01*
G01*
X356390D02*
G03*
X357965Y285957I1575J0D01*
G01*
X393819Y279331D02*
X396181D01*
X393819Y270669D02*
X396181D01*
X393819D02*
Y279331D01*
X396181Y270669D02*
Y279331D01*
X404095Y264094D02*
Y275905D01*
X415905Y264094D02*
Y275905D01*
X418736Y279161D02*
Y281819D01*
Y284181D02*
Y286839D01*
X423264Y279161D02*
Y281819D01*
Y284181D02*
Y286839D01*
X418736Y279161D02*
X423264D01*
X418736Y286839D02*
X423264D01*
X365319Y242595D02*
X367681D01*
X365319Y254405D02*
X367681D01*
Y242595D02*
Y254405D01*
X365319Y242595D02*
Y254405D01*
X354602Y254339D02*
X357398D01*
X353736Y251681D02*
Y253453D01*
X358264Y251681D02*
Y253453D01*
X353736Y247547D02*
Y249319D01*
X358264Y247547D02*
Y249319D01*
X354602Y246661D02*
X357398D01*
X375669Y255181D02*
X384331D01*
X375669Y252819D02*
X384331D01*
Y255181D01*
X375669Y252819D02*
Y255181D01*
Y266319D02*
Y268681D01*
X384331Y266319D02*
Y268681D01*
X375669Y266319D02*
X384331D01*
X375669Y268681D02*
X384331D01*
X369602Y254661D02*
X372398D01*
X373264Y255547D02*
Y257319D01*
X368736Y255547D02*
Y257319D01*
X373264Y259681D02*
Y261453D01*
X368736Y259681D02*
Y261453D01*
X369602Y262339D02*
X372398D01*
X369602Y264161D02*
X372398D01*
X373264Y265047D02*
Y266819D01*
X368736Y265047D02*
Y266819D01*
X373264Y269181D02*
Y270953D01*
X368736Y269181D02*
Y270953D01*
X369602Y271839D02*
X372398D01*
X349102Y246661D02*
X351898D01*
X352764Y247547D02*
Y249319D01*
X348236Y247547D02*
Y249319D01*
X352764Y251681D02*
Y253453D01*
X348236Y251681D02*
Y253453D01*
X349102Y254339D02*
X351898D01*
X358661Y265602D02*
Y268398D01*
X359547Y264736D02*
X361319D01*
X359547Y269264D02*
X361319D01*
X363681Y264736D02*
X365453D01*
X363681Y269264D02*
X365453D01*
X366339Y265602D02*
Y268398D01*
X354681Y264736D02*
X357339D01*
X349661D02*
X352319D01*
X354681Y269264D02*
X357339D01*
X349661D02*
X352319D01*
X357339Y264736D02*
Y269264D01*
X349661Y264736D02*
Y269264D01*
X331681Y264736D02*
X334339D01*
X326661D02*
X329319D01*
X331681Y269264D02*
X334339D01*
X326661D02*
X329319D01*
X334339Y264736D02*
Y269264D01*
X326661Y264736D02*
Y269264D01*
X398728Y287724D02*
X404063D01*
X417272Y278276D02*
Y287724D01*
X398728Y278276D02*
Y287724D01*
Y278276D02*
X404063D01*
X411937D02*
X417272D01*
X411937Y287724D02*
X417272D01*
X327181Y270736D02*
X329839D01*
X322161D02*
X324819D01*
X327181Y275264D02*
X329839D01*
X322161D02*
X324819D01*
X329839Y270736D02*
Y275264D01*
X322161Y270736D02*
Y275264D01*
Y280764D02*
X324819D01*
X327181D02*
X329839D01*
X322161Y276236D02*
X324819D01*
X327181D02*
X329839D01*
X322161D02*
Y280764D01*
X329839Y276236D02*
Y280764D01*
X397575Y291272D02*
Y294894D01*
Y284106D02*
Y287728D01*
X389425Y284106D02*
Y287728D01*
X391000Y282531D02*
X396000D01*
X389425Y291272D02*
Y294894D01*
X391000Y296468D02*
X396000D01*
X322181Y286236D02*
X324839D01*
X317161D02*
X319819D01*
X322181Y290764D02*
X324839D01*
X317161D02*
X319819D01*
X324839Y286236D02*
Y290764D01*
X317161Y286236D02*
Y290764D01*
X323602Y299339D02*
X326398D01*
X322736Y296681D02*
Y298453D01*
X327264Y296681D02*
Y298453D01*
X322736Y292547D02*
Y294319D01*
X327264Y292547D02*
Y294319D01*
X323602Y291661D02*
X326398D01*
X318102Y299339D02*
X320898D01*
X317236Y296681D02*
Y298453D01*
X321764Y296681D02*
Y298453D01*
X317236Y292547D02*
Y294319D01*
X321764Y292547D02*
Y294319D01*
X318102Y291661D02*
X320898D01*
X329102Y299339D02*
X331898D01*
X328236Y296681D02*
Y298453D01*
X332764Y296681D02*
Y298453D01*
X328236Y292547D02*
Y294319D01*
X332764Y292547D02*
Y294319D01*
X329102Y291661D02*
X331898D01*
X338661Y300102D02*
Y302898D01*
X339547Y299236D02*
X341319D01*
X339547Y303764D02*
X341319D01*
X343681Y299236D02*
X345453D01*
X343681Y303764D02*
X345453D01*
X346339Y300102D02*
Y302898D01*
X354839Y300102D02*
Y302898D01*
X352181Y303764D02*
X353953D01*
X352181Y299236D02*
X353953D01*
X348047Y303764D02*
X349819D01*
X348047Y299236D02*
X349819D01*
X347161Y300102D02*
Y302898D01*
X362610Y278075D02*
Y280968D01*
X357965Y270457D02*
X361035D01*
X357965Y282543D02*
X361035D01*
X362610Y272031D02*
Y274925D01*
X356390Y272031D02*
Y274925D01*
X356390Y278075D02*
Y280968D01*
Y287531D02*
Y290425D01*
X357965Y298043D02*
X361035D01*
X357965Y285957D02*
X361035D01*
X356390Y293575D02*
Y296468D01*
X362610Y293575D02*
Y296468D01*
X362610Y287531D02*
Y290425D01*
X364189Y296327D02*
X387811D01*
X364189Y274673D02*
X387811D01*
X364189Y291799D02*
Y296327D01*
X387811Y291799D02*
Y296327D01*
X364189Y274673D02*
Y279201D01*
X387811Y274673D02*
Y279201D01*
X337035Y274067D02*
X338512D01*
X337035D02*
Y275543D01*
X352488Y274067D02*
X353965D01*
Y275543D01*
Y293457D02*
Y294933D01*
X352488D02*
X353965D01*
X337035D02*
X338512D01*
X337035Y293457D02*
Y294933D01*
X335358Y256457D02*
X347444D01*
Y268543D01*
X335358D02*
X347444D01*
X335358Y256457D02*
Y268543D01*
X386858Y252457D02*
Y269543D01*
Y252457D02*
X398944D01*
Y269543D01*
X386858D02*
X398944D01*
D50*
X366111Y255220D02*
G03*
X366111Y255220I-197J0D01*
G01*
D51*
X356000Y255000D02*
X364000D01*
X356000Y264000D02*
X364000D01*
D52*
X402000Y264500D02*
D03*
%TF.MD5,587C35D464A0EE58627E1180B9097014*%
M02*
