G04 Layer_Color=65535*
%FSLAX25Y25*%
%MOIN*%
%TF.FileFunction,Legend,Top*%
%TF.Part,Single*%
G01*
G75*
%ADD30C,0.01000*%
%ADD50C,0.00787*%
%ADD51C,0.00984*%
%ADD52C,0.00394*%
%ADD53C,0.00866*%
%ADD54R,0.02000X0.02000*%
%ADD55R,0.01500X0.01500*%
%ADD56R,0.02500X0.02500*%
%ADD57R,0.02362X0.02906*%
%ADD58R,0.02331X0.02362*%
G36*
X333262Y318243D02*
X333372D01*
X333439Y318239D01*
X333513D01*
X333584Y318235D01*
X333647Y318231D01*
X333675Y318227D01*
X333698Y318223D01*
X333702D01*
X333718Y318219D01*
X333737Y318211D01*
X333765Y318199D01*
X333796Y318184D01*
X333828Y318168D01*
X333863Y318140D01*
X333895Y318113D01*
X333899Y318109D01*
X333910Y318097D01*
X333926Y318077D01*
X333946Y318046D01*
X333965Y318011D01*
X333989Y317968D01*
X334009Y317916D01*
X334028Y317861D01*
X334032Y317853D01*
X334036Y317830D01*
X334040Y317814D01*
X334044Y317791D01*
X334048Y317767D01*
X334052Y317740D01*
X334056Y317704D01*
X334060Y317669D01*
X334064Y317625D01*
X334068Y317582D01*
X334071Y317531D01*
X334075Y317476D01*
Y317421D01*
Y317358D01*
Y316985D01*
X333561D01*
Y316989D01*
Y316997D01*
Y317013D01*
Y317036D01*
Y317060D01*
Y317087D01*
X333557Y317150D01*
X333553Y317213D01*
X333549Y317272D01*
X333545Y317299D01*
X333541Y317323D01*
X333533Y317343D01*
X333529Y317354D01*
Y317358D01*
X333521Y317362D01*
X333513Y317370D01*
X333498Y317382D01*
X333478Y317394D01*
X333447Y317402D01*
X333411Y317406D01*
X333364Y317409D01*
X333262D01*
Y316985D01*
X332731D01*
Y317225D01*
X330000D01*
Y318243D01*
X332731D01*
Y318451D01*
X333262D01*
Y318243D01*
D02*
G37*
G36*
Y319732D02*
X333372D01*
X333439Y319728D01*
X333513D01*
X333584Y319724D01*
X333647Y319720D01*
X333675Y319716D01*
X333698Y319712D01*
X333702D01*
X333718Y319708D01*
X333737Y319701D01*
X333765Y319689D01*
X333796Y319673D01*
X333828Y319657D01*
X333863Y319630D01*
X333895Y319602D01*
X333899Y319598D01*
X333910Y319587D01*
X333926Y319567D01*
X333946Y319535D01*
X333965Y319500D01*
X333989Y319457D01*
X334009Y319406D01*
X334028Y319351D01*
X334032Y319343D01*
X334036Y319319D01*
X334040Y319304D01*
X334044Y319280D01*
X334048Y319256D01*
X334052Y319229D01*
X334056Y319194D01*
X334060Y319158D01*
X334064Y319115D01*
X334068Y319072D01*
X334071Y319021D01*
X334075Y318966D01*
Y318911D01*
Y318848D01*
Y318474D01*
X333561D01*
Y318478D01*
Y318486D01*
Y318502D01*
Y318526D01*
Y318549D01*
Y318577D01*
X333557Y318639D01*
X333553Y318702D01*
X333549Y318761D01*
X333545Y318789D01*
X333541Y318812D01*
X333533Y318832D01*
X333529Y318844D01*
Y318848D01*
X333521Y318852D01*
X333513Y318860D01*
X333498Y318871D01*
X333478Y318883D01*
X333447Y318891D01*
X333411Y318895D01*
X333364Y318899D01*
X333262D01*
Y318474D01*
X332731D01*
Y318714D01*
X330000D01*
Y319732D01*
X332731D01*
Y319940D01*
X333262D01*
Y319732D01*
D02*
G37*
G36*
X333341Y320133D02*
X330000D01*
Y321182D01*
X333341D01*
Y320133D01*
D02*
G37*
G36*
Y310760D02*
X332896Y310799D01*
X332900Y310795D01*
X332916Y310787D01*
X332940Y310776D01*
X332971Y310760D01*
X333006Y310736D01*
X333046Y310709D01*
X333093Y310673D01*
X333136Y310638D01*
X333183Y310595D01*
X333226Y310548D01*
X333270Y310493D01*
X333309Y310438D01*
X333341Y310375D01*
X333368Y310308D01*
X333388Y310233D01*
X333399Y310158D01*
X332224D01*
Y310162D01*
Y310170D01*
Y310186D01*
Y310206D01*
X332220Y310229D01*
Y310253D01*
X332217Y310316D01*
X332205Y310383D01*
X332193Y310453D01*
X332173Y310516D01*
X332146Y310571D01*
X332142Y310575D01*
X332134Y310591D01*
X332114Y310614D01*
X332091Y310638D01*
X332063Y310665D01*
X332028Y310693D01*
X331985Y310717D01*
X331938Y310732D01*
X331930D01*
X331922Y310736D01*
X331910D01*
X331890Y310740D01*
X331871D01*
X331843Y310744D01*
X331812D01*
X331772Y310748D01*
X331729Y310752D01*
X331678D01*
X331619Y310756D01*
X331556D01*
X331482Y310760D01*
X330000D01*
Y311778D01*
X333341D01*
Y310760D01*
D02*
G37*
G36*
X332209Y314442D02*
X332252D01*
X332303Y314438D01*
X332358Y314434D01*
X332472Y314423D01*
X332594Y314403D01*
X332712Y314379D01*
X332767Y314364D01*
X332818Y314348D01*
X332822D01*
X332830Y314344D01*
X332841Y314336D01*
X332861Y314328D01*
X332885Y314317D01*
X332908Y314301D01*
X332971Y314265D01*
X333038Y314214D01*
X333105Y314151D01*
X333175Y314077D01*
X333238Y313986D01*
Y313982D01*
X333246Y313975D01*
X333254Y313959D01*
X333262Y313939D01*
X333278Y313912D01*
X333289Y313880D01*
X333305Y313845D01*
X333321Y313802D01*
X333333Y313758D01*
X333348Y313707D01*
X333364Y313652D01*
X333376Y313593D01*
X333384Y313527D01*
X333392Y313460D01*
X333399Y313314D01*
Y313310D01*
Y313299D01*
Y313283D01*
Y313255D01*
X333396Y313228D01*
Y313193D01*
X333392Y313153D01*
X333388Y313114D01*
X333376Y313020D01*
X333356Y312921D01*
X333333Y312823D01*
X333297Y312729D01*
Y312725D01*
X333293Y312717D01*
X333285Y312705D01*
X333278Y312689D01*
X333258Y312642D01*
X333226Y312587D01*
X333187Y312528D01*
X333140Y312461D01*
X333089Y312403D01*
X333030Y312348D01*
X333022Y312340D01*
X333002Y312324D01*
X332967Y312304D01*
X332928Y312273D01*
X332877Y312245D01*
X332818Y312214D01*
X332755Y312186D01*
X332692Y312163D01*
X332684Y312159D01*
X332672D01*
X332661Y312155D01*
X332641Y312151D01*
X332617Y312147D01*
X332594Y312143D01*
X332562Y312135D01*
X332527Y312131D01*
X332488Y312127D01*
X332445Y312123D01*
X332397Y312120D01*
X332346Y312116D01*
X332291D01*
X332228Y312112D01*
X331238D01*
X331195Y312116D01*
X331097D01*
X330986Y312123D01*
X330876Y312131D01*
X330774Y312143D01*
X330727Y312151D01*
X330684Y312159D01*
X330680D01*
X330676Y312163D01*
X330664D01*
X330648Y312167D01*
X330609Y312182D01*
X330558Y312202D01*
X330499Y312226D01*
X330432Y312261D01*
X330362Y312304D01*
X330295Y312355D01*
X330287Y312363D01*
X330267Y312383D01*
X330232Y312414D01*
X330193Y312458D01*
X330149Y312513D01*
X330106Y312576D01*
X330063Y312654D01*
X330028Y312737D01*
Y312740D01*
X330024Y312748D01*
X330020Y312760D01*
X330016Y312776D01*
X330008Y312800D01*
X330000Y312827D01*
X329992Y312855D01*
X329984Y312890D01*
X329969Y312968D01*
X329953Y313059D01*
X329945Y313161D01*
X329941Y313271D01*
Y313275D01*
Y313287D01*
Y313302D01*
Y313326D01*
X329945Y313358D01*
Y313389D01*
X329949Y313428D01*
Y313468D01*
X329957Y313558D01*
X329973Y313656D01*
X329988Y313751D01*
X330012Y313845D01*
Y313849D01*
X330016Y313857D01*
X330020Y313868D01*
X330028Y313884D01*
X330043Y313924D01*
X330067Y313979D01*
X330098Y314034D01*
X330138Y314096D01*
X330185Y314155D01*
X330236Y314206D01*
X330244Y314210D01*
X330263Y314226D01*
X330295Y314250D01*
X330338Y314277D01*
X330389Y314309D01*
X330452Y314340D01*
X330523Y314368D01*
X330597Y314391D01*
X330601D01*
X330609Y314395D01*
X330621D01*
X330637Y314399D01*
X330660Y314403D01*
X330688Y314407D01*
X330719Y314415D01*
X330759Y314419D01*
X330802Y314423D01*
X330849Y314430D01*
X330900Y314434D01*
X330959Y314438D01*
X331022Y314442D01*
X331089D01*
X331159Y314446D01*
X332169D01*
X332209Y314442D01*
D02*
G37*
G36*
X334075Y314627D02*
X333258D01*
Y315256D01*
X330000D01*
Y316317D01*
X333258D01*
Y316942D01*
X334075D01*
Y314627D01*
D02*
G37*
G36*
X385543Y251092D02*
X385578Y251087D01*
X385587D01*
X385612Y251082D01*
X385646Y251072D01*
X385681Y251062D01*
X385686D01*
X385691Y251057D01*
X385715Y251052D01*
X385750Y251042D01*
X385794Y251033D01*
X385804D01*
X385833Y251028D01*
X385868Y251023D01*
X385971D01*
X386005Y251028D01*
X386015D01*
X386035Y251033D01*
X386069D01*
X386109Y251038D01*
X386119D01*
X386148Y251042D01*
X386276D01*
X386301Y251047D01*
X386542D01*
X386606Y251042D01*
X386665D01*
X386724Y251033D01*
X386793Y251023D01*
X386798D01*
X386807Y251018D01*
X386827D01*
X386857Y251013D01*
X386916Y250998D01*
X386989Y250974D01*
X386994D01*
X387009Y250969D01*
X387029Y250964D01*
X387053Y250954D01*
X387112Y250924D01*
X387176Y250885D01*
X387181D01*
X387191Y250875D01*
X387206Y250865D01*
X387231Y250851D01*
X387280Y250806D01*
X387334Y250752D01*
X387339Y250747D01*
X387344Y250737D01*
X387358Y250723D01*
X387373Y250698D01*
X387388Y250669D01*
X387403Y250639D01*
X387432Y250560D01*
X387437Y250550D01*
X387442Y250526D01*
X387452Y250496D01*
X387457Y250457D01*
Y250452D01*
X387462Y250432D01*
Y250403D01*
Y250373D01*
Y250368D01*
Y250349D01*
X387457Y250319D01*
X387452Y250285D01*
X387442Y250240D01*
X387432Y250191D01*
X387413Y250142D01*
X387388Y250088D01*
X387383Y250083D01*
X387373Y250058D01*
X387354Y250029D01*
X387329Y249990D01*
X387295Y249940D01*
X387255Y249891D01*
X387211Y249837D01*
X387162Y249783D01*
X387157Y249778D01*
X387137Y249758D01*
X387108Y249734D01*
X387068Y249699D01*
X387019Y249660D01*
X386965Y249616D01*
X386901Y249566D01*
X386832Y249522D01*
X386827D01*
X386817Y249512D01*
X386803Y249502D01*
X386783Y249493D01*
X386729Y249458D01*
X386660Y249419D01*
X386655D01*
X386645Y249409D01*
X386625Y249399D01*
X386601Y249384D01*
X386537Y249355D01*
X386468Y249316D01*
X386463D01*
X386453Y249306D01*
X386434Y249296D01*
X386414Y249286D01*
X386360Y249256D01*
X386301Y249227D01*
X386296D01*
X386291Y249222D01*
X386261Y249202D01*
X386227Y249183D01*
X386197Y249163D01*
X386202D01*
X386212Y249158D01*
X386227Y249148D01*
X386251Y249138D01*
X386306Y249109D01*
X386365Y249079D01*
X386370D01*
X386379Y249069D01*
X386394Y249060D01*
X386419Y249050D01*
X386473Y249015D01*
X386532Y248971D01*
X386537Y248966D01*
X386547Y248961D01*
X386566Y248946D01*
X386586Y248932D01*
X386645Y248883D01*
X386709Y248823D01*
X386714Y248819D01*
X386724Y248809D01*
X386743Y248789D01*
X386768Y248764D01*
X386793Y248730D01*
X386827Y248696D01*
X386896Y248607D01*
X386901Y248602D01*
X386911Y248582D01*
X386930Y248558D01*
X386960Y248523D01*
X386989Y248474D01*
X387024Y248425D01*
X387058Y248366D01*
X387098Y248302D01*
X387103Y248292D01*
X387117Y248272D01*
X387137Y248233D01*
X387162Y248189D01*
X387196Y248125D01*
X387231Y248056D01*
X387275Y247977D01*
X387314Y247894D01*
X387319Y247884D01*
X387329Y247859D01*
X387334Y247820D01*
X387339Y247776D01*
Y247766D01*
Y247746D01*
X387329Y247712D01*
X387319Y247672D01*
X387314Y247662D01*
X387304Y247643D01*
X387290Y247613D01*
X387265Y247584D01*
X387260Y247579D01*
X387240Y247559D01*
X387216Y247539D01*
X387181Y247520D01*
X387172Y247515D01*
X387152Y247510D01*
X387122Y247505D01*
X387083Y247500D01*
X387068D01*
X387053Y247505D01*
X387034Y247510D01*
X386989Y247525D01*
X386965Y247539D01*
X386940Y247559D01*
Y247564D01*
X386930Y247569D01*
X386921Y247584D01*
X386906Y247603D01*
X386876Y247653D01*
X386837Y247716D01*
Y247721D01*
X386827Y247736D01*
X386817Y247756D01*
X386807Y247780D01*
X386793Y247815D01*
X386773Y247854D01*
X386734Y247943D01*
Y247948D01*
X386724Y247967D01*
X386714Y247992D01*
X386699Y248022D01*
X386680Y248061D01*
X386655Y248105D01*
X386601Y248199D01*
X386596Y248204D01*
X386586Y248223D01*
X386571Y248248D01*
X386547Y248282D01*
X386517Y248322D01*
X386488Y248366D01*
X386414Y248459D01*
X386409Y248464D01*
X386394Y248479D01*
X386374Y248504D01*
X386350Y248533D01*
X386315Y248568D01*
X386276Y248607D01*
X386192Y248676D01*
X386188Y248681D01*
X386173Y248691D01*
X386148Y248705D01*
X386119Y248725D01*
X386084Y248750D01*
X386040Y248774D01*
X385951Y248819D01*
X385946Y248823D01*
X385932Y248828D01*
X385907Y248838D01*
X385873Y248848D01*
X385838Y248858D01*
X385794Y248863D01*
X385750Y248873D01*
X385622D01*
X385578Y248868D01*
X385533Y248858D01*
X385523D01*
X385499Y248853D01*
X385459Y248848D01*
X385420Y248838D01*
X385415D01*
X385410Y248843D01*
X385381Y248858D01*
X385341Y248883D01*
X385312Y248922D01*
Y248927D01*
X385307Y248932D01*
X385297Y248961D01*
X385287Y249006D01*
X385282Y249060D01*
Y249089D01*
X385090Y248341D01*
Y248336D01*
X385086Y248312D01*
X385076Y248282D01*
X385061Y248238D01*
Y248233D01*
X385056Y248228D01*
X385051Y248199D01*
X385036Y248159D01*
X385021Y248105D01*
Y248100D01*
X385017Y248090D01*
Y248076D01*
X385007Y248056D01*
X384997Y248007D01*
X384977Y247948D01*
Y247943D01*
X384972Y247933D01*
Y247918D01*
X384967Y247899D01*
X384953Y247849D01*
X384938Y247795D01*
Y247790D01*
X384933Y247785D01*
X384928Y247756D01*
X384913Y247712D01*
X384903Y247667D01*
Y247657D01*
X384894Y247638D01*
X384889Y247608D01*
X384879Y247584D01*
X384874Y247574D01*
X384854Y247549D01*
X384825Y247520D01*
X384790Y247495D01*
X384780Y247490D01*
X384761Y247480D01*
X384726Y247466D01*
X384682Y247461D01*
X384667D01*
X384648Y247466D01*
X384628Y247470D01*
X384579Y247485D01*
X384559Y247500D01*
X384539Y247520D01*
Y247525D01*
X384534Y247530D01*
X384520Y247559D01*
X384505Y247603D01*
X384500Y247662D01*
Y247667D01*
Y247682D01*
Y247707D01*
Y247731D01*
Y247736D01*
X384505Y247751D01*
X384510Y247776D01*
X384515Y247800D01*
Y247805D01*
X384520Y247825D01*
X384529Y247854D01*
X384539Y247894D01*
X384549Y247943D01*
X384564Y248002D01*
X384584Y248066D01*
X384603Y248140D01*
X384623Y248218D01*
X384643Y248302D01*
X384692Y248484D01*
X384741Y248681D01*
X384795Y248878D01*
Y248883D01*
X384800Y248902D01*
X384810Y248932D01*
X384820Y248971D01*
X384835Y249015D01*
X384849Y249074D01*
X384864Y249138D01*
X384884Y249212D01*
X384908Y249291D01*
X384928Y249375D01*
X384977Y249557D01*
X385026Y249753D01*
X385076Y249955D01*
Y249960D01*
X385081Y249970D01*
Y249980D01*
X385086Y249999D01*
X385100Y250044D01*
X385110Y250093D01*
Y250098D01*
X385115Y250103D01*
X385120Y250132D01*
X385130Y250172D01*
X385140Y250221D01*
Y250226D01*
X385144Y250231D01*
X385149Y250260D01*
X385154Y250300D01*
X385164Y250349D01*
Y250354D01*
Y250359D01*
X385169Y250373D01*
Y250393D01*
X385174Y250437D01*
Y250491D01*
Y250496D01*
Y250501D01*
Y250526D01*
X385169Y250555D01*
X385164Y250590D01*
Y250600D01*
Y250619D01*
X385159Y250654D01*
Y250693D01*
Y250698D01*
Y250703D01*
Y250728D01*
X385164Y250762D01*
X385174Y250806D01*
Y250811D01*
X385179Y250831D01*
X385189Y250855D01*
X385199Y250890D01*
X385228Y250959D01*
X385248Y250993D01*
X385272Y251023D01*
X385277Y251028D01*
X385287Y251033D01*
X385302Y251047D01*
X385322Y251062D01*
X385351Y251072D01*
X385386Y251087D01*
X385430Y251092D01*
X385474Y251097D01*
X385509D01*
X385543Y251092D01*
D02*
G37*
G36*
X398985Y250974D02*
X399024Y250964D01*
X399063Y250944D01*
X399068Y250939D01*
X399088Y250919D01*
X399093Y250900D01*
X399103Y250880D01*
X399108Y250851D01*
Y250816D01*
Y250811D01*
Y250796D01*
X399103Y250772D01*
X399098Y250747D01*
X399088Y250713D01*
X399073Y250683D01*
X399053Y250649D01*
X399029Y250619D01*
X399024Y250614D01*
X399014Y250609D01*
X398999Y250595D01*
X398975Y250585D01*
X398945Y250570D01*
X398911Y250555D01*
X398871Y250550D01*
X398827Y250546D01*
X398596D01*
X398502Y250541D01*
X398399D01*
X398286Y250536D01*
X398163D01*
X398035Y250531D01*
X397902Y250526D01*
X397764Y250521D01*
X397489Y250501D01*
X397218Y250482D01*
Y250477D01*
X397208Y250462D01*
X397199Y250442D01*
X397189Y250413D01*
X397169Y250378D01*
X397154Y250334D01*
X397130Y250285D01*
X397110Y250226D01*
X397085Y250167D01*
X397061Y250098D01*
X397007Y249950D01*
X396953Y249788D01*
X396903Y249616D01*
X396908D01*
X396918Y249621D01*
X396938Y249630D01*
X396962Y249640D01*
X396992Y249650D01*
X397026Y249665D01*
X397071Y249675D01*
X397115Y249689D01*
X397218Y249719D01*
X397336Y249739D01*
X397464Y249758D01*
X397602Y249763D01*
X397651D01*
X397686Y249758D01*
X397725Y249753D01*
X397774Y249748D01*
X397828Y249739D01*
X397887Y249729D01*
X398010Y249689D01*
X398079Y249670D01*
X398143Y249640D01*
X398212Y249606D01*
X398276Y249566D01*
X398335Y249522D01*
X398394Y249468D01*
X398399Y249463D01*
X398409Y249453D01*
X398424Y249439D01*
X398443Y249414D01*
X398463Y249389D01*
X398493Y249355D01*
X398517Y249316D01*
X398547Y249271D01*
X398601Y249173D01*
X398650Y249055D01*
X398670Y248991D01*
X398684Y248927D01*
X398694Y248858D01*
X398699Y248784D01*
Y248779D01*
Y248760D01*
X398694Y248730D01*
Y248691D01*
X398684Y248641D01*
X398675Y248582D01*
X398665Y248523D01*
X398645Y248454D01*
X398620Y248381D01*
X398596Y248307D01*
X398556Y248228D01*
X398517Y248149D01*
X398468Y248071D01*
X398409Y247992D01*
X398345Y247918D01*
X398266Y247849D01*
X398261Y247844D01*
X398247Y247835D01*
X398222Y247815D01*
X398187Y247790D01*
X398143Y247766D01*
X398089Y247736D01*
X398030Y247702D01*
X397956Y247667D01*
X397878Y247633D01*
X397789Y247598D01*
X397695Y247569D01*
X397592Y247544D01*
X397479Y247520D01*
X397361Y247500D01*
X397233Y247490D01*
X397100Y247485D01*
X397051D01*
X397017Y247490D01*
X396972Y247495D01*
X396923Y247500D01*
X396869Y247505D01*
X396805Y247515D01*
X396672Y247544D01*
X396529Y247589D01*
X396456Y247613D01*
X396387Y247648D01*
X396318Y247682D01*
X396249Y247726D01*
X396244Y247731D01*
X396234Y247736D01*
X396219Y247751D01*
X396195Y247771D01*
X396141Y247815D01*
X396077Y247879D01*
X396013Y247953D01*
X395959Y248036D01*
X395934Y248081D01*
X395919Y248125D01*
X395910Y248174D01*
X395905Y248218D01*
Y248223D01*
Y248238D01*
X395910Y248258D01*
X395914Y248282D01*
X395929Y248346D01*
X395944Y248376D01*
X395964Y248410D01*
X395969Y248415D01*
X395973Y248425D01*
X396003Y248454D01*
X396052Y248479D01*
X396082Y248489D01*
X396111Y248494D01*
X396141D01*
X396170Y248489D01*
X396205Y248484D01*
X396239Y248469D01*
X396274Y248454D01*
X396303Y248430D01*
X396323Y248400D01*
X396328Y248395D01*
X396333Y248381D01*
X396347Y248356D01*
X396367Y248322D01*
X396392Y248282D01*
X396421Y248238D01*
X396461Y248194D01*
X396510Y248149D01*
X396564Y248100D01*
X396623Y248056D01*
X396697Y248012D01*
X396775Y247972D01*
X396864Y247943D01*
X396962Y247913D01*
X397076Y247899D01*
X397194Y247894D01*
X397238D01*
X397272Y247899D01*
X397312Y247903D01*
X397356Y247908D01*
X397405Y247918D01*
X397459Y247928D01*
X397582Y247958D01*
X397705Y248007D01*
X397769Y248036D01*
X397833Y248071D01*
X397892Y248115D01*
X397946Y248159D01*
X397951Y248164D01*
X397961Y248169D01*
X397971Y248184D01*
X397991Y248204D01*
X398015Y248233D01*
X398040Y248258D01*
X398094Y248331D01*
X398143Y248420D01*
X398192Y248518D01*
X398212Y248568D01*
X398222Y248627D01*
X398232Y248681D01*
X398237Y248740D01*
Y248745D01*
Y248750D01*
Y248764D01*
X398232Y248784D01*
X398227Y248833D01*
X398217Y248897D01*
X398192Y248966D01*
X398163Y249040D01*
X398119Y249109D01*
X398060Y249178D01*
X398050Y249188D01*
X398025Y249207D01*
X397986Y249232D01*
X397927Y249266D01*
X397848Y249296D01*
X397755Y249325D01*
X397636Y249345D01*
X397572Y249350D01*
X397469D01*
X397430Y249345D01*
X397371Y249340D01*
X397302Y249325D01*
X397218Y249311D01*
X397125Y249286D01*
X397017Y249256D01*
X397012D01*
X397007Y249252D01*
X396977Y249247D01*
X396933Y249232D01*
X396879Y249217D01*
X396820Y249202D01*
X396756Y249193D01*
X396697Y249183D01*
X396643Y249178D01*
X396628D01*
X396613Y249183D01*
X396598Y249188D01*
X396549Y249202D01*
X396529Y249217D01*
X396505Y249237D01*
Y249242D01*
X396495Y249247D01*
X396485Y249261D01*
X396475Y249281D01*
X396456Y249325D01*
X396451Y249355D01*
X396446Y249384D01*
Y249389D01*
Y249414D01*
X396451Y249448D01*
X396461Y249502D01*
X396475Y249576D01*
X396485Y249621D01*
X396495Y249665D01*
X396510Y249719D01*
X396525Y249778D01*
X396544Y249842D01*
X396564Y249911D01*
Y249916D01*
X396569Y249926D01*
X396574Y249945D01*
X396584Y249975D01*
X396593Y250004D01*
X396608Y250044D01*
X396633Y250127D01*
X396667Y250216D01*
X396702Y250309D01*
X396741Y250398D01*
X396775Y250477D01*
X396780Y250486D01*
X396790Y250506D01*
X396810Y250541D01*
X396834Y250580D01*
X396894Y250673D01*
X396923Y250718D01*
X396957Y250757D01*
X396962Y250762D01*
X396972Y250772D01*
X396987Y250792D01*
X397012Y250811D01*
X397061Y250851D01*
X397090Y250865D01*
X397115Y250875D01*
X397120D01*
X397135Y250880D01*
X397149D01*
X397169Y250885D01*
X397199D01*
X397228Y250890D01*
X397267Y250895D01*
X397317Y250900D01*
X397376Y250905D01*
X397440Y250910D01*
X397518Y250915D01*
X397607Y250919D01*
X397705Y250929D01*
X397818Y250934D01*
X397848D01*
X397882Y250939D01*
X397927D01*
X397981Y250944D01*
X398045Y250949D01*
X398119Y250954D01*
X398197Y250959D01*
X398281D01*
X398370Y250964D01*
X398556Y250974D01*
X398748Y250978D01*
X398965D01*
X398985Y250974D01*
D02*
G37*
G36*
X394645Y250969D02*
X394684Y250964D01*
X394729Y250959D01*
X394783Y250954D01*
X394837Y250944D01*
X394960Y250915D01*
X395093Y250870D01*
X395157Y250841D01*
X395221Y250806D01*
X395285Y250767D01*
X395344Y250723D01*
X395349Y250718D01*
X395358Y250713D01*
X395373Y250698D01*
X395393Y250678D01*
X395417Y250654D01*
X395442Y250624D01*
X395501Y250555D01*
X395555Y250462D01*
X395604Y250359D01*
X395624Y250300D01*
X395639Y250236D01*
X395649Y250172D01*
X395654Y250103D01*
Y250098D01*
Y250088D01*
Y250073D01*
X395649Y250054D01*
X395644Y249999D01*
X395629Y249931D01*
X395604Y249852D01*
X395570Y249768D01*
X395521Y249680D01*
X395457Y249596D01*
X395447Y249586D01*
X395422Y249562D01*
X395373Y249522D01*
X395314Y249473D01*
X395235Y249419D01*
X395137Y249360D01*
X395024Y249311D01*
X394896Y249261D01*
X394906Y249256D01*
X394930Y249247D01*
X394965Y249227D01*
X395014Y249197D01*
X395063Y249158D01*
X395117Y249109D01*
X395171Y249055D01*
X395221Y248986D01*
X395226Y248976D01*
X395240Y248951D01*
X395260Y248917D01*
X395285Y248868D01*
X395309Y248809D01*
X395329Y248745D01*
X395344Y248676D01*
X395349Y248607D01*
Y248602D01*
Y248587D01*
Y248558D01*
X395344Y248523D01*
X395339Y248479D01*
X395329Y248430D01*
X395314Y248376D01*
X395299Y248317D01*
X395280Y248253D01*
X395255Y248189D01*
X395221Y248120D01*
X395186Y248051D01*
X395142Y247987D01*
X395088Y247918D01*
X395029Y247854D01*
X394960Y247795D01*
X394955Y247790D01*
X394940Y247780D01*
X394921Y247766D01*
X394891Y247746D01*
X394852Y247721D01*
X394802Y247697D01*
X394748Y247667D01*
X394689Y247643D01*
X394620Y247613D01*
X394542Y247584D01*
X394458Y247559D01*
X394370Y247534D01*
X394276Y247515D01*
X394173Y247500D01*
X394064Y247490D01*
X393951Y247485D01*
X393902D01*
X393868Y247490D01*
X393828D01*
X393779Y247500D01*
X393720Y247505D01*
X393661Y247515D01*
X393523Y247544D01*
X393371Y247584D01*
X393218Y247643D01*
X393140Y247682D01*
X393061Y247721D01*
X393056Y247726D01*
X393046Y247731D01*
X393021Y247746D01*
X392997Y247766D01*
X392933Y247810D01*
X392859Y247874D01*
X392785Y247948D01*
X392721Y248036D01*
X392697Y248081D01*
X392677Y248125D01*
X392662Y248174D01*
X392657Y248223D01*
Y248228D01*
Y248238D01*
X392662Y248258D01*
X392667Y248277D01*
X392687Y248331D01*
X392702Y248361D01*
X392721Y248391D01*
X392726Y248395D01*
X392731Y248400D01*
X392746Y248415D01*
X392766Y248430D01*
X392815Y248454D01*
X392844Y248459D01*
X392874Y248464D01*
X392898D01*
X392928Y248459D01*
X392957Y248454D01*
X392992Y248440D01*
X393026Y248425D01*
X393056Y248400D01*
X393080Y248366D01*
X393085Y248361D01*
X393095Y248346D01*
X393110Y248322D01*
X393135Y248292D01*
X393164Y248258D01*
X393199Y248213D01*
X393243Y248174D01*
X393292Y248130D01*
X393351Y248081D01*
X393415Y248041D01*
X393489Y248002D01*
X393572Y247962D01*
X393661Y247933D01*
X393755Y247908D01*
X393858Y247894D01*
X393971Y247889D01*
X394010D01*
X394045Y247894D01*
X394079D01*
X394119Y247899D01*
X394217Y247913D01*
X394325Y247938D01*
X394438Y247967D01*
X394542Y248017D01*
X394640Y248081D01*
X394645D01*
X394650Y248090D01*
X394679Y248115D01*
X394719Y248159D01*
X394763Y248218D01*
X394807Y248287D01*
X394842Y248371D01*
X394871Y248469D01*
X394876Y248518D01*
X394881Y248573D01*
Y248577D01*
Y248597D01*
X394876Y248627D01*
X394871Y248661D01*
X394857Y248705D01*
X394842Y248745D01*
X394817Y248789D01*
X394788Y248833D01*
X394783Y248838D01*
X394773Y248853D01*
X394753Y248873D01*
X394724Y248897D01*
X394689Y248922D01*
X394655Y248946D01*
X394611Y248966D01*
X394561Y248986D01*
X394556D01*
X394537Y248991D01*
X394502Y249001D01*
X394453Y249006D01*
X394384Y249015D01*
X394301Y249020D01*
X394202Y249025D01*
X394064D01*
X394045Y249030D01*
X394025Y249035D01*
X393976Y249055D01*
X393951Y249069D01*
X393927Y249089D01*
Y249094D01*
X393917Y249099D01*
X393912Y249114D01*
X393902Y249133D01*
X393882Y249178D01*
X393878Y249207D01*
X393873Y249237D01*
Y249242D01*
Y249252D01*
X393878Y249261D01*
X393882Y249281D01*
X393902Y249325D01*
X393917Y249350D01*
X393941Y249375D01*
X393946Y249379D01*
X393956Y249384D01*
X393971Y249394D01*
X393996Y249409D01*
X394020Y249419D01*
X394055Y249429D01*
X394094Y249434D01*
X394138Y249439D01*
X394256D01*
X394320Y249434D01*
X394488Y249419D01*
X394497D01*
X394512Y249424D01*
X394532Y249429D01*
X394566Y249439D01*
X394611Y249453D01*
X394665Y249473D01*
X394739Y249502D01*
X394743D01*
X394748Y249507D01*
X394773Y249517D01*
X394812Y249537D01*
X394862Y249566D01*
X394911Y249596D01*
X394965Y249635D01*
X395019Y249685D01*
X395068Y249734D01*
X395073Y249739D01*
X395088Y249758D01*
X395108Y249788D01*
X395132Y249827D01*
X395152Y249876D01*
X395171Y249935D01*
X395186Y249994D01*
X395191Y250063D01*
Y250068D01*
Y250073D01*
X395186Y250098D01*
X395181Y250137D01*
X395167Y250186D01*
X395147Y250245D01*
X395112Y250304D01*
X395068Y250363D01*
X395004Y250418D01*
X394994Y250423D01*
X394970Y250442D01*
X394930Y250467D01*
X394871Y250491D01*
X394802Y250521D01*
X394719Y250541D01*
X394620Y250560D01*
X394512Y250565D01*
X394463D01*
X394429Y250560D01*
X394384Y250555D01*
X394335Y250546D01*
X394276Y250536D01*
X394217Y250521D01*
X394153Y250501D01*
X394089Y250477D01*
X394020Y250447D01*
X393956Y250413D01*
X393892Y250368D01*
X393828Y250319D01*
X393769Y250265D01*
X393715Y250201D01*
X393710Y250196D01*
X393700Y250186D01*
X393686Y250167D01*
X393666Y250152D01*
X393636Y250132D01*
X393602Y250113D01*
X393568Y250103D01*
X393523Y250098D01*
X393509D01*
X393494Y250103D01*
X393469D01*
X393420Y250122D01*
X393395Y250132D01*
X393371Y250152D01*
Y250157D01*
X393361Y250162D01*
X393341Y250191D01*
X393322Y250236D01*
X393317Y250265D01*
X393312Y250300D01*
Y250304D01*
Y250309D01*
X393317Y250334D01*
X393331Y250378D01*
X393361Y250432D01*
X393381Y250467D01*
X393405Y250501D01*
X393435Y250536D01*
X393474Y250575D01*
X393518Y250614D01*
X393568Y250659D01*
X393627Y250698D01*
X393695Y250742D01*
X393700Y250747D01*
X393715Y250752D01*
X393735Y250762D01*
X393764Y250777D01*
X393799Y250796D01*
X393843Y250816D01*
X393892Y250836D01*
X393951Y250860D01*
X394010Y250880D01*
X394079Y250900D01*
X394227Y250939D01*
X394389Y250964D01*
X394478Y250974D01*
X394611D01*
X394645Y250969D01*
D02*
G37*
G36*
X334075Y320133D02*
X333545D01*
Y321182D01*
X334075D01*
Y320133D01*
D02*
G37*
G36*
Y323210D02*
Y323206D01*
Y323202D01*
Y323190D01*
Y323175D01*
Y323139D01*
Y323084D01*
X334071Y323025D01*
Y322955D01*
Y322876D01*
X334068Y322794D01*
X334060Y322621D01*
X334052Y322534D01*
X334044Y322448D01*
X334036Y322369D01*
X334028Y322294D01*
X334016Y322228D01*
X334005Y322173D01*
Y322169D01*
X334001Y322161D01*
X333997Y322145D01*
X333993Y322129D01*
X333985Y322106D01*
X333973Y322078D01*
X333950Y322019D01*
X333918Y321953D01*
X333879Y321886D01*
X333828Y321819D01*
X333773Y321760D01*
X333765Y321752D01*
X333745Y321736D01*
X333710Y321713D01*
X333667Y321685D01*
X333616Y321654D01*
X333553Y321626D01*
X333486Y321599D01*
X333411Y321583D01*
X333403D01*
X333388Y321579D01*
X333372D01*
X333348Y321575D01*
X333317Y321571D01*
X333282Y321567D01*
X333242Y321563D01*
X333191D01*
X333136Y321560D01*
X333073Y321555D01*
X333002Y321552D01*
X332924D01*
X332838Y321548D01*
X331077D01*
X331026Y321552D01*
X330971D01*
X330912Y321555D01*
X330790Y321560D01*
X330668Y321571D01*
X330613Y321575D01*
X330562Y321583D01*
X330515Y321595D01*
X330475Y321603D01*
X330472D01*
X330468Y321607D01*
X330444Y321615D01*
X330413Y321626D01*
X330369Y321646D01*
X330322Y321670D01*
X330275Y321701D01*
X330228Y321740D01*
X330185Y321783D01*
X330181Y321787D01*
X330169Y321807D01*
X330149Y321835D01*
X330130Y321870D01*
X330106Y321917D01*
X330079Y321968D01*
X330059Y322031D01*
X330039Y322098D01*
Y322102D01*
Y322106D01*
X330035Y322117D01*
X330031Y322133D01*
Y322153D01*
X330028Y322177D01*
X330024Y322208D01*
X330020Y322239D01*
X330016Y322279D01*
X330012Y322318D01*
X330008Y322365D01*
Y322416D01*
X330004Y322475D01*
X330000Y322534D01*
Y322597D01*
Y322668D01*
Y324000D01*
X334075D01*
Y323210D01*
D02*
G37*
G36*
X389277Y249621D02*
X389356Y249611D01*
X389435Y249591D01*
X389440D01*
X389454Y249586D01*
X389469Y249576D01*
X389494Y249566D01*
X389548Y249537D01*
X389602Y249498D01*
X389607Y249493D01*
X389612Y249488D01*
X389641Y249458D01*
X389671Y249414D01*
X389700Y249355D01*
Y249350D01*
X389705Y249340D01*
X389710Y249325D01*
X389720Y249306D01*
X389730Y249247D01*
X389735Y249178D01*
Y249173D01*
Y249163D01*
Y249148D01*
Y249129D01*
X389725Y249079D01*
X389715Y249025D01*
Y249020D01*
X389710Y249001D01*
X389700Y248976D01*
X389686Y248946D01*
X389671Y248907D01*
X389646Y248868D01*
X389622Y248828D01*
X389587Y248789D01*
X389582Y248784D01*
X389573Y248774D01*
X389553Y248755D01*
X389528Y248730D01*
X389499Y248700D01*
X389459Y248671D01*
X389376Y248612D01*
X389371Y248607D01*
X389356Y248602D01*
X389331Y248587D01*
X389297Y248568D01*
X389258Y248548D01*
X389213Y248528D01*
X389110Y248489D01*
X389105D01*
X389085Y248479D01*
X389056Y248469D01*
X389021Y248459D01*
X388977Y248445D01*
X388928Y248435D01*
X388820Y248405D01*
X388815D01*
X388795Y248400D01*
X388766Y248395D01*
X388731Y248386D01*
X388692Y248376D01*
X388643Y248366D01*
X388544Y248351D01*
X388525D01*
X388495Y248346D01*
X388465Y248341D01*
X388392Y248336D01*
X388313Y248327D01*
X388308Y248322D01*
X388303Y248297D01*
X388288Y248263D01*
X388274Y248218D01*
Y248213D01*
Y248208D01*
X388269Y248179D01*
X388264Y248140D01*
X388259Y248090D01*
Y248085D01*
Y248066D01*
X388264Y248041D01*
X388274Y248012D01*
X388283Y247977D01*
X388303Y247943D01*
X388333Y247908D01*
X388367Y247874D01*
X388372Y247869D01*
X388387Y247864D01*
X388411Y247849D01*
X388446Y247839D01*
X388490Y247825D01*
X388544Y247810D01*
X388603Y247805D01*
X388672Y247800D01*
X388712D01*
X388741Y247805D01*
X388810Y247810D01*
X388889Y247825D01*
X388894D01*
X388908Y247830D01*
X388928Y247835D01*
X388953Y247844D01*
X389012Y247864D01*
X389081Y247889D01*
X389085D01*
X389095Y247894D01*
X389115Y247903D01*
X389140Y247913D01*
X389194Y247943D01*
X389253Y247972D01*
X389258D01*
X389267Y247982D01*
X389282Y247992D01*
X389302Y248002D01*
X389351Y248031D01*
X389400Y248066D01*
X389405Y248071D01*
X389415Y248076D01*
X389435Y248085D01*
X389454Y248100D01*
X389509Y248135D01*
X389563Y248164D01*
X389568D01*
X389577Y248169D01*
X389592Y248179D01*
X389612Y248184D01*
X389656Y248199D01*
X389705Y248204D01*
X389715D01*
X389735Y248199D01*
X389759Y248194D01*
X389779Y248174D01*
X389784Y248169D01*
X389789Y248154D01*
X389794Y248135D01*
Y248110D01*
Y248105D01*
Y248100D01*
Y248071D01*
Y248061D01*
Y248046D01*
Y248041D01*
X389789Y248036D01*
X389784Y248007D01*
X389769Y247967D01*
X389745Y247918D01*
Y247913D01*
X389740Y247908D01*
X389720Y247884D01*
X389691Y247849D01*
X389651Y247815D01*
X389646D01*
X389641Y247805D01*
X389627Y247795D01*
X389607Y247785D01*
X389558Y247746D01*
X389494Y247707D01*
X389420Y247662D01*
X389331Y247613D01*
X389243Y247569D01*
X389144Y247534D01*
X389140D01*
X389135Y247530D01*
X389120D01*
X389100Y247525D01*
X389046Y247510D01*
X388977Y247495D01*
X388894Y247480D01*
X388800Y247470D01*
X388697Y247461D01*
X388589Y247456D01*
X388549D01*
X388505Y247461D01*
X388451Y247466D01*
X388436D01*
X388421Y247470D01*
X388402D01*
X388352Y247480D01*
X388293Y247490D01*
X388288D01*
X388279Y247495D01*
X388264D01*
X388239Y247505D01*
X388190Y247520D01*
X388126Y247544D01*
X388121D01*
X388111Y247554D01*
X388096Y247564D01*
X388077Y247574D01*
X388033Y247608D01*
X387983Y247653D01*
X387978Y247657D01*
X387973Y247667D01*
X387959Y247682D01*
X387949Y247702D01*
X387914Y247751D01*
X387880Y247820D01*
Y247825D01*
X387875Y247839D01*
X387870Y247859D01*
X387860Y247889D01*
X387855Y247923D01*
X387846Y247962D01*
X387841Y248007D01*
Y248056D01*
Y248061D01*
Y248076D01*
Y248100D01*
X387846Y248130D01*
Y248169D01*
X387855Y248208D01*
X387870Y248307D01*
X387865D01*
X387850Y248312D01*
X387831Y248322D01*
X387811Y248336D01*
X387806Y248341D01*
X387801Y248356D01*
X387791Y248386D01*
X387787Y248420D01*
Y248425D01*
Y248440D01*
X387791Y248454D01*
Y248479D01*
X387811Y248538D01*
X387821Y248568D01*
X387841Y248592D01*
X387846Y248597D01*
X387850Y248602D01*
X387880Y248632D01*
X387924Y248661D01*
X387954Y248676D01*
X387983Y248686D01*
Y248691D01*
X387988Y248696D01*
X388003Y248725D01*
X388033Y248769D01*
X388067Y248828D01*
X388072Y248833D01*
X388077Y248843D01*
X388087Y248863D01*
X388106Y248887D01*
X388146Y248946D01*
X388200Y249020D01*
X388205Y249025D01*
X388215Y249040D01*
X388234Y249060D01*
X388254Y249089D01*
X388313Y249153D01*
X388387Y249232D01*
X388392Y249237D01*
X388406Y249252D01*
X388426Y249271D01*
X388456Y249296D01*
X388485Y249325D01*
X388525Y249360D01*
X388613Y249429D01*
X388618Y249434D01*
X388638Y249443D01*
X388662Y249458D01*
X388697Y249478D01*
X388736Y249502D01*
X388780Y249527D01*
X388884Y249571D01*
X388889Y249576D01*
X388908Y249581D01*
X388938Y249591D01*
X388977Y249601D01*
X389026Y249611D01*
X389076Y249616D01*
X389135Y249625D01*
X389243D01*
X389277Y249621D01*
D02*
G37*
G36*
X327334Y308065D02*
X327356D01*
X327407Y308048D01*
X327433Y308039D01*
X327455Y308022D01*
X327459Y308018D01*
X327463Y308013D01*
X327489Y307987D01*
X327515Y307949D01*
X327528Y307923D01*
X327536Y307897D01*
X327541D01*
X327545Y307893D01*
X327571Y307880D01*
X327609Y307854D01*
X327661Y307824D01*
X327665Y307820D01*
X327674Y307816D01*
X327691Y307807D01*
X327713Y307790D01*
X327764Y307755D01*
X327829Y307708D01*
X327833Y307704D01*
X327846Y307695D01*
X327863Y307678D01*
X327889Y307661D01*
X327945Y307609D01*
X328014Y307545D01*
X328018Y307540D01*
X328031Y307527D01*
X328048Y307510D01*
X328069Y307484D01*
X328095Y307459D01*
X328125Y307424D01*
X328186Y307347D01*
X328190Y307343D01*
X328199Y307325D01*
X328211Y307304D01*
X328229Y307274D01*
X328250Y307239D01*
X328272Y307201D01*
X328310Y307110D01*
X328315Y307106D01*
X328319Y307089D01*
X328327Y307063D01*
X328336Y307029D01*
X328345Y306986D01*
X328349Y306943D01*
X328358Y306891D01*
Y306839D01*
Y306835D01*
Y306818D01*
Y306796D01*
X328353Y306766D01*
X328345Y306698D01*
X328327Y306629D01*
Y306624D01*
X328323Y306611D01*
X328315Y306599D01*
X328306Y306577D01*
X328280Y306530D01*
X328246Y306483D01*
X328241Y306478D01*
X328237Y306474D01*
X328211Y306448D01*
X328173Y306422D01*
X328121Y306397D01*
X328117D01*
X328108Y306392D01*
X328095Y306388D01*
X328078Y306379D01*
X328027Y306371D01*
X327966Y306366D01*
X327923D01*
X327880Y306375D01*
X327833Y306384D01*
X327829D01*
X327812Y306388D01*
X327790Y306397D01*
X327764Y306409D01*
X327730Y306422D01*
X327695Y306444D01*
X327661Y306465D01*
X327627Y306495D01*
X327622Y306500D01*
X327614Y306508D01*
X327596Y306525D01*
X327575Y306547D01*
X327549Y306573D01*
X327523Y306607D01*
X327472Y306680D01*
X327467Y306685D01*
X327463Y306698D01*
X327450Y306719D01*
X327433Y306749D01*
X327416Y306784D01*
X327399Y306822D01*
X327364Y306912D01*
Y306917D01*
X327356Y306934D01*
X327347Y306960D01*
X327339Y306990D01*
X327326Y307029D01*
X327317Y307072D01*
X327291Y307166D01*
Y307171D01*
X327287Y307188D01*
X327283Y307213D01*
X327274Y307244D01*
X327265Y307278D01*
X327257Y307321D01*
X327244Y307407D01*
Y307411D01*
Y307424D01*
X327240Y307450D01*
X327235Y307476D01*
X327231Y307540D01*
X327222Y307609D01*
X327218Y307613D01*
X327197Y307618D01*
X327167Y307631D01*
X327128Y307644D01*
X327119D01*
X327093Y307648D01*
X327059Y307652D01*
X327016Y307656D01*
X326994D01*
X326973Y307652D01*
X326947Y307644D01*
X326917Y307635D01*
X326887Y307618D01*
X326857Y307592D01*
X326827Y307562D01*
X326822Y307558D01*
X326818Y307545D01*
X326805Y307523D01*
X326797Y307493D01*
X326784Y307454D01*
X326771Y307407D01*
X326767Y307355D01*
X326762Y307295D01*
Y307291D01*
Y307278D01*
Y307261D01*
X326767Y307235D01*
X326771Y307175D01*
X326784Y307106D01*
Y307102D01*
X326788Y307089D01*
X326792Y307072D01*
X326801Y307050D01*
X326818Y306998D01*
X326840Y306938D01*
Y306934D01*
X326844Y306925D01*
X326853Y306908D01*
X326861Y306887D01*
X326887Y306839D01*
X326913Y306788D01*
Y306784D01*
X326921Y306775D01*
X326930Y306762D01*
X326939Y306745D01*
X326964Y306702D01*
X326994Y306659D01*
X326999Y306655D01*
X327003Y306646D01*
X327012Y306629D01*
X327025Y306611D01*
X327055Y306564D01*
X327080Y306517D01*
Y306513D01*
X327085Y306504D01*
X327093Y306491D01*
X327098Y306474D01*
X327111Y306435D01*
X327115Y306392D01*
Y306388D01*
Y306384D01*
X327111Y306366D01*
X327106Y306345D01*
X327089Y306328D01*
X327085Y306323D01*
X327072Y306319D01*
X327055Y306315D01*
X326973D01*
X326969Y306319D01*
X326943Y306323D01*
X326908Y306336D01*
X326866Y306358D01*
X326861D01*
X326857Y306362D01*
X326835Y306379D01*
X326805Y306405D01*
X326775Y306439D01*
Y306444D01*
X326767Y306448D01*
X326758Y306461D01*
X326749Y306478D01*
X326715Y306521D01*
X326681Y306577D01*
X326642Y306642D01*
X326599Y306719D01*
X326560Y306796D01*
X326530Y306882D01*
Y306887D01*
X326526Y306891D01*
Y306904D01*
X326521Y306921D01*
X326509Y306968D01*
X326496Y307029D01*
X326483Y307102D01*
X326474Y307183D01*
X326466Y307274D01*
X326461Y307368D01*
Y307373D01*
Y307377D01*
Y307403D01*
X326466Y307441D01*
X326470Y307489D01*
Y307493D01*
Y307502D01*
X326474Y307515D01*
Y307532D01*
X326483Y307575D01*
X326491Y307626D01*
Y307631D01*
X326496Y307639D01*
Y307652D01*
X326504Y307674D01*
X326517Y307717D01*
X326539Y307772D01*
Y307777D01*
X326547Y307785D01*
X326556Y307798D01*
X326565Y307816D01*
X326595Y307854D01*
X326633Y307897D01*
X326638Y307902D01*
X326646Y307906D01*
X326659Y307919D01*
X326676Y307927D01*
X326719Y307957D01*
X326780Y307987D01*
X326784D01*
X326797Y307992D01*
X326814Y307996D01*
X326840Y308005D01*
X326870Y308009D01*
X326904Y308018D01*
X326943Y308022D01*
X327025D01*
X327050Y308018D01*
X327085D01*
X327119Y308009D01*
X327205Y307996D01*
Y308000D01*
X327209Y308013D01*
X327218Y308031D01*
X327231Y308048D01*
X327235Y308052D01*
X327248Y308056D01*
X327274Y308065D01*
X327304Y308069D01*
X327321D01*
X327334Y308065D01*
D02*
G37*
G36*
X326616Y311711D02*
X326638Y311707D01*
X326642D01*
X326651Y311703D01*
X326663Y311698D01*
X326681Y311694D01*
X326724Y311685D01*
X326784Y311668D01*
X326853Y311651D01*
X326930Y311630D01*
X327089Y311587D01*
X327093D01*
X327098Y311582D01*
X327123Y311578D01*
X327167Y311565D01*
X327218Y311548D01*
X327283Y311531D01*
X327347Y311513D01*
X327493Y311475D01*
X327498D01*
X327502Y311471D01*
X327528Y311466D01*
X327562Y311453D01*
X327614Y311440D01*
X327670Y311423D01*
X327734Y311406D01*
X327867Y311367D01*
X327876Y311363D01*
X327898Y311359D01*
X327936Y311346D01*
X327983Y311333D01*
X328035Y311316D01*
X328100Y311298D01*
X328168Y311281D01*
X328237Y311264D01*
X328241D01*
X328250Y311260D01*
X328263D01*
X328280Y311256D01*
X328327Y311247D01*
X328375Y311243D01*
X328388D01*
X328401Y311238D01*
X328418D01*
X328465Y311230D01*
X328517Y311221D01*
X328521D01*
X328534Y311217D01*
X328547Y311208D01*
X328560Y311195D01*
X328564Y311191D01*
X328573Y311178D01*
X328586Y311161D01*
X328594Y311144D01*
X328598Y311139D01*
X328603Y311126D01*
X328611Y311109D01*
X328620Y311088D01*
Y311084D01*
X328624Y311071D01*
X328628Y311049D01*
Y311028D01*
Y311023D01*
Y311019D01*
Y310993D01*
X328624Y310963D01*
X328616Y310933D01*
X328611Y310924D01*
X328607Y310911D01*
X328594Y310890D01*
X328577Y310873D01*
X328573Y310869D01*
X328564Y310860D01*
X328542Y310847D01*
X328521Y310838D01*
X328517Y310834D01*
X328500Y310830D01*
X328478Y310825D01*
X328426D01*
X328405Y310830D01*
X328362Y310834D01*
X328306Y310851D01*
X328302D01*
X328293Y310856D01*
X328280Y310860D01*
X328263Y310864D01*
X328211Y310886D01*
X328151Y310907D01*
X328155Y310903D01*
X328164Y310890D01*
X328181Y310869D01*
X328199Y310843D01*
X328220Y310813D01*
X328246Y310778D01*
X328297Y310705D01*
X328302Y310701D01*
X328310Y310688D01*
X328323Y310666D01*
X328340Y310641D01*
X328358Y310606D01*
X328379Y310572D01*
X328418Y310494D01*
X328422Y310490D01*
X328426Y310473D01*
X328435Y310451D01*
X328448Y310426D01*
X328461Y310391D01*
X328474Y310352D01*
X328500Y310271D01*
Y310266D01*
X328504Y310249D01*
X328512Y310228D01*
X328517Y310198D01*
X328525Y310159D01*
X328530Y310120D01*
X328534Y310030D01*
Y310026D01*
Y310021D01*
X328530Y309996D01*
X328525Y309961D01*
X328512Y309918D01*
Y309914D01*
X328508Y309910D01*
X328500Y309884D01*
X328482Y309854D01*
X328456Y309819D01*
Y309815D01*
X328452Y309811D01*
X328431Y309793D01*
X328401Y309768D01*
X328362Y309742D01*
X328358D01*
X328353Y309738D01*
X328340Y309733D01*
X328323Y309725D01*
X328276Y309716D01*
X328216Y309707D01*
X328220Y309703D01*
X328224Y309690D01*
X328237Y309673D01*
X328254Y309652D01*
X328272Y309622D01*
X328293Y309591D01*
X328336Y309523D01*
X328340Y309518D01*
X328345Y309505D01*
X328358Y309488D01*
X328370Y309462D01*
X328388Y309432D01*
X328405Y309402D01*
X328444Y309329D01*
X328448Y309325D01*
X328452Y309312D01*
X328461Y309290D01*
X328474Y309265D01*
X328487Y309234D01*
X328500Y309200D01*
X328525Y309127D01*
Y309123D01*
X328530Y309110D01*
X328534Y309093D01*
X328542Y309067D01*
X328551Y309007D01*
X328555Y308938D01*
Y308933D01*
Y308912D01*
Y308886D01*
X328551Y308856D01*
X328538Y308779D01*
X328530Y308740D01*
X328517Y308706D01*
Y308701D01*
X328512Y308688D01*
X328504Y308676D01*
X328491Y308654D01*
X328461Y308607D01*
X328418Y308564D01*
X328414Y308559D01*
X328409Y308555D01*
X328396Y308546D01*
X328379Y308534D01*
X328332Y308508D01*
X328276Y308486D01*
X328272D01*
X328263Y308482D01*
X328246Y308478D01*
X328224Y308473D01*
X328199D01*
X328173Y308469D01*
X328104Y308465D01*
X328065D01*
X328039Y308469D01*
X328009D01*
X327975Y308473D01*
X327898Y308486D01*
X327893D01*
X327880Y308491D01*
X327859D01*
X327833Y308499D01*
X327803Y308504D01*
X327768Y308508D01*
X327695Y308525D01*
X327691D01*
X327687Y308529D01*
X327674D01*
X327657Y308534D01*
X327609Y308546D01*
X327549Y308564D01*
X327480Y308585D01*
X327403Y308607D01*
X327240Y308663D01*
X327235D01*
X327231Y308667D01*
X327218Y308671D01*
X327201Y308676D01*
X327158Y308688D01*
X327106Y308710D01*
X327038Y308731D01*
X326964Y308762D01*
X326883Y308792D01*
X326801Y308822D01*
X326797D01*
X326792Y308826D01*
X326767Y308835D01*
X326732Y308852D01*
X326689Y308869D01*
X326685D01*
X326681Y308873D01*
X326655Y308882D01*
X326620Y308899D01*
X326582Y308921D01*
X326573Y308925D01*
X326556Y308942D01*
X326530Y308964D01*
X326504Y308994D01*
X326500Y309002D01*
X326491Y309019D01*
X326479Y309050D01*
X326474Y309088D01*
Y309093D01*
Y309110D01*
X326479Y309127D01*
Y309153D01*
X326491Y309209D01*
X326500Y309234D01*
X326513Y309256D01*
X326521Y309265D01*
X326543Y309278D01*
X326582Y309290D01*
X326633Y309299D01*
X326681D01*
X326694Y309295D01*
X326711D01*
X326732Y309290D01*
X326736D01*
X326754Y309282D01*
X326784Y309269D01*
X326822Y309252D01*
X326827D01*
X326831Y309247D01*
X326844Y309239D01*
X326861Y309230D01*
X326904Y309213D01*
X326952Y309187D01*
X326956D01*
X326964Y309183D01*
X326977Y309174D01*
X326994Y309166D01*
X327038Y309144D01*
X327089Y309123D01*
X327093D01*
X327102Y309118D01*
X327115Y309110D01*
X327132Y309101D01*
X327171Y309088D01*
X327209Y309071D01*
X327214D01*
X327227Y309067D01*
X327244Y309058D01*
X327270Y309050D01*
X327300Y309041D01*
X327334Y309032D01*
X327416Y309007D01*
X327420D01*
X327437Y308998D01*
X327459Y308994D01*
X327493Y308985D01*
X327528Y308972D01*
X327566Y308959D01*
X327657Y308938D01*
X327661D01*
X327678Y308933D01*
X327700Y308925D01*
X327730Y308916D01*
X327764Y308908D01*
X327803Y308899D01*
X327885Y308882D01*
X327889D01*
X327902Y308878D01*
X327923Y308873D01*
X327945Y308869D01*
X328001Y308865D01*
X328057Y308860D01*
X328074D01*
X328095Y308865D01*
X328117Y308869D01*
X328121D01*
X328138Y308873D01*
X328155Y308878D01*
X328173Y308891D01*
X328177Y308895D01*
X328186Y308899D01*
X328199Y308912D01*
X328211Y308933D01*
X328216Y308938D01*
X328220Y308951D01*
X328224Y308972D01*
Y309002D01*
Y309007D01*
Y309015D01*
Y309028D01*
X328220Y309045D01*
X328211Y309093D01*
X328190Y309153D01*
Y309157D01*
X328186Y309166D01*
X328177Y309183D01*
X328164Y309209D01*
X328151Y309234D01*
X328134Y309265D01*
X328095Y309333D01*
X328091Y309338D01*
X328087Y309351D01*
X328074Y309368D01*
X328057Y309389D01*
X328018Y309450D01*
X327966Y309514D01*
X327962Y309518D01*
X327953Y309527D01*
X327941Y309544D01*
X327923Y309566D01*
X327876Y309613D01*
X327824Y309660D01*
X327816Y309669D01*
X327799Y309690D01*
X327768Y309716D01*
X327743Y309746D01*
X327738Y309755D01*
X327726Y309772D01*
X327708Y309793D01*
X327695Y309824D01*
X327687Y309828D01*
X327670Y309832D01*
X327640Y309845D01*
X327631Y309849D01*
X327609Y309858D01*
X327575Y309871D01*
X327528Y309888D01*
X327523D01*
X327515Y309892D01*
X327502Y309897D01*
X327485Y309901D01*
X327442Y309918D01*
X327386Y309935D01*
X327381D01*
X327373Y309940D01*
X327360Y309944D01*
X327343Y309948D01*
X327295Y309961D01*
X327244Y309978D01*
X327240D01*
X327235Y309983D01*
X327205Y309991D01*
X327171Y310004D01*
X327132Y310017D01*
X327123D01*
X327111Y310021D01*
X327093Y310026D01*
X327085Y310030D01*
X327080D01*
X327076Y310034D01*
X327050Y310039D01*
X327012Y310047D01*
X326964Y310056D01*
X326956D01*
X326926Y310060D01*
X326891Y310064D01*
X326848Y310073D01*
X326840D01*
X326814Y310077D01*
X326775Y310082D01*
X326728Y310090D01*
X326715D01*
X326706Y310094D01*
X326689Y310099D01*
X326651Y310107D01*
X326607Y310120D01*
X326599Y310125D01*
X326577Y310138D01*
X326552Y310159D01*
X326521Y310189D01*
X326517Y310198D01*
X326504Y310219D01*
X326491Y310258D01*
X326487Y310314D01*
Y310318D01*
X326491Y310335D01*
X326496Y310361D01*
X326504Y310387D01*
X326509Y310391D01*
X326517Y310408D01*
X326534Y310426D01*
X326556Y310447D01*
X326560Y310451D01*
X326577Y310460D01*
X326603Y310477D01*
X326629Y310490D01*
X326638D01*
X326655Y310494D01*
X326681Y310499D01*
X326711Y310503D01*
X326715D01*
X326719Y310499D01*
X326741Y310494D01*
X326780Y310486D01*
X326822Y310473D01*
X326878Y310460D01*
X326934Y310443D01*
X327050Y310413D01*
X327059Y310408D01*
X327076Y310404D01*
X327106Y310396D01*
X327145Y310383D01*
X327188Y310370D01*
X327235Y310352D01*
X327339Y310318D01*
X327343Y310314D01*
X327364Y310310D01*
X327390Y310301D01*
X327425Y310288D01*
X327467Y310275D01*
X327515Y310262D01*
X327614Y310232D01*
X327618D01*
X327640Y310224D01*
X327665Y310215D01*
X327704Y310206D01*
X327747Y310193D01*
X327799Y310176D01*
X327859Y310163D01*
X327919Y310146D01*
X327928Y310142D01*
X327945Y310138D01*
X327966Y310133D01*
X327996Y310129D01*
X328005D01*
X328018Y310125D01*
X328044Y310120D01*
X328074D01*
X328095Y310125D01*
X328121Y310129D01*
X328147Y310142D01*
X328151Y310146D01*
X328164Y310159D01*
X328177Y310180D01*
X328181Y310215D01*
Y310219D01*
Y310228D01*
Y310245D01*
X328177Y310266D01*
X328168Y310322D01*
X328147Y310387D01*
Y310391D01*
X328143Y310400D01*
X328134Y310417D01*
X328121Y310438D01*
X328104Y310469D01*
X328087Y310499D01*
X328039Y310567D01*
X328035Y310572D01*
X328027Y310585D01*
X328009Y310606D01*
X327988Y310632D01*
X327962Y310666D01*
X327928Y310701D01*
X327893Y310744D01*
X327850Y310787D01*
X327846Y310791D01*
X327829Y310808D01*
X327807Y310834D01*
X327777Y310864D01*
X327734Y310907D01*
X327691Y310954D01*
X327640Y311006D01*
X327584Y311062D01*
X327579Y311066D01*
X327558Y311075D01*
X327541Y311079D01*
X327523Y311088D01*
X327498Y311096D01*
X327467Y311109D01*
X327463D01*
X327455Y311114D01*
X327433Y311118D01*
X327412Y311126D01*
X327386Y311135D01*
X327351Y311144D01*
X327283Y311165D01*
X327278D01*
X327265Y311170D01*
X327248Y311174D01*
X327227Y311182D01*
X327167Y311195D01*
X327106Y311212D01*
X327102D01*
X327093Y311217D01*
X327080Y311221D01*
X327063Y311225D01*
X327025Y311234D01*
X327012Y311238D01*
X326999Y311243D01*
X326994D01*
X326986Y311247D01*
X326969Y311251D01*
X326947Y311256D01*
X326900Y311264D01*
X326853Y311273D01*
X326844D01*
X326818Y311277D01*
X326784Y311281D01*
X326745Y311290D01*
X326724D01*
X326698Y311294D01*
X326659Y311298D01*
X326651D01*
X326625Y311307D01*
X326590Y311316D01*
X326547Y311333D01*
X326543D01*
X326539Y311337D01*
X326513Y311350D01*
X326483Y311367D01*
X326448Y311393D01*
X326440Y311402D01*
X326427Y311419D01*
X326410Y311453D01*
X326405Y311475D01*
X326401Y311496D01*
Y311501D01*
Y311513D01*
X326405Y311531D01*
X326410Y311552D01*
X326423Y311604D01*
X326435Y311630D01*
X326453Y311655D01*
X326457Y311660D01*
X326461Y311664D01*
X326487Y311685D01*
X326526Y311707D01*
X326552Y311711D01*
X326582Y311716D01*
X326612D01*
X326616Y311711D01*
D02*
G37*
G36*
X327334Y313844D02*
X327356D01*
X327407Y313827D01*
X327433Y313818D01*
X327455Y313801D01*
X327459Y313797D01*
X327463Y313792D01*
X327489Y313767D01*
X327515Y313728D01*
X327528Y313702D01*
X327536Y313676D01*
X327541D01*
X327545Y313672D01*
X327571Y313659D01*
X327609Y313633D01*
X327661Y313603D01*
X327665Y313599D01*
X327674Y313595D01*
X327691Y313586D01*
X327713Y313569D01*
X327764Y313534D01*
X327829Y313487D01*
X327833Y313483D01*
X327846Y313474D01*
X327863Y313457D01*
X327889Y313440D01*
X327945Y313388D01*
X328014Y313324D01*
X328018Y313319D01*
X328031Y313307D01*
X328048Y313289D01*
X328069Y313264D01*
X328095Y313238D01*
X328125Y313203D01*
X328186Y313126D01*
X328190Y313122D01*
X328199Y313105D01*
X328211Y313083D01*
X328229Y313053D01*
X328250Y313018D01*
X328272Y312980D01*
X328310Y312890D01*
X328315Y312885D01*
X328319Y312868D01*
X328327Y312842D01*
X328336Y312808D01*
X328345Y312765D01*
X328349Y312722D01*
X328358Y312670D01*
Y312619D01*
Y312614D01*
Y312597D01*
Y312576D01*
X328353Y312545D01*
X328345Y312477D01*
X328327Y312408D01*
Y312404D01*
X328323Y312391D01*
X328315Y312378D01*
X328306Y312356D01*
X328280Y312309D01*
X328246Y312262D01*
X328241Y312257D01*
X328237Y312253D01*
X328211Y312227D01*
X328173Y312201D01*
X328121Y312176D01*
X328117D01*
X328108Y312171D01*
X328095Y312167D01*
X328078Y312158D01*
X328027Y312150D01*
X327966Y312146D01*
X327923D01*
X327880Y312154D01*
X327833Y312163D01*
X327829D01*
X327812Y312167D01*
X327790Y312176D01*
X327764Y312189D01*
X327730Y312201D01*
X327695Y312223D01*
X327661Y312245D01*
X327627Y312275D01*
X327622Y312279D01*
X327614Y312287D01*
X327596Y312305D01*
X327575Y312326D01*
X327549Y312352D01*
X327523Y312386D01*
X327472Y312459D01*
X327467Y312464D01*
X327463Y312477D01*
X327450Y312498D01*
X327433Y312528D01*
X327416Y312563D01*
X327399Y312601D01*
X327364Y312692D01*
Y312696D01*
X327356Y312713D01*
X327347Y312739D01*
X327339Y312769D01*
X327326Y312808D01*
X327317Y312851D01*
X327291Y312945D01*
Y312950D01*
X327287Y312967D01*
X327283Y312993D01*
X327274Y313023D01*
X327265Y313057D01*
X327257Y313100D01*
X327244Y313186D01*
Y313191D01*
Y313203D01*
X327240Y313229D01*
X327235Y313255D01*
X327231Y313319D01*
X327222Y313388D01*
X327218Y313393D01*
X327197Y313397D01*
X327167Y313410D01*
X327128Y313423D01*
X327119D01*
X327093Y313427D01*
X327059Y313431D01*
X327016Y313436D01*
X326994D01*
X326973Y313431D01*
X326947Y313423D01*
X326917Y313414D01*
X326887Y313397D01*
X326857Y313371D01*
X326827Y313341D01*
X326822Y313337D01*
X326818Y313324D01*
X326805Y313302D01*
X326797Y313272D01*
X326784Y313233D01*
X326771Y313186D01*
X326767Y313135D01*
X326762Y313074D01*
Y313070D01*
Y313057D01*
Y313040D01*
X326767Y313014D01*
X326771Y312954D01*
X326784Y312885D01*
Y312881D01*
X326788Y312868D01*
X326792Y312851D01*
X326801Y312829D01*
X326818Y312778D01*
X326840Y312718D01*
Y312713D01*
X326844Y312705D01*
X326853Y312687D01*
X326861Y312666D01*
X326887Y312619D01*
X326913Y312567D01*
Y312563D01*
X326921Y312554D01*
X326930Y312541D01*
X326939Y312524D01*
X326964Y312481D01*
X326994Y312438D01*
X326999Y312434D01*
X327003Y312425D01*
X327012Y312408D01*
X327025Y312391D01*
X327055Y312343D01*
X327080Y312296D01*
Y312292D01*
X327085Y312283D01*
X327093Y312270D01*
X327098Y312253D01*
X327111Y312214D01*
X327115Y312171D01*
Y312167D01*
Y312163D01*
X327111Y312146D01*
X327106Y312124D01*
X327089Y312107D01*
X327085Y312103D01*
X327072Y312098D01*
X327055Y312094D01*
X326973D01*
X326969Y312098D01*
X326943Y312103D01*
X326908Y312116D01*
X326866Y312137D01*
X326861D01*
X326857Y312141D01*
X326835Y312158D01*
X326805Y312184D01*
X326775Y312219D01*
Y312223D01*
X326767Y312227D01*
X326758Y312240D01*
X326749Y312257D01*
X326715Y312300D01*
X326681Y312356D01*
X326642Y312421D01*
X326599Y312498D01*
X326560Y312576D01*
X326530Y312662D01*
Y312666D01*
X326526Y312670D01*
Y312683D01*
X326521Y312700D01*
X326509Y312748D01*
X326496Y312808D01*
X326483Y312881D01*
X326474Y312963D01*
X326466Y313053D01*
X326461Y313147D01*
Y313152D01*
Y313156D01*
Y313182D01*
X326466Y313221D01*
X326470Y313268D01*
Y313272D01*
Y313281D01*
X326474Y313294D01*
Y313311D01*
X326483Y313354D01*
X326491Y313405D01*
Y313410D01*
X326496Y313418D01*
Y313431D01*
X326504Y313453D01*
X326517Y313496D01*
X326539Y313552D01*
Y313556D01*
X326547Y313565D01*
X326556Y313578D01*
X326565Y313595D01*
X326595Y313633D01*
X326633Y313676D01*
X326638Y313681D01*
X326646Y313685D01*
X326659Y313698D01*
X326676Y313706D01*
X326719Y313737D01*
X326780Y313767D01*
X326784D01*
X326797Y313771D01*
X326814Y313775D01*
X326840Y313784D01*
X326870Y313788D01*
X326904Y313797D01*
X326943Y313801D01*
X327025D01*
X327050Y313797D01*
X327085D01*
X327119Y313788D01*
X327205Y313775D01*
Y313780D01*
X327209Y313792D01*
X327218Y313810D01*
X327231Y313827D01*
X327235Y313831D01*
X327248Y313836D01*
X327274Y313844D01*
X327304Y313848D01*
X327321D01*
X327334Y313844D01*
D02*
G37*
G36*
X417164Y272519D02*
X417188Y272514D01*
X417193D01*
X417208Y272504D01*
X417247Y272485D01*
X417252Y272480D01*
X417262Y272470D01*
X417287Y272445D01*
X417291Y272440D01*
X417296Y272435D01*
X417306Y272411D01*
Y272406D01*
X417311Y272401D01*
X417316Y272372D01*
X417326Y272332D01*
X417341Y272278D01*
Y272273D01*
X417346Y272263D01*
Y272249D01*
X417351Y272229D01*
X417370Y272175D01*
X417390Y272111D01*
Y272106D01*
X417395Y272096D01*
X417405Y272076D01*
X417410Y272052D01*
X417439Y271993D01*
X417474Y271919D01*
Y271914D01*
X417483Y271899D01*
X417493Y271880D01*
X417508Y271855D01*
X417552Y271786D01*
X417606Y271712D01*
X417611Y271707D01*
X417621Y271693D01*
X417641Y271673D01*
X417661Y271643D01*
X417690Y271609D01*
X417725Y271570D01*
X417803Y271486D01*
X417808Y271481D01*
X417823Y271466D01*
X417847Y271442D01*
X417877Y271412D01*
X417911Y271378D01*
X417956Y271338D01*
X418005Y271299D01*
X418059Y271260D01*
X418064Y271255D01*
X418084Y271240D01*
X418118Y271220D01*
X418157Y271191D01*
X418207Y271161D01*
X418266Y271127D01*
X418330Y271087D01*
X418399Y271053D01*
X418408Y271048D01*
X418433Y271038D01*
X418472Y271019D01*
X418526Y270994D01*
X418590Y270969D01*
X418664Y270945D01*
X418748Y270920D01*
X418836Y270896D01*
X418827Y270905D01*
X418802Y270925D01*
X418767Y270959D01*
X418723Y270999D01*
X418718Y271004D01*
X418713Y271009D01*
X418684Y271038D01*
X418645Y271078D01*
X418595Y271127D01*
X418590Y271132D01*
X418585Y271137D01*
X418556Y271166D01*
X418517Y271210D01*
X418467Y271265D01*
X418463Y271269D01*
X418458Y271274D01*
X418448Y271289D01*
X418433Y271309D01*
X418399Y271353D01*
X418359Y271407D01*
Y271412D01*
X418349Y271417D01*
X418330Y271451D01*
X418305Y271496D01*
X418280Y271545D01*
Y271550D01*
X418275Y271555D01*
X418266Y271584D01*
X418256Y271629D01*
X418251Y271673D01*
Y271678D01*
Y271697D01*
X418256Y271727D01*
X418261Y271766D01*
X418271Y271806D01*
X418280Y271855D01*
X418300Y271899D01*
X418325Y271943D01*
X418330Y271948D01*
X418339Y271963D01*
X418359Y271983D01*
X418384Y272012D01*
X418418Y272042D01*
X418458Y272076D01*
X418507Y272116D01*
X418566Y272150D01*
X418576Y272155D01*
X418600Y272165D01*
X418640Y272180D01*
X418689Y272194D01*
X418704D01*
X418718Y272199D01*
X418738D01*
X418787Y272204D01*
X418925D01*
X418964Y272199D01*
X419004D01*
X419092Y272194D01*
X419112D01*
X419136Y272189D01*
X419171Y272185D01*
X419210Y272180D01*
X419255Y272175D01*
X419348Y272160D01*
X419353D01*
X419373Y272155D01*
X419397Y272150D01*
X419432Y272145D01*
X419476Y272135D01*
X419520Y272126D01*
X419624Y272106D01*
X419628D01*
X419648Y272101D01*
X419678Y272091D01*
X419717Y272081D01*
X419766Y272071D01*
X419820Y272062D01*
X419879Y272047D01*
X419943Y272032D01*
X419953D01*
X419973Y272027D01*
X419998D01*
X420027Y272022D01*
X420032D01*
X420047Y272017D01*
X420120D01*
X420130Y272012D01*
X420135D01*
X420155Y272007D01*
X420180Y271998D01*
X420204Y271988D01*
X420209Y271983D01*
X420229Y271973D01*
X420248Y271953D01*
X420268Y271934D01*
X420273Y271929D01*
X420283Y271914D01*
X420298Y271889D01*
X420307Y271865D01*
X420312Y271860D01*
X420317Y271840D01*
X420322Y271816D01*
Y271791D01*
Y271786D01*
Y271781D01*
Y271757D01*
X420317Y271722D01*
X420312Y271688D01*
Y271678D01*
X420307Y271658D01*
X420298Y271634D01*
X420278Y271609D01*
X420268Y271604D01*
X420248Y271584D01*
X420214Y271570D01*
X420165Y271550D01*
X420160D01*
X420155Y271545D01*
X420125Y271540D01*
X420086Y271535D01*
X420042Y271530D01*
X420022D01*
X419998Y271540D01*
X419953Y271550D01*
X419948D01*
X419943Y271555D01*
X419914Y271565D01*
X419870Y271584D01*
X419820Y271609D01*
X419811D01*
X419786Y271619D01*
X419747Y271629D01*
X419697Y271638D01*
X419638Y271653D01*
X419579Y271673D01*
X419515Y271688D01*
X419456Y271702D01*
X419451D01*
X419432Y271707D01*
X419402Y271712D01*
X419373Y271722D01*
X419289Y271742D01*
X419210Y271757D01*
X419205D01*
X419196Y271761D01*
X419176D01*
X419156Y271766D01*
X419102Y271776D01*
X419053Y271786D01*
X419043D01*
X419018Y271791D01*
X418989Y271796D01*
X418945D01*
X418920Y271791D01*
X418890D01*
X418822Y271776D01*
X418758Y271752D01*
X418753D01*
X418748Y271742D01*
X418723Y271722D01*
X418694Y271688D01*
X418689Y271668D01*
X418684Y271643D01*
Y271638D01*
Y271619D01*
X418689Y271594D01*
X418694Y271565D01*
X418699Y271555D01*
X418704Y271535D01*
X418723Y271501D01*
X418743Y271466D01*
X418748Y271456D01*
X418763Y271432D01*
X418792Y271392D01*
X418822Y271348D01*
X418861Y271294D01*
X418910Y271235D01*
X418959Y271176D01*
X419014Y271122D01*
X419018Y271117D01*
X419038Y271097D01*
X419068Y271068D01*
X419112Y271033D01*
X419156Y270994D01*
X419215Y270955D01*
X419274Y270910D01*
X419338Y270871D01*
X419348Y270866D01*
X419368Y270851D01*
X419407Y270836D01*
X419451Y270812D01*
X419510Y270782D01*
X419579Y270753D01*
X419648Y270723D01*
X419727Y270694D01*
X419732D01*
X419737Y270689D01*
X419766Y270679D01*
X419811Y270664D01*
X419870Y270645D01*
X419939Y270625D01*
X420017Y270600D01*
X420106Y270581D01*
X420199Y270556D01*
X420204D01*
X420209Y270551D01*
X420229Y270536D01*
X420234Y270531D01*
X420239Y270522D01*
X420258Y270492D01*
X420263Y270487D01*
X420268Y270472D01*
X420278Y270438D01*
Y270433D01*
X420283Y270418D01*
X420288Y270399D01*
Y270379D01*
Y270374D01*
Y270359D01*
X420283Y270335D01*
X420278Y270310D01*
X420258Y270246D01*
X420244Y270217D01*
X420219Y270187D01*
X420214Y270182D01*
X420204Y270177D01*
X420189Y270167D01*
X420170Y270153D01*
X420145Y270138D01*
X420116Y270128D01*
X420076Y270123D01*
X420037Y270118D01*
X420027D01*
X420002Y270123D01*
X419958Y270128D01*
X419899Y270143D01*
X419894D01*
X419884Y270148D01*
X419865Y270153D01*
X419840Y270158D01*
X419811Y270162D01*
X419776Y270172D01*
X419697Y270192D01*
X419693D01*
X419678Y270197D01*
X419658Y270202D01*
X419633Y270212D01*
X419565Y270231D01*
X419491Y270251D01*
X419486D01*
X419476Y270256D01*
X419461Y270261D01*
X419437Y270266D01*
X419392Y270281D01*
X419353Y270295D01*
X419023Y270408D01*
X419014Y270413D01*
X418984Y270423D01*
X418940Y270438D01*
X418886Y270458D01*
X418822Y270477D01*
X418753Y270502D01*
X418605Y270551D01*
X418595Y270556D01*
X418576Y270561D01*
X418536Y270576D01*
X418492Y270590D01*
X418438Y270615D01*
X418379Y270635D01*
X418256Y270689D01*
X418251Y270694D01*
X418226Y270699D01*
X418197Y270713D01*
X418157Y270733D01*
X418108Y270758D01*
X418059Y270782D01*
X417951Y270846D01*
X417946Y270851D01*
X417926Y270861D01*
X417897Y270881D01*
X417862Y270905D01*
X417818Y270940D01*
X417774Y270974D01*
X417670Y271063D01*
X417665Y271068D01*
X417646Y271087D01*
X417616Y271112D01*
X417582Y271146D01*
X417537Y271196D01*
X417493Y271245D01*
X417444Y271304D01*
X417390Y271368D01*
X417385Y271378D01*
X417365Y271397D01*
X417341Y271437D01*
X417301Y271486D01*
X417257Y271545D01*
X417208Y271614D01*
X417154Y271693D01*
X417100Y271781D01*
X417095Y271786D01*
X417085Y271806D01*
X417070Y271835D01*
X417050Y271875D01*
X417026Y271919D01*
X417001Y271968D01*
X416957Y272071D01*
Y272076D01*
X416947Y272096D01*
X416937Y272126D01*
X416927Y272160D01*
X416918Y272204D01*
X416908Y272253D01*
X416903Y272308D01*
X416898Y272367D01*
Y272372D01*
X416903Y272391D01*
X416908Y272411D01*
X416918Y272435D01*
X416923Y272440D01*
X416932Y272450D01*
X416947Y272465D01*
X416972Y272485D01*
X416977Y272490D01*
X416991Y272495D01*
X417011Y272504D01*
X417041Y272514D01*
X417045D01*
X417060Y272519D01*
X417085Y272524D01*
X417134D01*
X417164Y272519D01*
D02*
G37*
G36*
X418955Y274797D02*
X418979D01*
X419038Y274777D01*
X419068Y274768D01*
X419092Y274748D01*
X419097Y274743D01*
X419102Y274738D01*
X419132Y274709D01*
X419161Y274664D01*
X419176Y274635D01*
X419186Y274605D01*
X419191D01*
X419196Y274600D01*
X419225Y274586D01*
X419269Y274556D01*
X419328Y274522D01*
X419333Y274517D01*
X419343Y274512D01*
X419363Y274502D01*
X419387Y274482D01*
X419447Y274443D01*
X419520Y274389D01*
X419525Y274384D01*
X419540Y274374D01*
X419560Y274354D01*
X419589Y274335D01*
X419653Y274276D01*
X419732Y274202D01*
X419737Y274197D01*
X419752Y274182D01*
X419771Y274162D01*
X419796Y274133D01*
X419825Y274103D01*
X419860Y274064D01*
X419929Y273975D01*
X419934Y273971D01*
X419943Y273951D01*
X419958Y273926D01*
X419978Y273892D01*
X420002Y273852D01*
X420027Y273808D01*
X420071Y273705D01*
X420076Y273700D01*
X420081Y273680D01*
X420091Y273651D01*
X420101Y273611D01*
X420111Y273562D01*
X420116Y273513D01*
X420125Y273454D01*
Y273395D01*
Y273390D01*
Y273370D01*
Y273346D01*
X420120Y273311D01*
X420111Y273233D01*
X420091Y273154D01*
Y273149D01*
X420086Y273134D01*
X420076Y273119D01*
X420066Y273095D01*
X420037Y273041D01*
X419998Y272987D01*
X419993Y272982D01*
X419988Y272977D01*
X419958Y272947D01*
X419914Y272918D01*
X419855Y272888D01*
X419850D01*
X419840Y272883D01*
X419825Y272878D01*
X419806Y272868D01*
X419747Y272859D01*
X419678Y272854D01*
X419628D01*
X419579Y272864D01*
X419525Y272873D01*
X419520D01*
X419501Y272878D01*
X419476Y272888D01*
X419447Y272903D01*
X419407Y272918D01*
X419368Y272942D01*
X419328Y272967D01*
X419289Y273001D01*
X419284Y273006D01*
X419274Y273016D01*
X419255Y273036D01*
X419230Y273060D01*
X419201Y273090D01*
X419171Y273129D01*
X419112Y273213D01*
X419107Y273218D01*
X419102Y273233D01*
X419087Y273257D01*
X419068Y273292D01*
X419048Y273331D01*
X419028Y273375D01*
X418989Y273479D01*
Y273483D01*
X418979Y273503D01*
X418969Y273533D01*
X418959Y273567D01*
X418945Y273611D01*
X418935Y273661D01*
X418905Y273769D01*
Y273774D01*
X418900Y273793D01*
X418895Y273823D01*
X418886Y273857D01*
X418876Y273897D01*
X418866Y273946D01*
X418851Y274044D01*
Y274049D01*
Y274064D01*
X418846Y274094D01*
X418841Y274123D01*
X418836Y274197D01*
X418827Y274276D01*
X418822Y274281D01*
X418797Y274285D01*
X418763Y274300D01*
X418718Y274315D01*
X418709D01*
X418679Y274320D01*
X418640Y274325D01*
X418590Y274330D01*
X418566D01*
X418541Y274325D01*
X418512Y274315D01*
X418477Y274305D01*
X418443Y274285D01*
X418408Y274256D01*
X418374Y274221D01*
X418369Y274217D01*
X418364Y274202D01*
X418349Y274177D01*
X418339Y274143D01*
X418325Y274098D01*
X418310Y274044D01*
X418305Y273985D01*
X418300Y273916D01*
Y273911D01*
Y273897D01*
Y273877D01*
X418305Y273848D01*
X418310Y273779D01*
X418325Y273700D01*
Y273695D01*
X418330Y273680D01*
X418335Y273661D01*
X418344Y273636D01*
X418364Y273577D01*
X418389Y273508D01*
Y273503D01*
X418394Y273493D01*
X418403Y273474D01*
X418413Y273449D01*
X418443Y273395D01*
X418472Y273336D01*
Y273331D01*
X418482Y273321D01*
X418492Y273306D01*
X418502Y273287D01*
X418531Y273237D01*
X418566Y273188D01*
X418571Y273183D01*
X418576Y273173D01*
X418585Y273154D01*
X418600Y273134D01*
X418635Y273080D01*
X418664Y273026D01*
Y273021D01*
X418669Y273011D01*
X418679Y272996D01*
X418684Y272977D01*
X418699Y272932D01*
X418704Y272883D01*
Y272878D01*
Y272873D01*
X418699Y272854D01*
X418694Y272829D01*
X418674Y272809D01*
X418669Y272804D01*
X418654Y272800D01*
X418635Y272795D01*
X418541D01*
X418536Y272800D01*
X418507Y272804D01*
X418467Y272819D01*
X418418Y272844D01*
X418413D01*
X418408Y272849D01*
X418384Y272868D01*
X418349Y272898D01*
X418315Y272937D01*
Y272942D01*
X418305Y272947D01*
X418295Y272962D01*
X418285Y272982D01*
X418246Y273031D01*
X418207Y273095D01*
X418162Y273169D01*
X418113Y273257D01*
X418069Y273346D01*
X418034Y273444D01*
Y273449D01*
X418029Y273454D01*
Y273469D01*
X418025Y273488D01*
X418010Y273542D01*
X417995Y273611D01*
X417980Y273695D01*
X417971Y273788D01*
X417961Y273892D01*
X417956Y274000D01*
Y274005D01*
Y274010D01*
Y274039D01*
X417961Y274084D01*
X417966Y274138D01*
Y274143D01*
Y274153D01*
X417971Y274167D01*
Y274187D01*
X417980Y274236D01*
X417990Y274295D01*
Y274300D01*
X417995Y274310D01*
Y274325D01*
X418005Y274349D01*
X418020Y274399D01*
X418044Y274463D01*
Y274467D01*
X418054Y274477D01*
X418064Y274492D01*
X418074Y274512D01*
X418108Y274556D01*
X418153Y274605D01*
X418157Y274610D01*
X418167Y274615D01*
X418182Y274630D01*
X418202Y274640D01*
X418251Y274674D01*
X418320Y274709D01*
X418325D01*
X418339Y274713D01*
X418359Y274718D01*
X418389Y274728D01*
X418423Y274733D01*
X418463Y274743D01*
X418507Y274748D01*
X418600D01*
X418630Y274743D01*
X418669D01*
X418709Y274733D01*
X418807Y274718D01*
Y274723D01*
X418812Y274738D01*
X418822Y274758D01*
X418836Y274777D01*
X418841Y274782D01*
X418856Y274787D01*
X418886Y274797D01*
X418920Y274802D01*
X418940D01*
X418955Y274797D01*
D02*
G37*
G36*
X418359Y278000D02*
X418413Y277995D01*
X418428D01*
X418443Y277990D01*
X418463D01*
X418512Y277980D01*
X418571Y277975D01*
X418576D01*
X418585Y277971D01*
X418600D01*
X418625Y277966D01*
X418674Y277956D01*
X418733Y277946D01*
X418738D01*
X418748Y277941D01*
X418763D01*
X418782Y277936D01*
X418831Y277921D01*
X418881Y277911D01*
X421119Y277356D01*
X421129D01*
X421149Y277346D01*
X421173Y277331D01*
X421208Y277311D01*
X421237Y277282D01*
X421267Y277242D01*
X421287Y277193D01*
X421291Y277129D01*
Y277124D01*
Y277119D01*
Y277095D01*
X421287Y277060D01*
X421277Y277031D01*
Y277026D01*
X421267Y277006D01*
X421257Y276991D01*
X421237Y276972D01*
X421232Y276967D01*
X421218Y276957D01*
X421193Y276947D01*
X421164Y276942D01*
X421154D01*
X421134Y276937D01*
X421100Y276932D01*
X420991D01*
X420952Y276937D01*
X420923D01*
X420888Y276942D01*
X420854Y276947D01*
X420844D01*
X420824Y276952D01*
X420790Y276957D01*
X420745Y276967D01*
X420736D01*
X420711Y276972D01*
X420672Y276982D01*
X420627Y276991D01*
X420617D01*
X420593Y277001D01*
X420558Y277011D01*
X420509Y277021D01*
X420455Y277036D01*
X420391Y277055D01*
X420248Y277100D01*
X420239Y277105D01*
X420214Y277110D01*
X420180Y277124D01*
X420130Y277139D01*
X420071Y277159D01*
X420002Y277178D01*
X419860Y277228D01*
X419569Y277316D01*
Y277311D01*
X419574Y277291D01*
X419584Y277267D01*
X419594Y277233D01*
X419609Y277193D01*
X419624Y277149D01*
X419668Y277060D01*
X419673Y277055D01*
X419678Y277041D01*
X419693Y277016D01*
X419712Y276987D01*
X419732Y276947D01*
X419756Y276908D01*
X419815Y276824D01*
X419820Y276819D01*
X419830Y276804D01*
X419850Y276785D01*
X419874Y276755D01*
X419899Y276721D01*
X419934Y276681D01*
X420007Y276603D01*
X420012Y276598D01*
X420027Y276583D01*
X420047Y276558D01*
X420076Y276534D01*
X420111Y276499D01*
X420150Y276460D01*
X420234Y276376D01*
X420244Y276367D01*
X420263Y276347D01*
X420303Y276308D01*
X420352Y276263D01*
X420406Y276209D01*
X420470Y276150D01*
X420539Y276086D01*
X420612Y276022D01*
X420622Y276012D01*
X420647Y275993D01*
X420686Y275958D01*
X420736Y275914D01*
X420799Y275860D01*
X420868Y275801D01*
X420937Y275742D01*
X421016Y275678D01*
X421021Y275673D01*
X421041Y275663D01*
X421070Y275643D01*
X421109Y275624D01*
X421114D01*
X421119Y275619D01*
X421149Y275604D01*
X421188Y275584D01*
X421232Y275555D01*
X421237D01*
X421242Y275550D01*
X421272Y275530D01*
X421306Y275501D01*
X421341Y275466D01*
Y275461D01*
X421346Y275456D01*
X421365Y275432D01*
X421380Y275388D01*
X421385Y275338D01*
Y275328D01*
X421380Y275309D01*
X421375Y275284D01*
X421355Y275255D01*
X421350Y275250D01*
X421336Y275230D01*
X421311Y275210D01*
X421277Y275191D01*
X421267Y275186D01*
X421247Y275176D01*
X421213Y275166D01*
X421173Y275156D01*
X421164Y275151D01*
X421139Y275146D01*
X421109Y275142D01*
X421045D01*
X421026Y275146D01*
X421001Y275151D01*
X420991Y275156D01*
X420967Y275176D01*
X420927Y275201D01*
X420878Y275235D01*
X420819Y275279D01*
X420755Y275328D01*
X420617Y275437D01*
X420608Y275442D01*
X420588Y275461D01*
X420549Y275496D01*
X420504Y275535D01*
X420450Y275579D01*
X420391Y275634D01*
X420263Y275757D01*
X420253Y275761D01*
X420234Y275786D01*
X420199Y275820D01*
X420155Y275860D01*
X420106Y275914D01*
X420047Y275973D01*
X419924Y276101D01*
X419919Y276111D01*
X419894Y276130D01*
X419865Y276165D01*
X419825Y276209D01*
X419776Y276263D01*
X419722Y276322D01*
X419604Y276450D01*
Y276445D01*
X419599Y276440D01*
X419589Y276411D01*
X419569Y276362D01*
X419545Y276303D01*
X419515Y276234D01*
X419476Y276155D01*
X419437Y276081D01*
X419387Y276003D01*
X419382Y275993D01*
X419363Y275968D01*
X419333Y275929D01*
X419299Y275880D01*
X419250Y275825D01*
X419196Y275761D01*
X419132Y275702D01*
X419063Y275643D01*
X419053Y275638D01*
X419028Y275619D01*
X418989Y275589D01*
X418940Y275550D01*
X418876Y275511D01*
X418797Y275466D01*
X418713Y275422D01*
X418625Y275378D01*
X418620D01*
X418615Y275373D01*
X418600Y275368D01*
X418581Y275358D01*
X418531Y275338D01*
X418463Y275319D01*
X418379Y275289D01*
X418280Y275265D01*
X418172Y275240D01*
X418059Y275220D01*
X418054Y275225D01*
X418034Y275230D01*
X418005Y275245D01*
X417980Y275265D01*
X417975Y275269D01*
X417956Y275279D01*
X417936Y275299D01*
X417911Y275324D01*
X417907Y275328D01*
X417897Y275348D01*
X417877Y275373D01*
X417862Y275407D01*
X417857Y275417D01*
X417852Y275437D01*
X417847Y275466D01*
X417843Y275501D01*
Y275506D01*
Y275515D01*
Y275530D01*
X417847Y275550D01*
X417857Y275594D01*
X417882Y275634D01*
X417887Y275638D01*
X417907Y275658D01*
X417931Y275683D01*
X417966Y275702D01*
X417975Y275707D01*
X418000Y275717D01*
X418034Y275727D01*
X418079Y275742D01*
X418089D01*
X418118Y275747D01*
X418157Y275752D01*
X418202Y275761D01*
X418261Y275766D01*
X418266D01*
X418285Y275771D01*
X418320Y275781D01*
X418359Y275791D01*
X418403Y275801D01*
X418453Y275820D01*
X418556Y275865D01*
X418561Y275870D01*
X418581Y275875D01*
X418605Y275889D01*
X418640Y275909D01*
X418679Y275934D01*
X418723Y275963D01*
X418807Y276032D01*
X418812Y276037D01*
X418827Y276047D01*
X418846Y276066D01*
X418871Y276091D01*
X418900Y276126D01*
X418935Y276160D01*
X418994Y276239D01*
X418999Y276244D01*
X419009Y276258D01*
X419023Y276278D01*
X419038Y276308D01*
X419058Y276337D01*
X419077Y276376D01*
X419112Y276455D01*
X419141Y276524D01*
X419146Y276529D01*
X419151Y276549D01*
X419161Y276578D01*
X419176Y276618D01*
X419181Y276627D01*
X419186Y276652D01*
X419201Y276686D01*
X419210Y276731D01*
X419215Y276741D01*
X419220Y276765D01*
X419230Y276800D01*
X419240Y276839D01*
Y276849D01*
X419245Y276868D01*
X419250Y276898D01*
Y276932D01*
Y276937D01*
X419245Y276952D01*
X419240Y276982D01*
X419230Y277001D01*
X419220Y277026D01*
Y277031D01*
X419215Y277036D01*
X419210Y277050D01*
X419205Y277070D01*
X419186Y277119D01*
X419161Y277178D01*
Y277183D01*
X419156Y277193D01*
X419151Y277208D01*
X419141Y277228D01*
X419122Y277277D01*
X419097Y277336D01*
Y277341D01*
X419092Y277351D01*
X419082Y277380D01*
X419068Y277419D01*
X419058Y277454D01*
X418812Y277513D01*
X418807D01*
X418792Y277518D01*
X418772Y277523D01*
X418748Y277528D01*
X418679Y277537D01*
X418605Y277552D01*
X418590D01*
X418571Y277557D01*
X418546D01*
X418487Y277562D01*
X418418Y277567D01*
X418320D01*
X418256Y277572D01*
X418226D01*
X418207Y277577D01*
X418153Y277582D01*
X418098Y277597D01*
X418093D01*
X418089Y277602D01*
X418054Y277611D01*
X418020Y277636D01*
X417980Y277670D01*
X417971Y277680D01*
X417956Y277705D01*
X417941Y277754D01*
X417931Y277818D01*
Y277823D01*
Y277828D01*
X417936Y277852D01*
X417946Y277887D01*
X417966Y277921D01*
X417971Y277926D01*
X417990Y277941D01*
X418015Y277961D01*
X418049Y277975D01*
X418054D01*
X418059Y277980D01*
X418084Y277985D01*
X418118Y277995D01*
X418162Y278000D01*
X418202D01*
X418236Y278005D01*
X418315D01*
X418359Y278000D01*
D02*
G37*
G36*
X326698Y322500D02*
X326745Y322496D01*
X326805Y322483D01*
X326810D01*
X326818Y322479D01*
X326835Y322474D01*
X326853Y322470D01*
X326878Y322461D01*
X326908Y322453D01*
X326982Y322435D01*
X327068Y322410D01*
X327158Y322380D01*
X327257Y322350D01*
X327360Y322315D01*
X327364D01*
X327373Y322311D01*
X327386Y322306D01*
X327407Y322298D01*
X327433Y322289D01*
X327463Y322281D01*
X327532Y322259D01*
X327614Y322233D01*
X327704Y322203D01*
X327803Y322173D01*
X327902Y322143D01*
X327906D01*
X327915Y322139D01*
X327928Y322134D01*
X327949Y322130D01*
X327996Y322117D01*
X328061Y322100D01*
X328134Y322079D01*
X328207Y322057D01*
X328285Y322036D01*
X328358Y322018D01*
X328362D01*
X328366Y322014D01*
X328388Y322010D01*
X328422Y322001D01*
X328465Y321988D01*
X328517Y321975D01*
X328568Y321958D01*
X328620Y321941D01*
X328672Y321928D01*
X328676D01*
X328693Y321919D01*
X328719Y321911D01*
X328749Y321902D01*
X328788Y321889D01*
X328822Y321881D01*
X328899Y321855D01*
X328904D01*
X328917Y321851D01*
X328934Y321842D01*
X328960Y321833D01*
X328990Y321821D01*
X329024Y321808D01*
X329093Y321778D01*
X329097D01*
X329101Y321773D01*
X329127Y321765D01*
X329166Y321747D01*
X329209Y321726D01*
X329213D01*
X329218Y321722D01*
X329248Y321705D01*
X329282Y321687D01*
X329321Y321661D01*
X329325D01*
X329329Y321653D01*
X329351Y321636D01*
X329377Y321614D01*
X329402Y321584D01*
X329407Y321575D01*
X329420Y321558D01*
X329433Y321533D01*
X329437Y321502D01*
Y321498D01*
Y321490D01*
Y321472D01*
X329433Y321455D01*
X329424Y321416D01*
X329407Y321378D01*
Y321373D01*
X329402Y321369D01*
X329390Y321352D01*
X329372Y321330D01*
X329355Y321318D01*
X329269Y321300D01*
Y321296D01*
X329274Y321279D01*
X329278Y321253D01*
X329282Y321219D01*
Y321214D01*
Y321210D01*
X329286Y321188D01*
X329295Y321154D01*
X329299Y321120D01*
Y321115D01*
X329304Y321111D01*
X329308Y321090D01*
X329312Y321059D01*
X329321Y321025D01*
Y321021D01*
X329325Y321017D01*
X329329Y320999D01*
X329334Y320978D01*
X329342Y320956D01*
Y320952D01*
X329351Y320935D01*
X329355Y320905D01*
X329364Y320875D01*
X329377Y320836D01*
X329385Y320793D01*
X329407Y320703D01*
Y320698D01*
X329411Y320681D01*
X329415Y320660D01*
X329424Y320630D01*
X329428Y320599D01*
X329437Y320561D01*
X329450Y320483D01*
Y320479D01*
X329454Y320466D01*
Y320445D01*
X329458Y320419D01*
X329463Y320389D01*
X329467Y320354D01*
X329476Y320281D01*
Y320277D01*
Y320264D01*
X329480Y320243D01*
Y320221D01*
Y320191D01*
X329484Y320157D01*
Y320083D01*
Y320079D01*
Y320066D01*
Y320049D01*
Y320027D01*
X329480Y319976D01*
X329471Y319929D01*
Y319924D01*
Y319920D01*
X329467Y319894D01*
X329458Y319864D01*
X329446Y319834D01*
X329441Y319830D01*
X329433Y319812D01*
X329420Y319795D01*
X329402Y319782D01*
X329398Y319778D01*
X329390Y319774D01*
X329372Y319770D01*
X329338D01*
X329321Y319774D01*
X329299Y319782D01*
X329295Y319787D01*
X329282Y319791D01*
X329265Y319808D01*
X329248Y319830D01*
X329243Y319834D01*
X329230Y319851D01*
X329218Y319877D01*
X329200Y319911D01*
X329196Y319920D01*
X329192Y319946D01*
X329183Y319985D01*
X329179Y320036D01*
Y320040D01*
X329175Y320053D01*
X329170Y320079D01*
X329166Y320101D01*
X329162Y320122D01*
Y320126D01*
Y320135D01*
X329157Y320148D01*
Y320165D01*
X329149Y320212D01*
X329136Y320268D01*
Y320273D01*
Y320281D01*
X329132Y320298D01*
X329127Y320316D01*
X329119Y320363D01*
X329110Y320419D01*
Y320423D01*
Y320432D01*
X329106Y320458D01*
X329101Y320488D01*
X329093Y320518D01*
Y320526D01*
X329084Y320544D01*
X329076Y320574D01*
Y320582D01*
X329067Y320604D01*
X329059Y320642D01*
X329046Y320690D01*
Y320694D01*
X329041Y320703D01*
X329037Y320715D01*
X329033Y320733D01*
X329020Y320776D01*
X329003Y320832D01*
Y320836D01*
X328998Y320845D01*
X328994Y320862D01*
X328990Y320879D01*
X328977Y320931D01*
X328960Y320986D01*
Y320991D01*
X328955Y320999D01*
X328951Y321012D01*
X328947Y321034D01*
X328934Y321077D01*
X328917Y321128D01*
Y321133D01*
X328912Y321137D01*
X328908Y321167D01*
X328895Y321197D01*
X328887Y321232D01*
Y321236D01*
X328878Y321253D01*
X328865Y321274D01*
X328852Y321305D01*
X328809Y321369D01*
X328783Y321404D01*
X328753Y321434D01*
X328749Y321438D01*
X328740Y321446D01*
X328723Y321459D01*
X328702Y321472D01*
X328672Y321490D01*
X328641Y321511D01*
X328568Y321545D01*
X328564D01*
X328555Y321550D01*
X328534Y321558D01*
X328504Y321571D01*
X328495Y321575D01*
X328474Y321580D01*
X328444Y321593D01*
X328405Y321606D01*
X328401D01*
X328396Y321610D01*
X328370Y321619D01*
X328332Y321631D01*
X328285Y321649D01*
X328280D01*
X328272Y321653D01*
X328263Y321657D01*
X328246Y321661D01*
X328203Y321674D01*
X328160Y321692D01*
X328155D01*
X328151Y321696D01*
X328125Y321705D01*
X328091Y321717D01*
X328052Y321730D01*
X328044D01*
X328027Y321739D01*
X328005Y321743D01*
X327983Y321752D01*
X327979D01*
X327971Y321756D01*
X327945Y321760D01*
X327910D01*
X327906Y321756D01*
Y321747D01*
Y321739D01*
X327910Y321726D01*
Y321709D01*
X327919Y321687D01*
X327923Y321657D01*
X327932Y321623D01*
Y321619D01*
X327936Y321606D01*
X327945Y321584D01*
X327953Y321558D01*
X327962Y321524D01*
X327975Y321485D01*
X327988Y321442D01*
X328005Y321395D01*
Y321391D01*
X328014Y321373D01*
X328022Y321343D01*
X328031Y321309D01*
X328048Y321266D01*
X328061Y321219D01*
X328078Y321167D01*
X328095Y321111D01*
X328100Y321102D01*
X328104Y321085D01*
X328113Y321055D01*
X328125Y321017D01*
X328138Y320973D01*
X328151Y320922D01*
X328181Y320819D01*
Y320814D01*
X328190Y320797D01*
X328199Y320771D01*
X328207Y320737D01*
X328220Y320698D01*
X328229Y320655D01*
X328254Y320574D01*
Y320569D01*
X328259Y320556D01*
X328263Y320535D01*
X328272Y320513D01*
X328280Y320462D01*
X328285Y320436D01*
Y320414D01*
Y320410D01*
Y320402D01*
X328280Y320376D01*
X328276Y320346D01*
X328267Y320328D01*
X328259Y320320D01*
X328254Y320316D01*
X328241Y320307D01*
X328224Y320298D01*
X328207Y320294D01*
X328194D01*
X328181Y320298D01*
X328160Y320303D01*
X328117Y320316D01*
X328095Y320333D01*
X328074Y320350D01*
X328069Y320354D01*
X328065Y320359D01*
X328039Y320384D01*
X328009Y320427D01*
X327975Y320479D01*
X327971Y320483D01*
X327966Y320500D01*
X327953Y320531D01*
X327936Y320574D01*
Y320578D01*
X327932Y320586D01*
X327928Y320599D01*
X327923Y320617D01*
X327906Y320664D01*
X327889Y320720D01*
Y320724D01*
X327885Y320733D01*
X327880Y320750D01*
X327876Y320767D01*
X327859Y320814D01*
X327842Y320870D01*
Y320875D01*
X327837Y320883D01*
X327829Y320909D01*
X327820Y320939D01*
X327807Y320969D01*
Y320973D01*
X327803Y320978D01*
X327794Y321004D01*
X327781Y321038D01*
X327764Y321085D01*
X327743Y321137D01*
X327721Y321193D01*
X327700Y321249D01*
X327678Y321300D01*
Y321305D01*
X327670Y321322D01*
X327661Y321343D01*
X327648Y321373D01*
X327622Y321442D01*
X327605Y321477D01*
X327592Y321511D01*
Y321515D01*
X327588Y321524D01*
X327584Y321537D01*
X327575Y321554D01*
X327558Y321593D01*
X327545Y321631D01*
Y321640D01*
X327536Y321657D01*
X327528Y321683D01*
X327519Y321713D01*
Y321717D01*
X327510Y321735D01*
X327502Y321760D01*
X327493Y321791D01*
Y321799D01*
X327489Y321821D01*
X327480Y321859D01*
X327467Y321911D01*
X327459Y321915D01*
X327433Y321924D01*
X327416Y321928D01*
X327394Y321937D01*
X327364Y321945D01*
X327334Y321954D01*
X327330D01*
X327321Y321958D01*
X327300Y321962D01*
X327278Y321971D01*
X327253Y321980D01*
X327218Y321988D01*
X327149Y322006D01*
X327145D01*
X327132Y322010D01*
X327115Y322014D01*
X327093Y322018D01*
X327033Y322031D01*
X326973Y322044D01*
X326960D01*
X326947Y322048D01*
X326930D01*
X326891Y322053D01*
X326861Y322057D01*
X326840D01*
X326822Y322053D01*
X326805Y322048D01*
X326801Y322044D01*
X326797Y322040D01*
X326780Y322023D01*
Y322018D01*
Y322014D01*
X326775Y321993D01*
Y321988D01*
Y321984D01*
Y321971D01*
Y321967D01*
Y321954D01*
Y321932D01*
X326780Y321902D01*
X326784Y321868D01*
X326788Y321825D01*
X326797Y321782D01*
X326805Y321730D01*
Y321722D01*
X326810Y321705D01*
X326818Y321679D01*
X326827Y321640D01*
X326840Y321601D01*
X326853Y321554D01*
X326883Y321451D01*
X326887Y321446D01*
X326891Y321429D01*
X326900Y321404D01*
X326913Y321373D01*
X326926Y321335D01*
X326943Y321300D01*
X326982Y321223D01*
X326986Y321219D01*
X326990Y321206D01*
X327003Y321188D01*
X327016Y321163D01*
X327050Y321102D01*
X327085Y321038D01*
X327089Y321034D01*
X327093Y321025D01*
X327102Y321008D01*
X327111Y320986D01*
X327136Y320931D01*
X327162Y320870D01*
Y320866D01*
X327167Y320853D01*
X327175Y320836D01*
X327179Y320814D01*
X327188Y320789D01*
X327192Y320754D01*
X327197Y320685D01*
Y320681D01*
Y320672D01*
Y320660D01*
X327192Y320638D01*
Y320634D01*
X327188Y320621D01*
X327175Y320586D01*
Y320582D01*
X327167Y320574D01*
X327158Y320561D01*
X327145Y320548D01*
X327141Y320544D01*
X327132Y320539D01*
X327119Y320535D01*
X327093D01*
X327063Y320544D01*
X327025Y320561D01*
X327003Y320578D01*
X326982Y320595D01*
X326977Y320599D01*
X326973Y320604D01*
X326960Y320617D01*
X326943Y320630D01*
X326908Y320672D01*
X326866Y320728D01*
X326861Y320733D01*
X326857Y320741D01*
X326848Y320759D01*
X326835Y320780D01*
X326818Y320806D01*
X326801Y320836D01*
X326762Y320905D01*
Y320909D01*
X326754Y320922D01*
X326745Y320939D01*
X326732Y320965D01*
X326719Y320995D01*
X326702Y321029D01*
X326668Y321102D01*
Y321107D01*
X326659Y321120D01*
X326651Y321141D01*
X326642Y321167D01*
X326629Y321197D01*
X326616Y321232D01*
X326586Y321305D01*
Y321309D01*
X326582Y321322D01*
X326573Y321339D01*
X326565Y321360D01*
X326547Y321416D01*
X326526Y321477D01*
X326521Y321485D01*
X326517Y321511D01*
X326504Y321545D01*
X326491Y321597D01*
X326474Y321653D01*
X326457Y321717D01*
X326431Y321851D01*
Y321859D01*
X326427Y321881D01*
X326423Y321915D01*
X326418Y321958D01*
X326410Y322010D01*
X326405Y322066D01*
X326401Y322178D01*
Y322186D01*
Y322203D01*
X326405Y322229D01*
X326410Y322264D01*
X326427Y322345D01*
X326440Y322384D01*
X326457Y322418D01*
X326461Y322423D01*
X326470Y322431D01*
X326483Y322444D01*
X326504Y322461D01*
X326530Y322479D01*
X326565Y322491D01*
X326603Y322500D01*
X326651Y322504D01*
X326676D01*
X326698Y322500D01*
D02*
G37*
G36*
X334075Y306362D02*
X333156D01*
X333160Y306354D01*
X333175Y306339D01*
X333199Y306315D01*
X333223Y306280D01*
X333254Y306236D01*
X333285Y306189D01*
X333313Y306138D01*
X333337Y306083D01*
X333341Y306075D01*
X333348Y306056D01*
X333356Y306024D01*
X333368Y305985D01*
X333380Y305938D01*
X333392Y305879D01*
X333396Y305820D01*
X333399Y305757D01*
Y305753D01*
Y305745D01*
Y305729D01*
X333396Y305714D01*
Y305690D01*
X333392Y305663D01*
X333384Y305600D01*
X333364Y305529D01*
X333341Y305454D01*
X333309Y305376D01*
X333262Y305305D01*
Y305301D01*
X333254Y305297D01*
X333238Y305274D01*
X333211Y305242D01*
X333172Y305207D01*
X333124Y305164D01*
X333073Y305128D01*
X333010Y305097D01*
X332947Y305073D01*
X332944D01*
X332940Y305069D01*
X332928D01*
X332912Y305065D01*
X332892Y305061D01*
X332865Y305057D01*
X332838Y305053D01*
X332802Y305049D01*
X332759Y305046D01*
X332712Y305042D01*
X332657D01*
X332598Y305038D01*
X332535Y305034D01*
X332464Y305030D01*
X330000D01*
Y306048D01*
X332445D01*
X332503Y306052D01*
X332566Y306056D01*
X332625Y306060D01*
X332680Y306067D01*
X332704Y306075D01*
X332720Y306079D01*
X332723D01*
X332731Y306083D01*
X332747Y306095D01*
X332763Y306107D01*
X332779Y306122D01*
X332794Y306142D01*
X332802Y306170D01*
X332806Y306205D01*
Y306209D01*
Y306221D01*
X332802Y306236D01*
X332794Y306256D01*
X332786Y306276D01*
X332771Y306299D01*
X332747Y306315D01*
X332720Y306331D01*
X332716D01*
X332704Y306335D01*
X332680Y306339D01*
X332645Y306346D01*
X332598Y306350D01*
X332539Y306358D01*
X332464Y306362D01*
X330000D01*
Y307380D01*
X334075D01*
Y306362D01*
D02*
G37*
G36*
X332307Y309958D02*
X332346D01*
X332393Y309954D01*
X332440Y309950D01*
X332543Y309942D01*
X332649Y309927D01*
X332751Y309907D01*
X332798Y309895D01*
X332841Y309879D01*
X332845D01*
X332849Y309876D01*
X332861Y309868D01*
X332877Y309860D01*
X332920Y309836D01*
X332971Y309801D01*
X333030Y309754D01*
X333097Y309687D01*
X333128Y309652D01*
X333160Y309608D01*
X333195Y309565D01*
X333226Y309514D01*
X333230Y309510D01*
X333234Y309502D01*
X333242Y309487D01*
X333254Y309463D01*
X333266Y309435D01*
X333282Y309404D01*
X333297Y309369D01*
X333313Y309325D01*
X333329Y309278D01*
X333344Y309227D01*
X333360Y309168D01*
X333372Y309109D01*
X333392Y308980D01*
X333399Y308909D01*
Y308834D01*
Y308830D01*
Y308815D01*
Y308795D01*
X333396Y308767D01*
Y308732D01*
X333392Y308693D01*
X333384Y308649D01*
X333380Y308598D01*
X333360Y308492D01*
X333329Y308378D01*
X333285Y308264D01*
X333262Y308209D01*
X333230Y308154D01*
Y308150D01*
X333223Y308142D01*
X333215Y308127D01*
X333199Y308107D01*
X333164Y308060D01*
X333113Y308001D01*
X333054Y307938D01*
X332979Y307875D01*
X332896Y307820D01*
X332849Y307797D01*
X332802Y307777D01*
X332798D01*
X332790Y307773D01*
X332775Y307769D01*
X332755Y307761D01*
X332727Y307753D01*
X332696Y307746D01*
X332661Y307738D01*
X332617Y307730D01*
X332566Y307722D01*
X332515Y307714D01*
X332452Y307706D01*
X332389Y307698D01*
X332319Y307691D01*
X332244Y307687D01*
X332165Y307683D01*
X332079D01*
Y308642D01*
X332527D01*
X332570Y308646D01*
X332613Y308649D01*
X332661Y308657D01*
X332700Y308665D01*
X332731Y308677D01*
X332735D01*
X332743Y308685D01*
X332755Y308693D01*
X332771Y308704D01*
X332782Y308720D01*
X332794Y308740D01*
X332802Y308767D01*
X332806Y308799D01*
Y308803D01*
Y308815D01*
X332802Y308826D01*
X332798Y308846D01*
X332790Y308866D01*
X332779Y308885D01*
X332763Y308901D01*
X332743Y308917D01*
X332739D01*
X332731Y308921D01*
X332712Y308925D01*
X332684Y308928D01*
X332645Y308936D01*
X332598Y308940D01*
X332535Y308944D01*
X330861D01*
X330829Y308940D01*
X330790D01*
X330747Y308932D01*
X330699Y308925D01*
X330660Y308917D01*
X330621Y308901D01*
X330617Y308897D01*
X330609Y308893D01*
X330593Y308881D01*
X330578Y308870D01*
X330562Y308850D01*
X330546Y308826D01*
X330538Y308799D01*
X330535Y308767D01*
Y308763D01*
Y308752D01*
X330538Y308732D01*
X330546Y308712D01*
X330558Y308689D01*
X330574Y308665D01*
X330593Y308646D01*
X330625Y308630D01*
X330629D01*
X330644Y308622D01*
X330668Y308618D01*
X330703Y308610D01*
X330755Y308602D01*
X330814Y308598D01*
X330888Y308591D01*
X331376D01*
Y307683D01*
X331277D01*
X331238Y307687D01*
X331152D01*
X331053Y307691D01*
X330951Y307698D01*
X330857Y307706D01*
X330814Y307710D01*
X330774Y307714D01*
X330766D01*
X330755Y307718D01*
X330739Y307722D01*
X330699Y307730D01*
X330648Y307746D01*
X330586Y307769D01*
X330515Y307797D01*
X330440Y307836D01*
X330362Y307883D01*
X330358D01*
X330354Y307891D01*
X330342Y307899D01*
X330326Y307911D01*
X330291Y307938D01*
X330244Y307981D01*
X330193Y308036D01*
X330141Y308099D01*
X330090Y308174D01*
X330047Y308256D01*
Y308260D01*
X330043Y308268D01*
X330039Y308280D01*
X330031Y308296D01*
X330024Y308319D01*
X330012Y308347D01*
X330004Y308378D01*
X329996Y308414D01*
X329984Y308453D01*
X329976Y308496D01*
X329957Y308591D01*
X329945Y308700D01*
X329941Y308822D01*
Y308826D01*
Y308842D01*
Y308862D01*
X329945Y308893D01*
Y308928D01*
X329949Y308972D01*
X329953Y309019D01*
X329961Y309066D01*
X329976Y309176D01*
X330004Y309290D01*
X330039Y309400D01*
X330063Y309451D01*
X330086Y309502D01*
Y309506D01*
X330094Y309514D01*
X330102Y309526D01*
X330114Y309542D01*
X330145Y309589D01*
X330193Y309640D01*
X330252Y309699D01*
X330322Y309758D01*
X330401Y309813D01*
X330495Y309860D01*
X330499D01*
X330507Y309864D01*
X330523Y309868D01*
X330546Y309876D01*
X330574Y309883D01*
X330605Y309891D01*
X330644Y309903D01*
X330692Y309911D01*
X330743Y309919D01*
X330798Y309931D01*
X330861Y309939D01*
X330927Y309946D01*
X331002Y309954D01*
X331081Y309958D01*
X331163Y309962D01*
X332272D01*
X332307Y309958D01*
D02*
G37*
G36*
X326685Y315603D02*
X326711Y315599D01*
X326719D01*
X326736Y315594D01*
X326767Y315586D01*
X326805Y315577D01*
X326853Y315568D01*
X326908Y315560D01*
X326969Y315547D01*
X327033Y315534D01*
X327042D01*
X327063Y315530D01*
X327098Y315521D01*
X327145Y315512D01*
X327197Y315504D01*
X327257Y315491D01*
X327386Y315465D01*
X327394D01*
X327416Y315457D01*
X327450Y315452D01*
X327498Y315439D01*
X327554Y315431D01*
X327609Y315418D01*
X327738Y315392D01*
X327747D01*
X327768Y315384D01*
X327803Y315379D01*
X327846Y315371D01*
X327893Y315358D01*
X327949Y315349D01*
X328057Y315328D01*
X328069D01*
X328091Y315332D01*
X328168D01*
X328211Y315328D01*
X328259Y315323D01*
X328272D01*
X328297Y315315D01*
X328336Y315310D01*
X328375Y315298D01*
X328379D01*
X328388Y315293D01*
X328401Y315289D01*
X328418Y315285D01*
X328456Y315267D01*
X328469Y315259D01*
X328482Y315250D01*
X328487Y315246D01*
X328500Y315229D01*
X328508Y315199D01*
X328512Y315156D01*
Y315151D01*
Y315147D01*
X328508Y315121D01*
X328504Y315091D01*
X328487Y315061D01*
X328482Y315052D01*
X328469Y315039D01*
X328452Y315022D01*
X328422Y315005D01*
X328414Y315001D01*
X328396Y314992D01*
X328366Y314984D01*
X328332Y314979D01*
X328323D01*
X328302Y314975D01*
X328267Y314971D01*
X328190D01*
X328164Y314975D01*
X328108D01*
X328113Y314971D01*
X328117Y314966D01*
X328130Y314953D01*
X328147Y314936D01*
X328186Y314898D01*
X328229Y314850D01*
X328233Y314846D01*
X328241Y314837D01*
X328250Y314825D01*
X328267Y314807D01*
X328306Y314764D01*
X328345Y314713D01*
X328349Y314708D01*
X328353Y314700D01*
X328362Y314683D01*
X328375Y314665D01*
X328405Y314614D01*
X328431Y314554D01*
Y314549D01*
X328435Y314541D01*
X328444Y314524D01*
X328448Y314502D01*
X328461Y314446D01*
X328465Y314382D01*
Y314377D01*
Y314360D01*
X328461Y314339D01*
X328456Y314313D01*
Y314309D01*
X328452Y314291D01*
X328448Y314270D01*
X328439Y314244D01*
Y314235D01*
X328435Y314218D01*
X328426Y314188D01*
X328414Y314158D01*
Y314154D01*
X328409Y314149D01*
X328401Y314128D01*
X328383Y314098D01*
X328362Y314068D01*
X328358Y314063D01*
X328353Y314055D01*
X328327Y314029D01*
X328285Y313990D01*
X328233Y313956D01*
X328229Y313952D01*
X328220Y313947D01*
X328203Y313939D01*
X328186Y313930D01*
X328134Y313917D01*
X328104Y313909D01*
X328052D01*
X328031Y313913D01*
X328005Y313921D01*
X328001D01*
X327983Y313930D01*
X327962Y313939D01*
X327941Y313956D01*
X327936Y313960D01*
X327923Y313969D01*
X327906Y313986D01*
X327889Y314007D01*
X327885Y314012D01*
X327880Y314025D01*
X327876Y314042D01*
X327872Y314068D01*
Y314076D01*
X327876Y314093D01*
X327880Y314124D01*
X327889Y314158D01*
X327893Y314167D01*
X327902Y314184D01*
X327915Y314214D01*
X327936Y314240D01*
Y314244D01*
X327945Y314248D01*
X327953Y314261D01*
X327966Y314274D01*
X327971D01*
X327983Y314283D01*
X328014Y314300D01*
X328018D01*
X328031Y314309D01*
X328057Y314326D01*
X328061D01*
X328069Y314330D01*
X328078Y314334D01*
X328082Y314343D01*
X328087Y314347D01*
Y314364D01*
Y314373D01*
Y314390D01*
Y314394D01*
Y314407D01*
X328082Y314429D01*
X328078Y314455D01*
X328074Y314485D01*
X328065Y314519D01*
X328048Y314554D01*
X328031Y314592D01*
X328027Y314597D01*
X328022Y314610D01*
X328009Y314627D01*
X327996Y314648D01*
X327953Y314708D01*
X327902Y314773D01*
X327898Y314777D01*
X327889Y314786D01*
X327872Y314803D01*
X327850Y314820D01*
X327799Y314872D01*
X327734Y314923D01*
X327730Y314928D01*
X327721Y314936D01*
X327704Y314949D01*
X327682Y314962D01*
X327631Y315005D01*
X327575Y315044D01*
X327566D01*
X327545Y315052D01*
X327510Y315061D01*
X327467Y315070D01*
X327412Y315087D01*
X327351Y315100D01*
X327287Y315121D01*
X327214Y315138D01*
X327205Y315143D01*
X327179Y315147D01*
X327145Y315156D01*
X327093Y315168D01*
X327033Y315186D01*
X326969Y315203D01*
X326896Y315220D01*
X326818Y315237D01*
X326685D01*
X326638Y315242D01*
X326629D01*
X326599Y315246D01*
X326560Y315254D01*
X326521Y315267D01*
X326517Y315272D01*
X326504Y315285D01*
X326491Y315302D01*
X326474Y315332D01*
X326470Y315340D01*
X326466Y315362D01*
X326457Y315392D01*
X326453Y315431D01*
Y315435D01*
Y315444D01*
X326457Y315461D01*
X326461Y315482D01*
X326479Y315525D01*
X326491Y315547D01*
X326509Y315564D01*
X326513D01*
X326517Y315573D01*
X326530Y315577D01*
X326547Y315586D01*
X326586Y315599D01*
X326638Y315607D01*
X326663D01*
X326685Y315603D01*
D02*
G37*
G36*
X328100Y317783D02*
X328121Y317779D01*
X328125D01*
X328138Y317774D01*
X328155Y317766D01*
X328177Y317757D01*
X328181Y317753D01*
X328194Y317744D01*
X328211Y317731D01*
X328224Y317714D01*
X328229Y317710D01*
X328237Y317697D01*
X328241Y317680D01*
X328246Y317658D01*
Y317379D01*
Y317374D01*
X328250Y317357D01*
X328259Y317340D01*
X328280Y317327D01*
X328285Y317323D01*
X328302Y317319D01*
X328323Y317310D01*
X328349Y317301D01*
X328353D01*
X328370Y317297D01*
X328392Y317293D01*
X328422Y317284D01*
X328487Y317271D01*
X328555Y317254D01*
X328560D01*
X328573Y317250D01*
X328586Y317245D01*
X328607Y317237D01*
X328659Y317224D01*
X328706Y317211D01*
X328710D01*
X328719Y317207D01*
X328745Y317202D01*
X328775Y317194D01*
X328809Y317185D01*
X328818D01*
X328831Y317181D01*
X328852Y317177D01*
X328887D01*
X328921Y317181D01*
X329037D01*
X329054Y317177D01*
X329059D01*
X329076Y317172D01*
X329101Y317164D01*
X329132Y317155D01*
X329140Y317151D01*
X329157Y317146D01*
X329183Y317129D01*
X329209Y317112D01*
X329213Y317104D01*
X329226Y317086D01*
X329239Y317056D01*
X329243Y317013D01*
Y317009D01*
Y317005D01*
X329239Y316979D01*
X329235Y316949D01*
X329218Y316919D01*
X329213Y316910D01*
X329200Y316893D01*
X329183Y316871D01*
X329157Y316854D01*
X329153Y316850D01*
X329136Y316841D01*
X329110Y316828D01*
X329076Y316815D01*
X329067Y316811D01*
X329046Y316807D01*
X329015Y316803D01*
X328947D01*
X328917Y316807D01*
X328887Y316811D01*
X328302Y316966D01*
Y316962D01*
X328306Y316949D01*
X328310Y316927D01*
X328315Y316897D01*
X328323Y316837D01*
X328336Y316768D01*
Y316764D01*
X328340Y316751D01*
X328345Y316734D01*
X328349Y316712D01*
X328358Y316652D01*
X328370Y316587D01*
Y316583D01*
X328375Y316570D01*
X328379Y316553D01*
X328383Y316532D01*
X328392Y316480D01*
X328405Y316424D01*
Y316420D01*
X328409Y316411D01*
Y316398D01*
X328414Y316381D01*
X328422Y316342D01*
X328431Y316304D01*
Y316299D01*
X328435Y316295D01*
X328439Y316274D01*
X328444Y316244D01*
X328452Y316218D01*
Y316213D01*
X328456Y316196D01*
X328461Y316179D01*
Y316162D01*
Y316158D01*
Y316140D01*
X328456Y316119D01*
X328452Y316093D01*
Y316089D01*
X328448Y316072D01*
X328444Y316054D01*
X328435Y316033D01*
Y316028D01*
X328426Y316016D01*
X328418Y316003D01*
X328401Y315990D01*
X328396Y315985D01*
X328383Y315981D01*
X328366Y315977D01*
X328340Y315973D01*
X328332D01*
X328310Y315977D01*
X328280Y315981D01*
X328250Y315994D01*
X328246Y315998D01*
X328229Y316007D01*
X328207Y316024D01*
X328186Y316046D01*
X328181Y316050D01*
X328168Y316067D01*
X328151Y316089D01*
X328138Y316119D01*
X328134Y316127D01*
X328130Y316145D01*
X328121Y316166D01*
X328113Y316196D01*
Y316200D01*
X328108Y316218D01*
X328104Y316248D01*
X328095Y316282D01*
Y316286D01*
Y316291D01*
X328087Y316317D01*
X328078Y316351D01*
X328065Y316398D01*
Y316403D01*
Y316411D01*
X328061Y316424D01*
X328057Y316437D01*
X328048Y316480D01*
X328035Y316532D01*
Y316536D01*
X328031Y316545D01*
Y316557D01*
X328027Y316575D01*
X328014Y316618D01*
X328005Y316665D01*
Y316669D01*
X328001Y316682D01*
X327996Y316699D01*
X327992Y316721D01*
X327975Y316772D01*
X327962Y316828D01*
Y316833D01*
X327958Y316841D01*
Y316854D01*
X327953Y316867D01*
X327945Y316906D01*
X327936Y316944D01*
Y316953D01*
X327932Y316970D01*
X327928Y316996D01*
X327923Y317022D01*
Y317026D01*
Y317039D01*
X327919Y317056D01*
Y317069D01*
X327915D01*
X327898Y317078D01*
X327876Y317086D01*
X327846Y317095D01*
X327812Y317108D01*
X327773Y317116D01*
X327687Y317142D01*
X327682D01*
X327665Y317146D01*
X327644Y317151D01*
X327618Y317159D01*
X327584Y317164D01*
X327549Y317172D01*
X327472Y317190D01*
X327467D01*
X327455Y317194D01*
X327437D01*
X327412Y317198D01*
X327356Y317211D01*
X327295Y317220D01*
X327283D01*
X327270Y317224D01*
X327253D01*
X327214Y317228D01*
X327141D01*
X327106Y317224D01*
X327068Y317220D01*
X327063D01*
X327059Y317215D01*
X327038Y317211D01*
X327007Y317198D01*
X326977Y317181D01*
X326973Y317177D01*
X326956Y317164D01*
X326934Y317142D01*
X326917Y317112D01*
X326913Y317104D01*
X326908Y317082D01*
X326900Y317048D01*
X326896Y317005D01*
Y317000D01*
Y316987D01*
X326900Y316966D01*
X326904Y316936D01*
X326908Y316906D01*
X326921Y316867D01*
X326934Y316828D01*
X326956Y316790D01*
X326960Y316785D01*
X326969Y316772D01*
X326982Y316751D01*
X326999Y316725D01*
X327020Y316695D01*
X327046Y316661D01*
X327106Y316587D01*
X327111Y316583D01*
X327123Y316570D01*
X327141Y316553D01*
X327167Y316527D01*
X327197Y316497D01*
X327235Y316467D01*
X327313Y316403D01*
X327317Y316398D01*
X327330Y316390D01*
X327351Y316372D01*
X327381Y316351D01*
X327412Y316325D01*
X327450Y316299D01*
X327523Y316244D01*
X327528Y316239D01*
X327545Y316226D01*
X327558Y316205D01*
X327562Y316179D01*
Y316175D01*
Y316170D01*
X327558Y316149D01*
Y316145D01*
X327554Y316136D01*
X327541Y316114D01*
Y316110D01*
X327536Y316106D01*
X327515Y316089D01*
X327510Y316084D01*
X327502Y316080D01*
X327493Y316076D01*
X327446D01*
X327429Y316080D01*
X327403Y316089D01*
X327369Y316102D01*
X327330Y316114D01*
X327287Y316132D01*
X327188Y316179D01*
X327184Y316183D01*
X327167Y316192D01*
X327141Y316205D01*
X327106Y316222D01*
X327068Y316244D01*
X327025Y316269D01*
X326930Y316321D01*
X326921Y316325D01*
X326900Y316338D01*
X326874Y316360D01*
X326840Y316390D01*
X326831Y316398D01*
X326814Y316416D01*
X326784Y316441D01*
X326754Y316476D01*
X326745Y316484D01*
X326728Y316506D01*
X326706Y316540D01*
X326676Y316579D01*
Y316583D01*
X326672Y316587D01*
X326655Y316609D01*
X326633Y316639D01*
X326612Y316673D01*
Y316678D01*
X326603Y316686D01*
X326595Y316704D01*
X326586Y316725D01*
X326573Y316751D01*
X326565Y316781D01*
X326543Y316850D01*
Y316854D01*
X326539Y316867D01*
Y316884D01*
X326534Y316906D01*
X326530Y316966D01*
X326526Y317030D01*
Y317035D01*
Y317052D01*
X326530Y317078D01*
Y317112D01*
X326539Y317146D01*
X326547Y317190D01*
X326556Y317228D01*
X326573Y317271D01*
X326577Y317276D01*
X326582Y317288D01*
X326595Y317306D01*
X326607Y317331D01*
X326651Y317387D01*
X326706Y317447D01*
X326711Y317452D01*
X326724Y317460D01*
X326741Y317473D01*
X326762Y317491D01*
X326792Y317508D01*
X326827Y317525D01*
X326904Y317559D01*
X326908D01*
X326926Y317564D01*
X326947Y317568D01*
X326977Y317577D01*
X327012Y317581D01*
X327055Y317589D01*
X327145Y317594D01*
X327175D01*
X327209Y317589D01*
X327257D01*
X327313Y317585D01*
X327373Y317577D01*
X327442Y317568D01*
X327510Y317555D01*
X327519D01*
X327545Y317546D01*
X327579Y317542D01*
X327627Y317529D01*
X327682Y317516D01*
X327743Y317503D01*
X327872Y317473D01*
Y317478D01*
Y317482D01*
X327876Y317508D01*
X327880Y317542D01*
X327889Y317581D01*
Y317585D01*
X327893Y317589D01*
X327898Y317615D01*
X327910Y317650D01*
X327928Y317684D01*
X327932Y317693D01*
X327945Y317710D01*
X327962Y317736D01*
X327988Y317761D01*
X327996Y317766D01*
X328014Y317774D01*
X328039Y317783D01*
X328074Y317787D01*
X328087D01*
X328100Y317783D01*
D02*
G37*
G36*
X326736Y320303D02*
X326762Y320298D01*
X326788Y320290D01*
X326792Y320286D01*
X326805Y320277D01*
X326822Y320264D01*
X326840Y320247D01*
X326844Y320243D01*
X326853Y320230D01*
X326866Y320212D01*
X326874Y320191D01*
X326878Y320187D01*
X326883Y320174D01*
X326891Y320157D01*
X326900Y320135D01*
X326904Y320131D01*
X326908Y320122D01*
X326921Y320105D01*
X326939Y320079D01*
X326956Y320053D01*
X326982Y320023D01*
X327033Y319950D01*
X327038Y319946D01*
X327046Y319933D01*
X327063Y319911D01*
X327085Y319881D01*
X327111Y319851D01*
X327141Y319812D01*
X327205Y319735D01*
X327209Y319731D01*
X327222Y319718D01*
X327240Y319692D01*
X327261Y319666D01*
X327291Y319632D01*
X327321Y319593D01*
X327386Y319516D01*
X327390Y319512D01*
X327403Y319499D01*
X327420Y319477D01*
X327446Y319447D01*
X327472Y319417D01*
X327502Y319378D01*
X327566Y319305D01*
X327652Y319211D01*
X327657D01*
X327670Y319215D01*
X327691Y319223D01*
X327713Y319232D01*
X327773Y319253D01*
X327833Y319275D01*
X327837D01*
X327846Y319279D01*
X327859Y319288D01*
X327880Y319292D01*
X327923Y319314D01*
X327971Y319339D01*
X327975D01*
X327979Y319344D01*
X328009Y319357D01*
X328044Y319378D01*
X328082Y319404D01*
X328087D01*
X328091Y319408D01*
X328117Y319426D01*
X328155Y319447D01*
X328199Y319473D01*
X328203D01*
X328207Y319477D01*
X328229Y319490D01*
X328254Y319507D01*
X328280Y319524D01*
X328285Y319529D01*
X328297Y319533D01*
X328319Y319537D01*
X328340Y319542D01*
X328353D01*
X328366Y319537D01*
X328388Y319533D01*
X328392Y319529D01*
X328409Y319524D01*
X328426Y319512D01*
X328448Y319499D01*
X328452Y319494D01*
X328465Y319481D01*
X328482Y319464D01*
X328495Y319443D01*
X328500Y319438D01*
X328508Y319421D01*
X328512Y319395D01*
X328517Y319361D01*
Y319357D01*
Y319348D01*
Y319335D01*
X328512Y319322D01*
X328504Y319284D01*
X328487Y319245D01*
Y319241D01*
X328482Y319236D01*
X328469Y319215D01*
X328444Y319185D01*
X328414Y319155D01*
X328405Y319146D01*
X328388Y319129D01*
X328358Y319107D01*
X328319Y319086D01*
X328310Y319081D01*
X328289Y319069D01*
X328259Y319051D01*
X328224Y319030D01*
X328220Y319026D01*
X328207Y319021D01*
X328186Y319013D01*
X328155Y319004D01*
X328147Y319000D01*
X328130Y318995D01*
X328104Y318987D01*
X328069Y318978D01*
X328061Y318974D01*
X328039Y318970D01*
X328009Y318957D01*
X327975Y318948D01*
X327966Y318944D01*
X327949Y318940D01*
X327923Y318935D01*
X327898Y318931D01*
X327902Y318927D01*
X327915Y318914D01*
X327932Y318897D01*
X327953Y318871D01*
X327983Y318845D01*
X328014Y318815D01*
X328082Y318750D01*
X328087Y318746D01*
X328100Y318733D01*
X328121Y318716D01*
X328147Y318694D01*
X328177Y318664D01*
X328216Y318634D01*
X328259Y318596D01*
X328306Y318557D01*
X328315Y318553D01*
X328332Y318535D01*
X328358Y318514D01*
X328388Y318488D01*
X328392D01*
X328396Y318479D01*
X328418Y318462D01*
X328444Y318441D01*
X328474Y318411D01*
X328482Y318402D01*
X328495Y318385D01*
X328517Y318363D01*
X328538Y318333D01*
X328542Y318325D01*
X328551Y318307D01*
X328560Y318277D01*
X328564Y318243D01*
Y318239D01*
Y318230D01*
Y318217D01*
X328560Y318196D01*
X328547Y318161D01*
X328534Y318140D01*
X328521Y318127D01*
X328512Y318123D01*
X328495Y318110D01*
X328461Y318097D01*
X328414Y318092D01*
X328388D01*
X328370Y318097D01*
X328332Y318101D01*
X328285Y318118D01*
X328280D01*
X328276Y318123D01*
X328250Y318135D01*
X328220Y318157D01*
X328190Y318183D01*
Y318187D01*
X328181Y318191D01*
X328173Y318204D01*
X328160Y318221D01*
X328121Y318265D01*
X328074Y318316D01*
X328069Y318320D01*
X328061Y318329D01*
X328048Y318342D01*
X328031Y318363D01*
X327988Y318406D01*
X327932Y318462D01*
X327928Y318467D01*
X327919Y318475D01*
X327906Y318488D01*
X327885Y318510D01*
X327842Y318553D01*
X327786Y318608D01*
X327781Y318613D01*
X327773Y318621D01*
X327760Y318634D01*
X327743Y318652D01*
X327700Y318694D01*
X327652Y318742D01*
X327648Y318746D01*
X327640Y318755D01*
X327622Y318772D01*
X327605Y318785D01*
X327601Y318789D01*
X327592Y318793D01*
X327571Y318798D01*
X327549Y318802D01*
X327536D01*
X327515Y318798D01*
X327493Y318793D01*
X327489Y318789D01*
X327476Y318785D01*
X327455Y318776D01*
X327429Y318763D01*
X327425Y318759D01*
X327407Y318750D01*
X327381Y318742D01*
X327356Y318729D01*
X327351Y318725D01*
X327334Y318720D01*
X327313Y318707D01*
X327291Y318699D01*
X327287D01*
X327283Y318694D01*
X327270Y318690D01*
X327253Y318682D01*
X327209Y318660D01*
X327158Y318630D01*
X327154Y318626D01*
X327145Y318621D01*
X327128Y318613D01*
X327111Y318600D01*
X327055Y318570D01*
X326994Y318540D01*
X326990Y318535D01*
X326982Y318531D01*
X326964Y318523D01*
X326943Y318514D01*
X326887Y318488D01*
X326822Y318462D01*
X326818D01*
X326810Y318458D01*
X326792Y318449D01*
X326771Y318445D01*
X326719Y318432D01*
X326659Y318428D01*
X326629D01*
X326599Y318432D01*
X326565Y318441D01*
X326556Y318445D01*
X326539Y318449D01*
X326517Y318462D01*
X326491Y318479D01*
X326487Y318484D01*
X326474Y318492D01*
X326457Y318510D01*
X326444Y318531D01*
X326440Y318535D01*
X326435Y318548D01*
X326431Y318566D01*
X326427Y318583D01*
Y318587D01*
Y318591D01*
Y318613D01*
X326431Y318643D01*
X326440Y318673D01*
Y318677D01*
X326448Y318690D01*
X326457Y318707D01*
X326474Y318725D01*
X326479Y318729D01*
X326491Y318738D01*
X326509Y318750D01*
X326534Y318763D01*
X326539Y318768D01*
X326556Y318772D01*
X326582Y318785D01*
X326616Y318798D01*
X326620D01*
X326629Y318802D01*
X326646Y318806D01*
X326668Y318815D01*
X326694Y318828D01*
X326724Y318841D01*
X326792Y318871D01*
X326797D01*
X326810Y318879D01*
X326831Y318888D01*
X326857Y318897D01*
X326887Y318910D01*
X326921Y318927D01*
X326990Y318961D01*
X326994D01*
X327007Y318970D01*
X327025Y318978D01*
X327050Y318987D01*
X327106Y319017D01*
X327171Y319047D01*
X327175D01*
X327184Y319056D01*
X327201Y319060D01*
X327218Y319073D01*
X327265Y319094D01*
X327304Y319112D01*
Y319116D01*
X327295Y319120D01*
X327274Y319150D01*
X327244Y319189D01*
X327205Y319232D01*
Y319236D01*
X327197Y319245D01*
X327188Y319258D01*
X327171Y319275D01*
X327154Y319297D01*
X327132Y319322D01*
X327080Y319391D01*
X327076Y319395D01*
X327068Y319408D01*
X327050Y319430D01*
X327029Y319460D01*
X326999Y319494D01*
X326964Y319537D01*
X326926Y319585D01*
X326883Y319640D01*
X326878Y319649D01*
X326861Y319666D01*
X326835Y319701D01*
X326801Y319744D01*
X326758Y319804D01*
X326706Y319868D01*
X326646Y319946D01*
X326582Y320032D01*
X326577Y320040D01*
X326565Y320066D01*
X326547Y320105D01*
X326543Y320157D01*
Y320161D01*
Y320178D01*
X326547Y320199D01*
X326556Y320221D01*
X326560Y320225D01*
X326569Y320238D01*
X326595Y320268D01*
X326599Y320273D01*
X326612Y320281D01*
X326629Y320290D01*
X326651Y320298D01*
X326655D01*
X326668Y320303D01*
X326689Y320307D01*
X326719D01*
X326736Y320303D01*
D02*
G37*
G36*
X342689Y254775D02*
X342720Y254767D01*
X342748Y254747D01*
X342752Y254743D01*
X342764Y254727D01*
X342776Y254704D01*
X342779Y254668D01*
Y254664D01*
Y254657D01*
Y254641D01*
X342776Y254621D01*
Y254617D01*
Y254606D01*
X342768Y254578D01*
Y254574D01*
X342760Y254558D01*
X342752Y254535D01*
X342736Y254500D01*
X342720Y254460D01*
X342701Y254417D01*
X342677Y254366D01*
X342650Y254311D01*
X342646Y254303D01*
X342638Y254283D01*
X342622Y254256D01*
X342606Y254217D01*
X342583Y254169D01*
X342555Y254114D01*
X342528Y254055D01*
X342500Y253993D01*
X342496Y253985D01*
X342489Y253965D01*
X342473Y253934D01*
X342453Y253894D01*
X342430Y253843D01*
X342402Y253792D01*
X342375Y253733D01*
X342343Y253670D01*
X342339Y253662D01*
X342331Y253643D01*
X342316Y253611D01*
X342292Y253568D01*
X342268Y253517D01*
X342241Y253462D01*
X342182Y253344D01*
X342178Y253336D01*
X342166Y253317D01*
X342151Y253285D01*
X342131Y253246D01*
X342103Y253203D01*
X342076Y253151D01*
X342013Y253041D01*
X342009Y253034D01*
X341997Y253018D01*
X341982Y252990D01*
X341962Y252955D01*
X341934Y252912D01*
X341907Y252869D01*
X341848Y252774D01*
X341844Y252770D01*
X341836Y252755D01*
X341817Y252731D01*
X341797Y252699D01*
X341765Y252656D01*
X341734Y252609D01*
X341691Y252554D01*
X341648Y252491D01*
X341644Y252483D01*
X341624Y252460D01*
X341597Y252424D01*
X341557Y252377D01*
X341510Y252318D01*
X341455Y252248D01*
X341388Y252173D01*
X341314Y252086D01*
X341310Y252082D01*
X341294Y252067D01*
X341274Y252043D01*
X341251Y252020D01*
X341247Y252016D01*
X341231Y252000D01*
X341207Y251980D01*
X341180Y251961D01*
X341172Y251957D01*
X341156Y251945D01*
X341133Y251929D01*
X341101Y251918D01*
X341093Y251913D01*
X341074Y251910D01*
X341046Y251906D01*
X341011Y251902D01*
X340983D01*
X340968Y251906D01*
X340924Y251913D01*
X340877Y251933D01*
X340873D01*
X340869Y251937D01*
X340846Y251957D01*
X340810Y251980D01*
X340775Y252012D01*
Y252016D01*
X340767Y252020D01*
X340748Y252043D01*
X340724Y252075D01*
X340697Y252118D01*
Y252122D01*
X340693Y252130D01*
X340685Y252141D01*
X340677Y252153D01*
X340661Y252193D01*
X340641Y252232D01*
Y252236D01*
X340638Y252244D01*
X340630Y252259D01*
X340622Y252279D01*
X340602Y252326D01*
X340582Y252381D01*
Y252385D01*
X340579Y252397D01*
X340575Y252413D01*
X340571Y252432D01*
X340563Y252460D01*
X340555Y252487D01*
X340543Y252550D01*
Y252554D01*
X340539Y252566D01*
Y252586D01*
X340535Y252605D01*
X340531Y252633D01*
X340528Y252664D01*
X340520Y252731D01*
Y252735D01*
Y252747D01*
X340516Y252766D01*
Y252790D01*
Y252817D01*
X340512Y252849D01*
Y252916D01*
Y252920D01*
Y252927D01*
Y252947D01*
Y252963D01*
Y252982D01*
Y252986D01*
Y252994D01*
Y253006D01*
X340516Y253022D01*
Y253045D01*
Y253069D01*
Y253128D01*
Y253132D01*
Y253144D01*
Y253163D01*
X340520Y253187D01*
Y253218D01*
Y253250D01*
Y253328D01*
Y253332D01*
Y253348D01*
Y253372D01*
X340524Y253399D01*
Y253434D01*
Y253478D01*
Y253564D01*
Y253568D01*
Y253588D01*
Y253611D01*
X340528Y253643D01*
Y253682D01*
Y253725D01*
Y253816D01*
Y253823D01*
Y253839D01*
Y253863D01*
Y253894D01*
Y253934D01*
Y253977D01*
Y254063D01*
Y254154D01*
Y254158D01*
Y254162D01*
Y254181D01*
Y254209D01*
X340524Y254236D01*
Y254244D01*
X340520Y254260D01*
X340516Y254279D01*
X340512Y254303D01*
Y254307D01*
X340508Y254323D01*
X340504Y254342D01*
X340500Y254362D01*
Y254366D01*
Y254382D01*
X340496Y254405D01*
Y254433D01*
Y254437D01*
Y254440D01*
Y254460D01*
X340500Y254492D01*
X340504Y254523D01*
Y254527D01*
X340508Y254531D01*
X340512Y254551D01*
X340524Y254578D01*
X340535Y254606D01*
X340539Y254613D01*
X340551Y254625D01*
X340567Y254645D01*
X340586Y254661D01*
X340594Y254664D01*
X340610Y254672D01*
X340641Y254680D01*
X340677Y254684D01*
X340704D01*
X340720Y254680D01*
X340759Y254668D01*
X340795Y254649D01*
X340799D01*
X340803Y254645D01*
X340822Y254625D01*
X340846Y254602D01*
X340865Y254566D01*
Y254562D01*
X340869Y254558D01*
X340881Y254535D01*
X340893Y254496D01*
X340901Y254452D01*
Y254448D01*
Y254440D01*
X340905Y254429D01*
Y254413D01*
X340909Y254374D01*
Y254327D01*
Y254323D01*
Y254315D01*
Y254303D01*
Y254283D01*
X340905Y254260D01*
Y254232D01*
X340901Y254197D01*
X340897Y254154D01*
Y254150D01*
Y254134D01*
X340893Y254110D01*
Y254075D01*
X340889Y254032D01*
X340885Y253985D01*
X340881Y253930D01*
X340877Y253867D01*
Y253859D01*
Y253835D01*
X340873Y253800D01*
X340869Y253753D01*
X340865Y253694D01*
X340862Y253623D01*
X340858Y253544D01*
X340854Y253462D01*
Y253458D01*
Y253450D01*
Y253438D01*
Y253423D01*
Y253399D01*
X340850Y253376D01*
Y253313D01*
Y253238D01*
X340846Y253155D01*
Y253061D01*
Y252959D01*
Y252955D01*
Y252943D01*
Y252927D01*
Y252904D01*
X340850Y252872D01*
Y252841D01*
X340854Y252762D01*
Y252759D01*
Y252743D01*
X340858Y252723D01*
X340862Y252696D01*
X340865Y252664D01*
X340869Y252633D01*
X340881Y252558D01*
Y252554D01*
X340885Y252542D01*
X340893Y252523D01*
X340897Y252499D01*
X340920Y252444D01*
X340948Y252385D01*
X340952Y252381D01*
X340956Y252373D01*
X340980Y252346D01*
X341015Y252318D01*
X341038Y252303D01*
X341062Y252295D01*
X341066Y252299D01*
X341070Y252303D01*
X341090Y252322D01*
X341125Y252358D01*
X341168Y252401D01*
X341215Y252452D01*
X341270Y252511D01*
X341325Y252574D01*
X341380Y252644D01*
Y252648D01*
X341388Y252652D01*
X341396Y252664D01*
X341404Y252676D01*
X341435Y252715D01*
X341471Y252766D01*
X341510Y252821D01*
X341557Y252888D01*
X341600Y252959D01*
X341648Y253030D01*
Y253034D01*
X341652Y253038D01*
X341659Y253049D01*
X341667Y253065D01*
X341691Y253100D01*
X341718Y253151D01*
X341750Y253210D01*
X341785Y253273D01*
X341860Y253411D01*
Y253415D01*
X341864Y253419D01*
X341876Y253442D01*
X341895Y253478D01*
X341919Y253525D01*
X341942Y253580D01*
X341974Y253635D01*
X342033Y253757D01*
X342037Y253765D01*
X342044Y253780D01*
X342060Y253812D01*
X342076Y253847D01*
X342096Y253890D01*
X342119Y253934D01*
X342162Y254028D01*
X342166Y254032D01*
X342174Y254047D01*
X342182Y254071D01*
X342198Y254103D01*
X342214Y254138D01*
X342229Y254177D01*
X342265Y254256D01*
X342268Y254260D01*
X342272Y254275D01*
X342280Y254295D01*
X342292Y254319D01*
X342304Y254350D01*
X342320Y254385D01*
X342347Y254452D01*
Y254456D01*
X342355Y254468D01*
X342359Y254484D01*
X342371Y254507D01*
X342390Y254562D01*
X342414Y254625D01*
Y254629D01*
X342418Y254641D01*
X342426Y254657D01*
X342434Y254680D01*
X342438Y254688D01*
X342449Y254700D01*
X342465Y254724D01*
X342493Y254743D01*
X342496D01*
X342500Y254747D01*
X342512Y254755D01*
X342532Y254763D01*
X342551Y254767D01*
X342579Y254775D01*
X342610Y254779D01*
X342661D01*
X342689Y254775D01*
D02*
G37*
G36*
X344894Y253600D02*
X344917Y253596D01*
X344941Y253588D01*
X344968Y253572D01*
X344996Y253556D01*
X345020Y253533D01*
X345023Y253529D01*
X345031Y253521D01*
X345039Y253505D01*
X345055Y253485D01*
X345067Y253458D01*
X345075Y253427D01*
X345082Y253395D01*
X345086Y253356D01*
Y253352D01*
Y253332D01*
X345082Y253309D01*
X345075Y253277D01*
X345063Y253242D01*
X345043Y253206D01*
X345020Y253167D01*
X344984Y253128D01*
X344980Y253124D01*
X344968Y253112D01*
X344945Y253097D01*
X344917Y253081D01*
X344886Y253065D01*
X344847Y253049D01*
X344803Y253038D01*
X344756Y253034D01*
X344741D01*
X344721Y253038D01*
X344697Y253041D01*
X344674Y253049D01*
X344642Y253061D01*
X344615Y253077D01*
X344587Y253100D01*
X344583Y253104D01*
X344575Y253112D01*
X344564Y253128D01*
X344552Y253148D01*
X344540Y253171D01*
X344528Y253203D01*
X344520Y253234D01*
X344516Y253269D01*
Y253277D01*
Y253293D01*
X344520Y253317D01*
X344528Y253348D01*
X344544Y253383D01*
X344560Y253423D01*
X344587Y253462D01*
X344623Y253501D01*
X344626Y253505D01*
X344642Y253517D01*
X344662Y253533D01*
X344693Y253552D01*
X344729Y253572D01*
X344768Y253588D01*
X344811Y253600D01*
X344858Y253603D01*
X344874D01*
X344894Y253600D01*
D02*
G37*
G36*
X322744Y302847D02*
X322788Y302842D01*
X322837Y302827D01*
X322891Y302812D01*
X322945Y302788D01*
X322994Y302758D01*
X322999Y302753D01*
X323014Y302744D01*
X323039Y302719D01*
X323068Y302689D01*
X323103Y302655D01*
X323137Y302611D01*
X323171Y302561D01*
X323201Y302502D01*
X323206Y302493D01*
X323221Y302468D01*
X323236Y302438D01*
X323250Y302399D01*
X323255Y302389D01*
X323265Y302370D01*
X323280Y302335D01*
X323290Y302291D01*
X323294Y302281D01*
X323299Y302256D01*
X323304Y302217D01*
X323314Y302173D01*
Y302168D01*
Y302163D01*
X323319Y302148D01*
Y302129D01*
X323324Y302084D01*
Y302025D01*
Y302015D01*
Y301991D01*
X323319Y301956D01*
Y301907D01*
X323309Y301848D01*
X323299Y301784D01*
X323285Y301715D01*
X323265Y301641D01*
X323260Y301632D01*
X323255Y301607D01*
X323240Y301568D01*
X323221Y301518D01*
X323196Y301459D01*
X323167Y301395D01*
X323132Y301327D01*
X323093Y301258D01*
X323088Y301248D01*
X323073Y301228D01*
X323048Y301189D01*
X323019Y301145D01*
X322980Y301090D01*
X322935Y301031D01*
X322886Y300967D01*
X322827Y300903D01*
X322822Y300899D01*
X322802Y300874D01*
X322768Y300844D01*
X322729Y300805D01*
X322675Y300756D01*
X322616Y300707D01*
X322552Y300653D01*
X322483Y300598D01*
X322478Y300593D01*
X322458Y300584D01*
X322433Y300564D01*
X322399Y300544D01*
X322355Y300525D01*
X322310Y300500D01*
X322256Y300475D01*
X322197Y300456D01*
X322192D01*
X322168Y300446D01*
X322138Y300441D01*
X322094Y300431D01*
X322045Y300421D01*
X321986Y300416D01*
X321917Y300407D01*
X321818D01*
X321784Y300411D01*
X321740D01*
X321691Y300416D01*
X321637Y300426D01*
X321528Y300456D01*
X321523D01*
X321509Y300466D01*
X321484Y300475D01*
X321449Y300490D01*
X321381Y300530D01*
X321307Y300589D01*
X321302Y300593D01*
X321292Y300603D01*
X321277Y300623D01*
X321258Y300653D01*
X321238Y300682D01*
X321213Y300721D01*
X321174Y300805D01*
Y300810D01*
X321169Y300830D01*
X321159Y300854D01*
X321154Y300889D01*
X321145Y300933D01*
X321135Y300977D01*
X321130Y301031D01*
Y301090D01*
Y301095D01*
Y301115D01*
Y301145D01*
X321135Y301184D01*
X321140Y301233D01*
X321145Y301287D01*
X321154Y301346D01*
X321169Y301410D01*
Y301415D01*
X321179Y301435D01*
X321184Y301464D01*
X321199Y301504D01*
X321213Y301553D01*
X321233Y301602D01*
X321282Y301720D01*
X321287Y301730D01*
X321297Y301750D01*
X321312Y301779D01*
X321336Y301823D01*
X321361Y301873D01*
X321395Y301927D01*
X321435Y301986D01*
X321479Y302050D01*
X321484Y302060D01*
X321499Y302079D01*
X321528Y302109D01*
X321563Y302153D01*
X321602Y302202D01*
X321651Y302256D01*
X321710Y302315D01*
X321769Y302375D01*
X321779Y302384D01*
X321799Y302404D01*
X321838Y302434D01*
X321883Y302473D01*
X321941Y302517D01*
X322010Y302571D01*
X322084Y302621D01*
X322168Y302675D01*
X322173Y302680D01*
X322192Y302689D01*
X322227Y302704D01*
X322276Y302724D01*
X322281D01*
X322291Y302729D01*
X322306Y302734D01*
X322325Y302739D01*
X322370Y302748D01*
X322429Y302753D01*
X322433Y302758D01*
X322448Y302768D01*
X322468Y302783D01*
X322498Y302803D01*
X322532Y302822D01*
X322576Y302837D01*
X322625Y302847D01*
X322679Y302852D01*
X322709D01*
X322744Y302847D01*
D02*
G37*
G36*
X333633Y290932D02*
X333671Y290920D01*
X333719Y290907D01*
X333779Y290885D01*
X333848Y290859D01*
X333925Y290825D01*
X334007Y290791D01*
X334097Y290748D01*
X334187Y290700D01*
X334278Y290644D01*
X334368Y290584D01*
X334458Y290515D01*
X334544Y290447D01*
X334626Y290365D01*
X334699Y290279D01*
X334703Y290275D01*
X334716Y290257D01*
X334733Y290232D01*
X334759Y290193D01*
X334785Y290146D01*
X334815Y290090D01*
X334850Y290025D01*
X334884Y289956D01*
X334923Y289875D01*
X334953Y289784D01*
X334987Y289690D01*
X335013Y289587D01*
X335039Y289475D01*
X335056Y289363D01*
X335069Y289238D01*
X335073Y289114D01*
Y289105D01*
Y289084D01*
Y289045D01*
X335069Y288993D01*
X335065Y288933D01*
X335056Y288864D01*
X335047Y288787D01*
X335039Y288701D01*
X335021Y288611D01*
X335004Y288516D01*
X334979Y288421D01*
X334953Y288322D01*
X334918Y288228D01*
X334880Y288129D01*
X334837Y288039D01*
X334785Y287953D01*
X334781Y287948D01*
X334772Y287935D01*
X334755Y287910D01*
X334729Y287879D01*
X334703Y287841D01*
X334665Y287802D01*
X334622Y287755D01*
X334570Y287703D01*
X334514Y287647D01*
X334454Y287591D01*
X334385Y287536D01*
X334308Y287480D01*
X334226Y287428D01*
X334140Y287372D01*
X334045Y287325D01*
X333946Y287278D01*
X333938Y287273D01*
X333921Y287269D01*
X333891Y287256D01*
X333852Y287243D01*
X333800Y287226D01*
X333740Y287204D01*
X333671Y287183D01*
X333594Y287161D01*
X333508Y287140D01*
X333418Y287118D01*
X333319Y287101D01*
X333215Y287080D01*
X333108Y287067D01*
X332996Y287054D01*
X332880Y287050D01*
X332764Y287045D01*
X332695D01*
X332648Y287050D01*
X332588Y287054D01*
X332519Y287058D01*
X332441Y287067D01*
X332355Y287080D01*
X332265Y287093D01*
X332171Y287110D01*
X332067Y287131D01*
X331968Y287157D01*
X331865Y287187D01*
X331762Y287222D01*
X331663Y287260D01*
X331564Y287308D01*
X331560Y287312D01*
X331543Y287320D01*
X331513Y287333D01*
X331478Y287355D01*
X331435Y287385D01*
X331388Y287415D01*
X331332Y287454D01*
X331272Y287501D01*
X331212Y287548D01*
X331147Y287604D01*
X331083Y287669D01*
X331018Y287733D01*
X330954Y287806D01*
X330893Y287884D01*
X330833Y287965D01*
X330782Y288056D01*
X330777Y288060D01*
X330769Y288077D01*
X330756Y288103D01*
X330739Y288142D01*
X330721Y288185D01*
X330696Y288241D01*
X330674Y288301D01*
X330648Y288374D01*
X330623Y288447D01*
X330601Y288529D01*
X330575Y288619D01*
X330558Y288714D01*
X330541Y288813D01*
X330528Y288912D01*
X330519Y289019D01*
X330515Y289126D01*
Y289135D01*
Y289157D01*
Y289191D01*
X330519Y289238D01*
X330524Y289294D01*
X330532Y289359D01*
X330545Y289432D01*
X330558Y289513D01*
X330575Y289595D01*
X330597Y289686D01*
X330627Y289780D01*
X330657Y289870D01*
X330696Y289965D01*
X330743Y290060D01*
X330795Y290150D01*
X330855Y290236D01*
X330859Y290240D01*
X330872Y290257D01*
X330889Y290279D01*
X330915Y290309D01*
X330949Y290348D01*
X330992Y290386D01*
X331044Y290434D01*
X331100Y290485D01*
X331164Y290537D01*
X331233Y290588D01*
X331311Y290640D01*
X331397Y290692D01*
X331487Y290743D01*
X331586Y290791D01*
X331689Y290829D01*
X331801Y290868D01*
X331934Y290292D01*
X331930D01*
X331913Y290283D01*
X331887Y290275D01*
X331857Y290262D01*
X331818Y290249D01*
X331771Y290227D01*
X331723Y290206D01*
X331667Y290180D01*
X331556Y290115D01*
X331440Y290038D01*
X331332Y289948D01*
X331280Y289896D01*
X331238Y289845D01*
X331233Y289840D01*
X331229Y289832D01*
X331216Y289814D01*
X331203Y289793D01*
X331186Y289763D01*
X331169Y289728D01*
X331147Y289690D01*
X331126Y289643D01*
X331104Y289595D01*
X331083Y289539D01*
X331066Y289479D01*
X331048Y289415D01*
X331023Y289273D01*
X331018Y289195D01*
X331014Y289114D01*
Y289109D01*
Y289092D01*
Y289066D01*
X331018Y289028D01*
X331023Y288985D01*
X331027Y288933D01*
X331035Y288877D01*
X331044Y288817D01*
X331074Y288679D01*
X331091Y288611D01*
X331117Y288537D01*
X331147Y288469D01*
X331177Y288396D01*
X331216Y288327D01*
X331259Y288262D01*
X331263Y288258D01*
X331272Y288249D01*
X331285Y288232D01*
X331302Y288206D01*
X331328Y288180D01*
X331358Y288146D01*
X331392Y288112D01*
X331431Y288077D01*
X331478Y288034D01*
X331526Y287996D01*
X331581Y287957D01*
X331642Y287918D01*
X331702Y287879D01*
X331771Y287845D01*
X331839Y287815D01*
X331917Y287785D01*
X331921D01*
X331934Y287781D01*
X331956Y287772D01*
X331986Y287763D01*
X332024Y287755D01*
X332067Y287742D01*
X332119Y287729D01*
X332175Y287716D01*
X332235Y287703D01*
X332304Y287690D01*
X332446Y287669D01*
X332601Y287652D01*
X332760Y287647D01*
X332816D01*
X332854Y287652D01*
X332902D01*
X332962Y287656D01*
X333022Y287660D01*
X333095Y287669D01*
X333168Y287677D01*
X333246Y287686D01*
X333413Y287716D01*
X333581Y287755D01*
X333744Y287811D01*
X333749D01*
X333762Y287819D01*
X333783Y287828D01*
X333813Y287841D01*
X333848Y287858D01*
X333886Y287879D01*
X333977Y287935D01*
X334080Y288008D01*
X334183Y288094D01*
X334282Y288198D01*
X334325Y288258D01*
X334368Y288318D01*
X334372Y288322D01*
X334377Y288335D01*
X334385Y288352D01*
X334398Y288378D01*
X334415Y288408D01*
X334432Y288447D01*
X334450Y288490D01*
X334471Y288542D01*
X334488Y288593D01*
X334510Y288653D01*
X334540Y288778D01*
X334566Y288920D01*
X334570Y288993D01*
X334574Y289066D01*
Y289071D01*
Y289088D01*
Y289114D01*
X334570Y289148D01*
X334566Y289191D01*
X334561Y289238D01*
X334553Y289294D01*
X334540Y289354D01*
X334506Y289483D01*
X334484Y289552D01*
X334458Y289625D01*
X334424Y289694D01*
X334385Y289763D01*
X334342Y289832D01*
X334295Y289896D01*
X334291Y289900D01*
X334282Y289909D01*
X334265Y289931D01*
X334243Y289952D01*
X334213Y289978D01*
X334174Y290012D01*
X334131Y290047D01*
X334084Y290081D01*
X334028Y290120D01*
X333964Y290159D01*
X333895Y290197D01*
X333822Y290236D01*
X333740Y290270D01*
X333650Y290300D01*
X333555Y290331D01*
X333456Y290356D01*
X333602Y290941D01*
X333611D01*
X333633Y290932D01*
D02*
G37*
G36*
X343923Y254775D02*
X343943Y254767D01*
X343966Y254751D01*
X343982Y254735D01*
X343998Y254708D01*
X344002Y254672D01*
Y254668D01*
Y254657D01*
X343998Y254641D01*
X343990Y254617D01*
X343982Y254586D01*
X343966Y254547D01*
X343947Y254503D01*
X343919Y254452D01*
X343915Y254448D01*
X343911Y254437D01*
X343899Y254417D01*
X343884Y254389D01*
X343864Y254354D01*
X343844Y254307D01*
X343817Y254256D01*
X343786Y254193D01*
X343754Y254122D01*
X343719Y254040D01*
X343679Y253949D01*
X343636Y253851D01*
X343593Y253745D01*
X343546Y253627D01*
X343499Y253497D01*
X343447Y253360D01*
Y253356D01*
X343444Y253352D01*
X343440Y253340D01*
X343436Y253324D01*
X343420Y253285D01*
X343404Y253234D01*
X343381Y253167D01*
X343357Y253093D01*
X343330Y253010D01*
X343302Y252920D01*
X343271Y252825D01*
X343243Y252723D01*
X343188Y252519D01*
X343141Y252318D01*
X343121Y252220D01*
X343106Y252130D01*
Y252126D01*
X343102Y252118D01*
Y252106D01*
X343094Y252090D01*
X343074Y252055D01*
X343058Y252039D01*
X343039Y252024D01*
X343035D01*
X343031Y252020D01*
X343019Y252012D01*
X343003Y252008D01*
X342960Y251992D01*
X342909Y251988D01*
X342901D01*
X342882Y251992D01*
X342858Y251996D01*
X342827Y252008D01*
X342795Y252024D01*
X342772Y252051D01*
X342752Y252086D01*
X342744Y252134D01*
Y252138D01*
Y252145D01*
Y252161D01*
X342748Y252185D01*
X342752Y252216D01*
X342760Y252256D01*
X342768Y252303D01*
X342779Y252358D01*
X342791Y252420D01*
X342811Y252495D01*
X342834Y252582D01*
X342862Y252676D01*
X342893Y252782D01*
X342929Y252900D01*
X342972Y253026D01*
X343019Y253167D01*
Y253171D01*
X343023Y253175D01*
X343027Y253187D01*
X343031Y253203D01*
X343047Y253242D01*
X343066Y253297D01*
X343090Y253364D01*
X343121Y253438D01*
X343153Y253525D01*
X343188Y253615D01*
X343227Y253713D01*
X343271Y253812D01*
X343361Y254020D01*
X343412Y254122D01*
X343459Y254220D01*
X343506Y254315D01*
X343558Y254405D01*
X343554D01*
X343546Y254401D01*
X343534Y254397D01*
X343514Y254389D01*
X343483Y254382D01*
X343447Y254366D01*
X343404Y254350D01*
X343349Y254330D01*
X343345D01*
X343334Y254327D01*
X343318Y254319D01*
X343294Y254311D01*
X343267Y254299D01*
X343239Y254291D01*
X343168Y254268D01*
X343098Y254240D01*
X343031Y254220D01*
X343000Y254213D01*
X342972Y254205D01*
X342948Y254201D01*
X342921D01*
X342897Y254205D01*
X342866Y254217D01*
X342838Y254236D01*
X342834Y254244D01*
X342823Y254260D01*
X342811Y254287D01*
X342807Y254323D01*
Y254327D01*
X342811Y254342D01*
X342815Y254366D01*
X342823Y254397D01*
X342834Y254429D01*
X342858Y254460D01*
X342885Y254492D01*
X342925Y254519D01*
X342933Y254523D01*
X342948Y254531D01*
X342964Y254539D01*
X342984Y254547D01*
X343007Y254555D01*
X343035Y254566D01*
X343066Y254578D01*
X343102Y254590D01*
X343141Y254606D01*
X343188Y254617D01*
X343239Y254633D01*
X343294Y254649D01*
X343357Y254668D01*
X343424Y254684D01*
X343428D01*
X343440Y254688D01*
X343459Y254692D01*
X343487Y254700D01*
X343514Y254708D01*
X343550Y254716D01*
X343624Y254731D01*
X343703Y254747D01*
X343778Y254763D01*
X343813Y254771D01*
X343841Y254775D01*
X343864Y254779D01*
X343903D01*
X343923Y254775D01*
D02*
G37*
G36*
X346918D02*
X346937Y254767D01*
X346961Y254751D01*
X346977Y254735D01*
X346992Y254708D01*
X346996Y254672D01*
Y254668D01*
Y254657D01*
X346992Y254641D01*
X346985Y254617D01*
X346977Y254586D01*
X346961Y254547D01*
X346941Y254503D01*
X346914Y254452D01*
X346910Y254448D01*
X346906Y254437D01*
X346894Y254417D01*
X346878Y254389D01*
X346859Y254354D01*
X346839Y254307D01*
X346812Y254256D01*
X346780Y254193D01*
X346749Y254122D01*
X346713Y254040D01*
X346674Y253949D01*
X346631Y253851D01*
X346588Y253745D01*
X346540Y253627D01*
X346493Y253497D01*
X346442Y253360D01*
Y253356D01*
X346438Y253352D01*
X346434Y253340D01*
X346430Y253324D01*
X346415Y253285D01*
X346399Y253234D01*
X346375Y253167D01*
X346352Y253093D01*
X346324Y253010D01*
X346297Y252920D01*
X346265Y252825D01*
X346238Y252723D01*
X346183Y252519D01*
X346136Y252318D01*
X346116Y252220D01*
X346100Y252130D01*
Y252126D01*
X346096Y252118D01*
Y252106D01*
X346089Y252090D01*
X346069Y252055D01*
X346053Y252039D01*
X346033Y252024D01*
X346029D01*
X346026Y252020D01*
X346014Y252012D01*
X345998Y252008D01*
X345955Y251992D01*
X345904Y251988D01*
X345896D01*
X345876Y251992D01*
X345853Y251996D01*
X345821Y252008D01*
X345790Y252024D01*
X345766Y252051D01*
X345746Y252086D01*
X345739Y252134D01*
Y252138D01*
Y252145D01*
Y252161D01*
X345743Y252185D01*
X345746Y252216D01*
X345754Y252256D01*
X345762Y252303D01*
X345774Y252358D01*
X345786Y252420D01*
X345806Y252495D01*
X345829Y252582D01*
X345857Y252676D01*
X345888Y252782D01*
X345923Y252900D01*
X345967Y253026D01*
X346014Y253167D01*
Y253171D01*
X346018Y253175D01*
X346022Y253187D01*
X346026Y253203D01*
X346041Y253242D01*
X346061Y253297D01*
X346084Y253364D01*
X346116Y253438D01*
X346147Y253525D01*
X346183Y253615D01*
X346222Y253713D01*
X346265Y253812D01*
X346356Y254020D01*
X346407Y254122D01*
X346454Y254220D01*
X346501Y254315D01*
X346552Y254405D01*
X346548D01*
X346540Y254401D01*
X346529Y254397D01*
X346509Y254389D01*
X346478Y254382D01*
X346442Y254366D01*
X346399Y254350D01*
X346344Y254330D01*
X346340D01*
X346328Y254327D01*
X346312Y254319D01*
X346289Y254311D01*
X346261Y254299D01*
X346234Y254291D01*
X346163Y254268D01*
X346092Y254240D01*
X346026Y254220D01*
X345994Y254213D01*
X345967Y254205D01*
X345943Y254201D01*
X345916D01*
X345892Y254205D01*
X345861Y254217D01*
X345833Y254236D01*
X345829Y254244D01*
X345817Y254260D01*
X345806Y254287D01*
X345802Y254323D01*
Y254327D01*
X345806Y254342D01*
X345809Y254366D01*
X345817Y254397D01*
X345829Y254429D01*
X345853Y254460D01*
X345880Y254492D01*
X345919Y254519D01*
X345927Y254523D01*
X345943Y254531D01*
X345959Y254539D01*
X345978Y254547D01*
X346002Y254555D01*
X346029Y254566D01*
X346061Y254578D01*
X346096Y254590D01*
X346136Y254606D01*
X346183Y254617D01*
X346234Y254633D01*
X346289Y254649D01*
X346352Y254668D01*
X346419Y254684D01*
X346423D01*
X346434Y254688D01*
X346454Y254692D01*
X346481Y254700D01*
X346509Y254708D01*
X346544Y254716D01*
X346619Y254731D01*
X346698Y254747D01*
X346772Y254763D01*
X346808Y254771D01*
X346835Y254775D01*
X346859Y254779D01*
X346898D01*
X346918Y254775D01*
D02*
G37*
G36*
X330232Y303895D02*
X330325Y303890D01*
X330522Y303880D01*
X330547D01*
X330566Y303875D01*
X330615Y303870D01*
X330679Y303865D01*
X330753Y303855D01*
X330832Y303841D01*
X330999Y303801D01*
X331004D01*
X331009Y303796D01*
X331039Y303791D01*
X331078Y303777D01*
X331137Y303757D01*
X331201Y303732D01*
X331270Y303708D01*
X331417Y303634D01*
X331427Y303629D01*
X331452Y303614D01*
X331491Y303590D01*
X331540Y303555D01*
X331595Y303516D01*
X331659Y303462D01*
X331727Y303408D01*
X331796Y303339D01*
X331801Y303334D01*
X331806Y303329D01*
X331821Y303314D01*
X331836Y303295D01*
X331875Y303245D01*
X331919Y303181D01*
X331924Y303176D01*
X331929Y303167D01*
X331944Y303152D01*
X331959Y303127D01*
X331993Y303068D01*
X332028Y302994D01*
Y302990D01*
X332037Y302980D01*
X332047Y302955D01*
X332057Y302930D01*
X332067Y302901D01*
X332082Y302862D01*
X332106Y302778D01*
Y302773D01*
X332111Y302758D01*
X332116Y302734D01*
X332121Y302704D01*
X332126Y302670D01*
X332131Y302630D01*
X332136Y302537D01*
Y302532D01*
Y302527D01*
Y302512D01*
Y302493D01*
X332131Y302443D01*
X332126Y302389D01*
Y302384D01*
Y302379D01*
X332121Y302345D01*
X332116Y302306D01*
X332106Y302261D01*
Y302256D01*
X332101Y302252D01*
Y302237D01*
X332091Y302217D01*
X332077Y302163D01*
X332057Y302099D01*
X332028Y302020D01*
X331993Y301937D01*
X331954Y301853D01*
X331909Y301769D01*
X331905Y301760D01*
X331890Y301735D01*
X331860Y301696D01*
X331826Y301641D01*
X331786Y301582D01*
X331737Y301518D01*
X331678Y301454D01*
X331619Y301391D01*
X331614Y301386D01*
X331590Y301361D01*
X331555Y301331D01*
X331516Y301292D01*
X331462Y301248D01*
X331398Y301199D01*
X331334Y301149D01*
X331260Y301100D01*
X331250Y301095D01*
X331226Y301081D01*
X331186Y301056D01*
X331137Y301031D01*
X331073Y300997D01*
X331004Y300962D01*
X330925Y300923D01*
X330847Y300889D01*
X330837Y300884D01*
X330812Y300874D01*
X330768Y300859D01*
X330714Y300835D01*
X330650Y300810D01*
X330576Y300785D01*
X330497Y300756D01*
X330414Y300731D01*
X330404Y300726D01*
X330379Y300721D01*
X330335Y300707D01*
X330281Y300692D01*
X330217Y300672D01*
X330143Y300653D01*
X329991Y300613D01*
X329986D01*
X329976Y300608D01*
X329956Y300603D01*
X329932Y300598D01*
X329902Y300589D01*
X329868Y300579D01*
X329789Y300564D01*
X329784D01*
X329769Y300559D01*
X329750D01*
X329725Y300554D01*
X329691Y300549D01*
X329656Y300539D01*
X329572Y300530D01*
X329553D01*
X329533Y300525D01*
X329504Y300520D01*
X329474Y300515D01*
X329435D01*
X329356Y300505D01*
X329292D01*
X329223Y300500D01*
X329090D01*
X329031Y300505D01*
X328972Y300510D01*
X328967D01*
X328962Y300515D01*
X328933Y300520D01*
X328893Y300530D01*
X328859Y300544D01*
X328854Y300549D01*
X328834Y300559D01*
X328815Y300579D01*
X328795Y300598D01*
Y300603D01*
X328790Y300618D01*
X328785Y300638D01*
X328780Y300657D01*
Y300667D01*
X328785Y300687D01*
X328790Y300721D01*
X328805Y300756D01*
Y300761D01*
X328810Y300766D01*
X328830Y300790D01*
X328854Y300820D01*
X328893Y300854D01*
X328898Y300859D01*
X328913Y300869D01*
X328938Y300879D01*
X328962Y300899D01*
X328997Y300913D01*
X329036Y300928D01*
X329076Y300943D01*
X329120Y300953D01*
X329125D01*
X329139Y300958D01*
X329164D01*
X329194Y300962D01*
X329228Y300967D01*
X329267Y300977D01*
X329356Y300987D01*
X329956Y303403D01*
X329843D01*
X329804Y303408D01*
X329794D01*
X329769Y303413D01*
X329735Y303418D01*
X329695Y303427D01*
X329686Y303432D01*
X329666Y303437D01*
X329641Y303452D01*
X329617Y303472D01*
Y303477D01*
X329612Y303482D01*
X329587Y303511D01*
X329582Y303516D01*
X329577Y303531D01*
X329563Y303550D01*
X329553Y303570D01*
Y303575D01*
X329543Y303590D01*
X329533Y303614D01*
X329523Y303639D01*
Y303644D01*
X329518Y303659D01*
X329513Y303683D01*
Y303708D01*
Y303713D01*
Y303718D01*
X329518Y303737D01*
X329533Y303767D01*
X329558Y303796D01*
X329568Y303801D01*
X329592Y303821D01*
X329627Y303836D01*
X329671Y303855D01*
X329676D01*
X329681Y303860D01*
X329695Y303865D01*
X329715Y303870D01*
X329764Y303880D01*
X329818Y303890D01*
X329833D01*
X329848Y303895D01*
X329868D01*
X329912Y303900D01*
X330148D01*
X330232Y303895D01*
D02*
G37*
G36*
X320716Y304067D02*
X320746Y304062D01*
X320776Y304042D01*
X320780Y304037D01*
X320800Y304023D01*
X320820Y304003D01*
X320839Y303974D01*
X320844Y303964D01*
X320854Y303944D01*
X320864Y303910D01*
X320874Y303870D01*
Y303865D01*
Y303860D01*
X320879Y303831D01*
X320884Y303791D01*
Y303747D01*
Y303742D01*
Y303732D01*
Y303713D01*
Y303683D01*
X320874Y303619D01*
X320864Y303545D01*
Y303541D01*
Y303526D01*
X320859Y303506D01*
X320854Y303482D01*
X320844Y303422D01*
X320830Y303359D01*
Y303354D01*
Y303344D01*
X320825Y303329D01*
X320820Y303309D01*
X320815Y303280D01*
X320810Y303250D01*
X320800Y303211D01*
X320795Y303167D01*
Y303162D01*
X320790Y303147D01*
X320785Y303117D01*
X320780Y303083D01*
X320776Y303044D01*
X320766Y302994D01*
X320756Y302940D01*
X320746Y302881D01*
Y302876D01*
X320741Y302852D01*
X320736Y302822D01*
X320731Y302778D01*
X320721Y302724D01*
X320711Y302665D01*
X320702Y302601D01*
X320687Y302532D01*
Y302522D01*
X320682Y302498D01*
X320677Y302463D01*
X320667Y302414D01*
X320657Y302360D01*
X320648Y302296D01*
X320623Y302153D01*
Y302143D01*
X320618Y302119D01*
X320613Y302084D01*
X320603Y302035D01*
X320593Y301976D01*
X320584Y301912D01*
X320559Y301769D01*
Y301760D01*
X320554Y301740D01*
X320549Y301700D01*
X320539Y301656D01*
X320530Y301602D01*
X320520Y301543D01*
X320500Y301420D01*
Y301415D01*
X320495Y301391D01*
X320490Y301361D01*
X320485Y301322D01*
X320475Y301277D01*
X320470Y301228D01*
X320451Y301125D01*
Y301120D01*
X320446Y301105D01*
Y301081D01*
X320441Y301051D01*
X320426Y300987D01*
X320421Y300958D01*
X320416Y300928D01*
Y300923D01*
X320411Y300903D01*
X320407Y300874D01*
X320392Y300835D01*
X320387Y300825D01*
X320382Y300800D01*
X320367Y300766D01*
X320347Y300721D01*
X320342Y300712D01*
X320328Y300692D01*
X320303Y300657D01*
X320269Y300628D01*
X320259Y300623D01*
X320234Y300608D01*
X320200Y300593D01*
X320151Y300589D01*
X320146D01*
X320126Y300593D01*
X320101Y300598D01*
X320077Y300613D01*
X320072Y300618D01*
X320057Y300633D01*
X320038Y300653D01*
X320013Y300677D01*
X320008Y300682D01*
X319998Y300702D01*
X319983Y300731D01*
X319969Y300761D01*
Y300771D01*
X319964Y300785D01*
X319959Y300815D01*
X319954Y300839D01*
X320451Y303196D01*
Y303201D01*
X320456Y303216D01*
X320461Y303255D01*
Y303260D01*
X320465Y303270D01*
Y303304D01*
Y303309D01*
Y303324D01*
X320461Y303354D01*
Y303359D01*
X320456Y303368D01*
X320451Y303393D01*
Y303398D01*
X320446Y303408D01*
X320436Y303432D01*
X320431Y303427D01*
X320416Y303418D01*
X320397Y303398D01*
X320367Y303373D01*
X320333Y303344D01*
X320293Y303309D01*
X320249Y303265D01*
X320205Y303221D01*
X320200Y303216D01*
X320185Y303201D01*
X320161Y303172D01*
X320126Y303142D01*
X320092Y303098D01*
X320047Y303053D01*
X320003Y302999D01*
X319954Y302945D01*
X319949Y302940D01*
X319934Y302921D01*
X319910Y302886D01*
X319875Y302847D01*
X319841Y302798D01*
X319796Y302744D01*
X319752Y302684D01*
X319703Y302621D01*
X319698Y302611D01*
X319683Y302591D01*
X319659Y302557D01*
X319629Y302512D01*
X319590Y302458D01*
X319550Y302399D01*
X319467Y302271D01*
X319462Y302266D01*
X319452Y302247D01*
X319437Y302222D01*
X319413Y302188D01*
X319383Y302143D01*
X319354Y302094D01*
X319280Y301986D01*
X319275Y301981D01*
X319260Y301961D01*
X319240Y301932D01*
X319216Y301892D01*
X319186Y301848D01*
X319147Y301799D01*
X319073Y301686D01*
X319068Y301681D01*
X319058Y301661D01*
X319039Y301632D01*
X319014Y301592D01*
X318980Y301543D01*
X318950Y301494D01*
X318876Y301381D01*
X318871Y301376D01*
X318862Y301356D01*
X318842Y301327D01*
X318817Y301287D01*
X318788Y301243D01*
X318758Y301194D01*
X318699Y301090D01*
Y301085D01*
X318694Y301081D01*
X318685Y301066D01*
X318675Y301046D01*
X318665Y301022D01*
X318650Y300992D01*
X318620Y300918D01*
Y300913D01*
X318616Y300899D01*
X318606Y300879D01*
X318596Y300854D01*
X318566Y300785D01*
X318532Y300712D01*
Y300707D01*
X318522Y300697D01*
X318512Y300677D01*
X318502Y300653D01*
X318468Y300598D01*
X318424Y300544D01*
Y300539D01*
X318414Y300534D01*
X318389Y300510D01*
X318350Y300485D01*
X318325Y300480D01*
X318301Y300475D01*
X318271D01*
X318237Y300480D01*
X318207Y300490D01*
X318202Y300495D01*
X318188Y300500D01*
X318148Y300530D01*
X318143Y300534D01*
X318138Y300549D01*
X318128Y300569D01*
X318119Y300593D01*
Y300598D01*
X318114Y300618D01*
X318109Y300648D01*
Y300677D01*
Y300682D01*
Y300687D01*
Y300712D01*
X318114Y300746D01*
X318119Y300785D01*
Y300790D01*
Y300795D01*
X318124Y300820D01*
X318133Y300854D01*
X318143Y300894D01*
Y300903D01*
X318153Y300928D01*
X318163Y300972D01*
X318173Y301022D01*
X318193Y301085D01*
X318207Y301154D01*
X318247Y301307D01*
Y301312D01*
X318251Y301317D01*
X318256Y301341D01*
X318266Y301386D01*
X318281Y301440D01*
X318296Y301504D01*
X318316Y301577D01*
X318340Y301656D01*
X318360Y301735D01*
Y301740D01*
X318365Y301745D01*
X318370Y301774D01*
X318379Y301814D01*
X318399Y301873D01*
X318414Y301942D01*
X318434Y302015D01*
X318458Y302099D01*
X318478Y302183D01*
Y302188D01*
X318483Y302192D01*
X318488Y302222D01*
X318502Y302271D01*
X318517Y302330D01*
X318537Y302404D01*
X318557Y302488D01*
X318581Y302581D01*
X318606Y302680D01*
Y302684D01*
X318611Y302694D01*
X318616Y302709D01*
X318620Y302729D01*
X318630Y302778D01*
X318645Y302842D01*
Y302847D01*
X318650Y302857D01*
X318655Y302876D01*
X318660Y302901D01*
X318675Y302960D01*
X318685Y303029D01*
Y303034D01*
X318689Y303044D01*
Y303063D01*
X318694Y303088D01*
X318704Y303147D01*
X318714Y303211D01*
Y303216D01*
X318719Y303226D01*
Y303240D01*
X318724Y303265D01*
X318729Y303314D01*
Y303368D01*
Y303373D01*
Y303378D01*
Y303403D01*
X318724Y303437D01*
X318719Y303467D01*
Y303472D01*
X318709Y303486D01*
X318699Y303501D01*
X318685Y303506D01*
X318670D01*
X318650Y303501D01*
X318630Y303496D01*
X318566Y303477D01*
X318532Y303462D01*
X318497Y303437D01*
X318493Y303432D01*
X318483Y303427D01*
X318463Y303413D01*
X318439Y303393D01*
X318404Y303368D01*
X318374Y303339D01*
X318301Y303265D01*
X318296Y303260D01*
X318286Y303245D01*
X318266Y303226D01*
X318242Y303196D01*
X318207Y303162D01*
X318178Y303117D01*
X318138Y303073D01*
X318104Y303019D01*
X318099Y303014D01*
X318089Y302994D01*
X318070Y302970D01*
X318045Y302930D01*
X318015Y302891D01*
X317986Y302842D01*
X317917Y302734D01*
X317912Y302729D01*
X317902Y302709D01*
X317882Y302680D01*
X317863Y302645D01*
X317838Y302601D01*
X317809Y302552D01*
X317750Y302448D01*
X317745Y302443D01*
X317740Y302424D01*
X317725Y302399D01*
X317705Y302365D01*
X317686Y302320D01*
X317666Y302276D01*
X317622Y302188D01*
X317617Y302183D01*
X317612Y302168D01*
X317597Y302148D01*
X317582Y302119D01*
X317578Y302114D01*
X317568Y302089D01*
X317548Y302055D01*
X317523Y302006D01*
Y302001D01*
X317518Y301991D01*
X317509Y301976D01*
X317499Y301956D01*
X317489Y301927D01*
X317469Y301892D01*
X317435Y301814D01*
Y301809D01*
X317425Y301794D01*
X317415Y301769D01*
X317400Y301735D01*
X317381Y301691D01*
X317356Y301641D01*
X317332Y301582D01*
X317307Y301518D01*
X317302Y301509D01*
X317297Y301489D01*
X317282Y301450D01*
X317263Y301400D01*
X317238Y301336D01*
X317209Y301263D01*
X317174Y301179D01*
X317140Y301090D01*
Y301085D01*
X317135Y301081D01*
X317130Y301066D01*
X317125Y301046D01*
X317105Y300997D01*
X317081Y300928D01*
X317046Y300839D01*
X317012Y300741D01*
X316972Y300633D01*
X316928Y300510D01*
X316923Y300500D01*
X316908Y300480D01*
X316884Y300451D01*
X316849Y300421D01*
X316840Y300416D01*
X316815Y300407D01*
X316780Y300392D01*
X316741Y300387D01*
X316721D01*
X316697Y300392D01*
X316672Y300397D01*
X316613Y300416D01*
X316584Y300431D01*
X316559Y300451D01*
Y300456D01*
X316549Y300461D01*
X316539Y300475D01*
X316529Y300495D01*
X316510Y300544D01*
X316505Y300579D01*
X316500Y300613D01*
Y300623D01*
Y300643D01*
X316505Y300672D01*
X316510Y300707D01*
Y300716D01*
X316520Y300741D01*
X316529Y300776D01*
X316544Y300825D01*
X316559Y300884D01*
X316579Y300953D01*
X316603Y301031D01*
X316633Y301110D01*
Y301115D01*
X316638Y301120D01*
X316648Y301149D01*
X316667Y301194D01*
X316687Y301253D01*
X316717Y301322D01*
X316751Y301400D01*
X316785Y301484D01*
X316825Y301573D01*
Y301577D01*
X316830Y301582D01*
X316835Y301597D01*
X316844Y301612D01*
X316864Y301661D01*
X316894Y301725D01*
X316928Y301799D01*
X316967Y301878D01*
X317012Y301966D01*
X317056Y302060D01*
Y302065D01*
X317061Y302069D01*
X317071Y302084D01*
X317081Y302104D01*
X317105Y302153D01*
X317140Y302217D01*
X317179Y302291D01*
X317223Y302370D01*
X317322Y302547D01*
Y302552D01*
X317327Y302557D01*
X317346Y302586D01*
X317371Y302630D01*
X317410Y302689D01*
X317450Y302758D01*
X317499Y302832D01*
X317602Y302990D01*
X317607Y302999D01*
X317627Y303024D01*
X317656Y303063D01*
X317696Y303113D01*
X317740Y303172D01*
X317789Y303236D01*
X317892Y303363D01*
X317897Y303373D01*
X317922Y303393D01*
X317951Y303427D01*
X317991Y303472D01*
X317996Y303477D01*
X318001Y303482D01*
X318030Y303516D01*
X318070Y303560D01*
X318124Y303609D01*
X318128Y303614D01*
X318138Y303624D01*
X318153Y303639D01*
X318173Y303654D01*
X318222Y303703D01*
X318281Y303752D01*
X318286Y303757D01*
X318296Y303767D01*
X318311Y303777D01*
X318335Y303796D01*
X318389Y303836D01*
X318448Y303880D01*
X318453Y303885D01*
X318463Y303890D01*
X318478Y303900D01*
X318502Y303914D01*
X318552Y303944D01*
X318611Y303974D01*
X318616D01*
X318625Y303978D01*
X318640Y303983D01*
X318660Y303993D01*
X318704Y304003D01*
X318758Y304008D01*
X318793D01*
X318812Y304003D01*
X318866Y303993D01*
X318921Y303974D01*
X318926D01*
X318935Y303969D01*
X318950Y303964D01*
X318965Y303954D01*
X319009Y303924D01*
X319054Y303885D01*
X319058D01*
X319063Y303875D01*
X319083Y303846D01*
X319112Y303806D01*
X319137Y303747D01*
Y303742D01*
X319142Y303732D01*
X319147Y303718D01*
X319152Y303698D01*
X319162Y303644D01*
X319167Y303575D01*
Y303570D01*
Y303550D01*
X319162Y303521D01*
X319157Y303491D01*
Y303486D01*
X319152Y303467D01*
Y303442D01*
X319147Y303413D01*
X318882Y302085D01*
X318881Y302084D01*
Y302079D01*
X318882Y302085D01*
X318886Y302089D01*
X318906Y302119D01*
X318935Y302163D01*
X318980Y302227D01*
X318985Y302232D01*
X318989Y302242D01*
X319004Y302261D01*
X319024Y302286D01*
X319044Y302320D01*
X319068Y302355D01*
X319122Y302434D01*
X319127Y302438D01*
X319137Y302453D01*
X319152Y302478D01*
X319177Y302507D01*
X319201Y302547D01*
X319231Y302586D01*
X319295Y302675D01*
X319300Y302680D01*
X319309Y302694D01*
X319329Y302724D01*
X319349Y302753D01*
X319373Y302793D01*
X319403Y302832D01*
X319467Y302921D01*
X319472Y302926D01*
X319481Y302940D01*
X319496Y302965D01*
X319516Y302990D01*
X319570Y303058D01*
X319624Y303132D01*
X319629Y303137D01*
X319639Y303147D01*
X319649Y303167D01*
X319669Y303191D01*
X319703Y303240D01*
X319742Y303290D01*
X319787Y303344D01*
Y303349D01*
X319792Y303354D01*
X319816Y303383D01*
X319846Y303422D01*
X319885Y303477D01*
X319890Y303482D01*
X319895Y303491D01*
X319910Y303506D01*
X319924Y303526D01*
X319969Y303570D01*
X320023Y303629D01*
X320028Y303634D01*
X320038Y303644D01*
X320052Y303659D01*
X320072Y303683D01*
X320126Y303732D01*
X320185Y303791D01*
X320190Y303796D01*
X320200Y303806D01*
X320215Y303821D01*
X320239Y303841D01*
X320293Y303885D01*
X320352Y303929D01*
X320357Y303934D01*
X320367Y303939D01*
X320387Y303954D01*
X320407Y303969D01*
X320461Y303998D01*
X320525Y304033D01*
X320530D01*
X320539Y304037D01*
X320554Y304047D01*
X320574Y304052D01*
X320628Y304067D01*
X320682Y304072D01*
X320692D01*
X320716Y304067D01*
D02*
G37*
G36*
X337533Y303860D02*
X337597Y303846D01*
X337661Y303821D01*
X337666D01*
X337676Y303816D01*
X337695Y303806D01*
X337715Y303791D01*
X337769Y303757D01*
X337823Y303713D01*
X337828Y303708D01*
X337833Y303703D01*
X337848Y303688D01*
X337863Y303668D01*
X337897Y303614D01*
X337931Y303550D01*
Y303545D01*
X337936Y303536D01*
X337946Y303516D01*
X337951Y303491D01*
X337961Y303462D01*
X337966Y303427D01*
X337971Y303349D01*
Y303344D01*
Y303339D01*
Y303304D01*
X337966Y303270D01*
X337961Y303231D01*
Y303226D01*
X337956Y303211D01*
X337946Y303191D01*
X337931Y303172D01*
X337927Y303167D01*
X337922Y303162D01*
X337907Y303152D01*
X337887Y303147D01*
X337873D01*
X337853Y303142D01*
X337818D01*
X337799Y303147D01*
X337769Y303152D01*
X337745Y303162D01*
X337740Y303167D01*
X337730Y303176D01*
X337710Y303196D01*
X337695Y303216D01*
Y303221D01*
X337685Y303240D01*
X337681Y303260D01*
X337671Y303290D01*
Y303295D01*
X337666Y303314D01*
X337656Y303334D01*
X337646Y303359D01*
Y303363D01*
X337636Y303378D01*
X337627Y303398D01*
X337612Y303413D01*
X337607Y303418D01*
X337597Y303427D01*
X337582Y303432D01*
X337558Y303437D01*
X337523D01*
X337499Y303432D01*
X337464Y303427D01*
X337430Y303418D01*
X337351Y303393D01*
X337346D01*
X337331Y303388D01*
X337312Y303378D01*
X337282Y303363D01*
X337248Y303349D01*
X337208Y303329D01*
X337125Y303280D01*
X337120Y303275D01*
X337105Y303270D01*
X337080Y303255D01*
X337051Y303236D01*
X337016Y303211D01*
X336977Y303181D01*
X336889Y303117D01*
X336884Y303113D01*
X336869Y303103D01*
X336849Y303083D01*
X336820Y303058D01*
X336751Y302999D01*
X336672Y302930D01*
X336667Y302926D01*
X336652Y302916D01*
X336633Y302896D01*
X336608Y302871D01*
X336544Y302812D01*
X336475Y302744D01*
X336470Y302739D01*
X336460Y302729D01*
X336446Y302709D01*
X336421Y302689D01*
X336372Y302635D01*
X336323Y302576D01*
X336318Y302571D01*
X336308Y302557D01*
X336288Y302532D01*
X336269Y302498D01*
X336239Y302463D01*
X336210Y302419D01*
X336151Y302325D01*
X336146Y302320D01*
X336136Y302306D01*
X336121Y302281D01*
X336106Y302247D01*
X336082Y302207D01*
X336057Y302168D01*
X336013Y302069D01*
Y302065D01*
X336003Y302050D01*
X335993Y302020D01*
X335983Y301991D01*
X335968Y301946D01*
X335954Y301902D01*
X335924Y301804D01*
Y301799D01*
X335919Y301779D01*
X335914Y301755D01*
X335909Y301720D01*
X335905Y301676D01*
X335900Y301632D01*
X335895Y301523D01*
Y301518D01*
Y301504D01*
Y301479D01*
X335900Y301454D01*
X335909Y301386D01*
X335924Y301317D01*
Y301312D01*
X335929Y301302D01*
X335939Y301287D01*
X335949Y301268D01*
X335968Y301223D01*
X335998Y301174D01*
Y301169D01*
X336008Y301164D01*
X336028Y301135D01*
X336062Y301100D01*
X336106Y301071D01*
X336111D01*
X336121Y301066D01*
X336131Y301061D01*
X336151D01*
X336205Y301051D01*
X336269Y301046D01*
X336342D01*
X336392Y301051D01*
X336451Y301056D01*
X336510Y301061D01*
X336643Y301085D01*
X336652D01*
X336672Y301090D01*
X336706Y301100D01*
X336751Y301115D01*
X336800Y301130D01*
X336854Y301145D01*
X336972Y301189D01*
X336977Y301194D01*
X337002Y301199D01*
X337031Y301213D01*
X337070Y301233D01*
X337115Y301253D01*
X337169Y301282D01*
X337277Y301341D01*
X337282Y301346D01*
X337302Y301356D01*
X337336Y301376D01*
X337376Y301400D01*
X337420Y301425D01*
X337474Y301459D01*
X337592Y301528D01*
X337671D01*
X337690Y301518D01*
X337715Y301509D01*
X337720Y301504D01*
X337735Y301499D01*
X337774Y301469D01*
X337779Y301464D01*
X337789Y301454D01*
X337804Y301435D01*
X337813Y301410D01*
X337818Y301405D01*
X337823Y301391D01*
X337828Y301366D01*
Y301341D01*
Y301336D01*
Y301327D01*
X337823Y301312D01*
X337818Y301292D01*
X337804Y301243D01*
X337784Y301213D01*
X337764Y301184D01*
X337759Y301179D01*
X337754Y301169D01*
X337740Y301154D01*
X337725Y301135D01*
X337671Y301090D01*
X337607Y301036D01*
X337602Y301031D01*
X337592Y301026D01*
X337572Y301012D01*
X337543Y300992D01*
X337513Y300972D01*
X337474Y300953D01*
X337390Y300903D01*
X337385Y300899D01*
X337371Y300894D01*
X337346Y300879D01*
X337316Y300864D01*
X337277Y300849D01*
X337238Y300830D01*
X337149Y300790D01*
X337144D01*
X337130Y300785D01*
X337105Y300776D01*
X337075Y300766D01*
X337007Y300736D01*
X336928Y300712D01*
X336923D01*
X336913Y300707D01*
X336893Y300702D01*
X336869Y300692D01*
X336820Y300677D01*
X336766Y300667D01*
X336756D01*
X336731Y300662D01*
X336701Y300653D01*
X336662Y300643D01*
X336652D01*
X336628Y300638D01*
X336593Y300633D01*
X336544Y300623D01*
X336534D01*
X336520Y300618D01*
X336500D01*
X336451Y300613D01*
X336387Y300603D01*
X336323D01*
X336293Y300598D01*
X336126D01*
X336101Y300603D01*
X336052Y300613D01*
X335993Y300628D01*
X335988D01*
X335983Y300633D01*
X335954Y300648D01*
X335914Y300667D01*
X335870Y300692D01*
X335860Y300697D01*
X335841Y300716D01*
X335806Y300741D01*
X335777Y300771D01*
X335772Y300776D01*
X335752Y300795D01*
X335732Y300815D01*
X335713Y300839D01*
X335708Y300849D01*
X335688Y300869D01*
X335663Y300899D01*
X335634Y300943D01*
X335599Y300987D01*
X335565Y301041D01*
X335536Y301100D01*
X335506Y301159D01*
X335501Y301169D01*
X335496Y301189D01*
X335486Y301223D01*
X335476Y301263D01*
X335462Y301317D01*
X335452Y301376D01*
X335447Y301445D01*
X335442Y301514D01*
Y301518D01*
Y301538D01*
Y301568D01*
X335447Y301602D01*
X335452Y301651D01*
X335457Y301700D01*
X335467Y301760D01*
X335476Y301823D01*
Y301833D01*
X335481Y301853D01*
X335491Y301887D01*
X335506Y301932D01*
X335521Y301986D01*
X335540Y302045D01*
X335590Y302168D01*
Y302173D01*
X335595Y302178D01*
X335609Y302207D01*
X335634Y302252D01*
X335668Y302306D01*
X335703Y302375D01*
X335747Y302448D01*
X335845Y302606D01*
Y302611D01*
X335850Y302616D01*
X335870Y302640D01*
X335900Y302684D01*
X335934Y302739D01*
X335978Y302798D01*
X336028Y302862D01*
X336136Y302999D01*
X336141Y303009D01*
X336160Y303029D01*
X336190Y303063D01*
X336229Y303108D01*
X336274Y303157D01*
X336323Y303211D01*
X336431Y303319D01*
X336436Y303324D01*
X336455Y303344D01*
X336485Y303368D01*
X336520Y303403D01*
X336564Y303437D01*
X336613Y303472D01*
X336662Y303511D01*
X336711Y303541D01*
X336716D01*
X336726Y303550D01*
X336741Y303560D01*
X336766Y303575D01*
X336820Y303609D01*
X336889Y303649D01*
X336893Y303654D01*
X336903Y303659D01*
X336923Y303668D01*
X336947Y303683D01*
X337007Y303718D01*
X337075Y303752D01*
X337080D01*
X337090Y303762D01*
X337110Y303772D01*
X337139Y303782D01*
X337198Y303806D01*
X337272Y303831D01*
X337277D01*
X337292Y303836D01*
X337312Y303841D01*
X337336Y303851D01*
X337400Y303860D01*
X337474Y303865D01*
X337508D01*
X337533Y303860D01*
D02*
G37*
G36*
X325326Y302847D02*
X325371Y302842D01*
X325420Y302827D01*
X325474Y302812D01*
X325528Y302788D01*
X325577Y302758D01*
X325582Y302753D01*
X325597Y302744D01*
X325622Y302719D01*
X325651Y302689D01*
X325686Y302655D01*
X325720Y302611D01*
X325754Y302561D01*
X325784Y302502D01*
X325789Y302493D01*
X325804Y302468D01*
X325818Y302438D01*
X325833Y302399D01*
X325838Y302389D01*
X325848Y302370D01*
X325863Y302335D01*
X325873Y302291D01*
X325877Y302281D01*
X325882Y302256D01*
X325887Y302217D01*
X325897Y302173D01*
Y302168D01*
Y302163D01*
X325902Y302148D01*
Y302129D01*
X325907Y302084D01*
Y302025D01*
Y302015D01*
Y301991D01*
X325902Y301956D01*
Y301907D01*
X325892Y301848D01*
X325882Y301784D01*
X325868Y301715D01*
X325848Y301641D01*
X325843Y301632D01*
X325838Y301607D01*
X325823Y301568D01*
X325804Y301518D01*
X325779Y301459D01*
X325750Y301395D01*
X325715Y301327D01*
X325676Y301258D01*
X325671Y301248D01*
X325656Y301228D01*
X325631Y301189D01*
X325602Y301145D01*
X325563Y301090D01*
X325518Y301031D01*
X325469Y300967D01*
X325410Y300903D01*
X325405Y300899D01*
X325385Y300874D01*
X325351Y300844D01*
X325312Y300805D01*
X325258Y300756D01*
X325199Y300707D01*
X325135Y300653D01*
X325066Y300598D01*
X325061Y300593D01*
X325041Y300584D01*
X325016Y300564D01*
X324982Y300544D01*
X324938Y300525D01*
X324893Y300500D01*
X324839Y300475D01*
X324780Y300456D01*
X324775D01*
X324751Y300446D01*
X324721Y300441D01*
X324677Y300431D01*
X324628Y300421D01*
X324569Y300416D01*
X324500Y300407D01*
X324401D01*
X324367Y300411D01*
X324323D01*
X324274Y300416D01*
X324219Y300426D01*
X324111Y300456D01*
X324106D01*
X324092Y300466D01*
X324067Y300475D01*
X324032Y300490D01*
X323964Y300530D01*
X323890Y300589D01*
X323885Y300593D01*
X323875Y300603D01*
X323860Y300623D01*
X323841Y300653D01*
X323821Y300682D01*
X323796Y300721D01*
X323757Y300805D01*
Y300810D01*
X323752Y300830D01*
X323742Y300854D01*
X323737Y300889D01*
X323727Y300933D01*
X323718Y300977D01*
X323713Y301031D01*
Y301090D01*
Y301095D01*
Y301115D01*
Y301145D01*
X323718Y301184D01*
X323723Y301233D01*
X323727Y301287D01*
X323737Y301346D01*
X323752Y301410D01*
Y301415D01*
X323762Y301435D01*
X323767Y301464D01*
X323782Y301504D01*
X323796Y301553D01*
X323816Y301602D01*
X323865Y301720D01*
X323870Y301730D01*
X323880Y301750D01*
X323895Y301779D01*
X323919Y301823D01*
X323944Y301873D01*
X323978Y301927D01*
X324018Y301986D01*
X324062Y302050D01*
X324067Y302060D01*
X324082Y302079D01*
X324111Y302109D01*
X324146Y302153D01*
X324185Y302202D01*
X324234Y302256D01*
X324293Y302315D01*
X324352Y302375D01*
X324362Y302384D01*
X324382Y302404D01*
X324421Y302434D01*
X324465Y302473D01*
X324524Y302517D01*
X324593Y302571D01*
X324667Y302621D01*
X324751Y302675D01*
X324756Y302680D01*
X324775Y302689D01*
X324810Y302704D01*
X324859Y302724D01*
X324864D01*
X324874Y302729D01*
X324889Y302734D01*
X324908Y302739D01*
X324953Y302748D01*
X325012Y302753D01*
X325016Y302758D01*
X325031Y302768D01*
X325051Y302783D01*
X325080Y302803D01*
X325115Y302822D01*
X325159Y302837D01*
X325208Y302847D01*
X325262Y302852D01*
X325292D01*
X325326Y302847D01*
D02*
G37*
G36*
X327186Y302876D02*
X327235Y302867D01*
X327285Y302842D01*
X327290D01*
X327294Y302837D01*
X327314Y302812D01*
X327334Y302778D01*
X327344Y302753D01*
Y302724D01*
Y302719D01*
Y302714D01*
X327339Y302699D01*
Y302694D01*
X327334Y302689D01*
X327324Y302660D01*
X327216Y302409D01*
X327221Y302414D01*
X327235Y302424D01*
X327255Y302438D01*
X327280Y302458D01*
X327314Y302483D01*
X327349Y302507D01*
X327427Y302566D01*
X327432Y302571D01*
X327447Y302581D01*
X327467Y302596D01*
X327496Y302616D01*
X327531Y302635D01*
X327565Y302660D01*
X327649Y302709D01*
X327654Y302714D01*
X327668Y302719D01*
X327693Y302734D01*
X327718Y302748D01*
X327752Y302763D01*
X327791Y302778D01*
X327875Y302812D01*
X327880D01*
X327895Y302817D01*
X327919Y302827D01*
X327949Y302832D01*
X327983Y302842D01*
X328023Y302847D01*
X328106Y302852D01*
X328146D01*
X328185Y302847D01*
X328239Y302837D01*
X328298Y302822D01*
X328357Y302798D01*
X328411Y302768D01*
X328465Y302729D01*
X328470Y302724D01*
X328485Y302704D01*
X328505Y302675D01*
X328529Y302635D01*
X328554Y302581D01*
X328574Y302517D01*
X328588Y302438D01*
X328593Y302350D01*
Y302345D01*
Y302325D01*
X328588Y302291D01*
Y302252D01*
X328579Y302202D01*
X328569Y302143D01*
X328559Y302079D01*
X328539Y302010D01*
Y302001D01*
X328529Y301976D01*
X328520Y301942D01*
X328505Y301892D01*
X328485Y301828D01*
X328465Y301760D01*
X328441Y301686D01*
X328411Y301607D01*
X328406Y301597D01*
X328397Y301568D01*
X328382Y301528D01*
X328362Y301469D01*
X328338Y301400D01*
X328308Y301327D01*
X328278Y301243D01*
X328244Y301154D01*
Y301149D01*
X328239Y301145D01*
X328229Y301115D01*
X328215Y301066D01*
X328190Y301007D01*
X328165Y300933D01*
X328141Y300849D01*
X328111Y300766D01*
X328082Y300672D01*
Y300667D01*
X328077Y300662D01*
X328067Y300633D01*
X328052Y300593D01*
X328032Y300559D01*
X328028Y300554D01*
X328018Y300534D01*
X328003Y300510D01*
X327983Y300490D01*
X327978Y300485D01*
X327964Y300475D01*
X327939Y300466D01*
X327909Y300456D01*
X327905D01*
X327885Y300451D01*
X327850Y300446D01*
X327811Y300441D01*
X327782D01*
X327762Y300446D01*
X327718Y300456D01*
X327693Y300466D01*
X327678Y300475D01*
X327673Y300480D01*
X327663Y300500D01*
X327649Y300530D01*
X327644Y300579D01*
Y300584D01*
Y300593D01*
Y300603D01*
X327649Y300623D01*
X327654Y300677D01*
X327663Y300741D01*
Y300746D01*
X327668Y300761D01*
X327673Y300780D01*
X327678Y300805D01*
X327683Y300835D01*
X327693Y300874D01*
X327718Y300953D01*
Y300958D01*
X327723Y300972D01*
X327732Y300997D01*
X327742Y301026D01*
X327757Y301066D01*
X327772Y301110D01*
X327806Y301204D01*
Y301208D01*
X327816Y301228D01*
X327826Y301253D01*
X327841Y301287D01*
X327855Y301327D01*
X327875Y301371D01*
X327914Y301469D01*
Y301474D01*
X327924Y301489D01*
X327929Y301509D01*
X327944Y301538D01*
X327954Y301573D01*
X327969Y301612D01*
X328003Y301691D01*
Y301696D01*
X328013Y301710D01*
X328018Y301730D01*
X328028Y301760D01*
X328057Y301823D01*
X328082Y301902D01*
Y301907D01*
X328087Y301922D01*
X328092Y301942D01*
X328101Y301966D01*
X328121Y302030D01*
X328136Y302099D01*
Y302104D01*
X328141Y302114D01*
X328146Y302133D01*
X328151Y302158D01*
X328155Y302212D01*
X328160Y302271D01*
Y302276D01*
Y302286D01*
X328155Y302315D01*
X328146Y302355D01*
X328126Y302399D01*
Y302404D01*
X328121Y302409D01*
X328101Y302429D01*
X328062Y302448D01*
X328037Y302458D01*
X327978D01*
X327954Y302453D01*
X327895Y302443D01*
X327826Y302419D01*
X327821D01*
X327811Y302414D01*
X327791Y302404D01*
X327767Y302389D01*
X327703Y302355D01*
X327629Y302311D01*
X327624Y302306D01*
X327609Y302301D01*
X327590Y302286D01*
X327565Y302266D01*
X327531Y302242D01*
X327496Y302217D01*
X327417Y302158D01*
X327413Y302153D01*
X327398Y302143D01*
X327378Y302129D01*
X327354Y302104D01*
X327285Y302050D01*
X327211Y301986D01*
X327201Y301976D01*
X327181Y301956D01*
X327147Y301927D01*
X327112Y301897D01*
X327103Y301892D01*
X327083Y301878D01*
X327053Y301858D01*
X327019Y301843D01*
X327014Y301833D01*
X326999Y301804D01*
X326975Y301760D01*
X326945Y301700D01*
Y301696D01*
X326940Y301686D01*
X326930Y301666D01*
X326925Y301641D01*
X326911Y301612D01*
X326901Y301582D01*
X326871Y301504D01*
Y301499D01*
X326866Y301484D01*
X326857Y301464D01*
X326852Y301440D01*
X326842Y301405D01*
X326827Y301371D01*
X326802Y301287D01*
Y301282D01*
X326798Y301268D01*
X326793Y301248D01*
X326788Y301223D01*
X326768Y301154D01*
X326753Y301081D01*
Y301071D01*
X326743Y301051D01*
X326739Y301017D01*
X326729Y300982D01*
Y300972D01*
X326724Y300953D01*
X326719Y300923D01*
X326714Y300884D01*
Y300874D01*
X326709Y300849D01*
X326704Y300810D01*
X326694Y300766D01*
Y300761D01*
Y300756D01*
X326684Y300726D01*
X326675Y300682D01*
X326660Y300628D01*
Y300623D01*
X326650Y300603D01*
X326640Y300579D01*
X326620Y300554D01*
X326616Y300549D01*
X326606Y300539D01*
X326586Y300530D01*
X326566Y300515D01*
X326561D01*
X326552Y300510D01*
X326532Y300505D01*
X326512Y300500D01*
X326443D01*
X326424Y300505D01*
X326374Y300515D01*
X326325Y300539D01*
X326315Y300549D01*
X326306Y300559D01*
X326296Y300574D01*
X326286Y300598D01*
X326276Y300623D01*
X326271Y300657D01*
X326266Y300702D01*
Y300707D01*
Y300721D01*
Y300746D01*
Y300771D01*
Y300776D01*
X326271Y300795D01*
X326276Y300825D01*
X326286Y300854D01*
Y300859D01*
Y300864D01*
X326296Y300894D01*
X326306Y300938D01*
X326315Y300992D01*
X326330Y301056D01*
X326350Y301120D01*
X326384Y301263D01*
Y301272D01*
X326394Y301292D01*
X326404Y301327D01*
X326414Y301371D01*
X326429Y301425D01*
X326448Y301479D01*
X326483Y301597D01*
X326488Y301602D01*
X326493Y301622D01*
X326502Y301656D01*
X326517Y301696D01*
X326532Y301740D01*
X326552Y301789D01*
X326586Y301892D01*
Y301897D01*
X326596Y301917D01*
X326606Y301942D01*
X326616Y301981D01*
X326635Y302020D01*
X326650Y302065D01*
X326689Y302168D01*
X326694Y302173D01*
X326699Y302192D01*
X326709Y302222D01*
X326724Y302256D01*
X326739Y302301D01*
X326758Y302350D01*
X326802Y302458D01*
X326807Y302463D01*
X326812Y302483D01*
X326827Y302512D01*
X326842Y302557D01*
X326862Y302606D01*
X326881Y302660D01*
X326906Y302724D01*
X326930Y302788D01*
X326935Y302793D01*
X326945Y302812D01*
X326970Y302832D01*
X327004Y302852D01*
X327009D01*
X327014Y302857D01*
X327044Y302867D01*
X327083Y302876D01*
X327132Y302881D01*
X327167D01*
X327186Y302876D01*
D02*
G37*
G36*
X333563Y303934D02*
X333597Y303929D01*
X333627Y303910D01*
X333631Y303905D01*
X333651Y303890D01*
X333671Y303870D01*
X333691Y303841D01*
X333695Y303836D01*
X333705Y303816D01*
X333715Y303787D01*
X333725Y303747D01*
X333730Y303737D01*
X333735Y303713D01*
X333740Y303678D01*
Y303639D01*
Y303634D01*
Y303614D01*
Y303585D01*
X333735Y303560D01*
Y303555D01*
X333730Y303541D01*
Y303521D01*
X333725Y303496D01*
Y303486D01*
X333715Y303457D01*
X333705Y303418D01*
X333691Y303359D01*
X333671Y303290D01*
X333646Y303216D01*
X333622Y303132D01*
X333592Y303044D01*
Y303039D01*
X333587Y303034D01*
X333577Y303004D01*
X333563Y302960D01*
X333543Y302896D01*
X333518Y302827D01*
X333494Y302748D01*
X333464Y302660D01*
X333435Y302571D01*
Y302566D01*
X333430Y302561D01*
X333425Y302547D01*
X333420Y302532D01*
X333405Y302483D01*
X333385Y302419D01*
X333361Y302350D01*
X333336Y302266D01*
X333307Y302178D01*
X333277Y302089D01*
Y302084D01*
X333272Y302079D01*
X333262Y302050D01*
X333248Y302001D01*
X333228Y301942D01*
X333208Y301868D01*
X333184Y301789D01*
X333159Y301705D01*
X333135Y301617D01*
X333095Y301454D01*
Y301450D01*
X333090Y301435D01*
X333085Y301410D01*
X333075Y301381D01*
X333066Y301341D01*
X333056Y301302D01*
X333036Y301218D01*
Y301213D01*
X333031Y301199D01*
X333026Y301179D01*
Y301154D01*
X333016Y301100D01*
X333012Y301041D01*
Y301036D01*
Y301017D01*
X333016Y300997D01*
X333026Y300977D01*
X333031Y300972D01*
X333041Y300967D01*
X333056Y300962D01*
X333080Y300958D01*
X333120D01*
X333144Y300962D01*
X333179D01*
X333218Y300972D01*
X333307Y300987D01*
X333312D01*
X333331Y300992D01*
X333356Y301002D01*
X333390Y301012D01*
X333435Y301022D01*
X333479Y301036D01*
X333582Y301066D01*
X333587D01*
X333607Y301076D01*
X333636Y301085D01*
X333671Y301095D01*
X333715Y301115D01*
X333759Y301130D01*
X333863Y301169D01*
X333868Y301174D01*
X333887Y301179D01*
X333912Y301189D01*
X333946Y301204D01*
X333986Y301218D01*
X334030Y301238D01*
X334119Y301277D01*
X334123D01*
X334128Y301282D01*
X334158Y301292D01*
X334192Y301307D01*
X334227Y301322D01*
X334237Y301327D01*
X334256Y301336D01*
X334291Y301351D01*
X334335Y301366D01*
X334340D01*
X334345Y301371D01*
X334360Y301376D01*
X334379Y301386D01*
X334404Y301395D01*
X334433Y301410D01*
X334507Y301440D01*
X334512D01*
X334527Y301450D01*
X334552Y301459D01*
X334586Y301474D01*
X334630Y301489D01*
X334684Y301514D01*
X334743Y301538D01*
X334812Y301568D01*
X334817D01*
X334832Y301573D01*
X334871Y301587D01*
X334876D01*
X334886Y301592D01*
X334921Y301597D01*
X334940D01*
X334960Y301592D01*
X334980Y301582D01*
X334984Y301577D01*
X334994Y301573D01*
X335009Y301558D01*
X335024Y301543D01*
X335029Y301538D01*
X335034Y301528D01*
X335044Y301509D01*
X335048Y301484D01*
Y301479D01*
X335053Y301464D01*
X335058Y301445D01*
Y301425D01*
Y301415D01*
Y301395D01*
X335053Y301361D01*
X335048Y301331D01*
Y301327D01*
X335044Y301307D01*
X335039Y301287D01*
X335029Y301268D01*
X335024Y301263D01*
X335009Y301243D01*
X334989Y301213D01*
X334955Y301184D01*
X334945Y301179D01*
X334925Y301164D01*
X334896Y301145D01*
X334861Y301120D01*
X334852Y301115D01*
X334832Y301105D01*
X334798Y301090D01*
X334763Y301076D01*
X334753Y301071D01*
X334734Y301066D01*
X334709Y301056D01*
X334684Y301046D01*
X334679Y301041D01*
X334655Y301036D01*
X334625Y301022D01*
X334581Y301007D01*
X334576D01*
X334571Y301002D01*
X334542Y300992D01*
X334502Y300972D01*
X334448Y300953D01*
X334443D01*
X334433Y300948D01*
X334419Y300943D01*
X334404Y300938D01*
X334355Y300918D01*
X334296Y300899D01*
X334291D01*
X334281Y300894D01*
X334266Y300889D01*
X334246Y300879D01*
X334197Y300859D01*
X334143Y300839D01*
X334138D01*
X334133Y300835D01*
X334104Y300825D01*
X334064Y300810D01*
X334020Y300795D01*
X334010Y300790D01*
X333991Y300785D01*
X333966Y300776D01*
X333946Y300766D01*
X333941D01*
X333927Y300761D01*
X333907Y300751D01*
X333877Y300741D01*
X333843Y300731D01*
X333804Y300716D01*
X333715Y300682D01*
X333710D01*
X333695Y300672D01*
X333671Y300662D01*
X333636Y300653D01*
X333602Y300638D01*
X333558Y300623D01*
X333469Y300589D01*
X333464D01*
X333449Y300584D01*
X333425Y300574D01*
X333395Y300564D01*
X333356Y300554D01*
X333317Y300544D01*
X333233Y300520D01*
X333228D01*
X333213Y300515D01*
X333194Y300510D01*
X333169D01*
X333110Y300500D01*
X333051Y300495D01*
X333002D01*
X332952Y300500D01*
X332908Y300505D01*
X332898D01*
X332879Y300515D01*
X332849Y300525D01*
X332815Y300539D01*
X332810Y300544D01*
X332790Y300559D01*
X332761Y300579D01*
X332731Y300603D01*
X332726Y300608D01*
X332702Y300628D01*
X332667Y300653D01*
X332623Y300682D01*
X332613Y300687D01*
X332588Y300712D01*
X332559Y300741D01*
X332534Y300785D01*
Y300790D01*
X332529Y300795D01*
X332524Y300810D01*
Y300830D01*
X332515Y300874D01*
X332510Y300928D01*
Y300933D01*
Y300953D01*
Y300982D01*
X332515Y301017D01*
Y301026D01*
X332520Y301046D01*
X332524Y301081D01*
X332529Y301120D01*
Y301125D01*
Y301130D01*
X332534Y301154D01*
X332544Y301189D01*
X332549Y301228D01*
Y301233D01*
X332554Y301238D01*
X332559Y301263D01*
X332569Y301292D01*
X332579Y301322D01*
X332711Y301730D01*
Y301735D01*
X332716Y301745D01*
X332721Y301764D01*
X332731Y301784D01*
X332741Y301814D01*
X332751Y301848D01*
X332780Y301932D01*
X332810Y302030D01*
X332844Y302133D01*
X332879Y302247D01*
X332918Y302360D01*
Y302365D01*
X332923Y302375D01*
X332928Y302389D01*
X332933Y302414D01*
X332943Y302438D01*
X332952Y302468D01*
X332977Y302547D01*
X333002Y302630D01*
X333031Y302724D01*
X333090Y302921D01*
Y302926D01*
X333095Y302930D01*
Y302945D01*
X333105Y302965D01*
X333115Y303014D01*
X333135Y303073D01*
X333149Y303142D01*
X333169Y303221D01*
X333189Y303299D01*
X333208Y303373D01*
Y303383D01*
X333213Y303408D01*
X333223Y303442D01*
X333233Y303491D01*
X333238Y303541D01*
X333248Y303595D01*
X333253Y303644D01*
X333258Y303693D01*
Y303698D01*
X333262Y303713D01*
X333272Y303732D01*
X333282Y303757D01*
X333312Y303816D01*
X333361Y303870D01*
X333366Y303875D01*
X333376Y303880D01*
X333390Y303890D01*
X333410Y303905D01*
X333464Y303929D01*
X333494Y303934D01*
X333528Y303939D01*
X333538D01*
X333563Y303934D01*
D02*
G37*
G36*
X331113Y285158D02*
X335000D01*
Y284573D01*
X331113D01*
Y283119D01*
X330592D01*
Y286615D01*
X331113D01*
Y285158D01*
D02*
G37*
G36*
X354000Y262905D02*
X352450Y262310D01*
Y260160D01*
X354000Y259600D01*
Y258885D01*
X348875Y260845D01*
Y261580D01*
X354000Y263675D01*
Y262905D01*
D02*
G37*
G36*
X327324Y287492D02*
X328378D01*
Y287046D01*
X327324D01*
Y286000D01*
X326885D01*
Y287046D01*
X325839D01*
Y287492D01*
X326885D01*
Y288539D01*
X327324D01*
Y287492D01*
D02*
G37*
G36*
X392584Y251239D02*
X392618Y251234D01*
X392628D01*
X392648Y251224D01*
X392672Y251215D01*
X392702Y251200D01*
X392707Y251195D01*
X392721Y251180D01*
X392741Y251161D01*
X392756Y251131D01*
X392761Y251126D01*
X392771Y251101D01*
X392775Y251067D01*
X392780Y251023D01*
X392298Y249104D01*
Y249099D01*
X392293Y249089D01*
Y249069D01*
X392288Y249050D01*
X392279Y249015D01*
X392274Y248981D01*
X392269Y248937D01*
X392259Y248887D01*
Y248883D01*
X392254Y248863D01*
Y248838D01*
X392249Y248799D01*
X392244Y248755D01*
X392234Y248705D01*
X392224Y248597D01*
Y248592D01*
Y248573D01*
X392219Y248543D01*
X392215Y248504D01*
X392210Y248454D01*
Y248405D01*
X392200Y248292D01*
Y248287D01*
Y248268D01*
X392195Y248238D01*
Y248204D01*
X392190Y248125D01*
Y248041D01*
Y248036D01*
Y248017D01*
Y247992D01*
X392185Y247958D01*
X392180Y247918D01*
X392175Y247869D01*
X392156Y247776D01*
Y247766D01*
X392146Y247741D01*
X392136Y247712D01*
X392126Y247677D01*
X392121Y247672D01*
X392116Y247653D01*
X392101Y247633D01*
X392082Y247613D01*
X392077Y247608D01*
X392067Y247598D01*
X392042Y247589D01*
X392018Y247579D01*
X392013D01*
X391993Y247574D01*
X391959Y247569D01*
X391880D01*
X391846Y247574D01*
X391811Y247579D01*
X391806Y247584D01*
X391791Y247589D01*
X391772Y247603D01*
X391757Y247618D01*
X391752Y247623D01*
X391747Y247638D01*
X391737Y247657D01*
X391732Y247677D01*
Y247682D01*
Y247697D01*
Y247721D01*
X391727Y247746D01*
Y247751D01*
Y247771D01*
Y247795D01*
X391723Y247825D01*
Y247830D01*
Y247849D01*
X391713Y247874D01*
X391703Y247899D01*
X391698Y247894D01*
X391683Y247884D01*
X391659Y247869D01*
X391624Y247844D01*
X391614Y247839D01*
X391595Y247825D01*
X391560Y247805D01*
X391521Y247780D01*
X391511Y247776D01*
X391491Y247761D01*
X391462Y247741D01*
X391427Y247721D01*
X391422Y247716D01*
X391403Y247707D01*
X391378Y247697D01*
X391358Y247687D01*
X391349Y247682D01*
X391324Y247667D01*
X391285Y247648D01*
X391235Y247618D01*
X391231D01*
X391226Y247613D01*
X391211Y247608D01*
X391191Y247598D01*
X391142Y247579D01*
X391088Y247554D01*
X391083D01*
X391073Y247549D01*
X391058Y247544D01*
X391039Y247539D01*
X390985Y247525D01*
X390921Y247510D01*
X390906D01*
X390886Y247505D01*
X390866D01*
X390807Y247500D01*
X390743Y247495D01*
X390704D01*
X390675Y247500D01*
X390611Y247510D01*
X390532Y247525D01*
X390527D01*
X390517Y247530D01*
X390497Y247539D01*
X390473Y247549D01*
X390414Y247584D01*
X390355Y247633D01*
X390350Y247638D01*
X390340Y247648D01*
X390325Y247662D01*
X390311Y247682D01*
X390291Y247712D01*
X390266Y247741D01*
X390227Y247820D01*
Y247825D01*
X390217Y247839D01*
X390212Y247864D01*
X390202Y247894D01*
X390192Y247933D01*
X390188Y247982D01*
X390178Y248031D01*
Y248085D01*
Y248090D01*
Y248095D01*
Y248120D01*
Y248154D01*
X390183Y248194D01*
Y248199D01*
Y248204D01*
X390188Y248228D01*
X390197Y248268D01*
X390207Y248317D01*
Y248322D01*
X390212Y248341D01*
X390222Y248366D01*
X390232Y248395D01*
X390242Y248435D01*
X390256Y248479D01*
X390291Y248573D01*
Y248577D01*
X390301Y248597D01*
X390311Y248622D01*
X390325Y248651D01*
X390345Y248691D01*
X390365Y248735D01*
X390414Y248828D01*
X390419Y248833D01*
X390429Y248848D01*
X390443Y248878D01*
X390468Y248907D01*
X390493Y248946D01*
X390522Y248986D01*
X390596Y249074D01*
X390601Y249079D01*
X390616Y249094D01*
X390640Y249119D01*
X390670Y249148D01*
X390704Y249183D01*
X390748Y249222D01*
X390798Y249266D01*
X390847Y249306D01*
X390852Y249311D01*
X390862Y249320D01*
X390881Y249335D01*
X390906Y249355D01*
X390970Y249399D01*
X391044Y249448D01*
X391049Y249453D01*
X391063Y249458D01*
X391083Y249473D01*
X391112Y249488D01*
X391142Y249507D01*
X391181Y249527D01*
X391260Y249566D01*
X391265Y249571D01*
X391280Y249576D01*
X391299Y249586D01*
X391329Y249596D01*
X391363Y249611D01*
X391403Y249625D01*
X391481Y249650D01*
X391486D01*
X391501Y249655D01*
X391521Y249660D01*
X391550Y249665D01*
X391585Y249670D01*
X391624Y249675D01*
X391703Y249680D01*
X391752D01*
X391796Y249675D01*
X391841Y249665D01*
X391846D01*
X391850Y249660D01*
X391880Y249655D01*
X391914Y249640D01*
X391959Y249625D01*
Y249630D01*
X391964Y249645D01*
X391969Y249670D01*
X391983Y249714D01*
X391998Y249773D01*
X392008Y249808D01*
X392018Y249852D01*
X392033Y249896D01*
X392047Y249950D01*
X392062Y250009D01*
X392082Y250073D01*
Y250078D01*
X392087Y250093D01*
X392092Y250113D01*
X392101Y250142D01*
X392111Y250177D01*
X392126Y250226D01*
X392136Y250280D01*
X392156Y250339D01*
X392170Y250408D01*
X392190Y250486D01*
X392215Y250570D01*
X392234Y250659D01*
X392259Y250757D01*
X392283Y250860D01*
X392313Y250974D01*
X392338Y251092D01*
Y251097D01*
X392342Y251101D01*
X392357Y251131D01*
X392382Y251165D01*
X392411Y251200D01*
X392421Y251205D01*
X392446Y251224D01*
X392480Y251239D01*
X392525Y251244D01*
X392554D01*
X392584Y251239D01*
D02*
G37*
G36*
X352530Y258330D02*
X352590Y258325D01*
X352660Y258320D01*
X352735Y258315D01*
X352895Y258295D01*
X353060Y258270D01*
X353220Y258230D01*
X353295Y258205D01*
X353365Y258175D01*
X353370D01*
X353380Y258170D01*
X353400Y258160D01*
X353420Y258145D01*
X353450Y258130D01*
X353485Y258110D01*
X353565Y258055D01*
X353650Y257985D01*
X353740Y257900D01*
X353825Y257800D01*
X353900Y257680D01*
Y257675D01*
X353910Y257665D01*
X353915Y257645D01*
X353930Y257620D01*
X353945Y257590D01*
X353960Y257550D01*
X353975Y257505D01*
X353990Y257455D01*
X354010Y257400D01*
X354025Y257340D01*
X354055Y257205D01*
X354075Y257055D01*
X354085Y256890D01*
Y256880D01*
Y256860D01*
X354080Y256825D01*
Y256780D01*
X354075Y256725D01*
X354065Y256660D01*
X354055Y256585D01*
X354035Y256510D01*
X354015Y256425D01*
X353990Y256340D01*
X353960Y256255D01*
X353920Y256170D01*
X353880Y256085D01*
X353825Y256005D01*
X353770Y255925D01*
X353700Y255855D01*
X353695Y255850D01*
X353680Y255840D01*
X353660Y255820D01*
X353630Y255800D01*
X353585Y255775D01*
X353540Y255745D01*
X353480Y255710D01*
X353410Y255680D01*
X353335Y255645D01*
X353250Y255615D01*
X353155Y255585D01*
X353050Y255560D01*
X352940Y255540D01*
X352820Y255525D01*
X352690Y255515D01*
X352550D01*
X352465Y256125D01*
X352490D01*
X352520Y256130D01*
X352560D01*
X352605Y256135D01*
X352660Y256140D01*
X352720Y256150D01*
X352785Y256160D01*
X352915Y256185D01*
X353050Y256225D01*
X353110Y256250D01*
X353170Y256275D01*
X353220Y256305D01*
X353265Y256340D01*
X353275Y256350D01*
X353300Y256375D01*
X353335Y256420D01*
X353370Y256485D01*
X353410Y256560D01*
X353445Y256655D01*
X353470Y256765D01*
X353475Y256820D01*
X353480Y256885D01*
Y256890D01*
Y256895D01*
Y256910D01*
Y256930D01*
X353475Y256975D01*
X353465Y257035D01*
X353450Y257105D01*
X353430Y257180D01*
X353405Y257255D01*
X353365Y257325D01*
X353360Y257335D01*
X353345Y257355D01*
X353320Y257385D01*
X353280Y257425D01*
X353235Y257470D01*
X353185Y257510D01*
X353120Y257550D01*
X353050Y257580D01*
X353040Y257585D01*
X353010Y257590D01*
X352990Y257600D01*
X352960Y257605D01*
X352930Y257610D01*
X352890Y257620D01*
X352850Y257625D01*
X352800Y257630D01*
X352750Y257640D01*
X352690Y257645D01*
X352630Y257650D01*
X352560D01*
X352485Y257655D01*
X348875D01*
Y258335D01*
X352475D01*
X352530Y258330D01*
D02*
G37*
G36*
X408909Y261080D02*
X409909D01*
Y260656D01*
X408909D01*
Y259663D01*
X408492D01*
Y260656D01*
X407499D01*
Y261080D01*
X408492D01*
Y262073D01*
X408909D01*
Y261080D01*
D02*
G37*
G36*
X335000Y281872D02*
X331543Y279559D01*
X335000D01*
Y279000D01*
X330592D01*
Y279598D01*
X334054Y281915D01*
X330592D01*
Y282474D01*
X335000D01*
Y281872D01*
D02*
G37*
G36*
X410500Y257912D02*
Y257410D01*
X406851Y256000D01*
Y256523D01*
X409503Y257470D01*
X409507D01*
X409517Y257474D01*
X409535Y257481D01*
X409557Y257488D01*
X409585Y257499D01*
X409621Y257509D01*
X409656Y257524D01*
X409699Y257538D01*
X409792Y257566D01*
X409891Y257598D01*
X409995Y257630D01*
X410101Y257663D01*
X410098D01*
X410087Y257666D01*
X410073Y257670D01*
X410051Y257677D01*
X410023Y257687D01*
X409991Y257695D01*
X409955Y257705D01*
X409913Y257719D01*
X409824Y257748D01*
X409724Y257780D01*
X409614Y257819D01*
X409503Y257858D01*
X406851Y258848D01*
Y259339D01*
X410500Y257912D01*
D02*
G37*
%LPC*%
G36*
X327558Y307484D02*
Y307476D01*
X327562Y307459D01*
Y307429D01*
X327566Y307394D01*
X327575Y307351D01*
X327579Y307304D01*
X327596Y307209D01*
Y307205D01*
X327601Y307188D01*
X327609Y307162D01*
X327618Y307132D01*
X327640Y307063D01*
X327670Y306990D01*
Y306986D01*
X327678Y306973D01*
X327687Y306956D01*
X327700Y306934D01*
X327730Y306887D01*
X327764Y306839D01*
X327768Y306835D01*
X327773Y306831D01*
X327799Y306809D01*
X327837Y306784D01*
X327880Y306766D01*
X327885Y306762D01*
X327928D01*
X327949Y306766D01*
X327979Y306779D01*
X328001Y306805D01*
X328005Y306814D01*
X328018Y306831D01*
X328027Y306861D01*
X328031Y306904D01*
Y306908D01*
Y306921D01*
X328027Y306938D01*
Y306960D01*
X328009Y307020D01*
X328001Y307050D01*
X327983Y307084D01*
Y307089D01*
X327975Y307097D01*
X327966Y307115D01*
X327949Y307136D01*
X327915Y307192D01*
X327863Y307252D01*
X327859Y307257D01*
X327850Y307265D01*
X327837Y307278D01*
X327816Y307299D01*
X327768Y307343D01*
X327708Y307390D01*
X327704Y307394D01*
X327695Y307398D01*
X327678Y307411D01*
X327661Y307424D01*
X327609Y307454D01*
X327558Y307484D01*
D02*
G37*
G36*
X325312Y302429D02*
X325307Y302424D01*
X325302Y302409D01*
X325272Y302370D01*
X325267Y302365D01*
X325258Y302355D01*
X325238Y302340D01*
X325208Y302325D01*
X325199Y302320D01*
X325179Y302315D01*
X325139Y302301D01*
X325090Y302286D01*
X325076D01*
X325061Y302281D01*
X325041Y302276D01*
X325012Y302271D01*
X324977Y302266D01*
X324898Y302256D01*
X324893D01*
X324884Y302252D01*
X324869Y302247D01*
X324849Y302237D01*
X324795Y302212D01*
X324736Y302178D01*
X324731D01*
X324721Y302168D01*
X324707Y302158D01*
X324687Y302143D01*
X324638Y302099D01*
X324579Y302050D01*
X324574Y302045D01*
X324564Y302035D01*
X324549Y302020D01*
X324534Y302001D01*
X324485Y301951D01*
X324431Y301887D01*
X324426Y301883D01*
X324421Y301873D01*
X324406Y301858D01*
X324392Y301833D01*
X324347Y301779D01*
X324303Y301710D01*
Y301705D01*
X324293Y301696D01*
X324283Y301676D01*
X324269Y301656D01*
X324239Y301597D01*
X324205Y301533D01*
Y301528D01*
X324200Y301518D01*
X324190Y301504D01*
X324185Y301484D01*
X324165Y301435D01*
X324151Y301381D01*
Y301371D01*
X324141Y301346D01*
X324136Y301317D01*
X324131Y301277D01*
Y301268D01*
Y301248D01*
X324126Y301218D01*
Y301184D01*
Y301179D01*
Y301169D01*
Y301154D01*
X324131Y301135D01*
X324136Y301090D01*
X324146Y301036D01*
Y301031D01*
X324151Y301026D01*
X324160Y300997D01*
X324180Y300958D01*
X324210Y300918D01*
X324219Y300908D01*
X324239Y300889D01*
X324278Y300864D01*
X324323Y300839D01*
X324328D01*
X324338Y300835D01*
X324352Y300830D01*
X324372D01*
X324421Y300820D01*
X324490Y300815D01*
X324520D01*
X324554Y300820D01*
X324598Y300825D01*
X324652Y300835D01*
X324707Y300854D01*
X324766Y300874D01*
X324825Y300903D01*
X324830Y300908D01*
X324849Y300918D01*
X324879Y300943D01*
X324918Y300967D01*
X324962Y301002D01*
X325012Y301041D01*
X325056Y301085D01*
X325105Y301135D01*
X325110Y301140D01*
X325125Y301159D01*
X325149Y301189D01*
X325179Y301228D01*
X325208Y301272D01*
X325243Y301322D01*
X325307Y301435D01*
X325312Y301440D01*
X325322Y301459D01*
X325336Y301494D01*
X325351Y301528D01*
X325371Y301573D01*
X325390Y301622D01*
X325425Y301725D01*
Y301730D01*
X325430Y301740D01*
Y301755D01*
X325435Y301774D01*
X325449Y301828D01*
X325459Y301883D01*
Y301887D01*
X325464Y301897D01*
Y301907D01*
X325469Y301927D01*
X325474Y301971D01*
Y302020D01*
Y302025D01*
Y302030D01*
X325469Y302055D01*
X325464Y302094D01*
X325449Y302133D01*
Y302138D01*
X325445Y302143D01*
X325435Y302168D01*
X325420Y302207D01*
X325395Y302256D01*
X325390Y302261D01*
X325381Y302281D01*
X325371Y302311D01*
X325351Y302340D01*
X325346Y302350D01*
X325341Y302370D01*
X325326Y302394D01*
X325312Y302429D01*
D02*
G37*
G36*
X330492Y303447D02*
Y303442D01*
X330483Y303427D01*
X330478Y303403D01*
X330463Y303368D01*
X330448Y303324D01*
X330429Y303275D01*
X330409Y303221D01*
X330389Y303157D01*
X330365Y303088D01*
X330340Y303014D01*
X330291Y302857D01*
X330237Y302684D01*
X330187Y302507D01*
Y302502D01*
X330183Y302488D01*
X330173Y302458D01*
X330168Y302424D01*
X330153Y302379D01*
X330143Y302330D01*
X330128Y302271D01*
X330109Y302207D01*
X330094Y302138D01*
X330074Y302060D01*
X330030Y301897D01*
X329991Y301720D01*
X329946Y301538D01*
Y301533D01*
X329941Y301518D01*
X329937Y301494D01*
X329927Y301464D01*
X329917Y301425D01*
X329907Y301381D01*
X329882Y301287D01*
Y301282D01*
X329877Y301268D01*
X329873Y301238D01*
X329863Y301208D01*
X329853Y301169D01*
X329843Y301130D01*
X329823Y301036D01*
X329882Y301051D01*
X329892D01*
X329917Y301061D01*
X329961Y301071D01*
X330020Y301085D01*
X330025D01*
X330035Y301090D01*
X330055Y301095D01*
X330079Y301100D01*
X330114Y301110D01*
X330148Y301120D01*
X330227Y301145D01*
X330232D01*
X330246Y301149D01*
X330271Y301159D01*
X330301Y301169D01*
X330340Y301179D01*
X330379Y301194D01*
X330473Y301228D01*
X330478Y301233D01*
X330497Y301238D01*
X330522Y301248D01*
X330556Y301263D01*
X330596Y301282D01*
X330640Y301302D01*
X330743Y301351D01*
X330748Y301356D01*
X330768Y301366D01*
X330798Y301376D01*
X330837Y301395D01*
X330876Y301420D01*
X330925Y301445D01*
X331029Y301509D01*
X331034Y301514D01*
X331053Y301523D01*
X331083Y301543D01*
X331117Y301568D01*
X331157Y301597D01*
X331201Y301632D01*
X331299Y301705D01*
X331304Y301710D01*
X331324Y301725D01*
X331349Y301745D01*
X331378Y301774D01*
X331413Y301804D01*
X331452Y301843D01*
X331526Y301927D01*
X331531Y301932D01*
X331540Y301946D01*
X331560Y301971D01*
X331585Y302006D01*
X331609Y302045D01*
X331634Y302089D01*
X331683Y302183D01*
X331688Y302188D01*
X331693Y302207D01*
X331703Y302232D01*
X331713Y302266D01*
X331722Y302311D01*
X331732Y302355D01*
X331742Y302404D01*
Y302458D01*
Y302463D01*
Y302483D01*
X331737Y302512D01*
Y302547D01*
X331727Y302591D01*
X331718Y302635D01*
X331703Y302684D01*
X331683Y302734D01*
Y302739D01*
X331673Y302753D01*
X331659Y302778D01*
X331644Y302812D01*
X331624Y302847D01*
X331595Y302891D01*
X331531Y302975D01*
X331526Y302980D01*
X331516Y302994D01*
X331496Y303014D01*
X331467Y303044D01*
X331437Y303073D01*
X331398Y303108D01*
X331309Y303172D01*
X331304Y303176D01*
X331290Y303186D01*
X331260Y303201D01*
X331230Y303226D01*
X331186Y303245D01*
X331142Y303270D01*
X331044Y303319D01*
X331039Y303324D01*
X331019Y303329D01*
X330994Y303339D01*
X330955Y303354D01*
X330916Y303368D01*
X330866Y303388D01*
X330763Y303413D01*
X330758D01*
X330738Y303418D01*
X330709Y303422D01*
X330675Y303432D01*
X330635Y303437D01*
X330591Y303442D01*
X330492Y303447D01*
D02*
G37*
G36*
X419210Y274133D02*
Y274123D01*
X419215Y274103D01*
Y274069D01*
X419220Y274030D01*
X419230Y273980D01*
X419235Y273926D01*
X419255Y273818D01*
Y273813D01*
X419260Y273793D01*
X419269Y273764D01*
X419279Y273729D01*
X419304Y273651D01*
X419338Y273567D01*
Y273562D01*
X419348Y273547D01*
X419358Y273528D01*
X419373Y273503D01*
X419407Y273449D01*
X419447Y273395D01*
X419451Y273390D01*
X419456Y273385D01*
X419486Y273360D01*
X419530Y273331D01*
X419579Y273311D01*
X419584Y273306D01*
X419633D01*
X419658Y273311D01*
X419693Y273326D01*
X419717Y273356D01*
X419722Y273365D01*
X419737Y273385D01*
X419747Y273419D01*
X419752Y273469D01*
Y273474D01*
Y273488D01*
X419747Y273508D01*
Y273533D01*
X419727Y273602D01*
X419717Y273636D01*
X419697Y273675D01*
Y273680D01*
X419688Y273690D01*
X419678Y273710D01*
X419658Y273734D01*
X419619Y273798D01*
X419560Y273867D01*
X419555Y273872D01*
X419545Y273882D01*
X419530Y273897D01*
X419506Y273921D01*
X419451Y273971D01*
X419382Y274025D01*
X419378Y274030D01*
X419368Y274035D01*
X419348Y274049D01*
X419328Y274064D01*
X419269Y274098D01*
X419210Y274133D01*
D02*
G37*
G36*
X386443Y250595D02*
X386311D01*
X386266Y250590D01*
X386217D01*
X386158Y250585D01*
X386030Y250570D01*
X386020D01*
X386001Y250565D01*
X385966Y250560D01*
X385922Y250555D01*
X385873Y250541D01*
X385814Y250531D01*
X385686Y250491D01*
X385681Y250482D01*
X385676Y250457D01*
X385661Y250413D01*
X385641Y250349D01*
Y250344D01*
X385636Y250334D01*
X385632Y250314D01*
X385627Y250290D01*
X385617Y250260D01*
X385607Y250226D01*
X385582Y250142D01*
Y250137D01*
X385578Y250122D01*
X385568Y250098D01*
X385563Y250068D01*
X385548Y250034D01*
X385538Y249990D01*
X385509Y249896D01*
Y249891D01*
X385504Y249876D01*
X385494Y249847D01*
X385489Y249817D01*
X385474Y249778D01*
X385464Y249734D01*
X385435Y249635D01*
Y249630D01*
X385430Y249611D01*
X385420Y249586D01*
X385410Y249552D01*
X385400Y249512D01*
X385386Y249473D01*
X385361Y249379D01*
Y249375D01*
X385356Y249360D01*
X385351Y249335D01*
X385341Y249306D01*
X385322Y249237D01*
X385299Y249164D01*
X385297Y249163D01*
Y249158D01*
X385299Y249164D01*
X385307Y249168D01*
X385332Y249197D01*
X385376Y249232D01*
X385440Y249266D01*
X385445D01*
X385455Y249276D01*
X385474Y249286D01*
X385504Y249296D01*
X385533Y249311D01*
X385573Y249325D01*
X385656Y249360D01*
X385661D01*
X385671Y249365D01*
X385691Y249375D01*
X385720Y249384D01*
X385755Y249399D01*
X385789Y249414D01*
X385833Y249434D01*
X385882Y249453D01*
X385887Y249458D01*
X385907Y249463D01*
X385932Y249478D01*
X385971Y249498D01*
X386010Y249517D01*
X386060Y249542D01*
X386168Y249596D01*
X386173Y249601D01*
X386192Y249611D01*
X386222Y249625D01*
X386261Y249645D01*
X386306Y249670D01*
X386355Y249699D01*
X386463Y249763D01*
X386468Y249768D01*
X386488Y249778D01*
X386517Y249798D01*
X386557Y249822D01*
X386596Y249852D01*
X386640Y249881D01*
X386734Y249950D01*
X386739Y249955D01*
X386753Y249965D01*
X386773Y249985D01*
X386803Y250014D01*
X386866Y250073D01*
X386926Y250147D01*
X386930Y250152D01*
X386935Y250162D01*
X386950Y250181D01*
X386965Y250206D01*
X386989Y250270D01*
X386994Y250300D01*
X386999Y250334D01*
Y250339D01*
Y250349D01*
X386994Y250363D01*
X386989Y250383D01*
X386975Y250427D01*
X386955Y250452D01*
X386935Y250472D01*
X386930Y250477D01*
X386926Y250482D01*
X386911Y250491D01*
X386896Y250501D01*
X386847Y250526D01*
X386783Y250550D01*
X386778D01*
X386768Y250555D01*
X386748Y250560D01*
X386724Y250565D01*
X386689Y250570D01*
X386655Y250575D01*
X386576Y250585D01*
X386557D01*
X386537Y250590D01*
X386512D01*
X386443Y250595D01*
D02*
G37*
G36*
X322729Y302429D02*
X322724Y302424D01*
X322719Y302409D01*
X322689Y302370D01*
X322684Y302365D01*
X322675Y302355D01*
X322655Y302340D01*
X322625Y302325D01*
X322616Y302320D01*
X322596Y302315D01*
X322556Y302301D01*
X322507Y302286D01*
X322493D01*
X322478Y302281D01*
X322458Y302276D01*
X322429Y302271D01*
X322394Y302266D01*
X322315Y302256D01*
X322310D01*
X322301Y302252D01*
X322286Y302247D01*
X322266Y302237D01*
X322212Y302212D01*
X322153Y302178D01*
X322148D01*
X322138Y302168D01*
X322124Y302158D01*
X322104Y302143D01*
X322055Y302099D01*
X321996Y302050D01*
X321991Y302045D01*
X321981Y302035D01*
X321966Y302020D01*
X321951Y302001D01*
X321902Y301951D01*
X321848Y301887D01*
X321843Y301883D01*
X321838Y301873D01*
X321823Y301858D01*
X321809Y301833D01*
X321764Y301779D01*
X321720Y301710D01*
Y301705D01*
X321710Y301696D01*
X321700Y301676D01*
X321686Y301656D01*
X321656Y301597D01*
X321622Y301533D01*
Y301528D01*
X321617Y301518D01*
X321607Y301504D01*
X321602Y301484D01*
X321582Y301435D01*
X321568Y301381D01*
Y301371D01*
X321558Y301346D01*
X321553Y301317D01*
X321548Y301277D01*
Y301268D01*
Y301248D01*
X321543Y301218D01*
Y301184D01*
Y301179D01*
Y301169D01*
Y301154D01*
X321548Y301135D01*
X321553Y301090D01*
X321563Y301036D01*
Y301031D01*
X321568Y301026D01*
X321577Y300997D01*
X321597Y300958D01*
X321627Y300918D01*
X321637Y300908D01*
X321656Y300889D01*
X321695Y300864D01*
X321740Y300839D01*
X321745D01*
X321755Y300835D01*
X321769Y300830D01*
X321789D01*
X321838Y300820D01*
X321907Y300815D01*
X321937D01*
X321971Y300820D01*
X322015Y300825D01*
X322069Y300835D01*
X322124Y300854D01*
X322183Y300874D01*
X322242Y300903D01*
X322247Y300908D01*
X322266Y300918D01*
X322296Y300943D01*
X322335Y300967D01*
X322379Y301002D01*
X322429Y301041D01*
X322473Y301085D01*
X322522Y301135D01*
X322527Y301140D01*
X322542Y301159D01*
X322566Y301189D01*
X322596Y301228D01*
X322625Y301272D01*
X322660Y301322D01*
X322724Y301435D01*
X322729Y301440D01*
X322739Y301459D01*
X322753Y301494D01*
X322768Y301528D01*
X322788Y301573D01*
X322807Y301622D01*
X322842Y301725D01*
Y301730D01*
X322847Y301740D01*
Y301755D01*
X322852Y301774D01*
X322867Y301828D01*
X322876Y301883D01*
Y301887D01*
X322881Y301897D01*
Y301907D01*
X322886Y301927D01*
X322891Y301971D01*
Y302020D01*
Y302025D01*
Y302030D01*
X322886Y302055D01*
X322881Y302094D01*
X322867Y302133D01*
Y302138D01*
X322862Y302143D01*
X322852Y302168D01*
X322837Y302207D01*
X322812Y302256D01*
X322807Y302261D01*
X322798Y302281D01*
X322788Y302311D01*
X322768Y302340D01*
X322763Y302350D01*
X322758Y302370D01*
X322744Y302394D01*
X322729Y302429D01*
D02*
G37*
G36*
X391821Y249296D02*
X391762D01*
X391737Y249291D01*
X391703Y249286D01*
X391668Y249281D01*
X391585Y249261D01*
X391580D01*
X391565Y249256D01*
X391541Y249252D01*
X391511Y249242D01*
X391477Y249227D01*
X391437Y249212D01*
X391349Y249173D01*
X391344Y249168D01*
X391329Y249163D01*
X391304Y249148D01*
X391275Y249133D01*
X391240Y249109D01*
X391201Y249084D01*
X391112Y249025D01*
X391108Y249020D01*
X391093Y249010D01*
X391073Y248991D01*
X391044Y248971D01*
X391009Y248942D01*
X390975Y248907D01*
X390901Y248833D01*
X390896Y248828D01*
X390886Y248814D01*
X390866Y248794D01*
X390842Y248764D01*
X390817Y248730D01*
X390788Y248691D01*
X390729Y248602D01*
X390724Y248597D01*
X390719Y248582D01*
X390704Y248553D01*
X390689Y248523D01*
X390670Y248479D01*
X390650Y248435D01*
X390620Y248336D01*
Y248331D01*
X390616Y248322D01*
Y248312D01*
X390611Y248292D01*
X390606Y248248D01*
X390601Y248199D01*
Y248194D01*
Y248189D01*
Y248154D01*
X390606Y248115D01*
X390611Y248066D01*
Y248061D01*
X390616Y248056D01*
X390620Y248031D01*
X390635Y247997D01*
X390655Y247958D01*
X390660Y247953D01*
X390680Y247933D01*
X390709Y247908D01*
X390743Y247884D01*
X390748D01*
X390753Y247879D01*
X390783Y247874D01*
X390822Y247864D01*
X390881Y247859D01*
X390911D01*
X390945Y247864D01*
X390985Y247874D01*
X390989D01*
X390994Y247879D01*
X391019Y247889D01*
X391053Y247903D01*
X391093Y247918D01*
X391098D01*
X391103Y247923D01*
X391127Y247933D01*
X391157Y247948D01*
X391191Y247967D01*
X391201Y247972D01*
X391221Y247987D01*
X391245Y248002D01*
X391275Y248022D01*
X391280Y248026D01*
X391290Y248031D01*
X391309Y248041D01*
X391329Y248056D01*
X391383Y248095D01*
X391442Y248135D01*
X391447Y248140D01*
X391457Y248145D01*
X391472Y248159D01*
X391491Y248174D01*
X391536Y248213D01*
X391580Y248258D01*
X391585Y248263D01*
X391590Y248268D01*
X391604Y248282D01*
X391619Y248302D01*
X391654Y248351D01*
X391688Y248410D01*
Y248415D01*
X391698Y248425D01*
X391708Y248445D01*
X391718Y248464D01*
X391727Y248494D01*
X391742Y248528D01*
X391767Y248602D01*
Y248607D01*
X391772Y248617D01*
X391777Y248637D01*
X391782Y248661D01*
X391796Y248715D01*
X391806Y248774D01*
Y248779D01*
X391811Y248789D01*
Y248804D01*
X391816Y248823D01*
X391831Y248873D01*
X391841Y248927D01*
Y248932D01*
X391846Y248942D01*
Y248956D01*
X391850Y248976D01*
X391855Y249020D01*
X391865Y249079D01*
Y249084D01*
X391870Y249094D01*
Y249109D01*
X391875Y249133D01*
X391880Y249188D01*
X391890Y249256D01*
Y249261D01*
X391880Y249266D01*
X391870Y249271D01*
X391855Y249281D01*
X391850Y249286D01*
X391841Y249291D01*
X391821Y249296D01*
D02*
G37*
G36*
X351900Y262100D02*
X350480Y261560D01*
X350470Y261555D01*
X350450Y261550D01*
X350415Y261535D01*
X350370Y261520D01*
X350315Y261500D01*
X350250Y261475D01*
X350180Y261450D01*
X350105Y261425D01*
X349935Y261365D01*
X349755Y261305D01*
X349580Y261245D01*
X349495Y261220D01*
X349415Y261195D01*
X349420D01*
X349435Y261190D01*
X349465Y261185D01*
X349500Y261175D01*
X349545Y261165D01*
X349595Y261155D01*
X349655Y261140D01*
X349720Y261125D01*
X349795Y261105D01*
X349870Y261085D01*
X350035Y261035D01*
X350210Y260980D01*
X350395Y260920D01*
X351900Y260350D01*
Y262100D01*
D02*
G37*
G36*
X333380Y322939D02*
X330696D01*
Y322935D01*
Y322927D01*
Y322919D01*
Y322903D01*
X330699Y322864D01*
X330707Y322821D01*
X330719Y322774D01*
X330735Y322727D01*
X330755Y322691D01*
X330770Y322676D01*
X330786Y322664D01*
X330790Y322660D01*
X330806Y322656D01*
X330821Y322652D01*
X330837Y322648D01*
X330857Y322640D01*
X330884Y322636D01*
X330912Y322632D01*
X330947Y322624D01*
X330986Y322621D01*
X331034Y322617D01*
X331089Y322613D01*
X331148D01*
X331210Y322609D01*
X332963D01*
X333022Y322613D01*
X333081D01*
X333140Y322617D01*
X333187Y322621D01*
X333211Y322624D01*
X333226Y322628D01*
X333230D01*
X333238Y322632D01*
X333254Y322636D01*
X333270Y322644D01*
X333309Y322668D01*
X333325Y322687D01*
X333341Y322707D01*
Y322711D01*
X333348Y322719D01*
X333352Y322734D01*
X333360Y322758D01*
X333368Y322790D01*
X333372Y322833D01*
X333380Y322880D01*
Y322939D01*
D02*
G37*
G36*
X327558Y313264D02*
Y313255D01*
X327562Y313238D01*
Y313208D01*
X327566Y313173D01*
X327575Y313130D01*
X327579Y313083D01*
X327596Y312988D01*
Y312984D01*
X327601Y312967D01*
X327609Y312941D01*
X327618Y312911D01*
X327640Y312842D01*
X327670Y312769D01*
Y312765D01*
X327678Y312752D01*
X327687Y312735D01*
X327700Y312713D01*
X327730Y312666D01*
X327764Y312619D01*
X327768Y312614D01*
X327773Y312610D01*
X327799Y312589D01*
X327837Y312563D01*
X327880Y312545D01*
X327885Y312541D01*
X327928D01*
X327949Y312545D01*
X327979Y312558D01*
X328001Y312584D01*
X328005Y312593D01*
X328018Y312610D01*
X328027Y312640D01*
X328031Y312683D01*
Y312687D01*
Y312700D01*
X328027Y312718D01*
Y312739D01*
X328009Y312799D01*
X328001Y312829D01*
X327983Y312864D01*
Y312868D01*
X327975Y312877D01*
X327966Y312894D01*
X327949Y312915D01*
X327915Y312971D01*
X327863Y313031D01*
X327859Y313036D01*
X327850Y313044D01*
X327837Y313057D01*
X327816Y313079D01*
X327768Y313122D01*
X327708Y313169D01*
X327704Y313173D01*
X327695Y313178D01*
X327678Y313191D01*
X327661Y313203D01*
X327609Y313233D01*
X327558Y313264D01*
D02*
G37*
G36*
X389120Y249252D02*
X389100D01*
X389081Y249247D01*
X389056D01*
X388987Y249227D01*
X388953Y249217D01*
X388913Y249197D01*
X388908D01*
X388898Y249188D01*
X388879Y249178D01*
X388854Y249158D01*
X388790Y249119D01*
X388721Y249060D01*
X388716Y249055D01*
X388707Y249045D01*
X388692Y249030D01*
X388667Y249006D01*
X388618Y248951D01*
X388564Y248883D01*
X388559Y248878D01*
X388554Y248868D01*
X388539Y248848D01*
X388525Y248828D01*
X388490Y248769D01*
X388456Y248710D01*
X388465D01*
X388485Y248715D01*
X388520D01*
X388559Y248720D01*
X388608Y248730D01*
X388662Y248735D01*
X388771Y248755D01*
X388775D01*
X388795Y248760D01*
X388825Y248769D01*
X388859Y248779D01*
X388938Y248804D01*
X389021Y248838D01*
X389026D01*
X389041Y248848D01*
X389061Y248858D01*
X389085Y248873D01*
X389140Y248907D01*
X389194Y248946D01*
X389199Y248951D01*
X389204Y248956D01*
X389228Y248986D01*
X389258Y249030D01*
X389277Y249079D01*
X389282Y249084D01*
Y249099D01*
Y249104D01*
Y249124D01*
Y249129D01*
Y249133D01*
X389277Y249158D01*
X389263Y249193D01*
X389233Y249217D01*
X389223Y249222D01*
X389204Y249237D01*
X389169Y249247D01*
X389120Y249252D01*
D02*
G37*
G36*
X332503Y313428D02*
X330833D01*
X330786Y313424D01*
X330735Y313420D01*
X330684Y313417D01*
X330641Y313409D01*
X330605Y313401D01*
X330601D01*
X330593Y313393D01*
X330582Y313385D01*
X330570Y313373D01*
X330558Y313358D01*
X330546Y313338D01*
X330538Y313310D01*
X330535Y313279D01*
Y313275D01*
Y313263D01*
X330538Y313247D01*
X330542Y313232D01*
X330550Y313212D01*
X330562Y313193D01*
X330578Y313173D01*
X330597Y313161D01*
X330601D01*
X330613Y313157D01*
X330629Y313149D01*
X330656Y313145D01*
X330696Y313138D01*
X330747Y313134D01*
X330806Y313130D01*
X332500D01*
X332555Y313134D01*
X332610Y313138D01*
X332661Y313141D01*
X332708Y313149D01*
X332723Y313157D01*
X332739Y313161D01*
X332743D01*
X332751Y313165D01*
X332759Y313173D01*
X332775Y313185D01*
X332786Y313200D01*
X332794Y313224D01*
X332802Y313247D01*
X332806Y313279D01*
Y313283D01*
Y313295D01*
X332802Y313310D01*
X332798Y313326D01*
X332790Y313350D01*
X332779Y313369D01*
X332763Y313385D01*
X332739Y313401D01*
X332735D01*
X332723Y313405D01*
X332704Y313409D01*
X332672Y313413D01*
X332633Y313420D01*
X332574Y313424D01*
X332543D01*
X332503Y313428D01*
D02*
G37*
%LPD*%
D30*
X386126Y275732D02*
Y297327D01*
X365260Y275673D02*
X386126D01*
X365260Y297327D02*
X386126D01*
X365260Y275673D02*
Y297327D01*
D50*
X374161Y243602D02*
G03*
X375028Y242736I866J0D01*
G01*
Y247264D02*
G03*
X374161Y246398I0J-866D01*
G01*
X380972Y242736D02*
G03*
X381839Y243602I0J866D01*
G01*
Y246398D02*
G03*
X380972Y247264I-866J0D01*
G01*
X354602Y254339D02*
G03*
X353736Y253472I0J-866D01*
G01*
X358264D02*
G03*
X357398Y254339I-866J0D01*
G01*
X353736Y247528D02*
G03*
X354602Y246661I866J0D01*
G01*
X357398D02*
G03*
X358264Y247528I0J866D01*
G01*
X372398Y254661D02*
G03*
X373264Y255528I0J866D01*
G01*
X368736D02*
G03*
X369602Y254661I866J0D01*
G01*
X373264Y261472D02*
G03*
X372398Y262339I-866J0D01*
G01*
X369602D02*
G03*
X368736Y261472I0J-866D01*
G01*
X372398Y264161D02*
G03*
X373264Y265028I0J866D01*
G01*
X368736D02*
G03*
X369602Y264161I866J0D01*
G01*
X373264Y270972D02*
G03*
X372398Y271839I-866J0D01*
G01*
X369602D02*
G03*
X368736Y270972I0J-866D01*
G01*
X351898Y246661D02*
G03*
X352764Y247528I0J866D01*
G01*
X348236D02*
G03*
X349102Y246661I866J0D01*
G01*
X352764Y253472D02*
G03*
X351898Y254339I-866J0D01*
G01*
X349102D02*
G03*
X348236Y253472I0J-866D01*
G01*
X358661Y265602D02*
G03*
X359528Y264736I866J0D01*
G01*
Y269264D02*
G03*
X358661Y268398I0J-866D01*
G01*
X365472Y264736D02*
G03*
X366339Y265602I0J866D01*
G01*
Y268398D02*
G03*
X365472Y269264I-866J0D01*
G01*
X394500Y282031D02*
G03*
X396075Y283606I0J1575D01*
G01*
X387925Y283606D02*
G03*
X389500Y282031I1575J0D01*
G01*
X389500Y295969D02*
G03*
X387925Y294394I0J-1575D01*
G01*
X396075Y294394D02*
G03*
X394500Y295969I-1575J0D01*
G01*
X323602Y299339D02*
G03*
X322736Y298472I0J-866D01*
G01*
X327264D02*
G03*
X326398Y299339I-866J0D01*
G01*
X322736Y292528D02*
G03*
X323602Y291661I866J0D01*
G01*
X326398D02*
G03*
X327264Y292528I0J866D01*
G01*
X318102Y299339D02*
G03*
X317236Y298472I0J-866D01*
G01*
X321764D02*
G03*
X320898Y299339I-866J0D01*
G01*
X317236Y292528D02*
G03*
X318102Y291661I866J0D01*
G01*
X320898D02*
G03*
X321764Y292528I0J866D01*
G01*
X329102Y299339D02*
G03*
X328236Y298472I0J-866D01*
G01*
X332764D02*
G03*
X331898Y299339I-866J0D01*
G01*
X328236Y292528D02*
G03*
X329102Y291661I866J0D01*
G01*
X331898D02*
G03*
X332764Y292528I0J866D01*
G01*
X338661Y300102D02*
G03*
X339528Y299236I866J0D01*
G01*
Y303764D02*
G03*
X338661Y302898I0J-866D01*
G01*
X345472Y299236D02*
G03*
X346339Y300102I0J866D01*
G01*
Y302898D02*
G03*
X345472Y303764I-866J0D01*
G01*
X354839Y302898D02*
G03*
X353972Y303764I-866J0D01*
G01*
Y299236D02*
G03*
X354839Y300102I0J866D01*
G01*
X348028Y303764D02*
G03*
X347161Y302898I0J-866D01*
G01*
Y300102D02*
G03*
X348028Y299236I866J0D01*
G01*
X361035Y270457D02*
G03*
X362610Y272031I0J1575D01*
G01*
X356390Y272031D02*
G03*
X357965Y270457I1575J0D01*
G01*
X357965Y282543D02*
G03*
X356390Y280968I0J-1575D01*
G01*
X362610D02*
G03*
X361035Y282543I-1575J-0D01*
G01*
X357965Y298043D02*
G03*
X356390Y296468I0J-1575D01*
G01*
X362610Y296468D02*
G03*
X361035Y298043I-1575J-0D01*
G01*
X361035Y285957D02*
G03*
X362610Y287531I0J1575D01*
G01*
X356390D02*
G03*
X357965Y285957I1575J0D01*
G01*
X332681Y261736D02*
X335339D01*
X327661D02*
X330319D01*
X332681Y266264D02*
X335339D01*
X327661D02*
X330319D01*
X335339Y261736D02*
Y266264D01*
X327661Y261736D02*
Y266264D01*
X374161Y243602D02*
Y246398D01*
X375047Y242736D02*
X376819D01*
X375047Y247264D02*
X376819D01*
X379181Y242736D02*
X380953D01*
X379181Y247264D02*
X380953D01*
X381839Y243602D02*
Y246398D01*
X330236Y270661D02*
Y273319D01*
Y275681D02*
Y278339D01*
X334764Y270661D02*
Y273319D01*
Y275681D02*
Y278339D01*
X330236Y270661D02*
X334764D01*
X330236Y278339D02*
X334764D01*
X393819Y279331D02*
X396181D01*
X393819Y270669D02*
X396181D01*
X393819D02*
Y279331D01*
X396181Y270669D02*
Y279331D01*
X404095Y264094D02*
Y275905D01*
X415905Y264094D02*
Y275905D01*
X418736Y279161D02*
Y281819D01*
Y284181D02*
Y286839D01*
X423264Y279161D02*
Y281819D01*
Y284181D02*
Y286839D01*
X418736Y279161D02*
X423264D01*
X418736Y286839D02*
X423264D01*
X365319Y242595D02*
X367681D01*
X365319Y254405D02*
X367681D01*
Y242595D02*
Y254405D01*
X365319Y242595D02*
Y254405D01*
X354602Y254339D02*
X357398D01*
X353736Y251681D02*
Y253453D01*
X358264Y251681D02*
Y253453D01*
X353736Y247547D02*
Y249319D01*
X358264Y247547D02*
Y249319D01*
X354602Y246661D02*
X357398D01*
X375669Y255181D02*
X384331D01*
X375669Y252819D02*
X384331D01*
Y255181D01*
X375669Y252819D02*
Y255181D01*
Y266319D02*
Y268681D01*
X384331Y266319D02*
Y268681D01*
X375669Y266319D02*
X384331D01*
X375669Y268681D02*
X384331D01*
X369602Y254661D02*
X372398D01*
X373264Y255547D02*
Y257319D01*
X368736Y255547D02*
Y257319D01*
X373264Y259681D02*
Y261453D01*
X368736Y259681D02*
Y261453D01*
X369602Y262339D02*
X372398D01*
X369602Y264161D02*
X372398D01*
X373264Y265047D02*
Y266819D01*
X368736Y265047D02*
Y266819D01*
X373264Y269181D02*
Y270953D01*
X368736Y269181D02*
Y270953D01*
X369602Y271839D02*
X372398D01*
X349102Y246661D02*
X351898D01*
X352764Y247547D02*
Y249319D01*
X348236Y247547D02*
Y249319D01*
X352764Y251681D02*
Y253453D01*
X348236Y251681D02*
Y253453D01*
X349102Y254339D02*
X351898D01*
X358661Y265602D02*
Y268398D01*
X359547Y264736D02*
X361319D01*
X359547Y269264D02*
X361319D01*
X363681Y264736D02*
X365453D01*
X363681Y269264D02*
X365453D01*
X366339Y265602D02*
Y268398D01*
X354681Y264736D02*
X357339D01*
X349661D02*
X352319D01*
X354681Y269264D02*
X357339D01*
X349661D02*
X352319D01*
X357339Y264736D02*
Y269264D01*
X349661Y264736D02*
Y269264D01*
X332681Y266236D02*
X335339D01*
X327661D02*
X330319D01*
X332681Y270764D02*
X335339D01*
X327661D02*
X330319D01*
X335339Y266236D02*
Y270764D01*
X327661Y266236D02*
Y270764D01*
X398728Y287724D02*
X404063D01*
X417272Y278276D02*
Y287724D01*
X398728Y278276D02*
Y287724D01*
Y278276D02*
X404063D01*
X411937D02*
X417272D01*
X411937Y287724D02*
X417272D01*
X327181Y270736D02*
X329839D01*
X322161D02*
X324819D01*
X327181Y275264D02*
X329839D01*
X322161D02*
X324819D01*
X329839Y270736D02*
Y275264D01*
X322161Y270736D02*
Y275264D01*
Y280764D02*
X324819D01*
X327181D02*
X329839D01*
X322161Y276236D02*
X324819D01*
X327181D02*
X329839D01*
X322161D02*
Y280764D01*
X329839Y276236D02*
Y280764D01*
X396075Y290772D02*
Y294394D01*
Y283606D02*
Y287228D01*
X387925Y283606D02*
Y287228D01*
X389500Y282031D02*
X394500D01*
X387925Y290772D02*
Y294394D01*
X389500Y295969D02*
X394500D01*
X322181Y286236D02*
X324839D01*
X317161D02*
X319819D01*
X322181Y290764D02*
X324839D01*
X317161D02*
X319819D01*
X324839Y286236D02*
Y290764D01*
X317161Y286236D02*
Y290764D01*
X323602Y299339D02*
X326398D01*
X322736Y296681D02*
Y298453D01*
X327264Y296681D02*
Y298453D01*
X322736Y292547D02*
Y294319D01*
X327264Y292547D02*
Y294319D01*
X323602Y291661D02*
X326398D01*
X318102Y299339D02*
X320898D01*
X317236Y296681D02*
Y298453D01*
X321764Y296681D02*
Y298453D01*
X317236Y292547D02*
Y294319D01*
X321764Y292547D02*
Y294319D01*
X318102Y291661D02*
X320898D01*
X329102Y299339D02*
X331898D01*
X328236Y296681D02*
Y298453D01*
X332764Y296681D02*
Y298453D01*
X328236Y292547D02*
Y294319D01*
X332764Y292547D02*
Y294319D01*
X329102Y291661D02*
X331898D01*
X338661Y300102D02*
Y302898D01*
X339547Y299236D02*
X341319D01*
X339547Y303764D02*
X341319D01*
X343681Y299236D02*
X345453D01*
X343681Y303764D02*
X345453D01*
X346339Y300102D02*
Y302898D01*
X354839Y300102D02*
Y302898D01*
X352181Y303764D02*
X353953D01*
X352181Y299236D02*
X353953D01*
X348047Y303764D02*
X349819D01*
X348047Y299236D02*
X349819D01*
X347161Y300102D02*
Y302898D01*
X362610Y278075D02*
Y280968D01*
X357965Y270457D02*
X361035D01*
X357965Y282543D02*
X361035D01*
X362610Y272031D02*
Y274925D01*
X356390Y272031D02*
Y274925D01*
X356390Y278075D02*
Y280968D01*
Y287531D02*
Y290425D01*
X357965Y298043D02*
X361035D01*
X357965Y285957D02*
X361035D01*
X356390Y293575D02*
Y296468D01*
X362610Y293575D02*
Y296468D01*
X362610Y287531D02*
Y290425D01*
X337035Y274067D02*
X338512D01*
X337035D02*
Y275543D01*
X352488Y274067D02*
X353965D01*
Y275543D01*
Y293457D02*
Y294933D01*
X352488D02*
X353965D01*
X337035D02*
X338512D01*
X337035Y293457D02*
Y294933D01*
X335358Y256457D02*
X347444D01*
Y268543D01*
X335358D02*
X347444D01*
X335358Y256457D02*
Y268543D01*
X386858Y252457D02*
Y269543D01*
Y252457D02*
X398944D01*
Y269543D01*
X386858D02*
X398944D01*
D51*
X391063Y280512D02*
G03*
X391063Y280512I-492J0D01*
G01*
X371716Y241413D02*
G03*
X371716Y241413I-492J0D01*
G01*
X374980Y249571D02*
G03*
X374980Y249571I-492J0D01*
G01*
Y263071D02*
G03*
X374980Y263071I-492J0D01*
G01*
X334968Y294342D02*
G03*
X334968Y294342I-492J0D01*
G01*
D52*
X366111Y255220D02*
G03*
X366111Y255220I-197J0D01*
G01*
D53*
X356000Y255000D02*
X364000D01*
X356000Y264000D02*
X364000D01*
D54*
X402000Y264500D02*
D03*
D55*
X365750Y273750D02*
D03*
D56*
X335250Y297250D02*
D03*
D57*
X366500Y244047D02*
D03*
D58*
X376835Y254000D02*
D03*
Y267500D02*
D03*
%TF.MD5,ED34590032BA95B7D73BF57DB9AEAE67*%
M02*
