G04 Layer_Color=2752767*
%FSLAX25Y25*%
%MOIN*%
%TF.FileFunction,Drawing*%
%TF.Part,Single*%
G01*
G75*
%ADD84C,0.00500*%
%ADD85C,0.00667*%
D84*
X341901Y263000D02*
Y267000D01*
X345901D01*
Y263000D01*
X341901D01*
Y258000D02*
Y262000D01*
X345901D01*
Y258000D01*
X341901D01*
X336901Y263000D02*
Y267000D01*
X340901D01*
Y263000D01*
X336901D01*
Y258000D02*
Y262000D01*
X340901D01*
Y258000D01*
X336901D01*
X393401Y254000D02*
Y258000D01*
X397401D01*
Y254000D01*
X393401D01*
X388401D02*
Y258000D01*
X392401D01*
Y254000D01*
X388401D01*
X393401Y259000D02*
Y263000D01*
X397401D01*
Y259000D01*
X393401D01*
X388401D02*
Y263000D01*
X392401D01*
Y259000D01*
X388401D01*
X393401Y264000D02*
Y268000D01*
X397401D01*
Y264000D01*
X393401D01*
X388401D02*
Y268000D01*
X392401D01*
Y264000D01*
X388401D01*
X423394Y291000D02*
X421394Y295000D01*
X425394D01*
X423394Y291000D01*
X416394D02*
X414394Y295000D01*
X418394D01*
X416394Y291000D01*
X409394D02*
X407394Y295000D01*
X411394D01*
X409394Y291000D01*
X402394D02*
X400394Y295000D01*
X404394D01*
X402394Y291000D01*
X403500Y262000D02*
X404500Y263000D01*
X405500D01*
X404500Y264000D01*
X405500Y265000D01*
X404500D01*
X403500Y266000D01*
X402500Y265000D01*
X401500D01*
X402500Y264000D01*
X401500Y263000D01*
X402500D01*
X403500Y262000D01*
X419673Y279327D02*
X420673Y280327D01*
X421673D01*
X420673Y281327D01*
X421673Y282327D01*
X420673D01*
X419673Y283327D01*
X418673Y282327D01*
X417673D01*
X418673Y281327D01*
X417673Y280327D01*
X418673D01*
X419673Y279327D01*
X416480Y264520D02*
X417480Y265520D01*
X418480D01*
X417480Y266520D01*
X418480Y267520D01*
X417480D01*
X416480Y268520D01*
X415480Y267520D01*
X414480D01*
X415480Y266520D01*
X414480Y265520D01*
X415480D01*
X416480Y264520D01*
X402500Y273000D02*
X403500Y274000D01*
X404500D01*
X403500Y275000D01*
X404500Y276000D01*
X403500D01*
X402500Y277000D01*
X401500Y276000D01*
X400500D01*
X401500Y275000D01*
X400500Y274000D01*
X401500D01*
X402500Y273000D01*
X421000Y282673D02*
X422000Y283673D01*
X423000D01*
X422000Y284673D01*
X423000Y285673D01*
X422000D01*
X421000Y286673D01*
X420000Y285673D01*
X419000D01*
X420000Y284673D01*
X419000Y283673D01*
X420000D01*
X421000Y282673D01*
X373280Y263534D02*
X374279Y264534D01*
X375279D01*
X374279Y265534D01*
X375279Y266534D01*
X374279D01*
X373280Y267534D01*
X372280Y266534D01*
X371280D01*
X372280Y265534D01*
X371280Y264534D01*
X372280D01*
X373280Y263534D01*
X385404Y261596D02*
X386404Y262596D01*
X387404D01*
X386404Y263596D01*
X387404Y264596D01*
X386404D01*
X385404Y265596D01*
X384404Y264596D01*
X383404D01*
X384404Y263596D01*
X383404Y262596D01*
X384404D01*
X385404Y261596D01*
X343500Y278000D02*
X344500Y279000D01*
X345500D01*
X344500Y280000D01*
X345500Y281000D01*
X344500D01*
X343500Y282000D01*
X342500Y281000D01*
X341500D01*
X342500Y280000D01*
X341500Y279000D01*
X342500D01*
X343500Y278000D01*
X345500D02*
X346500Y279000D01*
X347500D01*
X346500Y280000D01*
X347500Y281000D01*
X346500D01*
X345500Y282000D01*
X344500Y281000D01*
X343500D01*
X344500Y280000D01*
X343500Y279000D01*
X344500D01*
X345500Y278000D01*
Y280000D02*
X346500Y281000D01*
X347500D01*
X346500Y282000D01*
X347500Y283000D01*
X346500D01*
X345500Y284000D01*
X344500Y283000D01*
X343500D01*
X344500Y282000D01*
X343500Y281000D01*
X344500D01*
X345500Y280000D01*
X343500D02*
X344500Y281000D01*
X345500D01*
X344500Y282000D01*
X345500Y283000D01*
X344500D01*
X343500Y284000D01*
X342500Y283000D01*
X341500D01*
X342500Y282000D01*
X341500Y281000D01*
X342500D01*
X343500Y280000D01*
X361000Y265000D02*
X362000Y266000D01*
X363000D01*
X362000Y267000D01*
X363000Y268000D01*
X362000D01*
X361000Y269000D01*
X360000Y268000D01*
X359000D01*
X360000Y267000D01*
X359000Y266000D01*
X360000D01*
X361000Y265000D01*
X344500Y251500D02*
X345500Y252500D01*
X346500D01*
X345500Y253500D01*
X346500Y254500D01*
X345500D01*
X344500Y255500D01*
X343500Y254500D01*
X342500D01*
X343500Y253500D01*
X342500Y252500D01*
X343500D01*
X344500Y251500D01*
X379500Y250500D02*
X380500Y251500D01*
X381500D01*
X380500Y252500D01*
X381500Y253500D01*
X380500D01*
X379500Y254500D01*
X378500Y253500D01*
X377500D01*
X378500Y252500D01*
X377500Y251500D01*
X378500D01*
X379500Y250500D01*
X380000Y257000D02*
X381000Y258000D01*
X382000D01*
X381000Y259000D01*
X382000Y260000D01*
X381000D01*
X380000Y261000D01*
X379000Y260000D01*
X378000D01*
X379000Y259000D01*
X378000Y258000D01*
X379000D01*
X380000Y257000D01*
X371500Y273000D02*
X372500Y274000D01*
X373500D01*
X372500Y275000D01*
X373500Y276000D01*
X372500D01*
X371500Y277000D01*
X370500Y276000D01*
X369500D01*
X370500Y275000D01*
X369500Y274000D01*
X370500D01*
X371500Y273000D01*
X356000Y245500D02*
X357000Y246500D01*
X358000D01*
X357000Y247500D01*
X358000Y248500D01*
X357000D01*
X356000Y249500D01*
X355000Y248500D01*
X354000D01*
X355000Y247500D01*
X354000Y246500D01*
X355000D01*
X356000Y245500D01*
X350500Y250173D02*
X351500Y251173D01*
X352500D01*
X351500Y252173D01*
X352500Y253173D01*
X351500D01*
X350500Y254173D01*
X349500Y253173D01*
X348500D01*
X349500Y252173D01*
X348500Y251173D01*
X349500D01*
X350500Y250173D01*
X368000Y253000D02*
X369000Y254000D01*
X370000D01*
X369000Y255000D01*
X370000Y256000D01*
X369000D01*
X368000Y257000D01*
X367000Y256000D01*
X366000D01*
X367000Y255000D01*
X366000Y254000D01*
X367000D01*
X368000Y253000D01*
X360000Y254000D02*
X361000Y255000D01*
X362000D01*
X361000Y256000D01*
X362000Y257000D01*
X361000D01*
X360000Y258000D01*
X359000Y257000D01*
X358000D01*
X359000Y256000D01*
X358000Y255000D01*
X359000D01*
X360000Y254000D01*
X346000Y249000D02*
X347000Y250000D01*
X348000D01*
X347000Y251000D01*
X348000Y252000D01*
X347000D01*
X346000Y253000D01*
X345000Y252000D01*
X344000D01*
X345000Y251000D01*
X344000Y250000D01*
X345000D01*
X346000Y249000D01*
X356102Y253102D02*
X357102Y254102D01*
X358102D01*
X357102Y255102D01*
X358102Y256102D01*
X357102D01*
X356102Y257102D01*
X355102Y256102D01*
X354102D01*
X355102Y255102D01*
X354102Y254102D01*
X355102D01*
X356102Y253102D01*
X351500Y256500D02*
X352500Y257500D01*
X353500D01*
X352500Y258500D01*
X353500Y259500D01*
X352500D01*
X351500Y260500D01*
X350500Y259500D01*
X349500D01*
X350500Y258500D01*
X349500Y257500D01*
X350500D01*
X351500Y256500D01*
Y259500D02*
X352500Y260500D01*
X353500D01*
X352500Y261500D01*
X353500Y262500D01*
X352500D01*
X351500Y263500D01*
X350500Y262500D01*
X349500D01*
X350500Y261500D01*
X349500Y260500D01*
X350500D01*
X351500Y259500D01*
X355173Y265000D02*
X356173Y266000D01*
X357173D01*
X356173Y267000D01*
X357173Y268000D01*
X356173D01*
X355173Y269000D01*
X354173Y268000D01*
X353173D01*
X354173Y267000D01*
X353173Y266000D01*
X354173D01*
X355173Y265000D01*
X349500Y262000D02*
X350500Y263000D01*
X351500D01*
X350500Y264000D01*
X351500Y265000D01*
X350500D01*
X349500Y266000D01*
X348500Y265000D01*
X347500D01*
X348500Y264000D01*
X347500Y263000D01*
X348500D01*
X349500Y262000D01*
X350421Y269421D02*
X351421Y270421D01*
X352421D01*
X351421Y271421D01*
X352421Y272421D01*
X351421D01*
X350421Y273421D01*
X349421Y272421D01*
X348421D01*
X349421Y271421D01*
X348421Y270421D01*
X349421D01*
X350421Y269421D01*
X358500Y270500D02*
X359500Y271500D01*
X360500D01*
X359500Y272500D01*
X360500Y273500D01*
X359500D01*
X358500Y274500D01*
X357500Y273500D01*
X356500D01*
X357500Y272500D01*
X356500Y271500D01*
X357500D01*
X358500Y270500D01*
X365500Y244000D02*
X366500Y245000D01*
X367500D01*
X366500Y246000D01*
X367500Y247000D01*
X366500D01*
X365500Y248000D01*
X364500Y247000D01*
X363500D01*
X364500Y246000D01*
X363500Y245000D01*
X364500D01*
X365500Y244000D01*
X367500Y248000D02*
X368500Y249000D01*
X369500D01*
X368500Y250000D01*
X369500Y251000D01*
X368500D01*
X367500Y252000D01*
X366500Y251000D01*
X365500D01*
X366500Y250000D01*
X365500Y249000D01*
X366500D01*
X367500Y248000D01*
X374000Y246500D02*
X375000Y247500D01*
X376000D01*
X375000Y248500D01*
X376000Y249500D01*
X375000D01*
X374000Y250500D01*
X373000Y249500D01*
X372000D01*
X373000Y248500D01*
X372000Y247500D01*
X373000D01*
X374000Y246500D01*
X385500Y258500D02*
X386500Y259500D01*
X387500D01*
X386500Y260500D01*
X387500Y261500D01*
X386500D01*
X385500Y262500D01*
X384500Y261500D01*
X383500D01*
X384500Y260500D01*
X383500Y259500D01*
X384500D01*
X385500Y258500D01*
X374240Y250240D02*
X375240Y251240D01*
X376240D01*
X375240Y252240D01*
X376240Y253240D01*
X375240D01*
X374240Y254240D01*
X373240Y253240D01*
X372240D01*
X373240Y252240D01*
X372240Y251240D01*
X373240D01*
X374240Y250240D01*
X386500Y246000D02*
X387500Y247000D01*
X388500D01*
X387500Y248000D01*
X388500Y249000D01*
X387500D01*
X386500Y250000D01*
X385500Y249000D01*
X384500D01*
X385500Y248000D01*
X384500Y247000D01*
X385500D01*
X386500Y246000D01*
X371000Y261000D02*
X372000Y262000D01*
X373000D01*
X372000Y263000D01*
X373000Y264000D01*
X372000D01*
X371000Y265000D01*
X370000Y264000D01*
X369000D01*
X370000Y263000D01*
X369000Y262000D01*
X370000D01*
X371000Y261000D01*
X382559Y250941D02*
X383559Y251941D01*
X384559D01*
X383559Y252941D01*
X384559Y253941D01*
X383559D01*
X382559Y254941D01*
X381559Y253941D01*
X380559D01*
X381559Y252941D01*
X380559Y251941D01*
X381559D01*
X382559Y250941D01*
X376441Y267059D02*
X377441Y268059D01*
X378441D01*
X377441Y269059D01*
X378441Y270059D01*
X377441D01*
X376441Y271059D01*
X375441Y270059D01*
X374441D01*
X375441Y269059D01*
X374441Y268059D01*
X375441D01*
X376441Y267059D01*
X338500Y269000D02*
X339500Y270000D01*
X340500D01*
X339500Y271000D01*
X340500Y272000D01*
X339500D01*
X338500Y273000D01*
X337500Y272000D01*
X336500D01*
X337500Y271000D01*
X336500Y270000D01*
X337500D01*
X338500Y269000D01*
X328827Y266827D02*
X329827Y267827D01*
X330827D01*
X329827Y268827D01*
X330827Y269827D01*
X329827D01*
X328827Y270827D01*
X327827Y269827D01*
X326827D01*
X327827Y268827D01*
X326827Y267827D01*
X327827D01*
X328827Y266827D01*
X334000Y273000D02*
X335000Y274000D01*
X336000D01*
X335000Y275000D01*
X336000Y276000D01*
X335000D01*
X334000Y277000D01*
X333000Y276000D01*
X332000D01*
X333000Y275000D01*
X332000Y274000D01*
X333000D01*
X334000Y273000D01*
X332500Y278500D02*
X333500Y279500D01*
X334500D01*
X333500Y280500D01*
X334500Y281500D01*
X333500D01*
X332500Y282500D01*
X331500Y281500D01*
X330500D01*
X331500Y280500D01*
X330500Y279500D01*
X331500D01*
X332500Y278500D01*
Y281500D02*
X333500Y282500D01*
X334500D01*
X333500Y283500D01*
X334500Y284500D01*
X333500D01*
X332500Y285500D01*
X331500Y284500D01*
X330500D01*
X331500Y283500D01*
X330500Y282500D01*
X331500D01*
X332500Y281500D01*
X406000Y281000D02*
X407000Y282000D01*
X408000D01*
X407000Y283000D01*
X408000Y284000D01*
X407000D01*
X406000Y285000D01*
X405000Y284000D01*
X404000D01*
X405000Y283000D01*
X404000Y282000D01*
X405000D01*
X406000Y281000D01*
X410000D02*
X411000Y282000D01*
X412000D01*
X411000Y283000D01*
X412000Y284000D01*
X411000D01*
X410000Y285000D01*
X409000Y284000D01*
X408000D01*
X409000Y283000D01*
X408000Y282000D01*
X409000D01*
X410000Y281000D01*
X388500Y293500D02*
X389500Y294500D01*
X390500D01*
X389500Y295500D01*
X390500Y296500D01*
X389500D01*
X388500Y297500D01*
X387500Y296500D01*
X386500D01*
X387500Y295500D01*
X386500Y294500D01*
X387500D01*
X388500Y293500D01*
Y291000D02*
X389500Y292000D01*
X390500D01*
X389500Y293000D01*
X390500Y294000D01*
X389500D01*
X388500Y295000D01*
X387500Y294000D01*
X386500D01*
X387500Y293000D01*
X386500Y292000D01*
X387500D01*
X388500Y291000D01*
X386500D02*
X387500Y292000D01*
X388500D01*
X387500Y293000D01*
X388500Y294000D01*
X387500D01*
X386500Y295000D01*
X385500Y294000D01*
X384500D01*
X385500Y293000D01*
X384500Y292000D01*
X385500D01*
X386500Y291000D01*
X384500D02*
X385500Y292000D01*
X386500D01*
X385500Y293000D01*
X386500Y294000D01*
X385500D01*
X384500Y295000D01*
X383500Y294000D01*
X382500D01*
X383500Y293000D01*
X382500Y292000D01*
X383500D01*
X384500Y291000D01*
X382500D02*
X383500Y292000D01*
X384500D01*
X383500Y293000D01*
X384500Y294000D01*
X383500D01*
X382500Y295000D01*
X381500Y294000D01*
X380500D01*
X381500Y293000D01*
X380500Y292000D01*
X381500D01*
X382500Y291000D01*
X386500Y293500D02*
X387500Y294500D01*
X388500D01*
X387500Y295500D01*
X388500Y296500D01*
X387500D01*
X386500Y297500D01*
X385500Y296500D01*
X384500D01*
X385500Y295500D01*
X384500Y294500D01*
X385500D01*
X386500Y293500D01*
X384500D02*
X385500Y294500D01*
X386500D01*
X385500Y295500D01*
X386500Y296500D01*
X385500D01*
X384500Y297500D01*
X383500Y296500D01*
X382500D01*
X383500Y295500D01*
X382500Y294500D01*
X383500D01*
X384500Y293500D01*
X382500D02*
X383500Y294500D01*
X384500D01*
X383500Y295500D01*
X384500Y296500D01*
X383500D01*
X382500Y297500D01*
X381500Y296500D01*
X380500D01*
X381500Y295500D01*
X380500Y294500D01*
X381500D01*
X382500Y293500D01*
X366000D02*
X367000Y294500D01*
X368000D01*
X367000Y295500D01*
X368000Y296500D01*
X367000D01*
X366000Y297500D01*
X365000Y296500D01*
X364000D01*
X365000Y295500D01*
X364000Y294500D01*
X365000D01*
X366000Y293500D01*
X368500D02*
X369500Y294500D01*
X370500D01*
X369500Y295500D01*
X370500Y296500D01*
X369500D01*
X368500Y297500D01*
X367500Y296500D01*
X366500D01*
X367500Y295500D01*
X366500Y294500D01*
X367500D01*
X368500Y293500D01*
X366000Y291000D02*
X367000Y292000D01*
X368000D01*
X367000Y293000D01*
X368000Y294000D01*
X367000D01*
X366000Y295000D01*
X365000Y294000D01*
X364000D01*
X365000Y293000D01*
X364000Y292000D01*
X365000D01*
X366000Y291000D01*
X368500D02*
X369500Y292000D01*
X370500D01*
X369500Y293000D01*
X370500Y294000D01*
X369500D01*
X368500Y295000D01*
X367500Y294000D01*
X366500D01*
X367500Y293000D01*
X366500Y292000D01*
X367500D01*
X368500Y291000D01*
X322000Y276500D02*
X323000Y277500D01*
X324000D01*
X323000Y278500D01*
X324000Y279500D01*
X323000D01*
X322000Y280500D01*
X321000Y279500D01*
X320000D01*
X321000Y278500D01*
X320000Y277500D01*
X321000D01*
X322000Y276500D01*
X324327Y272827D02*
X325327Y273827D01*
X326327D01*
X325327Y274827D01*
X326327Y275827D01*
X325327D01*
X324327Y276827D01*
X323327Y275827D01*
X322327D01*
X323327Y274827D01*
X322327Y273827D01*
X323327D01*
X324327Y272827D01*
X391500Y280000D02*
X392500Y281000D01*
X393500D01*
X392500Y282000D01*
X393500Y283000D01*
X392500D01*
X391500Y284000D01*
X390500Y283000D01*
X389500D01*
X390500Y282000D01*
X389500Y281000D01*
X390500D01*
X391500Y280000D01*
X341500Y278000D02*
X342500Y279000D01*
X343500D01*
X342500Y280000D01*
X343500Y281000D01*
X342500D01*
X341500Y282000D01*
X340500Y281000D01*
X339500D01*
X340500Y280000D01*
X339500Y279000D01*
X340500D01*
X341500Y278000D01*
X347500D02*
X348500Y279000D01*
X349500D01*
X348500Y280000D01*
X349500Y281000D01*
X348500D01*
X347500Y282000D01*
X346500Y281000D01*
X345500D01*
X346500Y280000D01*
X345500Y279000D01*
X346500D01*
X347500Y278000D01*
X349500D02*
X350500Y279000D01*
X351500D01*
X350500Y280000D01*
X351500Y281000D01*
X350500D01*
X349500Y282000D01*
X348500Y281000D01*
X347500D01*
X348500Y280000D01*
X347500Y279000D01*
X348500D01*
X349500Y278000D01*
Y280000D02*
X350500Y281000D01*
X351500D01*
X350500Y282000D01*
X351500Y283000D01*
X350500D01*
X349500Y284000D01*
X348500Y283000D01*
X347500D01*
X348500Y282000D01*
X347500Y281000D01*
X348500D01*
X349500Y280000D01*
X347500D02*
X348500Y281000D01*
X349500D01*
X348500Y282000D01*
X349500Y283000D01*
X348500D01*
X347500Y284000D01*
X346500Y283000D01*
X345500D01*
X346500Y282000D01*
X345500Y281000D01*
X346500D01*
X347500Y280000D01*
X341500D02*
X342500Y281000D01*
X343500D01*
X342500Y282000D01*
X343500Y283000D01*
X342500D01*
X341500Y284000D01*
X340500Y283000D01*
X339500D01*
X340500Y282000D01*
X339500Y281000D01*
X340500D01*
X341500Y280000D01*
Y282000D02*
X342500Y283000D01*
X343500D01*
X342500Y284000D01*
X343500Y285000D01*
X342500D01*
X341500Y286000D01*
X340500Y285000D01*
X339500D01*
X340500Y284000D01*
X339500Y283000D01*
X340500D01*
X341500Y282000D01*
X343500D02*
X344500Y283000D01*
X345500D01*
X344500Y284000D01*
X345500Y285000D01*
X344500D01*
X343500Y286000D01*
X342500Y285000D01*
X341500D01*
X342500Y284000D01*
X341500Y283000D01*
X342500D01*
X343500Y282000D01*
X347500D02*
X348500Y283000D01*
X349500D01*
X348500Y284000D01*
X349500Y285000D01*
X348500D01*
X347500Y286000D01*
X346500Y285000D01*
X345500D01*
X346500Y284000D01*
X345500Y283000D01*
X346500D01*
X347500Y282000D01*
X345500D02*
X346500Y283000D01*
X347500D01*
X346500Y284000D01*
X347500Y285000D01*
X346500D01*
X345500Y286000D01*
X344500Y285000D01*
X343500D01*
X344500Y284000D01*
X343500Y283000D01*
X344500D01*
X345500Y282000D01*
Y284000D02*
X346500Y285000D01*
X347500D01*
X346500Y286000D01*
X347500Y287000D01*
X346500D01*
X345500Y288000D01*
X344500Y287000D01*
X343500D01*
X344500Y286000D01*
X343500Y285000D01*
X344500D01*
X345500Y284000D01*
X343500D02*
X344500Y285000D01*
X345500D01*
X344500Y286000D01*
X345500Y287000D01*
X344500D01*
X343500Y288000D01*
X342500Y287000D01*
X341500D01*
X342500Y286000D01*
X341500Y285000D01*
X342500D01*
X343500Y284000D01*
X341500D02*
X342500Y285000D01*
X343500D01*
X342500Y286000D01*
X343500Y287000D01*
X342500D01*
X341500Y288000D01*
X340500Y287000D01*
X339500D01*
X340500Y286000D01*
X339500Y285000D01*
X340500D01*
X341500Y284000D01*
Y286000D02*
X342500Y287000D01*
X343500D01*
X342500Y288000D01*
X343500Y289000D01*
X342500D01*
X341500Y290000D01*
X340500Y289000D01*
X339500D01*
X340500Y288000D01*
X339500Y287000D01*
X340500D01*
X341500Y286000D01*
X343500D02*
X344500Y287000D01*
X345500D01*
X344500Y288000D01*
X345500Y289000D01*
X344500D01*
X343500Y290000D01*
X342500Y289000D01*
X341500D01*
X342500Y288000D01*
X341500Y287000D01*
X342500D01*
X343500Y286000D01*
X345500D02*
X346500Y287000D01*
X347500D01*
X346500Y288000D01*
X347500Y289000D01*
X346500D01*
X345500Y290000D01*
X344500Y289000D01*
X343500D01*
X344500Y288000D01*
X343500Y287000D01*
X344500D01*
X345500Y286000D01*
Y288000D02*
X346500Y289000D01*
X347500D01*
X346500Y290000D01*
X347500Y291000D01*
X346500D01*
X345500Y292000D01*
X344500Y291000D01*
X343500D01*
X344500Y290000D01*
X343500Y289000D01*
X344500D01*
X345500Y288000D01*
X343500D02*
X344500Y289000D01*
X345500D01*
X344500Y290000D01*
X345500Y291000D01*
X344500D01*
X343500Y292000D01*
X342500Y291000D01*
X341500D01*
X342500Y290000D01*
X341500Y289000D01*
X342500D01*
X343500Y288000D01*
X341500D02*
X342500Y289000D01*
X343500D01*
X342500Y290000D01*
X343500Y291000D01*
X342500D01*
X341500Y292000D01*
X340500Y291000D01*
X339500D01*
X340500Y290000D01*
X339500Y289000D01*
X340500D01*
X341500Y288000D01*
X324500Y296500D02*
X325500Y297500D01*
X326500D01*
X325500Y298500D01*
X326500Y299500D01*
X325500D01*
X324500Y300500D01*
X323500Y299500D01*
X322500D01*
X323500Y298500D01*
X322500Y297500D01*
X323500D01*
X324500Y296500D01*
X316500D02*
X317500Y297500D01*
X318500D01*
X317500Y298500D01*
X318500Y299500D01*
X317500D01*
X316500Y300500D01*
X315500Y299500D01*
X314500D01*
X315500Y298500D01*
X314500Y297500D01*
X315500D01*
X316500Y296500D01*
X318500D02*
X319500Y297500D01*
X320500D01*
X319500Y298500D01*
X320500Y299500D01*
X319500D01*
X318500Y300500D01*
X317500Y299500D01*
X316500D01*
X317500Y298500D01*
X316500Y297500D01*
X317500D01*
X318500Y296500D01*
X320500D02*
X321500Y297500D01*
X322500D01*
X321500Y298500D01*
X322500Y299500D01*
X321500D01*
X320500Y300500D01*
X319500Y299500D01*
X318500D01*
X319500Y298500D01*
X318500Y297500D01*
X319500D01*
X320500Y296500D01*
X322500D02*
X323500Y297500D01*
X324500D01*
X323500Y298500D01*
X324500Y299500D01*
X323500D01*
X322500Y300500D01*
X321500Y299500D01*
X320500D01*
X321500Y298500D01*
X320500Y297500D01*
X321500D01*
X322500Y296500D01*
Y298500D02*
X323500Y299500D01*
X324500D01*
X323500Y300500D01*
X324500Y301500D01*
X323500D01*
X322500Y302500D01*
X321500Y301500D01*
X320500D01*
X321500Y300500D01*
X320500Y299500D01*
X321500D01*
X322500Y298500D01*
X320500D02*
X321500Y299500D01*
X322500D01*
X321500Y300500D01*
X322500Y301500D01*
X321500D01*
X320500Y302500D01*
X319500Y301500D01*
X318500D01*
X319500Y300500D01*
X318500Y299500D01*
X319500D01*
X320500Y298500D01*
X318500D02*
X319500Y299500D01*
X320500D01*
X319500Y300500D01*
X320500Y301500D01*
X319500D01*
X318500Y302500D01*
X317500Y301500D01*
X316500D01*
X317500Y300500D01*
X316500Y299500D01*
X317500D01*
X318500Y298500D01*
X316500D02*
X317500Y299500D01*
X318500D01*
X317500Y300500D01*
X318500Y301500D01*
X317500D01*
X316500Y302500D01*
X315500Y301500D01*
X314500D01*
X315500Y300500D01*
X314500Y299500D01*
X315500D01*
X316500Y298500D01*
Y300500D02*
X317500Y301500D01*
X318500D01*
X317500Y302500D01*
X318500Y303500D01*
X317500D01*
X316500Y304500D01*
X315500Y303500D01*
X314500D01*
X315500Y302500D01*
X314500Y301500D01*
X315500D01*
X316500Y300500D01*
X318500D02*
X319500Y301500D01*
X320500D01*
X319500Y302500D01*
X320500Y303500D01*
X319500D01*
X318500Y304500D01*
X317500Y303500D01*
X316500D01*
X317500Y302500D01*
X316500Y301500D01*
X317500D01*
X318500Y300500D01*
X320500D02*
X321500Y301500D01*
X322500D01*
X321500Y302500D01*
X322500Y303500D01*
X321500D01*
X320500Y304500D01*
X319500Y303500D01*
X318500D01*
X319500Y302500D01*
X318500Y301500D01*
X319500D01*
X320500Y300500D01*
X322500D02*
X323500Y301500D01*
X324500D01*
X323500Y302500D01*
X324500Y303500D01*
X323500D01*
X322500Y304500D01*
X321500Y303500D01*
X320500D01*
X321500Y302500D01*
X320500Y301500D01*
X321500D01*
X322500Y300500D01*
Y302500D02*
X323500Y303500D01*
X324500D01*
X323500Y304500D01*
X324500Y305500D01*
X323500D01*
X322500Y306500D01*
X321500Y305500D01*
X320500D01*
X321500Y304500D01*
X320500Y303500D01*
X321500D01*
X322500Y302500D01*
X320500D02*
X321500Y303500D01*
X322500D01*
X321500Y304500D01*
X322500Y305500D01*
X321500D01*
X320500Y306500D01*
X319500Y305500D01*
X318500D01*
X319500Y304500D01*
X318500Y303500D01*
X319500D01*
X320500Y302500D01*
X318500D02*
X319500Y303500D01*
X320500D01*
X319500Y304500D01*
X320500Y305500D01*
X319500D01*
X318500Y306500D01*
X317500Y305500D01*
X316500D01*
X317500Y304500D01*
X316500Y303500D01*
X317500D01*
X318500Y302500D01*
X316500D02*
X317500Y303500D01*
X318500D01*
X317500Y304500D01*
X318500Y305500D01*
X317500D01*
X316500Y306500D01*
X315500Y305500D01*
X314500D01*
X315500Y304500D01*
X314500Y303500D01*
X315500D01*
X316500Y302500D01*
X338000Y293500D02*
X339000Y294500D01*
X340000D01*
X339000Y295500D01*
X340000Y296500D01*
X339000D01*
X338000Y297500D01*
X337000Y296500D01*
X336000D01*
X337000Y295500D01*
X336000Y294500D01*
X337000D01*
X338000Y293500D01*
X342500Y296000D02*
X343500Y297000D01*
X344500D01*
X343500Y298000D01*
X344500Y299000D01*
X343500D01*
X342500Y300000D01*
X341500Y299000D01*
X340500D01*
X341500Y298000D01*
X340500Y297000D01*
X341500D01*
X342500Y296000D01*
X356500Y282500D02*
X357500Y283500D01*
X358500D01*
X357500Y284500D01*
X358500Y285500D01*
X357500D01*
X356500Y286500D01*
X355500Y285500D01*
X354500D01*
X355500Y284500D01*
X354500Y283500D01*
X355500D01*
X356500Y282500D01*
X352500Y296000D02*
X353500Y297000D01*
X354500D01*
X353500Y298000D01*
X354500Y299000D01*
X353500D01*
X352500Y300000D01*
X351500Y299000D01*
X350500D01*
X351500Y298000D01*
X350500Y297000D01*
X351500D01*
X352500Y296000D01*
X358500Y272500D02*
X359500Y273500D01*
X360500D01*
X359500Y274500D01*
X360500Y275500D01*
X359500D01*
X358500Y276500D01*
X357500Y275500D01*
X356500D01*
X357500Y274500D01*
X356500Y273500D01*
X357500D01*
X358500Y272500D01*
X360500D02*
X361500Y273500D01*
X362500D01*
X361500Y274500D01*
X362500Y275500D01*
X361500D01*
X360500Y276500D01*
X359500Y275500D01*
X358500D01*
X359500Y274500D01*
X358500Y273500D01*
X359500D01*
X360500Y272500D01*
Y270500D02*
X361500Y271500D01*
X362500D01*
X361500Y272500D01*
X362500Y273500D01*
X361500D01*
X360500Y274500D01*
X359500Y273500D01*
X358500D01*
X359500Y272500D01*
X358500Y271500D01*
X359500D01*
X360500Y270500D01*
Y276500D02*
X361500Y277500D01*
X362500D01*
X361500Y278500D01*
X362500Y279500D01*
X361500D01*
X360500Y280500D01*
X359500Y279500D01*
X358500D01*
X359500Y278500D01*
X358500Y277500D01*
X359500D01*
X360500Y276500D01*
X358500D02*
X359500Y277500D01*
X360500D01*
X359500Y278500D01*
X360500Y279500D01*
X359500D01*
X358500Y280500D01*
X357500Y279500D01*
X356500D01*
X357500Y278500D01*
X356500Y277500D01*
X357500D01*
X358500Y276500D01*
Y278500D02*
X359500Y279500D01*
X360500D01*
X359500Y280500D01*
X360500Y281500D01*
X359500D01*
X358500Y282500D01*
X357500Y281500D01*
X356500D01*
X357500Y280500D01*
X356500Y279500D01*
X357500D01*
X358500Y278500D01*
X360500D02*
X361500Y279500D01*
X362500D01*
X361500Y280500D01*
X362500Y281500D01*
X361500D01*
X360500Y282500D01*
X359500Y281500D01*
X358500D01*
X359500Y280500D01*
X358500Y279500D01*
X359500D01*
X360500Y278500D01*
Y286000D02*
X361500Y287000D01*
X362500D01*
X361500Y288000D01*
X362500Y289000D01*
X361500D01*
X360500Y290000D01*
X359500Y289000D01*
X358500D01*
X359500Y288000D01*
X358500Y287000D01*
X359500D01*
X360500Y286000D01*
X358500D02*
X359500Y287000D01*
X360500D01*
X359500Y288000D01*
X360500Y289000D01*
X359500D01*
X358500Y290000D01*
X357500Y289000D01*
X356500D01*
X357500Y288000D01*
X356500Y287000D01*
X357500D01*
X358500Y286000D01*
Y288000D02*
X359500Y289000D01*
X360500D01*
X359500Y290000D01*
X360500Y291000D01*
X359500D01*
X358500Y292000D01*
X357500Y291000D01*
X356500D01*
X357500Y290000D01*
X356500Y289000D01*
X357500D01*
X358500Y288000D01*
X360500D02*
X361500Y289000D01*
X362500D01*
X361500Y290000D01*
X362500Y291000D01*
X361500D01*
X360500Y292000D01*
X359500Y291000D01*
X358500D01*
X359500Y290000D01*
X358500Y289000D01*
X359500D01*
X360500Y288000D01*
D85*
X328894Y283500D02*
G03*
X328894Y283500I-2000J0D01*
G01*
X323894D02*
G03*
X323894Y283500I-2000J0D01*
G01*
%TF.MD5,14CFA9818C059FD576BBD8CD48DDB601*%
M02*
