G04 Layer_Physical_Order=1*
G04 Layer_Color=255*
%FSLAX25Y25*%
%MOIN*%
%TF.FileFunction,Copper,L1,Top,Signal*%
%TF.Part,Single*%
G01*
G75*
%TA.AperFunction,ConnectorPad*%
%ADD10R,0.05906X0.07874*%
%TA.AperFunction,SMDPad*%
%ADD11R,0.03543X0.01575*%
%TA.AperFunction,SMDPad*%
%ADD12R,0.09449X0.08268*%
%TA.AperFunction,SMDPad*%
%ADD13R,0.01575X0.03150*%
%TA.AperFunction,SMDPad*%
%ADD14R,0.02559X0.02362*%
%TA.AperFunction,SMDPad*%
%ADD15R,0.03937X0.02362*%
%TA.AperFunction,SMDPad*%
%ADD16R,0.01575X0.03347*%
%TA.AperFunction,SMDPad*%
%ADD17R,0.01575X0.03543*%
%TA.AperFunction,SMDPad*%
%ADD18O,0.02756X0.00984*%
%TA.AperFunction,SMDPad*%
%ADD19R,0.03347X0.06299*%
%TA.AperFunction,SMDPad*%
%ADD20R,0.02362X0.02559*%
%TA.AperFunction,SMDPad*%
%ADD21R,0.04449X0.07087*%
%TA.AperFunction,SMDPad*%
%ADD22R,0.05787X0.04567*%
%TA.AperFunction,SMDPad*%
%ADD23R,0.10236X0.12677*%
%TA.AperFunction,SMDPad*%
%ADD24O,0.00984X0.03937*%
%TA.AperFunction,SMDPad*%
%ADD25O,0.03937X0.00984*%
%TA.AperFunction,SMDPad*%
%ADD26O,0.00984X0.04331*%
%TA.AperFunction,SMDPad*%
%ADD27R,0.03858X0.03661*%
%TA.AperFunction,SMDPad*%
%ADD28R,0.07087X0.09449*%
%ADD29C,0.01000*%
%ADD30C,0.00800*%
%ADD31C,0.00900*%
%TA.AperFunction,ViaPad*%
%ADD32C,0.03937*%
%TA.AperFunction,ViaPad*%
%ADD33R,0.03937X0.03937*%
%TA.AperFunction,ViaPad*%
%ADD34R,0.03937X0.03937*%
%TA.AperFunction,ConnectorPad*%
%ADD35R,0.03937X0.03937*%
%TA.AperFunction,ConnectorPad*%
%ADD36R,0.05906X0.05906*%
%TA.AperFunction,ViaPad*%
%ADD37C,0.01800*%
G36*
X349964Y264774D02*
X349991Y264768D01*
X350027Y264763D01*
X350128Y264754D01*
X350443Y264745D01*
X350545Y264745D01*
X350903Y263745D01*
X350804Y263743D01*
X350631Y263729D01*
X350557Y263717D01*
X350491Y263701D01*
X350434Y263681D01*
X350385Y263658D01*
X350345Y263632D01*
X350313Y263602D01*
X350290Y263569D01*
X349947Y264781D01*
X349964Y264774D01*
D02*
G37*
G36*
X414606Y265396D02*
X414618Y265311D01*
X414638Y265236D01*
X414666Y265171D01*
X414702Y265116D01*
X414747Y265071D01*
X414798Y265036D01*
X414858Y265011D01*
X414926Y264996D01*
X415002Y264991D01*
Y263991D01*
X414926Y263986D01*
X414858Y263971D01*
X414798Y263946D01*
X414747Y263911D01*
X414702Y263866D01*
X414666Y263811D01*
X414638Y263746D01*
X414618Y263671D01*
X414606Y263586D01*
X414602Y263491D01*
Y265491D01*
X414606Y265396D01*
D02*
G37*
G36*
X355779Y266328D02*
X355756Y266291D01*
X355737Y266246D01*
X355720Y266193D01*
X355706Y266132D01*
X355694Y266064D01*
X355678Y265903D01*
X355675Y265811D01*
X355674Y265733D01*
X356173D01*
X356078Y265722D01*
X355993Y265692D01*
X355918Y265642D01*
X355853Y265573D01*
X355798Y265482D01*
X355753Y265372D01*
X355718Y265243D01*
X355693Y265092D01*
X355678Y264922D01*
X355673Y264733D01*
X354673D01*
X354668Y264922D01*
X354653Y265092D01*
X354628Y265243D01*
X354593Y265372D01*
X354548Y265482D01*
X354493Y265573D01*
X354428Y265642D01*
X354353Y265692D01*
X354268Y265722D01*
X354173Y265733D01*
X354673D01*
X354672Y265811D01*
X354652Y266064D01*
X354641Y266132D01*
X354626Y266193D01*
X354609Y266246D01*
X354590Y266291D01*
X354568Y266328D01*
X354543Y266357D01*
X355803D01*
X355779Y266328D01*
D02*
G37*
G36*
X365078Y265728D02*
X364993Y265716D01*
X364918Y265696D01*
X364853Y265668D01*
X364798Y265631D01*
X364753Y265586D01*
X364718Y265534D01*
X364693Y265473D01*
X364678Y265404D01*
X364673Y265327D01*
X363673D01*
X363668Y265404D01*
X363653Y265473D01*
X363628Y265534D01*
X363593Y265586D01*
X363548Y265631D01*
X363493Y265668D01*
X363428Y265696D01*
X363353Y265716D01*
X363268Y265728D01*
X363173Y265733D01*
X365173D01*
X365078Y265728D01*
D02*
G37*
G36*
X416848Y265699D02*
X416154Y264935D01*
X415389Y265584D01*
X415458Y265656D01*
X415569Y265787D01*
X415611Y265847D01*
X415644Y265902D01*
X415667Y265954D01*
X415682Y266002D01*
X415688Y266046D01*
X415685Y266086D01*
X415673Y266122D01*
X416848Y265699D01*
D02*
G37*
G36*
X352751Y262115D02*
X352684Y262045D01*
X352571Y261912D01*
X352525Y261848D01*
X352486Y261787D01*
X352455Y261727D01*
X352431Y261669D01*
X352413Y261614D01*
X352403Y261560D01*
X352400Y261509D01*
X351509Y262400D01*
X351560Y262403D01*
X351614Y262413D01*
X351669Y262431D01*
X351727Y262455D01*
X351786Y262487D01*
X351848Y262525D01*
X351912Y262571D01*
X351977Y262624D01*
X352115Y262751D01*
X352751Y262115D01*
D02*
G37*
G36*
X371605Y262328D02*
X371583Y262291D01*
X371564Y262246D01*
X371547Y262193D01*
X371533Y262132D01*
X371521Y262064D01*
X371516Y262019D01*
X371520Y261978D01*
X371545Y261826D01*
X371580Y261695D01*
X371625Y261583D01*
X371680Y261492D01*
X371745Y261421D01*
X371820Y261371D01*
X371905Y261340D01*
X372000Y261330D01*
X370000D01*
X370095Y261340D01*
X370180Y261371D01*
X370255Y261421D01*
X370320Y261492D01*
X370375Y261583D01*
X370420Y261695D01*
X370455Y261826D01*
X370480Y261978D01*
X370483Y262013D01*
X370479Y262064D01*
X370467Y262132D01*
X370453Y262193D01*
X370436Y262246D01*
X370417Y262291D01*
X370395Y262328D01*
X370370Y262357D01*
X371630D01*
X371605Y262328D01*
D02*
G37*
G36*
X355029Y262000D02*
X354126Y262003D01*
Y262903D01*
X355029Y262905D01*
Y262000D01*
D02*
G37*
G36*
X366354Y263854D02*
X367061Y263146D01*
X366647Y262146D01*
X366517Y262262D01*
X366386Y262351D01*
X366254Y262414D01*
X366122Y262449D01*
X365988Y262458D01*
X365854Y262440D01*
X365718Y262395D01*
X365582Y262323D01*
X365445Y262225D01*
X365306Y262099D01*
X365023Y262383D01*
X364028Y262930D01*
X364123Y262893D01*
X364228Y262880D01*
X364344Y262891D01*
X364470Y262927D01*
X364606Y262987D01*
X364752Y263071D01*
X364846Y263135D01*
X364889Y263224D01*
X364930Y263363D01*
X364943Y263503D01*
X364927Y263644D01*
X364884Y263784D01*
X364813Y263925D01*
X364713Y264066D01*
X364586Y264207D01*
X366354Y263854D01*
D02*
G37*
G36*
X370357Y262370D02*
X370328Y262395D01*
X370291Y262417D01*
X370246Y262436D01*
X370193Y262453D01*
X370132Y262468D01*
X370064Y262479D01*
X369903Y262495D01*
X369811Y262499D01*
X369712Y262500D01*
Y263500D01*
X369811Y263501D01*
X370064Y263521D01*
X370132Y263532D01*
X370193Y263547D01*
X370246Y263564D01*
X370291Y263583D01*
X370328Y263605D01*
X370357Y263630D01*
Y262370D01*
D02*
G37*
G36*
X377152Y270169D02*
X378216D01*
X378164Y270168D01*
X378076Y270160D01*
X378040Y270152D01*
X378010Y270142D01*
X377985Y270130D01*
X377966Y270115D01*
X377952Y270099D01*
X377944Y270080D01*
X377941Y270059D01*
X377263D01*
X377706Y269617D01*
X377636Y269545D01*
X377471Y269353D01*
X377431Y269296D01*
X377398Y269243D01*
X377373Y269194D01*
X377355Y269148D01*
X377344Y269106D01*
X377341Y269068D01*
X376450Y269959D01*
X376488Y269962D01*
X376530Y269973D01*
X376576Y269991D01*
X376625Y270017D01*
X376678Y270049D01*
X376735Y270089D01*
X376817Y270157D01*
X376806Y270160D01*
X376765Y270165D01*
X376718Y270168D01*
X376665Y270169D01*
X376832D01*
X376859Y270192D01*
X376927Y270254D01*
X376998Y270324D01*
X377152Y270169D01*
D02*
G37*
G36*
X372272Y270578D02*
X372285Y270493D01*
X372308Y270418D01*
X372339Y270353D01*
X372379Y270298D01*
X372429Y270253D01*
X372487Y270218D01*
X372554Y270193D01*
X372630Y270178D01*
X372715Y270173D01*
Y269173D01*
X372630Y269168D01*
X372554Y269153D01*
X372487Y269128D01*
X372429Y269093D01*
X372379Y269048D01*
X372339Y268993D01*
X372308Y268928D01*
X372285Y268853D01*
X372272Y268768D01*
X372268Y268673D01*
Y270673D01*
X372272Y270578D01*
D02*
G37*
G36*
X380723Y270160D02*
X380676Y270129D01*
X380635Y270079D01*
X380599Y270009D01*
X380569Y269919D01*
X380544Y269810D01*
X380525Y269679D01*
X380511Y269530D01*
X380500Y269169D01*
X379500D01*
X379497Y269359D01*
X379475Y269679D01*
X379456Y269810D01*
X379431Y269919D01*
X379401Y270009D01*
X379365Y270079D01*
X379324Y270129D01*
X379277Y270160D01*
X379225Y270169D01*
X380775D01*
X380723Y270160D01*
D02*
G37*
G36*
X346927Y272479D02*
X346918Y272442D01*
X346910Y272390D01*
X346897Y272243D01*
X346885Y271776D01*
X346884Y271623D01*
X346084D01*
X346084Y271776D01*
X346042Y272479D01*
X346032Y272502D01*
X346936D01*
X346927Y272479D01*
D02*
G37*
G36*
X342997Y271598D02*
X342097D01*
X342095Y272502D01*
X343000D01*
X342997Y271598D01*
D02*
G37*
G36*
X345016Y271023D02*
X345261Y270837D01*
Y268516D01*
X345354Y268047D01*
X345457Y267893D01*
X345126Y267489D01*
X344624Y267697D01*
X343901Y267792D01*
X343211Y267702D01*
X343172Y267736D01*
X343010Y268207D01*
X343448Y268646D01*
X343725Y269059D01*
X343822Y269547D01*
Y270803D01*
X344016Y270959D01*
Y274362D01*
X345016D01*
Y271023D01*
D02*
G37*
G36*
X333340Y267814D02*
X333367Y267738D01*
X333412Y267670D01*
X333476Y267612D01*
X333558Y267563D01*
X333659Y267522D01*
X333777Y267491D01*
X333914Y267468D01*
X334069Y267455D01*
X334242Y267450D01*
Y266550D01*
X334069Y266546D01*
X333914Y266532D01*
X333777Y266510D01*
X333659Y266478D01*
X333558Y266438D01*
X333476Y266388D01*
X333412Y266330D01*
X333367Y266262D01*
X333340Y266185D01*
X333330Y266100D01*
Y267900D01*
X333340Y267814D01*
D02*
G37*
G36*
X368000Y267000D02*
X367000Y265500D01*
X366990Y265690D01*
X366960Y265860D01*
X366910Y266010D01*
X366840Y266140D01*
X366750Y266250D01*
X366640Y266340D01*
X366510Y266410D01*
X366360Y266460D01*
X366190Y266490D01*
X366129Y266493D01*
X365978Y266480D01*
X365826Y266455D01*
X365695Y266420D01*
X365583Y266375D01*
X365492Y266320D01*
X365421Y266255D01*
X365371Y266180D01*
X365340Y266095D01*
X365330Y266000D01*
Y268000D01*
X365340Y267905D01*
X365371Y267820D01*
X365421Y267745D01*
X365492Y267680D01*
X365583Y267625D01*
X365695Y267580D01*
X365826Y267545D01*
X365978Y267520D01*
X366129Y267507D01*
X366190Y267510D01*
X366360Y267540D01*
X366510Y267590D01*
X366640Y267660D01*
X366750Y267750D01*
X366840Y267860D01*
X366910Y267990D01*
X366960Y268140D01*
X366990Y268310D01*
X367000Y268500D01*
X368000Y267000D01*
D02*
G37*
G36*
X369744Y268673D02*
X369734Y268768D01*
X369704Y268853D01*
X369653Y268928D01*
X369583Y268993D01*
X369492Y269048D01*
X369380Y269093D01*
X369249Y269128D01*
X369097Y269153D01*
X368925Y269168D01*
X368733Y269173D01*
Y270173D01*
X368925Y270178D01*
X369097Y270193D01*
X369249Y270218D01*
X369380Y270253D01*
X369492Y270298D01*
X369583Y270353D01*
X369653Y270418D01*
X369704Y270493D01*
X369734Y270578D01*
X369744Y270673D01*
Y268673D01*
D02*
G37*
G36*
X332500Y278767D02*
X332726Y278302D01*
Y276161D01*
X332725Y276158D01*
X332724Y276150D01*
X332399Y275663D01*
X332267Y275000D01*
X332399Y274337D01*
X332774Y273774D01*
X333337Y273399D01*
X334000Y273267D01*
X334663Y273399D01*
X335226Y273774D01*
X335601Y274337D01*
X335733Y275000D01*
X335601Y275663D01*
X335470Y275859D01*
X335770Y276307D01*
X335774Y276309D01*
X335854Y276293D01*
X338599D01*
X338899Y276125D01*
X339057Y275833D01*
Y274862D01*
X340579D01*
Y274362D01*
X341079D01*
Y270959D01*
X341273Y270803D01*
Y270075D01*
X340972Y269775D01*
X337000D01*
X336512Y269677D01*
X336099Y269401D01*
X334972Y268274D01*
X334154D01*
Y269079D01*
X331008D01*
Y269280D01*
X329327D01*
Y268513D01*
X329349Y268461D01*
X329389Y268398D01*
X329439Y268347D01*
X329497Y268307D01*
X329565Y268278D01*
X329641Y268261D01*
X329727Y268255D01*
X329327D01*
Y268184D01*
X329457D01*
X329423Y268145D01*
X329392Y268101D01*
X329365Y268049D01*
X329342Y267991D01*
X329327Y267943D01*
Y267000D01*
Y264721D01*
X331008D01*
Y264920D01*
X334154D01*
Y265725D01*
X335500D01*
X335705Y265766D01*
X336159Y265381D01*
X336108Y265000D01*
X336204Y264277D01*
X336483Y263604D01*
X336740Y263268D01*
X336493Y262769D01*
X336132D01*
Y257231D01*
X340925D01*
X341116Y256770D01*
X339923Y255577D01*
X339923Y255577D01*
X337767Y253421D01*
X337716Y253382D01*
X337319Y253296D01*
X337165Y253308D01*
X337136Y253320D01*
X334998Y255006D01*
X331759Y258000D01*
X328765Y261239D01*
X326302Y264363D01*
X326657Y264721D01*
X328327D01*
Y266500D01*
X326646D01*
Y265114D01*
X326591Y265013D01*
X326147Y264733D01*
X325979Y264785D01*
X323584Y268370D01*
X322435Y270421D01*
X322728Y270920D01*
X329654D01*
Y275079D01*
X328999D01*
Y276420D01*
X329654D01*
Y277205D01*
X330007Y277275D01*
X330437Y277563D01*
X331099Y278225D01*
X331360Y278615D01*
X331507Y278754D01*
X331941Y278878D01*
X332500Y278767D01*
D02*
G37*
G36*
X355029Y260032D02*
X354126Y260034D01*
Y260934D01*
X355029Y260936D01*
Y260032D01*
D02*
G37*
G36*
X356501Y248689D02*
X356521Y248436D01*
X356533Y248368D01*
X356547Y248307D01*
X356564Y248254D01*
X356583Y248209D01*
X356605Y248172D01*
X356630Y248143D01*
X355370D01*
X355395Y248172D01*
X355417Y248209D01*
X355436Y248254D01*
X355453Y248307D01*
X355468Y248368D01*
X355479Y248436D01*
X355495Y248597D01*
X355499Y248689D01*
X355500Y248788D01*
X356500D01*
X356501Y248689D01*
D02*
G37*
G36*
X357265Y249732D02*
X357292Y249647D01*
X357338Y249572D01*
X357402Y249507D01*
X357485Y249452D01*
X357586Y249407D01*
X357705Y249372D01*
X357843Y249347D01*
X357999Y249332D01*
X358173Y249327D01*
Y248327D01*
X357999Y248322D01*
X357843Y248307D01*
X357705Y248282D01*
X357586Y248247D01*
X357485Y248202D01*
X357402Y248147D01*
X357338Y248082D01*
X357292Y248007D01*
X357265Y247922D01*
X357256Y247827D01*
Y249827D01*
X357265Y249732D01*
D02*
G37*
G36*
X368204Y249433D02*
X368182Y249387D01*
X368163Y249336D01*
X368146Y249277D01*
X368132Y249212D01*
X368121Y249141D01*
X368105Y248978D01*
X368100Y248789D01*
X367200Y248611D01*
X367198Y248708D01*
X367181Y248880D01*
X367166Y248956D01*
X367146Y249024D01*
X367123Y249086D01*
X367095Y249140D01*
X367063Y249188D01*
X367027Y249228D01*
X366986Y249261D01*
X368228Y249471D01*
X368204Y249433D01*
D02*
G37*
G36*
X380374Y252000D02*
X380400D01*
X380404Y251854D01*
X380415Y251724D01*
X380434Y251608D01*
X380460Y251508D01*
X380494Y251424D01*
X380535Y251355D01*
X380584Y251301D01*
X380640Y251263D01*
X380704Y251240D01*
X380775Y251232D01*
X380399D01*
X380400Y251212D01*
X379600Y251066D01*
X379597Y251161D01*
X379591Y251232D01*
X379225D01*
X379296Y251240D01*
X379360Y251263D01*
X379416Y251301D01*
X379465Y251355D01*
X379506Y251424D01*
X379524Y251469D01*
X379504Y251503D01*
X379469Y251545D01*
X379429Y251577D01*
X379384Y251601D01*
X379333Y251616D01*
X379589Y251774D01*
X379596Y251854D01*
X379600Y252000D01*
X379954D01*
X380366Y252255D01*
X380374Y252000D01*
D02*
G37*
G36*
X347235Y251669D02*
X347171Y251602D01*
X347113Y251535D01*
X347063Y251468D01*
X347019Y251401D01*
X346982Y251335D01*
X346952Y251269D01*
X346929Y251204D01*
X346912Y251138D01*
X346903Y251074D01*
X346900Y251009D01*
X346009Y251900D01*
X346074Y251903D01*
X346139Y251912D01*
X346204Y251929D01*
X346269Y251952D01*
X346335Y251982D01*
X346401Y252019D01*
X346468Y252063D01*
X346534Y252113D01*
X346602Y252171D01*
X346669Y252235D01*
X347235Y251669D01*
D02*
G37*
G36*
X369268Y243860D02*
X369263Y243945D01*
X369247Y244022D01*
X369220Y244089D01*
X369183Y244148D01*
X369136Y244197D01*
X369078Y244238D01*
X369009Y244269D01*
X368930Y244292D01*
X368840Y244305D01*
X368740Y244310D01*
Y245210D01*
X368840Y245214D01*
X368930Y245228D01*
X369009Y245250D01*
X369078Y245282D01*
X369136Y245322D01*
X369183Y245372D01*
X369220Y245430D01*
X369247Y245498D01*
X369263Y245574D01*
X369268Y245660D01*
Y243860D01*
D02*
G37*
G36*
X363725Y245574D02*
X363742Y245498D01*
X363769Y245430D01*
X363806Y245372D01*
X363855Y245322D01*
X363914Y245282D01*
X363985Y245250D01*
X364066Y245228D01*
X364157Y245214D01*
X364260Y245210D01*
Y244310D01*
X364157Y244305D01*
X364066Y244292D01*
X363985Y244269D01*
X363914Y244238D01*
X363855Y244197D01*
X363806Y244148D01*
X363769Y244089D01*
X363742Y244022D01*
X363725Y243945D01*
X363720Y243860D01*
Y245660D01*
X363725Y245574D01*
D02*
G37*
G36*
X365491Y245100D02*
X365440Y245097D01*
X365386Y245087D01*
X365331Y245070D01*
X365273Y245045D01*
X365213Y245013D01*
X365152Y244975D01*
X365088Y244929D01*
X365023Y244876D01*
X364885Y244749D01*
X364249Y245385D01*
X364316Y245455D01*
X364429Y245588D01*
X364475Y245652D01*
X364513Y245713D01*
X364545Y245773D01*
X364569Y245831D01*
X364587Y245886D01*
X364597Y245940D01*
X364600Y245991D01*
X365491Y245100D01*
D02*
G37*
G36*
X359819Y247500D02*
X359809Y247595D01*
X359779Y247680D01*
X359729Y247755D01*
X359659Y247820D01*
X359569Y247875D01*
X359459Y247920D01*
X359329Y247955D01*
X359179Y247980D01*
X359009Y247995D01*
X358819Y248000D01*
Y249000D01*
X359009Y249005D01*
X359179Y249020D01*
X359329Y249045D01*
X359459Y249080D01*
X359569Y249125D01*
X359659Y249180D01*
X359729Y249245D01*
X359779Y249320D01*
X359809Y249405D01*
X359819Y249500D01*
Y247500D01*
D02*
G37*
G36*
X356905Y247668D02*
X356745Y247654D01*
X356680Y247642D01*
X356625Y247627D01*
X356580Y247609D01*
X356545Y247586D01*
X356520Y247561D01*
X356505Y247532D01*
X356500Y247500D01*
X355500D01*
X355495Y247532D01*
X355480Y247561D01*
X355455Y247586D01*
X355420Y247609D01*
X355375Y247627D01*
X355320Y247642D01*
X355255Y247654D01*
X355180Y247663D01*
X355095Y247668D01*
X355000Y247670D01*
X357000D01*
X356905Y247668D01*
D02*
G37*
G36*
X376677Y257429D02*
X376667Y257524D01*
X376637Y257609D01*
X376587Y257684D01*
X376516Y257749D01*
X376425Y257804D01*
X376313Y257849D01*
X376182Y257884D01*
X376030Y257909D01*
X375858Y257924D01*
X375665Y257929D01*
Y258929D01*
X375858Y258934D01*
X376030Y258949D01*
X376182Y258974D01*
X376313Y259009D01*
X376425Y259054D01*
X376516Y259109D01*
X376587Y259174D01*
X376637Y259249D01*
X376667Y259334D01*
X376677Y259429D01*
Y257429D01*
D02*
G37*
G36*
X356604Y256291D02*
X356619Y256092D01*
X357100D01*
X357006Y256082D01*
X356921Y256053D01*
X356846Y256003D01*
X356782Y255934D01*
X356727Y255845D01*
X356702Y255784D01*
X356708Y255774D01*
X356732Y255745D01*
X356686D01*
X356682Y255736D01*
X356647Y255607D01*
X356622Y255459D01*
X356607Y255290D01*
X356602Y255102D01*
X355602D01*
X355597Y255290D01*
X355582Y255459D01*
X355558Y255607D01*
X355523Y255736D01*
X355519Y255745D01*
X355472D01*
X355497Y255774D01*
X355503Y255784D01*
X355478Y255845D01*
X355423Y255934D01*
X355359Y256003D01*
X355284Y256053D01*
X355199Y256082D01*
X355105Y256092D01*
X355587D01*
X355597Y256199D01*
X355601Y256291D01*
X355602Y256391D01*
X356602D01*
X356604Y256291D01*
D02*
G37*
G36*
X361659Y261389D02*
X361690Y261304D01*
X361740Y261229D01*
X361811Y261164D01*
X361902Y261109D01*
X362014Y261064D01*
X362145Y261029D01*
X362297Y261004D01*
X362469Y260989D01*
X362661Y260984D01*
Y259984D01*
X362469Y259979D01*
X362297Y259964D01*
X362145Y259939D01*
X362014Y259904D01*
X361902Y259859D01*
X361811Y259804D01*
X361740Y259739D01*
X361690Y259664D01*
X361659Y259579D01*
X361651Y259500D01*
X361659Y259421D01*
X361690Y259336D01*
X361740Y259261D01*
X361811Y259196D01*
X361902Y259141D01*
X362014Y259096D01*
X362145Y259061D01*
X362297Y259036D01*
X362469Y259021D01*
X362661Y259016D01*
Y258016D01*
X362469Y258011D01*
X362297Y257996D01*
X362145Y257971D01*
X362014Y257936D01*
X361902Y257891D01*
X361811Y257836D01*
X361740Y257771D01*
X361690Y257696D01*
X361659Y257611D01*
X361649Y257516D01*
Y259484D01*
Y261484D01*
X361659Y261389D01*
D02*
G37*
G36*
X372277Y260904D02*
X372307Y260819D01*
X372358Y260744D01*
X372428Y260679D01*
X372517Y260624D01*
X372627Y260579D01*
X372758Y260544D01*
X372907Y260519D01*
X373078Y260504D01*
X373268Y260499D01*
Y259499D01*
X373078Y259494D01*
X372907Y259479D01*
X372758Y259455D01*
X372627Y259420D01*
X372517Y259375D01*
X372428Y259321D01*
X372358Y259257D01*
X372307Y259182D01*
X372277Y259098D01*
X372268Y259004D01*
Y260999D01*
X372277Y260904D01*
D02*
G37*
G36*
X352759Y259082D02*
X352692Y259013D01*
X352578Y258879D01*
X352532Y258816D01*
X352492Y258755D01*
X352460Y258696D01*
X352434Y258639D01*
X352416Y258584D01*
X352404Y258531D01*
X352400Y258480D01*
X351538Y259399D01*
X351590Y259401D01*
X351644Y259409D01*
X351699Y259426D01*
X351758Y259449D01*
X351817Y259480D01*
X351879Y259518D01*
X351943Y259563D01*
X352009Y259615D01*
X352146Y259742D01*
X352759Y259082D01*
D02*
G37*
G36*
X373178Y253055D02*
X373205Y252978D01*
X373251Y252911D01*
X373315Y252852D01*
X373397Y252803D01*
X373460Y252777D01*
X373462Y252778D01*
X373514Y252805D01*
X373559Y252836D01*
X373597Y252870D01*
Y252735D01*
X373616Y252731D01*
X373753Y252708D01*
X373908Y252695D01*
X374081Y252690D01*
Y251790D01*
X373908Y251786D01*
X373753Y251772D01*
X373616Y251750D01*
X373597Y251745D01*
Y251610D01*
X373559Y251644D01*
X373514Y251675D01*
X373462Y251702D01*
X373460Y251703D01*
X373397Y251678D01*
X373315Y251628D01*
X373251Y251570D01*
X373205Y251502D01*
X373178Y251426D01*
X373169Y251340D01*
Y251776D01*
X373108Y251783D01*
X372921Y251790D01*
Y252690D01*
X373018Y252692D01*
X373169Y252705D01*
Y253140D01*
X373178Y253055D01*
D02*
G37*
G36*
X363729D02*
X363757Y252978D01*
X363802Y252911D01*
X363866Y252852D01*
X363948Y252803D01*
X364048Y252762D01*
X364167Y252731D01*
X364304Y252708D01*
X364459Y252695D01*
X364632Y252690D01*
Y251790D01*
X364459Y251786D01*
X364304Y251772D01*
X364167Y251750D01*
X364048Y251718D01*
X363948Y251678D01*
X363866Y251628D01*
X363802Y251570D01*
X363757Y251502D01*
X363729Y251426D01*
X363720Y251340D01*
Y253140D01*
X363729Y253055D01*
D02*
G37*
G36*
X350904Y253468D02*
X350916Y253439D01*
X350936Y253414D01*
X350964Y253391D01*
X351000Y253373D01*
X351044Y253358D01*
X351096Y253346D01*
X351156Y253337D01*
X351224Y253332D01*
X351300Y253330D01*
X350909D01*
X350909Y253326D01*
X350921Y253246D01*
X350937Y253170D01*
X350957Y253100D01*
X350983Y253034D01*
X351013Y252972D01*
X351047Y252916D01*
X351086Y252863D01*
X351130Y252816D01*
X349870D01*
X349914Y252863D01*
X349953Y252916D01*
X349987Y252972D01*
X350017Y253034D01*
X350043Y253100D01*
X350063Y253170D01*
X350079Y253246D01*
X350091Y253326D01*
X350091Y253330D01*
X349700D01*
X349776Y253332D01*
X349844Y253337D01*
X349904Y253346D01*
X349956Y253358D01*
X350000Y253373D01*
X350036Y253391D01*
X350064Y253414D01*
X350084Y253439D01*
X350096Y253468D01*
X350100Y253500D01*
X350900D01*
X350904Y253468D01*
D02*
G37*
G36*
X367991Y254100D02*
X367940Y254097D01*
X367886Y254087D01*
X367831Y254069D01*
X367773Y254045D01*
X367713Y254013D01*
X367652Y253975D01*
X367588Y253929D01*
X367523Y253876D01*
X367385Y253749D01*
X366749Y254385D01*
X366816Y254455D01*
X366929Y254588D01*
X366975Y254652D01*
X367014Y254714D01*
X367045Y254773D01*
X367070Y254831D01*
X367087Y254886D01*
X367097Y254940D01*
X367100Y254991D01*
X367991Y254100D01*
D02*
G37*
G36*
X412252Y261719D02*
X414000D01*
X414162Y261386D01*
X414176Y261219D01*
X411200Y258000D01*
X407962Y255006D01*
X405801Y253303D01*
X400563D01*
Y261923D01*
X400564Y261925D01*
X400627Y262237D01*
Y266184D01*
X412252D01*
Y261719D01*
D02*
G37*
G36*
X350923Y272610D02*
X350942Y272358D01*
X350954Y272289D01*
X350968Y272229D01*
X350985Y272176D01*
X351005Y272131D01*
X351027Y272093D01*
X351051Y272064D01*
X349791D01*
X349816Y272093D01*
X349838Y272131D01*
X349858Y272176D01*
X349874Y272229D01*
X349889Y272289D01*
X349901Y272358D01*
X349916Y272518D01*
X349920Y272610D01*
X349921Y272710D01*
X350921D01*
X350923Y272610D01*
D02*
G37*
G36*
X335667Y281095D02*
X334764Y281097D01*
Y281997D01*
X335667Y281999D01*
Y281095D01*
D02*
G37*
G36*
X343105Y297331D02*
X343083Y297302D01*
X343064Y297272D01*
X343047Y297239D01*
X343033Y297204D01*
X343021Y297167D01*
X343012Y297129D01*
X343005Y297088D01*
X343001Y297045D01*
X343000Y297000D01*
X342000D01*
X341999Y297045D01*
X341995Y297088D01*
X341988Y297129D01*
X341979Y297167D01*
X341968Y297204D01*
X341953Y297239D01*
X341936Y297272D01*
X341917Y297302D01*
X341895Y297331D01*
X341870Y297357D01*
X343130D01*
X343105Y297331D01*
D02*
G37*
G36*
X388494Y290985D02*
X388557Y290943D01*
X390261Y289239D01*
X390261Y289239D01*
X390261Y289239D01*
X390500Y289000D01*
X390838D01*
X390838Y289000D01*
X390838Y289000D01*
X404500D01*
Y283600D01*
X404562Y283562D01*
X404663Y283522D01*
X404781Y283490D01*
X404918Y283468D01*
X404945Y283466D01*
X404952Y283466D01*
X405029Y283479D01*
X405100Y283495D01*
X405164Y283515D01*
X405222Y283538D01*
X405274Y283565D01*
X405319Y283596D01*
X405357Y283630D01*
Y282370D01*
X405319Y282404D01*
X405274Y282435D01*
X405222Y282462D01*
X405164Y282485D01*
X405100Y282505D01*
X405029Y282521D01*
X404952Y282534D01*
X404946Y282534D01*
X404918Y282532D01*
X404781Y282509D01*
X404663Y282478D01*
X404562Y282437D01*
X404500Y282400D01*
Y281000D01*
Y278000D01*
X393143D01*
Y279147D01*
X389000D01*
Y279684D01*
X389000Y279684D01*
X389000Y279684D01*
Y280500D01*
X381080D01*
X381013Y280513D01*
X381008Y280538D01*
X381000Y281000D01*
X381000Y281000D01*
Y290646D01*
X381354Y291000D01*
X388420D01*
X388494Y290985D01*
D02*
G37*
G36*
X371500Y291816D02*
X362500D01*
X362188Y291754D01*
X361957Y291599D01*
X361167D01*
X361163Y291601D01*
X360500Y291733D01*
X359837Y291601D01*
X359834Y291599D01*
X359167D01*
X359163Y291601D01*
X358500Y291733D01*
X357837Y291601D01*
X357834Y291599D01*
X356771D01*
Y291000D01*
X352000D01*
Y291000D01*
X351500Y291207D01*
Y292450D01*
X351638Y292657D01*
X351739Y293161D01*
Y295909D01*
X352081Y296269D01*
X352206Y296325D01*
X352500Y296267D01*
X353163Y296399D01*
X353726Y296774D01*
X354101Y297337D01*
X354134Y297500D01*
X371500D01*
Y291816D01*
D02*
G37*
G36*
X333170Y284108D02*
X333216Y284078D01*
X333267Y284052D01*
X333326Y284029D01*
X333390Y284010D01*
X333461Y283994D01*
X333539Y283981D01*
X333623Y283973D01*
X333810Y283966D01*
X333828Y283066D01*
X333732Y283064D01*
X333558Y283049D01*
X333480Y283036D01*
X333410Y283020D01*
X333345Y282999D01*
X333288Y282975D01*
X333237Y282948D01*
X333192Y282916D01*
X333154Y282881D01*
X333132Y284141D01*
X333170Y284108D01*
D02*
G37*
G36*
X355360Y278286D02*
X355378Y278223D01*
X355580Y277828D01*
X355610Y277790D01*
X355628Y277746D01*
X355639Y277730D01*
X355696Y277673D01*
X355740Y277606D01*
X356923Y276423D01*
X357188Y276246D01*
X357500Y276184D01*
X357500Y276184D01*
X362000D01*
Y271000D01*
X352465D01*
X352148Y271387D01*
X352155Y271421D01*
X352023Y272085D01*
X351747Y272498D01*
Y274362D01*
X351739Y274403D01*
Y276035D01*
X351638Y276540D01*
X351500Y276747D01*
Y277932D01*
X352000Y278300D01*
X352193Y278261D01*
X355146D01*
X355351Y278302D01*
X355360Y278286D01*
D02*
G37*
G36*
X328837Y279405D02*
X328857Y279320D01*
X328891Y279245D01*
X328938Y279180D01*
X328998Y279125D01*
X329071Y279080D01*
X329158Y279045D01*
X329259Y279020D01*
X329373Y279005D01*
X329500Y279000D01*
Y278000D01*
X329373Y277995D01*
X329259Y277980D01*
X329158Y277955D01*
X329071Y277920D01*
X328998Y277875D01*
X328938Y277820D01*
X328891Y277755D01*
X328857Y277680D01*
X328837Y277595D01*
X328830Y277500D01*
Y279500D01*
X328837Y279405D01*
D02*
G37*
G36*
X333668Y281032D02*
X333617Y280978D01*
X333571Y280924D01*
X333530Y280871D01*
X333495Y280818D01*
X333466Y280766D01*
X333442Y280714D01*
X333423Y280662D01*
X333410Y280611D01*
X333402Y280560D01*
X333400Y280509D01*
X332509Y281400D01*
X332560Y281402D01*
X332611Y281410D01*
X332662Y281423D01*
X332714Y281442D01*
X332766Y281466D01*
X332818Y281495D01*
X332871Y281530D01*
X332924Y281571D01*
X332978Y281617D01*
X333032Y281668D01*
X333668Y281032D01*
D02*
G37*
G36*
X333174Y307500D02*
X333275Y306993D01*
X333563Y306563D01*
X333993Y306275D01*
X334500Y306174D01*
X359675D01*
Y299000D01*
X359711Y298816D01*
X359338Y298316D01*
X354170D01*
X354101Y298663D01*
X353944Y298899D01*
X353999Y299173D01*
Y299420D01*
X354654D01*
Y303579D01*
X347346D01*
Y299736D01*
X346846Y299529D01*
X346437Y299937D01*
X346356Y299991D01*
X346154Y300126D01*
D01*
Y303579D01*
X342192D01*
Y299672D01*
X341837Y299601D01*
X341274Y299226D01*
X340899Y298663D01*
X340767Y298000D01*
X340795Y297860D01*
X340378Y297392D01*
X340075Y297331D01*
X339647Y297046D01*
X339626Y297014D01*
X339226Y296726D01*
X338663Y297101D01*
X338000Y297233D01*
X337337Y297101D01*
X336774Y296726D01*
X336399Y296163D01*
X336348Y295909D01*
X336267Y295500D01*
X336399Y294837D01*
X336774Y294274D01*
X337337Y293899D01*
X337824Y293802D01*
X337925Y293701D01*
X338355Y293413D01*
X338767Y293331D01*
X338842Y293193D01*
X338715Y292911D01*
X338473Y292707D01*
X337371D01*
X337331Y292715D01*
X336191D01*
X335825Y293000D01*
X335725Y293507D01*
X335437Y293937D01*
X334611Y294764D01*
X334180Y295051D01*
X333673Y295152D01*
X332780D01*
Y295909D01*
X328221D01*
Y294992D01*
X328420D01*
Y292325D01*
X327080D01*
Y294992D01*
X327279D01*
Y295909D01*
X327091D01*
X327000Y296000D01*
X327000D01*
X322721D01*
Y294992D01*
X322920D01*
Y291846D01*
X323675D01*
Y291500D01*
X323758Y291080D01*
X323496Y290580D01*
X320652D01*
Y291385D01*
X320725Y291493D01*
X320795Y291846D01*
X321580D01*
Y294992D01*
X321779D01*
Y296000D01*
X317220D01*
Y294992D01*
X317421D01*
Y291846D01*
X317986D01*
X318001Y291827D01*
Y290580D01*
X317346D01*
Y286420D01*
X318688D01*
X319125Y286268D01*
Y280732D01*
X322146D01*
Y279000D01*
X322158D01*
X322350Y279005D01*
X322522Y279020D01*
X322643Y279040D01*
Y279130D01*
X322672Y279105D01*
X322709Y279083D01*
X322750Y279065D01*
X322805Y279080D01*
X322917Y279125D01*
X323008Y279180D01*
X323079Y279245D01*
X323129Y279320D01*
X323160Y279405D01*
X323170Y279500D01*
Y279002D01*
X323189Y279001D01*
X323288Y279000D01*
X324327D01*
Y278000D01*
X323288D01*
X323189Y277999D01*
X323170Y277997D01*
Y277500D01*
X323160Y277595D01*
X323129Y277680D01*
X323079Y277755D01*
X323008Y277820D01*
X322917Y277875D01*
X322805Y277920D01*
X322750Y277935D01*
X322709Y277917D01*
X322672Y277895D01*
X322643Y277870D01*
Y277960D01*
X322522Y277980D01*
X322350Y277995D01*
X322158Y278000D01*
X322146D01*
Y276220D01*
X322612D01*
X322879Y275721D01*
X322725Y275490D01*
X322644Y275079D01*
X322346D01*
Y271604D01*
X321846Y271473D01*
X321429Y272218D01*
X319582Y276224D01*
X318055Y280362D01*
X316858Y284607D01*
X315998Y288933D01*
X315479Y293313D01*
X315374Y296000D01*
X315306Y297721D01*
X315315Y297946D01*
X315325Y297999D01*
Y306174D01*
X323500D01*
X324007Y306275D01*
X324437Y306563D01*
X324725Y306993D01*
X324726Y307000D01*
X324826Y307500D01*
Y327675D01*
X333174D01*
Y307500D01*
D02*
G37*
G36*
X353001Y298955D02*
X353005Y298912D01*
X353012Y298871D01*
X353021Y298833D01*
X353032Y298796D01*
X353047Y298761D01*
X353064Y298728D01*
X353083Y298698D01*
X353105Y298669D01*
X353130Y298643D01*
X351870D01*
X351895Y298669D01*
X351917Y298698D01*
X351936Y298728D01*
X351953Y298761D01*
X351968Y298796D01*
X351979Y298833D01*
X351988Y298871D01*
X351995Y298912D01*
X351999Y298955D01*
X352000Y299000D01*
X353000D01*
X353001Y298955D01*
D02*
G37*
G36*
X335667Y283064D02*
X334764Y283066D01*
Y283966D01*
X335667Y283968D01*
Y283064D01*
D02*
G37*
G36*
X325905Y292659D02*
X325820Y292629D01*
X325745Y292579D01*
X325680Y292508D01*
X325625Y292417D01*
X325580Y292305D01*
X325545Y292174D01*
X325520Y292022D01*
X325505Y291850D01*
X325500Y291658D01*
X324500D01*
X324495Y291850D01*
X324480Y292022D01*
X324455Y292174D01*
X324420Y292305D01*
X324375Y292417D01*
X324320Y292508D01*
X324255Y292579D01*
X324180Y292629D01*
X324095Y292659D01*
X324000Y292670D01*
X326000D01*
X325905Y292659D01*
D02*
G37*
G36*
X361001Y290802D02*
X361008Y290799D01*
X361088Y290799D01*
X361167Y290784D01*
X361684D01*
Y287154D01*
X360857D01*
X360779Y287138D01*
X360698D01*
X360500Y287098D01*
X360302Y287138D01*
X360221D01*
X360143Y287154D01*
X358857D01*
X358779Y287138D01*
X358698D01*
X358500Y287098D01*
X358302Y287138D01*
X358221D01*
X358143Y287154D01*
X357233D01*
X357083Y287254D01*
X356771Y287316D01*
X356046D01*
X355967Y287300D01*
X355886Y287300D01*
X355812Y287269D01*
X355733Y287254D01*
X355667Y287209D01*
X355592Y287178D01*
X355332Y287004D01*
X355065Y286951D01*
X352273D01*
X352077Y286990D01*
X351953D01*
X351913Y286997D01*
X351537Y287308D01*
X351524Y287327D01*
X351596Y287852D01*
X352006Y288141D01*
X352193Y288104D01*
X355146D01*
X355650Y288204D01*
X356077Y288490D01*
X356363Y288917D01*
X356463Y289421D01*
X356411Y289684D01*
X356411Y289688D01*
X356726Y290156D01*
X356771Y290184D01*
X357083Y290246D01*
X357348Y290423D01*
X357524Y290688D01*
X357543Y290784D01*
X357834D01*
X357912Y290799D01*
X357992Y290799D01*
X357999Y290802D01*
X358500Y290902D01*
X359001Y290802D01*
X359008Y290799D01*
X359088Y290799D01*
X359167Y290784D01*
X359834D01*
X359912Y290799D01*
X359992Y290799D01*
X359999Y290802D01*
X360500Y290902D01*
X361001Y290802D01*
D02*
G37*
G36*
X320405Y292663D02*
X320320Y292643D01*
X320245Y292609D01*
X320180Y292563D01*
X320125Y292502D01*
X320080Y292429D01*
X320045Y292341D01*
X320020Y292241D01*
X320005Y292127D01*
X320000Y292000D01*
X319000D01*
X318995Y292127D01*
X318980Y292241D01*
X318955Y292341D01*
X318920Y292429D01*
X318875Y292502D01*
X318820Y292563D01*
X318755Y292609D01*
X318680Y292643D01*
X318595Y292663D01*
X318500Y292670D01*
X320500D01*
X320405Y292663D01*
D02*
G37*
G36*
X340101Y293638D02*
X340091Y293733D01*
X340061Y293818D01*
X340010Y293893D01*
X339939Y293958D01*
X339848Y294013D01*
X339737Y294058D01*
X339605Y294093D01*
X339454Y294118D01*
X339282Y294133D01*
X339089Y294138D01*
Y294865D01*
X338509Y294284D01*
X338446Y294345D01*
X338330Y294446D01*
X338276Y294487D01*
X338225Y294522D01*
X338176Y294550D01*
X338130Y294572D01*
X338087Y294588D01*
X338047Y294597D01*
X338009Y294600D01*
X338900Y295491D01*
X338903Y295453D01*
X338912Y295413D01*
X338928Y295370D01*
X338950Y295324D01*
X338978Y295275D01*
X339013Y295224D01*
X339054Y295170D01*
X339089Y295129D01*
Y295138D01*
X339282Y295143D01*
X339454Y295158D01*
X339605Y295183D01*
X339737Y295218D01*
X339848Y295263D01*
X339939Y295318D01*
X340010Y295383D01*
X340061Y295458D01*
X340091Y295543D01*
X340101Y295638D01*
Y293638D01*
D02*
G37*
G36*
X331766Y294732D02*
X331796Y294647D01*
X331847Y294572D01*
X331918Y294507D01*
X332009Y294452D01*
X332120Y294407D01*
X332251Y294372D01*
X332403Y294347D01*
X332575Y294332D01*
X332768Y294327D01*
Y293327D01*
X332575Y293322D01*
X332403Y293307D01*
X332251Y293282D01*
X332120Y293247D01*
X332009Y293202D01*
X331918Y293147D01*
X331847Y293082D01*
X331796Y293007D01*
X331766Y292922D01*
X331755Y292827D01*
Y294827D01*
X331766Y294732D01*
D02*
G37*
G36*
X371500Y280000D02*
X362310D01*
X362249Y280012D01*
X362230Y280482D01*
X362233Y280500D01*
X362229Y280521D01*
Y282162D01*
X360857D01*
X360500Y282233D01*
X360143Y282162D01*
X358857D01*
X358500Y282233D01*
X358143Y282162D01*
X356771D01*
X356771Y282162D01*
X356294Y282178D01*
X356279Y282181D01*
X356269Y282192D01*
X356077Y282479D01*
X355650Y282764D01*
X355146Y282865D01*
X352193D01*
X351997Y282826D01*
X351921D01*
X351918Y282825D01*
X351915Y282826D01*
X351472Y283144D01*
X351418Y283271D01*
Y285861D01*
X351918Y286190D01*
X352193Y286135D01*
X355146D01*
X355650Y286236D01*
X356046Y286500D01*
X356771D01*
Y286338D01*
X358143D01*
X358500Y286267D01*
X358857Y286338D01*
X360143D01*
X360500Y286267D01*
X360857Y286338D01*
X362229D01*
Y286500D01*
X362500D01*
Y291000D01*
X371500D01*
Y280000D01*
D02*
G37*
G36*
X426925Y288747D02*
X426101Y284607D01*
X424904Y280362D01*
X423377Y276224D01*
X421531Y272218D01*
X419376Y268370D01*
X418589Y267193D01*
X418347Y267188D01*
X418038Y267247D01*
X417705Y267746D01*
X417143Y268122D01*
X416480Y268254D01*
X415816Y268122D01*
X415254Y267746D01*
X414878Y267184D01*
X414842Y267000D01*
X400627D01*
Y271689D01*
X400564Y272001D01*
X400388Y272266D01*
X400387Y272266D01*
X399816Y272838D01*
Y273413D01*
X401170D01*
X401189Y273409D01*
X401207Y273413D01*
X401816D01*
X401837Y273399D01*
X402500Y273267D01*
X403163Y273399D01*
X403726Y273774D01*
X404101Y274337D01*
X404233Y275000D01*
X404101Y275663D01*
X403726Y276226D01*
X403163Y276601D01*
X402746Y276684D01*
X402795Y277184D01*
X404500D01*
X404812Y277246D01*
X405077Y277423D01*
X405254Y277688D01*
X405316Y278000D01*
Y279500D01*
X411500D01*
Y282400D01*
X411438Y282437D01*
X411337Y282478D01*
X411219Y282509D01*
X411082Y282532D01*
X411055Y282534D01*
X411048Y282534D01*
X410971Y282521D01*
X410900Y282505D01*
X410836Y282485D01*
X410778Y282462D01*
X410726Y282435D01*
X410681Y282404D01*
X410643Y282370D01*
Y283630D01*
X410681Y283596D01*
X410726Y283565D01*
X410778Y283538D01*
X410836Y283515D01*
X410900Y283495D01*
X410971Y283479D01*
X411048Y283466D01*
X411054Y283466D01*
X411082Y283468D01*
X411219Y283490D01*
X411337Y283522D01*
X411438Y283562D01*
X411500Y283600D01*
Y286500D01*
X411000Y287000D01*
Y289247D01*
X426616D01*
X426925Y288747D01*
D02*
G37*
G36*
X323840Y289405D02*
X323871Y289320D01*
X323921Y289245D01*
X323992Y289180D01*
X324083Y289125D01*
X324195Y289080D01*
X324326Y289045D01*
X324478Y289020D01*
X324650Y289005D01*
X324842Y289000D01*
Y288000D01*
X324650Y287995D01*
X324478Y287980D01*
X324326Y287955D01*
X324195Y287920D01*
X324083Y287875D01*
X323992Y287820D01*
X323921Y287755D01*
X323871Y287680D01*
X323840Y287595D01*
X323830Y287500D01*
Y289500D01*
X323840Y289405D01*
D02*
G37*
G36*
X397000Y297000D02*
Y289816D01*
X390838D01*
X390077Y290577D01*
X390077Y290577D01*
X389077Y291577D01*
X388812Y291754D01*
X388500Y291816D01*
X388500Y291816D01*
X381000D01*
Y297674D01*
X397000D01*
Y297000D01*
D02*
G37*
G36*
X319832Y290575D02*
X319847Y290403D01*
X319872Y290251D01*
X319907Y290120D01*
X319952Y290008D01*
X320007Y289917D01*
X320072Y289847D01*
X320147Y289796D01*
X320232Y289766D01*
X320327Y289756D01*
X318327D01*
X318422Y289766D01*
X318507Y289796D01*
X318582Y289847D01*
X318647Y289917D01*
X318702Y290008D01*
X318747Y290120D01*
X318782Y290251D01*
X318807Y290403D01*
X318822Y290575D01*
X318827Y290768D01*
X319827D01*
X319832Y290575D01*
D02*
G37*
G36*
X345330Y278164D02*
X345254Y278137D01*
X345186Y278092D01*
X345128Y278029D01*
X345078Y277948D01*
X345038Y277849D01*
X345006Y277732D01*
X344984Y277597D01*
X344970Y277444D01*
X344966Y277273D01*
X344066D01*
X344061Y277444D01*
X344048Y277597D01*
X344025Y277732D01*
X343994Y277849D01*
X343953Y277948D01*
X343904Y278029D01*
X343845Y278092D01*
X343778Y278137D01*
X343701Y278164D01*
X343616Y278173D01*
X345416D01*
X345330Y278164D01*
D02*
G37*
G36*
X372172Y275606D02*
X372209Y275584D01*
X372254Y275564D01*
X372307Y275548D01*
X372367Y275533D01*
X372436Y275522D01*
X372596Y275506D01*
X372688Y275502D01*
X372788Y275501D01*
X372789Y274501D01*
X372689Y274500D01*
X372437Y274480D01*
X372368Y274468D01*
X372308Y274454D01*
X372255Y274437D01*
X372210Y274417D01*
X372173Y274395D01*
X372143Y274371D01*
X372142Y275631D01*
X372172Y275606D01*
D02*
G37*
G36*
X401199Y275723D02*
X401229Y275676D01*
X401279Y275635D01*
X401349Y275599D01*
X401439Y275569D01*
X401549Y275544D01*
X401630Y275532D01*
X401632Y275533D01*
X401693Y275547D01*
X401746Y275564D01*
X401791Y275583D01*
X401828Y275605D01*
X401857Y275630D01*
Y275510D01*
X402189Y275500D01*
Y274500D01*
X401999Y274497D01*
X401857Y274487D01*
Y274370D01*
X401828Y274395D01*
X401791Y274417D01*
X401746Y274436D01*
X401693Y274453D01*
X401632Y274467D01*
X401630Y274468D01*
X401549Y274456D01*
X401439Y274431D01*
X401349Y274401D01*
X401279Y274365D01*
X401229Y274324D01*
X401199Y274277D01*
X401189Y274225D01*
Y275775D01*
X401199Y275723D01*
D02*
G37*
G36*
X334452Y276223D02*
X334466Y276048D01*
X334479Y275971D01*
X334495Y275900D01*
X334515Y275836D01*
X334538Y275778D01*
X334565Y275726D01*
X334596Y275681D01*
X334630Y275643D01*
X333370D01*
X333404Y275681D01*
X333435Y275726D01*
X333462Y275778D01*
X333485Y275836D01*
X333505Y275900D01*
X333521Y275971D01*
X333534Y276048D01*
X333543Y276132D01*
X333550Y276319D01*
X334450D01*
X334452Y276223D01*
D02*
G37*
G36*
X345078Y300224D02*
X344993Y300201D01*
X344918Y300161D01*
X344853Y300105D01*
X344798Y300034D01*
X344753Y299946D01*
X344718Y299843D01*
X344693Y299724D01*
X344678Y299589D01*
X344673Y299438D01*
X343673D01*
X343668Y299589D01*
X343653Y299724D01*
X343628Y299843D01*
X343593Y299946D01*
X343548Y300034D01*
X343493Y300105D01*
X343428Y300161D01*
X343353Y300201D01*
X343268Y300224D01*
X343173Y300233D01*
X345173D01*
X345078Y300224D01*
D02*
G37*
G36*
X391476Y276785D02*
X391391Y276755D01*
X391316Y276705D01*
X391251Y276634D01*
X391196Y276543D01*
X391151Y276431D01*
X391116Y276300D01*
X391091Y276148D01*
X391076Y275976D01*
X391071Y275784D01*
X390071D01*
X390066Y275976D01*
X390051Y276148D01*
X390026Y276300D01*
X389991Y276431D01*
X389946Y276543D01*
X389891Y276634D01*
X389826Y276705D01*
X389751Y276755D01*
X389666Y276785D01*
X389571Y276796D01*
X391571D01*
X391476Y276785D01*
D02*
G37*
G36*
X324932Y274155D02*
X324910Y274117D01*
X324890Y274072D01*
X324874Y274020D01*
X324859Y273959D01*
X324848Y273890D01*
X324832Y273730D01*
X324828Y273638D01*
X324827Y273538D01*
X323827D01*
X323826Y273638D01*
X323806Y273890D01*
X323794Y273959D01*
X323780Y274020D01*
X323763Y274072D01*
X323744Y274117D01*
X323722Y274155D01*
X323697Y274184D01*
X324957D01*
X324932Y274155D01*
D02*
G37*
G36*
X399000Y276587D02*
X396858D01*
Y273413D01*
X399000D01*
Y272500D01*
X399499Y272001D01*
X399499D01*
X399754Y271746D01*
X399796Y271683D01*
X399811Y271609D01*
Y267000D01*
X399873Y266688D01*
X399937Y266592D01*
X399873Y266496D01*
X399811Y266184D01*
Y262737D01*
X399747D01*
Y261923D01*
Y253263D01*
X399755D01*
X399809Y252991D01*
X399986Y252726D01*
X400251Y252549D01*
X400563Y252487D01*
X403915D01*
X404067Y251987D01*
X400830Y249825D01*
X399811Y249254D01*
X398120Y248307D01*
X396982Y247669D01*
X395742Y247098D01*
X392976Y245823D01*
X388838Y244296D01*
X384593Y243099D01*
X380267Y242238D01*
X375887Y241720D01*
X371480Y241547D01*
X367072Y241720D01*
X362692Y242238D01*
X362477Y242281D01*
X362526Y242779D01*
X364544D01*
Y243542D01*
X364748Y243582D01*
X365161Y243859D01*
X365580Y244278D01*
X365583Y244280D01*
X365589Y244284D01*
X366163Y244399D01*
X366726Y244774D01*
X366905Y244792D01*
X367839Y243859D01*
X368252Y243582D01*
X368456Y243542D01*
Y242779D01*
X373993D01*
Y246319D01*
X374193D01*
Y248000D01*
X373544D01*
X373468Y247978D01*
X373377Y247937D01*
X373357Y247925D01*
Y247870D01*
X373322Y247901D01*
X373302Y247888D01*
X373244Y247830D01*
X373202Y247762D01*
X373177Y247686D01*
X373169Y247600D01*
Y247983D01*
X373164Y247985D01*
X373116Y248000D01*
X371224D01*
Y249000D01*
X373116D01*
X373164Y249015D01*
X373169Y249017D01*
Y249400D01*
X373177Y249314D01*
X373202Y249238D01*
X373244Y249170D01*
X373302Y249112D01*
X373322Y249099D01*
X373357Y249130D01*
Y249075D01*
X373377Y249062D01*
X373468Y249022D01*
X373544Y249000D01*
X374193D01*
Y250468D01*
X374240Y250507D01*
X374903Y250639D01*
X375354Y250939D01*
X375744Y250802D01*
X375853Y250718D01*
Y247098D01*
X380772D01*
Y246898D01*
X382059D01*
Y249571D01*
Y251232D01*
X381784D01*
X381836Y251242D01*
X381883Y251272D01*
X381924Y251322D01*
X381960Y251392D01*
X381990Y251482D01*
X382015Y251592D01*
X382034Y251722D01*
X382048Y251872D01*
X382048Y251876D01*
X382038Y252005D01*
X382027Y252073D01*
X382012Y252134D01*
X381995Y252187D01*
X381976Y252232D01*
X381968Y252244D01*
X381692D01*
X381233Y252500D01*
X381101Y253163D01*
X380985Y253337D01*
X380726Y253726D01*
X380163Y254101D01*
X379500Y254233D01*
X378837Y254101D01*
X378274Y253726D01*
X377899Y253163D01*
X377767Y252500D01*
X377781Y252431D01*
X377463Y252044D01*
X376134D01*
X375974Y252240D01*
X375841Y252904D01*
X375466Y253466D01*
X374903Y253841D01*
X374240Y253974D01*
X373993Y254176D01*
Y254221D01*
X373462D01*
X373280Y254646D01*
X373280Y254646D01*
X373280D01*
X373280Y254646D01*
Y256327D01*
X371000D01*
Y257327D01*
X373280D01*
Y257693D01*
X373742Y257884D01*
X374134Y257492D01*
X374564Y257205D01*
X375071Y257104D01*
X375853D01*
Y255956D01*
X379028D01*
Y260299D01*
X379500D01*
Y261000D01*
X376500D01*
Y260902D01*
X375853D01*
Y260500D01*
X375654D01*
Y260428D01*
X375209Y260166D01*
X374874Y260500D01*
X374438Y260936D01*
X374008Y261224D01*
X373501Y261325D01*
X373079D01*
Y262154D01*
X373035D01*
X372665Y262654D01*
X372733Y263000D01*
X372661Y263363D01*
X372601Y263663D01*
X372226Y264226D01*
X371663Y264601D01*
X371000Y264733D01*
X370337Y264601D01*
X369999Y264376D01*
X368826Y265549D01*
Y267231D01*
X368920Y267692D01*
X372822D01*
X374592Y265922D01*
X375022Y265634D01*
X375530Y265534D01*
X378359D01*
X378866Y265634D01*
X379296Y265922D01*
X380089Y266714D01*
X380937Y267563D01*
X381225Y267993D01*
X381326Y268500D01*
Y269357D01*
X384146D01*
Y269866D01*
Y273203D01*
X387446D01*
X387708Y272941D01*
X393342D01*
Y274228D01*
X392108D01*
X391823Y274728D01*
X391896Y275099D01*
Y275972D01*
X393143D01*
Y277184D01*
X399000D01*
Y276587D01*
D02*
G37*
G36*
X383062Y274499D02*
X383084Y274179D01*
X383103Y274049D01*
X383128Y273939D01*
X383158Y273849D01*
X383194Y273779D01*
X383235Y273729D01*
X383282Y273699D01*
X383334Y273689D01*
X381784D01*
X381836Y273699D01*
X381883Y273729D01*
X381924Y273779D01*
X381960Y273849D01*
X381990Y273939D01*
X382015Y274049D01*
X382034Y274179D01*
X382048Y274329D01*
X382059Y274689D01*
X383059D01*
X383062Y274499D01*
D02*
G37*
G36*
X328178Y275075D02*
X328193Y274903D01*
X328218Y274751D01*
X328253Y274620D01*
X328298Y274509D01*
X328353Y274417D01*
X328418Y274347D01*
X328493Y274296D01*
X328578Y274266D01*
X328673Y274255D01*
X326673D01*
X326768Y274266D01*
X326853Y274296D01*
X326928Y274347D01*
X326993Y274417D01*
X327048Y274509D01*
X327093Y274620D01*
X327128Y274751D01*
X327153Y274903D01*
X327168Y275075D01*
X327173Y275268D01*
X328173D01*
X328178Y275075D01*
D02*
G37*
G36*
X324832Y274718D02*
X324847Y274621D01*
X324872Y274535D01*
X324907Y274461D01*
X324952Y274398D01*
X325007Y274347D01*
X325072Y274307D01*
X325147Y274278D01*
X325232Y274261D01*
X325327Y274255D01*
X323327D01*
X323422Y274261D01*
X323507Y274278D01*
X323582Y274307D01*
X323647Y274347D01*
X323702Y274398D01*
X323747Y274461D01*
X323782Y274535D01*
X323807Y274621D01*
X323822Y274718D01*
X323827Y274827D01*
X324827D01*
X324832Y274718D01*
D02*
G37*
G36*
X328578Y277234D02*
X328493Y277204D01*
X328418Y277153D01*
X328353Y277082D01*
X328298Y276992D01*
X328253Y276880D01*
X328218Y276749D01*
X328193Y276597D01*
X328178Y276425D01*
X328173Y276233D01*
X327173D01*
X327168Y276425D01*
X327153Y276597D01*
X327128Y276749D01*
X327093Y276880D01*
X327048Y276992D01*
X326993Y277082D01*
X326928Y277153D01*
X326853Y277204D01*
X326768Y277234D01*
X326673Y277244D01*
X328673D01*
X328578Y277234D01*
D02*
G37*
G36*
X353578Y300234D02*
X353493Y300204D01*
X353418Y300153D01*
X353353Y300082D01*
X353298Y299991D01*
X353253Y299880D01*
X353218Y299749D01*
X353193Y299597D01*
X353178Y299425D01*
X353173Y299233D01*
X352173D01*
X352168Y299425D01*
X352153Y299597D01*
X352128Y299749D01*
X352093Y299880D01*
X352048Y299991D01*
X351993Y300082D01*
X351928Y300153D01*
X351853Y300204D01*
X351768Y300234D01*
X351673Y300244D01*
X353673D01*
X353578Y300234D01*
D02*
G37*
G36*
X350232D02*
X350147Y300204D01*
X350072Y300153D01*
X350007Y300082D01*
X349952Y299991D01*
X349907Y299880D01*
X349872Y299749D01*
X349847Y299597D01*
X349832Y299425D01*
X349827Y299233D01*
X348827D01*
X348822Y299425D01*
X348807Y299597D01*
X348782Y299749D01*
X348747Y299880D01*
X348702Y299991D01*
X348647Y300082D01*
X348582Y300153D01*
X348507Y300204D01*
X348422Y300234D01*
X348327Y300244D01*
X350327D01*
X350232Y300234D01*
D02*
G37*
G36*
X355332Y281996D02*
X355489Y281891D01*
X355599Y281726D01*
X355647Y281678D01*
X355682Y281622D01*
X355758Y281567D01*
X355825Y281501D01*
X355886Y281475D01*
X355941Y281436D01*
X356032Y281415D01*
X356119Y281379D01*
X356185D01*
X356250Y281364D01*
X356744Y281347D01*
X356757Y281349D01*
X356771Y281347D01*
X356771Y281347D01*
X361414D01*
Y280000D01*
X361476Y279688D01*
X361652Y279423D01*
X361917Y279246D01*
X362229Y279184D01*
X363000D01*
Y277000D01*
X357500D01*
X356317Y278183D01*
X356306Y278199D01*
X356104Y278594D01*
X356306Y278990D01*
X356363Y279075D01*
X356463Y279579D01*
X356363Y280083D01*
X356077Y280510D01*
X355650Y280796D01*
X355146Y280896D01*
X352193D01*
X352000Y280858D01*
X351500Y281225D01*
Y281576D01*
X351714Y281934D01*
X351764Y282009D01*
X351921Y282010D01*
X352077D01*
X352273Y282049D01*
X355065D01*
X355332Y281996D01*
D02*
G37*
G36*
X344968Y276223D02*
X344063D01*
X344066Y277126D01*
X344966D01*
X344968Y276223D01*
D02*
G37*
G36*
X380185Y280985D02*
X380193Y280523D01*
X380208Y280452D01*
X380208Y280379D01*
X380213Y280354D01*
X380213Y280354D01*
Y280354D01*
X380248Y280271D01*
X380261Y280212D01*
X380289Y280171D01*
X380335Y280060D01*
X380335Y280060D01*
X380335Y280060D01*
X380437Y279958D01*
X380442Y279951D01*
X380448Y279947D01*
X380462Y279934D01*
X380560Y279835D01*
X380560Y279835D01*
X380560Y279835D01*
X380709Y279774D01*
X380758Y279753D01*
X380768Y279746D01*
X380780Y279744D01*
X380854Y279713D01*
X380854D01*
X380854Y279713D01*
X380921Y279700D01*
X381002D01*
X381080Y279684D01*
X387713D01*
X388184Y279684D01*
Y279147D01*
X387999D01*
Y275972D01*
X387548Y275854D01*
X384668D01*
X384584Y275938D01*
X384154Y276225D01*
X383646Y276326D01*
X372588D01*
X372573Y276328D01*
X372163Y276601D01*
X371500Y276733D01*
X370837Y276601D01*
X370274Y276226D01*
X369899Y275663D01*
X369767Y275000D01*
X369899Y274337D01*
X370274Y273774D01*
X370837Y273399D01*
X371500Y273267D01*
X372163Y273399D01*
X372573Y273672D01*
X372611Y273675D01*
X375853D01*
Y270675D01*
X375778Y270660D01*
X375215Y270285D01*
X375003Y269967D01*
X374397Y269866D01*
X373653Y270610D01*
X373223Y270898D01*
X373079Y270926D01*
Y271654D01*
X368920D01*
Y270999D01*
X368173D01*
X368173Y270999D01*
X367666Y270898D01*
X367236Y270610D01*
X366563Y269937D01*
X366287Y269525D01*
X366275Y269507D01*
X366275Y269506D01*
X366154Y269079D01*
X363008D01*
Y269280D01*
X361327D01*
Y267000D01*
Y264721D01*
X363008D01*
X363008Y264721D01*
Y264721D01*
X363150Y264515D01*
X363236Y264389D01*
X363289Y264337D01*
X363289Y264337D01*
X363304Y264321D01*
X363393Y264232D01*
X363202Y263770D01*
X363012D01*
X362508Y263670D01*
X362477Y263650D01*
X360500D01*
Y259500D01*
Y255350D01*
X362477D01*
X362508Y255330D01*
X363012Y255230D01*
X363857D01*
X363898Y255222D01*
X365349D01*
X365905Y254825D01*
X365921Y254724D01*
X365044Y253847D01*
X364544Y254054D01*
Y254221D01*
X359007D01*
Y250627D01*
X358710Y250388D01*
X358433Y250370D01*
X358279Y250502D01*
Y251673D01*
X353720D01*
Y249992D01*
X353921D01*
Y246846D01*
X354397D01*
X354399Y246837D01*
X354774Y246274D01*
X355337Y245899D01*
X356000Y245767D01*
X356663Y245899D01*
X357226Y246274D01*
X357601Y246837D01*
X357603Y246846D01*
X358080D01*
Y246864D01*
X358466Y247181D01*
X358500Y247175D01*
X359007D01*
Y243366D01*
X358621Y243048D01*
X358366Y243099D01*
X354121Y244296D01*
X349983Y245823D01*
X349283Y246146D01*
X349392Y246646D01*
X350000D01*
Y248327D01*
X348220D01*
Y247186D01*
X347720Y246866D01*
X345977Y247669D01*
X342129Y249825D01*
X338462Y252275D01*
X338373Y252345D01*
X338344Y252844D01*
X340500Y255000D01*
X342913Y257413D01*
X343178Y257303D01*
X343901Y257208D01*
X344624Y257303D01*
X345297Y257582D01*
X345777Y257950D01*
X346276Y257796D01*
Y253105D01*
X346000Y252733D01*
X345337Y252601D01*
X344774Y252226D01*
X344399Y251663D01*
X344267Y251000D01*
X344399Y250337D01*
X344774Y249774D01*
X345337Y249399D01*
X346000Y249267D01*
X346663Y249399D01*
X347226Y249774D01*
X347601Y250337D01*
X347643Y250549D01*
X347720Y250582D01*
X348220Y250255D01*
Y249327D01*
X352780D01*
Y251008D01*
X352579D01*
Y252950D01*
X352673D01*
X353141Y253043D01*
X353221Y253096D01*
X353720Y252828D01*
Y252673D01*
X358279D01*
Y254354D01*
X358197D01*
X357786Y254854D01*
X357836Y255102D01*
X358039Y255350D01*
X359500D01*
Y259500D01*
Y263650D01*
X357523D01*
X357492Y263670D01*
X356988Y263770D01*
X356689D01*
X356418Y264270D01*
X356499Y264673D01*
Y264920D01*
X357154D01*
Y269079D01*
X354008D01*
Y269280D01*
X352327D01*
Y267000D01*
X351827D01*
Y266500D01*
X349646D01*
Y265869D01*
X349215Y265685D01*
X348724Y266081D01*
Y267500D01*
X348630Y267968D01*
X348365Y268365D01*
X347708Y269022D01*
Y271387D01*
X348377D01*
X348453Y271372D01*
X348528Y271387D01*
X348695D01*
X348820Y270758D01*
X349196Y270196D01*
X349758Y269820D01*
X349961Y269779D01*
X349912Y269280D01*
X349646D01*
Y267500D01*
X351327D01*
Y269280D01*
X350931D01*
X350882Y269779D01*
X351085Y269820D01*
X351647Y270196D01*
X352080Y270281D01*
X352119Y270269D01*
X352153Y270246D01*
X352270Y270223D01*
X352385Y270188D01*
X352425Y270192D01*
X352465Y270184D01*
X362000D01*
X362312Y270246D01*
X362577Y270423D01*
X362754Y270688D01*
X362816Y271000D01*
Y276184D01*
X363000D01*
X363312Y276246D01*
X363577Y276423D01*
X363754Y276688D01*
X363816Y277000D01*
Y279184D01*
X371500D01*
X371812Y279246D01*
X372077Y279423D01*
X372254Y279688D01*
X372316Y280000D01*
Y281000D01*
X379709D01*
X380185Y280985D01*
D02*
G37*
%LPC*%
G36*
X340079Y273862D02*
X339057D01*
Y272689D01*
X339173Y272107D01*
X339503Y271613D01*
X339743Y271453D01*
X339819Y271450D01*
Y271402D01*
X339997Y271283D01*
X340079Y271267D01*
Y273862D01*
D02*
G37*
G36*
X360327Y266500D02*
X358646D01*
Y264721D01*
X360327D01*
Y266500D01*
D02*
G37*
G36*
X384347Y252244D02*
X383150D01*
X383142Y252232D01*
X383123Y252187D01*
X383106Y252134D01*
X383092Y252073D01*
X383080Y252005D01*
X383071Y251911D01*
X383084Y251722D01*
X383103Y251592D01*
X383128Y251482D01*
X383158Y251392D01*
X383194Y251322D01*
X383235Y251272D01*
X383282Y251242D01*
X383334Y251232D01*
X383059D01*
Y250071D01*
X384347D01*
Y252244D01*
D02*
G37*
G36*
X423079Y286654D02*
X418921D01*
Y282868D01*
X418448Y282552D01*
X418072Y281990D01*
X417940Y281327D01*
X418072Y280663D01*
X418448Y280101D01*
X418921Y279785D01*
Y279346D01*
X423079D01*
Y282692D01*
Y286654D01*
D02*
G37*
G36*
X328327Y269280D02*
X326646D01*
Y267500D01*
X328327D01*
Y267943D01*
X328312Y267991D01*
X328289Y268049D01*
X328262Y268101D01*
X328231Y268145D01*
X328197Y268184D01*
X328327D01*
Y268255D01*
X327927D01*
X328012Y268261D01*
X328089Y268278D01*
X328156Y268307D01*
X328215Y268347D01*
X328264Y268398D01*
X328305Y268461D01*
X328327Y268513D01*
Y269280D01*
D02*
G37*
G36*
X360327D02*
X358646D01*
Y267500D01*
X360327D01*
Y269280D01*
D02*
G37*
G36*
X352780Y248327D02*
X351000D01*
Y246646D01*
X352780D01*
Y248327D01*
D02*
G37*
G36*
X393342Y271941D02*
X387799D01*
Y270654D01*
X387366Y270493D01*
X386527D01*
X386039Y270396D01*
X385626Y270120D01*
X385013Y269506D01*
X385003Y269497D01*
X384503Y268997D01*
X384227Y268583D01*
X384130Y268096D01*
Y265642D01*
X381787D01*
Y265843D01*
X380500D01*
Y261000D01*
Y260299D01*
X380543D01*
X380968Y260090D01*
X380972Y260072D01*
Y255956D01*
X384146D01*
Y258758D01*
X384647Y259026D01*
X384837Y258899D01*
X385500Y258767D01*
X385607Y258788D01*
X385854Y258327D01*
X385711Y258185D01*
X385563Y258036D01*
X385275Y257606D01*
X385174Y257099D01*
Y249089D01*
X385173Y249074D01*
X384899Y248663D01*
X384846Y248401D01*
X384347Y248450D01*
Y249071D01*
X383059D01*
Y246898D01*
X384347D01*
Y247550D01*
X384846Y247599D01*
X384899Y247337D01*
X385274Y246774D01*
X385837Y246399D01*
X386500Y246267D01*
X387163Y246399D01*
X387726Y246774D01*
X388101Y247337D01*
X388233Y248000D01*
X388101Y248663D01*
X387828Y249072D01*
X387825Y249110D01*
Y253727D01*
X388003Y253787D01*
X388326Y253851D01*
X388904Y253407D01*
X389626Y253108D01*
X389901Y253072D01*
Y256000D01*
X390901D01*
Y253072D01*
X391176Y253108D01*
X391898Y253407D01*
X392518Y253883D01*
X392712Y254135D01*
X393342D01*
X393426Y254026D01*
X394005Y253582D01*
X394678Y253303D01*
X395401Y253208D01*
X396124Y253303D01*
X396797Y253582D01*
X397375Y254026D01*
X397819Y254604D01*
X398098Y255277D01*
X398193Y256000D01*
X398098Y256723D01*
X397819Y257396D01*
X397375Y257975D01*
X397101Y258185D01*
Y258815D01*
X397375Y259026D01*
X397819Y259604D01*
X398098Y260277D01*
X398193Y261000D01*
X398098Y261723D01*
X397819Y262396D01*
X397375Y262975D01*
X397101Y263185D01*
Y263815D01*
X397375Y264025D01*
X397819Y264604D01*
X398098Y265277D01*
X398193Y266000D01*
X398098Y266723D01*
X397819Y267396D01*
X397375Y267974D01*
X397328Y268011D01*
X397200Y268142D01*
D01*
X397070Y268289D01*
X396960Y268427D01*
X396870Y268556D01*
X396799Y268675D01*
X396745Y268783D01*
X396708Y268878D01*
X396684Y268962D01*
X396675Y269013D01*
Y269099D01*
X396578Y269587D01*
X396302Y270000D01*
X396183Y270120D01*
X395769Y270396D01*
X395282Y270493D01*
X393776D01*
X393569Y270570D01*
X393342Y270654D01*
D01*
Y271941D01*
D02*
G37*
%LPD*%
G36*
X385856Y264818D02*
X385871Y264644D01*
X385883Y264567D01*
X385899Y264496D01*
X385919Y264431D01*
X385943Y264373D01*
X385969Y264322D01*
X386000Y264277D01*
X386034Y264238D01*
X384774D01*
X384808Y264277D01*
X384839Y264322D01*
X384866Y264373D01*
X384890Y264431D01*
X384909Y264496D01*
X384926Y264567D01*
X384938Y264644D01*
X384947Y264728D01*
X384954Y264915D01*
X385854D01*
X385856Y264818D01*
D02*
G37*
G36*
X419733Y280327D02*
X419732Y280422D01*
X419711Y280747D01*
X419703Y280782D01*
X419695Y280807D01*
X419685Y280822D01*
X419673Y280827D01*
Y281827D01*
X419685Y281832D01*
X419695Y281847D01*
X419703Y281872D01*
X419711Y281907D01*
X419718Y281952D01*
X419727Y282072D01*
X419733Y282327D01*
Y280327D01*
D02*
G37*
G36*
X395860Y268940D02*
X395888Y268779D01*
X395934Y268617D01*
X395999Y268451D01*
X396083Y268284D01*
X396185Y268113D01*
X396306Y267940D01*
X396445Y267764D01*
X396603Y267586D01*
X396779Y267406D01*
X394023D01*
X394199Y267586D01*
X394496Y267940D01*
X394617Y268113D01*
X394719Y268284D01*
X394802Y268451D01*
X394867Y268617D01*
X394914Y268779D01*
X394942Y268940D01*
X394951Y269097D01*
X395851D01*
X395860Y268940D01*
D02*
G37*
G36*
X388456Y265100D02*
X388447Y265185D01*
X388420Y265262D01*
X388375Y265330D01*
X388312Y265388D01*
X388231Y265438D01*
X388132Y265478D01*
X388014Y265510D01*
X387879Y265532D01*
X387726Y265546D01*
X387554Y265550D01*
Y266450D01*
X387726Y266455D01*
X387879Y266468D01*
X388014Y266491D01*
X388132Y266522D01*
X388231Y266563D01*
X388312Y266612D01*
X388375Y266670D01*
X388420Y266738D01*
X388447Y266814D01*
X388456Y266900D01*
Y265100D01*
D02*
G37*
G36*
X420345Y281932D02*
X420383Y281910D01*
X420428Y281891D01*
X420480Y281874D01*
X420541Y281859D01*
X420610Y281848D01*
X420770Y281832D01*
X420862Y281828D01*
X420962Y281827D01*
Y280827D01*
X420862Y280825D01*
X420610Y280806D01*
X420541Y280794D01*
X420480Y280780D01*
X420428Y280763D01*
X420383Y280744D01*
X420345Y280721D01*
X420316Y280697D01*
Y281957D01*
X420345Y281932D01*
D02*
G37*
G36*
X390381Y259032D02*
X390142Y259028D01*
X389915Y259013D01*
X389702Y258986D01*
X389502Y258947D01*
X389315Y258896D01*
X389140Y258834D01*
X388979Y258759D01*
X388831Y258673D01*
X388695Y258575D01*
X388573Y258465D01*
X387866Y259172D01*
X387976Y259294D01*
X388074Y259430D01*
X388160Y259578D01*
X388234Y259739D01*
X388297Y259914D01*
X388348Y260101D01*
X388387Y260301D01*
X388414Y260515D01*
X388429Y260741D01*
X388433Y260980D01*
X390381Y259032D01*
D02*
G37*
G36*
X387001Y249189D02*
X387021Y248936D01*
X387033Y248868D01*
X387047Y248807D01*
X387064Y248754D01*
X387083Y248709D01*
X387105Y248672D01*
X387130Y248643D01*
X385870D01*
X385895Y248672D01*
X385917Y248709D01*
X385936Y248754D01*
X385953Y248807D01*
X385967Y248868D01*
X385979Y248936D01*
X385995Y249097D01*
X385999Y249189D01*
X386000Y249288D01*
X387000D01*
X387001Y249189D01*
D02*
G37*
G36*
X386713Y261227D02*
X386646Y261157D01*
X386536Y261024D01*
X386492Y260960D01*
X386456Y260897D01*
X386428Y260837D01*
X386407Y260779D01*
X386395Y260723D01*
X386390Y260668D01*
X386392Y260615D01*
X385402Y261395D01*
X385450Y261403D01*
X385500Y261418D01*
X385552Y261439D01*
X385607Y261468D01*
X385664Y261503D01*
X385724Y261544D01*
X385851Y261647D01*
X385918Y261708D01*
X385988Y261775D01*
X386713Y261227D01*
D02*
G37*
G36*
X383263Y261303D02*
X383199Y261279D01*
X383143Y261239D01*
X383094Y261183D01*
X383053Y261111D01*
X383019Y261023D01*
X382993Y260919D01*
X382974Y260799D01*
X382966Y260701D01*
X382974Y260602D01*
X382993Y260482D01*
X383019Y260378D01*
X383053Y260290D01*
X383094Y260218D01*
X383143Y260162D01*
X383199Y260122D01*
X383263Y260098D01*
X383334Y260090D01*
X381784D01*
X381855Y260098D01*
X381919Y260122D01*
X381975Y260162D01*
X382024Y260218D01*
X382065Y260290D01*
X382099Y260378D01*
X382125Y260482D01*
X382144Y260602D01*
X382152Y260701D01*
X382144Y260799D01*
X382125Y260919D01*
X382099Y261023D01*
X382065Y261111D01*
X382024Y261183D01*
X381975Y261239D01*
X381919Y261279D01*
X381855Y261303D01*
X381784Y261311D01*
X383334D01*
X383263Y261303D01*
D02*
G37*
D10*
X403500Y258000D02*
D03*
D11*
X390571Y277559D02*
D03*
Y272441D02*
D03*
X399429Y275000D02*
D03*
D12*
X410000Y271378D02*
D03*
D13*
X413839Y275906D02*
D03*
X411280D02*
D03*
X408720D02*
D03*
X406161D02*
D03*
X413839Y264094D02*
D03*
X411280D02*
D03*
X408721D02*
D03*
X406161D02*
D03*
D14*
X421000Y284673D02*
D03*
Y281327D02*
D03*
X356000Y252173D02*
D03*
Y248827D02*
D03*
X371000Y256827D02*
D03*
Y260173D02*
D03*
Y266327D02*
D03*
Y269673D02*
D03*
X350500Y248827D02*
D03*
Y252173D02*
D03*
X325000Y297173D02*
D03*
Y293827D02*
D03*
X319500Y297173D02*
D03*
Y293827D02*
D03*
X330500Y297173D02*
D03*
Y293827D02*
D03*
D15*
X371224Y244760D02*
D03*
Y248500D02*
D03*
Y252240D02*
D03*
X361776D02*
D03*
Y248500D02*
D03*
Y244760D02*
D03*
D16*
X377441Y258429D02*
D03*
X382559D02*
D03*
Y249571D02*
D03*
X380000D02*
D03*
X377441D02*
D03*
D17*
Y263071D02*
D03*
X380000D02*
D03*
X382559D02*
D03*
Y271929D02*
D03*
X380000D02*
D03*
X377441D02*
D03*
D18*
X363898Y256547D02*
D03*
Y258516D02*
D03*
Y260484D02*
D03*
Y262453D02*
D03*
X356102Y256547D02*
D03*
Y258516D02*
D03*
Y260484D02*
D03*
Y262453D02*
D03*
D19*
X360000Y259500D02*
D03*
D20*
X360827Y267000D02*
D03*
X364173D02*
D03*
X351827D02*
D03*
X355173D02*
D03*
X328827D02*
D03*
X332173D02*
D03*
X324327Y273000D02*
D03*
X327673D02*
D03*
X327673Y278500D02*
D03*
X324327D02*
D03*
X319327Y288500D02*
D03*
X322673D02*
D03*
X340827Y301500D02*
D03*
X344173D02*
D03*
X352673Y301500D02*
D03*
X349327D02*
D03*
D21*
X402134Y283000D02*
D03*
X413866D02*
D03*
D22*
X393500Y293004D02*
D03*
Y285996D02*
D03*
D23*
X345500Y284500D02*
D03*
D24*
X340579Y294638D02*
D03*
X342547D02*
D03*
X344516D02*
D03*
X346484D02*
D03*
X348453D02*
D03*
X350421D02*
D03*
D25*
X353669Y291390D02*
D03*
Y289421D02*
D03*
Y287453D02*
D03*
Y285484D02*
D03*
Y283516D02*
D03*
Y281547D02*
D03*
Y279579D02*
D03*
Y277610D02*
D03*
X337331D02*
D03*
Y279579D02*
D03*
Y281547D02*
D03*
Y283516D02*
D03*
Y285484D02*
D03*
Y287453D02*
D03*
Y289421D02*
D03*
Y291390D02*
D03*
D26*
X350421Y274362D02*
D03*
X348453D02*
D03*
X346484D02*
D03*
X344516D02*
D03*
X342547D02*
D03*
X340579D02*
D03*
D27*
X359500Y279532D02*
D03*
Y273468D02*
D03*
Y288968D02*
D03*
Y295031D02*
D03*
D28*
X367142Y285500D02*
D03*
X384858D02*
D03*
D29*
X419673Y281327D02*
X421000D01*
X414236Y264491D02*
X415002D01*
X413839Y264094D02*
X414236Y264491D01*
X416480Y265968D02*
Y266520D01*
X415002Y264491D02*
X416480Y265968D01*
X399429Y275000D02*
X402500D01*
X382500Y275001D02*
X383646D01*
X371501D02*
X382500D01*
X382559Y274942D01*
Y271929D02*
Y274942D01*
X384119Y274528D02*
X390000D01*
X383646Y275001D02*
X384119Y274528D01*
X390000D02*
X390571Y275099D01*
Y277559D01*
X377441Y263071D02*
X380000D01*
X375530Y266859D02*
X378359D01*
X380000Y268500D01*
Y271929D01*
X376441Y269059D02*
X377441Y270059D01*
Y271929D01*
X371500Y275000D02*
X371501Y275001D01*
X356000Y247500D02*
Y248827D01*
X356000Y248827D01*
X367000Y258198D02*
Y262500D01*
X365349Y256547D02*
X367000Y258198D01*
X356102Y255102D02*
Y256547D01*
X355173Y264673D02*
Y267000D01*
X349745Y264245D02*
X354745D01*
X349500Y264000D02*
X349745Y264245D01*
X350421Y271421D02*
Y274362D01*
X386500Y257099D02*
X390401Y261000D01*
X386500Y248000D02*
Y257099D01*
X363898Y256547D02*
X365349D01*
X358173Y248827D02*
X358500Y248500D01*
X356000Y248827D02*
X358173D01*
X358500Y248500D02*
X361776D01*
X354745Y264245D02*
X355173Y264673D01*
X369500Y263000D02*
X371000D01*
X367500Y265000D02*
X369500Y263000D01*
X360984Y258516D02*
X363898D01*
X360984Y260484D02*
X363898D01*
X366000Y263500D02*
X367000Y262500D01*
X364173Y265327D02*
X366000Y263500D01*
X364953Y262453D02*
X366000Y263500D01*
X363898Y262453D02*
X364953D01*
X364173Y265327D02*
Y267000D01*
X367500Y267000D02*
Y269000D01*
Y265000D02*
Y267000D01*
X364173Y267000D02*
X364173Y267000D01*
X367500D01*
X371000Y259999D02*
X373501D01*
X375071Y258429D01*
X377441D01*
X371000Y259999D02*
Y260173D01*
X371000Y260173D01*
Y263000D01*
X382559Y249571D02*
Y252941D01*
X372715Y269673D02*
X375530Y266859D01*
X367500Y269000D02*
X368173Y269673D01*
X371000D01*
X372715D01*
X333627Y285484D02*
X337331D01*
X333411Y285700D02*
X333627Y285484D01*
X331589Y285700D02*
X333411D01*
X331541Y285653D02*
X331589Y285700D01*
X331302Y285653D02*
X331541D01*
X331254Y285700D02*
X331302Y285653D01*
X331089Y285700D02*
X331254D01*
X330162Y284773D02*
X331089Y285700D01*
X334204Y287453D02*
X337331D01*
X334157Y287500D02*
X334204Y287453D01*
X332000Y287500D02*
X334157D01*
X331000Y288500D02*
X332000Y287500D01*
X322673Y288500D02*
X331000D01*
X333579Y289421D02*
X337331D01*
X332000Y291000D02*
X333579Y289421D01*
X334610Y291390D02*
X337331D01*
X334500Y291500D02*
X334610Y291390D01*
X334500Y291500D02*
Y293000D01*
X330162Y279162D02*
Y284773D01*
X329500Y278500D02*
X330162Y279162D01*
X327673Y278500D02*
X329500D01*
X327673Y273000D02*
Y278500D01*
X322000D02*
X324327D01*
X324327Y273000D02*
Y274827D01*
X319327Y291827D02*
X319500Y292000D01*
X319327Y288500D02*
Y291827D01*
X319500Y292000D02*
Y293827D01*
X325000Y291500D02*
Y293827D01*
Y291500D02*
X325500Y291000D01*
X332000D01*
X333673Y293827D02*
X334500Y293000D01*
X330500Y293827D02*
X333673D01*
X344173Y299438D02*
Y301500D01*
Y299438D02*
X344611Y299000D01*
X345500D01*
X342500Y297000D02*
Y298000D01*
Y297000D02*
X342547Y296953D01*
Y294638D02*
Y296953D01*
X338000Y295500D02*
X338862Y294638D01*
X340579D01*
X345500Y299000D02*
X346484Y298016D01*
Y294638D02*
Y298016D01*
X352500Y299000D02*
X352673Y299173D01*
Y301500D01*
X352500Y298000D02*
Y299000D01*
X349327Y298016D02*
Y301500D01*
Y298016D02*
X350421Y296921D01*
Y294638D02*
Y296921D01*
D30*
X382559Y258429D02*
Y263071D01*
X347400Y264870D02*
X347500Y264970D01*
X347400Y263130D02*
Y264870D01*
Y263130D02*
X347500Y263030D01*
Y252500D02*
Y263030D01*
X346000Y251000D02*
X347500Y252500D01*
X379500D02*
X380000Y252000D01*
Y249571D02*
Y252000D01*
X350500Y252173D02*
Y253500D01*
X353424Y254924D02*
Y257424D01*
X352673Y254173D02*
X353424Y254924D01*
X346484Y268516D02*
X347500Y267500D01*
Y264970D02*
Y267500D01*
X346484Y268516D02*
Y274362D01*
X350500Y253500D02*
X351173Y254173D01*
X353424Y257424D02*
X354516Y258516D01*
X356102D01*
X351173Y254173D02*
X352673D01*
D31*
X387554Y266000D02*
X390401D01*
X387554Y262705D02*
Y266000D01*
X385500Y260500D02*
Y260651D01*
X385404Y263596D02*
Y268096D01*
X386527Y269218D01*
X395282D01*
X385500Y260651D02*
X387554Y262705D01*
X365240Y252240D02*
X368000Y255000D01*
X351500Y258500D02*
X351540D01*
X351500Y261500D02*
X352453Y262453D01*
X367650Y245850D02*
Y249850D01*
X367500Y250000D02*
X367650Y249850D01*
X364260Y244760D02*
X365500Y246000D01*
X367650Y245850D02*
X368740Y244760D01*
X371224D01*
X361776D02*
X364260D01*
X371224Y248500D02*
X374000D01*
X395282Y269218D02*
X395401Y269099D01*
X371224Y252240D02*
X374240D01*
X361776D02*
X365240D01*
X353525Y260484D02*
X356102D01*
X351540Y258500D02*
X353525Y260484D01*
X352453Y262453D02*
X356102D01*
X395401Y266000D02*
Y269099D01*
X344516Y274362D02*
Y283516D01*
X338500Y271000D02*
X340000D01*
X340579Y271579D01*
Y274362D01*
X328827Y267000D02*
Y268827D01*
X335500Y267000D02*
X337000Y268500D01*
X332173Y267000D02*
X335500D01*
X337000Y268500D02*
X341500D01*
X342547Y269547D01*
Y274362D01*
X334000Y275000D02*
Y278500D01*
X334852Y279352D01*
X335257D01*
X332500Y280500D02*
X333350Y281350D01*
X332500Y283500D02*
X333000D01*
X333588Y281547D02*
X337331D01*
X333390Y281350D02*
X333588Y281547D01*
X333350Y281350D02*
X333390D01*
X333000Y283500D02*
X333016Y283516D01*
X337331D01*
X335257Y279352D02*
X335483Y279579D01*
X337331D01*
X402134Y283000D02*
X406000D01*
X410000D02*
X413866D01*
D32*
X343901Y265000D02*
D03*
Y260000D02*
D03*
X338901Y265000D02*
D03*
X395401Y256000D02*
D03*
X390401D02*
D03*
X395401Y261000D02*
D03*
X390401D02*
D03*
X395401Y266000D02*
D03*
D33*
X338901Y260000D02*
D03*
D34*
X390401Y266000D02*
D03*
D35*
X326894Y283500D02*
D03*
X321894D02*
D03*
D36*
X423394Y293000D02*
D03*
X416394D02*
D03*
X409394D02*
D03*
X402394D02*
D03*
D37*
X403500Y264000D02*
D03*
X419673Y281327D02*
D03*
X416480Y266520D02*
D03*
X402500Y275000D02*
D03*
X421000Y284673D02*
D03*
X373280Y265534D02*
D03*
X385404Y263596D02*
D03*
X343500Y280000D02*
D03*
X345500D02*
D03*
Y282000D02*
D03*
X343500D02*
D03*
X361000Y267000D02*
D03*
X344500Y253500D02*
D03*
X379500Y252500D02*
D03*
X380000Y259000D02*
D03*
X371500Y275000D02*
D03*
X356000Y247500D02*
D03*
X350500Y252173D02*
D03*
X368000Y255000D02*
D03*
X360000Y256000D02*
D03*
X346000Y251000D02*
D03*
X356102Y255102D02*
D03*
X351500Y258500D02*
D03*
Y261500D02*
D03*
X355173Y267000D02*
D03*
X349500Y264000D02*
D03*
X350421Y271421D02*
D03*
X358500Y272500D02*
D03*
X365500Y246000D02*
D03*
X367500Y250000D02*
D03*
X374000Y248500D02*
D03*
X385500Y260500D02*
D03*
X374240Y252240D02*
D03*
X386500Y248000D02*
D03*
X371000Y263000D02*
D03*
X382559Y252941D02*
D03*
X376441Y269059D02*
D03*
X338500Y271000D02*
D03*
X328827Y268827D02*
D03*
X334000Y275000D02*
D03*
X332500Y280500D02*
D03*
Y283500D02*
D03*
X406000Y283000D02*
D03*
X410000D02*
D03*
X388500Y295500D02*
D03*
Y293000D02*
D03*
X386500D02*
D03*
X384500D02*
D03*
X382500D02*
D03*
X386500Y295500D02*
D03*
X384500D02*
D03*
X382500D02*
D03*
X366000D02*
D03*
X368500D02*
D03*
X366000Y293000D02*
D03*
X368500D02*
D03*
X322000Y278500D02*
D03*
X324327Y274827D02*
D03*
X391500Y282000D02*
D03*
X341500Y280000D02*
D03*
X347500D02*
D03*
X349500D02*
D03*
Y282000D02*
D03*
X347500D02*
D03*
X341500D02*
D03*
Y284000D02*
D03*
X343500D02*
D03*
X347500D02*
D03*
X345500D02*
D03*
Y286000D02*
D03*
X343500D02*
D03*
X341500D02*
D03*
Y288000D02*
D03*
X343500D02*
D03*
X345500D02*
D03*
Y290000D02*
D03*
X343500D02*
D03*
X341500D02*
D03*
X324500Y298500D02*
D03*
X316500D02*
D03*
X318500D02*
D03*
X320500D02*
D03*
X322500D02*
D03*
Y300500D02*
D03*
X320500D02*
D03*
X318500D02*
D03*
X316500D02*
D03*
Y302500D02*
D03*
X318500D02*
D03*
X320500D02*
D03*
X322500D02*
D03*
Y304500D02*
D03*
X320500D02*
D03*
X318500D02*
D03*
X316500D02*
D03*
X338000Y295500D02*
D03*
X342500Y298000D02*
D03*
X356500Y284500D02*
D03*
X352500Y298000D02*
D03*
X358500Y274500D02*
D03*
X360500D02*
D03*
Y272500D02*
D03*
Y278500D02*
D03*
X358500D02*
D03*
Y280500D02*
D03*
X360500D02*
D03*
Y288000D02*
D03*
X358500D02*
D03*
Y290000D02*
D03*
X360500D02*
D03*
%TF.MD5,2A49DAFDD994D6D487A440A859407DD2*%
M02*
