G04 Layer_Physical_Order=2*
G04 Layer_Color=32768*
%FSLAX25Y25*%
%MOIN*%
%TF.FileFunction,Copper,L2,Inr,Plane*%
%TF.Part,Single*%
G01*
G75*
%ADD29C,0.01000*%
%ADD38C,0.04000*%
%ADD39C,0.04000*%
%ADD40R,0.08500X0.09000*%
%ADD41R,0.09500X0.09000*%
%TA.AperFunction,ViaPad*%
%ADD42C,0.05362*%
%TA.AperFunction,ConnectorPad*%
%ADD43C,0.05756*%
%TA.AperFunction,ConnectorPad*%
%ADD44C,0.07724*%
%TA.AperFunction,ViaPad*%
%ADD45C,0.04000*%
D29*
X353500Y248000D02*
X362000D01*
X353029Y248471D02*
X353500Y248000D01*
X347029Y248471D02*
X353029D01*
X335500Y260000D02*
X347029Y248471D01*
X331895Y260000D02*
X335500D01*
X362000Y248000D02*
X367000D01*
X368000Y247000D01*
Y239500D02*
Y247000D01*
X398000Y278000D02*
Y299501D01*
X369000Y278000D02*
X398000D01*
X361500Y270500D02*
X369000Y278000D01*
X356000Y270500D02*
X361500D01*
X353500Y273000D02*
X356000Y270500D01*
X348000Y273000D02*
X353500D01*
X344000Y269000D02*
X348000Y273000D01*
X335000Y269000D02*
X344000D01*
X331895Y265895D02*
X335000Y269000D01*
X331895Y260000D02*
Y265895D01*
D38*
X313498Y298001D02*
G03*
X429461Y297721I57981J-281D01*
G01*
Y299000D02*
G03*
X428960Y299501I-501J0D01*
G01*
X361502Y307500D02*
G03*
X361000Y308001I-501J0D01*
G01*
X335001Y329000D02*
G03*
X334500Y329502I-501J0D01*
G01*
X323500D02*
G03*
X322998Y329000I0J-501D01*
G01*
X314000Y308001D02*
G03*
X313498Y307500I0J-501D01*
G01*
X429461Y297721D02*
Y299000D01*
X361502Y299501D02*
X428960D01*
X361502D02*
Y307500D01*
X335001Y308001D02*
X361000D01*
X335001D02*
Y329000D01*
X323500Y329502D02*
X334500D01*
X322998Y308001D02*
Y329000D01*
X314000Y308001D02*
X322998D01*
X313498Y297999D02*
Y307500D01*
D39*
X361502Y307500D02*
D03*
D40*
X341750Y262500D02*
D03*
D41*
X392750Y263500D02*
D03*
D42*
X343901Y265000D02*
D03*
Y260000D02*
D03*
X338901Y265000D02*
D03*
Y260000D02*
D03*
X395401Y256000D02*
D03*
Y261000D02*
D03*
X390401D02*
D03*
X395401Y266000D02*
D03*
X390401D02*
D03*
D43*
X326894Y283500D02*
D03*
X321894D02*
D03*
D44*
X423394Y293000D02*
D03*
X416394D02*
D03*
X409394D02*
D03*
X402394D02*
D03*
D45*
X403500Y264000D02*
D03*
X419673Y281327D02*
D03*
X416480Y266520D02*
D03*
X402500Y275000D02*
D03*
X421000Y284673D02*
D03*
X385404Y263596D02*
D03*
X379500Y252500D02*
D03*
X371500Y275000D02*
D03*
X356000Y247500D02*
D03*
X350500Y252173D02*
D03*
X368000Y255000D02*
D03*
X346000Y251000D02*
D03*
X356102Y255102D02*
D03*
X351500Y258500D02*
D03*
Y261500D02*
D03*
X355173Y267000D02*
D03*
X349500Y264000D02*
D03*
X350421Y271421D02*
D03*
X358500Y272500D02*
D03*
X367500Y250000D02*
D03*
X385500Y260500D02*
D03*
X374240Y252240D02*
D03*
X386500Y248000D02*
D03*
X371000Y263000D02*
D03*
X376441Y269059D02*
D03*
X334000Y275000D02*
D03*
X332500Y280500D02*
D03*
Y283500D02*
D03*
X406000Y283000D02*
D03*
X410000D02*
D03*
X366000Y295500D02*
D03*
X368500D02*
D03*
X366000Y293000D02*
D03*
X368500D02*
D03*
X324327Y274827D02*
D03*
X391500Y282000D02*
D03*
X338000Y295500D02*
D03*
X342500Y298000D02*
D03*
X356500Y284500D02*
D03*
X352500Y298000D02*
D03*
X358500Y274500D02*
D03*
X360500D02*
D03*
Y272500D02*
D03*
%TF.MD5,B733662D002BDA542EB0861DC3B1EA4E*%
M02*
